<svg version="1.1" xmlns="http://www.w3.org/2000/svg" xmlns:xlink="http://www.w3.org/1999/xlink" x="0px" y="0px"
	 viewBox="0 0 72.7 80.6" style="enable-background:new 0 0 72.7 80.6;" xml:space="preserve">
<style type="text/css">
	.st03_3{fill:#9B968C;}
	.st13_3{enable-background:new    ;}
	.st23_3{fill:url(#SVGID_1_3_);}
	.st33_3{fill:url(#SVGID_2_3_);}
	.st43_3{fill:#FFCF40;}
	.st53_3{fill:#2D2B2A;}
	.st63_3{fill:#95FFF9;}
	.st73_3{fill:url(#SVGID_3_3_);}
	.st83_3{fill:url(#SVGID_4_3_);}
	.st93_3{fill:#B9B4A7;}
	.st103_3{fill:#415CAA;}
	.st113_3{fill:#DC9A11;}
	.st123_3{fill:#D8D3CC;}
	.st133_3{fill:#E8E4DF;}
	.st143_3{opacity:0.2;fill:#EFB224;}
	.st153_3{opacity:0.4;fill:#E5A61A;}
	.st163_3{fill:#474443;}
	.st173_3{fill:#74A2A3;}
</style>
<g id="_x36__1_">
	<g id="_x36_">
		<path class="st03_3" d="M22.4,61.5c-0.5-1.1-1.1-2.1-1.9-3c-0.6-0.7-1.4-1.3-2.1-1.8c-1.4-0.8-2.6-0.9-3.5-0.3l-3.5,2l6.9,11.9l3.5-2
			c0.9-0.5,1.4-1.6,1.4-3.1C23.2,64,22.9,62.7,22.4,61.5z"/>
		<g class="st13_3">
			<linearGradient id="SVGID_1_3_" gradientUnits="userSpaceOnUse" x1="38.416" y1="64.071" x2="45.5809" y2="64.071">
				<stop  offset="0" style="stop-color:#2D2B2A"/>
				<stop  offset="1" style="stop-color:#383534"/>
			</linearGradient>
			<path class="st23_3" d="M0,47.6L0,56c0,0.8,0.6,1.7,1.7,2.3l36.9,21.3c2.2,1.3,5.8,1.3,8,0L71,65.4c1.1-0.6,1.6-1.5,1.6-2.3l0-8.4
				L0,47.6z"/>
		</g>
		<g class="st13_3">
			<linearGradient id="SVGID_2_3_" gradientUnits="userSpaceOnUse" x1="38.4258" y1="58.2309" x2="45.5925" y2="58.2309">
				<stop  offset="3.571430e-02" style="stop-color:#DC9A11"/>
				<stop  offset="1" style="stop-color:#EFB224"/>
			</linearGradient>
			<path class="st33_3" d="M0,44.3l0,3.4c0,0.8,0.6,1.7,1.7,2.3l36.9,21.3c2.2,1.3,5.8,1.3,8,0l24.4-14.2c1.1-0.6,1.7-1.5,1.7-2.3
				l0-3.4L0,44.3z"/>
			<g>
				<path class="st43_3" d="M70.9,49.1c2.2,1.3,2.2,3.3,0,4.6L46.5,67.9c-2.2,1.3-5.8,1.3-8,0L1.7,46.6c-2.2-1.3-2.2-3.3,0-4.6
					l24.4-14.2c2.2-1.3,5.8-1.3,8,0L70.9,49.1z"/>
			</g>
		</g>
		<g>
			<path class="st53_3" d="M64.6,67.5l-12,6.9c-0.6,0.3-1.1,0.1-1.1-0.4v-3c0-0.6,0.5-1.3,1.1-1.7l12-6.9c0.6-0.3,1.1-0.1,1.1,0.4v3
				C65.7,66.4,65.2,67.1,64.6,67.5z"/>
			<g>
				<path class="st63_3" d="M55.4,70.4c0,0.4-0.4,0.8-0.8,1c-0.4,0.2-0.7,0-0.6-0.3c0-0.4,0.4-0.8,0.8-1C55.2,69.9,55.5,70.1,55.4,70.4
					z"/>
				<radialGradient id="SVGID_3_3_" cx="54.7268" cy="70.8053" r="4.0841" gradientUnits="userSpaceOnUse">
					<stop  offset="0" style="stop-color:#14B4AC"/>
					<stop  offset="5.004817e-02" style="stop-color:#119E97"/>
					<stop  offset="0.1558" style="stop-color:#0D746F"/>
					<stop  offset="0.2677" style="stop-color:#09504D"/>
					<stop  offset="0.3847" style="stop-color:#063331"/>
					<stop  offset="0.5087" style="stop-color:#031C1B"/>
					<stop  offset="0.6427" style="stop-color:#010C0C"/>
					<stop  offset="0.7941" style="stop-color:#000303"/>
					<stop  offset="1" style="stop-color:#000000"/>
				</radialGradient>
				<path class="st73_3" d="M51.2,72.8c1.1,2,3.6,2.6,5.6,1.5c2-1.1,2.6-3.6,1.5-5.6c-1.1-2-3.6-2.6-5.6-1.5
					C50.7,68.4,50.1,70.9,51.2,72.8z"/>
			</g>
			<g>
				<path class="st63_3" d="M63.6,65.7c0,0.4-0.4,0.8-0.8,1c-0.4,0.2-0.7,0-0.6-0.3c0-0.4,0.4-0.8,0.8-1C63.3,65.2,63.6,65.4,63.6,65.7
					z"/>
				<radialGradient id="SVGID_4_3_" cx="62.8658" cy="66.1062" r="4.0841" gradientUnits="userSpaceOnUse">
					<stop  offset="0" style="stop-color:#14B4AC"/>
					<stop  offset="5.004817e-02" style="stop-color:#119E97"/>
					<stop  offset="0.1558" style="stop-color:#0D746F"/>
					<stop  offset="0.2677" style="stop-color:#09504D"/>
					<stop  offset="0.3847" style="stop-color:#063331"/>
					<stop  offset="0.5087" style="stop-color:#031C1B"/>
					<stop  offset="0.6427" style="stop-color:#010C0C"/>
					<stop  offset="0.7941" style="stop-color:#000303"/>
					<stop  offset="1" style="stop-color:#000000"/>
				</radialGradient>
				<path class="st83_3" d="M59.3,68.1c1.1,2,3.6,2.6,5.6,1.5c2-1.1,2.6-3.6,1.5-5.6c-1.1-2-3.6-2.6-5.6-1.5
					C58.9,63.7,58.2,66.2,59.3,68.1z"/>
			</g>
		</g>
		<path class="st93_3" d="M14.9,58.8c-2.7-1.6-4.9-0.3-4.9,2.8c0,3.1,2.2,6.8,4.8,8.4c2.7,1.6,4.9,0.3,4.9-2.8
			C19.7,64.1,17.5,60.4,14.9,58.8z"/>
		<path class="st103_3" d="M14.9,59.7c-2.3-1.3-4.1-0.3-4.1,2.3c0,2.6,1.8,5.8,4.1,7.1c2.3,1.3,4.1,0.3,4.1-2.3
			C19,64.2,17.1,61,14.9,59.7z M14.8,68.6c-2-1.2-3.7-4-3.7-6.3c0-2.3,1.7-3.3,3.7-2.1c2,1.2,3.7,4,3.7,6.3
			C18.5,68.9,16.9,69.8,14.8,68.6z"/>
		<g>
			<polygon id="Cube_face_-_top_502_" class="st113_3" points="10.8,46.2 6.3,43.6 10.6,41.1 15.2,43.7 			"/>
			<polygon id="Cube_face_-_top_499_" class="st113_3" points="30.2,35.1 25.6,32.4 30,29.9 34.5,32.5 			"/>
			<polygon id="Cube_face_-_top_492_" class="st113_3" points="43.3,64.9 38.7,62.3 43.1,59.8 47.6,62.4 			"/>
			<polygon id="Cube_face_-_top_496_" class="st113_3" points="62.6,53.8 58,51.1 62.4,48.6 66.9,51.3 			"/>
		</g>
		<g>
			<g>
				<g id="Axonometric_Cube_19_">
					<polygon id="Cube_face_-_left_498_" class="st93_3" points="10.8,46.2 7.3,44.2 7.3,38.2 10.8,40.3 					"/>
					<polygon id="Cube_face_-_right_498_" class="st123_3" points="14.2,44.3 10.8,46.2 10.8,40.3 14.2,38.3 					"/>
					<polygon id="Cube_face_-_top_501_" class="st133_3" points="10.8,40.3 7.3,38.2 10.7,36.3 14.2,38.3 					"/>
				</g>
			</g>
			<g id="Axonometric_Cube_18_">
				<polygon id="Cube_face_-_left_497_" class="st93_3" points="10.8,42 5.9,39.1 5.9,38.2 10.8,41.1 				"/>
				<polygon id="Cube_face_-_right_497_" class="st123_3" points="15.6,39.2 10.8,42 10.8,41.1 15.6,38.3 				"/>
				<polygon id="Cube_face_-_top_500_" class="st133_3" points="10.8,41.1 5.9,38.2 10.6,35.4 15.6,38.3 				"/>
			</g>
		</g>
		<g>
			<g>
				<g id="Axonometric_Cube_17_">
					<polygon id="Cube_face_-_left_496_" class="st93_3" points="30.1,35.1 26.6,33 26.6,27.1 30.1,29.1 					"/>
					<polygon id="Cube_face_-_right_496_" class="st123_3" points="33.5,33.1 30.1,35.1 30.1,29.1 33.5,27.2 					"/>
					<polygon id="Cube_face_-_top_498_" class="st133_3" points="30.1,29.1 26.6,27.1 30,25.1 33.5,27.2 					"/>
				</g>
			</g>
			<g id="Axonometric_Cube_14_">
				<polygon id="Cube_face_-_left_495_" class="st93_3" points="30.2,30.8 25.2,28 25.2,27 30.2,29.9 				"/>
				<polygon id="Cube_face_-_right_495_" class="st123_3" points="34.9,28.1 30.2,30.8 30.2,29.9 34.9,27.2 				"/>
				<polygon id="Cube_face_-_top_497_" class="st133_3" points="30.2,29.9 25.2,27 29.9,24.3 34.9,27.2 				"/>
			</g>
		</g>
		<g>
			<g>
				<path class="st143_3" d="M32.2,37.1l22.7,13.1c0.5,0.3,1.4,0.3,1.9,0c0.5-0.3,0.5-0.8,0-1.1L34.1,36c-0.5-0.3-1.4-0.3-1.9,0
					C31.6,36.3,31.6,36.8,32.2,37.1z"/>
				<path class="st153_3" d="M32.2,36.3c0.5-0.3,1.4-0.3,1.9,0l22.7,13.1c0.2,0.1,0.3,0.2,0.3,0.4c0.1-0.3,0-0.5-0.3-0.7L34.1,36
					c-0.5-0.3-1.4-0.3-1.9,0c-0.3,0.2-0.4,0.5-0.3,0.7C31.9,36.5,32,36.4,32.2,36.3z"/>
			</g>
			<g>
				<path class="st143_3" d="M28.4,39.3l22.7,13.1c0.5,0.3,1.4,0.3,1.9,0c0.5-0.3,0.5-0.8,0-1.1L30.3,38.1c-0.5-0.3-1.4-0.3-1.9,0
					C27.8,38.5,27.8,39,28.4,39.3z"/>
				<path class="st153_3" d="M28.4,38.5c0.5-0.3,1.4-0.3,1.9,0L53,51.6c0.2,0.1,0.3,0.2,0.3,0.4c0.1-0.3,0-0.5-0.3-0.7L30.3,38.1
					c-0.5-0.3-1.4-0.3-1.9,0c-0.3,0.2-0.4,0.5-0.3,0.7C28.1,38.7,28.2,38.6,28.4,38.5z"/>
			</g>
			<g>
				<path class="st143_3" d="M24.6,41.5l22.7,13.1c0.5,0.3,1.4,0.3,1.9,0c0.5-0.3,0.5-0.8,0-1.1L26.5,40.3c-0.5-0.3-1.4-0.3-1.9,0
					C24,40.6,24,41.2,24.6,41.5z"/>
				<path class="st153_3" d="M24.6,40.7c0.5-0.3,1.4-0.3,1.9,0l22.7,13.1c0.2,0.1,0.3,0.2,0.3,0.4c0.1-0.3,0-0.5-0.3-0.7L26.5,40.3
					c-0.5-0.3-1.4-0.3-1.9,0c-0.3,0.2-0.4,0.5-0.3,0.7C24.3,40.9,24.4,40.8,24.6,40.7z"/>
			</g>
			<g>
				<path class="st143_3" d="M20.8,43.7l22.7,13.1c0.5,0.3,1.4,0.3,1.9,0c0.5-0.3,0.5-0.8,0-1.1L22.7,42.5c-0.5-0.3-1.4-0.3-1.9,0
					C20.2,42.8,20.2,43.3,20.8,43.7z"/>
				<path class="st153_3" d="M20.8,42.9c0.5-0.3,1.4-0.3,1.9,0L45.5,56c0.2,0.1,0.3,0.2,0.3,0.4c0.1-0.3,0-0.5-0.3-0.7L22.7,42.5
					c-0.5-0.3-1.4-0.3-1.9,0c-0.3,0.2-0.4,0.5-0.3,0.7C20.5,43.1,20.6,43,20.8,42.9z"/>
			</g>
			<g>
				<path class="st143_3" d="M17,45.8L39.7,59c0.5,0.3,1.4,0.3,1.9,0c0.5-0.3,0.5-0.8,0-1.1L18.9,44.7c-0.5-0.3-1.4-0.3-1.9,0
					C16.4,45,16.4,45.5,17,45.8z"/>
				<path class="st153_3" d="M17,45.1c0.5-0.3,1.4-0.3,1.9,0l22.7,13.1c0.2,0.1,0.3,0.2,0.3,0.4c0.1-0.3,0-0.5-0.3-0.7L18.9,44.7
					c-0.5-0.3-1.4-0.3-1.9,0c-0.3,0.2-0.4,0.5-0.3,0.7C16.7,45.3,16.8,45.2,17,45.1z"/>
			</g>
		</g>
		<g>
			<g>
				<g id="Axonometric_Cube_7_">
					<polygon id="Cube_face_-_left_490_" class="st93_3" points="43.3,64.9 39.7,62.9 39.7,56.9 43.3,59 					"/>
					<polygon id="Cube_face_-_right_490_" class="st123_3" points="46.6,63 43.3,64.9 43.3,59 46.6,57 					"/>
					<polygon id="Cube_face_-_top_490_" class="st133_3" points="43.3,59 39.7,56.9 43.1,55 46.6,57 					"/>
				</g>
			</g>
			<g id="Axonometric_Cube_10_">
				<polygon id="Cube_face_-_left_492_" class="st93_3" points="43.3,60.7 38.3,57.8 38.3,56.9 43.3,59.8 				"/>
				<polygon id="Cube_face_-_right_492_" class="st123_3" points="48,57.9 43.3,60.7 43.3,59.8 48,57 				"/>
				<polygon id="Cube_face_-_top_493_" class="st133_3" points="43.3,59.8 38.3,56.9 43,54.1 48,57 				"/>
			</g>
		</g>
		<g>
			<g>
				<g id="Axonometric_Cube_13_">
					<polygon id="Cube_face_-_left_494_" class="st93_3" points="62.6,53.8 59,51.7 59,45.8 62.6,47.8 					"/>
					<polygon id="Cube_face_-_right_494_" class="st123_3" points="65.9,51.8 62.6,53.8 62.6,47.8 65.9,45.9 					"/>
					<polygon id="Cube_face_-_top_495_" class="st133_3" points="62.6,47.8 59,45.8 62.4,43.9 65.9,45.9 					"/>
				</g>
			</g>
			<g id="Axonometric_Cube_12_">
				<polygon id="Cube_face_-_left_493_" class="st93_3" points="62.6,49.6 57.6,46.7 57.6,45.7 62.6,48.6 				"/>
				<polygon id="Cube_face_-_right_493_" class="st123_3" points="67.3,46.8 62.6,49.6 62.6,48.6 67.3,45.9 				"/>
				<polygon id="Cube_face_-_top_494_" class="st133_3" points="62.6,48.6 57.6,45.7 62.4,43 67.3,45.9 				"/>
			</g>
		</g>
		<g>
			<polygon id="Cube_face_-_top_546_" class="st163_3" points="62.6,48.3 58.1,45.7 62.4,43.3 66.8,45.9 			"/>
			<polygon id="Cube_face_-_top_547_" class="st163_3" points="43.3,59.5 38.8,56.9 43.1,54.5 47.5,57 			"/>
			<polygon id="Cube_face_-_top_549_" class="st163_3" points="30.2,29.6 25.7,27 30,24.6 34.4,27.1 			"/>
			<polygon id="Cube_face_-_top_548_" class="st163_3" points="10.9,40.7 6.4,38.2 10.7,35.7 15.1,38.3 			"/>
		</g>
		<path class="st173_3" d="M53.6,57.2c-0.8,0.5-0.8,1.3,0,1.8c0.8,0.5,2.2,0.5,3,0c0.8-0.5,0.8-1.3,0-1.8
			C55.8,56.8,54.5,56.8,53.6,57.2z M56.4,58.8c-0.7,0.4-1.8,0.4-2.5,0c-0.7-0.4-0.7-1,0-1.4c0.7-0.4,1.8-0.4,2.5,0
			C57.1,57.8,57.1,58.4,56.4,58.8z"/>
	</g>
	<g>
		<g>
			<g>
				<g>
					<path class="st133_3" d="M60.9,21.1c-0.8,0-1.5-0.2-2.2-0.6c-1.6-0.9-2.4-2.8-2.5-5.3c0-5.2,3.6-11.5,8.1-14.1
						c2.2-1.3,4.3-1.5,5.9-0.6c1.6,0.9,2.4,2.8,2.5,5.3c0,5.2-3.6,11.5-8.1,14.1C63.3,20.8,62,21.1,60.9,21.1z M64.5,1.4
						c-4.4,2.6-8,8.8-8,13.8c0,2.4,0.8,4.2,2.3,5.1c1.5,0.9,3.5,0.7,5.6-0.6c4.4-2.6,8-8.8,8-13.8c0-2.4-0.8-4.2-2.3-5.1
						C68.6,0,66.6,0.2,64.5,1.4L64.5,1.4z"/>
				</g>
			</g>
		</g>
		<path class="st133_3" d="M64.5,12.4c0.8-0.5,1.5-0.1,1.5,0.8c0,0.9-0.7,2.1-1.5,2.6c-0.8,0.5-1.5,0.1-1.5-0.8
			C63.1,14,63.7,12.8,64.5,12.4z M61.6,13.8l0.7,0.4c0.1-1.4,1.1-2.9,2.3-3.6c1.2-0.7,2.1-0.2,2.3,1l0.7-1.1
			c-0.4-1.2-1.6-1.6-2.9-0.8C63.2,10.4,62,12.1,61.6,13.8z M60.4,13.1l0.6,0.4c0.6-1.9,2-3.8,3.6-4.7c1.6-0.9,2.9-0.6,3.6,0.6l0.6-1
			c-0.8-1.3-2.4-1.5-4.2-0.5C62.7,8.8,61.2,10.9,60.4,13.1z M59.2,12.4l0.6,0.3c0.9-2.4,2.7-4.7,4.8-5.9c2-1.2,3.8-0.9,4.8,0.4
			l0.6-1c-1.1-1.4-3.1-1.6-5.3-0.3C62.3,7.2,60.3,9.7,59.2,12.4z"/>
		<g>
			<path class="st133_3" d="M63.3,38.6c-0.1,0-0.2-0.1-0.2-0.2V20.6c0-0.1,0.1-0.2,0.2-0.2s0.2,0.1,0.2,0.2v17.9
				C63.4,38.5,63.4,38.6,63.3,38.6z"/>
		</g>
		<path class="st133_3" d="M64,38.5c0,0.4-0.3,0.7-0.7,0.7c-0.4,0-0.7-0.3-0.7-0.7c0-0.4,0.3-0.7,0.7-0.7C63.7,37.8,64,38.1,64,38.5z"
			/>
	</g>
</g>
</svg>
