<svg version="1.1" xmlns="http://www.w3.org/2000/svg" xmlns:xlink="http://www.w3.org/1999/xlink" x="0px" y="0px"
	 viewBox="0 0 75 92.3" style="enable-background:new 0 0 75 92.3;" xml:space="preserve">
<style type="text/css">
	.st0_5{fill:#D8D3CC;}
	.st1_5{fill:#B9B4A7;}
	.st2_5{fill:url(#SVGID_1_5_);}
	.st3_5{fill:#383534;}
	.st4_5{fill:url(#SVGID_2_5_);}
	.st5_5{enable-background:new    ;}
	.st6_5{fill:#E8E4DF;}
	.st7_5{fill:url(#SVGID_3_5_);}
	.st8_5{fill:#2D2B2A;}
	.st9_5{fill:url(#SVGID_4_5_);}
	.st10_5{fill:#1F1C1C;}
	.st11_5{opacity:0.3;fill:#383534;}
	.st12_5{fill:url(#SVGID_5_5_);}
	.st13_5{fill:url(#SVGID_6_5_);}
	.st14_5{fill:url(#SVGID_7_5_);}
	.st15_5{fill:url(#SVGID_8_5_);}
	.st16_5{fill:#DC9A11;}
	.st17_5{fill:#EFB224;}
	.st18_5{fill:url(#SVGID_9_5_);}
	.st19_5{fill:#E2A217;}
	.st20_5{fill:#FFCF40;}
	.st21_5{fill:url(#SVGID_10_5_);}
	.st22_5{fill:url(#SVGID_11_5_);}
	.st23_5{fill:url(#SVGID_12_5_);}
	.st24_5{fill:url(#SVGID_13_5_);}
	.st25_5{fill:url(#SVGID_14_5_);}
	.st26_5{fill:url(#SVGID_15_5_);}
	.st27_5{fill:#4A6ABA;}
	.st28_5{fill:#474443;}
	.st29_5{fill:#C6C0B2;}
</style>
<g id="_x31_5_1_">
	<g id="_x31_5">
		<g>
			<polygon class="st0_5" points="40.7,28.7 43.6,27 43.6,64.9 40.7,66.6 			"/>
			<polygon class="st1_5" points="40.7,28.7 40.7,66.6 22.8,56.3 22.8,18.4 			"/>
		</g>
		<g>
			<g id="Axonometric_Cylinder_68_">
				<linearGradient id="SVGID_1_5_" gradientUnits="userSpaceOnUse" x1="21.9094" y1="38.2425" x2="24.2051" y2="42.2187">
					<stop  offset="0" style="stop-color:#E8E4DF"/>
					<stop  offset="1" style="stop-color:#D8D3CC"/>
				</linearGradient>
				<path class="st2_5" d="M23.2,38.3C22.7,38,22.3,38,22,38.2L20.6,39l2.3,4l1.4-0.8c0.3-0.2,0.5-0.5,0.5-1
					C24.8,40.1,24.1,38.8,23.2,38.3z"/>
				<path id="Cylinder_face_16_" class="st1_5" d="M23.4,41.9c0,1-0.7,1.5-1.6,0.9s-1.6-1.8-1.6-2.8c0-1,0.7-1.5,1.6-0.9
					C22.7,39.6,23.4,40.9,23.4,41.9z"/>
				<path id="Cylinder_face_15_" class="st3_5" d="M22.5,41.4c0,0.5-0.3,0.7-0.8,0.4C21.4,41.6,21,41,21,40.5c0-0.5,0.3-0.7,0.8-0.4
					C22.2,40.3,22.5,40.9,22.5,41.4z"/>
			</g>
			<g id="Axonometric_Cylinder_67_">
				<linearGradient id="SVGID_2_5_" gradientUnits="userSpaceOnUse" x1="72.1367" y1="67.2412" x2="74.4323" y2="71.2174">
					<stop  offset="0" style="stop-color:#E8E4DF"/>
					<stop  offset="1" style="stop-color:#D8D3CC"/>
				</linearGradient>
				<path class="st4_5" d="M73.4,67.3C73,67,72.6,67,72.3,67.2L70.9,68l2.3,4l1.4-0.8c0.3-0.2,0.5-0.5,0.5-1
					C75,69.1,74.3,67.8,73.4,67.3z"/>
				<path id="Cylinder_face_14_" class="st1_5" d="M73.6,70.9c0,1-0.7,1.5-1.6,0.9c-0.9-0.5-1.6-1.8-1.6-2.8c0-1,0.7-1.5,1.6-0.9
					S73.6,69.9,73.6,70.9z"/>
				<path id="Cylinder_face_13_" class="st3_5" d="M72.8,70.4c0,0.5-0.3,0.7-0.8,0.4c-0.4-0.2-0.8-0.8-0.8-1.3c0-0.5,0.3-0.7,0.8-0.4
					C72.4,69.3,72.8,69.9,72.8,70.4z"/>
			</g>
			<g class="st5_5">
				<path class="st6_5" d="M21.9,37.9c-0.7-0.4-1.4-0.5-1.9-0.2l-1.3,0.7c0.5-0.3,1.2-0.2,1.9,0.2l50.2,29l0.8-0.2l0.5-0.5L21.9,37.9z
					"/>
				<linearGradient id="SVGID_3_5_" gradientUnits="userSpaceOnUse" x1="71.0423" y1="67.4039" x2="74.2442" y2="72.9498">
					<stop  offset="0" style="stop-color:#E8E4DF"/>
					<stop  offset="1" style="stop-color:#D8D3CC"/>
				</linearGradient>
				<path class="st7_5" d="M74.3,69.4c-0.3-0.6-0.6-1.1-1-1.6c-0.4-0.4-0.7-0.7-1.2-1l-1.3,0.7c0.4,0.2,0.8,0.6,1.2,1
					c0.4,0.5,0.8,1,1,1.6c0.3,0.7,0.5,1.4,0.5,2c0,0.8-0.3,1.4-0.8,1.7l1.3-0.7c0.5-0.3,0.8-0.9,0.8-1.7
					C74.7,70.8,74.6,70.1,74.3,69.4z"/>
				<path class="st1_5" d="M70.8,67.6l-50.2-29c-1.5-0.8-2.7-0.2-2.7,1.5c0,1.7,1.2,3.7,2.7,4.6l50.2,29c1.5,0.8,2.7,0.2,2.7-1.5
					C73.4,70.5,72.3,68.4,70.8,67.6z"/>
			</g>
			<g>
				<polygon class="st3_5" points="54.6,78.2 68,70.4 68,84.6 54.6,92.3 				"/>
				<polygon class="st8_5" points="54.6,78.2 54.6,92.3 7.5,65.1 7.5,51 				"/>
			</g>
			<g class="st5_5">
				<path class="st1_5" d="M55.8,76.4L7,48.3C5.9,47.6,5,48.1,5,49.4c0,1.3,0.9,2.9,2,3.5l48.8,28.2c1.1,0.7,2.1,0.1,2.1-1.2
					C57.9,78.7,57,77.1,55.8,76.4z"/>
				<linearGradient id="SVGID_4_5_" gradientUnits="userSpaceOnUse" x1="44.3292" y1="68.8567" x2="53.1935" y2="84.2101">
					<stop  offset="0.7344" style="stop-color:#474443"/>
					<stop  offset="0.8205" style="stop-color:#403D3C"/>
					<stop  offset="0.8776" style="stop-color:#383534"/>
					<stop  offset="0.9847" style="stop-color:#2D2B2A"/>
				</linearGradient>
				<path class="st9_5" d="M69.7,67.7L20.9,39.5c-0.6-0.3-1.3-0.5-1.9-0.2L5.2,47.4c0.6-0.3,1.3-0.1,1.9,0.2l48.8,28.2
					c2.2,1.3,3.5,5.2,1.8,6.2l13.9-8.1C73.2,72.9,72,69,69.7,67.7z"/>
				<path class="st10_5" d="M55.8,75.8L7,47.6c-1.4-0.8-2.6-0.2-2.6,1.5c0,1.7,1.2,3.7,2.6,4.5l48.8,28.2c1.4,0.8,2.6,0.2,2.6-1.5
					C58.4,78.6,57.3,76.6,55.8,75.8z M55.8,81.1L7,53c-1.1-0.7-2-2.2-2-3.5c0-1.3,0.9-1.8,2.1-1.2l48.8,28.2c1.1,0.7,2,2.2,2,3.5
					C57.9,81.2,57,81.8,55.8,81.1z"/>
				<path class="st11_5" d="M17.3,53.6l-0.2-0.1l13.9-8l0.2,0.1L17.3,53.6z M41.6,51.5l-0.2-0.1l-13.9,8l0.2,0.1L41.6,51.5z M33.8,47
					l-0.2-0.1l-13.9,8l0.2,0.1L33.8,47z M39,50l-0.2-0.1l-13.9,8l0.2,0.1L39,50z M36.4,48.5l-0.2-0.1l-13.9,8l0.2,0.1L36.4,48.5z
					 M71.6,69.7C71.6,69.7,71.6,69.7,71.6,69.7l-14,7.9c0,0,0,0.1,0.1,0.1C57.7,77.8,71.6,69.8,71.6,69.7
					C71.6,69.8,71.6,69.7,71.6,69.7z M69.7,67.7l-13.9,8c0.1,0,0.1,0.1,0.2,0.1l13.9-8C69.8,67.8,69.8,67.7,69.7,67.7z M7,47.6
					l13.9-8c-0.1,0-0.1-0.1-0.2-0.1l-13.9,8C6.9,47.5,7,47.6,7,47.6z M26.1,42.5l-0.2-0.1l-13.9,8l0.2,0.1L26.1,42.5z M9.4,49
					l0.2,0.1l13.9-8L23.4,41L9.4,49z M28.7,44l-0.2-0.1l-13.9,8l0.2,0.1L28.7,44z M54.4,58.9l-0.2-0.1l-13.9,8l0.2,0.1L54.4,58.9z
					 M44.1,52.9L44,52.8l-13.9,8l0.2,0.1L44.1,52.9z M59.6,61.9l-0.2-0.1l-13.9,8l0.2,0.1L59.6,61.9z M62.2,63.3L62,63.2l-13.9,8
					l0.2,0.1L62.2,63.3z M72.3,72.2c0,0-13.7,7.9-13.7,7.9l0.2,0.1l13.5-7.8C72.3,72.3,72.3,72.3,72.3,72.2z M67.3,66.3l-0.2-0.1
					l-13.9,8l0.2,0.1L67.3,66.3z M64.8,64.8l-0.2-0.1l-13.9,8l0.2,0.1L64.8,64.8z M49.3,55.9l-0.2-0.1l-13.9,8l0.2,0.1L49.3,55.9z
					 M46.7,54.4l-0.2-0.1l-13.9,8l0.2,0.1L46.7,54.4z M57,60.4l-0.2-0.1l-13.9,8l0.2,0.1L57,60.4z M51.9,57.4l-0.2-0.1l-13.9,8
					l0.2,0.1L51.9,57.4z"/>
			</g>
			<g class="st5_5">
				<path class="st6_5" d="M6.2,46.9c-0.7-0.4-1.4-0.5-1.9-0.2L3,47.5c0.5-0.3,1.2-0.2,1.9,0.2l50.2,29l0.8-0.3l0.5-0.5L6.2,46.9z"/>
				<linearGradient id="SVGID_5_5_" gradientUnits="userSpaceOnUse" x1="55.3237" y1="76.479" x2="58.5256" y2="82.0249">
					<stop  offset="0" style="stop-color:#E8E4DF"/>
					<stop  offset="1" style="stop-color:#D8D3CC"/>
				</linearGradient>
				<path class="st12_5" d="M58.5,78.5c-0.3-0.6-0.6-1.1-1-1.6c-0.4-0.4-0.7-0.7-1.2-1l-1.3,0.7c0.4,0.2,0.8,0.6,1.2,1
					c0.4,0.5,0.8,1,1,1.6c0.3,0.7,0.5,1.4,0.5,2c0,0.8-0.3,1.4-0.8,1.7l1.3-0.7c0.5-0.3,0.8-0.9,0.8-1.7
					C59,79.8,58.8,79.1,58.5,78.5z"/>
				<path class="st1_5" d="M55.1,76.6c1.5,0.8,2.7,2.9,2.7,4.6c0,1.7-1.2,2.4-2.7,1.5l-50.2-29c-1.5-0.8-2.7-2.9-2.7-4.6
					c0-1.7,1.2-2.4,2.7-1.5L55.1,76.6z"/>
			</g>
			<g id="Axonometric_Cylinder_66_">
				<linearGradient id="SVGID_6_5_" gradientUnits="userSpaceOnUse" x1="53.6169" y1="77.9337" x2="55.9125" y2="81.9098">
					<stop  offset="0" style="stop-color:#E8E4DF"/>
					<stop  offset="1" style="stop-color:#D8D3CC"/>
				</linearGradient>
				<path class="st13_5" d="M54.9,78c-0.5-0.3-0.9-0.3-1.2-0.1l-1.4,0.8l2.3,4l1.4-0.8c0.3-0.2,0.5-0.5,0.5-1
					C56.5,79.7,55.8,78.5,54.9,78z"/>
				<path id="Cylinder_face_12_" class="st1_5" d="M55.1,81.6c0,1-0.7,1.5-1.6,0.9s-1.6-1.8-1.6-2.8c0-1,0.7-1.5,1.6-0.9
					S55.1,80.6,55.1,81.6z"/>
				<path id="Cylinder_face_11_" class="st3_5" d="M54.3,81.1c0,0.5-0.3,0.7-0.8,0.4c-0.4-0.2-0.8-0.8-0.8-1.3c0-0.5,0.3-0.7,0.8-0.4
					C53.9,80,54.3,80.6,54.3,81.1z"/>
			</g>
			<g id="Axonometric_Cylinder_57_">
				<linearGradient id="SVGID_7_5_" gradientUnits="userSpaceOnUse" x1="3.3897" y1="48.935" x2="5.6853" y2="52.9111">
					<stop  offset="0" style="stop-color:#E8E4DF"/>
					<stop  offset="1" style="stop-color:#D8D3CC"/>
				</linearGradient>
				<path class="st14_5" d="M4.7,49c-0.5-0.3-0.9-0.3-1.2-0.1l-1.4,0.8l2.3,4l1.4-0.8c0.3-0.2,0.5-0.5,0.5-1C6.3,50.7,5.6,49.5,4.7,49
					z"/>
				<path id="Cylinder_face_10_" class="st1_5" d="M4.9,52.6c0,1-0.7,1.5-1.6,0.9c-0.9-0.5-1.6-1.8-1.6-2.8c0-1,0.7-1.5,1.6-0.9
					S4.9,51.6,4.9,52.6z"/>
				<path id="Cylinder_face_9_" class="st3_5" d="M4,52.1c0,0.5-0.3,0.7-0.8,0.4s-0.8-0.8-0.8-1.3c0-0.5,0.3-0.7,0.8-0.4
					C3.7,51,4,51.6,4,52.1z"/>
			</g>
		</g>
		<g>
			<linearGradient id="SVGID_8_5_" gradientUnits="userSpaceOnUse" x1="23.7321" y1="52.9284" x2="27.9805" y2="52.9284">
				<stop  offset="0.2959" style="stop-color:#DC9A11"/>
				<stop  offset="1" style="stop-color:#EFB224"/>
			</linearGradient>
			<path class="st15_5" d="M23.8,53.8c0.3,0.1,0.6,0.2,0.9,0.2l1.2,0c0.3,0,0.6-0.1,0.9-0.2l0.8-0.5c0.2-0.2,0.3-0.4,0.4-0.5l0-0.9
				c-1,1.1-5.1,1-5.5,0l-0.1,0.4l0.1,0.5c0.1,0.2,0.2,0.4,0.4,0.5L23.8,53.8z"/>
			<polygon class="st16_5" points="22.6,50.3 22.5,51.2 23,51.5 23,50.6 			"/>
			<polygon class="st17_5" points="27.7,50.6 27.7,51.6 28.1,51.2 28.1,50.3 			"/>
			<linearGradient id="SVGID_9_5_" gradientUnits="userSpaceOnUse" x1="23.4853" y1="51.4368" x2="27.1915" y2="51.4368">
				<stop  offset="0" style="stop-color:#EFB224"/>
				<stop  offset="1" style="stop-color:#DC9A11"/>
			</linearGradient>
			<path class="st18_5" d="M26.6,50.8c-0.7-0.4-1.9-0.4-2.6,0c-0.4,0.2-0.5,0.5-0.5,0.8l0,0.9c0-0.3,0.2-0.5,0.5-0.8
				c0.7-0.4,1.9-0.4,2.6,0c0.4,0.2,0.5,0.5,0.5,0.8l0-0.9C27.2,51.2,27,51,26.6,50.8z"/>
			<polygon class="st16_5" points="21.9,51.8 21.9,52.7 22.6,52.8 22.6,51.8 			"/>
			<polygon class="st19_5" points="28.1,51.9 28.1,52.8 28.8,52.7 28.8,51.8 			"/>
			<polygon class="st16_5" points="22.5,52.7 22.5,53.6 23.2,54 23.2,53.1 			"/>
			<polygon class="st19_5" points="23.2,53.1 23.2,54 23.8,53.8 23.8,52.9 			"/>
			<polygon class="st16_5" points="26.8,52.9 26.8,53.8 27.4,54.1 27.5,53.1 			"/>
			<polygon class="st17_5" points="27.5,53.1 27.4,54.1 28.1,53.7 28.1,52.8 			"/>
			<polygon class="st19_5" points="25.8,53.5 25.8,54.4 25.9,54 25.9,53.1 			"/>
			<polygon class="st16_5" points="24.7,53.1 24.7,54 24.9,54.4 24.9,53.5 			"/>
			<g>
				<path class="st20_5" d="M27.5,53.1l-0.6-0.3c-0.3,0.1-0.6,0.2-0.9,0.2l-0.1,0.4l-1,0l-0.1-0.4c-0.3,0-0.6-0.1-0.9-0.2l-0.6,0.3
					l-0.7-0.4l0.4-0.3c-0.2-0.2-0.3-0.4-0.4-0.5l-0.7-0.1l0-0.6l0.7-0.1c0.1-0.2,0.2-0.4,0.4-0.5l-0.4-0.3l0.7-0.4l0.6,0.3
					c0.3-0.1,0.6-0.2,0.9-0.2l0.1-0.4h1l0.1,0.4c0.3,0,0.7,0.1,0.9,0.2l0.6-0.3l0.7,0.4l-0.4,0.3c0.2,0.2,0.3,0.4,0.4,0.5l0.7,0.1
					l0,0.6l-0.7,0.1c-0.1,0.2-0.2,0.4-0.4,0.5l0.4,0.3L27.5,53.1z M24,52.3c0.7,0.4,1.9,0.4,2.6,0c0.7-0.4,0.7-1.1,0-1.5
					c-0.7-0.4-1.9-0.4-2.6,0C23.3,51.2,23.3,51.9,24,52.3L24,52.3z"/>
			</g>
			<g>
				
					<rect x="24.9" y="53.5" transform="matrix(2.862479e-03 -1 1 2.862479e-03 -28.7215 79.1602)" class="st17_5" width="0.9" height="1"/>
			</g>
		</g>
		<path class="st1_5" d="M40.7,48.7l0-20L22.8,18.4l0.8,39.4l14.4-8.3v-0.8H40.7C40.7,48.7,40.7,48.7,40.7,48.7z"/>
		<g>
			<polygon class="st3_5" points="38.3,32.9 38.3,48.7 39.5,48 39.5,32.2 			"/>
			<polygon class="st3_5" points="36.5,33.9 36.5,50.5 37.7,49.8 37.7,33.2 			"/>
			<polygon class="st3_5" points="34.6,35 34.6,51.6 35.8,50.9 35.8,34.3 			"/>
			<polygon class="st3_5" points="32.8,36 32.8,52.6 34,51.9 34,35.4 			"/>
			<polygon class="st3_5" points="31,37.1 31,53.7 32.2,53 32.2,36.4 			"/>
			<polygon class="st3_5" points="29.1,38.2 29.1,54.7 30.3,54.1 30.3,37.5 			"/>
			<polygon class="st3_5" points="27.3,39.2 27.3,55.8 28.5,55.1 28.5,38.5 			"/>
			<polygon class="st3_5" points="25.4,40.3 25.4,56.9 26.6,56.2 26.6,39.6 			"/>
			<polygon class="st3_5" points="23.6,41.4 23.6,57.9 24.8,57.3 24.8,40.7 			"/>
		</g>
		<polygon class="st1_5" points="23.2,38.9 23.2,44.5 5.3,34.2 5.3,28.5 		"/>
		<g>
			<g>
				<polygon class="st1_5" points="20.8,40.2 20.8,54.5 3,44.2 3,29.9 				"/>
			</g>
			<g>
				<polygon class="st0_5" points="41.9,28 31.4,30 20.8,40.2 20.8,52.3 17.8,59.6 17.8,79.8 23.8,76.3 23.8,44.1 41.9,33.6 				"/>
				<polygon class="st6_5" points="3,42 0,49.3 17.8,59.6 20.8,52.3 				"/>
				<polygon class="st1_5" points="17.8,59.6 0,49.3 0,69.5 17.8,79.8 				"/>
			</g>
			<path class="st6_5" d="M25.7,16.7L3,29.9l17.8,10.3L43.6,27L25.7,16.7z"/>
		</g>
		<g>
			<path class="st3_5" d="M40.6,72.9c-0.1,0-0.2-0.1-0.2-0.2c0-0.1,0-0.2,0-0.2l1.1-1.3c0,0,0.1,0,0.2,0c0.1,0,0.2,0.1,0.2,0.2
				l1.1,2.7c0,0.1,0,0.2,0,0.2c0,0-0.1,0-0.2,0L40.6,72.9z"/>
			<path class="st17_5" d="M40.5,72.6l1.1-1.3c0,0,0.1,0,0.1,0.1L43,74c0,0.1,0,0.1-0.1,0.1l-2.3-1.3C40.6,72.7,40.5,72.6,40.5,72.6z"
				/>
			<path class="st3_5" d="M41.7,72.7C41.6,72.7,41.6,72.7,41.7,72.7l-0.1-0.9c0-0.3,0.4,0,0.4,0.2l-0.1,0.7c0,0,0,0-0.1,0L41.7,72.7z
				 M41.7,72.9c-0.1,0-0.2,0-0.2,0.1c0,0.1,0.1,0.2,0.2,0.2c0.1,0,0.2,0,0.2-0.1S41.8,73,41.7,72.9z"/>
		</g>
		<g>
			<linearGradient id="SVGID_10_5_" gradientUnits="userSpaceOnUse" x1="56.7535" y1="67.0706" x2="61.0019" y2="67.0706">
				<stop  offset="0.2959" style="stop-color:#DC9A11"/>
				<stop  offset="1" style="stop-color:#EFB224"/>
			</linearGradient>
			<path class="st21_5" d="M56.8,67.9c0.3,0.1,0.6,0.2,0.9,0.2l1.2,0c0.3,0,0.6-0.1,0.9-0.2l0.8-0.5c0.2-0.2,0.3-0.4,0.4-0.5l0-0.9
				c-1,1.1-5.1,1-5.5,0l-0.1,0.4l0.1,0.5c0.1,0.2,0.2,0.4,0.4,0.5L56.8,67.9z"/>
			<polygon class="st16_5" points="55.6,64.4 55.6,65.3 56,65.7 56,64.8 			"/>
			<polygon class="st17_5" points="60.7,64.8 60.7,65.7 61.2,65.4 61.2,64.4 			"/>
			<linearGradient id="SVGID_11_5_" gradientUnits="userSpaceOnUse" x1="56.5066" y1="65.579" x2="60.2129" y2="65.579">
				<stop  offset="0" style="stop-color:#EFB224"/>
				<stop  offset="1" style="stop-color:#DC9A11"/>
			</linearGradient>
			<path class="st22_5" d="M59.7,64.9c-0.7-0.4-1.9-0.4-2.6,0c-0.4,0.2-0.5,0.5-0.5,0.8l0,0.9c0-0.3,0.2-0.5,0.5-0.8
				c0.7-0.4,1.9-0.4,2.6,0c0.4,0.2,0.5,0.5,0.5,0.8l0-0.9C60.2,65.4,60,65.1,59.7,64.9z"/>
			<polygon class="st16_5" points="54.9,65.9 54.9,66.8 55.6,66.9 55.6,66 			"/>
			<polygon class="st19_5" points="61.1,66 61.1,66.9 61.8,66.9 61.8,65.9 			"/>
			<polygon class="st16_5" points="55.6,66.9 55.6,67.8 56.2,68.2 56.2,67.3 			"/>
			<polygon class="st19_5" points="56.2,67.3 56.2,68.2 56.8,67.9 56.8,67 			"/>
			<polygon class="st16_5" points="59.9,67 59.9,67.9 60.5,68.2 60.5,67.3 			"/>
			<polygon class="st17_5" points="60.5,67.3 60.5,68.2 61.1,67.8 61.1,66.9 			"/>
			<polygon class="st19_5" points="58.8,67.7 58.8,68.6 58.9,68.2 58.9,67.2 			"/>
			<polygon class="st16_5" points="57.8,67.2 57.8,68.1 57.9,68.6 57.9,67.7 			"/>
			<g>
				<path class="st20_5" d="M60.5,67.3L59.9,67c-0.3,0.1-0.6,0.2-0.9,0.2l-0.1,0.4l-1,0l-0.1-0.4c-0.3,0-0.6-0.1-0.9-0.2l-0.6,0.3
					l-0.7-0.4l0.4-0.3c-0.2-0.2-0.3-0.4-0.4-0.5l-0.7-0.1l0-0.6l0.7-0.1c0.1-0.2,0.2-0.4,0.4-0.5l-0.4-0.3l0.7-0.4l0.6,0.3
					c0.3-0.1,0.6-0.2,0.9-0.2l0.1-0.4l1,0l0.1,0.4c0.3,0,0.7,0.1,0.9,0.2l0.6-0.3l0.7,0.4l-0.4,0.3c0.2,0.2,0.3,0.4,0.4,0.5l0.7,0.1
					l0,0.6L61.1,66c-0.1,0.2-0.2,0.4-0.4,0.5l0.4,0.3L60.5,67.3z M57.1,66.4c0.7,0.4,1.9,0.4,2.6,0c0.7-0.4,0.7-1.1,0-1.5
					c-0.7-0.4-1.9-0.4-2.6,0C56.3,65.3,56.3,66,57.1,66.4L57.1,66.4z"/>
			</g>
			<g>
				
					<rect x="57.9" y="67.6" transform="matrix(2.862163e-03 -1 1 2.862163e-03 -9.9367 126.2832)" class="st17_5" width="0.9" height="1"/>
			</g>
		</g>
		<g>
			<linearGradient id="SVGID_12_5_" gradientUnits="userSpaceOnUse" x1="43.1915" y1="64.0982" x2="47.4398" y2="64.0982">
				<stop  offset="0.2959" style="stop-color:#DC9A11"/>
				<stop  offset="1" style="stop-color:#EFB224"/>
			</linearGradient>
			<path class="st23_5" d="M43.3,64.9c0.3,0.1,0.6,0.2,0.9,0.2l1.2,0c0.3,0,0.6-0.1,0.9-0.2l0.8-0.5c0.2-0.2,0.3-0.4,0.4-0.5l0-0.9
				c-1,1.1-5.1,1-5.5,0L42,63.4l0.1,0.5c0.1,0.2,0.2,0.4,0.4,0.5L43.3,64.9z"/>
			<polygon class="st16_5" points="42,61.5 42,62.4 42.5,62.7 42.5,61.8 			"/>
			<polygon class="st17_5" points="47.1,61.8 47.1,62.7 47.6,62.4 47.6,61.5 			"/>
			<linearGradient id="SVGID_13_5_" gradientUnits="userSpaceOnUse" x1="42.9446" y1="62.6067" x2="46.6508" y2="62.6067">
				<stop  offset="0" style="stop-color:#EFB224"/>
				<stop  offset="1" style="stop-color:#DC9A11"/>
			</linearGradient>
			<path class="st24_5" d="M46.1,61.9c-0.7-0.4-1.9-0.4-2.6,0c-0.4,0.2-0.5,0.5-0.5,0.8l0,0.9c0-0.3,0.2-0.5,0.5-0.8
				c0.7-0.4,1.9-0.4,2.6,0c0.4,0.2,0.5,0.5,0.5,0.8l0-0.9C46.7,62.4,46.5,62.1,46.1,61.9z"/>
			<polygon class="st16_5" points="41.3,63 41.3,63.9 42.1,63.9 42.1,63 			"/>
			<polygon class="st19_5" points="47.5,63 47.5,63.9 48.3,63.9 48.3,63 			"/>
			<polygon class="st16_5" points="42,63.9 42,64.8 42.7,65.2 42.7,64.3 			"/>
			<polygon class="st19_5" points="42.7,64.3 42.7,65.2 43.3,64.9 43.3,64 			"/>
			<polygon class="st16_5" points="46.3,64.1 46.3,65 46.9,65.2 46.9,64.3 			"/>
			<polygon class="st17_5" points="46.9,64.3 46.9,65.2 47.6,64.8 47.6,63.9 			"/>
			<polygon class="st19_5" points="45.3,64.7 45.3,65.6 45.4,65.2 45.4,64.3 			"/>
			<polygon class="st16_5" points="44.2,64.3 44.2,65.2 44.3,65.6 44.3,64.7 			"/>
			<g>
				<path class="st20_5" d="M46.9,64.3l-0.6-0.3c-0.3,0.1-0.6,0.2-0.9,0.2l-0.1,0.4l-1,0l-0.1-0.4c-0.3,0-0.6-0.1-0.9-0.2l-0.6,0.3
					L42,63.9l0.4-0.3c-0.2-0.2-0.3-0.4-0.4-0.5L41.3,63l0-0.6l0.7-0.1c0.1-0.2,0.2-0.4,0.4-0.5L42,61.5l0.7-0.4l0.6,0.3
					c0.3-0.1,0.6-0.2,0.9-0.2l0.1-0.4h1l0.1,0.4c0.3,0,0.7,0.1,0.9,0.2l0.6-0.3l0.7,0.4l-0.4,0.3c0.2,0.2,0.3,0.4,0.4,0.5l0.7,0.1
					l0,0.6L47.5,63c-0.1,0.2-0.2,0.4-0.4,0.5l0.4,0.3L46.9,64.3z M43.5,63.4c0.7,0.4,1.9,0.4,2.6,0c0.7-0.4,0.7-1.1,0-1.5
					c-0.7-0.4-1.9-0.4-2.6,0C42.8,62.3,42.8,63,43.5,63.4L43.5,63.4z"/>
			</g>
			<g>
				
					<rect x="44.3" y="64.7" transform="matrix(2.752081e-03 -1 1 2.752081e-03 -20.4827 109.7645)" class="st17_5" width="0.9" height="1"/>
			</g>
		</g>
		<g>
			<linearGradient id="SVGID_14_5_" gradientUnits="userSpaceOnUse" x1="37.1653" y1="55.7613" x2="41.4136" y2="55.7613">
				<stop  offset="0.2959" style="stop-color:#DC9A11"/>
				<stop  offset="1" style="stop-color:#EFB224"/>
			</linearGradient>
			<path class="st25_5" d="M37.2,56.6c0.3,0.1,0.6,0.2,0.9,0.2l1.2,0c0.3,0,0.6-0.1,0.9-0.2l0.8-0.5c0.2-0.2,0.3-0.4,0.4-0.5l0-0.9
				c-1,1.1-5.1,1-5.5,0L36,55.1l0.1,0.5c0.1,0.2,0.2,0.4,0.4,0.5L37.2,56.6z"/>
			<polygon class="st16_5" points="36,53.1 36,54 36.4,54.4 36.4,53.5 			"/>
			<polygon class="st17_5" points="41.1,53.5 41.1,54.4 41.6,54 41.6,53.1 			"/>
			<linearGradient id="SVGID_15_5_" gradientUnits="userSpaceOnUse" x1="36.9184" y1="54.2697" x2="40.6246" y2="54.2697">
				<stop  offset="0" style="stop-color:#EFB224"/>
				<stop  offset="1" style="stop-color:#DC9A11"/>
			</linearGradient>
			<path class="st26_5" d="M40.1,53.6c-0.7-0.4-1.9-0.4-2.6,0c-0.4,0.2-0.5,0.5-0.5,0.8l0,0.9c0-0.3,0.2-0.5,0.5-0.8
				c0.7-0.4,1.9-0.4,2.6,0c0.4,0.2,0.5,0.5,0.5,0.8l0-0.9C40.6,54.1,40.4,53.8,40.1,53.6z"/>
			<polygon class="st16_5" points="35.3,54.6 35.3,55.5 36,55.6 36,54.7 			"/>
			<polygon class="st19_5" points="41.5,54.7 41.5,55.6 42.2,55.5 42.2,54.6 			"/>
			<polygon class="st16_5" points="36,55.6 36,56.5 36.7,56.9 36.7,56 			"/>
			<polygon class="st19_5" points="36.7,56 36.7,56.9 37.2,56.6 37.2,55.7 			"/>
			<polygon class="st16_5" points="40.3,55.7 40.3,56.6 40.9,56.9 40.9,56 			"/>
			<polygon class="st17_5" points="40.9,56 40.9,56.9 41.6,56.5 41.6,55.6 			"/>
			<polygon class="st19_5" points="39.2,56.4 39.2,57.3 39.3,56.8 39.3,55.9 			"/>
			<polygon class="st16_5" points="38.2,55.9 38.2,56.8 38.3,57.3 38.3,56.4 			"/>
			<g>
				<path class="st20_5" d="M40.9,56l-0.6-0.3c-0.3,0.1-0.6,0.2-0.9,0.2l-0.1,0.4l-1,0l-0.1-0.4c-0.3,0-0.6-0.1-0.9-0.2L36.7,56
					L36,55.6l0.4-0.3c-0.2-0.2-0.3-0.4-0.4-0.5l-0.7-0.1l0-0.6L36,54c0.1-0.2,0.2-0.4,0.4-0.5L36,53.1l0.7-0.4l0.6,0.3
					c0.3-0.1,0.6-0.2,0.9-0.2l0.1-0.4l1,0l0.1,0.4c0.3,0,0.7,0.1,0.9,0.2l0.6-0.3l0.7,0.4l-0.4,0.3c0.2,0.2,0.3,0.4,0.4,0.5l0.7,0.1
					l0,0.6l-0.7,0.1c-0.1,0.2-0.2,0.4-0.4,0.5l0.4,0.3L40.9,56z M37.5,55.1c0.7,0.4,1.9,0.4,2.6,0c0.7-0.4,0.7-1.1,0-1.5
					c-0.7-0.4-1.9-0.4-2.6,0C36.7,54,36.7,54.7,37.5,55.1L37.5,55.1z"/>
			</g>
			<g>
				
					<rect x="38.3" y="56.3" transform="matrix(2.867317e-03 -1 1 2.867317e-03 -18.1599 95.4178)" class="st17_5" width="0.9" height="1"/>
			</g>
		</g>
		<g>
			<g>
				<g>
					<g>
						<path class="st27_5" d="M13.2,38.3L10.9,37c0.2,0.2,0.4,0.5,0.5,0.8l1,2.3l-0.6,0l2,1.2l1-1.2l-0.6,0l-0.6-1.3
							C13.5,38.6,13.4,38.4,13.2,38.3L13.2,38.3z M10.4,36.8c-0.4-0.2-0.6-0.2-0.8,0l-0.8,1l1.8,2l0.8-0.9c0.2-0.2,0.2-0.6,0-1.1
							C11.1,37.3,10.8,37,10.4,36.8L10.4,36.8z M15,42l-1.8,0l0.8,1.8c0.2,0.4,0.5,0.8,0.9,1.1c0.2,0.1,0.4,0.2,0.5,0.2
							c0.3,0,0.5-0.2,0.5-0.6c0-0.2,0-0.3-0.1-0.5L15,42L15,42z M9.3,39.1l-2-1.1l0.6,0.7l-0.6,0.6c0,0-0.1,0.1-0.1,0.2
							s0,0.2,0.1,0.3l1.2,2.7c0-0.1,0-0.1,0-0.2c0-0.2,0.1-0.4,0.2-0.5l1-1.1l0.6,0.7L9.3,39.1L9.3,39.1z M13,43.2l-1,1.1l1,2.3
							v-0.7l1.1,0.6c0.2,0.1,0.4,0.1,0.5,0l1.1-1.3c-0.2,0-0.4,0-0.7-0.2l-2-1.1V43.2L13,43.2z M11.4,43l-1.6-0.9
							c-0.4-0.2-0.7-0.2-0.9,0c-0.1,0.1-0.2,0.3-0.2,0.5c0,0.5,0.4,1.2,1,1.5l1.7,1V43L11.4,43z"/>
					</g>
				</g>
			</g>
		</g>
		<polygon class="st28_5" points="15,24.4 21,20.9 27.6,24.7 21.6,28.2 		"/>
		<g>
			<g id="_x37__2_">
				<g>
					<polygon class="st0_5" points="21,20.9 11.8,26.2 11.8,25.1 21,19.8 					"/>
					<polygon class="st1_5" points="21,20.9 33.4,28 33.4,26.9 21,19.8 					"/>
				</g>
			</g>
			<g>
				<polygon class="st29_5" points="26.4,0.5 21,19.9 36,28.6 42.6,9.7 				"/>
				<g>
					<g class="st5_5">
						<polygon class="st1_5" points="19.3,23.5 2.7,13.9 8.2,26.8 24.8,36.5 						"/>
						<polygon class="st0_5" points="19.3,23.5 24.8,36.5 38,28.9 43.4,9.7 						"/>
					</g>
				</g>
				<g>
					<path class="st0_5" d="M3.3,13.9C3.3,14,3.4,14,3.3,13.9c0.2,0.1,13.4,8,13.6,8.3l4.1-2.3l5.4-19.2L3.3,13.9z"/>
				</g>
				<path class="st6_5" d="M26.7,0L2.7,13.9l16.6,9.7L43.4,9.7L26.7,0z M3.9,13.7l22.6-13l15.7,9.1l-22.6,13L3.9,13.7z"/>
			</g>
		</g>
	</g>
	<g>
		<g>
			<g>
				<g>
					<path class="st6_5" d="M57.1,38.1c-0.8,0-1.5-0.2-2.2-0.6c-1.6-0.9-2.4-2.8-2.5-5.3c0-5.2,3.6-11.5,8.1-14.1
						c2.2-1.3,4.3-1.5,5.9-0.6c1.6,0.9,2.4,2.8,2.5,5.3c0,5.2-3.6,11.5-8.1,14.1C59.5,37.7,58.2,38.1,57.1,38.1z M64.3,17.2
						c-1.1,0-2.3,0.4-3.6,1.1c-4.4,2.6-8,8.8-8,13.8c0,2.4,0.8,4.2,2.3,5.1c1.5,0.9,3.5,0.7,5.6-0.6c4.4-2.6,8-8.8,8-13.8
						c0-2.4-0.8-4.2-2.3-5.1C65.7,17.4,65.1,17.2,64.3,17.2z"/>
				</g>
			</g>
		</g>
		<path class="st6_5" d="M60.8,29.3c0.8-0.5,1.5-0.1,1.5,0.8c0,0.9-0.7,2.1-1.5,2.6c-0.8,0.5-1.5,0.1-1.5-0.8
			C59.3,30.9,60,29.8,60.8,29.3z M57.8,30.7l0.7,0.4c0.1-1.4,1.1-2.9,2.3-3.6c1.2-0.7,2.1-0.2,2.3,1l0.7-1.1
			c-0.4-1.2-1.6-1.6-2.9-0.8C59.4,27.4,58.3,29.1,57.8,30.7z M56.6,30l0.6,0.4c0.6-1.9,2-3.8,3.6-4.7c1.6-0.9,2.9-0.6,3.6,0.6l0.6-1
			c-0.8-1.3-2.4-1.5-4.2-0.5C59,25.8,57.4,27.9,56.6,30z M55.4,29.4l0.6,0.3c0.9-2.4,2.7-4.7,4.8-5.9c2-1.2,3.8-0.9,4.8,0.4l0.6-1
			c-1.1-1.4-3.1-1.6-5.3-0.3C58.5,24.2,56.5,26.7,55.4,29.4z"/>
		<g>
			<path class="st6_5" d="M59.5,55.5c-0.1,0-0.2-0.1-0.2-0.2V37.5c0-0.1,0.1-0.2,0.2-0.2s0.2,0.1,0.2,0.2v17.9
				C59.7,55.5,59.6,55.5,59.5,55.5z"/>
		</g>
		<circle class="st6_5" cx="59.5" cy="55.5" r="0.7"/>
	</g>
</g>
</svg>
