<svg version="1.1" xmlns="http://www.w3.org/2000/svg" xmlns:xlink="http://www.w3.org/1999/xlink" x="0px" y="0px"
	 viewBox="0 0 66.4 87.7" style="enable-background:new 0 0 66.4 87.7;" xml:space="preserve">
<style type="text/css">
	.st01_1{fill:#E8E4DF;}
	.st11_1{fill:url(#Cylinder_body_1_);}
	.st21_1{fill:url(#Cylinder_body_2_);}
	.st31_1{fill:url(#SVGID_1_);}
	.st41_1{fill:#FFCF40;}
	.st51_1{fill:#B9B4A7;}
	.st61_1{fill:url(#SVGID_2_2_);}
	.st71_1{fill:#D1CCC3;}
	.st81_1{fill:url(#SVGID_3_);}
	.st91_1{fill:url(#SVGID_4_);}
	.st101_1{fill:url(#SVGID_5_);}
	.st111_1{fill:url(#SVGID_6_);}
	.st121_1{opacity:0.9;fill:url(#SVGID_7_);}
	.st131_1{fill:#DC9A11;}
	.st141_1{fill:#383534;}
	.st151_1{enable-background:new    ;}
	.st161_1{fill:url(#SVGID_8_);}
	.st171_1{fill:url(#SVGID_9_);}
	.st181_1{fill:url(#SVGID_10_);}
	.st191_1{fill:#D18C05;}
	.st201_1{opacity:0.9;fill:url(#SVGID_11_);}
	.st211_1{opacity:0.9;fill:url(#SVGID_12_);}
	.st221_1{fill:#EFB224;}
	.st231_1{fill:url(#SVGID_13_);}
	.st241_1{opacity:0.9;fill:url(#SVGID_14_);}
	.st251_1{fill:url(#SVGID_15_);}
	.st261_1{opacity:0.9;fill:url(#SVGID_16_);}
	.st271_1{fill:#EAA412;}
	.st281_1{fill:url(#SVGID_17_);}
	.st291_1{opacity:0.9;fill:url(#SVGID_18_);}
	.st301_1{opacity:0.9;fill:url(#SVGID_19_);}
	.st311_1{fill:#474443;}
	.st321_1{fill:url(#SVGID_20_);}
	.st331_1{fill:url(#Cylinder_body_3_1);}
	.st341_1{fill:url(#SVGID_21_);}
	.st351_1{fill:url(#SVGID_22_);}
	.st361_1{opacity:0.9;fill:url(#SVGID_23_);}
</style>
<g id="_x34__1_">
	<g id="_x34_">
		<g id="Axonometric_Cylinder_31_">
			<ellipse id="Cylinder_face_189_" class="st01_1" cx="22.3" cy="74.6" rx="20.8" ry="12"/>
			<linearGradient id="Cylinder_body_1_" gradientUnits="userSpaceOnUse" x1="1.5016" y1="81.107" x2="43.1575" y2="81.107">
				<stop  offset="0" style="stop-color:#B9B4A7"/>
				<stop  offset="1" style="stop-color:#D8D3CC"/>
			</linearGradient>
			<path id="Cylinder_body_161_" class="st11_1" d="M43.2,74.5v1c0,3.1-2,6.2-6.1,8.6c-8.1,4.7-21.3,4.7-29.5,0c-4-2.3-6.1-5.4-6.1-8.4
				v-1c0,3,2.1,6.1,6.1,8.4c8.1,4.7,21.3,4.7,29.5,0C41.2,80.8,43.2,77.6,43.2,74.5z"/>
		</g>
		<g id="Axonometric_Cylinder_30_">
			<path id="Cylinder_face_188_" class="st01_1" d="M35.8,61.6c-7.4,4.3-19.5,4.3-26.9,0c-7.4-4.3-7.4-11.3,0-15.5s19.5-4.3,26.9,0
				C43.2,50.3,43.2,57.3,35.8,61.6z"/>
			<linearGradient id="Cylinder_body_2_" gradientUnits="userSpaceOnUse" x1="3.295" y1="68.9644" x2="41.3641" y2="68.9644">
				<stop  offset="0" style="stop-color:#B9B4A7"/>
				<stop  offset="1" style="stop-color:#D8D3CC"/>
			</linearGradient>
			<path id="Cylinder_body_160_" class="st21_1" d="M41.4,53.7v19.4c0,2.8-1.8,5.7-5.6,7.9c-7.4,4.3-19.5,4.3-26.9,0
				c-3.7-2.1-5.5-4.9-5.6-7.7V53.9c0,2.8,1.9,5.5,5.6,7.7c7.4,4.3,19.5,4.3,26.9,0C39.6,59.4,41.4,56.6,41.4,53.7z"/>
		</g>
		<g id="Axonometric_Cylinder_29_">
			<linearGradient id="SVGID_1_" gradientUnits="userSpaceOnUse" x1="6.3172" y1="56.0414" x2="38.3417" y2="56.0414">
				<stop  offset="0" style="stop-color:#DC9A11"/>
				<stop  offset="1" style="stop-color:#EFB224"/>
			</linearGradient>
			<path class="st31_1" d="M6.3,50.5v2.1c0,2.3,1.6,4.7,4.7,6.5c6.3,3.6,16.4,3.6,22.6,0c3.2-1.8,4.7-4.2,4.7-6.6v-2.1L6.3,50.5z"/>
			<ellipse id="Cylinder_face_187_" class="st41_1" cx="22.3" cy="50.4" rx="16" ry="9.2"/>
		</g>
		<g>
			<path class="st51_1" d="M21,35.3c-1.1,0.6-3.1,2.5-3.3,5.5c0,2.2,1.2,3,1.7,3.3c0,0,4.5-9.2,5.2-8.8C23.9,34.7,22.6,34.4,21,35.3z"
				/>
			<radialGradient id="SVGID_2_2_" cx="36.1099" cy="42.7851" r="9.5473" gradientUnits="userSpaceOnUse">
				<stop  offset="0" style="stop-color:#E8E4DF"/>
				<stop  offset="1" style="stop-color:#D8D3CC"/>
			</radialGradient>
			<path class="st61_1" d="M36.9,42.3c-0.6-0.4-1.5-0.3-2.5,0.2c-2,1.1-3.7,3.9-3.7,6.2c0,1.2,0.4,2,1.1,2.4c0.8,0.4,2,0.7,3.6-0.1
				C38.2,49.5,40.1,44.4,36.9,42.3z"/>
			<path class="st71_1" d="M35.8,45.1c-1.2,0.7-2.2,2.3-2.2,3.7c0,1.4,0.9,1.9,2.1,1.3c1.2-0.7,2.2-2.3,2.2-3.7
				C37.9,45,37,44.5,35.8,45.1z"/>
			<linearGradient id="SVGID_3_" gradientUnits="userSpaceOnUse" x1="29.4656" y1="37.9597" x2="24.3159" y2="46.8794">
				<stop  offset="0" style="stop-color:#D8D3CC"/>
				<stop  offset="1" style="stop-color:#B9B4A7"/>
			</linearGradient>
			<path class="st81_1" d="M24.6,35.2c-0.6-0.4-1.5-0.3-2.5,0.2c-2,1.1-3.7,3.9-3.7,6.2c0,1.2,0.4,2,1.1,2.4l12.3,7.2
				c-0.7-0.4-1.1-1.2-1.1-2.4c0-2.3,1.7-5.1,3.7-6.2c1-0.5,1.9-0.6,2.5-0.2L24.6,35.2z"/>
			<linearGradient id="SVGID_4_" gradientUnits="userSpaceOnUse" x1="29.4656" y1="37.9597" x2="24.3159" y2="46.8794">
				<stop  offset="0" style="stop-color:#D8D3CC"/>
				<stop  offset="1" style="stop-color:#B9B4A7"/>
			</linearGradient>
			<path class="st91_1" d="M24.6,35.2c-0.6-0.4-1.5-0.3-2.5,0.2c-2,1.1-3.7,3.9-3.7,6.2c0,1.2,0.4,2,1.1,2.4l12.3,7.2
				c-0.7-0.4-1.1-1.2-1.1-2.4c0-2.3,1.7-5.1,3.7-6.2c1-0.5,1.9-0.6,2.5-0.2L24.6,35.2z"/>
			<linearGradient id="SVGID_5_" gradientUnits="userSpaceOnUse" x1="29.4706" y1="37.9626" x2="26.6241" y2="42.8929">
				<stop  offset="0" style="stop-color:#E8E4DF"/>
				<stop  offset="1" style="stop-color:#D8D3CC"/>
			</linearGradient>
			<path class="st101_1" d="M22.1,35.4c-1.2,0.6-2.2,1.9-2.9,3.2l12.3,7.1c0.7-1.3,1.7-2.5,2.9-3.2c1-0.5,1.9-0.6,2.5-0.2l-12.3-7.2
				C24,34.8,23.1,34.8,22.1,35.4z"/>
		</g>
		<g>
			<g id="Axonometric_Cylinder_32_">
				<linearGradient id="SVGID_6_" gradientUnits="userSpaceOnUse" x1="27.0906" y1="0.7559" x2="31.7094" y2="8.7558">
					<stop  offset="0" style="stop-color:#FFCF40"/>
					<stop  offset="0.3644" style="stop-color:#FCCA3B"/>
					<stop  offset="0.8228" style="stop-color:#F3BA2C"/>
					<stop  offset="1" style="stop-color:#EFB224"/>
				</linearGradient>
				<path class="st111_1" d="M29.7,0.8c-0.9-0.5-1.7-0.6-2.3-0.2l-2.8,1.6l4.7,8L32,8.6c0.6-0.3,0.9-1.1,0.9-2.1
					C32.9,4.4,31.5,1.9,29.7,0.8z"/>
				<linearGradient id="SVGID_7_" gradientUnits="userSpaceOnUse" x1="29.8404" y1="2.9443" x2="31.0725" y2="5.0783">
					<stop  offset="0" style="stop-color:#FFEFA5"/>
					<stop  offset="1" style="stop-color:#FFD561"/>
				</linearGradient>
				<path class="st121_1" d="M31.2,2.2l-2.8,1.6c0.5,0.6,1,1.4,1.3,2.1l2.8-1.6C32.2,3.5,31.7,2.8,31.2,2.2z"/>
				<path id="Cylinder_face_191_" class="st131_1" d="M30.1,8.1c0,2.1-1.5,2.9-3.3,1.9c-1.8-1-3.3-3.6-3.3-5.7c0-2.1,1.5-2.9,3.3-1.9
					C28.6,3.5,30.1,6,30.1,8.1z"/>
				<path id="Cylinder_face_190_" class="st141_1" d="M28.4,7.1c0,1-0.7,1.4-1.5,0.9c-0.9-0.5-1.5-1.7-1.5-2.7c0-1,0.7-1.4,1.5-0.9
					C27.7,4.9,28.4,6.1,28.4,7.1z"/>
			</g>
			<g class="st151_1">
				<linearGradient id="SVGID_8_" gradientUnits="userSpaceOnUse" x1="25.3685" y1="12.9319" x2="37.6614" y2="34.2239">
					<stop  offset="0" style="stop-color:#FFCF40"/>
					<stop  offset="0.5026" style="stop-color:#FCCA3B"/>
					<stop  offset="1" style="stop-color:#F5BE2F"/>
				</linearGradient>
				<path class="st161_1" d="M33.6,24.8c-2-4.4-3.6-9.2-4.5-14l-4.3,2.5c0.9,4.9,2.5,9.6,4.5,14c1.4,3.2,3,6.2,4.6,9.1l4.3-2.5
					C36.6,31.1,35,28,33.6,24.8z"/>
				<linearGradient id="SVGID_9_" gradientUnits="userSpaceOnUse" x1="37.0729" y1="34.5475" x2="45.5711" y2="49.2669">
					<stop  offset="0" style="stop-color:#FFCF40"/>
					<stop  offset="0.3644" style="stop-color:#FCCA3B"/>
					<stop  offset="0.8228" style="stop-color:#F3BA2C"/>
					<stop  offset="1" style="stop-color:#EFB224"/>
				</linearGradient>
				<path class="st171_1" d="M46.3,40.7c-0.1-0.3-0.3-0.6-0.4-0.9c-0.6-1.1-1.2-2-1.9-2.8c-0.8-1-1.8-1.7-2.7-2.3c-1-0.6-2.1-0.9-3-0.8
					L34,36.4l7.3,15.4l4.3-2.5C47.6,48.1,47.9,44.5,46.3,40.7z"/>
				<linearGradient id="SVGID_10_" gradientUnits="userSpaceOnUse" x1="23.4793" y1="2.3266" x2="28.5727" y2="11.1486">
					<stop  offset="0" style="stop-color:#FFCF40"/>
					<stop  offset="0.3644" style="stop-color:#FCCA3B"/>
					<stop  offset="0.8228" style="stop-color:#F3BA2C"/>
					<stop  offset="1" style="stop-color:#EFB224"/>
				</linearGradient>
				<path class="st181_1" d="M30.4,7.5c-0.1-0.6-0.3-1.3-0.6-1.9c-0.4-0.8-0.8-1.6-1.4-2.2c-0.5-0.5-1-1-1.6-1.3
					c-0.2-0.1-0.5-0.2-0.7-0.3c-0.7-0.3-1.4-0.2-1.9,0.1l-4.3,2.5l5.1,8.8l4.3-2.5C30.3,10.2,30.7,9,30.4,7.5z"/>
				<g>
					<path class="st131_1" d="M22.6,4.6c1.7,1,3.2,3.2,3.5,5.4c0.3,1.7-0.3,3-1.4,3.3c1.6,8.4,5.2,16.3,9.1,23.1c0.9-0.1,2,0.2,3,0.8
						c1.7,1,3.4,2.8,4.6,5.1c2.2,4.2,1.9,8.5-0.6,9.6c-1.2,0.5-2.6,0.2-4-0.6c-1.7-1-3.4-2.8-4.6-5.1C21.1,26.5,19.2,8.3,19,7.3
						c-0.3-2.4,1-3.7,2.9-3.1C22.2,4.3,22.4,4.4,22.6,4.6z"/>
				</g>
				<path class="st191_1" d="M24.8,13.3l-5.8-6c0,0.4,0.5,4.3,1.9,10.2l5.9,3.4C26,18.4,25.3,15.9,24.8,13.3z"/>
				<g>
					<linearGradient id="SVGID_11_" gradientUnits="userSpaceOnUse" x1="41.8797" y1="38.1574" x2="44.095" y2="41.9945">
						<stop  offset="0" style="stop-color:#FFEFA5"/>
						<stop  offset="1" style="stop-color:#FFD561"/>
					</linearGradient>
					<path class="st201_1" d="M45.8,39.8c-0.6-1.1-1.2-2-1.9-2.8l-4.3,2.5c0.7,0.8,1.4,1.8,1.9,2.8c0.2,0.3,0.3,0.6,0.4,0.9l4.3-2.5
						C46.1,40.4,46,40.1,45.8,39.8z"/>
					<linearGradient id="SVGID_12_" gradientUnits="userSpaceOnUse" x1="26.4127" y1="4.6099" x2="27.7197" y2="6.8736">
						<stop  offset="0" style="stop-color:#FFEFA5"/>
						<stop  offset="1" style="stop-color:#FFD561"/>
					</linearGradient>
					<path class="st211_1" d="M28.5,3.4l-4.3,2.5c0.6,0.6,1,1.4,1.4,2.2l4.3-2.5C29.5,4.8,29,4.1,28.5,3.4z"/>
				</g>
			</g>
		</g>
		<g class="st151_1">
			<polygon class="st221_1" points="14.9,43 8.2,47 26.6,40.1 33.4,36.2 			"/>
			<linearGradient id="SVGID_13_" gradientUnits="userSpaceOnUse" x1="31.8525" y1="37.0492" x2="40.7834" y2="52.5179">
				<stop  offset="0" style="stop-color:#FFCF40"/>
				<stop  offset="0.3644" style="stop-color:#FCCA3B"/>
				<stop  offset="0.8228" style="stop-color:#F3BA2C"/>
				<stop  offset="1" style="stop-color:#EFB224"/>
			</linearGradient>
			<path class="st231_1" d="M42.7,43c-0.1-0.3-0.2-0.5-0.4-0.8c-0.6-1.1-1.3-2.2-2.1-3c-0.9-1-1.8-1.8-2.8-2.3
				c-1.4-0.8-2.9-1.1-4.1-0.6l-6.8,3.9c1.2-0.5,2.6-0.2,4.1,0.6c1,0.6,1.9,1.3,2.8,2.3c0.8,0.9,1.5,1.9,2.1,3
				c0.1,0.3,0.3,0.5,0.4,0.8c1.7,3.9,1.4,7.6-0.8,8.8l6.8-3.9C44.1,50.6,44.4,46.9,42.7,43z"/>
			<path class="st131_1" d="M35.5,46.1c-1.2-2.4-3-4.3-4.8-5.4c-1.4-0.8-2.9-1.1-4.1-0.6L8.2,47l20,11.6l6.5-2.6
				C37.4,54.9,37.8,50.5,35.5,46.1z"/>
		</g>
		<linearGradient id="SVGID_14_" gradientUnits="userSpaceOnUse" x1="36.9672" y1="41.0437" x2="39.2609" y2="45.0164">
			<stop  offset="0" style="stop-color:#FFEFA5"/>
			<stop  offset="1" style="stop-color:#FFD561"/>
		</linearGradient>
		<path class="st241_1" d="M33.5,43.1l6.8-3.9c0.8,0.9,1.5,1.9,2.1,3c0.1,0.3,0.3,0.5,0.4,0.8l-6.8,3.9c-0.1-0.3-0.2-0.5-0.4-0.8
			C34.9,45,34.2,44,33.5,43.1L33.5,43.1z"/>
		<g id="Axonometric_Cylinder_28_">
			<linearGradient id="SVGID_15_" gradientUnits="userSpaceOnUse" x1="25.3736" y1="41.9578" x2="33.3596" y2="55.7899">
				<stop  offset="0" style="stop-color:#FFCF40"/>
				<stop  offset="0.3644" style="stop-color:#FCCA3B"/>
				<stop  offset="0.8228" style="stop-color:#F3BA2C"/>
				<stop  offset="1" style="stop-color:#EFB224"/>
			</linearGradient>
			<path class="st251_1" d="M29.8,42.1c-1.6-0.9-3-1-4-0.4l-4.9,2.8L29,58.3l4.9-2.8c1-0.6,1.6-1.9,1.6-3.6
				C35.5,48.3,33,43.9,29.8,42.1z"/>
			<linearGradient id="SVGID_16_" gradientUnits="userSpaceOnUse" x1="30.1281" y1="45.7417" x2="32.2583" y2="49.4313">
				<stop  offset="0" style="stop-color:#FFEFA5"/>
				<stop  offset="1" style="stop-color:#FFD561"/>
			</linearGradient>
			<path class="st261_1" d="M32.5,44.4l-4.9,2.8c0.9,1.1,1.6,2.3,2.2,3.6l4.9-2.8C34.1,46.7,33.4,45.4,32.5,44.4z"/>
			<path id="Cylinder_face_186_" class="st271_1" d="M30.6,54.7c0,3.6-2.5,5.1-5.6,3.3c-3.1-1.8-5.6-6.2-5.6-9.8s2.5-5.1,5.6-3.3
				C28.1,46.7,30.6,51.1,30.6,54.7z"/>
			<path id="Cylinder_face_185_" class="st141_1" d="M27.6,53c0,1.7-1.2,2.4-2.7,1.5c-1.5-0.8-2.7-2.9-2.7-4.6c0-1.7,1.2-2.4,2.7-1.5
				C26.4,49.2,27.6,51.3,27.6,53z"/>
		</g>
		<g>
			<path class="st271_1" d="M19.2,7.2c-1.7-1-3.1-0.2-3.1,1.8c0,2,1.4,4.3,3.1,5.3L34,21.6l0.9-5.4L19.2,7.2z"/>
			<g id="Axonometric_Cylinder_27_">
				<path id="Cylinder_face_184_" class="st221_1" d="M35,21.3c0,2,1.4,2.8,3.2,1.8c1.7-1,3.2-3.4,3.2-5.5s-1.4-2.8-3.2-1.8
					C36.4,16.9,35,19.3,35,21.3z"/>
				<path class="st41_1" d="M38.4,14.5L22.5,5.2c-0.9-0.5-1.6-0.5-2.2-0.2L17,7c0.6-0.3,1.3-0.3,2.2,0.2l13.8,8c-1,1.2-1.6,2.7-1.6,4.1
					c0,1,0.3,1.7,0.9,2l3.6,2.1c-0.6-0.3-0.9-1-0.9-2c0-2,1.4-4.5,3.2-5.5c0.9-0.5,1.7-0.6,2.2-0.2L38.4,14.5z"/>
			</g>
			<path id="Cylinder_face_183_" class="st141_1" d="M20.7,11.5c0,1-0.7,1.4-1.5,0.9c-0.9-0.5-1.5-1.7-1.5-2.7s0.7-1.4,1.5-0.9
				C20,9.3,20.7,10.5,20.7,11.5z"/>
			<path class="st271_1" d="M35,21.3l-3.6-2.1c0,1,0.3,1.7,0.9,2l3.6,2.1C35.4,23,35,22.3,35,21.3z"/>
			<g>
				<g>
					<g id="Axonometric_Cylinder_26_">
						<path id="Cylinder_face_182_" class="st221_1" d="M39,23.1c0,1.7,1.2,2.4,2.7,1.6c1.5-0.9,2.7-2.9,2.7-4.7c0-1.7-1.2-2.4-2.7-1.6
							C40.2,19.3,39,21.4,39,23.1z"/>
						<path id="Cylinder_body_159_" class="st41_1" d="M43.6,18.2l-3.1-1.8c-0.5-0.3-1.2-0.3-1.9,0.2c-1.5,0.9-2.7,2.9-2.7,4.7
							c0,0.8,0.3,1.4,0.8,1.7l3.1,1.8c-0.5-0.3-0.8-0.9-0.8-1.7c0-1.7,1.2-3.8,2.7-4.7C42.4,18,43.1,17.9,43.6,18.2z"/>
						<path class="st271_1" d="M39,23.1l-3.1-1.8c0,0.8,0.3,1.4,0.8,1.7l3.1,1.8C39.3,24.5,39,23.9,39,23.1z"/>
					</g>
				</g>
				<g>
					<polygon class="st41_1" points="40.5,16.5 40.5,19.4 43.9,21.4 46.5,19.9 					"/>
					<linearGradient id="SVGID_17_" gradientUnits="userSpaceOnUse" x1="44.8447" y1="20.8472" x2="47.6982" y2="25.7896">
						<stop  offset="0" style="stop-color:#FFCF40"/>
						<stop  offset="0.3644" style="stop-color:#FCCA3B"/>
						<stop  offset="0.8228" style="stop-color:#F3BA2C"/>
						<stop  offset="1" style="stop-color:#EFB224"/>
					</linearGradient>
					<path class="st281_1" d="M48.4,22.2c-0.2-0.5-0.5-1-0.9-1.4c-0.3-0.4-0.7-0.7-1-0.9l-2.5,1.5c0.4,0.2,0.7,0.5,1,0.9
						c0.4,0.4,0.7,0.9,0.9,1.4c0.3,0.6,0.4,1.2,0.4,1.8c0,0.7-0.3,1.3-0.7,1.5l2.5-1.5c0.4-0.2,0.7-0.8,0.7-1.5
						C48.8,23.4,48.7,22.8,48.4,22.2z"/>
					<path class="st271_1" d="M43.9,21.4l-3.4-2v5.5l3.4,2c1.3,0.8,2.4,0.1,2.4-1.4C46.3,24,45.2,22.1,43.9,21.4z"/>
				</g>
				<linearGradient id="SVGID_18_" gradientUnits="userSpaceOnUse" x1="46.6844" y1="20.7838" x2="46.6844" y2="23.7093">
					<stop  offset="0" style="stop-color:#FFEFA5"/>
					<stop  offset="1" style="stop-color:#FFD561"/>
				</linearGradient>
				<path class="st291_1" d="M47.5,20.8L45,22.3c0.4,0.4,0.7,0.9,0.9,1.4l2.5-1.5C48.2,21.7,47.9,21.2,47.5,20.8z"/>
			</g>
			<g>
				<g>
					<path class="st41_1" d="M50.3,32.4l-4-2.3c-0.5-0.3-1-0.3-1.3-0.1l-2,1.2c0.3-0.2,0.8-0.2,1.3,0.1l5,2.9L50.3,32.4z"/>
					<path class="st271_1" d="M44.3,31.3c-1-0.6-1.9-0.1-1.9,1.1c0,1.2,0.8,2.6,1.9,3.2l5,2.9v-4.3L44.3,31.3z"/>
				</g>
				<g>
					<g id="Axonometric_Cylinder_25_">
						<path id="Cylinder_face_181_" class="st221_1" d="M48.5,37.2c0,1.4,1,1.9,2.1,1.2s2.1-2.3,2.1-3.7c0-1.4-1-1.9-2.1-1.2
							S48.5,35.9,48.5,37.2z"/>
						<path id="Cylinder_body_158_" class="st41_1" d="M52.1,33.4L49.7,32c-0.4-0.2-0.9-0.2-1.5,0.1C47,32.8,46,34.5,46,35.8
							c0,0.7,0.2,1.1,0.6,1.4l2.5,1.4c-0.4-0.2-0.6-0.7-0.6-1.4c0-1.4,1-3,2.1-3.7C51.2,33.2,51.7,33.2,52.1,33.4z"/>
						<path class="st271_1" d="M48.5,37.2L46,35.8c0,0.7,0.2,1.1,0.6,1.4l2.5,1.4C48.7,38.4,48.5,37.9,48.5,37.2z"/>
					</g>
				</g>
			</g>
			<g>
				<g>
					<g class="st151_1">
						<path class="st41_1" d="M45.4,24.2c-0.2-0.4-0.4-0.8-0.7-1.1c-0.2-0.3-0.5-0.5-0.8-0.7c-0.5-0.3-0.9-0.3-1.3-0.1l-1.9,1.1
							c0.3-0.2,0.8-0.2,1.3,0.1c0.3,0.2,0.5,0.4,0.8,0.7c0.3,0.3,0.5,0.7,0.7,1.1c0.2,0.4,0.3,0.9,0.3,1.3l0,9.9
							c0,0.6-0.2,1-0.5,1.1l1.9-1.1c0.3-0.2,0.5-0.6,0.5-1.1l0-9.9C45.7,25.1,45.6,24.7,45.4,24.2z"/>
						<g>
							<path class="st271_1" d="M42,23.6c1,0.6,1.8,1.9,1.8,3.1l0,9.9c0,1.1-0.8,1.6-1.8,1c-1-0.6-1.8-1.9-1.8-3l0-9.9
								C40.3,23.5,41,23,42,23.6z"/>
						</g>
					</g>
					<linearGradient id="SVGID_19_" gradientUnits="userSpaceOnUse" x1="43.7778" y1="23.6679" x2="44.4164" y2="24.7739">
						<stop  offset="0" style="stop-color:#FFEFA5"/>
						<stop  offset="1" style="stop-color:#FFD561"/>
					</linearGradient>
					<path class="st301_1" d="M42.8,24.2l1.9-1.1c0.3,0.3,0.5,0.7,0.7,1.1l-1.9,1.1C43.3,24.9,43.1,24.6,42.8,24.2L42.8,24.2z"/>
				</g>
				<path id="Cylinder_face_180_" class="st141_1" d="M43,26.3c0,0.7-0.5,1-1.1,0.6c-0.6-0.3-1.1-1.2-1.1-1.9c0-0.7,0.5-1,1.1-0.6
					C42.5,24.8,43,25.6,43,26.3z"/>
				<path id="Cylinder_face_179_" class="st141_1" d="M43,36.1c0,0.7-0.5,1-1.1,0.6c-0.6-0.3-1.1-1.2-1.1-1.9s0.5-1,1.1-0.6
					C42.5,34.5,43,35.4,43,36.1z"/>
			</g>
		</g>
		<path class="st311_1" d="M24,50.8l-1.7,1c-2.4,1.4-5.3,1.5-7.8,0.5l-8.6-3.7c-2.6-1.1-3.9-2.1-4-3.1c0-0.6,0.4-1.8,3.6-3.6l7-4
			c1.8-1,4-1,5.8,0l0.3,0.2c0.3-0.6,0.7-1.1,1.1-1.6l-0.4-0.2c-2.4-1.4-5.3-1.4-7.7,0l-7,4c-3.1,1.8-4.6,3.6-4.5,5.4
			c0.1,2.3,2.8,3.7,5.1,4.7l8.6,3.7c1.3,0.6,2.7,0.8,4.2,0.8c1.9,0,3.7-0.5,5.3-1.4l1.7-1C25.9,51.9,24.8,50.3,24,50.8z"/>
		<g>
			<g>
				<path class="st141_1" d="M12.1,74.1c0.2,0.1,0.3,0.1,0.4,0c0.1-0.1,0.1-0.2,0-0.4l-2.4-5.1c-0.1-0.2-0.2-0.3-0.4-0.4
					c-0.2-0.1-0.3-0.1-0.4,0l-2.4,2.4c-0.1,0.1-0.1,0.2,0,0.4c0.1,0.2,0.2,0.3,0.4,0.4L12.1,74.1z"/>
				<path class="st131_1" d="M12.1,73.6l-2.4-5.1c0-0.1-0.2-0.2-0.2-0.1l-2.4,2.4c0,0.1,0,0.2,0.1,0.2l4.7,2.7
					C12.1,73.8,12.2,73.7,12.1,73.6z"/>
				<path class="st141_1" d="M9.5,71.1c-0.1,0-0.1-0.1-0.1-0.2l-0.1-1.5c0-0.5,0.8,0,0.7,0.4l-0.1,1.4c0,0-0.1,0.1-0.1,0L9.5,71.1z
					 M9.3,71.6c0,0.2,0.1,0.4,0.3,0.5c0.2,0.1,0.3,0.1,0.3-0.1c0-0.2-0.1-0.4-0.3-0.5C9.4,71.4,9.3,71.4,9.3,71.6z"/>
			</g>
		</g>
		<g>
			<g>
				<path class="st51_1" d="M55.4,47.2c-0.3,0-0.6,0.3-0.6,0.6l0.2,9l0.4,0.8l0.4-0.8l0.2-9C56,47.5,55.7,47.2,55.4,47.2z"/>
				<linearGradient id="SVGID_20_" gradientUnits="userSpaceOnUse" x1="53.515" y1="45.9567" x2="57.2885" y2="45.9567">
					<stop  offset="0" style="stop-color:#B9B4A7"/>
					<stop  offset="1" style="stop-color:#D8D3CC"/>
				</linearGradient>
				<path class="st321_1" d="M57.3,43.1l-3.8,0l0,4.6c0,0.3,0.2,0.6,0.6,0.8c0.7,0.4,1.9,0.4,2.7,0c0.4-0.2,0.5-0.5,0.5-0.8L57.3,43.1z
					"/>
				<g>
					<g id="Axonometric_Cylinder_34_">
						<path id="Cylinder_face_195_" class="st41_1" d="M53.2,42.3c-1.2-0.7-1.2-1.9,0-2.6c1.2-0.7,3.2-0.7,4.5,0c1.2,0.7,1.2,1.9,0,2.6
							C56.4,43,54.4,43,53.2,42.3z"/>
						<linearGradient id="Cylinder_body_3_1" gradientUnits="userSpaceOnUse" x1="52.2646" y1="43.4176" x2="58.5636" y2="43.4176">
							<stop  offset="0" style="stop-color:#DC9A11"/>
							<stop  offset="1" style="stop-color:#EFB224"/>
						</linearGradient>
						<path id="Cylinder_body_167_" class="st331_1" d="M58.6,41v3c0,0.5-0.3,0.9-0.9,1.3c-1.2,0.7-3.2,0.7-4.5,0
							c-0.6-0.4-0.9-0.8-0.9-1.3v-3c0,0.5,0.3,0.9,0.9,1.3c1.2,0.7,3.2,0.7,4.5,0C58.3,42,58.6,41.5,58.6,41z"/>
					</g>
				</g>
			</g>
			<g>
				<g>
					<g id="Axonometric_Cylinder_45_">
						<path id="Cylinder_face_210_" class="st221_1" d="M51.3,38.4c0,1.1,0.8,1.6,1.7,1c1-0.6,1.7-1.9,1.7-3c0-1.1-0.8-1.6-1.7-1
							C52.1,35.9,51.3,37.3,51.3,38.4z"/>
						<path id="Cylinder_body_169_" class="st41_1" d="M54.3,35.2l-2-1.2c-0.3-0.2-0.8-0.2-1.2,0.1c-1,0.6-1.7,1.9-1.7,3
							c0,0.6,0.2,0.9,0.5,1.1l2,1.2c-0.3-0.2-0.5-0.6-0.5-1.1c0-1.1,0.8-2.5,1.7-3C53.5,35.1,54,35.1,54.3,35.2z"/>
						<path class="st271_1" d="M51.3,38.4l-2-1.2c0,0.6,0.2,0.9,0.5,1.1l2,1.2C51.5,39.3,51.3,38.9,51.3,38.4z"/>
					</g>
				</g>
				<g>
					<polygon class="st41_1" points="52.3,34.1 52.3,36 54.5,37.3 56.2,36.3 					"/>
					<linearGradient id="SVGID_21_" gradientUnits="userSpaceOnUse" x1="55.122" y1="36.947" x2="56.9773" y2="40.1604">
						<stop  offset="0" style="stop-color:#FFCF40"/>
						<stop  offset="0.3644" style="stop-color:#FCCA3B"/>
						<stop  offset="0.8228" style="stop-color:#F3BA2C"/>
						<stop  offset="1" style="stop-color:#EFB224"/>
					</linearGradient>
					<path class="st341_1" d="M57.4,37.8c-0.2-0.3-0.4-0.7-0.6-0.9c-0.2-0.2-0.4-0.4-0.7-0.6l-1.7,1c0.2,0.1,0.5,0.3,0.7,0.6
						c0.2,0.3,0.4,0.6,0.6,0.9c0.2,0.4,0.3,0.8,0.3,1.2c0,0.5-0.2,0.8-0.5,1l1.7-1c0.3-0.2,0.4-0.5,0.5-1
						C57.7,38.6,57.6,38.2,57.4,37.8z"/>
					<path class="st271_1" d="M54.5,37.3L52.3,36v3.6l2.2,1.3c0.9,0.5,1.5,0.1,1.5-0.9C56.1,39,55.4,37.8,54.5,37.3z"/>
				</g>
			</g>
			<g>
				<g>
					<g class="st151_1">
						<path class="st41_1" d="M55.9,38.5c-0.1-0.3-0.3-0.6-0.6-0.9c-0.2-0.2-0.4-0.4-0.6-0.5c-0.4-0.2-0.8-0.3-1.1-0.1l-1,0.6
							c0.3-0.2,0.6-0.1,1.1,0.1c0.2,0.1,0.5,0.3,0.6,0.5c0.2,0.3,0.4,0.6,0.6,0.9c0.2,0.4,0.3,0.8,0.3,1.1l0,2.6l1-0.6l0-2.6
							C56.2,39.3,56.1,38.9,55.9,38.5z"/>
						<linearGradient id="SVGID_22_" gradientUnits="userSpaceOnUse" x1="52.2685" y1="40.3817" x2="58.5678" y2="40.3817">
							<stop  offset="0" style="stop-color:#DC9A11"/>
							<stop  offset="1" style="stop-color:#EFB224"/>
						</linearGradient>
						<path class="st351_1" d="M53.7,37.7c-0.8-0.5-1.5-0.1-1.5,0.9l0,3.4c0,2.1,1.3,1.3,3,0.9l0-2.6C55.2,39.3,54.6,38.1,53.7,37.7z"
							/>
					</g>
					<linearGradient id="SVGID_23_" gradientUnits="userSpaceOnUse" x1="54.911" y1="37.904" x2="55.4468" y2="38.8321">
						<stop  offset="0" style="stop-color:#FFEFA5"/>
						<stop  offset="1" style="stop-color:#FFD561"/>
					</linearGradient>
					<path class="st361_1" d="M54.4,38.2l1-0.6c0.2,0.3,0.4,0.6,0.6,0.9l-1,0.6C54.8,38.8,54.6,38.5,54.4,38.2L54.4,38.2z"/>
				</g>
				<path id="Cylinder_face_209_" class="st141_1" d="M54.6,39.9c0,0.6-0.4,0.8-0.9,0.5c-0.5-0.3-0.9-1-0.9-1.6s0.4-0.8,0.9-0.5
					C54.2,38.6,54.6,39.4,54.6,39.9z"/>
			</g>
		</g>
	</g>
	<g>
		<g>
			<g>
				<g>
					<path class="st01_1" d="M54.6,21.1c-0.8,0-1.5-0.2-2.2-0.6c-1.6-0.9-2.4-2.8-2.5-5.3c0-5.2,3.6-11.5,8.1-14.1
						c2.2-1.3,4.3-1.5,5.9-0.6c1.6,0.9,2.4,2.8,2.5,5.3c0,5.2-3.6,11.5-8.1,14.1C57,20.8,55.7,21.1,54.6,21.1z M61.8,0.3
						c-1.1,0-2.3,0.4-3.6,1.1c-4.4,2.6-8,8.8-8,13.8c0,2.4,0.8,4.2,2.3,5.1c1.5,0.9,3.5,0.7,5.6-0.6c4.4-2.6,8-8.8,8-13.8
						c0-2.4-0.8-4.2-2.3-5.1C63.2,0.5,62.5,0.3,61.8,0.3z"/>
				</g>
			</g>
		</g>
		<path class="st01_1" d="M58.2,12.4c0.8-0.5,1.5-0.1,1.5,0.8c0,0.9-0.7,2.1-1.5,2.6c-0.8,0.5-1.5,0.1-1.5-0.8
			C56.7,14,57.4,12.8,58.2,12.4z M55.3,13.8l0.7,0.4c0.1-1.4,1.1-2.9,2.3-3.6c1.2-0.7,2.1-0.2,2.3,1l0.7-1.1
			c-0.4-1.2-1.6-1.6-2.9-0.8C56.9,10.4,55.7,12.1,55.3,13.8z M54.1,13.1l0.6,0.4c0.6-1.9,2-3.8,3.6-4.7c1.6-0.9,2.9-0.6,3.6,0.6
			l0.6-1C61.6,7,60,6.8,58.2,7.8C56.4,8.8,54.9,10.9,54.1,13.1z M52.9,12.4l0.6,0.3c0.9-2.4,2.7-4.7,4.8-5.9c2-1.2,3.8-0.9,4.8,0.4
			l0.6-1c-1.1-1.4-3.1-1.6-5.3-0.3C56,7.2,54,9.7,52.9,12.4z"/>
		<g>
			<path class="st01_1" d="M57,31.1c-0.1,0-0.2-0.1-0.2-0.2V20.6c0-0.1,0.1-0.2,0.2-0.2s0.2,0.1,0.2,0.2V31
				C57.1,31.1,57.1,31.1,57,31.1z"/>
		</g>
		<circle class="st01_1" cx="57" cy="31.1" r="0.7"/>
	</g>
</g>
</svg>
