<svg version="1.1" xmlns="http://www.w3.org/2000/svg" xmlns:xlink="http://www.w3.org/1999/xlink" x="0px" y="0px"
	 viewBox="0 0 99.1 99.4" style="enable-background:new 0 0 99.1 99.4;" xml:space="preserve">
<style type="text/css">
	.st0_6{fill:#B9B4A7;}
	.st1_6{fill:#D8D3CC;}
	.st2_6{fill:#E8E4DF;}
	.st3_6{fill:#383534;}
	.st4_6{fill:url(#Cylinder_body_1_6_);}
	.st5_6{opacity:0.2;fill:url(#SVGID_1_6_);}
	.st6_6{opacity:0.5;fill:url(#SVGID_2_6_);}
	.st7_6{opacity:0.5;fill:url(#SVGID_3_6_);}
	.st8_6{fill:#B2B2B2;}
	.st9_6{fill:#AA8561;}
	.st10_6{opacity:0.5;fill:#B2B2B2;}
	.st11_6{fill:url(#Cylinder_body_2_6_);}
	.st12_6{fill:#E0DDD6;}
	.st13_6{opacity:0.5;fill:url(#SVGID_4_6_);}
	.st14_6{fill:url(#Cylinder_body_3_6_);}
	.st15_6{opacity:0.2;fill:url(#SVGID_5_6_);}
	.st16_6{opacity:0.6;fill:#CECECE;}
	.st17_6{enable-background:new    ;}
	.st18_6{fill:#DC9A11;}
	.st19_6{fill:#393939;}
	.st20_6{opacity:0.5;fill:url(#SVGID_6_6_);}
	.st21_6{opacity:0.8;}
	.st22_6{opacity:0.5;fill:url(#SVGID_7_6_);}
	.st23_6{clip-path:url(#SVGID_9_6_);}
	.st24_6{opacity:0.5;fill:url(#SVGID_10_6_);}
	.st25_6{opacity:0.5;fill:url(#SVGID_11_6_);}
	.st26_6{fill:#BEB9AB;}
	.st27_6{fill:#CBC6B8;}
	.st28_6{fill:#474443;}
	.st29_6{fill:#DB6565;}
	.st30_6{fill:#92B76A;}
</style>
<g id="_x31_0_1_">
	<g id="_x31_0">
		<g>
			<g id="Axonometric_Cube_44_">
				<polygon id="Cube_face_-_left_963_" class="st0_6" points="22,26.9 38,36.1 38,52.9 22,43.7 				"/>
				<polygon id="Cube_face_-_right_927_" class="st1_6" points="40.6,51.4 38,52.9 38,36.1 40.6,34.6 				"/>
				<polygon id="Cube_face_-_top_932_" class="st2_6" points="38,36.1 22,26.9 24.7,25.4 40.6,34.6 				"/>
			</g>
			<g id="Axonometric_Cylinder_56_">
				<path id="Cylinder_face_250_" class="st0_6" d="M22.2,31.4c0,0.3-0.2,0.5-0.5,0.3c-0.3-0.2-0.5-0.6-0.5-0.9c0-0.3,0.2-0.5,0.5-0.3
					C22,30.7,22.2,31.1,22.2,31.4z"/>
				<path id="Cylinder_body_197_" class="st3_6" d="M21.4,30.5l2-1.2c0.1-0.1,0.2,0,0.4,0c0.3,0.2,0.5,0.6,0.5,0.9
					c0,0.2-0.1,0.3-0.1,0.3l-2,1.2c0.1-0.1,0.1-0.2,0.1-0.3c0-0.3-0.2-0.7-0.5-0.9C21.6,30.5,21.5,30.5,21.4,30.5z"/>
			</g>
			<g id="Axonometric_Cylinder_55_">
				<g>
					
						<linearGradient id="Cylinder_body_1_6_" gradientUnits="userSpaceOnUse" x1="-35.9126" y1="118.3123" x2="-29.5724" y2="118.3123" gradientTransform="matrix(0.5 0.866 0.866 -0.5 -71.0658 122.5183)">
						<stop  offset="0" style="stop-color:#D2D2D2"/>
						<stop  offset="4.601228e-02" style="stop-color:#D1D1D1"/>
						<stop  offset="1" style="stop-color:#CACACA"/>
					</linearGradient>
					<path id="Cylinder_body_196_" class="st4_6" d="M5.2,37l15-8.6c0.4-0.2,1-0.2,1.6,0.1c1.2,0.7,2.2,2.5,2.2,3.9
						c0,0.7-0.2,1.2-0.6,1.4l-15,8.6C8.8,42.3,9,41.8,9,41.1c0-1.4-1-3.2-2.2-3.9C6.1,36.8,5.6,36.8,5.2,37z"/>
					<linearGradient id="SVGID_1_6_" gradientUnits="userSpaceOnUse" x1="16.0579" y1="35.5755" x2="17.2237" y2="37.5949">
						<stop  offset="0" style="stop-color:#D2D2D2"/>
						<stop  offset="0.4751" style="stop-color:#838383"/>
						<stop  offset="0.828" style="stop-color:#4F4F4F"/>
						<stop  offset="1" style="stop-color:#3B3B3B"/>
					</linearGradient>
					<path class="st5_6" d="M23.7,31.2l-15,8.6C8.9,40.2,9,40.6,9,41l15-8.6C23.9,32,23.9,31.6,23.7,31.2z"/>
					<g>
						<linearGradient id="SVGID_2_6_" gradientUnits="userSpaceOnUse" x1="14.0346" y1="32.4073" x2="15.1687" y2="34.3715">
							<stop  offset="0" style="stop-color:#D2D2D2"/>
							<stop  offset="0.4751" style="stop-color:#838383"/>
							<stop  offset="0.828" style="stop-color:#4F4F4F"/>
							<stop  offset="1" style="stop-color:#3B3B3B"/>
						</linearGradient>
						<path class="st6_6" d="M21.7,28.5c-0.2-0.1-0.4-0.2-0.6-0.2l-15,8.6c0.2,0,0.4,0.1,0.6,0.2c0.5,0.3,1,0.7,1.3,1.3l15-8.6
							C22.7,29.3,22.2,28.8,21.7,28.5z"/>
						<linearGradient id="SVGID_3_6_" gradientUnits="userSpaceOnUse" x1="14.5408" y1="32.9485" x2="14.8641" y2="33.5085">
							<stop  offset="0" style="stop-color:#D2D2D2"/>
							<stop  offset="0.4751" style="stop-color:#838383"/>
							<stop  offset="0.828" style="stop-color:#4F4F4F"/>
							<stop  offset="1" style="stop-color:#3B3B3B"/>
						</linearGradient>
						<path class="st7_6" d="M21.9,28.7L7,37.3c0.2,0.1,0.4,0.3,0.5,0.4l15-8.6C22.3,29,22.1,28.8,21.9,28.7z"/>
					</g>
				</g>
				<path id="Cylinder_face_249_" class="st8_6" d="M9,41.1c0,1.4-1,2-2.2,1.3c-1.2-0.7-2.2-2.5-2.2-3.9c0-1.4,1-2,2.2-1.3
					C8,37.9,9,39.6,9,41.1z"/>
				<path id="Cylinder_face_248_" class="st9_6" d="M7.6,40.2c0,0.5-0.4,0.7-0.8,0.5C6.3,40.5,6,39.8,6,39.3s0.4-0.7,0.8-0.5
					C7.2,39.1,7.6,39.7,7.6,40.2z"/>
			</g>
			<polygon class="st10_6" points="21,33 8.4,42.5 22.8,34.2 35.3,24.7 			"/>
			<g id="Axonometric_Cylinder_51_">
				<path id="Cylinder_face_247_" class="st0_6" d="M5.2,41.3c0,0.3-0.2,0.5-0.5,0.3c-0.3-0.2-0.5-0.6-0.5-0.9c0-0.3,0.2-0.5,0.5-0.3
					C5,40.6,5.2,41,5.2,41.3z"/>
				<path id="Cylinder_body_195_" class="st3_6" d="M4.3,40.4l2-1.2c0.1-0.1,0.2,0,0.4,0c0.3,0.2,0.5,0.6,0.5,0.9
					c0,0.2-0.1,0.3-0.1,0.3l-2,1.2c0.1-0.1,0.1-0.2,0.1-0.3c0-0.3-0.2-0.7-0.5-0.9C4.5,40.3,4.4,40.3,4.3,40.4z"/>
			</g>
			<g id="Axonometric_Cube_43_">
				<polygon id="Cube_face_-_left_962_" class="st0_6" points="0,39.6 16.5,49.1 16.5,65.9 0,56.4 				"/>
				<polygon id="Cube_face_-_right_926_" class="st1_6" points="19.2,64.4 16.5,65.9 16.5,49.1 19.2,47.6 				"/>
				<polygon id="Cube_face_-_top_931_" class="st2_6" points="16.5,49.1 0,39.6 2.6,38.1 19.2,47.6 				"/>
			</g>
		</g>
		<g id="Axonometric_Cube_104_">
			<polygon id="Cube_face_-_left_1845_" class="st0_6" points="37.8,22.8 41.8,25.1 41.8,55.1 37.8,52.8 			"/>
			<polygon id="Cube_face_-_right_1841_" class="st1_6" points="44.5,53.6 41.8,55.1 41.8,25.1 44.5,23.6 			"/>
			<polygon id="Cube_face_-_top_1845_" class="st2_6" points="41.8,25.1 37.8,22.8 40.5,21.3 44.5,23.6 			"/>
		</g>
		<g id="Axonometric_Cylinder_54_">
			<path id="Cylinder_face_407_" class="st0_6" d="M38,27.4c0,0.3-0.2,0.5-0.5,0.3c-0.3-0.2-0.5-0.6-0.5-0.9c0-0.3,0.2-0.5,0.5-0.3
				C37.8,26.6,38,27,38,27.4z"/>
			<path id="Cylinder_body_439_" class="st3_6" d="M37.1,26.5l2-1.2c0.1-0.1,0.2,0,0.4,0c0.3,0.2,0.5,0.6,0.5,0.9
				c0,0.2-0.1,0.3-0.1,0.3l-2,1.2c0.1-0.1,0.1-0.2,0.1-0.3c0-0.3-0.2-0.7-0.5-0.9C37.4,26.4,37.2,26.4,37.1,26.5z"/>
		</g>
		<g>
			<g id="Axonometric_Cylinder_53_">
				<path id="Cylinder_face_409_" class="st8_6" d="M24.8,37c0,1.4-1,2-2.2,1.3c-1.2-0.7-2.2-2.5-2.2-3.9c0-1.4,1-2,2.2-1.3
					C23.8,33.9,24.8,35.6,24.8,37z"/>
				<path id="Cylinder_face_408_" class="st9_6" d="M23.4,36.2c0,0.5-0.4,0.7-0.8,0.5c-0.4-0.3-0.8-0.9-0.8-1.4c0-0.5,0.4-0.7,0.8-0.5
					C23,35,23.4,35.7,23.4,36.2z"/>
				
					<linearGradient id="Cylinder_body_2_6_" gradientUnits="userSpaceOnUse" x1="-31.5117" y1="134.0342" x2="-25.1716" y2="134.0342" gradientTransform="matrix(0.5 0.866 0.866 -0.5 -71.0658 122.5183)">
					<stop  offset="0" style="stop-color:#D2D2D2"/>
					<stop  offset="4.601228e-02" style="stop-color:#D1D1D1"/>
					<stop  offset="1" style="stop-color:#CACACA"/>
				</linearGradient>
				<path id="Cylinder_body_388_" class="st11_6" d="M21,33l15-8.6c0.4-0.2,1-0.2,1.6,0.1c1.2,0.7,2.2,2.5,2.2,3.9
					c0,0.7-0.2,1.2-0.6,1.4l-15,8.6c0.4-0.2,0.6-0.7,0.6-1.4c0-1.4-1-3.2-2.2-3.9C22,32.8,21.4,32.7,21,33z"/>
			</g>
		</g>
		<g id="Axonometric_Cylinder_52_">
			<path id="Cylinder_face_458_" class="st0_6" d="M21,37.2c0,0.3-0.2,0.5-0.5,0.3c-0.3-0.2-0.5-0.6-0.5-0.9c0-0.3,0.2-0.5,0.5-0.3
				C20.8,36.5,21,36.9,21,37.2z"/>
			<path id="Cylinder_body_437_" class="st3_6" d="M20.1,36.3l2-1.2c0.1-0.1,0.2,0,0.4,0c0.3,0.2,0.5,0.6,0.5,0.9
				c0,0.2-0.1,0.3-0.1,0.3l-2,1.2c0.1-0.1,0.1-0.2,0.1-0.3c0-0.3-0.2-0.7-0.5-0.9C20.3,36.2,20.2,36.2,20.1,36.3z"/>
		</g>
		<g id="Axonometric_Cube_102_">
			<polygon id="Cube_face_-_left_1843_" class="st0_6" points="15.8,35.5 19.8,37.9 19.8,67.8 15.8,65.5 			"/>
			<polygon id="Cube_face_-_right_1839_" class="st1_6" points="22.5,66.3 19.8,67.8 19.8,37.9 22.5,36.3 			"/>
			<polygon id="Cube_face_-_top_1843_" class="st2_6" points="19.8,37.9 15.8,35.5 18.5,34 22.5,36.3 			"/>
		</g>
		<g id="Axonometric_Cube_95_">
			<polygon id="Cube_face_-_left_1805_" class="st0_6" points="59.8,90.9 19.8,67.8 19.8,44 59.8,67.1 			"/>
			<polygon id="Cube_face_-_right_1801_" class="st1_6" points="84.4,76.7 59.8,90.9 59.8,67.1 84.4,52.9 			"/>
			<polygon id="Cube_face_-_right_1901_" class="st0_6" points="81.5,59.5 62.8,70.3 62.8,67.4 81.5,56.6 			"/>
			<polygon id="Cube_face_-_top_1805_" class="st2_6" points="59.8,67.1 19.8,44 44.4,29.8 84.4,52.9 			"/>
			<polygon class="st12_6" points="21.5,44 44.4,30.8 54.9,36.8 32,50.1 			"/>
			<polygon class="st0_6" points="44.4,30.8 54.9,36.8 52.2,38.4 			"/>
		</g>
		<g id="Axonometric_Cube_42_">
			<polygon id="Cube_face_-_left_961_" class="st0_6" points="92.5,67 96.5,69.3 96.5,86.7 92.5,84.4 			"/>
			<polygon id="Cube_face_-_right_925_" class="st1_6" points="99.1,85.2 96.5,86.7 96.5,69.3 99.1,67.8 			"/>
			<polygon id="Cube_face_-_top_930_" class="st2_6" points="96.5,69.3 92.5,67 95.1,65.5 99.1,67.8 			"/>
		</g>
		<linearGradient id="SVGID_4_6_" gradientUnits="userSpaceOnUse" x1="33.3601" y1="29.415" x2="41.9593" y2="44.3091">
			<stop  offset="0" style="stop-color:#D2D2D2"/>
			<stop  offset="4.601228e-02" style="stop-color:#D1D1D1"/>
			<stop  offset="1" style="stop-color:#CACACA"/>
		</linearGradient>
		<polygon class="st13_6" points="51.2,38.9 39.1,26.1 24.1,34.8 36.2,47.6 		"/>
		<g id="Axonometric_Cube_107_">
			<polygon id="Cube_face_-_left_1903_" class="st0_6" points="53.6,61.4 37.2,51.9 37.2,54 53.6,63.5 			"/>
			<polygon id="Cube_face_-_right_1899_" class="st1_6" points="71.3,53.3 53.6,63.5 53.6,61.4 71.3,51.2 			"/>
			<polygon id="Cube_face_-_top_1903_" class="st2_6" points="53.6,61.4 37.2,51.9 54.9,41.7 71.3,51.2 			"/>
		</g>
		<g>
			<g>
				<g id="Axonometric_Cylinder_47_">
					<path id="Cylinder_face_461_" class="st8_6" d="M80.9,86.4c0,3.1-2.2,4.4-4.9,2.8c-2.7-1.6-4.9-5.4-4.9-8.5s2.2-4.4,4.9-2.8
						C78.7,79.4,80.9,83.2,80.9,86.4z"/>
					<path id="Cylinder_face_460_" class="st9_6" d="M77.7,84.6c0,1.1-0.8,1.6-1.8,1c-1-0.6-1.8-1.9-1.8-3.1c0-1.1,0.8-1.6,1.8-1
						C76.9,82.1,77.7,83.4,77.7,84.6z"/>
					<path id="Cylinder_face_463_" class="st0_6" d="M76.9,84.1c0,0.6-0.4,0.9-1,0.6c-0.5-0.3-1-1.1-1-1.7s0.4-0.9,1-0.6
						C76.5,82.7,76.9,83.5,76.9,84.1z"/>
					
						<linearGradient id="Cylinder_body_3_6_" gradientUnits="userSpaceOnUse" x1="32.8306" y1="157.5135" x2="46.6869" y2="157.5135" gradientTransform="matrix(0.5 0.866 0.866 -0.5 -71.0658 122.5183)">
						<stop  offset="0" style="stop-color:#D2D2D2"/>
						<stop  offset="4.601228e-02" style="stop-color:#D1D1D1"/>
						<stop  offset="1" style="stop-color:#CACACA"/>
					</linearGradient>
					<path id="Cylinder_body_440_" class="st14_6" d="M72.5,77.6l15.1-8.7c0.9-0.5,2.1-0.5,3.5,0.3c2.7,1.6,4.9,5.4,4.9,8.5
						c0,1.5-0.5,2.6-1.4,3.2l-15.1,8.7c0.9-0.5,1.4-1.6,1.4-3.2c0-3.1-2.2-6.9-4.9-8.5C74.6,77.1,73.4,77,72.5,77.6z"/>
					<linearGradient id="SVGID_5_6_" gradientUnits="userSpaceOnUse" x1="87.9771" y1="81.4678" x2="89.6865" y2="84.4287">
						<stop  offset="0" style="stop-color:#D2D2D2"/>
						<stop  offset="0.4751" style="stop-color:#838383"/>
						<stop  offset="0.828" style="stop-color:#4F4F4F"/>
						<stop  offset="1" style="stop-color:#3B3B3B"/>
					</linearGradient>
					<path class="st15_6" d="M80.9,86.4c0,0.3,0,0.6-0.1,0.9l15.1-8.7c0-0.3,0.1-0.6,0.1-0.9c0-0.2,0-0.5-0.1-0.8l-15.1,8.7
						C80.8,85.9,80.9,86.1,80.9,86.4z"/>
				</g>
			</g>
			<path class="st16_6" d="M92.4,70.2c-0.4-0.4-0.9-0.8-1.4-1c-1.4-0.8-2.6-0.9-3.5-0.3l-15.1,8.7c0.9-0.5,2.1-0.5,3.5,0.3
				c0.5,0.3,0.9,0.6,1.4,1l4.8-4L92.4,70.2z"/>
			<g>
				<g class="st17_6">
					<g class="st17_6">
						<g>
							<path class="st18_6" d="M87.1,84.9c0.1-0.1,0.2-0.2,0.2-0.2C87.3,84.7,87.1,84.9,87.1,84.9C87,84.9,87,84.9,87.1,84.9
								L87.1,84.9z M89.1,83.7c0.1-0.1,0.2-0.2,0.2-0.2C89.4,83.5,89.2,83.7,89.1,83.7C89.1,83.7,89.1,83.7,89.1,83.7L89.1,83.7z
								 M89.4,83.5C89.4,83.5,89.4,83.5,89.4,83.5c-0.1-0.1-0.3,0.1-0.4,0.2l-1.7,1c-0.1,0-0.4,0.2-0.4,0.3c0.1,0,0.3-0.1,0.4-0.2
								l1.7-1C89.1,83.8,89.3,83.6,89.4,83.5L89.4,83.5z"/>
							<path class="st18_6" d="M84.3,86.2c0-0.1,0.2-0.2,0.2-0.2C84.6,86,84.5,86.2,84.3,86.2C84.4,86.2,84.3,86.2,84.3,86.2
								L84.3,86.2z M87.7,84.7c0.1-0.1,0.2-0.2,0.2-0.2c0,0,0,0-0.1,0.1C87.8,84.6,87.7,84.7,87.7,84.7
								C87.7,84.7,87.7,84.7,87.7,84.7z M89.6,83.5c0.1-0.1,0.2-0.2,0.2-0.2c0,0,0,0-0.1,0.1C89.8,83.5,89.6,83.6,89.6,83.5
								C89.6,83.5,89.6,83.5,89.6,83.5z M90.6,80.3c0-0.1,0.1-0.2,0.1-0.2c0.1,0,0.1,0.1,0,0.2C90.7,80.4,90.6,80.4,90.6,80.3
								L90.6,80.3z M89.1,75.1c0-0.1,0-0.1,0-0.2c0.1-0.1,0.3,0,0.2,0.2C89.3,75.2,89.2,75.2,89.1,75.1L89.1,75.1z M87.4,73.1
								c0,0-0.1-0.1,0-0.1c0.1-0.1,0.3,0,0.3,0.1C87.7,73.2,87.5,73.2,87.4,73.1L87.4,73.1z M84.7,70.7c0,0,0.2-0.2,0.3-0.1
								C85,70.6,84.8,70.7,84.7,70.7L84.7,70.7z M91.7,73.5c-0.7-1-1.5-1.9-2.5-2.6c0.3,0,0.7,0.1,1,0.1c0.7,0.6,1.4,1.4,2,2.2
								L91.7,73.5L91.7,73.5z M92.6,73.1c0-0.1,0-0.1,0-0.2c0.1-0.1,0.3,0,0.2,0.2C92.8,73.1,92.7,73.2,92.6,73.1L92.6,73.1z
								 M94.9,78.4c0-0.1,0.1-0.2,0.2-0.2c0.1,0,0.1,0.1,0,0.3C95,78.5,94.9,78.5,94.9,78.4L94.9,78.4z M84.6,70.7
								C84.6,70.7,84.6,70.8,84.6,70.7c0.2,0,0.2,0,0.3-0.1l0.1-0.1c1-0.3,1.4-0.4,2.3-0.6c0.4,0.1,0.9,0.3,1.3,0.6
								c1.1,0.7,2.2,1.7,3,3l-0.5,0.3c-0.3-0.4-0.6-0.8-0.9-1.2l0.1-0.1c-0.2-0.2-0.4-0.4-0.6-0.6l-0.3,0.2c0.2,0.2,0.4,0.4,0.6,0.6
								l0.1-0.1c0.3,0.4,0.6,0.8,0.9,1.2l-0.6,0.3c-0.2-0.3-0.4-0.5-0.6-0.8l0.1-0.1c-0.2-0.2-0.3-0.4-0.5-0.6l-0.3,0.2
								c0.2,0.2,0.4,0.4,0.5,0.6l0.1-0.1c0.2,0.3,0.4,0.5,0.6,0.8c-0.3,0.2-0.7,0.4-1.1,0.6c-0.1-0.1-0.1-0.1-0.2-0.1
								c-0.4-0.6-0.9-1.1-1.3-1.6c0,0,0-0.1,0-0.1c0-0.2-0.4-0.3-0.5-0.1c0,0.1,0,0.3,0.4,0.3c0.5,0.5,1,1,1.3,1.7
								c0,0.1,0,0.2,0.1,0.3c0.1,0.1,0.4,0.1,0.3-0.2l0.8-0.5c0.1,0.1,0.2,0.2,0.2,0.4c-0.1,0.7-0.1,0.8-0.3,1.5l-0.7,0.4
								c0,0-0.8,0.5-0.8,0.5c0,0.1,0.1,0.2,0.1,0.3l0.8-0.5c0,0,0-0.1-0.1-0.1l0.7-0.4c0.2-0.7,0.2-0.9,0.3-1.6
								c-0.1-0.1-0.2-0.3-0.3-0.4l0.4-0.2c0.1,0.1,0.2,0.3,0.3,0.4c-0.2,1.1-0.2,1.4-0.5,2.4l-0.7,0.4c0,0,0-0.1,0-0.1l-0.8,0.5
								c0,0.1,0.1,0.2,0.1,0.3l0.8-0.5c0,0,0-0.1,0-0.1l0.7-0.4c0.3-1,0.4-1.7,0.5-2.4c-0.1-0.2-0.2-0.3-0.3-0.4l0.4-0.2
								c0.1,0.2,0.2,0.3,0.3,0.5c-0.2,1.5-0.5,2.4-0.7,3.2L90,78c0,0,0-0.1,0-0.1l-0.8,0.5c0,0.1,0.1,0.2,0.1,0.3l0.8-0.5
								c0,0,0.7-0.4,0.7-0.4c0.4-1.5,0.6-2.4,0.8-3.2c-0.1-0.2-0.2-0.4-0.3-0.5l0.3-0.1c0.1,0.2,0.2,0.4,0.3,0.5
								c-0.3,1.8-0.7,2.9-0.9,3.8l-0.7,0.4c0,0-0.8,0.5-0.8,0.5c0,0.1,0,0.2,0.1,0.3l0.8-0.5c0,0,0-0.1,0-0.1l0.7-0.4
								c0.5-1.6,0.8-2.7,1-3.9c-0.1-0.2-0.2-0.4-0.4-0.6l0.4-0.2c0.1,0.2,0.3,0.4,0.4,0.6c-0.4,2.1-0.8,3.4-1.3,4.6l-0.7,0.4
								c0,0,0-0.1,0-0.1l-0.8,0.5c0,0.1,0,0.2,0.1,0.3l0.8-0.5c0,0,0-0.1,0-0.1l0.7-0.4c0.7-1.8,1-3.1,1.3-4.6
								c-0.1-0.2-0.3-0.4-0.4-0.7l0.4-0.2c0.2,0.2,0.3,0.5,0.4,0.7c-0.5,2.6-1,4-1.6,5.3l-0.7,0.4c0,0,0-0.1,0-0.1l-0.8,0.5
								c0,0.1,0,0.2,0,0.3l0.8-0.5c0,0,0.7-0.4,0.7-0.4c0.9-2,1.3-3.6,1.6-5.3c0.7,1.2,1.1,2.5,1.2,3.7l-0.4,0.2c0-0.1,0-0.1,0-0.2
								l-1,0.6c0,0.2,0,0.3,0.1,0.5l1-0.6c0-0.1,0-0.1,0-0.2l0.4-0.2c0,0.3,0,0.5,0,0.8c0,0,0,0.1,0,0.1l-0.4,0.2c0,0,0-0.1,0-0.1
								c0,0,0,0,0-0.1l-1,0.6c0,0,0,0,0,0.1c0,0.1,0,0.3,0,0.4l1-0.6c0-0.1,0-0.1,0-0.2l0.4-0.2c0,0.3,0,0.6-0.1,0.8L93.6,80
								c0-0.1,0-0.1,0-0.2l-1,0.6c0,0.1,0,0.3-0.1,0.4l1-0.6c0,0,0-0.1,0-0.1l0.4-0.2c-0.1,0.6-0.3,1.1-0.6,1.4
								c-0.5-0.1-0.9-0.3-1.9-0.9l-0.6,0.4c0,0,0-0.1,0-0.1c0-0.1,0-0.1,0-0.2c0.2-0.3,0.1-0.4,0-0.4c-0.1,0-0.4,0.3-0.2,0.5
								c0,0,0.1,0,0.1,0c0,0.1,0,0.1,0,0.2c0,0.3,0,0.5,0,0.7L86.1,84c-0.6,0.9-0.9,1.2-1.5,1.9c-0.2,0.1-0.3,0.2-0.3,0.3
								c0,0,0,0,0,0.1c0.1-0.1,0.2-0.2,0.3-0.3l0-0.1c0.7-0.8,1-1.1,1.5-1.8l4.5-2.6c0,0.2-0.1,0.4-0.1,0.6l-1.1,0.6
								c0,0,0-0.1,0-0.1l-0.6,0.3c0,0.1-0.1,0.2-0.1,0.3l0.6-0.3c0,0,0-0.1,0-0.1l1.1-0.6c-0.1,0.2-0.1,0.4-0.2,0.5L89.6,83
								c0,0,0-0.1,0-0.1l-0.6,0.3c0,0.1-0.1,0.2-0.1,0.3l0.6-0.3c0,0,0-0.1,0-0.1l0.7-0.4c-0.1,0.3-0.3,0.5-0.5,0.7
								c-0.1,0.1-0.1,0.1-0.2,0.2c-1.9,1-1.9,1-1.9,1.2c0.1-0.1,0.2-0.1,0.3-0.2c1.9-1.1,1.9-1.1,2-1.2c0,0,0,0-0.1,0
								c0.2-0.2,0.3-0.3,0.4-0.5l0.3-0.2c0.2,0.1,0.2,0.1,0.4,0.1c-0.1,0.1-0.3,0.2-0.4,0.3c0,0-0.1,0-0.1,0l0.2-0.1c0,0,0,0,0.1,0
								L90.7,83c0.2-0.1,0.3-0.2,0.4-0.4c-0.2,0-0.2,0-0.4-0.1l-0.3,0.2c0.1-0.1,0.1-0.2,0.1-0.3l0.4-0.2c0.4,0.1,0.4,0.2,0.7,0.2
								c-0.1,0.1-0.3,0.2-0.4,0.3l-0.1,0c0,0,0,0-0.1,0l0.2-0.1c0,0,0,0,0.1,0l-0.1,0c0.2-0.1,0.3-0.2,0.4-0.4
								c-0.2,0-0.5-0.1-0.7-0.2l-0.4,0.2c0-0.1,0.1-0.2,0.1-0.3l0.4-0.2c0.6,0.3,0.8,0.3,1,0.3c-0.1,0.1-0.3,0.2-0.4,0.3l-0.1,0.1
								l-0.1,0l0.2-0.1c0,0,0,0,0.1,0c0.1-0.1,0.3-0.2,0.4-0.3c-0.3,0-0.7-0.2-1-0.4L90.6,82c0-0.1,0-0.2,0.1-0.3l0.5-0.3
								c0.8,0.4,1,0.4,1.2,0.5c-0.1,0.1-0.3,0.2-0.4,0.3c0,0-0.1,0-0.1,0l0.2-0.1c0,0,0,0,0.1,0L92,82.2c0.2-0.1,0.3-0.2,0.4-0.4
								c-0.4,0-0.8-0.2-1.3-0.5l-0.5,0.3c0-0.1,0-0.2,0.1-0.4l0.5-0.3c0.9,0.5,1.2,0.6,1.6,0.7c-0.1,0.1-0.3,0.2-0.4,0.3l-0.1,0
								c0,0,0,0-0.1,0l0.2-0.1c0,0,0,0,0.1,0l-0.1,0c0.2-0.1,0.3-0.2,0.4-0.4c-0.4,0-0.9-0.3-1.6-0.7l-0.6,0.3c0-0.1,0-0.3,0-0.4
								l0.6-0.3c1.2,0.7,1.6,0.9,2,0.9c-0.1,0.1-0.3,0.2-0.4,0.3l-0.1,0.1c0,0,0,0-0.1,0l0.2-0.1c0,0,0,0,0.1,0
								c0.1-0.1,0.3-0.2,0.4-0.3l-0.1,0c0.5-0.6,0.8-1.4,0.8-2.4c0.2-0.1,0.5-0.2,0.7-0.3c0,0,0,0,0.1,0c0.1,0,0.2-0.1,0.3-0.3
								l0.7-0.4c0,0,0-0.1,0-0.1c-0.1,0-0.7,0.3-0.7,0.4c-0.1-0.1-0.3,0-0.3,0.3l-0.7,0.4c0,0,0-0.1,0-0.1c0-1.8-0.7-3.7-1.8-5.4
								c0.1,0,0.1-0.1,0.2-0.1c0,0,0.1,0.1,0.2,0.1c0.2,0,0.2-0.3,0-0.4c-0.1-0.1-0.4-0.1-0.3,0.2l-0.2,0.1c0-0.1-0.1-0.1-0.1-0.2
								c-0.5-0.8-1.2-1.5-1.8-2c-0.3-0.3-0.7-0.5-1.1-0.7c-0.6-0.4-1.2-0.6-1.8-0.6l0.3-0.2c-0.2,0-0.4,0-0.5,0l-0.6,0.4
								c0.2,0,0.4,0,0.5,0l0.3-0.2c0.6,0.1,1.2,0.3,1.8,0.6c0.3,0.2,0.7,0.4,1,0.7c-0.3,0-0.7-0.1-1-0.1c-0.2-0.1-0.3-0.2-0.5-0.3
								c-0.5-0.3-0.9-0.5-1.3-0.6c-1,0.2-1.4,0.3-2.3,0.6C84.9,70.6,84.8,70.6,84.6,70.7L84.6,70.7z"/>
							<path class="st18_6" d="M85.6,85.7c0.1-0.1,0.2-0.2,0.2-0.2C85.9,85.6,85.7,85.7,85.6,85.7C85.6,85.7,85.6,85.7,85.6,85.7
								L85.6,85.7z M87.8,84c0-0.1,0.2-0.2,0.2-0.2C88.1,83.8,88,84,87.8,84C87.8,84,87.8,84.1,87.8,84L87.8,84z M88.1,83.8
								C88.1,83.8,88.1,83.8,88.1,83.8c0-0.1-0.2,0-0.4,0.2l-0.9,0.5c-0.3,0.3-0.3,0.3-1,0.9l-0.1,0c-0.1,0.1-0.3,0.2-0.3,0.3
								c0,0,0.3-0.1,0.4-0.3c0.3-0.3,0.7-0.6,0.9-0.9l0.9-0.5C87.8,84.2,88,84,88.1,83.8L88.1,83.8z"/>
							<path class="st18_6" d="M85,86c0-0.1,0.2-0.2,0.2-0.2C85.3,85.9,85.1,86,85,86C85,86.1,85,86,85,86L85,86z M87.2,84.1
								c0-0.1,0.2-0.2,0.2-0.2C87.5,83.9,87.4,84,87.2,84.1C87.3,84.1,87.2,84.1,87.2,84.1L87.2,84.1z M87.6,83.9
								C87.6,83.9,87.6,83.8,87.6,83.9c0-0.2-0.3,0-0.4,0.2l-0.6,0.4c-0.6,0.7-0.7,0.8-1.3,1.4l-0.1,0c-0.1,0.1-0.3,0.2-0.3,0.3
								c0.1,0,0.3-0.2,0.4-0.3c0.6-0.6,0.8-0.7,1.3-1.3l0.6-0.3C87.2,84.3,87.5,84.1,87.6,83.9L87.6,83.9z"/>
							<path class="st18_6" d="M84.8,86.4c0.1-0.1,0.2-0.1,0.2-0.2C85.1,86.2,84.9,86.4,84.8,86.4C84.8,86.4,84.8,86.4,84.8,86.4z
								 M88.3,83.9c0-0.1,0.2-0.2,0.2-0.2C88.6,83.7,88.4,83.9,88.3,83.9C88.3,83.9,88.3,84,88.3,83.9L88.3,83.9z M88.6,83.7
								C88.6,83.7,88.6,83.7,88.6,83.7c-0.1-0.1-0.3,0.1-0.4,0.2L87,84.6c-0.8,0.8-1.1,1-1.9,1.5l-0.1,0c0,0-0.3,0.2-0.3,0.2
								c0,0,0.3-0.2,0.4-0.3c0.9-0.6,1.2-0.9,1.9-1.5l1.2-0.7C88.3,84,88.5,83.9,88.6,83.7L88.6,83.7z"/>
							<path class="st18_6" d="M82.6,87.7c0.1-0.1,0.2-0.2,0.2-0.2C82.9,87.5,82.6,87.7,82.6,87.7C82.6,87.7,82.6,87.7,82.6,87.7z
								 M84.2,86.7c0.1,0,0.2-0.2,0.2-0.2C84.5,86.6,84.3,86.7,84.2,86.7C84.2,86.7,84.2,86.7,84.2,86.7z M86.2,85.6
								c0.1-0.1,0.2-0.2,0.2-0.2C86.4,85.4,86.2,85.6,86.2,85.6C86.2,85.6,86.2,85.6,86.2,85.6z M89.2,83.9
								C89.1,83.9,89.1,83.9,89.2,83.9l0.9-0.5c0,0,0,0,0.1,0L89.2,83.9L89.2,83.9z M84.4,86.6c-0.1,0.1-0.2,0.1-0.2,0.2
								c-0.4,0.2-0.9,0.5-1.3,0.7c0,0-0.4,0.2-0.4,0.3c0,0,0.2-0.1,0.4-0.2c0.4-0.2,0.9-0.5,1.3-0.7c0,0,0,0,0.1,0
								c-0.1,0-0.1,0.1-0.2,0.1l0.1,0c0.1,0,0.1-0.1,0.2-0.1c0.3-0.2,0.3-0.2,0.3-0.2C84.6,86.5,84.5,86.5,84.4,86.6L84.4,86.6z
								 M86.4,85.4c-0.1,0.1-0.3,0.2-0.3,0.2c0,0,0,0,0.1,0L86.4,85.4c0,0.1,0.1,0.1,0.1,0l0.1-0.1C86.5,85.4,86.4,85.4,86.4,85.4
								c0.1,0,0.1,0,0.1-0.1C86.5,85.3,86.5,85.3,86.4,85.4L86.4,85.4z"/>
							<path class="st18_6" d="M82.5,71.8c0.2,0,0.3-0.1,0.5-0.1l-0.6,0.3c-0.1,0.2-0.1,0.3-0.1,0.5L79.8,74c0,0,0,0-0.1,0l2.5-1.5
								c0-0.3,0-0.3,0.1-0.4c-0.2,0-0.3,0-0.5,0.1L82.5,71.8L82.5,71.8z"/>
							<path class="st18_6" d="M79.9,74.6C79.8,74.6,79.8,74.6,79.9,74.6c0-0.1,0.2-0.2,0.3-0.1C80.2,74.6,80,74.6,79.9,74.6
								L79.9,74.6z M78.5,74.4c0,0,0.2-0.2,0.3-0.1C78.8,74.3,78.6,74.4,78.5,74.4L78.5,74.4z M78.8,74.2c-0.1,0-0.4,0.1-0.4,0.2
								c0,0,0.2,0,0.4-0.1c0.3,0,0.7,0,1.1,0.1c0,0-0.1,0,0,0.1c0.1,0.1,0.5,0.1,0.5-0.1c0-0.1-0.2-0.2-0.4-0.1
								C79.5,74.3,79.1,74.3,78.8,74.2C78.8,74.3,78.8,74.3,78.8,74.2C78.8,74.2,78.8,74.2,78.8,74.2L78.8,74.2z"/>
							<path class="st18_6" d="M88,74.5c0.1,0.1,0.1,0.1,0.2,0.2l-0.7,0.4c-0.1-0.1-0.1-0.1-0.2-0.2L88,74.5L88,74.5z"/>
							<path class="st18_6" d="M87.7,74.1c0.1,0.1,0.1,0.1,0.2,0.2l-0.7,0.4c-0.1-0.1-0.1-0.1-0.2-0.2L87.7,74.1L87.7,74.1z"/>
							<path class="st18_6" d="M87.3,73.8c0.1,0.1,0.1,0.1,0.2,0.2l-0.7,0.4c-0.1-0.1-0.1-0.1-0.2-0.2L87.3,73.8L87.3,73.8z"/>
							<path class="st18_6" d="M87,73.4c0.1,0.1,0.1,0.1,0.2,0.2L86.5,74c-0.1-0.1-0.1-0.1-0.2-0.2L87,73.4L87,73.4z"/>
							<path class="st18_6" d="M86.6,73.1c0.1,0.1,0.1,0.1,0.2,0.2l-0.7,0.4c-0.1-0.1-0.1-0.1-0.2-0.2L86.6,73.1L86.6,73.1z"/>
							<path class="st18_6" d="M86.2,72.8c0.1,0,0.1,0.1,0.2,0.1l-0.7,0.4c-0.1,0-0.1-0.1-0.2-0.1L86.2,72.8L86.2,72.8z"/>
							<path class="st18_6" d="M85.8,72.5c0.1,0,0.1,0.1,0.2,0.1l-0.7,0.4c-0.1,0-0.1-0.1-0.2-0.1L85.8,72.5L85.8,72.5z"/>
							<path class="st18_6" d="M84.6,76.5c0.1,0.1,0.1,0.1,0.2,0.2l-0.7,0.4c-0.1-0.1-0.1-0.1-0.2-0.2L84.6,76.5L84.6,76.5z"/>
							<path class="st18_6" d="M84.3,76.1c0.1,0.1,0.1,0.1,0.2,0.2l-0.7,0.4c-0.1-0.1-0.1-0.1-0.2-0.2L84.3,76.1L84.3,76.1z"/>
							<path class="st18_6" d="M83.9,75.7c0.1,0.1,0.1,0.1,0.2,0.2l-0.7,0.4c-0.1-0.1-0.1-0.1-0.2-0.2L83.9,75.7L83.9,75.7z"/>
							<path class="st18_6" d="M83.6,75.4c0.1,0.1,0.1,0.1,0.2,0.2l-0.7,0.4c-0.1-0.1-0.1-0.1-0.2-0.2L83.6,75.4L83.6,75.4z"/>
							<path class="st18_6" d="M83.2,75.1c0.1,0.1,0.1,0.1,0.2,0.2l-0.7,0.4c-0.1-0.1-0.1-0.1-0.2-0.2L83.2,75.1L83.2,75.1z"/>
							<path class="st18_6" d="M82.8,74.8c0.1,0,0.1,0.1,0.2,0.1l-0.7,0.4c-0.1,0-0.1-0.1-0.2-0.1L82.8,74.8L82.8,74.8z"/>
							<path class="st18_6" d="M82.5,74.5c0.1,0,0.1,0.1,0.2,0.1L82,75c-0.1,0-0.1-0.1-0.2-0.1L82.5,74.5L82.5,74.5z"/>
							<path class="st18_6" d="M84.2,72.5c0.2,0.1,0.4,0.2,0.6,0.3c0,0,0.1,0.1,0.1,0.1L84.7,73c0,0-0.1-0.1-0.1-0.1
								c-0.2-0.1-0.4-0.2-0.6-0.3L84.2,72.5L84.2,72.5z"/>
							<path class="st18_6" d="M83.8,72.8c0.2,0.1,0.4,0.2,0.6,0.3c0,0,0.1,0.1,0.1,0.1l-0.2,0.1c0,0-0.1-0.1-0.1-0.1
								c-0.2-0.1-0.4-0.2-0.6-0.3L83.8,72.8L83.8,72.8z"/>
							<path class="st18_6" d="M83.4,73c0.2,0.1,0.4,0.2,0.6,0.3c0,0,0.1,0.1,0.1,0.1L84,73.5c0,0-0.1-0.1-0.1-0.1
								c-0.2-0.1-0.4-0.2-0.6-0.3L83.4,73L83.4,73z"/>
							<path class="st18_6" d="M83.1,73.2c0.2,0.1,0.4,0.2,0.6,0.3c0,0,0.1,0.1,0.1,0.1l-0.2,0.1c0,0-0.1-0.1-0.1-0.1
								c-0.2-0.1-0.4-0.2-0.6-0.3L83.1,73.2L83.1,73.2z"/>
							<path class="st18_6" d="M82.7,73.4c0.2,0.1,0.4,0.2,0.6,0.3c0,0,0.1,0.1,0.1,0.1l-0.2,0.1c0,0-0.1-0.1-0.1-0.1
								c-0.2-0.1-0.4-0.2-0.6-0.3L82.7,73.4L82.7,73.4z"/>
							<path class="st18_6" d="M82.3,73.6c0.2,0.1,0.4,0.2,0.6,0.3c0,0,0.1,0.1,0.1,0.1l-0.2,0.1c0,0-0.1-0.1-0.1-0.1
								c-0.2-0.1-0.4-0.2-0.6-0.3L82.3,73.6L82.3,73.6z"/>
							<path class="st18" d="M81.9,73.8c0.2,0.1,0.4,0.2,0.6,0.3c0,0,0.1,0.1,0.1,0.1l-0.2,0.1c0,0-0.1-0.1-0.1-0.1
								c-0.2-0.1-0.4-0.2-0.6-0.3L81.9,73.8L81.9,73.8z"/>
							<path class="st18_6" d="M87.5,75.3c0.2,0.2,0.4,0.5,0.5,0.8l-0.2,0.1c-0.2-0.3-0.3-0.5-0.5-0.8L87.5,75.3L87.5,75.3z"/>
							<path class="st18_6" d="M87.1,75.6c0.2,0.2,0.4,0.5,0.5,0.8l-0.2,0.1c-0.2-0.3-0.3-0.5-0.5-0.8L87.1,75.6L87.1,75.6z"/>
							<path class="st18_6" d="M86.7,75.8c0.2,0.2,0.4,0.5,0.5,0.8L87,76.6c-0.2-0.3-0.3-0.5-0.5-0.8L86.7,75.8L86.7,75.8z"/>
							<path class="st18_6" d="M86.3,76c0.2,0.2,0.4,0.5,0.5,0.8l-0.2,0.1c-0.2-0.3-0.3-0.5-0.5-0.8L86.3,76L86.3,76z"/>
							<path class="st18_6" d="M86,76.2c0.2,0.2,0.4,0.5,0.5,0.8l-0.2,0.1c-0.2-0.3-0.3-0.5-0.5-0.8L86,76.2L86,76.2z"/>
							<path class="st18_6" d="M85.6,76.4c0.2,0.2,0.4,0.5,0.5,0.8l-0.2,0.1c-0.2-0.3-0.3-0.5-0.5-0.8L85.6,76.4L85.6,76.4z"/>
							<path class="st18_6" d="M85.2,76.6c0.2,0.2,0.4,0.5,0.5,0.8l-0.2,0.1c-0.2-0.3-0.3-0.5-0.5-0.8L85.2,76.6L85.2,76.6z"/>
							<path class="st18_6" d="M85.8,69.9c0,0,0.5-0.3,0.5-0.3C86.2,69.6,85.8,69.9,85.8,69.9L85.8,69.9z"/>
							<path class="st18_6" d="M83.3,71.3c0,0,0.5-0.3,0.5-0.3C83.7,71.1,83.3,71.3,83.3,71.3L83.3,71.3z"/>
							<path class="st18_6" d="M85.7,69.9c0.1,0,0.2-0.1,0.4-0.1l-0.2,0.1c-0.1,0-0.3,0.1-0.4,0.1L85.7,69.9L85.7,69.9z"/>
							<path class="st18_6" d="M85.4,70.1c0.1,0,0.2-0.1,0.4-0.1l-0.2,0.1c-0.1,0-0.3,0.1-0.4,0.1L85.4,70.1L85.4,70.1z"/>
							<path class="st18_6" d="M85,70.4c0.1,0,0.2-0.1,0.4-0.1l-0.2,0.1c-0.1,0-0.3,0.1-0.4,0.1L85,70.4L85,70.4z"/>
							<path class="st18_6" d="M84.6,70.6c0.1,0,0.2-0.1,0.4-0.1l-0.2,0.1c-0.1,0-0.3,0.1-0.4,0.1L84.6,70.6L84.6,70.6z"/>
							<path class="st18_6" d="M81.4,72.5c0.2,0,0.3-0.1,0.5-0.1l-0.6,0.3c0,0.1,0,0.2-0.1,0.2L79.4,74c0,0,0,0-0.1,0l1.8-1
								c0-0.1,0-0.1,0-0.2c-0.2,0-0.3,0-0.5,0.1L81.4,72.5L81.4,72.5z"/>
							<path class="st18_6" d="M89,73.8c0-0.1,0-0.1,0-0.2c0.1-0.1,0.3,0,0.3,0.1C89.3,73.9,89.1,73.9,89,73.8L89,73.8z M87,72
								c0,0-0.1-0.1,0-0.1c0-0.1,0.3-0.1,0.3,0C87.3,72,87.1,72.1,87,72L87,72z M87.3,71.8c-0.2-0.1-0.4-0.1-0.4,0
								c-0.1,0.1,0.2,0.3,0.4,0.2c0.6,0.4,1.1,0.9,1.6,1.5c0,0-0.1,0.1,0,0.2c0,0.2,0.4,0.3,0.5,0.1c0.1-0.2-0.1-0.4-0.3-0.4
								c-0.5-0.6-1.1-1.1-1.6-1.5C87.4,72,87.4,71.9,87.3,71.8L87.3,71.8z"/>
							<path class="st18_6" d="M85,71.6C85,71.6,85,71.6,85,71.6c0-0.1,0.2-0.2,0.3-0.1C85.3,71.5,85.2,71.6,85,71.6L85,71.6z
								 M88.6,72.5c0,0-0.1-0.1,0-0.1c0.1-0.1,0.3,0,0.3,0.1C88.8,72.6,88.7,72.6,88.6,72.5L88.6,72.5z M88.9,72.4
								c-0.1,0-0.2-0.1-0.3-0.1c-0.4-0.4-0.8-0.7-1.3-0.9c-0.9,0-1.1,0-1.9,0.1l-0.1,0c-0.2-0.1-0.4,0.1-0.4,0.1
								c0,0,0.3,0.2,0.5-0.1c0.9-0.1,1-0.1,1.8-0.1c0.4,0.2,0.8,0.6,1.2,0.9c-0.1,0.1,0,0.3,0.3,0.3C88.9,72.7,89,72.5,88.9,72.4
								L88.9,72.4z"/>
							<path class="st18_6" d="M84.4,71.4C84.4,71.4,84.3,71.4,84.4,71.4c0-0.1,0.2-0.2,0.3-0.1C84.7,71.3,84.5,71.4,84.4,71.4
								L84.4,71.4z M88.3,71.8c-0.1,0-0.1-0.1,0-0.1c0.1-0.1,0.3,0,0.3,0.1C88.5,71.8,88.4,71.9,88.3,71.8L88.3,71.8z M88.6,71.6
								c0,0-0.2-0.1-0.3-0.1c-0.2-0.1-0.4-0.3-0.6-0.4c-0.1-0.1-0.2-0.1-0.4-0.2c-1.1,0.1-1.4,0.1-2.5,0.3l-0.1,0
								c-0.2,0-0.4,0.1-0.4,0.2c0,0.1,0.3,0.1,0.5-0.1c1.1-0.2,1.5-0.2,2.5-0.3c0.1,0.1,0.2,0.1,0.3,0.2c0.2,0.1,0.4,0.2,0.6,0.4
								c-0.1,0.2,0.1,0.3,0.3,0.3C88.6,71.9,88.7,71.7,88.6,71.6L88.6,71.6z"/>
							<path class="st18_6" d="M83.8,71.4c0-0.1,0.2-0.2,0.3-0.1C84.1,71.3,84,71.3,83.8,71.4L83.8,71.4z M87.9,71.1
								c0,0-0.1-0.1,0-0.1c0.1-0.1,0.3-0.1,0.3,0C88.2,71.1,88,71.2,87.9,71.1L87.9,71.1z M88.2,70.9c0,0-0.2-0.1-0.3,0
								c-0.2-0.1-0.4-0.2-0.6-0.3c-1.3,0.1-1.9,0.3-3,0.6l-0.1,0c-0.1,0-0.4,0.1-0.4,0.2c0,0,0.3,0,0.5-0.2c1.2-0.3,1.8-0.4,3-0.6
								c0.2,0.1,0.4,0.2,0.6,0.3c-0.1,0.1,0.1,0.3,0.3,0.2C88.3,71.2,88.4,71,88.2,70.9L88.2,70.9z"/>
							<path class="st18_6" d="M81.8,87.2c0-0.1,0.1-0.2,0.2-0.2C82.1,87,82,87.2,81.8,87.2C81.8,87.2,81.8,87.3,81.8,87.2L81.8,87.2z
								 M75.1,76.2c0,0,0.2-0.1,0.3-0.1C75.4,76,75.2,76.1,75.1,76.2L75.1,76.2z M76.9,76.1C76.9,76.1,76.9,76.1,76.9,76.1
								c0-0.1,0.2-0.2,0.3-0.1C77.2,76,77,76.1,76.9,76.1L76.9,76.1z M75.8,75.9c0,0,0.2-0.2,0.3-0.1C76.1,75.8,76,75.9,75.8,75.9
								L75.8,75.9z M75.1,76.1l0.2-0.1C75.4,75.9,75.2,76,75.1,76.1L75.1,76.1L75.1,76.1z M83.6,82.7c0-0.1,0-0.2,0.1-0.2
								c0.1,0,0.2,0.1,0.1,0.2C83.8,82.8,83.7,82.9,83.6,82.7L83.6,82.7z M82.6,80.1c0-0.1,0-0.2,0-0.2c0.1-0.1,0.2,0.1,0.2,0.2
								C82.8,80.2,82.7,80.2,82.6,80.1L82.6,80.1z M84.3,84c0-0.1,0.1-0.2,0.1-0.2c0.1,0,0.1,0.2,0,0.3C84.4,84.1,84.3,84.1,84.3,84
								L84.3,84z M82.7,79.3c0-0.1,0-0.2,0-0.2c0.1-0.1,0.2,0.1,0.2,0.2C83,79.4,82.8,79.4,82.7,79.3L82.7,79.3z M83.7,80.9
								c-0.1-0.3-0.3-0.6-0.4-0.8c0.5,0.2,0.6,0.2,1.2,0.5c0.1,0.3,0.2,0.6,0.3,0.9C84.4,81.2,84.4,81.2,83.7,80.9L83.7,80.9z
								 M77,75l0.2-0.1C77.2,74.8,77,74.9,77,75C77,75,77,75,77,75L77,75z M82.5,76.8c0,0-0.1-0.1,0-0.2c0.1-0.1,0.3,0,0.3,0.1
								C82.7,76.8,82.6,76.9,82.5,76.8L82.5,76.8z M80.9,74.5C80.8,74.4,80.8,74.4,80.9,74.5c0-0.2,0.2-0.2,0.3-0.1
								C81.1,74.4,81,74.5,80.9,74.5L80.9,74.5z M78.5,74.2c0,0,0.2-0.2,0.3-0.1C78.8,74.1,78.6,74.1,78.5,74.2L78.5,74.2z
								 M84.6,77.6c0-0.1,0-0.2,0-0.2c0.1-0.1,0.3,0,0.2,0.2C84.9,77.7,84.7,77.7,84.6,77.6L84.6,77.6z M86.3,80.8
								c0-0.1,0-0.2,0.1-0.2c0.1,0,0.2,0.1,0.1,0.2C86.5,80.9,86.4,81,86.3,80.8L86.3,80.8z M85.6,78.9c0-0.1,0-0.2,0-0.2
								c0.1-0.1,0.2,0.1,0.2,0.2C85.8,79,85.7,79,85.6,78.9L85.6,78.9z M77.2,74.8l1.5-0.9c0.2-0.1,0.4-0.2,0.5-0.2L78.8,74
								c-0.1,0-0.3,0.2-0.4,0.2c0,0-1.5,0.9-1.5,0.9c-0.2,0.1-0.4,0.1-0.5,0.2l0.5-0.3c0,0,0.2-0.1,0.2-0.1
								C77.3,74.8,77.3,74.8,77.2,74.8C77.3,74.8,77.3,74.8,77.2,74.8L77.2,74.8z M79.9,73.4c0,0,0.2-0.2,0.3-0.1
								C80.1,73.3,80,73.4,79.9,73.4L79.9,73.4z M78.8,73.9l2.2-1.3C81,72.6,78.8,73.9,78.8,73.9L78.8,73.9L78.8,73.9z M75,76.1
								c0.3-0.2,0.4-0.2,0.4-0.2c0,0,0,0-0.1,0C75.4,75.9,75,76.1,75,76.1L75,76.1z M76.3,75.4c0.2-0.1,0.4-0.2,0.5-0.2
								c-1.4,0.8-1.4,0.8-1.8,1c-0.2,0.1-0.3,0.1-0.4,0.2l-0.1,0c0.1-0.1,0.3-0.1,0.4-0.2c0.3-0.1,0.3-0.1,0.4-0.2l2.1-1.2
								c0.1,0,0.2,0,0.3-0.1c-0.7,0.4-1.6,0.5-2.1,1.2c0,0,0.4,0,0.5-0.2l1.7-1c0.6-0.1,1.3,0.1,2,0.4l-0.4,0.2c0,0-0.1,0-0.1-0.1
								l-1,0.6c0.1,0,0.2,0.1,0.3,0.1l1-0.6c0,0-0.1,0-0.1-0.1l0.4-0.2c0.1,0.1,0.3,0.1,0.4,0.2c0.1,0.1,0.3,0.2,0.4,0.2l-0.4,0.2
								c0,0-0.1,0-0.1-0.1l-1,0.6c0.1,0.1,0.2,0.1,0.3,0.2l1-0.6c0,0-0.1,0-0.1-0.1l0.4-0.2c0.3,0.2,0.5,0.4,0.7,0.6l-0.4,0.2
								c0,0-0.1-0.1-0.1-0.1l-1,0.6c0.1,0.1,0.2,0.2,0.3,0.2l1-0.6c0,0-0.1-0.1-0.1-0.1l0.4-0.2c0.2,0.2,0.5,0.4,0.7,0.7l-0.4,0.2
								c0,0-0.1-0.1-0.1-0.1l-1,0.6c0.1,0.1,0.2,0.2,0.3,0.3l1-0.6c0,0-0.1-0.1-0.1-0.1l0.4-0.2c0.2,0.2,0.4,0.5,0.6,0.8l-0.4,0.2
								c0,0-0.1-0.1-0.1-0.1l-1,0.6c0.1,0.1,0.2,0.2,0.2,0.3l1-0.6c0,0-0.1-0.1-0.1-0.1l0.4-0.2c0.6,0.8,1.1,1.6,1.4,2.5
								c-0.5-0.2-0.6-0.2-1.2-0.5c-0.1-0.2-0.2-0.3-0.3-0.5c0,0,0.1-0.1,0.1-0.2c-0.1-0.2-0.3-0.3-0.4-0.1c-0.1,0.1,0,0.4,0.3,0.4
								c0.5,0.8,0.8,1.6,1.1,2.5c-0.2-0.1-0.4-0.2-0.5-0.3c-0.2-0.5-0.4-1-0.6-1.4c0,0,0.1-0.1,0.1-0.2c0-0.2-0.3-0.3-0.4-0.1
								c-0.1,0.1,0,0.4,0.3,0.4c0.2,0.4,0.4,0.9,0.6,1.4c-0.4-0.2-0.4-0.2-1.1-0.5c-0.9-1.9-2.3-3.6-3.9-4.6
								c-0.4-0.2-0.8-0.4-1.1-0.5c0,0,0,0,0-0.1c-0.1-0.1-0.4-0.1-0.5,0.1c0.1,0,0.1,0.1,0.4,0c0.4,0.1,0.7,0.3,1.1,0.5
								c1.3,0.7,2.5,2,3.3,3.4l-0.2,0.1c1,1.6,1.5,3.4,1.5,5c0,0.5-0.1,1-0.2,1.4c-0.2,0.1-0.5,0.3-0.7,0.4c0,0,0,0-0.1,0
								c-0.1,0-0.2,0.1-0.3,0.3l-1.1,0.6c0,0,0,0,0,0.1c0,0,1.1-0.6,1.1-0.6c0,0,0,0,0.1,0.1c0.1,0,0.2-0.1,0.3-0.3l0.7-0.4
								c-0.2,0.8-0.7,1.3-1.2,1.7l0.1,0c0.5-0.3,0.7-0.6,0.9-0.9l0.4-0.2c0,0,0,0.1-0.1,0.1l1-0.6c0.1-0.1,0.1-0.2,0.2-0.3l-1,0.6
								c0,0,0,0.1-0.1,0.1l-0.4,0.2c0.1-0.2,0.2-0.4,0.3-0.7l0.4-0.2c0,0,0,0.1,0,0.1l1-0.6c0-0.1,0.1-0.2,0.1-0.4l-1,0.6
								c0,0.1,0,0.1,0,0.2l-0.4,0.2c0.1-0.2,0.1-0.5,0.2-0.8l0.4-0.2c0,0.1,0,0.1,0,0.2l1-0.6c0-0.1,0-0.3,0-0.4l-1,0.6
								c0,0.1,0,0.1,0,0.2L83,85.7c0-0.2,0-0.4,0-0.5c0-1.6-0.6-3.4-1.5-4.9l0.1-0.1c0.2,0.4,0.4,0.7,0.6,1.1
								c0.5,0.2,0.5,0.2,1.2,0.5c0.1,0.2,0.2,0.5,0.2,0.7c0,0-0.1,0.1-0.1,0.2c0,0.2,0.2,0.3,0.3,0.2c0,0,0.2-0.4-0.1-0.4
								c-0.1-0.2-0.1-0.4-0.2-0.6c0.2,0.1,0.4,0.2,0.5,0.3c0.2,0.5,0.3,1.1,0.3,1.7c-0.2,0.2-0.1,0.4,0,0.4c0,0,0.4-0.3,0.2-0.5
								c0,0-0.1,0-0.1,0c-0.1-0.9-0.3-1.8-0.7-2.7c0.5,0.2,0.5,0.3,1.1,0.5c0.1,0.5,0.3,1,0.3,1.5L85,83.1c0,0.3,0,0.5,0,0.8
								c0,0.1,0,0.2,0,0.4l1-0.6c0-0.1,0-0.2,0-0.4c0-0.3,0-0.5,0-0.8l-0.2,0.1c0-0.4-0.1-0.9-0.3-1.3c0.2-0.1,0.5-0.3,0.7-0.4
								c0.1,0.1,0.3,0.1,0.3-0.2l0.7-0.4c0.2,0.7,0.3,1.4,0.3,2.1l0.5-0.3c0,0.1,0,0.1,0,0.2l1-0.6c0-0.1,0-0.1,0-0.2
								c0-0.1,0-0.2,0-0.3l-1,0.6c0,0.1,0,0.1,0,0.2l-0.4,0.2c0-0.3,0-0.6-0.1-1l0.4-0.2c0,0.1,0,0.1,0,0.2l1-0.6
								c0-0.2,0-0.3-0.1-0.5l-1,0.6c0,0.1,0,0.1,0,0.2l-0.4,0.2c-0.1-0.3-0.1-0.6-0.2-1l0.4-0.2c0,0.1,0,0.1,0.1,0.2l1-0.6
								c0-0.2-0.1-0.3-0.1-0.5l-1,0.6c0,0.1,0,0.1,0.1,0.2l-0.4,0.2c-0.1-0.3-0.2-0.6-0.3-1l0.4-0.2c0,0.1,0,0.1,0.1,0.2l1-0.6
								c-0.1-0.2-0.1-0.3-0.2-0.5l-1,0.6c0,0.1,0.1,0.1,0.1,0.2L87,79.1c-0.1-0.3-0.3-0.7-0.4-1l0.4-0.2c0,0.1,0.1,0.1,0.1,0.2
								l1-0.6c-0.1-0.2-0.2-0.3-0.2-0.5l-1,0.6c0,0.1,0.1,0.1,0.1,0.2l-0.5,0.3c0.4,0.7,0.6,1.4,0.9,2.1c-0.2,0.1-0.5,0.2-0.7,0.3
								c0,0-0.1,0-0.2,0c-0.2-0.5-0.3-1-0.6-1.5c0,0,0.1-0.1,0.1-0.2c0-0.2-0.3-0.3-0.4-0.1c-0.1,0.1-0.1,0.4,0.2,0.4
								c0.2,0.5,0.4,1,0.6,1.5c-0.1,0.1-0.1,0.1-0.1,0.3l-0.7,0.4c-0.2-0.8-0.6-1.6-1-2.4c0.1-0.3,0.1-0.7,0.2-1c0,0,0.1,0,0.1,0
								c0.2-0.1,0.1-0.4-0.1-0.4c0,0-0.4,0-0.2,0.3l0.1,0.1c0,0.3-0.1,0.8-0.2,1.1c0.7,1.2,1.1,2.6,1.3,3.8l-0.2,0.1
								c-0.2-2.1-1.3-4.3-2.8-6c0,0,0-0.1,0-0.1c0-0.2-0.4-0.3-0.5-0.2c-0.1,0.1,0,0.4,0.4,0.3c1.5,1.6,2.6,3.9,2.8,6L85.3,83
								c-0.3-2.9-2.4-6.2-4.8-7.7c-1.1-0.6-2.1-0.8-2.9-0.6c0.9-0.5,0.9-0.5,1.2-0.7c0.6-0.1,1.3,0,2,0.2c0,0,0,0.1,0,0.1
								c0,0,0,0.1,0,0.1L79.8,75c0,0,0.1,0,0.1,0c0.3-0.2,0.7-0.6,1-0.5c0.2,0,0.3-0.1,0.3-0.1c0-0.2-0.3-0.2-0.4-0.1
								c-0.2-0.1-0.3-0.1-0.5-0.2l3.1-1.8c0.1,0,0.2,0,0.3,0.1l0.6-0.4c-0.2-0.1-0.4-0.1-0.6-0.2l-0.6,0.4c0.1,0,0.2,0,0.3,0.1
								l-3.1,1.8c-0.2,0-0.3-0.1-0.4-0.1c0,0,0,0-0.1,0c-0.1,0-0.2,0-0.3,0c0,0,0,0-0.1,0c-0.2,0-0.4,0-0.6,0
								c1.3-0.8,1.3-0.8,1.3-0.8c-0.3,0.1-0.3,0.2-0.4,0.2l-0.4,0.2c-0.2,0-0.3,0.1-0.4,0.2l2.2-1.3l0,0L76.3,75.4L76.3,75.4z"/>
							<path class="st19_6" d="M85,72.8c0.1,0,0.1,0.1,0.2,0.1c0.1,0,0.1,0.1,0.2,0.1c0.1,0,0.1,0.1,0.2,0.1c0.1,0,0.1,0.1,0.2,0.1
								c0.1,0.1,0.1,0.1,0.2,0.2c0.1,0.1,0.1,0.1,0.2,0.2c0.1,0.1,0.1,0.1,0.2,0.2c0.1,0.1,0.1,0.1,0.2,0.2c0.1,0.1,0.1,0.1,0.2,0.2
								c0.1,0.1,0.1,0.1,0.2,0.2c0.1,0.1,0.1,0.1,0.2,0.2c0.1,0.1,0.1,0.1,0.2,0.2c0.1,0.1,0.1,0.1,0.2,0.2c0.1,0.1,0.1,0.1,0.2,0.2
								c0,0.1,0.1,0.1,0.1,0.2l-0.1,0.1l-0.2,0.1l-0.2,0.1l-0.2,0.1l-0.2,0.1l-0.2,0.1L86.3,76l-0.2,0.1L86,76.2l-0.2,0.1l-0.2,0.1
								l-0.2,0.1l-0.2,0.1L85,76.7l-0.1,0.1c0-0.1-0.1-0.1-0.1-0.2c-0.1-0.1-0.1-0.1-0.2-0.2c-0.1-0.1-0.1-0.1-0.2-0.2
								c-0.1-0.1-0.1-0.1-0.2-0.2c-0.1-0.1-0.1-0.1-0.2-0.2c-0.1-0.1-0.1-0.1-0.2-0.2c-0.1-0.1-0.1-0.1-0.2-0.2
								c-0.1-0.1-0.1-0.1-0.2-0.2c-0.1-0.1-0.1-0.1-0.2-0.2s-0.1-0.1-0.2-0.2C83.2,75,83.1,75,83,74.9c-0.1,0-0.1-0.1-0.2-0.1
								c-0.1,0-0.1-0.1-0.2-0.1c-0.1,0-0.1-0.1-0.2-0.1c0,0-0.1-0.1-0.2-0.1l0.1-0.1l0.2-0.1l0.2-0.1L83,74l0.2-0.1l0.2-0.1l0.2-0.1
								l0.2-0.1l0.2-0.1l0.2-0.1l0.2-0.1l0.2-0.1l0.2-0.1l0.2-0.1L85,72.8L85,72.8z"/>
							<path class="st19_6" d="M83.7,71.1c0.1-0.1,0.2-0.1,0.3-0.1l0.4-0.2l0.2-0.1l0.2-0.1l0.2-0.1l0.2-0.1l0.2-0.1l0.2-0.1l0.2-0.1
								l0.3-0.2c-0.1,0-0.2,0.1-0.3,0.1C85.8,69.9,83.7,71.1,83.7,71.1L83.7,71.1z"/>
						</g>
					</g>
				</g>
			</g>
			<linearGradient id="SVGID_6_6_" gradientUnits="userSpaceOnUse" x1="73.7973" y1="61.0838" x2="82.4036" y2="75.9904">
				<stop  offset="0" style="stop-color:#E8E8E8"/>
				<stop  offset="0.4667" style="stop-color:#E5E5E5"/>
				<stop  offset="0.7632" style="stop-color:#DDDDDD"/>
				<stop  offset="1" style="stop-color:#CFCFCF"/>
			</linearGradient>
			<polygon class="st20_6" points="92.4,70.2 78.9,58.2 63.8,66.9 77.3,78.9 			"/>
			<g class="st21_6">
				<linearGradient id="SVGID_7_6_" gradientUnits="userSpaceOnUse" x1="83.165" y1="72.6266" x2="85.1394" y2="76.0464">
					<stop  offset="0" style="stop-color:#D2D2D2"/>
					<stop  offset="0.4751" style="stop-color:#838383"/>
					<stop  offset="0.828" style="stop-color:#4F4F4F"/>
					<stop  offset="1" style="stop-color:#3B3B3B"/>
				</linearGradient>
				<path class="st22_6" d="M91,69.2c-0.4-0.2-0.7-0.4-1.1-0.5l-15.1,8.7c0.3,0.1,0.7,0.3,1.1,0.5c0.9,0.5,1.7,1.2,2.4,2.1l15.1-8.7
					C92.7,70.4,91.9,69.7,91,69.2z"/>
			</g>
			<g>
				<defs>
					<polygon id="SVGID_8_6_" points="92.4,70.2 92.2,70 78.9,58.2 63.8,66.9 77,78.6 77.3,78.9 					"/>
				</defs>
				<clipPath id="SVGID_9_6_">
					<use xlink:href="#SVGID_8_6_"  style="overflow:visible;"/>
				</clipPath>
				<g class="st23_6">
					<g>
						<polygon class="st18_6" points="71.9,62.4 71.3,61.8 71.1,61.9 71.7,62.5 						"/>
						<path class="st18_6" d="M76.6,62.7c0.1,0.1,0.2,0.1,0.4,0c0.1-0.1,0.1-0.2,0-0.3c-0.1-0.1-0.2-0.1-0.3,0l-1.5-1.3
							c0.1-0.1,0.1-0.2,0-0.2c-0.1-0.1-0.2-0.1-0.4,0c-0.1,0.1-0.1,0.2,0,0.3c0.1,0.1,0.2,0.1,0.3,0.1l1.5,1.3
							C76.5,62.5,76.5,62.6,76.6,62.7z M76.6,62.5c0.1,0,0.2,0,0.2,0s0,0.1,0,0.2c-0.1,0-0.2,0-0.2,0C76.6,62.6,76.6,62.5,76.6,62.5
							z M75.1,61.1c-0.1,0-0.2,0-0.2,0c-0.1,0,0-0.1,0-0.2c0.1,0,0.2,0,0.2,0C75.1,60.9,75.1,61,75.1,61.1z"/>
						<polygon class="st18_6" points="69.6,64.1 70.3,63.6 70.1,63.5 69.4,63.9 						"/>
						<polygon class="st18_6" points="70.6,63.9 70.5,63.8 69.7,64.2 69.9,64.4 						"/>
						<polygon class="st18_6" points="80.5,64.6 81.2,65.2 81.3,65.1 80.7,64.5 						"/>
						<polygon class="st18_6" points="69.5,62.8 70.2,63.4 70.3,63.3 69.7,62.7 						"/>
						<polygon class="st18_6" points="70.7,62.2 71.3,62.7 71.5,62.6 70.9,62 						"/>
						<polygon class="st18_6" points="70.3,62.4 70.9,62.9 71.1,62.8 70.5,62.3 						"/>
						<polygon class="st18_6" points="77.8,66.4 78.5,66 78,65.6 77.4,65.9 75.9,65.8 73.3,67.3 73.3,67.4 75.9,65.9 77.4,66 						
							"/>
						<polygon class="st18_6" points="69.9,62.6 70.5,63.2 70.7,63.1 70.1,62.5 						"/>
						<polygon class="st18_6" points="81.6,65.8 81.4,65.6 80.7,66.1 80.8,66.2 						"/>
						<polygon class="st18_6" points="81.3,64.2 81.9,64.7 82.1,64.6 81.5,64.1 						"/>
						<polygon class="st18_6" points="81.7,63.9 82.3,64.5 82.5,64.4 81.9,63.8 						"/>
						<path class="st18_6" d="M78.4,62.2c0.1-0.1,0.1-0.2,0-0.2c-0.1-0.1-0.2-0.1-0.4,0c-0.1,0.1-0.1,0.2,0,0.3
							C78.1,62.2,78.2,62.3,78.4,62.2l0.4,0.5l-0.3,2.1c0,0-0.1,0-0.1,0c-0.1,0.1-0.1,0.2,0,0.3c0.1,0.1,0.2,0.1,0.4,0
							c0.1-0.1,0.1-0.2,0-0.3c0,0-0.1-0.1-0.1-0.1l0.3-2.1L78.4,62.2z M78.3,62.2c-0.1,0-0.2,0-0.2,0c-0.1,0,0-0.1,0-0.2
							c0.1,0,0.2,0,0.2,0C78.4,62,78.4,62.1,78.3,62.2z M78.7,64.9c0.1,0,0,0.1,0,0.2c-0.1,0-0.2,0-0.2,0c-0.1,0,0-0.1,0-0.2
							S78.7,64.8,78.7,64.9z"/>
						<polygon class="st18_6" points="80.9,64.4 81.5,65 81.7,64.8 81.1,64.3 						"/>
						<polygon class="st18_6" points="80.5,65.9 81.3,65.5 81.1,65.4 80.4,65.8 						"/>
						<path class="st18_6" d="M70.2,58.4L70.2,58.4l0.6-0.5l5.5,0.5l0.5,0.5L76.4,59l-0.5-0.4l-4.8-0.4l-0.7,0.4l-0.1,0l-0.9,0.5
							l0.2,0.2l0.9-0.5l-0.1-0.1l0.7-0.4l4.7,0.4l0.5,0.4l-0.4,0.2l-0.4-0.4l-4-0.3L70.8,59l-0.1-0.1l-0.9,0.5l0.2,0.2l0.9-0.5
							c0,0,0.7-0.4,0.7-0.4l3.9,0.3l0.4,0.4l-0.3,0.2l-0.4-0.4l-3.3-0.3l-0.7,0.4c0,0-0.9,0.5-0.9,0.5l0.2,0.2l0.9-0.5l-0.1-0.1
							l0.7-0.4l3.3,0.3l0.4,0.3l-0.4,0.2l-0.3-0.3l-2.5-0.2l-0.7,0.4l-0.1-0.1l-0.9,0.5l0.2,0.2l0.9-0.5l-0.1,0l0.7-0.4l2.5,0.2
							l0.3,0.3L74.7,60l-0.3-0.3l-1.7-0.1L72,60L71.9,60L71,60.5l0.2,0.2l0.9-0.5c0,0,0.7-0.4,0.7-0.4l1.6,0.1l0.3,0.2l-0.8,0.5
							c-0.1-0.1-0.2-0.1-0.3,0c-0.1,0.1-0.1,0.2,0,0.3c0.1,0.1,0.2,0.1,0.3,0.1l1.3,1.2c-0.1,0.1-0.1,0.2,0,0.2
							c0.1,0.1,0.2,0.1,0.4,0c0.1-0.1,0.1-0.2,0-0.3c-0.1-0.1-0.2-0.1-0.3,0l-1.3-1.2c0.1-0.1,0.1-0.1,0-0.2l1-0.6l0.6,0.6l-0.1,0.1
							l0.5,0.5l0.3-0.2l-0.5-0.5l-0.1,0.1L75,59.9l0.6-0.3l0.9,0.8l-0.1,0.1l0.5,0.5l0.3-0.2l-0.5-0.5l-0.1,0.1l-0.9-0.8l0.6-0.3
							l3.9,3.5l-0.2,1.6c-0.1,0-0.1,0-0.2,0c-0.1,0.1-0.1,0.2,0,0.3s0.2,0.1,0.4,0c0.1-0.1,0.1-0.2,0-0.3c0,0-0.1,0-0.1-0.1l0.2-1.6
							l-1.5-1.4l0.1-0.7l2.3,2.1l-0.3,0.2l0.5,0.5L82,63l-0.5-0.5l-0.3,0.2l-2.4-2.2c0,0-1.9-1.7-1.9-1.7l0.2-0.1
							c0.1,0.1,0.2,0.1,0.3,0c0.1-0.1,0.1-0.2,0-0.3c-0.1-0.1-0.2-0.1-0.4,0C77,58.5,77,58.6,77,58.6l-0.2,0.1l-0.5-0.5l-5.5-0.5
							L70,58.2c0,0-0.9,0.5-0.9,0.5l0.2,0.2L70.2,58.4z M73.8,60.8c-0.1,0-0.2,0-0.2,0c-0.1,0,0-0.1,0-0.2c0.1,0,0.2,0,0.2,0
							C73.8,60.7,73.8,60.7,73.8,60.8z M75.2,62.1c0.1,0,0.2,0,0.2,0c0.1,0,0,0.1,0,0.2c-0.1,0-0.2,0-0.2,0
							C75.1,62.2,75.1,62.1,75.2,62.1z M80,64.4c0.1,0,0,0.1,0,0.2c-0.1,0-0.2,0-0.2,0c-0.1,0,0-0.1,0-0.2
							C79.9,64.4,80,64.4,80,64.4z M77.1,58.5c0.1,0,0.2,0,0.2,0c0.1,0,0,0.1,0,0.2c-0.1,0-0.2,0-0.2,0
							C77.1,58.6,77.1,58.5,77.1,58.5z M78.7,60.6l-0.1,0.7l-2.3-2.1l0.5-0.3L78.7,60.6z"/>
						<polygon class="st18_6" points="70.9,64.2 70.8,64.1 70,64.5 70.2,64.7 						"/>
						<path class="st18_6" d="M82.2,69.1l1-0.6l-0.9-0.8l-1,0.6l0.1,0.1l-0.7,0.4l-1.5-0.1l1.8-1c0.1,0.1,0.2,0.1,0.3,0
							c0.1-0.1,0.1-0.2,0-0.3c-0.1-0.1-0.2-0.1-0.4,0C81,67.5,81,67.5,81,67.6l-0.9,0.5c0,0-0.7-0.1-0.7-0.1l0.5-0.3
							c0.1,0.1,0.2,0.1,0.3,0c0.1-0.1,0.1-0.2,0-0.3c-0.1-0.1-0.2-0.1-0.4,0c-0.1,0.1-0.1,0.1-0.1,0.2l-0.6,0.3l-1.5-0.1l-1.3,0.7
							c-0.1-0.1-0.2-0.1-0.3,0c-0.1,0.1-0.1,0.2,0,0.3c0.1,0.1,0.2,0.1,0.4,0c0.1-0.1,0.1-0.1,0.1-0.2l1.2-0.7l1.3,0.1L78,68.8
							c-0.1-0.1-0.2-0.1-0.3,0c-0.1,0.1-0.1,0.2,0,0.3c0.1,0.1,0.2,0.1,0.4,0c0.1-0.1,0.1-0.1,0.1-0.2l1.2-0.7l0.7,0.1l-2,1.2
							c-0.1,0-0.2-0.1-0.3,0c-0.1,0.1-0.1,0.2,0,0.3c0.1,0.1,0.2,0.1,0.4,0c0.1-0.1,0.1-0.2,0.1-0.2l0.4-0.2l1.5,0.1l-2.1,1.2
							l-0.3-0.3l0.1-0.1l-0.8-0.7l-0.3,0.2l0.8,0.7l0.1-0.1l0.3,0.3l-0.8,0.4l-0.3-0.3l0.1-0.1L75.8,70l-0.3,0.2l0.8,0.7l0.1-0.1
							l0.3,0.3l-0.8,0.4l-0.3-0.3l0.1-0.1L75,70.4l-0.3,0.2l0.8,0.7l0.1-0.1l0.3,0.3l-0.9,0.5l-0.5-0.4c0.1-0.1,0.1-0.2,0-0.2
							c-0.1-0.1-0.2-0.1-0.4,0c-0.1,0.1-0.1,0.2,0,0.3c0.1,0.1,0.2,0.1,0.3,0l0.5,0.4l-0.4,0.2c-0.1-0.1-0.2-0.1-0.3,0
							c-0.1,0.1-0.1,0.2,0,0.3s0.2,0.1,0.4,0c0.1-0.1,0.1-0.1,0.1-0.2l1.6-0.9l0.8,0.7c-0.1,0.1-0.1,0.1,0,0.2l-1.3,0.7
							c-0.1-0.1-0.2-0.1-0.3,0c-0.1,0.1-0.1,0.2,0,0.2c0.1,0.1,0.2,0.1,0.4,0c0.1-0.1,0.1-0.1,0.1-0.2l1.3-0.7
							c0.1,0.1,0.2,0.1,0.3,0c0.1-0.1,0.1-0.2,0-0.3c-0.1-0.1-0.2-0.1-0.3-0.1l-0.8-0.7l5.2-3l0.2,0.2l-4.5,2.6
							c-0.1-0.1-0.2-0.1-0.3,0c-0.1,0.1-0.1,0.2,0,0.3c0.1,0.1,0.2,0.1,0.4,0c0.1-0.1,0.1-0.1,0.1-0.2l4.5-2.6l0.2,0.2l-2.6,1.5
							l-0.1,0.8c-0.1,0-0.1,0-0.1,0c-0.1,0.1-0.1,0.2,0,0.3c0.1,0.1,0.2,0.1,0.4,0c0.1-0.1,0.1-0.2,0-0.3c0,0-0.1,0-0.1-0.1l0.1-0.8
							L82,69L82.2,69.1z M81.2,67.5c0.1,0,0.2,0,0.2,0c0.1,0,0,0.1,0,0.2c-0.1,0-0.2,0-0.2,0C81.1,67.6,81.1,67.5,81.2,67.5z
							 M79.9,67.6c0.1,0,0.2,0,0.2,0c0.1,0,0,0.1,0,0.2c-0.1,0-0.2,0-0.2,0C79.8,67.7,79.9,67.6,79.9,67.6z M76.5,68.9
							c-0.1,0-0.2,0-0.2,0c-0.1,0,0-0.1,0-0.2c0.1,0,0.2,0,0.2,0C76.5,68.8,76.5,68.8,76.5,68.9z M78,69c-0.1,0-0.2,0-0.2,0
							c-0.1,0,0-0.1,0-0.2c0.1,0,0.2,0,0.2,0C78,68.9,78,69,78,69z M77.9,69.6c-0.1,0-0.2,0-0.2,0c-0.1,0,0-0.1,0-0.2
							c0.1,0,0.2,0,0.2,0C78,69.5,78,69.6,77.9,69.6z M74.5,71.6c-0.1,0-0.2,0-0.2,0c-0.1,0,0-0.1,0-0.2c0.1,0,0.2,0,0.2,0
							C74.6,71.5,74.6,71.6,74.5,71.6z M74.6,72.6c-0.1,0-0.2,0-0.2,0c-0.1,0,0-0.1,0-0.2c0.1,0,0.2,0,0.2,0
							C74.6,72.5,74.6,72.5,74.6,72.6z M75.7,73.4c-0.1,0-0.2,0-0.2,0c-0.1,0,0-0.1,0-0.2c0.1,0,0.2,0,0.2,0
							C75.7,73.3,75.7,73.3,75.7,73.4z M77.2,72.2c0.1,0,0.2,0,0.2,0c0.1,0,0,0.1,0,0.2c-0.1,0-0.2,0-0.2,0
							C77.1,72.3,77.1,72.3,77.2,72.2z M80,69.3l-1.5-0.1l0.7-0.4l1.5,0.1L80,69.3z M77.1,71.5c-0.1,0-0.2,0-0.2,0
							c-0.1,0,0-0.1,0-0.2c0.1,0,0.2,0,0.2,0C77.2,71.4,77.2,71.5,77.1,71.5z M79.4,71.3c0.1,0,0,0.1,0,0.2c-0.1,0-0.2,0-0.2,0
							c-0.1,0,0-0.1,0-0.2C79.3,71.3,79.3,71.3,79.4,71.3z"/>
						<polygon class="st18_6" points="81,66.4 81.2,66.5 81.9,66.1 81.8,65.9 						"/>
						<polygon class="st18_6" points="82.2,66.4 82.1,66.2 81.3,66.7 81.5,66.8 						"/>
						<polygon class="st18_6" points="75.5,66.5 73.6,67.6 73.7,67.7 75.5,66.6 76.2,66.6 76.7,67.1 77.4,66.7 76.8,66.2 76.3,66.6 
													"/>
						<path class="st18_6" d="M78.5,72.8C78.5,72.8,78.5,72.8,78.5,72.8c-0.1-0.2-0.3-0.2-0.4-0.1c-0.1,0.1-0.1,0.2,0,0.3
							c0.1,0.1,0.2,0.1,0.4,0C78.5,73,78.5,72.9,78.5,72.8l1.8,0.2l0.6-0.4c0.1,0.1,0.2,0.1,0.3,0c0.1-0.1,0.1-0.2,0-0.3
							s-0.2-0.1-0.4,0c-0.1,0.1-0.1,0.1-0.1,0.2L80.3,73L78.5,72.8z M78.4,72.9c-0.1,0-0.2,0-0.2,0c-0.1,0,0-0.1,0-0.2
							c0.1,0,0.2,0,0.2,0C78.4,72.8,78.4,72.9,78.4,72.9z M81,72.5c0.1,0,0.2,0,0.2,0c0.1,0,0,0.1,0,0.2c-0.1,0-0.2,0-0.2,0
							C80.9,72.6,80.9,72.5,81,72.5z"/>
						<path class="st18_6" d="M80.2,71.4c-0.1,0.1-0.1,0.2,0,0.3c0.1,0.1,0.2,0.1,0.4,0c0.1-0.1,0.1-0.1,0.1-0.2l1.8-1
							c0.1,0.1,0.2,0.1,0.3,0c0.1-0.1,0.1-0.2,0-0.3c-0.1-0.1-0.2-0.1-0.4,0c-0.1,0.1-0.1,0.1-0.1,0.2l-1.8,1
							C80.4,71.3,80.3,71.3,80.2,71.4z M80.5,71.6c-0.1,0-0.2,0-0.2,0c-0.1,0,0-0.1,0-0.2c0.1,0,0.2,0,0.2,0
							C80.5,71.5,80.5,71.6,80.5,71.6z M82.4,70.2c0.1,0,0.2,0,0.2,0c0.1,0,0,0.1,0,0.2c-0.1,0-0.2,0-0.2,0
							C82.3,70.3,82.3,70.2,82.4,70.2z"/>
						<polygon class="st18_6" points="83.1,66.9 83.3,66.8 82.7,66.3 82.5,66.4 						"/>
						<polygon class="st18_6" points="83.6,64.2 83.4,64 82.7,64.4 82.8,64.6 						"/>
						<path class="st18_6" d="M77.5,61.6c-0.1-0.1-0.2-0.1-0.4,0c-0.1,0.1-0.1,0.2,0,0.3c0.1,0.1,0.2,0.1,0.3,0l0.8,0.7L78,64.3
							c0,0-0.1,0-0.1,0c-0.1,0.1-0.1,0.2,0,0.3c0.1,0.1,0.2,0.1,0.4,0c0.1-0.1,0.1-0.2,0-0.3c0,0-0.1-0.1-0.1-0.1l0.2-1.7l-0.8-0.7
							C77.5,61.8,77.5,61.7,77.5,61.6z M77.4,61.8c-0.1,0-0.2,0-0.2,0c-0.1,0,0-0.1,0-0.2s0.2,0,0.2,0
							C77.4,61.7,77.4,61.8,77.4,61.8z M78.1,64.4c0.1,0,0,0.1,0,0.2c-0.1,0-0.2,0-0.2,0c-0.1,0,0-0.1,0-0.2
							C78,64.4,78.1,64.4,78.1,64.4z"/>
						<path class="st18_6" d="M81.6,72.1c0.1-0.1,0.1-0.2,0-0.3c-0.1-0.1-0.2-0.1-0.4,0c-0.1,0.1-0.1,0.1-0.1,0.2l-0.9,0.5l-1.2-0.1
							c0,0,0-0.1-0.1-0.1c-0.1-0.1-0.2-0.1-0.4,0c-0.1,0.1-0.1,0.2,0,0.3c0.1,0.1,0.2,0.1,0.4,0c0,0,0.1,0,0.1-0.1l1.3,0.1l1-0.5
							C81.4,72.1,81.5,72.1,81.6,72.1z M79,72.5c-0.1,0-0.2,0-0.2,0c-0.1,0,0-0.1,0-0.2c0.1,0,0.2,0,0.2,0C79,72.4,79,72.5,79,72.5z
							 M81.4,72c-0.1,0,0-0.1,0-0.2c0.1,0,0.2,0,0.2,0c0.1,0,0,0.1,0,0.2C81.5,72.1,81.4,72,81.4,72z"/>
						<polygon class="st18_6" points="83.2,64.9 83.9,64.4 83.8,64.3 83,64.7 						"/>
						<path class="st18_6" d="M76.6,61.4c-0.1-0.1-0.2-0.1-0.4,0c-0.1,0.1-0.1,0.2,0,0.3c0.1,0.1,0.2,0.1,0.3,0.1l1,0.9l-0.2,1.2
							c-0.1,0-0.1,0-0.2,0c-0.1,0.1-0.1,0.2,0,0.3c0.1,0.1,0.2,0.1,0.4,0c0.1-0.1,0.1-0.2,0-0.3c0,0-0.1,0-0.1-0.1l0.2-1.3l-1.1-1
							C76.6,61.5,76.6,61.4,76.6,61.4z M76.5,61.6c-0.1,0-0.2,0-0.2,0c-0.1,0,0-0.1,0-0.2c0.1,0,0.2,0,0.2,0
							C76.5,61.4,76.5,61.5,76.5,61.6z M77.5,63.9c0.1,0,0,0.1,0,0.2c-0.1,0-0.2,0-0.2,0c-0.1,0,0-0.1,0-0.2
							C77.3,63.9,77.4,63.9,77.5,63.9z"/>
						<path class="st18_6" d="M82,71.4c0.1-0.1,0.1-0.2,0-0.3c-0.1-0.1-0.2-0.1-0.4,0c-0.1,0.1-0.1,0.1-0.1,0.2l-1.2,0.7l-2.3-0.2
							c0,0,0-0.1-0.1-0.1c-0.1-0.1-0.2-0.1-0.4,0c-0.1,0.1-0.1,0.2,0,0.3c0.1,0.1,0.2,0.1,0.4,0c0,0,0.1,0,0.1-0.1l2.3,0.2
							c0,0,1.3-0.7,1.3-0.7C81.8,71.5,81.9,71.5,82,71.4z M78,71.9c-0.1,0-0.2,0-0.2,0c-0.1,0,0-0.1,0-0.2c0.1,0,0.2,0,0.2,0
							C78,71.8,78,71.9,78,71.9z M81.7,71.4c-0.1,0,0-0.1,0-0.2c0.1,0,0.2,0,0.2,0c0.1,0,0,0.1,0,0.2C81.9,71.4,81.8,71.4,81.7,71.4
							z"/>
						<path class="st18_6" d="M80.6,66.6c-0.1,0-0.2,0-0.3,0.1l-0.9-0.1l-0.8,0.5l-0.8-0.1l-2.2,1.3l-0.5-0.5l0.4-0.3
							c0.1,0.1,0.2,0.1,0.3,0c0.1-0.1,0.1-0.2,0-0.3c-0.1-0.1-0.2-0.1-0.4,0c-0.1,0.1-0.1,0.1-0.1,0.2l-1,0.6c0,0-0.2-0.1-0.3,0
							L72.9,67l3.2-1.9l0.2,0.2l0.6-0.4l-0.5-0.5l-0.6,0.4L76,65l-3.2,1.9l-0.4-0.4c0.1-0.1,0.1-0.2,0-0.2c-0.1-0.1-0.2-0.1-0.3,0
							c-0.1,0.1-0.1,0.1-0.1,0.2L71,67l0.1,0.1l0.9-0.6c0.1,0,0.2,0.1,0.3,0l1.8,1.6c-0.1,0.1-0.1,0.1,0,0.2l-1,0.6l-8.6-7.6
							l0.2-0.1l4.2,3.7c-0.1,0.1-0.1,0.2,0,0.2c0.1,0.1,0.2,0.1,0.3,0c0.1-0.1,0.1-0.2,0-0.3c-0.1-0.1-0.2-0.1-0.3,0l-4.2-3.8
							l0.2-0.1l2.6,2.3l1.1,0.1c0,0,0,0.1,0.1,0.1c0.1,0.1,0.2,0.1,0.3,0c0.1-0.1,0.1-0.2,0-0.3c-0.1-0.1-0.2-0.1-0.3,0
							c0,0-0.1,0-0.1,0.1l-1.1-0.1l-1.6-1.4l0.7-0.4c0.1,0,0.2,0.1,0.3,0l1,0.9c-0.1,0.1-0.1,0.2,0,0.2c0.1,0.1,0.2,0.1,0.3,0
							c0.1-0.1,0.1-0.2,0-0.3c-0.1-0.1-0.2-0.1-0.3,0l-1-0.9c0.1-0.1,0.1-0.1,0-0.2l0.7-0.4l1.4,1.3l0.5-0.3l0.1,0.1l1-0.6L70.6,61
							l-1,0.6l0.1,0.1L69.4,62l-0.7-0.6l0.4-0.2l0.1,0.1l1-0.6l-0.3-0.3l-1,0.6l0.1,0.1l-0.4,0.2L68,60.7l0.4-0.2l0.1,0.1l1-0.6
							l-0.3-0.3l-1,0.6l0.1,0.1l-0.4,0.2l-0.7-0.6l0.4-0.2l0.1,0.1l1-0.6l-0.3-0.3l-1,0.6l0.1,0.1L67.2,60l-0.7-0.6l0.4-0.2l0.1,0.1
							l1-0.6l-0.3-0.3l-1,0.6l0.1,0.1l-0.5,0.3l1.4,1.3l-0.7,0.4c-0.1-0.1-0.2-0.1-0.3,0c-0.1,0.1-0.1,0.2-0.1,0.2l-0.7,0.4L65.2,61
							l0.2-0.1l-0.8-0.7l-1,0.6l0.8,0.7l0.2-0.1l1,0.9l-0.1,1.1l-1.8-1.6c0.1-0.1,0.1-0.2,0-0.2c-0.1-0.1-0.2-0.1-0.3,0
							c-0.1,0.1-0.1,0.2,0,0.3c0.1,0.1,0.2,0.1,0.3,0.1l1.1,1c0,0-0.1,0.5-0.1,0.5l-0.4-0.4c0.1-0.1,0.1-0.2,0-0.2
							c-0.1-0.1-0.2-0.1-0.3,0c-0.1,0.1-0.1,0.2,0,0.3c0.1,0.1,0.2,0.1,0.3,0l0.5,0.4l-0.1,1.1l4.9,4.3c-0.1,0.1-0.1,0.2,0,0.2
							c0.1,0.1,0.2,0.1,0.3,0s0.1-0.2,0-0.3c-0.1-0.1-0.2-0.1-0.3,0l-4.8-4.3l0.1-1l0.9,0.8c-0.1,0.1-0.1,0.2,0,0.2
							c0.1,0.1,0.2,0.1,0.3,0c0.1-0.1,0.1-0.2,0-0.3c-0.1-0.1-0.2-0.1-0.3,0l-1-0.9l0.1-0.5l1.7,1.5c-0.1,0.1-0.1,0.2,0,0.2
							c0.1,0.1,0.2,0.1,0.3,0c0.1-0.1,0.1-0.2,0-0.3c-0.1-0.1-0.2-0.1-0.3,0L66.2,64l0.1-1.1l1.8,1.6l-0.4,0.2l-0.1-0.1l-1,0.6
							l0.2,0.2l1-0.6l-0.1-0.1l0.4-0.2l0.6,0.6l-0.4,0.2l-0.1-0.1l-1,0.6l0.2,0.2l1-0.6l-0.1-0.1l0.4-0.2l0.6,0.6L69,66L69,65.9
							l-1,0.6l0.2,0.2l1-0.6L69.1,66l0.4-0.2l0.6,0.6l-0.4,0.2l-0.1-0.1l-1,0.6l0.2,0.2l1-0.6l-0.1-0.1l0.4-0.2l0.6,0.6l-0.4,0.2
							l-0.1-0.1l-1,0.6l0.2,0.2l1-0.6l-0.1-0.1l0.4-0.2l1.8,1.6l-1.7,1c-0.1-0.1-0.2-0.1-0.3,0c-0.1,0.1-0.1,0.2,0,0.3
							c0.1,0.1,0.2,0.1,0.3,0c0.1-0.1,0.1-0.2,0.1-0.2l1.7-1l0.3,0.3l-1.7,1c-0.1-0.1-0.2-0.1-0.3,0C71,70,71,70.2,71,70.2
							c0.1,0.1,0.2,0.1,0.3,0l5.4,4.8l-0.7,0.4c-0.1-0.1-0.2-0.1-0.3,0c-0.1,0.1-0.1,0.1-0.1,0.2l-1.4,0.8l0.1,0.1l1.4-0.8
							c0.1,0.1,0.2,0.1,0.3,0c0.1-0.1,0.1-0.1,0.1-0.2l0.7-0.4l2.9,2.5l0.1,0l-2.2-1.9l0.4-0.2l0.1,0.1l1-0.6l-0.3-0.3l-1,0.6
							l0.1,0.1l-0.4,0.2l-0.6-0.6l0.4-0.2l0.1,0.1l1-0.6l-0.3-0.3l-1,0.6l0.1,0.1L76.8,75l-0.6-0.6l0.4-0.2l0.1,0.1l1-0.6l-0.3-0.3
							l-1,0.6l0.1,0.1l-0.4,0.2l-4.7-4.2c0.1-0.1,0.1-0.1,0-0.2l1.1-0.7l1.1,1l-0.6,0.4l0.7,0.1c0,0,0,0.1,0.1,0.1
							c0,0,0.1,0.1,0.2,0.1c0.1,0,0.3-0.1,0.3-0.2c0,0,0-0.1-0.1-0.1c0,0-0.1-0.1-0.2-0.1c-0.1,0-0.2,0-0.3,0.1l-0.5,0l1.8-1
							l0.6,0.1c0,0,0,0.1,0.1,0.1c0,0,0.1,0.1,0.2,0.1c0.1,0,0.3-0.1,0.3-0.2c0-0.1-0.1-0.2-0.2-0.2c-0.1,0-0.2,0-0.3,0.1l-1-0.1
							l4-2.3l0.8,0.1c0,0,0,0.1,0.1,0.1c0,0,0.1,0.1,0.2,0.1c0.1,0,0.3-0.1,0.3-0.2c0-0.1-0.1-0.2-0.2-0.2c-0.1,0-0.2,0-0.3,0.1
							l-0.7-0.1l0.7-0.4l0.8,0.1c0,0,0,0.1,0.1,0.1c0,0,0.1,0.1,0.2,0.1c0.1,0,0.3-0.1,0.3-0.2C80.8,66.7,80.7,66.7,80.6,66.6z
							 M75.6,67.4c0.1,0,0.2,0,0.2,0c0.1,0,0,0.1,0,0.2c-0.1,0-0.2,0-0.2,0C75.6,67.5,75.6,67.5,75.6,67.4z M72.3,66.5
							c-0.1,0-0.2,0-0.2,0c-0.1,0,0-0.1,0-0.2c0.1,0,0.2,0,0.2,0C72.4,66.4,72.4,66.5,72.3,66.5z M69.2,65c0.1,0,0.2,0,0.2,0
							c0.1,0,0,0.1,0,0.2c-0.1,0-0.2,0-0.2,0C69.1,65.1,69.1,65,69.2,65z M69,63.3c0.1,0,0.2,0,0.2,0c0.1,0,0,0.1,0,0.2
							c-0.1,0-0.2,0-0.2,0C69,63.4,69,63.4,69,63.3z M68.2,62.4c0.1,0,0.2,0,0.2,0c0.1,0,0,0.1,0,0.2c-0.1,0-0.2,0-0.2,0
							C68.2,62.5,68.2,62.4,68.2,62.4z M66.9,61.2c0.1,0,0.2,0,0.2,0c0.1,0,0,0.1,0,0.2c-0.1,0-0.2,0-0.2,0
							C66.9,61.3,66.9,61.2,66.9,61.2z M63.5,61.7c-0.1,0-0.2,0-0.2,0c-0.1,0,0-0.1,0-0.2c0.1,0,0.2,0,0.2,0
							C63.6,61.6,63.6,61.7,63.5,61.7z M64.1,62.9c-0.1,0-0.2,0-0.2,0c-0.1,0,0-0.1,0-0.2c0.1,0,0.2,0,0.2,0
							C64.2,62.8,64.1,62.9,64.1,62.9z M69.4,68.8c0.1,0,0.2,0,0.2,0c0.1,0,0,0.1,0,0.2c-0.1,0-0.2,0-0.2,0
							C69.3,68.9,69.3,68.8,69.4,68.8z M65.7,64.3c0.1,0,0.2,0,0.2,0c0.1,0,0,0.1,0,0.2c-0.1,0-0.2,0-0.2,0
							C65.6,64.4,65.6,64.4,65.7,64.3z M66.5,64.4c0.1,0,0.2,0,0.2,0c0.1,0,0,0.1,0,0.2c-0.1,0-0.2,0-0.2,0
							C66.5,64.5,66.5,64.4,66.5,64.4z M66.1,63.9l-0.6-0.5l0.1-1.1l0.6,0.5L66.1,63.9z M70.9,69.9c-0.1,0-0.2,0-0.2,0
							c-0.1,0,0-0.1,0-0.2c0.1,0,0.2,0,0.2,0C71,69.8,71,69.8,70.9,69.9z M71.3,70.2c-0.1,0-0.2,0-0.2,0c-0.1,0,0-0.1,0-0.2
							c0.1,0,0.2,0,0.2,0C71.4,70.1,71.4,70.2,71.3,70.2z M76,75.7c-0.1,0-0.2,0-0.2,0c-0.1,0,0-0.1,0-0.2c0.1,0,0.2,0,0.2,0
							C76.1,75.6,76.1,75.6,76,75.7z M74.1,70.6c0,0,0.1,0,0.1,0c0,0,0,0.1,0,0.1c0,0.1-0.1,0.1-0.2,0.1c-0.1,0-0.1-0.1-0.1-0.1
							C73.9,70.7,74,70.6,74.1,70.6z M76,69.5c0,0,0.1,0,0.1,0c0,0,0,0.1,0,0.1c0,0.1-0.1,0.1-0.2,0.1c-0.1,0-0.1-0.1-0.1-0.1
							C75.8,69.6,75.9,69.5,76,69.5z M74.3,68.2c0.1,0,0.2,0,0.2,0c0.1,0,0,0.1,0,0.2c-0.1,0-0.2,0-0.2,0
							C74.2,68.3,74.2,68.3,74.3,68.2z M74.6,69.5l-0.4,0c0-0.1-0.1-0.2-0.2-0.2c-0.1,0-0.3,0.1-0.3,0.2c0,0,0,0.1,0.1,0.1
							c0,0,0.1,0.1,0.2,0.1c0.1,0,0.1,0,0.2,0c0,0,0.1-0.1,0.1-0.1L74.6,69.5c0,0.1,0.4,0.1,0.4,0.1l-1.2,0.7l-1.1-1l1.5-0.9
							c0.1,0.1,0.2,0.1,0.3,0c0.1-0.1,0.1-0.2,0-0.3c0,0,0.5-0.3,0.5-0.3l0.9,0.8L74.6,69.5z M74.1,69.5
							C74.1,69.5,74.1,69.6,74.1,69.5c-0.1,0.1-0.1,0.1-0.2,0.1c-0.1,0-0.1-0.1-0.1-0.1c0-0.1,0.1-0.1,0.2-0.1
							C74,69.4,74,69.4,74.1,69.5C74.1,69.4,74.1,69.5,74.1,69.5z M76,68.7l-0.3-0.3l2.2-1.3l0.6,0.1L76,68.7z M79.8,67.2
							c0,0,0.1,0,0.1,0c0,0,0,0.1,0,0.1c0,0.1-0.1,0.1-0.2,0.1c-0.1,0-0.1-0.1-0.1-0.1C79.6,67.2,79.7,67.2,79.8,67.2z M80.5,66.9
							c-0.1,0-0.1-0.1-0.1-0.1c0-0.1,0.1-0.1,0.2-0.1c0,0,0.1,0,0.1,0c0,0,0,0.1,0,0.1C80.7,66.9,80.6,66.9,80.5,66.9z"/>
						<polygon class="st18_6" points="83.8,65.5 84.6,65 84.4,64.9 83.6,65.3 						"/>
						<polygon class="st18_6" points="84.1,66.4 83.4,65.8 83.3,65.9 83.9,66.5 						"/>
						<path class="st18_6" d="M89.7,69.4c0.1,0.1,0.2,0.1,0.3,0c0.1-0.1,0.1-0.1,0.1-0.2l0.7-0.4l-0.1-0.1L90,69.1
							c-0.1-0.1-0.2-0.1-0.3,0C89.6,69.1,89.6,69.2,89.7,69.4l-0.8,0.3l-2.2-2l0-0.3l-0.6-0.6c0,0-0.7-0.7-0.7-0.7l-0.2,0.1l0.7,0.6
							l0.1-0.1l0.6,0.5l-0.5,3.9l-0.6,0.3l-0.3-0.3l0.6-0.3l0.4-3.4l-0.6-0.5l0.1,0l-0.7-0.6l-0.2,0.1l0.7,0.6l0.1,0l0.6,0.5
							L85.7,71l-0.5,0.3l-0.3-0.3l0.5-0.3l0.4-2.8l-0.6-0.5l0.1-0.1l-0.7-0.6l-0.2,0.1l0.7,0.6c0,0,0.6,0.5,0.6,0.5l-0.4,2.8
							L84.8,71l-0.2-0.2l0.5-0.3l0.3-2.4l-0.6-0.5c0,0-0.7-0.7-0.7-0.7l-0.2,0.1l0.7,0.6l0.1-0.1l0.6,0.5l-0.3,2.3l-0.4,0.2
							l-0.3-0.3l0.4-0.2l0.2-1.8l-0.6-0.5l0.1,0l-0.7-0.6l-0.2,0.1l0.7,0.6l0.1,0l0.6,0.5l-0.2,1.8l-0.4,0.2l-0.3-0.3l0.4-0.2
							l0.2-1.2l-0.6-0.5l0.1-0.1l-0.7-0.6l-0.2,0.1l0.7,0.6c0,0,0.6,0.5,0.6,0.5l-0.1,1.2l-0.3,0.2l-0.7-0.6c0.1-0.1,0.1-0.2,0-0.2
							c-0.1-0.1-0.2-0.1-0.4,0c-0.1,0.1-0.1,0.1-0.1,0.2L81,70.4c-0.1,0-0.2-0.1-0.3,0c-0.1,0.1-0.1,0.2,0,0.3
							c0.1,0.1,0.2,0.1,0.4,0c0.1-0.1,0.1-0.2,0.1-0.2l1.6-0.9c0.1,0.1,0.2,0.1,0.3,0l0.9,0.8l-0.7,0.4L83,70.7L82.4,71l0.3,0.2
							l0.6-0.4l-0.1-0.1l0.7-0.4l0.5,0.4l-1.1,0.6l-0.1-0.1l-0.6,0.4l0.3,0.2l0.6-0.4l-0.1-0.1l1.1-0.6l0.5,0.4l-4.7,2.6L78,73.7
							c0,0,0-0.1-0.1-0.1c-0.1-0.1-0.2-0.1-0.4,0c-0.1,0.1-0.1,0.2,0,0.2c0.1,0.1,0.2,0.1,0.4,0c0,0,0.1,0,0.1-0.1l2.3,0.2l4.7-2.6
							l0.7,0.6c-0.1,0.1-0.1,0.2,0,0.2c0.1,0.1,0.2,0.1,0.4,0c0.1-0.1,0.1-0.2,0-0.3c-0.1-0.1-0.2-0.1-0.3-0.1l-0.2-0.2l0.6-0.4
							l0.5-3.6l1.5,1.3l-0.4,0.2l-0.1-0.1l-1,0.6l0.3,0.3l1-0.6l-0.1-0.1l0.4-0.2l0.7,0.6L88.4,70l-0.1-0.1l-1,0.6l0.3,0.3l1-0.6
							L88.5,70l0.4-0.2l0.6,0.6l-0.4,0.2L89,70.5L88,71l0.3,0.3l1-0.6l-0.1-0.1l0.4-0.2l1,0.9l0.1,0L89,69.7L89.7,69.4z M81,70.6
							c-0.1,0-0.2,0-0.2,0c-0.1,0,0-0.1,0-0.2c0.1,0,0.2,0,0.2,0C81,70.5,81,70.5,81,70.6z M83,69.5c-0.1,0-0.2,0-0.2,0
							c-0.1,0,0-0.1,0-0.2c0.1,0,0.2,0,0.2,0C83,69.4,83,69.4,83,69.5z M77.9,73.8c-0.1,0-0.2,0-0.2,0c-0.1,0,0-0.1,0-0.2
							c0.1,0,0.2,0,0.2,0C78,73.7,78,73.8,77.9,73.8z M85.8,72c0.1,0,0.2,0,0.2,0c0.1,0,0,0.1,0,0.2c-0.1,0-0.2,0-0.2,0
							C85.7,72.1,85.7,72,85.8,72z"/>
						<polygon class="st18_6" points="83.5,65.2 84.2,64.7 84.1,64.6 83.3,65 						"/>
						<polygon class="st18_6" points="71.3,64.5 71.1,64.4 70.4,64.8 70.5,64.9 						"/>
						<polygon class="st18_6" points="84.5,66.2 83.8,65.6 83.6,65.7 84.3,66.3 						"/>
						<polygon class="st18_6" points="75.5,63.2 74.7,63.7 74.9,63.8 75.6,63.4 						"/>
						<path class="st18_6" d="M72.2,67c-0.1-0.1-0.2-0.1-0.3,0c-0.1,0.1-0.1,0.2,0,0.3c0.1,0.1,0.2,0.1,0.3,0l1,0.9
							c-0.1,0.1-0.1,0.2,0,0.2c0.1,0.1,0.2,0.1,0.3,0c0.1-0.1,0.1-0.2,0-0.3c-0.1-0.1-0.2-0.1-0.3,0l-1-0.9
							C72.3,67.1,72.3,67,72.2,67z M72.1,67.1c-0.1,0-0.2,0-0.2,0c-0.1,0,0-0.1,0-0.2c0.1,0,0.2,0,0.2,0
							C72.2,67,72.2,67.1,72.1,67.1z M73.2,68.1c0.1,0,0.2,0,0.2,0c0.1,0,0,0.1,0,0.2c-0.1,0-0.2,0-0.2,0
							C73.1,68.2,73.2,68.1,73.2,68.1z"/>
						<polygon class="st18_6" points="82.9,66.2 83.5,66.7 83.7,66.6 83.1,66 						"/>
						<polygon class="st18_6" points="73.6,65.6 72.9,65 72.8,65.1 73.4,65.7 						"/>
						<polygon class="st18_6" points="72.6,61.9 72,61.4 71.8,61.5 72.5,62 						"/>
						<polygon class="st18_6" points="73.2,65.8 72.6,65.3 72.4,65.4 73,65.9 						"/>
						<polygon class="st18_6" points="74.1,63.1 74.2,63.2 75,62.8 74.8,62.6 						"/>
						<polygon class="st18_6" points="71.6,64.8 71.4,64.6 70.7,65.1 70.8,65.2 						"/>
						<polygon class="st18_6" points="71.9,65.1 71.7,64.9 71,65.4 71.2,65.5 						"/>
						<polygon class="st18_6" points="75.3,63.1 75.1,62.9 74.4,63.4 74.6,63.5 						"/>
						<polygon class="st18_6" points="72.2,65.4 72.1,65.2 71.3,65.7 71.5,65.8 						"/>
						<polygon class="st18_6" points="71.6,61.6 71.4,61.7 72.1,62.3 72.3,62.2 						"/>
						<polygon class="st18_6" points="73.8,62.8 73.9,62.9 74.7,62.5 74.5,62.4 						"/>
						<polygon class="st18_6" points="75.5,64.5 74.9,63.9 74.7,64 75.3,64.6 						"/>
						<polygon class="st18_6" points="74.7,64.9 74.1,64.4 73.9,64.5 74.5,65 						"/>
						<polygon class="st18_6" points="74.3,65.1 73.7,64.6 73.5,64.7 74.1,65.3 						"/>
						<polygon class="st18_6" points="75.1,64.7 74.5,64.1 74.3,64.2 74.9,64.8 						"/>
						<polygon class="st18_6" points="74,65.4 73.3,64.8 73.1,64.9 73.8,65.5 						"/>
						<polygon class="st18_6" points="72.8,61.9 73,62.1 73.7,61.6 73.5,61.5 						"/>
						<polygon class="st18_6" points="73.4,62.5 73.6,62.7 74.3,62.2 74.2,62.1 						"/>
						<polygon class="st18_6" points="73.1,62.2 73.3,62.4 74,61.9 73.9,61.8 						"/>
					</g>
					<g>
						<g>
							<polygon class="st19_6" points="72.3,65.5 70,63.4 72.7,61.8 75,63.9 							"/>
						</g>
						<g>
							<polygon class="st19_6" points="82.3,66.8 80.5,65.2 82.6,64 84.4,65.6 							"/>
						</g>
					</g>
				</g>
			</g>
		</g>
		<g id="Axonometric_Cube_41_">
			<polygon id="Cube_face_-_left_960_" class="st0_6" points="70.5,79.7 74.5,82 74.5,99.4 70.5,97.1 			"/>
			<polygon id="Cube_face_-_right_924_" class="st1_6" points="77.1,97.9 74.5,99.4 74.5,82 77.1,80.5 			"/>
			<polygon id="Cube_face_-_top_929_" class="st2_6" points="74.5,82 70.5,79.7 73.1,78.2 77.1,80.5 			"/>
		</g>
		<linearGradient id="SVGID_10_6_" gradientUnits="userSpaceOnUse" x1="29.8621" y1="28.3642" x2="30.9962" y2="30.3284">
			<stop  offset="0" style="stop-color:#D2D2D2"/>
			<stop  offset="0.4751" style="stop-color:#838383"/>
			<stop  offset="0.828" style="stop-color:#4F4F4F"/>
			<stop  offset="1" style="stop-color:#3B3B3B"/>
		</linearGradient>
		<path class="st24_6" d="M37.5,24.5c-0.2-0.1-0.4-0.2-0.6-0.2l-15,8.6c0.2,0,0.4,0.1,0.6,0.2c0.5,0.3,1,0.7,1.3,1.3l15-8.6
			C38.5,25.3,38,24.8,37.5,24.5z"/>
		<linearGradient id="SVGID_11_6_" gradientUnits="userSpaceOnUse" x1="30.3682" y1="28.9054" x2="30.6916" y2="29.4654">
			<stop  offset="0" style="stop-color:#D2D2D2"/>
			<stop  offset="0.4751" style="stop-color:#838383"/>
			<stop  offset="0.828" style="stop-color:#4F4F4F"/>
			<stop  offset="1" style="stop-color:#3B3B3B"/>
		</linearGradient>
		<path class="st25_6" d="M37.7,24.6l-15,8.6c0.2,0.1,0.4,0.3,0.5,0.4l15-8.6C38.1,24.9,37.9,24.8,37.7,24.6z"/>
		<polygon class="st10_6" points="79.6,58.8 78.9,58.2 63.8,66.9 64.5,67.5 		"/>
		<g>
			<g class="st17_6">
				<g>
					<polygon class="st2_6" points="53.6,61.3 37.2,51.9 36.7,52.2 53.1,61.7 					"/>
				</g>
				<g>
					<polygon class="st26_6" points="48.6,67.5 32.2,58.1 32.2,59.3 48.6,68.8 					"/>
				</g>
				<g>
					<polygon class="st27_6" points="53.1,61.7 36.7,52.2 32.2,58.1 48.6,67.5 					"/>
				</g>
				<g>
					<polygon class="st1_6" points="53.1,61.7 48.6,67.5 48.6,68.8 53.6,65.9 53.6,61.3 					"/>
				</g>
			</g>
			<g>
				<g>
					<g>
						<path class="st28_6" d="M37.5,53.5l6,3.4c0.2,0.1,0.3,0.4,0.1,0.6l-3,4c-0.1,0.2-0.6,0.3-0.8,0.2l-5.9-3.4
							c-0.2-0.1-0.3-0.4-0.1-0.6l2.9-3.9C36.9,53.5,37.3,53.4,37.5,53.5z"/>
					</g>
				</g>
			</g>
			<g>
				<path class="st28_6" d="M45,57.9l6.2,3.5c0.2,0.1,0.3,0.4,0.1,0.6l-3,4c-0.1,0.2-0.6,0.3-0.8,0.2l-6.2-3.6
					c-0.2-0.1-0.3-0.4-0.1-0.6l2.9-3.9C44.4,57.9,44.8,57.7,45,57.9z"/>
			</g>
			<path class="st0_6" d="M47.7,61.3l1-0.5l-0.1,1L47.7,61.3z M46.1,63.4l-0.1,1l1-0.5L46.1,63.4z M48.2,63.7l1.1,0l-0.5-0.9
				L48.2,63.7z M46.5,61.6l-1.1-0.1l0.5,0.9L46.5,61.6z M47.6,62.3c-0.2-0.1-0.5-0.1-0.6,0.1c-0.1,0.2-0.1,0.4,0.1,0.6
				c0.2,0.1,0.5,0.1,0.6-0.1C47.9,62.7,47.8,62.4,47.6,62.3z"/>
			<g>
				<g>
					<path class="st0_6" d="M43.3,61.5c-0.1,0.1-0.2,0.1-0.3,0.1c-0.1-0.1-0.1-0.2-0.1-0.3c0.1-0.1,0.2-0.1,0.3-0.1
						C43.3,61.3,43.3,61.4,43.3,61.5z"/>
					<path class="st0_6" d="M44.2,62c-0.1,0.1-0.2,0.1-0.3,0.1c-0.1-0.1-0.1-0.2-0.1-0.3c0.1-0.1,0.2-0.1,0.3-0.1
						C44.2,61.8,44.3,61.9,44.2,62z"/>
					<polygon class="st0_6" points="43.7,62.6 43.8,62.3 43.4,62.4 					"/>
					<polygon class="st0_6" points="42.8,62.1 42.8,61.7 42.5,61.9 					"/>
					<path class="st0_6" d="M44.1,60.4c-0.1,0.1-0.2,0.1-0.3,0.1c-0.1-0.1-0.1-0.2-0.1-0.3c0.1-0.1,0.2-0.1,0.3-0.1
						C44.2,60.2,44.2,60.3,44.1,60.4z"/>
					<path class="st0_6" d="M45,60.9C45,61,44.8,61.1,44.7,61c-0.1-0.1-0.1-0.2-0.1-0.3c0.1-0.1,0.2-0.1,0.3-0.1
						C45.1,60.7,45.1,60.8,45,60.9z"/>
					<polygon class="st0_6" points="44.8,61.2 44.4,61.2 44.5,61.5 					"/>
					<polygon class="st0_6" points="43.8,60.7 43.4,60.7 43.6,61 					"/>
				</g>
				<g>
					<path class="st0_6" d="M45,59.2c-0.1,0.1-0.2,0.1-0.3,0.1c-0.1-0.1-0.1-0.2-0.1-0.3c0.1-0.1,0.2-0.1,0.3-0.1
						C45,59,45.1,59.1,45,59.2z"/>
					<path class="st0_6" d="M45.9,59.8c-0.1,0.1-0.2,0.1-0.3,0.1c-0.1-0.1-0.1-0.2-0.1-0.3c0.1-0.1,0.2-0.1,0.3-0.1
						C46,59.5,46,59.7,45.9,59.8z"/>
					<polygon class="st0_6" points="45.5,60.3 45.5,60 45.1,60.1 					"/>
					<polygon class="st0_6" points="44.5,59.8 44.6,59.4 44.2,59.6 					"/>
				</g>
			</g>
			<g>
				<path class="st29_6" d="M39.8,60.5c-0.4,0.2-0.8,0-1-0.3c-0.2-0.3,0-0.7,0.4-0.9c0.4-0.2,0.8,0,1,0.3
					C40.3,59.9,40.1,60.3,39.8,60.5z"/>
				<path class="st30_6" d="M37.8,59.3c-0.4,0.2-0.8,0-1-0.3c-0.2-0.3,0-0.7,0.4-0.9c0.4-0.2,0.8,0,1,0.3
					C38.4,58.8,38.2,59.2,37.8,59.3z"/>
				<path class="st0_6" d="M35.9,56.6l0.8,0.5c0.1,0,0.2,0,0.3-0.1l0.1-0.2c0.1-0.1,0-0.2,0-0.2l-0.8-0.4c-0.1,0-0.2,0-0.3,0l-0.1,0.2
					C35.8,56.5,35.8,56.6,35.9,56.6z"/>
				<path class="st0_6" d="M35.5,57.2l0.8,0.5c0.1,0,0.2,0,0.3-0.1l0.1-0.2c0.1-0.1,0-0.2,0-0.2l-0.8-0.4c-0.1,0-0.2,0-0.3,0L35.4,57
					C35.4,57.1,35.4,57.2,35.5,57.2z"/>
				<path class="st0_6" d="M40.1,58.2l0.8,0.4c0.1,0,0.2,0,0.3-0.1l0.1-0.2c0.1-0.1,0-0.2,0-0.2l-0.8-0.4c-0.1,0-0.2,0-0.3,0.1
					L40.1,58C40,58,40,58.1,40.1,58.2z"/>
				<path class="st0_6" d="M38.9,57.5l0.8,0.4c0.1,0,0.2,0,0.3-0.1l0.1-0.2c0.1-0.1,0-0.2,0-0.2L39.2,57c-0.1,0-0.2,0-0.3,0.1
					l-0.1,0.2C38.8,57.3,38.8,57.4,38.9,57.5z"/>
				<path class="st0_6" d="M37.7,56.8l0.8,0.4c0.1,0,0.2,0,0.3-0.1l0.1-0.2c0.1-0.1,0-0.2,0-0.2L38,56.3c-0.1,0-0.2,0-0.3,0.1
					l-0.1,0.2C37.6,56.6,37.6,56.7,37.7,56.8z"/>
				<path class="st0_6" d="M36.4,56.1l0.8,0.4c0.1,0,0.2,0,0.3,0l0.1-0.2c0.1-0.1,0-0.2,0-0.2l-0.8-0.4c-0.1,0-0.2,0-0.3,0l-0.1,0.2
					C36.3,55.9,36.3,56,36.4,56.1z"/>
				<path class="st0_6" d="M40.6,57.6l0.8,0.4c0.1,0,0.2,0,0.3-0.1l0.1-0.2c0.1-0.1,0-0.2,0-0.2l-0.8-0.4c-0.1,0-0.2,0-0.3,0.1
					l-0.1,0.2C40.5,57.4,40.5,57.5,40.6,57.6z"/>
				<path class="st0_6" d="M39.3,56.9l0.8,0.4c0.1,0,0.2,0,0.3-0.1l0.1-0.2c0.1-0.1,0-0.2,0-0.2l-0.8-0.4c-0.1,0-0.2,0-0.3,0.1
					l-0.1,0.2C39.2,56.7,39.3,56.8,39.3,56.9z"/>
				<path class="st0_6" d="M38.1,56.2l0.8,0.4c0.1,0,0.2,0,0.3-0.1l0.1-0.2c0.1-0.1,0-0.2,0-0.2l-0.8-0.4c-0.1,0-0.2,0-0.3,0.1
					L38.1,56C38,56,38,56.1,38.1,56.2z"/>
				<path class="st0_6" d="M36.9,55.5l0.8,0.4c0.1,0,0.2,0,0.3-0.1l0.1-0.2c0.1-0.1,0-0.2,0-0.2L37.2,55c-0.1,0-0.2,0-0.3,0.1
					l-0.1,0.2C36.8,55.3,36.8,55.4,36.9,55.5z"/>
				<path class="st0_6" d="M41,57l0.8,0.4c0.1,0,0.2,0,0.3-0.1l0.1-0.2c0.1-0.1,0-0.2,0-0.2l-0.8-0.4c-0.1,0-0.2,0-0.3,0.1L41,56.8
					C40.9,56.8,40.9,56.9,41,57z"/>
				<path class="st0_6" d="M39.8,56.3l0.8,0.4c0.1,0,0.2,0,0.3-0.1l0.1-0.2c0.1-0.1,0-0.2,0-0.2l-0.8-0.4c-0.1,0-0.2,0-0.3,0.1
					l-0.1,0.2C39.7,56.1,39.7,56.2,39.8,56.3z"/>
				<path class="st0_6" d="M38.6,55.6l0.8,0.4c0.1,0,0.2,0,0.3-0.1l0.1-0.2c0.1-0.1,0-0.2,0-0.2l-0.8-0.4c-0.1,0-0.2,0-0.3,0.1
					l-0.1,0.2C38.5,55.4,38.5,55.5,38.6,55.6z"/>
				<path class="st0_6" d="M37.3,54.9l0.8,0.4c0.1,0,0.2,0,0.3-0.1l0.1-0.2c0.1-0.1,0-0.2,0-0.2l-0.8-0.4c-0.1,0-0.2,0-0.3,0.1
					l-0.1,0.2C37.2,54.7,37.2,54.8,37.3,54.9z"/>
			</g>
		</g>
	</g>
	<g>
		<g>
			<g>
				<g>
					<path class="st2_6" d="M64.6,21.1c-0.8,0-1.5-0.2-2.2-0.6c-1.6-0.9-2.4-2.8-2.5-5.3c0-5.2,3.6-11.5,8.1-14.1
						c2.2-1.3,4.3-1.5,5.9-0.6c1.6,0.9,2.4,2.8,2.5,5.3c0,5.2-3.6,11.5-8.1,14.1C67,20.8,65.8,21.1,64.6,21.1z M71.9,0.3
						c-1.1,0-2.3,0.4-3.6,1.1c-4.4,2.6-8,8.8-8,13.8c0,2.4,0.8,4.2,2.3,5.1c1.5,0.9,3.5,0.7,5.6-0.6c4.4-2.6,8-8.8,8-13.8
						c0-2.4-0.8-4.2-2.3-5.1C73.3,0.5,72.6,0.3,71.9,0.3z"/>
				</g>
			</g>
		</g>
		<path class="st2_6" d="M68.3,12.4c0.8-0.5,1.5-0.1,1.5,0.8c0,0.9-0.7,2.1-1.5,2.6c-0.8,0.5-1.5,0.1-1.5-0.8
			C66.8,14,67.5,12.8,68.3,12.4z M65.4,13.8l0.7,0.4c0.1-1.4,1.1-2.9,2.3-3.6c1.2-0.7,2.1-0.2,2.3,1l0.7-1.1
			c-0.4-1.2-1.6-1.6-2.9-0.8C66.9,10.4,65.8,12.1,65.4,13.8z M64.2,13.1l0.6,0.4c0.6-1.9,2-3.8,3.6-4.7c1.6-0.9,2.9-0.6,3.6,0.6
			l0.6-1c-0.8-1.3-2.4-1.5-4.2-0.5C66.5,8.8,64.9,10.9,64.2,13.1z M63,12.4l0.6,0.3c0.9-2.4,2.7-4.7,4.8-5.9c2-1.2,3.8-0.9,4.8,0.4
			l0.6-1c-1.1-1.4-3.1-1.6-5.3-0.3C66.1,7.2,64.1,9.7,63,12.4z"/>
		<g>
			<path class="st2_6" d="M67.1,38.6c-0.1,0-0.2-0.1-0.2-0.2V20.6c0-0.1,0.1-0.2,0.2-0.2c0.1,0,0.2,0.1,0.2,0.2v17.9
				C67.2,38.5,67.2,38.6,67.1,38.6z"/>
		</g>
		<path class="st2_6" d="M67.8,38.5c0,0.4-0.3,0.7-0.7,0.7c-0.4,0-0.7-0.3-0.7-0.7s0.3-0.7,0.7-0.7C67.5,37.8,67.8,38.1,67.8,38.5z"/>
	</g>
</g>
</svg>
