<svg version="1.1" xmlns="http://www.w3.org/2000/svg" xmlns:xlink="http://www.w3.org/1999/xlink" x="0px" y="0px"
	 viewBox="0 0 77.6 81" style="enable-background:new 0 0 77.6 81;" xml:space="preserve">
<style type="text/css">
	.st02_2{fill:#9B968C;}
	.st12_2{fill:#383534;}
	.st22_2{fill:#2D2B2A;}
	.st32_2{enable-background:new    ;}
	.st42_2{fill:url(#SVGID_1_1_);}
	.st52_2{fill:#FFCF40;}
	.st62_2{fill:url(#SVGID_2_1_);}
	.st72_2{fill:#74A2A3;}
	.st82_2{fill:#B9B4A7;}
	.st92_2{fill:#474443;}
	.st102_2{fill:#D8D3CC;}
	.st112_2{fill:#E8E4DF;}
	.st122_2{fill:#514E4D;}
	.st132_2{fill:#415CAA;}
	.st142_2{fill:#232120;}
</style>
<g id="_x37_">
	<g id="_x37__1_">
		<path class="st02_2" d="M17.9,65.7c-0.4-0.8-0.9-1.6-1.5-2.3c-0.5-0.6-1.1-1.1-1.7-1.4c-1.1-0.6-2-0.7-2.7-0.3l-2.8,1.6l5.4,9.3
			l2.8-1.6c0.7-0.4,1.1-1.2,1.1-2.4C18.6,67.6,18.3,66.6,17.9,65.7z"/>
		<path class="st12_2" d="M42.7,47.2L5.1,48.5l0,16.6c0,0.6,0.4,1.1,1.1,1.5l16.5,9.5l19.9-11.5L42.7,47.2z"/>
		<path class="st22_2" d="M5.1,48.5l0,16.6c0,0.6,0.4,1.1,1.1,1.5l16.5,9.5l0-24.7L5.1,48.5z"/>
		<g class="st32_2">
			<linearGradient id="SVGID_1_1_" gradientUnits="userSpaceOnUse" x1="24.9925" y1="53.7477" x2="28.7069" y2="53.7477">
				<stop  offset="3.571430e-02" style="stop-color:#DC9A11"/>
				<stop  offset="1" style="stop-color:#EFB224"/>
			</linearGradient>
			<path class="st42_2" d="M5.1,46.9l0,4.9c0,0.6,0.4,1.1,1.1,1.5l13.9,8c1.5,0.8,3.8,0.8,5.3,0l16.2-9.4c0.7-0.4,1.1-1,1.1-1.5l0-4.9
				L5.1,46.9z"/>
			<g>
				<path class="st52_2" d="M41.6,44c1.5,0.8,1.5,2.2,0,3.1l-16.2,9.4c-1.5,0.8-3.8,0.8-5.3,0l-13.9-8c-1.5-0.8-1.5-2.2,0-3.1L22.4,36
					c1.5-0.8,3.8-0.8,5.3,0L41.6,44z"/>
			</g>
		</g>
		<g>
			<g class="st32_2">
				<linearGradient id="SVGID_2_1_" gradientUnits="userSpaceOnUse" x1="19.147" y1="45.2145" x2="22.2306" y2="45.2145">
					<stop  offset="3.571430e-02" style="stop-color:#DC9A11"/>
					<stop  offset="1" style="stop-color:#EFB224"/>
				</linearGradient>
				<path class="st62_2" d="M10.5,41l0,2.8c0,0.3,0.2,0.5,0.5,0.8l8,4.6c0.7,0.4,1.9,0.4,2.6,0l7.9-4.6c0.4-0.2,0.5-0.5,0.5-0.7l0-2.8
					L10.5,41z"/>
				<g>
					<path class="st52_2" d="M29.5,40.2c0.7,0.4,0.7,1.1,0,1.5l-7.9,4.6c-0.7,0.4-1.9,0.4-2.6,0l-8-4.6c-0.7-0.4-0.7-1.1,0-1.5l7.9-4.6
						c0.7-0.4,1.9-0.4,2.6,0L29.5,40.2z"/>
				</g>
			</g>
			<path class="st72_2" d="M19.3,40.3c-0.6,0.3-0.6,0.8,0,1.2c0.6,0.3,1.5,0.3,2,0c0.6-0.3,0.6-0.8,0-1.2C20.7,40,19.8,40,19.3,40.3z
				 M21.1,41.4c-0.5,0.3-1.2,0.3-1.6,0c-0.5-0.3-0.5-0.7,0-1c0.5-0.3,1.2-0.3,1.6,0C21.5,40.7,21.5,41.1,21.1,41.4z"/>
		</g>
		<path class="st82_2" d="M12,63.6c-2.1-1.2-3.8-0.2-3.8,2.2c0,2.4,1.7,5.4,3.8,6.6c2.1,1.2,3.8,0.2,3.8-2.2
			C15.8,67.7,14.1,64.8,12,63.6z"/>
		<g id="Axonometric_Cube_24_">
			<polygon id="Cube_face_-_left_704_" class="st22_2" points="30.9,81 22.7,76.3 22.7,66.8 30.9,71.5 			"/>
			<polygon id="Cube_face_-_right_704_" class="st12_2" points="50.8,69.4 30.9,81 30.9,71.5 50.8,60 			"/>
			<polygon id="Cube_face_-_top_712_" class="st92_2" points="30.9,71.5 22.7,66.8 42.7,55.3 50.8,60 			"/>
		</g>
		<g id="Axonometric_Cube_23_">
			<polygon id="Cube_face_-_left_587_" class="st82_2" points="49,61.1 46.3,59.5 46.3,1 50.8,1.6 			"/>
			<polygon id="Cube_face_-_right_587_" class="st102_2" points="50.8,68 49,69.1 49,2.6 50.8,1.5 			"/>
			<polygon id="Cube_face_-_top_595_" class="st112_2" points="49,2.6 46.3,1 48.1,0 50.8,1.5 			"/>
		</g>
		<g id="Axonometric_Cube_21_">
			<polygon id="Cube_face_-_left_585_" class="st82_2" points="30.9,71.5 28.2,70 28.2,11.5 32.6,12 			"/>
			<polygon id="Cube_face_-_right_585_" class="st102_2" points="32.7,78.5 30.9,79.6 30.9,13.1 32.7,12 			"/>
			<polygon id="Cube_face_-_top_593_" class="st112_2" points="30.9,13.1 28.2,11.5 30,10.5 32.7,12 			"/>
		</g>
		<g>
			<g id="Axonometric_Cube_28_">
				<polygon id="Cube_face_-_left_750_" class="st22_2" points="31.8,35.9 30.9,35.4 30.9,27.3 51.2,16.6 				"/>
				<polygon id="Cube_face_-_right_750_" class="st12_2" points="51.8,24.4 31.8,35.9 31.8,27.9 51.8,16.3 				"/>
				<polygon id="Cube_face_-_top_758_" class="st92_2" points="31.8,27.9 30.9,27.3 50.9,15.8 51.8,16.3 				"/>
			</g>
			<g class="st32_2">
				<g>
					<polygon class="st92_2" points="49.2,24.2 50.9,23.3 74.7,37 73,38 					"/>
				</g>
				<g>
					<polygon class="st12_2" points="75.9,40.3 77.6,39.4 77.6,39.6 75.9,40.6 					"/>
				</g>
				<polygon class="st122_2" points="74.7,37 73,38 75.9,40.3 77.6,39.4 				"/>
				<g>
					<polygon class="st22_2" points="73,38 75.9,40.3 75.9,40.6 49.2,25.2 49.2,24.2 					"/>
				</g>
			</g>
			<g class="st32_2">
				<g>
					<polygon class="st92_2" points="33.2,33.5 34.9,32.5 58.7,46.2 57,47.2 					"/>
				</g>
				<g>
					<polygon class="st12_2" points="59.9,49.6 61.6,48.6 61.6,48.9 59.9,49.8 					"/>
				</g>
				<polygon class="st122_2" points="58.7,46.2 57,47.2 59.9,49.6 61.6,48.6 				"/>
				<g>
					<polygon class="st22_2" points="57,47.2 59.9,49.6 59.9,49.8 33.2,34.4 33.2,33.5 					"/>
				</g>
			</g>
		</g>
		<path class="st132_2" d="M12,64.3c-1.8-1-3.2-0.2-3.2,1.8c0,2,1.4,4.5,3.2,5.5c1.8,1,3.2,0.2,3.2-1.8C15.2,67.8,13.8,65.3,12,64.3z
			 M12,71.2c-1.6-0.9-2.8-3.1-2.8-4.9c0-1.8,1.3-2.5,2.9-1.6c1.6,0.9,2.8,3.1,2.8,4.9C14.9,71.4,13.6,72.1,12,71.2z"/>
		<g>
			<g>
				<path class="st142_2" d="M19.1,62.5l-4.1-2.4v-0.9l4.1,2.4V62.5z"/>
				<path class="st12_2" d="M18.9,62.1l-4.2-2.4l0.2-0.5l4.2,2.4L18.9,62.1z"/>
			</g>
			<g>
				<path class="st142_2" d="M19.1,63.9l-4.1-2.4v-0.9l4.1,2.4V63.9z"/>
				<path class="st12_2" d="M18.9,63.6l-4.2-2.4l0.2-0.5l4.2,2.4L18.9,63.6z"/>
			</g>
			<g>
				<path class="st142_2" d="M19.1,65.4l-4.1-2.4v-0.9l4.1,2.4V65.4z"/>
				<path class="st12_2" d="M18.9,65l-4.2-2.4l0.2-0.5l4.2,2.4L18.9,65z"/>
			</g>
			<g>
				<path class="st142_2" d="M19.1,66.9l-4.1-2.4v-0.9l4.1,2.4V66.9z"/>
				<path class="st12_2" d="M18.9,66.5l-4.2-2.4l0.2-0.5l4.2,2.4L18.9,66.5z"/>
			</g>
		</g>
		<g>
			<g>
				<path class="st142_2" d="M10.4,57.4L6.2,55v-0.9l4.1,2.4V57.4z"/>
				<path class="st12_2" d="M10.2,57L6,54.6l0.2-0.5l4.2,2.4L10.2,57z"/>
			</g>
			<g>
				<path class="st142_2" d="M10.4,58.9l-4.1-2.4v-0.9l4.1,2.4V58.9z"/>
				<path class="st12_2" d="M10.2,58.5L6,56.1l0.2-0.5l4.2,2.4L10.2,58.5z"/>
			</g>
			<g>
				<path class="st142_2" d="M10.4,60.4L6.2,58v-0.9l4.1,2.4V60.4z"/>
				<path class="st12_2" d="M10.2,60L6,57.6L6.2,57l4.2,2.4L10.2,60z"/>
			</g>
			<g>
				<path class="st142_2" d="M10.4,61.9l-4.1-2.4v-0.9l4.1,2.4V61.9z"/>
				<path class="st12_2" d="M10.2,61.5L6,59.1l0.2-0.5l4.2,2.4L10.2,61.5z"/>
			</g>
		</g>
	</g>
	<g>
		<g>
			<g>
				<g>
					<path class="st112_2" d="M4.6,21.8c-0.8,0-1.5-0.2-2.2-0.6C0.9,20.3,0,18.4,0,15.9C0,10.7,3.6,4.4,8.1,1.8
						c2.2-1.3,4.3-1.5,5.9-0.6c1.6,0.9,2.4,2.8,2.5,5.3c0,5.2-3.6,11.5-8.1,14.1C7,21.4,5.8,21.8,4.6,21.8z M11.9,0.9
						c-1.1,0-2.3,0.4-3.6,1.1c-4.4,2.6-8,8.8-8,13.8c0,2.4,0.8,4.2,2.3,5.1c1.5,0.9,3.5,0.7,5.6-0.6c4.4-2.6,8-8.8,8-13.8
						c0-2.4-0.8-4.2-2.3-5.1C13.3,1.1,12.6,0.9,11.9,0.9z"/>
				</g>
			</g>
		</g>
		<path class="st112_2" d="M8.3,13c0.8-0.5,1.5-0.1,1.5,0.8c0,0.9-0.7,2.1-1.5,2.6c-0.8,0.5-1.5,0.1-1.5-0.8C6.8,14.6,7.5,13.5,8.3,13z
			 M5.4,14.4l0.7,0.4c0.1-1.4,1.1-2.9,2.3-3.6c1.2-0.7,2.1-0.2,2.3,1l0.7-1.1c-0.4-1.2-1.6-1.6-2.9-0.8C6.9,11.1,5.8,12.8,5.4,14.4z
			 M4.1,13.7l0.6,0.4c0.6-1.9,2-3.8,3.6-4.7c1.6-0.9,2.9-0.6,3.6,0.6l0.6-1c-0.8-1.3-2.4-1.5-4.2-0.5C6.5,9.5,4.9,11.6,4.1,13.7z
			 M3,13.1l0.6,0.3C4.5,11,6.3,8.7,8.3,7.5c2-1.2,3.8-0.9,4.8,0.4l0.6-1c-1.1-1.4-3.1-1.6-5.3-0.3C6,7.9,4.1,10.4,3,13.1z"/>
		<g>
			<path class="st112_2" d="M7.1,39.2c-0.1,0-0.2-0.1-0.2-0.2V21.2C6.9,21.1,7,21,7.1,21c0.1,0,0.2,0.1,0.2,0.2v17.9
				C7.2,39.2,7.1,39.2,7.1,39.2z"/>
		</g>
		<circle class="st112_2" cx="7.1" cy="39.1" r="0.7"/>
	</g>
</g>
</svg>
