<svg xmlns="http://www.w3.org/2000/svg" xmlns:xlink="http://www.w3.org/1999/xlink" viewBox="0 0 19.4 19.4" xml:space="preserve"><g transform="translate(1120.5 4876.904)">	<g transform="translate(2 2)">		<path d="M-1113.4-4866.4L-1113.4-4866.4c-0.3,0.3-0.8,0.3-1.1,0l-2.4-2.4c-0.3-0.3-0.3-0.8,0-1l0,0c0.3-0.3,0.8-0.3,1.1,0l1.9,1.9   l0.5,0.5C-1113.2-4867.1-1113.2-4866.7-1113.4-4866.4z"></path>		<path d="M-1108.8-4871.1l-4.7,4.7l0,0c-0.3,0.3-0.8,0.3-1,0l-0.5-0.5l1.1-1.1l4.1-4.2c0.3-0.3,0.8-0.3,1,0l0,0   C-1108.5-4871.9-1108.5-4871.4-1108.8-4871.1z"></path>		<path d="M-1112.8-4878.9c-7.3,0-9.7,2.4-9.7,9.7c0,7.3,2.4,9.7,9.7,9.7c7.3,0,9.7-2.4,9.7-9.7   C-1103.1-4876.5-1105.6-4878.9-1112.8-4878.9z M-1112.8-4860.5c-6.6,0-8.8-2.2-8.8-8.8c0-6.6,2.2-8.8,8.8-8.8   c6.6,0,8.8,2.2,8.8,8.8S-1106.2-4860.5-1112.8-4860.5z"></path>	</g></g></svg>