<svg xmlns="http://www.w3.org/2000/svg" width="94" height="75" viewBox="0 0 94 75" fill="none"><g clip-path="url(#clip0_5678_33674)"><path d="M84.6467 59.1033C84.2777 59.1061 83.9158 59.0014 83.6053 58.802C83.2947 58.6027 83.0488 58.3173 82.8976 57.9806C82.7464 57.644 82.6964 57.2707 82.7536 56.9061C82.8109 56.5415 82.973 56.2015 83.2201 55.9274C85.3389 53.5843 87.0162 50.877 88.1708 47.9366C88.2449 47.6814 88.3714 47.4444 88.5423 47.2409C88.7131 47.0373 88.9246 46.8717 89.163 46.7545C89.4015 46.6373 89.6619 46.5711 89.9274 46.5602C90.1929 46.5493 90.4578 46.5939 90.7051 46.6912C90.9523 46.7884 91.1766 46.9362 91.3636 47.1251C91.5506 47.3139 91.6961 47.5397 91.7908 47.7879C91.8856 48.0362 91.9275 48.3015 91.9139 48.5669C91.9003 48.8323 91.8316 49.0919 91.7119 49.3292C90.3885 52.6951 88.4666 55.7937 86.0394 58.4749C85.863 58.6699 85.6482 58.8263 85.4086 58.9344C85.169 59.0425 84.9096 59.1 84.6467 59.1033Z" fill="#17262F"></path><path d="M91.6356 44.1575H91.3723C91.1239 44.1241 90.8846 44.042 90.668 43.9158C90.4515 43.7896 90.262 43.6218 90.1105 43.4222C89.959 43.2226 89.8484 42.9949 89.7852 42.7524C89.7219 42.5099 89.7072 42.2573 89.7419 42.0091C89.9047 40.8129 89.987 39.6072 89.9881 38.4C89.9707 38.139 90.0071 37.8771 90.095 37.6307C90.1829 37.3843 90.3205 37.1585 90.4992 36.9675C90.678 36.7764 90.894 36.6241 91.1341 36.5199C91.3741 36.4158 91.6329 36.3621 91.8946 36.3621C92.1562 36.3621 92.415 36.4158 92.6551 36.5199C92.8951 36.6241 93.1111 36.7764 93.2899 36.9675C93.4686 37.1585 93.6062 37.3843 93.6941 37.6307C93.782 37.8771 93.8184 38.139 93.801 38.4C93.8026 39.7808 93.7061 41.16 93.5123 42.5271C93.4487 42.9795 93.2238 43.3937 92.8789 43.6934C92.534 43.993 92.0924 44.1578 91.6356 44.1575Z" fill="#17262F"></path><path d="M91.3214 34.0353C90.8816 34.0345 90.4557 33.8819 90.1153 33.6034C89.775 33.325 89.5411 32.9377 89.4532 32.5068L89.3682 32.0313C89.3376 31.8762 89.2979 31.7231 89.2494 31.5727C89.1449 31.0954 89.2273 30.5963 89.4796 30.1779C89.7318 29.7594 90.1348 29.4535 90.6056 29.3231C91.0764 29.1926 91.5793 29.2474 92.011 29.4763C92.4426 29.7052 92.7702 30.0907 92.9263 30.5537C93.0084 30.832 93.0708 31.1158 93.1131 31.4029L93.1896 31.785C93.2728 32.2692 93.1654 32.7668 92.89 33.1736C92.6146 33.5804 92.1924 33.8648 91.712 33.9674C91.5844 34.0032 91.4535 34.026 91.3214 34.0353Z" fill="#17262F"></path><path d="M90.8628 24.8726C88.4074 19.7696 84.5657 15.4603 79.7769 12.4375C74.9881 9.41461 69.4454 7.80012 63.7823 7.77853H39.2324L43.8689 3.26936C44.1944 2.90927 44.3705 2.43883 44.3617 1.95356C44.3529 1.46829 44.1597 1.00456 43.8214 0.656542C43.4831 0.308519 43.0251 0.102283 42.5402 0.0797066C42.0554 0.0571305 41.5802 0.219907 41.211 0.534986L28.0231 13.3662C27.953 13.4571 27.8906 13.5537 27.8363 13.6549C27.7594 13.7565 27.6912 13.8645 27.6325 13.9776C27.5949 14.0935 27.5693 14.2131 27.5561 14.3342C27.5212 14.4505 27.4984 14.57 27.4882 14.6909C27.4984 14.8146 27.5212 14.9369 27.5561 15.056C27.5684 15.1746 27.5941 15.2914 27.6325 15.4042C27.6872 15.5196 27.7557 15.6279 27.8363 15.7269C27.8885 15.832 27.9511 15.9315 28.0231 16.0241L41.2025 28.8468C41.3815 29.0213 41.5931 29.1589 41.8252 29.2516C42.0574 29.3444 42.3055 29.3905 42.5555 29.3873C42.8055 29.3842 43.0524 29.3318 43.2821 29.2333C43.5118 29.1347 43.7199 28.9918 43.8944 28.8128C44.0689 28.6339 44.2065 28.4222 44.2992 28.1901C44.392 27.958 44.4381 27.7098 44.4349 27.4598C44.4318 27.2099 44.3794 26.963 44.2809 26.7332C44.1823 26.5035 44.0394 26.2954 43.8604 26.1209L39.1899 21.5778H59.5704C70.0578 21.5778 78.5921 28.8638 78.5921 37.8312V38.1963C78.5554 40.4799 78.0014 42.7254 76.9718 44.7639C75.9422 46.8025 74.4638 48.5811 72.6478 49.966C72.2559 50.2847 72.0067 50.746 71.9549 51.2485C71.9032 51.7509 72.0531 52.2533 72.3718 52.6452C72.6905 53.0371 73.1518 53.2863 73.6543 53.3381C74.1567 53.3898 74.6591 53.2399 75.051 52.9212C77.2829 51.175 79.0979 48.9536 80.3641 46.4183C81.6303 43.8831 82.3158 41.0976 82.371 38.2643V37.8991C82.371 26.8342 72.1808 17.8329 59.5534 17.8329H35.2837L32.0907 14.7249L35.3176 11.5829H63.7823C68.7345 11.5916 73.5839 12.9971 77.7733 15.6378C81.9627 18.2785 85.3223 22.0474 87.4661 26.5115C87.6197 26.8331 87.8601 27.1052 88.1602 27.2973C88.4603 27.4894 88.8082 27.5937 89.1645 27.5985C89.4582 27.6036 89.7491 27.5396 90.0136 27.4117C90.4612 27.1858 90.8015 26.7923 90.9606 26.3168C91.1196 25.8414 91.0845 25.3223 90.8628 24.8726Z" fill="#17262F"></path><path d="M3.83833 28.2777C3.59961 28.278 3.36312 28.2318 3.142 28.1419C2.67201 27.9563 2.29467 27.5921 2.09255 27.129C1.89043 26.6659 1.88 26.1415 2.06353 25.6707C3.387 22.3048 5.30884 19.2063 7.73609 16.525C7.90336 16.3393 8.10557 16.1884 8.33117 16.0809C8.55676 15.9734 8.80133 15.9113 9.0509 15.8983C9.30048 15.8853 9.55017 15.9216 9.78572 16.0051C10.0213 16.0886 10.2381 16.2176 10.4238 16.3849C10.6094 16.5522 10.7603 16.7544 10.8679 16.98C10.9754 17.2056 11.0374 17.4502 11.0504 17.6997C11.0635 17.9493 11.0272 18.199 10.9437 18.4345C10.8602 18.6701 10.7311 18.8869 10.5639 19.0726C8.44503 21.4157 6.76775 24.1229 5.61313 27.0634C5.47434 27.4212 5.23055 27.7287 4.9138 27.9454C4.59704 28.1622 4.22213 28.278 3.83833 28.2777Z" fill="#17262F"></path><path d="M1.90219 38.5444C1.65168 38.5444 1.40363 38.4949 1.1723 38.3988C0.940958 38.3027 0.730886 38.1618 0.554142 37.9842C0.377397 37.8067 0.237461 37.596 0.142369 37.3643C0.0472764 37.1325 -0.00109941 36.8842 1.89568e-05 36.6337C-0.000222234 35.2533 0.0934041 33.8744 0.28025 32.5067C0.299831 32.2467 0.372419 31.9934 0.493544 31.7626C0.614669 31.5317 0.781768 31.328 0.984556 31.1641C1.18734 31.0002 1.42153 30.8796 1.67269 30.8096C1.92386 30.7396 2.18669 30.7218 2.445 30.7572C2.70332 30.7926 2.95166 30.8805 3.17473 31.0155C3.39779 31.1505 3.59087 31.3297 3.74208 31.5421C3.89328 31.7545 3.99942 31.9956 4.05394 32.2506C4.10847 32.5056 4.11023 32.769 4.05912 33.0247C3.89204 34.2204 3.80975 35.4264 3.81286 36.6337C3.81286 37.1405 3.61156 37.6264 3.25324 37.9848C2.89492 38.3431 2.40893 38.5444 1.90219 38.5444Z" fill="#17262F"></path><path d="M2.7089 45.8561C2.28638 45.8611 1.87423 45.7252 1.53749 45.47C1.20074 45.2147 0.958571 44.8546 0.849189 44.4464C0.71332 43.9369 0.696336 43.852 0.653877 43.5973L0.585942 43.2236C0.484594 42.7259 0.58512 42.2083 0.865405 41.7847C1.14569 41.3611 1.58278 41.0661 2.08051 40.9648C2.57824 40.8634 3.09584 40.964 3.51946 41.2442C3.94307 41.5245 4.23799 41.9616 4.33934 42.4594L4.43275 42.9349C4.43275 43.0623 4.43275 43.1132 4.54314 43.4019C4.61531 43.6445 4.63815 43.899 4.6103 44.1505C4.58244 44.402 4.50447 44.6454 4.38098 44.8662C4.25748 45.0871 4.09098 45.281 3.89131 45.4364C3.69163 45.5918 3.46283 45.7057 3.21841 45.7712C3.05372 45.8245 2.88201 45.8532 2.7089 45.8561Z" fill="#17262F"></path><path d="M66.2789 60.6318C66.307 60.5145 66.3268 60.3953 66.3384 60.2752C66.3274 60.1522 66.3076 60.0301 66.2789 59.91C66.2616 59.7895 66.236 59.6704 66.2025 59.5534C66.1426 59.4436 66.0744 59.3386 65.9987 59.2392C65.9436 59.1339 65.8781 59.0343 65.8034 58.9419L52.5816 46.0853C52.4051 45.8995 52.193 45.7514 51.9579 45.6496C51.7228 45.5479 51.4695 45.4947 51.2133 45.4932C50.9572 45.4918 50.7033 45.5421 50.4671 45.6411C50.2308 45.7401 50.017 45.8859 49.8384 46.0696C49.6599 46.2533 49.5203 46.4712 49.428 46.7102C49.3357 46.9491 49.2926 47.2043 49.3014 47.4603C49.3101 47.7164 49.3705 47.968 49.4789 48.2001C49.5873 48.4322 49.7414 48.6401 49.9321 48.8112L54.6026 53.3543H34.2222C23.7348 53.3543 15.2004 46.0683 15.2004 37.1009V36.7358C15.2372 34.4522 15.7911 32.2067 16.8207 30.1682C17.8503 28.1296 19.3287 26.351 21.1447 24.9661C21.5366 24.6474 21.7859 24.1861 21.8376 23.6836C21.8894 23.1812 21.7394 22.6788 21.4207 22.2869C21.102 21.895 20.6407 21.6458 20.1383 21.594C19.6359 21.5423 19.1334 21.6922 18.7415 22.0109C16.5008 23.7643 14.6805 25.9966 13.414 28.5443C12.1474 31.0921 11.4667 33.8909 11.4216 36.7358V37.1009C11.4216 48.1403 21.6627 57.1671 34.2477 57.1671H58.5174L61.7103 60.2921L58.4834 63.4341H30.0187C25.0676 63.4207 20.2206 62.0112 16.0343 59.3675C11.848 56.7239 8.49211 52.9532 6.35194 48.4885C6.26726 48.2312 6.1286 47.9949 5.94524 47.7956C5.76188 47.5962 5.53805 47.4383 5.28873 47.3324C5.03941 47.2265 4.77035 47.1751 4.49956 47.1815C4.22876 47.188 3.96247 47.2523 3.71851 47.37C3.47455 47.4877 3.25854 47.6562 3.08494 47.8641C2.91134 48.072 2.78415 48.3146 2.71189 48.5757C2.63962 48.8367 2.62395 49.1102 2.66591 49.3778C2.70787 49.6454 2.8065 49.901 2.9552 50.1274C5.40939 55.2279 9.24844 59.5354 14.034 62.5581C18.8195 65.5807 24.3586 67.1967 30.0187 67.2215H54.5602L49.9321 71.7307C49.6596 71.9942 49.4721 72.3332 49.3937 72.7041C49.3152 73.075 49.3493 73.4608 49.4917 73.8122C49.634 74.1635 49.8781 74.4643 50.1926 74.676C50.5072 74.8876 50.8777 75.0005 51.2568 75C51.5025 75.001 51.746 74.9535 51.9733 74.8602C52.2006 74.767 52.4073 74.6298 52.5816 74.4565L65.7694 61.6339C65.8442 61.5415 65.9096 61.4419 65.9647 61.3366C66.0405 61.2372 66.1086 61.1322 66.1685 61.0224C66.2152 60.8952 66.2521 60.7646 66.2789 60.6318Z" fill="#17262F"></path></g><defs><clipPath id="clip0_5678_33674"><rect width="93.801" height="75" fill="white"></rect></clipPath></defs></svg>