<svg xmlns="http://www.w3.org/2000/svg" width="110" height="79" viewBox="0 0 110 79" fill="none"><g clip-path="url(#clip0_5678_33037)"><path d="M109.955 63.5272C109.603 60.9711 108.942 58.4672 107.987 56.0701C106.204 51.7599 90.5518 47.2707 85.1081 45.824C83.5198 44.3028 76.607 37.472 71.7375 34.8173C66.2043 31.7897 55.4735 31.8717 55.041 31.8792C46.6816 31.8792 40.082 31.8792 34.7427 34.5489L34.6682 34.5861C30.0863 37.1007 25.9351 40.3305 22.3714 44.1536C19.7917 44.2393 17.2609 44.8802 14.9515 46.0328L14.2506 46.346C13.0976 46.843 12.1149 47.666 11.4233 48.714C10.7318 49.7619 10.3615 50.9891 10.3579 52.2446L10.0373 56.1372C8.11549 55.8166 6.36924 54.826 5.10802 53.3409C3.8468 51.8558 3.15206 49.9722 3.14691 48.0239V31.6629C3.15283 27.2742 4.89889 23.0668 8.00224 19.9635C11.1056 16.8601 15.3129 15.114 19.7017 15.1081H29.7465C30.0244 17.0883 31.0067 18.902 32.5132 20.2168C34.0198 21.5316 35.9497 22.2595 37.9493 22.267H38.0313C38.1028 22.2669 38.1735 22.2813 38.2392 22.3093C38.305 22.3373 38.3644 22.3783 38.4138 22.4299C38.4633 22.4814 38.5018 22.5425 38.5271 22.6093C38.5523 22.6761 38.5638 22.7474 38.5608 22.8188C38.5608 23.9441 39.0078 25.0234 39.8036 25.8191C40.5993 26.6149 41.6785 27.0619 42.8039 27.0619H46.3162C46.5231 27.0629 46.7281 27.0229 46.9195 26.9441C47.1108 26.8654 47.2847 26.7496 47.431 26.6032C47.5773 26.4569 47.6931 26.2831 47.7719 26.0917C47.8506 25.9004 47.8906 25.6954 47.8896 25.4884V20.2088H55.9284C56.3457 20.2088 56.7459 20.043 57.041 19.7479C57.3361 19.4529 57.5019 19.0527 57.5019 18.6353C57.5019 18.218 57.3361 17.8178 57.041 17.5228C56.7459 17.2277 56.3457 17.0619 55.9284 17.0619H47.912V10.0149H55.9284C56.328 9.98743 56.7022 9.80931 56.9755 9.51656C57.2488 9.22381 57.4008 8.83823 57.4008 8.43773C57.4008 8.03724 57.2488 7.65166 56.9755 7.35891C56.7022 7.06616 56.328 6.88804 55.9284 6.86055H47.912V1.57345C47.912 1.15615 47.7462 0.755933 47.4512 0.460854C47.1561 0.165774 46.7559 0 46.3386 0L42.8262 0C41.7009 0 40.6217 0.44704 39.8259 1.24278C39.0302 2.03851 38.5831 3.11776 38.5831 4.2431V4.70544C38.5812 4.77563 38.5654 4.84474 38.5365 4.90874C38.5076 4.97274 38.4663 5.03036 38.415 5.07825C38.3636 5.12613 38.3032 5.16332 38.2374 5.18765C38.1715 5.21199 38.1015 5.22298 38.0313 5.21999H37.9418C36.0227 5.23045 34.1662 5.90449 32.6874 7.12777C31.2086 8.35104 30.1985 10.0482 29.8285 11.9314H19.7017C14.4731 11.9373 9.46087 14.019 5.76651 17.719C2.07214 21.4189 -0.00197872 26.4344 1.41651e-06 31.6629V48.0239C0.00319233 50.7619 0.993466 53.4069 2.78917 55.4738C4.58487 57.5407 7.0656 58.8909 9.77629 59.2767L9.40343 63.7509C9.35318 64.4166 9.44077 65.0855 9.66072 65.7158C9.88068 66.3461 10.2283 66.9243 10.6818 67.4142C11.1353 67.9041 11.6849 68.2952 12.2964 68.563C12.9079 68.8309 13.5681 68.9697 14.2356 68.9709H18.255C18.6334 71.6165 19.9533 74.0369 21.9724 75.7877C23.9915 77.5386 26.5743 78.5025 29.2468 78.5025C31.9193 78.5025 34.5022 77.5386 36.5213 75.7877C38.5404 74.0369 39.8602 71.6165 40.2386 68.9709H73.915C74.2934 71.6165 75.6133 74.0369 77.6323 75.7877C79.6514 77.5386 82.2343 78.5025 84.9068 78.5025C87.5793 78.5025 90.1621 77.5386 92.1812 75.7877C94.2003 74.0369 95.5202 71.6165 95.8986 68.9709H105.145C105.837 68.9717 106.52 68.8246 107.15 68.5396C107.779 68.2546 108.341 67.8383 108.796 67.3185C109.252 66.7987 109.591 66.1875 109.791 65.5259C109.991 64.8643 110.047 64.1676 109.955 63.4825V63.5272ZM37.9642 8.38181H38.0313C38.5182 8.38772 39.0014 8.29705 39.4531 8.11504C39.9047 7.93303 40.3158 7.66328 40.6625 7.32141C41.0092 6.97954 41.2847 6.57232 41.4731 6.1233C41.6615 5.67428 41.7589 5.19237 41.7599 4.70544V4.2431C41.7599 3.95237 41.8754 3.67355 42.081 3.46797C42.2865 3.2624 42.5653 3.14691 42.8561 3.14691H44.7427V23.915H42.8039C42.5177 23.8996 42.2488 23.7734 42.054 23.5633C41.8591 23.3532 41.7537 23.0755 41.7599 22.789C41.7589 22.302 41.6615 21.8201 41.4731 21.3711C41.2847 20.9221 41.0092 20.5149 40.6625 20.173C40.3158 19.8311 39.9047 19.5614 39.4531 19.3794C39.0014 19.1974 38.5182 19.1067 38.0313 19.1126H37.9418C36.5803 19.1028 35.2777 18.556 34.317 17.5912C33.3563 16.6263 32.8152 15.3213 32.8113 13.9597V13.5347C32.8153 12.1693 33.3594 10.8609 34.3249 9.89539C35.2904 8.92989 36.5988 8.38574 37.9642 8.38181ZM29.2468 75.4064C27.6729 75.4064 26.1343 74.9401 24.8253 74.0663C23.5162 73.1925 22.4954 71.9504 21.8918 70.4968C21.2881 69.0433 21.1287 67.4435 21.4335 65.8994C21.7384 64.3553 22.494 62.9362 23.6048 61.8212C24.7157 60.7062 26.132 59.9454 27.6749 59.6347C29.2178 59.324 30.8182 59.4775 32.274 60.0757C33.7298 60.6739 34.9757 61.6901 35.8544 62.9959C36.733 64.3017 37.2051 65.8385 37.211 67.4124C37.213 68.4602 37.0086 69.4982 36.6094 70.467C36.2102 71.4358 35.6241 72.3165 34.8846 73.0589C34.145 73.8012 33.2665 74.3905 32.2992 74.7933C31.3319 75.1961 30.2947 75.4045 29.2468 75.4064ZM84.9068 75.4064C83.3335 75.4064 81.7955 74.9404 80.4868 74.0673C79.1781 73.1941 78.1573 71.9529 77.5532 70.5002C76.9491 69.0476 76.7888 67.4485 77.0925 65.9049C77.3962 64.3612 78.1503 62.942 79.2596 61.8265C80.369 60.7109 81.7839 59.9489 83.3258 59.6365C84.8677 59.3242 86.4677 59.4755 87.9237 60.0715C89.3797 60.6674 90.6266 61.6812 91.5071 62.9851C92.3876 64.2889 92.8622 65.8242 92.871 67.3975C92.871 67.3975 92.871 67.3975 92.871 67.4422C92.871 67.487 92.871 67.4422 92.871 67.487C92.8592 69.5914 92.0149 71.6057 90.5226 73.0896C89.0303 74.5735 87.0113 75.4065 84.9068 75.4064ZM106.443 65.2797C106.281 65.4647 106.082 65.6131 105.858 65.7147C105.634 65.8163 105.391 65.8688 105.145 65.8688H95.8986C95.5202 63.2232 94.2003 60.8028 92.1812 59.052C90.1621 57.3011 87.5793 56.3372 84.9068 56.3372C82.2343 56.3372 79.6514 57.3011 77.6323 59.052C75.6133 60.8028 74.2934 63.2232 73.915 65.8688H40.2685C39.8901 63.2232 38.5702 60.8028 36.5511 59.052C34.532 57.3011 31.9492 56.3372 29.2767 56.3372C26.6042 56.3372 24.0213 57.3011 22.0022 59.052C19.9831 60.8028 18.6632 63.2232 18.2849 65.8688H14.2356C14.0019 65.8684 13.7708 65.8198 13.5567 65.7261C13.3425 65.6324 13.15 65.4955 12.9912 65.3241C12.8323 65.1526 12.7105 64.9503 12.6334 64.7297C12.5563 64.509 12.5255 64.2748 12.5429 64.0418L13.5048 52.4459V52.3117C13.4986 51.6588 13.6829 51.0183 14.0352 50.4686C14.3876 49.9189 14.8926 49.484 15.4884 49.217L16.2342 48.8964C18.3641 47.8107 20.7266 47.2604 23.1171 47.2931C23.3441 47.2936 23.5686 47.2444 23.7747 47.1491C23.9808 47.0538 24.1635 46.9146 24.3102 46.7412C27.7274 42.9571 31.7618 39.7801 36.2416 37.3453C40.8576 35.0485 46.8084 35.0485 55.0559 35.0485C55.1603 35.0485 65.4139 34.9739 70.2312 37.6063C75.2125 40.3207 83.0872 48.3222 83.1693 48.4042C83.3736 48.6108 83.6321 48.7555 83.915 48.8218C93.4825 51.3274 104.28 55.3468 105.101 57.3304C105.95 59.4716 106.539 61.7075 106.853 63.9896C106.881 64.2214 106.859 64.4567 106.789 64.6793C106.718 64.902 106.6 65.1067 106.443 65.2797Z" fill="#17262F"></path><path d="M77.487 46.9053C68.7174 46.9053 61.6331 46.8382 55.8986 46.7263V38.1059C55.8711 37.7063 55.693 37.3321 55.4002 37.0588C55.1075 36.7855 54.7219 36.6335 54.3214 36.6335C53.9209 36.6335 53.5353 36.7855 53.2426 37.0588C52.9498 37.3321 52.7717 37.7063 52.7442 38.1059V46.6592C35.7942 46.2341 32.4609 45.4884 31.9239 45.3169C31.6054 45.1376 31.2344 45.0749 30.8746 45.1394C30.5148 45.2039 30.1887 45.3916 29.9523 45.6704C29.7158 45.9492 29.5838 46.3016 29.5789 46.6671C29.574 47.0326 29.6966 47.3884 29.9254 47.6734C30.3952 48.2625 31.827 50.0522 77.487 50.0522C77.9043 50.0522 78.3045 49.8864 78.5996 49.5913C78.8946 49.2963 79.0604 48.896 79.0604 48.4787C79.0604 48.0614 78.8946 47.6612 78.5996 47.3661C78.3045 47.0711 77.9043 46.9053 77.487 46.9053Z" fill="#17262F"></path></g><defs><clipPath id="clip0_5678_33037"><rect width="110" height="78.5608" fill="white"></rect></clipPath></defs></svg>