<svg xmlns="http://www.w3.org/2000/svg" width="100" height="83" viewBox="0 0 100 83" fill="none"><g clip-path="url(#clip0_5678_6482)"><path d="M8.2881 82.2236C8.18153 82.2353 8.07399 82.2353 7.96742 82.2236C7.68567 82.1674 7.42354 82.0384 7.20715 81.8494C6.99076 81.6605 6.82765 81.4181 6.73408 81.1465L0.0904324 61.6184C-0.00256242 61.3459 -0.0223634 61.0537 0.0330101 60.7711C0.0883837 60.4885 0.21699 60.2255 0.405965 60.0082C0.594939 59.7909 0.837656 59.627 1.10983 59.533C1.38201 59.439 1.67411 59.4181 1.9569 59.4724L7.71253 60.5742L30.8748 52.6232C31.286 52.4847 31.7352 52.5142 32.1246 52.7054C32.5128 52.8997 32.8083 53.2396 32.9469 53.651L37.576 67.2096C37.6459 67.4142 37.6747 67.6306 37.6608 67.8463C37.647 68.0621 37.5907 68.273 37.4952 68.467C37.3998 68.661 37.267 68.8342 37.1045 68.9768C36.942 69.1194 36.753 69.2286 36.5482 69.2981L13.3942 77.2902L9.52967 81.6727C9.3739 81.8477 9.18254 81.9873 8.96842 82.0823C8.75429 82.1773 8.52234 82.2255 8.2881 82.2236ZM4.11115 63.23L8.92122 77.3313L11.207 74.7495C11.3954 74.5353 11.6363 74.3738 11.9059 74.2808L33.9418 66.7492L30.4226 56.2986L8.38676 63.822C8.12273 63.9134 7.83975 63.9361 7.56453 63.8878L4.11115 63.23Z" fill="#17262F"></path><path d="M36.0385 69.4212C35.6961 69.4209 35.3624 69.3139 35.0838 69.1149C34.8052 68.9159 34.5957 68.6349 34.4844 68.3112L29.847 54.7443C29.7658 54.5056 29.7405 54.2514 29.7732 54.0013C29.8059 53.7513 29.8956 53.5121 30.0355 53.3023C30.1754 53.0924 30.3617 52.9176 30.5799 52.7912C30.7982 52.6649 31.0426 52.5904 31.2942 52.5736L37.872 52.1379L68.9278 41.531C69.1324 41.4612 69.3488 41.4324 69.5645 41.4463C69.7803 41.4601 69.9912 41.5164 70.1852 41.6119C70.3791 41.7073 70.5524 41.8401 70.695 42.0026C70.8376 42.1651 70.9468 42.3541 71.0163 42.5588L74.5025 52.7792C74.5735 52.9835 74.6035 53.1997 74.5908 53.4156C74.5781 53.6314 74.523 53.8427 74.4285 54.0372C74.2342 54.4253 73.8943 54.7209 73.483 54.8594L42.3943 65.4745L37.0005 69.1416C36.7151 69.3292 36.3799 69.4266 36.0385 69.4212ZM33.654 55.7146L36.9429 65.2114L40.7827 62.6213C40.9002 62.5373 41.0308 62.4733 41.1692 62.4322L70.8272 52.2859L68.3605 45.1735L38.6943 55.3199C38.5588 55.3674 38.4179 55.3977 38.2749 55.4103L33.654 55.7146Z" fill="#17262F"></path><path d="M83.0455 70.7122C82.7711 70.7127 82.501 70.6444 82.2597 70.5137C82.0184 70.383 81.8137 70.1941 81.6642 69.964C81.1552 69.0951 80.7469 68.1709 80.4472 67.2095C79.0166 63.0244 81.1873 59.1023 81.2695 58.9379C81.6898 58.1884 81.8215 57.311 81.6395 56.4712C81.5737 56.282 81.3682 55.7147 80.2581 55.2543C80.2581 55.2543 76.4183 53.8153 73.4089 54.8431L72.3565 51.8009C76.4676 50.3784 81.2859 52.1873 81.4833 52.2696C82.2343 52.528 82.9187 52.9496 83.4874 53.5041C84.056 54.0585 84.4948 54.732 84.7722 55.4763C85.2512 57.1928 85.0294 59.0292 84.1555 60.5823C83.2735 62.3092 83.0682 64.3032 83.58 66.1735C83.6951 66.5106 83.8102 66.8149 83.9089 67.0615L96.4315 62.7859C96.3575 62.5392 96.2588 62.235 96.1437 61.8815C95.4041 60.0721 94.0136 58.6054 92.2463 57.7703C90.616 57.072 89.3255 55.7608 88.6531 54.1196C88.4176 53.3699 88.35 52.5776 88.4552 51.7988C88.5603 51.0201 88.8356 50.2741 89.2616 49.6137C90.3698 47.8358 90.8369 45.7324 90.5854 43.6525L88.2009 36.68C84.912 27.0928 74.7656 23.4174 71.2465 22.4143L70.5722 23.7874C74.8972 26.2541 76.665 31.5904 76.739 31.8371C78.9097 38.1683 73.376 42.9372 70.1611 44.5652L68.6729 41.6299C68.9524 41.4901 75.4152 38.1107 73.6063 32.8813C73.6063 32.7991 71.7891 27.4874 67.8506 26.139C67.6296 26.0631 67.4273 25.941 67.2571 25.7808C67.087 25.6206 66.953 25.4259 66.864 25.2099C66.7675 24.9967 66.7175 24.7655 66.7175 24.5315C66.7175 24.2976 66.7675 24.0663 66.864 23.8532L68.8702 19.742C69.041 19.4184 69.3149 19.161 69.6485 19.0106C69.9821 18.8602 70.3564 18.8253 70.712 18.9115C71.3616 19.0431 86.7702 22.2745 91.3418 35.6522L93.7592 42.7234C93.7592 42.7728 93.7592 42.8221 93.7592 42.8714C94.2424 45.7818 93.6584 48.7688 92.1147 51.2829C91.9186 51.5374 91.7852 51.8345 91.7252 52.1502C91.6652 52.4659 91.6803 52.7913 91.7694 53.1C92.1448 53.8376 92.7677 54.4197 93.529 54.7445C96.1663 55.9256 98.2335 58.0961 99.2846 60.7879C100.107 63.2546 100.033 63.8384 100 64.0768C99.9587 64.3783 99.8347 64.6624 99.6416 64.8976C99.4486 65.1327 99.194 65.3097 98.9064 65.4088L83.6211 70.6218C83.4371 70.6898 83.2415 70.7205 83.0455 70.7122Z" fill="#17262F"></path><path d="M60.9357 17.1191C60.7383 16.9546 41.0047 0.411292 10.2368 3.74956L9.86676 0.47707C42.1147 -3.02564 62.2266 13.9041 63.0652 14.6277L60.9357 17.1191Z" fill="#17262F"></path><path d="M56.0516 34.2707C55.9283 34.1638 43.529 23.5816 23.927 23.7954L23.8859 20.5065C44.8364 20.2187 57.6796 31.3271 58.2223 31.7957L56.0516 34.2707Z" fill="#17262F"></path></g><defs><clipPath id="clip0_5678_6482"><rect width="100" height="82.1904" fill="white"></rect></clipPath></defs></svg>