<svg xmlns="http://www.w3.org/2000/svg" width="115" height="110" viewBox="0 0 115 110" fill="none"><g clip-path="url(#clip0_5678_18904)"><path d="M37.4798 110L0 88.3612V81.7714L37.4798 103.41V110Z" fill="#3C3E40"></path><path d="M37.4798 110L74.9597 88.3612V81.7714L37.4798 103.41V110Z" fill="#555A5C"></path><path d="M0 81.7871L37.4798 103.41L74.9597 81.7713L37.4798 60.1483L0 81.7871Z" fill="#858B8C"></path><path d="M61.7799 78.8565L60.1958 76.9081C56.8375 71.633 47.9191 67.847 37.4165 67.847C26.9139 67.847 18.0587 71.633 14.7005 76.9081L13.2748 78.8565V81.2327C13.2662 81.3328 13.2662 81.4335 13.2748 81.5337C13.2748 89.0898 24.1259 95.2045 37.4957 95.2045C50.8655 95.2045 61.7799 89.0898 61.7799 81.5337C61.7799 81.4228 61.7799 81.3277 61.7799 81.2327V78.8565Z" fill="#3C3E40"></path><path d="M37.4799 93.1927C50.8567 93.1927 61.7008 87.065 61.7008 79.5061C61.7008 71.9472 50.8567 65.8195 37.4799 65.8195C24.103 65.8195 13.2589 71.9472 13.2589 79.5061C13.2589 87.065 24.103 93.1927 37.4799 93.1927Z" fill="#939899"></path><path d="M39.1907 97.2639V98.848C39.1907 99.3708 38.6521 99.8301 37.8442 100.052H37.5907H36.0066H35.7532H35.6106L35.373 99.9569L35.1037 99.7985H35.0245L34.8027 99.6401L34.6918 99.5292C34.6598 99.4907 34.6332 99.4481 34.6126 99.4024V99.3232C34.6057 99.2919 34.6057 99.2595 34.6126 99.2282C34.6038 99.1598 34.6038 99.0906 34.6126 99.0222V97.4381C34.6126 96.9946 35.0086 96.5827 35.6264 96.3451L35.8482 96.2659H35.9591C36.6431 96.0754 37.3661 96.0754 38.0501 96.2659C38.6521 96.2818 39.1907 96.7411 39.1907 97.2639Z" fill="#594D4D"></path><path d="M37.8442 96.0599V100.052C38.6521 99.8301 39.1907 99.3707 39.1907 98.848V97.2639C39.1907 96.7411 38.6521 96.2817 37.8442 96.0599Z" fill="#6B5C5C"></path><path d="M36.4343 95.9648C36.2044 95.9709 35.9759 96.0028 35.7532 96.0599H35.6423L35.4205 96.1391C34.8027 96.3767 34.4067 96.7886 34.4067 97.2321V98.8162C34.3979 98.8846 34.3979 98.9538 34.4067 99.0222C34.3998 99.0535 34.3998 99.0859 34.4067 99.1172V99.1964C34.4272 99.242 34.4539 99.2847 34.4859 99.3231L34.5968 99.434L34.8185 99.5924H34.8977L35.0878 99.6875L35.3255 99.7825H35.468H35.7215H36.4343V95.9648Z" fill="#473D3D"></path><path d="M35.1354 96.3451C34.7077 96.5827 34.4067 96.8995 34.4067 97.2639V98.848C34.3979 98.9163 34.3979 98.9855 34.4067 99.0539C34.3998 99.0852 34.3998 99.1176 34.4067 99.149V99.2282C34.4272 99.2738 34.4539 99.3164 34.4859 99.3549L34.5968 99.4658L34.8185 99.6242H34.8977L35.1354 96.3451Z" fill="#383030"></path><path d="M39.1907 97.2638C39.1907 97.8024 38.6521 98.2618 37.8442 98.4836C37.1602 98.6741 36.4372 98.6741 35.7532 98.4836C34.9611 98.2618 34.4067 97.8024 34.4067 97.2638C34.4067 96.7252 34.8027 96.4084 35.4205 96.1708L35.6423 96.0916H35.7532C36.4372 95.9011 37.1602 95.9011 37.8442 96.0916C38.6521 96.2817 39.1907 96.7411 39.1907 97.2638Z" fill="#847271"></path><path d="M38.2719 96.4085V97.2005C38.2719 97.5173 37.9392 97.8025 37.4482 97.9451H37.2897H36.3076H36.1492H36.07H35.9116H35.8007L35.674 97.85L35.5948 97.7708C35.5858 97.729 35.5858 97.6858 35.5948 97.6441V96.8679C35.5948 96.5827 35.8482 96.3293 36.2126 96.1867H36.3551C36.5654 96.1218 36.7845 96.0897 37.0046 96.0917C37.2248 96.0887 37.444 96.1208 37.6541 96.1867C38.0184 95.7907 38.2719 96.0758 38.2719 96.4085Z" fill="#C2C2C2"></path><path d="M37.4482 95.6639V97.9609C37.9392 97.8183 38.2719 97.5332 38.2719 97.2164V96.4243C38.2719 96.0758 38.0184 95.7907 37.4482 95.6639Z" fill="#D4D4D4"></path><path d="M36.5769 95.6005C36.4348 95.584 36.2913 95.584 36.1492 95.6005H36.0066C35.6423 95.7431 35.3888 95.9965 35.3888 96.2817V97.0579C35.3798 97.0997 35.3798 97.1429 35.3888 97.1846L35.468 97.2638L35.5948 97.3589H35.7056H35.8641H35.9433H36.1017H36.371L36.5769 95.6005Z" fill="#B0B0B0"></path><path d="M35.7849 95.8381C35.5156 95.9807 35.3255 96.1708 35.3255 96.4084V97.1846C35.3165 97.2264 35.3165 97.2696 35.3255 97.3113L35.4047 97.3906L35.5314 97.4856L35.7849 95.8381Z" fill="#A1A1A1"></path><path d="M38.2719 96.4085C38.2719 96.7411 37.9392 97.0104 37.4482 97.153C37.2357 97.2057 37.0176 97.2323 36.7987 97.2322C36.5798 97.2313 36.3619 97.2047 36.1492 97.153C35.6581 97.0104 35.3255 96.7411 35.3255 96.4085C35.3255 96.0758 35.5789 95.8699 35.9433 95.7273H36.0858C36.2962 95.6624 36.5152 95.6303 36.7353 95.6323C36.9555 95.6293 37.1747 95.6614 37.3848 95.7273C38.0184 95.7907 38.2719 96.0758 38.2719 96.4085Z" fill="#EDEDED"></path><path d="M69.5896 79.6328V81.2169C69.5896 81.7555 69.051 82.2149 68.2589 82.4366H67.9896H67.7045H67.4827H66.9283H66.6907H66.4214H66.1521H66.0095L65.7719 82.3416H65.6927L65.5026 82.2466C65.4201 82.207 65.345 82.1534 65.2808 82.0881C65.24 82.0553 65.2028 82.0181 65.1699 81.9773L64.9482 81.6446C64.9527 81.6131 64.9527 81.5811 64.9482 81.5496C64.9482 81.5496 64.9482 81.5495 64.9482 81.4545C64.9405 81.3914 64.9405 81.3275 64.9482 81.2644V79.6803C64.9482 79.2209 65.3442 78.8249 65.962 78.5714H66.1838H66.2947C66.6366 78.4864 66.9878 78.4439 67.3402 78.4447C67.6978 78.444 68.0541 78.4866 68.4015 78.5714C69.051 78.6348 69.5896 79.0942 69.5896 79.6328Z" fill="#594D4D"></path><path d="M68.2589 78.4131V82.3733C69.051 82.1516 69.5896 81.6922 69.5896 81.1536V79.5695C69.5896 79.0942 69.051 78.6349 68.2589 78.4131Z" fill="#6B5C5C"></path><path d="M66.8332 78.3338C66.6065 78.3165 66.3788 78.3165 66.1521 78.3338H66.0412H65.8194C65.2016 78.5873 64.8056 78.9833 64.8056 79.4427V81.0268C64.798 81.0899 64.798 81.1537 64.8056 81.2169C64.8056 81.2169 64.8056 81.2169 64.8056 81.3119V81.407L64.8848 81.5178C64.9177 81.5587 64.9548 81.5959 64.9957 81.6287C65.0599 81.694 65.1349 81.7476 65.2175 81.7871L65.4075 81.8822H65.4868L65.7244 81.9772H65.8669H66.1362H66.5481L66.8332 78.3338Z" fill="#473D3D"></path><path d="M65.5501 78.714C65.1224 78.9516 64.8056 79.2684 64.8056 79.6328V81.2169C64.798 81.28 64.798 81.3438 64.8056 81.407C64.8056 81.407 64.8056 81.407 64.8056 81.502V81.5971L64.8848 81.7079C64.9177 81.7488 64.9548 81.786 64.9957 81.8188C65.0599 81.8841 65.1349 81.9376 65.2175 81.9772L65.5501 78.714Z" fill="#383030"></path><path d="M69.5896 79.6328C69.5896 80.1556 69.051 80.6308 68.2589 80.8367C67.9138 80.9349 67.5564 80.983 67.1976 80.9793C66.844 80.983 66.4918 80.935 66.1521 80.8367C65.36 80.6308 64.8056 80.1556 64.8056 79.6328C64.8056 79.1101 65.2016 78.7774 65.8194 78.524H66.0412H66.1521C66.4941 78.439 66.8452 78.3964 67.1976 78.3972C67.5552 78.3965 67.9116 78.4391 68.2589 78.524C69.051 78.6348 69.5896 79.0942 69.5896 79.6328Z" fill="#847271"></path><path d="M68.6708 78.7615V79.5536C68.6708 79.8862 68.3381 80.1714 67.8471 80.2981H67.6886H66.7223H66.5481H66.4055H66.2946L66.1679 80.2031V80.1239C66.1679 80.1239 66.1679 80.1238 66.1679 79.9971V79.2051C66.1679 78.9358 66.4214 78.6823 66.8015 78.5397H66.9283C67.1441 78.5156 67.3619 78.5156 67.5778 78.5397C67.7935 78.5135 68.0115 78.5135 68.2272 78.5397C68.3381 78.1596 68.6708 78.4447 68.6708 78.7615Z" fill="#C2C2C2"></path><path d="M67.847 78.017V80.3139C68.3381 80.1872 68.6708 79.902 68.6708 79.5694V78.7773C68.6708 78.4447 68.3381 78.1595 67.847 78.017Z" fill="#D4D4D4"></path><path d="M66.9758 77.9695C66.8334 77.9609 66.6905 77.9609 66.5481 77.9695H66.4214C66.0412 78.1121 65.7877 78.3655 65.7877 78.6348V79.4269C65.7877 79.4269 65.7877 79.5061 65.7877 79.5536V79.6328L65.9303 79.7278H66.0412H66.1837H66.358H66.6115L66.9758 77.9695Z" fill="#B0B0B0"></path><path d="M66.1838 78.1913C65.9145 78.3497 65.7244 78.5398 65.7244 78.7616V79.5536C65.7244 79.5536 65.7244 79.6328 65.7244 79.6803V79.7595L65.8669 79.8546L66.1838 78.1913Z" fill="#A1A1A1"></path><path d="M68.6708 78.7615C68.6708 79.0942 68.3381 79.3793 67.8471 79.506C67.637 79.572 67.4177 79.6041 67.1976 79.6011C66.9776 79.6018 66.7587 79.5698 66.5481 79.506C66.0729 79.3793 65.7244 79.0942 65.7244 78.7615C65.7244 78.4289 65.9778 78.2388 66.358 78.0962H66.4847C66.7006 78.072 66.9184 78.072 67.1342 78.0962C67.3499 78.07 67.568 78.07 67.7837 78.0962C68.3381 78.1596 68.6708 78.4447 68.6708 78.7615Z" fill="#EDEDED"></path><path d="M9.61549 80.2348V81.8189C9.61549 82.3575 9.0769 82.8169 8.269 83.0387H8.01555H7.90466H7.73041H7.50864H6.93836H6.71659H6.54233H6.43145H6.17799H6.03542L5.79781 82.9436H5.7186L5.52851 82.8486H5.4493C5.36923 82.805 5.29476 82.7518 5.22753 82.6902L5.06912 82.3733L4.98992 82.2625V82.1674C4.98305 82.1361 4.98305 82.1037 4.98992 82.0724C4.98228 82.0092 4.98228 81.9454 4.98992 81.8823V80.2982C4.98992 79.8388 5.38594 79.4428 6.00374 79.1893L6.22551 79.1101H6.3364C6.67768 79.0196 7.02886 78.9717 7.38191 78.9675C7.73496 78.9717 8.08613 79.0196 8.42742 79.1101C9.0769 79.2051 9.61549 79.6962 9.61549 80.2348Z" fill="#594D4D"></path><path d="M8.26901 79.015V82.9911C9.0769 82.7693 9.6155 82.3099 9.6155 81.7713V80.1872C9.6155 79.6962 9.0769 79.2051 8.26901 79.015Z" fill="#6B5C5C"></path><path d="M6.85915 78.9358C6.6304 78.9447 6.40267 78.9712 6.17799 79.015H6.0671L5.84532 79.2051C5.22752 79.4585 4.8315 79.8546 4.8315 80.314V81.8981C4.82387 81.9612 4.82387 82.025 4.8315 82.0881C4.82463 82.1195 4.82463 82.1519 4.8315 82.1832V82.2782L5.06911 82.3733L5.18 82.4842C5.24723 82.5458 5.3217 82.599 5.40178 82.6426H5.48098L5.67107 82.7376H5.75028L5.98789 82.8327H6.13046H6.38392H6.4948H6.81163L6.85915 78.9358Z" fill="#473D3D"></path><path d="M5.56019 79.3002C5.13248 79.5536 4.8315 79.8546 4.8315 80.2348V81.8189C4.82387 81.882 4.82387 81.9458 4.8315 82.009C4.82463 82.0403 4.82463 82.0727 4.8315 82.104V82.1991L5.06911 82.3733L5.18 82.4842C5.24723 82.5458 5.3217 82.599 5.40178 82.6426H5.48098L5.56019 79.3002Z" fill="#383030"></path><path d="M9.6155 80.2347C9.6155 80.7575 9.0769 81.2168 8.26901 81.4386C7.92932 81.5368 7.57709 81.5849 7.22351 81.5812C6.86992 81.5849 6.51769 81.5368 6.178 81.4386C5.38595 81.2168 4.83151 80.7575 4.83151 80.2347C4.83151 79.7119 5.22754 79.3793 5.84534 79.1258L6.06711 79.0466H6.178C6.51928 78.9561 6.87045 78.9082 7.22351 78.9041C7.57656 78.9082 7.92773 78.9561 8.26901 79.0466C9.0769 79.205 9.6155 79.6961 9.6155 80.2347Z" fill="#847271"></path><path d="M8.69672 79.3635V80.1555C8.69672 80.4882 8.36406 80.7575 7.87299 80.9H7.71458H6.73243H6.57402H6.49482L6.33641 80.7892H6.178L6.05127 80.6941C6.04358 80.6575 6.04358 80.6198 6.05127 80.5832V79.7912C6.05127 79.5219 6.30473 79.2684 6.66907 79.11H6.81164C7.0243 79.0584 7.24228 79.0318 7.46112 79.0308C7.68003 79.0307 7.89813 79.0573 8.1106 79.11C8.36406 78.7615 8.69672 79.0308 8.69672 79.3635Z" fill="#C2C2C2"></path><path d="M7.9205 78.619V80.9001C8.41157 80.7576 8.74423 80.4883 8.74423 80.1556V79.3635C8.69671 79.0309 8.36405 78.7616 7.9205 78.619Z" fill="#D4D4D4"></path><path d="M7.00174 78.5715C6.85964 78.5551 6.71613 78.5551 6.57403 78.5715H6.43146C6.06712 78.7299 5.81366 78.9833 5.81366 79.2526V80.0447C5.80597 80.0813 5.80597 80.119 5.81366 80.1556L5.94039 80.2506L6.33641 80.7892H6.49482H6.57403H6.73244H7.00174V78.5715Z" fill="#B0B0B0"></path><path d="M6.20967 78.7932C5.94037 78.9516 5.75028 79.1417 5.75028 79.3635V80.1555C5.74258 80.1921 5.74258 80.2299 5.75028 80.2664L5.877 80.3615L6.20967 78.7932Z" fill="#A1A1A1"></path><path d="M8.6967 79.3635C8.6967 79.6962 8.36404 79.9813 7.87297 80.108C7.66289 80.174 7.44365 80.2061 7.22349 80.2031C7.00339 80.205 6.78432 80.173 6.57401 80.108C6.08294 79.9813 5.75027 79.6962 5.75027 79.3635C5.75027 79.0309 6.00373 78.8408 6.36807 78.6824H6.51064C6.7233 78.6307 6.94128 78.6041 7.16012 78.6031C7.37903 78.6031 7.59714 78.6297 7.80961 78.6824C8.36404 78.7616 8.6967 79.0309 8.6967 79.3635Z" fill="#EDEDED"></path><path d="M40.0144 62.5879V64.172C40.0144 64.7105 39.4758 65.1699 38.6838 65.3917H38.4145H36.8304H36.5611H36.4185H36.1809H36.1017L35.9116 65.2967C35.8325 65.2515 35.7582 65.1984 35.6898 65.1383L35.5789 65.0115C35.544 64.9815 35.5168 64.9435 35.4997 64.9006C35.5064 64.8747 35.5064 64.8474 35.4997 64.8214C35.4997 64.8214 35.4997 64.8214 35.4997 64.7264C35.4909 64.658 35.4909 64.5888 35.4997 64.5205V62.9364C35.4997 62.477 35.8957 62.0809 36.5135 61.8433H36.7353H36.8462C37.1859 61.7451 37.5381 61.6971 37.8917 61.7008C38.2505 61.6971 38.608 61.7451 38.9531 61.8433C39.4758 61.6057 40.0144 62.0651 40.0144 62.5879Z" fill="#594D4D"></path><path d="M38.6837 61.3839V65.3758C39.4758 65.1541 40.0144 64.6947 40.0144 64.1561V62.572C40.0144 62.0651 39.4758 61.6057 38.6837 61.3839Z" fill="#6B5C5C"></path><path d="M37.2581 61.2889C37.0282 61.295 36.7997 61.3269 36.5769 61.384H36.466H36.2442C35.6264 61.6216 35.2304 62.0176 35.2304 62.477V64.0611C35.2216 64.1295 35.2216 64.1987 35.2304 64.2671C35.2304 64.2671 35.2304 64.2671 35.2304 64.3621V64.4413C35.2475 64.4841 35.2746 64.5222 35.3096 64.5522L35.4205 64.6789C35.4889 64.7391 35.5632 64.7922 35.6423 64.8373L35.8324 64.9324H35.9116H36.1492H36.2918H36.561H36.9729L37.2581 61.2889Z" fill="#473D3D"></path><path d="M35.9749 61.6691C35.5472 61.9067 35.2304 62.2235 35.2304 62.5878V64.1719C35.2216 64.2403 35.2216 64.3095 35.2304 64.3779C35.2304 64.3779 35.2304 64.3779 35.2304 64.4729V64.5521C35.2475 64.595 35.2746 64.633 35.3096 64.663L35.4205 64.7897C35.4889 64.8499 35.5632 64.903 35.6423 64.9482L35.9749 61.6691Z" fill="#383030"></path><path d="M40.0144 62.5878C40.0144 63.1264 39.4758 63.5858 38.6837 63.8076C38.3371 63.8981 37.9807 63.946 37.6224 63.9502C37.2694 63.946 36.9182 63.8981 36.5769 63.8076C35.7848 63.5858 35.2304 63.1264 35.2304 62.5878C35.2304 62.0493 35.6264 61.7324 36.2442 61.4948H36.466H36.5769C36.9166 61.3966 37.2688 61.3486 37.6224 61.3522C37.9812 61.3486 38.3386 61.3966 38.6837 61.4948C39.4758 61.6057 40.0144 62.0651 40.0144 62.5878Z" fill="#847271"></path><path d="M39.0956 61.7799V62.5562C39.0956 62.8888 38.763 63.174 38.2719 63.3165H38.1135H37.1472H36.9729H36.8937H36.7512H36.6403C36.5911 63.2883 36.548 63.2506 36.5135 63.2056V63.1264C36.5135 63.1264 36.5135 63.1264 36.5135 62.9997V61.7799C36.5135 61.4948 36.767 61.2413 37.1472 61.0988H37.2739C37.4845 61.0351 37.7034 61.003 37.9234 61.0037C38.1436 61.0008 38.3628 61.0328 38.5729 61.0988C38.763 61.1146 39.0956 61.3998 39.0956 61.7799Z" fill="#C2C2C2"></path><path d="M38.2719 60.9879V63.2849C38.763 63.1423 39.0956 62.8572 39.0956 62.5245V61.78C39.0956 61.3998 38.763 61.1146 38.2719 60.9879Z" fill="#D4D4D4"></path><path d="M37.4006 60.9246C37.2585 60.9081 37.115 60.9081 36.9729 60.9246H36.8462C36.466 61.0672 36.2126 61.3206 36.2126 61.6058V62.382C36.2126 62.382 36.2126 62.477 36.2126 62.5087V62.5879C36.2495 62.6368 36.2987 62.675 36.3551 62.6988H36.466H36.6086H36.6878H36.862H37.1155L37.4006 60.9246Z" fill="#B0B0B0"></path><path d="M36.6086 61.1622C36.3393 61.3048 36.1492 61.4949 36.1492 61.7325V62.5087C36.1492 62.5087 36.1492 62.6038 36.1492 62.6354V62.7147C36.1862 62.7635 36.2353 62.8017 36.2918 62.8255L36.6086 61.1622Z" fill="#A1A1A1"></path><path d="M39.0956 61.7799C39.0956 62.0968 38.763 62.3819 38.2719 62.5245C38.0594 62.5772 37.8413 62.6038 37.6224 62.6037C37.4036 62.6017 37.1858 62.5752 36.9729 62.5245C36.4977 62.3819 36.1492 62.0968 36.1492 61.7799C36.1492 61.4631 36.4027 61.2413 36.7828 61.0988H36.9096C37.1201 61.0351 37.339 61.003 37.559 61.0037C37.7792 61.0008 37.9985 61.0328 38.2085 61.0988C38.763 61.1146 39.0956 61.3998 39.0956 61.7799Z" fill="#EDEDED"></path><path d="M37.4798 67.9896C48.1408 67.9896 56.8059 72.2984 56.8059 77.6051C56.8059 77.8111 56.8059 78.017 56.8059 78.2388V80.6466H18.1696V77.621C18.1538 72.2984 26.803 67.9896 37.4798 67.9896Z" fill="#616161"></path><path d="M56.8217 80.6466C56.8217 84.9237 51.214 88.5671 43.4836 89.8027C41.5042 90.1265 39.5014 90.2854 37.4957 90.278C35.4798 90.2781 33.467 90.1192 31.4761 89.8027C23.7457 88.5354 18.1696 84.9237 18.1696 80.6466C18.1696 75.3399 26.8188 71.0311 37.4957 71.0311C48.1725 71.0311 56.8217 75.3399 56.8217 80.6466Z" fill="#2E2E2E"></path><path d="M43.4994 89.2641C43.4994 89.2641 43.4994 89.4067 43.4994 89.4859C43.5072 89.5913 43.5072 89.6972 43.4994 89.8027C41.52 90.1264 39.5172 90.2854 37.5115 90.2779C35.4956 90.2781 33.4829 90.1192 31.4919 89.8027C31.4842 89.6972 31.4842 89.5913 31.4919 89.4859V83.4504H43.5786L43.4994 89.2641Z" fill="#9E4810"></path><path d="M31.4444 83.4505C31.4444 81.5654 34.1532 80.0288 37.4798 80.0288C40.8064 80.0288 43.5311 81.6129 43.5311 83.4505C43.5311 85.288 40.8223 86.8563 37.4798 86.8563C34.1374 86.8563 31.4444 85.3355 31.4444 83.4505Z" fill="#6B2500"></path><path d="M37.4798 87.5058C48.5685 87.5058 57.5821 82.4208 57.5821 76.1478C57.5977 75.9051 57.5977 75.6617 57.5821 75.4191V72.5519H17.4251V76.1478C17.4251 82.3733 26.3594 87.5058 37.4798 87.5058Z" fill="#FF951A"></path><path d="M17.4251 72.5519C17.4251 66.2154 26.4228 61.1938 37.5432 61.1938C48.6636 61.1938 57.6454 66.2788 57.6454 72.5519C57.6454 78.8249 48.6002 83.9574 37.4957 83.9574C26.3911 83.9574 17.4251 78.8249 17.4251 72.5519Z" fill="#CC6500"></path><path d="M32.7751 45.2577L39.0956 81.1535L52.2912 73.5498L54.8574 65.7402L50.6437 55.5544L38.256 40.4738L32.7751 45.2577Z" fill="#8D3D06"></path><path d="M54.699 48.2359C50.4853 40.9332 43.7212 36.9571 39.6025 39.3333L39.1431 39.6501L26.4703 46.9528L41.6619 73.3439L54.8574 65.7402C58.9761 63.3641 58.8969 55.5228 54.699 48.2359Z" fill="#FF951A"></path><path d="M55.1584 58.1207C55.2747 58.9807 55.1633 59.8561 54.8352 60.6594C54.5072 61.4628 53.9741 62.166 53.2892 62.6988L49.8042 64.7106L46.636 66.5165C46.7608 65.816 46.8191 65.1053 46.8102 64.3938C46.666 61.0646 45.6912 57.8245 43.9747 54.9684C43.8955 54.8258 43.8004 54.6832 43.7054 54.5407C43.5074 54.1963 43.2906 53.8631 43.0559 53.5427C41.7531 51.5651 40.106 49.8374 38.1927 48.4419C37.3077 47.7948 36.3443 47.2625 35.3255 46.8578L38.3194 45.1311L40.4421 43.9272L40.5213 44.0539L41.6619 43.2302L41.9312 43.0401C42.4155 42.7719 42.9617 42.6354 43.5153 42.6441C44.054 42.6524 44.5882 42.7432 45.0994 42.9134C47.8231 44.0394 50.1308 45.9819 51.7051 48.4736C52.0219 48.9488 52.3387 49.4399 52.6397 49.9468C54.1553 52.4154 55.0217 55.2272 55.1584 58.1207Z" fill="#7E1F00"></path><path d="M52.6714 49.9784C51.0381 46.8335 48.3689 44.349 45.1152 42.945C44.604 42.7748 44.0698 42.684 43.5311 42.6757C42.9775 42.667 42.4314 42.8036 41.947 43.0717L41.6777 43.2618L40.9332 43.8004C40.7906 44.5132 40.6164 45.2102 40.4104 45.9231C43.539 47.3658 46.1054 49.7986 47.7131 52.8456C49.2152 55.3057 50.0656 58.1079 50.1843 60.9879C50.2961 61.8345 50.1888 62.6956 49.8726 63.4888C49.5564 64.2821 49.042 64.9809 48.3785 65.5184L53.2733 62.6987C53.9583 62.1659 54.4914 61.4627 54.8194 60.6594C55.1474 59.856 55.2589 58.9806 55.1426 58.1207C55.015 55.2422 54.1652 52.4422 52.6714 49.9784Z" fill="#6E3C00"></path><path d="M20.5933 60.0533L22.1774 71.3796L27.1198 74.2627L39.0639 81.1535L41.6619 73.3439L37.4323 63.174L25.0605 48.0775C23.3775 49.5437 22.0873 51.4072 21.3072 53.4985C20.5271 55.5899 20.2817 57.843 20.5933 60.0533Z" fill="#AC5200"></path><path d="M41.6619 73.3439C37.5432 75.72 30.7791 71.7598 26.5812 64.4412C22.3833 57.1227 22.2883 49.313 26.407 47.0161C30.5256 44.7192 37.2739 48.6002 41.4876 55.9187C45.7013 63.2373 45.7805 70.9677 41.6619 73.3439Z" fill="#CC6500"></path><path d="M98.0717 67.5303L85.6999 74.4686L78.2388 88.5513L79.0783 96.947L81.5812 98.7529L81.8505 87.5533L87.2681 78.2705L94.0481 74.4686L94.4124 80.5041L89.0107 91.4027L91.5135 93.2086L96.9312 82.2941L98.0717 67.5303Z" fill="#3C4546"></path><path d="M100.59 69.3362L88.2186 76.2745L80.7575 90.3572L81.5812 98.7529L85.5573 96.5194L84.3692 89.3434L89.771 80.0764L96.551 76.2587L96.9312 82.2941L91.5135 93.2086L95.4896 90.975L101.208 79.015L100.59 69.3362Z" fill="#6B7273"></path><path d="M98.0717 67.5303L100.59 69.3361L88.2186 76.2745L85.6999 74.4686L98.0717 67.5303Z" fill="#939899"></path><path d="M80.7575 90.3572L78.2388 88.5513L85.6999 74.4686L88.2186 76.2745L80.7575 90.3572Z" fill="#555A5C"></path><path d="M94.4125 80.5041L96.9312 82.2941L96.551 76.2587L94.1273 77.6368L94.4125 80.5041Z" fill="#242E2F"></path><path d="M105.058 67.3718L96.3926 70.9677L94.2065 73.1696L97.5965 73.6132L104.139 70.6509L106.166 69.4312L105.058 67.3718Z" fill="#2A2F2E"></path><path d="M95.5688 74.833L101.779 71.0469L98.1826 70.746L92.1789 74.3894L95.5688 74.833Z" fill="#505453"></path><path d="M61.4948 24.522C58.1777 27.7655 55.6988 31.7667 54.2713 36.181C53.1562 40.2288 52.3095 44.3459 51.7368 48.5053C50.5328 56.4258 49.8358 64.3463 49.8041 64.7106L46.6359 66.5165C46.7608 65.816 46.8191 65.1053 46.8102 64.3938C46.666 61.0647 45.6912 57.8245 43.9747 54.9684C43.8955 54.8258 43.8004 54.6833 43.7054 54.5407C43.5074 54.1963 43.2906 53.8632 43.0559 53.5427C43.6262 49.7567 44.3232 45.9707 45.0994 42.9609C45.2578 42.3431 45.4162 41.757 45.5904 41.2184C48.3626 32.2999 55.8396 26.011 59.8473 24.9022C60.1959 24.7754 60.782 24.6487 61.4948 24.522Z" fill="#7E1F00"></path><path d="M105.897 7.35022H90.5631C90.5631 7.35022 77.5259 7.6512 67.9263 7.63536C60.6077 7.63536 57.1702 9.21946 55.5703 10.4867C55.0792 10.8669 47.6498 14.8905 47.4438 15.1282C49.2339 13.9718 52.6714 12.6728 59.2771 12.6728C68.8767 12.6728 81.9139 12.4035 81.9139 12.4035H97.248C97.248 12.4035 103.125 16.6964 98.9905 18.9142C100.575 18.5023 102.681 17.6786 105.945 14.5262C111.283 9.36203 105.897 7.35022 105.897 7.35022Z" fill="#FAB03E"></path><path d="M98.6895 11.2629L97.248 12.3718L99.735 18.3756L104.186 16.4905L101.604 11.453L98.6895 11.2629Z" fill="#7E1F00"></path><path d="M70.9836 11.4531L84.3534 10.661L86.9988 9.69473H99.9093L101.066 8.47498H87.3949H85.0979L71.8548 9.72642C71.8548 9.72642 69.0668 10.5185 70.9836 11.4531Z" fill="#C56000"></path><path d="M67.5461 5.33844L68.7342 4.4355L72.9162 3.92859L76.1636 8.03141L69.146 12.6411L67.5461 5.33844Z" fill="#DB8318"></path><path d="M67.5461 5.33844L68.7342 4.4355L72.9162 3.92859L76.1636 7.88884L74.9755 8.79178L67.5461 5.33844Z" fill="#FAB03E"></path><path d="M65.265 8.79177L67.5461 5.33843L71.7281 4.81567L74.9755 8.79177H65.265Z" fill="#A34200"></path><path d="M102.634 3.16823L108.242 2.50433e-05C108.242 2.50433e-05 111.41 -0.586092 113.564 6.70077C115.719 13.9876 110.158 32.9177 110.158 32.9177L97.0737 71.2846L91.466 74.6112L99.0855 25.9318L103.299 15.0965L102.634 3.16823Z" fill="#EB9500"></path><path d="M102.634 70.8094L101.509 70.1282L104.186 55.4436L105.485 55.3169L102.634 70.8094Z" fill="#B2B1AD"></path><path d="M110.079 34.5176L107.054 36.1017L103.584 55.1109C103.584 55.1109 103.727 55.8079 104.852 55.8871C106.277 55.9821 106.214 55.4752 106.214 55.4752L110.079 34.5176Z" fill="#D17000"></path><path d="M64.4096 9.09282C64.1469 9.25408 63.9414 9.49366 63.8221 9.77784C63.7027 10.062 63.6755 10.3765 63.7442 10.6769C63.8868 11.5323 64.9482 11.5957 64.9482 11.5957L84.591 9.18786C84.3244 9.09737 84.092 8.92741 83.9249 8.70085C83.7578 8.47429 83.6641 8.20199 83.6564 7.92058C83.4663 6.82755 84.0524 6.5741 84.0524 6.5741L64.4096 9.09282Z" fill="#D17000"></path><path d="M84.7177 6.89089C84.9134 7.14662 85.0431 7.44651 85.0956 7.76418C85.1481 8.08185 85.1217 8.40755 85.0187 8.71261C84.8128 9.26704 84.3375 9.36209 83.9732 8.9027C83.7812 8.64513 83.6537 8.34535 83.6014 8.02841C83.549 7.71147 83.5733 7.38661 83.6722 7.08098C83.9574 6.52655 84.3534 6.4315 84.7177 6.89089Z" fill="#E0981B"></path><path d="M103.822 4.75232L104.424 5.9404L84.8128 8.47496C84.732 8.48605 84.6499 8.48019 84.5715 8.45774C84.4932 8.43528 84.4204 8.39674 84.3578 8.34456C84.2952 8.29239 84.2441 8.22773 84.2079 8.15472C84.1717 8.0817 84.1511 8.00194 84.1475 7.92052C84.1475 7.38193 84.4801 7.28688 84.4801 7.28688L103.822 4.75232Z" fill="#B2B1AD"></path><path d="M107.972 9.93231C105.881 2.62961 102.634 3.1682 102.634 3.1682L98.6895 11.263H98.9905C98.9905 11.263 106.119 16.7281 98.9905 18.5973C97.2163 19.0567 95.8223 19.1676 94.7451 19.3736L94.254 20.3874L89.1057 72.6627L91.5135 74.6587L101.509 38.0184C101.509 38.0184 110.048 17.235 107.972 9.93231Z" fill="#BD5E00"></path><path d="M101.858 16.8866C101.588 18.4707 101.208 21.4171 100.464 22.1458C99.2915 23.2864 93.8897 23.5398 93.8897 23.5398L94.2065 20.3716C94.1988 20.3244 94.1988 20.2763 94.2065 20.2291C95.0936 20.039 96.1233 19.8172 97.3747 19.5004C98.256 19.3186 99.0846 18.9394 99.7984 18.3915L101.858 16.8866Z" fill="#AB4D0A"></path><path d="M97.2955 19.5162C92.1155 20.8627 90.072 20.7993 88.4245 21.2112C86.7771 21.623 63.7442 23.7616 59.8157 24.8863C55.8871 26.011 48.3943 32.284 45.5588 41.2025C45.3687 41.8045 45.1944 42.3906 45.0519 42.945C42.9925 50.3745 43.6103 54.208 43.6737 54.5248C42.2668 52.1405 40.3916 50.0658 38.161 48.426L38.3194 45.2578L38.8897 34.8503C38.8897 34.8503 45.0677 17.5044 45.9389 16.4747C46.8102 15.445 49.6774 12.6729 59.2771 12.6729C68.8767 12.6729 81.9139 12.4036 81.9139 12.4036H97.248C97.248 12.4036 104.551 17.6469 97.2955 19.5162Z" fill="#A34200"></path><path d="M101.066 39.5709L106.832 36.2918L111.077 34.1375L114.087 12.8313L108.178 14.8589L107.054 36.0384L101.066 39.5709Z" fill="#EB9500"></path><path d="M101.066 39.5709L107.054 36.0383L108.242 14.0985L103.331 28.5138L101.066 39.5709Z" fill="#BD5E00"></path><path d="M47.0795 55.3169C47.1606 55.5812 47.3279 55.8106 47.5548 55.9686C47.7817 56.1265 48.0549 56.2039 48.3309 56.1882C49.4081 56.1882 49.4398 55.7288 49.4398 55.7288L50.121 35.9117L47.7131 35.6582L47.0795 55.3169Z" fill="#AB3C00"></path><path d="M48.0933 35.1829C48.3691 35.0682 48.6684 35.0213 48.9661 35.0461C49.2637 35.0709 49.5511 35.1667 49.8042 35.3254C50.2635 35.6423 50.2319 36.0858 49.8042 36.3234C49.5283 36.4381 49.2291 36.485 48.9314 36.4602C48.6337 36.4354 48.3464 36.3396 48.0933 36.1809C47.523 35.864 47.6022 35.4205 48.0933 35.1829Z" fill="#BA6316"></path><path d="M50.0259 19.4686L51.1189 19.4845V31.3811L49.1863 33.8998L50.0259 19.4686Z" fill="#7E1F00"></path><path d="M48.8854 19.3736L49.4715 19.1993L50.0259 19.4686L49.5032 35.6106C49.4418 35.7195 49.3472 35.8059 49.2332 35.8572C49.1192 35.9085 48.9917 35.922 48.8695 35.8958C48.7558 35.8868 48.6467 35.8466 48.5545 35.7795C48.4622 35.7124 48.3903 35.621 48.3468 35.5156L48.8854 19.3736Z" fill="#B2B1AD"></path><path d="M49.1071 19.1359C49.2329 19.0744 49.3711 19.0424 49.5111 19.0424C49.6511 19.0424 49.7893 19.0744 49.915 19.1359C49.9635 19.1539 50.0054 19.1863 50.0349 19.2288C50.0644 19.2713 50.0803 19.3218 50.0803 19.3735C50.0803 19.4253 50.0644 19.4758 50.0349 19.5183C50.0054 19.5607 49.9635 19.5931 49.915 19.6112C49.7843 19.6659 49.6421 19.6873 49.5011 19.6735C49.3601 19.6597 49.2247 19.611 49.1071 19.5319C48.822 19.4527 48.8378 19.2468 49.1071 19.1359Z" fill="#D3D2D0"></path><path d="M105.897 36.3235C105.703 35.3745 105.232 34.5042 104.544 33.8221C103.857 33.14 102.982 32.6765 102.032 32.4899C101.791 32.4427 101.548 32.411 101.303 32.3949C100.765 32.3519 100.233 32.2456 99.7192 32.0781C98.6676 31.6306 97.7817 30.8665 97.1846 29.892C96.1301 28.3031 95.4844 26.4783 95.3048 24.5798C95.1252 22.6813 95.4172 20.7678 96.1549 19.0092C96.5773 18.1855 97.1102 17.4233 97.739 16.744C98.5528 16.0154 99.1086 15.0428 99.3231 13.9718C99.3595 13.5988 99.3161 13.2222 99.196 12.8672C99.0758 12.5122 98.8816 12.1868 98.6261 11.9125C97.4697 10.7561 94.6817 10.2175 89.6443 10.3284C89.0106 10.3284 84.6544 10.5501 80.4565 10.7878C75.3715 11.0571 70.54 11.3422 69.843 11.2947V9.71056C70.5875 9.71056 75.7676 9.44127 80.3456 9.20365C84.9237 8.96604 88.9473 8.74426 89.6284 8.74426C95.1886 8.74426 98.2301 9.33038 99.735 10.8511C100.133 11.2727 100.441 11.7712 100.64 12.3159C100.839 12.8607 100.924 13.4403 100.891 14.0193C100.725 15.4549 100.064 16.7878 99.0222 17.7895C98.4918 18.3577 98.0439 18.9976 97.6915 19.6904C97.0383 21.1988 96.7715 22.8462 96.9153 24.4837C97.0591 26.1212 97.609 27.6969 98.5153 29.0683C98.9254 29.7697 99.5462 30.324 100.289 30.6524C100.695 30.7804 101.116 30.8549 101.541 30.8742L102.38 30.985C103.653 31.2224 104.825 31.8375 105.743 32.75C106.661 33.6626 107.284 34.8305 107.529 36.1017L105.897 36.3235Z" fill="#131313"></path><path d="M103.046 68.5916L94.3808 72.1875L92.1789 74.3894L93.0184 76.0527L104.139 70.6509L103.046 68.5916Z" fill="#505453"></path><path d="M92.4006 14.7322C92.4417 15.4169 92.6438 16.0823 92.9907 16.6742C93.3375 17.266 93.8192 17.7676 94.3966 18.138C95.4896 18.7716 96.3926 18.2806 96.3926 17.0291C96.3503 16.3447 96.1476 15.6798 95.8009 15.0881C95.4541 14.4965 94.9731 13.9947 94.3966 13.6233C93.3036 12.9897 92.4006 13.4966 92.4006 14.7322Z" fill="#CD6E19"></path><path d="M93.8422 13.4015C94.036 13.4504 94.2225 13.525 94.3966 13.6233C94.9731 13.9947 95.4541 14.4964 95.8009 15.0881C96.1476 15.6797 96.3503 16.3446 96.3926 17.0291C96.3948 17.3199 96.3298 17.6072 96.2025 17.8687L94.3966 17.4251C93.8233 16.7967 93.4055 16.0425 93.1768 15.2232L93.8422 13.4015Z" fill="#B84A0B"></path><path d="M93.7946 16.7122C93.6595 16.457 93.543 16.1923 93.4461 15.9202C94.2015 15.6232 94.9068 15.2118 95.5371 14.7004C95.8757 15.179 96.1227 15.7161 96.2658 16.2845C95.4233 16.2803 94.5867 16.4251 93.7946 16.7122Z" fill="#DE7D16"></path><path d="M92.4006 15.6509C92.4282 16.1371 92.572 16.6096 92.8201 17.0286C93.0682 17.4476 93.4133 17.8009 93.8263 18.0588C94.6025 18.5182 95.2362 18.1538 95.2362 17.2667C95.2078 16.7826 95.0653 16.3121 94.8203 15.8936C94.5752 15.4751 94.2346 15.1205 93.8263 14.8589C93.0343 14.3995 92.4006 14.7639 92.4006 15.6509Z" fill="#B84A0B"></path><path d="M92.8283 16.1896C92.8471 16.4539 92.9269 16.7102 93.0616 16.9384C93.1963 17.1665 93.3822 17.3603 93.6046 17.5044C94.0164 17.742 94.3649 17.5044 94.3649 17.0608C94.348 16.8001 94.2704 16.5469 94.1384 16.3214C94.0064 16.0959 93.8236 15.9043 93.6046 15.7619C93.1768 15.5084 92.8283 15.6985 92.8283 16.1896Z" fill="#E0781B"></path><path d="M101.858 7.7779C101.899 8.46266 102.101 9.12804 102.448 9.71988C102.795 10.3117 103.276 10.8133 103.854 11.1837C104.947 11.8015 105.834 11.3104 105.834 10.059C105.795 9.37567 105.595 8.7112 105.251 8.11947C104.907 7.52774 104.428 7.02541 103.854 6.65319C102.745 6.01955 101.858 6.52646 101.858 7.7779Z" fill="#CD6E19"></path><path d="M103.299 6.43152C103.493 6.48048 103.68 6.55506 103.854 6.65329C104.428 7.02551 104.907 7.52785 105.251 8.11957C105.595 8.7113 105.795 9.37577 105.834 10.0591C105.841 10.3486 105.781 10.6359 105.66 10.8987L103.838 10.5185C103.275 9.88491 102.864 9.13209 102.634 8.3166L103.299 6.43152Z" fill="#B84A0B"></path><path d="M103.252 9.74228C103.114 9.48841 102.997 9.22347 102.903 8.95023C103.659 8.65319 104.364 8.2418 104.994 7.73047C105.333 8.20904 105.58 8.74611 105.723 9.31457C104.88 9.30259 104.042 9.44763 103.252 9.74228Z" fill="#DE7D16"></path><path d="M101.858 8.68085C101.895 9.16457 102.043 9.63323 102.29 10.0507C102.538 10.4682 102.877 10.8233 103.283 11.0887C104.06 11.5322 104.693 11.1837 104.693 10.2966C104.653 9.81981 104.505 9.35831 104.261 8.94678C104.017 8.53524 103.683 8.18436 103.283 7.92048C102.491 7.42941 101.858 7.79376 101.858 8.68085Z" fill="#B84A0B"></path><path d="M102.285 9.21946C102.304 9.48375 102.384 9.74009 102.519 9.96825C102.653 10.1964 102.839 10.3902 103.062 10.5343C103.474 10.7719 103.822 10.5343 103.822 10.1066C103.807 9.84307 103.731 9.58671 103.599 9.35827C103.467 9.12983 103.283 8.93574 103.062 8.79175C102.634 8.53829 102.285 8.74423 102.285 9.21946Z" fill="#E0781B"></path><path d="M90.1829 66.3739C90.2107 66.7948 90.337 67.2034 90.5516 67.5666C90.7662 67.9298 91.0631 68.2375 91.4185 68.4649C92.0838 68.8609 92.6382 68.5441 92.6382 67.7837C92.6122 67.362 92.4885 66.9521 92.2768 66.5865C92.0651 66.2208 91.7712 65.9094 91.4185 65.6769C90.7373 65.2967 90.1829 65.5977 90.1829 66.3739Z" fill="#CD6E19"></path><path d="M91.07 65.5502C91.19 65.5809 91.3068 65.6233 91.4185 65.6769C91.7712 65.9095 92.0651 66.2209 92.2768 66.5865C92.4884 66.9522 92.6122 67.362 92.6382 67.7838C92.6386 67.9588 92.6007 68.1318 92.5274 68.2907L91.4026 68.1164C91.0507 67.7333 90.7954 67.2717 90.6581 66.7699L91.07 65.5502Z" fill="#B84A0B"></path><path d="M91.0383 67.5778C90.9546 67.4208 90.8856 67.2564 90.8324 67.0867C91.2981 66.9107 91.7316 66.6592 92.1155 66.3422C92.3232 66.6275 92.4738 66.9502 92.559 67.2926C92.0394 67.2985 91.5248 67.395 91.0383 67.5778Z" fill="#DE7D16"></path><path d="M90.1829 66.9283C90.204 67.2267 90.2936 67.5163 90.4447 67.7745C90.5958 68.0327 90.8043 68.2527 91.0541 68.4173C91.5452 68.6866 91.9254 68.4173 91.9254 67.9263C91.9079 67.6269 91.8198 67.336 91.6684 67.0772C91.517 66.8184 91.3065 66.5991 91.0541 66.4372C90.5789 66.1679 90.1829 66.3739 90.1829 66.9283Z" fill="#B84A0B"></path><path d="M90.4522 67.261C90.4605 67.424 90.5081 67.5825 90.5908 67.7231C90.6736 67.8638 90.789 67.9824 90.9274 68.0689C91.1809 68.2114 91.3868 68.0689 91.3868 67.7996C91.3777 67.6386 91.3315 67.4819 91.2518 67.3418C91.1721 67.2016 91.0611 67.0818 90.9274 66.9917C90.6581 66.8491 90.4522 66.96 90.4522 67.261Z" fill="#E0781B"></path><path d="M61.7324 9.18776L63.57 7.99968L67.752 7.47693L70.9836 11.453L69.146 12.6411L61.7324 9.18776Z" fill="#FAB03E"></path><path d="M59.4513 12.6412L61.7324 9.18782L65.8986 8.68091L69.146 12.6412H59.4513Z" fill="#A34200"></path></g><defs><clipPath id="clip0_5678_18904"><rect width="114.087" height="110" fill="white"></rect></clipPath></defs></svg>