<svg xmlns="http://www.w3.org/2000/svg" width="100" height="100" viewBox="0 0 100 100" fill="none"><g clip-path="url(#clip0_5678_33127)"><path d="M49.9957 83.2066C43.4272 83.2066 37.0063 81.2588 31.5448 77.6096C26.0833 73.9603 21.8266 68.7735 19.3129 62.705C16.7993 56.6365 16.1416 49.9589 17.423 43.5167C18.7045 37.0744 21.8675 31.1568 26.5121 26.5122C31.1567 21.8675 37.0743 18.7045 43.5166 17.4231C49.9589 16.1416 56.6365 16.7993 62.705 19.313C68.7735 21.8266 73.9603 26.0833 77.6095 31.5448C81.2588 37.0063 83.2066 43.4273 83.2066 49.9958C83.1975 58.801 79.6956 67.2431 73.4693 73.4694C67.2431 79.6957 58.801 83.1976 49.9957 83.2066ZM49.9957 20.4C44.1398 20.3983 38.415 22.1334 33.5452 25.3857C28.6755 28.638 24.8797 33.2615 22.638 38.6713C20.3963 44.0811 19.8093 50.0343 20.9513 55.7777C22.0933 61.5212 24.913 66.797 29.0538 70.9377C33.1945 75.0785 38.4703 77.8982 44.2138 79.0402C49.9572 80.1822 55.9104 79.5952 61.3202 77.3535C66.73 75.1117 71.3535 71.316 74.6058 66.4463C77.8581 61.5765 79.5932 55.8517 79.5915 49.9958C79.5824 42.1493 76.4614 34.6267 70.9131 29.0784C65.3648 23.5301 57.8422 20.4091 49.9957 20.4Z" fill="#17262F"></path><path d="M51.799 87.7789C51.799 86.7829 50.9916 85.9756 49.9957 85.9756C48.9998 85.9756 48.1924 86.7829 48.1924 87.7789V98.2053C48.1924 99.2012 48.9998 100.009 49.9957 100.009C50.9916 100.009 51.799 99.2012 51.799 98.2053V87.7789Z" fill="#17262F"></path><path d="M49.9957 13.6741C49.5167 13.6741 49.0571 13.4844 48.7176 13.1464C48.378 12.8085 48.1862 12.3498 48.1839 11.8708V1.80329C48.2154 1.34538 48.4195 0.916494 48.755 0.603273C49.0906 0.290052 49.5324 0.115845 49.9914 0.115845C50.4504 0.115845 50.8923 0.290052 51.2278 0.603273C51.5633 0.916494 51.7675 1.34538 51.799 1.80329V11.8964C51.7901 12.3695 51.5964 12.8204 51.2594 13.1526C50.9224 13.4848 50.4689 13.6719 49.9957 13.6741Z" fill="#17262F"></path><path d="M12.4006 51.2777H1.80326C1.34535 51.2462 0.916464 51.042 0.603242 50.7065C0.290021 50.371 0.115814 49.9291 0.115814 49.4701C0.115814 49.0111 0.290021 48.5693 0.603242 48.2337C0.916464 47.8982 1.34535 47.6941 1.80326 47.6626H12.4006C12.8586 47.6941 13.2874 47.8982 13.6007 48.2337C13.9139 48.5693 14.0881 49.0111 14.0881 49.4701C14.0881 49.9291 13.9139 50.371 13.6007 50.7065C13.2874 51.042 12.8586 51.2462 12.4006 51.2777Z" fill="#17262F"></path><path d="M98.1796 51.2777H87.5823C87.1243 51.2462 86.6955 51.042 86.3822 50.7065C86.069 50.371 85.8948 49.9291 85.8948 49.4701C85.8948 49.0111 86.069 48.5693 86.3822 48.2337C86.6955 47.8982 87.1243 47.6941 87.5823 47.6626H98.1796C98.6375 47.6941 99.0664 47.8982 99.3797 48.2337C99.6929 48.5693 99.8671 49.0111 99.8671 49.4701C99.8671 49.9291 99.6929 50.371 99.3797 50.7065C99.0664 51.042 98.6375 51.2462 98.1796 51.2777Z" fill="#17262F"></path><path d="M15.6653 85.6338C15.1852 85.6314 14.7251 85.4413 14.3834 85.1039C14.2149 84.9357 14.0813 84.7358 13.9901 84.5159C13.8989 84.2959 13.8519 84.0601 13.8519 83.822C13.8519 83.5839 13.8989 83.3481 13.9901 83.1281C14.0813 82.9081 14.2149 82.7083 14.3834 82.54L22.1434 74.7886C22.3118 74.6202 22.5116 74.4867 22.7316 74.3956C22.9515 74.3045 23.1873 74.2576 23.4254 74.2576C23.6634 74.2576 23.8992 74.3045 24.1191 74.3956C24.3391 74.4867 24.539 74.6202 24.7073 74.7886C24.8756 74.9569 25.0092 75.1568 25.1003 75.3767C25.1914 75.5967 25.2383 75.8324 25.2383 76.0705C25.2383 76.3086 25.1914 76.5443 25.1003 76.7643C25.0092 76.9842 24.8756 77.1841 24.7073 77.3525L16.9558 85.1125C16.786 85.2805 16.5844 85.4132 16.3629 85.5027C16.1414 85.5921 15.9043 85.6367 15.6653 85.6338Z" fill="#17262F"></path><path d="M76.5746 24.7159C76.3377 24.7178 76.1027 24.6719 75.8839 24.5808C75.6651 24.4898 75.4669 24.3555 75.3013 24.186C75.1296 24.0195 74.9932 23.8202 74.9001 23.6C74.8069 23.3798 74.7589 23.1432 74.7589 22.9041C74.7589 22.665 74.8069 22.4283 74.9001 22.2081C74.9932 21.9879 75.1296 21.7886 75.3013 21.6221L82.5399 14.3749C82.8799 14.0349 83.3411 13.8439 83.8219 13.8439C84.3027 13.8439 84.7638 14.0349 85.1038 14.3749C85.4438 14.7149 85.6348 15.176 85.6348 15.6568C85.6348 16.1376 85.4438 16.5988 85.1038 16.9388L77.848 24.186C77.6824 24.3555 77.4842 24.4898 77.2654 24.5808C77.0466 24.6719 76.8116 24.7178 76.5746 24.7159Z" fill="#17262F"></path><path d="M23.4168 24.7159C23.1798 24.7178 22.9449 24.6719 22.7261 24.5808C22.5073 24.4898 22.3091 24.3555 22.1434 24.186L14.8876 16.9388C14.5476 16.5988 14.3566 16.1376 14.3566 15.6568C14.3566 15.4187 14.4035 15.183 14.4946 14.963C14.5857 14.7431 14.7193 14.5432 14.8876 14.3749C15.056 14.2065 15.2558 14.073 15.4758 13.9819C15.6957 13.8908 15.9315 13.8439 16.1696 13.8439C16.6504 13.8439 17.1115 14.0349 17.4515 14.3749L24.6988 21.6307C24.8704 21.7972 25.0068 21.9964 25.1 22.2166C25.1931 22.4368 25.2411 22.6735 25.2411 22.9126C25.2411 23.1517 25.1931 23.3884 25.1 23.6086C25.0068 23.8288 24.8704 24.028 24.6988 24.1945C24.5314 24.3635 24.3315 24.4968 24.1112 24.5864C23.8908 24.676 23.6546 24.7201 23.4168 24.7159Z" fill="#17262F"></path><path d="M84.3347 85.6338C83.8545 85.6314 83.3944 85.4413 83.0527 85.1039L75.3013 77.3439C74.9613 77.0039 74.7703 76.5428 74.7703 76.062C74.7703 75.5811 74.9613 75.12 75.3013 74.78C75.6413 74.44 76.1024 74.249 76.5832 74.249C77.064 74.249 77.5252 74.44 77.8651 74.78L85.6252 82.5315C85.8755 82.7848 86.0456 83.1063 86.1142 83.4557C86.1829 83.8051 86.147 84.167 86.0112 84.4962C85.8753 84.8254 85.6454 85.1072 85.3503 85.3065C85.0552 85.5058 84.7079 85.6137 84.3518 85.6167L84.3347 85.6338Z" fill="#17262F"></path><path d="M70.2931 47.0472C69.5859 43.0368 67.707 39.3254 64.8935 36.3813C62.08 33.4371 58.4577 31.3918 54.4834 30.5034C50.5091 29.6149 46.3608 29.923 42.5614 31.3889C38.762 32.8547 35.4816 35.4127 33.1339 38.7403L32.3477 35.9884C32.282 35.7605 32.1721 35.5479 32.0243 35.3625C31.8764 35.1771 31.6935 35.0227 31.486 34.908C31.2785 34.7934 31.0504 34.7207 30.8148 34.6942C30.5792 34.6676 30.3407 34.6878 30.1128 34.7534C29.885 34.8191 29.6723 34.929 29.487 35.0768C29.3016 35.2247 29.1472 35.4076 29.0325 35.6151C28.9178 35.8226 28.8451 36.0507 28.8186 36.2863C28.7921 36.5219 28.8122 36.7604 28.8779 36.9883L30.8692 43.9449C30.9234 44.1145 31.001 44.2756 31.0999 44.4235C31.1982 44.5547 31.3131 44.6725 31.4418 44.7739L31.5016 44.8252C31.6147 44.9114 31.7382 44.9832 31.8691 45.0389H31.946H32.0486C32.2088 45.09 32.376 45.116 32.5442 45.1158H32.8006L39.1676 44.2612C39.6425 44.1977 40.0727 43.9482 40.3636 43.5675C40.6544 43.1869 40.7822 42.7063 40.7188 42.2314C40.6553 41.7566 40.4058 41.3264 40.0251 41.0355C39.6445 40.7446 39.1639 40.6168 38.689 40.6803L35.8004 41.0648C37.6819 38.2363 40.3677 36.0364 43.5115 34.7489C46.6552 33.4614 50.1127 33.1455 53.4377 33.8418C56.7627 34.538 59.8029 36.2146 62.166 38.6553C64.529 41.0959 66.1066 44.1886 66.6952 47.5344C66.7677 47.9532 66.9858 48.3329 67.3111 48.6066C67.6363 48.8802 68.0477 49.0302 68.4728 49.03H68.789C69.2464 48.956 69.6579 48.7089 69.9379 48.3397C70.218 47.9705 70.3452 47.5077 70.2931 47.0472Z" fill="#17262F"></path><path d="M70.8486 64.4048L68.8574 57.4481C68.7381 57.0318 68.473 56.6723 68.1105 56.4353C67.748 56.1984 67.3124 56.0998 66.8832 56.1576L60.5162 57.0122C60.2811 57.0436 60.0544 57.1211 59.8492 57.2401C59.644 57.3591 59.4643 57.5174 59.3202 57.7058C59.0293 58.0865 58.9016 58.5671 58.965 59.042C59.0285 59.5168 59.278 59.947 59.6587 60.2379C60.0393 60.5288 60.5199 60.6566 60.9948 60.5931L64.0458 60.1914C62.1359 63.0003 59.4284 65.1725 56.2723 66.4281C53.1162 67.6836 49.6564 67.9648 46.339 67.2355C43.0215 66.5062 39.9987 64.7997 37.6603 62.3362C35.3218 59.8727 33.775 56.7651 33.2194 53.4142C33.1807 53.1802 33.0962 52.9561 32.9709 52.7548C32.8456 52.5534 32.6818 52.3787 32.489 52.2406C32.2961 52.1025 32.078 52.0038 31.847 51.95C31.616 51.8962 31.3766 51.8885 31.1426 51.9272C30.9086 51.9659 30.6845 52.0503 30.4832 52.1757C30.2818 52.301 30.1071 52.4647 29.969 52.6576C29.8309 52.8504 29.7322 53.0686 29.6784 53.2996C29.6246 53.5306 29.6169 53.7699 29.6556 54.0039C30.3168 58.0141 32.1488 61.7394 34.9212 64.7114C37.6936 67.6834 41.2827 69.7695 45.2374 70.7075C49.192 71.6455 53.3357 71.3934 57.1475 69.9831C60.9593 68.5728 64.2692 66.067 66.661 62.781L67.413 65.3961C67.5183 65.7695 67.7418 66.0988 68.0499 66.3345C68.3581 66.5702 68.7343 66.6998 69.1223 66.7037C69.29 66.7063 69.4572 66.6832 69.618 66.6353C70.0767 66.5023 70.4639 66.1927 70.6946 65.7745C70.9253 65.3564 70.9807 64.8637 70.8486 64.4048Z" fill="#17262F"></path></g><defs><clipPath id="clip0_5678_33127"><rect width="99.9829" height="100" fill="white"></rect></clipPath></defs></svg>