<svg xmlns="http://www.w3.org/2000/svg" width="107" height="110" viewBox="0 0 107 110" fill="none"><g clip-path="url(#clip0_5678_15714)"><path d="M106.471 110H82.5241C82.4782 110 82.4328 109.991 82.3906 109.973C82.3483 109.955 82.3101 109.929 82.2782 109.896C82.2463 109.863 82.2213 109.824 82.2047 109.781C82.1882 109.738 82.1804 109.693 82.1818 109.647C82.1818 109.556 82.2179 109.469 82.2821 109.405C82.3462 109.341 82.4333 109.305 82.5241 109.305H106.118V99.9999H82.5241C82.4333 99.9999 82.3462 99.9638 82.2821 99.8996C82.2179 99.8354 82.1818 99.7484 82.1818 99.6576C82.1804 99.6118 82.1882 99.5661 82.2047 99.5234C82.2213 99.4806 82.2463 99.4416 82.2782 99.4087C82.3101 99.3758 82.3483 99.3496 82.3906 99.3317C82.4328 99.3139 82.4782 99.3047 82.5241 99.3047H106.471C106.516 99.3047 106.562 99.3139 106.604 99.3317C106.646 99.3496 106.685 99.3758 106.716 99.4087C106.748 99.4416 106.773 99.4806 106.79 99.5234C106.806 99.5661 106.814 99.6118 106.813 99.6576V109.647C106.814 109.693 106.806 109.738 106.79 109.781C106.773 109.824 106.748 109.863 106.716 109.896C106.685 109.929 106.646 109.955 106.604 109.973C106.562 109.991 106.516 110 106.471 110Z" fill="#17262F"></path><path d="M59.2941 8.97327H42.6096C42.5638 8.97329 42.5184 8.9641 42.4761 8.94623C42.4339 8.92837 42.3957 8.9022 42.3638 8.86928C42.3318 8.83635 42.3069 8.79735 42.2903 8.75459C42.2737 8.71182 42.2659 8.66616 42.2674 8.62033C42.2674 8.52956 42.3034 8.44251 42.3676 8.37832C42.4318 8.31414 42.5189 8.27808 42.6096 8.27808H58.9412V3.80749H42.6096C42.5638 3.80751 42.5184 3.79832 42.4761 3.78046C42.4339 3.76259 42.3957 3.73642 42.3638 3.7035C42.3318 3.67058 42.3069 3.63157 42.2903 3.58881C42.2737 3.54604 42.2659 3.50039 42.2674 3.45455C42.2674 3.36378 42.3034 3.27673 42.3676 3.21255C42.4318 3.14836 42.5189 3.1123 42.6096 3.1123H59.2941C59.3849 3.1123 59.4719 3.14836 59.5361 3.21255C59.6003 3.27673 59.6364 3.36378 59.6364 3.45455V8.62033C59.6378 8.66616 59.63 8.71182 59.6134 8.75459C59.5969 8.79735 59.5719 8.83635 59.54 8.86928C59.5081 8.9022 59.4698 8.92837 59.4276 8.94623C59.3854 8.9641 59.34 8.97329 59.2941 8.97327Z" fill="#17262F"></path><path d="M87.0481 7.59362H60.7166C60.6348 7.57923 60.5608 7.5365 60.5074 7.47293C60.4541 7.40936 60.4248 7.32902 60.4248 7.24603C60.4248 7.16304 60.4541 7.0827 60.5074 7.01913C60.5608 6.95556 60.6348 6.91283 60.7166 6.89844H87.0481C87.1299 6.91283 87.2039 6.95556 87.2573 7.01913C87.3106 7.0827 87.3399 7.16304 87.3399 7.24603C87.3399 7.32902 87.3106 7.40936 87.2573 7.47293C87.2039 7.5365 87.1299 7.57923 87.0481 7.59362Z" fill="#17262F"></path><path d="M87.123 5.18705H60.7166C60.6707 5.18708 60.6253 5.17788 60.5831 5.16002C60.5408 5.14215 60.5026 5.11598 60.4707 5.08306C60.4388 5.05014 60.4138 5.01114 60.3972 4.96837C60.3807 4.92561 60.3729 4.87995 60.3743 4.83411C60.3743 4.74334 60.4104 4.65629 60.4746 4.59211C60.5388 4.52792 60.6258 4.49187 60.7166 4.49187H87.123C87.1688 4.49043 87.2145 4.49823 87.2572 4.51478C87.3 4.53134 87.339 4.55632 87.3719 4.58825C87.4049 4.62017 87.431 4.65839 87.4489 4.70062C87.4668 4.74286 87.476 4.78825 87.4759 4.83411C87.4759 4.92772 87.4387 5.01749 87.3726 5.08368C87.3064 5.14987 87.2166 5.18705 87.123 5.18705Z" fill="#17262F"></path><path d="M37.3048 12.0856H13.9037C12.3011 12.0856 10.7641 11.4489 9.63085 10.3157C8.49761 9.18243 7.86096 7.64543 7.86096 6.04278C7.86096 4.44014 8.49761 2.90313 9.63085 1.76989C10.7641 0.636648 12.3011 0 13.9037 0L37.3048 0C38.9075 0 40.4445 0.636648 41.5777 1.76989C42.7109 2.90313 43.3476 4.44014 43.3476 6.04278C43.3476 7.64543 42.7109 9.18243 41.5777 10.3157C40.4445 11.4489 38.9075 12.0856 37.3048 12.0856ZM13.9037 0.695187C12.4855 0.695187 11.1253 1.25859 10.1224 2.26146C9.11955 3.26433 8.55615 4.62451 8.55615 6.04278C8.55615 7.46105 9.11955 8.82123 10.1224 9.8241C11.1253 10.827 12.4855 11.3904 13.9037 11.3904H37.3048C38.7231 11.3904 40.0833 10.827 41.0861 9.8241C42.089 8.82123 42.6524 7.46105 42.6524 6.04278C42.6524 4.62451 42.089 3.26433 41.0861 2.26146C40.0833 1.25859 38.7231 0.695187 37.3048 0.695187H13.9037Z" fill="#17262F"></path><path d="M37.0481 10.3315C36.202 10.3315 35.3749 10.0806 34.6714 9.61056C33.9678 9.14048 33.4195 8.47233 33.0957 7.69062C32.7719 6.9089 32.6872 6.04872 32.8523 5.21886C33.0173 4.38899 33.4248 3.62671 34.0231 3.02841C34.6214 2.43011 35.3836 2.02267 36.2135 1.85759C37.0434 1.69252 37.9036 1.77724 38.6853 2.10104C39.467 2.42484 40.1351 2.97317 40.6052 3.6767C41.0753 4.38022 41.3262 5.20734 41.3262 6.05347C41.3262 7.18808 40.8755 8.27623 40.0732 9.07852C39.2709 9.88082 38.1827 10.3315 37.0481 10.3315ZM37.0481 2.44919C36.3374 2.44919 35.6426 2.65995 35.0516 3.05482C34.4607 3.44969 34.0001 4.01093 33.7281 4.66757C33.4561 5.32421 33.3849 6.04676 33.5236 6.74385C33.6623 7.44093 34.0045 8.08125 34.5071 8.58382C35.0097 9.08639 35.65 9.42865 36.3471 9.56731C37.0441 9.70597 37.7667 9.6348 38.4233 9.36281C39.08 9.09082 39.6412 8.63022 40.0361 8.03926C40.4309 7.4483 40.6417 6.75352 40.6417 6.04277C40.6417 5.0897 40.2631 4.17565 39.5892 3.50173C38.9152 2.8278 38.0012 2.44919 37.0481 2.44919Z" fill="#17262F"></path><path d="M37.0481 7.63639C36.7329 7.63639 36.4248 7.54292 36.1628 7.36782C35.9007 7.19271 35.6965 6.94383 35.5758 6.65264C35.4552 6.36145 35.4237 6.04103 35.4852 5.73191C35.5467 5.42278 35.6984 5.13884 35.9213 4.91597C36.1442 4.6931 36.4281 4.54133 36.7372 4.47984C37.0464 4.41835 37.3668 4.44991 37.658 4.57052C37.9492 4.69114 38.198 4.89539 38.3731 5.15746C38.5482 5.41952 38.6417 5.72762 38.6417 6.0428C38.6389 6.46458 38.4701 6.86829 38.1719 7.16654C37.8736 7.46479 37.4699 7.63358 37.0481 7.63639ZM37.0481 5.14441C36.8704 5.14441 36.6967 5.1971 36.549 5.29581C36.4013 5.39453 36.2861 5.53484 36.2181 5.699C36.1501 5.86316 36.1323 6.0438 36.167 6.21807C36.2017 6.39234 36.2872 6.55242 36.4129 6.67806C36.5385 6.80371 36.6986 6.88927 36.8729 6.92394C37.0471 6.9586 37.2278 6.94081 37.3919 6.87281C37.5561 6.80481 37.6964 6.68967 37.7951 6.54192C37.8938 6.39418 37.9465 6.22049 37.9465 6.0428C37.9437 5.8054 37.8482 5.57849 37.6803 5.41061C37.5124 5.24273 37.2855 5.14718 37.0481 5.14441Z" fill="#17262F"></path><path d="M29.9465 10.3314H21.2941C20.8192 10.3316 20.3631 10.1459 20.0234 9.81413C19.6836 9.48235 19.4871 9.0308 19.4759 8.55605V3.57209C19.4759 3.08988 19.6675 2.62741 20.0085 2.28644C20.3494 1.94546 20.8119 1.75391 21.2941 1.75391H29.9465C30.4269 1.75673 30.8866 1.94954 31.2253 2.29021C31.5639 2.63088 31.754 3.09172 31.754 3.57209V8.55605C31.7429 9.02896 31.5479 9.47892 31.2104 9.8104C30.8729 10.1419 30.4196 10.3288 29.9465 10.3314ZM21.2941 2.44909C21.1492 2.44184 21.0044 2.46414 20.8684 2.51463C20.7324 2.56512 20.6081 2.64275 20.503 2.7428C20.398 2.84284 20.3144 2.96321 20.2573 3.09659C20.2003 3.22996 20.1709 3.37355 20.1711 3.51861V8.55605C20.1709 8.70111 20.2003 8.8447 20.2573 8.97807C20.3144 9.11145 20.398 9.23182 20.503 9.33186C20.6081 9.43191 20.7324 9.50954 20.8684 9.56003C21.0044 9.61052 21.1492 9.63282 21.2941 9.62556H29.9465C30.2302 9.62556 30.5022 9.51288 30.7028 9.31231C30.9034 9.11174 31.016 8.8397 31.016 8.55605V3.57209C31.016 3.28843 30.9034 3.0164 30.7028 2.81582C30.5022 2.61525 30.2302 2.50257 29.9465 2.50257L21.2941 2.44909Z" fill="#17262F"></path><path d="M55.4011 62.813C55.3552 62.8131 55.3098 62.8039 55.2676 62.786C55.2253 62.7681 55.1871 62.742 55.1552 62.7091C55.1233 62.6761 55.0983 62.6371 55.0817 62.5944C55.0652 62.5516 55.0574 62.5059 55.0588 62.4601V54.7061H39.0909V62.4601C39.0923 62.5059 39.0845 62.5516 39.068 62.5944C39.0514 62.6371 39.0265 62.6761 38.9945 62.7091C38.9626 62.742 38.9244 62.7681 38.8822 62.786C38.8399 62.8039 38.7945 62.8131 38.7487 62.813C38.6551 62.813 38.5653 62.7759 38.4991 62.7097C38.4329 62.6435 38.3957 62.5537 38.3957 62.4601V54.3532C38.3957 54.3073 38.4049 54.2619 38.4228 54.2197C38.4406 54.1774 38.4668 54.1392 38.4997 54.1073C38.5326 54.0754 38.5716 54.0504 38.6144 54.0338C38.6572 54.0173 38.7028 54.0095 38.7487 54.0109H55.4011C55.4469 54.0095 55.4926 54.0173 55.5353 54.0338C55.5781 54.0504 55.6171 54.0754 55.65 54.1073C55.6829 54.1392 55.7091 54.1774 55.727 54.2197C55.7448 54.2619 55.754 54.3073 55.754 54.3532V62.4601C55.754 62.5537 55.7168 62.6435 55.6506 62.7097C55.5844 62.7759 55.4947 62.813 55.4011 62.813Z" fill="#17262F"></path><path d="M43.1979 53.476C43.152 53.4774 43.1064 53.4696 43.0636 53.453C43.0208 53.4365 42.9818 53.4115 42.9489 53.3796C42.916 53.3476 42.8898 53.3094 42.872 53.2672C42.8541 53.225 42.8449 53.1796 42.8449 53.1337V32.0856C42.8449 32.0397 42.8541 31.9943 42.872 31.9521C42.8898 31.9099 42.916 31.8716 42.9489 31.8397C42.9818 31.8078 43.0208 31.7828 43.0636 31.7662C43.1064 31.7497 43.152 31.7419 43.1979 31.7433C43.2886 31.7433 43.3757 31.7794 43.4399 31.8436C43.5041 31.9078 43.5401 31.9948 43.5401 32.0856V53.1551C43.5347 53.2421 43.4962 53.3238 43.4326 53.3834C43.369 53.443 43.285 53.4761 43.1979 53.476Z" fill="#17262F"></path><path d="M50.9626 53.4758C50.9167 53.4773 50.8711 53.4695 50.8283 53.4529C50.7855 53.4364 50.7465 53.4114 50.7136 53.3794C50.6807 53.3475 50.6545 53.3093 50.6367 53.2671C50.6188 53.2248 50.6096 53.1794 50.6096 53.1336V32.0855C50.6096 32.0396 50.6188 31.9942 50.6367 31.952C50.6545 31.9097 50.6807 31.8715 50.7136 31.8396C50.7465 31.8077 50.7855 31.7827 50.8283 31.7661C50.8711 31.7496 50.9167 31.7418 50.9626 31.7432C51.0101 31.7387 51.0581 31.7443 51.1034 31.7594C51.1487 31.7746 51.1903 31.7991 51.2256 31.8314C51.2608 31.8636 51.289 31.9029 51.3081 31.9466C51.3273 31.9904 51.3371 32.0377 51.3369 32.0855V53.155C51.3342 53.2009 51.3223 53.2459 51.3019 53.2871C51.2814 53.3283 51.2529 53.365 51.218 53.395C51.183 53.425 51.1424 53.4475 51.0985 53.4614C51.0546 53.4753 51.0084 53.4802 50.9626 53.4758Z" fill="#17262F"></path><path d="M70.8342 30.2355H51.8289C51.783 30.2369 51.7374 30.2291 51.6946 30.2126C51.6518 30.196 51.6128 30.171 51.5799 30.1391C51.547 30.1072 51.5208 30.069 51.503 30.0267C51.4851 29.9845 51.4759 29.9391 51.4759 29.8932C51.4759 29.7996 51.5131 29.7098 51.5793 29.6437C51.6455 29.5775 51.7353 29.5403 51.8289 29.5403H70.492V25.0697H50.9626C50.9167 25.0711 50.8711 25.0633 50.8283 25.0468C50.7855 25.0302 50.7465 25.0052 50.7136 24.9733C50.6807 24.9414 50.6545 24.9032 50.6367 24.8609C50.6188 24.8187 50.6096 24.7733 50.6096 24.7275C50.6096 24.6338 50.6468 24.5441 50.713 24.4779C50.7792 24.4117 50.869 24.3745 50.9626 24.3745H70.8342C70.9278 24.3745 71.0176 24.4117 71.0838 24.4779C71.15 24.5441 71.1872 24.6338 71.1872 24.7275V29.9467C71.1741 30.0298 71.1309 30.1052 71.0658 30.1584C71.0007 30.2117 70.9183 30.2391 70.8342 30.2355Z" fill="#17262F"></path><path d="M87.754 28.8768H70.9412C70.8504 28.8768 70.7634 28.8408 70.6992 28.7766C70.635 28.7124 70.5989 28.6254 70.5989 28.5346C70.5975 28.4887 70.6053 28.4431 70.6219 28.4003C70.6384 28.3576 70.6634 28.3186 70.6953 28.2856C70.7272 28.2527 70.7655 28.2265 70.8077 28.2087C70.8499 28.1908 70.8953 28.1816 70.9412 28.1816H87.754C87.7999 28.1816 87.8453 28.1908 87.8875 28.2087C87.9297 28.2265 87.968 28.2527 87.9999 28.2856C88.0318 28.3186 88.0568 28.3576 88.0733 28.4003C88.0899 28.4431 88.0977 28.4887 88.0963 28.5346C88.0963 28.6254 88.0602 28.7124 87.996 28.7766C87.9318 28.8408 87.8448 28.8768 87.754 28.8768Z" fill="#17262F"></path><path d="M87.6257 26.4491H70.9412C70.8504 26.4491 70.7634 26.413 70.6992 26.3489C70.635 26.2847 70.5989 26.1976 70.5989 26.1068C70.5975 26.061 70.6053 26.0154 70.6219 25.9726C70.6384 25.9298 70.6634 25.8908 70.6953 25.8579C70.7272 25.825 70.7655 25.7988 70.8077 25.7809C70.8499 25.7631 70.8953 25.7539 70.9412 25.7539H87.6257C87.7193 25.7539 87.809 25.7911 87.8752 25.8573C87.9414 25.9235 87.9786 26.0132 87.9786 26.1068C87.9786 26.1527 87.9694 26.1981 87.9516 26.2403C87.9337 26.2826 87.9075 26.3208 87.8746 26.3527C87.8417 26.3846 87.8027 26.4096 87.7599 26.4262C87.7172 26.4427 87.6715 26.4505 87.6257 26.4491Z" fill="#17262F"></path><path d="M95.9251 57.3582C95.8315 57.3582 95.7418 57.321 95.6756 57.2548C95.6094 57.1887 95.5722 57.0989 95.5722 57.0053V39.893C95.5722 39.7994 95.6094 39.7096 95.6756 39.6434C95.7418 39.5772 95.8315 39.54 95.9251 39.54C95.971 39.54 96.0164 39.5492 96.0586 39.5671C96.1009 39.5849 96.1391 39.6111 96.171 39.644C96.2029 39.677 96.2279 39.716 96.2445 39.7587C96.261 39.8015 96.2688 39.8471 96.2674 39.893V57.0053C96.2688 57.0511 96.261 57.0968 96.2445 57.1395C96.2279 57.1823 96.2029 57.2213 96.171 57.2542C96.1391 57.2871 96.1009 57.3133 96.0586 57.3312C96.0164 57.349 95.971 57.3582 95.9251 57.3582Z" fill="#17262F"></path><path d="M90.7594 57.3582C90.6658 57.3582 90.576 57.321 90.5098 57.2548C90.4436 57.1887 90.4064 57.0989 90.4064 57.0053V39.893C90.4064 39.7994 90.4436 39.7096 90.5098 39.6434C90.576 39.5772 90.6658 39.54 90.7594 39.54C90.8052 39.54 90.8506 39.5492 90.8928 39.5671C90.9351 39.5849 90.9733 39.6111 91.0052 39.644C91.0371 39.677 91.0621 39.716 91.0787 39.7587C91.0952 39.8015 91.103 39.8471 91.1016 39.893V57.0053C91.103 57.0511 91.0952 57.0968 91.0787 57.1395C91.0621 57.1823 91.0371 57.2213 91.0052 57.2542C90.9733 57.2871 90.9351 57.3133 90.8928 57.3312C90.8506 57.349 90.8052 57.3582 90.7594 57.3582Z" fill="#17262F"></path><path d="M92.139 70.2141C92.0932 70.2155 92.0475 70.2077 92.0048 70.1912C91.962 70.1746 91.923 70.1496 91.8901 70.1177C91.8572 70.0858 91.831 70.0476 91.8131 70.0053C91.7953 69.9631 91.7861 69.9177 91.7861 69.8718V58.2355C91.7861 58.1896 91.7953 58.1442 91.8131 58.102C91.831 58.0598 91.8572 58.0215 91.8901 57.9896C91.923 57.9577 91.962 57.9327 92.0048 57.9162C92.0475 57.8996 92.0932 57.8918 92.139 57.8932C92.2298 57.8932 92.3169 57.9293 92.381 57.9935C92.4452 58.0577 92.4813 58.1447 92.4813 58.2355V69.8718C92.4813 69.9626 92.4452 70.0497 92.381 70.1138C92.3169 70.178 92.2298 70.2141 92.139 70.2141Z" fill="#17262F"></path><path d="M94.5455 70.2141C94.4996 70.2155 94.454 70.2077 94.4112 70.1912C94.3684 70.1746 94.3294 70.1496 94.2965 70.1177C94.2636 70.0858 94.2374 70.0476 94.2195 70.0053C94.2017 69.9631 94.1925 69.9177 94.1925 69.8718V58.2355C94.1925 58.1896 94.2017 58.1442 94.2195 58.102C94.2374 58.0598 94.2636 58.0215 94.2965 57.9896C94.3294 57.9577 94.3684 57.9327 94.4112 57.9162C94.454 57.8996 94.4996 57.8918 94.5455 57.8932C94.6362 57.8932 94.7233 57.9293 94.7875 57.9935C94.8516 58.0577 94.8877 58.1447 94.8877 58.2355V69.8718C94.8877 69.9626 94.8516 70.0497 94.7875 70.1138C94.7233 70.178 94.6362 70.2141 94.5455 70.2141Z" fill="#17262F"></path><path d="M5.62567 44.9197C5.57978 44.9184 5.53462 44.9078 5.49289 44.8887C5.45116 44.8695 5.41372 44.8422 5.38278 44.8082C5.35185 44.7743 5.32806 44.7345 5.31282 44.6912C5.29759 44.6479 5.29123 44.6019 5.29412 44.5561L7.1123 8.60958C7.11503 8.5632 7.12688 8.51782 7.14719 8.47603C7.16749 8.43425 7.19585 8.39688 7.23062 8.36608C7.2654 8.33527 7.30592 8.31164 7.34985 8.29653C7.39378 8.28142 7.44027 8.27513 7.48663 8.27803C7.53161 8.28075 7.5756 8.29233 7.61609 8.3121C7.65658 8.33186 7.69277 8.35943 7.72258 8.39321C7.75239 8.427 7.77524 8.46634 7.78981 8.50897C7.80438 8.55161 7.81039 8.5967 7.80749 8.64167L5.96792 44.631C5.95508 44.7122 5.91342 44.7861 5.85058 44.8391C5.78773 44.8921 5.70789 44.9208 5.62567 44.9197Z" fill="#17262F"></path><path d="M22.7594 45.1553C22.671 45.1556 22.5858 45.1229 22.5205 45.0635C22.4551 45.0041 22.4144 44.9223 22.4064 44.8344L20.8021 13.3585C20.7992 13.3135 20.8052 13.2684 20.8198 13.2258C20.8344 13.1831 20.8572 13.1438 20.887 13.11C20.9168 13.0762 20.953 13.0487 20.9935 13.0289C21.034 13.0091 21.078 12.9976 21.123 12.9948C21.2159 12.9917 21.3066 13.0244 21.3762 13.0861C21.4458 13.1477 21.4892 13.2337 21.4973 13.3264L23.1016 44.7916C23.1045 44.8366 23.0985 44.8817 23.0839 44.9243C23.0693 44.9669 23.0465 45.0063 23.0167 45.0401C22.9869 45.0739 22.9507 45.1014 22.9102 45.1212C22.8697 45.141 22.8257 45.1525 22.7807 45.1553H22.7594Z" fill="#17262F"></path><path d="M14.1818 10.0533C13.3695 10.0533 12.5755 9.81239 11.9001 9.36111C11.2247 8.90984 10.6983 8.26842 10.3875 7.51797C10.0766 6.76752 9.99531 5.94175 10.1538 5.14508C10.3122 4.34841 10.7034 3.61662 11.2778 3.04226C11.8521 2.46789 12.5839 2.07674 13.3806 1.91827C14.1773 1.7598 15.003 1.84114 15.7535 2.15198C16.5039 2.46283 17.1453 2.98922 17.5966 3.66461C18.0479 4.33999 18.2888 5.13403 18.2888 5.94631C18.2859 7.03467 17.8523 8.07765 17.0827 8.84724C16.3132 9.61684 15.2702 10.0504 14.1818 10.0533ZM14.1818 2.56663C13.507 2.56663 12.8474 2.76673 12.2863 3.14162C11.7253 3.51651 11.288 4.04935 11.0298 4.67277C10.7715 5.29619 10.704 5.98218 10.8356 6.644C10.9672 7.30581 11.2922 7.91373 11.7693 8.39088C12.2465 8.86802 12.8544 9.19296 13.5162 9.3246C14.178 9.45625 14.864 9.38868 15.4874 9.13046C16.1109 8.87223 16.6437 8.43493 17.0186 7.87387C17.3935 7.31281 17.5936 6.65318 17.5936 5.97839C17.5978 5.52766 17.5127 5.08056 17.3431 4.66291C17.1736 4.24527 16.9229 3.86536 16.6057 3.54514C16.2885 3.22493 15.9109 2.97074 15.4949 2.79728C15.0789 2.62382 14.6326 2.53452 14.1818 2.53454V2.56663Z" fill="#17262F"></path><path d="M14.1818 7.73271C13.8476 7.73271 13.5209 7.6336 13.243 7.44792C12.9651 7.26224 12.7485 6.99832 12.6206 6.68954C12.4927 6.38076 12.4592 6.04099 12.5244 5.7132C12.5896 5.3854 12.7506 5.0843 12.9869 4.84797C13.2232 4.61164 13.5243 4.4507 13.8521 4.3855C14.1799 4.3203 14.5197 4.35376 14.8285 4.48166C15.1373 4.60956 15.4012 4.82615 15.5869 5.10404C15.7725 5.38194 15.8717 5.70865 15.8717 6.04287C15.8717 6.49104 15.6936 6.92086 15.3767 7.23776C15.0598 7.55467 14.63 7.73271 14.1818 7.73271ZM14.1818 5.04821C13.9851 5.04821 13.7928 5.10655 13.6292 5.21584C13.4656 5.32514 13.3382 5.48048 13.2629 5.66223C13.1876 5.84398 13.1679 6.04397 13.2063 6.23691C13.2447 6.42986 13.3394 6.60709 13.4785 6.74619C13.6176 6.8853 13.7948 6.98003 13.9878 7.01841C14.1807 7.05679 14.3807 7.03709 14.5625 6.96181C14.7442 6.88652 14.8995 6.75904 15.0088 6.59547C15.1181 6.4319 15.1765 6.23959 15.1765 6.04287C15.1765 5.91225 15.1507 5.78291 15.1008 5.66223C15.0508 5.54155 14.9775 5.4319 14.8851 5.33954C14.7928 5.24718 14.6831 5.17391 14.5625 5.12393C14.4418 5.07394 14.3124 5.04821 14.1818 5.04821Z" fill="#17262F"></path><path d="M28.0214 100H0.352941C0.307105 100.002 0.261448 99.9939 0.218682 99.9773C0.175917 99.9608 0.136915 99.9358 0.103993 99.9039C0.0710709 99.8719 0.0449005 99.8337 0.0270361 99.7915C0.00917169 99.7492 -2.23568e-05 99.7039 4.08235e-08 99.658V57.6794C1.30718e-08 55.817 0.366823 53.9728 1.07953 52.2522C1.79223 50.5316 2.83685 48.9682 4.15376 47.6513C5.47066 46.3344 7.03405 45.2898 8.75467 44.5771C10.4753 43.8644 12.3194 43.4976 14.1818 43.4976C16.0442 43.4976 17.8883 43.8644 19.609 44.5771C21.3296 45.2898 22.893 46.3344 24.2099 47.6513C25.5268 48.9682 26.5714 50.5316 27.2841 52.2522C27.9968 53.9728 28.3636 55.817 28.3636 57.6794V99.658C28.3636 99.7488 28.3276 99.8358 28.2634 99.9C28.1992 99.9642 28.1122 100 28.0214 100ZM0.695187 99.305H27.6684V57.6794C27.6684 54.1025 26.2475 50.6721 23.7183 48.1429C21.1891 45.6137 17.7587 44.1927 14.1818 44.1927C10.6049 44.1927 7.17456 45.6137 4.64533 48.1429C2.1161 50.6721 0.695187 54.1025 0.695187 57.6794V99.305Z" fill="#17262F"></path><path d="M14.1818 63.7862C12.5621 63.7862 11.0088 63.1428 9.86354 61.9976C8.71827 60.8523 8.07486 59.299 8.07486 57.6793C8.14083 56.1025 8.81365 54.6121 9.95271 53.5197C11.0918 52.4273 12.6089 51.8174 14.1872 51.8174C15.7654 51.8174 17.2825 52.4273 18.4216 53.5197C19.5607 54.6121 20.2335 56.1025 20.2995 57.6793C20.2938 59.2991 19.6471 60.8507 18.5008 61.9951C17.3544 63.1395 15.8016 63.7834 14.1818 63.7862ZM8.77005 57.7542C8.77005 59.1895 9.34021 60.566 10.3551 61.5809C11.37 62.5958 12.7465 63.1659 14.1818 63.1659C15.6171 63.1659 16.9936 62.5958 18.0085 61.5809C19.0234 60.566 19.5936 59.1895 19.5936 57.7542V57.6793C19.5936 56.244 19.0234 54.8675 18.0085 53.8526C16.9936 52.8377 15.6171 52.2675 14.1818 52.2675C12.7465 52.2675 11.37 52.8377 10.3551 53.8526C9.34021 54.8675 8.77005 56.244 8.77005 57.6793V57.7542Z" fill="#17262F"></path><path d="M14.1818 59.7966C13.7588 59.7966 13.3452 59.6712 12.9934 59.4361C12.6417 59.2011 12.3675 58.867 12.2056 58.4762C12.0437 58.0853 12.0014 57.6552 12.0839 57.2403C12.1664 56.8254 12.3701 56.4442 12.6693 56.1451C12.9684 55.8459 13.3496 55.6422 13.7645 55.5597C14.1795 55.4771 14.6095 55.5195 15.0004 55.6814C15.3913 55.8433 15.7253 56.1174 15.9604 56.4692C16.1954 56.821 16.3209 57.2345 16.3209 57.6576C16.3209 58.2249 16.0955 58.769 15.6944 59.1701C15.2932 59.5713 14.7491 59.7966 14.1818 59.7966ZM14.1818 56.2565C13.9005 56.2565 13.6255 56.34 13.3915 56.4963C13.1576 56.6526 12.9753 56.8747 12.8676 57.1346C12.76 57.3946 12.7318 57.6806 12.7867 57.9565C12.8416 58.2324 12.9771 58.4859 13.176 58.6848C13.3749 58.8838 13.6284 59.0192 13.9043 59.0741C14.1802 59.129 14.4663 59.1008 14.7262 58.9932C14.9861 58.8855 15.2083 58.7032 15.3646 58.4693C15.5209 58.2353 15.6043 57.9603 15.6043 57.679C15.6043 57.3017 15.4544 56.9399 15.1877 56.6732C14.9209 56.4064 14.5591 56.2565 14.1818 56.2565Z" fill="#17262F"></path><path d="M33.4759 97.7432C33.3852 97.7432 33.2981 97.7071 33.2339 97.643C33.1698 97.5788 33.1337 97.4917 33.1337 97.401V75.3796C33.1337 71.6183 34.6279 68.0111 37.2875 65.3515C39.9471 62.6919 43.5543 61.1978 47.3155 61.1978C51.0768 61.1978 54.684 62.6919 57.3436 65.3515C60.0032 68.0111 61.4973 71.6183 61.4973 75.3796V92.4919C61.4829 92.5736 61.4402 92.6477 61.3766 92.701C61.3131 92.7544 61.2327 92.7836 61.1497 92.7836C61.0667 92.7836 60.9864 92.7544 60.9228 92.701C60.8593 92.6477 60.8165 92.5736 60.8021 92.4919V75.3796C60.8021 71.8027 59.3812 68.3723 56.852 65.8431C54.3228 63.3139 50.8924 61.8929 47.3155 61.8929C43.7386 61.8929 40.3083 63.3139 37.779 65.8431C35.2498 68.3723 33.8289 71.8027 33.8289 75.3796V97.401C33.8261 97.4927 33.7877 97.5797 33.7218 97.6436C33.6559 97.7075 33.5677 97.7432 33.4759 97.7432Z" fill="#17262F"></path><path d="M47.3155 81.4869C45.6958 81.4869 44.1425 80.8434 42.9972 79.6982C41.852 78.5529 41.2086 76.9996 41.2086 75.3799C41.2086 73.7602 41.852 72.2069 42.9972 71.0616C44.1425 69.9164 45.6958 69.2729 47.3155 69.2729C48.9352 69.2729 50.4885 69.9164 51.6338 71.0616C52.7791 72.2069 53.4225 73.7602 53.4225 75.3799C53.4225 76.1819 53.2645 76.976 52.9576 77.7169C52.6507 78.4579 52.2009 79.1311 51.6338 79.6982C51.0667 80.2653 50.3935 80.7151 49.6525 81.022C48.9116 81.3289 48.1175 81.4869 47.3155 81.4869ZM41.9037 75.412C41.9037 76.8473 42.4739 78.2238 43.4888 79.2387C44.5037 80.2536 45.8802 80.8238 47.3155 80.8238C48.7508 80.8238 50.1273 80.2536 51.1422 79.2387C52.1571 78.2238 52.7273 76.8473 52.7273 75.412V75.3478C52.7273 73.9125 52.1571 72.536 51.1422 71.5211C50.1273 70.5062 48.7508 69.9361 47.3155 69.9361C45.8802 69.9361 44.5037 70.5062 43.4888 71.5211C42.4739 72.536 41.9037 73.9125 41.9037 75.3478V75.412Z" fill="#17262F"></path><path d="M47.3155 78.0749C46.793 78.0749 46.2823 77.92 45.8479 77.6297C45.4134 77.3394 45.0748 76.9269 44.8749 76.4442C44.6749 75.9614 44.6226 75.4303 44.7246 74.9178C44.8265 74.4054 45.0781 73.9347 45.4475 73.5652C45.817 73.1958 46.2877 72.9442 46.8001 72.8423C47.3126 72.7403 47.8437 72.7926 48.3264 72.9926C48.8092 73.1925 49.2217 73.5311 49.512 73.9656C49.8023 74.4 49.9572 74.9107 49.9572 75.4332C49.9572 76.1338 49.6789 76.8058 49.1835 77.3012C48.6881 77.7966 48.0161 78.0749 47.3155 78.0749ZM47.3155 73.4867C46.9305 73.4867 46.5542 73.6009 46.2341 73.8147C45.914 74.0286 45.6645 74.3326 45.5172 74.6883C45.3698 75.044 45.3313 75.4354 45.4064 75.813C45.4815 76.1906 45.6669 76.5374 45.9391 76.8096C46.2113 77.0818 46.5582 77.2672 46.9358 77.3423C47.3134 77.4174 47.7047 77.3789 48.0604 77.2316C48.4161 77.0842 48.7201 76.8348 48.934 76.5146C49.1479 76.1945 49.262 75.8182 49.262 75.4332C49.2707 75.1727 49.2266 74.9132 49.1326 74.6702C49.0385 74.4271 48.8963 74.2056 48.7145 74.0188C48.5328 73.8321 48.3152 73.684 48.0748 73.5833C47.8344 73.4827 47.5761 73.4316 47.3155 73.4332V73.4867Z" fill="#17262F"></path><path d="M50.2032 30.7809H43.9465C43.8555 30.7798 43.7681 30.7456 43.7005 30.6847C43.6378 30.6182 43.6033 30.53 43.6043 30.4387V27.2729C43.6236 26.3474 44.0081 25.467 44.6738 24.8237C45.3091 24.1931 46.1638 23.8328 47.0588 23.8184C47.5196 23.8224 47.9749 23.9192 48.3975 24.1029C48.8202 24.2867 49.2014 24.5536 49.5187 24.8879C50.1664 25.5423 50.528 26.427 50.5241 27.3478V30.4708C50.5145 30.5515 50.4773 30.6265 50.4189 30.683C50.3604 30.7395 50.2842 30.7741 50.2032 30.7809ZM44.2995 30.0643H49.861V27.2836C49.861 26.9171 49.7883 26.5543 49.6471 26.2161C49.5059 25.8779 49.2989 25.5711 49.0383 25.3134C48.7777 25.0558 48.4685 24.8524 48.1287 24.7151C47.7889 24.5778 47.4253 24.5093 47.0588 24.5135C46.324 24.5163 45.62 24.8087 45.0994 25.3273C44.5788 25.8459 44.2837 26.5488 44.2781 27.2836L44.2995 30.0643Z" fill="#17262F"></path><path d="M47.0588 29.2618C46.5694 29.169 46.1276 28.9083 45.8099 28.5246C45.4921 28.1409 45.3182 27.6584 45.3182 27.1602C45.3182 26.662 45.4921 26.1795 45.8099 25.7958C46.1276 25.4121 46.5694 25.1514 47.0588 25.0586C47.6163 25.0637 48.1497 25.2863 48.5455 25.6789C48.9498 26.0695 49.1842 26.6035 49.1979 27.1655C49.1899 27.7245 48.9634 28.2581 48.5668 28.6522C48.3695 28.8501 48.1342 29.0062 47.8751 29.1109C47.6159 29.2157 47.3383 29.267 47.0588 29.2618ZM47.0588 25.7538C46.6872 25.7538 46.3309 25.9014 46.0681 26.1641C45.8054 26.4269 45.6578 26.7833 45.6578 27.1548C45.6537 27.3397 45.6876 27.5233 45.7575 27.6944C45.8275 27.8655 45.9318 28.0204 46.0642 28.1495C46.1931 28.2828 46.3477 28.3884 46.5187 28.4601C46.6897 28.5318 46.8734 28.5681 47.0588 28.5666C47.4305 28.5653 47.7872 28.4195 48.0535 28.1602C48.2495 27.9628 48.3828 27.7119 48.4367 27.439C48.4905 27.1661 48.4626 26.8833 48.3563 26.6262C48.2501 26.3692 48.0702 26.1492 47.8394 25.994C47.6085 25.8388 47.337 25.7552 47.0588 25.7538Z" fill="#17262F"></path><path d="M93.3369 39.1338C92.3178 39.1324 91.3382 38.74 90.5999 38.0376C89.8616 37.3351 89.421 36.3761 89.369 35.3584L87.8824 6.2675C87.8497 5.53016 87.9668 4.79386 88.2264 4.10299C88.4861 3.41212 88.883 2.781 89.3932 2.2477C89.9034 1.7144 90.5164 1.28997 91.1951 1C91.8738 0.710038 92.6042 0.560547 93.3423 0.560547C94.0803 0.560547 94.8107 0.710038 95.4894 1C96.1681 1.28997 96.7811 1.7144 97.2913 2.2477C97.8015 2.781 98.1984 3.41212 98.4581 4.10299C98.7177 4.79386 98.8348 5.53016 98.8021 6.2675L97.3262 35.3584C97.2766 36.3807 96.8338 37.3444 96.0904 38.0479C95.347 38.7515 94.3604 39.1405 93.3369 39.1338ZM93.3369 1.31562C92.6986 1.31674 92.067 1.44596 91.4795 1.69562C90.8921 1.94529 90.3607 2.31032 89.9169 2.76909C89.4731 3.22787 89.1258 3.77105 88.8958 4.36647C88.6657 4.96188 88.5575 5.59741 88.5775 6.23541L90.0642 35.2942C90.0642 36.1622 90.409 36.9946 91.0227 37.6084C91.6365 38.2222 92.4689 38.567 93.3369 38.567C94.2049 38.567 95.0373 38.2222 95.6511 37.6084C96.2648 36.9946 96.6096 36.1622 96.6096 35.2942L98.107 6.20333C98.1255 5.56481 98.016 4.92904 97.7847 4.33357C97.5535 3.73811 97.2052 3.19503 96.7606 2.73641C96.3159 2.2778 95.7838 1.91294 95.1958 1.6634C94.6078 1.41386 93.9757 1.2847 93.3369 1.28354V1.31562Z" fill="#17262F"></path><path d="M93.3369 10.5777C92.5012 10.5776 91.6844 10.3291 90.9903 9.86366C90.2962 9.39822 89.7562 8.73692 89.4389 7.9638C89.1216 7.19069 89.0413 6.34069 89.2083 5.52185C89.3753 4.70301 89.782 3.9523 90.3766 3.36516C90.9713 2.77802 91.7272 2.38096 92.5481 2.22446C93.369 2.06795 94.2179 2.15907 94.9869 2.48623C95.7559 2.81338 96.4102 3.3618 96.8668 4.06177C97.3233 4.76175 97.5614 5.58166 97.5508 6.41728C97.5367 7.52559 97.0866 8.58372 96.2978 9.36246C95.5091 10.1412 94.4453 10.5778 93.3369 10.5777ZM93.3369 2.85579C92.6428 2.85584 91.9642 3.06117 91.3865 3.44596C90.8088 3.83074 90.3579 4.37778 90.0903 5.01825C89.8228 5.65873 89.7506 6.36402 89.883 7.04539C90.0153 7.72676 90.3462 8.35377 90.8341 8.84753C91.3219 9.3413 91.9449 9.67975 92.6246 9.82031C93.3043 9.96088 94.0104 9.89727 94.6541 9.63749C95.2977 9.37772 95.8502 8.93338 96.2419 8.36039C96.6337 7.78739 96.8472 7.11134 96.8556 6.41728C96.8613 5.95161 96.7744 5.48945 96.6001 5.05759C96.4258 4.62573 96.1676 4.23276 95.8403 3.90147C95.5129 3.57019 95.1231 3.30717 94.6934 3.12767C94.2637 2.94816 93.8026 2.85575 93.3369 2.85579Z" fill="#17262F"></path><path d="M93.3369 37.9037C92.7954 37.9037 92.266 37.7431 91.8158 37.4422C91.3655 37.1414 91.0146 36.7138 90.8073 36.2135C90.6001 35.7132 90.5459 35.1627 90.6515 34.6316C90.7572 34.1004 91.018 33.6126 91.4009 33.2297C91.7838 32.8468 92.2716 32.586 92.8027 32.4803C93.3339 32.3747 93.8844 32.4289 94.3847 32.6362C94.885 32.8434 95.3126 33.1943 95.6134 33.6446C95.9143 34.0948 96.0749 34.6242 96.0749 35.1657C96.0749 35.5253 96.004 35.8813 95.8664 36.2135C95.7289 36.5457 95.5272 36.8475 95.2729 37.1017C95.0187 37.356 94.7169 37.5577 94.3847 37.6953C94.0525 37.8329 93.6964 37.9037 93.3369 37.9037ZM93.3369 33.1229C92.9329 33.1229 92.5379 33.2427 92.202 33.4672C91.8661 33.6917 91.6042 34.0107 91.4496 34.384C91.295 34.7572 91.2545 35.168 91.3334 35.5642C91.4122 35.9605 91.6067 36.3245 91.8924 36.6102C92.1781 36.8959 92.5421 37.0904 92.9384 37.1692C93.3346 37.2481 93.7454 37.2076 94.1186 37.053C94.4919 36.8984 94.8109 36.6365 95.0354 36.3006C95.2599 35.9647 95.3797 35.5697 95.3797 35.1657C95.3713 34.6295 95.1523 34.1181 94.7701 33.7419C94.3879 33.3658 93.8732 33.1549 93.3369 33.155V33.1229Z" fill="#17262F"></path><path d="M93.3369 8.55591C92.9138 8.55591 92.5003 8.43046 92.1485 8.19542C91.7967 7.96038 91.5226 7.6263 91.3607 7.23545C91.1988 6.84459 91.1564 6.4145 91.239 5.99957C91.3215 5.58463 91.5252 5.20349 91.8244 4.90434C92.1235 4.60519 92.5047 4.40147 92.9196 4.31893C93.3345 4.2364 93.7646 4.27876 94.1555 4.44066C94.5463 4.60256 94.8804 4.87672 95.1154 5.22849C95.3505 5.58025 95.4759 5.99381 95.4759 6.41687C95.4759 6.98418 95.2506 7.52825 94.8494 7.9294C94.4483 8.33055 93.9042 8.55591 93.3369 8.55591ZM93.3369 4.91954C93.0459 4.91957 92.7614 5.00562 92.5192 5.16688C92.2769 5.32813 92.0878 5.55739 91.9755 5.82583C91.8632 6.09428 91.8327 6.38994 91.888 6.67564C91.9432 6.96135 92.0816 7.22435 92.2859 7.43159C92.4902 7.63883 92.7512 7.78106 93.0361 7.8404C93.3209 7.89974 93.617 7.87355 93.887 7.76511C94.1571 7.65667 94.389 7.47083 94.5538 7.23095C94.7185 6.99106 94.8086 6.70784 94.8128 6.41687C94.8186 6.21948 94.7846 6.02294 94.713 5.83891C94.6414 5.65487 94.5336 5.48708 94.396 5.34546C94.2583 5.20384 94.0937 5.09128 93.9118 5.01445C93.7299 4.93762 93.5344 4.89807 93.3369 4.89815V4.91954Z" fill="#17262F"></path><path d="M80.8877 110H0.352941C0.259335 110 0.169563 109.963 0.103374 109.896C0.0371848 109.83 0 109.741 0 109.647L0 99.6576C0 99.564 0.0371848 99.4743 0.103374 99.4081C0.169563 99.3419 0.259335 99.3047 0.352941 99.3047C0.444681 99.3075 0.531729 99.3459 0.595623 99.4118C0.659516 99.4777 0.695229 99.5658 0.695187 99.6576V109.283H80.5454V99.9999H30.8235C30.7328 99.9999 30.6457 99.9638 30.5815 99.8996C30.5173 99.8354 30.4813 99.7484 30.4813 99.6576C30.4798 99.6118 30.4876 99.5661 30.5042 99.5234C30.5208 99.4806 30.5457 99.4416 30.5777 99.4087C30.6096 99.3758 30.6478 99.3496 30.69 99.3317C30.7323 99.3139 30.7777 99.3047 30.8235 99.3047H80.8877C80.9813 99.3047 81.0711 99.3419 81.1373 99.4081C81.2035 99.4743 81.2406 99.564 81.2406 99.6576V109.647C81.2406 109.741 81.2035 109.83 81.1373 109.896C81.0711 109.963 80.9813 110 80.8877 110Z" fill="#17262F"></path><path d="M77.123 105.005H0.352941C0.259335 105.005 0.169563 104.968 0.103374 104.902C0.0371848 104.836 4.08235e-08 104.746 4.08235e-08 104.652C-2.23568e-05 104.607 0.00917169 104.561 0.0270361 104.519C0.0449005 104.477 0.0710709 104.439 0.103993 104.407C0.136915 104.375 0.175917 104.35 0.218682 104.333C0.261448 104.317 0.307105 104.309 0.352941 104.31H77.123C77.2138 104.31 77.3008 104.346 77.365 104.41C77.4292 104.475 77.4652 104.562 77.4652 104.652C77.4667 104.698 77.4589 104.744 77.4423 104.787C77.4258 104.829 77.4008 104.868 77.3689 104.901C77.3369 104.934 77.2987 104.961 77.2565 104.978C77.2142 104.996 77.1689 105.005 77.123 105.005Z" fill="#17262F"></path><path d="M75.7112 98.3959C75.6654 98.3973 75.6197 98.3895 75.577 98.3729C75.5342 98.3564 75.4952 98.3314 75.4623 98.2995C75.4294 98.2676 75.4032 98.2293 75.3853 98.1871C75.3675 98.1449 75.3583 98.0995 75.3583 98.0536V97.5189C75.3583 96.7889 75.069 96.0886 74.5539 95.5715C74.0387 95.0543 73.3396 94.7623 72.6096 94.7595H50.8556C50.1349 94.7678 49.446 95.0578 48.9364 95.5675C48.4267 96.0772 48.1367 96.766 48.1283 97.4868V98.0215C48.1283 98.1123 48.0923 98.1994 48.0281 98.2635C47.9639 98.3277 47.8769 98.3638 47.7861 98.3638C47.7403 98.3652 47.6946 98.3574 47.6518 98.3409C47.6091 98.3243 47.5701 98.2993 47.5371 98.2674C47.5042 98.2355 47.4781 98.1973 47.4602 98.155C47.4423 98.1128 47.4331 98.0674 47.4332 98.0215V97.4868C47.4331 96.5724 47.7956 95.6954 48.4412 95.0478C49.0867 94.4003 49.9627 94.0351 50.877 94.0322H72.6096C73.524 94.0351 74.3999 94.4003 75.0454 95.0478C75.691 95.6954 76.0535 96.5724 76.0535 97.4868V98.0215C76.058 98.0691 76.0524 98.1171 76.0372 98.1624C76.0221 98.2077 75.9976 98.2493 75.9653 98.2846C75.9331 98.3198 75.8938 98.3479 75.8501 98.3671C75.8063 98.3863 75.759 98.3961 75.7112 98.3959Z" fill="#17262F"></path><path d="M87.7005 78.8768C87.8897 78.8747 88.0752 78.929 88.2333 79.0328C88.3915 79.1366 88.5152 79.2851 88.5885 79.4595C88.6619 79.6338 88.6816 79.8261 88.6453 80.0117C88.6089 80.1974 88.518 80.368 88.3842 80.5017C88.2505 80.6355 88.0799 80.7264 87.8943 80.7627C87.7086 80.7991 87.5163 80.7794 87.342 80.706C87.1676 80.6326 87.0191 80.509 86.9153 80.3508C86.8115 80.1927 86.7572 80.0072 86.7594 79.818C86.7594 79.5684 86.8585 79.329 87.035 79.1525C87.2115 78.976 87.4509 78.8768 87.7005 78.8768ZM87.7005 78.1816C87.3743 78.1816 87.0555 78.2785 86.7844 78.46C86.5133 78.6414 86.3022 78.8993 86.1778 79.2009C86.0535 79.5025 86.0215 79.8342 86.0859 80.154C86.1504 80.4738 86.3083 80.7672 86.5397 80.9971C86.7711 81.227 87.0656 81.3831 87.3858 81.4454C87.706 81.5077 88.0375 81.4736 88.3383 81.3473C88.639 81.221 88.8955 81.0082 89.0752 80.736C89.2549 80.4637 89.3497 80.1442 89.3476 79.818C89.3448 79.383 89.17 78.9668 88.8614 78.6603C88.5528 78.3537 88.1355 78.1816 87.7005 78.1816Z" fill="#17262F"></path><path d="M87.7005 83.9252C87.8333 83.911 87.9675 83.925 88.0945 83.9661C88.2215 84.0072 88.3385 84.0746 88.4377 84.1639C88.537 84.2532 88.6164 84.3623 88.6707 84.4842C88.7251 84.6062 88.7532 84.7382 88.7532 84.8717C88.7532 85.0052 88.7251 85.1372 88.6707 85.2591C88.6164 85.3811 88.537 85.4902 88.4377 85.5795C88.3385 85.6688 88.2215 85.7361 88.0945 85.7773C87.9675 85.8184 87.8333 85.8323 87.7005 85.8182C87.4668 85.7933 87.2506 85.6829 87.0935 85.5082C86.9364 85.3334 86.8494 85.1067 86.8494 84.8717C86.8494 84.6367 86.9364 84.41 87.0935 84.2352C87.2506 84.0605 87.4668 83.95 87.7005 83.9252ZM87.7005 83.23C87.3748 83.23 87.0563 83.3266 86.7855 83.5076C86.5146 83.6885 86.3035 83.9458 86.1788 84.2467C86.0542 84.5477 86.0216 84.8789 86.0851 85.1984C86.1487 85.5179 86.3055 85.8113 86.5359 86.0417C86.7662 86.272 87.0597 86.4289 87.3792 86.4924C87.6987 86.556 88.0299 86.5234 88.3308 86.3987C88.6318 86.2741 88.889 86.063 89.07 85.7921C89.251 85.5212 89.3476 85.2028 89.3476 84.877C89.3476 84.4402 89.1741 84.0213 88.8652 83.7124C88.5563 83.4035 88.1374 83.23 87.7005 83.23Z" fill="#17262F"></path><path d="M98.9519 78.8768C99.141 78.8747 99.3265 78.929 99.4847 79.0328C99.6428 79.1366 99.7665 79.2851 99.8399 79.4595C99.9132 79.6338 99.933 79.8261 99.8966 80.0117C99.8602 80.1974 99.7693 80.368 99.6356 80.5017C99.5018 80.6355 99.3312 80.7264 99.1456 80.7627C98.96 80.7991 98.7677 80.7794 98.5933 80.706C98.419 80.6326 98.2704 80.509 98.1666 80.3508C98.0629 80.1927 98.0086 80.0072 98.0107 79.818C98.0107 79.5684 98.1098 79.329 98.2864 79.1525C98.4629 78.976 98.7022 78.8768 98.9519 78.8768ZM98.9519 78.1816C98.6257 78.1816 98.3068 78.2785 98.0357 78.46C97.7646 78.6414 97.5535 78.8993 97.4292 79.2009C97.3048 79.5025 97.2729 79.8342 97.3373 80.154C97.4017 80.4738 97.5596 80.7672 97.7911 80.9971C98.0225 81.227 98.317 81.3831 98.6371 81.4454C98.9573 81.5077 99.2888 81.4736 99.5896 81.3473C99.8904 81.221 100.147 81.0082 100.327 80.736C100.506 80.4637 100.601 80.1442 100.599 79.818C100.596 79.383 100.421 78.9668 100.113 78.6603C99.8042 78.3537 99.3868 78.1816 98.9519 78.1816Z" fill="#17262F"></path><path d="M98.9519 83.9252C99.0846 83.911 99.2189 83.925 99.3459 83.9661C99.4729 84.0072 99.5898 84.0746 99.6891 84.1639C99.7884 84.2532 99.8677 84.3623 99.9221 84.4842C99.9764 84.6062 100.005 84.7382 100.005 84.8717C100.005 85.0052 99.9764 85.1372 99.9221 85.2591C99.8677 85.3811 99.7884 85.4902 99.6891 85.5795C99.5898 85.6688 99.4729 85.7361 99.3459 85.7773C99.2189 85.8184 99.0846 85.8323 98.9519 85.8182C98.7182 85.7933 98.502 85.6829 98.3448 85.5082C98.1877 85.3334 98.1008 85.1067 98.1008 84.8717C98.1008 84.6367 98.1877 84.41 98.3448 84.2352C98.502 84.0605 98.7182 83.95 98.9519 83.9252ZM98.9519 83.23C98.6261 83.23 98.3077 83.3266 98.0368 83.5076C97.766 83.6885 97.5549 83.9458 97.4302 84.2467C97.3055 84.5477 97.2729 84.8789 97.3365 85.1984C97.4 85.5179 97.5569 85.8113 97.7872 86.0417C98.0176 86.272 98.3111 86.4289 98.6305 86.4924C98.95 86.556 99.2812 86.5234 99.5822 86.3987C99.8831 86.2741 100.14 86.063 100.321 85.7921C100.502 85.5212 100.599 85.2028 100.599 84.877C100.599 84.6607 100.556 84.4466 100.474 84.2467C100.391 84.0469 100.269 83.8653 100.117 83.7124C99.9636 83.5595 99.782 83.4381 99.5822 83.3554C99.3823 83.2726 99.1682 83.23 98.9519 83.23Z" fill="#17262F"></path><path d="M93.2727 79.8182C93.4614 79.8161 93.6465 79.8701 93.8044 79.9734C93.9624 80.0767 94.086 80.2246 94.1597 80.3984C94.2334 80.5721 94.2538 80.7638 94.2183 80.9492C94.1828 81.1345 94.093 81.3051 93.9603 81.4393C93.8276 81.5735 93.658 81.6652 93.4731 81.7028C93.2882 81.7404 93.0962 81.7222 92.9217 81.6505C92.7471 81.5788 92.5978 81.4568 92.4927 81.3C92.3877 81.1433 92.3316 80.9588 92.3315 80.7701C92.3315 80.5195 92.4303 80.279 92.6065 80.1008C92.7828 79.9226 93.0221 79.821 93.2727 79.8182ZM93.2727 79.123C92.947 79.123 92.6285 79.2196 92.3577 79.4006C92.0868 79.5816 91.8757 79.8388 91.751 80.1398C91.6264 80.4408 91.5938 80.7719 91.6573 81.0914C91.7209 81.4109 91.8777 81.7044 92.1081 81.9348C92.3384 82.1651 92.6319 82.322 92.9514 82.3855C93.2709 82.4491 93.6021 82.4164 93.903 82.2918C94.204 82.1671 94.4612 81.956 94.6422 81.6852C94.8232 81.4143 94.9198 81.0959 94.9198 80.7701C94.9142 80.337 94.7381 79.9235 94.4299 79.6193C94.1216 79.315 93.7059 79.1444 93.2727 79.1444V79.123Z" fill="#17262F"></path><path d="M93.2727 84.706C93.4589 84.706 93.6408 84.7612 93.7956 84.8646C93.9504 84.968 94.071 85.115 94.1422 85.287C94.2135 85.4589 94.2321 85.6482 94.1958 85.8308C94.1595 86.0133 94.0699 86.181 93.9382 86.3127C93.8066 86.4443 93.6389 86.5339 93.4563 86.5702C93.2738 86.6065 93.0845 86.5879 92.9125 86.5167C92.7406 86.4454 92.5936 86.3248 92.4902 86.17C92.3867 86.0153 92.3315 85.8333 92.3315 85.6471C92.3315 85.3975 92.4307 85.1581 92.6072 84.9816C92.7837 84.8051 93.0231 84.706 93.2727 84.706ZM93.2727 84.0108C92.9495 84.0129 92.6342 84.1106 92.3665 84.2917C92.0988 84.4728 91.8908 84.7291 91.7686 85.0283C91.6463 85.3275 91.6155 85.6562 91.6798 85.9729C91.7441 86.2896 91.9008 86.5802 92.1301 86.8079C92.3594 87.0357 92.651 87.1905 92.9681 87.2528C93.2852 87.3151 93.6137 87.2821 93.9121 87.1579C94.2105 87.0337 94.4654 86.824 94.6447 86.5551C94.8241 86.2863 94.9198 85.9703 94.9198 85.6471C94.9198 85.4313 94.8771 85.2177 94.7942 85.0184C94.7113 84.8192 94.5898 84.6383 94.4367 84.4863C94.2836 84.3342 94.102 84.2139 93.9022 84.1323C93.7024 84.0506 93.4885 84.0094 93.2727 84.0108Z" fill="#17262F"></path><path d="M93.262 78.0749C92.8645 78.0757 92.4707 77.9977 92.1036 77.8453C91.7364 77.693 91.4031 77.4692 91.123 77.1872C90.8428 76.9067 90.6218 76.5729 90.473 76.2055C90.3242 75.838 90.2506 75.4445 90.2567 75.0481V72.3422C90.2567 72.2515 90.2927 72.1644 90.3569 72.1002C90.4211 72.0361 90.5082 72 90.5989 72H95.9465C96.0375 72.0011 96.1249 72.0353 96.1925 72.0963C96.255 72.1671 96.2893 72.2585 96.2888 72.3529V75.016C96.2908 75.4138 96.2133 75.8079 96.0609 76.1752C95.9085 76.5425 95.6841 76.8757 95.4011 77.1551C95.1233 77.4425 94.7911 77.6718 94.4239 77.8297C94.0567 77.9876 93.6617 78.0709 93.262 78.0749ZM90.9626 72.7273V75.0481C90.9597 75.3519 91.0171 75.6532 91.1314 75.9347C91.2457 76.2161 91.4147 76.4721 91.6285 76.6879C91.8423 76.9037 92.0967 77.075 92.3771 77.1919C92.6575 77.3088 92.9583 77.369 93.262 77.369C93.8757 77.369 94.4644 77.1259 94.8994 76.693C95.3343 76.2601 95.5801 75.6725 95.5829 75.0588V72.7273H90.9626Z" fill="#17262F"></path><path d="M93.262 77.0055C92.8851 77.0169 92.5137 76.9122 92.1983 76.7055C91.8828 76.4988 91.6385 76.2002 91.4984 75.85C91.3584 75.4999 91.3293 75.1151 91.4152 74.7479C91.5011 74.3807 91.6978 74.0487 91.9786 73.797C92.3297 73.4592 92.7963 73.268 93.2834 73.2622C93.5248 73.261 93.7639 73.3087 93.9863 73.4024C94.2088 73.4962 94.4099 73.634 94.5775 73.8077C94.7521 73.9763 94.8898 74.1794 94.9818 74.404C95.0739 74.6286 95.1183 74.8698 95.1123 75.1125C95.1195 75.3594 95.0769 75.6053 94.987 75.8354C94.8971 76.0655 94.7617 76.2752 94.5891 76.4518C94.4164 76.6285 94.2099 76.7686 93.9819 76.8637C93.7539 76.9589 93.5091 77.0071 93.262 77.0055ZM93.262 74.0216C92.9585 74.0216 92.6674 74.1422 92.4528 74.3568C92.2382 74.5714 92.1176 74.8625 92.1176 75.166C92.1191 75.4695 92.2379 75.7608 92.4492 75.9788C92.5562 76.0849 92.6831 76.1687 92.8226 76.2256C92.962 76.2825 93.1114 76.3113 93.262 76.3104C93.5655 76.3104 93.8566 76.1898 94.0712 75.9752C94.2858 75.7606 94.4064 75.4695 94.4064 75.166C94.4204 75.0144 94.4019 74.8615 94.3521 74.7177C94.3023 74.5738 94.2224 74.4422 94.1176 74.3317C94.0058 74.2196 93.8722 74.1313 93.7251 74.0725C93.578 74.0137 93.4204 73.9854 93.262 73.9895V74.0216Z" fill="#17262F"></path><path d="M96.3529 71.2728H90.2032C90.1525 71.2817 90.1004 71.2795 90.0506 71.2661C90.0008 71.2528 89.9546 71.2287 89.9151 71.1956C89.8756 71.1624 89.8439 71.1211 89.8221 71.0743C89.8003 71.0276 89.7891 70.9767 89.7891 70.9252C89.7891 70.8737 89.8003 70.8228 89.8221 70.7761C89.8439 70.7294 89.8756 70.688 89.9151 70.6549C89.9546 70.6217 90.0008 70.5977 90.0506 70.5843C90.1004 70.571 90.1525 70.5687 90.2032 70.5776H96.3636C96.4554 70.5804 96.5424 70.6188 96.6063 70.6847C96.6702 70.7506 96.7059 70.8388 96.7059 70.9306C96.7059 70.9764 96.6967 71.0218 96.6788 71.064C96.661 71.1063 96.6348 71.1445 96.6019 71.1764C96.569 71.2083 96.53 71.2333 96.4872 71.2499C96.4444 71.2664 96.3988 71.2742 96.3529 71.2728Z" fill="#17262F"></path><path d="M104 93.9893H82.5241C82.4782 93.9893 82.4328 93.9801 82.3906 93.9623C82.3483 93.9444 82.3101 93.9182 82.2782 93.8853C82.2463 93.8524 82.2213 93.8134 82.2047 93.7706C82.1882 93.7278 82.1804 93.6822 82.1818 93.6364V91.2299C82.1818 91.1392 82.2179 91.0521 82.2821 90.9879C82.3462 90.9237 82.4333 90.8877 82.5241 90.8877H104C104.091 90.8877 104.178 90.9237 104.242 90.9879C104.306 91.0521 104.342 91.1392 104.342 91.2299V93.6364C104.344 93.6822 104.336 93.7278 104.319 93.7706C104.303 93.8134 104.278 93.8524 104.246 93.8853C104.214 93.9182 104.176 93.9444 104.133 93.9623C104.091 93.9801 104.046 93.9893 104 93.9893ZM82.877 93.2941H103.647V91.5829H82.877V93.2941Z" fill="#17262F"></path><path d="M101.209 98.3959C101.118 98.3959 101.031 98.3598 100.967 98.2956C100.902 98.2314 100.866 98.1444 100.866 98.0536V93.6686C100.866 93.5778 100.902 93.4908 100.967 93.4266C101.031 93.3624 101.118 93.3263 101.209 93.3263C101.254 93.3249 101.3 93.3327 101.343 93.3493C101.386 93.3658 101.425 93.3908 101.458 93.4227C101.49 93.4546 101.517 93.4929 101.534 93.5351C101.552 93.5773 101.562 93.6227 101.561 93.6686V98.0536C101.562 98.0995 101.552 98.1449 101.534 98.1871C101.517 98.2293 101.49 98.2675 101.458 98.2995C101.425 98.3314 101.386 98.3564 101.343 98.3729C101.3 98.3895 101.254 98.3973 101.209 98.3959Z" fill="#17262F"></path><path d="M85.3155 98.3956C85.2697 98.3971 85.224 98.3893 85.1813 98.3727C85.1385 98.3562 85.0995 98.3312 85.0666 98.2993C85.0336 98.2673 85.0075 98.2291 84.9896 98.1869C84.9717 98.1446 84.9625 98.0993 84.9626 98.0534V93.6684C84.9626 93.5748 84.9997 93.485 85.0659 93.4188C85.1321 93.3526 85.2219 93.3154 85.3155 93.3154C85.4091 93.3154 85.4989 93.3526 85.5651 93.4188C85.6313 93.485 85.6684 93.5748 85.6684 93.6684V98.0534C85.6685 98.0993 85.6593 98.1446 85.6414 98.1869C85.6236 98.2291 85.5974 98.2673 85.5645 98.2993C85.5315 98.3312 85.4925 98.3562 85.4498 98.3727C85.407 98.3893 85.3613 98.3971 85.3155 98.3956Z" fill="#17262F"></path><path d="M98.9519 83.9038C98.906 83.9039 98.8606 83.8947 98.8184 83.8768C98.7761 83.8589 98.7379 83.8328 98.706 83.7999C98.6741 83.7669 98.6491 83.7279 98.6325 83.6852C98.616 83.6424 98.6082 83.5967 98.6096 83.5509V81.1552C98.6082 81.1093 98.616 81.0637 98.6325 81.0209C98.6491 80.9782 98.6741 80.9392 98.706 80.9062C98.7379 80.8733 98.7761 80.8471 98.8184 80.8293C98.8606 80.8114 98.906 80.8022 98.9519 80.8022C99.0455 80.8022 99.1352 80.8394 99.2014 80.9056C99.2676 80.9718 99.3048 81.0616 99.3048 81.1552V83.5509C99.3048 83.5973 99.2957 83.6431 99.278 83.686C99.2602 83.7288 99.2342 83.7677 99.2014 83.8005C99.1687 83.8332 99.1298 83.8592 99.0869 83.877C99.0441 83.8947 98.9982 83.9038 98.9519 83.9038Z" fill="#17262F"></path><path d="M97.9358 79.3263C97.8531 79.3258 97.7733 79.2954 97.7112 79.2407L95.9251 77.7755C95.8635 77.7084 95.8293 77.6206 95.8293 77.5295C95.8293 77.4384 95.8635 77.3506 95.9251 77.2835C95.957 77.2505 95.9953 77.2243 96.0375 77.2064C96.0798 77.1884 96.1252 77.1792 96.1711 77.1792C96.217 77.1792 96.2625 77.1884 96.3047 77.2064C96.347 77.2243 96.3852 77.2505 96.4171 77.2835L98.1925 78.7487C98.2462 78.7948 98.2847 78.8559 98.3032 78.9242C98.3217 78.9924 98.3193 79.0647 98.2962 79.1315C98.2732 79.1984 98.2306 79.2568 98.1739 79.2991C98.1173 79.3415 98.0493 79.3658 97.9786 79.3691L97.9358 79.3263Z" fill="#17262F"></path><path d="M88.77 79.3261C88.6985 79.3249 88.629 79.302 88.5708 79.2605C88.5125 79.2189 88.4683 79.1606 88.4439 79.0934C88.4196 79.0261 88.4162 78.953 88.4344 78.8838C88.4525 78.8145 88.4912 78.7525 88.5455 78.7058L90.2888 77.2405C90.3207 77.2075 90.3589 77.1813 90.4012 77.1634C90.4434 77.1455 90.4889 77.1362 90.5348 77.1362C90.5807 77.1362 90.6261 77.1455 90.6683 77.1634C90.7106 77.1813 90.7488 77.2075 90.7807 77.2405C90.8134 77.2715 90.8395 77.3088 90.8573 77.3502C90.875 77.3916 90.8842 77.4361 90.8842 77.4812C90.8842 77.5262 90.875 77.5708 90.8573 77.6121C90.8395 77.6535 90.8134 77.6908 90.7807 77.7218L89.0374 79.1977C89.0044 79.2367 88.9635 79.2683 88.9174 79.2904C88.8713 79.3125 88.8211 79.3247 88.77 79.3261Z" fill="#17262F"></path><path d="M87.7005 83.9038C87.6547 83.9039 87.6093 83.8947 87.567 83.8768C87.5248 83.8589 87.4866 83.8328 87.4547 83.7999C87.4228 83.7669 87.3978 83.7279 87.3812 83.6852C87.3646 83.6424 87.3569 83.5967 87.3583 83.5509V81.1552C87.3569 81.1093 87.3646 81.0637 87.3812 81.0209C87.3978 80.9782 87.4228 80.9392 87.4547 80.9062C87.4866 80.8733 87.5248 80.8471 87.567 80.8293C87.6093 80.8114 87.6547 80.8022 87.7005 80.8022C87.7941 80.8022 87.8839 80.8394 87.9501 80.9056C88.0163 80.9718 88.0535 81.0616 88.0535 81.1552V83.5509C88.0535 83.5973 88.0443 83.6431 88.0266 83.686C88.0089 83.7288 87.9829 83.7677 87.9501 83.8005C87.9173 83.8332 87.8784 83.8592 87.8356 83.877C87.7928 83.8947 87.7469 83.9038 87.7005 83.9038Z" fill="#17262F"></path><path d="M93.2727 84.5883C93.182 84.5883 93.0949 84.5523 93.0307 84.4881C92.9665 84.4239 92.9305 84.3369 92.9305 84.2461V82.1071C92.9305 82.0163 92.9665 81.9292 93.0307 81.8651C93.0949 81.8009 93.182 81.7648 93.2727 81.7648C93.3186 81.7634 93.3642 81.7712 93.407 81.7877C93.4498 81.8043 93.4888 81.8293 93.5217 81.8612C93.5546 81.8931 93.5808 81.9313 93.5986 81.9736C93.6165 82.0158 93.6257 82.0612 93.6257 82.1071V84.2461C93.6257 84.292 93.6165 84.3374 93.5986 84.3796C93.5808 84.4218 93.5546 84.46 93.5217 84.492C93.4888 84.5239 93.4498 84.5489 93.407 84.5654C93.3642 84.582 93.3186 84.5898 93.2727 84.5883Z" fill="#17262F"></path><path d="M93.2834 79.7756C93.2376 79.777 93.1919 79.7692 93.1492 79.7527C93.1064 79.7361 93.0674 79.7111 93.0345 79.6792C93.0016 79.6473 92.9754 79.6091 92.9575 79.5668C92.9396 79.5246 92.9305 79.4792 92.9305 79.4333V77.6793C92.9305 77.6335 92.9396 77.5881 92.9575 77.5458C92.9754 77.5036 93.0016 77.4654 93.0345 77.4335C93.0674 77.4015 93.1064 77.3766 93.1492 77.36C93.1919 77.3434 93.2376 77.3356 93.2834 77.3371C93.3742 77.3371 93.4612 77.3731 93.5254 77.4373C93.5896 77.5015 93.6257 77.5886 93.6257 77.6793V79.4333C93.6257 79.5241 93.5896 79.6112 93.5254 79.6753C93.4612 79.7395 93.3742 79.7756 93.2834 79.7756Z" fill="#17262F"></path><path d="M52.6952 32.4493H41.4545C41.4087 32.4493 41.3633 32.4401 41.321 32.4222C41.2788 32.4044 41.2406 32.3782 41.2087 32.3453C41.1767 32.3123 41.1518 32.2733 41.1352 32.2306C41.1186 32.1878 41.1109 32.1422 41.1123 32.0963C41.1123 32.0055 41.1483 31.9185 41.2125 31.8543C41.2767 31.7901 41.3638 31.7541 41.4545 31.7541H52.6952C52.741 31.7526 52.7867 31.7604 52.8294 31.777C52.8722 31.7935 52.9112 31.8185 52.9441 31.8505C52.977 31.8824 53.0032 31.9206 53.0211 31.9628C53.0389 32.0051 53.0481 32.0505 53.0481 32.0963C53.0481 32.1899 53.0109 32.2797 52.9447 32.3459C52.8786 32.4121 52.7888 32.4493 52.6952 32.4493Z" fill="#17262F"></path><path d="M3.26203 99.9999C3.17126 99.9999 3.08421 99.9638 3.02003 99.8996C2.95584 99.8354 2.91978 99.7484 2.91978 99.6576V66.941C2.91978 66.8503 2.95584 66.7632 3.02003 66.699C3.08421 66.6349 3.17126 66.5988 3.26203 66.5988C3.30787 66.5974 3.35352 66.6052 3.39629 66.6217C3.43905 66.6383 3.47806 66.6633 3.51098 66.6952C3.5439 66.7271 3.57007 66.7653 3.58794 66.8076C3.6058 66.8498 3.61499 66.8952 3.61497 66.941V99.6576C3.61499 99.7035 3.6058 99.7489 3.58794 99.7911C3.57007 99.8333 3.5439 99.8716 3.51098 99.9035C3.47806 99.9354 3.43905 99.9604 3.39629 99.977C3.35352 99.9935 3.30787 100.001 3.26203 99.9999Z" fill="#17262F"></path><path d="M48.8449 34.7699H43.1979C43.152 34.7713 43.1064 34.7635 43.0636 34.747C43.0208 34.7304 42.9818 34.7054 42.9489 34.6735C42.916 34.6416 42.8898 34.6034 42.872 34.5611C42.8541 34.5189 42.8449 34.4735 42.8449 34.4276C42.8449 34.334 42.8821 34.2443 42.9483 34.1781C43.0145 34.1119 43.1043 34.0747 43.1979 34.0747H48.8449C48.9385 34.0747 49.0283 34.1119 49.0945 34.1781C49.1607 34.2443 49.1979 34.334 49.1979 34.4276C49.1979 34.4735 49.1887 34.5189 49.1708 34.5611C49.153 34.6034 49.1268 34.6416 49.0939 34.6735C49.061 34.7054 49.0219 34.7304 48.9792 34.747C48.9364 34.7635 48.8908 34.7713 48.8449 34.7699Z" fill="#17262F"></path><path d="M9.3155 41.9145C9.27055 41.9131 9.22631 41.9029 9.18532 41.8844C9.14432 41.8659 9.10737 41.8395 9.07658 41.8068C9.04579 41.774 9.02176 41.7354 9.00587 41.6934C8.98997 41.6513 8.98253 41.6065 8.98395 41.5616L10.0535 13.3263C10.0533 13.2799 10.0628 13.234 10.0814 13.1915C10.1 13.149 10.1274 13.111 10.1616 13.0797C10.1959 13.0485 10.2364 13.0248 10.2804 13.0101C10.3244 12.9955 10.3709 12.9902 10.4171 12.9947C10.463 12.9961 10.5082 13.0066 10.5499 13.0258C10.5916 13.0449 10.6291 13.0723 10.66 13.1062C10.6909 13.1402 10.7147 13.18 10.73 13.2233C10.7452 13.2666 10.7515 13.3125 10.7487 13.3584L9.62566 41.583C9.62584 41.6673 9.59386 41.7486 9.53624 41.8102C9.47861 41.8717 9.39968 41.9091 9.3155 41.9145Z" fill="#17262F"></path><path d="M59.2941 5.64708H49.7754C49.6916 5.64774 49.6104 5.61761 49.5473 5.56241C49.4843 5.50721 49.4436 5.43078 49.4332 5.34762C49.4332 5.25685 49.4692 5.1698 49.5334 5.10561C49.5976 5.04143 49.6846 5.00537 49.7754 5.00537H59.2941C59.3849 5.00537 59.4719 5.04143 59.5361 5.10561C59.6003 5.1698 59.6364 5.25685 59.6364 5.34762C59.6259 5.43078 59.5852 5.50721 59.5222 5.56241C59.4591 5.61761 59.3779 5.64774 59.2941 5.64708Z" fill="#17262F"></path></g><defs><clipPath id="clip0_5678_15714"><rect width="106.813" height="110" fill="white"></rect></clipPath></defs></svg>