<svg xmlns="http://www.w3.org/2000/svg" width="58" height="100" viewBox="0 0 58 100" fill="none"><g clip-path="url(#clip0_5678_16855)"><path d="M49.1578 1.51884C48.9667 1.51884 48.7835 1.44293 48.6484 1.30782C48.5133 1.1727 48.4373 0.989446 48.4373 0.798364C48.4341 0.598825 48.5067 0.405489 48.6404 0.257334C48.7741 0.109178 48.959 0.0172206 49.1578 0L56.9467 0C57.1464 0.0149417 57.3327 0.106224 57.4669 0.254891C57.601 0.403558 57.6728 0.598188 57.6672 0.798364V25.5769C57.6729 25.7781 57.6015 25.9738 57.4676 26.1241C57.3336 26.2743 57.1473 26.3677 56.9467 26.385H0.8081C0.59757 26.3733 0.398731 26.2844 0.249635 26.1353C0.100539 25.9862 0.0116578 25.7874 0 25.5769L0 0.798364C0.0139563 0.58956 0.10385 0.393084 0.252721 0.246007C0.401591 0.0989305 0.599143 0.0114244 0.8081 0L35.8582 0C36.0655 0.0137075 36.2607 0.102222 36.4075 0.249077C36.5544 0.395933 36.6429 0.591132 36.6566 0.798364C36.6394 0.997185 36.5474 1.18208 36.3993 1.31579C36.2511 1.44949 36.0578 1.52205 35.8582 1.51884H1.52858V24.8856H56.1386V1.51884H49.1578ZM38.818 1.51884C38.7231 1.52015 38.6288 1.50241 38.5408 1.46667C38.4528 1.43092 38.3728 1.3779 38.3057 1.31074C38.2385 1.24357 38.1855 1.16362 38.1497 1.07562C38.114 0.987617 38.0962 0.893341 38.0976 0.798364C38.092 0.598188 38.1637 0.403558 38.2979 0.254891C38.4321 0.106224 38.6183 0.0149417 38.818 0L44.1924 0C44.4041 0 44.6072 0.0841131 44.7569 0.233836C44.9066 0.383558 44.9907 0.586625 44.9907 0.798364C44.9884 0.899004 44.9656 0.998109 44.9236 1.08962C44.8817 1.18112 44.8215 1.26311 44.7467 1.33055C44.672 1.39799 44.5843 1.44948 44.489 1.48185C44.3937 1.51423 44.2927 1.52681 44.1924 1.51884H38.818ZM46.8309 1.51884C46.7305 1.52681 46.6296 1.51423 46.5343 1.48185C46.439 1.44948 46.3513 1.39799 46.2765 1.33055C46.2018 1.26311 46.1416 1.18112 46.0997 1.08962C46.0577 0.998109 46.0349 0.899004 46.0325 0.798364C46.0325 0.586625 46.1166 0.383558 46.2664 0.233836C46.4161 0.0841131 46.6191 0 46.8309 0L46.9185 0C47.1173 0.0172206 47.3022 0.109178 47.4359 0.257334C47.5696 0.405489 47.6422 0.598825 47.639 0.798364C47.639 0.892978 47.6203 0.986666 47.5841 1.07408C47.5479 1.16149 47.4949 1.24091 47.428 1.30782C47.3611 1.37472 47.2816 1.42779 47.1942 1.464C47.1068 1.5002 47.0131 1.51884 46.9185 1.51884H46.8309Z" fill="#17262F"></path><path d="M11.3134 6.17273C11.3496 6.08138 11.4038 5.99828 11.4729 5.9284C11.5419 5.85851 11.6244 5.80328 11.7153 5.76601C11.8062 5.72874 11.9037 5.71019 12.0019 5.71149C12.1002 5.71278 12.1971 5.73389 12.287 5.77354C12.4712 5.8659 12.6125 6.02588 12.6815 6.22003C12.7504 6.41419 12.7417 6.62748 12.657 6.81531L6.49401 20.2123C6.4602 20.3054 6.40728 20.3904 6.33866 20.4619C6.27004 20.5334 6.18723 20.5897 6.09555 20.6273C6.00387 20.6649 5.90534 20.6829 5.80629 20.6802C5.70724 20.6775 5.60986 20.654 5.52039 20.6114C5.4299 20.5742 5.3477 20.5193 5.27856 20.4501C5.20941 20.3808 5.15469 20.2985 5.11757 20.208C5.08044 20.1174 5.06165 20.0204 5.06227 19.9225C5.0629 19.8247 5.08293 19.7279 5.12121 19.6378L11.3134 6.17273Z" fill="#17262F"></path><path d="M21.254 6.17262C21.3466 5.98816 21.5048 5.84495 21.6975 5.7711C21.8902 5.69725 22.1036 5.69808 22.2958 5.77344C22.3916 5.81369 22.4775 5.87447 22.5473 5.9515C22.6171 6.02853 22.6691 6.11994 22.6998 6.21927C22.7304 6.31861 22.7389 6.42345 22.7246 6.52642C22.7103 6.62939 22.6736 6.72796 22.6171 6.81521L16.5514 20.2121C16.4643 20.4015 16.3065 20.5493 16.1119 20.6239C15.9172 20.6985 15.7011 20.694 15.5097 20.6113C15.4223 20.5711 15.3442 20.5133 15.2802 20.4416C15.2161 20.3698 15.1675 20.2857 15.1374 20.1944C15.1073 20.103 15.0962 20.0065 15.105 19.9107C15.1138 19.815 15.1422 19.722 15.1884 19.6377L21.254 6.17262Z" fill="#17262F"></path><path d="M31.2823 6.17267C31.3148 6.07858 31.367 5.99249 31.4354 5.92015C31.5038 5.8478 31.5868 5.79085 31.6789 5.75308C31.771 5.71532 31.8701 5.6976 31.9696 5.70112C32.0691 5.70464 32.1667 5.72931 32.2559 5.77349C32.4418 5.86413 32.5853 6.02338 32.6561 6.2177C32.7269 6.41202 32.7196 6.62624 32.6356 6.81525L26.4629 20.2122C26.4313 20.3092 26.38 20.3986 26.3122 20.4749C26.2443 20.5511 26.1615 20.6125 26.0688 20.6552C25.9762 20.6978 25.8757 20.7209 25.7737 20.7229C25.6717 20.7249 25.5703 20.7057 25.4761 20.6667C25.3818 20.6276 25.2967 20.5695 25.226 20.496C25.1552 20.4224 25.1005 20.3351 25.0651 20.2393C25.0298 20.1436 25.0146 20.0416 25.0206 19.9398C25.0266 19.8379 25.0535 19.7384 25.0998 19.6475L31.2823 6.17267Z" fill="#17262F"></path><path d="M41.2228 6.17261C41.31 5.98323 41.4678 5.83546 41.6624 5.76086C41.8571 5.68627 42.0732 5.69078 42.2646 5.77343C42.4322 5.88147 42.5564 6.04519 42.6151 6.23576C42.6739 6.42632 42.6636 6.63151 42.5859 6.8152L36.4132 20.2121C36.3794 20.3053 36.3265 20.3903 36.2578 20.4618C36.1892 20.5333 36.1064 20.5896 36.0147 20.6272C35.9231 20.6648 35.8245 20.6828 35.7255 20.6801C35.6264 20.6773 35.529 20.6539 35.4396 20.6113C35.3482 20.5751 35.2651 20.5209 35.1952 20.4518C35.1254 20.3828 35.0701 20.3003 35.0329 20.2094C34.9956 20.1185 34.977 20.021 34.9783 19.9228C34.9796 19.8246 35.0007 19.7276 35.0404 19.6377L41.2228 6.17261Z" fill="#17262F"></path><path d="M51.1635 6.17262C51.2561 5.98816 51.4142 5.84495 51.607 5.7711C51.7997 5.69725 52.0131 5.69808 52.2052 5.77344C52.3064 5.80708 52.3985 5.86335 52.4746 5.93796C52.5508 6.01257 52.6089 6.10356 52.6445 6.204C52.6802 6.30445 52.6925 6.4117 52.6805 6.51761C52.6685 6.62353 52.6325 6.7253 52.5752 6.81521L46.4317 20.2121C46.3445 20.4015 46.1868 20.5493 45.9921 20.6239C45.7974 20.6985 45.5813 20.694 45.3899 20.6113C45.3026 20.5711 45.2245 20.5133 45.1604 20.4416C45.0964 20.3698 45.0478 20.2857 45.0176 20.1944C44.9875 20.103 44.9765 20.0065 44.9853 19.9107C44.994 19.815 45.0224 19.722 45.0686 19.6377L51.1635 6.17262Z" fill="#17262F"></path><path d="M30.3962 30.3087C30.5422 30.4381 30.632 30.6193 30.6465 30.8138C30.6611 31.0083 30.5992 31.2008 30.4741 31.3505C30.3435 31.4937 30.1636 31.5823 29.9704 31.5985C29.7773 31.6148 29.5851 31.5575 29.4324 31.4381L23.6588 26.1417C23.5347 25.9983 23.468 25.8141 23.4714 25.6245C23.4748 25.4349 23.5481 25.2532 23.6773 25.1144C23.8065 24.9755 23.9824 24.8893 24.1713 24.8723C24.3601 24.8552 24.5487 24.9085 24.7006 25.022L30.3962 30.3087Z" fill="#17262F"></path><path d="M30.3963 38.818C30.5385 38.9619 30.6245 39.1519 30.6388 39.3537C30.6531 39.5555 30.5947 39.7557 30.4742 39.9182C30.3344 40.0532 30.1476 40.1287 29.9533 40.1287C29.7589 40.1287 29.5722 40.0532 29.4324 39.9182L23.6589 34.7191C23.5226 34.5644 23.4475 34.3654 23.4475 34.1593C23.4475 33.9532 23.5226 33.7541 23.6589 33.5994C23.7228 33.5236 23.8026 33.4627 23.8926 33.4209C23.9825 33.3791 24.0805 33.3574 24.1797 33.3574C24.2789 33.3574 24.377 33.3791 24.4669 33.4209C24.5569 33.4627 24.6366 33.5236 24.7006 33.5994L30.3963 38.818Z" fill="#17262F"></path><path d="M30.3963 47.3955C30.5422 47.5249 30.632 47.7061 30.6465 47.9006C30.6611 48.0951 30.5992 48.2876 30.4741 48.4373C30.3447 48.5832 30.1636 48.673 29.9691 48.6875C29.7745 48.7021 29.582 48.6402 29.4324 48.5152L23.6588 43.2284C23.4154 42.9071 23.3375 42.4203 23.6588 42.1867C23.7882 42.0414 23.9684 41.9514 24.1622 41.935C24.3561 41.9187 24.5488 41.9774 24.7006 42.099L30.3963 47.3955Z" fill="#17262F"></path><path d="M30.3963 55.8952C30.5422 56.0246 30.632 56.2058 30.6465 56.4003C30.6611 56.5948 30.5992 56.7873 30.4742 56.937C30.1529 57.2583 29.6758 57.3362 29.4324 57.0149L23.6588 51.7281C23.5238 51.5884 23.4483 51.4016 23.4483 51.2073C23.4483 51.0129 23.5238 50.8261 23.6588 50.6864C23.7922 50.5454 23.9744 50.4608 24.1681 50.4499C24.3618 50.4391 24.5524 50.5028 24.7006 50.628L30.3963 55.8952Z" fill="#17262F"></path><path d="M30.3963 64.4728C30.5422 64.6022 30.632 64.7834 30.6465 64.9779C30.6611 65.1724 30.5992 65.3649 30.4742 65.5146C30.4102 65.5904 30.3304 65.6514 30.2405 65.6932C30.1505 65.735 30.0525 65.7566 29.9533 65.7566C29.8541 65.7566 29.7561 65.735 29.6661 65.6932C29.5761 65.6514 29.4964 65.5904 29.4324 65.5146L23.6589 60.3058C23.5226 60.1511 23.4475 59.952 23.4475 59.7459C23.4475 59.5398 23.5226 59.3408 23.6589 59.1861C23.7986 59.0511 23.9854 58.9756 24.1797 58.9756C24.3741 58.9756 24.5608 59.0511 24.7006 59.1861L30.3963 64.4728Z" fill="#17262F"></path><path d="M24.2235 24.8563H33.5216C33.7126 24.8563 33.8959 24.9322 34.031 25.0673C34.1661 25.2024 34.242 25.3857 34.242 25.5768L36.2477 94.0706C36.3353 96.8746 34.4854 98.7147 32.0027 99.5228C30.9888 99.8436 29.9311 100.005 28.8677 99.9999C27.7819 100.004 26.7019 99.8433 25.6645 99.5228C23.2597 98.7147 21.4195 96.8746 21.4974 94.0706L23.4446 25.5768C23.462 25.3762 23.5553 25.1899 23.7055 25.0559C23.8558 24.922 24.0515 24.8506 24.2527 24.8563H24.2235ZM32.8011 26.3849H24.944L22.9968 94.0706C22.9189 96.1541 24.3598 97.4393 26.1221 98.0819C26.9998 98.3759 27.923 98.511 28.8482 98.481C29.748 98.5126 30.6459 98.3773 31.4964 98.0819C33.3463 97.4393 34.7873 96.1346 34.7094 94.0706L32.8011 26.3849Z" fill="#17262F"></path><path d="M29.2766 70.5677C29.4183 70.6996 29.5051 70.8802 29.5195 71.0733C29.534 71.2664 29.475 71.4579 29.3545 71.6094C29.2086 71.7546 29.0159 71.8431 28.8108 71.8592C28.6056 71.8752 28.4015 71.8178 28.2348 71.697L22.5392 66.4006C22.4634 66.3366 22.4024 66.2568 22.3606 66.1669C22.3188 66.0769 22.2971 65.9789 22.2971 65.8797C22.2971 65.7805 22.3188 65.6825 22.3606 65.5925C22.4024 65.5025 22.4634 65.4228 22.5392 65.3588C22.6686 65.2129 22.8498 65.1231 23.0443 65.1085C23.2388 65.094 23.4313 65.1558 23.5809 65.2809L29.2766 70.5677Z" fill="#17262F"></path><path d="M29.2766 79.0672C29.4193 79.2168 29.5052 79.4116 29.5195 79.6179C29.5337 79.8241 29.4753 80.0289 29.3545 80.1966C29.1998 80.3328 29.0008 80.408 28.7947 80.408C28.5886 80.408 28.3895 80.3328 28.2348 80.1966L22.5392 74.9001C22.4219 74.7582 22.3617 74.5776 22.3704 74.3937C22.3791 74.2097 22.4561 74.0357 22.5863 73.9054C22.7165 73.7752 22.8906 73.6983 23.0745 73.6895C23.2585 73.6808 23.439 73.741 23.581 73.8584L29.2766 79.0672Z" fill="#17262F"></path><path d="M29.2766 87.6253C29.4204 87.756 29.5087 87.9369 29.5232 88.1307C29.5376 88.3245 29.4773 88.5164 29.3545 88.6671C29.2095 88.8144 29.0157 88.9037 28.8094 88.9181C28.6032 88.9324 28.3988 88.8708 28.2349 88.745L22.5392 83.4582C22.4632 83.3933 22.4021 83.3127 22.3603 83.222C22.3184 83.1312 22.2968 83.0324 22.2968 82.9325C22.2968 82.8325 22.3184 82.7338 22.3603 82.643C22.4021 82.5522 22.4632 82.4716 22.5392 82.4067C22.5973 82.3258 22.6724 82.2587 22.7593 82.21C22.8461 82.1612 22.9426 82.1321 23.0419 82.1247C23.1412 82.1173 23.241 82.1317 23.3341 82.167C23.4272 82.2022 23.5115 82.2575 23.581 82.3288L29.2766 87.6253Z" fill="#17262F"></path></g><defs><clipPath id="clip0_5678_16855"><rect width="57.6575" height="100" fill="white"></rect></clipPath></defs></svg>