<svg xmlns="http://www.w3.org/2000/svg" width="83" height="90" viewBox="0 0 83 90" fill="none"><g clip-path="url(#clip0_5678_33628)"><path d="M71.9139 56.7322L49.7278 45.6203L49.6219 45.5749C48.6586 45.1944 47.632 44.9993 46.5962 45C46.2439 43.201 45.2322 41.5986 43.7596 40.5068C46.2634 37.8366 49.811 33.0635 48.7142 28.1089C42.6855 -0.0907679 40.0909 3.71394e-06 38.4722 3.71394e-06C36.3088 0.0529538 34.9245 1.78518 34.4253 5.15885C34.1525 7.73887 34.0791 10.3361 34.2059 12.9274L34.7278 36.944V37.0651C34.8465 38.118 35.1486 39.142 35.6204 40.0908C34.7187 40.6238 33.9407 41.3426 33.3382 42.1995C32.7356 43.0564 32.3223 44.0316 32.1257 45.0605C28.684 44.5915 22.8443 44.531 19.2135 48.5477C-1.70938 71.6717 -0.423451 73.8805 0.340543 75.1967C0.566061 75.5907 0.875342 75.9304 1.24654 76.1918C1.61775 76.4533 2.04182 76.63 2.4888 76.7095C2.72297 76.7557 2.96116 76.7785 3.19985 76.7776C5.80953 76.7776 9.25128 74.2738 13.6537 70.817L33.8806 55.0681L33.9563 55.0076C34.6443 54.3616 35.2491 53.6323 35.7566 52.8366C36.8586 53.4629 38.1048 53.7913 39.3723 53.7897C40.5949 53.7883 41.7981 53.4843 42.8746 52.9047C44.5009 57.0575 47.5266 62.6475 52.3148 63.9183C66.687 67.7005 73.979 68.8956 77.7611 68.8956C81.5433 68.8956 81.8004 67.8064 82.0728 66.9894C83.5629 62.587 77.3753 59.4932 71.9139 56.7322ZM37.92 36.8079L37.4056 13.1089V12.8593C37.2857 10.4475 37.3489 8.03008 37.5947 5.62784C37.6495 4.82594 37.8932 4.04836 38.3057 3.35855C39.4101 4.90923 41.929 11.5885 45.6129 28.7746C46.3693 32.1558 43.5781 36.2859 40.6431 39.1452C40.2266 39.0668 39.8037 39.0263 39.3799 39.0242C39.1681 39.0242 38.9563 39.0242 38.752 39.0242C38.3153 38.3555 38.0312 37.5988 37.92 36.8079ZM31.8685 52.587L11.8988 68.1694L11.6946 68.3283C9.62193 69.9471 4.88668 73.6233 3.37383 73.6233C4.04705 71.4902 9.13026 64.4402 21.5811 50.6808C24.4328 47.5265 29.5312 47.8517 32.2467 48.298C32.4593 49.1528 32.8286 49.9608 33.336 50.6808C32.9494 51.3909 32.4514 52.0345 31.861 52.587H31.8685ZM35.1968 46.4145C35.1968 45.5872 35.4422 44.7784 35.9018 44.0905C36.3614 43.4026 37.0147 42.8665 37.7791 42.5499C38.5434 42.2333 39.3845 42.1504 40.1959 42.3118C41.0074 42.4733 41.7527 42.8717 42.3377 43.4567C42.9228 44.0417 43.3212 44.787 43.4826 45.5985C43.644 46.4099 43.5611 47.251 43.2445 48.0153C42.9279 48.7797 42.3918 49.433 41.7039 49.8926C41.016 50.3523 40.2072 50.5976 39.3799 50.5976C38.2698 50.5976 37.205 50.1571 36.4193 49.3729C35.6337 48.5886 35.1913 47.5246 35.1893 46.4145H35.1968ZM53.1393 60.8321C49.0697 59.7504 46.3315 53.2678 45.4237 50.6127C45.9352 49.883 46.3071 49.0649 46.5206 48.1997C47.1444 48.1925 47.7645 48.2976 48.3511 48.5098L70.2876 59.5159L70.4994 59.6218C73.2982 61.0136 78.926 63.8351 79.1 65.6278C77.3753 66.0212 70.3481 65.4085 53.1393 60.8321Z" fill="#17262F"></path><path d="M33.3737 90.0152H33.2073C32.9959 89.9954 32.7905 89.9337 32.6033 89.8336C32.416 89.7335 32.2506 89.597 32.1168 89.4321C31.9829 89.2673 31.8833 89.0774 31.8238 88.8736C31.7643 88.6698 31.746 88.4561 31.7701 88.2452L34.9622 56.7928C35.0053 56.3715 35.214 55.9846 35.5424 55.7172C35.8708 55.4498 36.292 55.3238 36.7133 55.367C37.1346 55.4101 37.5215 55.6188 37.7889 55.9472C38.0563 56.2756 38.1823 56.6968 38.1392 57.1181L34.9546 88.5629C34.9172 88.9576 34.735 89.3244 34.443 89.5926C34.1511 89.8608 33.7701 90.0114 33.3737 90.0152Z" fill="#17262F"></path><path d="M45.3858 90.0152C44.9875 90.0149 44.6038 89.8658 44.3099 89.5971C44.016 89.3284 43.8331 88.9595 43.7973 88.5629L41.1876 60.0076C41.1545 59.5853 41.2905 59.1672 41.5657 58.8452C41.8409 58.5231 42.2328 58.3236 42.6551 58.2905C43.0774 58.2574 43.4955 58.3934 43.8175 58.6686C44.1396 58.9439 44.3391 59.3357 44.3722 59.758L46.9592 88.2981C46.9948 88.7173 46.8627 89.1335 46.5918 89.4554C46.321 89.7773 45.9335 89.9786 45.5144 90.0152H45.3858Z" fill="#17262F"></path><path d="M28.0862 78.6688C27.8977 78.6707 27.7104 78.6374 27.534 78.5705C24.3639 77.4116 21.3837 75.7877 18.6914 73.752C18.3686 73.4913 18.16 73.1151 18.1099 72.7032C18.0598 72.2913 18.1721 71.876 18.4229 71.5455C18.6738 71.215 19.0435 70.9951 19.4537 70.9326C19.8639 70.87 20.2823 70.9697 20.6203 71.2104C23.0597 73.0754 25.7617 74.5691 28.6384 75.6431C28.9901 75.7726 29.285 76.0217 29.4714 76.3468C29.6579 76.6719 29.7239 77.0523 29.6581 77.4212C29.5922 77.7902 29.3987 78.1242 29.1113 78.3647C28.8239 78.6053 28.461 78.737 28.0862 78.7369V78.6688Z" fill="#17262F"></path><path d="M52.2466 78.0636C51.8928 78.0478 51.5543 77.9149 51.2843 77.6856C51.0144 77.4563 50.8284 77.1437 50.7556 76.7971C50.6828 76.4505 50.7274 76.0896 50.8823 75.7711C51.0372 75.4526 51.2936 75.1946 51.6112 75.0379C54.7183 73.7018 57.5834 71.8616 60.0908 69.5916C60.2449 69.4383 60.4287 69.3179 60.6308 69.2378C60.833 69.1577 61.0493 69.1195 61.2666 69.1256C61.484 69.1317 61.6978 69.182 61.8952 69.2733C62.0925 69.3647 62.2692 69.4952 62.4145 69.6569C62.5598 69.8187 62.6707 70.0083 62.7405 70.2142C62.8102 70.4202 62.8374 70.6381 62.8202 70.8549C62.8031 71.0717 62.7421 71.2827 62.6409 71.4751C62.5397 71.6676 62.4004 71.8374 62.2315 71.9743C59.4549 74.4477 56.2947 76.4532 52.8744 77.9123C52.678 78.006 52.4641 78.0576 52.2466 78.0636Z" fill="#17262F"></path><path d="M71.9894 48.0862C71.5661 48.0862 71.1601 47.9181 70.8608 47.6188C70.5615 47.3194 70.3933 46.9135 70.3933 46.4902C70.407 41.2254 69.0742 36.0445 66.5216 31.4399C63.9691 26.8352 60.2815 22.9597 55.8094 20.1815C55.4771 19.9469 55.2469 19.5942 55.166 19.1956C55.085 18.7969 55.1593 18.3824 55.3736 18.0367C55.588 17.691 55.9263 17.4401 56.3194 17.3355C56.7125 17.2308 57.1307 17.2802 57.4887 17.4735C62.4244 20.5351 66.4947 24.8086 69.3122 29.8876C72.1298 34.9666 73.6008 40.682 73.5855 46.4902C73.5835 46.9129 73.4147 47.3177 73.1158 47.6166C72.8169 47.9155 72.4121 48.0842 71.9894 48.0862Z" fill="#17262F"></path><path d="M6.75491 48.0862C6.33091 48.0863 5.92416 47.9183 5.62364 47.6192C5.32312 47.3201 5.15328 46.9142 5.15128 46.4902C5.15729 41.0275 6.46809 35.6452 8.97455 30.7915C11.481 25.9378 15.1106 21.753 19.5613 18.5855C19.7308 18.4516 19.9258 18.3536 20.1344 18.2973C20.343 18.241 20.5608 18.2277 20.7747 18.2581C20.9886 18.2885 21.1941 18.362 21.3788 18.4741C21.5634 18.5863 21.7234 18.7348 21.849 18.9106C21.9746 19.0864 22.0631 19.2858 22.1093 19.4969C22.1556 19.7079 22.1584 19.9262 22.1178 20.1384C22.0772 20.3505 21.9939 20.5523 21.873 20.7313C21.7521 20.9104 21.5961 21.063 21.4145 21.18C17.3727 24.0498 14.0755 27.8443 11.7978 32.247C9.52013 36.6497 8.32797 41.5332 8.32072 46.4902C8.31887 46.9077 8.15425 47.308 7.86185 47.6061C7.56945 47.9041 7.17233 48.0764 6.75491 48.0862Z" fill="#17262F"></path><path d="M62.3601 41.6869C62.015 41.6813 61.6811 41.564 61.4084 41.3526C61.1356 41.1413 60.9387 40.8472 60.8472 40.5145C59.6102 36.0429 56.9983 32.0735 53.3812 29.168C53.2089 29.0397 53.0643 28.8778 52.956 28.6922C52.8478 28.5066 52.7781 28.301 52.7512 28.0878C52.7243 27.8746 52.7407 27.6582 52.7995 27.4515C52.8583 27.2448 52.9582 27.0522 53.0932 26.885C53.2283 26.7179 53.3956 26.5797 53.5854 26.4788C53.7751 26.3779 53.9832 26.3164 54.1973 26.2979C54.4114 26.2794 54.627 26.3043 54.8312 26.3712C55.0354 26.438 55.2241 26.5454 55.3858 26.6869C59.5125 30.0133 62.4916 34.5507 63.9032 39.6597C64.0098 40.0659 63.9521 40.4977 63.7426 40.8616C63.533 41.2255 63.1885 41.4921 62.7837 41.6037C62.6466 41.6494 62.5042 41.6774 62.3601 41.6869Z" fill="#17262F"></path><path d="M17.239 39.1528C17.0337 39.1535 16.8304 39.1123 16.6414 39.0318C16.4465 38.9536 16.269 38.8377 16.119 38.6907C15.9689 38.5438 15.8494 38.3687 15.7672 38.1754C15.685 37.9822 15.6417 37.7746 15.6398 37.5646C15.638 37.3546 15.6776 37.1463 15.7564 36.9516C17.4955 32.6506 20.3718 28.9036 24.0771 26.112C24.4162 25.8542 24.8438 25.7417 25.2658 25.7991C25.6878 25.8566 26.0697 26.0793 26.3275 26.4184C26.5853 26.7574 26.6979 27.185 26.6404 27.607C26.583 28.029 26.3602 28.4109 26.0212 28.6687C22.7688 31.1029 20.2444 34.3806 18.7216 38.1468C18.6027 38.443 18.3981 38.697 18.1339 38.8762C17.8698 39.0554 17.5582 39.1517 17.239 39.1528Z" fill="#17262F"></path></g><defs><clipPath id="clip0_5678_33628"><rect width="82.2995" height="90" fill="white"></rect></clipPath></defs></svg>