<svg xmlns="http://www.w3.org/2000/svg" width="120" height="73" viewBox="0 0 120 73" fill="none"><g clip-path="url(#clip0_5678_6490)"><path d="M55.6526 63.9186V60.6543H81.9519V63.9186H55.6526Z" fill="#17262F"></path><path d="M81.01 21.9737C81.3161 21.6676 81.7312 21.4956 82.1641 21.4956H99.857C101.261 21.5554 102.619 22.0108 103.775 22.8093C104.932 23.6078 105.839 24.7169 106.392 26.0086L109.7 34.6846L109.704 34.6927C110.019 35.3594 110.505 35.9306 111.113 36.348C111.721 36.7655 112.429 37.0142 113.165 37.069L113.173 37.0696H114.402C115.823 37.0696 117.186 37.6341 118.191 38.6389C119.195 39.6438 119.76 41.0066 119.76 42.4276V58.588C119.753 59.9979 119.19 61.3483 118.194 62.3461C117.198 63.3439 115.849 63.9088 114.439 63.9185H106.112C105.679 63.9185 105.264 63.7465 104.958 63.4404C104.652 63.1343 104.48 62.7192 104.48 62.2863C104.48 60.4872 103.765 58.7618 102.493 57.4896C101.221 56.2174 99.4953 55.5027 97.6962 55.5027C95.8971 55.5027 94.1716 56.2174 92.8995 57.4896C91.6273 58.7618 90.9126 60.4872 90.9126 62.2863C90.9126 62.7192 90.7406 63.1343 90.4346 63.4404C90.1285 63.7465 89.7133 63.9185 89.2804 63.9185H82.4135V60.6542H87.7533L87.785 60.4608C88.1694 58.1168 89.3743 55.9858 91.1847 54.4481C92.9951 52.9105 95.293 52.0663 97.6683 52.0663C100.044 52.0663 102.341 52.9105 104.152 54.4481C105.962 55.9858 107.167 58.1168 107.552 60.4608L107.583 60.6542H114.411C114.967 60.6542 115.499 60.4336 115.892 60.041C116.284 59.6483 116.505 59.1158 116.505 58.5605V42.3997C116.505 41.8444 116.284 41.3118 115.892 40.9192C115.499 40.5266 114.967 40.306 114.411 40.306H113.196C111.79 40.2478 110.43 39.7932 109.272 38.9946C108.114 38.196 107.206 37.086 106.652 35.793L103.344 27.0981L103.34 27.0897C103.023 26.4244 102.536 25.8544 101.929 25.4373C101.321 25.0202 100.614 24.7707 99.8796 24.714L99.8707 24.7133H83.7962V48.5028H80.5319V23.1278C80.5319 22.6949 80.7039 22.2797 81.01 21.9737Z" fill="#17262F"></path><path d="M97.3914 37.0534L97.4679 37.1759L97.6636 37.0537V36.8229H97.5195L97.6636 37.0537L97.3914 37.0534Z" fill="#17262F"></path><path d="M98.0799 37.2844L94.927 32.2379L97.7292 30.5059L102.442 38.0515C102.596 38.2988 102.682 38.583 102.689 38.8746C102.697 39.1661 102.626 39.4543 102.485 39.7092C102.343 39.9641 102.136 40.1765 101.884 40.3241C101.633 40.4718 101.346 40.5493 101.054 40.5487H89.5112V37.2844H98.0799Z" fill="#17262F"></path><path fill-rule="evenodd" clip-rule="evenodd" d="M28.2161 52.4918C30.1589 52.1053 32.1726 52.3037 34.0027 53.0617C35.8327 53.8197 37.3969 55.1034 38.4974 56.7504C39.5979 58.3974 40.1853 60.3338 40.1853 62.3146C40.1853 64.9708 39.1301 67.5183 37.2519 69.3965C35.3736 71.2747 32.8262 72.3299 30.17 72.3299C28.1892 72.3299 26.2528 71.7425 24.6058 70.642C22.9588 69.5415 21.6751 67.9774 20.9171 66.1473C20.159 64.3172 19.9607 62.3035 20.3471 60.3607C20.7336 58.4179 21.6874 56.6334 23.0881 55.2327C24.4888 53.8321 26.2733 52.8782 28.2161 52.4918ZM30.17 55.4984C28.8348 55.4984 27.5295 55.8944 26.4193 56.6362C25.3091 57.378 24.4439 58.4323 23.9329 59.6659C23.4219 60.8995 23.2882 62.2569 23.5487 63.5665C23.8092 64.876 24.4522 66.0789 25.3963 67.0231C26.3405 67.9672 27.5434 68.6102 28.8529 68.8707C30.1625 69.1312 31.5199 68.9975 32.7535 68.4865C33.9871 67.9755 35.0414 67.1103 35.7832 66.0001C36.525 64.8899 36.921 63.5846 36.921 62.2494C36.921 60.4589 36.2097 58.7418 34.9437 57.4757C33.6776 56.2097 31.9605 55.4984 30.17 55.4984Z" fill="#17262F"></path><path fill-rule="evenodd" clip-rule="evenodd" d="M45.0476 52.4918C46.9904 52.1053 49.0041 52.3037 50.8342 53.0617C52.6642 53.8197 54.2284 55.1034 55.3289 56.7504C56.4294 58.3974 57.0168 60.3338 57.0168 62.3146C57.0168 64.9708 55.9616 67.5183 54.0834 69.3965C52.2051 71.2747 49.6577 72.3299 47.0015 72.3299C45.0206 72.3299 43.0843 71.7425 41.4373 70.642C39.7903 69.5415 38.5066 67.9774 37.7485 66.1473C36.9905 64.3172 36.7922 62.3035 37.1786 60.3607C37.5651 58.4179 38.5189 56.6334 39.9196 55.2327C41.3203 53.8321 43.1048 52.8782 45.0476 52.4918ZM47.0015 55.4984C45.6663 55.4984 44.361 55.8944 43.2508 56.6362C42.1406 57.378 41.2753 58.4323 40.7644 59.6659C40.2534 60.8995 40.1197 62.2569 40.3802 63.5665C40.6407 64.876 41.2837 66.0789 42.2278 67.0231C43.1719 67.9672 44.3749 68.6102 45.6844 68.8707C46.994 69.1312 48.3514 68.9975 49.585 68.4865C50.8185 67.9755 51.8729 67.1103 52.6147 66.0001C53.3565 64.8899 53.7525 63.5846 53.7525 62.2494C53.7525 60.4589 53.0412 58.7418 51.7751 57.4757C50.5091 56.2097 48.7919 55.4984 47.0015 55.4984Z" fill="#17262F"></path><path fill-rule="evenodd" clip-rule="evenodd" d="M95.7376 52.4918C97.6804 52.1053 99.6942 52.3037 101.524 53.0617C103.354 53.8197 104.918 55.1034 106.019 56.7504C107.119 58.3974 107.707 60.3338 107.707 62.3146C107.707 64.9708 106.652 67.5183 104.773 69.3965C102.895 71.2747 100.348 72.3299 97.6915 72.3299C95.7107 72.3299 93.7743 71.7425 92.1273 70.642C90.4803 69.5415 89.1966 67.9774 88.4386 66.1473C87.6806 64.3172 87.4822 62.3035 87.8687 60.3607C88.2551 58.4179 89.209 56.6334 90.6096 55.2327C92.0103 53.8321 93.7949 52.8782 95.7376 52.4918ZM97.6915 55.4984C96.3563 55.4984 95.0511 55.8944 93.9409 56.6362C92.8307 57.378 91.9654 58.4323 91.4544 59.6659C90.9435 60.8995 90.8098 62.2569 91.0703 63.5665C91.3307 64.876 91.9737 66.0789 92.9179 67.0231C93.862 67.9672 95.0649 68.6102 96.3745 68.8707C97.684 69.1312 99.0414 68.9975 100.275 68.4865C101.509 67.9755 102.563 67.1103 103.305 66.0001C104.047 64.8899 104.443 63.5846 104.443 62.2494C104.443 60.4589 103.731 58.7418 102.465 57.4757C101.199 56.2097 99.482 55.4984 97.6915 55.4984Z" fill="#17262F"></path><path d="M21.7589 64.1403H12.9566C12.4625 64.1403 11.9887 63.9441 11.6393 63.5947C11.29 63.2453 11.0937 62.7715 11.0937 62.2774V57.4431L0.512309 46.3401C0.185055 45.9957 0.00179046 45.5392 5.70564e-06 45.064V15.602C-0.000875991 15.2456 0.100446 14.8965 0.291957 14.5961C0.483468 14.2956 0.757133 14.0563 1.0805 13.9067L13.1895 8.31794C13.4365 8.21243 13.7034 8.1616 13.9719 8.16891H66.7857L72.1323 0.773112C72.3047 0.534063 72.5314 0.339339 72.7937 0.204941C73.056 0.0705421 73.3465 0.000304672 73.6412 0L82.1827 0C82.6768 0 83.1507 0.196271 83.5 0.545637C83.8494 0.895002 84.0457 1.36884 84.0457 1.86292V16.7663H80.3198V3.72584H74.5913L69.2447 11.1775C69.0713 11.4149 68.8442 11.6078 68.5819 11.7405C68.3197 11.8733 68.0297 11.9421 67.7358 11.9413H14.3538L3.72585 16.7663V44.3189L14.3072 55.4219C14.6367 55.7687 14.8201 56.2289 14.8195 56.7073V60.4331H21.7589V64.1403Z" fill="#17262F"></path><path d="M16.7269 29.5759V16.5312H19.9912V29.5759H16.7269Z" fill="#17262F"></path><path d="M40.386 29.5759V16.5312H43.6503V29.5759H40.386Z" fill="#17262F"></path><path d="M64.0544 29.5759V16.5312H67.3187V29.5759H64.0544Z" fill="#17262F"></path></g><defs><clipPath id="clip0_5678_6490"><rect width="120" height="72.5607" fill="white"></rect></clipPath></defs></svg>