<svg xmlns="http://www.w3.org/2000/svg" width="150" height="85" viewBox="0 0 150 85" fill="none"><g clip-path="url(#clip0_5678_16840)"><path d="M28.3333 24.0741C28.4899 24.292 28.554 24.563 28.5119 24.828C28.4698 25.093 28.3248 25.3307 28.1085 25.4894C28.0141 25.5864 27.8996 25.6614 27.7731 25.7093C27.6465 25.7572 27.511 25.7768 27.3761 25.7668C27.2412 25.7567 27.1101 25.7171 26.9921 25.6509C26.8741 25.5847 26.7721 25.4935 26.6931 25.3836L25.0529 23.0952L2.39418 19.9339L2.18254 23.9021L24.0741 26.7989C24.3289 26.8198 24.5658 26.9383 24.7355 27.1296L42.4868 51.0979L51.5873 54.2328C51.7482 54.3026 51.8913 54.4078 52.0058 54.5407C52.1203 54.6735 52.2034 54.8306 52.2487 55L52.5661 56.627C52.6054 56.7592 52.6171 56.898 52.6004 57.0349C52.5837 57.1718 52.539 57.3037 52.4692 57.4226C52.3993 57.5415 52.3057 57.6447 52.1943 57.7259C52.0828 57.8071 51.9558 57.8644 51.8213 57.8944C51.6867 57.9245 51.5474 57.9265 51.412 57.9003C51.2766 57.8742 51.148 57.8205 51.0343 57.7426C50.9205 57.6646 50.824 57.5641 50.7508 57.4473C50.6775 57.3305 50.6291 57.1998 50.6085 57.0635L50.3968 55.9788L41.5079 52.9101C41.4021 52.8042 41.1773 52.6984 41.0714 52.4735L23.3201 28.664L0.978837 25.8201C0.69982 25.7725 0.447298 25.6259 0.267531 25.4073C0.0877636 25.1887 -0.00721249 24.9126 1.21709e-06 24.6296L0.542329 18.6376C0.555506 18.507 0.594455 18.3803 0.656923 18.2649C0.71939 18.1495 0.804134 18.0477 0.906246 17.9652C1.00836 17.8828 1.12581 17.8215 1.2518 17.7847C1.37778 17.748 1.50981 17.7367 1.64021 17.7513L25.7143 21.164C26.0041 21.2391 26.2688 21.3898 26.4815 21.6005L28.3333 24.0741ZM51.3095 60.2513C51.2516 59.99 51.3 59.7163 51.4438 59.4906C51.5877 59.2648 51.8154 59.1055 52.0767 59.0476C52.3381 58.9897 52.6117 59.038 52.8375 59.1819C53.0632 59.3258 53.2225 59.5535 53.2804 59.8148L53.3862 60.3571C53.4255 60.4893 53.4372 60.6282 53.4205 60.765C53.4038 60.9019 53.3591 61.0339 53.2893 61.1528C53.2194 61.2716 53.1258 61.3749 53.0144 61.4561C52.9029 61.5372 52.7759 61.5946 52.6414 61.6246C52.5068 61.6546 52.3675 61.6566 52.2321 61.6305C52.0967 61.6044 51.9681 61.5506 51.8544 61.4727C51.7406 61.3948 51.6441 61.2943 51.5709 61.1775C51.4976 61.0606 51.4492 60.93 51.4286 60.7937L51.3095 60.2513ZM52.1825 64.2196C52.1533 64.0901 52.15 63.9562 52.1728 63.8255C52.1956 63.6947 52.2441 63.5698 52.3154 63.4579C52.3868 63.346 52.4795 63.2494 52.5884 63.1735C52.6973 63.0976 52.8201 63.044 52.9497 63.0159C53.2109 62.9605 53.4833 63.0099 53.7085 63.1533C53.9336 63.2968 54.0934 63.523 54.1534 63.7831L55.8862 72.1693C55.9174 72.2971 55.9224 72.4299 55.9011 72.5597C55.8798 72.6894 55.8325 72.8136 55.7622 72.9247C55.6918 73.0358 55.5997 73.1316 55.4915 73.2064C55.3833 73.2811 55.2611 73.3333 55.1323 73.3598C54.9961 73.3904 54.8549 73.3919 54.718 73.3642C54.5812 73.3366 54.4517 73.2803 54.3381 73.1991C54.2245 73.118 54.1293 73.0138 54.0587 72.8933C53.9881 72.7728 53.9438 72.6388 53.9286 72.5L52.1825 64.2196ZM54.59 75.5423C54.5386 75.2683 54.5862 74.9849 54.7243 74.7427C54.8624 74.5004 55.082 74.3151 55.3439 74.2196C55.618 74.1844 55.8952 74.2551 56.1189 74.4174C56.3426 74.5796 56.496 74.8211 56.5476 75.0926L58.2011 82.3677L88.254 66.2434C88.4586 66.1573 88.6807 66.121 88.9021 66.1376C90.8598 66.6799 92.6058 67.1164 94.4577 67.6587L98.5979 68.8624C98.7383 68.0455 98.9417 67.2406 99.2064 66.455C99.4391 65.6369 99.7308 64.8367 100.079 64.0608C89.6693 60.8466 79.6429 58.0688 69.4048 55.2381C63.3069 53.4921 57.09 51.7593 50.3307 49.7884L43.254 47.2884C43.0291 47.2884 42.8175 47.0635 42.7116 46.9577L38.3598 41.0053C38.2636 40.91 38.1894 40.7947 38.1426 40.6677C38.0957 40.5406 38.0773 40.4048 38.0887 40.2698C38.1 40.1349 38.1409 40.004 38.2083 39.8866C38.2757 39.7691 38.368 39.6678 38.4788 39.59C38.714 39.4317 38.9992 39.3658 39.2799 39.4049C39.5606 39.4439 39.817 39.5852 40 39.8016L44.246 45.4762L50.8598 47.8704C57.3942 49.7222 63.7037 51.5741 69.9206 53.3201C80.5952 56.2566 90.9524 59.2064 101.839 62.5794L101.958 62.6852C102.077 62.7396 102.183 62.8181 102.27 62.9159C102.356 63.0137 102.422 63.1285 102.462 63.253C102.501 63.3776 102.515 63.509 102.501 63.639C102.487 63.769 102.446 63.8946 102.381 64.0079C101.825 64.9725 101.381 65.9977 101.058 67.0635C100.778 68.0568 100.601 69.0763 100.529 70.1058V70.4365C100.431 70.6917 100.24 70.901 99.9958 71.0233C99.7511 71.1457 99.4696 71.1722 99.2064 71.0979C97.2355 70.5423 95.6085 70 93.9154 69.5635C92.3942 69.127 90.754 68.6905 88.7963 68.1482L57.963 84.7619C57.9213 84.8067 57.8696 84.8408 57.8121 84.8615C57.7545 84.8822 57.6929 84.8889 57.6323 84.881C57.3728 84.936 57.102 84.8863 56.879 84.7426C56.656 84.5989 56.4989 84.3728 56.4418 84.1138L54.59 75.5423ZM37.6984 36.7196C37.8516 36.9387 37.9138 37.2087 37.8718 37.4727C37.8299 37.7367 37.6871 37.9741 37.4735 38.1349C37.2534 38.2849 36.9843 38.3451 36.7213 38.3033C36.4582 38.2615 36.221 38.1209 36.0582 37.9101L31.045 31.2963C30.895 31.0762 30.8348 30.8071 30.8766 30.544C30.9184 30.2809 31.059 30.0438 31.2698 29.881C31.5059 29.7256 31.7904 29.6614 32.0703 29.7003C32.3502 29.7393 32.6063 29.8787 32.791 30.0926L37.6984 36.7196ZM30.9392 27.672C31.0194 27.7795 31.0776 27.9019 31.1104 28.032C31.1432 28.1622 31.15 28.2975 31.1303 28.4302C31.1106 28.563 31.0649 28.6906 30.9958 28.8056C30.9267 28.9206 30.8355 29.0209 30.7275 29.1005C30.625 29.1901 30.5042 29.2562 30.3736 29.2945C30.2429 29.3327 30.1055 29.3421 29.9709 29.3219C29.8363 29.3018 29.7076 29.2527 29.5939 29.1779C29.4802 29.1031 29.384 29.0045 29.3122 28.8889L28.7698 28.1217C28.6917 28.0149 28.6353 27.8937 28.604 27.7651C28.5726 27.6365 28.5669 27.5029 28.5872 27.3721C28.6075 27.2413 28.6533 27.1158 28.7221 27.0027C28.7909 26.8896 28.8813 26.7911 28.9881 26.713C29.0949 26.6348 29.2161 26.5784 29.3447 26.5471C29.4733 26.5158 29.6069 26.5101 29.7377 26.5303C29.8685 26.5506 29.994 26.5964 30.1071 26.6652C30.2202 26.734 30.3187 26.8244 30.3968 26.9312L30.9392 27.672ZM75.172 68.0952C75.4225 67.9974 75.6988 67.9873 75.9558 68.0666C76.2128 68.1459 76.4354 68.3098 76.5873 68.5317C76.6537 68.6529 76.6951 68.7861 76.7091 68.9235C76.723 69.0609 76.7092 69.1998 76.6685 69.3318C76.6278 69.4638 76.561 69.5863 76.4721 69.6919C76.3831 69.7976 76.2739 69.8844 76.1508 69.9471L75.6085 70.2778C75.4869 70.3424 75.3539 70.3823 75.2169 70.3953C75.0798 70.4083 74.9416 70.3941 74.8101 70.3536C74.6786 70.313 74.5564 70.2469 74.4505 70.159C74.3446 70.0711 74.2572 69.9631 74.1931 69.8413C74.1229 69.7211 74.0783 69.5876 74.0624 69.4492C74.0464 69.3109 74.0593 69.1707 74.1004 69.0377C74.1414 68.9046 74.2097 68.7815 74.3008 68.6762C74.3919 68.5709 74.5039 68.4857 74.6296 68.4259L75.172 68.0952ZM72.2355 69.7222C72.4828 69.602 72.7665 69.5803 73.0292 69.6613C73.292 69.7423 73.5142 69.9201 73.6508 70.1587C73.7656 70.409 73.7845 70.6927 73.7041 70.956C73.6236 71.2193 73.4493 71.4439 73.2143 71.5873L67.4603 74.6296C67.3539 74.7022 67.2334 74.7514 67.1066 74.774C66.9798 74.7967 66.8497 74.7922 66.7248 74.761C66.5998 74.7298 66.4829 74.6725 66.3817 74.5928C66.2805 74.5132 66.1973 74.413 66.1376 74.2989C66.0627 74.186 66.0115 74.0591 65.9869 73.9259C65.9624 73.7926 65.965 73.6558 65.9946 73.5236C66.0243 73.3914 66.0804 73.2666 66.1595 73.1566C66.2386 73.0466 66.3391 72.9538 66.455 72.8836L72.2355 69.7222ZM64.1667 74.0741C64.2878 74.0077 64.421 73.9663 64.5584 73.9523C64.6959 73.9384 64.8347 73.9522 64.9667 73.9929C65.0987 74.0336 65.2212 74.1004 65.3269 74.1893C65.4326 74.2782 65.5193 74.3875 65.582 74.5106C65.6569 74.6289 65.7056 74.7619 65.7247 74.9006C65.7438 75.0393 65.7329 75.1805 65.6928 75.3147C65.6527 75.4488 65.5843 75.5728 65.4921 75.6783C65.4 75.7837 65.2863 75.8682 65.1587 75.9259L60.8466 78.3333C60.5963 78.4336 60.3193 78.445 60.0616 78.3656C59.804 78.2861 59.5815 78.1206 59.4312 77.8968C59.4312 77.791 59.3254 77.6852 59.3254 77.5794L55.4497 59.1667C55.3946 58.8759 55.455 58.5752 55.618 58.3282C55.781 58.0813 56.0338 57.9076 56.3228 57.8439C56.4762 57.826 56.631 57.8636 56.7593 57.9497L81.0582 65.2513C81.1929 65.288 81.3183 65.3527 81.4262 65.4412C81.5342 65.5297 81.6223 65.64 81.6847 65.7648C81.7471 65.8897 81.7825 66.0263 81.7885 66.1657C81.7945 66.3052 81.771 66.4443 81.7196 66.5741C81.671 66.6989 81.5963 66.8118 81.5005 66.9053C81.4046 66.9989 81.2899 67.0708 81.164 67.1164C80.291 67.6587 79.4312 68.2011 78.5185 68.6376C78.3994 68.7121 78.2656 68.7601 78.1263 68.7783C77.9869 68.7965 77.8453 68.7845 77.711 68.743C77.5767 68.7016 77.4529 68.6318 77.3481 68.5383C77.2432 68.4447 77.1597 68.3297 77.1032 68.2011C77.0384 68.087 76.9982 67.9605 76.9852 67.8299C76.9722 67.6993 76.9868 67.5674 77.0279 67.4428C77.069 67.3182 77.1358 67.2036 77.224 67.1063C77.3121 67.0091 77.4197 66.9314 77.5397 66.8783L78.082 66.5608L57.8175 60.3439L60.9788 75.8201L64.1667 74.0741Z" fill="#17262F"></path><path d="M120.608 58.201C120.729 58.2685 120.834 58.3605 120.916 58.4709C120.999 58.5813 121.058 58.7078 121.089 58.8422C121.12 58.9767 121.123 59.1161 121.097 59.2517C121.071 59.3873 121.018 59.516 120.939 59.6295C120.878 59.7551 120.79 59.8653 120.681 59.952C120.572 60.0387 120.444 60.0995 120.308 60.1301C120.172 60.1606 120.031 60.16 119.895 60.1283C119.759 60.0966 119.632 60.0346 119.524 59.947C118.516 59.3058 117.414 58.8282 116.257 58.5316C115.082 58.2247 113.872 58.0778 112.659 58.0951C111.035 58.1061 109.435 58.4813 107.976 59.193C106.481 59.8679 105.133 60.8297 104.008 62.0237C102.884 63.1675 102.026 64.545 101.495 66.0581C100.914 67.5847 100.658 69.2153 100.741 70.8465C100.782 72.4535 101.114 74.0399 101.72 75.529C102.402 77.02 103.363 78.3669 104.55 79.4972C105.775 80.602 107.174 81.496 108.69 82.1427C110.227 82.6859 111.849 82.9458 113.479 82.9099C115.095 82.82 116.683 82.4531 118.175 81.8253C119.672 81.1486 121.021 80.182 122.143 78.9814C123.228 77.8325 124.081 76.4852 124.656 75.0131C125.213 73.5877 125.504 72.0725 125.516 70.5422C125.5 70.4032 125.513 70.2624 125.555 70.129C125.598 69.9955 125.667 69.8725 125.761 69.768C125.854 69.6635 125.968 69.5799 126.095 69.5227C126.223 69.4654 126.361 69.4358 126.501 69.4358C126.641 69.4358 126.78 69.4654 126.907 69.5227C127.035 69.5799 127.149 69.6635 127.242 69.768C127.335 69.8725 127.405 69.9955 127.447 70.129C127.489 70.2624 127.503 70.4032 127.487 70.5422C127.502 72.3523 127.17 74.1486 126.508 75.8332C125.858 77.5495 124.853 79.1091 123.558 80.4099C122.299 81.8311 120.734 82.9482 118.981 83.6771C117.263 84.4538 115.415 84.9024 113.532 84.9999C111.635 85.0107 109.752 84.6745 107.976 84.0078C106.204 83.3493 104.578 82.3519 103.188 81.0713C101.858 79.7327 100.755 78.187 99.9206 76.4946C99.1355 74.7472 98.7254 72.8547 98.7169 70.939C98.6415 69.0517 98.9549 67.169 99.6375 65.4078C100.32 63.6466 101.358 62.0445 102.685 60.701C103.894 59.2474 105.418 58.0891 107.143 57.3147C108.852 56.5262 110.699 56.077 112.579 55.992C114.018 55.9561 115.455 56.139 116.839 56.5343C118.174 56.8915 119.446 57.4537 120.608 58.201ZM127.143 67.7909C127.165 67.9194 127.161 68.051 127.132 68.1781C127.102 68.3051 127.049 68.4252 126.973 68.5315C126.898 68.6377 126.802 68.728 126.691 68.7973C126.581 68.8665 126.458 68.9134 126.329 68.9351C126.201 68.9568 126.069 68.953 125.942 68.9238C125.815 68.8947 125.695 68.8408 125.589 68.7653C125.483 68.6898 125.392 68.594 125.323 68.4836C125.254 68.3731 125.207 68.2501 125.185 68.1216C124.984 67.3071 124.727 66.5072 124.418 65.7274C124.132 64.9445 123.731 64.2089 123.228 63.5449C123.1 63.3159 123.063 63.0474 123.125 62.7926C123.186 62.5378 123.341 62.3153 123.558 62.1692C123.67 62.089 123.798 62.0335 123.933 62.0067C124.068 61.9798 124.207 61.9821 124.341 62.0134C124.475 62.0447 124.601 62.1043 124.71 62.1882C124.819 62.2721 124.909 62.3784 124.974 62.4999C125.507 63.2965 125.981 64.1322 126.389 64.9999C126.738 65.9145 126.991 66.8633 127.143 67.8306V67.7909ZM123.108 60.2777C123.312 60.4497 123.438 60.6954 123.461 60.9607C123.483 61.2261 123.399 61.4894 123.228 61.693C123.129 61.7971 123.01 61.8799 122.878 61.9366C122.746 61.9932 122.604 62.0224 122.46 62.0224C122.317 62.0224 122.175 61.9932 122.043 61.9366C121.911 61.8799 121.792 61.7971 121.693 61.693L121.481 61.4814C121.377 61.3825 121.295 61.2635 121.238 61.1316C121.181 60.9997 121.152 60.8577 121.152 60.7142C121.152 60.5707 121.181 60.4286 121.238 60.2967C121.295 60.1648 121.377 60.0458 121.481 59.947C121.685 59.7914 121.933 59.7072 122.189 59.7072C122.445 59.7072 122.694 59.7914 122.897 59.947L123.108 60.2777Z" fill="#17262F"></path><path d="M112.87 66.4551C112.345 66.4517 111.826 66.5646 111.349 66.7857C110.91 67.0198 110.505 67.3136 110.145 67.6588C109.782 68.0472 109.487 68.4944 109.272 68.9815C109.098 69.5053 109.027 70.0576 109.061 70.6085C109.061 71.1036 109.174 71.5921 109.392 72.0371C109.583 72.5364 109.881 72.9879 110.265 73.3598C110.649 73.7023 111.099 73.9633 111.587 74.127C112.072 74.3383 112.593 74.4507 113.122 74.4577C113.642 74.4407 114.152 74.3098 114.616 74.0741C115.106 73.8188 115.552 73.4885 115.939 73.0953C116.28 72.7118 116.537 72.2612 116.693 71.7725C116.935 71.3046 117.014 70.7693 116.918 70.2513C116.903 69.7438 116.786 69.2444 116.574 68.7831C116.346 68.344 116.051 67.9425 115.701 67.5926C115.329 67.2086 114.878 66.9106 114.378 66.7196C113.877 66.5854 113.362 66.51 112.844 66.4947L112.87 66.4551ZM110.476 64.9339C111.206 64.5915 111.999 64.4042 112.805 64.3837C113.611 64.3632 114.412 64.51 115.159 64.8148C115.896 65.0591 116.566 65.4711 117.116 66.0185C117.687 66.5731 118.138 67.2395 118.439 67.9762C118.799 68.685 118.985 69.4695 118.981 70.2646C118.98 71.0382 118.873 71.8081 118.664 72.5529C118.349 73.2825 117.901 73.9466 117.341 74.5106C116.83 75.1072 116.199 75.5894 115.489 75.9259C114.756 76.2123 113.985 76.3948 113.201 76.4683C112.414 76.5055 111.63 76.3559 110.913 76.0318C110.149 75.7696 109.443 75.3607 108.836 74.8281C108.269 74.2704 107.819 73.6048 107.513 72.8704C107.147 72.1633 106.956 71.3784 106.958 70.582C106.957 69.8116 107.068 69.0452 107.288 68.3069C107.599 67.5715 108.048 66.9025 108.611 66.336C109.126 65.7434 109.756 65.2618 110.463 64.9207L110.476 64.9339Z" fill="#17262F"></path><path d="M104.048 20.4895C104.179 20.4951 104.308 20.5287 104.426 20.5881C104.544 20.6475 104.647 20.7314 104.73 20.8341C104.813 20.9367 104.872 21.0559 104.905 21.1835C104.938 21.3112 104.943 21.4443 104.921 21.5742C104.897 21.8443 104.772 22.0955 104.571 22.2771C104.37 22.4588 104.107 22.5574 103.836 22.553L102.738 22.4869C102.475 22.4422 102.234 22.3092 102.056 22.1096C101.878 21.9101 101.774 21.6559 101.759 21.389C101.789 21.0997 101.933 20.8341 102.159 20.6506C102.384 20.467 102.674 20.3806 102.963 20.4102L104.048 20.4895ZM98.7566 19.934C99.0282 20.0036 99.2706 20.1577 99.449 20.374C99.6273 20.5904 99.7322 20.8578 99.7487 21.1377C99.7188 21.399 99.5864 21.6378 99.3805 21.8015C99.1746 21.9652 98.9121 22.0404 98.6508 22.0107L90.2645 21.2435C90.0049 21.2154 89.7671 21.0854 89.6034 20.882C89.4397 20.6786 89.3635 20.4184 89.3915 20.1588C89.4196 19.8992 89.5496 19.6614 89.7531 19.4977C89.9565 19.334 90.2166 19.2578 90.4762 19.2858L98.7566 19.934ZM85.9127 18.9551C86.0454 18.96 86.1754 18.9939 86.2937 19.0542C86.4119 19.1145 86.5156 19.1999 86.5975 19.3045C86.6793 19.409 86.7374 19.5301 86.7676 19.6594C86.7979 19.7887 86.7995 19.923 86.7725 20.053C86.7491 20.3231 86.6242 20.5743 86.4229 20.756C86.2216 20.9376 85.9589 21.0362 85.6878 21.0319L45.1587 17.0636L52.0238 48.6641C52.0635 48.7931 52.0744 48.9291 52.056 49.0628C52.0376 49.1964 51.9901 49.3244 51.9171 49.4378C51.844 49.5512 51.747 49.6472 51.6329 49.7192C51.5189 49.7912 51.3904 49.8374 51.2566 49.8546C51.1288 49.8857 50.9961 49.8908 50.8663 49.8695C50.7365 49.8481 50.6123 49.8009 50.5012 49.7305C50.3901 49.6601 50.2943 49.5681 50.2195 49.4599C50.1448 49.3516 50.0926 49.2295 50.0661 49.1006L42.8175 16.2303V15.8731C42.857 15.6096 42.9867 15.368 43.1845 15.1895C43.3823 15.011 43.636 14.9067 43.9021 14.8943L85.9127 18.9551ZM95.9921 62.434C95.8929 62.5489 95.7693 62.6403 95.6304 62.7014C95.4914 62.7624 95.3405 62.7917 95.1887 62.7869C95.037 62.7821 94.8882 62.7435 94.7534 62.6739C94.6185 62.6042 94.5008 62.5053 94.4091 62.3843C94.3174 62.2633 94.2539 62.1234 94.2232 61.9747C94.1925 61.826 94.1954 61.6724 94.2318 61.525C94.2681 61.3776 94.337 61.2402 94.4333 61.1228C94.5296 61.0054 94.6509 60.9111 94.7884 60.8467L112.659 48.8096C112.878 48.6565 113.148 48.5943 113.412 48.6362C113.676 48.6782 113.913 48.821 114.074 49.0345C114.157 49.1447 114.215 49.2717 114.244 49.4065C114.273 49.5414 114.273 49.6809 114.242 49.8155C114.212 49.9501 114.153 50.0765 114.069 50.1861C113.985 50.2956 113.879 50.3856 113.757 50.4498L95.9921 62.434ZM116.138 48.9419C116.027 49.0227 115.9 49.0788 115.765 49.1067C115.631 49.1345 115.492 49.1334 115.358 49.1033C115.224 49.0733 115.098 49.015 114.989 48.9325C114.879 48.8499 114.788 48.7449 114.722 48.6244C114.64 48.5095 114.584 48.3783 114.558 48.2397C114.532 48.1011 114.536 47.9584 114.57 47.8215C114.603 47.6846 114.667 47.5566 114.755 47.4463C114.843 47.336 114.953 47.2461 115.079 47.1826L120.37 43.5848C120.608 43.4744 120.876 43.4456 121.132 43.503C121.388 43.5604 121.618 43.7008 121.786 43.9022C121.944 44.1186 122.01 44.3884 121.97 44.6533C121.931 44.9182 121.788 45.1569 121.574 45.3176L116.138 48.9419ZM124.074 43.6509C123.84 43.7838 123.564 43.8235 123.302 43.7622C123.039 43.701 122.81 43.5431 122.659 43.3202C122.533 43.071 122.5 42.7852 122.565 42.5139C122.631 42.2425 122.79 42.0032 123.016 41.8387L124.418 41.0054C124.634 40.8475 124.904 40.7811 125.169 40.8208C125.434 40.8604 125.673 41.0027 125.833 41.217C125.916 41.3284 125.975 41.4563 126.004 41.5921C126.033 41.728 126.032 41.8685 126.002 42.0041C125.972 42.1397 125.913 42.2672 125.829 42.3779C125.745 42.4887 125.638 42.58 125.516 42.6456L124.074 43.6509ZM128.307 40.7541C128.087 40.904 127.818 40.9643 127.555 40.9225C127.292 40.8807 127.054 40.74 126.892 40.5292C126.817 40.4163 126.765 40.2894 126.741 40.1561C126.716 40.0229 126.719 39.8861 126.749 39.7539C126.778 39.6217 126.834 39.4968 126.913 39.3869C126.993 39.2769 127.093 39.184 127.209 39.1139L146.058 26.3625L107.421 22.8837C107.141 22.8332 106.888 22.684 106.708 22.4632C106.529 22.2424 106.434 21.9645 106.442 21.68C106.455 21.5499 106.494 21.4238 106.557 21.309C106.619 21.1942 106.704 21.0932 106.807 21.0118C106.909 20.9304 107.026 20.8704 107.152 20.8352C107.278 20.8 107.41 20.7904 107.54 20.807L149.048 24.6297C149.202 24.6082 149.36 24.6379 149.496 24.7143C149.632 24.7908 149.739 24.9097 149.802 25.053C149.957 25.2726 150.022 25.5436 149.982 25.8097C149.943 26.0758 149.802 26.3165 149.59 26.4816L128.307 40.7541Z" fill="#17262F"></path><path d="M49.8942 17.1032C49.7314 17.314 49.4942 17.4547 49.2311 17.4964C48.9681 17.5382 48.699 17.478 48.4788 17.328C48.3523 17.2629 48.2418 17.1706 48.1551 17.0578C48.0684 16.945 48.0077 16.8143 47.9773 16.6753C47.947 16.5363 47.9478 16.3923 47.9796 16.2536C48.0114 16.1149 48.0735 15.9849 48.1614 15.873C48.5803 15.2198 49.0929 14.6315 49.6826 14.127C52.55 11.618 56.2167 10.2114 60.0265 10.1587C63.5811 9.87799 67.1278 10.7903 70.1058 12.7513L70.5423 12.963C72.9769 9.3158 76.27 6.32246 80.1323 4.24603C84.5538 1.64257 89.5548 0.183171 94.6826 0C100.132 0 105.569 2.28836 110.37 5.44974C115.932 9.27942 120.796 14.0354 124.749 19.5106C125.584 18.9069 126.502 18.4258 127.474 18.082C130.123 17.0658 133.032 16.9496 135.754 17.7513C138.16 18.4853 140.239 20.0271 141.64 22.1164C142.184 22.8322 142.588 23.6446 142.831 24.5106C142.891 24.6318 142.924 24.7644 142.929 24.8996C142.934 25.0347 142.91 25.1694 142.858 25.2945C142.807 25.4196 142.73 25.5324 142.631 25.6253C142.533 25.7182 142.416 25.7891 142.288 25.8333C142.159 25.8809 142.022 25.9018 141.884 25.8947C141.747 25.8876 141.612 25.8527 141.488 25.7921C141.365 25.7315 141.255 25.6465 141.165 25.5422C141.075 25.4379 141.007 25.3164 140.966 25.1852C140.457 23.895 139.666 22.7355 138.649 21.7922C137.633 20.8489 136.417 20.1461 135.093 19.7354C132.836 19.0402 130.407 19.1572 128.228 20.0661C127.055 20.4214 125.95 20.9714 124.96 21.6931C124.743 21.8477 124.474 21.912 124.21 21.8726C123.946 21.8331 123.708 21.6929 123.545 21.4815C119.698 15.854 114.819 11.0066 109.167 7.19577C104.696 4.14021 99.6958 1.90476 94.6164 1.90476C89.8671 2.15569 85.2502 3.55847 81.164 5.99206C77.2504 8.06286 74.0034 11.1998 71.799 15.0397C71.799 15.1455 71.6931 15.2513 71.5873 15.3704C71.3922 15.5488 71.1374 15.6478 70.873 15.6478C70.6086 15.6478 70.3538 15.5488 70.1587 15.3704C69.8273 15.0082 69.4643 14.6762 69.0741 14.3783C66.3978 12.7467 63.2663 12.023 60.1455 12.3148C56.8422 12.323 53.6443 13.4778 51.0979 15.582C50.6397 16.0413 50.2358 16.5517 49.8942 17.1032Z" fill="#17262F"></path><path d="M98.9286 25.6084C98.7918 25.5875 98.6606 25.5396 98.5425 25.4676C98.4244 25.3956 98.3218 25.3009 98.2406 25.1889C98.1594 25.077 98.1012 24.95 98.0694 24.8154C98.0377 24.6807 98.033 24.5412 98.0556 24.4047C98.0611 24.273 98.0947 24.144 98.1542 24.0264C98.2136 23.9087 98.2974 23.8051 98.4001 23.7224C98.5028 23.6398 98.6219 23.58 98.7496 23.5471C98.8772 23.5142 99.0104 23.509 99.1402 23.5317L132.209 26.7989C132.342 26.8041 132.472 26.838 132.591 26.8983C132.71 26.9585 132.814 27.0436 132.897 27.1478C132.98 27.252 133.039 27.3728 133.071 27.5021C133.103 27.6313 133.107 27.766 133.082 27.8968C133.059 28.1669 132.934 28.4181 132.732 28.5997C132.531 28.7814 132.268 28.8799 131.997 28.8756L98.9286 25.6084Z" fill="#17262F"></path><path d="M107.857 30.4233C107.728 30.4101 107.603 30.3715 107.49 30.3097C107.376 30.2479 107.275 30.1641 107.194 30.0632C107.113 29.9623 107.053 29.8463 107.017 29.722C106.98 29.5976 106.969 29.4673 106.984 29.3386C106.987 29.2007 107.019 29.0648 107.076 28.9395C107.134 28.8143 107.217 28.7022 107.32 28.6104C107.423 28.5186 107.544 28.4489 107.675 28.4058C107.806 28.3627 107.945 28.347 108.082 28.3598L131.72 30.7539C131.848 30.7678 131.973 30.8069 132.086 30.869C132.2 30.931 132.3 31.0147 132.381 31.1155C132.462 31.2162 132.522 31.3319 132.559 31.456C132.595 31.58 132.606 31.7101 132.593 31.8386C132.579 31.9671 132.54 32.0917 132.478 32.2051C132.416 32.3186 132.332 32.4187 132.231 32.4997C132.13 32.5808 132.015 32.6412 131.891 32.6776C131.766 32.714 131.636 32.7255 131.508 32.7116L107.857 30.4233Z" fill="#17262F"></path><path d="M114.722 41.7328C114.829 41.653 114.95 41.595 115.079 41.5624C115.208 41.5298 115.342 41.5231 115.474 41.5428C115.606 41.5625 115.732 41.6081 115.846 41.6771C115.96 41.746 116.059 41.8369 116.138 41.9445C116.219 42.0503 116.279 42.1715 116.312 42.3009C116.346 42.4302 116.353 42.5651 116.333 42.6973C116.314 42.8294 116.267 42.9563 116.197 43.0701C116.127 43.184 116.035 43.2825 115.926 43.3598L95.6614 57.3149C95.4412 57.4648 95.1721 57.5251 94.9091 57.4833C94.646 57.4415 94.4089 57.3008 94.246 57.09C94.1661 56.9835 94.1082 56.8622 94.0756 56.7331C94.0429 56.604 94.0363 56.4698 94.056 56.3381C94.0757 56.2064 94.1213 56.08 94.1903 55.9661C94.2592 55.8522 94.3501 55.7531 94.4577 55.6746L114.722 41.7328Z" fill="#17262F"></path><path d="M104.272 42.7116C104.384 42.6314 104.512 42.576 104.647 42.5491C104.782 42.5222 104.921 42.5245 105.055 42.5558C105.189 42.5872 105.315 42.6468 105.424 42.7307C105.533 42.8146 105.623 42.9208 105.688 43.0423C105.821 43.2766 105.86 43.5524 105.799 43.8146C105.738 44.0769 105.58 44.3065 105.357 44.4577L89.6693 55.2381C89.4512 55.382 89.186 55.4366 88.9288 55.3905C88.6716 55.3444 88.4419 55.2012 88.2873 54.9905C88.1327 54.7799 88.0649 54.5178 88.0981 54.2586C88.1313 53.9994 88.2629 53.7628 88.4656 53.5979L104.272 42.7116Z" fill="#17262F"></path><path d="M49.4577 21.2434C49.418 21.1144 49.407 20.9784 49.4255 20.8447C49.4439 20.7111 49.4913 20.5831 49.5644 20.4697C49.6375 20.3563 49.7345 20.2603 49.8485 20.1883C49.9626 20.1163 50.0911 20.0701 50.2249 20.0529C50.4845 19.9935 50.757 20.0396 50.9827 20.1809C51.2083 20.3223 51.3687 20.5474 51.4286 20.8069L56.5476 43.6508C56.6027 43.9103 56.553 44.1811 56.4092 44.4041C56.2655 44.6271 56.0395 44.7842 55.7804 44.8413C55.5064 44.8926 55.223 44.845 54.9808 44.7069C54.7385 44.5688 54.5532 44.3493 54.4577 44.0873L49.4577 21.2434Z" fill="#17262F"></path><path d="M53.7169 23.3202C53.675 23.1914 53.6619 23.055 53.6785 22.9205C53.695 22.7861 53.7408 22.657 53.8127 22.5422C53.8846 22.4274 53.9808 22.3298 54.0945 22.2562C54.2083 22.1827 54.3367 22.135 54.4709 22.1165C54.6003 22.0872 54.7343 22.0839 54.865 22.1068C54.9957 22.1296 55.1206 22.178 55.2326 22.2493C55.3445 22.3207 55.4411 22.4134 55.517 22.5223C55.5929 22.6312 55.6464 22.754 55.6746 22.8837L58.6111 36.1112C58.6424 36.2398 58.6475 36.3734 58.6264 36.504C58.6052 36.6347 58.5581 36.7598 58.4878 36.8719C58.4176 36.9841 58.3256 37.0811 58.2173 37.1572C58.1089 37.2332 57.9865 37.2868 57.8571 37.3149C57.596 37.3703 57.3235 37.3209 57.0984 37.1774C56.8733 37.0339 56.7135 36.8078 56.6534 36.5477L53.7169 23.3202Z" fill="#17262F"></path><path d="M54.1534 54.2329C54.0176 54.1981 53.8908 54.1345 53.7817 54.0464C53.6726 53.9584 53.5836 53.8479 53.5209 53.7225C53.4582 53.597 53.4232 53.4596 53.4182 53.3194C53.4132 53.1793 53.4384 53.0397 53.4921 52.9102C53.5823 52.6493 53.772 52.4348 54.0198 52.3134C54.2676 52.192 54.5534 52.1735 54.8148 52.262L85.8598 62.1694C85.9945 62.2057 86.1198 62.2704 86.2274 62.3591C86.3351 62.4478 86.4225 62.5585 86.4839 62.6838C86.5453 62.809 86.5792 62.946 86.5833 63.0854C86.5875 63.2248 86.5618 63.3635 86.5079 63.4922C86.4147 63.7513 86.2253 63.9645 85.979 64.0877C85.7327 64.2108 85.4484 64.2344 85.1852 64.1535L54.1534 54.2329Z" fill="#17262F"></path></g><defs><clipPath id="clip0_5678_16840"><rect width="150" height="84.8942" fill="white"></rect></clipPath></defs></svg>