<svg xmlns="http://www.w3.org/2000/svg" width="92" height="75" viewBox="0 0 92 75" fill="none"><g clip-path="url(#clip0_5678_33732)"><path d="M28.0918 52.4474C28.0857 52.2667 28.0543 52.0877 27.9984 51.9158C27.9943 51.892 27.9943 51.8677 27.9984 51.8439C27.9271 51.6711 27.8249 51.5129 27.6966 51.3769C27.5842 51.2684 27.4587 51.1743 27.323 51.0967L22.2722 48.3594L27.6104 43.2009C27.9172 42.9055 28.0941 42.5004 28.1021 42.0746C28.1102 41.6488 27.9488 41.2373 27.6535 40.9305C27.3581 40.6237 26.953 40.4469 26.5273 40.4388C26.1015 40.4307 25.6899 40.5921 25.3832 40.8874L18.45 47.5763C18.2685 47.7525 18.1312 47.9691 18.049 48.2083C17.9669 48.4476 17.9423 48.7029 17.9773 48.9534C18.0123 49.204 18.1059 49.4427 18.2504 49.6504C18.395 49.858 18.5864 50.0286 18.8093 50.1484L23.7882 52.8067L18.45 57.9652C18.2188 58.1868 18.0593 58.4725 17.9921 58.7856C17.9249 59.0987 17.953 59.4247 18.0729 59.7216C18.1927 60.0186 18.3988 60.2728 18.6645 60.4514C18.9303 60.6301 19.2434 60.7251 19.5636 60.7241C19.9798 60.725 20.3797 60.5624 20.6772 60.2715L27.6104 53.5898C27.7257 53.4788 27.8227 53.3503 27.8978 53.209C27.9151 53.1793 27.9295 53.148 27.9409 53.1156C27.9409 53.1156 27.9409 53.0653 27.9409 53.0366C28.0105 52.8701 28.0495 52.6924 28.0558 52.5121L28.0918 52.4474Z" fill="#17262F"></path><path d="M89.9583 19.3409H85.7769V13.6507C85.7496 13.2434 85.5686 12.8617 85.2705 12.5828C84.9723 12.304 84.5794 12.1489 84.1711 12.1489C83.7629 12.1489 83.3699 12.304 83.0718 12.5828C82.7737 12.8617 82.5926 13.2434 82.5654 13.6507V19.3984H75.9196V13.6507C75.8924 13.2434 75.7113 12.8617 75.4132 12.5828C75.1151 12.304 74.7221 12.1489 74.3139 12.1489C73.9056 12.1489 73.5127 12.304 73.2145 12.5828C72.9164 12.8617 72.7354 13.2434 72.7081 13.6507V19.3984H68.5339C68.1083 19.3984 67.7 19.567 67.3984 19.8672C67.0968 20.1675 66.9264 20.575 66.9245 21.0006V25.5125C66.9245 29.1623 72.6363 36.6845 77.6367 38.1358V52.6703C77.6367 54.5288 76.8989 56.3113 75.5855 57.6261C74.272 58.9409 72.4903 59.6805 70.6318 59.6824H69.3888C67.5297 59.6805 65.7472 58.9411 64.4326 57.6265C63.118 56.3119 62.3786 54.5294 62.3767 52.6703V22.2722C62.3786 20.9287 62.1158 19.598 61.6034 18.356C61.091 17.114 60.339 15.9851 59.3903 15.0337C58.4416 14.0824 57.3148 13.3272 56.0743 12.8113C54.8337 12.2954 53.5037 12.0289 52.1602 12.027H46.0317C45.9347 8.80707 44.5884 5.75127 42.2779 3.50649C39.9674 1.2617 36.874 0.00413697 33.6526 0L12.3934 0C9.10765 0.00380298 5.95755 1.31076 3.63415 3.63415C1.31076 5.95755 0.00380298 9.10765 0 12.3934L0 73.3978C-2.12148e-06 73.6088 0.041676 73.8178 0.122641 74.0126C0.203606 74.2075 0.322264 74.3844 0.471801 74.5333C0.621337 74.6822 0.798807 74.8 0.994021 74.8801C1.18923 74.9602 1.39835 75.0009 1.60935 75H44.4439C44.8688 75 45.2763 74.8312 45.5768 74.5307C45.8773 74.2303 46.0461 73.8228 46.0461 73.3978V15.2385H52.1602C53.0822 15.2395 53.9951 15.4223 54.8464 15.7764C55.6977 16.1306 56.4708 16.6492 57.1215 17.3025C57.7722 17.9558 58.2876 18.7311 58.6383 19.5838C58.9889 20.4366 59.168 21.3502 59.1651 22.2722V52.6703C59.167 55.3812 60.2448 57.9805 62.1617 59.8974C64.0786 61.8143 66.6779 62.8921 69.3888 62.894H70.6318C73.3414 62.8901 75.9389 61.8116 77.8542 59.8949C79.7696 57.9782 80.8464 55.3799 80.8483 52.6703V38.0784C86.014 36.6989 91.5605 29.2916 91.5605 25.4335V20.9431C91.5605 20.7327 91.5191 20.5244 91.4385 20.33C91.358 20.1356 91.24 19.959 91.0912 19.8102C90.9425 19.6614 90.7658 19.5434 90.5714 19.4629C90.3771 19.3824 90.1687 19.3409 89.9583 19.3409ZM42.8346 71.7885H3.21151V12.3934C3.21342 9.95882 4.18141 7.62447 5.90294 5.90294C7.62447 4.18141 9.95882 3.21342 12.3934 3.21151H33.6526C36.0873 3.21342 38.4216 4.18141 40.1431 5.90294C41.8647 7.62447 42.8327 9.95882 42.8346 12.3934V71.7885ZM88.3705 25.455C88.3705 28.1852 82.7881 35.1255 79.2676 35.1255C75.9124 35.1255 70.1648 27.9984 70.1648 25.455V22.5812H88.3705V25.455Z" fill="#17262F"></path><path d="M36.6774 8.54248H9.10288C8.67605 8.54248 8.26671 8.71204 7.9649 9.01385C7.66309 9.31566 7.49353 9.725 7.49353 10.1518V31.5691C7.49353 31.7801 7.53521 31.989 7.61617 32.1839C7.69714 32.3787 7.81579 32.5557 7.96533 32.7046C8.11487 32.8534 8.29234 32.9713 8.48755 33.0514C8.68276 33.1315 8.89188 33.1722 9.10288 33.1713H36.6774C36.8884 33.1722 37.0975 33.1315 37.2927 33.0514C37.4879 32.9713 37.6654 32.8534 37.8149 32.7046C37.9644 32.5557 38.0831 32.3787 38.1641 32.1839C38.245 31.989 38.2867 31.7801 38.2867 31.5691V10.1518C38.2867 9.725 38.1172 9.31566 37.8153 9.01385C37.5135 8.71204 37.1042 8.54248 36.6774 8.54248ZM24.6863 27.632C25.6962 28.0939 26.4889 28.9278 26.8991 29.9598H18.8739C19.0897 29.4149 19.4142 28.9198 19.8278 28.5047C20.2414 28.0895 20.7352 27.763 21.2792 27.5451C21.8232 27.3273 22.4059 27.2226 22.9917 27.2375C23.5775 27.2525 24.1541 27.3867 24.6863 27.632ZM35.068 29.9598H30.24C29.8707 28.274 28.9319 26.7669 27.5817 25.6921L30.1681 21.7406C30.3 21.5646 30.3945 21.3635 30.4456 21.1496C30.4967 20.9357 30.5035 20.7136 30.4655 20.497C30.4274 20.2804 30.3454 20.0739 30.2245 19.8902C30.1035 19.7065 29.9462 19.5496 29.7623 19.4291C29.5783 19.3086 29.3716 19.2271 29.1549 19.1896C28.9382 19.152 28.7161 19.1593 28.5024 19.211C28.2886 19.2627 28.0877 19.3576 27.912 19.4899C27.7364 19.6222 27.5897 19.7891 27.4811 19.9804L24.6863 24.2552C23.7096 24.0121 22.694 23.9677 21.6998 24.1246C20.7056 24.2815 19.753 24.6365 18.8987 25.1686C18.0443 25.7006 17.3055 26.3989 16.7261 27.2219C16.1467 28.045 15.7386 28.976 15.5259 29.9598H10.7122V11.754H35.068V29.9598Z" fill="#17262F"></path></g><defs><clipPath id="clip0_5678_33732"><rect width="91.5605" height="75" fill="white"></rect></clipPath></defs></svg>