<svg xmlns="http://www.w3.org/2000/svg" width="70" height="95" viewBox="0 0 70 95" fill="none"><g clip-path="url(#clip0_5678_33685)"><path d="M34.4857 95C29.7484 95.0102 25.0615 94.0271 20.7276 92.114C15.8993 89.8807 11.6694 86.5341 8.38525 82.349C7.95872 81.8045 7.55033 81.26 7.16009 80.7064L6.78801 80.1891L9.22018 78.6009L9.56504 79.1001C9.90083 79.5901 10.2638 80.0711 10.645 80.543C13.6483 84.3737 17.5174 87.4373 21.9346 89.4822C25.8891 91.2249 30.1643 92.1214 34.4857 92.114C40.102 92.1385 45.6238 90.6695 50.4855 87.8577L50.9846 87.5673L52.6363 89.9904L52.0827 90.3171C49.4569 91.8439 46.6402 93.0157 43.7062 93.802C40.6988 94.6051 37.5985 95.0079 34.4857 95ZM53.5438 85.8793L53.9794 85.5254C55.4686 84.3222 56.8419 82.9823 58.0815 81.5232L58.4717 81.0603L60.7042 82.8754L60.2958 83.3473C58.8993 85.0115 57.3397 86.5316 55.6402 87.8849L55.1139 88.3024L53.5438 85.8793ZM60.3049 78.6191L60.6044 78.1562C62.3174 75.5401 63.6755 72.7081 64.6429 69.7344C66.1489 65.2642 66.6963 60.5269 66.2492 55.8311C66.0586 53.898 65.8227 52.1102 65.5232 50.3859L65.4234 49.7688L68.273 49.3422L68.3819 49.9321C68.6632 51.6111 68.9083 53.4443 69.1261 55.5407C69.6019 60.6448 69.018 65.7922 67.4109 70.6601C66.3184 73.9373 64.7923 77.0535 62.8732 79.9259L62.5011 80.4977L60.3049 78.6191ZM4.86405 77.04C2.5137 72.8118 1.03551 68.1551 0.51699 63.3454C-0.13643 56.8838 -0.30886 53.3626 0.798323 47.0916C1.34284 43.9606 2.74951 35.811 3.52091 31.9449C4.98203 24.9025 6.00753 22.3251 7.89519 18.8856C8.43971 17.9146 8.957 17.0161 9.50151 16.163L9.8373 15.6185L12.2422 17.243L11.9155 17.7421C11.4255 18.5044 10.9626 19.3031 10.4272 20.2651C8.68474 23.4414 7.70461 25.8463 6.36147 32.5167C5.63545 36.0742 4.39213 43.2981 3.79316 46.7739L3.62981 47.5907C2.58615 53.5169 2.72228 56.8566 3.3757 63.0187C3.84845 67.4195 5.19031 71.6826 7.32345 75.5607L7.59571 76.0599L5.18168 77.6208L4.86405 77.04ZM64.6338 46.2839C63.3407 41.4751 61.6811 36.7725 59.6696 32.2172L58.4717 29.2768C55.9327 23.058 52.7415 17.1259 48.9517 11.58L48.616 11.1081L50.8666 9.29304L51.2478 9.81034C55.1986 15.545 58.5211 21.688 61.158 28.1333L61.3667 28.6506C61.6934 29.4674 62.0111 30.2479 62.2742 31.0102C64.3673 35.766 66.0936 40.6749 67.4381 45.694L67.6014 46.3474L64.7246 46.7739L64.6338 46.2839ZM11.5707 13.15L11.9791 12.6237C14.9377 8.93377 18.607 5.87547 22.7696 3.63007C25.6282 1.87141 28.804 0.690504 32.1171 0.15424C32.9019 0.0456642 33.6935 -0.00589745 34.4857 -4.00924e-05C38.7202 0.00511914 42.8267 1.45184 46.1293 4.10198C46.9965 4.82494 47.8094 5.61055 48.5615 6.45248L49.0062 6.94255L46.7283 8.7576L46.3381 8.34014C45.7197 7.62578 45.0461 6.96124 44.3233 6.35265C41.5358 4.10843 38.0645 2.88515 34.4857 2.8859C33.8211 2.88214 33.157 2.92459 32.4983 3.01295C29.5553 3.49437 26.7346 4.54558 24.1944 6.10762C20.3903 8.16634 17.0339 10.9613 14.3205 14.3298L13.9665 14.7745L11.5707 13.15Z" fill="#17262F"></path><path d="M33.7872 86.2151C30.1258 86.2219 26.5032 85.4646 23.151 83.9917C21.771 83.3675 20.455 82.6107 19.2214 81.7319L18.6225 81.3054L20.7188 79.2725L21.1363 79.563C22.1436 80.2641 23.2129 80.8716 24.3308 81.378C27.3111 82.6877 30.5318 83.3615 33.7872 83.3564C36.4437 83.3531 39.0823 82.921 41.6011 82.0768C43.4916 81.4533 45.2919 80.5837 46.9555 79.4903L47.4546 79.1636L49.1517 81.5141L48.6162 81.8681C44.2053 84.7373 39.0492 86.2488 33.7872 86.2151ZM49.8051 77.2488L50.1953 76.8767C53.5553 73.492 56.0031 69.3114 57.3104 64.7249C58.4774 61.002 58.8848 57.0826 58.5083 53.1993C58.1348 49.1102 57.2663 45.0815 55.9218 41.2018L55.7222 40.6391L58.4448 39.6317L58.6535 40.2307C60.0791 44.338 60.9935 48.6053 61.3761 52.9361C61.7952 57.1974 61.3539 61.4995 60.0783 65.587C58.6143 70.7294 55.837 75.402 52.0195 79.1455L51.5113 79.6265L49.8051 77.2488ZM15.8999 78.9549C14.9146 77.9912 14.0044 76.9536 13.1773 75.8512C11.3572 73.453 9.89029 70.8064 8.82116 67.992L8.60335 67.4202L11.3259 66.3947L11.5437 66.9665C12.5197 69.5217 13.8519 71.9262 15.5006 74.1087C16.2557 75.104 17.0774 76.0469 17.96 76.9311L18.4047 77.3667L16.3355 79.3633L15.8999 78.9549ZM7.57785 63.8083C7.31053 62.6116 7.11957 61.3991 7.0061 60.1782C6.39135 55.7808 6.45562 51.3152 7.19668 46.9373C7.46894 45.2403 8.63965 38.1615 9.3566 34.6222C10.4275 29.3858 11.1717 26.9899 12.8234 23.9497C15.3708 18.8456 19.3799 14.6154 24.3399 11.7979C26.5772 10.3899 29.0631 9.42262 31.6636 8.94823C32.19 8.86655 32.7254 8.83025 33.2609 8.79395H34.0232L33.5785 11.6708H33.0975C32.7708 11.6708 32.4441 11.7253 32.1083 11.7797C29.8738 12.1944 27.741 13.0389 25.8282 14.2663C21.3025 16.8172 17.657 20.6809 15.3735 25.3473C13.8942 28.1334 13.1773 30.3477 12.1881 35.2393C11.3985 39.2052 10.0645 47.3729 10.0463 47.4546C9.34644 51.5863 9.28523 55.801 9.86482 59.9513C9.96189 60.9557 10.1225 61.953 10.3458 62.937L10.4638 63.4543L7.7412 64.5071L7.57785 63.8083ZM53.1267 34.0686C52.9724 33.6693 52.809 33.27 52.6457 32.8616L52.2464 31.8815C50.0955 26.5361 45.3764 17.4064 41.0747 14.1574C39.8829 13.2491 38.5316 12.572 37.0906 12.1609L36.5734 12.0157L37.018 9.13881L37.6896 9.32031C39.5446 9.83425 41.2847 10.6966 42.8171 11.8614C47.5544 15.4824 52.6366 25.1748 54.9145 30.8559L57.1289 36.3011L57.3648 36.891L54.6422 37.8984L53.1267 34.0686Z" fill="#17262F"></path><path d="M33.0522 77.4756C30.4724 77.488 27.9187 76.9594 25.556 75.9237C23.8532 75.1649 22.2961 74.1145 20.9548 72.8199L20.4647 72.3571L22.6247 70.4331L23.033 70.8234C24.1131 71.8483 25.3589 72.6829 26.7176 73.2919C28.7234 74.1567 30.886 74.5985 33.0703 74.5896C36.8916 74.5953 40.5976 73.2809 43.5613 70.8687C46.5289 68.3821 48.6798 64.6522 49.9685 59.7697C50.8076 56.8009 51.0967 53.7037 50.8215 50.6309C50.5045 47.5146 49.8191 44.4469 48.7796 41.4921L48.589 40.9203L51.3116 39.9221L51.5113 40.512C52.6312 43.6825 53.3656 46.9763 53.6984 50.3223C54.0323 53.7464 53.7245 57.2027 52.7909 60.5139C51.357 65.959 48.8885 70.1972 45.4671 73.074C41.974 75.9535 37.5789 77.5117 33.0522 77.4756ZM18.0689 69.4349L17.9963 69.335C15.5114 65.7085 13.9705 61.5193 13.5131 57.1469C13.0667 53.7377 13.1003 50.2827 13.6129 46.8828C13.9487 44.5868 14.6838 39.9947 15.2011 37.3991C15.4461 36.1467 15.6367 35.2483 15.8364 34.4769L16.0088 33.8235L18.7314 34.8036L18.6043 35.339C18.4137 36.1104 18.2504 36.9635 18.0507 37.9618C17.5334 40.5301 16.8165 45.0496 16.4807 47.3003C15.9965 50.4561 15.9659 53.6649 16.3899 56.8293C16.7889 60.7195 18.1623 64.4463 20.3831 67.6652L20.6826 68.1099L18.568 70.052L18.0689 69.4349ZM47.1914 37.5443C46.9918 37.027 46.774 36.5007 46.5652 35.9652L46.3928 35.5569C46.2567 35.2211 46.1206 34.8853 45.9844 34.5313C44.7194 31.4869 43.1569 28.5747 41.3197 25.8372L41.0384 25.4107L43.2618 23.5956L43.6521 24.1402C45.6545 27.0898 47.3427 30.2409 48.6889 33.5421L49.914 36.4916L50.1591 37.0815L47.4365 38.1161L47.1914 37.5443ZM16.9072 30.9285L17.1795 30.3295C17.3519 29.9302 17.5425 29.5218 17.7422 29.1043C19.5172 25.3446 22.3573 22.189 25.9099 20.0291C27.514 18.9505 29.3101 18.1896 31.2008 17.7875C31.8443 17.6674 32.4974 17.6066 33.152 17.606C35.4178 17.619 37.6288 18.3044 39.5047 19.5753C39.9793 19.9267 40.4254 20.3151 40.8387 20.7369L41.3379 21.2179L39.0872 23.033L38.7151 22.6881C38.446 22.4363 38.1577 22.2057 37.853 21.9984C36.4647 21.0392 34.8211 20.5177 33.1338 20.501C32.6585 20.4982 32.1842 20.5438 31.7181 20.6371C30.1913 20.9664 28.7409 21.5823 27.4436 22.4522C24.3402 24.3268 21.8638 27.0812 20.3286 30.3658C20.1653 30.7016 20.0019 31.0283 19.8567 31.3641L19.6298 31.9086L16.9072 30.9285Z" fill="#17262F"></path><path d="M32.3352 68.718C30.8301 68.721 29.3406 68.412 27.9609 67.8105C25.6908 66.7402 23.8373 64.9505 22.6882 62.7192C21.1784 60.029 20.2508 57.0515 19.9656 53.9798C19.829 52.6805 19.7623 51.3748 19.7659 50.0683V49.3695L22.6337 49.7688V50.3043C22.6337 51.3207 22.6973 52.3371 22.8243 53.7075C23.0843 56.3744 23.9038 58.9566 25.2293 61.2854C26.0692 62.9671 27.4235 64.3372 29.0953 65.1968C30.1208 65.6269 31.2233 65.8431 32.3352 65.8321C33.5156 65.8331 34.6856 65.6114 35.7838 65.1786C36.8723 64.7368 37.8693 64.0967 38.7242 63.291C39.6782 62.3441 40.4557 61.2347 41.0202 60.0148L41.2562 59.5338L43.9788 60.4413L43.6884 61.0675C42.9689 62.6618 41.963 64.1106 40.7208 65.342C38.4586 67.4959 35.4587 68.7036 32.3352 68.718ZM42.2091 56.657L42.3634 56.0943C42.4541 55.7767 42.5267 55.4409 42.5993 55.096L42.6538 54.8147C43.1451 52.5903 43.2768 50.3015 43.044 48.0354C42.5903 44.0968 41.5375 41.5103 40.0764 37.9256L39.8405 37.3357L39.7497 37.2086V36.5461L42.1093 35.3936L42.3815 35.9472C42.4203 36.0191 42.4508 36.0952 42.4723 36.1741L42.7536 36.8366C44.2329 40.4667 45.4036 43.3435 45.9209 47.7269C46.1878 50.302 46.0407 52.9032 45.4853 55.4318C45.3855 55.9128 45.2675 56.421 45.1404 56.9655L44.9771 57.6099L42.2091 56.657ZM20.0382 46.3384L20.1199 45.7394C20.3921 43.6521 20.7189 41.5466 21.0274 40.1309C21.3431 38.114 21.9007 36.1426 22.6882 34.2592C23.6913 31.8854 25.3229 29.8302 27.4073 28.3149C28.3665 27.5583 29.4594 26.9887 30.6291 26.6359C31.2202 26.4716 31.8305 26.3862 32.4441 26.3818C33.6917 26.3921 34.9183 26.7035 36.0198 27.2894C37.8893 28.2876 39.4502 30.4566 40.4304 32.0993L40.8387 32.671L38.2341 33.9415L37.9437 33.4606C37.174 32.0142 36.0732 30.7703 34.7311 29.8304C34.0484 29.4679 33.2896 29.272 32.5167 29.2587C32.1517 29.256 31.7881 29.3049 31.4368 29.4039C30.6067 29.6665 29.8316 30.0786 29.1498 30.62C27.4508 31.8298 26.1141 33.4803 25.2837 35.3936C24.5887 37.0837 24.0982 38.8507 23.8226 40.6572C23.5413 42.1184 23.2146 44.2874 22.9786 46.1024L22.8969 46.7286L20.0382 46.3384Z" fill="#17262F"></path><path d="M38.1888 45.077C37.8289 42.9849 37.1942 40.9495 36.3011 39.0238L36.2013 38.7697C35.7929 37.7623 34.6857 35.1395 32.2535 34.9217C32.142 34.9082 32.0293 34.9082 31.9177 34.9217C29.8849 34.9217 28.2332 36.6642 27.4799 39.5864C25.919 45.7213 25.9008 51.2391 27.4073 55.9855C27.8248 57.2741 28.578 59.0801 30.3749 59.788C30.8197 59.9653 31.2938 60.0577 31.7725 60.0603C32.6362 60.0062 33.4754 59.7516 34.2237 59.3169C34.9719 58.8821 35.6086 58.2791 36.0833 57.5555C37.6352 55.332 37.971 52.6095 38.1615 50.2227C38.368 48.5142 38.3772 46.7876 38.1888 45.077ZM35.3119 49.9686C35.1576 51.956 34.8944 54.2249 33.7328 55.8766C33.4743 56.2421 33.1439 56.5509 32.7617 56.7841C32.4759 57.0117 32.1279 57.1477 31.7635 57.1743C31.6485 57.1746 31.5346 57.153 31.4277 57.1108C30.9285 56.9111 30.5202 56.2033 30.1481 55.1052C28.8049 50.867 28.8503 45.8847 30.2751 40.3034C30.4178 39.3565 30.902 38.4946 31.6364 37.8803C31.7811 37.8344 31.9364 37.8344 32.0811 37.8803C32.5349 38.0255 32.9886 38.6971 33.5331 39.9404L33.5967 40.0856C34.3882 41.8224 34.9583 43.6518 35.2937 45.5307C35.4582 47.0051 35.4643 48.4929 35.3119 49.9686Z" fill="#17262F"></path></g><defs><clipPath id="clip0_5678_33685"><rect width="69.2716" height="95" fill="white"></rect></clipPath></defs></svg>