<svg xmlns="http://www.w3.org/2000/svg" width="90" height="90" viewBox="0 0 90 90" fill="none"><g clip-path="url(#clip0_5678_32897)"><path d="M51.893 0.528418C45.7406 -0.419796 39.4583 -0.0812961 33.4434 1.52252C27.4284 3.12633 21.8116 5.96058 16.948 9.8461C16.7906 9.93739 16.6472 10.0511 16.5225 10.1836C9.70447 15.7536 4.67121 23.2023 2.04677 31.6061C-0.577658 40.0098 -0.677838 48.9991 1.75866 57.4592C4.19515 65.9194 9.06116 73.4784 15.7534 79.199C22.4456 84.9196 30.6696 88.5502 39.4058 89.6407H39.5746C41.3736 89.8606 43.1841 89.9733 44.9964 89.9782C56.4835 89.9826 67.5343 85.5786 75.8695 77.6744C76.031 77.5678 76.1725 77.4337 76.2877 77.2782C82.3013 71.4581 86.5714 64.0753 88.6175 55.9605C90.6636 47.8456 90.4046 39.3208 87.8696 31.3452C85.3345 23.3695 80.6241 16.2596 74.2682 10.8153C67.9124 5.37102 60.1633 1.80844 51.893 0.528418ZM3.29432 44.9965C3.29634 38.9424 4.61883 32.9616 7.16958 27.4711C9.72032 21.9806 13.4379 17.1126 18.0632 13.2063C18.5841 13.4631 18.8996 13.7199 18.9656 13.9767C18.9624 14.0207 18.9624 14.0648 18.9656 14.1088C20.4697 18.4741 17.3442 26.772 15.2973 32.2599C13.6978 36.4932 13.0962 38.2614 13.4557 39.4939C14.0057 41.3388 14.2291 43.2655 14.116 45.1873L14.0133 45.0038C13.1476 43.5805 12.1645 41.9591 10.4697 42.2379C5.9649 42.9716 4.65895 49.3325 4.87906 53.4118C5.05514 56.5666 6.99204 61.3721 9.59659 63.4925C12.0764 65.5174 15.1799 64.2261 17.667 63.2357C18.7462 62.7363 19.8819 62.3692 21.0493 62.1425L22.5606 61.9518C24.9537 61.5402 27.3892 61.4317 29.8094 61.6289C32.0617 61.9151 34.8791 63.0523 36.0236 65.3854C36.5855 66.8208 36.8741 68.3486 36.8747 69.8901C37.2415 75.3144 37.6059 80.729 37.9678 86.1337C28.2676 84.4617 19.4695 79.4176 13.1257 71.8912C6.78184 64.3648 3.29998 54.8398 3.29432 44.9965ZM75.422 63.83C75.0992 64.8758 74.7045 65.898 74.2408 66.8894C73.5061 68.4304 72.9663 70.0571 72.634 71.7316C72.4137 73.1347 72.5397 74.5703 73.0008 75.9136C65.3473 82.8679 55.3743 86.7164 45.0331 86.706C43.7859 86.706 42.5533 86.6399 41.3648 86.5372C40.9832 80.9075 40.6042 75.2826 40.2276 69.6627C40.2108 67.6916 39.8096 65.7427 39.0463 63.9253C37.579 60.9466 34.3068 58.863 30.2862 58.3567C27.5927 58.1248 24.8806 58.2382 22.2158 58.6942L20.7485 58.885C19.262 59.1147 17.8133 59.5441 16.4418 60.1616C14.1527 61.086 12.59 61.6289 11.6949 60.8953C9.87539 59.4279 8.31266 55.5321 8.1806 53.1843C8.01185 50.0735 8.91427 46.4565 10.5357 45.6055C10.7558 45.9063 11.0273 46.3391 11.2107 46.6619C12.0617 48.0633 13.221 49.9708 15.0772 49.2592C19.017 47.7918 16.9774 39.7727 16.6546 38.5915C16.6986 37.8578 17.6303 35.378 18.3934 33.3677C20.7485 27.1022 23.9766 18.5402 22.1351 13.0523C21.9118 12.2526 21.4451 11.5424 20.7998 11.02C27.859 5.96254 36.3272 3.2476 45.0111 3.25769C45.4587 3.25769 45.8989 3.25769 46.3391 3.25769C42.4139 6.55923 41.086 11.1374 42.5533 16.6253C42.6541 17.0013 42.8856 17.329 43.2063 17.5497C43.8429 17.9327 44.5549 18.173 45.2934 18.254C46.0319 18.3351 46.7791 18.255 47.4836 18.0192C48.2306 17.8431 48.9329 17.5142 49.5466 17.0533C50.1603 16.5925 50.6719 16.0096 51.0493 15.3413C51.3463 15.1514 51.6823 15.031 52.0324 14.9892C51.7632 15.5535 51.4229 16.0812 51.0199 16.5592C49.7213 18.2027 47.2929 19.626 45.0478 18.863C44.7117 18.7478 44.3474 18.7441 44.009 18.8525C43.6706 18.9609 43.3762 19.1755 43.1696 19.4646C41.915 21.2327 42.7074 23.6025 43.4117 25.6862C43.7419 26.684 44.3582 28.5255 44.1454 28.9363C43.6318 29.3839 40.9612 29.1124 39.8167 29.0024C38.8106 28.8626 37.7943 28.811 36.7793 28.8483C36.4104 28.8862 36.065 29.0473 35.7988 29.3055C35.5326 29.5637 35.3611 29.904 35.3119 30.2716C34.9157 33.2063 36.119 38.1366 39.3398 39.2665C43.0082 40.5211 47.4616 36.4565 48.3273 35.5981C48.6978 35.2051 49.0364 34.7831 49.3398 34.3362C50.9759 32.1352 52.1498 30.9173 53.309 31.5409C53.3677 31.5409 59.8314 34.4756 62.1131 33.5365C62.4056 33.4314 62.6608 33.2426 62.8468 32.9936C63.5805 31.9664 63.8152 30.301 64.116 27.447C64.4462 24.3509 64.9378 19.7507 66.7132 19.1124C66.7132 19.5453 66.5739 20.1396 66.5005 20.5798C66.2217 22.1719 65.9062 23.9914 66.5372 25.5834C66.5645 25.6563 66.5964 25.7273 66.6325 25.7962C67.9825 28.1807 69.8754 28.2393 71.2547 28.276C71.8382 28.2637 72.4206 28.3303 72.9862 28.4741C72.3718 29.1953 71.6805 29.8473 70.9245 30.4184C70.4623 30.7925 70.0295 31.152 69.6553 31.4969C64.3141 36.4932 57.2415 37.1315 52.0471 37.5937C48.0779 37.9459 44.9451 38.232 44.4389 40.8366C43.5805 45.1726 50.565 54.703 51.6509 55.9943C56.0529 61.1961 63.0449 59.8314 68.1733 58.8336C70.6751 58.3494 73.2576 57.8505 74.2701 58.3787C75.7595 59.2298 76.0016 61.7977 75.422 63.83ZM75.7815 73.133C75.7752 72.853 75.7949 72.573 75.8402 72.2966C76.1468 70.8802 76.6222 69.5058 77.2562 68.2027C77.7787 67.0806 78.2224 65.9235 78.5841 64.7397C79.5232 61.5042 79.017 57.2416 75.6934 55.5027C73.6538 54.4463 70.7778 55.0038 67.4469 55.6495C62.6413 56.5812 57.1755 57.6377 54.0647 53.918C51.4675 50.8292 47.3809 43.7713 47.5423 41.6583C48.1806 41.2768 50.477 41.0713 52.2378 40.9246C57.557 40.4404 65.6054 39.7214 71.7756 33.9547C72.0911 33.6539 72.5093 33.3457 72.8688 33.0229C74.681 31.5556 77.4102 29.3545 75.8475 26.5886C75.7005 26.3182 75.4755 26.0984 75.2019 25.9576C73.9725 25.3209 72.6021 25.0054 71.218 25.0405C70.0808 25.0038 69.824 24.9965 69.4352 24.3068C69.2854 23.2539 69.3453 22.1818 69.6113 21.152C69.9121 19.4059 70.1909 17.7551 69.1124 16.6033C68.7804 16.2699 68.3732 16.0213 67.925 15.8782C67.4768 15.7352 67.0008 15.7021 66.5372 15.7815C61.8637 16.2731 61.2033 22.5387 60.7118 27.1168C60.6017 28.2027 60.455 29.582 60.2716 30.411C58.4035 29.9991 56.5783 29.412 54.8204 28.6575C50.8952 26.5666 48.0119 30.5137 46.6252 32.4066C46.4253 32.6969 46.2097 32.9761 45.9796 33.243C43.9033 35.246 41.4308 36.5152 40.3596 36.1777C39.4792 35.8696 38.6795 33.9767 38.5034 32.2012L39.4572 32.2966C42.3039 32.5827 45.5247 32.9129 46.882 30.7338C47.9825 28.9804 47.2488 26.7867 46.5372 24.6663C46.2684 23.9151 46.0455 23.1482 45.8695 22.3699C47.3657 22.411 48.8498 22.0918 50.1969 21.4394C51.5439 20.7869 52.7144 19.8203 53.6098 18.6209C54.2554 17.8065 56.1997 15.3413 55.1799 13.2944C54.8874 12.7693 54.449 12.3401 53.9178 12.0589C53.3865 11.7777 52.7852 11.6563 52.1865 11.7096C50.6384 11.7096 48.7455 12.502 48.0999 13.9107C47.7425 14.3959 47.2211 14.7348 46.6325 14.8644C46.2905 14.9676 45.9324 15.0073 45.5761 14.9818C44.4975 9.91213 46.5885 6.17772 51.7976 3.86664C59.2082 5.08181 66.1528 8.27653 71.8975 13.1131C77.6421 17.9497 81.9734 24.2485 84.4334 31.3437C86.8934 38.4389 87.3908 46.0669 85.873 53.4215C84.3553 60.7761 80.8787 67.584 75.8108 73.1256L75.7815 73.133Z" fill="#17262F"></path></g><defs><clipPath id="clip0_5678_32897"><rect width="90" height="90" fill="white"></rect></clipPath></defs></svg>