<svg xmlns="http://www.w3.org/2000/svg" width="127" height="105" viewBox="0 0 127 105" fill="none"><g clip-path="url(#clip0_5678_15935)"><path d="M33.7045 105C32.534 104.999 31.3776 104.745 30.3142 104.256C29.2508 103.767 28.3055 103.055 27.5429 102.167C27.4798 102.102 27.4445 102.015 27.4445 101.925C27.4445 101.834 27.4798 101.747 27.5429 101.682C27.609 101.622 27.6954 101.588 27.7851 101.588C27.8749 101.588 27.9613 101.622 28.0274 101.682C28.7275 102.501 29.5965 103.158 30.5747 103.608C31.5529 104.059 32.617 104.292 33.6939 104.292C34.7709 104.292 35.835 104.059 36.8132 103.608C37.7914 103.158 38.6604 102.501 39.3605 101.682C39.4266 101.622 39.513 101.588 39.6028 101.588C39.6925 101.588 39.7789 101.622 39.845 101.682C39.8775 101.714 39.9033 101.751 39.921 101.793C39.9386 101.835 39.9477 101.879 39.9477 101.925C39.9477 101.97 39.9386 102.014 39.921 102.056C39.9033 102.098 39.8775 102.135 39.845 102.167C39.0847 103.052 38.1428 103.763 37.0833 104.252C36.0237 104.741 34.8714 104.996 33.7045 105Z" fill="#17262F"></path><path d="M33.7045 103.62C32.2036 103.616 30.7483 103.104 29.5757 102.167C29.5404 102.139 29.5109 102.105 29.4889 102.066C29.4669 102.027 29.4529 101.984 29.4475 101.939C29.4421 101.895 29.4455 101.849 29.4576 101.806C29.4697 101.763 29.4901 101.723 29.5178 101.687C29.5454 101.652 29.5798 101.623 29.6188 101.601C29.6579 101.579 29.7009 101.565 29.7454 101.559C29.7899 101.554 29.835 101.557 29.8782 101.569C29.9214 101.581 29.9617 101.602 29.997 101.63C31.0665 102.455 32.3796 102.903 33.7308 102.903C35.0821 102.903 36.3952 102.455 37.4646 101.63C37.4961 101.597 37.5337 101.571 37.5753 101.554C37.617 101.536 37.6617 101.527 37.7069 101.527C37.7521 101.527 37.7968 101.536 37.8385 101.554C37.8801 101.571 37.9177 101.597 37.9491 101.63C37.987 101.664 38.0167 101.707 38.036 101.755C38.0552 101.803 38.0637 101.854 38.0607 101.906C38.0576 101.957 38.0432 102.007 38.0185 102.052C37.9937 102.097 37.9593 102.137 37.9176 102.167C36.7211 103.119 35.2339 103.632 33.7045 103.62Z" fill="#17262F"></path><path d="M16.4941 105C15.3201 105.002 14.1596 104.75 13.0924 104.261C12.0251 103.772 11.0764 103.057 10.3115 102.167C10.2484 102.102 10.2131 102.015 10.2131 101.925C10.2131 101.834 10.2484 101.747 10.3115 101.682C10.3775 101.622 10.464 101.588 10.5537 101.588C10.6434 101.588 10.7299 101.622 10.796 101.682C11.496 102.501 12.365 103.158 13.3432 103.608C14.3214 104.059 15.3856 104.292 16.4625 104.292C17.5395 104.292 18.6036 104.059 19.5818 103.608C20.56 103.158 21.429 102.501 22.1291 101.682C22.1952 101.622 22.2816 101.588 22.3713 101.588C22.4611 101.588 22.5475 101.622 22.6136 101.682C22.6767 101.747 22.7119 101.834 22.7119 101.925C22.7119 102.015 22.6767 102.102 22.6136 102.167C21.8543 103.048 20.9155 103.756 19.8601 104.245C18.8047 104.734 17.6571 104.991 16.4941 105Z" fill="#17262F"></path><path d="M16.4941 103.62C14.9831 103.619 13.5169 103.107 12.3337 102.167C12.2632 102.109 12.2181 102.026 12.2083 101.935C12.1984 101.845 12.2246 101.754 12.2811 101.682C12.3442 101.62 12.4293 101.585 12.5181 101.585C12.6068 101.585 12.6919 101.62 12.755 101.682C13.8261 102.509 15.1411 102.957 16.4941 102.957C17.8472 102.957 19.1621 102.509 20.2332 101.682C20.2646 101.65 20.3023 101.624 20.3439 101.606C20.3855 101.589 20.4303 101.58 20.4755 101.58C20.5207 101.58 20.5654 101.589 20.607 101.606C20.6486 101.624 20.6863 101.65 20.7177 101.682C20.7731 101.755 20.7975 101.847 20.7856 101.938C20.7738 102.028 20.7267 102.111 20.6545 102.167C19.4722 103.108 18.0055 103.621 16.4941 103.62Z" fill="#17262F"></path><path d="M113.247 105C112.073 105.002 110.913 104.75 109.845 104.261C108.778 103.772 107.829 103.057 107.064 102.167C107.001 102.102 106.966 102.015 106.966 101.925C106.966 101.834 107.001 101.747 107.064 101.682C107.13 101.622 107.217 101.588 107.307 101.588C107.396 101.588 107.483 101.622 107.549 101.682C108.249 102.501 109.118 103.158 110.096 103.608C111.074 104.059 112.139 104.292 113.215 104.292C114.292 104.292 115.357 104.059 116.335 103.608C117.313 103.158 118.182 102.501 118.882 101.682C118.948 101.622 119.035 101.588 119.124 101.588C119.214 101.588 119.3 101.622 119.367 101.682C119.43 101.747 119.465 101.834 119.465 101.925C119.465 102.015 119.43 102.102 119.367 102.167C118.607 103.048 117.668 103.756 116.613 104.245C115.558 104.734 114.41 104.991 113.247 105Z" fill="#17262F"></path><path d="M113.247 103.62C111.739 103.621 110.276 103.108 109.097 102.167C109.06 102.14 109.029 102.106 109.006 102.066C108.983 102.027 108.968 101.983 108.962 101.938C108.956 101.893 108.959 101.847 108.972 101.803C108.984 101.759 109.005 101.718 109.034 101.682C109.097 101.62 109.182 101.585 109.271 101.585C109.36 101.585 109.445 101.62 109.508 101.682C110.579 102.509 111.894 102.957 113.247 102.957C114.6 102.957 115.915 102.509 116.986 101.682C117.017 101.65 117.053 101.624 117.094 101.607C117.135 101.589 117.179 101.58 117.223 101.58C117.267 101.58 117.311 101.589 117.352 101.607C117.393 101.624 117.43 101.65 117.46 101.682C117.493 101.714 117.518 101.751 117.536 101.793C117.554 101.835 117.563 101.879 117.563 101.924C117.563 101.97 117.554 102.014 117.536 102.056C117.518 102.098 117.493 102.135 117.46 102.167C116.264 103.119 114.776 103.632 113.247 103.62Z" fill="#17262F"></path><path d="M96.0156 105C94.8401 105.002 93.678 104.75 92.609 104.261C91.54 103.772 90.5894 103.058 89.8224 102.167C89.7594 102.102 89.7241 102.015 89.7241 101.925C89.7241 101.834 89.7594 101.747 89.8224 101.682C89.8885 101.622 89.975 101.588 90.0647 101.588C90.1544 101.588 90.2409 101.622 90.3069 101.682C91.007 102.501 91.876 103.158 92.8542 103.608C93.8324 104.059 94.8966 104.292 95.9735 104.292C97.0504 104.292 98.1146 104.059 99.0928 103.608C100.071 103.158 100.94 102.501 101.64 101.682C101.706 101.622 101.793 101.588 101.882 101.588C101.972 101.588 102.058 101.622 102.125 101.682C102.194 101.741 102.237 101.825 102.244 101.916C102.252 102.006 102.224 102.097 102.167 102.167C101.405 103.053 100.462 103.765 99.4002 104.254C98.3387 104.743 97.1843 104.998 96.0156 105Z" fill="#17262F"></path><path d="M96.0156 103.62C94.4901 103.641 93.0033 103.14 91.8026 102.198C91.7395 102.133 91.7042 102.046 91.7042 101.956C91.7042 101.866 91.7395 101.779 91.8026 101.714C91.8657 101.651 91.9508 101.616 92.0396 101.616C92.1283 101.616 92.2135 101.651 92.2765 101.714C93.3477 102.54 94.6626 102.989 96.0156 102.989C97.3687 102.989 98.6836 102.54 99.7547 101.714C99.7852 101.682 99.822 101.656 99.8627 101.638C99.9035 101.621 99.9474 101.612 99.9917 101.612C100.036 101.612 100.08 101.621 100.121 101.638C100.161 101.656 100.198 101.682 100.229 101.714C100.257 101.749 100.279 101.79 100.291 101.834C100.304 101.878 100.307 101.924 100.301 101.97C100.295 102.015 100.28 102.058 100.257 102.098C100.233 102.137 100.202 102.171 100.165 102.198C98.983 103.128 97.52 103.629 96.0156 103.62Z" fill="#17262F"></path><path d="M63.6277 72.3383H54.2221C54.1769 72.3397 54.132 72.3321 54.0899 72.3157C54.0478 72.2994 54.0093 72.2748 53.9769 72.2434C53.9445 72.212 53.9187 72.1743 53.9011 72.1327C53.8835 72.0911 53.8745 72.0464 53.8745 72.0013V62.3007C53.8745 62.2085 53.9111 62.1201 53.9763 62.0549C54.0415 61.9897 54.1299 61.9531 54.2221 61.9531H63.6277C63.7199 61.9531 63.8083 61.9897 63.8735 62.0549C63.9387 62.1201 63.9753 62.2085 63.9753 62.3007V72.0013C63.9753 72.0464 63.9663 72.0911 63.9487 72.1327C63.9311 72.1743 63.9053 72.212 63.8729 72.2434C63.8405 72.2748 63.8021 72.2994 63.76 72.3157C63.7178 72.3321 63.6729 72.3397 63.6277 72.3383ZM54.5591 71.6221H63.2907V62.6377H54.5591V71.6221Z" fill="#17262F"></path><path d="M54.2221 65.2288H48.4502C48.3697 65.2146 48.2968 65.1726 48.2442 65.11C48.1917 65.0473 48.1629 64.9682 48.1629 64.8865C48.1629 64.8048 48.1917 64.7257 48.2442 64.6631C48.2968 64.6004 48.3697 64.5584 48.4502 64.5442H54.2747C54.3552 64.5584 54.4282 64.6004 54.4807 64.6631C54.5332 64.7257 54.562 64.8048 54.562 64.8865C54.562 64.9682 54.5332 65.0473 54.4807 65.11C54.4282 65.1726 54.3552 65.2146 54.2747 65.2288H54.2221Z" fill="#17262F"></path><path d="M54.2221 69.7471H48.4502C48.3608 69.7471 48.2751 69.7116 48.2119 69.6484C48.1487 69.5852 48.1131 69.4995 48.1131 69.4101C48.1117 69.3649 48.1194 69.32 48.1357 69.2779C48.152 69.2357 48.1766 69.1973 48.2081 69.1649C48.2395 69.1325 48.2771 69.1067 48.3187 69.0891C48.3603 69.0715 48.405 69.0625 48.4502 69.0625H54.2747C54.3199 69.0625 54.3646 69.0715 54.4062 69.0891C54.4478 69.1067 54.4854 69.1325 54.5169 69.1649C54.5483 69.1973 54.5729 69.2357 54.5892 69.2779C54.6055 69.32 54.6132 69.3649 54.6118 69.4101C54.6124 69.4591 54.6023 69.5077 54.5821 69.5525C54.562 69.5972 54.5324 69.6371 54.4952 69.6692C54.4581 69.7013 54.4145 69.7249 54.3673 69.7383C54.3201 69.7518 54.2705 69.7548 54.2221 69.7471Z" fill="#17262F"></path><path d="M25.1098 58.035C24.6632 58.0307 24.2279 57.8939 23.8591 57.6418C23.4904 57.3897 23.2049 57.0337 23.0388 56.619C22.8728 56.2044 22.8337 55.7497 22.9265 55.3128C23.0193 54.8759 23.2398 54.4764 23.5601 54.165C23.8803 53.8536 24.2859 53.6444 24.7253 53.564C25.1646 53.4835 25.618 53.5354 26.0278 53.7131C26.4376 53.8907 26.7854 54.1862 27.027 54.5618C27.2687 54.9375 27.3932 55.3765 27.3849 55.8231C27.3738 56.4172 27.1286 56.983 26.7025 57.3972C26.2764 57.8114 25.704 58.0406 25.1098 58.035ZM25.1098 54.2116C24.8013 54.2117 24.4996 54.3028 24.2425 54.4735C23.9854 54.6441 23.7843 54.8868 23.6644 55.1711C23.5445 55.4554 23.511 55.7688 23.5683 56.072C23.6255 56.3752 23.7708 56.6548 23.9861 56.8759C24.2014 57.097 24.4771 57.2497 24.7787 57.3149C25.0803 57.3801 25.3944 57.355 25.6818 57.2426C25.9692 57.1303 26.2171 56.9357 26.3945 56.6832C26.5719 56.4308 26.6709 56.1316 26.6792 55.8231C26.6848 55.6135 26.6484 55.4049 26.5721 55.2096C26.4957 55.0143 26.381 54.8363 26.2347 54.6861C26.0884 54.5359 25.9135 54.4165 25.7203 54.335C25.5271 54.2535 25.3195 54.2115 25.1098 54.2116Z" fill="#17262F"></path><path d="M14.8826 58.0348C14.4351 58.0347 13.9976 57.9014 13.6261 57.6518C13.2546 57.4023 12.9658 57.0477 12.7965 56.6334C12.6272 56.2191 12.5851 55.7637 12.6755 55.3254C12.766 54.887 12.9849 54.4856 13.3043 54.1721C13.6238 53.8586 14.0293 53.6473 14.4693 53.5652C14.9093 53.483 15.3637 53.5337 15.7748 53.7108C16.1858 53.8878 16.5349 54.1833 16.7774 54.5595C17.0199 54.9356 17.145 55.3755 17.1366 55.823C17.1256 56.4134 16.8832 56.976 16.4617 57.3896C16.0402 57.8033 15.4732 58.0349 14.8826 58.0348ZM14.8826 54.2115C14.5741 54.2116 14.2724 54.3027 14.0153 54.4733C13.7582 54.644 13.5571 54.8866 13.4372 55.1709C13.3173 55.4553 13.2838 55.7686 13.3411 56.0718C13.3983 56.3751 13.5436 56.6547 13.7589 56.8758C13.9742 57.0968 14.2499 57.2495 14.5515 57.3147C14.8531 57.38 15.1672 57.3548 15.4546 57.2425C15.742 57.1301 15.9899 56.9356 16.1673 56.6831C16.3447 56.4306 16.4437 56.1314 16.452 55.823C16.4576 55.6134 16.4212 55.4048 16.3449 55.2095C16.2685 55.0142 16.1538 54.8361 16.0075 54.6859C15.8612 54.5357 15.6863 54.4163 15.4931 54.3348C15.2999 54.2533 15.0923 54.2114 14.8826 54.2115Z" fill="#17262F"></path><path d="M25.1098 80.7645C24.665 80.7603 24.2313 80.6246 23.8634 80.3744C23.4955 80.1242 23.2099 79.7708 23.0425 79.3585C22.8751 78.9463 22.8335 78.4938 22.9228 78.058C23.0122 77.6221 23.2285 77.2225 23.5445 76.9094C23.8606 76.5963 24.2622 76.3837 24.6989 76.2984C25.1355 76.2131 25.5876 76.259 25.9983 76.4302C26.4089 76.6014 26.7597 76.8903 27.0064 77.2605C27.2532 77.6307 27.3849 78.0656 27.3849 78.5105C27.3849 78.8083 27.3259 79.1031 27.2113 79.3779C27.0967 79.6528 26.9288 79.9022 26.7173 80.1118C26.5058 80.3214 26.2548 80.487 25.9789 80.599C25.703 80.711 25.4076 80.7673 25.1098 80.7645ZM25.1098 76.9411C24.7995 76.9411 24.496 77.0332 24.238 77.2056C23.9799 77.378 23.7787 77.6231 23.6599 77.9099C23.5412 78.1967 23.5101 78.5122 23.5706 78.8166C23.6312 79.1211 23.7807 79.4007 24.0001 79.6202C24.2196 79.8397 24.4993 79.9891 24.8037 80.0497C25.1081 80.1102 25.4237 80.0792 25.7104 79.9604C25.9972 79.8416 26.2423 79.6405 26.4147 79.3824C26.5872 79.1243 26.6792 78.8209 26.6792 78.5105C26.6792 78.3044 26.6386 78.1003 26.5598 77.9099C26.4809 77.7195 26.3653 77.5465 26.2196 77.4008C26.0738 77.255 25.9008 77.1394 25.7104 77.0606C25.52 76.9817 25.3159 76.9411 25.1098 76.9411Z" fill="#17262F"></path><path d="M14.8826 80.7643C14.4368 80.7643 14.0011 80.6321 13.6304 80.3845C13.2597 80.1368 12.9708 79.7848 12.8002 79.3729C12.6296 78.961 12.585 78.5078 12.672 78.0706C12.7589 77.6334 12.9736 77.2318 13.2888 76.9165C13.6041 76.6013 14.0057 76.3866 14.4429 76.2997C14.8801 76.2127 15.3333 76.2573 15.7452 76.4279C16.1571 76.5985 16.5091 76.8874 16.7568 77.2581C17.0044 77.6288 17.1366 78.0645 17.1366 78.5103C17.1366 79.1081 16.8991 79.6814 16.4764 80.1041C16.0537 80.5269 15.4804 80.7643 14.8826 80.7643ZM14.8826 76.941C14.5722 76.941 14.2688 77.033 14.0107 77.2055C13.7527 77.3779 13.5515 77.623 13.4327 77.9098C13.3139 78.1965 13.2829 78.5121 13.3434 78.8165C13.404 79.1209 13.5534 79.4006 13.7729 79.62C13.9924 79.8395 14.272 79.989 14.5765 80.0496C14.8809 80.1101 15.1964 80.079 15.4832 79.9602C15.77 79.8415 16.0151 79.6403 16.1875 79.3822C16.36 79.1241 16.452 78.8207 16.452 78.5103C16.452 78.3042 16.4114 78.1002 16.3325 77.9098C16.2537 77.7194 16.1381 77.5464 15.9923 77.4006C15.8466 77.2549 15.6736 77.1393 15.4832 77.0604C15.2928 76.9816 15.0887 76.941 14.8826 76.941Z" fill="#17262F"></path><path d="M23.1718 69.2734C22.726 69.2734 22.2903 69.1412 21.9196 68.8935C21.5489 68.6458 21.26 68.2938 21.0894 67.8819C20.9188 67.4701 20.8742 67.0169 20.9612 66.5796C21.0481 66.1424 21.2628 65.7408 21.578 65.4256C21.8933 65.1103 22.2949 64.8957 22.7321 64.8087C23.1693 64.7217 23.6225 64.7664 24.0344 64.937C24.4463 65.1076 24.7983 65.3965 25.046 65.7671C25.2936 66.1378 25.4258 66.5736 25.4258 67.0194C25.4258 67.6172 25.1883 68.1905 24.7656 68.6132C24.3429 69.0359 23.7696 69.2734 23.1718 69.2734ZM23.1718 65.45C22.8614 65.45 22.558 65.542 22.2999 65.7145C22.0419 65.8869 21.8407 66.132 21.7219 66.4188C21.6031 66.7056 21.5721 67.0211 21.6326 67.3255C21.6932 67.63 21.8426 67.9096 22.0621 68.1291C22.2816 68.3486 22.5612 68.498 22.8657 68.5586C23.1701 68.6191 23.4856 68.5881 23.7724 68.4693C24.0592 68.3505 24.3043 68.1493 24.4767 67.8913C24.6492 67.6332 24.7412 67.3298 24.7412 67.0194C24.7412 66.6031 24.5759 66.204 24.2815 65.9097C23.9872 65.6153 23.5881 65.45 23.1718 65.45Z" fill="#17262F"></path><path d="M13.3238 69.2734C12.878 69.2734 12.4422 69.1412 12.0715 68.8935C11.7009 68.6458 11.412 68.2938 11.2414 67.8819C11.0708 67.4701 11.0261 67.0169 11.1131 66.5796C11.2001 66.1424 11.4148 65.7408 11.73 65.4256C12.0452 65.1103 12.4468 64.8957 12.8841 64.8087C13.3213 64.7217 13.7745 64.7664 14.1864 64.937C14.5982 65.1076 14.9502 65.3965 15.1979 65.7671C15.4456 66.1378 15.5778 66.5736 15.5778 67.0194C15.5778 67.6172 15.3403 68.1905 14.9176 68.6132C14.4949 69.0359 13.9216 69.2734 13.3238 69.2734ZM13.3238 65.45C13.0134 65.45 12.71 65.542 12.4519 65.7145C12.1938 65.8869 11.9927 66.132 11.8739 66.4188C11.7551 66.7056 11.724 67.0211 11.7846 67.3255C11.8451 67.63 11.9946 67.9096 12.2141 68.1291C12.4336 68.3486 12.7132 68.498 13.0176 68.5586C13.3221 68.6191 13.6376 68.5881 13.9244 68.4693C14.2111 68.3505 14.4562 68.1493 14.6287 67.8913C14.8011 67.6332 14.8932 67.3298 14.8932 67.0194C14.8932 66.6031 14.7278 66.204 14.4335 65.9097C14.1392 65.6153 13.74 65.45 13.3238 65.45Z" fill="#17262F"></path><path d="M40.1926 72.7489H34.7999C33.2793 72.7405 31.8241 72.1292 30.7538 71.049C29.6835 69.9689 29.0856 68.5082 29.0912 66.9875C29.0995 65.4669 29.7109 64.0118 30.7911 62.9415C31.8712 61.8712 33.3319 61.2732 34.8525 61.2788H40.2347C40.3269 61.2788 40.4153 61.3155 40.4805 61.3806C40.5457 61.4458 40.5823 61.5342 40.5823 61.6264V72.4119C40.5741 72.5018 40.5371 72.5867 40.477 72.6541C40.4401 72.6908 40.3952 72.7184 40.3459 72.7349C40.2966 72.7513 40.2441 72.7561 40.1926 72.7489ZM34.8209 61.9424C33.8191 61.937 32.8384 62.2299 32.0037 62.7839C31.1689 63.3379 30.5181 64.1278 30.1339 65.0531C29.7498 65.9784 29.6499 66.997 29.8468 67.9793C30.0438 68.9616 30.5287 69.863 31.2398 70.5686C31.7006 71.0335 32.2485 71.4029 32.8521 71.656C33.4557 71.909 34.1033 72.0406 34.7577 72.0432H39.8134V61.9424H34.7577H34.8209Z" fill="#17262F"></path><path d="M34.5892 70.3581C33.6972 70.3525 32.8437 69.9935 32.2158 69.3597C31.588 68.726 31.237 67.8692 31.2398 66.9771C31.2481 66.0877 31.6066 65.2374 32.2375 64.6105C32.8683 63.9835 33.7209 63.6304 34.6103 63.6277C35.4702 63.6758 36.2791 64.0513 36.8709 64.6771C37.4627 65.303 37.7924 66.1316 37.7924 66.9929C37.7924 67.8542 37.4627 68.6828 36.8709 69.3086C36.2791 69.9344 35.4702 70.3099 34.6103 70.3581H34.5892ZM34.5892 69.6734C35.2711 69.6307 35.9111 69.3296 36.3788 68.8316C36.8466 68.3336 37.1069 67.6761 37.1069 66.9929C37.1069 66.3096 36.8466 65.6521 36.3788 65.1541C35.9111 64.6561 35.2711 64.3551 34.5892 64.3123C33.8772 64.3174 33.1945 64.5966 32.6828 65.0917C32.4326 65.3378 32.2339 65.6313 32.0982 65.955C31.9626 66.2787 31.8928 66.6261 31.8929 66.9771C31.8901 67.3302 31.9572 67.6803 32.0904 68.0073C32.2236 68.3343 32.4203 68.6318 32.669 68.8824C32.9177 69.1331 33.2135 69.332 33.5395 69.4678C33.8654 69.6035 34.2151 69.6734 34.5682 69.6734H34.5892Z" fill="#17262F"></path><path d="M43.1101 73.5917C43.0226 73.5895 42.9379 73.56 42.8679 73.5074L42.6151 73.2547L42.3834 73.4969C42.3562 73.5341 42.319 73.5628 42.2761 73.5796C42.2331 73.5964 42.1863 73.6006 42.1411 73.5917C42.0954 73.5934 42.05 73.5848 42.008 73.5666C41.9661 73.5484 41.9288 73.5209 41.8989 73.4864L41.6777 73.2652L41.467 73.4864C41.4011 73.5353 41.32 73.5594 41.2381 73.5543C41.1562 73.5492 41.0787 73.5152 41.0194 73.4584C40.9601 73.4017 40.9228 73.3257 40.9141 73.2441C40.9054 73.1625 40.926 73.0804 40.972 73.0124L41.4354 72.5384C41.4639 72.4994 41.5025 72.4689 41.5471 72.4503C41.5916 72.4318 41.6405 72.4258 41.6882 72.4331C41.7794 72.4361 41.8661 72.4737 41.9305 72.5384L42.1411 72.7596L42.3623 72.5384C42.4132 72.4859 42.4797 72.4514 42.5519 72.44C42.6241 72.4286 42.698 72.441 42.7626 72.4752V61.595H42.6467C42.552 61.5937 42.4615 61.556 42.3939 61.4897L42.1833 61.2685L41.9621 61.4897C41.8983 61.5553 41.8113 61.5932 41.7198 61.595C41.674 61.5975 41.6283 61.5893 41.5862 61.571C41.5442 61.5527 41.507 61.5249 41.4776 61.4897L41.0773 61.0263C41.0448 60.9948 41.019 60.9572 41.0014 60.9156C40.9837 60.8739 40.9746 60.8292 40.9746 60.784C40.9746 60.7388 40.9837 60.6941 41.0014 60.6524C41.019 60.6108 41.0448 60.5732 41.0773 60.5418C41.1422 60.4787 41.2291 60.4434 41.3196 60.4434C41.41 60.4434 41.497 60.4787 41.5618 60.5418L41.7725 60.7629L41.9937 60.5418C42.0569 60.4786 42.1833 60.468 42.2359 60.447C42.2816 60.4453 42.3271 60.4539 42.369 60.4721C42.4109 60.4903 42.4483 60.5177 42.4782 60.5523L42.6994 60.7735L42.91 60.5523C42.9563 60.4995 43.018 60.4625 43.0864 60.4464C43.1548 60.4304 43.2265 60.4361 43.2914 60.4628C43.3564 60.4895 43.4114 60.5358 43.4488 60.5953C43.4862 60.6547 43.504 60.7244 43.4998 60.7945V73.2547C43.503 73.2997 43.4964 73.3449 43.4805 73.3872C43.4647 73.4296 43.44 73.468 43.408 73.4999C43.3761 73.5319 43.3377 73.5566 43.2954 73.5724C43.2531 73.5882 43.2079 73.5948 43.1628 73.5917H43.1101Z" fill="#17262F"></path><path d="M43.1101 73.5917C43.065 73.5931 43.02 73.5854 42.9779 73.5691C42.9358 73.5528 42.8974 73.5282 42.865 73.4968C42.8326 73.4653 42.8068 73.4277 42.7892 73.3861C42.7716 73.3445 42.7625 73.2998 42.7626 73.2547V60.784C42.7625 60.7388 42.7716 60.6941 42.7892 60.6525C42.8068 60.6109 42.8326 60.5733 42.865 60.5419C42.8974 60.5104 42.9358 60.4858 42.9779 60.4695C43.02 60.4532 43.065 60.4455 43.1101 60.4469C44.3607 60.4497 45.5593 60.9478 46.4436 61.8321C47.328 62.7164 47.826 63.915 47.8288 65.1656V68.8731C47.826 70.1237 47.328 71.3223 46.4436 72.2066C45.5593 73.0909 44.3607 73.5889 43.1101 73.5917ZM43.4472 61.1421V72.8965C44.4558 72.812 45.3958 72.3513 46.0806 71.606C46.7654 70.8607 47.145 69.8852 47.1441 68.8731V65.1656C47.1402 64.1548 46.759 63.182 46.0751 62.4377C45.3912 61.6934 44.454 61.2314 43.4472 61.1421Z" fill="#17262F"></path><path d="M69.5155 64.66H63.6172C63.5367 64.6458 63.4638 64.6037 63.4113 64.5411C63.3587 64.4785 63.3299 64.3994 63.3299 64.3176C63.3299 64.2359 63.3587 64.1568 63.4113 64.0942C63.4638 64.0316 63.5367 63.9895 63.6172 63.9753H69.5155C69.596 63.9895 69.6689 64.0316 69.7215 64.0942C69.774 64.1568 69.8028 64.2359 69.8028 64.3176C69.8028 64.3994 69.774 64.4785 69.7215 64.5411C69.6689 64.6037 69.596 64.6458 69.5155 64.66Z" fill="#17262F"></path><path d="M69.8736 70.316H63.6277C63.5383 70.316 63.4526 70.2805 63.3894 70.2173C63.3262 70.154 63.2907 70.0683 63.2907 69.9789C63.2893 69.9338 63.297 69.8888 63.3133 69.8467C63.3296 69.8046 63.3542 69.7662 63.3856 69.7338C63.417 69.7013 63.4547 69.6756 63.4963 69.658C63.5379 69.6404 63.5826 69.6313 63.6277 69.6313H69.8736C69.9188 69.6313 69.9635 69.6404 70.0051 69.658C70.0467 69.6756 70.0843 69.7013 70.1157 69.7338C70.1472 69.7662 70.1718 69.8046 70.1881 69.8467C70.2044 69.8888 70.2121 69.9338 70.2106 69.9789C70.2106 70.0683 70.1751 70.154 70.1119 70.2173C70.0487 70.2805 69.963 70.316 69.8736 70.316Z" fill="#17262F"></path><path d="M77.4044 52.6633H67.9883C67.8989 52.6633 67.8131 52.6278 67.7499 52.5646C67.6867 52.5014 67.6512 52.4156 67.6512 52.3263V42.6046C67.6512 42.5152 67.6867 42.4295 67.7499 42.3663C67.8131 42.3031 67.8989 42.2676 67.9883 42.2676H77.4044C77.4938 42.2676 77.5796 42.3031 77.6428 42.3663C77.706 42.4295 77.7415 42.5152 77.7415 42.6046V52.3157C77.7429 52.3609 77.7352 52.4058 77.7189 52.4479C77.7026 52.4901 77.678 52.5285 77.6466 52.5609C77.6151 52.5933 77.5775 52.6191 77.5359 52.6367C77.4943 52.6543 77.4496 52.6633 77.4044 52.6633ZM68.3358 51.9787H77.0569V42.9522H68.3358V51.9787Z" fill="#17262F"></path><path d="M87.263 45.5432H77.4044C77.3123 45.5432 77.2239 45.5066 77.1587 45.4414C77.0935 45.3762 77.0569 45.2878 77.0569 45.1956C77.0568 45.1504 77.0659 45.1057 77.0835 45.0641C77.1011 45.0226 77.1269 44.9849 77.1593 44.9535C77.1917 44.922 77.2301 44.8974 77.2722 44.8811C77.3143 44.8648 77.3593 44.8572 77.4044 44.8586H87.263C87.3081 44.8572 87.3531 44.8648 87.3952 44.8811C87.4373 44.8974 87.4757 44.922 87.5082 44.9535C87.5406 44.9849 87.5664 45.0226 87.584 45.0641C87.6016 45.1057 87.6106 45.1504 87.6106 45.1956C87.6106 45.2878 87.574 45.3762 87.5088 45.4414C87.4436 45.5066 87.3552 45.5432 87.263 45.5432Z" fill="#17262F"></path><path d="M82.7445 50.0616H77.4044C77.3593 50.063 77.3143 50.0553 77.2722 50.039C77.2301 50.0227 77.1917 49.9981 77.1593 49.9667C77.1269 49.9352 77.1011 49.8976 77.0835 49.856C77.0659 49.8144 77.0568 49.7697 77.0569 49.7245C77.0569 49.6323 77.0935 49.5439 77.1587 49.4788C77.2239 49.4136 77.3123 49.377 77.4044 49.377H82.7445C82.7897 49.3769 82.8344 49.386 82.876 49.4036C82.9176 49.4212 82.9552 49.4469 82.9866 49.4794C83.0181 49.5118 83.0427 49.5502 83.059 49.5923C83.0753 49.6344 83.083 49.6794 83.0815 49.7245C83.0815 49.8139 83.046 49.8996 82.9828 49.9629C82.9196 50.0261 82.8339 50.0616 82.7445 50.0616Z" fill="#17262F"></path><path d="M67.9883 50.6304H64.4703C64.4252 50.6318 64.3802 50.6242 64.3381 50.6079C64.296 50.5916 64.2576 50.5669 64.2252 50.5355C64.1928 50.5041 64.167 50.4664 64.1494 50.4248C64.1318 50.3832 64.1228 50.3385 64.1228 50.2934C64.1228 50.2012 64.1594 50.1128 64.2246 50.0476C64.2898 49.9824 64.3782 49.9458 64.4703 49.9458H67.9883C68.0804 49.9458 68.1688 49.9824 68.234 50.0476C68.2992 50.1128 68.3358 50.2012 68.3358 50.2934C68.3359 50.3385 68.3268 50.3832 68.3092 50.4248C68.2916 50.4664 68.2658 50.5041 68.2334 50.5355C68.201 50.5669 68.1626 50.5916 68.1205 50.6079C68.0784 50.6242 68.0334 50.6318 67.9883 50.6304Z" fill="#17262F"></path><path d="M67.9883 44.9743H64.9233C64.8311 44.9743 64.7427 44.9377 64.6775 44.8725C64.6123 44.8074 64.5757 44.7189 64.5757 44.6268C64.5757 44.5816 64.5847 44.5369 64.6023 44.4953C64.6199 44.4537 64.6457 44.4161 64.6781 44.3846C64.7105 44.3532 64.7489 44.3286 64.791 44.3123C64.8332 44.296 64.8781 44.2883 64.9233 44.2897H67.9883C68.0334 44.2883 68.0784 44.296 68.1205 44.3123C68.1626 44.3286 68.201 44.3532 68.2334 44.3846C68.2658 44.4161 68.2916 44.4537 68.3092 44.4953C68.3268 44.5369 68.3359 44.5816 68.3358 44.6268C68.3358 44.7189 68.2992 44.8074 68.234 44.8725C68.1689 44.9377 68.0804 44.9743 67.9883 44.9743Z" fill="#17262F"></path><path d="M77.0253 73.2968C76.1148 73.3001 75.2129 73.122 74.372 72.773C73.5311 72.424 72.7681 71.911 72.1276 71.264C70.8322 69.9632 70.1049 68.2021 70.1049 66.3663C70.1049 64.5305 70.8322 62.7695 72.1276 61.4686L91.2444 42.3519C92.548 41.0742 94.3031 40.3625 96.1284 40.3712C97.9537 40.3799 99.7019 41.1083 100.993 42.3984C102.285 43.6884 103.015 45.4358 103.026 47.2611C103.036 49.0864 102.326 50.8422 101.05 52.1472L81.923 71.264C81.2831 71.912 80.5203 72.4256 79.6793 72.7747C78.8382 73.1237 77.9359 73.3013 77.0253 73.2968ZM96.1526 41.0037C95.3306 41.0014 94.5164 41.1623 93.7571 41.4768C92.9978 41.7914 92.3084 42.2535 91.7289 42.8364L72.6121 61.9531C71.9952 62.524 71.4998 63.2136 71.1557 63.9805C70.8116 64.7475 70.6259 65.5759 70.6096 66.4164C70.5933 67.2568 70.7469 68.0918 71.061 68.8715C71.3751 69.6512 71.8434 70.3594 72.4378 70.9538C73.0322 71.5482 73.7404 72.0164 74.5201 72.3306C75.2998 72.6447 76.1348 72.7983 76.9752 72.782C77.8156 72.7657 78.6441 72.58 79.411 72.2359C80.178 71.8918 80.8675 71.3964 81.4385 70.7795L100.566 51.6627C101.438 50.7893 102.032 49.6769 102.272 48.4662C102.513 47.2555 102.389 46.0007 101.917 44.8603C101.445 43.7198 100.645 42.7448 99.6191 42.0584C98.5932 41.372 97.3869 41.005 96.1526 41.0037Z" fill="#17262F"></path><path d="M77.2465 71.0532C76.4409 71.0542 75.6475 70.8566 74.9366 70.4777C74.2256 70.0988 73.6192 69.5504 73.1709 68.8811C72.7225 68.2118 72.4462 67.4422 72.3664 66.6406C72.2867 65.839 72.4058 65.0301 72.7134 64.2855C73.021 63.541 73.5074 62.8838 74.1297 62.3722C74.752 61.8606 75.4909 61.5104 76.2808 61.3527C77.0708 61.1949 77.8875 61.2344 78.6586 61.4677C79.4296 61.701 80.1312 62.121 80.7012 62.6902C81.1566 63.1451 81.5179 63.6853 81.7644 64.2799C82.0108 64.8745 82.1377 65.5118 82.1377 66.1555C82.1377 66.7992 82.0108 67.4365 81.7644 68.0311C81.5179 68.6257 81.1566 69.1659 80.7012 69.6207C80.2497 70.0774 79.7115 70.4394 79.1183 70.6854C78.525 70.9313 77.8887 71.0564 77.2465 71.0532ZM77.2465 61.9424C76.4127 61.9418 75.5975 62.1885 74.9041 62.6514C74.2106 63.1143 73.6701 63.7725 73.351 64.5428C73.0318 65.313 72.9484 66.1606 73.1112 66.9783C73.2741 67.796 73.6758 68.547 74.2657 69.1362C74.6456 69.5695 75.1103 69.9203 75.6311 70.1669C76.1519 70.4134 76.7178 70.5505 77.2937 70.5697C77.8696 70.5888 78.4433 70.4896 78.9794 70.2783C79.5154 70.0669 80.0024 69.7478 80.4102 69.3407C80.818 68.9336 81.138 68.4471 81.3503 67.9115C81.5627 67.3758 81.6629 66.8022 81.6447 66.2263C81.6266 65.6504 81.4905 65.0843 81.2449 64.563C80.9992 64.0418 80.6493 63.5764 80.2167 63.1958C79.8302 62.7993 79.3684 62.4842 78.8582 62.2689C78.3481 62.0537 77.8001 61.9426 77.2465 61.9424Z" fill="#17262F"></path><path d="M77.2464 67.9356C77.0121 67.9375 76.7797 67.8929 76.5627 67.8043C76.3457 67.7157 76.1485 67.5849 75.9825 67.4195C75.8157 67.254 75.6832 67.0571 75.5928 66.8402C75.5024 66.6232 75.4559 66.3906 75.4559 66.1555C75.4559 65.9205 75.5024 65.6878 75.5928 65.4709C75.6832 65.254 75.8157 65.0571 75.9825 64.8916C76.1476 64.7252 76.3439 64.593 76.5601 64.5026C76.7764 64.4123 77.0083 64.3655 77.2427 64.365C77.4771 64.3645 77.7093 64.4103 77.9259 64.4998C78.1425 64.5892 78.3394 64.7206 78.5051 64.8863C78.6709 65.0521 78.8022 65.2489 78.8917 65.4655C78.9812 65.6822 79.027 65.9143 79.0265 66.1487C79.026 66.3831 78.9792 66.6151 78.8888 66.8313C78.7985 67.0476 78.6663 67.2439 78.4998 67.4089C78.3363 67.5755 78.1413 67.7078 77.9261 67.7982C77.7109 67.8886 77.4799 67.9353 77.2464 67.9356ZM76.467 65.3761C76.3282 65.5266 76.2363 65.7142 76.2024 65.9161C76.1686 66.118 76.1943 66.3254 76.2764 66.5129C76.3585 66.7004 76.4935 66.8599 76.6649 66.9719C76.8362 67.0839 77.0365 67.1436 77.2412 67.1436C77.4459 67.1436 77.6462 67.0839 77.8175 66.9719C77.9888 66.8599 78.1238 66.7004 78.206 66.5129C78.2881 66.3254 78.3138 66.118 78.2799 65.9161C78.2461 65.7142 78.1541 65.5266 78.0153 65.3761C77.9167 65.2692 77.797 65.1839 77.6638 65.1255C77.5305 65.0672 77.3866 65.037 77.2412 65.037C77.0957 65.037 76.9518 65.0672 76.8186 65.1255C76.6854 65.1839 76.5657 65.2692 76.467 65.3761Z" fill="#17262F"></path><path d="M95.9314 52.3579C94.7983 52.3569 93.7007 51.9631 92.8254 51.2436C91.9501 50.5241 91.3514 49.5234 91.1312 48.4119C90.911 47.3005 91.083 46.1471 91.6178 45.1482C92.1527 44.1493 93.0174 43.3668 94.0645 42.934C95.1116 42.5011 96.2764 42.4447 97.3604 42.7744C98.4445 43.104 99.3807 43.7993 100.01 44.7418C100.638 45.6844 100.921 46.8158 100.809 47.9433C100.698 49.0708 100.198 50.1247 99.3966 50.9254C98.9421 51.381 98.4019 51.7422 97.8072 51.988C97.2124 52.2339 96.5749 52.3596 95.9314 52.3579ZM95.9314 43.2471C94.9567 43.2479 94.0124 43.5866 93.2595 44.2055C92.5065 44.8244 91.9914 45.6852 91.802 46.6413C91.6125 47.5973 91.7604 48.5895 92.2205 49.4488C92.6805 50.3081 93.4243 50.9812 94.325 51.3536C95.2258 51.726 96.2277 51.7746 97.1603 51.491C98.0928 51.2075 98.8982 50.6094 99.4392 49.7987C99.9802 48.9879 100.223 48.0147 100.127 47.0448C100.031 46.0749 99.6017 45.1683 98.9121 44.4794C98.5206 44.0883 98.0558 43.7782 97.5443 43.5667C97.0329 43.3553 96.4848 43.2467 95.9314 43.2471Z" fill="#17262F"></path><path d="M95.9314 49.2507C95.5779 49.2498 95.2325 49.1444 94.9389 48.9476C94.6452 48.7508 94.4164 48.4714 94.2813 48.1448C94.1461 47.8181 94.1106 47.4588 94.1794 47.112C94.2481 46.7653 94.4179 46.4466 94.6675 46.1962C95.0082 45.8717 95.4608 45.6907 95.9314 45.6907C96.402 45.6907 96.8545 45.8717 97.1953 46.1962C97.3622 46.3617 97.4946 46.5586 97.585 46.7755C97.6754 46.9925 97.7219 47.2252 97.7219 47.4602C97.7219 47.6952 97.6754 47.9278 97.585 48.1448C97.4946 48.3617 97.3622 48.5586 97.1953 48.7241C97.0302 48.8914 96.8334 49.0242 96.6163 49.1146C96.3993 49.205 96.1665 49.2513 95.9314 49.2507ZM95.9314 46.3648C95.7867 46.3611 95.6429 46.3872 95.5088 46.4416C95.3747 46.4959 95.2532 46.5774 95.152 46.6807C94.9452 46.8875 94.8291 47.1678 94.8291 47.4602C94.8291 47.7525 94.9452 48.0329 95.152 48.2396C95.3587 48.4463 95.639 48.5624 95.9314 48.5624C96.2237 48.5624 96.5041 48.4463 96.7108 48.2396C96.8194 48.1409 96.9062 48.0205 96.9656 47.8863C97.025 47.7521 97.0556 47.6069 97.0556 47.4602C97.0556 47.3134 97.025 47.1682 96.9656 47.034C96.9062 46.8998 96.8194 46.7795 96.7108 46.6807C96.6114 46.5735 96.4908 46.4882 96.3566 46.4302C96.2224 46.3722 96.0776 46.3427 95.9314 46.3437V46.3648Z" fill="#17262F"></path><path d="M85.0722 64.4071C84.5307 64.4061 84.0117 64.1902 83.6292 63.8067L79.5847 59.7622C79.3946 59.5741 79.2437 59.3502 79.1407 59.1034C79.0376 58.8567 78.9846 58.5919 78.9846 58.3245C78.9846 58.0571 79.0376 57.7923 79.1407 57.5455C79.2437 57.2987 79.3946 57.0748 79.5847 56.8868L86.6626 49.8088C86.8507 49.6187 87.0746 49.4678 87.3214 49.3648C87.5682 49.2618 87.8329 49.2087 88.1003 49.2087C88.3678 49.2087 88.6325 49.2618 88.8793 49.3648C89.1261 49.4678 89.35 49.6187 89.5381 49.8088L93.5931 53.8534C93.972 54.236 94.1845 54.7527 94.1845 55.2911C94.1845 55.8295 93.972 56.3462 93.5931 56.7288L86.5152 63.8067C86.3265 63.9975 86.1018 64.1489 85.854 64.2519C85.6063 64.355 85.3405 64.4078 85.0722 64.4071ZM88.1056 49.8931C87.7457 49.8943 87.401 50.0383 87.1471 50.2933L80.0481 57.3713C79.9217 57.4958 79.8213 57.6441 79.7528 57.8078C79.6842 57.9714 79.6489 58.1471 79.6489 58.3245C79.6489 58.5019 79.6842 58.6775 79.7528 58.8412C79.8213 59.0048 79.9217 59.1532 80.0481 59.2777L84.0927 63.3222C84.3473 63.5756 84.6919 63.7179 85.0511 63.7179C85.4104 63.7179 85.755 63.5756 86.0096 63.3222L93.1086 56.2443C93.3588 55.9901 93.4991 55.6478 93.4991 55.2911C93.4991 54.9344 93.3588 54.592 93.1086 54.3379L89.0641 50.2933C88.8102 50.0383 88.4655 49.8943 88.1056 49.8931Z" fill="#17262F"></path><path d="M54.833 57.7611C52.0711 57.7471 49.4276 56.638 47.4826 54.6772C45.5376 52.7164 44.4499 50.064 44.4583 47.3021V37.6542C44.4583 37.562 44.4949 37.4736 44.5601 37.4084C44.6253 37.3433 44.7137 37.3066 44.8059 37.3066C44.8962 37.3094 44.982 37.3472 45.0449 37.4121C45.1078 37.477 45.143 37.5638 45.1429 37.6542V47.3021C45.1344 49.8716 46.1413 52.3404 47.9443 54.171C49.7473 56.0016 52.2005 57.0459 54.7698 57.0764C56.0487 57.0848 57.3167 56.8409 58.5014 56.3588C59.686 55.8768 60.764 55.1659 61.6737 54.267C62.5835 53.368 63.3071 52.2985 63.8032 51.1197C64.2993 49.9409 64.5583 48.6759 64.5651 47.3969V37.749C64.562 37.7026 64.5689 37.656 64.5853 37.6124C64.6016 37.5688 64.6271 37.5293 64.6601 37.4963C64.693 37.4634 64.7325 37.4379 64.7761 37.4216C64.8197 37.4052 64.8663 37.3983 64.9127 37.4014C65.0031 37.4042 65.0888 37.442 65.1517 37.5069C65.2146 37.5718 65.2498 37.6586 65.2498 37.749L65.3024 47.3969C65.2885 50.1515 64.1852 52.7886 62.2335 54.7324C60.2818 56.6762 57.6402 57.7688 54.8856 57.7716L54.833 57.7611Z" fill="#17262F"></path><path d="M54.833 53.7165C53.6477 53.7103 52.4909 53.3527 51.5088 52.689C50.5268 52.0252 49.7636 51.0852 49.3158 49.9877C48.8679 48.8903 48.7556 47.6847 48.993 46.5234C49.2304 45.3621 49.8068 44.2972 50.6493 43.4635C51.4919 42.6298 52.5627 42.0647 53.7265 41.8395C54.8902 41.6144 56.0946 41.7395 57.1872 42.1988C58.2799 42.6582 59.2118 43.4312 59.8652 44.4202C60.5185 45.4092 60.8639 46.5698 60.8577 47.7551C60.8536 48.5475 60.6924 49.3312 60.3834 50.0609C60.0745 50.7906 59.6239 51.4518 59.0577 52.0062C58.4916 52.5606 57.8211 52.9972 57.0851 53.2908C56.349 53.5844 55.5621 53.7291 54.7698 53.7165H54.833ZM54.833 53.0319C56.2409 53.0319 57.5911 52.4726 58.5866 51.4771C59.5822 50.4816 60.1414 49.1314 60.1414 47.7235C60.1414 46.3156 59.5822 44.9653 58.5866 43.9698C57.5911 42.9743 56.2409 42.415 54.833 42.415C53.4251 42.415 52.0749 42.9743 51.0793 43.9698C50.0838 44.9653 49.5245 46.3156 49.5245 47.7235C49.5245 49.1314 50.0838 50.4816 51.0793 51.4771C52.0749 52.4726 53.4251 53.0319 54.833 53.0319Z" fill="#17262F"></path><path d="M54.8856 39.2446C49.552 39.2474 44.4356 37.132 40.6612 33.3635C36.8867 29.595 34.7633 24.4819 34.7578 19.1483C34.7638 18.239 34.8307 17.3312 34.9579 16.4309C34.9734 16.3415 35.0223 16.2613 35.0946 16.2066C35.1669 16.1518 35.2574 16.1266 35.3476 16.1359C35.4381 16.149 35.5199 16.1973 35.5751 16.2702C35.6303 16.3432 35.6545 16.4349 35.6425 16.5256C35.5156 17.3942 35.4487 18.2705 35.4424 19.1483C35.4424 24.2966 37.4875 29.234 41.1279 32.8744C44.7683 36.5148 49.7058 38.56 54.854 38.56C60.0023 38.56 64.9398 36.5148 68.5802 32.8744C72.2206 29.234 74.2657 24.2966 74.2657 19.1483C74.2598 18.2705 74.1929 17.3942 74.0656 16.5256C74.0536 16.4349 74.0778 16.3432 74.133 16.2702C74.1882 16.1973 74.27 16.149 74.3605 16.1359C74.4495 16.1268 74.5386 16.1524 74.6092 16.2074C74.6799 16.2623 74.7266 16.3423 74.7397 16.4309C74.87 17.331 74.9404 18.2388 74.9503 19.1483C74.9448 24.471 72.8301 29.5745 69.0693 33.3412C65.3085 37.1079 60.2083 39.2306 54.8856 39.2446Z" fill="#17262F"></path><path d="M54.8856 33.1253C50.9748 33.1253 47.2242 31.5717 44.4588 28.8064C41.6935 26.041 40.1399 22.2904 40.1399 18.3796C40.1399 18.2874 40.1765 18.199 40.2417 18.1338C40.3069 18.0686 40.3953 18.032 40.4875 18.032C40.5327 18.032 40.5774 18.041 40.619 18.0586C40.6606 18.0762 40.6982 18.102 40.7296 18.1344C40.7611 18.1668 40.7857 18.2052 40.802 18.2473C40.8183 18.2895 40.826 18.3344 40.8245 18.3796C40.9247 22.0325 42.4461 25.5022 45.0653 28.0505C47.6844 30.5988 51.1945 32.0247 54.8488 32.0247C58.5031 32.0247 62.0131 30.5988 64.6323 28.0505C67.2514 25.5022 68.7729 22.0325 68.873 18.3796C68.873 18.2874 68.9096 18.199 68.9748 18.1338C69.04 18.0686 69.1284 18.032 69.2206 18.032C69.2657 18.032 69.3104 18.041 69.352 18.0586C69.3936 18.0762 69.4313 18.102 69.4627 18.1344C69.4941 18.1668 69.5187 18.2052 69.535 18.2473C69.5513 18.2895 69.559 18.3344 69.5576 18.3796C69.5577 22.2776 68.0142 26.0171 65.2648 28.7804C62.5154 31.5436 58.7837 33.1058 54.8856 33.1253Z" fill="#17262F"></path><path d="M74.9082 16.8522H34.8841C33.9623 16.8522 33.0782 16.486 32.4264 15.8341C31.7746 15.1823 31.4084 14.2982 31.4084 13.3764C31.4084 13.2842 31.445 13.1958 31.5102 13.1306C31.5753 13.0654 31.6637 13.0288 31.7559 13.0288C31.8011 13.0288 31.8458 13.0378 31.8874 13.0554C31.929 13.073 31.9666 13.0988 31.9981 13.1312C32.0295 13.1636 32.0541 13.2021 32.0704 13.2442C32.0867 13.2863 32.0944 13.3312 32.093 13.3764C32.093 14.1166 32.387 14.8266 32.9105 15.35C33.4339 15.8735 34.1439 16.1675 34.8841 16.1675H74.9082C75.6485 16.1675 76.3584 15.8735 76.8819 15.35C77.4053 14.8266 77.6994 14.1166 77.6994 13.3764C77.6994 13.2842 77.736 13.1958 77.8012 13.1306C77.8663 13.0654 77.9548 13.0288 78.0469 13.0288C78.0921 13.0288 78.1368 13.0378 78.1784 13.0554C78.22 13.073 78.2576 13.0988 78.2891 13.1312C78.3205 13.1636 78.3451 13.2021 78.3614 13.2442C78.3777 13.2863 78.3854 13.3312 78.384 13.3764C78.384 13.8328 78.2941 14.2848 78.1194 14.7065C77.9447 15.1282 77.6887 15.5114 77.3659 15.8341C77.0432 16.1569 76.66 16.4129 76.2383 16.5876C75.8166 16.7623 75.3647 16.8522 74.9082 16.8522Z" fill="#17262F"></path><path d="M81.1014 11.923H28.6593C28.5708 11.9204 28.4866 11.884 28.4239 11.8214C28.3613 11.7587 28.3249 11.6745 28.3223 11.586V8.42616C28.3135 8.37619 28.3157 8.32489 28.3289 8.27587C28.342 8.22685 28.3658 8.18131 28.3984 8.14244C28.431 8.10357 28.4717 8.07231 28.5177 8.05087C28.5637 8.02942 28.6139 8.01831 28.6646 8.01831C28.7154 8.01831 28.7655 8.02942 28.8115 8.05087C28.8575 8.07231 28.8982 8.10357 28.9308 8.14244C28.9635 8.18131 28.9872 8.22685 29.0003 8.27587C29.0135 8.32489 29.0157 8.37619 29.0069 8.42616V11.2489H80.7644V8.42616C80.7615 8.38016 80.7681 8.33406 80.7837 8.2907C80.7994 8.24735 80.8237 8.20766 80.8553 8.1741C80.8869 8.14054 80.925 8.11381 80.9674 8.09557C81.0097 8.07733 81.0553 8.06796 81.1014 8.06805C81.1936 8.06805 81.282 8.10467 81.3472 8.16986C81.4124 8.23504 81.449 8.32345 81.449 8.41563V11.5754C81.449 11.6676 81.4124 11.756 81.3472 11.8212C81.282 11.8864 81.1936 11.923 81.1014 11.923Z" fill="#17262F"></path><path d="M123.422 7.58352H13.9979L0.621433 4.93982C0.541449 4.92718 0.468691 4.88615 0.416471 4.82426C0.36425 4.76237 0.336058 4.68375 0.337052 4.60278V0.389717C0.331061 0.340664 0.335598 0.290897 0.350362 0.243736C0.365126 0.196576 0.389777 0.153105 0.42267 0.116225C0.455563 0.0793444 0.495943 0.0499023 0.541115 0.0298622C0.586287 0.00982213 0.635213 -0.000355082 0.684629 9.45803e-06H123.422C123.512 0.00274845 123.598 0.0405738 123.661 0.105463C123.724 0.170352 123.759 0.2572 123.759 0.347587V7.23594C123.759 7.32633 123.724 7.41318 123.661 7.47806C123.598 7.54295 123.512 7.58078 123.422 7.58352ZM1.05327 4.3184L14.0716 6.90943H123.074V0.684632H1.05327V4.3184Z" fill="#17262F"></path><path d="M123.422 62.3111C123.329 62.3111 123.241 62.2745 123.176 62.2093C123.111 62.1441 123.074 62.0557 123.074 61.9635V8.68935C123.065 8.63937 123.067 8.58807 123.081 8.53905C123.094 8.49004 123.117 8.44449 123.15 8.40562C123.183 8.36675 123.223 8.33549 123.269 8.31405C123.315 8.29261 123.366 8.28149 123.416 8.28149C123.467 8.28149 123.517 8.29261 123.563 8.31405C123.609 8.33549 123.65 8.36675 123.683 8.40562C123.715 8.44449 123.739 8.49004 123.752 8.53905C123.765 8.58807 123.767 8.63937 123.759 8.68935V61.9635C123.759 62.0539 123.724 62.1407 123.661 62.2056C123.598 62.2705 123.512 62.3083 123.422 62.3111Z" fill="#17262F"></path><path d="M112.499 62.3112C112.454 62.3112 112.409 62.3021 112.368 62.2845C112.326 62.267 112.289 62.2412 112.257 62.2088C112.226 62.1763 112.201 62.1379 112.185 62.0958C112.168 62.0537 112.161 62.0087 112.162 61.9636V21.6657L99.4177 8.93169C99.357 8.86562 99.3233 8.77916 99.3233 8.68944C99.3233 8.59972 99.357 8.51327 99.4177 8.44719C99.4491 8.4147 99.4868 8.38886 99.5284 8.37122C99.57 8.35358 99.6147 8.34448 99.6599 8.34448C99.7051 8.34448 99.7499 8.35358 99.7915 8.37122C99.8331 8.38886 99.8708 8.4147 99.9022 8.44719L112.699 21.2865C112.765 21.3502 112.803 21.4373 112.805 21.5287V61.9636C112.805 62.0489 112.775 62.1315 112.718 62.1956C112.662 62.2597 112.584 62.3008 112.499 62.3112Z" fill="#17262F"></path><path d="M125.718 100.724H0.347572C0.302433 100.725 0.25747 100.717 0.215354 100.701C0.173238 100.685 0.134829 100.66 0.102407 100.629C0.0699856 100.597 0.0442129 100.56 0.02662 100.518C0.00902705 100.476 -2.72782e-05 100.432 -5.22101e-06 100.387V91.7814C-0.000583453 91.7053 0.0238348 91.6311 0.0695002 91.5702C0.115166 91.5093 0.179554 91.4651 0.252778 91.4444L24.4779 85.2406H85.0511L100.671 69.6102C100.703 69.5754 100.742 69.5479 100.786 69.5297C100.83 69.5115 100.877 69.5031 100.924 69.5048L109.445 69.6312V63.0273C109.443 62.9821 109.451 62.9372 109.467 62.8951C109.484 62.8529 109.508 62.8145 109.54 62.7821C109.571 62.7497 109.609 62.7239 109.65 62.7063C109.692 62.6887 109.737 62.6797 109.782 62.6797H125.718C125.763 62.6797 125.808 62.6887 125.849 62.7063C125.891 62.7239 125.928 62.7497 125.96 62.7821C125.991 62.8145 126.016 62.8529 126.032 62.8951C126.048 62.9372 126.056 62.9821 126.055 63.0273V100.387C126.055 100.476 126.019 100.562 125.956 100.625C125.893 100.688 125.807 100.724 125.718 100.724ZM0.684617 100.06H125.339V63.3643H110.129V69.9788C110.128 70.0703 110.09 70.1573 110.024 70.2211C109.994 70.2543 109.956 70.2802 109.914 70.2966C109.872 70.3131 109.827 70.3196 109.782 70.3159L101.113 70.2L85.4409 85.8199C85.3743 85.8799 85.2882 85.9136 85.1986 85.9147H24.5937L0.684617 92.0447V100.06Z" fill="#17262F"></path><path d="M125.718 97.2057H0.347577C0.26225 97.2064 0.179672 97.1756 0.115575 97.1193C0.0514778 97.0629 0.0103407 96.985 0 96.9003L0 91.7814C0 91.6892 0.0366197 91.6008 0.101803 91.5356C0.166987 91.4705 0.255394 91.4338 0.347577 91.4338H125.686C125.731 91.4338 125.776 91.4429 125.818 91.4605C125.859 91.4781 125.897 91.5038 125.928 91.5363C125.96 91.5687 125.984 91.6071 126.001 91.6492C126.017 91.6913 126.025 91.7363 126.023 91.7814V96.9003C126.016 96.9789 125.982 97.0526 125.926 97.1084C125.87 97.1642 125.796 97.1987 125.718 97.2057ZM0.684622 96.5211H125.339V92.1185H0.684622V96.5211Z" fill="#17262F"></path><path d="M0.631962 97.2058C0.540497 97.2039 0.453453 97.1661 0.389711 97.1004C0.357221 97.069 0.331385 97.0314 0.31374 96.9898C0.296095 96.9481 0.287003 96.9034 0.287003 96.8582C0.287003 96.813 0.296095 96.7682 0.31374 96.7266C0.331385 96.685 0.357221 96.6474 0.389711 96.6159L5.46645 91.5392C5.5334 91.4918 5.61494 91.4696 5.69666 91.4766C5.77838 91.4835 5.85501 91.5191 5.91301 91.5771C5.971 91.6351 6.00662 91.7118 6.01356 91.7935C6.02051 91.8752 5.99833 91.9568 5.95095 92.0237L0.874213 97.1004C0.808187 97.1627 0.722511 97.1999 0.631962 97.2058Z" fill="#17262F"></path><path d="M6.04573 97.2058C5.95427 97.2039 5.86723 97.1661 5.80348 97.1004C5.77099 97.069 5.74516 97.0314 5.72751 96.9897C5.70987 96.9481 5.70078 96.9034 5.70078 96.8582C5.70078 96.813 5.70987 96.7682 5.72751 96.7266C5.74516 96.685 5.77099 96.6474 5.80348 96.6159L10.8802 91.5392C10.9472 91.4918 11.0287 91.4696 11.1104 91.4766C11.1922 91.4835 11.2688 91.5191 11.3268 91.5771C11.3848 91.6351 11.4204 91.7118 11.4273 91.7935C11.4343 91.8752 11.4121 91.9568 11.3647 92.0237L6.31958 97.1004C6.24551 97.1699 6.14725 97.2077 6.04573 97.2058Z" fill="#17262F"></path><path d="M16.4836 97.2059C16.393 97.2001 16.3074 97.1629 16.2413 97.1006C16.1807 97.0345 16.147 96.9481 16.147 96.8584C16.147 96.7686 16.1807 96.6822 16.2413 96.6161L21.3286 91.5394C21.3579 91.4981 21.3958 91.4636 21.4397 91.4385C21.4836 91.4134 21.5325 91.3981 21.5829 91.3938C21.6333 91.3895 21.6841 91.3963 21.7316 91.4137C21.7792 91.4311 21.8223 91.4586 21.8581 91.4944C21.8939 91.5302 21.9214 91.5733 21.9388 91.6209C21.9562 91.6684 21.9629 91.7192 21.9587 91.7696C21.9544 91.82 21.9391 91.8689 21.914 91.9128C21.8889 91.9567 21.8544 91.9946 21.8131 92.0239L16.7258 97.1006C16.6621 97.1662 16.5751 97.2041 16.4836 97.2059Z" fill="#17262F"></path><path d="M11.0698 97.2058C10.9793 97.2 10.8936 97.1627 10.8276 97.1005C10.7669 97.0344 10.7332 96.9479 10.7332 96.8582C10.7332 96.7685 10.7669 96.6821 10.8276 96.616L15.9148 91.5392C15.9463 91.5067 15.9839 91.4809 16.0255 91.4633C16.0671 91.4456 16.1119 91.4365 16.1571 91.4365C16.2023 91.4365 16.247 91.4456 16.2886 91.4633C16.3303 91.4809 16.3679 91.5067 16.3993 91.5392C16.46 91.6053 16.4937 91.6918 16.4937 91.7815C16.4937 91.8712 16.46 91.9577 16.3993 92.0237L11.3121 97.1005C11.2483 97.1661 11.1613 97.2039 11.0698 97.2058Z" fill="#17262F"></path><path d="M26.932 97.2058C26.8414 97.2 26.7558 97.1627 26.6897 97.1005C26.6572 97.069 26.6314 97.0314 26.6138 96.9898C26.5961 96.9482 26.587 96.9034 26.587 96.8582C26.587 96.813 26.5961 96.7683 26.6138 96.7267C26.6314 96.685 26.6572 96.6474 26.6897 96.616L31.777 91.5392C31.8084 91.5067 31.8461 91.4809 31.8877 91.4633C31.9293 91.4456 31.974 91.4365 32.0193 91.4365C32.0645 91.4365 32.1092 91.4456 32.1508 91.4633C32.1924 91.4809 32.2301 91.5067 32.2615 91.5392C32.3222 91.6053 32.3559 91.6918 32.3559 91.7815C32.3559 91.8712 32.3222 91.9577 32.2615 92.0237L27.1742 97.1005C27.1099 97.1652 27.0232 97.2028 26.932 97.2058Z" fill="#17262F"></path><path d="M21.5182 97.2059C21.427 97.203 21.3403 97.1653 21.276 97.1006C21.2435 97.0692 21.2176 97.0315 21.2 96.9899C21.1823 96.9483 21.1732 96.9036 21.1732 96.8584C21.1732 96.8132 21.1823 96.7684 21.2 96.7268C21.2176 96.6852 21.2435 96.6475 21.276 96.6161L26.3316 91.5394C26.3609 91.4981 26.3988 91.4636 26.4427 91.4385C26.4866 91.4134 26.5355 91.3981 26.5859 91.3938C26.6363 91.3895 26.6871 91.3963 26.7346 91.4137C26.7822 91.4311 26.8253 91.4586 26.8611 91.4944C26.8969 91.5302 26.9244 91.5733 26.9418 91.6209C26.9592 91.6684 26.966 91.7192 26.9617 91.7696C26.9574 91.82 26.9421 91.8689 26.917 91.9128C26.8919 91.9567 26.8574 91.9946 26.8161 92.0239L21.7394 97.1006C21.6803 97.1606 21.602 97.1979 21.5182 97.2059Z" fill="#17262F"></path><path d="M37.3804 97.2059C37.2892 97.203 37.2025 97.1653 37.1381 97.1006C37.1056 97.0692 37.0798 97.0315 37.0622 96.9899C37.0445 96.9483 37.0354 96.9036 37.0354 96.8584C37.0354 96.8132 37.0445 96.7684 37.0622 96.7268C37.0798 96.6852 37.1056 96.6475 37.1381 96.6161L42.2149 91.5394C42.2441 91.4981 42.282 91.4636 42.3259 91.4385C42.3698 91.4134 42.4187 91.3981 42.4692 91.3938C42.5196 91.3895 42.5703 91.3963 42.6179 91.4137C42.6654 91.4311 42.7086 91.4586 42.7444 91.4944C42.7801 91.5302 42.8077 91.5733 42.825 91.6209C42.8424 91.6684 42.8492 91.7192 42.8449 91.7696C42.8406 91.82 42.8254 91.8689 42.8002 91.9128C42.7751 91.9567 42.7407 91.9946 42.6994 92.0239L37.6226 97.1006C37.5582 97.1653 37.4716 97.203 37.3804 97.2059Z" fill="#17262F"></path><path d="M31.9666 97.2059C31.8751 97.2041 31.7881 97.1662 31.7243 97.1006C31.6918 97.0692 31.666 97.0315 31.6484 96.9899C31.6307 96.9483 31.6216 96.9036 31.6216 96.8584C31.6216 96.8132 31.6307 96.7684 31.6484 96.7268C31.666 96.6852 31.6918 96.6475 31.7243 96.6161L36.8011 91.5394C36.8303 91.4981 36.8682 91.4636 36.9121 91.4385C36.9561 91.4134 37.0049 91.3981 37.0554 91.3938C37.1058 91.3895 37.1565 91.3963 37.2041 91.4137C37.2516 91.4311 37.2948 91.4586 37.3306 91.4944C37.3664 91.5302 37.3939 91.5733 37.4113 91.6209C37.4286 91.6684 37.4354 91.7192 37.4311 91.7696C37.4268 91.82 37.4116 91.8689 37.3865 91.9128C37.3613 91.9567 37.3269 91.9946 37.2856 92.0239L32.2088 97.1006C32.1428 97.1629 32.0571 97.2001 31.9666 97.2059Z" fill="#17262F"></path><path d="M47.8288 97.2059C47.7373 97.2041 47.6503 97.1662 47.5865 97.1006C47.554 97.0692 47.5282 97.0315 47.5105 96.9899C47.4929 96.9483 47.4838 96.9036 47.4838 96.8584C47.4838 96.8132 47.4929 96.7684 47.5105 96.7268C47.5282 96.6852 47.554 96.6475 47.5865 96.6161L52.6633 91.5394C52.6925 91.4981 52.7304 91.4636 52.7743 91.4385C52.8182 91.4134 52.8671 91.3981 52.9175 91.3938C52.968 91.3895 53.0187 91.3963 53.0663 91.4137C53.1138 91.4311 53.157 91.4586 53.1927 91.4944C53.2285 91.5302 53.2561 91.5733 53.2734 91.6209C53.2908 91.6684 53.2976 91.7192 53.2933 91.7696C53.289 91.82 53.2738 91.8689 53.2486 91.9128C53.2235 91.9567 53.1891 91.9946 53.1478 92.0239L48.071 97.1006C48.005 97.1629 47.9193 97.2001 47.8288 97.2059Z" fill="#17262F"></path><path d="M42.4044 97.2058C42.3139 97.2 42.2282 97.1627 42.1622 97.1005C42.1015 97.0344 42.0678 96.9479 42.0678 96.8582C42.0678 96.7685 42.1015 96.6821 42.1622 96.616L47.2495 91.5392C47.2809 91.5067 47.3185 91.4809 47.3602 91.4633C47.4018 91.4456 47.4465 91.4365 47.4917 91.4365C47.5369 91.4365 47.5817 91.4456 47.6233 91.4633C47.6649 91.4809 47.7025 91.5067 47.734 91.5392C47.7947 91.6053 47.8283 91.6918 47.8283 91.7815C47.8283 91.8712 47.7947 91.9577 47.734 92.0237L42.6467 97.1005C42.583 97.1661 42.4959 97.2039 42.4044 97.2058Z" fill="#17262F"></path><path d="M52.8528 97.2059C52.7616 97.203 52.675 97.1653 52.6106 97.1006C52.5781 97.0692 52.5523 97.0315 52.5346 96.9899C52.517 96.9483 52.5079 96.9036 52.5079 96.8584C52.5079 96.8132 52.517 96.7684 52.5346 96.7268C52.5523 96.6852 52.5781 96.6475 52.6106 96.6161L57.6873 91.5394C57.7166 91.4981 57.7545 91.4636 57.7984 91.4385C57.8423 91.4134 57.8912 91.3981 57.9416 91.3938C57.9921 91.3895 58.0428 91.3963 58.0903 91.4137C58.1379 91.4311 58.181 91.4586 58.2168 91.4944C58.2526 91.5302 58.2802 91.5733 58.2975 91.6209C58.3149 91.6684 58.3217 91.7192 58.3174 91.7696C58.3131 91.82 58.2979 91.8689 58.2727 91.9128C58.2476 91.9567 58.2131 91.9946 58.1718 92.0239L53.0951 97.1006C53.0307 97.1653 52.9441 97.203 52.8528 97.2059Z" fill="#17262F"></path><path d="M58.2666 97.2058C58.1761 97.2 58.0904 97.1627 58.0244 97.1005C57.9637 97.0344 57.93 96.9479 57.93 96.8582C57.93 96.7685 57.9637 96.6821 58.0244 96.616L63.1116 91.5392C63.1431 91.5067 63.1807 91.4809 63.2223 91.4633C63.2639 91.4456 63.3087 91.4365 63.3539 91.4365C63.3991 91.4365 63.4438 91.4456 63.4854 91.4633C63.5271 91.4809 63.5647 91.5067 63.5961 91.5392C63.6568 91.6053 63.6905 91.6918 63.6905 91.7815C63.6905 91.8712 63.6568 91.9577 63.5961 92.0237L58.5089 97.1005C58.4451 97.1661 58.3581 97.2039 58.2666 97.2058Z" fill="#17262F"></path><path d="M68.715 97.2058C68.6238 97.2028 68.5371 97.1651 68.4728 97.1004C68.4403 97.069 68.4144 97.0314 68.3968 96.9898C68.3792 96.9481 68.3701 96.9034 68.3701 96.8582C68.3701 96.813 68.3792 96.7682 68.3968 96.7266C68.4144 96.685 68.4403 96.6474 68.4728 96.6159L73.5495 91.5392C73.6165 91.4918 73.698 91.4696 73.7797 91.4766C73.8614 91.4835 73.9381 91.5191 73.9961 91.5771C74.0541 91.6351 74.0897 91.7118 74.0966 91.7935C74.1036 91.8752 74.0814 91.9568 74.034 92.0237L68.9573 97.1004C68.8929 97.1651 68.8062 97.2028 68.715 97.2058Z" fill="#17262F"></path><path d="M63.3012 97.2058C63.2098 97.2039 63.1227 97.1661 63.059 97.1004C63.0265 97.069 63.0006 97.0314 62.983 96.9898C62.9654 96.9481 62.9563 96.9034 62.9563 96.8582C62.9563 96.813 62.9654 96.7682 62.983 96.7266C63.0006 96.685 63.0265 96.6474 63.059 96.6159L68.1357 91.5392C68.2027 91.4918 68.2842 91.4696 68.3659 91.4766C68.4476 91.4835 68.5243 91.5191 68.5823 91.5771C68.6403 91.6351 68.6759 91.7118 68.6828 91.7935C68.6898 91.8752 68.6676 91.9568 68.6202 92.0237L63.5435 97.1004C63.4775 97.1627 63.3918 97.1999 63.3012 97.2058Z" fill="#17262F"></path><path d="M73.7286 97.2059C73.638 97.2001 73.5523 97.1629 73.4863 97.1006C73.4256 97.0345 73.3919 96.9481 73.3919 96.8584C73.3919 96.7686 73.4256 96.6822 73.4863 96.6161L78.5736 91.5394C78.6028 91.4981 78.6407 91.4636 78.6846 91.4385C78.7286 91.4134 78.7774 91.3981 78.8279 91.3938C78.8783 91.3895 78.9291 91.3963 78.9766 91.4137C79.0241 91.4311 79.0673 91.4586 79.1031 91.4944C79.1389 91.5302 79.1664 91.5733 79.1838 91.6209C79.2011 91.6684 79.2079 91.7192 79.2036 91.7696C79.1993 91.82 79.1841 91.8689 79.159 91.9128C79.1338 91.9567 79.0994 91.9946 79.0581 92.0239L73.9708 97.1006C73.9071 97.1662 73.82 97.2041 73.7286 97.2059Z" fill="#17262F"></path><path d="M79.1634 97.2058C79.0719 97.2039 78.9849 97.1661 78.9212 97.1004C78.8887 97.069 78.8628 97.0314 78.8452 96.9898C78.8275 96.9481 78.8185 96.9034 78.8185 96.8582C78.8185 96.813 78.8275 96.7682 78.8452 96.7266C78.8628 96.685 78.8887 96.6474 78.9212 96.6159L83.9979 91.5392C84.0648 91.4918 84.1464 91.4696 84.2281 91.4766C84.3098 91.4835 84.3865 91.5191 84.4444 91.5771C84.5024 91.6351 84.5381 91.7118 84.545 91.7935C84.552 91.8752 84.5298 91.9568 84.4824 92.0237L79.4057 97.1004C79.3396 97.1627 79.254 97.1999 79.1634 97.2058Z" fill="#17262F"></path><path d="M89.6013 97.2058C89.5107 97.2 89.425 97.1627 89.359 97.1005C89.2983 97.0344 89.2646 96.9479 89.2646 96.8582C89.2646 96.7685 89.2983 96.6821 89.359 96.616L94.4463 91.5392C94.4777 91.5067 94.5153 91.4809 94.557 91.4633C94.5986 91.4456 94.6433 91.4365 94.6885 91.4365C94.7337 91.4365 94.7785 91.4456 94.8201 91.4633C94.8617 91.4809 94.8993 91.5067 94.9308 91.5392C94.9915 91.6053 95.0251 91.6918 95.0251 91.7815C95.0251 91.8712 94.9915 91.9577 94.9308 92.0237L89.8435 97.1005C89.7798 97.1661 89.6927 97.2039 89.6013 97.2058Z" fill="#17262F"></path><path d="M84.1875 97.2058C84.0969 97.2 84.0113 97.1627 83.9452 97.1005C83.8845 97.0344 83.8509 96.9479 83.8509 96.8582C83.8509 96.7685 83.8845 96.6821 83.9452 96.616L89.0325 91.5392C89.0639 91.5067 89.1016 91.4809 89.1432 91.4633C89.1848 91.4456 89.2295 91.4365 89.2748 91.4365C89.32 91.4365 89.3647 91.4456 89.4063 91.4633C89.4479 91.4809 89.4856 91.5067 89.517 91.5392C89.5777 91.6053 89.6114 91.6918 89.6114 91.7815C89.6114 91.8712 89.5777 91.9577 89.517 92.0237L84.4297 97.1005C84.366 97.1661 84.2789 97.2039 84.1875 97.2058Z" fill="#17262F"></path><path d="M100.06 97.2058C99.969 97.2028 99.8823 97.1652 99.8179 97.1005C99.7854 97.069 99.7596 97.0314 99.742 96.9898C99.7243 96.9482 99.7152 96.9034 99.7152 96.8582C99.7152 96.813 99.7243 96.7683 99.742 96.7267C99.7596 96.685 99.7854 96.6474 99.8179 96.616L104.905 91.5392C104.937 91.5067 104.974 91.4809 105.016 91.4633C105.058 91.4456 105.102 91.4365 105.147 91.4365C105.193 91.4365 105.237 91.4456 105.279 91.4633C105.321 91.4809 105.358 91.5067 105.39 91.5392C105.45 91.6053 105.484 91.6918 105.484 91.7815C105.484 91.8712 105.45 91.9577 105.39 92.0237L100.302 97.1005C100.238 97.1652 100.151 97.2028 100.06 97.2058Z" fill="#17262F"></path><path d="M94.6359 97.2058C94.5446 97.2028 94.458 97.1651 94.3936 97.1004C94.3611 97.069 94.3353 97.0314 94.3177 96.9898C94.3 96.9481 94.2909 96.9034 94.2909 96.8582C94.2909 96.813 94.3 96.7682 94.3177 96.7266C94.3353 96.685 94.3611 96.6474 94.3936 96.6159L99.4704 91.5392C99.5373 91.4918 99.6188 91.4696 99.7006 91.4766C99.7823 91.4835 99.8589 91.5191 99.9169 91.5771C99.9749 91.6351 100.011 91.7118 100.017 91.7935C100.024 91.8752 100.002 91.9568 99.9549 92.0237L94.8781 97.1004C94.8137 97.1651 94.7271 97.2028 94.6359 97.2058Z" fill="#17262F"></path><path d="M110.498 97.2058C110.407 97.2028 110.32 97.1651 110.256 97.1004C110.223 97.069 110.197 97.0314 110.18 96.9898C110.162 96.9481 110.153 96.9034 110.153 96.8582C110.153 96.813 110.162 96.7682 110.18 96.7266C110.197 96.685 110.223 96.6474 110.256 96.6159L115.333 91.5392C115.399 91.4918 115.481 91.4696 115.563 91.4766C115.644 91.4835 115.721 91.5191 115.779 91.5771C115.837 91.6351 115.873 91.7118 115.88 91.7935C115.887 91.8752 115.864 91.9568 115.817 92.0237L110.74 97.1004C110.676 97.1651 110.589 97.2028 110.498 97.2058Z" fill="#17262F"></path><path d="M105.084 97.2059C104.993 97.2041 104.906 97.1662 104.842 97.1006C104.81 97.0692 104.784 97.0315 104.766 96.9899C104.748 96.9483 104.739 96.9036 104.739 96.8584C104.739 96.8132 104.748 96.7684 104.766 96.7268C104.784 96.6852 104.81 96.6475 104.842 96.6161L109.919 91.5394C109.948 91.4981 109.986 91.4636 110.03 91.4385C110.074 91.4134 110.123 91.3981 110.173 91.3938C110.223 91.3895 110.274 91.3963 110.322 91.4137C110.369 91.4311 110.412 91.4586 110.448 91.4944C110.484 91.5302 110.512 91.5733 110.529 91.6209C110.546 91.6684 110.553 91.7192 110.549 91.7696C110.545 91.82 110.529 91.8689 110.504 91.9128C110.479 91.9567 110.445 91.9946 110.403 92.0239L105.327 97.1006C105.26 97.1629 105.175 97.2001 105.084 97.2059Z" fill="#17262F"></path><path d="M120.946 97.2058C120.855 97.2039 120.768 97.1661 120.704 97.1004C120.672 97.069 120.646 97.0314 120.628 96.9898C120.611 96.9481 120.601 96.9034 120.601 96.8582C120.601 96.813 120.611 96.7682 120.628 96.7266C120.646 96.685 120.672 96.6474 120.704 96.6159L125.475 91.8446C125.507 91.8122 125.545 91.7863 125.586 91.7687C125.628 91.751 125.673 91.7419 125.718 91.7419C125.763 91.7419 125.808 91.751 125.849 91.7687C125.891 91.7863 125.929 91.8122 125.96 91.8446C126.021 91.9107 126.054 91.9972 126.054 92.0869C126.054 92.1766 126.021 92.2631 125.96 92.3292L121.189 97.1004C121.123 97.1627 121.037 97.1999 120.946 97.2058Z" fill="#17262F"></path><path d="M115.522 97.2058C115.432 97.2 115.346 97.1627 115.28 97.1005C115.219 97.0344 115.185 96.9479 115.185 96.8582C115.185 96.7685 115.219 96.6821 115.28 96.616L120.367 91.5392C120.399 91.5067 120.436 91.4809 120.478 91.4633C120.519 91.4456 120.564 91.4365 120.609 91.4365C120.655 91.4365 120.699 91.4456 120.741 91.4633C120.783 91.4809 120.82 91.5067 120.852 91.5392C120.912 91.6053 120.946 91.6918 120.946 91.7815C120.946 91.8712 120.912 91.9577 120.852 92.0237L115.764 97.1005C115.701 97.1661 115.614 97.2039 115.522 97.2058Z" fill="#17262F"></path><path d="M23.1718 56.1284H16.8522C16.7601 56.1284 16.6717 56.0918 16.6065 56.0266C16.5413 55.9614 16.5047 55.873 16.5047 55.7808C16.5046 55.7357 16.5137 55.6909 16.5313 55.6494C16.5489 55.6078 16.5747 55.5701 16.6071 55.5387C16.6395 55.5072 16.6779 55.4826 16.72 55.4663C16.7621 55.45 16.8071 55.4424 16.8522 55.4438H23.1718C23.2612 55.4438 23.347 55.4793 23.4102 55.5425C23.4734 55.6057 23.5089 55.6914 23.5089 55.7808C23.5103 55.826 23.5026 55.8709 23.4863 55.913C23.47 55.9551 23.4454 55.9936 23.414 56.026C23.3825 56.0584 23.3449 56.0842 23.3033 56.1018C23.2617 56.1194 23.217 56.1284 23.1718 56.1284Z" fill="#17262F"></path><path d="M31.124 63.2486C31.0732 63.2502 31.0227 63.2396 30.9768 63.2176C30.931 63.1956 30.8911 63.1629 30.8607 63.1222L26.0788 57.4556C26.0216 57.3858 25.9944 57.2961 26.0033 57.2062C26.0122 57.1163 26.0564 57.0336 26.1262 56.9764C26.1961 56.9191 26.2858 56.8919 26.3757 56.9008C26.4655 56.9097 26.5482 56.9539 26.6055 57.0238L31.3768 62.6903C31.409 62.7209 31.4346 62.7576 31.4521 62.7983C31.4696 62.8391 31.4787 62.883 31.4787 62.9273C31.4787 62.9717 31.4696 63.0156 31.4521 63.0563C31.4346 63.0971 31.409 63.1338 31.3768 63.1643C31.3426 63.1948 31.3025 63.218 31.2591 63.2325C31.2156 63.247 31.1696 63.2524 31.124 63.2486Z" fill="#17262F"></path><path d="M23.1718 78.8579H16.8522C16.7601 78.8579 16.6717 78.8213 16.6065 78.7561C16.5413 78.6909 16.5047 78.6025 16.5047 78.5103C16.5046 78.4651 16.5137 78.4204 16.5313 78.3788C16.5489 78.3372 16.5747 78.2996 16.6071 78.2682C16.6395 78.2367 16.6779 78.2121 16.72 78.1958C16.7621 78.1795 16.8071 78.1718 16.8522 78.1733H23.1718C23.2612 78.1733 23.347 78.2088 23.4102 78.272C23.4734 78.3352 23.5089 78.4209 23.5089 78.5103C23.5103 78.5554 23.5026 78.6004 23.4863 78.6425C23.47 78.6846 23.4454 78.723 23.414 78.7555C23.3825 78.7879 23.3449 78.8137 23.3033 78.8313C23.2617 78.8488 23.217 78.8579 23.1718 78.8579Z" fill="#17262F"></path><path d="M26.3316 77.394C26.2662 77.3958 26.2017 77.3785 26.1459 77.3442C26.0902 77.3099 26.0456 77.2601 26.0177 77.2009C25.9898 77.1417 25.9797 77.0757 25.9887 77.0108C25.9977 76.946 26.0253 76.8852 26.0683 76.8358L30.966 71.0534C30.9974 71.0209 31.0351 70.9951 31.0767 70.9774C31.1183 70.9598 31.163 70.9507 31.2082 70.9507C31.2534 70.9507 31.2982 70.9598 31.3398 70.9774C31.3814 70.9951 31.4191 71.0209 31.4505 71.0534C31.5136 71.1183 31.5488 71.2052 31.5488 71.2956C31.5488 71.3861 31.5136 71.473 31.4505 71.5379L26.5528 77.3203C26.4902 77.3704 26.4118 77.3966 26.3316 77.394Z" fill="#17262F"></path><path d="M21.2865 67.409H15.2302C15.1408 67.409 15.0551 67.3735 14.9919 67.3103C14.9287 67.2471 14.8932 67.1613 14.8932 67.0719C14.8918 67.0268 14.8994 66.9818 14.9157 66.9397C14.932 66.8976 14.9566 66.8592 14.9881 66.8268C15.0195 66.7944 15.0572 66.7686 15.0988 66.751C15.1403 66.7334 15.1851 66.7243 15.2302 66.7244H21.2865C21.3787 66.7244 21.4671 66.761 21.5323 66.8262C21.5974 66.8914 21.6341 66.9798 21.6341 67.0719C21.6341 67.1171 21.625 67.1618 21.6074 67.2034C21.5898 67.245 21.5641 67.2826 21.5317 67.3141C21.4992 67.3455 21.4608 67.3701 21.4187 67.3864C21.3766 67.4027 21.3316 67.4104 21.2865 67.409Z" fill="#17262F"></path><path d="M29.4282 67.409H25.1098C25.0204 67.409 24.9347 67.3735 24.8715 67.3103C24.8083 67.2471 24.7728 67.1613 24.7728 67.0719C24.7714 67.0268 24.7791 66.9818 24.7954 66.9397C24.8117 66.8976 24.8363 66.8592 24.8677 66.8268C24.8991 66.7944 24.9368 66.7686 24.9784 66.751C25.02 66.7334 25.0647 66.7243 25.1098 66.7244H29.4282C29.5204 66.7244 29.6088 66.761 29.674 66.8262C29.7392 66.8914 29.7758 66.9798 29.7758 67.0719C29.7758 67.1171 29.7668 67.1618 29.7492 67.2034C29.7316 67.245 29.7058 67.2826 29.6734 67.3141C29.641 67.3455 29.6026 67.3701 29.5604 67.3864C29.5183 67.4027 29.4734 67.4104 29.4282 67.409Z" fill="#17262F"></path><path d="M40.2347 74.508C40.1896 74.5081 40.1449 74.499 40.1033 74.4814C40.0617 74.4638 40.024 74.4381 39.9926 74.4056C39.9612 74.3732 39.9366 74.3348 39.9203 74.2927C39.9039 74.2506 39.8963 74.2056 39.8977 74.1605V60.0362C39.8977 59.9468 39.9332 59.8611 39.9964 59.7979C40.0596 59.7347 40.1453 59.6991 40.2347 59.6991C40.2799 59.6977 40.3248 59.7054 40.3669 59.7217C40.4091 59.738 40.4475 59.7626 40.4799 59.7941C40.5123 59.8255 40.5381 59.8631 40.5557 59.9047C40.5733 59.9463 40.5823 59.991 40.5823 60.0362V74.1605C40.5823 74.2527 40.5457 74.3411 40.4805 74.4062C40.4153 74.4714 40.3269 74.508 40.2347 74.508Z" fill="#17262F"></path></g><defs><clipPath id="clip0_5678_15935"><rect width="126.055" height="105" fill="white"></rect></clipPath></defs></svg>