<svg xmlns="http://www.w3.org/2000/svg" width="140" height="64" viewBox="0 0 140 64" fill="none"><g clip-path="url(#clip0_5678_16823)"><path d="M64.381 24.881V43.6956C64.381 43.9862 64.2656 44.2649 64.0601 44.4704C63.8546 44.6759 63.5759 44.7913 63.2853 44.7913H21.8612C21.5884 44.7677 21.3346 44.6415 21.1511 44.4381C20.9676 44.2348 20.868 43.9694 20.8724 43.6956V24.881C20.8595 24.7422 20.8754 24.6023 20.9189 24.4699C20.9625 24.3375 21.0328 24.2154 21.1256 24.1114C21.2183 24.0074 21.3315 23.9235 21.4581 23.8651C21.5846 23.8067 21.7219 23.775 21.8612 23.7719H63.2853C63.433 23.7618 63.581 23.7837 63.7195 23.8361C63.8579 23.8884 63.9834 23.97 64.0874 24.0753C64.1914 24.1806 64.2715 24.3071 64.3222 24.4461C64.3728 24.5852 64.3929 24.7335 64.381 24.881ZM62.2965 42.7602V25.8699H22.8901V42.7602H62.2965Z" fill="#17262F"></path><path d="M63.2853 23.772H104.896C105.036 23.775 105.173 23.8068 105.3 23.8652C105.426 23.9236 105.539 24.0074 105.632 24.1114C105.725 24.2155 105.795 24.3375 105.839 24.4699C105.882 24.6023 105.898 24.7423 105.885 24.8811V43.6956C105.89 43.9695 105.79 44.2348 105.607 44.4382C105.423 44.6415 105.169 44.7677 104.896 44.7913H63.2853C63.0124 44.7677 62.7587 44.6415 62.5752 44.4382C62.3917 44.2348 62.2921 43.9695 62.2965 43.6956V24.8811C62.2836 24.7423 62.2994 24.6023 62.343 24.4699C62.3866 24.3375 62.4569 24.2155 62.5497 24.1114C62.6424 24.0074 62.7556 23.9236 62.8822 23.8652C63.0087 23.8068 63.146 23.775 63.2853 23.772ZM103.787 25.8699H64.381V42.7602H103.787V25.8699Z" fill="#17262F"></path><path d="M83.102 44.7913H43.5888V61.4678H83.102V44.7913ZM42.6 42.7602H84.0909C84.2207 42.7602 84.3493 42.7858 84.4693 42.8355C84.5893 42.8851 84.6983 42.958 84.7901 43.0498C84.8819 43.1416 84.9548 43.2506 85.0044 43.3706C85.0541 43.4906 85.0797 43.6192 85.0797 43.749V62.6304C85.0797 62.7602 85.0541 62.8888 85.0044 63.0088C84.9548 63.1288 84.8819 63.2378 84.7901 63.3296C84.6983 63.4214 84.5893 63.4942 84.4693 63.5439C84.3493 63.5936 84.2207 63.6192 84.0909 63.6192H42.6668C42.3907 63.6271 42.122 63.529 41.9158 63.3452C41.7096 63.1613 41.5815 62.9056 41.5577 62.6304V43.6956C41.5815 43.4203 41.7096 43.1646 41.9158 42.9808C42.122 42.7969 42.3907 42.6989 42.6668 42.7067L42.6 42.7602Z" fill="#17262F"></path><path d="M98.282 63.6194C98.0081 63.6238 97.7428 63.5242 97.5394 63.3407C97.3361 63.1572 97.2099 62.9034 97.1862 62.6306C97.1862 62.3387 97.3012 62.0586 97.5063 61.851C97.7115 61.6434 97.9901 61.525 98.282 61.5215H98.8833C99.1751 61.525 99.4538 61.6434 99.6589 61.851C99.864 62.0586 99.979 62.3387 99.979 62.6306C99.9554 62.9034 99.8292 63.1572 99.6258 63.3407C99.4225 63.5242 99.1571 63.6238 98.8833 63.6194H98.282ZM102.023 63.6194C101.75 63.6238 101.484 63.5242 101.281 63.3407C101.078 63.1572 100.951 62.9034 100.928 62.6306C100.928 62.3387 101.043 62.0586 101.248 61.851C101.453 61.6434 101.732 61.525 102.023 61.5215H112.38C112.671 61.525 112.95 61.6434 113.155 61.851C113.36 62.0586 113.475 62.3387 113.475 62.6306C113.452 62.9034 113.325 63.1572 113.122 63.3407C112.919 63.5242 112.653 63.6238 112.38 63.6194H102.023ZM116.722 63.6194C116.584 63.6324 116.445 63.6165 116.313 63.5728C116.182 63.5291 116.06 63.4586 115.957 63.3656C115.854 63.2727 115.772 63.1593 115.715 63.0328C115.658 62.9063 115.628 62.7693 115.627 62.6306C115.615 62.4831 115.635 62.3347 115.686 62.1957C115.736 62.0566 115.816 61.9301 115.92 61.8249C116.024 61.7196 116.15 61.638 116.288 61.5856C116.427 61.5333 116.575 61.5114 116.722 61.5215H124.646V44.7915H85.0797V61.468H94.9814C95.1296 61.4582 95.2782 61.4801 95.4172 61.5324C95.5562 61.5846 95.6825 61.666 95.7875 61.771C95.8925 61.876 95.9739 62.0023 96.0262 62.1413C96.0784 62.2803 96.1004 62.4289 96.0905 62.5771C96.0874 62.7165 96.0557 62.8537 95.9973 62.9803C95.9389 63.1068 95.8551 63.22 95.751 63.3128C95.647 63.4055 95.525 63.4759 95.3926 63.5194C95.2602 63.563 95.1202 63.5788 94.9814 63.566H84.0909C83.961 63.566 83.8324 63.5404 83.7125 63.4907C83.5925 63.441 83.4835 63.3682 83.3917 63.2763C83.2999 63.1845 83.227 63.0755 83.1773 62.9555C83.1276 62.8356 83.1021 62.707 83.1021 62.5771V43.6958C83.1021 43.4335 83.2062 43.182 83.3917 42.9966C83.5771 42.8111 83.8286 42.7069 84.0909 42.7069H125.608C125.882 42.7025 126.148 42.8021 126.351 42.9856C126.554 43.1691 126.681 43.4229 126.704 43.6958V62.6306C126.681 62.9034 126.554 63.1572 126.351 63.3407C126.148 63.5242 125.882 63.6238 125.608 63.6194H116.722Z" fill="#17262F"></path><path d="M15.1933 63.6193C15.0623 63.621 14.9323 63.5968 14.8108 63.5479C14.6892 63.499 14.5787 63.4264 14.4854 63.3344C14.3922 63.2424 14.3181 63.1328 14.2676 63.012C14.2171 62.8911 14.1911 62.7614 14.1911 62.6304C14.1781 62.4905 14.1944 62.3495 14.2387 62.2162C14.2831 62.0829 14.3546 61.9602 14.4488 61.856C14.543 61.7517 14.6578 61.6682 14.786 61.6106C14.9141 61.553 15.0528 61.5226 15.1933 61.5213H15.848C15.9874 61.5244 16.1246 61.5561 16.2512 61.6145C16.3778 61.6729 16.4909 61.7568 16.5837 61.8608C16.6765 61.9649 16.7468 62.0869 16.7904 62.2193C16.8339 62.3517 16.8498 62.4916 16.8369 62.6304C16.8369 62.7603 16.8113 62.8889 16.7616 63.0088C16.7119 63.1288 16.6391 63.2378 16.5473 63.3296C16.4554 63.4215 16.3464 63.4943 16.2265 63.544C16.1065 63.5937 15.9779 63.6193 15.848 63.6193H15.1933ZM18.9348 63.6193C18.6713 63.6193 18.4184 63.5155 18.2308 63.3305C18.0433 63.1454 17.9361 62.8939 17.9326 62.6304C17.9217 62.4909 17.9393 62.3507 17.9844 62.2183C18.0295 62.0858 18.1012 61.964 18.195 61.8602C18.2888 61.7563 18.4028 61.6728 18.53 61.6145C18.6572 61.5562 18.7949 61.5245 18.9348 61.5213H29.3977C29.5371 61.5244 29.6743 61.5561 29.8009 61.6145C29.9274 61.6729 30.0406 61.7568 30.1334 61.8608C30.2261 61.9649 30.2965 62.0869 30.34 62.2193C30.3836 62.3517 30.3994 62.4916 30.3866 62.6304C30.3866 62.7603 30.361 62.8889 30.3113 63.0088C30.2616 63.1288 30.1888 63.2378 30.0969 63.3296C30.0051 63.4215 29.8961 63.4943 29.7761 63.544C29.6562 63.5937 29.5276 63.6193 29.3977 63.6193H18.9348ZM33.6337 63.6193C33.5038 63.6193 33.3752 63.5937 33.2553 63.544C33.1353 63.4943 33.0263 63.4215 32.9345 63.3296C32.8426 63.2378 32.7698 63.1288 32.7201 63.0088C32.6704 62.8889 32.6448 62.7603 32.6448 62.6304C32.632 62.4916 32.6478 62.3517 32.6914 62.2193C32.7349 62.0869 32.8053 61.9649 32.898 61.8608C32.9908 61.7568 33.104 61.6729 33.2305 61.6145C33.3571 61.5561 33.4943 61.5244 33.6337 61.5213H41.5577V44.7914H2.09793V61.4679H12.0263C12.1657 61.471 12.3029 61.5027 12.4295 61.5611C12.556 61.6195 12.6692 61.7033 12.762 61.8074C12.8547 61.9114 12.9251 62.0334 12.9687 62.1658C13.0122 62.2982 13.028 62.4382 13.0152 62.577C13.0152 62.7068 12.9896 62.8354 12.9399 62.9554C12.8902 63.0754 12.8174 63.1844 12.7256 63.2762C12.6337 63.368 12.5247 63.4409 12.4048 63.4905C12.2848 63.5402 12.1562 63.5658 12.0263 63.5658H1.09573C0.962285 63.5768 0.827987 63.5612 0.700569 63.5201C0.57315 63.4789 0.455126 63.413 0.353288 63.3261C0.251451 63.2391 0.16781 63.1329 0.107178 63.0135C0.0465468 62.8941 0.010122 62.7639 0 62.6304L0 43.6956C0.010122 43.5621 0.0465468 43.4319 0.107178 43.3125C0.16781 43.1931 0.251451 43.0869 0.353288 43C0.455126 42.9131 0.57315 42.8471 0.700569 42.806C0.827987 42.7648 0.962285 42.7493 1.09573 42.7602H42.6C42.8622 42.7602 43.1138 42.8644 43.2992 43.0499C43.4846 43.2353 43.5888 43.4868 43.5888 43.7491V62.6304C43.5888 62.7603 43.5632 62.8889 43.5135 63.0088C43.4639 63.1288 43.391 63.2378 43.2992 63.3296C43.2074 63.4215 43.0984 63.4943 42.9784 63.544C42.8584 63.5937 42.7298 63.6193 42.6 63.6193H33.6337Z" fill="#17262F"></path><path d="M118.927 11.7725C118.811 11.5831 118.761 11.361 118.784 11.1401C118.806 10.9193 118.9 10.712 119.052 10.5498C119.203 10.3876 119.404 10.2796 119.623 10.2422C119.842 10.2048 120.067 10.2401 120.263 10.3427L120.704 10.6768C120.809 10.7755 120.893 10.8945 120.95 11.0267C121.007 11.1588 121.036 11.3012 121.036 11.4451C121.036 11.5891 121.007 11.7315 120.95 11.8636C120.893 11.9957 120.809 12.1148 120.704 12.2135C120.501 12.375 120.249 12.4629 119.99 12.4629C119.73 12.4629 119.478 12.375 119.275 12.2135L118.927 11.7725ZM121.6 14.445C121.466 14.3702 121.351 14.2661 121.263 14.1405C121.175 14.0149 121.117 13.871 121.093 13.7197C121.069 13.5684 121.079 13.4136 121.123 13.2668C121.167 13.1201 121.244 12.9852 121.347 12.8723C121.451 12.7594 121.579 12.6713 121.721 12.6148C121.864 12.5583 122.017 12.5348 122.17 12.546C122.323 12.5571 122.471 12.6028 122.604 12.6794C122.736 12.7561 122.85 12.8617 122.936 12.9885L130.312 20.2578C130.417 20.3565 130.5 20.4755 130.557 20.6077C130.614 20.7398 130.644 20.8822 130.644 21.0261C130.644 21.17 130.614 21.3124 130.557 21.4446C130.5 21.5767 130.417 21.6958 130.312 21.7945C130.107 21.9516 129.856 22.0367 129.597 22.0367C129.339 22.0367 129.088 21.9516 128.882 21.7945L121.6 14.445ZM131.956 24.7877C131.851 24.689 131.768 24.5699 131.71 24.4378C131.653 24.3057 131.624 24.1633 131.624 24.0193C131.624 23.8754 131.653 23.733 131.71 23.6009C131.768 23.4688 131.851 23.3497 131.956 23.251C132.159 23.0895 132.411 23.0016 132.671 23.0016C132.93 23.0016 133.182 23.0895 133.386 23.251L139.759 29.6383C139.864 29.737 139.948 29.8561 140.005 29.9882C140.062 30.1203 140.091 30.2627 140.091 30.4067C140.091 30.5506 140.062 30.693 140.005 30.8251C139.948 30.9573 139.864 31.0763 139.759 31.175L126.397 44.5376C126.309 44.6417 126.2 44.7253 126.076 44.7827C125.953 44.8401 125.818 44.8698 125.682 44.8698C125.546 44.8698 125.411 44.8401 125.288 44.7827C125.164 44.7253 125.055 44.6417 124.967 44.5376L95.5693 15.1399C95.4688 15.0485 95.3886 14.9371 95.3336 14.8128C95.2787 14.6885 95.2503 14.5542 95.2503 14.4183C95.2503 14.2824 95.2787 14.1481 95.3336 14.0238C95.3886 13.8996 95.4688 13.7882 95.5693 13.6967L108.932 0.334128C109.02 0.230065 109.129 0.146426 109.253 0.089052C109.376 0.0316782 109.511 0.00195312 109.647 0.00195313C109.783 0.00195312 109.918 0.0316782 110.041 0.089052C110.164 0.146426 110.274 0.230065 110.362 0.334128L118.099 8.01762C118.26 8.22091 118.348 8.47289 118.348 8.73252C118.348 8.99216 118.26 9.24414 118.099 9.44742C118 9.55218 117.881 9.63564 117.749 9.69269C117.617 9.74974 117.474 9.77917 117.33 9.77917C117.186 9.77917 117.044 9.74974 116.912 9.69269C116.78 9.63564 116.661 9.55218 116.562 9.44742L109.573 2.5256L97.6806 14.3114L125.608 42.266L137.501 30.3733L131.956 24.7877Z" fill="#17262F"></path><path d="M84.0909 57.6729C83.8286 57.6729 83.5771 57.5687 83.3917 57.3833C83.2062 57.1978 83.102 56.9463 83.102 56.684C83.0892 56.5453 83.105 56.4053 83.1486 56.2729C83.1921 56.1405 83.2625 56.0185 83.3552 55.9144C83.448 55.8104 83.5612 55.7266 83.6877 55.6682C83.8143 55.6097 83.9515 55.578 84.0909 55.575H106.54C106.834 55.575 107.116 55.6918 107.324 55.8998C107.532 56.1078 107.649 56.3899 107.649 56.684C107.622 56.9581 107.493 57.2119 107.288 57.3952C107.082 57.5784 106.815 57.6775 106.54 57.6729H84.0909Z" fill="#17262F"></path><path d="M84.0909 50.7779C83.818 50.7543 83.5642 50.6281 83.3807 50.4247C83.1972 50.2214 83.0976 49.9561 83.102 49.6822C83.102 49.4199 83.2062 49.1684 83.3917 48.983C83.5771 48.7975 83.8286 48.6934 84.0909 48.6934H102.144C102.406 48.6934 102.658 48.7975 102.843 48.983C103.028 49.1684 103.133 49.4199 103.133 49.6822C103.137 49.9561 103.037 50.2214 102.854 50.4247C102.67 50.6281 102.417 50.7543 102.144 50.7779H84.0909Z" fill="#17262F"></path><path d="M1.09575 57.6729C0.958018 57.6838 0.819505 57.6666 0.688683 57.6221C0.557861 57.5777 0.437481 57.507 0.33491 57.4145C0.232339 57.3219 0.149734 57.2094 0.0921504 57.0838C0.0345664 56.9582 0.00321434 56.8222 1.26667e-05 56.6841C-0.00964148 56.5371 0.0119779 56.3897 0.0634451 56.2516C0.114912 56.1136 0.195058 55.988 0.298597 55.8832C0.402136 55.7784 0.526716 55.6968 0.664121 55.6436C0.801526 55.5905 0.948635 55.5671 1.09575 55.575H23.5583C23.6976 55.578 23.8349 55.6098 23.9614 55.6682C24.088 55.7266 24.2012 55.8104 24.2939 55.9145C24.3867 56.0185 24.457 56.1405 24.5006 56.2729C24.5442 56.4053 24.56 56.5453 24.5471 56.6841C24.5471 56.9463 24.4429 57.1978 24.2575 57.3833C24.0721 57.5687 23.8205 57.6729 23.5583 57.6729H1.09575Z" fill="#17262F"></path><path d="M1.09573 50.7777C0.948405 50.7778 0.802568 50.7482 0.666945 50.6907C0.531322 50.6331 0.408699 50.5488 0.306409 50.4428C0.204119 50.3367 0.124263 50.2112 0.0716152 50.0736C0.0189679 49.936 -0.00538897 49.7892 1.18749e-06 49.6419C0.00320286 49.5038 0.034555 49.3678 0.092139 49.2422C0.149723 49.1166 0.232328 49.0041 0.334899 48.9115C0.437469 48.819 0.557849 48.7483 0.688671 48.7039C0.819493 48.6594 0.958007 48.6421 1.09573 48.6531H19.0417C19.1794 48.6421 19.318 48.6594 19.4488 48.7039C19.5796 48.7483 19.7 48.819 19.8026 48.9115C19.9051 49.0041 19.9877 49.1166 20.0453 49.2422C20.1029 49.3678 20.1342 49.5038 20.1374 49.6419C20.1374 49.9325 20.022 50.2112 19.8165 50.4167C19.611 50.6222 19.3323 50.7377 19.0417 50.7377L1.09573 50.7777Z" fill="#17262F"></path><path d="M21.7944 38.8451C21.5215 38.8214 21.2678 38.6952 21.0843 38.4919C20.9008 38.2885 20.8012 38.0232 20.8056 37.7493C20.8056 37.4871 20.9098 37.2356 21.0952 37.0501C21.2806 36.8647 21.5322 36.7605 21.7944 36.7605H44.2436C44.382 36.7496 44.5211 36.7668 44.6527 36.8111C44.7843 36.8554 44.9055 36.9259 45.0091 37.0182C45.1128 37.1106 45.1966 37.223 45.2557 37.3487C45.3147 37.4743 45.3477 37.6106 45.3527 37.7493C45.3492 38.0412 45.2308 38.3198 45.0231 38.525C44.8155 38.7301 44.5354 38.8451 44.2436 38.8451H21.7944Z" fill="#17262F"></path><path d="M21.7944 31.8031C21.5322 31.8031 21.2806 31.6989 21.0952 31.5135C20.9098 31.328 20.8056 31.0765 20.8056 30.8142C20.7946 30.6765 20.8119 30.538 20.8563 30.4072C20.9008 30.2764 20.9714 30.156 21.064 30.0534C21.1566 29.9508 21.2691 29.8682 21.3947 29.8106C21.5203 29.7531 21.6563 29.7217 21.7944 29.7185H39.8473C39.9854 29.7217 40.1214 29.7531 40.247 29.8106C40.3726 29.8682 40.4851 29.9508 40.5777 30.0534C40.6703 30.156 40.7409 30.2764 40.7854 30.4072C40.8298 30.538 40.8471 30.6765 40.8361 30.8142C40.8361 31.0765 40.7319 31.328 40.5465 31.5135C40.3611 31.6989 40.1095 31.8031 39.8473 31.8031H21.7944Z" fill="#17262F"></path><path d="M100.22 10.5697C100.032 10.3552 99.928 10.0798 99.928 9.79465C99.928 9.5095 100.032 9.23406 100.22 9.01961C100.425 8.86249 100.676 8.77734 100.934 8.77734C101.193 8.77734 101.444 8.86249 101.649 9.01961L117.831 24.6539C118.026 24.835 118.145 25.0828 118.165 25.3478C118.185 25.6129 118.104 25.8756 117.938 26.0837C117.838 26.1888 117.718 26.2725 117.585 26.3297C117.452 26.3869 117.308 26.4164 117.163 26.4164C117.018 26.4164 116.875 26.3869 116.742 26.3297C116.608 26.2725 116.488 26.1888 116.388 26.0837L100.22 10.5697Z" fill="#17262F"></path><path d="M105.11 5.5054C104.776 5.06443 104.669 4.3963 105.11 4.0756C105.293 3.88105 105.545 3.7653 105.812 3.75283C106.078 3.74036 106.34 3.83215 106.54 4.00879L119.528 16.5563C119.728 16.7315 119.851 16.9779 119.871 17.2427C119.891 17.5074 119.806 17.7695 119.635 17.9727C119.435 18.1719 119.171 18.2935 118.889 18.3155C118.608 18.3375 118.327 18.2586 118.099 18.093L105.11 5.5054Z" fill="#17262F"></path></g><defs><clipPath id="clip0_5678_16823"><rect width="140" height="63.6194" fill="white"></rect></clipPath></defs></svg>