<svg xmlns="http://www.w3.org/2000/svg" width="102" height="111" viewBox="0 0 102 111" fill="none"><g clip-path="url(#clip0_5678_15903)"><path d="M66.1 94.9999C66.0567 95.0008 66.0138 94.9924 65.9741 94.9751C65.9344 94.9578 65.8989 94.9322 65.87 94.8999C65.8392 94.8701 65.8146 94.8343 65.7979 94.7948C65.7811 94.7553 65.7725 94.7128 65.7725 94.6699C65.7725 94.627 65.7811 94.5845 65.7979 94.545C65.8146 94.5055 65.8392 94.4698 65.87 94.4399L77.29 82.9999L71.4 77.0999L60 88.4999C59.9373 88.5575 59.8552 88.5895 59.77 88.5895C59.6848 88.5895 59.6028 88.5575 59.54 88.4999C59.5092 88.4701 59.4846 88.4343 59.4679 88.3948C59.4511 88.3553 59.4425 88.3128 59.4425 88.2699C59.4425 88.227 59.4511 88.1845 59.4679 88.145C59.4846 88.1055 59.5092 88.0698 59.54 88.0399L71.17 76.4099C71.2328 76.3523 71.3148 76.3203 71.4 76.3203C71.4852 76.3203 71.5673 76.3523 71.63 76.4099L78 82.7599C78.0309 82.7898 78.0554 82.8255 78.0721 82.865C78.0889 82.9045 78.0975 82.947 78.0975 82.9899C78.0975 83.0328 78.0889 83.0753 78.0721 83.1148C78.0554 83.1543 78.0309 83.1901 78 83.2199L66.33 94.8699C66.3041 94.9077 66.27 94.9391 66.2301 94.9616C66.1902 94.9841 66.1457 94.9972 66.1 94.9999Z" fill="#17262F"></path><path d="M73.1 78.6601C73.0566 78.6617 73.0134 78.6536 72.9736 78.6363C72.9338 78.6189 72.8984 78.5929 72.87 78.5601C72.8391 78.5303 72.8146 78.4945 72.7979 78.455C72.7811 78.4155 72.7725 78.373 72.7725 78.3301C72.7725 78.2872 72.7811 78.2447 72.7979 78.2052C72.8146 78.1657 72.8391 78.1299 72.87 78.1001L79 72.1501C79.0277 72.1109 79.0637 72.0782 79.1054 72.0543C79.1471 72.0305 79.1935 72.016 79.2414 72.0119C79.2893 72.0079 79.3375 72.0143 79.3826 72.0308C79.4277 72.0473 79.4687 72.0734 79.5027 72.1074C79.5367 72.1414 79.5628 72.1824 79.5793 72.2275C79.5958 72.2726 79.6022 72.3208 79.5982 72.3687C79.5941 72.4166 79.5796 72.463 79.5558 72.5047C79.5319 72.5464 79.4992 72.5824 79.46 72.6101L73.35 78.6101C73.3142 78.6357 73.2735 78.6534 73.2304 78.662C73.1873 78.6706 73.1428 78.67 73.1 78.6601Z" fill="#17262F"></path><path d="M76.06 81.6199C76.0166 81.6215 75.9734 81.6134 75.9336 81.5961C75.8938 81.5788 75.8584 81.5527 75.83 81.5199C75.7992 81.4901 75.7746 81.4543 75.7579 81.4148C75.7411 81.3753 75.7325 81.3328 75.7325 81.2899C75.7325 81.247 75.7411 81.2045 75.7579 81.165C75.7746 81.1255 75.7992 81.0898 75.83 81.0599L81.93 75.0599C81.9598 75.0291 81.9956 75.0045 82.0351 74.9878C82.0746 74.971 82.1171 74.9624 82.16 74.9624C82.2029 74.9624 82.2454 74.971 82.2849 74.9878C82.3244 75.0045 82.3602 75.0291 82.39 75.0599C82.4499 75.1215 82.4834 75.204 82.4834 75.2899C82.4834 75.3758 82.4499 75.4583 82.39 75.5199L76.29 81.5199C76.2283 81.5805 76.1464 81.6161 76.06 81.6199Z" fill="#17262F"></path><path d="M52.19 42.0002C50.0006 42.0017 47.8222 41.6919 45.72 41.0802C45.6782 41.0698 45.6389 41.0511 45.6045 41.0251C45.5701 40.9992 45.5413 40.9665 45.5198 40.9292C45.4983 40.8918 45.4846 40.8505 45.4795 40.8077C45.4744 40.765 45.4779 40.7216 45.49 40.6802C45.5156 40.5965 45.5725 40.5258 45.6488 40.4829C45.7252 40.4401 45.8152 40.4284 45.9 40.4502C47.9426 41.0504 50.061 41.3535 52.19 41.3502C58.1503 41.3449 63.8646 38.9728 68.0764 34.7554C72.2881 30.538 74.6526 24.8206 74.65 18.8602C74.6451 17.9404 74.5816 17.0219 74.46 16.1102H29.93C29.8005 17.0212 29.7336 17.9401 29.73 18.8602C29.7252 21.1245 30.0623 23.3766 30.73 25.5402C30.7438 25.5802 30.7493 25.6226 30.7461 25.6648C30.743 25.707 30.7312 25.7482 30.7115 25.7856C30.6918 25.8231 30.6647 25.8562 30.6317 25.8827C30.5988 25.9093 30.5608 25.9289 30.52 25.9402C30.4378 25.9656 30.3489 25.9578 30.2723 25.9186C30.1957 25.8794 30.1375 25.8118 30.11 25.7302C29.0859 22.5012 28.8123 19.081 29.31 15.7302C29.3198 15.6525 29.3578 15.581 29.4168 15.5294C29.4757 15.4778 29.5516 15.4496 29.63 15.4502H74.73C74.8095 15.4493 74.8867 15.4771 74.9473 15.5286C75.0079 15.58 75.0479 15.6516 75.06 15.7302C75.2079 16.7637 75.2848 17.8062 75.29 18.8502C75.2927 24.9821 72.8614 30.8644 68.5301 35.205C64.1989 39.5456 58.3219 41.9896 52.19 42.0002Z" fill="#17262F"></path><path d="M52.81 34.8998C52.768 34.9012 52.7261 34.8942 52.6867 34.8794C52.6474 34.8645 52.6114 34.842 52.5807 34.8132C52.5501 34.7844 52.5254 34.7499 52.5081 34.7116C52.4908 34.6732 52.4813 34.6319 52.48 34.5898C52.4798 34.503 52.5129 34.4194 52.5724 34.3562C52.6319 34.293 52.7133 34.2549 52.8 34.2498C57.009 34.1093 60.9975 32.3333 63.9179 29.2989C66.8383 26.2646 68.4605 22.2112 68.44 17.9998C68.44 17.915 68.4737 17.8336 68.5337 17.7736C68.5937 17.7136 68.6751 17.6798 68.76 17.6798C68.8028 17.6785 68.8455 17.6858 68.8855 17.7013C68.9255 17.7168 68.962 17.7401 68.9927 17.77C69.0235 17.7998 69.048 17.8355 69.0647 17.875C69.0814 17.9145 69.09 17.957 69.09 17.9998C69.1106 22.3802 67.4226 26.596 64.3846 29.7516C61.3466 32.9073 57.1979 34.7541 52.82 34.8998H52.81Z" fill="#17262F"></path><path d="M35.73 20.2798C35.6501 20.2802 35.5729 20.2506 35.5137 20.1969C35.4545 20.1433 35.4175 20.0694 35.41 19.9898C35.3371 19.3256 35.3004 18.658 35.3 17.9898C35.3 17.9049 35.3337 17.8235 35.3937 17.7635C35.4537 17.7035 35.5351 17.6698 35.62 17.6698C35.6676 17.6607 35.7166 17.6625 35.7635 17.675C35.8103 17.6876 35.8536 17.7107 35.8902 17.7425C35.9268 17.7742 35.9557 17.8139 35.9747 17.8585C35.9937 17.9031 36.0024 17.9514 36 17.9998C35.9967 18.6348 36.0335 19.2694 36.11 19.8998C36.1184 19.9858 36.0928 20.0718 36.0386 20.1391C35.9843 20.2064 35.9058 20.2497 35.82 20.2598L35.73 20.2798Z" fill="#17262F"></path><path d="M52.6 110.59C51.4235 110.589 50.259 110.354 49.1741 109.899C48.0891 109.444 47.1054 108.778 46.28 107.94C46.235 107.876 46.214 107.799 46.2205 107.721C46.2271 107.644 46.261 107.571 46.316 107.516C46.3711 107.461 46.4438 107.427 46.5214 107.421C46.599 107.414 46.6764 107.435 46.74 107.48C47.5046 108.258 48.4165 108.877 49.4226 109.299C50.4287 109.722 51.5088 109.939 52.6 109.94C54.7919 109.942 56.8953 109.075 58.45 107.53L62.38 103.63C62.4436 103.585 62.521 103.564 62.5986 103.571C62.6761 103.577 62.7489 103.611 62.804 103.666C62.859 103.721 62.8928 103.794 62.8994 103.871C62.906 103.949 62.885 104.026 62.84 104.09L58.9 108C58.073 108.826 57.0905 109.481 56.0092 109.925C54.9278 110.37 53.7691 110.596 52.6 110.59Z" fill="#17262F"></path><path d="M64.82 103.88C64.7346 103.881 64.6521 103.848 64.59 103.79L60.45 99.6198C60.4194 99.5908 60.3951 99.5559 60.3785 99.5172C60.3618 99.4785 60.3532 99.4369 60.3532 99.3948C60.3532 99.3527 60.3618 99.311 60.3785 99.2723C60.3951 99.2336 60.4194 99.1987 60.45 99.1698C60.4798 99.1389 60.5156 99.1144 60.5551 99.0976C60.5946 99.0809 60.6371 99.0723 60.68 99.0723C60.7229 99.0723 60.7654 99.0809 60.8049 99.0976C60.8444 99.1144 60.8802 99.1389 60.91 99.1698L64.82 103.1L65.54 102.38V101.46C65.5413 101.37 65.5771 101.284 65.64 101.22C65.7 101.16 65.76 101.09 65.87 101.13H66.6V100.4C66.6028 100.313 66.6386 100.231 66.7 100.17C66.7305 100.14 66.7665 100.117 66.806 100.102C66.8454 100.086 66.8876 100.079 66.93 100.08H67.66V99.3498C67.6628 99.2632 67.6986 99.1809 67.76 99.1198C67.7894 99.0841 67.8259 99.0549 67.8672 99.0343C67.9086 99.0136 67.9538 99.0018 68 98.9998H68.27L55.31 85.9998V86.2698C55.3109 86.313 55.3024 86.356 55.2852 86.3957C55.2679 86.4354 55.2423 86.4709 55.21 86.4998C55.181 86.5285 55.1467 86.5512 55.109 86.5667C55.0712 86.5821 55.0308 86.59 54.99 86.5898H54.25V87.3198C54.2509 87.363 54.2424 87.406 54.2252 87.4457C54.2079 87.4854 54.1823 87.5209 54.15 87.5498C54.0925 87.6106 54.0136 87.6465 53.93 87.6498H53.2V88.3798C53.2016 88.4231 53.1934 88.4663 53.1761 88.5061C53.1588 88.5459 53.1328 88.5814 53.1 88.6098C53.0425 88.6706 52.9636 88.7065 52.88 88.7098H51.88C51.825 88.7236 51.7673 88.7225 51.7128 88.7067C51.6583 88.6909 51.6091 88.6609 51.57 88.6198L51.52 88.5598C51.4954 88.5118 51.4826 88.4587 51.4826 88.4048C51.4826 88.3509 51.4954 88.2977 51.52 88.2498C51.57 88.1398 51.67 88.0198 51.81 88.0598H52.54V87.3298C52.5384 87.2864 52.5465 87.2432 52.5638 87.2034C52.5812 87.1636 52.6072 87.1282 52.64 87.0998C52.6974 87.039 52.7764 87.0031 52.86 86.9998H53.59V86.2698C53.589 86.2274 53.5965 86.1852 53.6119 86.1457C53.6274 86.1062 53.6505 86.0702 53.68 86.0398C53.7427 85.9807 53.824 85.9453 53.91 85.9398H54.64V85.2098C54.6406 85.1457 54.6599 85.0833 54.6954 85.03C54.7309 84.9768 54.7811 84.935 54.84 84.9098C54.8978 84.8807 54.9636 84.8719 55.027 84.8845C55.0905 84.8972 55.1478 84.9307 55.19 84.9798L69.19 99.1398C69.2348 99.1859 69.2652 99.2441 69.2774 99.3072C69.2896 99.3704 69.2831 99.4357 69.2587 99.4952C69.2342 99.5547 69.1929 99.6058 69.1399 99.6421C69.0868 99.6784 69.0243 99.6985 68.96 99.6998H68.24V100.43C68.2382 100.517 68.2023 100.599 68.14 100.66C68.08 100.72 68.02 100.79 67.9 100.76H67.18V101.49C67.1836 101.532 67.1773 101.575 67.1617 101.615C67.1461 101.655 67.1216 101.691 67.09 101.72C67.0638 101.758 67.0273 101.787 66.9847 101.805C66.9421 101.823 66.8954 101.828 66.85 101.82H66.13V102.55C66.1361 102.625 66.1148 102.699 66.07 102.76L65.07 103.76C65.0387 103.796 65.0004 103.825 64.9574 103.846C64.9144 103.866 64.8676 103.878 64.82 103.88Z" fill="#17262F"></path><path d="M25 58.0699C24.9276 58.0685 24.8575 58.0439 24.8 57.9999C24.7402 57.9383 24.7067 57.8558 24.7067 57.7699C24.7067 57.684 24.7402 57.6015 24.8 57.5399L59.53 26.1799C60.6418 25.1452 61.5033 23.8708 62.049 22.4534C62.5948 21.0361 62.8106 19.5131 62.68 17.9999C62.6743 17.9155 62.7012 17.8321 62.7552 17.767C62.8091 17.7019 62.886 17.66 62.97 17.6499C63.0129 17.6458 63.0561 17.6504 63.0971 17.6634C63.1381 17.6763 63.1761 17.6975 63.2088 17.7255C63.2415 17.7535 63.2682 17.7878 63.2873 17.8264C63.3064 17.8649 63.3175 17.9069 63.32 17.9499C63.461 19.5582 63.2354 21.1776 62.6604 22.6862C62.0854 24.1948 61.1758 25.5534 60 26.6599L25.26 57.9999C25.2247 58.0304 25.183 58.0525 25.138 58.0646C25.093 58.0767 25.0458 58.0785 25 58.0699Z" fill="#17262F"></path><path d="M12.08 48.5502C12 48.5481 11.9228 48.52 11.86 48.4702C11.8002 48.4086 11.7667 48.3261 11.7667 48.2402C11.7667 48.1543 11.8002 48.0718 11.86 48.0102L39.16 17.7402C39.2215 17.692 39.2982 17.6672 39.3763 17.6702C39.4545 17.6732 39.529 17.7038 39.5866 17.7567C39.6443 17.8095 39.6813 17.8811 39.691 17.9586C39.7008 18.0362 39.6827 18.1147 39.64 18.1802L12.32 48.4502C12.2896 48.4833 12.2524 48.5093 12.211 48.5266C12.1696 48.5439 12.1249 48.5519 12.08 48.5502Z" fill="#17262F"></path><path d="M52.22 27.4302C51.0321 27.43 49.8584 27.1714 48.7804 26.6723C47.7024 26.1732 46.7459 25.4455 45.9771 24.5398C45.2084 23.6341 44.646 22.572 44.3287 21.4272C44.0115 20.2824 43.9471 19.0823 44.14 17.9102C44.1447 17.8673 44.1583 17.8259 44.1799 17.7886C44.2015 17.7513 44.2306 17.7189 44.2654 17.6935C44.3003 17.6681 44.34 17.6502 44.3821 17.6411C44.4242 17.6319 44.4678 17.6316 44.51 17.6402C44.5523 17.6462 44.5929 17.6607 44.6294 17.6827C44.666 17.7047 44.6978 17.7338 44.723 17.7683C44.7481 17.8028 44.7661 17.8419 44.7759 17.8835C44.7857 17.925 44.7871 17.9681 44.78 18.0102C44.6074 19.0875 44.6706 20.1895 44.9653 21.24C45.26 22.2905 45.7792 23.2646 46.4871 24.0949C47.1949 24.9252 48.0745 25.592 49.0652 26.0493C50.0559 26.5065 51.1339 26.7433 52.225 26.7433C53.3161 26.7433 54.3942 26.5065 55.3849 26.0493C56.3755 25.592 57.2551 24.9252 57.963 24.0949C58.6708 23.2646 59.19 22.2905 59.4847 21.24C59.7795 20.1895 59.8427 19.0875 59.67 18.0102C59.6553 17.9254 59.6742 17.8383 59.7228 17.7673C59.7714 17.6964 59.8457 17.6471 59.93 17.6302C60.0158 17.6183 60.103 17.6396 60.1736 17.6898C60.2442 17.74 60.293 17.8152 60.31 17.9002C60.512 19.1819 60.4079 20.4933 60.0065 21.7272C59.605 22.9611 58.9175 24.0826 58 25.0002C57.2447 25.7668 56.3451 26.3762 55.3531 26.7932C54.361 27.2103 53.2962 27.4268 52.22 27.4302Z" fill="#17262F"></path><path d="M52.22 22.0502C51.849 22.0529 51.4811 21.9818 51.1377 21.841C50.7944 21.7002 50.4824 21.4926 50.22 21.2302C49.7771 20.7857 49.4945 20.2065 49.4166 19.5838C49.3388 18.9611 49.4701 18.3302 49.79 17.7902C49.8399 17.7269 49.9112 17.6841 49.9905 17.6697C50.0698 17.6554 50.1516 17.6705 50.2205 17.7124C50.2894 17.7542 50.3406 17.8198 50.3645 17.8968C50.3883 17.9737 50.3832 18.0568 50.35 18.1302C50.1042 18.5445 50.0032 19.0288 50.063 19.5067C50.1227 19.9847 50.3398 20.4292 50.68 20.7702C51.0932 21.1657 51.6431 21.3864 52.215 21.3864C52.787 21.3864 53.3368 21.1657 53.75 20.7702C54.0887 20.4283 54.3048 19.984 54.3645 19.5064C54.4242 19.0289 54.3241 18.545 54.08 18.1302C54.0487 18.0936 54.0259 18.0506 54.013 18.0041C54.0001 17.9577 53.9976 17.909 54.0055 17.8615C54.0134 17.814 54.0317 17.7688 54.059 17.7291C54.0863 17.6893 54.1219 17.6561 54.1634 17.6316C54.2049 17.6072 54.2513 17.5921 54.2993 17.5875C54.3472 17.5828 54.3956 17.5888 54.441 17.6048C54.4865 17.6209 54.5278 17.6467 54.5622 17.6805C54.5966 17.7142 54.6231 17.7551 54.64 17.8002C54.8953 18.228 55.0323 18.7159 55.037 19.2141C55.0416 19.7122 54.9137 20.2026 54.6665 20.6351C54.4192 21.0675 54.0614 21.4265 53.6298 21.6751C53.1982 21.9238 52.7082 22.0533 52.21 22.0502H52.22Z" fill="#17262F"></path><path d="M52.56 109.51C50.6512 109.508 48.8117 108.795 47.4 107.51L3.4 67.8098C1.81905 66.329 0.723296 64.4044 0.256852 62.2891C-0.209591 60.1737 -0.0248829 57.9668 0.786685 55.9584C1.59825 53.9501 2.99868 52.2344 4.80377 51.037C6.60887 49.8396 8.73412 49.2165 10.9 49.2498C12.3398 49.2666 13.7612 49.5757 15.078 50.1585C16.3947 50.7412 17.5794 51.5854 18.56 52.6398L58.28 96.6398C59.2784 97.7457 59.9346 99.1174 60.1689 100.589C60.4032 102.06 60.2057 103.568 59.6002 104.929C58.9947 106.29 58.0073 107.447 56.7576 108.258C55.508 109.069 54.0499 109.501 52.56 109.5V109.51ZM10.72 49.8998C8.69837 49.8984 6.72311 50.5054 5.05125 51.642C3.37938 52.7786 2.08833 54.3921 1.34608 56.2726C0.603829 58.153 0.444753 60.2133 0.889551 62.1854C1.33435 64.1575 2.36242 65.95 3.84 67.3298L47.84 107.04C49.1661 108.366 50.9646 109.111 52.84 109.111C54.7154 109.111 56.5139 108.366 57.84 107.04C59.1661 105.714 59.9111 103.915 59.9111 102.04C59.9111 100.164 59.1661 98.3659 57.84 97.0398L18.12 53.0398C17.1986 52.0515 16.0864 51.2601 14.8506 50.7136C13.6148 50.167 12.2811 49.8766 10.93 49.8598L10.72 49.8998Z" fill="#17262F"></path><path d="M11.14 68.5699C9.24516 68.5705 7.40876 67.914 5.9437 66.7124C4.47863 65.5107 3.47556 63.8382 3.10539 61.9799C2.73522 60.1216 3.02086 58.1924 3.91364 56.5211C4.80642 54.8498 6.25109 53.5397 8.00151 52.8142C9.75192 52.0886 11.6998 51.9924 13.5131 52.542C15.3265 53.0916 16.8932 54.253 17.9463 55.8283C18.9993 57.4035 19.4736 59.2952 19.2883 61.1809C19.103 63.0667 18.2696 64.8298 16.93 66.1699C16.1714 66.9328 15.2691 67.5376 14.2752 67.9496C13.2814 68.3615 12.2158 68.5724 11.14 68.5699ZM11.14 52.8399C9.39553 52.8392 7.70479 53.4434 6.35586 54.5495C5.00693 55.6556 4.08327 57.1953 3.74228 58.9061C3.40128 60.6169 3.66405 62.393 4.48581 63.9318C5.30756 65.4706 6.63746 66.6768 8.24889 67.345C9.86032 68.0131 11.6536 68.1018 13.3231 67.596C14.9926 67.0902 16.4351 66.0211 17.4047 64.571C18.3744 63.1208 18.8112 61.3794 18.6407 59.6432C18.4703 57.9071 17.7031 56.2838 16.47 55.0499C15.7718 54.3475 14.9412 53.7904 14.0263 53.4111C13.1115 53.0318 12.1304 52.8376 11.14 52.8399Z" fill="#17262F"></path><path d="M52.57 106.39C51.3588 106.388 50.1979 105.905 49.3414 105.049C48.485 104.192 48.0026 103.031 48 101.82C48.0003 100.605 48.4822 99.4403 49.34 98.5802C50.2012 97.7283 51.3636 97.2505 52.575 97.2505C53.7864 97.2505 54.9488 97.7283 55.81 98.5802C56.6643 99.4401 57.1438 100.603 57.1438 101.815C57.1438 103.027 56.6643 104.19 55.81 105.05C55.3861 105.478 54.8812 105.816 54.3249 106.046C53.7686 106.276 53.172 106.393 52.57 106.39ZM52.57 97.9002C51.6627 97.9133 50.788 98.2408 50.0952 98.8268C49.4024 99.4128 48.9343 100.221 48.7709 101.114C48.6074 102.006 48.7586 102.928 49.1987 103.721C49.6389 104.515 50.3407 105.131 51.1844 105.465C52.0282 105.799 52.9616 105.829 53.8256 105.552C54.6895 105.274 55.4304 104.706 55.9219 103.943C56.4134 103.18 56.625 102.271 56.5207 101.369C56.4164 100.468 56.0027 99.6306 55.35 99.0002C54.9817 98.643 54.5466 98.362 54.0696 98.1732C53.5926 97.9845 53.083 97.8917 52.57 97.9002Z" fill="#17262F"></path><path d="M11.14 64.0802C10.5306 64.0822 9.93016 63.9337 9.39198 63.6479C8.85379 63.3621 8.39453 62.9478 8.055 62.4418C7.71546 61.9357 7.50616 61.3537 7.44569 60.7473C7.38522 60.141 7.47545 59.5291 7.70837 58.966C7.94129 58.4028 8.30968 57.906 8.78082 57.5195C9.25196 57.133 9.81126 56.8689 10.409 56.7506C11.0068 56.6323 11.6246 56.6634 12.2074 56.8413C12.7902 57.0192 13.3201 57.3382 13.75 57.7702C14.0966 58.1105 14.3717 58.5167 14.5589 58.965C14.7461 59.4132 14.8416 59.8944 14.84 60.3802C14.84 61.3615 14.4502 62.3026 13.7563 62.9964C13.0624 63.6903 12.1213 64.0802 11.14 64.0802ZM11.14 57.3302C10.5396 57.3375 9.95464 57.5212 9.45795 57.8585C8.96125 58.1959 8.57477 58.6719 8.34664 59.2273C8.11851 59.7827 8.05882 60.3929 8.17499 60.982C8.29117 61.5711 8.57808 62.113 8.99998 62.5402C9.58045 63.0946 10.3523 63.404 11.155 63.404C11.9577 63.404 12.7295 63.0946 13.31 62.5402C13.5988 62.2605 13.8284 61.9255 13.9852 61.5553C14.1421 61.1851 14.2229 60.7872 14.2229 60.3852C14.2229 59.9831 14.1421 59.5852 13.9852 59.215C13.8284 58.8448 13.5988 58.5099 13.31 58.2302C13.0274 57.9419 12.6896 57.7136 12.3167 57.5589C11.9439 57.4043 11.5436 57.3265 11.14 57.3302Z" fill="#17262F"></path><path d="M52.5 103.57C52.014 103.57 51.5474 103.38 51.2 103.04C51.0282 102.87 50.8919 102.667 50.7989 102.444C50.7059 102.221 50.658 101.982 50.658 101.74C50.658 101.498 50.7059 101.259 50.7989 101.036C50.8919 100.813 51.0282 100.61 51.2 100.44C51.5494 100.108 52.013 99.9229 52.495 99.9229C52.977 99.9229 53.4406 100.108 53.79 100.44C54.0477 100.695 54.2238 101.022 54.2957 101.377C54.3676 101.733 54.3322 102.102 54.1939 102.437C54.0557 102.773 53.8208 103.06 53.5192 103.261C53.2176 103.463 52.8628 103.57 52.5 103.57ZM52.5 100.57C52.3445 100.569 52.1902 100.598 52.046 100.656C51.9019 100.714 51.7707 100.801 51.66 100.91C51.4401 101.134 51.3169 101.436 51.3169 101.75C51.3169 102.064 51.4401 102.366 51.66 102.59C51.8862 102.802 52.1847 102.921 52.495 102.921C52.8052 102.921 53.1038 102.802 53.33 102.59C53.5499 102.366 53.673 102.064 53.673 101.75C53.673 101.436 53.5499 101.134 53.33 100.91C53.2216 100.8 53.0925 100.712 52.95 100.652C52.8075 100.592 52.6546 100.561 52.5 100.56V100.57Z" fill="#17262F"></path><path d="M89.59 16.1101H14.79C13.1518 16.1075 11.5814 15.4555 10.423 14.2971C9.26458 13.1387 8.61263 11.5683 8.60999 9.9301C8.60999 9.84258 8.64475 9.75864 8.70664 9.69675C8.76853 9.63486 8.85246 9.6001 8.93999 9.6001C9.02751 9.6001 9.11144 9.63486 9.17333 9.69675C9.23522 9.75864 9.26999 9.84258 9.26999 9.9301C9.26998 11.395 9.85123 12.8001 10.8861 13.8369C11.9211 14.8737 13.3251 15.4574 14.79 15.4601H89.59C91.0558 15.4575 92.4609 14.874 93.4974 13.8375C94.5339 12.801 95.1173 11.3959 95.12 9.9301C95.12 9.84523 95.1537 9.76383 95.2137 9.70382C95.2737 9.64381 95.3551 9.6101 95.44 9.6101C95.4828 9.60876 95.5255 9.61604 95.5655 9.63152C95.6055 9.647 95.642 9.67036 95.6728 9.70021C95.7035 9.73006 95.728 9.76579 95.7447 9.80528C95.7614 9.84477 95.77 9.88722 95.77 9.9301C95.77 10.7417 95.6101 11.5453 95.2996 12.2951C94.989 13.0449 94.5338 13.7262 93.9599 14.3C93.386 14.8739 92.7048 15.3291 91.955 15.6397C91.2052 15.9502 90.4016 16.1101 89.59 16.1101Z" fill="#17262F"></path><path d="M101.15 8.76H3.23001C3.18713 8.76002 3.14468 8.75142 3.10519 8.73472C3.0657 8.71802 3.02997 8.69355 3.00012 8.66277C2.97027 8.63198 2.94692 8.59552 2.93143 8.55553C2.91595 8.51555 2.90867 8.47286 2.91001 8.43V0.33C2.90867 0.287143 2.91595 0.244454 2.93143 0.204468C2.94692 0.164482 2.97027 0.128015 3.00012 0.0972333C3.02997 0.0664513 3.0657 0.041982 3.10519 0.0252788C3.14468 0.00857553 3.18713 -2.09036e-05 3.23001 3.817e-08H101.15C101.238 3.817e-08 101.321 0.0347678 101.383 0.0966548C101.445 0.158542 101.48 0.242479 101.48 0.33V8.43C101.48 8.51752 101.445 8.60146 101.383 8.66335C101.321 8.72523 101.238 8.76 101.15 8.76ZM3.56001 8.11H100.83V0.65H3.56001V8.11Z" fill="#17262F"></path><path d="M101.15 4.6998H3.23001C3.14514 4.6998 3.06374 4.66609 3.00373 4.60608C2.94372 4.54607 2.91001 4.46467 2.91001 4.3798C2.90867 4.33695 2.91595 4.29426 2.93143 4.25427C2.94692 4.21429 2.97027 4.17782 3.00012 4.14704C3.02997 4.11626 3.0657 4.09179 3.10519 4.07508C3.14468 4.05838 3.18713 4.04978 3.23001 4.0498H101.15C101.238 4.0498 101.321 4.08457 101.383 4.14646C101.445 4.20835 101.48 4.29228 101.48 4.3798C101.48 4.42268 101.471 4.46513 101.455 4.50462C101.438 4.54411 101.414 4.57984 101.383 4.60969C101.352 4.63954 101.316 4.6629 101.276 4.67838C101.236 4.69386 101.193 4.70114 101.15 4.6998Z" fill="#17262F"></path><path d="M85.59 66C85.5005 65.9968 85.4153 65.9612 85.35 65.9C85.2901 65.8384 85.2566 65.7559 85.2566 65.67C85.2566 65.5841 85.2901 65.5016 85.35 65.44L90.17 60.65L87.9 58.39L83.08 63.18C83.0502 63.2108 83.0144 63.2353 82.9749 63.2521C82.9354 63.2689 82.8929 63.2775 82.85 63.2775C82.8071 63.2775 82.7646 63.2689 82.7251 63.2521C82.6856 63.2353 82.6498 63.2108 82.62 63.18C82.5624 63.1172 82.5304 63.0352 82.5304 62.95C82.5304 62.8648 82.5624 62.7827 82.62 62.72L87.68 57.72C87.7427 57.6624 87.8248 57.6304 87.91 57.6304C87.9952 57.6304 88.0773 57.6624 88.14 57.72L90.86 60.45C90.8895 60.4804 90.9126 60.5165 90.9281 60.5559C90.9435 60.5954 90.951 60.6376 90.95 60.68C90.9489 60.765 90.9169 60.8468 90.86 60.91L85.8 65.91C85.7733 65.9389 85.7408 65.9619 85.7046 65.9774C85.6684 65.9929 85.6294 66.0006 85.59 66Z" fill="#17262F"></path><path d="M91.5 71.9998C91.4576 72.0008 91.4155 71.9934 91.376 71.9779C91.3365 71.9625 91.3005 71.9393 91.27 71.9098C91.2392 71.88 91.2146 71.8442 91.1979 71.8047C91.1811 71.7652 91.1725 71.7227 91.1725 71.6798C91.1725 71.6369 91.1811 71.5944 91.1979 71.5549C91.2146 71.5154 91.2392 71.4797 91.27 71.4498L96.11 66.5798L93.84 64.3198L89 69.2198C88.9722 69.259 88.9363 69.2917 88.8946 69.3156C88.8529 69.3395 88.8064 69.3539 88.7586 69.358C88.7107 69.3621 88.6625 69.3556 88.6174 69.3391C88.5723 69.3227 88.5313 69.2965 88.4973 69.2625C88.4633 69.2286 88.4372 69.1876 88.4207 69.1424C88.4042 69.0973 88.3978 69.0491 88.4018 69.0013C88.4059 68.9534 88.4204 68.907 88.4442 68.8653C88.4681 68.8236 88.5008 68.7876 88.54 68.7598L93.6 63.6698C93.6611 63.6084 93.7434 63.5726 93.83 63.5698C93.9168 63.5716 93.9995 63.6075 94.06 63.6698L96.79 66.3898C96.8476 66.4526 96.8796 66.5346 96.8796 66.6198C96.8796 66.705 96.8476 66.7871 96.79 66.8498L91.73 71.9998C91.6555 72.0257 91.5745 72.0257 91.5 71.9998Z" fill="#17262F"></path><path d="M90 58.8002C89.9146 58.8011 89.8321 58.7688 89.77 58.7102C89.7392 58.6804 89.7146 58.6446 89.6979 58.6051C89.6811 58.5656 89.6725 58.5231 89.6725 58.4802C89.6725 58.4373 89.6811 58.3948 89.6979 58.3553C89.7146 58.3158 89.7392 58.28 89.77 58.2502L91.86 56.1602C91.8986 56.1215 91.9463 56.0931 91.9987 56.0774C92.051 56.0616 92.1065 56.0592 92.16 56.0702L93.1 56.2902L91.6 54.7902L88.2 58.2002C88.1364 58.2452 88.059 58.2662 87.9814 58.2597C87.9039 58.2531 87.8311 58.2192 87.776 58.1642C87.721 58.1091 87.6872 58.0364 87.6806 57.9588C87.674 57.8812 87.695 57.8038 87.74 57.7402L91.37 54.1102C91.3999 54.0794 91.4356 54.0548 91.4751 54.0381C91.5146 54.0213 91.5571 54.0127 91.6 54.0127C91.6429 54.0127 91.6854 54.0213 91.7249 54.0381C91.7644 54.0548 91.8002 54.0794 91.83 54.1102L93.98 56.2502C94.0095 56.2807 94.0326 56.3167 94.0481 56.3562C94.0635 56.3957 94.071 56.4378 94.07 56.4802C94.0709 56.5656 94.0387 56.6481 93.98 56.7102L93.73 56.9502C93.6914 56.9889 93.6437 57.0174 93.5914 57.0331C93.539 57.0488 93.4836 57.0512 93.43 57.0402L92.19 56.7502L90.19 58.7502C90.1332 58.7858 90.067 58.8032 90 58.8002Z" fill="#17262F"></path><path d="M96.56 67.0002C96.4965 66.9971 96.4353 66.9757 96.3837 66.9386C96.3321 66.9016 96.2923 66.8504 96.2691 66.7913C96.2459 66.7321 96.2402 66.6676 96.2528 66.6053C96.2654 66.543 96.2956 66.4857 96.34 66.4402L99.74 63.0002L98.24 61.5002L98.46 62.5002C98.4753 62.5528 98.4759 62.6085 98.4618 62.6614C98.4477 62.7142 98.4194 62.7623 98.38 62.8002L96.31 64.8002C96.2464 64.8452 96.169 64.8662 96.0914 64.8597C96.0138 64.8531 95.9411 64.8192 95.886 64.7642C95.831 64.7091 95.7971 64.6364 95.7906 64.5588C95.784 64.4812 95.805 64.4038 95.85 64.3402L97.79 62.4002L97.5 61.1602C97.4859 61.1068 97.4869 61.0505 97.5027 60.9975C97.5186 60.9446 97.5488 60.8971 97.59 60.8602L97.83 60.6102C97.8598 60.5794 97.8956 60.5548 97.9351 60.5381C97.9746 60.5213 98.0171 60.5127 98.06 60.5127C98.1029 60.5127 98.1454 60.5213 98.1849 60.5381C98.2244 60.5548 98.2602 60.5794 98.29 60.6102L100.43 62.7502C100.491 62.8113 100.527 62.8936 100.53 62.9802C100.528 63.067 100.492 63.1497 100.43 63.2102L96.79 66.8502C96.7647 66.8903 96.731 66.9244 96.6913 66.9503C96.6517 66.9762 96.6069 66.9932 96.56 67.0002Z" fill="#17262F"></path><path d="M86 75.27C85.2575 75.2718 84.5219 75.127 83.8354 74.8438C83.149 74.5607 82.5253 74.1448 82 73.62L80.92 72.5C80.3927 71.9758 79.9742 71.3526 79.6887 70.6661C79.4031 69.9797 79.2561 69.2435 79.2561 68.5C79.2561 67.7565 79.4031 67.0203 79.6887 66.3339C79.9742 65.6474 80.3927 65.0242 80.92 64.5L81.78 63.64C81.8098 63.6091 81.8456 63.5846 81.8851 63.5679C81.9246 63.5511 81.9671 63.5425 82.01 63.5425C82.0529 63.5425 82.0954 63.5511 82.1349 63.5679C82.1744 63.5846 82.2101 63.6091 82.24 63.64L90.89 72.29C90.9476 72.3527 90.9796 72.4348 90.9796 72.52C90.9796 72.6052 90.9476 72.6873 90.89 72.75L90.02 73.61C89.4938 74.1399 88.8673 74.5596 88.1771 74.8446C87.4868 75.1297 86.7467 75.2743 86 75.27ZM82 64.34L81.36 64.97C80.4226 65.9076 79.896 67.1792 79.896 68.505C79.896 69.8308 80.4226 71.1024 81.36 72.04L82.48 73.16C83.4176 74.0974 84.6892 74.6239 86.015 74.6239C87.3408 74.6239 88.6123 74.0974 89.55 73.16L90.19 72.53L82 64.34Z" fill="#17262F"></path><path d="M65.88 88.0002C65.7946 88.0011 65.7121 87.9688 65.65 87.9102C65.6192 87.8803 65.5946 87.8446 65.5779 87.8051C65.5611 87.7656 65.5525 87.7231 65.5525 87.6802C65.5525 87.6372 65.5611 87.5948 65.5779 87.5552C65.5946 87.5157 65.6192 87.48 65.65 87.4502L73.91 79.1902C73.9378 79.1509 73.9737 79.1182 74.0154 79.0944C74.0572 79.0705 74.1036 79.056 74.1514 79.052C74.1993 79.0479 74.2475 79.0543 74.2926 79.0708C74.3378 79.0873 74.3787 79.1135 74.4127 79.1474C74.4467 79.1814 74.4728 79.2224 74.4893 79.2675C74.5058 79.3127 74.5123 79.3608 74.5082 79.4087C74.5041 79.4566 74.4896 79.503 74.4658 79.5447C74.4419 79.5864 74.4092 79.6224 74.37 79.6502L66.11 87.9102C66.0468 87.9671 65.9651 87.9991 65.88 88.0002Z" fill="#17262F"></path><path d="M17 48.5501C16.9197 48.5495 16.842 48.5212 16.78 48.4701C16.7201 48.4085 16.6866 48.326 16.6866 48.2401C16.6866 48.1542 16.7201 48.0717 16.78 48.0101L41.31 21.5101C41.3398 21.4793 41.3756 21.4547 41.4151 21.438C41.4546 21.4212 41.4971 21.4126 41.54 21.4126C41.5829 21.4126 41.6254 21.4212 41.6649 21.438C41.7044 21.4547 41.7402 21.4793 41.77 21.5101C41.8299 21.5717 41.8634 21.6542 41.8634 21.7401C41.8634 21.826 41.8299 21.9085 41.77 21.9701L17.28 48.4501C17.2444 48.4875 17.2005 48.5161 17.1519 48.5334C17.1033 48.5508 17.0512 48.5565 17 48.5501Z" fill="#17262F"></path><path d="M51.06 95.0001C51.0145 94.9999 50.9695 94.99 50.9282 94.971C50.8868 94.952 50.8499 94.9245 50.82 94.8901L22.35 63.4501C22.2908 63.3902 22.2576 63.3093 22.2576 63.2251C22.2576 63.1409 22.2908 63.06 22.35 63.0001C22.3791 62.9679 22.4146 62.9422 22.4542 62.9246C22.4938 62.907 22.5367 62.8979 22.58 62.8979C22.6234 62.8979 22.6662 62.907 22.7059 62.9246C22.7455 62.9422 22.781 62.9679 22.81 63.0001L51.3 94.4201C51.3422 94.4672 51.3699 94.5254 51.3799 94.5878C51.39 94.6502 51.3818 94.7142 51.3566 94.7721C51.3313 94.8301 51.2899 94.8795 51.2373 94.9146C51.1848 94.9497 51.1232 94.969 51.06 94.9701V95.0001Z" fill="#17262F"></path></g><defs><clipPath id="clip0_5678_15903"><rect width="101.48" height="110.59" fill="white"></rect></clipPath></defs></svg>