<svg xmlns="http://www.w3.org/2000/svg" width="66" height="95" viewBox="0 0 66 95" fill="none"><g clip-path="url(#clip0_5678_33286)"><path d="M45.1601 51.0617L40.4405 50.4308C40.0394 50.3768 39.6324 50.469 39.2936 50.6904C38.9549 50.9118 38.7072 51.2477 38.5958 51.6367L37.4298 55.7015C37.3675 55.9144 37.3478 56.1375 37.3719 56.358C37.3961 56.5785 37.4635 56.7921 37.5703 56.9865C37.6771 57.1809 37.8213 57.3523 37.9945 57.4908C38.1678 57.6293 38.3667 57.7323 38.5798 57.7938C38.7336 57.8347 38.8918 57.8561 39.0509 57.8577C39.4128 57.8515 39.7632 57.7295 40.0506 57.5096C40.338 57.2897 40.5475 56.9835 40.6481 56.6359L40.8717 55.8373C41.7658 57.6685 42.118 59.7171 41.8869 61.7418C41.6557 63.7665 40.8508 65.683 39.567 67.2655C38.2831 68.8481 36.5738 70.0309 34.6403 70.6745C32.7068 71.3182 30.6296 71.396 28.6533 70.8987C28.4333 70.8289 28.2013 70.8051 27.9717 70.8287C27.7421 70.8523 27.5198 70.9229 27.3186 71.036C27.1174 71.149 26.9415 71.3022 26.802 71.4861C26.6624 71.6699 26.5621 71.8805 26.5073 72.1047C26.4525 72.3289 26.4443 72.562 26.4833 72.7895C26.5223 73.017 26.6076 73.234 26.7339 73.4272C26.8603 73.6204 27.0249 73.7855 27.2177 73.9124C27.4105 74.0393 27.6274 74.1252 27.8547 74.1649C30.4598 74.8226 33.1986 74.7209 35.7476 73.8715C38.2966 73.0222 40.5492 71.4609 42.2391 69.3721C43.9289 67.2832 44.9855 64.7543 45.2837 62.0841C45.582 59.414 45.1096 56.7142 43.9223 54.304L44.7209 54.4158C45.1646 54.4751 45.6137 54.3557 45.9694 54.0839C46.3251 53.8121 46.5583 53.4101 46.6176 52.9664C46.6769 52.5226 46.5575 52.0735 46.2857 51.7179C46.0138 51.3622 45.6119 51.129 45.1681 51.0697L45.1601 51.0617Z" fill="#17262F"></path><path d="M36.1281 22.7278C35.5292 22.6 35.2177 22.5521 34.8983 22.5122L34.2914 22.4163C34.0716 22.3712 33.8451 22.3703 33.625 22.4139C33.4049 22.4574 33.1957 22.5445 33.0098 22.67C32.8238 22.7954 32.6647 22.9568 32.5419 23.1445C32.4191 23.3323 32.3351 23.5427 32.2947 23.7633C32.2542 23.984 32.2583 24.2105 32.3066 24.4296C32.3549 24.6487 32.4465 24.8559 32.5759 25.0391C32.7053 25.2224 32.8701 25.3779 33.0604 25.4966C33.2508 25.6153 33.4629 25.6948 33.6844 25.7305C34.0039 25.7944 34.2275 25.8263 34.483 25.8503C34.7386 25.8742 34.9781 25.9221 35.4573 26.026C46.0306 28.286 47.3962 30.1067 48.6021 34.7306C50.1513 40.6721 54.1922 46.0945 55.7893 48.1548C56.2525 48.7378 56.3324 50.3589 55.5737 52.3394C54.8151 54.3199 53.0981 56.6278 51.1096 56.9632C50.6929 57.0343 50.3182 57.2593 50.0596 57.5937C49.8011 57.9281 49.6777 58.3474 49.7139 58.7686C49.7501 59.1897 49.9432 59.5818 50.255 59.8672C50.5668 60.1526 50.9744 60.3104 51.3971 60.3093C51.4928 60.3172 51.5889 60.3172 51.6846 60.3093C55.1744 59.7104 57.5782 56.4362 58.6722 53.5613C59.8222 50.5506 59.7024 47.7475 58.3688 46.0705C56.8515 44.1858 53.1859 39.2186 51.8044 33.9C50.1194 27.3197 46.8851 25.0277 36.1281 22.7278Z" fill="#17262F"></path><path d="M35.9844 86.8145C36.2354 86.4439 36.3288 85.9887 36.2442 85.5492C36.1596 85.1096 35.9038 84.7217 35.5332 84.4707C35.1625 84.2197 34.7074 84.1262 34.2678 84.2108C33.8282 84.2955 33.4403 84.5512 33.1893 84.9219C31.3635 87.2037 28.7631 88.7355 25.8822 89.2263C14.5742 91.8377 7.1873 91.087 4.56793 87.102C1.30171 82.1747 5.50228 73.2785 7.32306 70.7709C7.52023 70.4986 7.63099 70.1732 7.64095 69.8372C7.65092 69.5011 7.55964 69.1698 7.37896 68.8862L7.85812 69.2855C8.23345 69.597 8.6008 69.9004 8.93621 70.1959C9.27191 70.4935 9.71207 70.6455 10.1599 70.6186C10.6077 70.5916 11.0264 70.3879 11.324 70.0522C11.6216 69.7165 11.7736 69.2763 11.7466 68.8285C11.7197 68.3807 11.5159 67.962 11.1802 67.6644C10.8209 67.345 10.4296 67.0255 10.0303 66.6901C7.8798 65.0837 6.0943 63.0396 4.79154 60.6927C2.12426 55.6616 10.6452 49.792 13.8475 47.8115C13.9913 47.9952 14.135 48.1709 14.2548 48.3545C14.4106 48.5788 14.6184 48.7619 14.8604 48.8885C15.1023 49.015 15.3713 49.0812 15.6443 49.0813C15.9876 49.0826 16.3227 48.9765 16.6027 48.7778C16.7852 48.653 16.9412 48.4932 17.0617 48.3078C17.1823 48.1225 17.265 47.9151 17.3051 47.6976C17.3451 47.4801 17.3418 47.2569 17.2953 47.0407C17.2487 46.8245 17.1599 46.6197 17.0339 46.4379C16.5783 45.7901 16.0793 45.1737 15.5405 44.5932L15.4687 44.5054C14.7788 43.764 14.0369 43.0728 13.2486 42.437C12.3701 41.7263 12.0347 40.5843 12.2583 39.059C12.8253 35.1699 16.7624 30.2186 20.5077 28.6773C20.6972 28.5933 20.8723 28.4801 21.0268 28.3419C21.1386 28.2381 23.8299 25.7865 29.4679 25.5229C29.9121 25.4961 30.328 25.2963 30.6266 24.9664C30.9252 24.6365 31.0826 24.2027 31.0651 23.758C31.0479 23.4906 30.9686 23.2309 30.8335 22.9994C30.8335 22.9435 30.8335 22.8796 30.7856 22.8157C30.3623 21.6019 26.4812 10.9966 19.5095 10.8369C19.1901 10.8369 19.1342 10.7411 19.1022 10.6692C18.9835 10.1711 18.9764 9.65299 19.0813 9.15184C19.1862 8.65069 19.4006 8.17893 19.7092 7.77032C20.0072 7.21984 20.4441 6.75696 20.9765 6.42772C21.5089 6.09848 22.1182 5.91435 22.7438 5.89364C27.0242 6.04537 29.1804 10.5494 29.1804 13.025C29.1804 13.4719 29.3579 13.9005 29.6739 14.2165C29.9899 14.5325 30.4185 14.71 30.8654 14.71C31.3123 14.71 31.7409 14.5325 32.0569 14.2165C32.3729 13.9005 32.5504 13.4719 32.5504 13.025C32.5504 8.87237 29.1006 2.73922 22.8636 2.5236C21.6485 2.51039 20.4516 2.81982 19.3952 3.42029C18.3388 4.02076 17.4606 4.89078 16.8502 5.94155C15.5166 8.08177 15.253 10.5494 16.1395 12.2264C16.4552 12.8205 16.9286 13.3159 17.5077 13.6583C18.0868 14.0006 18.749 14.1767 19.4217 14.167C22.7598 14.2628 25.6187 19.2221 26.9923 22.3845C24.0718 22.751 21.3002 23.8834 18.9585 25.6667C14.2069 27.767 9.64695 33.6046 8.92024 38.5718C8.52893 41.2791 9.31155 43.587 11.1243 45.0564L11.4438 45.3279C7.1873 48.0271 -2.05236 54.9509 1.75691 62.2899C2.97491 64.5779 4.62678 66.6068 6.62031 68.2633C6.26872 68.114 5.87697 68.088 5.50872 68.1895C5.14046 68.291 4.81735 68.514 4.59189 68.8223C2.91486 71.1462 -2.86692 82.015 1.75691 88.9947C4.02489 92.4286 8.29734 94.1456 14.5343 94.1456C18.6087 94.0634 22.6612 93.5277 26.6169 92.5484C30.3434 91.8673 33.6827 89.8233 35.9844 86.8145Z" fill="#17262F"></path><path d="M61.3475 64.8134C60.3382 62.9884 59.4988 61.0744 58.84 59.0956C58.7829 58.8777 58.6828 58.6735 58.5456 58.495C58.4083 58.3165 58.2366 58.1673 58.0407 58.0563C57.8448 57.9452 57.6287 57.8746 57.405 57.8485C57.1813 57.8224 56.9547 57.8414 56.7385 57.9044C56.5223 57.9674 56.3209 58.0731 56.1463 58.2152C55.9716 58.3574 55.8272 58.5331 55.7216 58.732C55.616 58.9308 55.5513 59.1489 55.5314 59.3732C55.5115 59.5975 55.5367 59.8235 55.6057 60.0379C56.3147 62.2211 57.232 64.3311 58.3448 66.3387C60.3972 70.3317 62.3378 74.1489 61.4274 78.9804C60.485 83.9636 56.7876 88.2121 51.5409 90.3283C49.0457 91.3977 46.3215 91.8215 43.6194 91.5605C40.9173 91.2995 38.3245 90.3622 36.0802 88.835C35.7148 88.5766 35.2618 88.4739 34.8208 88.5495C34.3797 88.6252 33.9868 88.8729 33.7284 89.2382C33.47 89.6036 33.3673 90.0566 33.4429 90.4977C33.5186 90.9387 33.7663 91.3317 34.1316 91.5901C37.3149 93.8389 41.1189 95.0418 45.0164 95.032C47.6904 95.006 50.3343 94.4637 52.8026 93.4348C59.1195 90.8793 63.5836 85.7045 64.7415 79.5793C65.8675 73.6538 63.4638 68.9581 61.3475 64.8134Z" fill="#17262F"></path><path d="M30.8894 4.63185C33.4449 3.10655 36.0243 2.62739 40.1211 5.14295C39.4023 5.94153 38.6836 6.74012 37.9649 7.53871C37.6215 7.938 37.3659 8.24147 37.2222 8.38521C36.7476 8.91304 36.3175 9.47932 35.9365 10.0782C34.5409 12.2217 32.8407 14.1505 30.8894 15.8041C30.5442 16.0879 30.3258 16.4972 30.2824 16.942C30.2389 17.3868 30.374 17.8307 30.6578 18.1759C30.9416 18.5211 31.3509 18.7395 31.7957 18.7829C32.2405 18.8263 32.6844 18.6913 33.0296 18.4075C35.2279 16.5705 37.1414 14.4175 38.7076 12.0188C38.9779 11.6015 39.274 11.2014 39.594 10.8209C39.7617 10.6452 40.0891 10.2779 40.5124 9.78274C44.7848 4.79157 46.39 3.92111 46.9809 3.85722C48.9135 4.81553 51.9881 8.27341 51.1895 11.0445C50.5666 13.2247 50.1114 13.2726 47.8993 13.4882C47.492 13.5281 47.0528 13.576 46.5816 13.6399C43.9383 13.9913 40.0332 16.0357 38.4201 18.4314C38.0743 18.8973 37.8363 19.434 37.723 20.003C37.6098 20.5719 37.6242 21.1589 37.7652 21.7216C37.8619 22.0729 38.0697 22.3833 38.3577 22.6065C38.6456 22.8297 38.9982 22.9535 39.3624 22.9594C39.5165 22.9618 39.6701 22.9402 39.8176 22.8956C40.0311 22.8365 40.2309 22.7359 40.4055 22.5995C40.5801 22.4632 40.7261 22.2937 40.8352 22.1008C40.9442 21.908 41.0141 21.6955 41.041 21.4756C41.0678 21.2557 41.051 21.0326 40.9915 20.8192C41.0115 20.6227 41.0893 20.4365 41.2151 20.2842C42.1335 18.8946 45.0563 17.2096 47.0129 16.9461L48.2108 16.8103C50.6465 16.5707 53.162 16.3232 54.4078 11.9389C55.8453 7.05956 51.2694 2.13227 48.3146 0.798629C46.6056 4.09512e-05 44.6411 0.99029 42.5887 2.75517C37.6534 -0.55897 33.5407 -0.862434 29.1644 1.74096C28.803 1.98005 28.5476 2.3492 28.4513 2.7717C28.3549 3.1942 28.4251 3.63758 28.6471 4.00972C28.8692 4.38186 29.226 4.65414 29.6436 4.77C30.0612 4.88585 30.5073 4.83638 30.8894 4.63185Z" fill="#17262F"></path></g><defs><clipPath id="clip0_5678_33286"><rect width="65.029" height="95" fill="white"></rect></clipPath></defs></svg>