<svg xmlns="http://www.w3.org/2000/svg" width="160" height="110" viewBox="0 0 160 110" fill="none"><g clip-path="url(#clip0_5678_17461)"><path d="M97.7889 21.4756L94.7423 19.7276V1.74805L97.7889 3.49606V21.4756Z" fill="#0091B5"></path><path d="M97.7889 21.4756L100.81 19.7276V1.74805L97.7889 3.49606V21.4756Z" fill="#72BDF4"></path><path d="M3.02157 76.2134L0 74.4654V56.4858L3.02157 58.2339V76.2134Z" fill="#0091B5"></path><path d="M3.02158 76.2134L6.06811 74.4654V56.4858L3.02158 58.2339V76.2134Z" fill="#72BDF4"></path><path d="M3.02157 58.2338L100.81 1.74801L97.7889 0L0 56.4858L3.02157 58.2338Z" fill="#98D7FE"></path><path d="M3.02158 62.9036L100.81 6.41774V1.74805L3.02158 58.2339V62.9036Z" fill="#5BBBF8"></path><path d="M153.351 35.5347L97.7889 3.49606L100.81 1.74805L156.397 33.7866L153.351 35.5347Z" fill="#98D7FE"></path><path d="M153.351 40.2044L97.7889 8.16579V3.49609L153.351 35.5347V40.2044Z" fill="#0091B5"></path><path d="M146.983 45.0739L91.0965 12.7606C90.1725 12.2112 89.8978 10.7878 90.3224 9.18964L90.4722 8.66524V8.4405V8.29067V8.11586C90.4722 8.11586 90.4722 7.84118 90.647 7.69135C90.6552 7.63337 90.6552 7.57452 90.647 7.51654C90.647 7.51654 90.647 7.31677 90.8218 7.19191L91.0216 6.89225C91.0134 6.83428 91.0134 6.77543 91.0216 6.71745L91.2963 6.34288V6.19305L91.4461 6.01825L92.395 5.49384L92.6197 5.29407L93.0692 4.99441L93.4188 4.76967H93.5936C93.7477 4.66969 93.9161 4.59389 94.0931 4.54492H94.2179H94.5426H95.4415L95.8161 4.69475L151.827 36.6834C152.243 37.0267 152.549 37.4835 152.708 37.9979C152.868 38.5123 152.874 39.0621 152.726 39.5801C152.736 39.7381 152.736 39.8966 152.726 40.0546C152.726 40.0546 152.726 40.2044 152.726 40.2543C152.536 40.9558 152.25 41.6279 151.877 42.2521C151.52 42.8721 151.084 43.4429 150.579 43.9501C149.28 45.1238 147.907 45.6232 146.983 45.0739Z" fill="#808080"></path><path d="M150.454 43.9502L90.3473 9.11475C89.9228 10.7129 90.1975 12.1363 91.1214 12.6857L146.983 45.0739C147.907 45.6233 149.28 45.1238 150.454 43.9502Z" fill="#575757"></path><path d="M152.052 41.5528C152.267 41.134 152.45 40.7 152.602 40.2543C152.602 40.2543 152.602 40.1294 152.602 40.0545C152.611 39.8965 152.611 39.7381 152.602 39.58C152.749 39.0621 152.743 38.5123 152.583 37.9978C152.424 37.4834 152.118 37.0266 151.703 36.6833L95.941 4.37004L95.5664 4.22021H94.6674H94.3428H94.2179C94.041 4.26919 93.8725 4.34498 93.7185 4.44496H93.5437L93.1941 4.99434L92.7945 5.31897L92.395 5.49377L92.0204 5.89331L91.8706 6.06811V6.21794L91.6958 6.44269L152.052 41.5528Z" fill="#A1A1A1"></path><path d="M152.701 38.9058C152.753 38.4918 152.7 38.0715 152.547 37.6833C152.395 37.2951 152.147 36.9513 151.827 36.6833L95.941 4.37004L95.5664 4.22021H94.6674H94.3428H94.2179C94.041 4.26919 93.8725 4.34498 93.7185 4.44496H93.5437L152.701 38.9058Z" fill="#C7C7C7"></path><path d="M146.983 45.0737C146.034 44.5243 145.784 43.1009 146.209 41.5027C146.402 40.8059 146.678 40.135 147.033 39.505C147.39 38.885 147.827 38.3142 148.331 37.8069C149.53 36.6333 150.829 36.1588 151.827 36.6832C152.243 37.0265 152.549 37.4832 152.708 37.9977C152.868 38.5121 152.874 39.0619 152.726 39.5799C152.736 39.7379 152.736 39.8964 152.726 40.0544C152.726 40.0544 152.726 40.2042 152.726 40.2541C152.536 40.9556 152.25 41.6277 151.877 42.2519C151.52 42.8719 151.084 43.4427 150.579 43.9499C149.28 45.1236 147.907 45.623 146.983 45.0737Z" fill="#919191"></path><path d="M136.77 50.967L80.8831 18.6537C79.9591 18.1043 79.7094 16.681 80.109 15.0828C80.1559 14.9044 80.2143 14.7292 80.2838 14.5584V14.3336C80.273 14.2843 80.273 14.2332 80.2838 14.1838V14.009L80.4835 13.5845V13.4097C80.5564 13.31 80.6152 13.2008 80.6583 13.085L80.8581 12.7854V12.6106L81.1328 12.236V12.0862L81.2577 11.9114C81.2577 11.7616 81.5324 11.6367 81.6572 11.5118L82.4064 11.1872L82.8059 10.8626H82.9557C83.0561 10.7651 83.175 10.6887 83.3053 10.6378H83.4552C83.6168 10.5526 83.7836 10.4775 83.9546 10.4131H84.1044H84.4041H85.3031L85.6776 10.5629L141.614 42.5765C142.032 42.9178 142.34 43.3744 142.5 43.8896C142.659 44.4047 142.664 44.9555 142.513 45.4732V45.9477C142.513 45.9477 142.513 46.0975 142.513 46.1475C142.32 46.8443 142.044 47.5152 141.689 48.1452C141.324 48.7597 140.888 49.3295 140.39 49.8433C139.067 51.0169 137.719 51.5164 136.77 50.967Z" fill="#808080"></path><path d="M140.266 49.9432L80.1339 14.9829C79.8093 16.6061 79.9841 18.0045 80.908 18.5539L136.77 50.967C137.718 51.5164 139.092 51.017 140.266 49.9432Z" fill="#575757"></path><path d="M141.839 47.4461C142.064 47.0322 142.248 46.5973 142.388 46.1476C142.388 46.1476 142.388 46.0227 142.388 45.9478V45.4733C142.539 44.9556 142.535 44.4048 142.375 43.8897C142.215 43.3745 141.907 42.9179 141.489 42.5766L85.7276 10.2634L85.353 10.1135H84.454H84.1544H84.0045L83.5051 10.3383H83.3553C83.2249 10.3891 83.1061 10.4655 83.0057 10.563H82.8559L82.4064 11.1873L82.2066 11.3871C82.0612 11.5075 81.9274 11.6413 81.807 11.7866L81.6822 11.9614V12.1113L81.3326 12.4858L141.839 47.4461Z" fill="#A1A1A1"></path><path d="M142.488 44.7991C142.54 44.3851 142.487 43.9648 142.334 43.5766C142.181 43.1884 141.934 42.8446 141.614 42.5766L85.7276 10.2634L85.353 10.1135H84.454H84.1544H84.0045L83.5051 10.3383H83.3553L142.488 44.7991Z" fill="#C7C7C7"></path><path d="M136.77 50.967C135.846 50.4176 135.596 48.9942 135.995 47.396C136.188 46.6992 136.465 46.0283 136.82 45.3983C137.185 44.7773 137.63 44.2065 138.143 43.7002C139.317 42.5266 140.64 42.0521 141.614 42.5765C142.032 42.9178 142.34 43.3744 142.5 43.8895C142.659 44.4047 142.664 44.9555 142.513 45.4732V45.9477C142.513 45.9477 142.513 46.0975 142.513 46.1475C142.32 46.8443 142.044 47.5152 141.689 48.1452C141.323 48.7597 140.888 49.3295 140.39 49.8433C139.067 51.0169 137.718 51.5164 136.77 50.967Z" fill="#919191"></path><path d="M126.556 56.8605L70.6697 24.5472C69.7458 23.9978 69.496 22.5744 69.9206 20.9762C69.9206 20.8014 69.9206 20.6266 70.0704 20.4269V20.2271C70.0704 20.2271 70.0704 20.2271 70.0704 20.0773V19.9025C70.0704 19.9025 70.1952 19.6278 70.2702 19.4779C70.262 19.42 70.262 19.3611 70.2702 19.3031C70.3187 19.1899 70.3772 19.0813 70.445 18.9785L70.6198 18.6788L70.7446 18.504L70.9943 18.1295L71.1192 17.9796L71.269 17.8048C71.3808 17.6599 71.5062 17.5261 71.6436 17.4053L71.8434 17.2055L72.2429 16.8809H72.3927C72.4972 16.7887 72.6151 16.7129 72.7424 16.6561H72.8922C73.0623 16.5707 73.2374 16.4957 73.4166 16.4314H73.5414H73.8661H74.7651C74.8876 16.466 75.0051 16.5164 75.1147 16.5812L131.401 48.47C131.827 48.8052 132.145 49.2591 132.314 49.7746C132.483 50.2902 132.495 50.8441 132.35 51.3667C132.36 51.5247 132.36 51.6832 132.35 51.8412C132.35 51.8412 132.35 51.8412 132.35 52.0409C132.168 52.7416 131.891 53.4138 131.526 54.0387C131.168 54.6587 130.732 55.2295 130.227 55.7367C128.854 56.9104 127.505 57.4348 126.556 56.8605Z" fill="#808080"></path><path d="M130.052 55.7366L69.9206 20.8762C69.571 22.4994 69.7458 23.8978 70.6697 24.4472L126.556 56.8603C127.505 57.4347 128.879 56.9103 130.052 55.7366Z" fill="#575757"></path><path d="M131.65 53.3394C131.868 52.925 132.043 52.49 132.175 52.0409C132.175 52.0409 132.175 51.916 132.175 51.8411C132.185 51.6831 132.185 51.5246 132.175 51.3667C132.326 50.8489 132.321 50.2981 132.161 49.783C132.001 49.2679 131.694 48.8112 131.276 48.4699L75.5142 16.1567C75.4046 16.0918 75.2871 16.0415 75.1646 16.0068H74.2656H73.941H73.8161C73.6369 16.0711 73.4618 16.1462 73.2917 16.2316H73.1419C73.0146 16.2883 72.8967 16.3641 72.7923 16.4563H72.6425L72.2429 16.781L72.0431 16.9807C71.9057 17.1016 71.7803 17.2354 71.6686 17.3803L71.5187 17.5551L71.3939 17.7049L71.244 17.9297L131.65 53.3394Z" fill="#A1A1A1"></path><path d="M132.35 50.6924C132.401 50.2784 132.348 49.8582 132.195 49.4699C132.043 49.0817 131.795 48.7379 131.476 48.4699L75.5142 16.1567C75.4046 16.0918 75.2871 16.0415 75.1646 16.0068H74.2656H73.941H73.8161C73.6369 16.0711 73.4618 16.1462 73.2917 16.2316H73.1419L132.35 50.6924Z" fill="#C7C7C7"></path><path d="M126.556 56.8603C125.632 56.3109 125.383 54.8875 125.807 53.2893C125.978 52.5851 126.256 51.9113 126.631 51.2916C126.988 50.6716 127.425 50.1008 127.93 49.5935C129.128 48.4199 130.427 47.9454 131.401 48.4698C131.827 48.805 132.145 49.259 132.314 49.7745C132.483 50.29 132.495 50.844 132.35 51.3665C132.36 51.5245 132.36 51.683 132.35 51.841C132.35 51.841 132.35 51.841 132.35 52.0408C132.168 52.7414 131.891 53.4137 131.526 54.0385C131.168 54.6585 130.732 55.2293 130.227 55.7366C128.854 56.9102 127.505 57.4346 126.556 56.8603Z" fill="#919191"></path><path d="M116.368 62.7536L60.4813 30.4403C59.5573 29.891 59.3076 28.4676 59.7072 26.8694L59.857 26.32V26.1203V25.9704V25.7956C59.857 25.6708 59.9818 25.5209 60.0318 25.3711V25.1963L60.2066 24.8717L60.3814 24.572L60.5062 24.3972L60.7809 24.0226V23.8728V23.7479L60.9308 23.5731L61.3053 23.1736L61.5301 22.9738L62.4291 22.6492L62.7787 22.4244H62.9535C63.1075 22.3245 63.2759 22.2487 63.4529 22.1997H63.5778H63.9024H64.9262L65.3008 22.3495L121.212 54.3632C121.622 54.7103 121.925 55.1673 122.084 55.6805C122.243 56.1936 122.253 56.7415 122.111 57.2599C122.121 57.4179 122.121 57.5763 122.111 57.7343C122.122 57.8004 122.122 57.868 122.111 57.9341C121.941 58.6383 121.663 59.3121 121.287 59.9318C120.93 60.5518 120.493 61.1227 119.989 61.6299C118.665 62.8036 117.367 63.278 116.368 62.7536Z" fill="#808080"></path><path d="M119.864 61.6299L59.7321 26.7695C59.3825 28.3927 59.5823 29.7911 60.5062 30.3405L116.368 62.7536C117.367 63.278 118.665 62.8036 119.864 61.6299Z" fill="#575757"></path><path d="M121.437 59.2327C121.654 58.8183 121.83 58.3833 121.961 57.9342C121.973 57.8681 121.973 57.8005 121.961 57.7344C121.971 57.5764 121.971 57.418 121.961 57.26C122.103 56.7416 122.093 56.1937 121.934 55.6806C121.775 55.1674 121.473 54.7104 121.062 54.3633L65.3258 22.05L64.9262 21.9001H64.0272H63.7026H63.5778C63.4048 21.9598 63.2377 22.035 63.0783 22.1249H62.9035L62.5789 22.4745L62.1793 22.7991L61.9546 22.9989L61.58 23.3984L61.4302 23.5732V23.6981C61.423 23.7478 61.423 23.7982 61.4302 23.8479L61.2554 24.0727L121.437 59.2327Z" fill="#A1A1A1"></path><path d="M122.086 56.5857C122.138 56.1718 122.085 55.7515 121.932 55.3632C121.779 54.975 121.532 54.6312 121.212 54.3633L65.3257 22.05L64.9262 21.9001H64.0272H63.7026H63.5777C63.4048 21.9598 63.2376 22.035 63.0783 22.1249H62.9035L122.086 56.5857Z" fill="#C7C7C7"></path><path d="M116.368 62.7536C115.419 62.2042 115.169 60.7808 115.594 59.1827C115.786 58.4858 116.063 57.815 116.418 57.1849C116.775 56.5649 117.211 55.9941 117.716 55.4869C118.915 54.3132 120.213 53.8387 121.212 54.3631C121.622 54.7103 121.925 55.1673 122.084 55.6804C122.243 56.1936 122.253 56.7415 122.111 57.2598C122.121 57.4179 122.121 57.5763 122.111 57.7343C122.122 57.8004 122.122 57.868 122.111 57.9341C121.941 58.6383 121.663 59.3121 121.287 59.9318C120.93 60.5518 120.493 61.1226 119.989 61.6299C118.665 62.8035 117.367 63.278 116.368 62.7536Z" fill="#919191"></path><path d="M106.154 68.6469L50.2679 36.3337C49.3439 35.7843 49.0942 34.3609 49.4937 32.7627C49.4937 32.5879 49.4937 32.4131 49.6685 32.2133C49.662 32.1469 49.662 32.08 49.6685 32.0136C49.6577 31.9642 49.6577 31.9131 49.6685 31.8637V31.6889L49.8683 31.2644V31.0896C49.9361 30.9868 49.9946 30.8782 50.0431 30.765L50.2429 30.4653V30.2905L50.5176 29.9159L50.6424 29.7661V29.6413L50.7673 29.4665L51.1668 29.0669C51.227 28.9942 51.2939 28.9273 51.3666 28.8671L51.7662 28.5425H51.916C52.0164 28.445 52.1352 28.3686 52.2656 28.3178H52.4154C52.5719 28.2223 52.7397 28.1468 52.9149 28.093H53.0647H53.3643H54.2633L54.6379 28.2428L110.999 60.2565C111.414 60.5997 111.72 61.0565 111.88 61.571C112.039 62.0854 112.046 62.6352 111.898 63.1532V63.6276C111.887 63.6938 111.887 63.7613 111.898 63.8274C111.705 64.5243 111.428 65.1951 111.074 65.8251C110.7 66.434 110.265 67.003 109.775 67.5232C108.452 68.6969 107.103 69.1713 106.154 68.6469Z" fill="#808080"></path><path d="M109.65 67.4233L49.5187 32.6628C49.1691 34.286 49.3689 35.6844 50.2928 36.2338L106.154 68.6469C107.103 69.1714 108.452 68.6969 109.65 67.4233Z" fill="#575757"></path><path d="M111.224 65.126C111.449 64.7122 111.633 64.2772 111.773 63.8275C111.762 63.7614 111.762 63.6939 111.773 63.6277V63.1533C111.921 62.6353 111.914 62.0855 111.755 61.5711C111.595 61.0566 111.289 60.5998 110.874 60.2566L55.1124 27.9433L54.7378 27.7935H53.8388H53.5392H53.3893C53.2183 27.8579 53.0515 27.933 52.8899 28.0182H52.7401C52.6097 28.069 52.4908 28.1455 52.3905 28.2429H52.2406L51.8411 28.5676C51.7684 28.6277 51.7015 28.6946 51.6413 28.7674L51.2418 29.1669L51.1169 29.3417V29.4666L50.9921 29.6164L50.8173 29.8411L111.224 65.126Z" fill="#A1A1A1"></path><path d="M111.873 62.4291C111.924 62.0151 111.871 61.5948 111.719 61.2066C111.566 60.8184 111.319 60.4746 110.999 60.2066L55.1124 27.9433L54.7378 27.7935H53.8388H53.5392H53.3893C53.2184 27.8579 53.0516 27.933 52.8899 28.0182H52.7401L111.873 62.4291Z" fill="#C7C7C7"></path><path d="M106.154 68.6469C105.23 68.0975 104.981 66.6741 105.38 65.076C105.573 64.3791 105.85 63.7083 106.204 63.0782C106.57 62.4573 107.015 61.8864 107.528 61.3802C108.701 60.2065 110.025 59.732 110.999 60.2564C111.414 60.5997 111.72 61.0565 111.88 61.5709C112.039 62.0854 112.046 62.6352 111.898 63.1532V63.6276C111.887 63.6937 111.887 63.7613 111.898 63.8274C111.705 64.5242 111.428 65.1951 111.074 65.8251C110.7 66.434 110.265 67.003 109.775 67.5232C108.452 68.6969 107.103 69.1713 106.154 68.6469Z" fill="#919191"></path><path d="M95.941 74.5404L39.9546 42.2271C39.0306 41.6777 38.7809 40.2543 39.2054 38.6562C39.2343 38.4679 39.2845 38.2836 39.3553 38.1068V37.907C39.3553 37.907 39.3553 37.907 39.3553 37.7572V37.5824C39.3553 37.4575 39.3553 37.3077 39.555 37.1579C39.5468 37.0999 39.5468 37.041 39.555 36.9831C39.6036 36.8699 39.662 36.7612 39.7298 36.6584L39.9046 36.3588L40.0295 36.184L40.2792 35.8094L40.4041 35.6596L40.5539 35.4848C40.6656 35.3399 40.7911 35.2061 40.9285 35.0852L41.1283 34.8854L41.5278 34.5608H41.6776C41.7821 34.4686 41.9 34.3928 42.0272 34.3361H42.1771L42.6765 34.1113H42.8263H43.151H44.025C44.16 34.1305 44.2885 34.1818 44.3995 34.2612L100.785 66.1499C101.203 66.4912 101.511 66.9478 101.671 67.463C101.831 67.9781 101.836 68.5289 101.684 69.0466C101.695 69.2046 101.695 69.3631 101.684 69.5211C101.684 69.5211 101.684 69.646 101.684 69.7209C101.503 70.4215 101.226 71.0938 100.86 71.7186C100.503 72.3386 100.067 72.9094 99.5619 73.4167C98.2384 74.5903 96.8899 75.0648 95.941 74.5404Z" fill="#808080"></path><path d="M99.437 73.4165L39.3053 38.5562C38.9557 40.1793 39.1305 41.5777 40.0545 42.1271L95.941 74.5403C96.8899 75.0647 98.2633 74.5902 99.437 73.4165Z" fill="#575757"></path><path d="M101.035 71.0193C101.253 70.6049 101.428 70.17 101.56 69.7208C101.56 69.7208 101.56 69.571 101.56 69.521C101.57 69.3631 101.57 69.2046 101.56 69.0466C101.711 68.5288 101.706 67.978 101.546 67.4629C101.386 66.9478 101.078 66.4911 100.661 66.1499L44.9489 33.8366C44.8379 33.7573 44.7094 33.7059 44.5743 33.6868H43.7003H43.3757H43.2259L42.7264 33.9115H42.5766C42.4494 33.9683 42.3315 34.044 42.227 34.1363H42.0772L41.6776 34.4609L41.4779 34.6607C41.3405 34.7815 41.215 34.9153 41.1033 35.0602L40.9535 35.235L40.8286 35.3848L40.6788 35.6096L101.035 71.0193Z" fill="#A1A1A1"></path><path d="M101.659 68.3724C101.711 67.9584 101.658 67.5381 101.505 67.1499C101.353 66.7616 101.105 66.4178 100.785 66.1499L44.9489 33.8366C44.8379 33.7573 44.7094 33.7059 44.5743 33.6868H43.7003H43.3757H43.2259L42.7264 33.9115H42.5766L101.659 68.3724Z" fill="#C7C7C7"></path><path d="M95.941 74.5402C95.017 73.9908 94.7673 72.5675 95.1918 70.9693C95.3642 70.2695 95.6332 69.5972 95.9909 68.9715C96.3648 68.3561 96.8089 67.7863 97.3144 67.2735C98.4881 66.0998 99.8116 65.6253 100.785 66.1498C101.203 66.491 101.511 66.9477 101.671 67.4628C101.831 67.9779 101.836 68.5287 101.684 69.0465C101.695 69.2045 101.695 69.3629 101.684 69.5209C101.684 69.5209 101.684 69.6458 101.684 69.7207C101.503 70.4213 101.226 71.0936 100.86 71.7184C100.503 72.3384 100.067 72.9093 99.5619 73.4165C98.2384 74.5902 96.8899 75.0646 95.941 74.5402Z" fill="#919191"></path><path d="M85.7526 80.4335L29.966 48.1202C29.017 47.5708 28.7923 46.1474 29.1918 44.5493L29.3417 43.9999V43.8001V43.6503C29.3417 43.6503 29.3417 43.5254 29.3417 43.4755C29.3417 43.4255 29.4665 43.2008 29.5414 43.051V42.8762L29.966 42.4516L30.1408 42.152V41.9772L30.4154 41.6026V41.4528V41.3279L30.5653 41.1531L30.9398 40.7536L31.1646 40.5538L31.5641 40.2292H31.689L32.0386 40.0044L32.4631 39.9545C32.6171 39.8545 32.7856 39.7787 32.9625 39.7297H33.2872H34.1862L34.5607 39.8796L90.5721 72.043C90.9845 72.3833 91.2907 72.8347 91.4544 73.3436C91.6182 73.8526 91.6326 74.3978 91.496 74.9148C91.5053 75.0728 91.5053 75.2312 91.496 75.3892C91.5047 75.4555 91.5047 75.5227 91.496 75.589C91.3254 76.2932 91.0475 76.967 90.672 77.5867C90.3147 78.2067 89.8782 78.7775 89.3734 79.2848C88.025 80.4834 86.6765 80.9579 85.7526 80.4335Z" fill="#808080"></path><path d="M89.2236 79.3099L29.1169 44.4495C28.7673 46.0726 28.9421 47.471 29.891 48.0204L85.7525 80.4336C86.6765 80.958 88.0499 80.4835 89.2236 79.3099Z" fill="#575757"></path><path d="M90.8218 76.9127C91.0392 76.4982 91.2148 76.0633 91.3462 75.6141C91.3548 75.5478 91.3548 75.4807 91.3462 75.4144C91.3555 75.2563 91.3555 75.0979 91.3462 74.9399C91.488 74.4194 91.4762 73.869 91.3122 73.355C91.1483 72.8411 90.8392 72.3855 90.4223 72.0432L34.7106 39.7299L34.336 39.5801H33.437H33.1124C32.8812 39.6775 32.6631 39.8033 32.4631 39.9547H32.2883L31.9387 40.1794H31.8139L31.4143 40.504L31.1896 40.7038L30.815 41.1033L30.6652 41.2781V41.403C30.658 41.4527 30.658 41.5031 30.6652 41.5528L30.4904 41.7776L90.8218 76.9127Z" fill="#A1A1A1"></path><path d="M91.4711 74.2657C91.5197 73.8495 91.4628 73.4279 91.3057 73.0395C91.1486 72.6511 90.8963 72.3085 90.5721 72.0432L34.7105 39.7299L34.336 39.5801H33.437H33.1124C32.8812 39.6775 32.6631 39.8033 32.4631 39.9547H32.2883L91.4711 74.2657Z" fill="#C7C7C7"></path><path d="M85.7526 80.4335C84.8036 79.8841 84.5539 78.4608 84.9784 76.8626C85.1599 76.1619 85.4372 75.4897 85.8025 74.8649C86.1598 74.2449 86.5963 73.674 87.101 73.1668C88.2997 71.9931 89.5982 71.5187 90.5721 72.0431C90.9845 72.3834 91.2907 72.8347 91.4544 73.3437C91.6182 73.8526 91.6326 74.3979 91.496 74.9148C91.5053 75.0728 91.5053 75.2312 91.496 75.3893C91.5047 75.4556 91.5047 75.5227 91.496 75.589C91.3254 76.2933 91.0475 76.967 90.672 77.5868C90.3147 78.2068 89.8782 78.7776 89.3735 79.2848C88.025 80.4835 86.6765 80.9579 85.7526 80.4335Z" fill="#919191"></path><path d="M75.5391 86.327L19.6527 54.0137C18.7287 53.4644 18.479 52.041 18.8785 50.4428C18.8785 50.268 18.8785 50.0932 19.0533 49.8934C19.0364 49.8279 19.0364 49.7592 19.0533 49.6936C19.0425 49.6443 19.0425 49.5932 19.0533 49.5438V49.369L19.2531 48.9445V48.7697L19.4279 48.4451L19.9773 48.1454C19.9725 48.0872 19.9725 48.0288 19.9773 47.9706L20.252 47.596V47.4462H20.5017V47.2714L20.8763 46.8718L21.101 46.6721L21.5006 46.3474H21.6504C21.7463 46.2561 21.8558 46.1803 21.975 46.1227H22.1498C22.3063 46.0272 22.4741 45.9517 22.6493 45.8979H22.7991H23.0987H23.9977C24.1303 45.9259 24.257 45.9766 24.3723 46.0478L80.3836 77.9365C80.7987 78.2798 81.1048 78.7366 81.2645 79.251C81.4241 79.7655 81.4304 80.3153 81.2826 80.8332V81.2827C81.2709 81.3572 81.2709 81.433 81.2826 81.5075C81.09 82.2043 80.8132 82.8752 80.4586 83.5052C80.0847 84.1206 79.6405 84.6905 79.1351 85.2033C77.8365 86.3769 76.4631 86.8514 75.5391 86.327Z" fill="#808080"></path><path d="M79.0102 85.2032L18.9035 50.3428C18.5539 51.9659 18.7537 53.3643 19.6776 53.9137L75.5392 86.3269C76.4631 86.8513 77.8366 86.3768 79.0102 85.2032Z" fill="#575757"></path><path d="M80.6084 82.806C80.8291 82.39 81.0129 81.9555 81.1578 81.5074C81.1461 81.433 81.1461 81.3572 81.1578 81.2827V80.8332C81.3056 80.3152 81.2993 79.7654 81.1396 79.251C80.98 78.7365 80.6739 78.2798 80.2588 77.9365L24.4972 45.6232C24.3819 45.552 24.2552 45.5013 24.1226 45.4734H23.2236H22.924H22.7741C22.5989 45.5272 22.4312 45.6027 22.2747 45.6981H22.0999C21.9807 45.7557 21.8711 45.8315 21.7753 45.9229H21.6254L21.2259 46.2475L21.0011 46.4473L20.6266 46.8468V47.0216L20.3769 47.4461V47.596L20.2021 47.8207L80.6084 82.806Z" fill="#A1A1A1"></path><path d="M81.2577 80.159C81.3092 79.745 81.2562 79.3247 81.1036 78.9365C80.9509 78.5483 80.7034 78.2045 80.3836 77.9365L24.4972 45.6232C24.3819 45.552 24.2552 45.5013 24.1226 45.4734H23.2236H22.9239H22.7741C22.5989 45.5272 22.4311 45.6027 22.2747 45.6981H22.0999L81.2577 80.159Z" fill="#C7C7C7"></path><path d="M75.5392 86.3269C74.6152 85.7775 74.3655 84.3542 74.765 82.756C74.9577 82.0591 75.2344 81.3883 75.5891 80.7583C75.9464 80.1383 76.3829 79.5674 76.8876 79.0602C78.0863 77.8865 79.3848 77.3871 80.3837 77.9365C80.7987 78.2797 81.1048 78.7365 81.2645 79.2509C81.4241 79.7654 81.4304 80.3152 81.2826 80.8332V81.2827C81.2709 81.3571 81.2709 81.4329 81.2826 81.5074C81.09 82.2043 80.8133 82.8751 80.4586 83.5051C80.0847 84.1205 79.6406 84.6904 79.1351 85.2032C77.8366 86.3769 76.4631 86.8513 75.5392 86.3269Z" fill="#919191"></path><path d="M65.3258 92.2202L9.43927 59.9319C8.51532 59.3826 8.2656 57.9592 8.69012 56.361C8.71895 56.1728 8.76922 55.9884 8.83995 55.8116V55.6118C8.83995 55.6118 8.83995 55.6118 8.83995 55.462V55.2872C8.96336 55.16 9.09699 55.043 9.2395 54.9376C9.2313 54.8796 9.2313 54.8208 9.2395 54.7628C9.288 54.6496 9.3465 54.541 9.4143 54.4382L9.5891 54.1385C9.58435 54.0803 9.58435 54.0219 9.5891 53.9637L9.98865 53.4893V53.3394V53.2146V53.0398L10.3882 52.6402L11.0125 52.4404L11.412 52.1158H11.5619L11.9115 51.8661H12.0613L12.5607 51.6414H12.7106H13.0102H13.3099H13.9092C14.0431 51.6646 14.1707 51.7156 14.2838 51.7912L70.1703 83.8298C70.5906 84.1689 70.9005 84.6255 71.0606 85.1413C71.2207 85.6571 71.2237 86.2089 71.0692 86.7265V87.176C71.0692 87.176 71.0692 87.3258 71.0692 87.4007C70.8766 88.0976 70.5998 88.7684 70.2452 89.3984C69.8879 90.0185 69.4514 90.5893 68.9466 91.0965C67.6232 92.395 66.2747 92.7446 65.3258 92.2202Z" fill="#808080"></path><path d="M68.8218 91.0965L8.69012 56.2361C8.2656 57.8343 8.51532 59.2577 9.43927 59.807L65.3258 92.2202C66.2747 92.7446 67.6231 92.395 68.8218 91.0965Z" fill="#575757"></path><path d="M70.395 88.6993C70.6157 88.2833 70.7995 87.8488 70.9444 87.4008C70.9444 87.4008 70.9444 87.2509 70.9444 87.176V86.7265C71.0988 86.209 71.0958 85.6572 70.9357 85.1413C70.7757 84.6255 70.4657 84.169 70.0454 83.8298L14.2838 51.5165C14.1707 51.441 14.0431 51.39 13.9092 51.3667H13.3099H13.0102H12.7106H12.5607L12.0613 51.5914H11.9115L11.5619 51.8412H11.412L11.0125 52.4405L10.8127 52.6403L10.4132 53.0398V53.2146V53.3395V53.4893L9.98865 53.714L70.395 88.6993Z" fill="#A1A1A1"></path><path d="M71.0443 86.0523C71.0958 85.6383 71.0428 85.218 70.8902 84.8298C70.7375 84.4416 70.49 84.0978 70.1703 83.8298L14.2838 51.5165C14.1707 51.441 14.0431 51.39 13.9092 51.3667H13.3099H13.0102H12.7106H12.5607L12.0613 51.5914H11.9115L71.0443 86.0523Z" fill="#C7C7C7"></path><path d="M65.3258 92.2202C64.4018 91.6709 64.1521 90.2475 64.5766 88.6493C64.749 87.9495 65.018 87.2772 65.3757 86.6516C65.7496 86.0362 66.1937 85.4663 66.6992 84.9535C67.8729 83.7798 69.1964 83.2804 70.1703 83.8298C70.5906 84.1689 70.9005 84.6255 71.0606 85.1413C71.2207 85.6571 71.2237 86.2089 71.0692 86.7265V87.176C71.0692 87.176 71.0692 87.3258 71.0692 87.4007C70.8766 88.0976 70.5999 88.7684 70.2452 89.3984C69.8879 90.0184 69.4514 90.5893 68.9467 91.0965C67.6232 92.395 66.2747 92.7446 65.3258 92.2202Z" fill="#919191"></path><path d="M156.397 55.2622L153.351 53.5142V35.5347L156.397 37.2827V55.2622Z" fill="#0091B5"></path><path d="M156.397 55.2622L159.419 53.5142V35.5347L156.397 37.2827V55.2622Z" fill="#72BDF4"></path><path d="M61.63 110L58.6084 108.252V90.2725L61.63 92.0205V110Z" fill="#0091B5"></path><path d="M61.63 110L64.6765 108.252V90.2725L61.63 92.0205V110Z" fill="#72BDF4"></path><path d="M61.63 92.0204L159.419 35.5346L156.397 33.7866L58.6084 90.2724L61.63 92.0204Z" fill="#98D7FE"></path><path d="M61.63 96.6902L159.419 40.2044V35.5347L61.63 92.0205V96.6902Z" fill="#5BBBF8"></path><path d="M58.6084 90.2724L3.02158 58.2339L6.06811 56.4858L61.63 88.5244L58.6084 90.2724Z" fill="#98D7FE"></path><path d="M58.6084 94.9422L3.02158 62.9036V58.2339L58.6084 90.2725V94.9422Z" fill="#0091B5"></path></g><defs><clipPath id="clip0_5678_17461"><rect width="159.419" height="110" fill="white"></rect></clipPath></defs></svg>