<svg xmlns="http://www.w3.org/2000/svg" width="100" height="73" viewBox="0 0 100 73" fill="none"><g clip-path="url(#clip0_5678_33201)"><path d="M39.2585 22.61C38.8409 22.6084 38.4399 22.446 38.1389 22.1565C37.8378 21.8671 37.6598 21.4728 37.6418 21.0555C37.4631 17.5191 38.7611 15.7081 39.8881 14.8376C41.3804 13.6406 43.4945 13.2831 46.1993 13.6639C46.304 12.1439 46.8027 10.6773 47.6463 9.40855C48.4899 8.13976 49.6493 7.11248 51.0104 6.42782C54.0183 4.97438 57.3138 5.5884 60.1119 8.03671C61.298 6.74082 62.8052 5.78097 64.4811 5.25418C66.157 4.72739 67.9422 4.65232 69.6565 5.03656C71.319 5.34892 72.8785 6.06722 74.1965 7.12758C75.5145 8.18795 76.5501 9.55754 77.2112 11.1146C79.893 10.652 82.6493 11.2573 84.8904 12.8012C86.1628 13.6432 87.228 14.7624 88.006 16.0749C88.7841 17.3873 89.2548 18.859 89.3829 20.3793C89.3972 20.5916 89.3695 20.8047 89.3014 21.0063C89.2334 21.2079 89.1263 21.3941 88.9863 21.5543C88.8463 21.7146 88.6761 21.8456 88.4854 21.9401C88.2947 22.0345 88.0873 22.0905 87.875 22.1048C87.6627 22.1191 87.4497 22.0914 87.2481 22.0234C87.0465 21.9553 86.8602 21.8482 86.7 21.7082C86.5398 21.5682 86.4087 21.398 86.3142 21.2073C86.2198 21.0167 86.1638 20.8092 86.1495 20.5969C86.043 19.5662 85.7089 18.572 85.1712 17.6862C84.6336 16.8004 83.9058 16.0451 83.0406 15.4749C82.0978 14.8391 81.0212 14.4291 79.8943 14.2768C78.7674 14.1244 77.6206 14.2339 76.5428 14.5966C76.3226 14.667 76.0898 14.6888 75.8604 14.6606C75.631 14.6325 75.4104 14.5549 75.2137 14.4334C75.0133 14.3151 74.8403 14.1555 74.7063 13.9653C74.5723 13.775 74.4803 13.5583 74.4365 13.3297C74.009 10.8503 71.8016 8.79841 68.9958 8.21548C67.5934 7.90056 66.1278 8.03079 64.8029 8.58804C63.478 9.1453 62.3599 10.1018 61.6042 11.3244C61.469 11.5428 61.2849 11.7267 61.0663 11.8616C60.8478 11.9965 60.6009 12.0787 60.3451 12.1017C60.093 12.1158 59.841 12.0712 59.609 11.9714C59.377 11.8715 59.1714 11.7193 59.0082 11.5265C56.9485 9.10153 54.5469 8.30097 52.4094 9.33471C51.3334 9.88702 50.4675 10.7762 49.9441 11.8667C49.4206 12.9571 49.2683 14.1888 49.5103 15.3739C49.566 15.6455 49.5508 15.9268 49.4664 16.1909C49.3819 16.4549 49.231 16.6928 49.028 16.8817C48.8251 17.0706 48.577 17.2041 48.3076 17.2695C48.0381 17.3348 47.7564 17.3298 47.4895 17.2548C44.8391 16.5242 42.9038 16.5631 41.9089 17.3636C40.914 18.1642 40.813 19.6953 40.8752 20.9156C40.8942 21.3473 40.7412 21.7689 40.4498 22.088C40.1584 22.4071 39.7523 22.5976 39.3207 22.6178L39.2585 22.61Z" fill="#17262F"></path><path d="M99.8057 27.2035C99.9655 26.8219 100.028 26.4065 99.9874 25.9948C99.9468 25.5831 99.8045 25.1879 99.5732 24.8448C99.342 24.5018 99.029 24.2216 98.6626 24.0296C98.2961 23.8376 97.8877 23.7397 97.474 23.7447H29.5352C29.3783 23.7466 29.222 23.7648 29.0689 23.7992L18.3818 5.44068L18.3118 5.33964C17.9471 4.802 17.5554 4.28318 17.1382 3.78516L17.0993 3.69189C16.2469 2.71784 15.2603 1.86993 14.1691 1.17362C13.0695 0.516423 11.8488 0.0873071 10.5799 -0.0881514C9.31089 -0.26361 8.01958 -0.181821 6.78288 0.152343C5.54619 0.486506 4.38942 1.0662 3.3815 1.85689C2.37359 2.64758 1.53516 3.63308 0.916179 4.75466C0.297197 5.87624 -0.0896707 7.11095 -0.221369 8.38521C-0.353068 9.65946 -0.226903 10.9472 0.149608 12.1717C0.526119 13.3961 1.14527 14.5323 1.97017 15.5124C2.79506 16.4925 3.80882 17.2965 4.95103 17.8766C5.13731 17.9786 5.34186 18.043 5.55302 18.066C5.76417 18.089 5.9778 18.0702 6.18169 18.0107C6.38558 17.9512 6.57574 17.852 6.74133 17.719C6.90691 17.586 7.04467 17.4216 7.14674 17.2353C7.24881 17.0491 7.31319 16.8445 7.3362 16.6334C7.35922 16.4222 7.34042 16.2086 7.28087 16.0047C7.22133 15.8008 7.12221 15.6106 6.98917 15.445C6.85614 15.2795 6.69179 15.1417 6.50551 15.0396C5.06151 14.2242 3.997 12.8727 3.54266 11.2778C3.08832 9.68294 3.28077 7.97328 4.07829 6.51934C4.87581 5.06539 6.21416 3.98429 7.8033 3.51032C9.39244 3.03636 11.1043 3.20771 12.568 3.98724C13.2853 4.47598 13.945 5.0444 14.5344 5.68163C14.5559 5.7185 14.582 5.75246 14.6122 5.78267C14.9541 6.19461 15.2884 6.62209 15.607 7.07289L27.2035 27.0247C27.1997 27.0842 27.1997 27.1439 27.2035 27.2035C27.2315 27.2646 27.2626 27.3243 27.2967 27.3822L41.2871 51.3679C41.6902 52.2746 42.3425 53.0481 43.1681 53.5985C43.9937 54.1489 44.9586 54.4535 45.9506 54.4769L49.6813 55.0521C49.4304 56.1144 49.3 57.2016 49.2927 58.2932C49.1433 62.0634 50.4977 65.7386 53.058 68.5103C55.6182 71.2819 59.1747 72.923 62.945 73.0724C66.7152 73.2219 70.3904 71.8675 73.1621 69.3072C75.9337 66.7469 77.5748 63.1904 77.7242 59.4202L80.7322 59.8865H80.9809C81.9956 59.8893 82.9893 59.5969 83.8408 59.0449C84.6923 58.4929 85.3648 57.7051 85.7765 56.7775L96.6579 33.9344L99.8057 27.2035ZM63.5162 69.2523C60.6088 69.2482 57.8213 68.093 55.7632 66.0393C53.7052 63.9856 52.5441 61.2006 52.5338 58.2932C52.5266 56.8475 52.8056 55.4146 53.3546 54.0772C53.9036 52.7397 54.7117 51.5242 55.7326 50.5004C56.7534 49.4767 57.9667 48.6651 59.3026 48.1123C60.6385 47.5595 62.0705 47.2766 63.5162 47.2796C66.3254 47.2815 69.0271 48.3598 71.0655 50.2928C73.104 52.2257 74.3243 54.8663 74.4754 57.6714C74.4754 57.8657 74.4754 58.0678 74.4754 58.2621C74.4713 61.1702 73.3163 63.9586 71.2629 66.0178C69.2094 68.0771 66.4244 69.24 63.5162 69.2523ZM82.7841 55.4485C82.6376 55.7925 82.3975 56.0886 82.0911 56.303C81.7847 56.5173 81.4243 56.6414 81.0508 56.661L77.5766 56.1169C77.5766 55.977 77.5221 55.8526 77.4988 55.7205C77.4444 55.4096 77.39 55.1065 77.3123 54.8034C77.3123 54.6401 77.219 54.4847 77.1646 54.3215C77.1102 54.1582 77.0169 53.8007 76.9314 53.5442C76.846 53.2877 76.7993 53.21 76.7294 53.039C76.6594 52.868 76.5428 52.5727 76.4418 52.3395C76.3407 52.1063 76.2708 52.0053 76.1853 51.8343C76.0998 51.6633 75.9677 51.4068 75.8433 51.1969C75.7189 50.9871 75.649 50.8705 75.548 50.7073C75.4469 50.5441 75.2915 50.3031 75.1516 50.1088C75.0117 49.9145 74.9262 49.7979 74.8096 49.6502L74.3665 49.0984C74.2422 48.9507 74.1101 48.8108 73.9779 48.6631C73.8458 48.5155 73.6593 48.3211 73.496 48.1579L73.0608 47.7304L72.5323 47.2719L72.0737 46.9143L71.5063 46.5024L71.0244 46.1837C70.8223 46.0594 70.6202 45.9428 70.4104 45.834C70.2005 45.7252 70.0762 45.6397 69.9052 45.5542C69.7342 45.4687 69.4621 45.3521 69.2445 45.251L68.716 45.0256L68.0165 44.7769L67.488 44.6059C67.2289 44.5334 66.9698 44.4712 66.7107 44.4194L66.1977 44.3028C65.9024 44.2484 65.607 44.2095 65.3117 44.1784L64.8686 44.1163C64.4194 44.0695 63.9679 44.0462 63.5162 44.0463C63.1587 44.0463 62.809 44.0619 62.467 44.093H62.125C61.8918 44.093 61.6586 44.1396 61.4332 44.1784L61.0368 44.2484L60.415 44.3728L60.0031 44.4738L59.4202 44.637L59.0082 44.7691L58.4486 44.9712L58.0445 45.1345L57.5082 45.3754L57.1118 45.5697C56.9408 45.6552 56.762 45.7485 56.591 45.8495C56.42 45.9506 56.3423 45.9894 56.2257 46.0594C56.0491 46.1591 55.8778 46.268 55.7127 46.3858L55.363 46.6112L54.8578 46.9843L54.5546 47.2252C54.3759 47.3651 54.2127 47.5128 54.0417 47.6605L53.7852 47.8937C53.5986 48.0724 53.4199 48.2512 53.2411 48.4377L53.0623 48.6165C52.5895 49.1246 52.1556 49.6676 51.7643 50.2409L51.6478 50.4197C51.5001 50.6451 51.3524 50.8783 51.2125 51.1115L51.0493 51.4146C50.956 51.5778 50.8627 51.741 50.7772 51.9042L46.3314 51.2125C46.2487 51.2048 46.1654 51.2048 46.0827 51.2125C45.6901 51.2109 45.3066 51.0945 44.9793 50.8777C44.652 50.6609 44.3952 50.3531 44.2406 49.9922L44.1551 49.8212L31.1363 27.4988C31.1028 27.3627 31.0505 27.2319 30.9809 27.1102L30.9109 26.9858H96.3236L94.0852 31.6882H71.3819C71.1597 31.6728 70.9366 31.7032 70.7267 31.7777C70.5167 31.8522 70.3243 31.969 70.1614 32.121C69.9985 32.273 69.8686 32.4569 69.7798 32.6612C69.691 32.8655 69.6452 33.0859 69.6452 33.3087C69.6452 33.5315 69.691 33.7519 69.7798 33.9562C69.8686 34.1605 69.9985 34.3444 70.1614 34.4964C70.3243 34.6484 70.5167 34.7653 70.7267 34.8397C70.9366 34.9142 71.1597 34.9447 71.3819 34.9293H92.5462L82.7841 55.4485Z" fill="#17262F"></path></g><defs><clipPath id="clip0_5678_33201"><rect width="100" height="72.4934" fill="white"></rect></clipPath></defs></svg>