<svg xmlns="http://www.w3.org/2000/svg" width="83" height="90" viewBox="0 0 83 90" fill="none"><g clip-path="url(#clip0_5678_33644)"><path d="M82.0042 0.529882C81.7309 0.255138 81.3764 0.0758245 80.9931 0.0185606C80.6099 -0.0387033 80.2184 0.029135 79.8768 0.212005C70.096 5.3551 63.013 6.24352 54.8216 7.27051C51.5613 7.67804 48.1951 8.08558 44.4457 8.82729C3.93677 17.3774 6.35753 42.4326 7.27041 51.8548C7.66779 55.9986 8.53461 60.0838 9.85418 64.032C10.0271 64.4684 10.3608 64.822 10.7866 65.0198C11.2123 65.2175 11.6977 65.2445 12.1428 65.0951C12.5878 64.9457 12.9587 64.6313 13.1789 64.2167C13.399 63.8021 13.4518 63.3188 13.3264 62.8664C12.0777 59.1883 11.2572 55.3785 10.8812 51.5125C9.97644 42.1636 7.86541 20.279 45.1141 12.3891C48.7086 11.6882 52.0177 11.2725 55.2128 10.8731C62.1654 10.001 68.7837 9.17777 76.9589 5.61592C73.234 15.3234 72.8346 24.8516 72.476 33.4179C71.9869 44.9593 71.5631 54.9276 63.877 63.4125C49.3688 79.4123 26.938 74.5219 19.3497 72.2479C21.7379 68.9876 24.4113 65.0182 27.4352 60.3234C28.0058 59.4431 28.56 58.5465 29.1306 57.6418C34.1759 49.6297 39.8814 40.5254 58.1715 25.9193C58.5498 25.6167 58.7924 25.1761 58.8459 24.6947C58.8994 24.2132 58.7594 23.7301 58.4568 23.3518C58.1542 22.9735 57.7136 22.731 57.2321 22.6775C56.7506 22.624 56.2676 22.7639 55.8893 23.0666C37.1427 38.0801 31.2335 47.4371 26.0415 55.6693C25.4709 56.5659 24.9248 57.4462 24.3624 58.3183C11.1583 78.8336 4.8904 84.2131 0.888412 86.6094C0.545885 86.8152 0.280348 87.1277 0.132538 87.499C-0.0152722 87.8703 -0.0371907 88.2798 0.070145 88.6647C0.177481 89.0497 0.408142 89.3887 0.726742 89.63C1.04534 89.8712 1.43428 90.0012 1.83389 90.0001C2.1644 90.0012 2.48879 89.9109 2.77122 89.7393C6.0315 87.8075 10.1802 84.4332 17.0512 75.3533C23.2258 77.3309 29.665 78.3587 36.1483 78.4016C46.027 78.4016 57.6336 75.7445 66.583 65.8496C75.1657 56.3866 75.6303 45.2935 76.1275 33.5484C76.5513 23.5556 76.9426 13.2124 82.3546 2.65721C82.5309 2.31164 82.5919 1.91874 82.5289 1.53597C82.4658 1.15321 82.2819 0.800659 82.0042 0.529882Z" fill="#17262F"></path></g><defs><clipPath id="clip0_5678_33644"><rect width="82.5503" height="90" fill="white"></rect></clipPath></defs></svg>