<svg xmlns="http://www.w3.org/2000/svg" width="107" height="100" viewBox="0 0 107 100" fill="none"><g clip-path="url(#clip0_5678_16775)"><path d="M43.7687 29.1472C43.5889 28.9877 43.4783 28.7645 43.4604 28.5249C43.4425 28.2853 43.5187 28.0481 43.6728 27.8637C43.7444 27.7641 43.8369 27.6813 43.9439 27.6213C44.0509 27.5613 44.1698 27.5254 44.2921 27.5163C44.4145 27.5071 44.5373 27.5249 44.6521 27.5684C44.7668 27.6118 44.8706 27.6799 44.9562 27.7678L93.067 67.7702C93.2596 67.9199 93.387 68.1381 93.4228 68.3794C93.4585 68.6207 93.3999 68.8665 93.259 69.0656L76.0705 85.0666C75.8573 85.1744 75.625 85.2396 75.3868 85.2585L65.5032 85.1625C65.2678 85.1625 65.042 85.069 64.8755 84.9025C64.7091 84.7361 64.6156 84.5103 64.6156 84.2749L65.2993 77.3539L58.3903 77.4619C58.1445 77.4659 57.9063 77.3765 57.7238 77.2117C57.5412 77.047 57.428 76.8192 57.4067 76.5743L58.0904 69.5694L51.1815 69.7613C51.0639 69.7629 50.9472 69.7411 50.8381 69.6972C50.729 69.6533 50.6298 69.5882 50.5461 69.5056C50.4624 69.423 50.3959 69.3246 50.3506 69.2161C50.3052 69.1077 50.2819 68.9912 50.2819 68.8737L50.8816 61.8568L44.0686 62.0607C43.9356 62.0695 43.8022 62.0498 43.6774 62.0029C43.5526 61.956 43.4393 61.883 43.345 61.7887C43.2507 61.6944 43.1777 61.5811 43.1308 61.4563C43.0839 61.3315 43.0642 61.1981 43.073 61.0651L43.7687 54.1562L36.8478 54.2521C36.602 54.2561 36.3638 54.1667 36.1812 54.0019C35.9987 53.8372 35.8854 53.6094 35.8642 53.3645C35.8671 53.2405 35.8952 53.1184 35.9469 53.0057C35.9986 52.8929 36.0728 52.7919 36.1648 52.7089C36.2569 52.6258 36.365 52.5623 36.4824 52.5225C36.5998 52.4826 36.7242 52.4671 36.8478 52.4769C39.4147 52.3809 42.2814 52.177 44.8483 52.273C44.9696 52.2757 45.0889 52.3051 45.1976 52.3591C45.3063 52.4131 45.4018 52.4903 45.4773 52.5853C45.5529 52.6803 45.6066 52.7907 45.6347 52.9088C45.6628 53.0269 45.6646 53.1497 45.6399 53.2685L45.0522 60.1775L51.9731 59.9736C52.2192 59.992 52.4486 60.1045 52.6139 60.2876C52.7792 60.4708 52.8676 60.7105 52.8607 60.9572L52.165 67.8781L59.182 67.6742C59.426 67.7395 59.6432 67.8802 59.8026 68.0762C59.962 68.2722 60.0554 68.5135 60.0696 68.7657L59.3739 75.5667L66.3908 75.4708C66.5102 75.4758 66.6272 75.5063 66.7339 75.5602C66.8406 75.6141 66.9345 75.6901 67.0095 75.7832C67.0844 75.8763 67.1386 75.9843 67.1684 76.1001C67.1983 76.2158 67.203 76.3366 67.1824 76.4543L66.5947 83.3753H75.087L91.0879 68.4659L43.7687 29.1472ZM38.0353 50.5817C38.0233 50.6985 37.9883 50.8118 37.9323 50.915C37.8762 51.0182 37.8003 51.1093 37.7088 51.1829C37.6173 51.2566 37.5121 51.3113 37.3993 51.344C37.2865 51.3767 37.1684 51.3867 37.0517 51.3734C36.9272 51.3723 36.8042 51.3453 36.6906 51.2942C36.5771 51.2431 36.4753 51.169 36.3919 51.0765C36.3085 50.9841 36.2451 50.8753 36.2059 50.7571C36.1667 50.6389 36.1525 50.5138 36.1641 50.3898L36.5599 46.4315H35.9842C35.7488 46.4315 35.523 46.338 35.3565 46.1716C35.1901 46.0051 35.0966 45.7793 35.0966 45.5439C35.0867 45.4203 35.1022 45.296 35.1421 45.1785C35.182 45.0611 35.2454 44.9531 35.3285 44.861C35.4116 44.7689 35.5126 44.6948 35.6254 44.6431C35.7381 44.5914 35.8602 44.5632 35.9842 44.5604H37.6634C37.9084 44.5816 38.1362 44.6949 38.3009 44.8774C38.4656 45.0599 38.555 45.2981 38.551 45.5439L38.0353 50.5817ZM33.2973 44.6563C33.5432 44.6524 33.7814 44.7418 33.9639 44.9065C34.1464 45.0712 34.2597 45.299 34.2809 45.5439C34.278 45.6679 34.2499 45.79 34.1982 45.9028C34.1465 46.0155 34.0724 46.1165 33.9803 46.1996C33.8882 46.2827 33.7802 46.3461 33.6627 46.386C33.5453 46.4259 33.421 46.4414 33.2973 46.4315H33.2014C32.9535 46.4386 32.7123 46.3506 32.5272 46.1856C32.3421 46.0205 32.2272 45.791 32.2058 45.5439C32.2058 45.3085 32.2993 45.0828 32.4658 44.9163C32.6323 44.7498 32.858 44.6563 33.0934 44.6563H33.2973ZM30.5266 45.7478C30.4703 45.9483 30.3453 46.1226 30.1735 46.2403C30.0017 46.3579 29.794 46.4114 29.5867 46.3914C29.3794 46.3714 29.1858 46.2791 29.0397 46.1308C28.8936 45.9824 28.8042 45.7875 28.7873 45.5799L29.3751 38.671L22.5621 38.8629C22.4384 38.8727 22.3141 38.8572 22.1967 38.8173C22.0792 38.7774 21.9712 38.714 21.8791 38.6309C21.7871 38.5478 21.7129 38.4468 21.6612 38.3341C21.6095 38.2214 21.5814 38.0993 21.5785 37.9753L22.2622 30.9584L15.3173 31.1863C15.0701 31.1904 14.8305 31.1015 14.646 30.937C14.4616 30.7725 14.3458 30.5446 14.3217 30.2986L15.0174 23.2817L8.09644 23.4736C7.96578 23.4733 7.83671 23.4449 7.718 23.3903C7.59929 23.3357 7.49369 23.2562 7.40838 23.1573C7.32306 23.0583 7.26002 22.9422 7.22352 22.8167C7.18702 22.6912 7.17792 22.5594 7.19683 22.4301L7.79657 15.5092L0.983567 15.5931C0.860916 15.6029 0.737552 15.5878 0.620907 15.5486C0.504261 15.5095 0.39675 15.4471 0.30485 15.3653C0.212949 15.2835 0.138562 15.1839 0.0861703 15.0726C0.0337785 14.9612 0.00446641 14.8405 0 14.7175L0 14.6215L1.37939 5.52955C1.38777 5.41656 1.4186 5.30638 1.47009 5.20545C1.52158 5.10453 1.59269 5.0149 1.67926 4.9418L5.33765 1.58328C5.88614 1.05207 6.53682 0.63782 7.25023 0.365654C7.96363 0.0934871 8.72489 -0.0309198 9.48782 -2.0484e-05C11.0565 0.122931 12.5446 0.745058 13.734 1.7752L23.0179 9.4878C23.1216 9.55906 23.208 9.65274 23.2707 9.76191C23.3334 9.87107 23.3707 9.99293 23.3799 10.1185C23.3891 10.244 23.37 10.37 23.3239 10.4871C23.2779 10.6043 23.2061 10.7096 23.1138 10.7952C23.0423 10.8949 22.9497 10.9776 22.8427 11.0376C22.7357 11.0977 22.6168 11.1335 22.4945 11.1427C22.3722 11.1518 22.2493 11.134 22.1346 11.0906C22.0198 11.0471 21.916 10.9791 21.8304 10.8912L12.5465 3.16659C11.6777 2.37331 10.5555 1.91423 9.37987 1.87116C8.3692 1.85283 7.38715 2.20722 6.62109 2.86672L3.15461 6.12928L1.95514 13.7339C4.22214 13.7339 6.75303 13.542 8.8641 13.638C8.98864 13.6391 9.11158 13.6661 9.22516 13.7172C9.33873 13.7683 9.44046 13.8424 9.5239 13.9348C9.60733 14.0273 9.67066 14.1361 9.70988 14.2543C9.74909 14.3725 9.76334 14.4975 9.75171 14.6215L9.092 21.5905L16.0969 21.3866C16.338 21.4199 16.5599 21.5364 16.7242 21.716C16.8885 21.8956 16.9848 22.127 16.9965 22.3701L16.3008 29.2911C18.5798 29.1951 21.0387 29.0992 23.3177 29.0992C23.4419 29.1151 23.5616 29.1561 23.6695 29.2197C23.7773 29.2833 23.8711 29.3681 23.9452 29.4691C24.0192 29.5701 24.0719 29.685 24.1002 29.807C24.1284 29.929 24.1315 30.0555 24.1094 30.1787L23.5097 37.0037C25.6927 36.8957 28.3075 36.7998 30.4306 36.8957C30.5551 36.9002 30.6775 36.9298 30.7903 36.9828C30.903 37.0358 31.0039 37.1111 31.0869 37.2041C31.1698 37.2971 31.233 37.406 31.2728 37.5241C31.3126 37.6422 31.328 37.7671 31.3182 37.8913L30.5266 45.7478ZM25.093 13.638C24.9131 13.4786 24.8025 13.2554 24.7846 13.0157C24.7667 12.7761 24.8429 12.5389 24.997 12.3545C25.1446 12.1634 25.3597 12.0358 25.5983 11.9979C25.8368 11.96 26.0808 12.0146 26.2804 12.1506L27.36 13.0382C27.5443 13.1943 27.6591 13.417 27.6794 13.6576C27.6996 13.8983 27.6236 14.1371 27.4679 14.3217C27.3973 14.4221 27.3055 14.5059 27.1989 14.567C27.0924 14.6282 26.9738 14.6652 26.8514 14.6755C26.729 14.6858 26.6059 14.6691 26.4906 14.6266C26.3754 14.5841 26.2709 14.5169 26.1845 14.4296L25.093 13.638ZM28.6914 16.6007C28.5924 16.5178 28.5111 16.4158 28.4524 16.3008C28.3938 16.1858 28.3589 16.0602 28.35 15.9314C28.341 15.8026 28.3581 15.6733 28.4003 15.5513C28.4425 15.4293 28.5088 15.317 28.5954 15.2213C28.6753 15.1165 28.7764 15.0298 28.8922 14.9669C29.0079 14.9039 29.1356 14.8661 29.2669 14.8559C29.3983 14.8457 29.5303 14.8634 29.6544 14.9077C29.7784 14.9521 29.8917 15.0222 29.9868 15.1133L41.9815 25.2968C42.1644 25.4559 42.2767 25.6811 42.2936 25.9229C42.3104 26.1647 42.2305 26.4034 42.0715 26.5863C41.9124 26.7692 41.6872 26.8814 41.4454 26.8983C41.2036 26.9152 40.965 26.8353 40.7821 26.6762L28.6914 16.6007Z" fill="#17262F"></path><path d="M77.8577 85.7622C78.0065 85.9675 78.0773 86.219 78.0575 86.4718C78.0377 86.7245 77.9286 86.962 77.7498 87.1416C77.5654 87.2957 77.3282 87.3719 77.0886 87.354C76.849 87.3361 76.6258 87.2255 76.4664 87.0457L74.5952 85.0665C74.4411 84.8822 74.3649 84.645 74.3828 84.4054C74.4007 84.1657 74.5113 83.9425 74.6911 83.7831L91.8796 67.7701C92.0532 67.6065 92.2827 67.5154 92.5213 67.5154C92.7599 67.5154 92.9894 67.6065 93.163 67.7701L105.614 81.1083C106.48 82.103 106.938 83.3883 106.897 84.7067C106.879 85.3593 106.729 86.0016 106.457 86.5952C106.185 87.1887 105.796 87.7213 105.314 88.1612L94.0506 98.6446C93.5707 99.0935 93.0037 99.4391 92.3847 99.6599C91.7657 99.8807 91.1079 99.9719 90.4522 99.928C89.808 99.9083 89.1743 99.759 88.589 99.4891C88.0037 99.2191 87.4788 98.834 87.0457 98.3567L85.9542 97.1572C85.8608 97.0784 85.7857 96.9801 85.7342 96.8693C85.6827 96.7585 85.656 96.6377 85.656 96.5155C85.656 96.3933 85.6827 96.2725 85.7342 96.1617C85.7857 96.0509 85.8608 95.9526 85.9542 95.8738C86.1386 95.7197 86.3757 95.6435 86.6154 95.6614C86.855 95.6793 87.0782 95.7899 87.2376 95.9697L88.3291 97.0613C88.902 97.6583 89.683 98.0114 90.5097 98.0471C91.3363 98.0829 92.1449 97.7985 92.7672 97.2532L104.03 86.7818C104.347 86.5165 104.601 86.184 104.773 85.8085C104.945 85.433 105.031 85.0238 105.026 84.6107C105.06 84.1985 105.007 83.7836 104.871 83.3931C104.735 83.0025 104.518 82.645 104.234 82.3437L92.4793 69.7493L76.5623 84.4668L77.8577 85.7622ZM85.2585 93.8587C85.4287 94.0304 85.5237 94.2628 85.5225 94.5046C85.5214 94.7464 85.4243 94.9779 85.2525 95.1481C85.0807 95.3183 84.8483 95.4133 84.6065 95.4122C84.3647 95.411 84.1332 95.3139 83.9631 95.1421L80.1247 90.9919C80.0313 90.9131 79.9562 90.8148 79.9047 90.704C79.8532 90.5932 79.8266 90.4724 79.8266 90.3502C79.8266 90.228 79.8532 90.1072 79.9047 89.9964C79.9562 89.8856 80.0313 89.7873 80.1247 89.7085C80.2133 89.6145 80.3202 89.5395 80.4388 89.4883C80.5574 89.4371 80.6852 89.4107 80.8144 89.4107C80.9436 89.4107 81.0715 89.4371 81.1901 89.4883C81.3087 89.5395 81.4155 89.6145 81.5041 89.7085L85.2585 93.8587ZM79.7289 87.8613C79.884 88.0633 79.9599 88.3151 79.9422 88.5692C79.9245 88.8232 79.8145 89.0621 79.633 89.2407C79.4486 89.3948 79.2114 89.471 78.9718 89.4531C78.7321 89.4352 78.5089 89.3245 78.3495 89.1447L78.1456 88.9408C77.9971 88.7541 77.9245 88.5182 77.9423 88.2803C77.9601 88.0424 78.0669 87.82 78.2416 87.6574C78.4158 87.4903 78.6479 87.3969 78.8893 87.3969C79.1307 87.3969 79.3628 87.4903 79.537 87.6574L79.7289 87.8613Z" fill="#17262F"></path><path d="M94.2545 78.3494C94.1611 78.2706 94.086 78.1723 94.0345 78.0615C93.983 77.9506 93.9563 77.8299 93.9563 77.7077C93.9563 77.5855 93.983 77.4647 94.0345 77.3539C94.086 77.243 94.1611 77.1448 94.2545 77.066C94.4267 76.8996 94.6568 76.8066 94.8962 76.8066C95.1357 76.8066 95.3658 76.8996 95.538 77.066L95.7299 77.2579C95.8242 77.3475 95.8994 77.4554 95.9507 77.575C96.0021 77.6946 96.0285 77.8234 96.0285 77.9536C96.0285 78.0837 96.0021 78.2125 95.9507 78.3321C95.8994 78.4517 95.8242 78.5596 95.7299 78.6493C95.5246 78.798 95.2731 78.8688 95.0203 78.849C94.7676 78.8292 94.5301 78.7202 94.3505 78.5413L94.2545 78.3494ZM96.2337 80.5204C96.0891 80.3456 96.0149 80.1231 96.0257 79.8965C96.0364 79.6699 96.1312 79.4554 96.2916 79.295C96.4521 79.1346 96.6665 79.0397 96.8931 79.029C97.1198 79.0183 97.3422 79.0924 97.5171 79.237L101.559 83.5791C101.726 83.7513 101.819 83.9814 101.819 84.2208C101.819 84.4602 101.726 84.6903 101.559 84.8625L100.36 85.8581C100.28 85.9517 100.181 86.0269 100.069 86.0785C99.9569 86.1301 99.8353 86.1568 99.7121 86.1568C99.589 86.1568 99.4673 86.1301 99.3555 86.0785C99.2437 86.0269 99.1444 85.9517 99.0644 85.8581C98.9146 85.671 98.8423 85.4336 98.8624 85.1948C98.8825 84.956 98.9934 84.7341 99.1724 84.5747L99.5682 84.1788L96.2337 80.5204ZM97.3132 86.2539C97.4018 86.1599 97.5086 86.085 97.6273 86.0337C97.7459 85.9825 97.8737 85.9561 98.0029 85.9561C98.1321 85.9561 98.2599 85.9825 98.3785 86.0337C98.4971 86.085 98.604 86.1599 98.6926 86.2539C98.7725 86.3459 98.8335 86.4527 98.872 86.5684C98.9105 86.684 98.9257 86.8061 98.9168 86.9276C98.9079 87.0491 98.875 87.1677 98.82 87.2765C98.7651 87.3852 98.6891 87.482 98.5966 87.5613L90.896 94.7582C90.7035 94.9269 90.4563 95.0199 90.2003 95.0199C89.9443 95.0199 89.6971 94.9269 89.5046 94.7582L81.2163 85.7621C81.0642 85.5746 80.9895 85.3361 81.0073 85.0954C81.0252 84.8546 81.1342 84.6298 81.3122 84.4667L91.9755 74.595C92.1477 74.4287 92.3778 74.3357 92.6172 74.3357C92.8567 74.3357 93.0868 74.4287 93.259 74.595L93.8587 75.2787C94.0107 75.4663 94.0854 75.7047 94.0676 75.9455C94.0498 76.1862 93.9407 76.4111 93.7627 76.5742C93.5955 76.7169 93.3829 76.7954 93.163 76.7954C92.9431 76.7954 92.7305 76.7169 92.5633 76.5742L83.2913 85.1624L90.2963 92.767L97.3132 86.2539Z" fill="#17262F"></path><path d="M49.1064 40.5062C48.9128 40.3603 48.7833 40.145 48.7453 39.9056C48.7072 39.6662 48.7636 39.4214 48.9025 39.2227C48.9753 39.1248 49.0684 39.0437 49.1753 38.9848C49.2822 38.926 49.4006 38.8909 49.5223 38.8818C49.644 38.8727 49.7663 38.8898 49.8808 38.9321C49.9952 38.9744 50.0993 39.0408 50.1859 39.1268L82.2958 65.5152C82.4787 65.6742 82.5909 65.8994 82.6078 66.1412C82.6247 66.3831 82.5448 66.6217 82.3857 66.8046C82.2267 66.9875 82.0015 67.0998 81.7597 67.1166C81.5178 67.1335 81.2792 67.0536 81.0963 66.8946L49.1064 40.5062Z" fill="#17262F"></path><path d="M55.7275 56.2192C55.543 56.0601 55.4292 55.8343 55.4112 55.5914C55.4023 55.4711 55.4172 55.3502 55.455 55.2356C55.4928 55.1211 55.5528 55.0151 55.6315 54.9238C55.7103 54.8324 55.8063 54.7574 55.914 54.7032C56.0217 54.6489 56.1391 54.6164 56.2594 54.6075C56.5023 54.5895 56.7424 54.6687 56.9269 54.8278L69.7733 65.4071C69.9562 65.5662 70.0685 65.7914 70.0853 66.0332C70.1022 66.2751 70.0223 66.5137 69.8633 66.6966C69.7042 66.8795 69.479 66.9917 69.2372 67.0086C68.9954 67.0255 68.7567 66.9456 68.5738 66.7865L55.7275 56.2192Z" fill="#17262F"></path></g><defs><clipPath id="clip0_5678_16775"><rect width="106.909" height="100" fill="white"></rect></clipPath></defs></svg>