<svg xmlns="http://www.w3.org/2000/svg" width="120" height="77" viewBox="0 0 120 77" fill="none"><g clip-path="url(#clip0_5678_16810)"><path d="M35.0468 18.7229C34.8086 18.8236 34.5425 18.837 34.2954 18.7608C34.0483 18.6846 33.836 18.5236 33.6959 18.3063C33.6218 18.1937 33.5729 18.0665 33.5525 17.9333C33.5322 17.8001 33.5409 17.664 33.5781 17.5345C33.6153 17.405 33.68 17.285 33.7679 17.1829C33.8558 17.0808 33.9648 16.9988 34.0873 16.9428C35.2408 16.2814 36.4293 15.6829 37.6475 15.15L41.435 13.5845C41.6847 13.5157 41.9509 13.5406 42.1835 13.6546C42.4161 13.7685 42.5989 13.9637 42.6975 14.2032L42.7985 14.4178L46.3335 44.9827H71.3309C71.463 44.9705 71.5963 44.9858 71.7223 45.0277C71.8482 45.0697 71.9641 45.1372 72.0626 45.2262C72.161 45.3152 72.24 45.4237 72.2944 45.5448C72.3488 45.6658 72.3776 45.7969 72.3787 45.9296C72.3862 46.0686 72.3641 46.2076 72.3139 46.3374C72.2636 46.4672 72.1865 46.5849 72.0875 46.6827C71.9885 46.7806 71.8698 46.8563 71.7394 46.9049C71.609 46.9535 71.4698 46.974 71.3309 46.9649H45.4497C45.1935 46.9559 44.9485 46.8576 44.7571 46.687C44.5657 46.5164 44.44 46.2841 44.4019 46.0306L40.8669 15.9075C40.0337 16.2231 39.314 16.6398 38.4808 16.9428C37.3319 17.473 36.1831 18.0916 35.0468 18.7229ZM80.3829 17.8896C80.3336 18.1487 80.1873 18.3792 79.9738 18.5341C79.7602 18.689 79.4957 18.7565 79.2341 18.7229C79.1078 18.7158 78.9845 18.6821 78.8722 18.6241C78.7599 18.566 78.6612 18.4848 78.5825 18.3858C78.5038 18.2868 78.4469 18.1723 78.4156 18.0498C78.3843 17.9273 78.3793 17.7996 78.4008 17.675L78.8175 14.4556C78.8245 14.3294 78.8582 14.2061 78.9163 14.0938C78.9744 13.9815 79.0556 13.8827 79.1545 13.804C79.2535 13.7253 79.368 13.6685 79.4905 13.6372C79.613 13.6059 79.7407 13.6008 79.8653 13.6224C79.9202 13.6153 79.9759 13.6206 80.0284 13.6381C80.0809 13.6556 80.1287 13.6848 80.1683 13.7234C91.0422 17.6685 100.419 24.9004 106.996 34.4157C113.564 43.9746 117.049 55.3147 116.983 66.9122C116.96 67.1701 116.841 67.4098 116.649 67.5832C116.457 67.7566 116.206 67.8507 115.947 67.8465H60.7259C60.4781 67.8465 60.2405 67.7481 60.0653 67.5729C59.8901 67.3976 59.7917 67.16 59.7917 66.9122C59.7875 66.6535 59.8816 66.4028 60.055 66.2107C60.2283 66.0186 60.4681 65.8993 60.7259 65.877H115.013C114.834 55.062 111.508 44.5334 105.443 35.5772C99.273 26.7227 90.6316 19.8816 80.5976 15.9075L80.3829 17.8896ZM6.31246 66.6597C6.29468 66.9285 6.1799 67.1816 5.98948 67.372C5.79905 67.5624 5.54593 67.6772 5.27721 67.695C5.0194 67.6727 4.77964 67.5534 4.60627 67.3613C4.4329 67.1692 4.33881 66.9185 4.34297 66.6597C4.34165 61.0177 5.19292 55.4078 6.86795 50.0201C8.47706 44.6415 10.9317 39.5531 14.1399 34.9459C14.2083 34.8285 14.3005 34.7266 14.4107 34.647C14.5208 34.5674 14.6464 34.5118 14.7794 34.4837C14.9124 34.4557 15.0498 34.4558 15.1827 34.4841C15.3156 34.5124 15.4411 34.5683 15.5511 34.6482C15.6611 34.728 15.7531 34.83 15.8213 34.9476C15.8894 35.0652 15.9321 35.1958 15.9466 35.3309C15.9612 35.466 15.9472 35.6027 15.9057 35.7321C15.8641 35.8615 15.7959 35.9808 15.7054 36.0822C12.6576 40.5528 10.3077 45.4612 8.73644 50.6387C7.08788 55.8176 6.26975 61.2249 6.31246 66.6597ZM18.9374 31.8149C18.8617 31.9189 18.7645 32.0053 18.6524 32.0684C18.5404 32.1315 18.4161 32.1697 18.2879 32.1805C18.1598 32.1913 18.0308 32.1743 17.9098 32.1309C17.7888 32.0874 17.6785 32.0184 17.5865 31.9286C17.3844 31.7709 17.2498 31.5424 17.21 31.2892C17.1701 31.036 17.228 30.7771 17.3719 30.5651C18.7354 29.0164 20.0905 27.5645 21.4371 26.2095C22.889 24.846 25.3887 22.5609 26.8406 21.3236C27.0331 21.1562 27.2843 21.0721 27.5388 21.0899C27.7933 21.1076 28.0304 21.2258 28.1978 21.4183C28.3652 21.6108 28.4493 21.862 28.4315 22.1165C28.4138 22.371 28.2956 22.6081 28.1031 22.7755C26.6512 24.038 24.3156 26.3105 22.9016 27.6613C21.4785 28.945 20.1533 30.3335 18.9374 31.8149Z" fill="#17262F"></path><path d="M77.0121 46.1694C76.9549 46.4243 76.8066 46.6496 76.5951 46.803C76.3836 46.9564 76.1234 47.0274 75.8633 47.0026C75.6056 46.9506 75.3769 46.8035 75.2225 46.5907C75.0682 46.3779 74.9995 46.1149 75.03 45.8538L76.646 32.4461C76.6924 32.188 76.8363 31.9576 77.0477 31.8025C77.2592 31.6475 77.5221 31.5795 77.7823 31.6128C77.9052 31.6254 78.0245 31.6622 78.1331 31.7212C78.2417 31.7802 78.3376 31.8602 78.4151 31.9565C78.4926 32.0527 78.5502 32.1635 78.5846 32.2822C78.619 32.4009 78.6295 32.5253 78.6155 32.6481L77.0121 46.1694ZM78.8806 29.9463C78.849 30.1944 78.7217 30.4203 78.526 30.5759C78.3303 30.7316 78.0816 30.8046 77.8328 30.7796C77.5749 30.7573 77.3352 30.638 77.1618 30.4459C76.9884 30.2538 76.8943 30.0031 76.8985 29.7443L77.1636 27.7749C77.2014 27.5234 77.3252 27.2927 77.514 27.1224C77.7028 26.952 77.9448 26.8524 78.1989 26.8406C78.4578 26.86 78.6994 26.9783 78.8733 27.1711C79.0473 27.3639 79.1403 27.6163 79.1331 27.8759L78.8806 29.9463ZM79.6507 23.9874C79.6043 24.2446 79.46 24.4738 79.2481 24.6269C79.0362 24.7799 78.7733 24.8448 78.5145 24.808C78.3915 24.7954 78.2723 24.7586 78.1637 24.6996C78.055 24.6406 77.9592 24.5607 77.8817 24.4644C77.8042 24.3681 77.7466 24.2574 77.7122 24.1386C77.6778 24.0199 77.6672 23.8956 77.6813 23.7727C78.6155 16.5008 79.4487 9.1152 80.282 1.83062H41.1447L46.1947 44.9826H69.4372C69.5609 44.9826 69.6835 45.0072 69.7976 45.0549C69.9118 45.1027 70.0154 45.1726 70.1023 45.2607C70.1892 45.3488 70.2578 45.4533 70.304 45.5681C70.3502 45.6829 70.3731 45.8058 70.3714 45.9295C70.3818 46.0596 70.3654 46.1905 70.3235 46.3141C70.2815 46.4377 70.2147 46.5514 70.1273 46.6483C70.0398 46.7453 69.9335 46.8233 69.8148 46.8777C69.6962 46.9321 69.5677 46.9617 69.4372 46.9647H45.4498C45.2083 46.9587 44.9753 46.874 44.7863 46.7237C44.5972 46.5733 44.4622 46.3654 44.4019 46.1315L39.1373 0.934245C39.1591 0.682926 39.2729 0.448513 39.457 0.276061C39.6411 0.103609 39.8825 0.00528964 40.1347 0L81.4182 0C81.5493 0.0011751 81.6787 0.029554 81.7983 0.0833399C81.9178 0.137126 82.0249 0.215147 82.1127 0.312463C82.2005 0.409779 82.2672 0.524269 82.3085 0.648686C82.3497 0.773102 82.3647 0.904733 82.3525 1.03524C81.4182 8.73645 80.5976 16.324 79.6507 24.0252V23.9874Z" fill="#17262F"></path><path d="M30.6786 67.7959C30.4308 67.7959 30.1932 67.6974 30.018 67.5222C29.8428 67.347 29.7444 67.1094 29.7444 66.8616C29.7402 66.6029 29.8343 66.3522 30.0077 66.16C30.181 65.9679 30.4208 65.8487 30.6786 65.8264H31.5624C31.8311 65.8441 32.0842 65.9589 32.2746 66.1493C32.465 66.3398 32.5798 66.5929 32.5976 66.8616C32.5753 67.1194 32.456 67.3592 32.2639 67.5325C32.0718 67.7059 31.8211 67.8 31.5624 67.7959H30.6786ZM35.1478 67.7959C34.9086 67.7962 34.6783 67.7047 34.5045 67.5403C34.3306 67.3759 34.2265 67.151 34.2136 66.9121C34.2094 66.6534 34.3035 66.4027 34.4769 66.2105C34.6503 66.0184 34.89 65.8992 35.1478 65.8769H45.2478C45.5056 65.8992 45.7453 66.0184 45.9187 66.2105C46.0921 66.4027 46.1862 66.6534 46.182 66.9121C46.182 67.1599 46.0836 67.3975 45.9084 67.5727C45.7332 67.7479 45.4956 67.8464 45.2478 67.8464L35.1478 67.7959ZM48.7701 67.7959C48.5224 67.7959 48.2847 67.6974 48.1095 67.5222C47.9343 67.347 47.8359 67.1094 47.8359 66.8616C47.8317 66.6029 47.9258 66.3522 48.0992 66.16C48.2726 65.9679 48.5123 65.8487 48.7701 65.8264H115.947C116.977 65.8166 117.974 66.185 118.75 66.8616C119.146 67.1916 119.464 67.6048 119.683 68.0717C119.901 68.5387 120.013 69.0479 120.013 69.5633V72.8963C120.024 73.3989 119.915 73.8968 119.695 74.3491C119.476 74.8013 119.152 75.1948 118.75 75.4971C117.974 76.1737 116.977 76.542 115.947 76.5323H4.05262C3.02788 76.5366 2.03642 76.1688 1.26251 75.4971C0.860878 75.1948 0.536923 74.8013 0.317401 74.3491C0.0978796 73.8968 -0.0109103 73.3989 1.64109e-05 72.8963V69.5633C0.00650888 69.0565 0.122722 68.557 0.340662 68.0993C0.558602 67.6417 0.873096 67.2366 1.26251 66.9121C2.03969 66.2375 3.03616 65.8695 4.06525 65.8769H26.7901C27.0569 65.8867 27.3093 66.0005 27.4933 66.194C27.6773 66.3874 27.7783 66.6452 27.7749 66.9121C27.7749 67.1599 27.6764 67.3975 27.5012 67.5727C27.326 67.7479 27.0884 67.8464 26.8406 67.8464H4.11575C3.54656 67.8222 2.98595 67.9913 2.525 68.3261C2.35288 68.4875 2.2167 68.6833 2.12534 68.9008C2.03397 69.1184 1.98948 69.3527 1.99476 69.5886V72.9216C2.01493 73.359 2.2052 73.7713 2.525 74.0704C2.97342 74.4056 3.51803 74.5872 4.07787 74.5881H115.947C116.511 74.5872 117.06 74.4058 117.513 74.0704C117.824 73.7662 118.009 73.356 118.031 72.9216V69.5633C118.043 69.3461 118.003 69.1291 117.912 68.9312C117.822 68.7332 117.685 68.5601 117.513 68.4271C117.308 68.2215 117.064 68.0596 116.795 67.9511C116.526 67.8426 116.237 67.7898 115.947 67.7959H48.7701Z" fill="#17262F"></path><path d="M66.0284 19.8591C66.6142 19.8628 67.1933 19.9844 67.7312 20.2164C68.2691 20.4485 68.7548 20.7864 69.1594 21.21C69.9902 22.0384 70.4696 23.1554 70.4976 24.3284C70.4924 25.5394 70.0118 26.7 69.1594 27.5603C68.3038 28.3476 67.1908 28.7964 66.0284 28.8228C64.8402 28.794 63.7002 28.3469 62.8091 27.5603C62.013 26.6701 61.5647 25.5225 61.5466 24.3284C61.5861 23.1725 62.0333 22.0678 62.8091 21.21C63.2301 20.7837 63.7314 20.4449 64.2839 20.2131C64.8364 19.9813 65.4293 19.861 66.0284 19.8591ZM67.7959 22.5609C67.3041 22.1296 66.6816 21.8761 66.0284 21.8412C65.3678 21.8407 64.7333 22.099 64.2609 22.5609C63.7991 23.0332 63.5407 23.6677 63.5413 24.3284C63.5413 24.998 63.8073 25.6403 64.2809 26.1138C64.7544 26.5873 65.3966 26.8533 66.0663 26.8533C66.3955 26.8598 66.7225 26.7981 67.0266 26.6721C67.3308 26.5461 67.6056 26.3585 67.8338 26.1211C68.3003 25.6508 68.5632 25.016 68.566 24.3536C68.522 23.7002 68.2647 23.0793 67.8338 22.5861L67.7959 22.5609Z" fill="#17262F"></path><path d="M49.6034 20.0737C49.5637 20.1989 49.499 20.3149 49.4132 20.4144C49.3275 20.514 49.2224 20.5951 49.1044 20.653C48.9864 20.7108 48.8579 20.7441 48.7267 20.7508C48.5954 20.7576 48.4642 20.7377 48.3409 20.6923C48.2123 20.6576 48.0927 20.5959 47.99 20.5112C47.8872 20.4266 47.8038 20.3209 47.7452 20.2014C47.6866 20.0818 47.6543 19.9511 47.6503 19.8181C47.6464 19.685 47.6709 19.5526 47.7222 19.4298C47.823 18.9686 47.9624 18.5168 48.1389 18.0789C48.6246 17.016 49.2168 16.0051 49.9064 15.0616C50.611 14.1327 51.4641 13.3264 52.4313 12.6755C52.6239 12.508 52.875 12.424 53.1295 12.4417C53.3841 12.4595 53.6211 12.5776 53.7885 12.7701C53.9559 12.9627 54.04 13.2138 54.0223 13.4684C54.0045 13.7229 53.8864 13.9599 53.6938 14.1273C52.8683 14.7509 52.1333 15.4859 51.5097 16.3114C50.8553 17.0873 50.3501 17.9776 50.02 18.9374C49.837 19.3029 49.6972 19.6885 49.6034 20.0863V20.0737ZM55.9158 12.7891C55.6677 12.8963 55.3874 12.9021 55.135 12.8054C54.8825 12.7087 54.678 12.517 54.565 12.2715C54.5139 12.1541 54.4871 12.0276 54.4863 11.8996C54.4854 11.7717 54.5106 11.6448 54.5601 11.5268C54.6097 11.4088 54.6827 11.3021 54.7746 11.2131C54.8666 11.1241 54.9756 11.0546 55.0952 11.009L55.3982 10.908C55.5142 10.8527 55.6405 10.8224 55.7689 10.8188C55.8974 10.8153 56.0251 10.8386 56.144 10.8874C56.2629 10.9361 56.3703 11.0092 56.4593 11.1019C56.5482 11.1945 56.6169 11.3048 56.6607 11.4256C56.7558 11.6508 56.766 11.9029 56.6894 12.1351C56.6128 12.3672 56.4546 12.5637 56.2441 12.6881L55.9158 12.7891ZM58.8322 11.9558C58.7094 11.9698 58.585 11.9593 58.4663 11.9249C58.3476 11.8905 58.2369 11.8329 58.1406 11.7554C58.0443 11.6779 57.9643 11.5821 57.9053 11.4734C57.8463 11.3648 57.8095 11.2456 57.7969 11.1226C57.7672 11.0006 57.7624 10.8739 57.7827 10.75C57.8031 10.6262 57.8482 10.5077 57.9154 10.4016C57.9825 10.2955 58.0704 10.2041 58.1737 10.1328C58.277 10.0614 58.3936 10.0116 58.5166 9.98635C58.9332 9.98635 59.2488 9.87273 59.6654 9.87273C60.0821 9.87273 60.3851 9.77173 60.7007 9.77173C62.5085 9.78399 64.2959 10.154 65.9601 10.8604C67.6242 11.5667 69.132 12.5955 70.3966 13.8875C71.6693 15.1553 72.6748 16.6655 73.3535 18.3287C74.0323 19.992 74.3705 21.7745 74.3482 23.5708C74.3608 25.3619 74.018 27.1378 73.3397 28.7956C72.6614 30.4534 71.6611 31.9602 70.3966 33.2289C67.8146 35.761 64.3424 37.1795 60.7259 37.1795C57.1095 37.1795 53.6373 35.761 51.0552 33.2289C49.7907 31.9602 48.7904 30.4534 48.1121 28.7956C47.4338 27.1378 47.0911 25.3619 47.1036 23.5708C47.0962 23.3099 47.1888 23.056 47.3625 22.8612C47.5362 22.6664 47.7778 22.5454 48.0379 22.5229C48.3099 22.5407 48.5662 22.6568 48.759 22.8496C48.9518 23.0424 49.0679 23.2987 49.0857 23.5708C49.0685 25.0993 49.363 26.6153 49.9513 28.0262C50.5395 29.4372 51.4091 30.7134 52.5071 31.777C53.5706 32.8794 54.8483 33.7526 56.2617 34.3432C57.6751 34.9337 59.1943 35.229 60.7259 35.211C63.8257 35.2177 66.802 33.9971 69.0045 31.816C71.2069 29.6348 72.4564 26.6704 72.4797 23.5708C72.4914 22.021 72.1958 20.4843 71.6101 19.0495C71.0243 17.6146 70.16 16.3101 69.067 15.2113C67.9741 14.1125 66.6742 13.2412 65.2425 12.6477C63.8108 12.0543 62.2757 11.7505 60.7259 11.7538L59.7917 11.8548C59.4769 11.8384 59.1615 11.8725 58.8574 11.9558H58.8322Z" fill="#17262F"></path><path d="M73.6286 62.6071C73.5048 62.6071 73.3823 62.5825 73.2681 62.5348C73.154 62.4871 73.0504 62.4171 72.9635 62.329C72.8766 62.2409 72.808 62.1365 72.7618 62.0216C72.7156 61.9068 72.6927 61.784 72.6944 61.6602C72.684 61.5301 72.7003 61.3993 72.7423 61.2757C72.7843 61.1521 72.8511 61.0383 72.9385 60.9414C73.026 60.8445 73.1323 60.7665 73.2509 60.712C73.3696 60.6576 73.4981 60.628 73.6286 60.625H108.675C108.95 60.625 109.213 60.7341 109.407 60.9282C109.602 61.1224 109.711 61.3857 109.711 61.6602C109.691 61.9203 109.573 62.1632 109.381 62.3392C109.189 62.5152 108.936 62.611 108.675 62.6071H73.6286Z" fill="#17262F"></path><path d="M89.536 55.8401C88.8038 55.8401 88.1852 55.4235 88.1852 54.9059C88.2407 54.5959 88.41 54.3179 88.66 54.1264C88.9099 53.9349 89.2223 53.8436 89.536 53.8706H100.999C101.313 53.8436 101.626 53.9349 101.876 54.1264C102.126 54.3179 102.295 54.5959 102.35 54.9059C102.35 55.4235 101.732 55.8401 100.999 55.8401H89.536Z" fill="#17262F"></path><path d="M19.657 54.1735C19.6445 54.2965 19.6076 54.4157 19.5487 54.5244C19.4897 54.633 19.4097 54.7288 19.3134 54.8063C19.2171 54.8838 19.1064 54.9414 18.9877 54.9759C18.869 55.0103 18.7446 55.0208 18.6218 55.0068C18.49 54.9916 18.3626 54.9496 18.2476 54.8833C18.1327 54.8171 18.0325 54.728 17.9532 54.6215C17.874 54.5151 17.8174 54.3935 17.7869 54.2644C17.7564 54.1352 17.7527 54.0012 17.7759 53.8705C18.2221 50.0008 19.4232 46.2563 21.3109 42.8489C23.1162 39.4367 25.554 36.399 28.4945 33.8979C28.6886 33.7357 28.9382 33.6555 29.1904 33.6743C29.4426 33.6932 29.6776 33.8096 29.8454 33.9989C29.9368 34.1007 30.0069 34.2199 30.0515 34.3494C30.096 34.4788 30.1141 34.6159 30.1047 34.7525C30.0953 34.8891 30.0585 35.0224 29.9966 35.1445C29.9347 35.2666 29.849 35.375 29.7444 35.4634C26.9722 37.7732 24.6741 40.5986 22.9774 43.7832C21.2683 47.0245 20.1443 50.5418 19.657 54.1735Z" fill="#17262F"></path><path d="M24.3282 54.2873C24.2995 54.5611 24.1642 54.8125 23.9516 54.9873C23.739 55.1621 23.4661 55.2463 23.192 55.2216C22.9445 55.1511 22.7279 54.9995 22.5768 54.7912C22.4257 54.5829 22.3489 54.3298 22.3588 54.0727C22.7422 51.2783 23.5112 48.5506 24.6439 45.9675C25.6437 43.6844 27.1454 41.6562 29.0373 40.0338C29.25 39.8705 29.515 39.7907 29.7824 39.8093C30.0498 39.8279 30.3012 39.9437 30.4892 40.1348C30.6413 40.3397 30.7067 40.5962 30.6712 40.849C30.6358 41.1017 30.5024 41.3304 30.2998 41.4856C28.6979 42.9891 27.4104 44.7957 26.5124 46.8007C25.3607 49.1527 24.6219 51.6851 24.3282 54.2873Z" fill="#17262F"></path><path d="M6.13573 72.3788C6.00407 72.3759 5.87442 72.346 5.75485 72.2908C5.63527 72.2356 5.52834 72.1564 5.4407 72.0581C5.35306 71.9598 5.2866 71.8445 5.24544 71.7194C5.20429 71.5943 5.18933 71.4621 5.20149 71.331C5.20149 71.0832 5.29992 70.8456 5.47512 70.6704C5.65033 70.4952 5.88796 70.3967 6.13573 70.3967H52.6207C52.8685 70.3967 53.1061 70.4952 53.2813 70.6704C53.4566 70.8456 53.555 71.0832 53.555 71.331C53.5671 71.4621 53.5522 71.5943 53.511 71.7194C53.4699 71.8445 53.4034 71.9598 53.3158 72.0581C53.2281 72.1564 53.1212 72.2356 53.0016 72.2908C52.882 72.346 52.7524 72.3759 52.6207 72.3788H6.13573Z" fill="#17262F"></path></g><defs><clipPath id="clip0_5678_16810"><rect width="120" height="76.5323" fill="white"></rect></clipPath></defs></svg>