<svg xmlns="http://www.w3.org/2000/svg" width="83" height="80" viewBox="0 0 83 80" fill="none"><path fill-rule="evenodd" clip-rule="evenodd" d="M1.34898 79.4884C0.991206 79.4884 0.648089 79.3463 0.395106 79.0933C0.142123 78.8403 2.69024e-06 78.4972 2.69024e-06 78.1394V26.3086C-0.000455073 26.0793 0.0575131 25.8532 0.168452 25.6526C0.279376 25.452 0.439578 25.283 0.63396 25.1615L40.6084 0.193472C40.7725 0.0908861 40.9562 0.0251721 41.1468 0C41.3374 0.0251721 41.5211 0.0908861 41.6852 0.193472L81.6596 25.1615C81.854 25.283 82.0142 25.452 82.1251 25.6526C82.2361 25.8532 82.294 26.0793 82.2936 26.3086V78.1394C82.2936 78.4972 82.1515 78.8403 81.8985 79.0933C81.6455 79.3463 81.3024 79.4884 80.9446 79.4884H1.34898ZM2.69795 27.0575L41.1468 3.02694L79.5956 27.0575V76.7904H2.69795V27.0575Z" fill="#17262F"></path><path fill-rule="evenodd" clip-rule="evenodd" d="M10.0057 30.2898C10.2666 30.0289 10.6204 29.8823 10.9894 29.8823H70.951C71.32 29.8823 71.6738 30.0289 71.9347 30.2898C72.1956 30.5507 72.3421 30.9045 72.3421 31.2734V78.1394C72.3421 78.5084 72.1956 78.8622 71.9347 79.1231C71.6738 79.384 71.32 79.5305 70.951 79.5305H10.9894C10.6204 79.5305 10.2666 79.384 10.0057 79.1231C9.74484 78.8622 9.59827 78.5084 9.59827 78.1394V31.2734C9.59827 30.9045 9.74484 30.5507 10.0057 30.2898ZM69.5599 32.6645H12.3805V76.7483H69.5599V32.6645Z" fill="#17262F"></path><path d="M11.1972 41.1309V38.3486H70.7431V41.1309H11.1972Z" fill="#17262F"></path><path d="M11.1972 49.0776V46.2954H70.7431V49.0776H11.1972Z" fill="#17262F"></path><path d="M11.1972 57.0327V54.2505H70.7431V57.0327H11.1972Z" fill="#17262F"></path><path d="M11.1972 64.98V62.1978H70.7431V64.98H11.1972Z" fill="#17262F"></path><path d="M11.1972 72.9268V70.1445H70.7431V72.9268H11.1972Z" fill="#17262F"></path></svg>