<svg xmlns="http://www.w3.org/2000/svg" width="140" height="110" viewBox="0 0 140 110" fill="none"><g clip-path="url(#clip0_5678_10787)"><g style="mix-blend-mode:multiply"><path d="M124.509 78.3388L131.351 82.9955L130.863 89.5127L93.5696 110L82.3043 107.661L64.054 108.505L49.1691 103.554L45.7528 105.252L25.7843 91.8512L27.411 85.5271L0 59.875L1.62677 53.7848L6.88326 49.1892L30.6646 37.2935L53.0225 47.8573L124.509 78.3388Z" fill="#BBBBBB"></path></g><path d="M116.71 70.6933C116.574 70.6085 116.42 70.5547 116.26 70.5354C116.1 70.516 115.938 70.5318 115.785 70.5814C115.45 70.7136 85.2833 88.303 85.2833 88.303L87.5709 91.8514C87.5709 91.8514 117.585 74.3637 117.839 74.2213C118.013 74.1203 118.154 73.9697 118.243 73.7887C118.331 73.6077 118.364 73.4043 118.337 73.2046C118.284 72.6871 118.109 72.1895 117.826 71.7529C117.544 71.3163 117.161 70.9531 116.71 70.6933Z" fill="#301010"></path><path d="M105.821 60.2515C105.821 60.3938 105.821 60.5362 105.821 60.6887C105.821 61.3683 105.862 62.0474 105.943 62.7221L106.36 62.9967C106.36 63.2712 106.431 63.5457 106.482 63.8304H106.096C106.253 64.7166 106.463 65.5926 106.726 66.4535L107.133 66.5959C107.224 66.8907 107.326 67.1856 107.428 67.4804L107.102 67.5923C107.419 68.493 107.786 69.3755 108.2 70.2358H108.577C108.719 70.5306 108.861 70.8153 109.014 71.1L108.77 71.3542C109.223 72.2075 109.722 73.0357 110.264 73.835L110.58 73.713C110.763 73.9875 110.956 74.2519 111.149 74.5162L110.986 74.8721C111.548 75.6316 112.148 76.3613 112.786 77.058L113.03 76.8038C113.243 77.0377 113.467 77.2715 113.691 77.4851L113.63 77.9324C114.273 78.5516 114.952 79.1322 115.663 79.671L115.816 79.3152L116.517 79.8134V80.3217C116.853 80.5556 117.198 80.7691 117.534 80.9724C117.869 81.1758 118.225 81.3486 118.551 81.5113V81.0639C118.788 81.1724 119.022 81.2741 119.252 81.369L119.405 81.8977C119.877 82.0855 120.363 82.2351 120.859 82.345L118.957 84.3886L119.842 84.8462L121.875 83.8294L122.109 83.9311L128.85 81.0944C129.165 80.9419 130.995 78.8373 131.28 78.634L131.229 78.5221L131.85 78.1663C132.28 77.7641 132.65 77.3018 132.948 76.7937L132.714 76.4378L133.324 76.082C133.605 75.4748 133.813 74.8366 133.944 74.1807L133.568 73.7638V73.5706L134.076 73.286C134.16 72.6659 134.2 72.0408 134.198 71.4152C134.198 71.2728 134.198 71.1203 134.198 70.978L133.791 70.6425V70.1646L134.178 69.9409C134.095 69.076 133.959 68.217 133.771 67.3686L133.354 67.1652C133.354 66.9314 133.242 66.6976 133.181 66.4637L133.497 66.2807C133.25 65.3728 132.952 64.4799 132.602 63.6067L132.205 63.5254C132.094 63.2508 131.972 62.9763 131.85 62.7018L132.144 62.5188C131.738 61.6342 131.3 60.7598 130.802 59.9058L130.446 59.9668C130.294 59.7025 130.141 59.4483 129.979 59.1941L130.182 58.8891C129.653 58.0655 129.094 57.2725 128.494 56.5099L128.189 56.6828C128.016 56.4591 127.833 56.2456 127.65 56.0321L127.752 55.6254C127.142 54.9129 126.494 54.2341 125.81 53.5919L125.475 53.7851L124.997 53.3682V52.87C124.355 52.3243 123.676 51.8248 122.963 51.3754L122.567 51.5991L122.252 51.4263L122.15 50.8976C121.499 50.5408 120.819 50.2415 120.116 50.0029L119.557 50.318L119.354 49.7792C118.719 49.6211 118.067 49.5392 117.412 49.5352H116.67C116.07 49.6063 112.755 51.3348 112.227 51.5686L111.637 51.9143L105.221 55.6254L103.778 58.9704L106.218 57.4656C106.055 58.0761 105.94 58.6981 105.872 59.3263L106.279 59.7126C106.279 59.9465 106.279 60.1905 106.279 60.4447L105.821 60.2515ZM106.431 57.2928L106.838 57.0386C106.838 57.181 106.736 57.3131 106.696 57.4555L106.431 57.2928Z" fill="#481018"></path><path d="M114.84 50.2365L111.373 52.5343L105.638 55.2896L107.326 54.8626L112.959 52.4326L116.497 49.5654L114.84 50.2365Z" fill="#4F1F26"></path><path d="M130.782 59.875L127.874 64.1758L121.611 65.1722L122.943 67.7852L129.247 66.7684L132.124 62.488L131.484 61.1561L130.782 59.875Z" fill="#4F1F26"></path><path d="M132.582 63.5762L129.196 67.8871L123.411 68.8733L124.305 71.5372L130.131 70.5408L133.476 66.2502L133.11 65.0301L132.582 63.5762Z" fill="#4F1F26"></path><path d="M133.751 67.3379L130.558 71.6285L124.58 72.6351L124.987 75.2074L130.995 74.1805L134.157 69.9102L134.035 68.7613L133.751 67.3379Z" fill="#4F1F26"></path><path d="M134.208 70.9473L131.128 75.1464L125.037 76.2343L124.926 78.5422L131.056 77.434L134.096 73.2552L134.219 72.2487L134.208 70.9473Z" fill="#4F1F26"></path><path d="M133.934 74.1499L131.229 77.8711L124.763 79.4471L124.143 81.3484L130.782 79.3962L133.314 76.0512L133.659 75.2683L133.934 74.1499Z" fill="#4F1F26"></path><path d="M132.937 76.7632L129.897 79.7117L123.767 82.0603L122.668 83.4329L128.84 81.064L131.839 78.1358L132.429 77.5562L132.937 76.7632Z" fill="#4F1F26"></path><path d="M128.474 56.4795L125.556 60.7803L119.303 61.7767L120.991 64.1558L127.284 63.1391L130.162 58.8586L129.318 57.6081L128.474 56.4795Z" fill="#4F1F26"></path><path d="M125.79 53.5918L122.872 57.8926L116.619 58.889L118.561 60.8919L124.854 59.8752L127.732 55.5948L126.857 54.5984L125.79 53.5918Z" fill="#4F1F26"></path><path d="M122.902 51.3955L119.994 55.6963L113.731 56.6927L115.806 58.1873L122.099 57.1705L124.976 52.8901L124.092 52.1682L122.902 51.3955Z" fill="#4F1F26"></path><path d="M119.994 50.0127L117.371 53.5916L110.824 55.3099L112.898 56.2046L119.486 54.4761L122.069 50.9176L121.154 50.4296L119.994 50.0127Z" fill="#4F1F26"></path><path d="M117.239 49.5352L114.382 52.4328L108.068 54.8323L110.01 55.0763L116.182 53.1039L119.181 49.7792L118.113 49.586L117.239 49.5352Z" fill="#4F1F26"></path><path d="M107.448 54.9541L103.218 57.2112L104.337 58.9295L107.448 57.1706V54.9541Z" fill="#481018"></path><path d="M106.279 57.1807L102.049 59.631L103.168 61.3493L106.279 59.5903V57.1807Z" fill="#481018"></path><path d="M105.821 60.2515L101.592 62.7018L102.7 64.4201L105.821 62.6611V60.2515Z" fill="#481018"></path><path d="M106.086 63.7793L101.856 66.2194L102.974 67.9479L106.086 66.1889V63.7793Z" fill="#481018"></path><path d="M107.092 67.5518L102.863 69.9919L103.981 71.7102L107.092 69.9512V67.5518Z" fill="#481018"></path><path d="M124.926 78.5423C125.009 77.9257 125.05 77.304 125.048 76.6817C125.048 76.5292 125.048 76.3869 125.048 76.2344L124.641 75.909C124.641 75.6548 124.641 75.3905 124.641 75.1261L125.048 75.2075C124.965 74.3425 124.829 73.4834 124.641 72.6351L124.224 72.4318C124.163 72.1471 124.092 71.8726 124.021 71.5981H124.366C124.12 70.6902 123.821 69.7973 123.472 68.9241L123.075 68.8427C122.963 68.5682 122.841 68.2937 122.719 68.0192L123.014 67.8362C122.607 66.9415 122.16 66.0772 121.672 65.2232L121.316 65.2842C121.164 65.0198 121.011 64.7657 120.848 64.5115L121.052 64.2065C120.53 63.3852 119.967 62.5911 119.364 61.8273L119.069 62.0103L118.52 61.3494L118.622 60.9427C118.012 60.2303 117.364 59.5515 116.68 58.9093L116.477 59.2143L115.867 58.6856V58.2077C115.225 57.662 114.545 57.1625 113.833 56.7132L113.731 57.1198L113.416 56.9267L113.101 56.7538L112.999 56.2251C112.349 55.8684 111.668 55.569 110.966 55.3304V55.8083L110.356 55.6354L110.152 55.0966C109.517 54.9385 108.865 54.8566 108.211 54.8525L108.312 55.3812H107.753L107.468 54.8627C106.888 54.9236 106.32 55.0674 105.781 55.2897L105.984 55.8286L105.516 56.0523L105.16 55.5948C104.662 55.8608 104.209 56.204 103.818 56.6115L104.103 57.13C103.981 57.2622 103.869 57.4045 103.757 57.5469L103.361 57.1707C102.989 57.6748 102.685 58.2251 102.456 58.8076L102.812 59.2651C102.741 59.4583 102.669 59.6617 102.608 59.865L102.192 59.5905C101.986 60.2767 101.85 60.9818 101.785 61.6951L102.181 62.0713C102.181 62.3052 102.181 62.5594 102.181 62.8034L101.775 62.661C101.775 62.8034 101.775 62.9457 101.775 63.088C101.774 63.7677 101.815 64.4468 101.897 65.1215L102.314 65.396C102.314 65.6705 102.385 65.9451 102.436 66.2297H102.049C102.206 67.116 102.417 67.992 102.68 68.8529L103.086 68.9953C103.178 69.2901 103.279 69.585 103.381 69.8798L103.056 70.0018C103.371 70.8864 103.737 71.7709 104.144 72.6351H104.53C104.672 72.93 104.815 73.2147 104.967 73.5095L104.723 73.7535C105.111 74.6087 105.542 75.4435 106.014 76.2547L106.34 76.1429L106.909 76.9359L106.757 77.2714C107.318 78.0277 107.919 78.754 108.556 79.4472L108.8 79.2032L109.461 79.8844L109.4 80.3216C110.041 80.9434 110.72 81.5241 111.434 82.0602L111.586 81.7044L112.288 82.2127V82.7109C112.623 82.9448 112.969 83.1583 113.304 83.3616C113.64 83.565 113.996 83.7378 114.321 83.9005L114.372 83.4531C114.602 83.5616 114.836 83.6633 115.073 83.7582L115.226 84.2869C115.882 84.548 116.563 84.7389 117.259 84.8562V84.3479C117.483 84.3479 117.697 84.4089 117.92 84.419L118.164 84.9477C118.766 84.9968 119.372 84.9626 119.964 84.8461L119.801 84.3072C119.994 84.3072 120.177 84.2157 120.371 84.1547L120.686 84.6529C121.219 84.473 121.722 84.2161 122.18 83.8903L121.936 83.3515C122.089 83.2416 122.235 83.1227 122.374 82.9956L122.75 83.4226C123.177 83.0179 123.547 82.556 123.848 82.0501L123.522 81.5519C123.624 81.379 123.726 81.196 123.817 81.013L124.224 81.3384C124.503 80.7306 124.711 80.0926 124.844 79.4371L124.468 79.0202C124.468 78.7965 124.56 78.5627 124.59 78.3288L124.926 78.5423Z" fill="#67383F"></path><path d="M119.747 82.9776C123.769 80.6389 123.744 73.09 119.69 66.1168C115.635 59.1435 109.088 55.3865 105.065 57.7253C101.043 60.064 101.068 67.6129 105.122 74.5861C109.177 81.5594 115.724 85.3163 119.747 82.9776Z" fill="#5C2930"></path><path d="M120.574 74.3535C120.574 79.0915 117.229 80.9928 113.101 78.6136C110.933 77.2053 109.128 75.306 107.831 73.0696C106.535 70.8333 105.783 68.3228 105.638 65.7418C105.638 61.0039 108.983 59.1026 113.101 61.4817C115.271 62.8883 117.079 64.787 118.378 67.0235C119.676 69.2601 120.429 71.7714 120.574 74.3535Z" fill="#67383F"></path><path d="M106.563 66.2704C106.69 68.533 107.347 70.7339 108.483 72.6948C109.619 74.6556 111.201 76.3211 113.101 77.5561C116.721 79.6506 119.649 77.973 119.649 73.8247C119.523 71.5609 118.865 69.3587 117.727 67.3975C116.589 65.4364 115.004 63.7717 113.101 62.539C109.492 60.4445 106.563 62.1221 106.563 66.2704Z" fill="#E49A00"></path><path d="M118.805 73.3469C118.805 76.9563 116.253 78.4306 113.111 76.6005C111.451 75.523 110.069 74.0695 109.076 72.3577C108.083 70.6459 107.508 68.7241 107.397 66.7484C107.397 63.2203 109.827 61.746 112.887 63.3931C112.966 63.4222 113.041 63.4597 113.111 63.505C114.724 64.5527 116.075 65.9563 117.06 67.6079C118.045 69.2594 118.639 71.115 118.795 73.0318C118.805 73.1436 118.805 73.2046 118.805 73.3469Z" fill="#AA4400"></path><path d="M118.795 73.0317L116.863 74.3127L111.972 70.9474L110.742 64.9283L112.857 63.3931C112.935 63.4221 113.01 63.4596 113.081 63.5049C114.699 64.5493 116.056 65.9515 117.047 67.6032C118.037 69.255 118.635 71.1122 118.795 73.0317Z" fill="#BE5900"></path><path d="M116.446 74.7705C114.788 73.6941 113.408 72.2419 112.417 70.5319C111.426 68.8218 110.852 66.902 110.742 64.9286C110.729 64.1917 110.86 63.4594 111.129 62.7731C108.953 62.4376 107.397 63.9322 107.397 66.7485C107.507 68.7234 108.081 70.6445 109.072 72.3562C110.063 74.068 111.443 75.5221 113.101 76.6006C115.521 77.9935 117.585 77.4547 118.419 75.5026C117.722 75.379 117.054 75.131 116.446 74.7705Z" fill="#BB5900"></path><path d="M109.959 67.2567C110.037 68.6311 110.437 69.9679 111.127 71.1585C111.818 72.3492 112.78 73.3602 113.935 74.1095C116.121 75.3702 117.9 74.3637 117.9 71.8422C117.822 70.4705 117.423 69.1363 116.734 67.9476C116.045 66.7588 115.086 65.7489 113.935 64.9996C111.739 63.7287 109.959 64.7454 109.959 67.2567Z" fill="#DA7200"></path><path d="M111.464 68.4464C111.504 69.177 111.717 69.8876 112.085 70.5202C112.452 71.1529 112.964 71.6895 113.579 72.0863C114.738 72.7675 115.684 72.2287 115.684 70.8866C115.644 70.1572 115.432 69.4474 115.066 68.815C114.701 68.1825 114.191 67.6452 113.579 67.2467C112.41 66.5655 111.464 67.1044 111.464 68.4464Z" fill="#BE5900"></path><path d="M111.281 68.9646C111.316 69.5593 111.489 70.1376 111.787 70.6532C112.086 71.1687 112.501 71.6072 112.999 71.9334C113.955 72.4825 114.728 72.0453 114.728 70.9167C114.695 70.319 114.522 69.7374 114.221 69.2197C113.921 68.7019 113.502 68.2626 112.999 67.9377C112.054 67.4293 111.281 67.8767 111.281 68.9646Z" fill="#DA7200"></path><path d="M64.9385 36.6529C64.9385 36.7953 64.9385 36.9376 64.9385 37.0901C64.9418 37.77 64.986 38.449 65.0707 39.1236L65.4774 39.3981C65.4774 39.6726 65.5587 39.9471 65.6096 40.2318H65.2232C65.3828 41.1167 65.5898 41.9924 65.8434 42.855L66.2603 42.9973C66.3518 43.2922 66.4433 43.587 66.545 43.8819L66.2298 43.9937C66.545 44.8885 66.911 45.7628 67.3177 46.6372H67.704C67.8464 46.9321 67.9887 47.2168 68.1412 47.5015L67.887 47.7556C68.3446 48.5995 68.8428 49.4332 69.3816 50.2365L69.707 50.1144C69.89 50.389 70.0832 50.6533 70.2662 50.9177L70.1137 51.2735C70.675 52.0331 71.2757 52.7627 71.9133 53.4595L72.1573 53.2053C72.3708 53.4392 72.5945 53.6628 72.808 53.8865V54.3339C73.4486 54.9556 74.1278 55.5363 74.8415 56.0725L74.994 55.7065C75.2278 55.8895 75.4617 56.0521 75.6955 56.2148L75.7464 56.7232C76.0819 56.9469 76.4276 57.1705 76.7631 57.3739C77.0986 57.5772 77.4443 57.7501 77.7798 57.9128V57.4654L78.4814 57.7704L78.6339 58.2991C79.1023 58.4869 79.5851 58.6365 80.0776 58.7465L78.1459 60.8409L79.0304 61.2985L81.0639 60.2817L81.2977 60.3834L88.0285 57.5467C88.3538 57.3942 90.1839 55.2896 90.4686 55.0863V54.9744L91.0888 54.6186C91.5192 54.2164 91.8891 53.7541 92.1869 53.246L91.9531 52.8901L92.5631 52.5343C92.8378 51.9247 93.0458 51.2873 93.1833 50.633L92.8071 50.2161V50.0229L93.3155 49.7281C93.3726 49.0824 93.3828 48.4333 93.346 47.7861C93.346 47.6336 93.346 47.4913 93.346 47.3388L92.9291 47.0134C92.9291 46.8609 92.9291 46.6982 92.9291 46.5356L93.3053 46.3119C93.2222 45.4389 93.0795 44.5727 92.8783 43.7192L92.4614 43.5159C92.4004 43.282 92.3496 43.0482 92.2886 42.8143L92.6038 42.6313C92.353 41.7248 92.0543 40.8322 91.709 39.9573L91.3125 39.876C91.2007 39.6015 91.0787 39.3269 90.9567 39.0524L91.2413 38.8694C90.8422 37.9763 90.3976 37.1041 89.9094 36.2564L89.5536 36.3174C89.4011 36.0531 89.2485 35.7989 89.0859 35.5447L89.2892 35.2397C88.765 34.4176 88.1982 33.6235 87.5913 32.8605L87.2964 33.0334L86.7576 32.3827L86.8592 31.976C86.2492 31.2635 85.6009 30.5847 84.9173 29.9425L84.5818 30.1357L84.1039 29.7188V29.241C83.4606 28.6975 82.7812 28.1981 82.0704 27.7464L81.6739 27.9701L81.3384 27.8379L81.2367 27.3092C80.5868 26.9512 79.9063 26.6517 79.2033 26.4145L78.6441 26.7297L78.4407 26.1908C77.8018 26.0333 77.1466 25.9514 76.4886 25.9468H75.7565C74.2414 26.5474 72.7583 27.2261 71.3134 27.9802L70.7237 28.3259L64.298 32.0268L63.0576 35.3719L65.5079 33.8671C65.3355 34.4753 65.2198 35.0982 65.1622 35.7277L65.5587 36.1141C65.5587 36.3479 65.5587 36.5919 65.5587 36.8461L64.9385 36.6529ZM65.5587 33.6943L65.9654 33.4401C65.9654 33.5722 65.8638 33.7146 65.8231 33.8569L65.5587 33.6943Z" fill="#481018"></path><path d="M73.9671 26.6383L70.5 28.9361L64.7555 31.6915L66.4535 31.2644L72.076 28.8345L75.6244 25.9673L73.9671 26.6383Z" fill="#4F1F26"></path><path d="M89.9094 36.2769L86.9914 40.5776L80.7385 41.574L82.0704 44.1768L88.364 43.1703L91.2413 38.8899L90.6008 37.5579L89.9094 36.2769Z" fill="#4F1F26"></path><path d="M91.709 39.978L88.3233 44.289L82.5381 45.2752L83.4328 47.939L89.2587 46.9426L92.6037 42.652L92.2377 41.432L91.709 39.978Z" fill="#4F1F26"></path><path d="M92.8783 43.7397L89.6756 48.0303L83.7074 49.0369L84.1039 51.6092L90.1229 50.5823L93.2748 46.3121L93.1528 45.1632L92.8783 43.7397Z" fill="#4F1F26"></path><path d="M93.3358 47.3389L90.2551 51.538L84.1649 52.636L84.053 54.944L90.1738 53.8256L93.2239 49.6468L93.3459 48.6504L93.3358 47.3389Z" fill="#4F1F26"></path><path d="M93.0613 50.5518L90.3568 54.273L83.8904 55.8489L83.2702 57.7502L89.9094 55.7981L92.4411 52.453L92.7868 51.6702L93.0613 50.5518Z" fill="#4F1F26"></path><path d="M92.0649 53.165L89.0248 56.1136L82.894 58.4622L81.7959 59.8348L87.9674 57.4658L90.9668 54.5376L91.5565 53.9581L92.0649 53.165Z" fill="#4F1F26"></path><path d="M87.5913 32.8809L84.6834 37.1816L78.4203 38.178L80.1183 40.5572L86.4118 39.5404L89.2892 35.26L88.4453 34.0094L87.5913 32.8809Z" fill="#4F1F26"></path><path d="M84.9173 29.9937L81.9993 34.2944L75.7464 35.2908L77.6883 37.2938L83.9819 36.277L86.8592 31.9966L85.9848 31.0002L84.9173 29.9937Z" fill="#4F1F26"></path><path d="M82.0298 27.7974L79.1117 32.0981L72.8589 33.0945L74.933 34.5891L81.2265 33.5724L84.1039 29.292L83.2193 28.5701L82.0298 27.7974Z" fill="#4F1F26"></path><path d="M79.1118 26.4146L76.4988 29.9934L69.9409 31.7015L72.0251 32.6064L78.6034 30.878L81.1961 27.3093L80.281 26.8314L79.1118 26.4146Z" fill="#4F1F26"></path><path d="M76.3564 25.937L73.5096 28.8347L67.1855 31.2342L69.1376 31.4782L75.3092 29.5057L78.3085 26.181L77.241 25.9878L76.3564 25.937Z" fill="#4F1F26"></path><path d="M66.5755 31.356L62.3357 33.6131L63.4541 35.3314L66.5755 33.5724V31.356Z" fill="#481018"></path><path d="M65.4062 33.5825L61.1665 36.0328L62.2849 37.7511L65.4062 35.9922V33.5825Z" fill="#481018"></path><path d="M64.9385 36.6533L60.7089 39.0935L61.8273 40.8219L64.9385 39.063V36.6533Z" fill="#481018"></path><path d="M65.2131 40.1812L60.9835 42.6213L62.1019 44.3497L65.2131 42.5806V40.1812Z" fill="#481018"></path><path d="M66.2196 43.9429L61.99 46.3932L63.0983 48.1115L66.2196 46.3525V43.9429Z" fill="#481018"></path><path d="M84.053 54.9032C84.1365 54.2866 84.1773 53.6649 84.1751 53.0426C84.1751 52.8901 84.1751 52.7477 84.1751 52.5952L83.7582 52.2699C83.7582 52.0157 83.7582 51.7514 83.7582 51.487L84.1547 51.5683C84.0808 50.7029 83.9483 49.8435 83.7582 48.996L83.3413 48.7927C83.2702 48.508 83.2092 48.2335 83.1278 47.9589L83.4837 47.8979C83.2313 46.9952 82.9327 46.1061 82.589 45.2341L82.1924 45.1528C82.0806 44.8783 81.9586 44.6037 81.8366 44.3292L82.1213 44.1462C81.7242 43.2521 81.2796 42.3799 80.7893 41.5332H80.4335C80.281 41.279 80.1285 41.0249 79.9658 40.7707L80.1691 40.4657C79.6439 39.6443 79.0772 38.8502 78.4712 38.0865L78.1865 38.2695C78.0035 38.0458 77.8205 37.8222 77.6273 37.6086L77.7392 37.2019C77.1311 36.4845 76.4791 35.8053 75.787 35.1685L75.5939 35.4735L74.9838 34.9448V34.5686C74.3405 34.0251 73.6611 33.5258 72.9504 33.074L72.8385 33.4807L72.5335 33.2875L72.2183 33.1147L72.1166 32.586C71.4649 32.2288 70.7848 31.9262 70.0832 31.6811V32.1691C69.8697 32.098 69.6663 32.0471 69.4731 31.9963L69.1376 31.5184C68.4987 31.361 67.8435 31.2791 67.1855 31.2744L67.2973 31.7929H66.7381L66.4535 31.2744C65.8693 31.331 65.297 31.475 64.7555 31.7014L64.9589 32.2403L64.4912 32.464L64.1353 31.9963C63.6445 32.269 63.1959 32.6115 62.8034 33.013L63.0881 33.5316C62.9661 33.6637 62.8542 33.8061 62.7424 33.9484L62.3357 33.5722C61.9716 34.0792 61.6711 34.629 61.441 35.2092L61.7968 35.6667C61.7169 35.8623 61.649 36.0626 61.5935 36.2666L61.1665 35.992C60.9694 36.6798 60.8366 37.3844 60.7699 38.0967L61.1665 38.4729C61.1665 38.7067 61.1665 38.9609 61.1665 39.2049L60.7496 39.0626C60.7496 39.2049 60.7496 39.3371 60.7496 39.4896C60.754 40.1691 60.7947 40.8479 60.8716 41.5231L61.2885 41.7976L61.4105 42.6313H61.0343C61.1879 43.5174 61.395 44.3934 61.6545 45.2544L62.0714 45.3968C62.1629 45.6916 62.2544 45.9865 62.356 46.2813L62.0307 46.4034C62.3199 47.2948 62.6559 48.1704 63.0372 49.0265H63.4236C63.5558 49.3214 63.7083 49.6061 63.8608 49.8907L63.6066 50.1449C64.0612 50.9974 64.56 51.8255 65.1012 52.6257L65.4266 52.5037C65.6096 52.7782 65.7926 53.0426 65.9858 53.3069L65.8333 53.673C66.4026 54.4355 67.0025 55.1574 67.6329 55.8488L67.8769 55.6048C68.0904 55.8284 68.3039 56.0623 68.5276 56.2758V56.7232C69.1681 57.3449 69.8473 57.9256 70.561 58.4618L70.7136 58.1059C70.9372 58.2788 71.1711 58.4516 71.4151 58.6041V59.1125C71.7506 59.3463 72.0963 59.5598 72.4318 59.7632C72.7673 59.9665 73.113 60.1394 73.4486 60.3021V59.8547C73.679 59.9631 73.9129 60.0648 74.1501 60.1597L74.3026 60.6884C74.9419 60.9444 75.6065 61.1318 76.2852 61.2476V60.7494L76.9359 60.8206L77.18 61.3493C77.7817 61.3936 78.3867 61.3594 78.9796 61.2476L78.8271 60.7087C79.0162 60.6687 79.203 60.6178 79.3863 60.5562L79.7116 61.0544C80.2443 60.8745 80.7479 60.6176 81.2062 60.2919L80.9622 59.753C81.1045 59.6412 81.257 59.5293 81.3994 59.3972L81.7756 59.8242C82.2031 59.4195 82.5727 58.9576 82.8736 58.4516L82.5686 57.9534C82.6735 57.7792 82.7685 57.5993 82.8533 57.4145L83.2702 57.7399C83.5449 57.1304 83.7529 56.4929 83.8904 55.8386L83.5142 55.4116C83.5142 55.1879 83.6057 54.9642 83.6362 54.7304L84.053 54.9032Z" fill="#67383F"></path><path d="M79.6309 59.1225C83.669 56.7619 83.6252 49.1735 79.5331 42.1735C75.441 35.1734 68.8501 31.4124 64.812 33.7731C60.7738 36.1337 60.8176 43.722 64.9098 50.7221C69.0019 57.7221 75.5928 61.4831 79.6309 59.1225Z" fill="#5C2930"></path><path d="M79.6913 50.7551C79.6913 55.4931 76.3564 57.3944 72.2285 55.0152C70.0599 53.6054 68.2541 51.7043 66.9575 49.4661C65.6609 47.228 64.91 44.7158 64.7657 42.1333C64.7657 37.4055 68.1107 35.5042 72.2285 37.8833C74.3974 39.2904 76.2036 41.1895 77.5004 43.4261C78.7971 45.6627 79.5478 48.1738 79.6913 50.7551Z" fill="#67383F"></path><path d="M65.6807 42.7025C65.8065 44.9575 66.4611 47.1512 67.5915 49.1064C68.7218 51.0616 70.2964 52.7235 72.1878 53.9577C75.8074 55.9911 78.7355 54.3745 78.7355 50.2263C78.6099 47.9624 77.9514 45.7603 76.8135 43.7991C75.6757 41.8379 74.0908 40.1733 72.1878 38.9406C68.6089 36.8461 65.6807 38.5237 65.6807 42.7025Z" fill="#E49A00"></path><path d="M77.9323 49.7488C77.9323 53.3582 75.3803 54.8325 72.2285 53.0023C70.5711 51.9232 69.1911 50.469 68.2002 48.7574C67.2092 47.0458 66.6352 45.1249 66.5246 43.1502C66.5246 39.6222 68.9546 38.1378 72.015 39.795C72.0901 39.8242 72.1617 39.8617 72.2285 39.9069C73.8425 40.9541 75.195 42.3573 76.182 44.0088C77.169 45.6603 77.7643 47.5161 77.9222 49.4336C77.9323 49.5353 77.9323 49.637 77.9323 49.7488Z" fill="#AA4400"></path><path d="M77.9222 49.4335L75.9802 50.7146L71.0999 47.3492L69.8595 41.3302L72.015 39.7949C72.0901 39.8241 72.1617 39.8616 72.2285 39.9068C73.8425 40.954 75.195 42.3572 76.182 44.0087C77.169 45.6602 77.7643 47.516 77.9222 49.4335Z" fill="#BE5900"></path><path d="M75.5735 51.1719C73.915 50.0955 72.5334 48.6435 71.5407 46.9336C70.548 45.2236 69.972 43.3039 69.8595 41.3299C69.8441 40.592 69.979 39.8586 70.256 39.1745C68.0802 38.8389 66.5246 40.3335 66.5246 43.1499C66.6283 45.1201 67.1951 47.0381 68.1791 48.7482C69.1631 50.4582 70.5365 51.9121 72.1878 52.9918C74.6076 54.3949 76.6716 53.856 77.4951 51.9039C76.8168 51.7737 76.1665 51.526 75.5735 51.1719Z" fill="#BB5900"></path><path d="M69.1376 43.6586C69.2145 45.0318 69.6135 46.3677 70.3023 47.5582C70.9912 48.7487 71.9506 49.7603 73.1029 50.5113C75.299 51.7721 77.0783 50.7553 77.0783 48.244C77.0011 46.871 76.6009 45.5357 75.9101 44.3466C75.2192 43.1576 74.2574 42.1485 73.1029 41.4014C70.8661 40.1305 69.1376 41.1472 69.1376 43.6586Z" fill="#DA7200"></path><path d="M70.5916 44.8478C70.6315 45.5773 70.8429 46.287 71.2086 46.9194C71.5743 47.5519 72.0839 48.0892 72.6962 48.4877C73.8654 49.1587 74.811 48.6199 74.811 47.288C74.7707 46.5574 74.5581 45.8468 74.1905 45.2142C73.823 44.5815 73.3109 44.0449 72.6962 43.6481C71.5371 42.9669 70.5916 43.5057 70.5916 44.8478Z" fill="#BE5900"></path><path d="M70.4085 45.3663C70.4407 45.9616 70.6132 46.5408 70.9118 47.0568C71.2104 47.5727 71.6267 48.0108 72.1268 48.3352C73.0825 48.8842 73.8451 48.447 73.8451 47.3185C73.8129 46.7232 73.6405 46.144 73.3419 45.628C73.0433 45.1121 72.6269 44.674 72.1268 44.3496C71.1711 43.8311 70.4085 44.2683 70.4085 45.3663Z" fill="#DA7200"></path><path d="M138.062 64.7251L134.513 66.7789V68.6903L138.987 65.2538L138.062 64.7251Z" fill="#952E00"></path><path d="M138.987 65.2539L135.439 67.3077V69.2192L138.987 67.1654V65.2539Z" fill="#FF9A0A"></path><path d="M135.642 67.4294L138.784 65.6196V67.0532L135.642 68.863V67.4294Z" fill="#5D6770"></path><path d="M135.439 67.3075L134.513 66.7788V68.6903L135.439 69.219V67.3075Z" fill="#BC3C00"></path><path d="M138.133 66.6974C138.126 66.9 138.071 67.098 137.972 67.2749C137.873 67.4517 137.733 67.6023 137.564 67.7141C137.248 67.8971 136.984 67.7141 136.984 67.3786C136.993 67.1753 137.05 66.977 137.151 66.8002C137.252 66.6234 137.393 66.4731 137.564 66.3619C137.879 66.189 138.133 66.3415 138.133 66.6974Z" fill="#A8A8B4"></path><path d="M137.808 66.7482C137.8 66.8706 137.764 66.9896 137.702 67.0956C137.641 67.2015 137.555 67.2915 137.452 67.3582C137.259 67.47 137.096 67.3582 137.096 67.1548C137.103 67.0324 137.139 66.9134 137.201 66.8074C137.263 66.7015 137.349 66.6115 137.452 66.5448C137.645 66.433 137.808 66.5245 137.808 66.7482Z" fill="#ECF2FF"></path><path d="M136.893 67.4193C136.887 67.6222 136.833 67.8209 136.733 67.998C136.634 68.1752 136.493 68.3255 136.323 68.436C136.008 68.619 135.744 68.436 135.744 68.1107C135.751 67.907 135.807 67.708 135.908 67.531C136.009 67.3539 136.152 67.2039 136.323 67.0939C136.638 66.9109 136.893 67.1041 136.893 67.4193Z" fill="#A8A8B4"></path><path d="M136.618 67.4294C136.611 67.5518 136.575 67.6708 136.513 67.7768C136.451 67.8828 136.365 67.9727 136.262 68.0394C136.069 68.1512 135.906 68.0394 135.906 67.8361C135.914 67.7136 135.95 67.5946 136.011 67.4886C136.073 67.3827 136.159 67.2927 136.262 67.226C136.455 67.104 136.618 67.2057 136.618 67.4294Z" fill="#ECF2FF"></path><path d="M138.275 66.0063L138.672 65.7725V66.9722L138.275 67.1959V66.0063Z" fill="#E25B00"></path><path d="M107.784 53.9272L79.4269 70.2966L78.6949 76.397L107.051 60.0276L107.784 53.9272Z" fill="#631F00"></path><path d="M43.5974 45.9255L71.954 29.5562L107.784 53.9272L79.4269 70.2965L43.5974 45.9255Z" fill="#631F00"></path><path d="M43.5974 45.9258L79.4269 70.2968L78.6949 76.3972L42.8653 54.9543L43.5974 45.9258Z" fill="#7D2700"></path><path d="M63.7083 74.1399L71.5473 78.6643L72.3912 70.3983V66.3721L63.0677 60.9834V65.2028L63.7083 74.1399Z" fill="#A83200"></path><path d="M67.9684 58.1567L77.2918 63.5352L72.3912 66.3719L63.0677 60.9832L67.9684 58.1567Z" fill="#CD4500"></path><path d="M77.2918 67.5619V63.5356L72.3912 66.3723V70.3986L77.2918 67.5619Z" fill="#EC7700"></path><path d="M77.2918 67.5615L76.4479 75.8275L71.5473 78.6642L72.3912 70.3982L77.2918 67.5615Z" fill="#D45100"></path><path d="M123.469 83.4742C128.079 80.7792 128.03 72.1181 123.36 64.1291C118.689 56.1401 111.166 51.8485 106.556 54.5436C101.946 57.2386 101.995 65.8997 106.665 73.8887C111.335 81.8777 118.858 86.1692 123.469 83.4742Z" fill="#2D2D2D"></path><path d="M122.658 82.0874C126.827 79.6502 126.783 71.8191 122.561 64.5961C118.338 57.373 111.536 53.4933 107.367 55.9304C103.198 58.3676 103.241 66.1987 107.464 73.4217C111.686 80.6448 118.489 84.5245 122.658 82.0874Z" fill="#2D2D2D"></path><path d="M107.519 64.6742C107.665 67.2669 108.419 69.7889 109.721 72.0358C111.023 74.2827 112.836 76.1913 115.012 77.607C119.151 79.9963 122.516 78.0848 122.516 73.3265C122.369 70.7345 121.612 68.2136 120.309 65.9684C119.005 63.7232 117.191 61.8169 115.012 60.4039C110.874 58.0146 107.519 59.926 107.519 64.6742Z" fill="#2D2D2D"></path><path d="M119.497 76.6805C121.945 75.2494 121.922 70.6546 119.445 66.4177C116.968 62.1809 112.976 59.9063 110.528 61.3374C108.08 62.7686 108.103 67.3634 110.58 71.6003C113.057 75.8371 117.049 78.1116 119.497 76.6805Z" fill="#CD4500"></path><path d="M109.807 66.0163C109.908 67.8036 110.428 69.542 111.325 71.091C112.222 72.6401 113.472 73.9562 114.972 74.933C117.829 76.5801 120.137 75.2583 120.137 71.9845C120.048 70.1948 119.538 68.4513 118.647 66.8964C117.757 65.3415 116.511 64.0191 115.012 63.0372C112.166 61.4308 109.807 62.7424 109.807 66.0163Z" fill="#CD4500"></path><path d="M113.264 67.9888C113.292 68.5997 113.465 69.1951 113.769 69.7256C114.073 70.2561 114.499 70.7064 115.012 71.039C115.978 71.5982 116.771 71.1509 116.771 70.0223C116.74 69.4111 116.564 68.816 116.259 68.2858C115.953 67.7556 115.526 67.3054 115.012 66.9721C114.047 66.4332 113.264 66.8806 113.264 67.9888Z" fill="#CD4500"></path><path d="M114.077 68.4564C114.091 68.7828 114.183 69.101 114.346 69.3842C114.509 69.6673 114.737 69.9071 115.012 70.0832C115.531 70.378 115.958 70.1442 115.958 69.5443C115.942 69.2188 115.847 68.902 115.682 68.6207C115.518 68.3393 115.288 68.1017 115.012 67.9277C114.494 67.6227 114.077 67.8667 114.077 68.4564Z" fill="#CD4500"></path><path d="M73.6519 78.8271C73.6519 78.9695 73.6519 79.1118 73.6519 79.2541C73.6518 79.9338 73.6926 80.6128 73.7739 81.2876L74.1908 81.5519C74.1908 81.8265 74.2721 82.1111 74.3128 82.3857H73.9366C74.0914 83.2682 74.2985 84.1407 74.5568 84.9987L74.9737 85.1512C75.055 85.446 75.1567 85.7307 75.2584 86.0256L74.933 86.1476C75.2518 87.0443 75.6184 87.9233 76.0311 88.7809H76.4073C76.5496 89.0656 76.6919 89.3604 76.8445 89.6451L76.6004 89.8891C77.058 90.7432 77.5562 91.5769 78.095 92.3801L78.4204 92.2581C78.6034 92.5225 78.7864 92.797 78.9796 93.0613L78.8271 93.4172C79.3823 94.1661 79.9762 94.8856 80.6064 95.5726L80.8605 95.3286C81.074 95.5625 81.2876 95.7862 81.5112 96.0098V96.4572C82.1376 97.0717 82.7997 97.6489 83.4939 98.1856L83.6464 97.8298L84.3479 98.3382V98.8465C84.6936 99.0702 85.0291 99.2939 85.3646 99.4871C85.7002 99.6802 86.056 99.8632 86.3814 100.026L86.422 99.6396L87.1236 99.9446L87.2761 100.483C87.7496 100.667 88.2354 100.816 88.73 100.931L86.7982 103.025L87.6828 103.483L89.7163 102.466L89.9501 102.558L96.6707 99.6396C96.996 99.4972 98.816 97.3926 99.1108 97.1892V97.0774L99.731 96.7216C100.15 96.3117 100.516 95.8505 100.819 95.349L100.585 94.9931L101.195 94.6373C101.473 94.0281 101.685 93.3906 101.826 92.736L101.439 92.3089C101.444 92.248 101.444 92.1868 101.439 92.1259L101.937 91.8311C102.024 91.2146 102.068 90.593 102.07 89.9705C102.07 89.818 102.07 89.6756 102.07 89.5231L101.653 89.1978C101.653 89.0351 101.653 88.8724 101.653 88.7097L102.039 88.4962C101.961 87.6306 101.826 86.7712 101.632 85.9239L101.215 85.7104C101.215 85.4765 101.104 85.2427 101.043 85.0088L101.368 84.8258C101.118 83.9177 100.816 83.0249 100.463 82.1518L100.067 82.0807C99.9547 81.796 99.8429 81.5214 99.7209 81.2469L100.006 81.0639C99.5941 80.1676 99.1325 79.2952 98.6228 78.4509H98.267C98.1246 78.1967 97.9619 77.9426 97.8094 77.6884L98.0026 77.3834C97.4842 76.5598 96.9208 75.7656 96.3148 75.0042L96.02 75.1771L95.4709 74.5162L95.5726 74.1095C94.971 73.3894 94.3223 72.7101 93.6307 72.076L93.2951 72.2692L92.8173 71.8523V71.3643C92.1733 70.8217 91.4939 70.3224 90.7838 69.8697L90.3873 70.1036L90.0721 69.9307L89.9704 69.402C89.318 69.0462 88.638 68.7436 87.937 68.4971L87.3778 68.8225L87.1744 68.2836C86.4827 68.1399 85.7754 68.0852 85.0698 68.1209H84.3886C82.8674 68.7153 81.3807 69.3942 79.9353 70.1544L79.3456 70.4899L72.93 74.201L71.6896 77.546L74.14 76.0311C73.9676 76.6428 73.8519 77.269 73.7943 77.9019L74.1908 78.2781C74.1908 78.5221 74.1908 78.7661 74.1908 79.0203L73.6519 78.8271ZM74.2721 75.8583L74.6788 75.6041L74.5263 76.0311L74.2721 75.8583Z" fill="#481018"></path><path d="M82.6703 68.802L79.2033 71.0998L73.4689 73.8653L75.1567 73.4383L80.7894 70.9981L84.3276 68.1411L82.6703 68.802Z" fill="#4F1F26"></path><path d="M98.6228 78.4507L95.7048 82.7514L89.4417 83.7478L90.7838 86.3507L97.0774 85.3339L99.9547 81.0535L99.3142 79.7318L98.6228 78.4507Z" fill="#4F1F26"></path><path d="M100.412 82.1416L97.0265 86.4627L91.2413 87.4388L92.1462 90.1128L97.9619 89.1062L101.317 84.8156L100.951 83.6057L100.412 82.1416Z" fill="#4F1F26"></path><path d="M101.581 85.9136L98.389 90.2042L92.4106 91.2107L92.8173 93.7831L98.8261 92.746L101.988 88.4859L101.866 87.337L101.581 85.9136Z" fill="#4F1F26"></path><path d="M102.049 89.5127L98.9685 93.7118L92.8681 94.8099L92.7563 97.1178L98.8871 95.9994L101.927 91.8207L102.059 90.8141L102.049 89.5127Z" fill="#4F1F26"></path><path d="M101.775 92.7256L99.0702 96.4468L92.6038 98.0228L91.9734 99.924L98.6228 97.9719L101.144 94.6269L101.49 93.844L101.775 92.7256Z" fill="#4F1F26"></path><path d="M100.768 95.3389L97.7281 98.2772L91.5972 100.626L90.5093 102.009L96.6707 99.6295L99.6802 96.7115L100.26 96.1319L100.768 95.3389Z" fill="#4F1F26"></path><path d="M96.3046 75.0552L93.3968 79.3559L87.1337 80.3523L88.8215 82.7315L95.1252 81.7148L97.9924 77.4343L97.1587 76.1837L96.3046 75.0552Z" fill="#4F1F26"></path><path d="M93.6205 72.1675L90.7126 76.4682L84.4496 77.4646L86.3915 79.4574L92.6953 78.4509L95.5726 74.1603L94.6881 73.1639L93.6205 72.1675Z" fill="#4F1F26"></path><path d="M90.733 69.9609L87.8251 74.2719L81.5621 75.2581L83.6362 76.7527L89.9298 75.736L92.8071 71.4555L91.9226 70.7438L90.733 69.9609Z" fill="#4F1F26"></path><path d="M87.8251 68.5786L85.202 72.1677L78.6542 73.8758L80.7284 74.7807L87.3168 73.0421L89.8993 69.4835L88.9944 69.0056L87.8251 68.5786Z" fill="#4F1F26"></path><path d="M85.0698 68.1006L82.2229 70.9983L75.8989 73.3977L77.8408 73.6418L84.0225 71.6795L87.0117 68.3446L85.9442 68.1616L85.0698 68.1006Z" fill="#4F1F26"></path><path d="M75.2787 73.5195L71.0491 75.7868L72.1675 77.5051L75.2787 75.7462V73.5195Z" fill="#481018"></path><path d="M74.1094 75.7563L69.8799 78.1965L70.9983 79.9249L74.1094 78.166V75.7563Z" fill="#481018"></path><path d="M73.6519 78.8271L69.4223 81.2673L70.5407 82.9957L73.6519 81.2266V78.8271Z" fill="#481018"></path><path d="M73.9264 82.355L69.6968 84.7951L70.8051 86.5134L73.9264 84.7545V82.355Z" fill="#481018"></path><path d="M74.9228 86.1172L70.6932 88.5573L71.8116 90.2858L74.9228 88.5167V86.1172Z" fill="#481018"></path><path d="M92.7563 97.1181C92.8397 96.4981 92.8805 95.873 92.8783 95.2474V94.8102L92.4614 94.4848C92.4614 94.2205 92.4614 93.9561 92.4614 93.6918L92.858 93.7833C92.7813 92.9175 92.6454 92.0581 92.4513 91.2109L92.0344 90.9974C91.9734 90.7229 91.9022 90.4484 91.8311 90.1637L92.1869 90.1129C91.924 89.2039 91.6082 88.3111 91.2413 87.4389L90.8448 87.3575C90.733 87.083 90.6211 86.8085 90.4991 86.534L90.7838 86.351C90.3952 85.4597 89.9573 84.5908 89.4722 83.7481H89.1164C88.974 83.494 88.8114 83.2398 88.6487 82.9856L88.852 82.6806C88.3256 81.8616 87.7519 81.0739 87.1338 80.3218L86.8491 80.5048L86.2899 79.8337L86.3915 79.427C85.7872 78.7094 85.1386 78.0303 84.4496 77.3936L84.2462 77.6986C84.0429 77.5156 83.8396 77.3326 83.6362 77.1699V76.6819C82.9922 76.1393 82.3129 75.64 81.6028 75.1873L81.5011 75.594L81.1859 75.411C81.0842 75.3473 80.979 75.2896 80.8707 75.2381L80.769 74.7094C80.1186 74.3496 79.4383 74.0468 78.7356 73.8045V74.2926C78.5322 74.218 78.3289 74.157 78.1255 74.1095L77.9222 73.5707C77.2868 73.4126 76.6349 73.3307 75.9802 73.3267L76.0819 73.8554C75.899 73.8452 75.7157 73.8452 75.5329 73.8554L75.238 73.3368C74.6571 73.3934 74.0881 73.5373 73.5502 73.7639L73.7536 74.3027C73.593 74.3669 73.4367 74.4417 73.2859 74.5264L72.93 74.0587C72.4392 74.3314 71.9906 74.6739 71.5981 75.0754L71.8828 75.594C71.7563 75.726 71.6375 75.8652 71.527 76.0108L71.1304 75.6346C70.7624 76.1355 70.4616 76.6824 70.2357 77.2614L70.5814 77.7189C70.5102 77.9121 70.4391 78.1155 70.3781 78.3188L69.9612 78.0443C69.7625 78.7321 69.6263 79.4365 69.5545 80.1489L69.9612 80.5251C69.9612 80.7691 69.9612 81.0131 69.9612 81.2673L69.5545 81.1148C69.5545 81.2571 69.5545 81.3995 69.5545 81.552C69.5543 82.2317 69.5951 82.9107 69.6765 83.5855L70.0934 83.86C70.0934 84.1379 70.134 84.4124 70.2154 84.6835H69.8392C69.9418 85.6109 70.1014 86.5311 70.3171 87.4389L70.7237 87.5812C70.8152 87.8761 70.9169 88.1709 71.0186 88.4658L70.6932 88.5776C71.012 89.4777 71.3786 90.3601 71.7913 91.2211H72.1878C72.3302 91.516 72.4725 91.8006 72.625 92.0853L72.381 92.3293C72.8385 93.1834 73.3367 94.0171 73.8756 94.8203L74.201 94.6983C74.384 94.9728 74.567 95.2372 74.7602 95.5015L74.5975 95.8574C75.1588 96.6169 75.7595 97.3466 76.3971 98.0434L76.6411 97.7892L77.302 98.4704L77.2511 98.9177C77.8915 99.5397 78.5707 100.12 79.2846 100.656L79.4371 100.29C79.671 100.473 79.9048 100.636 80.1387 100.799V101.307C80.4843 101.531 80.8199 101.754 81.1554 101.958C81.4909 102.161 81.8468 102.334 82.1721 102.486L82.223 102.049L82.9245 102.344L83.077 102.883C83.7349 103.136 84.416 103.323 85.1105 103.442V102.934C85.324 102.934 85.5477 102.995 85.7612 103.015L86.0052 103.544C86.6069 103.588 87.2118 103.554 87.8048 103.442L87.6523 102.903C87.8412 102.862 88.0278 102.811 88.2115 102.751L88.5368 103.239C89.0708 103.069 89.5726 102.812 90.0213 102.476L89.7773 101.948C89.9298 101.836 90.0721 101.714 90.2145 101.592L90.6008 102.009C90.9908 101.603 91.3258 101.149 91.5972 100.656L91.2718 100.168C91.3735 99.9955 91.4752 99.8125 91.5667 99.6193L91.9734 99.9548C92.2516 99.3457 92.4629 98.7082 92.6038 98.0535L92.2174 97.6062C92.2697 97.3779 92.3104 97.1472 92.3394 96.9148L92.7563 97.1181Z" fill="#67383F"></path><path d="M91.3532 94.6269C91.3532 101.225 86.6864 103.889 80.9419 100.565C75.1973 97.2399 70.5305 89.2077 70.5305 82.6091C70.5305 76.0106 75.1872 73.3569 80.9419 76.6714C86.6966 79.986 91.3532 88.0283 91.3532 94.6269Z" fill="#5C2930"></path><path d="M88.4555 92.929C88.4555 97.6568 85.1104 99.5683 80.9927 97.1891C78.8228 95.7798 77.0155 93.8791 75.7171 91.641C74.4188 89.4029 73.666 86.8904 73.5197 84.3072C73.5197 79.5794 76.8648 77.6679 80.9927 80.0572C83.1605 81.4655 84.9659 83.3649 86.2625 85.6012C87.5591 87.8376 88.3104 90.3481 88.4555 92.929Z" fill="#67383F"></path><path d="M74.3941 84.8358C74.5198 87.101 75.1782 89.3046 76.316 91.2674C77.4537 93.2302 79.0387 94.8968 80.9418 96.1316C84.5512 98.1651 87.4794 96.5485 87.4794 92.4002C87.3525 90.1365 86.6945 87.9344 85.5588 85.972C84.4231 84.0097 82.8415 82.3422 80.9418 81.1044C77.3223 79.0201 74.3941 80.6875 74.3941 84.8358Z" fill="#E49A00"></path><path d="M86.6355 91.9125C86.6355 95.532 84.0836 96.9961 80.9419 95.166C79.283 94.0909 77.9017 92.6389 76.9104 90.9286C75.9192 89.2183 75.3462 87.2979 75.238 85.3241C75.238 81.796 77.6782 80.3116 80.7385 81.9689C80.8126 81.9964 80.884 82.0304 80.952 82.0705C82.5642 83.1188 83.9147 84.5226 84.8999 86.174C85.8851 87.8255 86.4789 89.6807 86.6355 91.5973C86.6355 91.7091 86.6355 91.8108 86.6355 91.9125Z" fill="#AA4400"></path><path d="M86.6254 91.5973L84.6936 92.8886L79.8031 89.4724L78.5729 83.4635L80.7283 81.9282C80.8024 81.9557 80.8738 81.9897 80.9419 82.0299C82.5592 83.0823 83.9129 84.4925 84.8983 86.1514C85.8838 87.8103 86.4747 89.6736 86.6254 91.5973Z" fill="#BE5900"></path><path d="M84.2767 93.3459C82.6188 92.2673 81.2384 90.8132 80.2474 89.1015C79.2564 87.3898 78.6827 85.4686 78.5729 83.4938C78.5594 82.756 78.6942 82.023 78.9694 81.3383C76.7834 81.0028 75.238 82.5075 75.238 85.3239C75.3497 87.298 75.9253 89.2181 76.9181 90.9281C77.911 92.6381 79.293 94.09 80.952 95.1658C83.3718 96.5892 85.4053 96.03 86.2492 94.0677C85.5523 93.9527 84.8832 93.7078 84.2767 93.3459Z" fill="#BB5900"></path><path d="M77.8002 85.8321C77.8754 87.2044 78.2738 88.5395 78.9628 89.7286C79.6519 90.9177 80.6122 91.9271 81.7654 92.6747C83.9616 93.9456 85.7307 92.9289 85.7307 90.4176C85.6554 89.0439 85.2571 87.7074 84.5681 86.5167C83.8791 85.3259 82.9188 84.3146 81.7654 83.5648C79.5693 82.3549 77.8002 83.3106 77.8002 85.8321Z" fill="#DA7200"></path><path d="M79.3049 87.0218C79.346 87.7522 79.559 88.4625 79.9265 89.095C80.294 89.7275 80.8056 90.2643 81.4197 90.6617C82.589 91.3328 83.5345 90.7939 83.5345 89.4518C83.4934 88.7215 83.2805 88.0111 82.913 87.3786C82.5455 86.7461 82.0339 86.2093 81.4197 85.8119C80.2403 85.1409 79.3049 85.6797 79.3049 87.0218Z" fill="#BE5900"></path><path d="M79.1118 87.5305C79.1474 88.1247 79.3225 88.7022 79.6228 89.2162C79.923 89.7302 80.3401 90.1663 80.8402 90.4892C81.7858 91.0382 82.5585 90.5908 82.5585 89.4724C82.5239 88.8778 82.3505 88.2994 82.0521 87.7839C81.7537 87.2683 81.3386 86.8298 80.8402 86.5036C79.8845 86.0054 79.1118 86.4223 79.1118 87.5305Z" fill="#DA7200"></path><path d="M110.275 43.3028L107.519 41.7573L104.266 45.3667L102.151 47.939V50.0945L107.784 53.9276L120.147 62.4783L124.987 63.9932V56.7643L108.475 46.8206L110.275 43.3028Z" fill="#BC3C00"></path><path d="M129.643 59.0414V66.0467L126.613 64.2979L123.756 57.5976V55.6455L129.643 59.0414Z" fill="#BC3C00"></path><path d="M114.585 53.3985L104.53 47.593V46.4746L114.585 52.2801V53.3985Z" fill="#E25D00"></path><path d="M92.0649 57.7606L99.9039 62.285L100.748 54.0292V49.9928L91.4243 44.6143V48.8337L92.0649 57.7606Z" fill="#301010"></path><path d="M71.954 29.5562L107.784 53.9272L107.051 60.0275L71.2219 38.5847L71.954 29.5562Z" fill="#CD4500"></path><path d="M82.7162 60.3974C87.3087 57.7273 87.2808 49.1113 82.6538 41.1529C78.0269 33.1945 70.553 28.9075 65.9605 31.5776C61.3681 34.2476 61.396 42.8636 66.023 50.822C70.6499 58.7804 78.1238 63.0674 82.7162 60.3974Z" fill="#2D2D2D"></path><path d="M82.4455 58.8677C86.6145 56.4305 86.5711 48.5994 82.3486 41.3763C78.1262 34.1533 71.3235 30.2735 67.1545 32.7107C62.9855 35.1478 63.0288 42.979 67.2513 50.202C71.4738 57.4251 78.2765 61.3048 82.4455 58.8677Z" fill="#2D2D2D"></path><path d="M80.1313 54.909C83.0399 53.2086 83.0109 47.7472 80.0665 42.7104C77.1221 37.6737 72.3773 34.969 69.4687 36.6693C66.56 38.3697 66.5891 43.8311 69.5335 48.8679C72.4779 53.9046 77.2227 56.6093 80.1313 54.909Z" fill="#2D2D2D"></path><path d="M68.4971 42.1435C68.6205 44.3243 69.2555 46.4454 70.3506 48.3353C71.4457 50.2253 72.9702 51.8309 74.8008 53.0225C78.2882 55.0559 81.1045 53.419 81.1045 49.4233C80.9836 47.2433 80.3496 45.1227 79.2542 43.234C78.1588 41.3453 76.6329 39.742 74.8008 38.5544C71.3236 36.5413 68.4971 38.1579 68.4971 42.1435Z" fill="#CD4500"></path><path d="M69.6358 42.8043C69.7367 44.5902 70.2569 46.3272 71.1543 47.8746C72.0516 49.422 73.3009 50.7362 74.8008 51.7108C77.6578 53.3681 79.976 52.0463 79.976 48.7725C79.8747 46.9841 79.3534 45.2447 78.4542 43.6955C77.5551 42.1463 76.3034 40.8308 74.8008 39.8557C71.954 38.2086 69.6358 39.5304 69.6358 42.8043Z" fill="#CD4500"></path><path d="M73.052 44.7362C73.0815 45.3467 73.2553 45.9415 73.5594 46.4717C73.8634 47.002 74.2888 47.4525 74.8008 47.7864C75.8175 48.3456 76.5598 47.8982 76.5598 46.7697C76.5308 46.1579 76.3561 45.5619 76.0501 45.0313C75.7442 44.5007 75.3158 44.0509 74.8008 43.7195C73.8349 43.2213 73.052 43.7195 73.052 44.7362Z" fill="#CD4500"></path><path d="M73.8654 45.2447C73.8808 45.5693 73.9738 45.8855 74.1365 46.1668C74.2993 46.448 74.5271 46.6862 74.8008 46.8613C75.3193 47.1663 75.7464 46.9223 75.7464 46.3326C75.7266 46.0065 75.6307 45.6895 75.4665 45.4071C75.3024 45.1246 75.0744 44.8845 74.8008 44.7058C74.2823 44.411 73.8654 44.655 73.8654 45.2447Z" fill="#CD4500"></path><path d="M103.33 95.0032L110.946 91.6175L128.149 81.684L131.687 78.6237V75.3701L103.33 91.7496V95.0032Z" fill="#42180F"></path><path d="M130.69 77.5763C130.672 77.7239 130.619 77.8652 130.536 77.9887C130.453 78.1123 130.342 78.2148 130.213 78.288L128.881 79.081C128.657 79.2234 128.433 79.142 128.454 78.9184V78.5523C128.467 78.4345 128.508 78.3215 128.573 78.2226C128.639 78.1236 128.727 78.0415 128.83 77.983L129.847 77.4034L130.385 77.0882C130.548 76.9866 130.711 77.0882 130.701 77.2001L130.69 77.5763Z" fill="#CDCDCD"></path><path d="M129.359 78.4304L128.454 78.888V78.522C128.467 78.4041 128.508 78.2911 128.573 78.1922C128.639 78.0932 128.727 78.0111 128.83 77.9526L129.847 77.373V77.7187C129.832 77.8689 129.779 78.0129 129.694 78.1373C129.609 78.2618 129.493 78.3626 129.359 78.4304Z" fill="#E3E7EB"></path><path d="M101.815 94.129L103.33 95.0034V91.7499L101.815 90.8755V94.129Z" fill="#380009"></path><path d="M101.815 90.8752L130.172 74.5059L131.687 75.3701L103.33 91.7496L101.815 90.8752Z" fill="#4C241B"></path><path d="M105.15 70.2969L111.047 73.6928V87.0221L105.15 83.6262V70.2969Z" fill="#CD4500"></path><path d="M110.02 78.0439L106.472 80.0977V82.0092L110.946 78.5726L110.02 78.0439Z" fill="#952E00"></path><path d="M110.946 78.5728L107.397 80.6164V82.5278L110.946 80.4842V78.5728Z" fill="#FF9A0A"></path><path d="M107.601 80.7385L110.742 78.9287V80.3623L107.601 82.1721V80.7385Z" fill="#5D6770"></path><path d="M107.397 80.6167L106.472 80.0981V82.0096L107.397 82.5281V80.6167Z" fill="#BC3C00"></path><path d="M110.63 79.7118C110.623 79.9144 110.568 80.1123 110.469 80.2892C110.37 80.4661 110.23 80.6167 110.061 80.7285C109.746 80.9115 109.492 80.7285 109.492 80.4031C109.496 80.2 109.55 80.001 109.649 79.8237C109.749 79.6465 109.89 79.4963 110.061 79.3864C110.376 79.2034 110.63 79.3051 110.63 79.7118Z" fill="#A8A8B4"></path><path d="M110.305 79.7521C110.299 79.8749 110.264 79.9945 110.202 80.1008C110.14 80.207 110.053 80.2966 109.949 80.3621C109.756 80.4739 109.603 80.3621 109.603 80.1587C109.609 80.037 109.643 79.9183 109.703 79.8123C109.763 79.7062 109.848 79.6159 109.949 79.5487C110.153 79.4369 110.305 79.5284 110.305 79.7521Z" fill="#ECF2FF"></path><path d="M109.39 80.4235C109.385 80.6265 109.33 80.8251 109.231 81.0023C109.132 81.1794 108.991 81.3297 108.821 81.4403C108.505 81.6233 108.251 81.4403 108.251 81.1149C108.256 80.912 108.311 80.7133 108.41 80.5362C108.509 80.359 108.65 80.2087 108.821 80.0982C109.136 79.9152 109.39 80.0575 109.39 80.4235Z" fill="#A8A8B4"></path><path d="M109.115 80.4337C109.108 80.5561 109.072 80.6752 109.01 80.7811C108.948 80.8871 108.863 80.977 108.76 81.0437C108.566 81.1556 108.404 81.0437 108.404 80.8404C108.411 80.7179 108.447 80.5989 108.509 80.493C108.571 80.387 108.657 80.297 108.76 80.2304C108.953 80.1185 109.115 80.21 109.115 80.4337Z" fill="#ECF2FF"></path><path d="M107.712 80.8096L108.109 80.5859V81.7755L107.712 82.0094V80.8096Z" fill="#E25B00"></path><path d="M107.336 80.2914L135.703 63.9119V61.9902L107.336 78.3596V80.2914Z" fill="#EC7700"></path><path d="M19.4907 23.7307L47.8473 7.36133L100.748 48L72.3912 64.3694L19.4907 23.7307Z" fill="#E25D00"></path><path d="M47.3898 35.1689L63.7896 25.7031L87.8963 42.2555L69.7273 57.2319L47.3898 35.1689Z" fill="#CD4500"></path><path d="M82.711 42.9363L76.7529 46.5762L22.1749 15.6777L20.9548 16.3691L20.7108 17.9349V23.0389L73.6112 63.6674L84.2157 51.0091L85.9645 47.3794L82.711 42.9363Z" fill="#FF9A0A"></path><path d="M109.847 27.2585L103.889 30.9086L49.3114 0L48.0913 0.701544L47.8473 2.26731V7.36112L100.748 47.9998L111.352 35.3415L113.101 31.7016L109.847 27.2585Z" fill="#FF9A0A"></path><path d="M100.748 47.9998L72.3912 64.3692L82.9957 51.7109L84.7444 48.0812L113.101 31.7017L111.352 35.3416L100.748 47.9998Z" fill="#953500"></path><path d="M84.6123 58.1264L81.8468 56.5708L78.5932 60.1904L76.4784 62.7627V64.9182L82.1111 68.7411L94.4745 77.3019L99.3142 78.8168V71.171L82.8025 61.6443L84.6123 58.1264Z" fill="#952E00"></path><path d="M103.086 74.3838V81.3891L101.287 82.4261V75.4107L103.086 74.3838Z" fill="#7D2700"></path><path d="M81.8467 56.5711L87.0016 53.4497L84.6122 58.1267L81.8467 56.5711Z" fill="#CD4500"></path><path d="M89.8179 67.694L79.7625 61.8884V60.77L89.8179 66.5755V67.694Z" fill="#E25D00"></path><path d="M135.703 61.99L107.336 78.3593L88.0183 67.2058L116.375 50.8364L135.703 61.99Z" fill="#FF9A0A"></path><path d="M116.131 45.5596L139.139 58.8381V58.3805L116.131 45.1021V45.5596Z" fill="#260505"></path><path d="M138.641 63.9724L138.885 64.1147L139.139 63.9724V58.3804L138.641 58.0957V63.9724Z" fill="#260505"></path><path d="M134.137 61.3699L134.391 61.5225L134.635 61.3699V55.7983L134.137 55.5034V61.3699Z" fill="#260505"></path><path d="M129.633 58.7771L129.887 58.9194L130.131 58.7771V53.2156L129.633 52.9004V58.7771Z" fill="#260505"></path><path d="M125.139 56.1745L125.383 56.3169L125.627 56.1745V50.6435L125.139 50.2979V56.1745Z" fill="#260505"></path><path d="M120.635 53.5817L120.879 53.724L121.133 53.5817V48.0608L120.635 47.6948V53.5817Z" fill="#260505"></path><path d="M116.131 50.9787L116.375 51.1211L116.629 50.9787V45.4782L116.131 45.1021V50.9787Z" fill="#260505"></path><path d="M98.9177 54.8627L101.846 66.128L104.337 69.5137V74.0789L82.8025 61.6443L89.1571 49.23L98.9177 54.8627Z" fill="#E25D00"></path><path d="M101.287 75.411V82.4264L98.2568 80.6675L95.3997 73.9673V72.0151L101.287 75.411Z" fill="#BC3C00"></path><path d="M88.0183 69.1378L107.336 80.2914V78.3596L88.0183 67.2061V69.1378Z" fill="#E25D00"></path><path d="M114.24 46.017L117.158 57.2823L119.659 60.668V65.2332L104.337 74.0787L104.479 40.3843L114.24 46.017Z" fill="#EC7700"></path><path d="M108.627 27.9602L102.669 31.6102L48.0913 0.70166L47.2271 1.38287L46.6272 2.9588V8.06278L99.5277 48.6913L110.132 36.0432L111.881 32.4033L108.627 27.9602Z" fill="#D45100"></path><path d="M49.1691 7.2289L55.5846 12.4346L56.52 13.1463L59.5194 15.4339L64.3285 19.0941L66.8297 21.0056L69.8392 23.2932L77.1495 28.8649L80.159 31.1627L87.4693 36.7344L90.4788 39.022L98.389 45.0513L102.12 40.415L103.696 38.4628L105.537 36.1854L96.8639 31.2949L93.5188 29.4139L85.385 24.8387L82.0399 22.9475L73.9163 18.3723L70.5712 16.4913L62.4374 11.9059L59.0923 10.0249L49.8198 4.80908L49.1691 7.2289Z" fill="#CD4500"></path><path d="M91.3024 38.5442L88.2928 36.2565L80.9825 30.6849L77.973 28.3972L70.6627 22.8255L67.6532 20.5277L65.1521 18.6264L60.3429 14.956L57.3436 12.6684L56.4082 11.9567L49.9926 6.75104L50.4298 5.15477L49.8198 4.80908L49.1691 7.2289L55.5846 12.4346L56.52 13.1463L59.5194 15.4339L64.3285 19.0941L66.8297 21.0056L69.8392 23.2932L77.1495 28.8649L80.159 31.1627L87.4693 36.7344L90.4788 39.022L98.389 45.0513L98.938 44.37L91.3024 38.5442Z" fill="#E25D00"></path><path d="M49.9926 6.75104L49.1691 7.2289L49.8198 4.80908L50.4298 5.15477L49.9926 6.75104Z" fill="#7D2700"></path><path d="M103.696 38.4628L104.225 37.8223L95.8166 33.0843L97.1587 31.4677L96.8639 31.2949L93.8137 29.5766L92.4716 31.1932L84.3479 26.6078L85.6798 25.0013L85.385 24.8386L82.3348 23.1204L81.0029 24.7268L72.8792 20.1414L74.201 18.5349L73.9163 18.3722L70.8661 16.654L69.5342 18.2502L61.4105 13.6749L62.7322 12.0787L62.4374 11.9058L59.3872 10.1876L58.0655 11.7838L56.398 10.8383L52.8191 9.04883L51.9956 9.52669L56.4082 11.9567L57.3436 12.6684L60.3429 14.956L65.1521 18.6264L67.9379 20.1922L69.8392 23.2932L70.6627 22.8255L71.2829 22.0731L79.4066 26.6586L80.159 31.1627L80.9825 30.6848L82.7517 28.5497L90.8753 33.1352L90.4788 39.022L91.3024 38.5442L94.2204 35.0161L102.649 39.7744L103.696 38.4628Z" fill="#EC7700"></path><path d="M72.8894 20.131L72.0658 20.6089L73.9162 18.3721L74.2009 18.5347L72.8894 20.131Z" fill="#7D2700"></path><path d="M70.6627 22.8258L69.8392 23.2934L71.6896 21.0566L71.9845 21.2295L70.6627 22.8258Z" fill="#7D2700"></path><path d="M84.3479 26.608L83.5244 27.0858L85.385 24.8389L85.6798 25.0015L84.3479 26.608Z" fill="#7D2700"></path><path d="M80.9825 30.6851L80.159 31.163L81.9281 29.0278L82.2128 29.1905L80.9825 30.6851Z" fill="#7D2700"></path><path d="M95.8166 33.0844L94.9931 33.5521L96.8639 31.2949L97.1587 31.4678L95.8166 33.0844Z" fill="#7D2700"></path><path d="M91.3023 38.5443L90.4788 39.0222L93.3968 35.4941L93.6815 35.6568L91.3023 38.5443Z" fill="#7D2700"></path><path d="M61.4105 13.6749L60.5869 14.1426L62.4374 11.9058L62.7322 12.0786L61.4105 13.6749Z" fill="#7D2700"></path><path d="M103.696 38.463L94.9931 33.5522L96.8639 31.295L93.5188 29.4141L91.648 31.6712L83.5244 27.0858L85.385 24.8388L82.0399 22.9477L80.1793 25.2048L72.0557 20.6194L73.9163 18.3724L70.5712 16.4915L68.7106 18.7283L60.5869 14.1428L62.4374 11.906L59.0923 10.0251L57.2419 12.2619L55.5745 11.3163L51.9956 9.52686L55.5846 12.4347L56.52 13.1464L59.5194 15.4341L64.3285 19.0943L67.1144 20.6702L66.8297 21.0057L69.8392 23.2934L70.4594 22.5512L78.5831 27.1366L77.1495 28.8651L80.159 31.1629L81.9281 29.0277L90.0518 33.603L87.4693 36.7345L90.4788 39.0222L93.3968 35.4941L102.12 40.4151L103.696 38.463Z" fill="#D45100"></path><path d="M50.4603 11.0215L61.3901 27.0858L91.8615 49.3827L97.5654 47.1967L50.4603 11.0215Z" fill="#BC3C00"></path><path d="M116.975 62.2241V64.7049L97.2401 50.8266L101.795 41.9302L111.556 47.5629L114.474 58.8282L116.975 62.2241Z" fill="#380009"></path><path d="M103.584 45.5087V51.2939L100.534 49.5248V48.2132L102.171 44.6953L103.584 45.5087Z" fill="#4F2F32"></path><path d="M104.337 69.5137V72.0047L84.6122 58.1264L89.157 49.23L98.9176 54.8627L101.846 66.128L104.337 69.5137Z" fill="#380009"></path><path d="M98.0839 56.9164L99.7818 63.4031L93.3053 59.6615L92.0852 56.6622V53.4595L98.0839 56.9164Z" fill="#4F2F32"></path><path d="M90.9465 52.7987V58.5839L87.8963 56.825V55.5032L89.5434 51.9854L90.9465 52.7987Z" fill="#4F2F32"></path><path d="M109.847 29.8306L124.661 38.3813V35.809L109.847 27.2583V29.8306Z" fill="#E26600"></path><path d="M120.36 44.8071L124.661 38.3814V35.8091L120.36 42.2348V44.8071Z" fill="#EC7700"></path><path d="M98.9176 54.8625L114.24 46.017L104.479 40.3843L89.157 49.2298L98.9176 54.8625Z" fill="#4C241B"></path><path d="M98.9176 54.8626L114.24 46.0171L117.158 57.2825L101.846 66.128L98.9176 54.8626Z" fill="#42180F"></path><path d="M99.7209 55.3101L113.731 47.2271L116.202 56.7538L102.202 64.8368L99.7209 55.3101Z" fill="#67383F"></path><path d="M116.202 56.754L112.908 55.7881L101.51 62.1935L102.202 64.837L116.202 56.754Z" fill="#784A51"></path><path d="M113.406 48.0711L115.104 54.5579L108.627 50.8163L107.407 47.817V44.6143L113.406 48.0711Z" fill="#7E7E7E"></path><g style="mix-blend-mode:multiply"><path d="M115.328 50.206L104.977 56.0726L99.548 57.2825L98.9176 54.8626L89.157 49.23L114.24 46.0171L115.328 50.206Z" fill="#C79E8F"></path></g><path d="M32.7794 55.2288C32.7794 55.3711 32.7794 55.5135 32.7794 55.6558C32.7793 56.3354 32.82 57.0145 32.9014 57.6893L33.3182 57.9536C33.3182 58.2281 33.3894 58.5128 33.4402 58.7873H33.0641C33.214 59.6708 33.4211 60.5437 33.6843 61.4003L34.091 61.5528C34.1825 61.8477 34.2841 62.1324 34.3858 62.4272L34.0605 62.5492C34.3793 63.4459 34.7458 64.325 35.1585 65.1826H35.5347C35.6771 65.4672 35.8194 65.7621 35.9719 66.0468L35.7279 66.2908C36.1854 67.1448 36.6836 67.9786 37.2225 68.7818L37.5377 68.6598L38.107 69.463L37.9444 69.8188C38.5057 70.5751 39.1064 71.3014 39.744 71.9946L39.988 71.7506C40.2015 71.9845 40.4252 72.2082 40.6489 72.4318L40.5879 72.8792C41.2308 73.4952 41.9098 74.0723 42.6213 74.6076L42.7027 74.2213L43.4042 74.7296V75.238C43.7397 75.4617 44.0854 75.6752 44.4209 75.8785C44.7565 76.0819 45.1123 76.2547 45.4377 76.4174V75.9701C45.6749 76.0853 45.9087 76.187 46.1392 76.2751L46.2917 76.8139C46.813 77.0019 47.3463 77.1547 47.888 77.2715L45.9562 79.3659L46.8407 79.8235L48.8742 78.8067L49.1081 78.8982L55.849 76.0616C56.1642 75.9192 57.9943 73.8146 58.279 73.6011L58.2281 73.4994L58.8483 73.1334C59.2787 72.7313 59.6486 72.2689 59.9464 71.7608L59.7125 71.4049L60.3226 71.0592C60.5847 70.4416 60.779 69.7973 60.9021 69.1376L60.5158 68.7106V68.5276L61.0241 68.2327C61.1076 67.6127 61.1483 66.9876 61.1461 66.362C61.1461 66.2196 61.1461 66.0671 61.1461 65.9248L60.7394 65.5994V65.1114L61.1258 64.8979C61.0434 64.0329 60.9075 63.1738 60.7191 62.3255L60.3023 62.112C60.3023 61.8782 60.1904 61.6443 60.1294 61.4105L60.4548 61.2275C60.2005 60.3208 59.8984 59.4282 59.5499 58.5535L59.1533 58.4721C59.0415 58.1976 58.9195 57.9231 58.7975 57.6486L59.0923 57.4656C58.6852 56.5892 58.2338 55.7341 57.7401 54.9034H57.3842C57.2317 54.6492 57.0792 54.395 56.9165 54.1409L57.1199 53.8358C56.6006 53.013 56.0372 52.2188 55.4321 51.4567L55.1271 51.6295C54.9543 51.4059 54.7712 51.1822 54.5882 50.9687L54.6899 50.562C54.0828 49.8469 53.4344 49.1679 52.748 48.5285L52.4124 48.7115L51.9346 48.3048V47.8168C51.2905 47.2742 50.6112 46.7749 49.9011 46.3222L49.5046 46.5561L49.1894 46.3832L49.0877 45.8545C48.4373 45.4947 47.757 45.1919 47.0543 44.9496L46.4951 45.275H46.4442L46.2409 44.726C45.6055 44.5679 44.9536 44.486 44.2989 44.4819H43.5567C42.0397 45.0783 40.5565 45.7571 39.1136 46.5154L38.5239 46.8509L32.1083 50.562L30.7357 53.8867L33.1759 52.3718C33.0133 52.9857 32.8977 53.6111 32.8302 54.2425L33.2369 54.6187C33.2369 54.8627 33.2369 55.1068 33.2369 55.3508L32.7794 55.2288ZM33.3894 52.2599L33.7961 52.0057C33.7453 52.1481 33.6944 52.2904 33.6538 52.4328L33.3894 52.2599Z" fill="#481018"></path><path d="M41.7978 45.2038L38.3307 47.5017L32.5964 50.2672L34.2841 49.8401L39.9168 47.4L43.455 44.543L41.7978 45.2038Z" fill="#4F1F26"></path><path d="M57.7401 54.8525L54.8322 59.1533L48.5692 60.1497L49.9113 62.7525L56.2048 61.7358L59.0822 57.4554L58.4416 56.1235L57.7401 54.8525Z" fill="#4F1F26"></path><path d="M59.5397 58.5435L56.154 62.8646L50.3688 63.8406L51.2635 66.5146L57.0894 65.5081L60.4446 61.2175L60.0684 60.0075L59.5397 58.5435Z" fill="#4F1F26"></path><path d="M60.7089 62.3154L57.5164 66.606L51.538 67.6126L51.9447 70.1849L57.9536 69.1479L61.1156 64.8878L60.9936 63.7388L60.7089 62.3154Z" fill="#4F1F26"></path><path d="M61.1665 65.9146L58.0858 70.1136L51.9956 71.2117L51.8837 73.5197L58.0146 72.4013L61.0546 68.2225L61.1766 67.216L61.1665 65.9146Z" fill="#4F1F26"></path><path d="M60.9021 69.1274L58.1976 72.8487L51.721 74.4246L51.1008 76.3259L57.7401 74.3738L60.2717 71.0287L60.6174 70.2458L60.9021 69.1274Z" fill="#4F1F26"></path><path d="M59.8956 71.7402L56.8555 74.6786L50.7247 77.0272L49.6266 78.3998L55.7981 76.0308L58.7975 73.1128L59.3872 72.5333L59.8956 71.7402Z" fill="#4F1F26"></path><path d="M55.4321 51.4565L52.5141 55.7573L46.2612 56.7435L47.949 59.1329L54.2425 58.1161L57.1199 53.8357L56.276 52.5851L55.4321 51.4565Z" fill="#4F1F26"></path><path d="M52.7479 48.5693L49.8299 52.8701L43.577 53.8563L45.519 55.8593L51.8125 54.8426L54.6899 50.5621L53.8155 49.5657L52.7479 48.5693Z" fill="#4F1F26"></path><path d="M49.8604 46.3628L46.9424 50.6636L40.6895 51.66L42.7636 53.1545L49.0572 52.1378L51.9345 47.8574L51.05 47.1457L49.8604 46.3628Z" fill="#4F1F26"></path><path d="M46.9526 44.98L44.3294 48.569L37.7817 50.2771L39.8558 51.182L46.4442 49.4434L49.0267 45.8849L48.1117 45.407L46.9526 44.98Z" fill="#4F1F26"></path><path d="M44.1972 44.5024L41.3504 47.4001L35.0263 49.7996L36.9683 50.0436L43.1398 48.0813L46.1392 44.7465L45.0716 44.5634L44.1972 44.5024Z" fill="#4F1F26"></path><path d="M34.4061 49.9214L30.1765 52.1887L31.2949 53.907L34.4061 52.148V49.9214Z" fill="#481018"></path><path d="M33.2369 52.1582L29.0073 54.5984L30.1257 56.3268L33.2369 54.5577V52.1582Z" fill="#481018"></path><path d="M32.7794 55.229L28.5498 57.6692L29.658 59.3874L32.7794 57.6285V55.229Z" fill="#481018"></path><path d="M33.0539 58.7568L28.8141 61.197L29.9325 62.9153L33.0539 61.1563V58.7568Z" fill="#481018"></path><path d="M34.0503 62.5186L29.8207 64.9587L30.9391 66.677L34.0503 64.918V62.5186Z" fill="#481018"></path><path d="M51.8532 73.5197C51.9367 72.8996 51.9774 72.2746 51.9752 71.6489C51.9752 71.5066 51.9752 71.3541 51.9752 71.2117L51.5685 70.8864C51.5685 70.622 51.5685 70.3577 51.5177 70.0933L51.9244 70.1747C51.8419 69.313 51.7061 68.4573 51.5177 67.6125L51.1008 67.399C51.0398 67.1245 50.9687 66.8398 50.8975 66.5653H51.2432C50.997 65.6573 50.6983 64.7645 50.3485 63.8913L49.9519 63.8099C49.8401 63.5354 49.7181 63.2609 49.5961 62.9864L49.8909 62.8034C49.4883 61.9134 49.0404 61.0447 48.5489 60.2005L48.193 60.2514C48.0405 59.9972 47.888 59.7328 47.7253 59.4888L47.9287 59.1838C47.4069 58.3593 46.8436 57.5618 46.2409 56.7945L45.946 56.9877L45.397 56.3166L45.4987 55.9099C44.8886 55.1975 44.2404 54.5186 43.5567 53.8765L43.3534 54.1917L42.7433 53.6528V53.1749C42.1018 52.6292 41.4223 52.1297 40.7099 51.6803L40.6082 52.087L40.2727 51.8532L39.9575 51.6803L39.8558 51.1516C39.2054 50.7918 38.5251 50.4891 37.8224 50.2467V50.7246L37.2123 50.5518L37.009 50.0129C36.3583 49.8687 35.6926 49.8039 35.0264 49.8197L35.128 50.3484C34.9452 50.338 34.7619 50.338 34.579 50.3484L34.2841 49.8197C33.703 49.875 33.1338 50.019 32.5964 50.2467L32.7997 50.7754L32.332 51.0093L31.9762 50.5416C31.477 50.827 31.0244 51.187 30.6341 51.6092L30.9188 52.1175C30.7968 52.2599 30.6849 52.392 30.5731 52.5446L30.1766 52.1582C29.8053 52.6624 29.5011 53.2126 29.2717 53.7951L29.6275 54.2527C29.5563 54.4458 29.4852 54.6492 29.4242 54.8525L29.0073 54.578C28.8037 55.2647 28.6675 55.9696 28.6006 56.6826L28.9971 57.0588C28.9971 57.3029 28.9971 57.5469 28.9971 57.8011L28.5905 57.6485C28.5905 57.7909 28.5905 57.9332 28.5905 58.0756C28.5904 58.7552 28.6311 59.4343 28.7125 60.109L29.1293 60.3734C29.1293 60.6581 29.2005 60.9326 29.2513 61.2071H28.865C29.0215 62.0893 29.2286 62.9617 29.4852 63.8201L29.8919 63.9624C29.9834 64.2573 30.085 64.5521 30.1867 64.8368L29.8614 64.9588C30.1793 65.8544 30.5424 66.7333 30.9493 67.5922H31.3356C31.478 67.8768 31.6203 68.1717 31.7728 68.4564L31.5288 68.7004C31.9692 69.5492 32.4545 70.3739 32.9827 71.171L33.2979 71.049C33.4809 71.3236 33.6741 71.5879 33.8673 71.8523L33.7046 72.2081C34.266 72.9644 34.8667 73.6907 35.5042 74.3839L35.7482 74.1399C35.9617 74.3737 36.1854 74.5974 36.4091 74.8211L36.3481 75.2685C36.9884 75.8874 37.6676 76.4647 38.3816 76.9969L38.5341 76.6411C38.7679 76.8241 39.0018 76.9867 39.2356 77.1494L39.2865 77.6578C39.622 77.8815 39.9677 78.1051 40.3032 78.2983C40.6387 78.4915 40.9946 78.6745 41.3199 78.8372L41.3707 78.3898C41.6012 78.5051 41.8351 78.6067 42.0723 78.6949L42.2248 79.2337C42.8822 79.4877 43.5634 79.6751 44.2583 79.7929L44.1973 79.2846C44.4209 79.2846 44.6344 79.3456 44.8581 79.3659L45.1021 79.8946C45.7039 79.9386 46.3088 79.9044 46.9018 79.7929L46.6781 79.3049C46.8706 79.2648 47.0607 79.2139 47.2474 79.1524L47.5626 79.6404C48.0989 79.4689 48.6036 79.2113 49.0572 78.8779L48.803 78.339C48.9558 78.2256 49.1017 78.1034 49.2402 77.973L49.6164 78.4C50.0468 77.9979 50.4167 77.5356 50.7145 77.0274L50.3891 76.5394C50.4908 76.3665 50.5925 76.1835 50.684 75.9903L51.0907 76.3259C51.3685 75.7175 51.5765 75.0797 51.7109 74.4246L51.3347 73.9976C51.3347 73.7739 51.4262 73.54 51.4567 73.3062L51.8532 73.5197Z" fill="#67383F"></path><path d="M50.4705 71.0285C50.4705 77.6271 45.8138 80.2808 40.0591 76.9662C34.3045 73.6517 29.6478 65.6094 29.6478 58.9701C29.6478 52.3309 34.3146 49.7077 40.0591 53.0324C45.8037 56.3571 50.4705 64.43 50.4705 71.0285Z" fill="#5C2930"></path><path d="M47.5321 69.3306C47.5321 74.0584 44.1871 75.9698 40.0592 73.5805C37.8914 72.1722 36.086 70.2729 34.7894 68.0365C33.4928 65.8002 32.7415 63.2897 32.5964 60.7087C32.5964 55.9809 35.9414 54.0695 40.0592 56.4486C42.2291 57.858 44.0364 59.7587 45.3347 61.9968C46.633 64.2349 47.3859 66.7473 47.5321 69.3306Z" fill="#67383F"></path><path d="M33.5521 61.2376C33.6756 63.4987 34.3289 65.699 35.4592 67.6612C36.5895 69.6233 38.1652 71.2923 40.0592 72.5335C43.6787 74.5669 46.6069 72.9503 46.6069 68.8021C46.4796 66.5372 45.8205 64.3343 44.6829 62.3717C43.5453 60.4092 41.9612 58.7423 40.0592 57.5062C36.4498 55.4219 33.5521 57.0894 33.5521 61.2376Z" fill="#E49A00"></path><path d="M45.7528 68.3141C45.7528 71.9235 43.2008 73.3977 40.0591 71.5676C38.3971 70.4926 37.0129 69.0396 36.0198 67.3273C35.0267 65.615 34.4529 63.692 34.3451 61.7155C34.3451 58.1976 36.7751 56.7132 39.8355 58.3704C39.9136 58.3958 39.9887 58.4299 40.0591 58.4721C41.6726 59.5199 43.0247 60.9233 44.0117 62.5747C44.9986 64.2261 45.5943 66.0816 45.7528 67.9989C45.7528 68.1209 45.7528 68.2124 45.7528 68.3141Z" fill="#AA4400"></path><path d="M45.7528 67.999L43.8211 69.2903L38.9306 65.9147L37.7003 59.9059L39.8456 58.3706C39.9238 58.3959 39.9988 58.43 40.0693 58.4723C41.6809 59.5211 43.031 60.925 44.0162 62.5764C45.0014 64.2277 45.5954 66.0826 45.7528 67.999Z" fill="#BE5900"></path><path d="M43.4042 69.7373C41.7464 68.6609 40.366 67.2087 39.3749 65.4986C38.3838 63.7886 37.8101 61.8688 37.7003 59.8954C37.6857 59.1575 37.8206 58.4243 38.0969 57.7399C35.9109 57.4044 34.3553 58.899 34.3553 61.7255C34.4651 63.6989 35.0388 65.6187 36.0299 67.3288C37.0209 69.0389 38.4014 70.4911 40.0591 71.5674C42.479 72.9603 44.5429 72.4215 45.3766 70.4693C44.678 70.355 44.0082 70.1064 43.4042 69.7373Z" fill="#BB5900"></path><path d="M36.9174 62.234C36.9946 63.607 37.3949 64.9423 38.0857 66.1314C38.7765 67.3204 39.7383 68.3295 40.8929 69.0766C43.0788 70.3475 44.8581 69.3308 44.8581 66.8194C44.7781 65.4497 44.3777 64.1178 43.6889 62.9311C43.0002 61.7444 42.0425 60.736 40.8929 59.987C38.6967 58.7059 36.9174 59.7125 36.9174 62.234Z" fill="#DA7200"></path><path d="M38.4222 63.4133C38.4562 64.1522 38.6658 64.8724 39.0336 65.5142C39.4013 66.156 39.9167 66.701 40.537 67.104C41.6961 67.775 42.6416 67.2362 42.6416 65.8941C42.6001 65.165 42.388 64.4559 42.0225 63.8237C41.6569 63.1915 41.1481 62.6539 40.537 62.2542C39.3678 61.5425 38.4222 62.0814 38.4222 63.4133Z" fill="#BE5900"></path><path d="M38.2392 63.9321C38.2722 64.5285 38.4449 65.1089 38.7434 65.6263C39.0418 66.1438 39.4577 66.5839 39.9575 66.9111C40.9132 67.4601 41.6859 67.0128 41.6859 65.8944C41.6518 65.2984 41.4775 64.7189 41.1771 64.203C40.8768 63.6871 40.4589 63.2494 39.9575 62.9255C39.0119 62.407 38.2392 62.8442 38.2392 63.9321Z" fill="#DA7200"></path><path d="M109.847 27.2583L81.4909 43.6277L96.3047 52.1783L107.712 49.5349L120.36 42.2347L124.661 35.809L109.847 27.2583Z" fill="#FFC523"></path><path d="M81.4909 46.2003L96.3047 54.751V52.1786L81.4909 43.6279V46.2003Z" fill="#D45100"></path><path d="M107.712 52.1075L96.3047 54.751V52.1787L107.712 49.5352V52.1075Z" fill="#EC7700"></path><path d="M120.36 44.8072L107.712 52.1073V49.535L120.36 42.2349V44.8072Z" fill="#FF9A0A"></path><path d="M81.4909 43.6277L75.5329 47.2777L20.9548 16.3691L20.0804 17.0503L19.4907 18.6364V23.7303L72.3912 64.369L82.9957 51.7107L84.7444 48.0809L81.4909 43.6277Z" fill="#D45100"></path><path d="M22.0325 22.9071L28.4481 28.1128L29.3835 28.8143L32.3828 31.1121L37.192 34.7724L39.6931 36.6838L42.7027 38.9715L50.0129 44.5431L53.0225 46.8308L60.3327 52.4025L63.3423 54.7003L71.2524 60.7295L74.9838 56.0932L76.5598 54.1411L78.4 51.8636L69.7273 46.9731L66.3823 45.082L58.2485 40.5067L54.9034 38.6258L46.7797 34.0505L43.4347 32.1594L35.3009 27.5841L31.9558 25.7031L22.6832 20.4873L22.0325 22.9071Z" fill="#CD4500"></path><path d="M64.1658 54.2224L61.1563 51.9348L53.846 46.3529L50.8365 44.0653L43.5262 38.4936L40.5167 36.2059L38.0155 34.2945L33.2064 30.6343L30.207 28.3466L29.2716 27.6349L22.8561 22.4293L23.2933 20.8228L22.6832 20.4873L22.0325 22.9071L28.4481 28.1128L29.3835 28.8143L32.3828 31.1121L37.192 34.7724L39.6931 36.6838L42.7027 38.9715L50.0129 44.5431L53.0225 46.8308L60.3327 52.4025L63.3423 54.7003L71.2524 60.7295L71.8015 60.0381L64.1658 54.2224Z" fill="#E25D00"></path><path d="M22.8561 22.4293L22.0325 22.9071L22.6832 20.4873L23.2933 20.8228L22.8561 22.4293Z" fill="#7D2700"></path><path d="M76.5598 54.141L77.0783 53.4903L68.6801 48.7524L70.0222 47.1358L69.7273 46.9731L66.6771 45.2548L65.3351 46.8714L57.2114 42.286L58.5433 40.6795L58.2484 40.5067L55.1983 38.7884L53.8663 40.3949L45.7427 35.8196L47.0746 34.2131L46.7797 34.0505L43.7295 32.3322L42.3976 33.9285L34.274 29.343L35.5957 27.7467L35.3009 27.5841L32.2507 25.8658L30.9289 27.4621L29.2615 26.5165L25.6826 24.7271L24.859 25.1947L29.2716 27.6349L30.207 28.3466L33.2064 30.6343L38.0155 34.2945L40.8014 35.8704L42.7026 38.9714L43.5262 38.4936L44.1464 37.7514L52.2701 42.3368L53.0225 46.8308L53.846 46.3529L55.6151 44.2178L63.7388 48.8032L63.3423 54.7002L64.1658 54.2224L67.0838 50.6943L75.5125 55.4425L76.5598 54.141Z" fill="#EC7700"></path><path d="M45.7528 35.8092L44.9293 36.2871L46.7797 34.0503L47.0746 34.213L45.7528 35.8092Z" fill="#7D2700"></path><path d="M43.5262 38.4933L42.7026 38.9712L44.5531 36.7344L44.8479 36.8971L43.5262 38.4933Z" fill="#7D2700"></path><path d="M57.2114 42.2856L56.3878 42.7635L58.2484 40.5063L58.5433 40.6792L57.2114 42.2856Z" fill="#7D2700"></path><path d="M53.846 46.3526L53.0225 46.8304L54.7916 44.6953L55.0763 44.8682L53.846 46.3526Z" fill="#7D2700"></path><path d="M68.6801 48.7524L67.8565 49.2303L69.7273 46.9731L70.0222 47.1358L68.6801 48.7524Z" fill="#7D2700"></path><path d="M64.1658 54.2221L63.3423 54.6999L66.2603 51.1719L66.545 51.3346L64.1658 54.2221Z" fill="#7D2700"></path><path d="M34.274 29.3429L33.4504 29.8208L35.3009 27.584L35.5957 27.7467L34.274 29.3429Z" fill="#7D2700"></path><path d="M76.5598 54.1406L67.8565 49.2298L69.7273 46.9727L66.3823 45.0816L64.5115 47.3387L56.3878 42.7634L58.2484 40.5063L54.9034 38.6253L53.0428 40.8723L44.9191 36.2869L46.7797 34.0501L43.4347 32.1589L41.5741 34.4059L33.4504 29.8205L35.3009 27.5836L31.9558 25.7027L30.1054 27.9395L28.4379 26.9939L24.859 25.1943L28.4481 28.1123L29.3835 28.8139L32.3828 31.1117L37.192 34.7719L39.9778 36.3377L39.6931 36.6834L42.7026 38.971L43.3229 38.2288L51.4465 42.8143L50.0129 44.5427L53.0225 46.8303L54.7916 44.6952L62.9152 49.2807L60.3327 52.402L63.3423 54.6998L66.2603 51.1718L74.9838 56.0928L76.5598 54.1406Z" fill="#D45100"></path><path d="M24.5134 27.5942L36.6531 41.3709L68.5174 63.251L70.4289 62.8748L24.5134 27.5942Z" fill="#BC3C00"></path><path d="M119.659 63.1594L104.337 72.005V69.514L119.659 60.6685V63.1594Z" fill="#42180F"></path><path d="M101.846 66.1283L104.337 69.514L119.659 60.6684L117.158 57.2827L101.846 66.1283Z" fill="#4A2219"></path><path d="M79.7625 60.7698L85.0901 57.1909L82.8533 61.5527L90.2348 65.9348L89.4722 66.372L79.7625 60.7698Z" fill="#FF9A0A"></path><path d="M111.047 76.2241H105.333L101.154 73.8653H99.548L88.0183 67.2057L89.4722 66.372L79.7625 60.7698L85.0901 57.1909L82.8533 61.5527L104.337 74.0788L106.787 72.6554V73.7636L111.047 76.2241Z" fill="#CD4500"></path><path d="M111.047 73.6925L128.189 63.7896V77.1189L111.047 87.0218V73.6925Z" fill="#E26600"></path><path d="M111.789 74.1296L127.447 65.0908V76.6815L111.789 85.7203V74.1296Z" fill="#301010"></path><path d="M111.789 84.5207V84.6733L111.922 84.9986L126.857 65.8638L126.715 65.5181L126.552 65.6096L111.789 84.5207Z" fill="#EC7700"></path><path d="M120.655 74.8518L118.886 75.8584V74.4553L120.666 73.4487L120.655 74.8518Z" fill="#EC7700"></path><path d="M126.481 65.65V76.1325L111.789 84.612V85.7203L127.447 76.6815V65.0908L126.481 65.65Z" fill="#FF9A0A"></path><path d="M126.481 65.65V76.1325L127.447 76.6815V65.0908L126.481 65.65Z" fill="#BC3C00"></path><path d="M106.787 71.2422L111.047 73.6925V76.2242L106.787 73.7637V71.2422Z" fill="#CD4500"></path><path d="M106.787 71.2423L111.047 73.6926L128.189 63.7897L123.939 61.3394L106.787 71.2423Z" fill="#FFC523"></path><path d="M88.0183 61.7866L107.59 73.0825V72.625L88.0183 61.3291V61.7866Z" fill="#260505"></path><path d="M107.092 78.217L107.336 78.3594L107.59 78.217V72.625L107.092 72.3403V78.217Z" fill="#260505"></path><path d="M102.324 75.4617L102.568 75.604L102.822 75.4617V69.9001L102.324 69.585V75.4617Z" fill="#260505"></path><path d="M97.5552 72.7165L97.7993 72.8589L98.0534 72.7165V67.1652L97.5552 66.8398V72.7165Z" fill="#260505"></path><path d="M92.7868 69.9612L93.0308 70.1035L93.285 69.9612V64.4403L92.7868 64.0845V69.9612Z" fill="#260505"></path><path d="M88.0183 67.2058L88.2725 67.3481L88.5165 67.2058V61.7053L88.0183 61.3291V67.2058Z" fill="#260505"></path><path d="M126.268 78.9899L126.024 78.8476L128.769 66.1689L129.013 66.3215L126.268 78.9899Z" fill="#953E00"></path><path d="M126.268 78.9897L126.725 78.7559L129.47 66.0874L129.013 66.3213L126.268 78.9897Z" fill="#FF9A0A"></path><path d="M127.976 81.5418L129.714 80.5353L126.278 78.5425L124.539 79.549L127.976 81.5418Z" fill="#FF9A0A"></path><path d="M127.976 82.2941L129.714 81.2875V80.5352L127.976 81.5417V82.2941Z" fill="#E25D00"></path><path d="M127.976 82.294L124.539 80.3114V79.5488L127.976 81.5416V82.294Z" fill="#BC3C00"></path><path d="M128.748 80.7284L126.034 79.122L126.054 78.7661L128.769 80.3827L128.748 80.7284Z" fill="#2E0008"></path><path d="M128.667 80.657L126.166 79.1726L126.156 79.0811L128.667 80.5655V80.657Z" fill="#E68D00"></path><path d="M128.748 80.7283L129.918 79.8437L129.938 79.6099L128.769 80.3826L128.748 80.7283Z" fill="#380009"></path><path d="M128.769 80.3826L126.054 78.766L127.223 78.0034L129.938 79.6099L128.769 80.3826Z" fill="#67383F"></path><path d="M129.399 77.9428L126.674 76.3363L126.695 75.9805L129.409 77.5971L129.399 77.9428Z" fill="#2E0008"></path><path d="M129.318 77.8713L126.807 76.3869V76.2954L129.308 77.7798L129.318 77.8713Z" fill="#E68D00"></path><path d="M129.399 77.9426L130.568 77.0581L130.589 76.8242L129.409 77.5969L129.399 77.9426Z" fill="#380009"></path><path d="M129.409 77.5968L126.695 75.9802L127.874 75.2075L130.589 76.8241L129.409 77.5968Z" fill="#67383F"></path><path d="M130.04 75.1566L127.325 73.5502L127.345 73.1943L130.06 74.8008L130.04 75.1566Z" fill="#2E0008"></path><path d="M129.958 75.0856L127.457 73.6012L127.447 73.4995L129.958 74.9839V75.0856Z" fill="#E68D00"></path><path d="M130.04 75.1565L131.209 74.2719L131.229 74.0381L130.06 74.8006L130.04 75.1565Z" fill="#380009"></path><path d="M130.06 74.801L127.345 73.1946L128.515 72.4219L131.229 74.0385L130.06 74.801Z" fill="#67383F"></path><path d="M130.68 72.371L127.966 70.7544L127.986 70.4087L130.711 72.0151L130.68 72.371Z" fill="#2E0008"></path><path d="M130.609 72.2893L128.098 70.8049L128.088 70.7134L130.599 72.1978L130.609 72.2893Z" fill="#E68D00"></path><path d="M130.68 72.3708L131.86 71.4862L131.88 71.2422L130.711 72.0149L130.68 72.3708Z" fill="#380009"></path><path d="M130.711 72.0149L127.986 70.4085L129.155 69.6357L131.88 71.2422L130.711 72.0149Z" fill="#67383F"></path><path d="M131.331 69.5746L128.616 67.9682L128.637 67.6123L131.351 69.2289L131.331 69.5746Z" fill="#2E0008"></path><path d="M131.25 69.5037L128.749 68.0192L128.738 67.9277L131.25 69.4122V69.5037Z" fill="#E68D00"></path><path d="M131.331 69.5749L132.5 68.6904L132.521 68.4565L131.351 69.2293L131.331 69.5749Z" fill="#380009"></path><path d="M131.351 69.2292L128.637 67.6126L129.806 66.8501L132.521 68.4565L131.351 69.2292Z" fill="#67383F"></path><path d="M129.257 80.7588L129.714 80.5352L132.46 67.8667L132.002 68.0904L129.257 80.7588Z" fill="#FF9A0A"></path><path d="M129.257 80.759L129.013 80.6167L131.758 67.9482L132.002 68.0906L129.257 80.759Z" fill="#953E00"></path><path d="M132.165 67.9991L139.139 63.9729L135.703 61.9902L128.728 66.0063L132.165 67.9991Z" fill="#FF9A0A"></path><path d="M132.165 68.7513L139.14 64.725V63.9727L132.165 67.9989V68.7513Z" fill="#E25D00"></path><path d="M132.165 68.751L128.728 66.7684V66.0059L132.165 67.9986V68.751Z" fill="#BC3C00"></path><path d="M139.14 58.8482L131.921 63.0167V62.5592L139.14 58.3906V58.8482Z" fill="#260505"></path><path d="M132.419 67.8567L132.165 67.9991L131.921 67.8567V62.5596L132.419 62.2749V67.8567Z" fill="#260505"></path><path d="M135.774 65.9144L135.53 66.0567L135.276 65.9144V60.668L135.774 60.3325V65.9144Z" fill="#260505"></path><path d="M139.139 63.9725L138.885 64.1148L138.641 63.9725V58.7668L139.139 58.3906V63.9725Z" fill="#260505"></path><path d="M128.189 61.1563L107.194 73.3163V72.8588L128.189 60.6987V61.1563Z" fill="#260505"></path><path d="M111.291 73.5503L111.047 73.6927L110.793 73.5503V70.7442L111.291 70.4595V73.5503Z" fill="#260505"></path><path d="M116.924 70.2969L116.68 70.4393L116.426 70.2969V67.5314L116.924 67.2061V70.2969Z" fill="#260505"></path><path d="M122.557 67.0431L122.313 67.1854L122.069 67.0431V64.3081L122.557 63.9624V67.0431Z" fill="#260505"></path><path d="M128.189 63.7896L127.945 63.9319L127.701 63.7896V61.0851L128.189 60.6987V63.7896Z" fill="#260505"></path><path d="M132.419 62.7324L128.759 77.1802V75.5025L131.921 62.5596L132.419 62.7324Z" fill="#260505"></path><path d="M129.257 80.7996L129.013 80.942L128.759 80.7996V75.5025L129.257 75.2178V80.7996Z" fill="#260505"></path><path d="M130.833 74.3231L130.589 74.4654L130.345 74.3231V69.0767L130.833 68.7412V74.3231Z" fill="#260505"></path><path d="M132.419 67.8567L132.165 67.9991L131.921 67.8567V62.6511L132.419 62.2749V67.8567Z" fill="#260505"></path><path d="M124.885 79.6814L124.377 80.5151L124.427 86.2393L124.041 86.5646L124.051 80.7388L124.661 79.5898L124.885 79.6814Z" fill="#E25D00"></path><path d="M124.143 83.7379L127.101 85.3748L127.376 84.9173L124.255 83.2905L124.143 83.7379Z" fill="#E25D00"></path><path d="M124.143 81.562L127.101 83.1888L127.376 82.7313L124.255 81.1045L124.143 81.562Z" fill="#E25D00"></path><path d="M124.194 85.6393L127.142 87.2762L127.427 86.8187L124.295 85.1919L124.194 85.6393Z" fill="#E25D00"></path><path d="M127.945 81.3484L127.437 82.1923L127.488 87.9165L127.091 88.2419L127.112 82.4058L127.722 81.2671L127.945 81.3484Z" fill="#E25D00"></path><path d="M106.919 80.5557L106.594 80.7387V81.8164L107.275 80.759L106.919 80.5557Z" fill="#FFD02D"></path><path d="M107.275 80.7588L106.95 80.952V82.0297L107.275 81.8365V80.7588Z" fill="#FF9A0A"></path><path d="M106.95 80.9518L106.594 80.7383V81.816L106.95 82.0295V80.9518Z" fill="#E25B00"></path><path d="M106.757 91.6481C106.742 91.7957 106.692 91.9377 106.611 92.0616C106.529 92.1856 106.419 92.2879 106.289 92.3598L104.957 93.1528C104.733 93.2952 104.51 93.2138 104.53 92.9901V92.6241C104.543 92.5063 104.584 92.3933 104.65 92.2943C104.715 92.1954 104.803 92.1133 104.906 92.0547L105.923 91.4752L106.462 91.16C106.624 91.0584 106.787 91.16 106.777 91.2719L106.757 91.6481Z" fill="#CDCDCD"></path><path d="M105.425 92.5222L104.52 92.9798V92.6137C104.533 92.4959 104.574 92.3829 104.64 92.284C104.705 92.185 104.793 92.1029 104.896 92.0444L105.913 91.4648V91.8105C105.898 91.9607 105.846 92.1047 105.76 92.2291C105.675 92.3535 105.559 92.4544 105.425 92.5222Z" fill="#E3E7EB"></path><path d="M118.876 33.064L92.0547 48.3861L91.9531 48.5284L92.6648 48.9758L119.018 33.369L118.876 33.064Z" fill="#E26600"></path><path d="M118.307 32.7285L92.0547 48.3862L92.5224 48.6708L118.876 33.064L118.307 32.7285Z" fill="#FFE636"></path><path d="M117.198 32.0776L90.3771 47.3896L90.2755 47.5421L90.9973 47.9895L117.341 32.3827L117.198 32.0776Z" fill="#E26600"></path><path d="M116.629 31.7422L90.3771 47.3897L90.8448 47.6845L117.198 32.0777L116.629 31.7422Z" fill="#FFE636"></path><path d="M115.521 31.0918L88.6995 46.4037L88.5978 46.5461L89.3095 47.0036L115.663 31.3968L115.521 31.0918Z" fill="#E26600"></path><path d="M114.951 30.7559L88.6995 46.4033L89.1672 46.6982L115.521 31.0914L114.951 30.7559Z" fill="#FFE636"></path><path d="M113.843 30.1055L87.0219 45.4174L86.9202 45.5598L87.6319 46.0071L113.986 30.4003L113.843 30.1055Z" fill="#E26600"></path><path d="M113.274 29.7598L87.0219 45.4174L87.4896 45.7021L113.843 30.1055L113.274 29.7598Z" fill="#FFE636"></path><path d="M112.155 29.1089L85.3443 44.4208L85.2325 44.5733L85.9543 45.0207L112.308 29.4139L112.155 29.1089Z" fill="#E26600"></path><path d="M111.596 28.7734L85.3443 44.4209L85.812 44.7158L112.155 29.109L111.596 28.7734Z" fill="#FFE636"></path><path d="M110.488 28.1226L83.6667 43.4345L83.5549 43.587L84.2767 44.0344L110.63 28.4276L110.488 28.1226Z" fill="#E26600"></path><path d="M109.919 27.7871L83.6667 43.4346L84.1344 43.7294L110.488 28.1226L109.919 27.7871Z" fill="#FFE636"></path><g style="mix-blend-mode:multiply"><path d="M103.706 30.807L100.219 28.8345L94.0373 26.7197L80.7385 34.274L74.1094 36.399L66.911 41.0048L76.7529 46.5765L81.4909 43.6279L103.706 30.807Z" fill="#C79E8F"></path></g></g><defs><clipPath id="clip0_5678_10787"><rect width="139.139" height="110" fill="white"></rect></clipPath></defs></svg>