<svg xmlns="http://www.w3.org/2000/svg" width="91" height="100" viewBox="0 0 91 100" fill="none"><g clip-path="url(#clip0_5678_6503)"><path d="M31.501 99.9999H21.9276C21.5246 99.9999 21.1381 99.8341 20.8531 99.539C20.5681 99.244 20.408 98.8438 20.408 98.4265V94.013C19.0082 93.5806 17.654 93.0034 16.3659 92.29L13.3267 95.4369C13.1856 95.5832 13.018 95.6993 12.8336 95.7784C12.6491 95.8576 12.4513 95.8984 12.2516 95.8984C12.0519 95.8984 11.8542 95.8576 11.6697 95.7784C11.4853 95.6993 11.3177 95.5832 11.1765 95.4369L4.40679 88.4272C4.26551 88.2811 4.15342 88.1076 4.07695 87.9166C4.00048 87.7255 3.96112 87.5208 3.96112 87.314C3.96112 87.1073 4.00048 86.9025 4.07695 86.7115C4.15342 86.5205 4.26551 86.347 4.40679 86.2008L7.44596 83.0539C6.75201 81.7217 6.1919 80.3192 5.77442 78.8686H1.51958C1.11656 78.8686 0.730053 78.7028 0.445076 78.4077C0.160099 78.1127 0 77.7125 0 77.2952V67.3825C0 66.9652 0.160099 66.565 0.445076 66.2699C0.730053 65.9748 1.11656 65.809 1.51958 65.809H5.78202C6.20088 64.3614 6.76095 62.9617 7.45356 61.6315L4.41439 58.4847C4.27311 58.3385 4.16102 58.165 4.08455 57.974C4.00808 57.783 3.96872 57.5782 3.96872 57.3715C3.96872 57.1647 4.00808 56.9599 4.08455 56.7689C4.16102 56.5779 4.27311 56.4044 4.41439 56.2583L11.1841 49.2486C11.4747 48.9642 11.8594 48.8057 12.2592 48.8057C12.6591 48.8057 13.0438 48.9642 13.3343 49.2486L16.3735 52.3955C17.6623 51.6816 19.0163 51.1018 20.4156 50.6647V46.2512C20.4156 45.8339 20.5757 45.4337 20.8607 45.1386C21.1457 44.8435 21.5322 44.6777 21.9352 44.6777H31.5086C31.9116 44.6777 32.2981 44.8435 32.5831 45.1386C32.8681 45.4337 33.0282 45.8339 33.0282 46.2512V50.6647C34.425 51.1018 35.7765 51.6816 37.0626 52.3955L40.1018 49.2486C40.3855 48.9531 40.7708 48.7862 41.1731 48.7844C41.3736 48.7842 41.5722 48.8252 41.7574 48.9048C41.9425 48.9845 42.1107 49.1013 42.252 49.2486L49.0142 56.2583C49.1555 56.4044 49.2675 56.5779 49.344 56.7689C49.4205 56.9599 49.4598 57.1647 49.4598 57.3715C49.4598 57.5782 49.4205 57.783 49.344 57.974C49.2675 58.165 49.1555 58.3385 49.0142 58.4847L45.975 61.6315C46.6676 62.9617 47.2277 64.3614 47.6465 65.809H51.909C52.312 65.809 52.6985 65.9748 52.9835 66.2699C53.2685 66.565 53.4286 66.9652 53.4286 67.3825V77.2952C53.4286 77.7125 53.2685 78.1127 52.9835 78.4077C52.6985 78.7028 52.312 78.8686 51.909 78.8686H47.6465C47.2291 80.3192 46.669 81.7217 45.975 83.0539L49.0142 86.2008C49.1555 86.347 49.2675 86.5205 49.344 86.7115C49.4205 86.9025 49.4598 87.1073 49.4598 87.314C49.4598 87.5208 49.4205 87.7255 49.344 87.9166C49.2675 88.1076 49.1555 88.2811 49.0142 88.4272L42.2444 95.4369C41.9597 95.73 41.5746 95.8945 41.1731 95.8945C40.7717 95.8945 40.3865 95.73 40.1018 95.4369L37.0626 92.29C35.7778 93.0047 34.426 93.582 33.0282 94.013V98.4265C33.0282 98.8438 32.8681 99.244 32.5831 99.539C32.2981 99.8341 31.9116 99.9999 31.5086 99.9999H31.501ZM23.4472 96.853H29.9814V92.8329C29.972 92.4713 30.0833 92.1175 30.2964 91.8309C30.5095 91.5443 30.8115 91.3425 31.1515 91.2594C33.0477 90.7874 34.8604 90.0096 36.5232 88.9543C36.815 88.7704 37.1582 88.6936 37.4973 88.7365C37.8364 88.7793 38.1517 88.9392 38.3923 89.1904L41.1427 92.0462L45.7623 87.3258L43.0042 84.4622C42.7647 84.2127 42.6128 83.8872 42.5728 83.5378C42.5329 83.1884 42.6072 82.8352 42.7839 82.5347C43.8011 80.8092 44.5522 78.9299 45.0101 76.9647C45.0901 76.6221 45.2788 76.3173 45.5461 76.099C45.8134 75.8808 46.1437 75.7618 46.4841 75.761H50.3894V68.9952H46.4841C46.1437 68.9945 45.8134 68.8755 45.5461 68.6573C45.2788 68.439 45.0901 68.1342 45.0101 67.7916C44.5508 65.8293 43.7997 63.9529 42.7839 62.2295C42.6053 61.9281 42.5299 61.5733 42.5699 61.2222C42.6098 60.8711 42.7628 60.5442 43.0042 60.2941L45.7623 57.4305L41.1427 52.6472L38.3847 55.503C38.1432 55.7529 37.8274 55.9114 37.4884 55.9527C37.1493 55.9941 36.8066 55.9161 36.5156 55.7311C34.8564 54.6688 33.0463 53.883 31.1515 53.4025C30.8193 53.3193 30.524 53.1227 30.313 52.8443C30.1021 52.566 29.988 52.2222 29.989 51.8684V47.8246H23.4548V51.8684C23.4558 52.2222 23.3416 52.566 23.1307 52.8443C22.9198 53.1227 22.6244 53.3193 22.2923 53.4025C20.3947 53.8737 18.5797 54.6488 16.913 55.6997C16.6227 55.8826 16.2816 55.9596 15.9442 55.9182C15.6068 55.8769 15.2924 55.7196 15.0515 55.4715L12.2934 52.6157L7.6663 57.4305L10.4243 60.2863C10.6573 60.535 10.8045 60.8565 10.843 61.2008C10.8814 61.545 10.8091 61.8928 10.6371 62.1901C9.62122 63.9136 8.87019 65.79 8.4109 67.7522C8.3309 68.0948 8.14214 68.3997 7.87487 68.6179C7.6076 68.8362 7.27729 68.9552 6.9369 68.9559H3.03917V75.7217H6.9445C7.28592 75.7228 7.61702 75.843 7.88443 76.0628C8.15184 76.2826 8.33997 76.5892 8.41849 76.9333C8.87404 78.893 9.62261 80.7671 10.6371 82.4875C10.8157 82.7888 10.8911 83.1436 10.8511 83.4947C10.8111 83.8458 10.6581 84.1728 10.4167 84.4228L7.6587 87.2786L12.2858 92.0462L15.0439 89.1904C15.2839 88.9411 15.5978 88.7823 15.9353 88.7395C16.2727 88.6968 16.6143 88.7724 16.9054 88.9543C18.5715 90.0082 20.3865 90.786 22.2847 91.2594C22.6233 91.344 22.9235 91.5465 23.1351 91.8329C23.3467 92.1194 23.4569 92.4724 23.4472 92.8329V96.853Z" fill="#17262F"></path><path d="M26.7143 83.6128C24.5589 83.6144 22.4516 82.9535 20.6593 81.7139C18.867 80.4744 17.4704 78.7119 16.6462 76.6497C15.8221 74.5876 15.6077 72.3185 16.03 70.1301C16.4523 67.9416 17.4925 65.9321 19.0187 64.3563C20.5449 62.7804 22.4884 61.709 24.6032 61.2779C26.7179 60.8467 28.9086 61.0751 30.8979 61.9342C32.8872 62.7933 34.5854 64.2443 35.7775 66.1036C36.9697 67.9629 37.602 70.1467 37.5945 72.3785C37.5825 75.3596 36.4313 78.2146 34.3926 80.3197C32.3539 82.4247 29.5934 83.6087 26.7143 83.6128ZM26.7143 64.2202C25.1629 64.2186 23.6459 64.6932 22.3549 65.5838C21.0639 66.4745 20.0567 67.7413 19.4606 69.2243C18.8645 70.7073 18.7062 72.34 19.0058 73.9161C19.3053 75.4922 20.0492 76.941 21.1435 78.0796C22.2378 79.2182 23.6335 79.9955 25.1541 80.3132C26.6748 80.631 28.2524 80.475 29.6875 79.8649C31.1226 79.2549 32.3509 78.2182 33.2173 76.8857C34.0837 75.5532 34.5493 73.9848 34.5553 72.3785C34.5593 71.3093 34.3595 70.2497 33.9674 69.2606C33.5752 68.2715 32.9984 67.3722 32.27 66.6144C31.5416 65.8565 30.6759 65.2549 29.7225 64.8441C28.7692 64.4332 27.7469 64.2212 26.7143 64.2202Z" fill="#17262F"></path><path d="M72.94 85.2489H65.2205C64.8175 85.2489 64.431 85.0831 64.146 84.788C63.8611 84.493 63.701 84.0927 63.701 83.6754V80.3476C62.6956 80.0213 61.7194 79.6054 60.7834 79.1046L58.504 81.4648C58.362 81.6106 58.1936 81.726 58.0085 81.8043C57.8233 81.8826 57.6251 81.9222 57.4251 81.9211C57.0238 81.9214 56.6387 81.7574 56.3538 81.4648L54.4619 79.4586L56.6121 77.2322L57.4479 78.0976L59.4689 76.0128C59.7099 75.7647 60.0242 75.6075 60.3616 75.5661C60.6991 75.5248 61.0402 75.6017 61.3304 75.7846C62.6456 76.6168 64.0788 77.2301 65.5776 77.602C65.9162 77.6866 66.2164 77.889 66.4281 78.1755C66.6397 78.4619 66.7498 78.8149 66.7401 79.1754V82.1256H71.4204V79.1754C71.4107 78.8149 71.5209 78.4619 71.7325 78.1755C71.9441 77.889 72.2444 77.6866 72.5829 77.602C74.0827 77.233 75.5163 76.6196 76.8302 75.7846C77.1212 75.5997 77.4638 75.5217 77.8029 75.563C78.142 75.6044 78.4578 75.7629 78.6992 76.0128L80.7127 78.0976L84.0254 74.6754L82.0043 72.5906C81.763 72.3405 81.61 72.0136 81.57 71.6625C81.53 71.3114 81.6054 70.9565 81.784 70.6552C82.5988 69.3003 83.2038 67.8218 83.5771 66.2732C83.6571 65.9306 83.8459 65.6258 84.1131 65.4075C84.3804 65.1892 84.7107 65.0702 85.0511 65.0695H87.9003V60.2233H85.0207C84.6835 60.2148 84.3586 60.0903 84.0973 59.8695C83.8359 59.6488 83.6529 59.3442 83.5771 59.0039C83.2148 57.4517 82.62 55.9678 81.8144 54.6061C81.6367 54.304 81.5626 53.9486 81.604 53.5975C81.6453 53.2464 81.7998 52.9199 82.0423 52.6708L84.0558 50.586L80.7127 47.2031L78.6992 49.2879C78.4578 49.5378 78.142 49.6963 77.8029 49.7377C77.4638 49.779 77.1212 49.701 76.8302 49.5161C75.5144 48.685 74.0814 48.0718 72.5829 47.6987C72.2444 47.6141 71.9441 47.4117 71.7325 47.1252C71.5209 46.8388 71.4107 46.4858 71.4204 46.1253V43.1908H66.7401V46.141C66.7498 46.5015 66.6397 46.8545 66.4281 47.141C66.2164 47.4274 65.9162 47.6299 65.5776 47.7145C64.08 48.0904 62.6474 48.7034 61.3304 49.5318C61.0402 49.7147 60.6991 49.7917 60.3616 49.7503C60.0242 49.709 59.7099 49.5517 59.4689 49.3036L57.4479 47.2031L54.1428 50.6253L56.1562 52.7101C56.3976 52.9602 56.5506 53.2871 56.5906 53.6382C56.6305 53.9893 56.5552 54.3442 56.3766 54.6455C55.5801 55.997 54.9882 57.4668 54.6214 59.0039L51.6659 58.2801C52.0028 56.8176 52.5132 55.4039 53.1854 54.0712L50.9061 51.711C50.7648 51.5649 50.6527 51.3913 50.5762 51.2003C50.4997 51.0093 50.4604 50.8046 50.4604 50.5978C50.4604 50.391 50.4997 50.1863 50.5762 49.9953C50.6527 49.8042 50.7648 49.6307 50.9061 49.4846L56.3614 43.8281C56.652 43.5437 57.0366 43.3852 57.4365 43.3852C57.8363 43.3852 58.221 43.5437 58.5116 43.8281L60.791 46.1882C61.7213 45.6843 62.6925 45.2658 63.6934 44.9373V41.6174C63.6934 41.2001 63.8535 40.7999 64.1384 40.5048C64.4234 40.2097 64.8099 40.0439 65.2129 40.0439H72.94C73.343 40.0439 73.7296 40.2097 74.0145 40.5048C74.2995 40.7999 74.4596 41.2001 74.4596 41.6174V44.9452C75.4624 45.275 76.436 45.6935 77.3696 46.1961L79.649 43.8359C79.9339 43.5433 80.319 43.3793 80.7203 43.3796C80.9203 43.3784 81.1185 43.4181 81.3037 43.4964C81.4888 43.5747 81.6572 43.6901 81.7992 43.8359L87.2545 49.4925C87.3958 49.6386 87.5079 49.8121 87.5843 50.0031C87.6608 50.1941 87.7002 50.3989 87.7002 50.6057C87.7002 50.8124 87.6608 51.0172 87.5843 51.2082C87.5079 51.3992 87.3958 51.5727 87.2545 51.7189L84.9751 54.079C85.4625 55.041 85.8643 56.0469 86.1756 57.0843H89.3895C89.7925 57.0843 90.179 57.2501 90.464 57.5452C90.749 57.8402 90.9091 58.2404 90.9091 58.6577V66.643C90.9091 67.0603 90.749 67.4605 90.464 67.7555C90.179 68.0506 89.7925 68.2164 89.3895 68.2164H86.1756C85.8596 69.2546 85.458 70.2627 84.9751 71.2295L87.2545 73.5897C87.3958 73.7358 87.5079 73.9094 87.5843 74.1004C87.6608 74.2914 87.7002 74.4961 87.7002 74.7029C87.7002 74.9097 87.6608 75.1144 87.5843 75.3054C87.5079 75.4964 87.3958 75.67 87.2545 75.8161L81.7992 81.4648C81.6581 81.6111 81.4905 81.7271 81.306 81.8063C81.1215 81.8855 80.9238 81.9262 80.7241 81.9262C80.5244 81.9262 80.3267 81.8855 80.1422 81.8063C79.9577 81.7271 79.7901 81.6111 79.649 81.4648L77.3696 79.1046C76.4358 79.6046 75.4622 80.0205 74.4596 80.3476V83.6754C74.4596 84.0927 74.2995 84.493 74.0145 84.788C73.7296 85.0831 73.343 85.2489 72.94 85.2489Z" fill="#17262F"></path><path d="M69.0803 72.0398C67.286 72.0398 65.5321 71.4889 64.0402 70.4567C62.5483 69.4246 61.3856 67.9575 60.6989 66.2411C60.0123 64.5247 59.8326 62.636 60.1827 60.8138C60.5327 58.9917 61.3967 57.3179 62.6655 56.0042C63.9342 54.6905 65.5507 53.7959 67.3104 53.4334C69.0702 53.071 70.8943 53.257 72.552 53.968C74.2096 54.6789 75.6265 55.8829 76.6233 57.4277C77.6201 58.9724 78.1522 60.7885 78.1522 62.6464C78.1502 65.137 77.1937 67.5251 75.4929 69.2862C73.792 71.0474 71.4857 72.0377 69.0803 72.0398ZM69.0803 56.4077C67.8868 56.4077 66.7201 56.7742 65.7279 57.461C64.7356 58.1477 63.9624 59.1237 63.506 60.2656C63.0496 61.4075 62.9306 62.6638 63.164 63.8758C63.3974 65.0877 63.9727 66.2007 64.8172 67.074C65.6616 67.9473 66.7373 68.5416 67.908 68.7817C69.0788 69.0219 70.292 68.897 71.3942 68.423C72.4964 67.9491 73.438 67.1472 74.1 66.1189C74.762 65.0906 75.1145 63.8822 75.113 62.6464C75.111 60.991 74.4745 59.4042 73.3434 58.2345C72.2123 57.0647 70.6789 56.4077 69.0803 56.4077Z" fill="#17262F"></path><path d="M42.2064 33.2783C39.3896 33.2639 36.6921 32.0988 34.7003 30.0364C32.7085 27.974 31.5833 25.1809 31.5694 22.2642C31.5516 21.1184 31.708 19.9768 32.0328 18.8813L34.9504 19.8254C34.5876 21.0103 34.4997 22.267 34.6938 23.4936C34.8879 24.7202 35.3586 25.8822 36.0677 26.8851C36.7767 27.8881 37.7042 28.7039 38.7747 29.2662C39.8453 29.8285 41.0288 30.1216 42.2292 30.1216C43.4297 30.1216 44.6132 29.8285 45.6837 29.2662C46.7543 28.7039 47.6817 27.8881 48.3908 26.8851C49.0998 25.8822 49.5705 24.7202 49.7646 23.4936C49.9588 22.267 49.8709 21.0103 49.508 19.8254L52.3801 18.8813C52.7146 19.9647 52.8838 21.0954 52.8815 22.2328C52.8755 25.1617 51.7486 27.9687 49.7477 30.039C47.7469 32.1094 45.0351 33.2742 42.2064 33.2783Z" fill="#17262F"></path><path d="M30.9767 41.5624H27.9375C27.9375 39.6846 28.658 37.8836 29.9404 36.5558C31.2228 35.2279 32.9621 34.4819 34.7757 34.4819H42.2064V37.6288H34.7757C33.7681 37.6288 32.8018 38.0432 32.0894 38.7809C31.377 39.5186 30.9767 40.5192 30.9767 41.5624Z" fill="#17262F"></path><path d="M56.4753 41.5624H53.4362C53.4362 40.5192 53.0359 39.5186 52.3235 38.7809C51.611 38.0432 50.6447 37.6288 49.6372 37.6288H42.2064V34.4819H49.6372C51.4508 34.4819 53.1901 35.2279 54.4725 36.5558C55.7549 37.8836 56.4753 39.6846 56.4753 41.5624Z" fill="#17262F"></path><path d="M54.9557 20.9187H29.4571C29.0541 20.9187 28.6676 20.7529 28.3826 20.4578C28.0976 20.1627 27.9375 19.7625 27.9375 19.3452V16.0017C27.9362 15.7016 28.0177 15.4073 28.1725 15.1536C28.3273 14.8999 28.549 14.6974 28.8113 14.5698L29.6699 14.1607C29.5103 10.3766 30.7868 4.30312 36.7891 2.35992C36.9315 2.31134 37.08 2.28483 37.2298 2.28125H39.9878V5.42813H37.4881C31.8125 7.45 32.7394 14.5934 32.785 14.8688C32.831 15.2049 32.7707 15.5474 32.6133 15.8452C32.4558 16.1429 32.2095 16.38 31.9113 16.5209L30.9691 16.9772V17.7639H53.4286V16.9772L52.4864 16.5209C52.2035 16.3731 51.9723 16.1374 51.8252 15.8468C51.6781 15.5562 51.6224 15.2252 51.6658 14.9002C51.6658 14.5934 52.5928 7.43427 46.9627 5.4596H45.4432V2.31272H47.2059C47.3579 2.31297 47.509 2.33684 47.6541 2.38352C53.6565 4.33459 54.9405 10.4081 54.7734 14.1843L55.632 14.5934C55.8957 14.7198 56.119 14.9219 56.2752 15.1757C56.4314 15.4295 56.514 15.7243 56.5133 16.0253V19.3688C56.5104 19.5768 56.4676 19.7821 56.3875 19.9729C56.3075 20.1637 56.1917 20.3361 56.0468 20.4802C55.902 20.6243 55.731 20.7373 55.5437 20.8126C55.3564 20.8878 55.1566 20.9239 54.9557 20.9187Z" fill="#17262F"></path><path d="M46.9247 7.55251H43.8856V3.14688H40.0866V7.55251H37.0475V1.57344C37.0475 1.15614 37.2076 0.755927 37.4925 0.46085C37.7775 0.165773 38.164 0 38.567 0L45.4052 0C45.8082 0 46.1947 0.165773 46.4797 0.46085C46.7647 0.755927 46.9247 1.15614 46.9247 1.57344V7.55251Z" fill="#17262F"></path></g><defs><clipPath id="clip0_5678_6503"><rect width="90.9091" height="100" fill="white"></rect></clipPath></defs></svg>