<svg xmlns="http://www.w3.org/2000/svg" width="180" height="110" viewBox="0 0 180 110" fill="none"><g clip-path="url(#clip0_5678_9433)"><g style="mix-blend-mode:multiply"><path d="M175.156 101.644H169.104L135.427 105.464L134.501 104.906L108 97.6341L100.833 94.8451L93.5821 78.8587L99.8967 75.1752L111.81 75.3857L120.872 70.313L118.767 69.2606L95.8974 58.0522L39.9923 42.4025L25.4793 39.582L2.70475 52.6216L0 58.2311L21.1328 72.9651L12.2503 78.7009V80.8057L29.1418 90.2986H43.1496L61.4619 87.6149C61.4619 87.6149 72.3967 93.9295 75.0698 94.1505C76.9285 94.2346 78.7846 93.9336 80.5214 93.2665L85.1311 90.7091L91.8351 100.76L102.454 104.075L134.132 110L138.952 107.537L137.795 106.843L170.146 103.054L175.156 101.644Z" fill="#BBBBBB"></path></g><path d="M93.9084 22.0377C93.9649 22.1004 94.0351 22.1492 94.1137 22.1802C94.1922 22.2113 94.2768 22.2237 94.3609 22.2166C94.5504 22.2166 112.115 16.9545 112.115 16.9545L111.389 14.8496C111.389 14.8496 93.9084 20.0591 93.7715 20.1118C93.6347 20.1644 93.4348 20.3117 93.3822 20.5959C93.3535 20.8605 93.3861 21.1281 93.4773 21.3781C93.5686 21.6281 93.716 21.8538 93.9084 22.0377Z" fill="#BC3C00"></path><path d="M111.558 16.839C111.936 17.1652 112.315 17.0284 112.41 16.5338C112.448 16.2633 112.421 15.9877 112.331 15.7297C112.241 15.4718 112.092 15.2388 111.894 15.0499C111.516 14.7236 111.137 14.8604 111.042 15.3551C111.004 15.6256 111.032 15.9011 111.121 16.1591C111.211 16.4171 111.36 16.6501 111.558 16.839Z" fill="#D04200"></path><path d="M124.355 12.7448L123.882 11.6924L111.81 15.2601C111.731 15.2815 111.658 15.3199 111.596 15.3727C111.533 15.4255 111.483 15.4914 111.449 15.5657C111.415 15.64 111.397 15.7209 111.398 15.8027C111.399 15.8845 111.417 15.9651 111.452 16.0389C111.506 16.1625 111.603 16.2619 111.726 16.3182C111.848 16.3745 111.987 16.3837 112.115 16.3441L124.355 12.7448Z" fill="#828689"></path><path d="M178.797 18.6282L178.482 14.8184L179.208 14.3975L179.534 18.2073L178.797 18.6282Z" fill="#3B3334"></path><path d="M178.482 14.8184L176.314 14.3238L177.04 13.9028L179.208 14.3975L178.482 14.8184Z" fill="#3B3334"></path><path d="M174.198 13.3448L176.314 14.3236L177.04 13.9026L174.935 12.9238L174.198 13.3448Z" fill="#3B3334"></path><path d="M178.482 14.8181L176.314 14.3235L174.198 13.3447L173.767 16.2179L176.629 18.1333L178.797 18.6279L178.482 14.8181Z" fill="#2E2728"></path><path d="M174.356 98.3603C173.861 98.0762 173.861 97.6026 174.356 97.3079C174.851 97.0132 175.672 96.687 176.177 96.9711C176.682 97.2553 176.671 97.7289 176.177 98.0236C175.682 98.3182 174.861 98.655 174.356 98.3603Z" fill="#4A3F40"></path><path d="M173.988 97.7919C173.986 97.6687 174.022 97.5479 174.089 97.4448C174.157 97.3417 174.253 97.2611 174.367 97.213C174.872 96.9184 175.682 96.5816 176.187 96.8657C176.293 96.9141 176.384 96.9909 176.449 97.0874C176.514 97.184 176.551 97.2967 176.556 97.413C176.556 97.6024 175.503 101.623 175.156 101.623C174.809 101.623 173.998 98.1076 173.988 97.7919Z" fill="#4A3F40"></path><path d="M176.556 97.413L176.566 93.3506L174.009 93.3822L173.988 97.7918L176.556 97.413Z" fill="#4A3F40"></path><path d="M174.377 93.9505C173.872 93.6663 173.882 93.1927 174.377 92.8981C174.663 92.7601 174.976 92.6885 175.293 92.6885C175.61 92.6885 175.923 92.7601 176.208 92.8981C176.317 92.9364 176.412 93.0076 176.479 93.1018C176.545 93.1961 176.581 93.3088 176.581 93.4243C176.581 93.5398 176.545 93.6525 176.479 93.7467C176.412 93.841 176.317 93.9122 176.208 93.9505C175.925 94.0972 175.611 94.1738 175.293 94.1738C174.974 94.1738 174.66 94.0972 174.377 93.9505Z" fill="#4A3F40"></path><path d="M177.166 90.6565C175.808 89.8777 173.904 90.6565 172.904 92.3509C171.904 94.0453 172.199 96.108 173.556 96.8868C174.914 97.6656 176.819 96.8868 177.819 95.1924C178.818 93.498 178.524 91.4458 177.166 90.6565Z" fill="#362E2F"></path><path d="M174.261 94.8768C174.057 94.4065 173.97 93.8936 174.009 93.3824C174.008 93.2594 174.043 93.1388 174.108 93.0345C174.173 92.9303 174.266 92.8465 174.377 92.793C174.661 92.6567 174.972 92.5859 175.288 92.5859C175.603 92.5859 175.914 92.6567 176.198 92.793C176.305 92.8409 176.397 92.9172 176.464 93.0137C176.531 93.1102 176.57 93.2231 176.577 93.3403C176.588 93.8933 176.414 94.4344 176.082 94.8768C175.975 95.0165 175.837 95.1297 175.679 95.2075C175.521 95.2854 175.348 95.3259 175.172 95.3259C174.996 95.3259 174.822 95.2854 174.664 95.2075C174.506 95.1297 174.369 95.0165 174.261 94.8768Z" fill="#4A3F40"></path><path d="M176.577 93.3402L176.587 87.0361L174.019 87.0677L174.009 93.3823L176.577 93.3402Z" fill="#4A3F40"></path><path d="M174.388 87.6359C173.893 87.3518 173.893 86.8782 174.388 86.5835C174.672 86.4472 174.983 86.3765 175.298 86.3765C175.613 86.3765 175.924 86.4472 176.208 86.5835C176.714 86.8782 176.703 87.3413 176.208 87.6359C175.927 87.7809 175.615 87.8565 175.298 87.8565C174.981 87.8565 174.669 87.7809 174.388 87.6359Z" fill="#4A3F40"></path><path d="M177.187 84.3415C175.829 83.5627 173.925 84.3415 172.925 86.0359C171.925 87.7303 172.22 89.7931 173.577 90.5719C174.935 91.3507 176.829 90.5719 177.787 88.8775C178.745 87.1831 178.534 85.1308 177.187 84.3415Z" fill="#362E2F"></path><path d="M174.282 88.5619C174.07 88.0938 173.98 87.5798 174.019 87.0674C174.019 86.943 174.054 86.8211 174.121 86.7165C174.189 86.6119 174.285 86.529 174.398 86.478C174.682 86.3418 174.993 86.271 175.309 86.271C175.624 86.271 175.935 86.3418 176.219 86.478C176.482 86.6359 176.608 86.8359 176.587 87.0253C176.599 87.5767 176.429 88.1166 176.103 88.5619C175.996 88.7016 175.858 88.8147 175.7 88.8926C175.543 88.9705 175.369 89.011 175.193 89.011C175.017 89.011 174.843 88.9705 174.685 88.8926C174.527 88.8147 174.39 88.7016 174.282 88.5619Z" fill="#4A3F40"></path><path d="M176.587 87.0253L176.608 80.7212L174.04 80.7528L174.019 87.0674L176.587 87.0253Z" fill="#4A3F40"></path><path d="M174.409 81.3215C173.904 81.0268 173.914 80.5637 174.409 80.2691C174.693 80.1328 175.004 80.062 175.319 80.062C175.634 80.062 175.945 80.1328 176.229 80.2691C176.338 80.3074 176.433 80.3786 176.5 80.4728C176.566 80.5671 176.602 80.6798 176.602 80.7953C176.602 80.9108 176.566 81.0235 176.5 81.1177C176.433 81.212 176.338 81.2832 176.229 81.3215C175.948 81.4664 175.636 81.542 175.319 81.542C175.002 81.542 174.69 81.4664 174.409 81.3215Z" fill="#4A3F40"></path><path d="M177.198 78.0271C175.84 77.2483 173.935 78.0271 172.988 79.7215C172.041 81.4159 172.272 83.4787 173.63 84.2575C174.988 85.0363 176.892 84.2575 177.892 82.563C178.892 80.8686 178.555 78.8164 177.198 78.0271Z" fill="#362E2F"></path><path d="M174.303 82.2474C174.091 81.7793 174.001 81.2653 174.04 80.753C174.04 80.6286 174.075 80.5067 174.142 80.402C174.21 80.2974 174.306 80.2146 174.419 80.1636C174.703 80.0273 175.014 79.9565 175.33 79.9565C175.645 79.9565 175.956 80.0273 176.24 80.1636C176.344 80.2139 176.434 80.2911 176.498 80.3872C176.563 80.4834 176.601 80.5951 176.608 80.7109C176.62 81.2623 176.45 81.8021 176.124 82.2474C176.017 82.3871 175.879 82.5003 175.721 82.5782C175.564 82.656 175.39 82.6965 175.214 82.6965C175.038 82.6965 174.864 82.656 174.706 82.5782C174.548 82.5003 174.411 82.3871 174.303 82.2474Z" fill="#4A3F40"></path><path d="M176.608 80.7108L176.619 74.4067L174.051 74.4383L174.04 80.7529L176.608 80.7108Z" fill="#4A3F40"></path><path d="M174.43 75.0065C174.321 74.9682 174.226 74.897 174.16 74.8028C174.093 74.7085 174.057 74.5958 174.057 74.4803C174.057 74.3648 174.093 74.2522 174.16 74.1579C174.226 74.0636 174.321 73.9924 174.43 73.9541C174.714 73.8178 175.025 73.7471 175.34 73.7471C175.655 73.7471 175.966 73.8178 176.25 73.9541C176.756 74.2488 176.745 74.7119 176.25 75.0065C175.969 75.1515 175.657 75.2271 175.34 75.2271C175.023 75.2271 174.711 75.1515 174.43 75.0065Z" fill="#4A3F40"></path><path d="M177.219 71.7126C175.861 70.9338 173.956 71.7126 173.009 73.407C172.062 75.1014 172.304 77.1642 173.662 77.943C175.019 78.7218 176.924 77.943 177.871 76.2486C178.818 74.5542 178.566 72.5019 177.219 71.7126Z" fill="#362E2F"></path><path d="M174.314 75.933C174.112 75.462 174.022 74.9503 174.051 74.4385C174.053 74.3147 174.089 74.1939 174.156 74.0897C174.223 73.9855 174.318 73.9022 174.43 73.8491C174.714 73.7128 175.025 73.6421 175.34 73.6421C175.655 73.6421 175.966 73.7128 176.25 73.8491C176.358 73.897 176.45 73.9733 176.516 74.0698C176.583 74.1663 176.622 74.2793 176.629 74.3964C176.636 74.9488 176.463 75.4883 176.135 75.933C176.028 76.0726 175.89 76.1858 175.732 76.2637C175.574 76.3416 175.4 76.3821 175.224 76.3821C175.048 76.3821 174.875 76.3416 174.717 76.2637C174.559 76.1858 174.421 76.0726 174.314 75.933Z" fill="#4A3F40"></path><path d="M176.619 74.3963L176.64 68.0923L174.072 68.1239L174.051 74.4384L176.619 74.3963Z" fill="#4A3F40"></path><path d="M174.44 68.692C173.935 68.3973 173.946 67.9342 174.44 67.6395C174.723 67.4971 175.034 67.4229 175.351 67.4229C175.667 67.4229 175.979 67.4971 176.261 67.6395C176.37 67.6778 176.464 67.7491 176.531 67.8433C176.598 67.9376 176.634 68.0502 176.634 68.1657C176.634 68.2813 176.598 68.3939 176.531 68.4882C176.464 68.5825 176.37 68.6537 176.261 68.692C175.979 68.8369 175.667 68.9125 175.351 68.9125C175.034 68.9125 174.722 68.8369 174.44 68.692Z" fill="#4A3F40"></path><path d="M177.229 65.3982C175.882 64.6194 173.967 65.3982 173.02 67.0926C172.072 68.787 172.314 70.8497 173.662 71.6285C175.009 72.4073 176.924 71.6285 177.924 69.9341C178.924 68.2397 178.587 66.1875 177.229 65.3982Z" fill="#362E2F"></path><path d="M174.335 69.6185C174.123 69.1503 174.033 68.6364 174.072 68.124C174.071 67.9997 174.107 67.8778 174.174 67.7731C174.241 67.6685 174.337 67.5857 174.451 67.5347C174.735 67.3984 175.046 67.3276 175.361 67.3276C175.676 67.3276 175.987 67.3984 176.272 67.5347C176.376 67.5849 176.465 67.6622 176.53 67.7583C176.595 67.8545 176.633 67.9662 176.64 68.082C176.651 68.6334 176.481 69.1732 176.156 69.6185C176.049 69.7582 175.911 69.8714 175.753 69.9492C175.595 70.0271 175.421 70.0676 175.245 70.0676C175.069 70.0676 174.896 70.0271 174.738 69.9492C174.58 69.8714 174.442 69.7582 174.335 69.6185Z" fill="#4A3F40"></path><path d="M176.64 68.0819L176.65 61.7778L174.082 61.8094L174.072 68.124L176.64 68.0819Z" fill="#4A3F40"></path><path d="M174.461 62.3775C174.352 62.3392 174.258 62.268 174.191 62.1737C174.124 62.0794 174.089 61.9668 174.089 61.8513C174.089 61.7357 174.124 61.6231 174.191 61.5288C174.258 61.4346 174.352 61.3634 174.461 61.325C174.743 61.1801 175.055 61.1045 175.372 61.1045C175.688 61.1045 176 61.1801 176.282 61.325C176.391 61.3634 176.485 61.4346 176.552 61.5288C176.619 61.6231 176.655 61.7357 176.655 61.8513C176.655 61.9668 176.619 62.0794 176.552 62.1737C176.485 62.268 176.391 62.3392 176.282 62.3775C176 62.5199 175.688 62.5942 175.372 62.5942C175.055 62.5942 174.744 62.5199 174.461 62.3775Z" fill="#4A3F40"></path><path d="M177.25 59.0832C175.893 58.3044 173.988 59.0832 173.041 60.7776C172.093 62.472 172.335 64.5348 173.693 65.3136C175.051 66.0924 176.956 65.3136 177.903 63.6192C178.85 61.9248 178.608 59.8725 177.25 59.0832Z" fill="#362E2F"></path><path d="M174.346 63.3036C174.144 62.8322 174.054 62.3209 174.082 61.8091C174.087 61.6858 174.124 61.566 174.191 61.4622C174.257 61.3585 174.351 61.2747 174.461 61.2197C174.745 61.0835 175.057 61.0127 175.372 61.0127C175.687 61.0127 175.998 61.0835 176.282 61.2197C176.39 61.2666 176.482 61.3427 176.549 61.4394C176.616 61.5361 176.655 61.6496 176.661 61.767C176.668 62.3194 176.494 62.8589 176.166 63.3036C176.059 63.4433 175.921 63.5564 175.763 63.6343C175.606 63.7122 175.432 63.7527 175.256 63.7527C175.08 63.7527 174.906 63.7122 174.748 63.6343C174.59 63.5564 174.453 63.4433 174.346 63.3036Z" fill="#4A3F40"></path><path d="M176.661 61.7669L176.671 55.4629L174.103 55.4945L174.082 61.809L176.661 61.7669Z" fill="#4A3F40"></path><path d="M174.472 56.063C174.363 56.0247 174.268 55.9535 174.202 55.8592C174.135 55.765 174.099 55.6523 174.099 55.5368C174.099 55.4213 174.135 55.3086 174.202 55.2144C174.268 55.1201 174.363 55.0489 174.472 55.0106C174.753 54.8657 175.066 54.79 175.382 54.79C175.699 54.79 176.011 54.8657 176.293 55.0106C176.798 55.3053 176.787 55.7683 176.293 56.063C176.008 56.1993 175.697 56.2701 175.382 56.2701C175.067 56.2701 174.756 56.1993 174.472 56.063Z" fill="#4A3F40"></path><path d="M177.261 52.7688C175.914 51.99 174.009 52.7688 173.051 54.4632C172.093 56.1576 172.346 58.2204 173.693 58.9992C175.04 59.778 176.956 58.9992 177.955 57.3047C178.955 55.6103 178.618 53.5581 177.261 52.7688Z" fill="#362E2F"></path><path d="M174.367 56.9891C174.155 56.5209 174.064 56.007 174.104 55.4947C174.103 55.3703 174.138 55.2484 174.205 55.1437C174.273 55.0391 174.369 54.9563 174.482 54.9053C174.767 54.769 175.078 54.6982 175.393 54.6982C175.708 54.6982 176.019 54.769 176.303 54.9053C176.41 54.9516 176.502 55.0279 176.568 55.1249C176.633 55.2219 176.669 55.3356 176.671 55.4526C176.683 56.004 176.513 56.5438 176.187 56.9891C176.08 57.1288 175.942 57.242 175.785 57.3199C175.627 57.3977 175.453 57.4382 175.277 57.4382C175.101 57.4382 174.927 57.3977 174.769 57.3199C174.612 57.242 174.474 57.1288 174.367 56.9891Z" fill="#4A3F40"></path><path d="M176.671 55.4525L176.682 49.1484L174.125 49.18L174.104 55.4946L176.671 55.4525Z" fill="#4A3F40"></path><path d="M174.493 49.7486C173.988 49.4539 173.998 48.9908 174.493 48.6961C174.774 48.5512 175.087 48.4756 175.403 48.4756C175.72 48.4756 176.032 48.5512 176.314 48.6961C176.819 48.9803 176.819 49.4539 176.314 49.7486C176.029 49.8849 175.718 49.9556 175.403 49.9556C175.088 49.9556 174.777 49.8849 174.493 49.7486Z" fill="#4A3F40"></path><path d="M177.282 46.4543C175.924 45.6755 174.019 46.4543 173.072 48.1487C172.125 49.8431 172.367 51.8954 173.725 52.6847C175.082 53.474 176.987 52.6847 177.934 50.9903C178.882 49.2959 178.639 47.2436 177.282 46.4543Z" fill="#362E2F"></path><path d="M174.377 50.6747C174.173 50.2044 174.086 49.6915 174.125 49.1802C174.123 49.057 174.157 48.9359 174.222 48.8314C174.287 48.7269 174.381 48.6434 174.493 48.5908C174.777 48.4545 175.088 48.3838 175.403 48.3838C175.718 48.3838 176.03 48.4545 176.314 48.5908C176.422 48.6367 176.516 48.7125 176.583 48.8094C176.65 48.9063 176.688 49.0203 176.693 49.1381C176.704 49.6912 176.53 50.2322 176.198 50.6747C176.091 50.8143 175.953 50.9275 175.795 51.0054C175.637 51.0833 175.464 51.1238 175.288 51.1238C175.111 51.1238 174.938 51.0833 174.78 51.0054C174.622 50.9275 174.484 50.8143 174.377 50.6747Z" fill="#4A3F40"></path><path d="M176.693 49.138L176.703 42.834L174.135 42.8656L174.125 49.1801L176.693 49.138Z" fill="#4A3F40"></path><path d="M174.503 43.4336C174.394 43.3953 174.3 43.3241 174.233 43.2298C174.167 43.1356 174.131 43.0229 174.131 42.9074C174.131 42.7919 174.167 42.6792 174.233 42.585C174.3 42.4907 174.394 42.4195 174.503 42.3812C174.785 42.2363 175.097 42.1606 175.414 42.1606C175.731 42.1606 176.043 42.2363 176.324 42.3812C176.829 42.6653 176.819 43.1389 176.324 43.4336C176.04 43.5699 175.729 43.6407 175.414 43.6407C175.099 43.6407 174.788 43.5699 174.503 43.4336Z" fill="#4A3F40"></path><path d="M177.303 40.1395C175.945 39.3502 174.04 40.1395 173.041 41.8339C172.041 43.5283 172.335 45.5806 173.693 46.3699C175.051 47.1592 176.945 46.3699 177.903 44.6755C178.86 42.9811 178.65 40.9288 177.303 40.1395Z" fill="#362E2F"></path><path d="M174.398 44.3597C174.187 43.8915 174.096 43.3776 174.135 42.8653C174.133 42.7406 174.168 42.6181 174.235 42.5132C174.303 42.4083 174.4 42.3258 174.514 42.2759C174.798 42.1396 175.109 42.0688 175.424 42.0688C175.739 42.0688 176.051 42.1396 176.335 42.2759C176.444 42.32 176.537 42.3956 176.603 42.4932C176.668 42.5907 176.703 42.7056 176.703 42.8232C176.714 43.3746 176.544 43.9145 176.219 44.3597C176.112 44.4994 175.974 44.6126 175.816 44.6905C175.658 44.7683 175.485 44.8089 175.309 44.8089C175.132 44.8089 174.959 44.7683 174.801 44.6905C174.643 44.6126 174.505 44.4994 174.398 44.3597Z" fill="#4A3F40"></path><path d="M176.703 42.8236L176.714 36.5195L174.156 36.5511L174.135 42.8657L176.703 42.8236Z" fill="#4A3F40"></path><path d="M174.525 37.1192C174.416 37.0809 174.321 37.0097 174.254 36.9154C174.188 36.8211 174.152 36.7085 174.152 36.593C174.152 36.4774 174.188 36.3648 174.254 36.2705C174.321 36.1763 174.416 36.1051 174.525 36.0667C174.806 35.9218 175.118 35.8462 175.435 35.8462C175.752 35.8462 176.064 35.9218 176.345 36.0667C176.84 36.3509 176.84 36.8245 176.345 37.1192C176.061 37.2555 175.75 37.3262 175.435 37.3262C175.12 37.3262 174.809 37.2555 174.525 37.1192Z" fill="#4A3F40"></path><path d="M177.313 33.825C175.956 33.0357 174.051 33.825 173.104 35.5195C172.157 37.2139 172.388 39.2661 173.746 40.0554C175.103 40.8448 177.008 40.0554 177.955 38.361C178.903 36.6666 178.671 34.6144 177.313 33.825Z" fill="#362E2F"></path><path d="M174.419 38.0456C174.208 37.5774 174.117 37.0635 174.156 36.5511C174.154 36.4265 174.189 36.304 174.256 36.1991C174.324 36.0942 174.421 36.0116 174.535 35.9618C174.817 35.8168 175.129 35.7412 175.445 35.7412C175.762 35.7412 176.074 35.8168 176.356 35.9618C176.462 36.0092 176.553 36.0856 176.619 36.1824C176.684 36.2792 176.72 36.3924 176.724 36.509C176.735 37.0603 176.565 37.6 176.24 38.0456C176.133 38.1853 175.995 38.2984 175.837 38.3763C175.679 38.4542 175.506 38.4947 175.33 38.4947C175.154 38.4947 174.98 38.4542 174.822 38.3763C174.664 38.2984 174.526 38.1853 174.419 38.0456Z" fill="#4A3F40"></path><path d="M176.724 36.5086L176.735 30.2046L174.167 30.2362L174.156 36.5507L176.724 36.5086Z" fill="#4A3F40"></path><path d="M174.546 30.8047C174.04 30.51 174.04 30.0364 174.546 29.7523C174.827 29.6074 175.139 29.5317 175.456 29.5317C175.773 29.5317 176.085 29.6074 176.366 29.7523C176.871 30.0364 176.861 30.51 176.366 30.8047C176.082 30.941 175.771 31.0118 175.456 31.0118C175.141 31.0118 174.83 30.941 174.546 30.8047Z" fill="#4A3F40"></path><path d="M177.334 27.5106C175.977 26.7213 174.072 27.5106 173.072 29.205C172.072 30.8994 172.367 32.9517 173.725 33.741C175.082 34.5303 176.987 33.741 177.934 32.0466C178.882 30.3522 178.682 28.2999 177.334 27.5106Z" fill="#362E2F"></path><path d="M174.43 31.7306C174.228 31.2593 174.138 30.7479 174.167 30.2362C174.167 30.1121 174.203 29.9907 174.27 29.8863C174.337 29.7819 174.433 29.6989 174.546 29.6468C174.827 29.5019 175.139 29.4263 175.456 29.4263C175.773 29.4263 176.085 29.5019 176.366 29.6468C176.475 29.6927 176.568 29.7685 176.635 29.8654C176.702 29.9623 176.74 30.0763 176.745 30.1941C176.75 30.7462 176.577 31.2853 176.251 31.7306C176.143 31.8703 176.006 31.9835 175.848 32.0614C175.69 32.1393 175.516 32.1798 175.34 32.1798C175.164 32.1798 174.99 32.1393 174.833 32.0614C174.675 31.9835 174.537 31.8703 174.43 31.7306Z" fill="#4A3F40"></path><path d="M176.735 30.1942L176.756 23.8901L174.188 23.9217L174.167 30.2363L176.735 30.1942Z" fill="#4A3F40"></path><path d="M174.556 24.4903C174.447 24.452 174.353 24.3807 174.286 24.2865C174.219 24.1922 174.183 24.0796 174.183 23.964C174.183 23.8485 174.219 23.7359 174.286 23.6416C174.353 23.5473 174.447 23.4761 174.556 23.4378C174.838 23.2929 175.15 23.2173 175.466 23.2173C175.783 23.2173 176.095 23.2929 176.377 23.4378C176.871 23.722 176.871 24.1956 176.377 24.4903C176.093 24.6266 175.782 24.6973 175.466 24.6973C175.151 24.6973 174.84 24.6266 174.556 24.4903Z" fill="#362E2F"></path><path d="M177.819 26.1424L177.84 14.7656L173.209 14.8288L173.177 26.2161L177.819 26.1424Z" fill="#959595"></path><path d="M173.883 15.8494C173.705 15.7632 173.555 15.6287 173.45 15.4611C173.345 15.2936 173.289 15.0999 173.289 14.9022C173.289 14.7045 173.345 14.5108 173.45 14.3433C173.555 14.1758 173.705 14.0412 173.883 13.955C174.391 13.6954 174.954 13.5601 175.524 13.5601C176.095 13.5601 176.658 13.6954 177.166 13.955C178.071 14.4812 178.061 15.3232 177.166 15.8494C176.658 16.109 176.095 16.2443 175.524 16.2443C174.954 16.2443 174.391 16.109 173.883 15.8494Z" fill="#616161"></path><path d="M173.84 27.0687C172.946 26.553 172.946 25.7005 173.84 25.1743C174.35 24.9172 174.912 24.7832 175.482 24.7832C176.053 24.7832 176.615 24.9172 177.124 25.1743C177.302 25.2605 177.452 25.3951 177.557 25.5626C177.662 25.7301 177.718 25.9238 177.718 26.1215C177.718 26.3192 177.662 26.5129 177.557 26.6804C177.452 26.848 177.302 26.9825 177.124 27.0687C176.616 27.3283 176.053 27.4637 175.482 27.4637C174.911 27.4637 174.349 27.3283 173.84 27.0687Z" fill="#959595"></path><path d="M116.736 52.6215L65.3664 22.964C63.2616 21.7221 61.283 21.5116 59.9043 22.1641C59.7583 22.2345 59.6176 22.3154 59.4834 22.4062L50.2746 27.6683L51.2639 28.605L54.6001 32.3622C54.779 36.5719 60.1569 36.5719 64.2298 38.9399L110.768 65.8189L113.063 74.0279L122.345 68.671L122.577 68.5342L121.408 69.2078C122.461 68.5132 124.313 66.503 124.313 64.6507C124.313 60.4305 120.924 55.0315 116.736 52.6215Z" fill="#4F1F26"></path><path d="M58.8309 24.2793L65.598 22.9533C65.3338 22.6566 65.0527 22.3755 64.7561 22.1113L58.3047 23.4163L55.0632 27.8786L55.5262 28.7732L58.8309 24.2793Z" fill="#5D3138"></path><path d="M63.0511 26.6792L69.8287 25.3532C69.8287 25.3532 69.2078 24.6796 68.9868 24.5112L62.5249 25.8162L59.2834 30.2785L59.7465 31.1731L63.0511 26.6792Z" fill="#5D3138"></path><path d="M67.2714 29.0786L74.049 27.7631C73.7828 27.465 73.5018 27.1805 73.2071 26.9106L66.7451 28.2262L63.5037 32.6885L63.9773 33.5725L67.2714 29.0786Z" fill="#5D3138"></path><path d="M71.4916 31.4888L78.2692 30.1627C78.0051 29.8661 77.7239 29.585 77.4273 29.3208L70.9654 30.6258L67.7239 35.0881L68.1975 35.9827L71.4916 31.4888Z" fill="#5D3138"></path><path d="M75.775 33.8882L82.5421 32.5622C82.2795 32.2675 82.002 31.9865 81.7107 31.7202L75.2487 33.0252L72.0073 37.4875L72.4703 38.3821L75.775 33.8882Z" fill="#5D3138"></path><path d="M79.9847 36.2879L86.7623 34.9723C86.4982 34.6757 86.217 34.3945 85.9204 34.1304L79.4585 35.4354L76.217 39.8977L76.6906 40.7817L79.9847 36.2879Z" fill="#5D3138"></path><path d="M84.1944 38.6978L90.9721 37.3717C90.7079 37.0751 90.4268 36.794 90.1301 36.5298L83.6366 37.8874L80.3951 42.3497L80.8687 43.2443L84.1944 38.6978Z" fill="#5D3138"></path><path d="M88.4041 41.0972L95.1712 39.7711C95.1712 39.7711 94.5503 39.0976 94.3293 38.9292L87.8779 40.2342L84.6364 44.6965L85.0995 45.5911L88.4041 41.0972Z" fill="#5D3138"></path><path d="M92.6138 43.5074L99.3915 42.1813C99.1273 41.8846 98.8462 41.6035 98.5495 41.3394L92.0876 42.6444L88.8461 47.1067L89.3197 47.9907L92.6138 43.5074Z" fill="#5D3138"></path><path d="M96.8236 45.9068L103.601 44.5807C103.337 44.2841 103.056 44.0029 102.759 43.7388L96.3079 45.0438L93.0664 49.464L93.54 50.3586L96.8236 45.9068Z" fill="#5D3138"></path><path d="M101.033 48.3067L107.811 46.9911C107.545 46.6931 107.264 46.4086 106.969 46.1387L100.507 47.4437L97.2656 51.906L97.7392 52.8006L101.033 48.3067Z" fill="#5D3138"></path><path d="M105.243 50.7168L112.01 49.3908C111.75 49.0936 111.473 48.8125 111.179 48.5488L104.717 49.8538L101.475 54.3161L101.938 55.2107L105.243 50.7168Z" fill="#5D3138"></path><path d="M109.505 53.1163L116.283 51.7902C116.019 51.4935 115.738 51.2124 115.441 50.9482L108.979 52.2533L105.738 56.7156L106.211 57.6101L109.505 53.1163Z" fill="#5D3138"></path><path d="M113.662 55.5894L120.44 54.2633C120.176 53.9667 119.895 53.6856 119.598 53.4214L113.147 54.7264L109.905 59.1887L110.379 60.0727L113.662 55.5894Z" fill="#5D3138"></path><path d="M116.599 59.4624L123.376 58.1364C123.376 58.1364 122.755 57.4628 122.534 57.2944L116.073 58.5994L112.831 63.0618L113.305 63.9563L116.599 59.4624Z" fill="#5D3138"></path><path d="M117.967 63.8721L124.734 62.5566C124.468 62.2585 124.187 61.974 123.892 61.7041L117.441 63.0196L114.199 67.4714L114.715 68.4081L117.967 63.8721Z" fill="#5D3138"></path><path d="M118.02 68.7344L124.797 67.4084C124.797 67.4084 124.176 66.7348 123.955 66.5664L117.493 67.8714L114.252 72.3337L114.725 73.2283L118.02 68.7344Z" fill="#5D3138"></path><path d="M56.0946 28.3105L107.464 57.968C111.673 60.3885 115.041 65.7875 115.041 70.0288C115.041 74.2385 111.652 75.754 107.464 73.3334L56.0946 43.6759C51.8848 41.2554 48.5065 35.8564 48.5065 31.6151C48.5065 27.3633 51.9059 25.8899 56.0946 28.3105Z" fill="#816065"></path><path d="M113.494 69.1342C113.5 69.4879 113.464 69.841 113.389 70.1866C112.863 72.6072 110.4 73.2597 107.464 71.5653L56.0945 41.8973C52.7688 39.9924 50.0641 35.7827 50.0641 32.5096C50.0641 29.6996 52.0848 28.4999 54.7895 29.4786C55.2411 29.6444 55.6777 29.8487 56.0945 30.089L107.464 59.7465C110.789 61.6725 113.494 65.8822 113.494 69.1342Z" fill="#4F1F26"></path><path d="M113.494 69.1344C113.5 69.488 113.464 69.8412 113.389 70.1868C112.935 70.0253 112.498 69.8209 112.084 69.5764L60.7147 39.9084C57.389 37.9824 54.7264 33.7727 54.7264 30.5207C54.7209 30.167 54.7562 29.8139 54.8316 29.4683C55.2833 29.6341 55.7199 29.8383 56.1366 30.0787L58.7782 31.6152L60.0096 32.3203L65.2717 35.3724L73.1334 39.9084L74.8489 40.8977L76.0802 41.6028L79.5216 43.5919L85.0048 46.7492L91.8982 50.7274L92.6981 51.1904L92.877 51.2957L95.6238 52.8848L96.8025 53.5584L99.6652 55.2107L105.843 58.7784L107.453 59.7046L107.906 59.9782C108.366 60.3007 108.805 60.6523 109.221 61.0306C111.705 63.1987 113.494 66.4822 113.494 69.1344Z" fill="#380009"></path><path d="M84.8469 53.4005C84.8469 54.7792 83.8787 55.337 82.6684 54.6424C82.0376 54.2326 81.5125 53.6797 81.1357 53.0286C80.759 52.3776 80.5413 51.6468 80.5004 50.8957C80.5004 49.517 81.4686 48.9592 82.6684 49.6538C83.3017 50.0618 83.8293 50.6141 84.208 51.2653C84.5867 51.9166 84.8056 52.6483 84.8469 53.4005Z" fill="#805E63"></path><path d="M84.5943 52.9687C84.5943 54.1369 83.7629 54.621 82.7421 54.0211C82.2064 53.677 81.7589 53.2122 81.4354 52.6639C81.1119 52.1156 80.9214 51.499 80.8793 50.8638C80.8793 49.6851 81.7107 49.2115 82.7421 49.8114C83.2741 50.1584 83.7183 50.6242 84.0397 51.1721C84.3611 51.72 84.551 52.3349 84.5943 52.9687Z" fill="#92757A"></path><path d="M61.3251 37.4351C61.3251 39.2243 60.0517 39.9399 58.4941 39.0453C57.6751 38.5109 56.9931 37.7915 56.5031 36.9451C56.0132 36.0987 55.7291 35.149 55.6736 34.1726C55.6736 32.3729 56.9365 31.6573 58.4941 32.5519C59.3159 33.0868 60.0003 33.8075 60.4921 34.6558C60.9839 35.5041 61.2693 36.4562 61.3251 37.4351Z" fill="#4F1F26"></path><path d="M60.9252 35.5719L59.5149 36.1929C59.9267 36.9548 60.1334 37.8107 60.1148 38.6766C60.1148 40.1079 59.8201 40.0027 59.8201 40.0027L58.3573 40.5078L54.7264 33.4566L56.6629 32.2778L58.9361 33.4776L60.9252 35.5719Z" fill="#4F1F26"></path><path d="M59.4833 38.5715C59.4833 40.3607 58.2204 41.0763 56.6523 40.1818C55.8333 39.6473 55.1513 38.9279 54.6613 38.0815C54.1714 37.2351 53.8873 36.2854 53.8318 35.309C53.8318 33.5093 55.0947 32.7937 56.6523 33.6988C57.4756 34.2295 58.1615 34.9478 58.6536 35.7948C59.1457 36.6418 59.43 37.5934 59.4833 38.5715Z" fill="#805E63"></path><path d="M58.7151 38.1294C58.7151 39.4344 57.7995 39.9606 56.6102 39.2976C56.0247 38.9086 55.538 38.3883 55.189 37.778C54.84 37.1678 54.6384 36.4845 54.6001 35.7825C54.6001 34.4775 55.5157 33.9513 56.6523 34.6038C57.2491 34.988 57.7468 35.5074 58.1052 36.12C58.4636 36.7326 58.6726 37.421 58.7151 38.1294Z" fill="#92757A"></path><path d="M95.1186 56.5787C95.1186 58.3678 93.8557 59.0835 92.2876 58.1889C91.4666 57.6557 90.7825 56.9367 90.2907 56.0903C89.7989 55.2438 89.5132 54.2935 89.4565 53.3162C89.4565 51.5165 90.7195 50.8008 92.2771 51.6954C93.1014 52.2285 93.7883 52.9486 94.2821 53.7971C94.7758 54.6456 95.0624 55.5986 95.1186 56.5787Z" fill="#4F1F26"></path><path d="M94.7187 54.7265L93.3085 55.3474C93.718 56.1103 93.9246 56.9655 93.9084 57.8312C93.9084 59.2625 93.6242 59.1572 93.6242 59.1572L92.1613 59.6624L88.5094 52.6216L90.509 51.4219L92.6981 52.6216L94.7187 54.7265Z" fill="#4F1F26"></path><path d="M93.2769 57.7151C93.2769 59.5043 92.014 60.2304 90.4564 59.3253C89.6342 58.7933 88.9493 58.0747 88.4574 57.228C87.9654 56.3813 87.6803 55.4303 87.6254 54.4526C87.6254 52.6635 88.8883 51.9373 90.4564 52.8424C91.2766 53.3756 91.9595 54.0947 92.4496 54.9414C92.9396 55.788 93.2231 56.7383 93.2769 57.7151Z" fill="#805E63"></path><path d="M92.5086 57.2733C92.5086 58.5783 91.593 59.1045 90.4037 58.4415C89.7958 58.0606 89.2877 57.5401 88.9216 56.9232C88.5554 56.3063 88.342 55.6109 88.2989 54.8948C88.2989 53.5898 89.2145 53.0636 90.4037 53.7161C91.0107 54.1005 91.5179 54.6233 91.8838 55.2417C92.2497 55.86 92.4638 56.5562 92.5086 57.2733Z" fill="#92757A"></path><path d="M79.7426 47.8013C79.7426 49.601 78.4692 50.3166 76.9116 49.4221C76.0898 48.8872 75.4054 48.1664 74.9136 47.3181C74.4218 46.4698 74.1364 45.5178 74.0806 44.5388C74.0806 42.7497 75.354 42.034 76.9116 42.9286C77.732 43.4624 78.4156 44.1815 78.9073 45.0279C79.3991 45.8742 79.6852 46.8242 79.7426 47.8013Z" fill="#4F1F26"></path><path d="M79.3427 45.9489L77.9324 46.5698C78.3433 47.3317 78.5465 48.1883 78.5218 49.0536C78.5218 50.4849 78.2376 50.3796 78.2376 50.3796L76.8274 50.8848L73.186 43.8335L75.1224 42.6548L77.3746 43.8546L79.3427 45.9489Z" fill="#4F1F26"></path><path d="M77.8798 48.9483C77.8798 50.7374 76.6169 51.4531 75.0488 50.5585C74.2297 50.0241 73.5478 49.3047 73.0578 48.4583C72.5679 47.6119 72.2837 46.6622 72.2283 45.6858C72.2283 43.8861 73.4912 43.1705 75.0488 44.065C75.8723 44.5981 76.5581 45.3183 77.0501 46.167C77.5422 47.0157 77.8265 47.9688 77.8798 48.9483Z" fill="#805E63"></path><path d="M77.1326 48.5066C77.1326 49.8117 76.2065 50.3379 75.0278 49.6748C74.4204 49.2933 73.9127 48.7727 73.5467 48.1559C73.1807 47.5391 72.9668 46.844 72.9229 46.1282C72.9229 44.8126 73.8385 44.2969 75.0278 44.9494C75.6347 45.3339 76.1419 45.8567 76.5078 46.475C76.8737 47.0933 77.0878 47.7896 77.1326 48.5066Z" fill="#92757A"></path><path d="M96.8236 53.6002L95.687 54.6421L93.0664 56.0208L85.3626 47.1909L85.0153 46.791L92.7086 51.2323L95.6449 52.9267L96.8236 53.6002Z" fill="#BB5900"></path><path d="M95.6449 52.9269L93.0664 56.0211L74.1016 45.0758L73.1439 39.9399L79.5322 43.6234L85.0153 46.7913L92.7086 51.2325L95.6449 52.9269Z" fill="#E28B00"></path><path d="M92.7086 51.2321L92.4665 51.5268L85.3626 47.1908L79.5322 43.623L85.0153 46.7909L92.7086 51.2321Z" fill="#BB5300"></path><path d="M65.6717 42.3075C65.6717 43.6862 64.7034 44.244 63.4931 43.5494C62.8621 43.1373 62.3371 42.5825 61.9604 41.9297C61.5838 41.277 61.3661 40.5447 61.3251 39.7922C61.3251 38.4135 62.2934 37.8557 63.4931 38.5503C64.1267 38.9606 64.6543 39.5148 65.0329 40.1677C65.4115 40.8207 65.6303 41.5539 65.6717 42.3075Z" fill="#805E63"></path><path d="M65.4191 41.8656C65.4191 43.0444 64.5876 43.5179 63.5668 42.9181C63.0328 42.5722 62.5866 42.1069 62.2633 41.5589C61.94 41.011 61.7485 40.3954 61.704 39.7608C61.704 38.582 62.5354 38.1085 63.5668 38.7083C64.0977 39.0566 64.541 39.5227 64.8623 40.0703C65.1835 40.6179 65.3741 41.2323 65.4191 41.8656Z" fill="#92757A"></path><path d="M70.6379 47.1354C71.4809 46.6426 71.4699 45.0553 70.6134 43.5901C69.7568 42.1249 68.379 41.3366 67.536 41.8294C66.693 42.3222 66.704 43.9095 67.5606 45.3747C68.4171 46.8399 69.7949 47.6282 70.6379 47.1354Z" fill="#805E63"></path><path d="M71.0074 45.2543C71.0074 46.4225 70.176 46.9066 69.1552 46.3067C68.6195 45.9627 68.172 45.4978 67.8485 44.9495C67.525 44.4012 67.3345 43.7847 67.2924 43.1494C67.2924 41.9707 68.1238 41.4971 69.1552 42.097C69.6872 42.4441 70.1313 42.9099 70.4528 43.4577C70.7742 44.0056 70.9641 44.6206 71.0074 45.2543Z" fill="#92757A"></path><path d="M98.8338 60.9671C98.8338 62.3458 97.855 62.9036 96.6552 62.209C96.0223 61.7981 95.4951 61.2438 95.1166 60.5909C94.7381 59.9381 94.5188 59.2053 94.4767 58.4518C94.4767 57.0731 95.4554 56.5259 96.6552 57.2205C97.2879 57.6291 97.8151 58.1815 98.1937 58.8326C98.5723 59.4837 98.7916 60.2151 98.8338 60.9671Z" fill="#805E63"></path><path d="M98.5811 60.5253C98.5811 61.704 97.7392 62.1776 96.7183 61.5777C96.1849 61.2312 95.7391 60.7658 95.4159 60.218C95.0927 59.6702 94.9009 59.0549 94.8555 58.4204C94.8555 57.2417 95.6975 56.7681 96.7183 57.368C97.2517 57.7145 97.6975 58.1799 98.0207 58.7278C98.3439 59.2756 98.5358 59.8909 98.5811 60.5253Z" fill="#92757A"></path><path d="M104.412 64.3983C104.412 65.777 103.443 66.3348 102.244 65.6402C101.61 65.2299 101.082 64.6757 100.704 64.0228C100.325 63.3698 100.106 62.6367 100.065 61.883C100.065 60.5043 101.033 59.9465 102.244 60.6411C102.875 61.0532 103.4 61.6081 103.776 62.2608C104.153 62.9136 104.371 63.6458 104.412 64.3983Z" fill="#805E63"></path><path d="M104.191 63.9563C104.191 65.1351 103.359 65.6087 102.338 65.0088C101.798 64.6576 101.347 64.1841 101.023 63.6264C100.7 63.0687 100.512 62.4426 100.476 61.7989C100.476 60.6201 101.307 60.1465 102.338 60.7464C102.878 61.0975 103.328 61.5713 103.65 62.1291C103.971 62.687 104.157 63.3131 104.191 63.9563Z" fill="#92757A"></path><path d="M75.6802 42.6445L75.4697 42.8444L75.3435 42.9602L75.2908 43.0128L73.1228 45.0019L71.7126 45.7491V45.7386L67.5765 40.9922L66.1768 39.3925L64.8507 37.877L62.9984 35.7511L62.1039 34.7197L62.2512 34.0566L65.2506 35.3827L73.1123 39.9187L75.2698 42.2024L75.6802 42.6445Z" fill="#BB5900"></path><path d="M76.3749 42.5181L75.5645 43.139L75.3435 42.9601L72.5019 40.8026L72.4703 40.8447L71.902 41.5078L71.7547 41.6972L70.9443 42.3076L64.8507 37.8769L61.3672 35.3405L61.262 34.9827L60.9041 33.7092L59.9675 32.3306L65.2507 35.3826L73.1123 39.9186L73.1439 39.9396L74.8594 40.9289L76.0907 41.6341L76.3749 42.5181Z" fill="#B7B7B7"></path><path d="M74.4489 42.4446L73.8385 43.1918L71.7126 45.7493L61.5146 39.8556L60.9357 36.7194L60.6937 35.467L60.841 34.7935L69.9551 38.8137L74.4489 42.4446Z" fill="#E28B00"></path><path d="M74.4489 42.4446L73.8385 43.1918L72.1441 42.4446L72.0389 42.5604L71.3864 43.3287L61.0094 36.9825L60.9357 36.7194L60.6937 35.467L60.841 34.7935L69.9551 38.8137L74.4489 42.4446Z" fill="#BB5300"></path><path d="M75.5645 43.1391L75.2909 43.0128L74.3331 42.5918L71.902 41.5078L71.6916 41.4131L71.5968 41.5394L70.9443 42.3077L66.1768 39.3924L60.8199 36.1088L60.5568 35.951L60.0938 34.3197L58.252 32.941L58.7361 31.6255L59.9675 32.3306L65.2507 35.3827L73.1123 39.9186L73.1439 39.9397L74.8594 40.929L75.2698 42.2024L75.4698 42.8444L75.5645 43.1391Z" fill="#959595"></path><path d="M108.8 61.9462L108.59 62.1462L108.453 62.262L108.4 62.3146L106.243 64.3037L104.833 65.0509V65.0404L100.686 60.2939L99.2863 58.6942L97.9707 57.1787L96.1079 55.0423L95.2239 54.0214L95.3607 53.3584L99.6757 55.2528L105.853 58.8205L108.379 61.5042L108.8 61.9462Z" fill="#B74200"></path><path d="M109.453 61.8196L108.653 62.4405L108.421 62.2616L105.58 60.1567L105.022 60.8303L104.864 61.0092L104.064 61.6301L97.9707 57.1994L94.4767 54.663L94.382 54.3052L94.0241 53.0318L92.8875 51.3584L95.6344 52.9476L96.8131 53.6211L99.6757 55.2734L105.853 58.8412L107.464 59.7673L107.916 60.0409C108.377 60.3635 108.816 60.715 109.232 61.0934L109.453 61.8196Z" fill="#B7B7B7"></path><path d="M107.569 61.7459L106.958 62.4931L104.833 65.04L94.6345 59.1569L94.0451 56.0207L93.8136 54.7683L93.9609 54.0947L103.075 58.115L107.569 61.7459Z" fill="#CD4500"></path><path d="M107.569 61.7459L106.958 62.4931L105.254 61.7459L105.159 61.8617L104.506 62.6299L94.1188 56.2838L94.0451 56.0207L93.8136 54.7683L93.9609 54.0947L103.075 58.115L107.569 61.7459Z" fill="#A33400"></path><path d="M108.684 62.4406L108.4 62.3143L107.453 61.8933L105.022 60.8409L104.812 60.7462L104.717 60.862L104.064 61.6408L99.2863 58.7255L93.9294 55.4419L93.6663 55.2525L93.2138 53.6739L91.372 52.2952L91.9088 50.8218L92.7086 51.2848L92.8875 51.3901L95.6344 52.9793L96.8131 53.6528L99.6757 55.3051L105.853 58.8729L107.464 59.799L107.916 60.0726L108.379 61.5566L108.59 62.1985L108.684 62.4406Z" fill="#959595"></path><path d="M112.842 67.5662C112.842 69.3553 111.568 70.0815 110.011 69.1764C109.189 68.6438 108.504 67.925 108.013 67.0784C107.521 66.2318 107.235 65.2812 107.18 64.3037C107.18 62.5145 108.453 61.7884 110.011 62.6935C110.831 63.2273 111.515 63.9464 112.006 64.7927C112.498 65.6391 112.784 66.5891 112.842 67.5662Z" fill="#4F1F26"></path><path d="M112.442 65.7139L111.031 66.3032C111.441 67.0661 111.647 67.9213 111.631 68.787C111.631 70.2288 111.337 70.1235 111.337 70.1235L109.874 70.6287L106.232 63.5774L108.169 62.3882L110.421 63.588L112.442 65.7139Z" fill="#4F1F26"></path><path d="M111 68.7027C111 70.5024 109.737 71.218 108.169 70.3129C107.349 69.7797 106.666 69.0606 106.176 68.2139C105.686 67.3673 105.402 66.417 105.348 65.4402C105.348 63.651 106.611 62.9354 108.169 63.8299C108.991 64.3619 109.676 65.0806 110.168 65.9273C110.66 66.774 110.945 67.725 111 68.7027Z" fill="#805E63"></path><path d="M110.232 68.2608C110.232 69.5658 109.305 70.092 108.127 69.4395C107.519 69.0557 107.011 68.533 106.645 67.9146C106.28 67.2961 106.066 66.5996 106.022 65.8823C106.022 64.5773 106.937 64.0511 108.127 64.7141C108.733 65.0962 109.241 65.6171 109.607 66.2337C109.973 66.8504 110.187 67.5451 110.232 68.2608Z" fill="#92757A"></path><path d="M87.6148 69.4602L36.2457 39.7711C34.1408 38.5292 32.1728 38.3187 30.7941 38.9713C30.649 39.0434 30.5084 39.1242 30.3731 39.2133L21.1644 44.4755L22.1431 45.4016L25.4793 49.1693C25.6688 53.379 31.0467 53.379 35.1091 55.747L81.6265 82.6787L83.9208 90.8876L93.1927 85.5308L93.4347 85.3939L92.2771 86.0675C93.3295 85.3624 95.1818 83.3628 95.1818 81.5C95.2028 77.2481 91.8035 71.8492 87.6148 69.4602Z" fill="#4F1F26"></path><path d="M29.7101 41.045L36.4877 39.7189C36.2236 39.4222 35.9424 39.1411 35.6458 38.877L29.1839 40.182L25.9424 44.6443L26.416 45.5388L29.7101 41.045Z" fill="#5D3138"></path><path d="M33.9304 43.4864L40.708 42.1708C40.4418 41.8728 40.1608 41.5882 39.8661 41.3184L33.4041 42.6339L30.1627 47.0857L30.6363 47.9802L33.9304 43.4864Z" fill="#5D3138"></path><path d="M38.1611 45.8965L44.9283 44.5705C44.6641 44.2738 44.383 43.9927 44.0863 43.7285L37.6349 45.0335L34.3934 49.4643L34.8565 50.3588L38.1611 45.8965Z" fill="#5D3138"></path><path d="M42.3813 48.2959L49.159 46.9699C49.159 46.9699 48.5381 46.2963 48.3171 46.1279L41.8551 47.4329L38.6136 51.8952L39.0872 52.7898L42.3813 48.2959Z" fill="#5D3138"></path><path d="M46.6016 50.6953L53.3793 49.3798C53.1131 49.0817 52.8321 48.7972 52.5373 48.5273L46.0754 49.8429L42.8339 54.2947L43.3075 55.1892L46.6016 50.6953Z" fill="#5D3138"></path><path d="M50.8218 53.1055L57.5995 51.7794C57.3353 51.4828 57.0542 51.2017 56.7575 50.9375L50.2956 52.2425L47.0541 56.7048L47.5277 57.5994L50.8218 53.1055Z" fill="#5D3138"></path><path d="M55.0526 55.5054L61.8197 54.1793C61.5571 53.8847 61.2796 53.6037 60.9883 53.3374L54.5264 54.6424L51.2849 59.1047L51.748 59.9993L55.0526 55.5054Z" fill="#5D3138"></path><path d="M59.2728 57.8837L66.0505 56.5681C65.7964 56.2926 65.5295 56.0292 65.2506 55.7788L58.7887 57.0943L55.5472 61.5567L56.0208 62.4407L59.2728 57.8837Z" fill="#5D3138"></path><path d="M63.4931 60.315L70.2707 58.9889C70.0066 58.6923 69.7255 58.4111 69.4288 58.147L62.9669 59.452L59.7254 63.9143L60.199 64.8089L63.4931 60.315Z" fill="#5D3138"></path><path d="M67.7239 62.7144L74.491 61.3883C74.2269 61.0916 73.9458 60.8105 73.6491 60.5464L67.1977 61.8514L63.9562 66.3032L64.4192 67.1977L67.7239 62.7144Z" fill="#5D3138"></path><path d="M71.9441 65.1246L78.7217 63.7985C78.4576 63.5018 78.1765 63.2207 77.8798 62.9565L71.4179 64.2616L68.1764 68.7239L68.65 69.6079L71.9441 65.1246Z" fill="#5D3138"></path><path d="M76.1644 67.524L82.942 66.1979C82.6778 65.9012 82.3967 65.6201 82.1001 65.356L75.6382 66.661L72.3967 71.1233L72.8703 72.0178L76.1644 67.524Z" fill="#5D3138"></path><path d="M80.3846 69.9234L87.1623 68.5973C87.1623 68.5973 86.5414 67.9238 86.3203 67.7554L79.8689 69.0604L76.6169 73.5227L77.0905 74.4173L80.3846 69.9234Z" fill="#5D3138"></path><path d="M84.5522 72.3965L91.3299 71.0705C91.0657 70.7738 90.7846 70.4927 90.488 70.2285L84.026 71.5651L80.7845 76.0274L81.2581 76.922L84.5522 72.3965Z" fill="#5D3138"></path><path d="M87.478 76.2696L94.2557 74.954C93.9895 74.656 93.7085 74.3714 93.4137 74.1016L86.9518 75.4171L83.7103 79.8689L84.1839 80.7634L87.478 76.2696Z" fill="#5D3138"></path><path d="M88.8461 80.69L95.6238 79.3639C95.3596 79.0673 95.0785 78.7861 94.7818 78.522L88.3199 79.827L85.0784 84.2893L85.552 85.1839L88.8461 80.69Z" fill="#5D3138"></path><path d="M88.9093 85.5414L95.6764 84.1943C95.4145 83.8957 95.1369 83.6111 94.845 83.3418L88.4041 84.6889L85.1416 89.1407L85.6047 90.0353L88.9093 85.5414Z" fill="#5D3138"></path><path d="M26.9738 45.1179L78.3429 74.7859C82.5526 77.1959 85.9309 82.5949 85.9309 86.8362C85.9309 91.0459 82.5316 92.5614 78.3429 90.1408L26.9738 60.4834C22.7641 58.0733 19.3963 52.6638 19.3963 48.4225C19.3963 44.2023 22.7851 42.7078 26.9738 45.1179Z" fill="#816065"></path><path d="M84.3838 85.9414C84.3828 86.2948 84.3475 86.6473 84.2786 86.9939C83.7419 89.4144 81.2897 90.0669 78.3429 88.362L26.9738 58.7045C23.6481 56.8312 20.9434 52.6215 20.9434 49.3168C20.9434 46.5069 22.9745 45.3176 25.6688 46.2858C26.1194 46.4541 26.5558 46.6583 26.9738 46.8963L78.3429 76.5537C81.6686 78.4797 84.3838 82.6894 84.3838 85.9414Z" fill="#4F1F26"></path><path d="M84.3839 85.9415C84.3828 86.2949 84.3475 86.6473 84.2786 86.9939C83.826 86.8262 83.3893 86.6184 82.9736 86.373L31.5729 56.7155C28.2367 54.8001 25.532 50.5904 25.532 47.3278C25.5324 46.9744 25.5676 46.6219 25.6372 46.2754C26.0878 46.4437 26.5242 46.6478 26.9422 46.8858L29.6259 48.4118L30.8573 49.1169L36.1194 52.169L43.9916 56.726L45.7071 57.7153L46.9384 58.4204L50.3799 60.4095L55.863 63.5668L62.767 67.545L63.5668 68.0081L63.7352 68.1133L66.4926 69.7025L67.6713 70.3866L70.5339 72.0389L76.7117 75.5961L78.3114 76.5222C78.4692 76.6169 78.6166 76.7011 78.7639 76.8064C79.2328 77.1219 79.6762 77.4738 80.09 77.8588C82.5842 79.9847 84.3839 83.2894 84.3839 85.9415Z" fill="#380009"></path><path d="M55.7788 70.2181C55.7788 71.5653 54.7264 72.1441 53.5582 71.46C52.9258 71.0485 52.3991 70.494 52.0207 69.8413C51.6422 69.1886 51.4226 68.4561 51.3796 67.7028C51.3796 66.3242 52.3584 65.7664 53.5582 66.461C54.1984 66.8678 54.7332 67.4202 55.1192 68.0732C55.5051 68.7262 55.7311 69.4612 55.7788 70.2181Z" fill="#805E63"></path><path d="M55.4841 69.7763C55.4841 70.955 54.6527 71.4286 53.6213 70.8287C53.0882 70.4829 52.6431 70.0174 52.3216 69.4692C52 68.9211 51.8108 68.3055 51.769 67.6714C51.769 66.4927 52.6005 66.0191 53.6213 66.619C54.1553 66.9649 54.6015 67.4302 54.9248 67.9781C55.2481 68.526 55.4396 69.1416 55.4841 69.7763Z" fill="#92757A"></path><path d="M32.2043 54.2425C32.2043 56.0316 30.9414 56.7578 29.3838 55.8527C28.5617 55.3207 27.8767 54.6021 27.3848 53.7553C26.8928 52.9086 26.6078 51.9577 26.5528 50.9799C26.5528 49.1908 27.8157 48.4646 29.3838 49.3697C30.204 49.9029 30.8869 50.622 31.377 51.4687C31.8671 52.3154 32.1505 53.2657 32.2043 54.2425Z" fill="#4F1F26"></path><path d="M31.8044 52.3901L30.3942 53.0005C30.8091 53.7612 31.0161 54.618 30.9941 55.4842C30.9941 56.9155 30.7099 56.8103 30.7099 56.8103L29.247 57.3155L25.5951 50.2747L27.5421 49.0854L29.7838 50.2852L31.8044 52.3901Z" fill="#4F1F26"></path><path d="M30.3626 55.3787C30.3626 57.1678 29.0997 57.894 27.5421 56.9889C26.7217 56.4551 26.0381 55.736 25.5464 54.8897C25.0546 54.0433 24.7685 53.0933 24.7111 52.1162C24.7111 50.327 25.9845 49.6009 27.5421 50.506C28.3623 51.0391 29.0452 51.7583 29.5353 52.6049C30.0253 53.4516 30.3088 54.4019 30.3626 55.3787Z" fill="#805E63"></path><path d="M29.6049 54.9369C29.6049 56.2419 28.6787 56.7681 27.5 56.1156C26.8942 55.7299 26.3879 55.2068 26.0222 54.5887C25.6565 53.9706 25.4416 53.275 25.3951 52.5584C25.3951 51.2534 26.3213 50.7272 27.5 51.3797C28.1058 51.7654 28.6121 52.2885 28.9778 52.9066C29.3435 53.5246 29.5584 54.2202 29.6049 54.9369Z" fill="#92757A"></path><path d="M65.9979 73.386C65.9979 75.1752 64.7349 75.9013 63.1773 74.9963C62.3552 74.4643 61.6703 73.7456 61.1783 72.8989C60.6864 72.0522 60.4013 71.1012 60.3463 70.1235C60.3463 68.3344 61.6092 67.6082 63.1773 68.5133C63.9976 69.0465 64.6804 69.7656 65.1705 70.6122C65.6606 71.4589 65.9441 72.4092 65.9979 73.386Z" fill="#4F1F26"></path><path d="M65.6085 71.5651L64.1982 72.1439C64.6072 72.9066 64.8103 73.7626 64.7876 74.6277C64.7876 76.059 64.5034 75.9537 64.5034 75.9537L63.0405 76.4589L59.3886 69.4602L61.3356 68.271L63.5773 69.4602L65.6085 71.5651Z" fill="#4F1F26"></path><path d="M64.1982 74.5227C64.1982 76.3119 62.9248 77.0381 61.3672 76.133C60.5456 75.6003 59.8611 74.8816 59.3692 74.035C58.8774 73.1884 58.5919 72.2377 58.5361 71.2602C58.5361 69.4711 59.8096 68.7449 61.3672 69.65C62.1876 70.1839 62.8712 70.9029 63.3629 71.7493C63.8546 72.5956 64.1407 73.5456 64.1982 74.5227Z" fill="#805E63"></path><path d="M63.3984 74.0804C63.3984 75.3854 62.4722 75.9117 61.2935 75.2591C60.6877 74.8734 60.1814 74.3503 59.8157 73.7323C59.45 73.1142 59.2351 72.4186 59.1887 71.7019C59.1887 70.3969 60.1148 69.8707 61.2935 70.5232C61.8993 70.9089 62.4056 71.432 62.7713 72.0501C63.1371 72.6682 63.3519 73.3638 63.3984 74.0804Z" fill="#92757A"></path><path d="M49.8016 66.4332C50.9005 65.7908 50.8901 63.7284 49.7783 61.8266C48.6666 59.9248 46.8745 58.9039 45.7755 59.5463C44.6766 60.1887 44.687 62.2512 45.7988 64.153C46.9105 66.0547 48.7026 67.0757 49.8016 66.4332Z" fill="#4F1F26"></path><path d="M50.222 62.7565L48.8117 63.3774C49.245 64.1331 49.4702 64.9901 49.4642 65.8612C49.4642 67.2925 49.1801 67.1872 49.1801 67.1872L47.7172 67.6924L44.0652 60.6516L46.0122 59.4624L48.2539 60.6622L50.222 62.7565Z" fill="#4F1F26"></path><path d="M48.7802 65.7557C48.7802 67.5448 47.5172 68.271 45.9596 67.3659C45.1414 66.8315 44.4606 66.1119 43.9724 65.2653C43.4841 64.4187 43.2023 63.469 43.1497 62.4931C43.1497 60.704 44.4126 59.9778 45.9807 60.8829C46.797 61.4184 47.4758 62.1386 47.9621 62.9851C48.4485 63.8316 48.7287 64.7807 48.7802 65.7557Z" fill="#805E63"></path><path d="M48.0224 65.3138C48.0224 66.6188 47.0963 67.1451 45.9175 66.4925C45.3117 66.1068 44.8054 65.5837 44.4397 64.9657C44.074 64.3476 43.8592 63.652 43.8127 62.9353C43.8127 61.6303 44.7388 61.1041 45.9175 61.7566C46.5233 62.1423 47.0296 62.6654 47.3954 63.2835C47.7611 63.9016 47.9759 64.5972 48.0224 65.3138Z" fill="#92757A"></path><path d="M67.7029 70.4179L66.5768 71.4598L63.9562 72.8385V72.828H63.9457L56.2419 63.9981L55.8946 63.5981L63.5984 68.0499L66.5241 69.7338L67.7029 70.4179Z" fill="#B74200"></path><path d="M66.5241 69.7341L63.9562 72.8282H63.9456L44.9914 61.8829L44.0231 56.7471L50.4114 60.4306L55.8945 63.5984L63.5983 68.0502L66.5241 69.7341Z" fill="#CD4500"></path><path d="M63.5983 68.0503L63.3457 68.3449L56.2418 63.9984L50.4114 60.4307L55.8945 63.5985L63.5983 68.0503Z" fill="#A33400"></path><path d="M36.5614 59.1151C36.5614 60.4938 35.5826 61.0516 34.3829 60.357C33.7505 59.9455 33.2238 59.391 32.8454 58.7383C32.4669 58.0856 32.2473 57.3531 32.2043 56.5998C32.2043 55.2211 33.1831 54.6633 34.3829 55.3579C35.0152 55.7694 35.5419 56.3239 35.9204 56.9766C36.2988 57.6293 36.5184 58.3619 36.5614 59.1151Z" fill="#805E63"></path><path d="M36.3088 58.6728C36.3088 59.8515 35.4774 60.3251 34.446 59.7252C33.914 59.3781 33.4698 58.9123 33.1484 58.3645C32.827 57.8166 32.6371 57.2016 32.5938 56.5679C32.5937 55.3892 33.4252 54.9156 34.446 55.5155C34.9817 55.8595 35.4292 56.3244 35.7527 56.8727C36.0762 57.421 36.2667 58.0375 36.3088 58.6728Z" fill="#92757A"></path><path d="M42.1498 62.5459C42.1498 63.9246 41.1711 64.4718 39.9713 63.7878C39.3334 63.3721 38.8033 62.811 38.4245 62.1505C38.0458 61.49 37.8293 60.749 37.7928 59.9885C37.7928 58.6098 38.7715 58.052 39.9713 58.7466C40.6092 59.1623 41.1394 59.7234 41.5181 60.3839C41.8968 61.0444 42.1134 61.7854 42.1498 62.5459Z" fill="#805E63"></path><path d="M41.8973 62.0932C41.8973 63.2719 41.0659 63.7455 40.0345 63.1456C39.5013 62.7998 39.0563 62.3343 38.7347 61.7861C38.4132 61.238 38.224 60.6224 38.1822 59.9883C38.1822 58.8096 39.0136 58.336 40.0345 58.9359C40.5684 59.2818 41.0147 59.7471 41.3379 60.295C41.6612 60.8429 41.8527 61.4585 41.8973 62.0932Z" fill="#92757A"></path><path d="M69.713 77.7745C69.713 79.1637 68.7342 79.711 67.5344 79.0164C66.9023 78.6072 66.3756 78.0546 65.997 77.4036C65.6185 76.7526 65.3988 76.0216 65.3559 75.2697C65.3559 73.8911 66.3347 73.3333 67.5344 74.0279C68.1666 74.4371 68.6933 74.9896 69.0718 75.6406C69.4504 76.2916 69.67 77.0227 69.713 77.7745Z" fill="#805E63"></path><path d="M69.4604 77.3432C69.4604 78.5219 68.629 78.9955 67.5976 78.3956C67.0645 78.0498 66.6194 77.5843 66.2978 77.0361C65.9763 76.488 65.7871 75.8724 65.7453 75.2383C65.7453 74.0596 66.5767 73.586 67.5976 74.1859C68.1315 74.5318 68.5778 74.9971 68.901 75.545C69.2243 76.0929 69.4158 76.7085 69.4604 77.3432Z" fill="#92757A"></path><path d="M75.3014 81.2057C75.3014 82.5844 74.3226 83.1422 73.1229 82.4476C72.4905 82.0361 71.9638 81.4816 71.5854 80.8289C71.2069 80.1762 70.9873 79.4436 70.9443 78.6904C70.9443 77.3117 71.9231 76.7645 73.1229 77.4485C73.7552 77.86 74.2819 78.4145 74.6604 79.0672C75.0388 79.7199 75.2584 80.4525 75.3014 81.2057Z" fill="#805E63"></path><path d="M75.0488 80.7636C75.0488 81.9423 74.2174 82.4159 73.186 81.816C72.654 81.469 72.2098 81.0032 71.8884 80.4553C71.567 79.9074 71.3771 79.2924 71.3337 78.6587C71.3337 77.48 72.1652 77.0064 73.186 77.6063C73.7217 77.9504 74.1692 78.4152 74.4927 78.9635C74.8162 79.5118 75.0067 80.1283 75.0488 80.7636Z" fill="#92757A"></path><path d="M46.57 59.4516L46.3595 59.6516L46.2227 59.7779L46.1701 59.8199L44.0126 61.8196L42.6024 62.5563L38.4558 57.7993L37.0561 56.1996L35.7405 54.6841L33.8777 52.5582L32.9832 51.5373L33.1305 50.8638L36.1404 52.1898L43.9916 56.7258L46.1491 59.0096L46.57 59.4516Z" fill="#B74200"></path><path d="M47.2541 59.3362L46.4437 59.9466L46.2227 59.7783L43.3812 57.6102L43.3496 57.6523L42.7918 58.3154L42.6339 58.5048L41.8236 59.1152L35.7405 54.6845L32.2464 52.1481L32.1517 51.7903L31.7834 50.5169L30.8572 49.1382L36.1404 52.1902L43.9916 56.7262L44.0231 56.7473L45.7491 57.7365L46.9699 58.4417L47.2541 59.3362Z" fill="#B7B7B7"></path><path d="M45.3387 59.2625L44.7178 59.9992L42.6024 62.5566L32.4043 56.663L31.815 53.5373L31.5834 52.2744L31.7308 51.6113L40.8448 55.6211L45.3387 59.2625Z" fill="#E26600"></path><path d="M45.3387 59.2625L44.7178 59.9992L43.0234 59.252L42.9181 59.3677L42.2761 60.136L31.8886 53.7899L31.815 53.5373L31.5834 52.2744L31.7308 51.6113L40.8448 55.6211L45.3387 59.2625Z" fill="#A33400"></path><path d="M46.4437 59.9462L46.1701 59.8199L45.2229 59.3989L42.7918 58.3149L42.5813 58.2307L42.4761 58.3465L41.8236 59.1148L37.0561 56.1996L31.6992 52.9265L31.4361 52.7581L30.9835 51.1374L29.1418 49.7482L29.6259 48.4326L30.8572 49.1377L36.1404 52.1898L43.9916 56.7258L44.0231 56.7468L45.7491 57.7361L46.1491 59.0095L46.3595 59.6515L46.4437 59.9462Z" fill="#959595"></path><path d="M79.69 78.7534L79.469 78.9533L79.3427 79.0796L79.2901 79.1217L77.1221 81.1213L75.7224 81.858H75.7118L71.5758 77.101L70.1761 75.5013L68.85 73.9859L66.9977 71.8599L66.1031 70.8391L66.2505 70.1655L70.5655 72.0704L76.7432 75.6276L79.269 78.3113L79.69 78.7534Z" fill="#B74200"></path><path d="M80.3741 78.6272L79.5637 79.2482L79.3427 79.0798L76.5011 76.9118L75.9328 77.5748L75.7855 77.7642L74.9751 78.3746L68.85 73.986L65.3664 71.4496L65.2612 71.0918L64.9033 69.8184L63.7667 68.145L66.5241 69.7342L67.7028 70.4183L70.5654 72.0706L76.7432 75.6278L78.3429 76.5539C78.5007 76.6487 78.6481 76.7329 78.7954 76.8381C79.2644 77.1536 79.7077 77.5055 80.1215 77.8905L80.3741 78.6272Z" fill="#B7B7B7"></path><path d="M78.4587 78.5532L77.8377 79.3005L75.7118 81.8579L65.5243 75.9643L64.9349 72.828L64.6929 71.5756L64.8402 70.9126L73.9648 74.9224L78.4587 78.5532Z" fill="#E26600"></path><path d="M78.4587 78.5532L77.8377 79.3005L76.1433 78.5532L76.0381 78.669L75.3961 79.4373L65.0086 73.0911L64.9349 72.828L64.6929 71.5756L64.8402 70.9126L73.9648 74.9224L78.4587 78.5532Z" fill="#A33400"></path><path d="M79.5637 79.2478L79.2901 79.1215L78.3324 78.7005L75.9012 77.6481L75.6908 77.5534L75.596 77.6797L74.9435 78.4479L70.176 75.5327L64.8191 72.2597L64.556 72.0913L64.093 70.4705L62.2512 69.0813L62.7985 67.6079L63.5983 68.071L63.7667 68.1762L66.5241 69.7654L67.7028 70.4495L70.5654 72.1018L76.7432 75.659L78.3429 76.5851C78.5007 76.6799 78.6481 76.7641 78.7954 76.8693L79.269 78.3427L79.469 78.9847L79.5637 79.2478Z" fill="#959595"></path><path d="M83.7208 84.3731C83.7208 86.1728 82.4579 86.8884 80.9003 85.9938C80.0768 85.4608 79.391 84.7405 78.899 83.8918C78.4069 83.0432 78.1226 82.0901 78.0693 81.1106C78.0693 79.3214 79.3322 78.6058 80.9003 79.5004C81.7194 80.0348 82.4013 80.7542 82.8913 81.6006C83.3812 82.447 83.6654 83.3967 83.7208 84.3731Z" fill="#4F1F26"></path><path d="M83.3209 82.5212L81.9107 83.1421C82.328 83.9019 82.5351 84.7593 82.5105 85.6258C82.5105 87.0571 82.2264 86.9519 82.2264 86.9519L80.7635 87.4571L77.1116 80.4058L79.0586 79.2271L81.3002 80.4268L83.3209 82.5212Z" fill="#4F1F26"></path><path d="M81.8791 85.5206C81.8791 87.3097 80.6162 88.0254 79.0586 87.1308C78.2382 86.5969 77.5546 85.8779 77.0628 85.0315C76.5711 84.1852 76.285 83.2352 76.2275 82.258C76.2275 80.4584 77.501 79.7427 79.0586 80.6373C79.879 81.1728 80.5618 81.8938 81.0518 82.7422C81.5418 83.5906 81.8252 84.5424 81.8791 85.5206Z" fill="#805E63"></path><path d="M81.1213 85.0784C81.1213 86.3834 80.1952 86.9097 79.0165 86.2466C78.4097 85.8645 77.9025 85.3436 77.5365 84.727C77.1706 84.1104 76.9564 83.4156 76.9116 82.6999C76.9116 81.3844 77.8378 80.8687 79.0165 81.5212C79.6234 81.9057 80.1306 82.4285 80.4965 83.0468C80.8624 83.6651 81.0765 84.3614 81.1213 85.0784Z" fill="#92757A"></path><path d="M88.7725 70.1866L82.6473 73.7228L64.3561 62.3039C60.8886 61.9288 57.493 61.0568 54.2738 59.7149C48.1381 57.3364 47.0962 52.832 47.0962 52.832L26.9211 41.1921L30.7625 38.9399L90.8142 53.4319L86.5097 68.7658L88.7725 70.1866Z" fill="#380009"></path><path d="M45.6649 46.3071H90.6774V47.6121C90.8984 51.1062 88.7198 54.6529 84.0786 57.3366C75.2593 62.4304 61.0093 62.4514 52.2426 57.3892C47.6014 54.7055 45.4544 51.1378 45.7596 47.6121L45.6649 46.3071Z" fill="#2E2728"></path><path d="M52.2005 55.5579C60.9673 60.6095 75.2172 60.5885 84.0365 55.4947C92.8559 50.4009 92.898 42.1815 84.1312 37.1193C75.3645 32.0571 61.1251 32.0887 52.3058 37.1824C43.4864 42.2762 43.4443 50.5167 52.2005 55.5579Z" fill="#4A3F40"></path><path d="M148.298 3.34667L144.046 1.97852L135.216 2.1469L135.774 8.50358L143.688 7.8616L148.908 5.25157L148.298 3.34667Z" fill="#CB5200"></path><path d="M144.046 1.97863L145.13 1.34717L136.3 1.51556L135.216 2.14701L144.046 1.97863Z" fill="#FFC523"></path><path d="M137.342 2.10499L136.3 1.51562L133.153 2.22075L135.763 2.1997L137.342 2.10499Z" fill="#FFC523"></path><path d="M139.605 3.34686L135.764 2.19971L133.964 2.30495L134.511 8.66163L139.605 3.34686Z" fill="#CA4D0B"></path><path d="M148.298 3.34679L149.382 2.71533L145.13 1.34717L144.046 1.97863L148.298 3.34679Z" fill="#FFD02D"></path><path d="M148.298 3.34679L149.382 2.71533L149.982 4.60971L148.908 5.25169L148.298 3.34679Z" fill="#FF9700"></path><path d="M82.3316 24.7636L88.2042 10.3979L92.1297 7.3985L100.728 2.49418L137.3 2.28369L141.552 3.66237L142.152 5.55675L138.731 8.5667L105.022 11.7345L97.4971 15.7969L87.7727 26.6685L86.4045 32.1622L83.1525 35.4668L82.3316 24.7636Z" fill="#D04200"></path><path d="M100.728 2.49439L95.4028 5.59906L130.543 5.3149L135.763 2.19971L100.728 2.49439Z" fill="#FFC523"></path><path d="M82.4684 18.7016L81.8896 18.3543L87.3622 9.22973L96.8341 3.53609L129.217 2.96777L129.228 3.64133L97.0235 4.20964L87.7832 9.76647L82.4684 18.7016Z" fill="#380009"></path><path d="M81.3529 19.4804L80.774 19.1436L86.2362 10.0191L95.708 4.32542L128.091 3.74658L128.102 4.42014L95.8975 4.98845L86.6571 10.5453L81.3529 19.4804Z" fill="#380009"></path><path d="M82.2263 18.3542L81.6791 17.9648L88.5514 8.50344L98.0128 2.80979L130.396 2.23096L130.407 2.90451L98.2022 3.47282L88.9514 9.04018L82.2263 18.3542Z" fill="#380009"></path><path d="M141.405 3.10449L133.006 6.41965L133.248 11.4082L142.215 12.7553L175.135 14.9654L174.724 10.1873L141.405 3.10449Z" fill="#262021"></path><path d="M154.013 9.98742C153.876 9.98742 139.731 7.48264 138.005 7.48264V6.80908C139.784 6.80908 153.55 9.22967 154.128 9.32439L154.013 9.98742Z" fill="#380009"></path><path d="M154.013 11.2504C153.876 11.2504 139.731 8.73508 138.005 8.73508V8.06152C139.784 8.06152 153.55 10.4821 154.128 10.5874L154.013 11.2504Z" fill="#380009"></path><path d="M136.448 4.43061L133.006 6.4197L141.405 3.10455L144.846 1.12598L136.448 4.43061Z" fill="#362E2F"></path><path d="M77.3326 25.7321L88.2041 10.3982L95.4028 5.5991L130.543 5.31494L131.143 12.3978L101.78 15.0289L94.2556 19.0913L84.5312 29.9629L83.1525 35.4671L75.7539 30.7838L77.3326 25.7321Z" fill="#BC3C00"></path><path d="M140.689 7.76709L136.437 6.39893L130.228 6.55679L130.775 12.924L136.079 12.282L141.289 9.66146L140.689 7.76709Z" fill="#CB5200"></path><path d="M136.437 6.39855L137.5 5.76709L131.291 5.93548L130.228 6.55641L136.437 6.39855Z" fill="#FFC523"></path><path d="M130.228 6.5567L131.291 5.93577L129.786 4.67285L128.723 5.29379L130.228 6.5567Z" fill="#FFC523"></path><path d="M130.775 12.9241L130.228 6.55686L128.723 5.29395L129.354 12.5662L130.775 12.9241Z" fill="#CA4D0B"></path><path d="M140.689 7.76671L141.752 7.14577L137.5 5.76709L136.437 6.39855L140.689 7.76671Z" fill="#FFD02D"></path><path d="M140.689 7.76693L141.752 7.146L142.352 9.04037L141.289 9.6613L140.689 7.76693Z" fill="#FF9700"></path><path d="M85.8888 22.1748L85.2468 21.8486L90.9826 11.3243L102.086 7.43027C106.232 7.29345 126.965 6.65147 128.154 7.18821C129.209 7.83108 130.139 8.65808 130.901 9.62985L130.375 10.0403C129.68 9.15397 128.836 8.39542 127.881 7.79862C126.934 7.44079 112 7.79862 102.159 8.0933L91.5298 11.9031L85.8888 22.1748Z" fill="#380009"></path><path d="M84.6891 42.76L59.2202 57.4625L58.8414 41.013L84.2997 26.3105L84.6891 26.9736V42.76Z" fill="#B74200"></path><path d="M70.2708 41.3923L61.1041 46.6439V40.5714L60.6726 39.9505L70.2076 33.8779L70.2708 41.3923Z" fill="#BC3C00"></path><path d="M84.689 33.499L59.2202 48.2015V49.5381L84.689 34.8356V33.499Z" fill="#B7B7B7"></path><path d="M60.7147 39.9082V46.8858L61.1041 46.6438V40.5712L60.7147 39.9082Z" fill="#B74200"></path><path d="M51.1165 9.1875L84.2997 26.3105L84.6891 26.9736V42.76L52.1479 23.9741L51.4744 22.7428L50.9902 21.08L49.5168 13.3762L50.4325 9.34537L51.1165 9.1875Z" fill="#C85700"></path><path d="M51.1165 9.1875L28.3525 22.3534L33.7199 26.5105L58.8414 41.013L84.2997 26.3105L59.2097 11.8186L51.1165 9.1875Z" fill="#FFC523"></path><path d="M62.5459 28.8052L52.4005 34.6041L52.3689 34.6567L52.632 34.8251L62.5985 28.9209L62.5459 28.8052Z" fill="#E26600"></path><path d="M62.3355 28.6787L52.4005 34.6039L52.5794 34.7091L62.5459 28.805L62.3355 28.6787Z" fill="#FFE636"></path><path d="M61.9145 28.4365L51.769 34.2249L51.7269 34.2775L52.0006 34.4459L61.9671 28.5523L61.9145 28.4365Z" fill="#E26600"></path><path d="M61.704 28.2998L51.769 34.225L51.948 34.3408L61.9145 28.4366L61.704 28.2998Z" fill="#FFE636"></path><path d="M61.283 28.0576L51.1376 33.846L51.0955 33.9091L51.3691 34.0775L61.3356 28.1734L61.283 28.0576Z" fill="#E26600"></path><path d="M61.062 27.9316L51.1376 33.8463L51.3165 33.9621L61.283 28.0579L61.062 27.9316Z" fill="#FFE636"></path><path d="M60.641 27.6787L50.4956 33.4776L50.4641 33.5302L50.7272 33.6986L60.6937 27.7945L60.641 27.6787Z" fill="#E26600"></path><path d="M60.4305 27.5527L50.4956 33.4779L50.6745 33.5832L60.641 27.679L60.4305 27.5527Z" fill="#FFE636"></path><path d="M60.0095 27.3105L49.8641 33.0989L49.822 33.1621L50.0957 33.3304L60.0622 27.4263L60.0095 27.3105Z" fill="#E26600"></path><path d="M59.7886 27.1841L49.8641 33.0987L50.043 33.2145L60.0096 27.3104L59.7886 27.1841Z" fill="#FFE636"></path><path d="M59.3781 26.9316L49.2327 32.7305L49.1906 32.7832L49.4642 32.9515L59.4308 27.0474L59.3781 26.9316Z" fill="#E26600"></path><path d="M59.1571 26.8052L49.2327 32.7304L49.4116 32.8356L59.3781 26.9315L59.1571 26.8052Z" fill="#FFE636"></path><path d="M73.7543 22.1431L63.6089 27.9314L63.5668 27.9946L63.8404 28.163L73.8069 22.2588L73.7543 22.1431Z" fill="#E26600"></path><path d="M73.5438 22.0166L63.6089 27.9313L63.7878 28.047L73.7543 22.1429L73.5438 22.0166Z" fill="#FFE636"></path><path d="M73.1228 21.7642L62.9774 27.5631L62.9353 27.6157L63.2089 27.7841L73.1754 21.8799L73.1228 21.7642Z" fill="#E26600"></path><path d="M72.9018 21.6382L62.9774 27.5634L63.1563 27.6686L73.1228 21.7645L72.9018 21.6382Z" fill="#FFE636"></path><path d="M72.4809 21.396L62.3355 27.1844L62.3039 27.237L62.567 27.4159L72.544 21.5118L72.4809 21.396Z" fill="#E26600"></path><path d="M72.2704 21.2695L62.3354 27.1842L62.5144 27.3L72.4809 21.3958L72.2704 21.2695Z" fill="#FFE636"></path><path d="M71.8494 21.0171L61.704 26.816L61.6619 26.8686L61.9355 27.037L71.902 21.1329L71.8494 21.0171Z" fill="#E26600"></path><path d="M71.6389 20.8906L61.704 26.8158L61.8829 26.921L71.8494 21.0169L71.6389 20.8906Z" fill="#FFE636"></path><path d="M71.2179 20.6484L61.0725 26.4368L61.0304 26.4894L61.304 26.6578L71.2705 20.7642L71.2179 20.6484Z" fill="#E26600"></path><path d="M70.9969 20.5117L61.0725 26.4369L61.2514 26.5527L71.2179 20.6485L70.9969 20.5117Z" fill="#FFE636"></path><path d="M70.576 20.27L60.4411 26.0584L60.399 26.1215L60.6726 26.2899L70.6391 20.3858L70.576 20.27Z" fill="#E26600"></path><path d="M70.3655 20.1436L60.441 26.0582L60.6094 26.174L70.5759 20.2698L70.3655 20.1436Z" fill="#FFE636"></path><path d="M46.4648 27.3947L40.266 24.0269L33.4252 20.3119V19.7856H34.6881L46.2122 24.0901L47.7803 25.332V28.1209L46.4648 27.3947Z" fill="#2E2728"></path><path d="M60.42 20.8173L47.7803 28.1211V25.3322L60.42 18.0283V20.8173Z" fill="#3B3334"></path><path d="M60.42 18.028L58.8519 16.7966L47.3278 12.4922H46.0649L33.4252 19.7855H34.6881L46.2122 24.09L47.7803 25.3318L60.42 18.028Z" fill="#4A3F40"></path><path d="M58.8519 16.7969L46.2122 24.0902L47.7803 25.3321L60.42 18.0282L58.8519 16.7969Z" fill="#5C4E4F"></path><path d="M47.3278 12.4922L34.6881 19.7855H33.4252L46.0649 12.4922H47.3278Z" fill="#362E2F"></path><path d="M34.6881 19.7855L46.4648 23.9426L47.7803 24.8793L59.778 18.028L58.5572 16.965L47.3278 12.4922L58.8519 16.7966L60.42 18.028L47.7803 25.3318L46.2122 24.09L34.6881 19.7855Z" fill="#705F60"></path><path d="M47.7804 28.1211H45.0335L42.9602 27.1213L32.899 20.3331L33.4252 20.0068V20.312L47.7804 28.1211Z" fill="#E27D00"></path><path d="M46.4753 23.6904L46.2122 23.6168L51.8532 20.3647L52.1164 20.4384L46.4753 23.6904Z" fill="#1A0004"></path><path d="M52.5163 20.2173L52.2532 20.1436L57.8942 16.8916L58.1573 16.9653L52.5163 20.2173Z" fill="#1A0004"></path><path d="M45.5597 23.3535L45.2966 23.2798L50.9376 20.0278L51.2007 20.1015L45.5597 23.3535Z" fill="#1A0004"></path><path d="M51.6006 19.8804L51.3375 19.8067L56.9786 16.5547L57.2417 16.6284L51.6006 19.8804Z" fill="#1A0004"></path><path d="M44.6441 23.0166L44.381 22.9429L50.022 19.6909L50.2851 19.7646L44.6441 23.0166Z" fill="#1A0004"></path><path d="M50.685 19.5332L50.4219 19.4701L56.063 16.2075L56.3261 16.2812L50.685 19.5332Z" fill="#1A0004"></path><path d="M43.7285 22.6797L43.4654 22.606L49.1064 19.354L49.3695 19.4172L43.7285 22.6797Z" fill="#1A0004"></path><path d="M49.7589 19.1963L49.4958 19.1226L55.1473 15.8706L55.4104 15.9443L49.7589 19.1963Z" fill="#1A0004"></path><path d="M42.8129 22.3325L42.5497 22.2588L48.1908 19.0068L48.4539 19.0805L42.8129 22.3325Z" fill="#1A0004"></path><path d="M48.8433 18.8594L48.5802 18.7857L54.2317 15.5337L54.4949 15.6074L48.8433 18.8594Z" fill="#1A0004"></path><path d="M41.8867 21.9956L41.6342 21.9219L47.2752 18.6699L47.5383 18.7436L41.8867 21.9956Z" fill="#1A0004"></path><path d="M47.9277 18.5229L47.6646 18.4493L53.3161 15.1973L53.5792 15.2709L47.9277 18.5229Z" fill="#1A0004"></path><path d="M40.9711 21.6592L40.7185 21.5855L46.3595 18.3335L46.6226 18.4072L40.9711 21.6592Z" fill="#1A0004"></path><path d="M47.0121 18.1753L46.749 18.1016L52.4005 14.8496L52.6531 14.9233L47.0121 18.1753Z" fill="#1A0004"></path><path d="M40.0555 21.3115L39.7924 21.2378L45.4439 17.9858L45.707 18.0595L40.0555 21.3115Z" fill="#1A0004"></path><path d="M46.0964 17.8389L45.8333 17.7652L51.4849 14.5132L51.7374 14.5869L46.0964 17.8389Z" fill="#1A0004"></path><path d="M39.1399 20.9751L38.8768 20.9014L44.5283 17.6494L44.7914 17.7231L39.1399 20.9751Z" fill="#1A0004"></path><path d="M45.1808 17.5019L44.9177 17.4283L50.5693 14.1763L50.8219 14.2499L45.1808 17.5019Z" fill="#1A0004"></path><path d="M38.2243 20.6382L37.9612 20.5645L43.6127 17.3125L43.8758 17.3862L38.2243 20.6382Z" fill="#1A0004"></path><path d="M44.2652 17.1545L44.0021 17.0914L49.6431 13.8394L49.9062 13.9025L44.2652 17.1545Z" fill="#1A0004"></path><path d="M37.3086 20.3013L37.0455 20.2276L42.6971 16.9756L42.9497 17.0493L37.3086 20.3013Z" fill="#1A0004"></path><path d="M43.3496 16.8179L43.0865 16.7442L48.7275 13.4922L48.9906 13.5659L43.3496 16.8179Z" fill="#1A0004"></path><path d="M36.3931 19.9541L36.1299 19.8804L41.7815 16.6284L42.0341 16.7021L36.3931 19.9541Z" fill="#1A0004"></path><path d="M42.434 16.481L42.1709 16.4073L47.8119 13.1553L48.075 13.2289L42.434 16.481Z" fill="#1A0004"></path><path d="M35.4774 19.6172L35.2143 19.5435L40.8553 16.2915L41.1184 16.3652L35.4774 19.6172Z" fill="#1A0004"></path><path d="M41.5184 16.144L41.2552 16.0704L46.8963 12.8184L47.1594 12.892L41.5184 16.144Z" fill="#1A0004"></path><path d="M33.7199 26.5106L28.3525 22.3535L27.6789 22.5219L26.7528 26.5422L26.4686 35.2668L26.9527 36.9297L27.6263 38.161L33.7199 42.9601L59.2203 57.4626V41.6761L58.8414 41.0131L33.7199 26.5106Z" fill="#C85700"></path><path d="M33.7199 33.4882L26.7002 28.0576L26.6581 29.4153L33.7199 34.8879L59.2203 49.6114V48.6642V48.2222L33.7199 33.4882Z" fill="#959595"></path><g style="mix-blend-mode:screen"><path d="M28.3525 22.3535L33.8462 26.2265L58.8414 40.5711L59.9675 39.8975L53.0425 35.8036L64.9665 28.9943L64.735 30.0889L60.6726 39.9501L58.8414 41.0131L33.7199 26.5106L28.3525 22.3535Z" fill="#FF6200"></path></g><path d="M74.8489 31.7731L67.966 27.7949L53.7897 35.9828L60.6726 39.9505L74.8489 31.7731Z" fill="#C85700"></path><path d="M103.58 28.1314L102.886 29.0155C102.097 30.097 101.624 31.3755 101.517 32.7095V38.1611C101.517 39.2135 102.78 39.2872 103.18 37.8875L103.591 37.2244C104.274 36.3136 104.643 35.2057 104.643 34.0671L104.864 28.9944C105.169 27.9209 104.348 27.1316 103.58 28.1314Z" fill="#1F140B"></path><path d="M103.549 28.5208L103.201 29.0155C102.406 30.094 101.928 31.3736 101.823 32.7095V38.1611C101.823 39.2135 102.433 39.2135 103.201 38.2242L103.896 37.1718C104.579 36.2609 104.948 35.1531 104.948 34.0145V28.5945C104.927 27.5526 104.306 27.521 103.549 28.5208Z" fill="#332D28"></path><path d="M102.907 27.5735V37.4347H103.159C103.205 37.4129 103.248 37.3846 103.285 37.3506C103.285 37.3506 103.349 37.2453 103.391 37.2032V27.2998C103.408 27.0893 103.361 26.8786 103.257 26.695C103.152 26.5114 102.995 26.3634 102.806 26.2703C102.616 26.1773 102.403 26.1434 102.194 26.1731C101.985 26.2028 101.789 26.2947 101.633 26.4368L98.4759 29.1205L98.7495 29.7625L101.907 27.0157C102.007 26.9568 102.12 26.9252 102.236 26.9238C102.352 26.9224 102.466 26.9513 102.567 27.0077C102.668 27.0641 102.752 27.146 102.812 27.2453C102.872 27.3446 102.904 27.4577 102.907 27.5735Z" fill="#312821"></path><path d="M82.8999 14.7236L98.8232 24.5639L99.7914 25.9636L100.181 27.0686L99.6441 27.437L101.717 46.5281L102.054 52.8321L101.423 57.3681L101.128 59.5256L100.844 61.4936L84.4996 71.0076L77.7957 35.909L82.3211 14.7763L82.8999 14.7236Z" fill="#380009"></path><path d="M82.3211 14.776L65.9769 24.3005L66.5557 24.2479L83.0368 14.7339L82.3211 14.776Z" fill="#959595"></path><path d="M101.16 48.8223L99.4546 49.8116L94.6556 52.5795L86.3519 57.3786L84.2155 37.193L89.5408 34.1199L97.6866 29.4155L99.0231 28.6367L101.16 48.8223Z" fill="#67383F"></path><path d="M101.16 48.8223L99.4231 51.5375L97.655 54.3054L97.2867 54.8843L89.2672 59.5044L86.3519 57.3785L94.6556 52.5794L99.4547 49.8116L101.16 48.8223Z" fill="#67383F"></path><path d="M102.054 52.832L97.9707 58.0416L89.4145 63.0196L85.7099 62.3565L84.4996 71.0075L100.844 61.4935L102.054 52.832Z" fill="#E27D00"></path><path d="M84.7838 69.05L89.667 66.4294L90.3932 64.4088L97.5497 60.1675L98.8232 60.7779L101.128 59.5255L102.054 52.832L97.9707 58.0416L89.4144 63.0196L85.7099 62.3565L84.7838 69.05Z" fill="#B7B7B7"></path><path d="M99.4757 46.9174L91.5614 42.3499L89.2881 36.993L89.5407 34.1199L97.6865 29.4155L99.4757 46.9174Z" fill="#7E7E7E"></path><path d="M99.4757 48.3274L91.4246 43.7178L99.4757 48.3274Z" fill="#4F2F32"></path><path d="M83.0367 14.7339L66.5557 24.2479L82.4789 34.0881L98.8232 24.5636L83.0367 14.7339Z" fill="#D7D7D7"></path><path d="M99.4757 48.3274L99.4546 49.8113L99.4231 51.5373L97.655 54.3052L94.6555 52.5792L92.3718 51.2532L91.4141 48.0959L91.4246 43.7178L99.4757 48.3274Z" fill="#7E7E7E"></path><path d="M66.5557 24.248L82.4789 34.0883L83.4472 35.4775L83.826 36.5931L83.2998 36.9509L85.3626 56.042L85.7099 62.3565L85.0784 66.882L84.7838 69.05L84.4996 71.0075L61.4409 57.7048V45.4229L65.9768 24.3007L66.5557 24.248Z" fill="#E26600"></path><path d="M83.2998 36.9509L83.826 36.5931L83.4472 35.4775L82.4789 34.0883L66.5557 24.248L65.9768 24.3007L61.4409 45.4229L62.9985 53.7898L65.8505 58.4941L84.7838 69.05L85.7099 62.3565L85.3626 56.042L83.2998 36.9509Z" fill="#959595"></path><path d="M81.9738 35.3302L84.3838 56.0736V63.0302L83.3314 66.8715L70.3128 59.3572L64.756 50.8746L63.8193 46.6964L66.04 33.6253L67.5976 26.9634L81.9738 35.3302Z" fill="#380009"></path><path d="M83.1314 56.4418L75.2172 51.8637L72.9439 46.5068L73.828 36.4561L74.2068 32.2148L77.6798 34.1829L81.0581 36.0983L83.1314 56.4418Z" fill="#4F2F32"></path><path d="M75.0804 53.2319L75.0593 57.61L76.0276 60.7779L82.3316 64.4087L83.0578 62.1986L83.1315 57.8416L75.0804 53.2319Z" fill="#4F2F32"></path><path d="M71.9231 30.8995L71.0812 38.0666L70.2497 45.0652L66.8609 47.4122L65.2402 45.4231L67.3871 34.4041L68.6185 28.9946L69.6393 29.584L71.9231 30.8995Z" fill="#4F2F32"></path><path d="M77.9535 40.5921L77.0168 40.6869C76.5869 40.8544 76.2221 41.1554 75.9758 41.5456C75.7296 41.9358 75.6149 42.3947 75.6487 42.8549V48.8853C75.6487 49.9377 76.2591 50.6428 77.0168 50.485L78.2903 50.264C79.048 50.1061 79.3427 49.2642 79.3427 48.2223V42.1918C79.3216 41.1499 78.7112 40.4343 77.9535 40.5921Z" fill="#1F140B"></path><path d="M77.9535 40.7606L77.0168 40.8553C76.5869 41.0229 76.2221 41.3239 75.9758 41.7141C75.7296 42.1043 75.6149 42.5631 75.6487 43.0233V49.0537C75.6487 50.1062 76.2591 50.8113 77.0168 50.6534L78.2903 50.4324C79.048 50.2746 79.3427 49.38 79.3427 48.3907V42.3603C79.3216 41.3184 78.7112 40.6027 77.9535 40.7606Z" fill="#332D28"></path><path d="M82.258 35.5933L78.806 38.94C78.3875 39.3527 78.0548 39.8441 77.8272 40.386C77.5996 40.9279 77.4816 41.5095 77.4799 42.0973V49.6748C77.5321 49.7032 77.5893 49.7211 77.6483 49.7274C77.7091 49.7484 77.7744 49.7526 77.8373 49.7397C77.9003 49.7267 77.9586 49.697 78.0061 49.6537V42.4656C77.9955 41.286 78.4536 40.1505 79.2796 39.3083L82.4369 36.0879V35.6985L82.258 35.5933Z" fill="#312821"></path><path d="M50.4324 9.34537L27.6789 22.5218L28.3525 22.3534L51.1165 9.1875L50.4324 9.34537Z" fill="#C85700"></path><path d="M83.8261 36.5928L100.181 27.0683L99.7914 25.9632L98.8232 24.5635L82.4789 34.088L83.4472 35.4772L83.8261 36.5928Z" fill="#E1E1E1"></path><path d="M144.846 1.12598L141.405 3.10455L174.724 10.1874L178.166 8.19831L144.846 1.12598Z" fill="#5C4E4F"></path><path d="M178.166 8.19824L174.724 10.1873L175.135 14.9654L178.576 12.9763L178.166 8.19824Z" fill="#3B3334"></path><path d="M69.4288 22.48L85.531 31.9834L85.5942 32.0781L85.1311 32.3518L69.3236 22.6694L69.4288 22.48Z" fill="#A5AAAB"></path><path d="M69.7867 22.2798L85.531 31.9832L85.2258 32.1621L69.4288 22.4797L69.7867 22.2798Z" fill="#E1E1E1"></path><path d="M72.0915 20.9541L88.1937 30.447L88.2568 30.5417L87.8043 30.8154L71.9968 21.1435L72.0915 20.9541Z" fill="#A5AAAB"></path><path d="M72.4598 20.7432L88.1937 30.4466L87.899 30.6255L72.0915 20.9537L72.4598 20.7432Z" fill="#E1E1E1"></path><path d="M74.7646 19.4175L90.8668 28.9104L90.93 29.0051L90.4669 29.2787L74.6699 19.6069L74.7646 19.4175Z" fill="#A5AAAB"></path><path d="M75.1225 19.207L90.8668 28.9104L90.5721 29.0893L74.7646 19.4175L75.1225 19.207Z" fill="#E1E1E1"></path><path d="M77.4378 17.8809L93.54 27.3843L93.6031 27.4685L93.1401 27.7527L77.3326 18.0703L77.4378 17.8809Z" fill="#A5AAAB"></path><path d="M77.7956 17.6704L93.54 27.3843L93.2348 27.5633L77.4378 17.8809L77.7956 17.6704Z" fill="#E1E1E1"></path><path d="M80.111 16.355L96.2132 25.8479L96.2658 25.9321L95.8132 26.2163L80.0057 16.5339L80.111 16.355Z" fill="#A5AAAB"></path><path d="M80.4688 16.144L96.2131 25.8474L95.9079 26.0264L80.111 16.3545L80.4688 16.144Z" fill="#E1E1E1"></path><path d="M88.6988 65.7661L86.3624 67.1448L86.5098 65.3873L89.4145 64.0928L88.6988 65.7661Z" fill="#F1F1F1"></path><path d="M88.6988 65.7665L87.8674 65.335L86.5098 65.3876L86.6992 63.7563L89.4145 64.0931L88.6988 65.7665Z" fill="#DFF1F1"></path><path d="M89.4145 64.0928L88.6988 65.7661L86.3624 67.1448L86.3519 67.3237L88.8462 65.8609L89.5724 64.2296L89.4145 64.0928Z" fill="#423D3D"></path><path d="M87.2465 65.8718L86.5098 66.3033L86.5308 65.8192L87.2675 65.3877L87.2465 65.8718Z" fill="white"></path><path d="M86.3624 67.1453L86.3519 67.3242L88.8462 65.8613L88.6988 65.7666L86.3624 67.1453Z" fill="#716D6D"></path><path d="M100.444 58.4521L98.6969 59.4414L97.9181 58.8941L100.991 54.937L100.444 58.4521Z" fill="#F1F1F1"></path><path d="M100.444 58.4521L99.7598 57.6207L98.2022 58.8205L98.6969 59.4414L97.9181 58.8941L100.991 54.937L100.96 56.9156L100.444 58.4521Z" fill="#DFF1F1"></path><path d="M100.991 54.937L100.823 56.7998L100.444 58.4521L98.6969 59.4414L98.9811 59.4519L100.591 58.5363L100.96 56.9156L101.149 54.8423L100.991 54.937Z" fill="#423D3D"></path><path d="M99.2337 58.4309L98.4865 58.8624L98.518 58.3783L99.2547 57.9468L99.2337 58.4309Z" fill="white"></path><path d="M98.6969 59.4414L98.9811 59.452L100.591 58.5363L100.444 58.4521L98.6969 59.4414Z" fill="#716D6D"></path><path d="M110.305 13.1869L112.189 11.7345L124.387 10.2085L122.503 11.6608L110.305 13.1869Z" fill="#A3A8B1"></path><path d="M120.619 11.8923L122.492 10.4505L123.45 10.3242L121.577 11.7766L120.619 11.8923Z" fill="#E82D24"></path><path d="M118.556 12.1555L120.44 10.7032L121.387 10.5874L119.514 12.0398L118.556 12.1555Z" fill="#E82D24"></path><path d="M116.494 12.408L118.377 10.9661L119.335 10.8398L117.451 12.2922L116.494 12.408Z" fill="#E82D24"></path><path d="M114.431 12.6711L116.315 11.2188L117.272 11.103L115.388 12.5554L114.431 12.6711Z" fill="#E82D24"></path><path d="M112.368 12.9241L114.252 11.4822L115.21 11.356L113.326 12.8083L112.368 12.9241Z" fill="#E82D24"></path><path d="M110.305 13.1868L112.189 11.7344L113.147 11.6187L111.263 13.0605L110.305 13.1868Z" fill="#E82D24"></path><path d="M69.6393 29.584L71.9231 30.8995L71.0811 38.0666L67.3134 40.2872L69.6393 29.584Z" fill="#664A4C"></path><path d="M77.6799 34.1829L73.828 36.4561L74.2069 32.2148L77.6799 34.1829Z" fill="#664A4C"></path><g style="mix-blend-mode:multiply"><path d="M33.7199 26.5106V42.9601L27.6263 38.161L26.9527 36.9297L26.4686 35.2668L26.7528 26.5422L27.6789 22.5219L28.3525 22.3535L33.7199 26.5106Z" fill="#DFD4CD"></path></g><g style="mix-blend-mode:multiply"><path d="M44.2021 48.8223H43.8653V32.3729L69.3446 17.5757L69.513 17.8704L44.2021 32.5623V48.8223Z" fill="#E7CE68"></path></g><g style="mix-blend-mode:multiply"><path d="M43.9495 44.4127L33.8882 38.698V42.9603H33.5515V38.1191L33.804 38.256L44.1073 44.118L43.9495 44.4127Z" fill="#E7CE68"></path></g><path d="M62.8827 45.8226L62.346 45.5174C62.0211 45.339 61.7632 45.0597 61.6113 44.7217C61.4593 44.3837 61.4217 44.0054 61.504 43.644L64.3245 30.7728C64.3961 30.4279 64.5451 30.1037 64.7602 29.8248C64.9753 29.5459 65.251 29.3194 65.5664 29.1626H65.6401H66.2926V29.8362H65.819C65.6112 29.9511 65.4304 30.1091 65.2888 30.2997C65.1472 30.4904 65.0481 30.7091 64.9981 30.9412L62.1565 43.7809C62.1051 44.0036 62.1275 44.2371 62.2206 44.446C62.3136 44.6549 62.4722 44.8278 62.6722 44.9385L63.209 45.2437L62.8827 45.8226Z" fill="#380009"></path><path d="M56.547 54.0213C56.3074 54.0246 56.0725 53.9549 55.8735 53.8213C55.6985 53.7072 55.5548 53.5511 55.4556 53.3673C55.3563 53.1835 55.3046 52.9778 55.3052 52.7689V44.5915C55.3055 44.1704 55.4129 43.7563 55.6172 43.3881C55.8216 43.0199 56.1162 42.7097 56.4734 42.4866L56.8312 42.2656L57.189 42.8339L56.8312 43.0655C56.567 43.2253 56.3486 43.4509 56.1974 43.7201C56.0462 43.9894 55.9672 44.2932 55.9682 44.602V52.7794C55.9702 52.8782 55.9966 52.9749 56.0449 53.0611C56.0933 53.1472 56.1622 53.2201 56.2455 53.2732C56.3288 53.3263 56.4239 53.358 56.5224 53.3655C56.6209 53.373 56.7198 53.356 56.8102 53.3161L57.0101 53.6003L57.1364 53.9055C56.9496 53.9828 56.7492 54.0221 56.547 54.0213Z" fill="#380009"></path><g style="mix-blend-mode:multiply"><path d="M100.918 60.9462L100.844 61.4934L84.4996 71.0074L61.4409 57.7047V57.0732L84.5943 70.3339L100.918 60.9462Z" fill="#BFA89A"></path></g><path d="M66.5557 24.2479L82.8368 33.8776L83.8681 34.7932L99.0442 25.8686L98.4548 24.7741L83.0367 14.7339L98.8232 24.5636L99.7914 25.9633L83.4472 35.4773L82.4789 34.0881L66.5557 24.2479Z" fill="#F6F6F6"></path><path d="M87.499 34.4462L87.9516 33.1307L95.8132 28.5947L96.4447 29.2472L87.499 34.4462Z" fill="#332D28"></path><path d="M89.0882 32.6992L88.162 33.2254V33.678L89.2355 32.7729L89.0882 32.6992Z" fill="#DC6E36"></path><path d="M89.2356 32.7725L88.3094 33.3092V33.7617L89.2356 33.2145V32.7725Z" fill="#FF8936"></path><path d="M88.3094 33.3093L88.162 33.2251V33.6776L88.3094 33.7618V33.3093Z" fill="#D75716"></path><path d="M92.2455 30.8784L91.3193 31.4152V31.8572L92.3928 30.9626L92.2455 30.8784Z" fill="#DC6E36"></path><path d="M92.3929 30.9624L91.4667 31.4991V31.9412L92.3929 31.3939V30.9624Z" fill="#FF8936"></path><path d="M91.4667 31.4992L91.3193 31.415V31.8571L91.4667 31.9413V31.4992Z" fill="#D75716"></path><path d="M95.4028 29.0576L94.4767 29.5944V30.0469L95.5607 29.1418L95.4028 29.0576Z" fill="#DC6E36"></path><path d="M95.5607 29.1416L94.624 29.6783V30.1204L95.5607 29.5731V29.1416Z" fill="#FF8936"></path><path d="M94.624 29.6784L94.4767 29.5942V30.0468L94.624 30.1205V29.6784Z" fill="#D75716"></path><path d="M51.9479 51.1797C51.8244 51.1794 51.7036 51.1428 51.6006 51.0745C51.3938 50.945 51.2215 50.7672 51.0987 50.5564C50.9758 50.3455 50.9061 50.108 50.8955 49.8642C50.8955 49.5169 51.0744 49.2959 51.3586 49.2959C51.4813 49.3015 51.6007 49.3376 51.7059 49.4011C51.9121 49.5313 52.0839 49.7092 52.2067 49.9199C52.3294 50.1306 52.3995 50.3679 52.411 50.6114C52.411 50.9587 52.2321 51.1797 51.9479 51.1797Z" fill="#DDDDDD"></path><path d="M52.2321 50.6745C52.2321 51.0849 51.9374 51.2428 51.5796 51.0428C51.3923 50.9206 51.2366 50.7558 51.125 50.5619C51.0135 50.3681 50.9493 50.1506 50.9376 49.9273C50.9376 49.5063 51.2218 49.3484 51.5796 49.5484C51.7685 49.6724 51.9258 49.8388 52.0391 50.0343C52.1523 50.2298 52.2184 50.449 52.2321 50.6745Z" fill="#FF9E38"></path><path d="M36.0141 41.9918C35.895 41.9845 35.7794 41.9484 35.6774 41.8865C35.4711 41.7564 35.2993 41.5784 35.1766 41.3677C35.0538 41.157 34.9837 40.9198 34.9722 40.6762C34.9722 40.3289 35.1511 40.1079 35.4353 40.1079C35.5589 40.1083 35.6796 40.1448 35.7826 40.2132C35.9882 40.3439 36.1596 40.5221 36.2822 40.7326C36.4049 40.9432 36.4754 41.1801 36.4877 41.4234C36.4877 41.7708 36.2983 41.9918 36.0141 41.9918Z" fill="#DDDDDD"></path><path d="M36.3088 41.4765C36.3088 41.8869 36.0142 42.0553 35.6563 41.8448C35.4685 41.7232 35.3123 41.5585 35.2006 41.3646C35.089 41.1706 35.0252 40.9528 35.0143 40.7293C35.0143 40.3188 35.2985 40.1504 35.6563 40.3609C35.845 40.4826 36.0023 40.6471 36.1157 40.8408C36.229 41.0346 36.2952 41.2524 36.3088 41.4765Z" fill="#FF9E38"></path><path d="M51.9269 43.2867L51.9374 42.9183L40.0134 36.0249L40.0029 36.4038L51.9269 43.2867Z" fill="#380009"></path><path d="M51.9269 42.4024L51.9374 42.034L40.0134 35.1406L40.0029 35.5195L51.9269 42.4024Z" fill="#380009"></path><path d="M51.9269 41.5186L51.9374 41.1397L40.0134 34.2568L40.0029 34.6357L51.9269 41.5186Z" fill="#380009"></path><path d="M51.9269 40.6343L51.9374 40.2555L40.0134 33.3726L40.0029 33.7409L51.9269 40.6343Z" fill="#380009"></path><path d="M51.9269 39.7395L51.9374 39.3712L40.0134 32.4883L40.0029 32.8566L51.9269 39.7395Z" fill="#380009"></path><path d="M30.4363 36.835V37.8875L29.4891 37.0771V35.6458C29.4873 35.5659 29.5035 35.4867 29.5362 35.4139C29.569 35.3411 29.6176 35.2765 29.6785 35.2248C29.7834 35.1777 29.9026 35.1733 30.0106 35.2126C30.1187 35.2519 30.2072 35.3318 30.2574 35.4353C30.2935 35.4887 30.3252 35.545 30.3521 35.6037C30.444 36.0073 30.4724 36.4227 30.4363 36.835Z" fill="#902E00"></path><path d="M30.2574 35.4353L29.9627 36.7614L29.4891 37.0034V35.6458C29.4873 35.5659 29.5035 35.4867 29.5362 35.4139C29.569 35.3411 29.6176 35.2765 29.6785 35.2248C29.7834 35.1777 29.9026 35.1733 30.0106 35.2126C30.1187 35.2519 30.2072 35.3318 30.2574 35.4353Z" fill="#983800"></path><path d="M29.4891 37.0033L29.9627 36.7612L30.4468 37.1296L30.4363 37.8137L29.4891 37.0033Z" fill="#C85700"></path><g style="mix-blend-mode:multiply"><path d="M91.8245 25.6054L91.6666 23.9531L87.6253 24.0268C87.3277 24.03 87.0339 24.0945 86.7623 24.2162C86.2677 24.4793 86.2992 24.8793 86.836 25.1213C87.0553 25.2047 87.2859 25.2543 87.5201 25.2687L91.8245 25.6054Z" fill="#D8D8D8"></path></g><path d="M90.2775 23.7637H93.3611V24.8898C93.3611 25.0792 93.2453 25.2686 92.9612 25.416C92.2603 25.706 91.473 25.706 90.7721 25.416C90.4564 25.2792 90.2985 25.0897 90.2775 24.9003V23.7637Z" fill="#B2CDCF"></path><path d="M90.4248 20.9541H93.0769L93.3611 23.7536C93.3611 23.943 93.2453 24.1324 92.9612 24.2798C92.2603 24.5698 91.473 24.5698 90.7721 24.2798C90.4564 24.143 90.2985 23.9535 90.2775 23.7641L90.4248 20.9541Z" fill="#D76600"></path><path d="M90.7721 20.5015C91.3765 20.2586 92.0515 20.2586 92.6559 20.5015C93.1927 20.7436 93.2242 21.1435 92.7296 21.4066C92.1251 21.6496 91.4502 21.6496 90.8458 21.4066C90.309 21.1646 90.2774 20.7646 90.7721 20.5015Z" fill="#FFA71E"></path><path d="M90.7616 23.2375C91.0812 23.102 91.4248 23.0322 91.7719 23.0322C92.1191 23.0322 92.4626 23.102 92.7823 23.2375C93.3611 23.4901 93.4032 23.9216 92.8664 24.2057C92.2151 24.4696 91.4866 24.4696 90.8353 24.2057C90.2564 23.9426 90.2248 23.5111 90.7616 23.2375Z" fill="#FF9C00"></path><path d="M92.214 22.1854C92.3545 22.6126 92.3545 23.0737 92.214 23.5009C92.0666 23.8482 91.4246 23.7535 91.2878 23.3746C91.2205 23.2333 91.1855 23.0787 91.1855 22.9221C91.1855 22.7655 91.2205 22.6109 91.2878 22.4695C91.5614 22.1012 92.0771 21.8065 92.214 22.1854Z" fill="#FF9C00"></path><path d="M91.6982 22.501C91.8146 22.8924 91.8146 23.3093 91.6982 23.7008C91.572 23.9849 91.372 23.9007 91.2562 23.5113C91.1336 23.1244 91.1336 22.709 91.2562 22.3221C91.3825 22.0379 91.5614 22.1011 91.6982 22.501Z" fill="#FFA71E"></path><path d="M162.411 12.6081V11.1978L163.137 10.7769V12.1871L162.411 12.6081Z" fill="#3B3334"></path><path d="M162.411 11.198L155.118 8.89314L155.844 8.47217L163.137 10.777L162.411 11.198Z" fill="#5C4E4F"></path><path d="M153.002 7.91414L155.118 8.8929L155.844 8.47192L153.728 7.49316L153.002 7.91414Z" fill="#4A3F40"></path><path d="M162.411 11.1976L155.118 8.89282L153.002 7.91406L153.36 12.6079L155.476 12.229L162.411 12.6079V11.1976Z" fill="#2E2728"></path><path d="M169.768 18.3647C168.715 17.7964 168.715 16.6072 168.662 15.5547C168.662 14.7128 168.599 13.9235 168.126 13.5341C167.652 13.1447 164.484 12.4816 162.727 12.187L162.821 11.5239C163.306 11.5871 167.6 12.2185 168.557 13.0184C168.854 13.3589 169.076 13.7575 169.21 14.1888C169.344 14.62 169.387 15.0745 169.336 15.5232C169.336 16.4809 169.41 17.3965 170.104 17.7859L169.768 18.3647Z" fill="#380009"></path><path d="M174.135 21.375L173.819 17.5758L174.546 17.1548L174.872 20.9541L174.135 21.375Z" fill="#3B3334"></path><path d="M173.819 17.5758L171.651 17.0811L172.378 16.6602L174.546 17.1548L173.819 17.5758Z" fill="#3B3334"></path><path d="M169.536 16.1021L171.651 17.0809L172.378 16.6599L170.262 15.6812L169.536 16.1021Z" fill="#3B3334"></path><path d="M173.819 17.5755L171.651 17.0808L169.536 16.1021L169.104 18.9752L171.967 20.8801L174.135 21.3747L173.819 17.5755Z" fill="#2E2728"></path><path d="M133.269 3.17855L132.89 1.04212L133.648 0.600098L134.027 2.73653L133.269 3.17855Z" fill="#FF9700"></path><path d="M132.89 1.04191L131.733 0.442021L132.49 0L133.648 0.599885L132.89 1.04191Z" fill="#FFD02D"></path><path d="M129.523 0.673555L131.733 0.442021L132.49 0L130.291 0.231535L129.523 0.673555Z" fill="#FFC523"></path><path d="M132.89 1.04178L131.733 0.441895L129.523 0.673429L129.038 1.53642L129.091 3.02035L133.269 3.17821L132.89 1.04178Z" fill="#CB5200"></path><path d="M111.652 3.15705C111.696 3.2291 111.754 3.29145 111.823 3.3403C111.892 3.38916 111.97 3.42349 112.052 3.44121C112.242 3.44121 130.554 2.59926 130.554 2.59926L130.354 0.38916C130.354 0.38916 112.136 1.24163 112 1.22058C111.888 1.22442 111.78 1.26298 111.692 1.3309C111.603 1.39881 111.538 1.49269 111.505 1.59945C111.403 1.85199 111.364 2.12517 111.389 2.39615C111.415 2.66713 111.505 2.92804 111.652 3.15705Z" fill="#E26600"></path><path d="M130.07 2.32602C130.112 2.41553 130.182 2.4898 130.268 2.53879C130.354 2.58778 130.453 2.60912 130.552 2.59994C130.651 2.59076 130.744 2.55149 130.82 2.48744C130.895 2.4234 130.95 2.33766 130.975 2.24183C131.074 1.987 131.112 1.71256 131.087 1.44034C131.061 1.16811 130.972 0.905612 130.828 0.673705C130.784 0.584323 130.714 0.510491 130.627 0.462239C130.54 0.413986 130.441 0.393651 130.342 0.403997C130.243 0.414343 130.15 0.454867 130.075 0.520065C130 0.585264 129.947 0.671976 129.922 0.768424C129.823 1.02147 129.785 1.29423 129.811 1.56476C129.836 1.83528 129.925 2.09603 130.07 2.32602Z" fill="#FF9700"></path><path d="M143.204 1.48415C143.657 1.04213 143.257 0.231757 142.836 0.326475L130.659 0.894788C130.579 0.898131 130.5 0.918609 130.427 0.95486C130.355 0.991112 130.292 1.0423 130.241 1.10503C130.19 1.16776 130.153 1.24058 130.133 1.31865C130.113 1.39672 130.109 1.47826 130.122 1.55782C130.143 1.69355 130.214 1.8165 130.322 1.90228C130.429 1.98806 130.564 2.03039 130.701 2.02089L143.204 1.48415Z" fill="#828689"></path><path d="M130.217 4.93609L129.828 2.81018L130.596 2.36816L130.975 4.49407L130.217 4.93609Z" fill="#FF9700"></path><path d="M129.828 2.80975L128.681 2.19934L129.438 1.75732L130.596 2.36773L129.828 2.80975Z" fill="#FFD02D"></path><path d="M126.471 2.43088L128.681 2.19934L129.438 1.75732L127.239 1.99938L126.471 2.43088Z" fill="#FFC523"></path><path d="M129.828 2.81012L128.681 2.19971L126.471 2.43124L125.986 3.29423L126.039 4.77816L130.217 4.93603L129.828 2.81012Z" fill="#CB5200"></path><path d="M173.409 19.533C173.414 19.6135 173.403 19.6943 173.376 19.7704C173.349 19.8464 173.306 19.9161 173.251 19.975C173.059 20.1159 172.858 20.2459 172.651 20.3644L171.599 18.5121C171.766 18.4164 171.928 18.311 172.083 18.1964C172.171 18.1353 172.276 18.1025 172.383 18.1025C172.49 18.1025 172.595 18.1353 172.683 18.1964C172.901 18.346 173.08 18.5451 173.206 18.7774C173.333 19.0097 173.402 19.2687 173.409 19.533Z" fill="#828689"></path><path d="M172.872 19.8701C172.872 20.3542 172.535 20.5542 172.114 20.3121C171.895 20.1663 171.713 19.9716 171.581 19.7434C171.45 19.5151 171.373 19.2595 171.357 18.9966C171.357 18.5125 171.693 18.3125 172.114 18.5546C172.335 18.6986 172.519 18.8928 172.651 19.1215C172.783 19.3501 172.859 19.6066 172.872 19.8701Z" fill="#6D6D6D"></path><path d="M133.364 10.2716C133.373 10.4012 133.355 10.5312 133.309 10.6529C133.264 10.7745 133.193 10.885 133.101 10.9768C132.796 11.1973 132.48 11.4011 132.154 11.5872L130.438 8.64038C130.438 8.64038 131.038 8.29307 131.207 8.15626C131.344 8.05538 131.51 8.00098 131.68 8.00098C131.85 8.00098 132.016 8.05538 132.154 8.15626C132.507 8.38894 132.801 8.70174 133.012 9.06928C133.222 9.43681 133.343 9.84874 133.364 10.2716Z" fill="#828689"></path><path d="M132.511 10.7981C132.511 11.5664 131.975 11.8505 131.301 11.4927C130.948 11.2623 130.654 10.9514 130.443 10.5856C130.233 10.2198 130.112 9.80931 130.091 9.38783C130.091 8.61956 130.638 8.3354 131.301 8.69323C131.655 8.923 131.95 9.2337 132.16 9.59967C132.371 9.96565 132.491 10.3764 132.511 10.7981Z" fill="#6D6D6D"></path></g><defs><clipPath id="clip0_5678_9433"><rect width="179.534" height="110" fill="white"></rect></clipPath></defs></svg>