<svg xmlns="http://www.w3.org/2000/svg" width="57" height="100" viewBox="0 0 57 100" fill="none"><g clip-path="url(#clip0_5678_16890)"><path d="M21.8311 6.05576e-05H56.0863C56.1943 -0.00851949 56.3029 0.00502203 56.4054 0.0398565C56.508 0.074691 56.6024 0.130086 56.6828 0.202651C56.7632 0.275216 56.8279 0.363426 56.8731 0.461883C56.9182 0.560339 56.9428 0.666971 56.9453 0.775254V19.9037C56.9428 20.012 56.9182 20.1186 56.8731 20.2171C56.8279 20.3155 56.7632 20.4037 56.6828 20.4763C56.6024 20.5489 56.508 20.6042 56.4054 20.6391C56.3029 20.6739 56.1943 20.6875 56.0863 20.6789H21.8311C18.6885 20.6789 11.9107 19.2123 6.72533 16.8867C2.93317 15.1897 0 12.8536 0 10.3604C0 7.86723 2.93317 5.5207 6.72533 3.8027C11.9107 1.46664 18.7199 6.05576e-05 21.8311 6.05576e-05ZM55.353 1.55045H21.8311C18.8561 1.55045 12.3402 3.01703 7.41672 5.23786C4.19024 6.72539 1.63419 8.54814 1.63419 10.3604C1.63419 12.1727 4.19024 13.8907 7.41672 15.4516C12.3402 17.5991 18.9399 19.0656 21.8311 19.0656H55.353V1.55045Z" fill="#17262F"></path><path d="M35.0304 24.932C35.1128 25.0103 35.1784 25.1045 35.2233 25.209C35.2681 25.3134 35.2912 25.4259 35.2912 25.5396C35.2912 25.6532 35.2681 25.7657 35.2233 25.8702C35.1784 25.9746 35.1128 26.0689 35.0304 26.1472C34.88 26.2924 34.6791 26.3737 34.4699 26.3737C34.2608 26.3737 34.0599 26.2924 33.9095 26.1472L27.7813 20.5427C27.6239 20.3839 27.5289 20.1738 27.5135 19.9507C27.4981 19.7276 27.5634 19.5065 27.6975 19.3275C27.7663 19.246 27.8521 19.1804 27.9489 19.1354C28.0457 19.0904 28.1512 19.0671 28.2579 19.0671C28.3647 19.0671 28.4701 19.0904 28.5669 19.1354C28.6637 19.1804 28.7495 19.246 28.8184 19.3275L35.0304 24.932Z" fill="#17262F"></path><path d="M35.0304 34.1714C35.112 34.2402 35.1775 34.3261 35.2225 34.4229C35.2675 34.5197 35.2908 34.6251 35.2908 34.7318C35.2908 34.8386 35.2675 34.944 35.2225 35.0408C35.1775 35.1376 35.112 35.2235 35.0304 35.2923C34.8912 35.4493 34.6962 35.5459 34.4869 35.5616C34.2777 35.5772 34.0705 35.5107 33.9095 35.3761L27.7813 29.6878C27.6201 29.5489 27.5208 29.3517 27.5051 29.1395C27.4893 28.9274 27.5586 28.7176 27.6975 28.5565C27.8364 28.3953 28.0336 28.296 28.2458 28.2803C28.458 28.2646 28.6677 28.3338 28.8288 28.4727L35.0304 34.1714Z" fill="#17262F"></path><path d="M35.0304 43.3166C35.1639 43.4709 35.2357 43.669 35.2321 43.873C35.2284 44.0771 35.1495 44.2725 35.0105 44.4219C34.8715 44.5713 34.6822 44.6641 34.479 44.6824C34.2758 44.7007 34.073 44.6434 33.9095 44.5213L27.7813 38.833C27.6242 38.6938 27.5276 38.4989 27.512 38.2896C27.4963 38.0803 27.5629 37.8732 27.6975 37.7121C27.838 37.5581 28.0316 37.4628 28.2394 37.4453C28.4473 37.4278 28.654 37.4894 28.8183 37.6179L35.0304 43.3166Z" fill="#17262F"></path><path d="M35.0304 52.5456C35.1566 52.6983 35.2214 52.8926 35.212 53.0905C35.2027 53.2884 35.1198 53.4757 34.9797 53.6159C34.8396 53.756 34.6523 53.8388 34.4544 53.8481C34.2565 53.8575 34.0622 53.7927 33.9095 53.6665L27.7813 48.0621C27.6227 47.9061 27.5266 47.6975 27.5112 47.4756C27.4958 47.2537 27.562 47.0338 27.6975 46.8574C27.8479 46.7121 28.0488 46.6309 28.2579 46.6309C28.467 46.6309 28.668 46.7121 28.8183 46.8574L35.0304 52.5456Z" fill="#17262F"></path><path d="M35.0304 61.6909C35.112 61.7597 35.1775 61.8456 35.2225 61.9424C35.2675 62.0392 35.2908 62.1446 35.2908 62.2514C35.2908 62.3581 35.2675 62.4636 35.2225 62.5604C35.1775 62.6572 35.112 62.743 35.0304 62.8118C34.8912 62.9681 34.6973 63.065 34.4887 63.0825C34.2802 63.1001 34.0728 63.0369 33.9095 62.9061L27.7813 57.2074C27.6242 57.0681 27.5276 56.8732 27.512 56.6639C27.4963 56.4546 27.5629 56.2475 27.6975 56.0865C27.8367 55.9294 28.0316 55.8328 28.2409 55.8172C28.4502 55.8015 28.6573 55.8681 28.8183 56.0027L35.0304 61.6909Z" fill="#17262F"></path><path d="M28.2841 19.0655H38.2883C38.4045 19.0578 38.5209 19.075 38.6299 19.116C38.7389 19.1569 38.8379 19.2207 38.9202 19.303C39.0026 19.3854 39.0664 19.4843 39.1073 19.5933C39.1483 19.7023 39.1655 19.8188 39.1578 19.935L41.2529 93.5365C41.3472 96.5535 39.3568 98.5438 36.7693 99.4028C35.6645 99.8164 34.4919 100.019 33.3124 99.9999C32.1636 100.018 31.022 99.8154 29.9497 99.4028C27.3622 98.5438 25.3824 96.5535 25.4662 93.5365L27.5613 19.8512C27.5555 19.6518 27.6279 19.4581 27.7629 19.3113C27.8979 19.1646 28.085 19.0764 28.2841 19.0655ZM37.5131 20.7102H29.0802L26.9851 93.6203C27.0136 94.6178 27.3666 95.5787 27.9904 96.3575C28.6142 97.1364 29.4749 97.6906 30.4421 97.9362C31.3633 98.2129 32.3191 98.3575 33.281 98.3657C34.2738 98.3582 35.2608 98.2137 36.2141 97.9362C38.2045 97.2449 39.6711 95.7783 39.5873 93.6203L37.5131 20.7102Z" fill="#17262F"></path><path d="M33.8257 68.2591C33.9723 68.4255 34.0531 68.6397 34.0531 68.8614C34.0531 69.0832 33.9723 69.2973 33.8257 69.4638C33.6753 69.6091 33.4744 69.6903 33.2652 69.6903C33.0561 69.6903 32.8552 69.6091 32.7048 69.4638L26.5766 63.765C26.4279 63.6261 26.3406 63.4339 26.3337 63.2305C26.3268 63.0272 26.401 62.8295 26.5399 62.6808C26.6788 62.5322 26.8711 62.4448 27.0744 62.4379C27.2778 62.4311 27.4755 62.5052 27.6241 62.6442L33.8257 68.2591Z" fill="#17262F"></path><path d="M33.8257 77.5194C33.9592 77.6736 34.031 77.8718 34.0274 78.0758C34.0237 78.2798 33.9448 78.4753 33.8058 78.6247C33.6668 78.7741 33.4775 78.8668 33.2743 78.8852C33.0711 78.9035 32.8683 78.8461 32.7048 78.7241L26.5766 73.0253C26.4168 72.8864 26.3188 72.6897 26.3041 72.4785C26.2893 72.2673 26.3591 72.059 26.498 71.8992C26.6369 71.7395 26.8336 71.6414 27.0448 71.6267C27.256 71.612 27.4644 71.6817 27.6241 71.8206L33.8257 77.5194Z" fill="#17262F"></path><path d="M33.8257 86.6333C33.9592 86.7876 34.0311 86.9857 34.0274 87.1897C34.0237 87.3938 33.9448 87.5892 33.8058 87.7386C33.6668 87.888 33.4776 87.9807 33.2743 87.9991C33.0711 88.0174 32.8683 87.96 32.7048 87.838L26.5766 82.1497C26.4893 82.0862 26.4169 82.0044 26.3645 81.9101C26.312 81.8157 26.2807 81.7111 26.2727 81.6034C26.2647 81.4958 26.2803 81.3877 26.3183 81.2867C26.3563 81.1856 26.4158 81.0941 26.4928 81.0184C26.632 80.8613 26.8269 80.7647 27.0362 80.7491C27.2455 80.7334 27.4526 80.8 27.6137 80.9346L33.8257 86.6333Z" fill="#17262F"></path><path d="M51.079 3.88647C51.3078 3.88646 51.5274 3.97662 51.6901 4.13742C51.8529 4.29822 51.9457 4.51669 51.9485 4.74547C51.9461 4.85472 51.9212 4.9623 51.8754 5.06151C51.8296 5.16073 51.7639 5.24946 51.6823 5.32218C51.6008 5.3949 51.5051 5.45005 51.4013 5.4842C51.2975 5.51834 51.1878 5.53076 51.079 5.52067H20.3646C20.1499 5.52412 19.9418 5.44605 19.7824 5.30219C19.623 5.15834 19.5241 4.95939 19.5056 4.74547C19.5203 4.5225 19.6155 4.31248 19.7735 4.15447C19.9316 3.99646 20.1416 3.90122 20.3646 3.88647H51.079Z" fill="#17262F"></path><path d="M43.7461 8.45386C43.9609 8.47488 44.1599 8.57601 44.3036 8.73712C44.4472 8.89823 44.5249 9.10752 44.5213 9.32333C44.5213 9.42513 44.5012 9.52593 44.4623 9.61999C44.4233 9.71404 44.3662 9.79949 44.2942 9.87148C44.2222 9.94346 44.1368 10.0006 44.0427 10.0395C43.9487 10.0785 43.8479 10.0985 43.7461 10.0985H20.3646C20.1499 10.102 19.9418 10.0239 19.7824 9.88005C19.623 9.73619 19.5241 9.53725 19.5056 9.32333C19.52 9.09926 19.6149 8.88793 19.7727 8.7282C19.9305 8.56847 20.1407 8.47105 20.3646 8.45386H43.7461Z" fill="#17262F"></path></g><defs><clipPath id="clip0_5678_16890"><rect width="56.9453" height="100" fill="white"></rect></clipPath></defs></svg>