<svg xmlns="http://www.w3.org/2000/svg" width="90" height="90" viewBox="0 0 90 90" fill="none"><g clip-path="url(#clip0_5678_32981)"><path d="M45 90C36.0998 90 27.3995 87.3608 19.9993 82.4161C12.5991 77.4715 6.83135 70.4434 3.42541 62.2207C0.0194674 53.9981 -0.871683 44.9501 0.864652 36.2209C2.60099 27.4918 6.88682 19.4735 13.1802 13.1802C19.4735 6.88682 27.4918 2.60099 36.2209 0.864652C44.9501 -0.871683 53.9981 0.0194674 62.2207 3.42541C70.4434 6.83135 77.4715 12.5991 82.4161 19.9993C87.3608 27.3995 90 36.0998 90 45C89.9846 56.93 85.2387 68.367 76.8028 76.8028C68.367 85.2387 56.93 89.9846 45 90ZM45 3.70168C36.832 3.70168 28.8474 6.12379 22.0559 10.6617C15.2644 15.1996 9.9711 21.6495 6.84533 29.1958C3.71956 36.7421 2.90171 45.0458 4.49522 53.0569C6.08872 61.068 10.022 68.4266 15.7977 74.2023C21.5733 79.978 28.932 83.9113 36.9431 85.5048C44.9542 87.0983 53.2579 86.2804 60.8042 83.1546C68.3504 80.0289 74.8004 74.7356 79.3383 67.9441C83.8762 61.1526 86.2983 53.168 86.2983 45C86.2873 34.0504 81.9328 23.5523 74.1902 15.8098C66.4476 8.06722 55.9496 3.71264 45 3.70168Z" fill="#17262F"></path><path d="M44.7184 17.3905C44.4748 17.3905 44.2336 17.3425 44.0086 17.2493C43.7835 17.1561 43.579 17.0194 43.4068 16.8472C43.2345 16.6749 43.0979 16.4705 43.0047 16.2454C42.9114 16.0203 42.8635 15.7791 42.8635 15.5355V8.37229C42.8465 8.11882 42.8818 7.86457 42.9671 7.6253C43.0524 7.38603 43.186 7.16683 43.3595 6.9813C43.5331 6.79577 43.7429 6.64786 43.9759 6.54673C44.2089 6.44561 44.4603 6.39343 44.7143 6.39343C44.9683 6.39343 45.2197 6.44561 45.4527 6.54673C45.6857 6.64786 45.8955 6.79577 46.0691 6.9813C46.2426 7.16683 46.3762 7.38603 46.4615 7.6253C46.5468 7.86457 46.5821 8.11882 46.5651 8.37229V15.5686C46.5586 16.0541 46.3612 16.5175 46.0156 16.8584C45.6699 17.1994 45.2039 17.3906 44.7184 17.3905Z" fill="#17262F"></path><path d="M81.8679 47.12H74.2575C74.004 47.137 73.7497 47.1017 73.5105 47.0163C73.2712 46.931 73.052 46.7974 72.8665 46.6239C72.6809 46.4504 72.533 46.2406 72.4319 46.0075C72.3308 45.7745 72.2786 45.5232 72.2786 45.2691C72.2786 45.0151 72.3308 44.7638 72.4319 44.5307C72.533 44.2977 72.6809 44.0879 72.8665 43.9144C73.052 43.7408 73.2712 43.6073 73.5105 43.5219C73.7497 43.4366 74.004 43.4013 74.2575 43.4183H81.8679C82.3373 43.4497 82.7773 43.6584 83.0988 44.002C83.4202 44.3457 83.599 44.7986 83.599 45.2691C83.599 45.7397 83.4202 46.1926 83.0988 46.5363C82.7773 46.8799 82.3373 47.0886 81.8679 47.12Z" fill="#17262F"></path><path d="M15.2126 47.12H7.60214C7.34867 47.137 7.09442 47.1017 6.85514 47.0163C6.61587 46.931 6.39667 46.7974 6.21114 46.6239C6.02561 46.4504 5.8777 46.2406 5.77658 46.0075C5.67545 45.7745 5.62328 45.5232 5.62328 45.2691C5.62328 45.0151 5.67545 44.7638 5.77658 44.5307C5.8777 44.2977 6.02561 44.0879 6.21114 43.9144C6.39667 43.7408 6.61587 43.6073 6.85514 43.5219C7.09442 43.4366 7.34867 43.4013 7.60214 43.4183H15.2126C15.466 43.4013 15.7203 43.4366 15.9595 43.5219C16.1988 43.6073 16.418 43.7408 16.6035 43.9144C16.7891 44.0879 16.937 44.2977 17.0381 44.5307C17.1392 44.7638 17.1914 45.0151 17.1914 45.2691C17.1914 45.5232 17.1392 45.7745 17.0381 46.0075C16.937 46.2406 16.7891 46.4504 16.6035 46.6239C16.418 46.7974 16.1988 46.931 15.9595 47.0163C15.7203 47.1017 15.466 47.137 15.2126 47.12Z" fill="#17262F"></path><path d="M44.7184 17.3905C44.4748 17.3905 44.2336 17.3425 44.0086 17.2493C43.7835 17.1561 43.579 17.0194 43.4068 16.8472C43.2345 16.6749 43.0979 16.4705 43.0047 16.2454C42.9114 16.0203 42.8635 15.7791 42.8635 15.5355V8.37229C42.8465 8.11882 42.8818 7.86457 42.9671 7.6253C43.0524 7.38603 43.186 7.16683 43.3595 6.9813C43.5331 6.79577 43.7429 6.64786 43.9759 6.54673C44.2089 6.44561 44.4603 6.39343 44.7143 6.39343C44.9683 6.39343 45.2197 6.44561 45.4527 6.54673C45.6857 6.64786 45.8955 6.79577 46.0691 6.9813C46.2426 7.16683 46.3762 7.38603 46.4615 7.6253C46.5468 7.86457 46.5821 8.11882 46.5651 8.37229V15.5686C46.5586 16.0541 46.3612 16.5175 46.0156 16.8584C45.6699 17.1994 45.2039 17.3906 44.7184 17.3905Z" fill="#17262F"></path><path d="M33.4891 19.9163C33.1476 19.9179 32.8122 19.8252 32.5199 19.6484C32.2277 19.4716 31.99 19.2176 31.8329 18.9143L28.4542 12.3473C28.2291 11.908 28.1876 11.3973 28.3391 10.9275C28.4905 10.4577 28.8223 10.0673 29.2616 9.8422C29.7009 9.61708 30.2116 9.57568 30.6813 9.7271C31.1511 9.87852 31.5415 10.2104 31.7667 10.6496L35.1454 17.2166C35.2902 17.4998 35.3598 17.8154 35.3475 18.1332C35.3351 18.451 35.2413 18.7602 35.075 19.0313C34.9087 19.3024 34.6755 19.5262 34.3978 19.6811C34.1201 19.8361 33.8072 19.9171 33.4891 19.9163Z" fill="#17262F"></path><path d="M56.2127 19.9163C55.9241 19.9148 55.64 19.8438 55.3846 19.7092C54.946 19.489 54.6125 19.1038 54.4573 18.6381C54.3021 18.1725 54.3377 17.6643 54.5565 17.2249L57.9683 10.6496C58.0798 10.4321 58.233 10.2387 58.4192 10.0804C58.6055 9.92213 58.821 9.80207 59.0536 9.7271C59.2863 9.65212 59.5314 9.6237 59.775 9.64345C60.0186 9.6632 60.2559 9.73073 60.4734 9.8422C60.6909 9.95367 60.8843 10.1069 61.0426 10.2931C61.2009 10.4793 61.321 10.6949 61.3959 10.9275C61.4709 11.1601 61.4993 11.4052 61.4796 11.6488C61.4598 11.8924 61.3923 12.1298 61.2808 12.3473L57.9021 18.9142C57.7425 19.2226 57.4996 19.4801 57.2009 19.6572C56.9023 19.8344 56.5599 19.9241 56.2127 19.9163Z" fill="#17262F"></path><path d="M71.4998 35.7499C71.0625 35.7558 70.6374 35.6064 70.2999 35.3282C69.9625 35.05 69.7348 34.6611 69.6573 34.2308C69.5797 33.8004 69.6574 33.3565 69.8766 32.978C70.0957 32.5996 70.442 32.3112 70.8539 32.1642L78.0916 29.4728C78.3231 29.3694 78.5733 29.3146 78.8268 29.3118C79.0803 29.3089 79.3317 29.358 79.5655 29.4561C79.7993 29.5542 80.0104 29.6991 80.186 29.882C80.3616 30.0649 80.4978 30.2818 80.5862 30.5194C80.6747 30.757 80.7135 31.0102 80.7003 31.2633C80.6871 31.5165 80.6221 31.7643 80.5094 31.9913C80.3967 32.2184 80.2386 32.42 80.045 32.5836C79.8513 32.7472 79.6262 32.8694 79.3835 32.9426L72.1457 35.6091C71.9399 35.6921 71.7215 35.7397 71.4998 35.7499Z" fill="#17262F"></path><path d="M17.9702 35.7499C17.7498 35.7484 17.5314 35.7092 17.3242 35.634L10.0865 32.9426C9.62636 32.7724 9.25269 32.4263 9.0477 31.9806C8.8427 31.5349 8.82315 31.026 8.99337 30.5659C9.16358 30.1057 9.50961 29.7321 9.95533 29.5271C10.401 29.3221 10.9099 29.3025 11.3701 29.4728L18.6078 32.1641C19.0189 32.311 19.3648 32.5987 19.5839 32.9762C19.803 33.3538 19.8813 33.7968 19.8049 34.2266C19.7285 34.6564 19.5023 35.0452 19.1664 35.3241C18.8305 35.6029 18.4067 35.7538 17.9702 35.7499Z" fill="#17262F"></path><path d="M15.2126 47.12H7.60214C7.34867 47.137 7.09442 47.1017 6.85514 47.0163C6.61587 46.931 6.39667 46.7974 6.21114 46.6239C6.02561 46.4504 5.8777 46.2406 5.77658 46.0075C5.67545 45.7745 5.62328 45.5232 5.62328 45.2691C5.62328 45.0151 5.67545 44.7638 5.77658 44.5307C5.8777 44.2977 6.02561 44.0879 6.21114 43.9144C6.39667 43.7408 6.61587 43.6073 6.85514 43.5219C7.09442 43.4366 7.34867 43.4013 7.60214 43.4183H15.2126C15.466 43.4013 15.7203 43.4366 15.9595 43.5219C16.1988 43.6073 16.418 43.7408 16.6035 43.9144C16.7891 44.0879 16.937 44.2977 17.0381 44.5307C17.1392 44.7638 17.1914 45.0151 17.1914 45.2691C17.1914 45.5232 17.1392 45.7745 17.0381 46.0075C16.937 46.2406 16.7891 46.4504 16.6035 46.6239C16.418 46.7974 16.1988 46.931 15.9595 47.0163C15.7203 47.1017 15.466 47.137 15.2126 47.12Z" fill="#17262F"></path><path d="M23.8581 26.2431C23.3636 26.233 22.8932 26.0276 22.5497 25.6717L17.1669 20.2889C16.8199 19.9419 16.6249 19.4712 16.6249 18.9805C16.6249 18.4897 16.8199 18.0191 17.1669 17.6721C17.5139 17.325 17.9846 17.1301 18.4753 17.1301C18.9661 17.1301 19.4367 17.325 19.7838 17.6721L25.1665 23.0548C25.4259 23.3131 25.6026 23.6426 25.6743 24.0016C25.746 24.3605 25.7094 24.7326 25.5692 25.0707C25.429 25.4088 25.1915 25.6976 24.8868 25.9004C24.5822 26.1033 24.2241 26.211 23.8581 26.21V26.2431Z" fill="#17262F"></path><path d="M65.6036 26.2431C65.2376 26.2441 64.8795 26.1364 64.5749 25.9335C64.2702 25.7307 64.0327 25.4419 63.8925 25.1038C63.7523 24.7657 63.7157 24.3936 63.7874 24.0347C63.8591 23.6758 64.0358 23.3462 64.2952 23.088L69.6779 17.7052C69.8498 17.5334 70.0538 17.3971 70.2783 17.3041C70.5028 17.2111 70.7434 17.1632 70.9864 17.1632C71.2294 17.1632 71.47 17.2111 71.6945 17.3041C71.919 17.3971 72.123 17.5334 72.2948 17.7052C72.4666 17.877 72.6029 18.081 72.6959 18.3055C72.7889 18.53 72.8368 18.7706 72.8368 19.0136C72.8368 19.2566 72.7889 19.4972 72.6959 19.7217C72.6029 19.9462 72.4666 20.1502 72.2948 20.322L66.9203 25.6717C66.7492 25.8489 66.5449 25.9906 66.3189 26.0886C66.093 26.1867 65.8499 26.2392 65.6036 26.2431Z" fill="#17262F"></path><path d="M69.562 64.8997C67.4872 61.5097 64.7165 58.5986 61.4332 56.3588C58.1499 54.119 54.4286 52.6015 50.5153 51.9065C51.6746 48.8176 53.9106 42.8552 54.6559 40.8842L54.8546 40.3377C55.8649 37.6297 57.1154 34.2676 54.2915 32.4788C54.2309 32.4381 54.1672 32.4021 54.101 32.3712C51.3434 31.0545 48.7597 33.7873 47.2028 36.8182L40.2135 51.5256C36.1062 51.9374 32.1397 53.2472 28.5949 55.3623C25.0502 57.4775 22.0138 60.3461 19.701 63.7652C19.5767 63.9739 19.4948 64.2051 19.46 64.4455C19.4252 64.6859 19.4381 64.9308 19.4981 65.1662C19.5581 65.4016 19.664 65.6229 19.8096 65.8173C19.9553 66.0117 20.1378 66.1755 20.3469 66.2992C20.6304 66.4746 20.9576 66.5664 21.2909 66.5642C21.6123 66.5639 21.928 66.4796 22.2069 66.3199C22.4857 66.1601 22.7181 65.9303 22.8809 65.6533C24.9765 62.6589 27.707 60.1639 30.8776 58.3459C34.0483 56.528 37.5809 55.432 41.2238 55.1362C41.2817 55.1402 41.3398 55.1402 41.3977 55.1362C41.5984 55.134 41.7972 55.0976 41.9856 55.0285C42.8966 54.9623 43.8406 54.9374 44.8261 54.9623C59.9724 55.3018 66.0259 66.1336 66.2744 66.5559C66.506 66.9832 66.8967 67.3019 67.3618 67.443C67.8269 67.584 68.3288 67.5361 68.7587 67.3095C69.177 67.0884 69.4939 66.7145 69.6435 66.2657C69.7931 65.8168 69.7639 65.3276 69.562 64.8997ZM50.5153 38.4496C50.9715 37.5502 51.5667 36.7286 52.2792 36.0149C52.0602 37.0516 51.747 38.0661 51.3434 39.0458L51.1364 39.6007C50.3082 41.7538 47.7411 48.71 46.7225 51.4014C46.1511 51.3434 45.5466 51.3434 44.9089 51.3434H44.4203L50.5153 38.4496Z" fill="#17262F"></path></g><defs><clipPath id="clip0_5678_32981"><rect width="90" height="90" fill="white"></rect></clipPath></defs></svg>