<svg xmlns="http://www.w3.org/2000/svg" width="95" height="110" viewBox="0 0 95 110" fill="none"><g clip-path="url(#clip0_5678_18281)"><path d="M52.1836 57.402L50.1884 8.13448C50.1267 6.67286 49.6942 5.25095 48.9317 4.00247C48.1692 2.75398 47.1017 1.71995 45.8295 0.9976L44.7245 0.368327C44.2502 0.0895872 43.7022 -0.0377242 43.1536 0.00341676C42.6051 0.0445577 42.0822 0.25219 41.6548 0.598549L37.296 3.0696L39.1991 55.2532L47.395 59.8577L47.5792 65.4444L47.7327 65.3523C49.1345 64.5652 50.2918 63.4064 51.0772 62.0036C51.8625 60.6008 52.2454 59.0084 52.1836 57.402Z" fill="#EEA12C"></path><path d="M47.5792 65.4443L45.4304 10.8817C45.3714 9.4193 44.9419 7.99581 44.1822 6.74479C43.4224 5.49378 42.3574 4.45625 41.0869 3.72952L39.9051 3.06955C39.4949 2.83601 39.0311 2.71276 38.5591 2.7118C38.087 2.71084 37.6228 2.83221 37.2116 3.06408C36.8004 3.29595 36.4563 3.6304 36.2129 4.03483C35.9695 4.43927 35.835 4.89988 35.8225 5.37177L34.3951 57.9237L47.5792 65.4443Z" fill="#CC6500"></path><path d="M36.3137 110L0 89.0191V82.6343L36.3137 103.615V110Z" fill="#3C3E40"></path><path d="M36.3137 110L72.6273 89.0191V82.6343L36.3137 103.615V110Z" fill="#555A5C"></path><path d="M0 82.6496L36.3137 103.615L72.6273 82.6343L36.3137 61.6841L0 82.6496Z" fill="#858B8C"></path><path d="M59.8577 79.8103L58.3229 77.9224C55.0691 72.8115 46.4281 69.1433 36.2523 69.1433C26.0765 69.1433 17.4969 72.8115 14.243 77.9224L12.8617 79.8103V82.1125C12.8542 82.2095 12.8542 82.307 12.8617 82.4041C12.8617 89.7251 23.3752 95.6649 36.329 95.6649C49.2828 95.6649 59.8577 89.7251 59.8577 82.4041C59.8577 82.312 59.8577 82.2046 59.8577 82.1125V79.8103Z" fill="#3C3E40"></path><path d="M36.3137 93.7003C49.2743 93.7003 59.7809 87.7632 59.7809 80.4395C59.7809 73.1158 49.2743 67.1787 36.3137 67.1787C23.353 67.1787 12.8464 73.1158 12.8464 80.4395C12.8464 87.7632 23.353 93.7003 36.3137 93.7003Z" fill="#939899"></path><path d="M37.9713 97.66V99.1948C37.9713 99.7013 37.4494 100.162 36.6667 100.361H36.4211H36.3137H36.1448H35.93H35.3774H35.1626H34.9937H34.8863H34.6407H34.5026L34.2724 100.269L34.0882 100.177H34.0115C33.9339 100.135 33.8617 100.083 33.7966 100.024L33.5664 99.7627L33.4896 99.6553V99.5632C33.483 99.5329 33.483 99.5014 33.4896 99.4711C33.4822 99.4099 33.4822 99.3481 33.4896 99.2869V97.7521C33.4896 97.307 33.8733 96.9233 34.4719 96.6778H34.6868H34.7942C35.457 96.494 36.1573 96.494 36.8202 96.6778C37.4494 96.6931 37.9713 97.1382 37.9713 97.66Z" fill="#594D4D"></path><path d="M36.6667 96.4783V100.331C37.4494 100.131 37.9713 99.6707 37.9713 99.1642V97.6294C37.9713 97.1382 37.4494 96.6931 36.6667 96.4783Z" fill="#6B5C5C"></path><path d="M35.3007 96.3862C35.0786 96.3997 34.858 96.4305 34.6407 96.4783H34.5333H34.3184C33.7198 96.7239 33.3361 97.1076 33.3361 97.5527V99.0875C33.3287 99.1487 33.3287 99.2105 33.3361 99.2717C33.3295 99.302 33.3295 99.3334 33.3361 99.3638V99.4559L33.4129 99.5633L33.5203 99.6707C33.5854 99.7304 33.6576 99.782 33.7352 99.8242H33.8119L33.9961 99.9163L34.2263 100.008H34.3644H34.61H34.7174H35.3007V96.3862Z" fill="#473D3D"></path><path d="M34.0421 96.6931C33.6277 96.9387 33.3361 97.2303 33.3361 97.5987V99.1335C33.3287 99.1946 33.3287 99.2565 33.3361 99.3176C33.3295 99.348 33.3295 99.3794 33.3361 99.4097V99.5018L33.4129 99.6093L33.5203 99.7167C33.5854 99.7764 33.6576 99.8279 33.7352 99.8702H33.8119L34.0421 96.6931Z" fill="#383030"></path><path d="M37.9713 97.6601C37.9713 98.1666 37.4494 98.6117 36.6667 98.8265C36.004 99.0111 35.3034 99.0111 34.6407 98.8265C33.8733 98.6117 33.3361 98.1666 33.3361 97.6601C33.3361 97.1536 33.7198 96.8313 34.3184 96.5857H34.5333H34.6407C35.3035 96.4019 36.0039 96.4019 36.6667 96.5857C37.4494 96.6932 37.9713 97.1383 37.9713 97.6601Z" fill="#847271"></path><path d="M37.0811 96.8159V97.5833C37.0811 97.8903 36.7587 98.1665 36.2829 98.3047H36.1295H35.1779H35.0244H34.9477H34.7942H34.6867L34.564 98.2126H34.4872V98.1358C34.4798 98.1004 34.4798 98.0638 34.4872 98.0284V97.261C34.4872 96.9847 34.7328 96.7545 35.0858 96.601H35.2239C35.433 96.5766 35.6442 96.5766 35.8532 96.601C36.0622 96.5756 36.2735 96.5756 36.4825 96.601C36.8355 96.2327 37.0811 96.4936 37.0811 96.8159Z" fill="#C2C2C2"></path><path d="M36.283 96.0946V98.3047C36.7588 98.1666 37.0811 97.8903 37.0811 97.5834V96.816C37.0811 96.4937 36.8355 96.2327 36.283 96.0946Z" fill="#D4D4D4"></path><path d="M35.4388 96.0485C35.3011 96.0327 35.1621 96.0327 35.0244 96.0485H34.8863C34.5333 96.202 34.2877 96.4322 34.2877 96.7085V97.4759C34.2802 97.5113 34.2802 97.5479 34.2877 97.5833V97.6601H34.3644L34.4872 97.7521H34.5947H34.7481H34.8249H34.9784H35.2393L35.4388 96.0485Z" fill="#B0B0B0"></path><path d="M34.6714 96.2634C34.4105 96.4169 34.2263 96.6011 34.2263 96.816V97.5834C34.2188 97.6188 34.2188 97.6554 34.2263 97.6908V97.7675H34.303L34.4258 97.8596L34.6714 96.2634Z" fill="#A1A1A1"></path><path d="M37.0811 96.816C37.0811 97.1383 36.7588 97.4145 36.283 97.5373C36.0794 97.6012 35.867 97.6323 35.6537 97.6294C35.4404 97.6313 35.2282 97.6002 35.0244 97.5373C34.5486 97.4145 34.2263 97.1383 34.2263 96.816C34.2263 96.4937 34.4719 96.3095 34.8249 96.156H34.963C35.1721 96.1316 35.3833 96.1316 35.5923 96.156C35.8013 96.1306 36.0126 96.1306 36.2216 96.156C36.8355 96.2327 37.0811 96.4937 37.0811 96.816Z" fill="#EDEDED"></path><path d="M67.4243 80.5623V82.0971C67.4243 82.619 66.9024 83.0641 66.135 83.2789H65.8741H64.3393H64.0784H63.9403L63.71 83.2022H63.6333L63.4491 83.1101C63.3725 83.0664 63.3005 83.0149 63.2342 82.9566L63.1268 82.8338C63.0929 82.8048 63.0666 82.7679 63.0501 82.7264V82.6343C63.0427 82.568 63.0427 82.5011 63.0501 82.4348V80.9C63.0501 80.4549 63.4338 80.0712 64.0323 79.841H64.2472H64.3547C64.6838 79.7458 65.025 79.6993 65.3676 79.7028C65.7153 79.6993 66.0616 79.7458 66.396 79.841C66.9024 79.5954 67.4243 80.0558 67.4243 80.5623Z" fill="#594D4D"></path><path d="M66.1351 79.3958V83.2635C66.9025 83.0486 67.4243 82.6035 67.4243 82.0817V80.5469C67.4243 80.0557 66.9025 79.5953 66.1351 79.3958Z" fill="#6B5C5C"></path><path d="M64.7538 79.3037C64.531 79.3096 64.3096 79.3405 64.0938 79.3958H63.9864H63.7715C63.1729 79.626 62.7892 80.0097 62.7892 80.4548V81.9896C62.7819 82.0559 62.7819 82.1229 62.7892 82.1892C62.7892 82.1892 62.7892 82.1892 62.7892 82.2813C62.8057 82.3227 62.8321 82.3596 62.8659 82.3887L62.9734 82.5115C63.0396 82.5698 63.1116 82.6212 63.1883 82.665L63.3724 82.757H63.4492L63.6794 82.8338H63.8175H64.0784H64.4775L64.7538 79.3037Z" fill="#473D3D"></path><path d="M63.5106 79.6721C63.0962 79.9023 62.7892 80.2093 62.7892 80.5623V82.0971C62.7819 82.1634 62.7819 82.2303 62.7892 82.2966C62.7892 82.2966 62.7892 82.2966 62.7892 82.3887C62.8057 82.4302 62.8321 82.4671 62.8659 82.4962L62.9734 82.619C63.0396 82.6773 63.1116 82.7287 63.1883 82.7724L63.5106 79.6721Z" fill="#383030"></path><path d="M67.4243 80.5622C67.4243 81.0841 66.9025 81.5291 66.1351 81.744C65.7985 81.8262 65.4532 81.8675 65.1067 81.8668C64.7653 81.8676 64.4251 81.8264 64.0938 81.744C63.3264 81.5291 62.7892 81.0841 62.7892 80.5622C62.7892 80.0404 63.1729 79.7334 63.7715 79.5032H63.9863H64.0938C64.4229 79.408 64.7642 79.3615 65.1067 79.3651C65.4544 79.3615 65.8007 79.408 66.1351 79.5032C66.9025 79.5953 67.4243 80.0557 67.4243 80.5622Z" fill="#847271"></path><path d="M66.5341 79.8102V80.5623C66.5341 80.8846 66.2118 81.1609 65.736 81.2836H65.5825H64.6463H64.4775H64.3393H64.2319C64.1843 81.2563 64.1425 81.2198 64.1091 81.1762C64.1091 81.1762 64.1091 81.0995 64.1091 81.0534V79.8102C64.1091 79.534 64.3547 79.2884 64.7231 79.1503H64.8458C65.0499 79.0885 65.2619 79.0575 65.4751 79.0582C65.6884 79.0553 65.9008 79.0864 66.1044 79.1503C66.2118 79.1349 66.5341 79.4112 66.5341 79.8102Z" fill="#C2C2C2"></path><path d="M65.736 79.0121V81.2376C66.2118 81.1148 66.5341 80.8385 66.5341 80.5162V79.8102C66.5341 79.4111 66.2118 79.1349 65.736 79.0121Z" fill="#D4D4D4"></path><path d="M64.8918 78.9507C64.7542 78.9347 64.6151 78.9347 64.4774 78.9507H64.3546C63.9863 79.0888 63.7407 79.3344 63.7407 79.6107V80.3627C63.7407 80.3627 63.7407 80.4395 63.7407 80.4855C63.7765 80.5329 63.8242 80.5699 63.8789 80.593H63.9863H64.1244H64.2933H64.5388L64.8918 78.9507Z" fill="#B0B0B0"></path><path d="M64.1245 79.1809C63.8636 79.319 63.6794 79.5032 63.6794 79.7334V80.4855C63.6794 80.4855 63.6794 80.5622 63.6794 80.6083C63.7152 80.6556 63.7628 80.6927 63.8175 80.7157L64.1245 79.1809Z" fill="#A1A1A1"></path><path d="M66.5341 79.8102C66.5341 80.1172 66.2118 80.3935 65.736 80.5316C65.527 80.557 65.3157 80.557 65.1068 80.5316C64.8976 80.555 64.6866 80.555 64.4775 80.5316C64.017 80.3935 63.6794 80.1172 63.6794 79.8102C63.6794 79.5033 63.9249 79.2884 64.2933 79.1503H64.4161C64.6201 79.0885 64.8322 79.0575 65.0454 79.0582C65.2587 79.0553 65.4711 79.0864 65.6746 79.1503C66.2118 79.1349 66.5341 79.4112 66.5341 79.8102Z" fill="#EDEDED"></path><path d="M9.3163 81.1456V82.6804C9.3163 83.2022 8.79447 83.6473 8.01171 83.8622H7.76614H6.23133H5.98576H5.84763H5.61741H5.54066H5.35649H5.27975L5.06487 83.6933L4.95744 83.5706C4.92355 83.5415 4.89722 83.5046 4.8807 83.4631V83.371C4.87335 83.3047 4.87335 83.2378 4.8807 83.1715V81.6367C4.8807 81.1916 5.2644 80.8079 5.86297 80.5777H6.07785H6.18529C6.85066 80.4138 7.54586 80.4138 8.21124 80.5777C8.79447 80.1786 9.3163 80.6237 9.3163 81.1456Z" fill="#594D4D"></path><path d="M8.01172 79.9637V83.8161C8.79447 83.6013 9.31631 83.1562 9.31631 82.6343V81.0995C9.31631 80.6237 8.79447 80.1786 8.01172 79.9637Z" fill="#6B5C5C"></path><path d="M6.64573 79.887C6.4241 79.8956 6.20346 79.9212 5.98576 79.9637H5.87832H5.66345C5.06487 80.1939 4.68117 80.5776 4.68117 81.0227V82.5575C4.67382 82.6238 4.67382 82.6908 4.68117 82.7571V82.8492C4.69769 82.8906 4.72402 82.9275 4.75791 82.9566L4.86535 83.0794L5.08022 83.2482H5.15696H5.34114H5.41788H5.6481H5.78624H6.03181H6.44621L6.64573 79.887Z" fill="#473D3D"></path><path d="M5.38719 80.2554C4.97279 80.4856 4.68117 80.7926 4.68117 81.1456V82.6804C4.67382 82.7467 4.67382 82.8136 4.68117 82.8799V82.972C4.69769 83.0135 4.72402 83.0503 4.75791 83.0794L4.86535 83.2022L5.08022 83.371H5.15696L5.38719 80.2554Z" fill="#383030"></path><path d="M9.31629 81.1455C9.31629 81.6674 8.79445 82.1125 8.01169 82.3273C7.34632 82.4912 6.65112 82.4912 5.98574 82.3273C5.21834 82.1125 4.68115 81.6674 4.68115 81.1455C4.68115 80.6237 5.06486 80.3167 5.66343 80.0865H5.87831H5.98574C6.65112 79.9227 7.34632 79.9227 8.01169 80.0865C8.79445 80.1786 9.31629 80.6237 9.31629 81.1455Z" fill="#847271"></path><path d="M8.4261 80.3167V81.0687C8.4261 81.391 8.10379 81.6673 7.628 81.7901H7.47452H6.52293H6.36945H6.29271H6.13923H6.03179C5.98208 81.7733 5.93905 81.741 5.90901 81.698C5.90151 81.6574 5.90151 81.6158 5.90901 81.5752V80.8231C5.90901 80.5469 6.15458 80.3013 6.50759 80.1632H6.64572C6.85176 80.1131 7.06296 80.0874 7.27499 80.0864C7.48709 80.0863 7.69841 80.1121 7.90427 80.1632C8.10379 79.7181 8.4261 79.9943 8.4261 80.3167Z" fill="#C2C2C2"></path><path d="M7.67407 79.58V81.8054C8.14986 81.6827 8.47217 81.4064 8.47217 81.0841V80.332C8.42613 79.9944 8.10382 79.7181 7.67407 79.58Z" fill="#D4D4D4"></path><path d="M6.78386 79.534C6.64585 79.5256 6.50747 79.5256 6.36946 79.534L6.13924 79.6568C5.78623 79.7949 5.54066 80.0405 5.54066 80.3167V81.0688C5.53316 81.1094 5.53316 81.151 5.54066 81.1916C5.5707 81.2346 5.61373 81.2669 5.66345 81.2837H5.77088H6.13924H6.29272H6.36946H6.52294H6.78386V79.534Z" fill="#B0B0B0"></path><path d="M6.01646 79.8102C5.75554 79.9483 5.57136 80.1325 5.57136 80.3627V81.1148C5.56386 81.1554 5.56386 81.197 5.57136 81.2376C5.6014 81.2806 5.64443 81.3129 5.69415 81.3296L6.01646 79.8102Z" fill="#A1A1A1"></path><path d="M8.4261 80.3167C8.4261 80.6236 8.10379 80.8999 7.628 81.038C7.42214 81.0891 7.21082 81.1149 6.99873 81.1148C6.78669 81.1138 6.5755 81.0881 6.36945 81.038C5.89366 80.8999 5.57135 80.6236 5.57135 80.3167C5.57135 80.0097 5.81692 79.8102 6.13923 79.6567H6.27736C6.48341 79.6067 6.6946 79.5809 6.90664 79.58C7.11873 79.5799 7.33005 79.6056 7.53591 79.6567C8.10379 79.7181 8.4261 79.9944 8.4261 80.3167Z" fill="#EDEDED"></path><path d="M38.7694 64.063V65.5978C38.7694 66.1043 38.2475 66.5648 37.4801 66.7643H37.2192H37.1118H35.7918H35.6997H35.4388H35.3007L35.0705 66.6722H34.9937L34.8095 66.5801C34.7296 66.5418 34.6569 66.4898 34.5947 66.4266L34.4872 66.3192L34.2877 65.9969C34.2921 65.9664 34.2921 65.9353 34.2877 65.9048C34.2877 65.9048 34.2877 65.9048 34.2877 65.8127C34.2803 65.7515 34.2803 65.6897 34.2877 65.6285V64.0937C34.2877 63.6486 34.6714 63.2496 35.27 63.0194L35.3007 62.9273H35.4081C35.7372 62.8321 36.0785 62.7856 36.4211 62.7891C36.7687 62.7856 37.1151 62.8321 37.4494 62.9273C38.2475 63.0961 38.7694 63.5412 38.7694 64.063Z" fill="#594D4D"></path><path d="M37.4801 62.9272V66.7796C38.2475 66.5801 38.7693 66.1197 38.7693 65.6132V64.0784C38.7693 63.5412 38.2475 63.0961 37.4801 62.9272Z" fill="#6B5C5C"></path><path d="M36.0988 62.7892C35.8767 62.8027 35.6561 62.8335 35.4388 62.8813L35.3007 62.9273H35.0858C34.4872 63.1575 34.1035 63.5566 34.1035 64.0017V65.5365C34.0961 65.5977 34.0961 65.6595 34.1035 65.7207C34.1035 65.7207 34.1035 65.7207 34.1035 65.8128V65.9049L34.1802 66.0123L34.2877 66.1197C34.3499 66.1829 34.4226 66.2348 34.5026 66.2732L34.6867 66.3653H34.7635L34.9937 66.4574H35.1318H35.3927H35.4848H35.7918L36.0988 62.7892Z" fill="#473D3D"></path><path d="M34.8556 63.1575C34.4412 63.403 34.1342 63.6947 34.1342 64.063V65.5978C34.1268 65.659 34.1268 65.7208 34.1342 65.782C34.1342 65.782 34.1342 65.782 34.1342 65.8741V65.9662L34.2109 66.0736L34.3184 66.181C34.3806 66.2442 34.4533 66.2962 34.5333 66.3345L34.8556 63.1575Z" fill="#383030"></path><path d="M38.7694 64.063C38.7694 64.5695 38.2475 65.0146 37.4801 65.2295C37.1457 65.3246 36.7994 65.3712 36.4518 65.3676C36.1092 65.3712 35.7679 65.3247 35.4388 65.2295C34.6714 65.0146 34.1342 64.5695 34.1342 64.063C34.1342 63.5565 34.5179 63.2189 35.1165 62.9887L35.3007 62.9273H35.4081C35.7372 62.8321 36.0785 62.7856 36.4211 62.7891C36.7687 62.7856 37.115 62.8321 37.4494 62.9273C38.2475 63.0961 38.7694 63.5412 38.7694 64.063Z" fill="#847271"></path><path d="M37.8791 63.2189V63.9863C37.8791 64.2932 37.5568 64.5695 37.081 64.7076H36.9276H35.9913H35.8225H35.7458H35.6076H35.5002L35.3007 64.4621V64.3853C35.3007 64.3853 35.3007 64.3853 35.3007 64.2779V63.5105C35.3007 63.2342 35.5462 63.004 35.9146 62.8505H36.0374C36.2465 62.8271 36.4575 62.8271 36.6666 62.8505C36.8756 62.8251 37.0869 62.8251 37.2959 62.8505C37.5568 62.6203 37.8791 62.9272 37.8791 63.2189Z" fill="#C2C2C2"></path><path d="M37.0811 62.4976V64.7077C37.5568 64.5696 37.8792 64.2933 37.8792 63.9863V63.2189C37.8792 62.9273 37.5568 62.6203 37.0811 62.4976Z" fill="#D4D4D4"></path><path d="M36.2369 62.4362H35.8225H35.6997C35.3314 62.5896 35.0858 62.8199 35.0858 63.0961V63.8635C35.0858 63.8635 35.0858 63.9403 35.0858 63.971V64.0477L35.2239 64.1398H35.3314H35.4695H35.5463H35.7151H35.9607L36.2369 62.4362Z" fill="#B0B0B0"></path><path d="M35.4695 62.6664C35.2086 62.8199 35.0244 63.004 35.0244 63.2189V63.9863C35.0244 63.9863 35.0244 64.0631 35.0244 64.0938V64.1705L35.1625 64.2626L35.4695 62.6664Z" fill="#A1A1A1"></path><path d="M37.8792 63.2189C37.8792 63.5412 37.5569 63.8175 37.0811 63.9403C36.8775 64.0042 36.6651 64.0353 36.4518 64.0324C36.2386 64.0331 36.0265 64.002 35.8225 63.9403C35.3621 63.8175 35.0244 63.5412 35.0244 63.2189C35.0244 62.8966 35.27 62.7124 35.6383 62.559H35.7611C35.9702 62.5355 36.1813 62.5355 36.3904 62.559C36.5994 62.5336 36.8107 62.5336 37.0197 62.559C37.5569 62.6203 37.8792 62.9273 37.8792 63.2189Z" fill="#EDEDED"></path><path d="M36.3136 69.2814C46.6429 69.2814 55.0383 73.4561 55.0383 78.5977C55.0383 78.8126 55.0383 79.0121 55.0383 79.2116V81.5599H17.6043V78.5977C17.5889 73.4561 25.969 69.2814 36.3136 69.2814Z" fill="#616161"></path><path d="M55.0537 81.5446C55.0537 85.6886 49.6205 89.2186 42.1306 90.4158C40.2128 90.7295 38.2723 90.8835 36.329 90.8762C34.3758 90.8764 32.4257 90.7225 30.4967 90.4158C23.0068 89.1879 17.6043 85.6886 17.6043 81.5446C17.6043 76.403 25.9844 72.2283 36.329 72.2283C46.6737 72.2283 55.0537 76.403 55.0537 81.5446Z" fill="#2E2E2E"></path><path d="M42.1459 89.894C42.1459 89.894 42.1459 90.0321 42.1459 90.1089C42.1535 90.211 42.1535 90.3136 42.1459 90.4158C40.2281 90.7295 38.2876 90.8835 36.3443 90.8763C34.3912 90.8764 32.441 90.7225 30.5121 90.4158C30.5045 90.3136 30.5045 90.211 30.5121 90.1089V84.2612H42.2227L42.1459 89.894Z" fill="#9E4810"></path><path d="M30.466 84.2612C30.466 82.4347 33.0905 80.9613 36.3136 80.9613C39.5367 80.9613 42.1766 82.4961 42.1766 84.2612C42.1766 86.0262 39.5521 87.561 36.3136 87.561C33.0752 87.561 30.466 86.0876 30.466 84.2612Z" fill="#6B2500"></path><path d="M36.3137 88.2057C47.0573 88.2057 55.7904 83.2789 55.7904 77.2011C55.8063 76.9609 55.8063 76.7199 55.7904 76.4797V73.717H16.8829V77.2011C16.8829 83.2789 25.5393 88.2057 36.3137 88.2057Z" fill="#FF951A"></path><path d="M16.8829 73.671C16.8829 67.5317 25.6007 62.6664 36.3751 62.6664C47.1494 62.6664 55.8058 67.6392 55.8058 73.671C55.8058 79.7028 47.088 84.7216 36.329 84.7216C25.57 84.7216 16.8829 79.8102 16.8829 73.671Z" fill="#CC6500"></path><path d="M38.5084 46.1671L32.3999 80.9613L19.6149 73.5942L17.1132 66.0276L21.2111 56.1587L33.198 41.532L38.5084 46.1671Z" fill="#A34100"></path><path d="M17.282 49.114C19.1144 45.7474 21.8316 42.9453 25.1402 41.0102L30.8958 40.12L43.6961 47.4871L43.4505 59.8577L34.9016 64.8151L29.9135 73.4561L17.1131 65.9969C13.1226 63.7101 13.1994 56.1127 17.282 49.114Z" fill="#FF951A"></path><path d="M29.1614 73.0724L17.0364 65.9969C14.197 64.4621 13.4143 60.0572 14.6882 55.1458C14.8263 54.624 14.9951 54.0868 15.164 53.611L15.3942 52.9817C15.4503 52.8189 15.5169 52.66 15.5937 52.5059C15.6468 52.3321 15.7136 52.1628 15.7932 51.9994C15.9621 51.5697 16.1769 51.1399 16.3918 50.7102C16.4685 50.526 16.576 50.3418 16.6681 50.1577C16.7602 49.9735 17.0211 49.513 17.2053 49.1907C17.3894 48.8684 17.5736 48.5461 17.7578 48.2545L18.0954 47.7326C18.3717 47.3336 18.6326 46.9652 18.9089 46.5969L19.2619 46.1364C19.3608 45.9968 19.4685 45.8635 19.5842 45.7374L20.014 45.2309C20.3823 44.7858 20.7814 44.3868 21.1651 44.0031L21.8097 43.4045C22.2087 43.0361 22.6231 42.6985 23.0222 42.3915L23.4519 42.0845C23.7906 41.833 24.1442 41.6023 24.511 41.3939C24.6798 41.3018 24.8333 41.1943 25.0021 41.1176C25.4957 40.8494 26.0088 40.6185 26.5369 40.4269L26.9667 40.2888L27.9029 40.0586C28.19 39.9927 28.4832 39.9567 28.7777 39.9511H29.4224C29.6318 39.936 29.8422 39.936 30.0516 39.9511H30.1591L30.466 40.0279H30.6349C31.0309 40.1412 31.4121 40.3009 31.7706 40.5037L43.957 47.5792C46.3667 48.9758 47.3029 52.3524 46.7043 56.3583C46.6444 56.8386 46.5573 57.3152 46.4434 57.7857L46.3053 58.4456C45.7353 60.5534 44.8889 62.5764 43.7882 64.4621C42.7248 66.3527 41.4194 68.0967 39.9051 69.6498C36.1909 73.2105 32.0622 74.7146 29.1614 73.0724Z" fill="#D67600"></path><path d="M39.9051 69.6498C39.9051 69.6498 39.9972 69.5117 40.0433 69.4656L14.7496 54.9003C14.7496 54.9924 14.7496 55.0691 14.7496 55.1458C13.4757 60.0572 14.2584 64.3547 17.0978 66.0277L29.1615 73.0724C32.0623 74.7147 36.1909 73.2106 39.9051 69.6498Z" fill="#C25A00"></path><path d="M44.663 62.3594C45.3189 61.0977 45.8683 59.7835 46.3053 58.4303L46.4434 57.7703C46.5573 57.2999 46.6444 56.8233 46.7043 56.343C47.3029 52.3371 46.3667 48.9605 43.957 47.5638L31.7706 40.519C31.412 40.3163 31.0308 40.1566 30.6348 40.0432H30.5274L30.159 39.9051H30.067C29.8523 39.8907 29.637 39.8907 29.4223 39.9051H28.7777C28.4832 39.9106 28.19 39.9466 27.9029 40.0125L26.9666 40.2428L26.5369 40.3809C26.0061 40.566 25.4926 40.7971 25.0021 41.0716C24.8332 41.1483 24.6798 41.2557 24.5109 41.3478C24.1442 41.5563 23.7905 41.7869 23.4519 42.0385L23.0222 42.3455C22.6231 42.6524 22.2087 42.9901 21.8097 43.3584L21.165 43.957C20.7813 44.3407 20.3823 44.7398 20.0139 45.1849L19.5842 45.6914C19.4685 45.8175 19.3608 45.9507 19.2619 46.0904L18.9089 46.5508C18.74 46.7657 18.5866 47.0113 18.4177 47.2415L44.663 62.3594Z" fill="#E6A425"></path><path d="M46.6276 54.3323C46.6276 51.2627 45.9216 48.6996 43.957 47.5638L31.7706 40.519C31.412 40.3163 31.0308 40.1566 30.6348 40.0432H30.5274L30.159 39.9051H30.0669C29.8523 39.8907 29.637 39.8907 29.4223 39.9051H28.7777C28.4832 39.9106 28.19 39.9466 27.9029 40.0125L26.9666 40.2428L26.5369 40.3809C26.0061 40.566 25.4926 40.7971 25.0021 41.0716C24.8332 41.1483 24.6798 41.2557 24.5109 41.3478L24.3114 41.486L46.6276 54.3323Z" fill="#F4B533"></path><path d="M45.9216 48.8377L50.2958 70.6014L43.9877 74.2696L32.3999 80.9614L29.9135 73.3947L33.9961 63.5259L37.9252 48.2852L43.6961 47.395L45.9216 48.8377Z" fill="#EE7A13"></path><path d="M29.9135 73.3947C33.904 75.6969 40.4423 71.8599 44.5249 64.769C48.6075 57.6782 48.6689 50.0962 44.6784 47.794C40.6879 45.4918 34.1496 49.3288 30.067 56.4196C25.9844 63.5105 25.923 71.0925 29.9135 73.3947Z" fill="#EB850C"></path><path d="M39.9051 70.6014L34.2263 67.2708C32.891 66.5034 32.5227 64.4621 33.1212 62.1599C33.1212 61.9143 33.2747 61.6688 33.3515 61.4078C33.4282 61.1469 33.4282 61.2237 33.4589 61.1162C33.4802 61.0409 33.5111 60.9687 33.551 60.9014C33.5723 60.8163 33.6032 60.7339 33.6431 60.6558C33.6431 60.4563 33.8272 60.2567 33.9193 60.0419L34.0575 59.7963C34.0575 59.6428 34.211 59.4893 34.303 59.3358C34.3951 59.1824 34.4872 59.0442 34.564 58.8908L34.7328 58.6605C34.8556 58.461 34.9784 58.2922 35.1011 58.1233C35.1537 58.0488 35.21 57.9771 35.27 57.9085L35.4235 57.7243C35.4853 57.6388 35.5519 57.5568 35.623 57.4787C35.7902 57.2785 35.9696 57.0889 36.1602 56.9108L36.4671 56.6192C36.6456 56.4529 36.8354 56.2991 37.035 56.1588L37.2345 56.0053L37.7257 55.683L37.9559 55.5449L38.6773 55.2532H38.8768L39.3219 55.1458H39.7209C39.8227 55.1305 39.9261 55.1305 40.0279 55.1458C40.1244 55.1298 40.223 55.1298 40.3195 55.1458H40.4576H40.5344C40.7198 55.2067 40.8996 55.2837 41.0716 55.376L46.7811 58.6759C47.9168 59.3205 48.3159 60.9014 48.0703 62.7892C48.0429 63.0165 48.0019 63.242 47.9475 63.4645C47.9475 63.5566 47.9475 63.664 47.9475 63.7715C47.6739 64.7587 47.2768 65.7076 46.7657 66.5955C46.2549 67.4859 45.6306 68.3062 44.9086 69.0359C43.205 70.6014 41.2711 71.3381 39.9051 70.6014Z" fill="#D67600"></path><path d="M44.9086 68.9745V68.8671L33.0905 62.0525C33.0996 62.0877 33.0996 62.1247 33.0905 62.1599C32.492 64.4621 32.8603 66.5034 34.1956 67.2709L39.9051 70.6014C41.2711 71.3381 43.2049 70.6014 44.9086 68.9745Z" fill="#C25A00"></path><path d="M47.1801 65.5518C47.4825 64.9583 47.739 64.3426 47.9475 63.71C47.9475 63.6026 47.9475 63.4952 47.9475 63.4031C48.0019 63.1806 48.0429 62.9551 48.0703 62.7278C48.3466 60.8399 47.9168 59.2591 46.7811 58.6145L41.133 55.2532C40.961 55.1609 40.7812 55.0838 40.5958 55.023H40.4269C40.3252 55.0079 40.2217 55.0079 40.12 55.023C40.0182 55.0076 39.9148 55.0076 39.813 55.023H39.414L38.9689 55.1304H38.7693C38.5217 55.2269 38.2807 55.3397 38.048 55.4681L37.8178 55.5909L37.3266 55.9132L37.1271 56.0667C36.9275 56.207 36.7377 56.3608 36.5592 56.5271L36.2523 56.8187C36.0617 56.9968 35.8822 57.1864 35.7151 57.3866C35.644 57.4646 35.5774 57.5466 35.5155 57.6322L35.3621 57.8164C35.3021 57.885 35.2457 57.9567 35.1932 58.0312L34.963 58.3535L47.1801 65.5518Z" fill="#E6A425"></path><path d="M48.101 61.7762C48.1821 61.1853 48.1088 60.5836 47.8883 60.0295C47.6677 59.4755 47.3074 58.9879 46.8425 58.6145L41.133 55.2532C40.961 55.1609 40.7813 55.0838 40.5958 55.023H40.427C40.3252 55.0079 40.2218 55.0079 40.12 55.023C40.0183 55.0076 39.9148 55.0076 39.8131 55.023H39.414L38.9689 55.1304H38.7694C38.5217 55.2269 38.2808 55.3397 38.048 55.4681L37.8178 55.5909H37.7257L48.101 61.7762Z" fill="#F4B533"></path><path d="M39.9051 70.6013C38.5698 69.8186 38.2168 67.7926 38.8154 65.4904C39.0766 64.5013 39.4689 63.5515 39.9818 62.6664C40.489 61.7741 41.1194 60.9578 41.8543 60.2414C43.5426 58.5684 45.4765 57.8624 46.8118 58.7065C48.147 59.5507 48.3466 60.932 48.101 62.8198C48.0736 63.0472 48.0326 63.2727 47.9782 63.4952C47.9782 63.5872 47.9782 63.6947 47.9782 63.8021C47.7045 64.7894 47.3075 65.7382 46.7964 66.6262C46.2855 67.5165 45.6613 68.3368 44.9393 69.0665C43.2049 70.6013 41.2711 71.338 39.9051 70.6013Z" fill="#EB990C"></path><path d="M42.3915 68.2531L41.5474 67.7773C40.8414 67.3629 40.6418 66.2424 40.9642 65.0606C40.998 64.9205 41.039 64.7822 41.0869 64.6462V64.4928C41.0842 64.4519 41.0842 64.4109 41.0869 64.37C41.0829 64.3291 41.0829 64.288 41.0869 64.2472C41.1318 64.1369 41.1831 64.0293 41.2404 63.9249V63.7868L41.3786 63.5412L41.5167 63.311V63.1882L41.7316 62.8966L41.8083 62.7891L41.9004 62.6817L41.9925 62.5589L42.2841 62.2519L42.4529 62.0985C42.5483 62.0083 42.651 61.9262 42.7599 61.8529C42.7954 61.8459 42.8319 61.8459 42.8673 61.8529L43.1282 61.6687H43.251L43.6347 61.4999H43.7422H43.9724H44.1873H44.6477C44.7509 61.5248 44.8494 61.5662 44.9393 61.6227L45.7835 62.0985C46.0994 62.3576 46.333 62.7032 46.4556 63.093C46.5783 63.4828 46.5847 63.8999 46.4741 64.2932C46.4815 64.4159 46.4815 64.5389 46.4741 64.6616C46.4813 64.7125 46.4813 64.7642 46.4741 64.8151C46.3402 65.3546 46.1282 65.8716 45.8449 66.3499C45.5753 66.8255 45.2451 67.264 44.8626 67.6545C44.1412 68.2991 43.0975 68.6675 42.3915 68.2531Z" fill="#24313A"></path><path d="M45.0467 67.4089L40.9795 64.9993C40.6572 66.2118 40.8567 67.3015 41.5627 67.7159L42.4068 68.1917C43.0975 68.6675 44.1412 68.2991 45.0467 67.4089Z" fill="#1A242B"></path><path d="M46.2439 65.5825C46.4143 65.2696 46.5531 64.9406 46.6583 64.6002C46.6655 64.5493 46.6655 64.4976 46.6583 64.4467C46.6657 64.324 46.6657 64.201 46.6583 64.0784C46.7778 63.6922 46.7834 63.2798 46.6745 62.8906C46.5656 62.5013 46.3468 62.1517 46.0444 61.8836L45.2309 61.3924C45.141 61.336 45.0425 61.2946 44.9393 61.2697H44.8472H44.5096H44.2947H44.0645H43.957L43.5733 61.4385H43.4506L43.1896 61.6227C43.1542 61.6156 43.1177 61.6156 43.0822 61.6227C42.9733 61.696 42.8707 61.7781 42.7752 61.8682L42.6064 62.0217L42.3148 62.3287L42.2227 62.4515L42.1306 62.5589L42.0539 62.6663L41.9311 62.8352L46.2439 65.5825Z" fill="#3A4F5E"></path><path d="M46.7351 63.5872C46.7761 63.2678 46.7342 62.9432 46.6132 62.6448C46.4922 62.3464 46.2963 62.0842 46.0444 61.8836L45.2309 61.3924C45.141 61.336 45.0425 61.2946 44.9393 61.2697H44.8472H44.5096H44.2947H44.0645H43.957L43.5733 61.4385H43.4506L46.7351 63.5872Z" fill="#2F404C"></path><path d="M42.3915 68.253C41.6855 67.854 41.486 66.7182 41.8083 65.5364C41.9452 64.9979 42.157 64.4813 42.4375 64.0016C42.7072 63.5267 43.0431 63.0926 43.4352 62.7124C44.3254 61.8222 45.3537 61.4538 46.075 61.8529C46.391 62.112 46.6246 62.4576 46.7472 62.8474C46.8699 63.2372 46.8763 63.6543 46.7657 64.0476C46.7731 64.1703 46.7731 64.2933 46.7657 64.416C46.7729 64.4669 46.7729 64.5186 46.7657 64.5695C46.6318 65.109 46.4198 65.6261 46.1364 66.1043C45.8669 66.5799 45.5367 67.0184 45.1542 67.4089C44.1412 68.2991 43.0975 68.6674 42.3915 68.253Z" fill="#515B5B"></path><path d="M72.9957 27.3043L39.061 5.06482L34.7942 7.53587L39.0149 10.2064L38.9689 18.6479L67.5317 37.2805L68.6982 39.2758L72.9496 36.8047L72.965 32.7375L72.9803 31.5864L72.9957 27.3043Z" fill="#EEA12C"></path><path d="M34.8096 7.52051L68.7596 29.7599L68.6982 39.2758L34.7175 21.1189L34.8096 7.52051Z" fill="#C24800"></path><path d="M41.3172 12.0943C39.2759 8.57962 36.022 6.6611 34.0421 7.81221L33.8119 7.96569L30.8497 9.66933L38.2015 22.3929L41.4399 20.5512C43.3738 19.4 43.3431 15.6244 41.3172 12.0943Z" fill="#6E6E6E"></path><path d="M38.2015 22.3929C36.2216 23.544 32.9678 21.6255 30.9418 18.1107C28.9159 14.596 28.8698 10.7436 30.8497 9.66927C32.8296 8.5949 36.0988 10.4367 38.1247 13.9514C40.1507 17.4661 40.1967 21.2571 38.2015 22.3929Z" fill="#3D3D3D"></path><path d="M72.965 42.5603L67.2555 39.2605C65.9202 38.5084 65.5672 36.4671 66.1504 34.1649C66.1504 33.9193 66.3039 33.6738 66.3806 33.4128L66.488 33.1212C66.5121 33.042 66.5429 32.965 66.5801 32.891L66.6722 32.6608C66.749 32.4613 66.8564 32.2464 66.9485 32.0469L67.0866 31.7859L67.3322 31.3408L67.5931 30.8957L67.7619 30.6655C67.8847 30.466 68.0075 30.2972 68.1303 30.1283C68.1828 30.0538 68.2392 29.9821 68.2991 29.9135C68.3424 29.8459 68.394 29.7841 68.4526 29.7293C68.5105 29.6408 68.5773 29.5585 68.6521 29.4837C68.8193 29.2835 68.9987 29.0939 69.1893 28.9158L69.4963 28.6242C69.6748 28.4579 69.8645 28.3041 70.0642 28.1638L70.2637 28.0103L70.7548 27.6266L71.0004 27.4885C71.2298 27.3684 71.4655 27.2608 71.7064 27.1662H71.9059L72.351 27.0587H72.7501H73.057H73.364H73.5021H73.671C73.8563 27.1064 74.0326 27.1842 74.1928 27.2889L79.8102 30.6041C80.4071 31.0894 80.8477 31.7399 81.077 32.4742C81.3063 33.2085 81.3141 33.9941 81.0995 34.7328C81.072 34.9551 81.031 35.1755 80.9767 35.3927C80.9767 35.5002 80.9767 35.6076 80.9767 35.7151C80.7079 36.7016 80.316 37.6504 79.8102 38.5391C79.2993 39.4248 78.675 40.24 77.9531 40.9641C76.2341 42.6371 74.3002 43.3431 72.965 42.5603Z" fill="#D67600"></path><path d="M77.9377 40.9642C77.9377 40.9642 77.9377 40.9641 77.9377 40.8721L66.1197 34.0575C66.1263 34.093 66.1263 34.1294 66.1197 34.1649C65.5365 36.4671 65.8895 38.5085 67.2248 39.2605L72.9343 42.5604C74.3002 43.3431 76.2341 42.6371 77.9377 40.9642Z" fill="#C25A00"></path><path d="M80.2093 37.5414C80.5114 36.9532 80.768 36.3426 80.9767 35.715C80.9767 35.6076 80.9767 35.5001 80.9767 35.3927C81.031 35.1754 81.072 34.955 81.0995 34.7327C81.3141 33.994 81.3063 33.2084 81.077 32.4741C80.8477 31.7398 80.4071 31.0894 79.8102 30.6041L74.1621 27.3196C74.0019 27.2148 73.8256 27.137 73.6403 27.0894H73.4714H73.1645H72.8575H72.4585L72.0134 27.1968H71.8139L71.0925 27.5191L70.7548 27.6265L70.2637 27.9488L70.0642 28.1023C69.8646 28.2426 69.6748 28.3965 69.4963 28.5628C69.3867 28.652 69.284 28.7495 69.1893 28.8544C68.9987 29.0324 68.8193 29.2221 68.6521 29.4223C68.5773 29.497 68.5105 29.5793 68.4526 29.6678C68.394 29.7226 68.3425 29.7845 68.2991 29.852C68.2392 29.9207 68.1828 29.9924 68.1303 30.0669L67.9001 30.3892L80.2093 37.5414Z" fill="#E6A425"></path><path d="M81.1302 33.7658C81.1997 33.1698 81.1148 32.566 80.8836 32.0123C80.6525 31.4587 80.2829 30.9737 79.8103 30.6041L74.1622 27.3196C74.002 27.2148 73.8257 27.137 73.6403 27.0894H73.4715H73.1645H72.8576H72.4585L72.0134 27.1968H71.8139L71.0925 27.5191L70.7549 27.6265H70.6628L81.1302 33.7658Z" fill="#F4B533"></path><path d="M72.965 42.5604C71.6297 41.793 71.2767 39.767 71.8753 37.4648C72.1337 36.4747 72.5261 35.5246 73.0417 34.6407C73.5549 33.7572 74.1847 32.9467 74.9142 32.2311C76.6025 30.5735 78.5363 29.8675 79.8716 30.6963C80.4685 31.1816 80.9091 31.832 81.1384 32.5663C81.3677 33.3006 81.3755 34.0862 81.1609 34.8249C81.1334 35.0472 81.0924 35.2676 81.0381 35.4849C81.0381 35.5923 81.0381 35.6998 81.0381 35.8072C80.7427 36.7649 80.3303 37.6825 79.8102 38.5392C79.2993 39.4248 78.675 40.24 77.9531 40.9642C76.2341 42.6371 74.3003 43.3431 72.965 42.5604Z" fill="#EB990C"></path><path d="M78.2754 45.5225L73.671 42.8365C72.5966 42.2073 72.305 40.565 72.7808 38.6925L72.965 38.0786L73.0571 37.8331C73.0513 37.7769 73.0513 37.7204 73.0571 37.6642C73.0732 37.5945 73.099 37.5273 73.1338 37.4647C73.1961 37.2971 73.2678 37.1331 73.3487 36.9736C73.3906 36.9052 73.4265 36.8333 73.4561 36.7587L73.671 36.3903C73.7335 36.2673 73.8053 36.1493 73.8859 36.0373L74.0086 35.8378L74.3156 35.4081L74.4537 35.2239L74.5765 35.0857C74.6239 35.0164 74.6752 34.9498 74.73 34.8862C74.8681 34.7174 75.0216 34.5639 75.1751 34.4104L75.4207 34.1956C75.5665 34.0587 75.7202 33.9306 75.8811 33.8118L76.0499 33.6891L76.449 33.4281L76.6332 33.3207C76.8199 33.2175 77.015 33.1303 77.2164 33.0598H77.3852L77.7382 32.9677H78.0759C78.157 32.9523 78.2403 32.9523 78.3215 32.9677H78.7819C78.9315 33.0132 79.0756 33.0749 79.2117 33.1519L83.8161 35.8378C84.3017 36.2298 84.6612 36.7562 84.8495 37.3512C85.0379 37.9463 85.0468 38.5836 84.8751 39.1837C84.8751 39.3525 84.8751 39.5367 84.7677 39.7209V39.9664C84.5486 40.7732 84.2234 41.5474 83.8007 42.2687C83.3817 42.9955 82.8653 43.6616 82.2659 44.2486C80.992 45.5685 79.4265 46.1364 78.2754 45.5225Z" fill="#7F7F7F"></path><path d="M82.3734 44.2179L72.7655 38.6772C72.7721 38.7076 72.7721 38.739 72.7655 38.7693C72.2897 40.6418 72.5813 42.2841 73.6557 42.9133L78.2601 45.5992C79.4266 46.1364 80.9921 45.5686 82.3734 44.2179Z" fill="#5E5E5E"></path><path d="M84.2151 41.4399C84.4625 40.9445 84.6728 40.4315 84.8444 39.905V39.6595C84.8444 39.4753 84.8444 39.2911 84.9518 39.1223C85.1235 38.5222 85.1146 37.8849 84.9263 37.2898C84.7379 36.6948 84.3785 36.1684 83.8928 35.7764L79.2884 33.0905C79.1523 33.0135 79.0082 32.9518 78.8586 32.9063H78.7205H78.4442C78.3631 32.8909 78.2798 32.8909 78.1987 32.9063H77.861L77.508 32.9984H77.3392C77.1378 33.0689 76.9427 33.1561 76.7559 33.2593L76.5718 33.3667L76.1727 33.6277L75.9732 33.7658C75.8123 33.8845 75.6585 34.0126 75.5128 34.1495L75.2672 34.3644C75.1137 34.5178 74.9602 34.6713 74.8221 34.8402C74.7673 34.9038 74.716 34.9704 74.6686 35.0397L74.5458 35.1778L74.4077 35.362L74.2235 35.6229L84.2151 41.4399Z" fill="#A1A1A1"></path><path d="M84.9672 38.3703C85.0354 37.8881 84.9764 37.3965 84.796 36.9442C84.6156 36.4919 84.3201 36.0947 83.9389 35.7918L79.3344 33.1059C79.1983 33.0289 79.0542 32.9671 78.9047 32.9217H78.7665H78.4903C78.4091 32.9063 78.3258 32.9063 78.2447 32.9217H77.907L77.554 33.0138H77.3852C77.1838 33.0842 76.9887 33.1715 76.802 33.2747L76.6178 33.3821L84.9672 38.3703Z" fill="#AFAFAF"></path><path d="M78.2754 45.5226C77.1857 44.8933 76.8941 43.2357 77.3853 41.3786C77.8173 39.7584 78.6697 38.2812 79.8563 37.0964C81.2223 35.7458 82.8031 35.1779 83.8775 35.8072C84.3632 36.1992 84.7226 36.7256 84.9109 37.3206C85.0993 37.9157 85.1082 38.553 84.9365 39.1531C84.9365 39.3219 84.9365 39.5061 84.8291 39.6903V39.9358C84.61 40.7426 84.2848 41.5168 83.8622 42.2381C83.4431 42.9649 82.9268 43.631 82.3274 44.218C80.9921 45.5686 79.4266 46.1365 78.2754 45.5226Z" fill="#5E5E5E"></path><path d="M84.5068 40.826L82.972 44.7705L78.3675 53.5803L76.7406 52.7055C75.3593 51.9978 74.3088 50.7789 73.8128 49.3083C73.3169 47.8376 73.4147 46.2315 74.0854 44.8319L79.3805 37.7717L84.5068 40.826Z" fill="#5E5E5E"></path><path d="M82.9873 56.2662L78.3829 53.5802C77.3085 52.951 77.0169 51.3087 77.4927 49.4362C77.4927 49.2367 77.6155 49.0218 77.6769 48.8223L77.769 48.5767C77.7605 48.5208 77.7605 48.4639 77.769 48.4079C77.7851 48.3382 77.8109 48.271 77.8457 48.2084C77.908 48.0408 77.9798 47.8768 78.0606 47.7173L78.2755 47.5791L78.4903 47.2108C78.5528 47.0878 78.6247 46.9698 78.7052 46.8578C78.737 46.786 78.7783 46.7189 78.828 46.6582L79.1349 46.2285L79.1963 46.0443L79.3191 45.9062C79.3665 45.8369 79.4178 45.7702 79.4726 45.7066C79.6107 45.5378 79.7642 45.3843 79.9177 45.2309C79.9922 45.1513 80.0745 45.0793 80.1633 45.016C80.3091 44.8791 80.4628 44.751 80.6237 44.6323L80.7925 44.5095L81.1916 44.2486L81.3758 44.1411C81.5625 44.038 81.7576 43.9507 81.959 43.8802H82.1278L82.4808 43.7881H82.8185C82.8996 43.7728 82.9829 43.7728 83.0641 43.7881H83.5245C83.6741 43.8336 83.8182 43.8954 83.9543 43.9723L88.5587 46.6582C89.0444 47.0503 89.4038 47.5766 89.5921 48.1717C89.7805 48.7667 89.7894 49.4041 89.6177 50.0041C89.6177 50.173 89.6177 50.3571 89.5103 50.5413V50.7869C89.2912 51.5937 88.966 52.3678 88.5433 53.0891C88.1243 53.8159 87.6079 54.482 87.0085 55.069C85.6425 56.3122 84.0617 56.8801 82.9873 56.2662Z" fill="#7D7D7D"></path><path d="M87.0238 54.9617C87.0238 54.9617 87.0238 54.9616 87.0238 54.8849L77.4159 49.3442V49.4363C76.9401 51.3088 77.2317 52.951 78.3061 53.5803L82.9105 56.2662C84.0617 56.8802 85.6425 56.3123 87.0238 54.9617Z" fill="#5E5E5E"></path><path d="M88.8657 52.1836C89.113 51.6883 89.3233 51.1752 89.4949 50.6488V50.4032C89.4949 50.2191 89.4949 50.0349 89.6024 49.8661C89.774 49.266 89.7651 48.6287 89.5768 48.0336C89.3884 47.4386 89.029 46.9122 88.5433 46.5202L83.9389 43.8342C83.8028 43.7573 83.6587 43.6955 83.5092 43.6501H83.371H83.0948C83.0136 43.6347 82.9303 43.6347 82.8492 43.6501H82.5115L82.1585 43.7422H81.9897C81.7883 43.8126 81.5932 43.8999 81.4065 44.0031L81.2223 44.1105L80.8232 44.3714L80.6544 44.4942C80.4935 44.6129 80.3398 44.7411 80.194 44.8779C80.1019 44.8779 80.0251 45.0314 79.9484 45.0928C79.8717 45.1542 79.6414 45.3998 79.5033 45.5686C79.4485 45.6322 79.3972 45.6988 79.3498 45.7681L79.1963 46.0444L79.0582 46.2286L78.874 46.4895L88.8657 52.1836Z" fill="#9F9F9F"></path><path d="M89.6177 49.1139C89.6859 48.6318 89.6269 48.1402 89.4465 47.6879C89.2661 47.2356 88.9706 46.8383 88.5894 46.5354L83.9849 43.8495C83.8489 43.7726 83.7047 43.7108 83.5552 43.6653H83.417H83.1408C83.0596 43.65 82.9763 43.65 82.8952 43.6653H82.5576L82.2045 43.7574H82.0357C81.8343 43.8279 81.6392 43.9152 81.4525 44.0183L81.2683 44.1258L89.6177 49.1139Z" fill="#ADADAD"></path><path d="M82.9873 56.2662C81.8976 55.6369 81.606 53.9793 82.0971 52.1222C82.5291 50.5021 83.3816 49.0248 84.5682 47.8401C85.9341 46.4895 87.515 45.9216 88.5894 46.5508C89.075 46.9429 89.4344 47.4693 89.6228 48.0643C89.8111 48.6593 89.82 49.2967 89.6484 49.8967C89.6484 50.0656 89.6484 50.2497 89.5409 50.4339V50.6795C89.3218 51.4863 88.9967 52.2604 88.574 52.9817C88.155 53.7085 87.6386 54.3746 87.0392 54.9616C85.6425 56.3123 84.0617 56.8801 82.9873 56.2662Z" fill="#878787"></path><path d="M90.7995 56.5424L84.5528 55.2532C83.8315 54.8388 83.6319 53.7184 83.9542 52.4905C83.9542 52.3677 83.9542 52.2296 84.077 52.0761C84.0796 52.025 84.0796 51.9738 84.077 51.9226V51.7999V51.6771C84.077 51.5696 84.1845 51.4622 84.2305 51.3394L84.3072 51.2013L84.4454 50.9557L84.5835 50.7255L84.6756 50.5874C84.7368 50.4866 84.8034 50.3893 84.8751 50.2957L84.9672 50.1883C84.9602 50.1528 84.9602 50.1163 84.9672 50.0809L85.0746 49.9581L85.3663 49.6511L85.5351 49.4976L85.8421 49.2367L85.9495 49.16L86.2258 48.9758H86.3485C86.4701 48.902 86.5986 48.8404 86.7322 48.7916H86.8397H87.0853H87.3001H87.469H87.6531H87.7759L88.0675 48.9144L88.7275 49.7586C89.1879 50.3111 91.9046 51.984 92.365 52.5519L92.8561 53.1505C92.9199 53.2251 92.992 53.292 93.071 53.35C93.2245 53.5188 93.071 53.8258 92.9175 54.0253L92.5031 54.8848C92.2883 55.4303 92.0047 55.9461 91.659 56.4196C91.5263 56.5893 91.3517 56.7215 91.1525 56.8033C91.1372 56.788 91.0144 56.5578 90.7995 56.5424Z" fill="#C5C5C5"></path><path d="M91.9813 55.6983C91.9813 55.6983 92.6413 57.2331 92.6566 57.2331C92.672 57.2331 83.8008 53.5649 83.8008 53.5802C83.8008 54.3323 83.8008 54.8388 84.5528 55.2532L90.6921 57.6628C91.4595 58.1079 91.0604 56.6038 91.9813 55.6983Z" fill="#A6A6A6"></path><path d="M92.9175 54.2709C92.9746 54.2283 93.0174 54.1694 93.0403 54.102C93.0468 54.0562 93.0468 54.0097 93.0403 53.9639C93.106 53.8015 93.106 53.6199 93.0403 53.4574C93.0474 53.422 93.0474 53.3855 93.0403 53.35L92.6873 52.8282C92.3036 52.2756 89.6177 50.618 89.28 50.0808L88.5587 49.1139C88.4898 48.9746 88.402 48.8455 88.2978 48.7302C88.1963 48.675 88.0879 48.6337 87.9755 48.6074H87.868H87.4843H87.2694H87.0239H86.9164C86.7828 48.6561 86.6543 48.7178 86.5327 48.7916H86.4099L86.1337 48.9758L86.0262 49.0525L85.7193 49.3134L85.5505 49.4669L85.2588 49.7739L85.1514 49.8967C85.1444 49.9321 85.1444 49.9686 85.1514 50.0041L85.0593 50.1115L84.9365 50.2957C86.1644 51.0017 89.6637 52.8128 90.8916 53.5342L91.7818 54.0407C91.9112 54.1321 92.0501 54.2093 92.1962 54.2709C92.3805 54.3084 92.5721 54.2756 92.7334 54.1788C92.7886 54.2205 92.8511 54.2517 92.9175 54.2709Z" fill="#E7E7E7"></path><path d="M93.5161 54.271C93.5161 53.5035 94.2528 52.9971 93.7463 52.7361L88.2977 48.8224L88.0061 48.6996H87.4843H87.2694H87.0238H86.9164C86.7828 48.7483 86.6543 48.81 86.5327 48.8838H86.4099L93.5161 54.271Z" fill="#F5F5F5"></path><path d="M90.7381 57.6783C90.1856 57.356 90.0321 56.4965 90.2776 55.5295C90.3908 55.1115 90.5558 54.7094 90.7688 54.3324C90.9846 53.958 91.2534 53.6168 91.5669 53.3194C92.2729 52.6134 93.1017 52.3218 93.6542 52.6441C93.906 52.847 94.0916 53.1204 94.1873 53.4293C94.2829 53.7383 94.2844 54.0687 94.1914 54.3784C94.206 54.4699 94.206 54.5632 94.1914 54.6547C94.1986 54.7004 94.1986 54.7471 94.1914 54.7928C94.0849 55.213 93.9195 55.616 93.7003 55.99C93.4847 56.3603 93.2215 56.7009 92.9175 57.0029C92.0887 57.709 91.306 58.0006 90.7381 57.6783Z" fill="#CFCFCF"></path><path d="M91.2446 56.788C90.8762 56.5731 90.7688 56.0052 90.9376 55.376C91.0051 55.1003 91.1138 54.8365 91.2599 54.5932C91.4 54.3439 91.5758 54.1163 91.7818 53.9179C92.2422 53.4575 92.7794 53.2579 93.1478 53.4728C93.3146 53.6045 93.4387 53.7826 93.5042 53.9848C93.5698 54.187 93.5739 54.404 93.5161 54.6086C93.5161 54.6086 93.5161 54.7313 93.5161 54.8081C93.5161 54.8848 93.5161 54.8081 93.5161 54.8848C93.4486 55.1605 93.34 55.4243 93.1938 55.6676C93.0537 55.9169 92.8779 56.1445 92.672 56.3429C92.0887 56.788 91.6129 57.0336 91.2446 56.788Z" fill="#878787"></path><path d="M91.659 56.0973C91.4441 55.9746 91.3981 55.6522 91.4902 55.2992C91.5277 55.1421 91.5899 54.9919 91.6743 54.8541C91.754 54.7138 91.8521 54.5848 91.9659 54.4704C92.2269 54.2095 92.5338 54.1021 92.7334 54.2249C92.8276 54.2998 92.897 54.4014 92.9326 54.5164C92.9682 54.6314 92.9683 54.7544 92.9329 54.8695C92.9403 54.9049 92.9403 54.9415 92.9329 54.9769C92.8953 55.1341 92.8331 55.2843 92.7487 55.422C92.6692 55.5585 92.5767 55.687 92.4724 55.8057C92.1655 56.1127 91.8585 56.2201 91.659 56.0973Z" fill="#CFCFCF"></path><path d="M83.7087 36.7281C82.9282 37.0537 82.2796 37.6321 81.8669 38.3703C80.2828 41.5356 78.9485 44.8198 77.8764 48.1931C77.8764 48.1931 80.3321 43.2817 83.5245 43.6654L84.7831 40.1507C84.7831 40.1507 86.103 36.329 83.7087 36.7281Z" fill="#878787"></path></g><defs><clipPath id="clip0_5678_18281"><rect width="94.2375" height="110" fill="white"></rect></clipPath></defs></svg>