<svg xmlns="http://www.w3.org/2000/svg" width="110" height="82" viewBox="0 0 110 82" fill="none"><g clip-path="url(#clip0_5678_32901)"><path d="M45.8165 17.2851H45.7116C43.9358 17.2873 42.2335 17.9942 40.9785 19.2506C39.7236 20.5071 39.0187 22.2103 39.0187 23.9861V29.3306C39.0187 29.7824 39.1982 30.2157 39.5177 30.5352C39.8371 30.8547 40.2704 31.0341 40.7222 31.0341C41.174 31.0341 41.6073 30.8547 41.9268 30.5352C42.2462 30.2157 42.4257 29.7824 42.4257 29.3306V23.9861C42.4257 23.1146 42.7719 22.2788 43.3881 21.6626C44.0043 21.0464 44.8401 20.7002 45.7116 20.7002H45.8165C46.688 20.7002 47.5238 21.0464 48.14 21.6626C48.7562 22.2788 49.1024 23.1146 49.1024 23.9861V29.3306C49.1024 29.7824 49.2819 30.2157 49.6013 30.5352C49.9208 30.8547 50.3541 31.0341 50.8059 31.0341C51.2577 31.0341 51.691 30.8547 52.0104 30.5352C52.3299 30.2157 52.5094 29.7824 52.5094 29.3306V23.9861C52.5094 22.2103 51.8045 20.5071 50.5496 19.2506C49.2947 17.9942 47.5923 17.2873 45.8165 17.2851Z" fill="#17262F"></path><path d="M64.2885 17.2851H64.1835C62.4077 17.2873 60.7054 17.9942 59.4505 19.2506C58.1955 20.5071 57.4907 22.2103 57.4907 23.9861V29.3306C57.5204 29.7632 57.7133 30.1684 58.0302 30.4643C58.3472 30.7602 58.7646 30.9247 59.1982 30.9247C59.6318 30.9247 60.0492 30.7602 60.3662 30.4643C60.6831 30.1684 60.8759 29.7632 60.9057 29.3306V23.9861C60.9057 23.116 61.2508 22.2814 61.8653 21.6654C62.4797 21.0495 63.3134 20.7023 64.1835 20.7002H64.2885C65.1599 20.7002 65.9957 21.0464 66.6119 21.6626C67.2281 22.2788 67.5743 23.1146 67.5743 23.9861V29.3306C67.5743 29.7824 67.7538 30.2157 68.0733 30.5352C68.3927 30.8547 68.826 31.0341 69.2778 31.0341C69.7296 31.0341 70.1629 30.8547 70.4824 30.5352C70.8018 30.2157 70.9813 29.7824 70.9813 29.3306V23.9861C70.9813 22.2103 70.2764 20.5071 69.0215 19.2506C67.7666 17.9942 66.0643 17.2873 64.2885 17.2851Z" fill="#17262F"></path><path d="M45.8165 35.967H45.7116C43.9358 35.9691 42.2335 36.676 40.9785 37.9325C39.7236 39.1889 39.0187 40.8921 39.0187 42.6679V48.0125C39.0187 48.4643 39.1982 48.8976 39.5177 49.217C39.8371 49.5365 40.2704 49.716 40.7222 49.716C41.174 49.716 41.6073 49.5365 41.9268 49.217C42.2462 48.8976 42.4257 48.4643 42.4257 48.0125V42.6679C42.4257 41.7964 42.7719 40.9607 43.3881 40.3444C44.0043 39.7282 44.8401 39.382 45.7116 39.382H45.8165C46.688 39.382 47.5238 39.7282 48.14 40.3444C48.7562 40.9607 49.1024 41.7964 49.1024 42.6679V48.0125C49.1024 48.4643 49.2819 48.8976 49.6013 49.217C49.9208 49.5365 50.3541 49.716 50.8059 49.716C51.2577 49.716 51.691 49.5365 52.0104 49.217C52.3299 48.8976 52.5094 48.4643 52.5094 48.0125V42.6679C52.5094 40.8921 51.8045 39.1889 50.5496 37.9325C49.2947 36.676 47.5923 35.9691 45.8165 35.967Z" fill="#17262F"></path><path d="M64.2885 35.967H64.1835C62.4077 35.9691 60.7054 36.676 59.4505 37.9325C58.1955 39.1889 57.4907 40.8921 57.4907 42.6679V48.0125C57.5204 48.4451 57.7133 48.8502 58.0302 49.1461C58.3472 49.442 58.7646 49.6066 59.1982 49.6066C59.6318 49.6066 60.0492 49.442 60.3662 49.1461C60.6831 48.8502 60.8759 48.4451 60.9057 48.0125V42.6679C60.9057 41.7978 61.2508 40.9633 61.8653 40.3473C62.4797 39.7313 63.3134 39.3842 64.1835 39.382H64.2885C65.1599 39.382 65.9957 39.7282 66.6119 40.3444C67.2281 40.9607 67.5743 41.7964 67.5743 42.6679V48.0125C67.5743 48.4643 67.7538 48.8976 68.0733 49.217C68.3927 49.5365 68.826 49.716 69.2778 49.716C69.7296 49.716 70.1629 49.5365 70.4824 49.217C70.8018 48.8976 70.9813 48.4643 70.9813 48.0125V42.6679C70.9813 40.8921 70.2764 39.1889 69.0215 37.9325C67.7666 36.676 66.0643 35.9691 64.2885 35.967Z" fill="#17262F"></path><path d="M45.8165 54.6488H45.7116C44.8316 54.6499 43.9605 54.8242 43.1479 55.162C42.3353 55.4997 41.5972 55.9942 40.9757 56.6172C40.3542 57.2402 39.8615 57.9795 39.5257 58.7929C39.19 59.6063 39.0177 60.4778 39.0187 61.3578V66.7105C39.0187 67.1622 39.1982 67.5955 39.5177 67.915C39.8371 68.2345 40.2704 68.4139 40.7222 68.4139C41.174 68.4139 41.6073 68.2345 41.9268 67.915C42.2462 67.5955 42.4257 67.1622 42.4257 66.7105V61.3578C42.4278 60.487 42.7747 59.6524 43.3905 59.0367C44.0062 58.4209 44.8408 58.0741 45.7116 58.0719H45.8165C46.6874 58.0741 47.5219 58.4209 48.1376 59.0367C48.7534 59.6524 49.1003 60.487 49.1024 61.3578V66.7105C49.1024 67.1622 49.2819 67.5955 49.6013 67.915C49.9208 68.2345 50.3541 68.4139 50.8059 68.4139C51.2577 68.4139 51.691 68.2345 52.0104 67.915C52.3299 67.5955 52.5094 67.1622 52.5094 66.7105V61.3578C52.5104 60.4778 52.3382 59.6063 52.0024 58.7929C51.6666 57.9795 51.1739 57.2402 50.5524 56.6172C49.931 55.9942 49.1928 55.4997 48.3803 55.162C47.5677 54.8242 46.6965 54.6499 45.8165 54.6488Z" fill="#17262F"></path><path d="M64.2885 54.6488H64.1835C63.3035 54.6499 62.4324 54.8242 61.6198 55.162C60.8072 55.4997 60.0691 55.9942 59.4476 56.6172C58.8261 57.2402 58.3334 57.9795 57.9977 58.7929C57.6619 59.6063 57.4896 60.4778 57.4907 61.3578V66.7105C57.5204 67.143 57.7133 67.5482 58.0302 67.8441C58.3472 68.14 58.7646 68.3045 59.1982 68.3045C59.6318 68.3045 60.0492 68.14 60.3662 67.8441C60.6831 67.5482 60.876 67.143 60.9057 66.7105V61.3578C60.9057 60.4877 61.2508 59.6532 61.8653 59.0372C62.4797 58.4212 63.3134 58.0741 64.1835 58.0719H64.2885C65.1593 58.0741 65.9938 58.4209 66.6096 59.0367C67.2253 59.6524 67.5722 60.487 67.5743 61.3578V66.7105C67.5743 67.1622 67.7538 67.5955 68.0733 67.915C68.3927 68.2345 68.826 68.4139 69.2778 68.4139C69.7296 68.4139 70.1629 68.2345 70.4824 67.915C70.8018 67.5955 70.9813 67.1622 70.9813 66.7105V61.3578C70.9824 60.4778 70.8101 59.6063 70.4743 58.7929C70.1386 57.9795 69.6459 57.2402 69.0244 56.6172C68.4029 55.9942 67.6648 55.4997 66.8522 55.162C66.0396 54.8242 65.1684 54.6499 64.2885 54.6488Z" fill="#17262F"></path><path d="M108.297 78.2473H102.645V29.3791C102.645 29.1533 102.6 28.9298 102.513 28.7215C102.426 28.5133 102.298 28.3244 102.138 28.1659C101.977 28.0074 101.786 27.8824 101.577 27.7982C101.367 27.7141 101.143 27.6724 100.917 27.6756H86.7971C86.3453 27.6756 85.912 27.8551 85.5925 28.1745C85.2731 28.494 85.0936 28.9273 85.0936 29.3791C85.0936 29.8309 85.2731 30.2642 85.5925 30.5836C85.912 30.9031 86.3453 31.0826 86.7971 31.0826H99.214V78.2473H80.6452V60.0095H82.9299C84.0598 60.0117 85.1428 60.4615 85.9418 61.2604C86.7408 62.0594 87.1906 63.1424 87.1927 64.2723V70.2385C87.1927 70.6903 87.3722 71.1236 87.6916 71.4431C88.0111 71.7625 88.4444 71.942 88.8962 71.942C89.348 71.942 89.7812 71.7625 90.1007 71.4431C90.4202 71.1236 90.5997 70.6903 90.5997 70.2385V64.2723C90.5975 62.2388 89.7888 60.2892 88.3509 58.8513C86.913 57.4134 84.9634 56.6047 82.9299 56.6026H80.6209V40.2782H82.9057C83.4669 40.275 84.0231 40.3826 84.5426 40.5949C85.062 40.8072 85.5344 41.12 85.9327 41.5153C86.331 41.9105 86.6474 42.3806 86.8636 42.8984C87.0798 43.4163 87.1916 43.9717 87.1927 44.5328V50.4991C87.1927 50.9509 87.3722 51.3842 87.6916 51.7036C88.0111 52.0231 88.4444 52.2026 88.8962 52.2026C89.348 52.2026 89.7812 52.0231 90.1007 51.7036C90.4202 51.3842 90.5997 50.9509 90.5997 50.4991V44.5328C90.5954 42.5 89.786 40.5517 88.3485 39.1142C86.9111 37.6768 84.9628 36.8674 82.9299 36.8631H80.6209V3.40697H83.8503C84.3021 3.40697 84.7354 3.2275 85.0548 2.90803C85.3743 2.58857 85.5538 2.15528 85.5538 1.70349C85.5538 1.25169 85.3743 0.818405 85.0548 0.49894C84.7354 0.179474 84.3021 0 83.8503 0L26.1094 0C25.6576 0 25.2243 0.179474 24.9048 0.49894C24.5854 0.818405 24.4059 1.25169 24.4059 1.70349C24.4059 2.15528 24.5854 2.58857 24.9048 2.90803C25.2243 3.2275 25.6576 3.40697 26.1094 3.40697H29.3387V36.8631H27.0943C25.0615 36.8674 23.1132 37.6768 21.6757 39.1142C20.2383 40.5517 19.4289 42.5 19.4246 44.5328V50.4991C19.4246 50.9509 19.6041 51.3842 19.9236 51.7036C20.243 52.0231 20.6763 52.2026 21.1281 52.2026C21.5799 52.2026 22.0132 52.0231 22.3326 51.7036C22.6521 51.3842 22.8316 50.9509 22.8316 50.4991V44.5328C22.8337 43.4037 23.2838 42.3215 24.083 41.5238C24.8822 40.7262 25.9652 40.2782 27.0943 40.2782H29.3791V56.6026H27.0943C25.0609 56.6047 23.1113 57.4134 21.6734 58.8513C20.2355 60.2892 19.4267 62.2388 19.4246 64.2723V70.2385C19.4246 70.6903 19.6041 71.1236 19.9236 71.4431C20.243 71.7625 20.6763 71.942 21.1281 71.942C21.5799 71.942 22.0132 71.7625 22.3326 71.4431C22.6521 71.1236 22.8316 70.6903 22.8316 70.2385V64.2723C22.8337 63.1424 23.2835 62.0594 24.0825 61.2604C24.8814 60.4615 25.9644 60.0117 27.0943 60.0095H29.3791V78.2473H10.8103V31.0826H23.1464C23.5982 31.0826 24.0315 30.9031 24.351 30.5836C24.6705 30.2642 24.8499 29.8309 24.8499 29.3791C24.8499 28.9273 24.6705 28.494 24.351 28.1745C24.0315 27.8551 23.5982 27.6756 23.1464 27.6756H9.08259C8.85821 27.6745 8.63583 27.7178 8.42822 27.8029C8.22061 27.8881 8.03187 28.0134 7.87283 28.1717C7.71379 28.33 7.58759 28.5181 7.50147 28.7253C7.41536 28.9325 7.37103 29.1547 7.37104 29.3791V78.2473H1.71966C1.26787 78.2473 0.834579 78.4268 0.515114 78.7463C0.195648 79.0657 0.0161743 79.499 0.0161743 79.9508C0.0161743 80.4026 0.195648 80.8359 0.515114 81.1554C0.834579 81.4748 1.26787 81.6543 1.71966 81.6543H108.288C108.74 81.6543 109.174 81.4748 109.493 81.1554C109.812 80.8359 109.992 80.4026 109.992 79.9508C109.992 79.499 109.812 79.0657 109.493 78.7463C109.174 78.4268 108.74 78.2473 108.288 78.2473H108.297ZM32.7942 70.2385V3.40697H77.1978V78.2473H32.7942V70.2385Z" fill="#17262F"></path></g><defs><clipPath id="clip0_5678_32901"><rect width="110" height="81.6543" fill="white"></rect></clipPath></defs></svg>