<svg xmlns="http://www.w3.org/2000/svg" width="116" height="100" viewBox="0 0 116 100" fill="none"><g clip-path="url(#clip0_5678_17525)"><path d="M46.1671 87.7793L20.6257 73.0319V37.1433L46.1671 51.9078V87.7793Z" fill="#AC5200"></path><path d="M25.3696 70.66V44.9983L41.4404 54.2626V79.9416L25.3696 70.66Z" stroke="#964007" stroke-width="0.5" stroke-miterlimit="10"></path><path d="M46.1671 87.7793L88.5356 63.1317V27.2603L46.1671 51.9079V87.7793Z" fill="#EB9500"></path><path d="M20.6085 37.1604L46.1671 51.9078L88.5356 27.2601L62.977 12.4956L20.6085 37.1604Z" fill="#F3BF65"></path><path d="M47.3359 32.2277L6.46271 8.61131V3.05957L47.3359 26.6587V32.2277Z" fill="#828282"></path><path d="M52.6298 23.6164L47.3359 26.6586L6.46271 3.05947L11.7394 0L52.6298 23.6164Z" fill="#C8BEB2"></path><path d="M40.8903 35.9401L0 12.3409V6.77197L40.8903 30.3883V35.9401Z" fill="#828282"></path><path d="M46.1671 27.329L40.8903 30.3885L0 6.77212L5.29392 3.71265L46.1671 27.329Z" fill="#C8BEB2"></path><path d="M55.9815 46.1327L37.6246 35.5277V25.0774L55.9815 35.6824V46.1327Z" fill="#0474BA"></path><path d="M55.9814 46.1327L74.3555 35.5277V12.2551L62.341 19.2678L55.9814 35.6824V46.1327Z" fill="#4997FC"></path><path d="M55.9815 35.6823L37.6246 25.0773L43.967 8.64551L62.341 19.2677L55.9815 35.6823Z" fill="#49AEE4"></path><path d="M62.341 19.2679L43.967 8.64568L55.9814 1.65015L74.3554 12.2552L62.341 19.2679Z" fill="#7DC1FF"></path><path d="M90.495 99.9999L57.5971 81.0587V40.9075L90.495 59.8487V99.9999Z" fill="#AC5200"></path><path d="M90.495 100L109.797 88.7762V38.6387L98.6077 45.0842L90.495 59.8487V100Z" fill="#EB9500"></path><path d="M107.872 41.8528V53.6094L104.194 55.7407L103.214 56.3079L102.853 56.5142L98.7453 58.9033L97.4046 59.6768L96.3218 60.3127V52.6984L96.4937 52.389L96.9749 51.5296L99.1406 47.5936L99.7078 46.5451L107.872 41.8528Z" fill="#383E47"></path><path d="M65.6927 26.1429L98.6078 45.0841L109.797 38.6386L76.8993 19.7146L65.6927 26.1429Z" fill="#F3BF65"></path><path d="M65.6927 26.1431L57.5971 40.9076L90.495 59.8488L98.6078 45.0843L65.6927 26.1431Z" fill="#BF6C00"></path><path d="M70.11 40.6152L71.6398 37.8136C71.8011 37.5234 72.018 37.2679 72.278 37.0617C72.5381 36.8554 72.8363 36.7024 73.1556 36.6114C73.4748 36.5204 73.8088 36.4932 74.1386 36.5314C74.4684 36.5696 74.7874 36.6724 75.0774 36.8339L87.8996 44.1732C88.3623 44.4397 88.7013 44.8779 88.8428 45.3928C88.9844 45.9077 88.9173 46.4576 88.6559 46.9232L87.1262 49.7077C86.9651 49.9981 86.748 50.2536 86.4875 50.4594C86.2269 50.6653 85.9281 50.8173 85.6084 50.9069C85.2887 50.9964 84.9543 51.0216 84.6248 50.981C84.2952 50.9403 83.977 50.8347 83.6886 50.6702L70.8835 43.3481C70.4224 43.0846 70.0832 42.6507 69.9385 42.1397C69.7939 41.6287 69.8555 41.0813 70.11 40.6152Z" fill="#383E47"></path><path d="M52.922 28.2914L47.1812 18.7005L49.0375 17.9614L55.5689 21.7256L52.922 28.2914Z" fill="#A1A4A8"></path><path d="M51.0657 29.0479L44.517 25.2665L47.1812 18.7007L53.7298 22.4821L51.0657 29.0479Z" fill="#383E47"></path><path d="M55.5689 21.7256L53.7298 22.4819L51.0657 29.0477L52.922 28.2914L55.5689 21.7256Z" fill="#73777D"></path><path d="M47.6968 21.2959L49.639 25.1804L49.3984 25.8335L46.528 24.1835L47.6968 21.2959Z" fill="#339F48"></path><path d="M48.264 21.571L50.5672 22.9117L49.6391 25.1805L47.3359 23.8571L48.264 21.571Z" fill="#17CF77"></path><path d="M46.528 24.1835L47.3359 23.8569L48.264 21.5709L47.6968 21.2959L46.528 24.1835Z" fill="#2A8D34"></path><path d="M79.0478 24.1836L70.746 29.0478L63.5786 42.6607L87.7449 56.4971L95.1358 43.0904L103.145 38.209L79.0478 24.1836Z" stroke="#A64708" stroke-width="0.5" stroke-miterlimit="10"></path><path d="M87.7106 82.6744L54.933 63.8192V58.3362L87.7106 77.1915V82.6744Z" fill="#356AE6"></path><path d="M87.7106 82.6743L90.495 81.0587V75.5757L87.7106 77.1914V82.6743Z" fill="#4997FC"></path><path d="M54.933 58.3361L87.7106 77.1914L90.495 75.5757L57.7175 56.7205L54.933 58.3361Z" fill="#7DBCFF"></path><path d="M90.495 84.29L112.582 71.5709V66.0879L90.495 78.807V84.29Z" fill="#4997FC"></path><path d="M90.495 84.2901L87.7106 82.6744V77.1914L90.495 78.8071V84.2901Z" fill="#356AE6"></path><path d="M112.582 66.0881L90.495 78.8072L87.7106 77.1916L109.797 64.4724L112.582 66.0881Z" fill="#7DBCFF"></path><path d="M76.7446 42.2827C77.6899 40.667 77.7071 38.8451 76.7446 38.381H76.6243L75.2664 37.5903L71.8288 43.4858L73.307 44.328C74.3039 44.8093 75.8164 43.9155 76.7446 42.2827Z" fill="#6C96AE"></path><path d="M71.9147 43.4342C70.9866 42.9013 71.0038 41.1653 71.9147 39.5325C72.8257 37.8996 74.3554 37.023 75.3523 37.5387C76.3492 38.0543 76.2633 39.8247 75.3523 41.4404C74.4414 43.056 72.8257 43.967 71.9147 43.4342Z" fill="#4D6C7D"></path><path d="M81.5916 45.0671C82.5198 43.4342 82.537 41.6295 81.5916 41.1654H81.4713L80.1134 40.3748L76.6758 46.2703L78.154 47.1125C79.1509 47.5765 80.6463 46.7 81.5916 45.0671Z" fill="#6C96AE"></path><path d="M76.7446 46.2186C75.8336 45.6858 75.8508 43.9326 76.7446 42.317C77.6384 40.7013 79.1853 39.7903 80.1822 40.3231C81.1791 40.856 81.076 42.592 80.1822 44.2248C79.2884 45.8577 77.6728 46.7343 76.7446 46.2186Z" fill="#4D6C7D"></path><path d="M86.4214 47.8514C87.3668 46.2186 87.384 44.4138 86.4214 43.9497C86.4214 43.9497 86.4214 43.9497 86.3011 43.9497L84.9261 43.1763L81.4885 49.0546L82.9666 49.8968C83.9807 50.3609 85.4933 49.4671 86.4214 47.8514Z" fill="#6C96AE"></path><path d="M81.5916 48.986C80.6634 48.4704 80.6806 46.7172 81.5916 45.0843C82.5026 43.4515 84.0323 42.5749 84.9433 43.1077C85.8542 43.6405 85.8542 45.3765 84.9433 47.0094C84.0323 48.6423 82.5026 49.5188 81.5916 48.986Z" fill="#4D6C7D"></path><path d="M110.622 59.4878V61.052L102.853 56.5143L96.3218 52.7158V52.6986L96.4937 52.3892L96.9749 51.5298L104.194 55.7409L110.622 59.4878Z" fill="#828282"></path><path d="M115.108 56.8925L110.622 59.4879L104.194 55.7409L96.9749 51.5298L99.1406 47.5938L107.872 52.6814L115.108 56.8925Z" fill="#C8BEB2"></path><path d="M105.156 62.6331V64.1972L97.4046 59.6768L96.3218 59.058V57.4939L98.7453 58.9033L105.156 62.6331Z" fill="#828282"></path><path d="M109.643 61.6019L105.156 64.1972V62.6331L109.643 60.0549V61.6019Z" fill="#9C9C9C"></path><path d="M115.108 58.4564L110.622 61.0518V59.4877L115.108 56.8923V58.4564Z" fill="#9C9C9C"></path><path d="M109.643 60.055L105.156 62.6332L98.7453 58.9034L96.3218 57.494V52.6985L96.4937 52.3892L103.214 56.308L109.643 60.055Z" fill="#C8BEB2"></path><g style="mix-blend-mode:multiply"><path d="M99.7078 46.5451L99.1406 47.5936L96.9749 51.5296L96.4937 52.389L96.3218 52.6984V56.6173L96.4937 56.3079L96.9749 55.4485L99.0375 52.5437L103.472 49.9827L107.872 45.7717V41.8528L99.7078 46.5451Z" fill="#C4C4C4"></path></g></g><defs><clipPath id="clip0_5678_17525"><rect width="115.108" height="100" fill="white"></rect></clipPath></defs></svg>