<svg xmlns="http://www.w3.org/2000/svg" width="90" height="80" viewBox="0 0 90 80" fill="none"><g clip-path="url(#clip0_5678_33150)"><path d="M31.4248 16.2777C21.4292 12.6429 7.6645 3.01079 5.14387 0.490161C4.91606 0.262072 4.62702 0.104916 4.31173 0.037721C3.99645 -0.0294738 3.66844 -0.00382526 3.36744 0.111561C3.06643 0.226947 2.80533 0.427123 2.61575 0.687849C2.42616 0.948576 2.31623 1.25867 2.29927 1.58059C2.03061 7.11176 1.5091 11.7895 1.01129 15.9063C0.063094 24.1161 -0.687564 30.6034 1.01129 39.3348C3.83219 53.8027 14.1281 62.0916 29.236 62.0916C34.5906 62.0103 39.9085 61.1914 45.0394 59.6578C45.3163 59.5758 45.5674 59.4236 45.7681 59.2159C45.9689 59.0082 46.1125 58.7522 46.1851 58.4726C46.3985 57.5718 46.7066 56.5051 47.0227 55.3672C49.9147 45.0793 55.3116 25.9888 31.4248 16.2777ZM43.8146 54.4348C43.6961 54.8457 43.5776 55.225 43.4669 55.6517C31.9068 49.7808 25.6171 36.8378 22.9147 31.2118C22.4564 30.2715 22.1245 29.5288 21.8085 28.9994C21.7191 28.7836 21.5854 28.589 21.4161 28.4282C21.2467 28.2673 21.0454 28.1439 20.8253 28.0658C20.6051 27.9878 20.3711 27.9568 20.1382 27.975C19.9054 27.9932 19.6789 28.0601 19.4736 28.1714C19.2683 28.2827 19.0886 28.4359 18.9463 28.6211C18.8039 28.8063 18.7021 29.0193 18.6473 29.2463C18.5925 29.4734 18.5861 29.7094 18.6284 29.9391C18.6707 30.1688 18.7607 30.387 18.8928 30.5797C19.1377 31.0301 19.4775 31.7334 19.9121 32.6262C22.6145 38.2285 28.6671 50.7369 39.9033 57.4691C36.4035 58.2768 32.8275 58.7085 29.236 58.7571C10.9358 58.7571 5.74439 46.1934 4.29049 38.7184C2.71015 30.4849 3.4134 24.2268 4.32999 16.3093C4.71718 12.9827 5.12016 9.29262 5.43623 5.06523C10.6276 9.01606 21.5003 16.2382 30.2238 19.3988C51.2738 27.9564 46.6197 44.5261 43.8146 54.4348Z" fill="#17262F"></path><path d="M62.6444 64.9043C58.5751 64.9043 53.8815 63.6401 48.4214 61.1036C48.0327 60.909 47.7353 60.5703 47.5927 60.1597C47.4501 59.749 47.4735 59.2989 47.6579 58.9053C47.8424 58.5116 48.1733 58.2056 48.5801 58.0524C48.987 57.8992 49.4375 57.911 49.8358 58.0852C57.6585 61.7437 63.8613 62.5022 68.2625 60.3293C73.9122 57.5479 76.1642 50.2941 77.4837 44.281C79.0641 36.964 82.446 25.2538 85.338 16.6251C81.0474 18.4346 76.4565 18.9956 69.0053 19.8253C65.5838 20.2283 61.712 20.6787 56.892 21.3345C53.7051 21.7079 50.6214 22.6982 47.813 24.2502C47.4305 24.4734 46.9751 24.5355 46.5468 24.4229C46.1186 24.3103 45.7526 24.0322 45.5294 23.6497C45.3062 23.2673 45.2441 22.8118 45.3567 22.3835C45.4693 21.9553 45.7475 21.5893 46.1299 21.3661C49.3078 19.6032 52.7953 18.4685 56.4021 18.0237C61.2932 17.3837 65.2046 16.9096 68.6655 16.5145C78.1475 15.4162 82.4539 14.9342 87.4478 11.7735C87.7427 11.5922 88.0866 11.5067 88.4321 11.5288C88.7776 11.5509 89.1077 11.6795 89.3772 11.897C89.6466 12.1144 89.842 12.41 89.9366 12.743C90.0311 13.0761 90.0201 13.4303 89.9052 13.7568C86.312 24.015 83.2682 34.4574 80.7866 45.0395C79.2932 51.7797 76.7015 59.95 69.7717 63.3635C67.548 64.424 65.1076 64.9516 62.6444 64.9043Z" fill="#17262F"></path><path d="M51.8666 47.7814C51.5403 47.7825 51.2208 47.6878 50.9478 47.5091C50.6748 47.3304 50.4602 47.0756 50.3307 46.7761C50.2011 46.4766 50.1623 46.1457 50.219 45.8244C50.2757 45.5031 50.4255 45.2054 50.6497 44.9684C56.4337 38.8446 62.194 33.8429 66.8718 30.8876C67.2469 30.6519 67.7004 30.5748 68.1323 30.6733C68.5643 30.7719 68.9394 31.038 69.1752 31.4131C69.4109 31.7882 69.488 32.2416 69.3895 32.6736C69.2909 33.1055 69.0248 33.4807 68.6497 33.7164C64.2011 36.5215 58.6699 41.3336 53.0755 47.2599C52.9208 47.4254 52.7336 47.5572 52.5255 47.647C52.3175 47.7367 52.0931 47.7825 51.8666 47.7814Z" fill="#17262F"></path><path d="M37.4697 79.151H37.3828C36.9412 79.1265 36.5271 78.9283 36.2311 78.5996C35.935 78.271 35.7809 77.8386 35.8025 77.3968C36.1732 72.6407 37.0987 67.9442 38.5601 63.403C38.6111 63.177 38.7086 62.9642 38.8463 62.778C38.9841 62.5919 39.1591 62.4364 39.3603 62.3217C39.5615 62.2069 39.7843 62.1353 40.0147 62.1114C40.245 62.0875 40.4779 62.1119 40.6983 62.183C40.9187 62.2541 41.1219 62.3703 41.2949 62.5243C41.4679 62.6783 41.607 62.8666 41.7032 63.0772C41.7994 63.2879 41.8506 63.5163 41.8537 63.7479C41.8567 63.9795 41.8115 64.2092 41.7208 64.4223C40.3592 68.6925 39.487 73.1036 39.1212 77.5707C39.099 77.9949 38.9158 78.3947 38.6089 78.6884C38.302 78.9821 37.8945 79.1475 37.4697 79.151Z" fill="#17262F"></path></g><defs><clipPath id="clip0_5678_33150"><rect width="90" height="79.151" fill="white"></rect></clipPath></defs></svg>