<svg xmlns="http://www.w3.org/2000/svg" width="85" height="110" viewBox="0 0 85 110" fill="none"><g clip-path="url(#clip0_5678_17917)"><path d="M44.2763 45.6192L43.153 44.9736C43.153 44.9736 45.7354 40.4414 43.7728 37.2262C42.6752 35.4056 42.2104 35.2635 42.1845 35.2506C42.2329 35.2599 42.283 35.255 42.3288 35.2367C42.3745 35.2184 42.4141 35.1874 42.4428 35.1473L41.1516 34.8891C41.1899 34.6696 41.2926 34.4665 41.4466 34.3056C41.6007 34.1446 41.7991 34.0331 42.0167 33.9852C42.8302 33.8432 43.6695 34.605 44.8574 36.5677C47.2333 40.4285 44.3925 45.3997 44.2763 45.6192Z" fill="black"></path><path d="M42.0554 45.1931L40.932 44.5475C40.932 44.5475 43.5145 40.0282 41.5518 36.8001C40.4543 35.0182 40.0282 34.8632 40.0282 34.8632C40.0765 34.8709 40.1261 34.8654 40.1715 34.8472C40.217 34.829 40.2567 34.7989 40.2864 34.7599L38.9952 34.5017C39.0319 34.2815 39.134 34.0776 39.2883 33.9163C39.4426 33.7551 39.642 33.6441 39.8603 33.5978C40.648 33.4429 41.5131 34.2176 42.6881 36.1803C45.0123 40.0282 42.1716 44.9865 42.0554 45.1931Z" fill="black"></path><path d="M51.249 80.5212V82.7163C51.249 82.9358 51.0295 83.1166 50.7196 83.1941H50.6163H49.9965H49.8932H49.7899H49.7124C49.6826 83.2 49.6519 83.2 49.622 83.1941C49.616 83.1686 49.616 83.1421 49.622 83.1166V80.9215C49.622 80.7537 49.777 80.5858 50.0223 80.4954H50.1127C50.3839 80.4265 50.6679 80.4265 50.9391 80.4954C51.0295 80.1339 51.249 80.3146 51.249 80.5212Z" fill="#6D7A87"></path><path d="M52.3594 76.57V81.3476C52.3594 81.8124 51.8946 82.1998 51.2102 82.3935H50.9778H50.8874H50.7454H50.5388H50.061H49.8674H49.7253H49.6349H49.4025H49.2863C49.2147 82.3755 49.1454 82.3495 49.0797 82.316L48.9248 82.2385H48.8473L48.6665 82.0965L48.5761 81.9932L48.4987 81.9028V81.8254C48.4987 81.8254 48.4987 81.8254 48.4987 81.7479C48.4915 81.6922 48.4915 81.6357 48.4987 81.58V76.57C48.4987 76.1827 48.8473 75.834 49.3638 75.6274H49.5575H49.6479C50.2405 75.4727 50.8629 75.4727 51.4556 75.6274C51.8946 75.7178 52.3594 76.1827 52.3594 76.57Z" fill="#9E9E9E"></path><path d="M48.2533 81.3476C48.2462 81.4033 48.2462 81.4598 48.2533 81.5155C48.2533 81.5155 48.2533 81.5155 48.2533 81.5929V81.6704L48.3308 81.7608L48.4212 81.8641L48.602 82.0061H48.6794L48.8344 82.0836H48.9893V79.0621H48.008L48.2533 81.3476Z" fill="#909090"></path><path d="M53.6507 71.1468V78.8942C53.6507 79.6431 52.8888 80.2887 51.7784 80.5986L51.4039 80.689H51.2619H51.0166H50.6938H49.919H49.5962H49.3509H49.2088L48.8344 80.5986L48.6407 80.5341L48.305 80.405H48.1888L47.9434 80.2758L47.7756 80.2113L47.4657 79.9788H47.3882L47.2333 79.8239L47.117 79.656L47.0396 79.5398C47.0342 79.4926 47.0342 79.445 47.0396 79.3978C47.0396 79.3978 47.0396 79.3978 47.0396 79.3203C47.0332 79.23 47.0332 79.1394 47.0396 79.0492V71.3018C47.0396 70.6691 47.5948 70.1009 48.447 69.7652L48.7569 69.649H48.9119C49.8762 69.3909 50.8915 69.3909 51.8559 69.649C52.9405 69.7265 53.6507 70.3979 53.6507 71.1468Z" fill="#AC5200"></path><path d="M46.9621 78.933C46.9557 79.0232 46.9557 79.1139 46.9621 79.2041C46.9621 79.2041 46.9621 79.2041 46.9621 79.2816C46.9567 79.3288 46.9567 79.3764 46.9621 79.4236L47.0395 79.5398L47.1557 79.7077L47.3107 79.8627H47.3882L47.6981 80.0951L47.8143 80.1596L48.0596 80.2888H48.1758L48.5115 80.4179L48.7052 80.4824L49.0797 80.5728H49.2217H49.4671H49.6478V73.8713H46.9621V78.933Z" fill="#A14D00"></path><path d="M74.659 78.1195L55.2518 66.9245V65.5171L74.659 76.7121V78.1195Z" fill="#3D607D"></path><path d="M74.659 78.1195L84.8597 72.2444V70.8369L74.659 76.712V78.1195Z" fill="#498699"></path><path d="M55.2518 65.517L74.659 76.712L84.8726 70.8369L65.4654 59.629L55.2518 65.517Z" fill="#65C0C9"></path><path d="M65.0006 67.0665L61.4626 65.0135V2.02722L65.0006 4.06737V67.0665Z" fill="#0091B5"></path><path d="M65.0006 67.0665L68.5386 65.0135V2.02722L65.0006 4.06737V67.0665Z" fill="#72BDF4"></path><path d="M70.0622 69.9848L66.5242 67.9317V4.94543L70.0622 6.98558V69.9848Z" fill="#0091B5"></path><path d="M70.0622 69.9848L73.6002 67.9317V4.94543L70.0622 6.98558V69.9848Z" fill="#72BDF4"></path><path d="M75.4079 73.0707L71.8699 71.0306V8.04431L75.4079 10.0845V73.0707Z" fill="#0091B5"></path><path d="M75.4079 73.0707L78.9459 71.0306V8.04431L75.4079 10.0845V73.0707Z" fill="#72BDF4"></path><path d="M50.9262 79.2428L44.3409 75.4337V74.4265L50.9262 78.2227V79.2428Z" fill="#401604"></path><path d="M50.9261 79.2428L56.2718 76.1568V75.1367L50.9261 78.2228V79.2428Z" fill="#5C1704"></path><path d="M44.3409 74.4266L50.9262 78.2228L56.2719 75.1368L49.6866 71.3406L44.3409 74.4266Z" fill="#8C1F0A"></path><path d="M54.5029 64.3937C53.8185 63.2058 52.708 62.5472 52.0366 62.9346H51.9591L50.952 63.5157L53.457 67.8542L54.5287 67.2215C55.213 66.8858 55.2001 65.5946 54.5029 64.3937Z" fill="#6E6E6E"></path><path d="M53.457 67.9059C52.7727 68.2932 51.6751 67.6347 50.9778 66.4468C50.2806 65.2588 50.2806 63.9676 50.9778 63.5673C51.6751 63.167 52.7597 63.8385 53.457 65.0264C54.1543 66.2144 54.1285 67.5056 53.457 67.9059Z" fill="#3D3D3D"></path><path d="M45.8645 54.929C44.8832 53.2375 43.2821 52.3466 42.3653 52.8631L42.2491 52.9405L40.8287 53.754L44.3667 59.8874L45.9033 58.9964C46.8588 58.4412 46.833 56.6205 45.8645 54.929Z" fill="#6E6E6E"></path><path d="M44.3667 59.8873C43.4112 60.4296 41.7843 59.5128 40.8675 57.8213C39.9507 56.1298 39.8733 54.3092 40.8675 53.7539C41.8617 53.1987 43.3854 54.1284 44.3667 55.8199C45.3481 57.5114 45.3223 59.3966 44.3667 59.8873Z" fill="#3D3D3D"></path><path d="M53.0954 75.4983L49.5574 73.4452V63.7094L53.0954 65.7495V75.4983Z" fill="#AC5200"></path><path d="M53.0955 75.4983L53.8444 75.0722V65.3234L53.0955 65.7495V75.4983Z" fill="#EB8E00"></path><path d="M43.579 56.2461V60.3264L53.0954 69.8428V65.7496L43.579 56.2461Z" fill="#AC5200"></path><path d="M44.0181 56.9691C43.6049 56.2589 42.9464 55.8715 42.5461 56.104L39.9636 57.5889L41.4485 60.1713L44.1343 58.6606C44.4313 58.454 44.4313 57.6922 44.0181 56.9691Z" fill="#6E6E6E"></path><path d="M43.579 56.2461L44.328 55.8199L53.8443 65.3234L53.0954 65.7495L43.579 56.2461Z" fill="#EB8E00"></path><path d="M52.5015 65.8528C52.0883 65.1297 51.4298 64.7423 51.0295 64.9747L48.447 66.4467L49.9319 69.0292L52.6177 67.5184C52.9405 67.3377 52.9405 66.5758 52.5015 65.8528Z" fill="#6E6E6E"></path><path d="M50.3064 77.1123L46.7684 75.0722V65.3234L50.3064 67.3764V77.1123Z" fill="#AC5200"></path><path d="M50.3064 77.1123L51.0553 76.6862V66.9503L50.3064 67.3764V77.1123Z" fill="#EB8E00"></path><path d="M40.79 57.8601V61.9404L50.3064 71.4568V67.3765L40.79 57.8601Z" fill="#AC5200"></path><path d="M40.79 57.8601L41.5389 57.434L51.0553 66.9503L50.3064 67.3764L40.79 57.8601Z" fill="#EB8E00"></path><path d="M26.2895 49.2862L14.0486 42.2103V28.0842L26.2895 35.1473V49.2862Z" fill="#AC5200"></path><path d="M26.2895 49.2862L38.5304 42.2103V28.0842L26.2895 35.1473V49.2862Z" fill="#EB9500"></path><path d="M14.0486 28.0842L26.2895 35.1473L38.5303 28.0842L26.2895 21.0083L14.0486 28.0842Z" fill="#676F70"></path><path d="M32.4099 52.8243L26.2895 51.3394V44.2634L32.4099 47.8014V52.8243Z" fill="#AC5200"></path><path d="M32.4099 52.8242L44.6379 45.7483L42.9334 41.7455L32.4099 47.8014V52.8242Z" fill="#EB8E00"></path><path d="M26.2895 44.2634L32.4099 47.8014L42.9464 41.7455L36.8259 38.2075L26.2895 44.2634Z" fill="#F0BE3A"></path><path d="M27.1804 44.7928L11.4403 35.6896V34.308L27.1804 43.4112V44.7928Z" fill="#3C3E40"></path><path d="M27.1804 44.7928L42.9334 35.6896V34.308L27.1804 43.4112V44.7928Z" fill="#555A5C"></path><path d="M11.4274 34.308L27.1804 43.4112L42.9463 34.308L27.1933 25.2178L11.4274 34.308Z" fill="#858B8C"></path><path d="M10.2394 27.8906L25.9925 18.8003L27.1933 19.4846L11.4403 28.5878L10.2394 27.8906Z" fill="#858B8C"></path><path d="M10.2394 27.8906V35.0053L11.4403 35.6897V28.5879L10.2394 27.8906Z" fill="#3C3E40"></path><path d="M27.1804 19.4846L11.4403 28.5878V35.7025L27.1804 26.5993V19.4846Z" fill="#5E6667"></path><path d="M19.4072 110L0 98.805V97.3846L19.4072 108.593V110Z" fill="#3D607D"></path><path d="M19.4072 110L29.6209 104.125V102.717L19.4072 108.593V110Z" fill="#498699"></path><path d="M0 97.3975L19.4072 108.593L29.6208 102.717L10.2136 91.5095L0 97.3975Z" fill="#65C0C9"></path><path d="M8.70289 99.5798L5.16492 97.5396V34.5533L8.70289 36.5935V99.5798Z" fill="#0091B5"></path><path d="M8.70288 99.5798L12.2279 97.5396V34.5533L8.70288 36.5935V99.5798Z" fill="#72BDF4"></path><path d="M8.69 40.6867V36.6064L68.5257 2.04016V6.12045L8.69 40.6867Z" fill="#72BDF4"></path><path d="M13.7516 102.498L10.2136 100.458V37.4716L13.7516 39.5117V102.498Z" fill="#0091B5"></path><path d="M13.7516 102.498L17.2896 100.458V37.4716L13.7516 39.5117V102.498Z" fill="#72BDF4"></path><path d="M14.0486 43.7728V39.6796L73.8842 5.12622V9.20651L14.0486 43.7728Z" fill="#72BDF4"></path><path d="M19.1102 105.597L15.5723 103.557V40.5704L19.1102 42.6106V105.597Z" fill="#0091B5"></path><path d="M15.5723 40.5705L19.1102 42.6107L78.9459 8.04442L75.4079 6.00427L15.5723 40.5705Z" fill="#A0D6E3"></path><path d="M10.5106 37.6523L14.0486 39.6796L73.8843 5.1262L70.3463 3.08606L10.5106 37.6523Z" fill="#A0D6E3"></path><path d="M5.15204 34.5663L8.69001 36.6064L68.5257 2.04015L65.0006 0L5.15204 34.5663Z" fill="#A0D6E3"></path><path d="M19.1102 105.597L22.6353 103.557V40.5704L19.1102 42.6106V105.597Z" fill="#72BDF4"></path><path d="M19.0973 46.6909L19.1102 42.6106L78.9459 8.04431V12.1246L19.0973 46.6909Z" fill="#72BDF4"></path><path d="M27.1804 39.0598L11.4403 29.9695V28.5879L27.1804 37.6782V39.0598Z" fill="#3C3E40"></path><path d="M27.1804 39.0598L42.9334 29.9695V28.5879L27.1804 37.6782V39.0598Z" fill="#555A5C"></path><path d="M11.4274 28.5878L27.1804 37.6781L42.9463 28.5878L27.1933 19.4846L11.4274 28.5878Z" fill="#858B8C"></path><path d="M27.1804 37.6782L42.9334 28.5879L44.1343 29.2722L28.3813 38.3754L27.1804 37.6782Z" fill="#858B8C"></path><path d="M27.1804 37.6781L27.1933 44.7928L28.3813 45.4771V38.3754L27.1804 37.6781Z" fill="#3C3E40"></path><path d="M44.1343 29.2722L28.3813 38.3754V45.4901L44.1343 36.3869V29.2722Z" fill="#5E6667"></path><path d="M40.79 57.86L44.328 55.8199V46.084L40.79 48.1241V57.86Z" fill="#EB8E00"></path><path d="M37.252 50.0094V55.82L40.79 57.8601V48.1242L40.6609 48.0468L37.252 50.0094Z" fill="#AC5200"></path><path d="M40.79 57.8601C39.8216 56.1686 38.2075 55.2776 37.2907 55.7941L37.1874 55.8716L35.7671 56.685L39.3051 62.8184L40.8287 61.9791C41.7842 61.3722 41.7713 59.5516 40.79 57.8601Z" fill="#6E6E6E"></path><path d="M39.3051 62.8184C38.3496 63.3737 36.7226 62.444 35.8059 60.7525C34.8891 59.0609 34.8116 57.2403 35.8059 56.6851C36.8001 56.1298 38.3238 57.0595 39.3051 58.751C40.2864 60.4426 40.2606 62.2632 39.3051 62.8184Z" fill="#3D3D3D"></path><path d="M40.0281 44.0052C41.0224 42.2879 42.6106 41.3453 43.5919 41.9005L43.7082 41.978L45.1543 42.8173L41.5389 49.0669L40.0281 48.163C38.9952 47.5948 39.021 45.7355 40.0281 44.0052Z" fill="#737373"></path><path d="M45.1111 46.9589C46.1095 45.2296 46.1278 43.3711 45.152 42.8077C44.1763 42.2444 42.5759 43.1895 41.5775 44.9187C40.5791 46.648 40.5608 48.5065 41.5366 49.0699C42.5124 49.6332 44.1128 48.6881 45.1111 46.9589Z" fill="#616161"></path><path d="M46.4843 74.8915L45.8258 74.7753C46.2519 72.2832 46.9234 65.543 44.9478 64.4454C43.7074 63.7826 42.6353 62.8444 41.8139 61.7029C40.9924 60.5614 40.4434 59.2468 40.209 57.8601C39.7829 56.2977 39.4859 55.1615 38.0913 54.787C37.2859 54.6194 36.5472 54.2194 35.9666 53.6365C35.386 53.0536 34.989 52.3134 34.8245 51.5073L35.4443 51.1328C35.5382 51.867 35.8626 52.5526 36.3707 53.0909C36.8788 53.6291 37.5445 53.9924 38.2721 54.1285C40.0411 54.6062 40.4285 56.0395 40.8546 57.6923C41.0729 58.969 41.5764 60.18 42.3275 61.2352C43.0787 62.2905 44.0582 63.1626 45.1931 63.7869C47.9951 65.3364 46.6135 73.8714 46.4843 74.8915Z" fill="black"></path><path d="M49.919 66.8341C49.2346 65.6333 48.1242 64.9748 47.4527 65.3751C47.4273 65.369 47.4007 65.369 47.3753 65.3751L46.3681 65.9432L48.8602 70.2817L49.9448 69.649C50.6163 69.3133 50.6033 68.0221 49.919 66.8341Z" fill="#6E6E6E"></path><path d="M48.8602 70.3334C48.1888 70.7207 47.0783 70.0622 46.394 68.8743C45.7096 67.6863 45.6838 66.3951 46.394 65.9948C47.1041 65.5945 48.1759 66.266 48.8602 67.4539C49.5446 68.6418 49.5446 69.946 48.8602 70.3334Z" fill="#3D3D3D"></path></g><defs><clipPath id="clip0_5678_17917"><rect width="84.8726" height="110" fill="white"></rect></clipPath></defs></svg>