<svg xmlns="http://www.w3.org/2000/svg" width="68" height="95" viewBox="0 0 68 95" fill="none"><g clip-path="url(#clip0_5678_33017)"><path d="M11.1118 64.7392C10.6679 64.7392 10.2422 64.5628 9.9283 64.2489C9.61441 63.935 9.43806 63.5093 9.43806 63.0654V31.9345C9.46624 31.5108 9.65444 31.1136 9.96455 30.8234C10.2747 30.5332 10.6835 30.3718 11.1082 30.3718C11.5329 30.3718 11.9417 30.5332 12.2518 30.8234C12.5619 31.1136 12.7501 31.5108 12.7783 31.9345V63.0654C12.7783 63.508 12.6029 63.9326 12.2906 64.2463C11.9783 64.56 11.5545 64.7372 11.1118 64.7392Z" fill="#17262F"></path><path d="M17.63 64.7392C17.1861 64.7392 16.7604 64.5628 16.4465 64.2489C16.1326 63.935 15.9562 63.5093 15.9562 63.0654V31.9345C15.9562 31.4906 16.1326 31.0649 16.4465 30.751C16.7604 30.4371 17.1861 30.2607 17.63 30.2607C18.0739 30.2607 18.4997 30.4371 18.8135 30.751C19.1274 31.0649 19.3038 31.4906 19.3038 31.9345V63.0654C19.3038 63.5093 19.1274 63.935 18.8135 64.2489C18.4997 64.5628 18.0739 64.7392 17.63 64.7392Z" fill="#17262F"></path><path d="M24.1482 64.7392C23.7055 64.7372 23.2817 64.56 22.9694 64.2463C22.6571 63.9326 22.4817 63.508 22.4818 63.0654V31.9345C22.5099 31.5108 22.6981 31.1136 23.0082 30.8234C23.3183 30.5332 23.7272 30.3718 24.1518 30.3718C24.5765 30.3718 24.9854 30.5332 25.2955 30.8234C25.6056 31.1136 25.7938 31.5108 25.8219 31.9345V63.0654C25.8219 63.5093 25.6456 63.935 25.3317 64.2489C25.0178 64.5628 24.5921 64.7392 24.1482 64.7392Z" fill="#17262F"></path><path d="M30.6737 64.7392C30.2298 64.7392 29.8041 64.5628 29.4902 64.2489C29.1763 63.935 28.9999 63.5093 28.9999 63.0654V31.9345C29.0281 31.5108 29.2163 31.1136 29.5264 30.8234C29.8365 30.5332 30.2453 30.3718 30.67 30.3718C31.0947 30.3718 31.5035 30.5332 31.8136 30.8234C32.1237 31.1136 32.3119 31.5108 32.3401 31.9345V63.0654C32.3401 63.508 32.1648 63.9326 31.8525 64.2463C31.5402 64.56 31.1163 64.7372 30.6737 64.7392Z" fill="#17262F"></path><path d="M37.1919 64.7392C36.7479 64.7392 36.3222 64.5628 36.0083 64.2489C35.6944 63.935 35.5181 63.5093 35.5181 63.0654V31.9345C35.5463 31.5108 35.7345 31.1136 36.0446 30.8234C36.3547 30.5332 36.7635 30.3718 37.1882 30.3718C37.6129 30.3718 38.0217 30.5332 38.3318 30.8234C38.6419 31.1136 38.8301 31.5108 38.8583 31.9345V63.0654C38.8583 63.508 38.6829 63.9326 38.3706 64.2463C38.0583 64.56 37.6345 64.7372 37.1919 64.7392Z" fill="#17262F"></path><path d="M43.71 64.7392C43.4896 64.7401 43.2712 64.6976 43.0672 64.6139C42.8633 64.5302 42.6779 64.4071 42.5217 64.2515C42.3655 64.096 42.2416 63.9112 42.157 63.7076C42.0724 63.5041 42.0289 63.2858 42.0289 63.0654V31.9345C42.0289 31.4906 42.2052 31.0649 42.5191 30.751C42.833 30.4371 43.2587 30.2607 43.7027 30.2607C44.1466 30.2607 44.5723 30.4371 44.8862 30.751C45.2001 31.0649 45.3764 31.4906 45.3764 31.9345V63.0654C45.3764 63.508 45.2011 63.9326 44.8888 64.2463C44.5765 64.56 44.1527 64.7372 43.71 64.7392Z" fill="#17262F"></path><path d="M50.2282 64.7392C49.7856 64.7372 49.3617 64.56 49.0494 64.2463C48.7371 63.9326 48.5618 63.508 48.5618 63.0654V31.9345C48.59 31.5108 48.7782 31.1136 49.0883 30.8234C49.3984 30.5332 49.8072 30.3718 50.2319 30.3718C50.6566 30.3718 51.0654 30.5332 51.3755 30.8234C51.6856 31.1136 51.8738 31.5108 51.902 31.9345V63.0654C51.902 63.5093 51.7256 63.935 51.4117 64.2489C51.0978 64.5628 50.6721 64.7392 50.2282 64.7392Z" fill="#17262F"></path><path d="M56.7758 64.7392C56.3319 64.7392 55.9062 64.5628 55.5923 64.2489C55.2784 63.935 55.1021 63.5093 55.1021 63.0654V31.9345C55.1302 31.5108 55.3184 31.1136 55.6285 30.8234C55.9387 30.5332 56.3475 30.3718 56.7722 30.3718C57.1969 30.3718 57.6057 30.5332 57.9158 30.8234C58.2259 31.1136 58.4141 31.5108 58.4423 31.9345V63.0654C58.4423 63.508 58.2669 63.9326 57.9546 64.2463C57.6423 64.56 57.2185 64.7372 56.7758 64.7392Z" fill="#17262F"></path><path d="M60.6248 9.79179H46.7553V4.48288C46.7054 3.24668 46.1675 2.08066 45.2594 1.24033C44.3514 0.400006 43.1473 -0.046087 41.9109 -0.000197771H25.9473C24.7115 -0.0441267 23.5084 0.402632 22.6008 1.24255C21.6932 2.08248 21.1547 3.24735 21.1029 4.48288V9.79179H7.23339C3.24433 9.79179 0 12.7412 0 16.4279V79.7514C0 82.7819 2.68395 85.2447 5.98727 85.2447H21.1029V90.5536C21.1547 91.7891 21.6932 92.954 22.6008 93.7939C23.5084 94.6338 24.7115 95.0806 25.9473 95.0367H41.9109C43.1473 95.0826 44.3514 94.6365 45.2594 93.7961C46.1675 92.9558 46.7054 91.7898 46.7553 90.5536V85.2447H61.8709C65.1742 85.2447 67.8582 82.7819 67.8582 79.7514V16.3911C67.8361 12.7559 64.6139 9.79179 60.6248 9.79179ZM3.34019 28.0191H64.5401V66.9806H3.34019V28.0191ZM24.4431 4.48288C24.4431 3.86351 25.1362 3.33999 25.9178 3.33999H41.9109C42.7294 3.33999 43.3856 3.86351 43.3856 4.48288V9.79179H24.4431V4.48288ZM3.34019 16.3911C3.34019 14.5993 5.08771 13.132 7.23339 13.132H60.6248C62.7705 13.132 64.518 14.6067 64.518 16.3911V24.6789H3.31807L3.34019 16.3911ZM43.4151 90.5167C43.4151 91.1361 42.7294 91.6596 41.9404 91.6596H25.9473C25.1362 91.6596 24.4726 91.1361 24.4726 90.5167V85.2078H43.4151V90.5167ZM64.518 79.7146C64.518 80.9017 63.3309 81.8676 61.8709 81.8676H5.98727C4.51257 81.8676 3.34019 80.9017 3.34019 79.7146V70.3207H64.5401L64.518 79.7146Z" fill="#17262F"></path></g><defs><clipPath id="clip0_5678_33017"><rect width="67.8582" height="95" fill="white"></rect></clipPath></defs></svg>