<svg xmlns="http://www.w3.org/2000/svg" width="111" height="85" viewBox="0 0 111 85" fill="none"><g clip-path="url(#clip0_5678_33206)"><path d="M43.0148 13.2559C43.0148 12.1166 42.677 11.0029 42.044 10.0556C41.4111 9.10837 40.5115 8.37006 39.4589 7.93408C38.4064 7.4981 37.2482 7.38403 36.1308 7.60629C35.0134 7.82855 33.987 8.37716 33.1814 9.18275C32.3758 9.98834 31.8272 11.0147 31.605 12.1321C31.3827 13.2495 31.4968 14.4077 31.9328 15.4602C32.3687 16.5128 33.107 17.4124 34.0543 18.0454C35.0016 18.6783 36.1153 19.0161 37.2546 19.0161C38.7823 19.0161 40.2474 18.4093 41.3277 17.329C42.4079 16.2487 43.0148 14.7836 43.0148 13.2559ZM34.5976 13.2559C34.5962 12.7227 34.7531 12.201 35.0485 11.7571C35.3438 11.3131 35.7643 10.9668 36.2567 10.7621C36.749 10.5574 37.2911 10.5035 37.8141 10.6072C38.3372 10.7108 38.8177 10.9675 39.1947 11.3445C39.5718 11.7215 39.8284 12.202 39.9321 12.7251C40.0358 13.2481 39.9818 13.7902 39.7771 14.2825C39.5724 14.7749 39.2261 15.1954 38.7822 15.4908C38.3382 15.7861 37.8166 15.943 37.2834 15.9416C36.5716 15.9397 35.8896 15.6561 35.3864 15.1529C34.8831 14.6496 34.5995 13.9676 34.5976 13.2559Z" fill="#17262F"></path><path d="M37.2834 38.9971C37.6877 38.9944 38.0751 38.8342 38.3634 38.5507C50.9712 25.9213 50.5608 13.6807 50.5392 13.2559C50.4684 9.79408 49.046 6.49736 46.576 4.07076C44.1061 1.64417 40.7847 0.280329 37.3221 0.270923C33.8596 0.261517 30.5309 1.60729 28.0477 4.02043C25.5646 6.43357 24.1243 9.72251 24.0347 13.1839C24.0347 13.7023 23.6027 25.9357 36.2105 38.5507C36.4962 38.8338 36.8812 38.994 37.2834 38.9971ZM27.0733 13.2559C27.0775 11.9132 27.3462 10.5845 27.864 9.34561C28.3817 8.10675 29.1384 6.982 30.0909 6.03557C31.0433 5.08915 32.1728 4.33959 33.415 3.8297C34.6571 3.3198 35.9875 3.05955 37.3302 3.0638C38.6729 3.06806 40.0016 3.33674 41.2404 3.85449C42.4793 4.37225 43.604 5.12896 44.5505 6.0814C45.4969 7.03383 46.2465 8.16336 46.7563 9.40548C47.2662 10.6476 47.5265 11.978 47.5222 13.3207C47.5222 13.4287 47.8175 24.078 37.305 35.2889C26.7781 24.078 27.0661 13.4287 27.0733 13.2559Z" fill="#17262F"></path><path d="M49.7471 35.3178C50.041 35.5961 50.4329 35.747 50.8376 35.7375C51.2422 35.7281 51.6267 35.5591 51.9072 35.2674L67.3016 19.1746L82.2711 35.2818C82.4076 35.429 82.5718 35.5479 82.7543 35.6316C82.9368 35.7153 83.134 35.7622 83.3347 35.7695C83.5353 35.7769 83.7355 35.7446 83.9236 35.6745C84.1118 35.6044 84.2843 35.4978 84.4312 35.361C84.7269 35.0843 84.9012 34.7019 84.916 34.2972C84.9308 33.8926 84.785 33.4984 84.5104 33.2009L77.4252 25.5901V16.9497C77.4252 16.5468 77.2652 16.1603 76.9803 15.8754C76.6953 15.5905 76.3089 15.4304 75.906 15.4304C75.503 15.4304 75.1166 15.5905 74.8317 15.8754C74.5468 16.1603 74.3867 16.5468 74.3867 16.9497V22.3211L68.4032 15.92C68.2608 15.7705 68.0901 15.6509 67.9009 15.568C67.7118 15.4852 67.508 15.4409 67.3016 15.4376C67.0971 15.4384 66.8949 15.4802 66.7068 15.5606C66.5188 15.641 66.3489 15.7583 66.2071 15.9056L49.6823 33.1649C49.4063 33.4594 49.2581 33.8512 49.2703 34.2547C49.2824 34.6582 49.4539 35.0404 49.7471 35.3178Z" fill="#17262F"></path><path d="M109.992 50.8416L101.258 39.0763C101.118 38.8853 100.935 38.7303 100.724 38.6239C100.512 38.5175 100.278 38.4628 100.042 38.4642H81.047V35.2025C81.047 34.7995 80.8869 34.4131 80.602 34.1282C80.3171 33.8433 79.9307 33.6832 79.5277 33.6832C79.1248 33.6832 78.7384 33.8433 78.4535 34.1282C78.1685 34.4131 78.0085 34.7995 78.0085 35.2025V36.7577H62.9598C62.574 36.7843 62.2126 36.9563 61.9487 37.2389C61.6848 37.5216 61.5381 37.8939 61.5381 38.2806C61.5381 38.6673 61.6848 39.0396 61.9487 39.3223C62.2126 39.605 62.574 39.7769 62.9598 39.8035H78.0085V46.3486H62.9598C62.5568 46.3486 62.1704 46.5087 61.8855 46.7936C61.6006 47.0785 61.4405 47.4649 61.4405 47.8679C61.4405 48.2708 61.6006 48.6572 61.8855 48.9422C62.1704 49.2271 62.5568 49.3871 62.9598 49.3871H78.0085V56.2491H62.9598C62.574 56.2756 62.2126 56.4476 61.9487 56.7303C61.6848 57.0129 61.5381 57.3852 61.5381 57.7719C61.5381 58.1586 61.6848 58.5309 61.9487 58.8136C62.2126 59.0963 62.574 59.2683 62.9598 59.2948H78.0085V81.9615H56.1626V35.2025C56.1361 34.8167 55.9641 34.4553 55.6814 34.1914C55.3988 33.9276 55.0265 33.7808 54.6398 33.7808C54.2531 33.7808 53.8808 33.9276 53.5981 34.1914C53.3154 34.4553 53.1434 34.8167 53.1169 35.2025V47.0902H34.7632L19.1457 30.3134C19.0031 30.1638 18.8317 30.0446 18.6417 29.9632C18.4517 29.8818 18.2471 29.8398 18.0404 29.8398C17.8338 29.8398 17.6292 29.8818 17.4392 29.9632C17.2492 30.0446 17.0778 30.1638 16.9352 30.3134L9.73486 37.8378V32.4735C9.73486 32.0706 9.57479 31.6842 9.28988 31.3993C9.00496 31.1143 8.61852 30.9543 8.21559 30.9543C7.81265 30.9543 7.42622 31.1143 7.1413 31.3993C6.85638 31.6842 6.69632 32.0706 6.69632 32.4735V41.042L0.424822 47.5583C0.285352 47.7025 0.175649 47.8727 0.101978 48.0593C0.028306 48.2459 -0.00789166 48.4452 -0.0045486 48.6458C-0.00120554 48.8463 0.0416127 49.0443 0.121461 49.2283C0.20131 49.4124 0.316626 49.5789 0.460824 49.7184C0.605022 49.8578 0.775279 49.9675 0.961874 50.0412C1.14847 50.1149 1.34775 50.1511 1.54833 50.1477C1.74891 50.1444 1.94688 50.1016 2.13091 50.0217C2.31495 49.9419 2.48146 49.8266 2.62093 49.6824L4.1834 48.0263C4.10803 48.2115 4.06892 48.4095 4.06819 48.6095V83.4808C4.06819 83.8837 4.22826 84.2701 4.51318 84.555C4.7981 84.84 5.18453 85 5.58746 85H104.405C104.807 84.9981 105.193 84.8375 105.477 84.5529C105.762 84.2684 105.922 83.8831 105.924 83.4808V51.7489C105.924 51.5493 105.885 51.3518 105.809 51.1675C105.732 50.9831 105.62 50.8156 105.479 50.6746C105.338 50.5335 105.171 50.4216 104.986 50.3452C104.802 50.2689 104.604 50.2296 104.405 50.2296H81.047V41.5028H99.2783L107.544 52.6561C107.794 52.9536 108.149 53.1446 108.535 53.1899C108.921 53.2353 109.309 53.1317 109.622 52.9002C109.934 52.6688 110.146 52.3269 110.215 51.9444C110.284 51.5619 110.204 51.1674 109.992 50.8416ZM53.1097 58.402H32.0055V48.5879L32.9848 49.6824L33.1432 49.8192C33.1662 49.8446 33.1929 49.8664 33.2224 49.884L33.424 49.9992H33.4816C33.5776 50.0355 33.6763 50.0644 33.7768 50.0856H34.0216H53.1313L53.1097 58.402ZM5.58746 47.0902C5.36056 47.0915 5.13677 47.1432 4.93223 47.2414L18.0008 33.568L30.5942 47.1046H30.4646C30.061 47.1046 29.6739 47.2645 29.3878 47.5492C29.1017 47.8339 28.9401 48.2203 28.9382 48.6239V53.0449H14.4007C13.9977 53.0449 13.6113 53.205 13.3264 53.4899C13.0415 53.7748 12.8814 54.1613 12.8814 54.5642C12.8814 54.9671 13.0415 55.3536 13.3264 55.6385C13.6113 55.9234 13.9977 56.0835 14.4007 56.0835H28.9598V62.643H14.4007C13.9977 62.643 13.6113 62.803 13.3264 63.088C13.0415 63.3729 12.8814 63.7593 12.8814 64.1622C12.8814 64.5652 13.0415 64.9516 13.3264 65.2365C13.6113 65.5214 13.9977 65.6815 14.4007 65.6815H28.9598V81.9903H7.10674V48.6095C7.10674 48.2066 6.94667 47.8201 6.66175 47.5352C6.37683 47.2503 5.9904 47.0902 5.58746 47.0902ZM32.0055 61.4477H53.1313V81.9615H32.0055V61.4477ZM102.886 53.2825V81.9759H81.047V53.2825H102.886Z" fill="#17262F"></path></g><defs><clipPath id="clip0_5678_33206"><rect width="110.288" height="85" fill="white"></rect></clipPath></defs></svg>