<svg xmlns="http://www.w3.org/2000/svg" width="72" height="90" viewBox="0 0 72 90" fill="none"><g clip-path="url(#clip0_5678_33702)"><path d="M35.358 51.5909C38.941 51.5947 42.4426 50.5229 45.4094 48.514C48.3763 46.5052 50.6717 43.6519 51.9986 40.3237C53.3254 36.9955 53.6225 33.3455 52.8515 29.8465C52.0804 26.3475 50.2766 23.1606 47.6737 20.6983V12.8083C47.6737 12.7527 47.6737 12.705 47.6737 12.6494C47.3241 8.27933 44.3127 0 35.3659 0C26.4192 0 23.4078 8.27933 23.0423 12.6494V20.6586C20.4252 23.1182 18.6088 26.3085 17.8294 29.8144C17.05 33.3203 17.3437 36.9797 18.6722 40.3164C20.0007 43.6532 22.3027 46.513 25.2785 48.5237C28.2544 50.5345 31.7665 51.6032 35.358 51.5909ZM27.0945 12.8957C27.174 11.9979 28.1354 4.02843 35.3659 4.02843C42.5964 4.02843 43.5579 12.0297 43.6453 12.8957V17.8141C41.0922 16.4756 38.2526 15.7763 35.3699 15.7763C32.4872 15.7763 29.6476 16.4756 27.0945 17.8141V12.8957ZM35.358 19.8005C39.0395 19.8005 42.5701 21.2629 45.1733 23.8661C47.7765 26.4693 49.239 30 49.239 33.6815C49.239 37.3629 47.7765 40.8936 45.1733 43.4968C42.5701 46.1 39.0395 47.5625 35.358 47.5625C31.6765 47.5625 28.1458 46.1 25.5426 43.4968C22.9394 40.8936 21.477 37.3629 21.477 33.6815C21.477 30 22.9394 26.4693 25.5426 23.8661C28.1458 21.2629 31.6765 19.8005 35.358 19.8005Z" fill="#17262F"></path><path d="M71.0338 87.7673C69.4765 73.0997 64.0655 63.7239 53.4819 57.28C41.3251 49.8826 29.5021 49.8826 17.3453 57.28C7.30202 63.3981 1.7957 72.5117 -5.02169e-06 85.9636C-0.0710138 86.2401 -0.0825645 86.5285 -0.0338942 86.8098C0.014776 87.0911 0.12256 87.3588 0.28234 87.5954C0.44212 87.8319 0.650262 88.0319 0.893021 88.182C1.13578 88.3322 1.40763 88.4292 1.69063 88.4665C1.97363 88.5039 2.26133 88.4808 2.53474 88.3987C2.80815 88.3167 3.06105 88.1776 3.27673 87.9906C3.49242 87.8036 3.66599 87.573 3.78597 87.314C3.90596 87.055 3.96964 86.7735 3.9728 86.4881C6.10223 70.716 13.3566 64.431 19.4429 60.7284C20.89 59.8346 22.3951 59.0383 23.9481 58.3447L33.7291 72.027C33.7459 72.0545 33.7674 72.0787 33.7927 72.0985C33.8552 72.1784 33.9243 72.2528 33.9993 72.321C34.0379 72.3622 34.0805 72.3995 34.1264 72.4323C34.1463 72.4575 34.1705 72.4791 34.1979 72.4958C34.1979 72.4958 34.2536 72.4958 34.2853 72.5435C34.4058 72.6196 34.5336 72.6835 34.6667 72.7342L34.8256 72.7898C34.996 72.8401 35.1724 72.8668 35.35 72.8693C35.5303 72.8668 35.7093 72.84 35.8824 72.7898L36.0413 72.7342C36.1712 72.6817 36.2961 72.6179 36.4148 72.5435C36.4148 72.5435 36.4783 72.5435 36.5101 72.4958C36.5332 72.4767 36.5545 72.4554 36.5737 72.4323L36.7087 72.321C36.7817 72.2507 36.8506 72.1765 36.9153 72.0985C36.9358 72.0762 36.9544 72.0523 36.971 72.027L46.8076 58.3447C48.3851 59.0353 49.9141 59.8317 51.3843 60.7284C57.7408 64.574 65.2176 71.1848 67.0213 88.1964C67.0741 88.6909 67.3077 89.1485 67.6773 89.4813C68.0468 89.8142 68.5262 89.9989 69.0236 90H69.2381C69.503 89.9723 69.7598 89.8925 69.9937 89.765C70.2276 89.6376 70.434 89.4652 70.6009 89.2576C70.7678 89.0501 70.892 88.8115 70.9663 88.5557C71.0406 88.2999 71.0636 88.032 71.0338 87.7673ZM35.3659 67.3947L27.8732 56.9304C32.7686 55.4804 37.9792 55.4804 42.8745 56.9304L35.3659 67.3947Z" fill="#17262F"></path><path d="M54.6817 79.6945H44.3524C44.0773 79.7118 43.8015 79.6725 43.5421 79.5791C43.2827 79.4857 43.0452 79.3402 42.8443 79.1514C42.6433 78.9627 42.4831 78.7348 42.3736 78.4818C42.2642 78.2288 42.2077 77.956 42.2077 77.6803C42.2077 77.4046 42.2642 77.1318 42.3736 76.8788C42.4831 76.6258 42.6433 76.3979 42.8443 76.2091C43.0452 76.0204 43.2827 75.8749 43.5421 75.7815C43.8015 75.6881 44.0773 75.6488 44.3524 75.6661H54.6817C54.9569 75.6488 55.2327 75.6881 55.492 75.7815C55.7514 75.8749 55.9889 76.0204 56.1899 76.2091C56.3909 76.3979 56.551 76.6258 56.6605 76.8788C56.77 77.1318 56.8265 77.4046 56.8265 77.6803C56.8265 77.956 56.77 78.2288 56.6605 78.4818C56.551 78.7348 56.3909 78.9627 56.1899 79.1514C55.9889 79.3402 55.7514 79.4857 55.492 79.5791C55.2327 79.6725 54.9569 79.7118 54.6817 79.6945Z" fill="#17262F"></path></g><defs><clipPath id="clip0_5678_33702"><rect width="71.0418" height="90" fill="white"></rect></clipPath></defs></svg>