<svg xmlns="http://www.w3.org/2000/svg" width="92" height="100" viewBox="0 0 92 100" fill="none"><g clip-path="url(#clip0_5678_33336)"><path d="M90.2142 70.5125H64.5266V56.5287C64.5247 55.0185 63.924 53.5708 62.8561 52.5029C61.7883 51.4351 60.3405 50.8343 58.8303 50.8324H40.4603L38.0501 41.9369H53.0906C53.2918 41.9369 53.491 41.8972 53.6767 41.82C53.8625 41.7428 54.0312 41.6296 54.1731 41.487C54.315 41.3444 54.4273 41.1752 54.5037 40.9891C54.58 40.803 54.6188 40.6036 54.6178 40.4024C54.617 40.1829 54.5702 39.9659 54.4803 39.7655L48.053 18.3411C47.9589 18.0295 47.7677 17.7561 47.5073 17.5607C47.2469 17.3654 46.9309 17.2584 46.6054 17.2554H17.9357C17.6102 17.2584 17.2942 17.3654 17.0338 17.5607C16.7734 17.7561 16.5822 18.0295 16.4881 18.3411L9.97394 39.9682C9.90695 40.1951 9.89334 40.4344 9.93418 40.6675C9.97502 40.9006 10.0692 41.121 10.2094 41.3116C10.3495 41.5023 10.5319 41.6579 10.7422 41.7663C10.9524 41.8748 11.185 41.9332 11.4215 41.9369H26.4838L24.0663 50.8324H5.69629C4.18613 50.8343 2.73837 51.4351 1.67052 52.5029C0.602674 53.5708 0.00191524 55.0185 0 56.5287L0 97.4378C0 97.8428 0.160903 98.2313 0.447311 98.5177C0.733719 98.8041 1.12217 98.965 1.52721 98.965C1.93226 98.965 2.32071 98.8041 2.60712 98.5177C2.89353 98.2313 3.05443 97.8428 3.05443 97.4378V56.5287C3.05634 55.8286 3.33529 55.1577 3.83032 54.6627C4.32536 54.1677 4.99621 53.8887 5.69629 53.8868H58.8303C59.5304 53.8887 60.2013 54.1677 60.6963 54.6627C61.1913 55.1577 61.4703 55.8286 61.4722 56.5287V98.509C61.4722 98.914 61.6331 99.3025 61.9195 99.5889C62.2059 99.8753 62.5944 100.036 62.9994 100.036C63.4045 100.036 63.7929 99.8753 64.0793 99.5889C64.3657 99.3025 64.5266 98.914 64.5266 98.509V73.5669H88.6798V97.4522C88.7065 97.8401 88.8793 98.2033 89.1635 98.4686C89.4476 98.7338 89.8219 98.8814 90.2106 98.8814C90.5993 98.8814 90.9736 98.7338 91.2577 98.4686C91.5419 98.2033 91.7148 97.8401 91.7415 97.4522V72.0397C91.7415 71.6346 91.5806 71.2462 91.2941 70.9598C91.0077 70.6734 90.6193 70.5125 90.2142 70.5125ZM26.4476 38.8752L27.584 30.6456L28.7565 23.2557C28.7565 23.2557 28.7565 23.1978 28.7565 23.1688L29.0388 20.3098H35.5096L38.0646 38.8752H26.4476ZM51.0205 38.8752H41.1624L38.6146 20.3098H45.4545L51.0205 38.8752ZM19.0793 20.3098H25.9771L25.731 22.8214L24.5585 30.1969L23.3642 38.8825H13.5061L19.0793 20.3098ZM29.6757 41.9369H34.9088L37.319 50.8324H27.2365L29.6757 41.9369Z" fill="#17262F"></path><path d="M20.5052 62.5505H20.4039C19.5313 62.5496 18.6671 62.7205 17.8606 63.0536C17.0541 63.3866 16.3211 63.8752 15.7034 64.4915C15.0857 65.1079 14.5955 65.8398 14.2607 66.6456C13.9259 67.4514 13.7531 68.3152 13.7522 69.1878V75.9987C13.7522 76.4038 13.9131 76.7922 14.1995 77.0786C14.4859 77.365 14.8743 77.5259 15.2794 77.5259C15.6844 77.5259 16.0729 77.365 16.3593 77.0786C16.6457 76.7922 16.8066 76.4038 16.8066 75.9987V69.1878C16.8066 68.228 17.1879 67.3075 17.8666 66.6288C18.5453 65.9501 19.4658 65.5688 20.4256 65.5688H20.5269C21.4867 65.5688 22.4072 65.9501 23.0859 66.6288C23.7646 67.3075 24.1459 68.228 24.1459 69.1878V75.9987C24.1726 76.3865 24.3455 76.7498 24.6296 77.015C24.9138 77.2803 25.288 77.4279 25.6767 77.4279C26.0655 77.4279 26.4397 77.2803 26.7239 77.015C27.008 76.7498 27.1809 76.3865 27.2076 75.9987V69.1878C27.2067 68.3109 27.0322 67.4429 26.6942 66.6338C26.3563 65.8247 25.8615 65.0905 25.2385 64.4735C24.6154 63.8565 23.8764 63.369 23.064 63.0389C22.2517 62.7089 21.382 62.5429 20.5052 62.5505Z" fill="#17262F"></path><path d="M44.3254 62.5506H44.2241C42.4644 62.5526 40.7773 63.2524 39.533 64.4968C38.2887 65.7411 37.5888 67.4282 37.5869 69.1879V75.9988C37.5869 76.4039 37.7478 76.7923 38.0342 77.0787C38.3206 77.3651 38.709 77.526 39.1141 77.526C39.5191 77.526 39.9076 77.3651 40.194 77.0787C40.4804 76.7923 40.6413 76.4039 40.6413 75.9988V69.1879C40.6413 68.228 41.0226 67.3075 41.7013 66.6289C42.38 65.9502 43.3005 65.5689 44.2603 65.5689H44.3616C45.3151 65.5784 46.2264 65.9639 46.8973 66.6416C47.5681 67.3192 47.9445 68.2343 47.9444 69.1879V75.9988C47.9711 76.3866 48.144 76.7499 48.4281 77.0151C48.7123 77.2804 49.0865 77.4279 49.4752 77.4279C49.864 77.4279 50.2382 77.2804 50.5224 77.0151C50.8065 76.7499 50.9794 76.3866 51.0061 75.9988V69.1879C51.0051 68.3129 50.8314 67.4467 50.4948 66.639C50.1582 65.8313 49.6654 65.0981 49.0446 64.4814C48.4239 63.8647 47.6874 63.3766 46.8776 63.0453C46.0677 62.714 45.2004 62.5459 44.3254 62.5506Z" fill="#17262F"></path><path d="M81.7892 80.9207H71.4461C71.245 80.9197 71.0456 80.9585 70.8595 81.0348C70.6733 81.1112 70.5041 81.2235 70.3615 81.3654C70.219 81.5073 70.1058 81.676 70.0286 81.8618C69.9514 82.0475 69.9117 82.2467 69.9117 82.4479V94.3327C69.9384 94.7205 70.1112 95.0837 70.3954 95.349C70.6795 95.6142 71.0538 95.7618 71.4425 95.7618C71.8312 95.7618 72.2055 95.6142 72.4896 95.349C72.7738 95.0837 72.9467 94.7205 72.9734 94.3327V83.9606H80.2113V94.3182C80.2113 94.7232 80.3722 95.1117 80.6586 95.3981C80.9451 95.6845 81.3335 95.8454 81.7386 95.8454C82.1436 95.8454 82.532 95.6845 82.8185 95.3981C83.1049 95.1117 83.2658 94.7232 83.2658 94.3182V82.4479C83.2678 82.0509 83.1145 81.6689 82.8386 81.3835C82.5626 81.0981 82.186 80.932 81.7892 80.9207Z" fill="#17262F"></path><path d="M25.6152 85.1331H15.2939C15.0915 85.1312 14.8907 85.1695 14.7033 85.2459C14.5159 85.3222 14.3455 85.4351 14.202 85.5778C14.0586 85.7206 13.9449 85.8905 13.8677 86.0775C13.7905 86.2646 13.7512 86.4652 13.7522 86.6676V98.4727C13.7522 98.8778 13.9131 99.2662 14.1995 99.5526C14.4859 99.839 14.8744 99.9999 15.2794 99.9999C15.6844 99.9999 16.0729 99.839 16.3593 99.5526C16.6457 99.2662 16.8066 98.8778 16.8066 98.4727V88.1948H24.0446V98.4727C24.0713 98.8605 24.2442 99.2238 24.5283 99.489C24.8125 99.7543 25.1867 99.9019 25.5754 99.9019C25.9642 99.9019 26.3384 99.7543 26.6226 99.489C26.9067 99.2238 27.0796 98.8605 27.1063 98.4727V86.6676C27.1064 86.268 26.9507 85.8842 26.6723 85.5976C26.3939 85.3111 26.0146 85.1444 25.6152 85.1331Z" fill="#17262F"></path><path d="M49.4354 85.1331H39.0851C38.884 85.1331 38.6848 85.1728 38.499 85.25C38.3132 85.3272 38.1446 85.4403 38.0027 85.5829C37.8607 85.7255 37.7484 85.8947 37.6721 86.0808C37.5958 86.267 37.557 86.4663 37.5579 86.6675V98.4727C37.5579 98.8777 37.7188 99.2662 38.0052 99.5526C38.2916 99.839 38.6801 99.9999 39.0851 99.9999C39.4902 99.9999 39.8786 99.839 40.165 99.5526C40.4514 99.2662 40.6123 98.8777 40.6123 98.4727V88.1947H47.8503V98.4727C47.877 98.8605 48.0499 99.2237 48.334 99.489C48.6182 99.7543 48.9924 99.9018 49.3812 99.9018C49.7699 99.9018 50.1441 99.7543 50.4283 99.489C50.7124 99.2237 50.8853 98.8605 50.912 98.4727V86.6675C50.9123 86.2704 50.7586 85.8886 50.4832 85.6025C50.2079 85.3163 49.8323 85.148 49.4354 85.1331Z" fill="#17262F"></path><path d="M78.7637 21.4171C80.8821 21.4142 82.9521 20.7834 84.7119 19.6042C86.4718 18.4251 87.8426 16.7507 88.6509 14.7926C89.4593 12.8345 89.6689 10.6807 89.2533 8.60352C88.8378 6.52631 87.8157 4.61894 86.3163 3.12255C84.8168 1.62615 82.9074 0.607921 80.8294 0.196577C78.7513 -0.214767 76.598 -0.000752781 74.6415 0.811563C72.6851 1.62388 71.0134 2.99802 69.8379 4.76027C68.6623 6.52253 68.0356 8.59376 68.0371 10.7121C68.0409 13.5538 69.1729 16.2778 71.1844 18.2851C73.1958 20.2925 75.922 21.419 78.7637 21.4171ZM78.7637 3.05434C80.2786 3.05291 81.7599 3.50081 83.0202 4.34139C84.2804 5.18197 85.2631 6.37745 85.8438 7.7766C86.4245 9.17575 86.5772 10.7157 86.2825 12.2016C85.9878 13.6876 85.2591 15.0528 84.1884 16.1244C83.1177 17.1961 81.7533 17.9262 80.2676 18.2222C78.7819 18.5183 77.2418 18.3671 75.8421 17.7877C74.4424 17.2083 73.246 16.2268 72.4043 14.9673C71.5625 13.7078 71.1132 12.227 71.1132 10.7121C71.1151 8.683 71.9215 6.73741 73.3557 5.30192C74.7898 3.86643 76.7346 3.05817 78.7637 3.05434Z" fill="#17262F"></path><path d="M63.5785 16.2998L56.963 19.0502C56.7776 19.1277 56.6093 19.2409 56.4677 19.3834C56.3261 19.5259 56.214 19.6949 56.1377 19.8807C55.9837 20.256 55.985 20.6772 56.1414 21.0515C56.2189 21.2369 56.3321 21.4051 56.4746 21.5467C56.6171 21.6883 56.7861 21.8005 56.972 21.8768C57.3473 22.0308 57.7684 22.0295 58.1427 21.873L64.751 19.1226C64.9364 19.0456 65.1047 18.9329 65.2465 18.7908C65.3883 18.6487 65.5007 18.4801 65.5773 18.2946C65.6539 18.1091 65.6933 17.9104 65.6931 17.7097C65.6929 17.509 65.6531 17.3103 65.5762 17.1249C65.4992 16.9396 65.3864 16.7712 65.2444 16.6294C65.1023 16.4876 64.9337 16.3752 64.7482 16.2986C64.5627 16.222 64.3639 16.1827 64.1632 16.1829C63.9625 16.1831 63.7638 16.2228 63.5785 16.2998Z" fill="#17262F"></path><path d="M44.2748 11.9499H44.434L63.1587 9.98113C63.3583 9.96022 63.5518 9.9002 63.7282 9.8045C63.9046 9.70879 64.0604 9.57927 64.1868 9.42335C64.3132 9.26742 64.4076 9.08813 64.4646 8.89571C64.5217 8.7033 64.5403 8.50153 64.5194 8.30192C64.4985 8.10231 64.4385 7.90878 64.3428 7.73237C64.2471 7.55596 64.1175 7.40013 63.9616 7.27377C63.8057 7.14742 63.6264 7.05301 63.434 6.99594C63.2416 6.93888 63.0398 6.92027 62.8402 6.94118L44.1517 8.90267C43.7604 8.9408 43.3988 9.12837 43.1423 9.42635C42.8858 9.72433 42.7541 10.1098 42.7747 10.5024C42.7952 10.895 42.9663 11.2646 43.2525 11.5342C43.5387 11.8039 43.9178 11.9527 44.3109 11.9499H44.2748Z" fill="#17262F"></path><path d="M68.5365 23.1614L59.8509 31.3476C59.5553 31.625 59.382 32.0084 59.3691 32.4136C59.3562 32.8188 59.5048 33.2125 59.7821 33.5081C60.0595 33.8037 60.443 33.9771 60.8482 33.99C61.2534 34.0028 61.6471 33.8543 61.9427 33.5769L70.6283 25.3907C70.7746 25.2534 70.8925 25.0885 70.9752 24.9056C71.0579 24.7227 71.1037 24.5253 71.1101 24.3247C71.1165 24.1241 71.0833 23.9241 71.0124 23.7363C70.9415 23.5485 70.8344 23.3766 70.697 23.2302C70.5597 23.0838 70.3948 22.9659 70.2119 22.8832C70.029 22.8006 69.8316 22.7547 69.631 22.7483C69.4304 22.7419 69.2305 22.7751 69.0427 22.846C68.8549 22.9169 68.6829 23.0241 68.5365 23.1614Z" fill="#17262F"></path></g><defs><clipPath id="clip0_5678_33336"><rect width="91.7415" height="100" fill="white"></rect></clipPath></defs></svg>