<svg xmlns="http://www.w3.org/2000/svg" width="61" height="95" viewBox="0 0 61 95" fill="none"><g clip-path="url(#clip0_5678_16766)"><path d="M31.9059 41.1289C31.8623 41.0372 31.8383 40.9375 31.8355 40.8361C31.8327 40.7346 31.8512 40.6337 31.8897 40.5398C31.9282 40.446 31.9859 40.3612 32.0591 40.2909C32.1323 40.2206 32.2194 40.1664 32.3147 40.1318C32.3984 40.0739 32.4944 40.0363 32.5951 40.0218C32.6958 40.0073 32.7985 40.0163 32.8951 40.0482C32.9918 40.0801 33.0797 40.1339 33.152 40.2055C33.2243 40.2771 33.279 40.3645 33.3118 40.4608L46.0742 67.0724C46.1588 67.2684 46.1634 67.4897 46.0871 67.6891C46.0107 67.8884 45.8593 68.05 45.6654 68.1392L36.8912 72.3369C36.714 72.4165 36.5133 72.4269 36.3288 72.366C36.1443 72.3051 35.9892 72.1773 35.8942 72.0078L14.5371 27.5788C14.45 27.3804 14.4452 27.1556 14.5237 26.9537C14.6022 26.7518 14.7577 26.5894 14.9559 26.502L23.74 22.3143C23.9179 22.2392 24.117 22.2311 24.3003 22.2916C24.4837 22.3522 24.6388 22.4771 24.7371 22.6433L28.4362 30.2808C28.4846 30.3725 28.5145 30.4728 28.5242 30.576C28.5339 30.6792 28.5232 30.7833 28.4926 30.8824C28.4621 30.9815 28.4123 31.0735 28.3461 31.1534C28.28 31.2332 28.1988 31.2992 28.1071 31.3477C28.0155 31.3961 27.9152 31.4261 27.812 31.4357C27.7087 31.4454 27.6046 31.4347 27.5056 31.4041C27.4065 31.3736 27.3144 31.3238 27.2346 31.2577C27.1548 31.1915 27.0887 31.1103 27.0403 31.0187L23.6702 24.0392L16.282 27.5788L36.961 70.612L44.3493 67.0724L31.9059 41.1289ZM28.1271 33.1524C28.0709 33.0626 28.0347 32.9617 28.021 32.8567C28.0073 32.7517 28.0164 32.6449 28.0476 32.5437C28.0788 32.4425 28.1314 32.3492 28.2019 32.2701C28.2724 32.191 28.3591 32.1281 28.4561 32.0855C28.6527 32.0059 28.8721 32.0039 29.0701 32.0798C29.2681 32.1556 29.4299 32.3038 29.523 32.4943V32.5741C29.5809 32.6634 29.6184 32.7644 29.6331 32.8698C29.6477 32.9753 29.639 33.0826 29.6076 33.1844C29.5763 33.2861 29.523 33.3797 29.4515 33.4586C29.38 33.5375 29.2921 33.5997 29.1939 33.6409C29.0049 33.7129 28.7972 33.7195 28.6039 33.6599C28.4106 33.6003 28.2428 33.4778 28.1271 33.3119V33.1524ZM29.1939 35.4456C29.1168 35.2488 29.1159 35.0303 29.1915 34.8329C29.2672 34.6356 29.4138 34.4736 29.6027 34.3788C29.695 34.3396 29.7941 34.319 29.8943 34.3184C29.9945 34.3178 30.0939 34.337 30.1866 34.375C30.2793 34.413 30.3636 34.4691 30.4345 34.5399C30.5054 34.6107 30.5616 34.6949 30.5998 34.7875L32.2449 38.0778C32.3296 38.2738 32.3342 38.4952 32.2578 38.6945C32.1814 38.8939 32.0301 39.0555 31.8361 39.1447C31.7445 39.1883 31.6448 39.2123 31.5434 39.2151C31.4419 39.2179 31.341 39.1995 31.2471 39.161C31.1532 39.1225 31.0684 39.0648 30.9982 38.9916C30.9279 38.9184 30.8737 38.8313 30.8391 38.7359L29.1939 35.4456Z" fill="#17262F"></path><path d="M36.0537 71.0208L45.3364 66.5839L45.9945 66.5042L55.9651 70.1135L60.6114 79.7651V80.3434L56.992 90.314L47.3903 94.9104H46.8619L37.0907 91.4606L36.6819 91.0518L32.1951 81.7592L32.1154 81.1809C33.3417 77.8108 34.4983 74.4507 35.7247 71.2103L36.0537 71.0208ZM41.398 70.1933L36.9611 72.2472L33.6708 81.4501L37.8883 90.1544L47.0912 93.4348L55.7956 89.2471L59.0759 80.134L54.8384 71.3499L45.7252 68.0596L41.398 70.1933Z" fill="#17262F"></path><path d="M20.1207 3.42997C20.0233 3.39806 19.934 3.3454 19.859 3.27562C19.784 3.20584 19.725 3.1206 19.6861 3.0258C19.6473 2.931 19.6294 2.82889 19.6339 2.72652C19.6383 2.62416 19.665 2.52398 19.7119 2.4329C19.7501 2.34023 19.8062 2.25606 19.8772 2.18525C19.9481 2.11443 20.0324 2.0584 20.1251 2.02038C20.2178 1.98236 20.3172 1.96311 20.4174 1.96375C20.5176 1.96439 20.6167 1.98491 20.709 2.02411H20.8685C20.9654 2.06729 21.0529 2.12915 21.1259 2.20614C21.1989 2.28314 21.256 2.37376 21.2939 2.47284C21.3319 2.57191 21.35 2.6775 21.3471 2.78356C21.3443 2.88962 21.3205 2.99408 21.2773 3.09096C21.2402 3.18451 21.1847 3.26961 21.114 3.34118C21.0432 3.41275 20.9588 3.46931 20.8657 3.50748C20.7726 3.54565 20.6728 3.56464 20.5722 3.56331C20.4716 3.56198 20.3723 3.54037 20.2802 3.49976L20.1207 3.42997ZM22.2544 4.24756C22.0578 4.17955 21.8961 4.03654 21.8046 3.84975C21.713 3.66295 21.6991 3.44752 21.7658 3.25049C21.7972 3.15156 21.8483 3.06001 21.916 2.98138C21.9837 2.90275 22.0667 2.83866 22.1599 2.793C22.2531 2.74733 22.3546 2.72103 22.4582 2.71569C22.5619 2.71036 22.6655 2.72609 22.7629 2.76193L23.5805 3.0112C23.6969 3.04411 23.8029 3.1063 23.8884 3.19183C23.974 3.27736 24.0361 3.38337 24.0691 3.49976L25.5547 6.62056C25.6318 6.81734 25.6327 7.03585 25.5571 7.23323C25.4814 7.4306 25.3348 7.59259 25.1459 7.68742C25.0538 7.72803 24.9545 7.74964 24.8539 7.75097C24.7533 7.75229 24.6535 7.7333 24.5604 7.69514C24.4673 7.65697 24.3829 7.60041 24.3121 7.52884C24.2414 7.45727 24.1859 7.37217 24.1488 7.27862L22.7529 4.40709L22.2544 4.24756ZM25.0462 9.17304C24.9743 8.98398 24.9676 8.77631 25.0272 8.58301C25.0868 8.38972 25.2093 8.22189 25.3752 8.10618C25.4727 8.06325 25.5777 8.04003 25.6842 8.03786C25.7907 8.03568 25.8966 8.0546 25.9958 8.09353C26.095 8.13245 26.1854 8.19061 26.262 8.26465C26.3386 8.33869 26.3998 8.42716 26.4421 8.52495L28.496 12.7924C28.54 12.8824 28.5629 12.9813 28.5629 13.0815C28.5629 13.1817 28.54 13.2806 28.496 13.3707L25.0462 23.1419C25.01 23.2566 24.9468 23.3609 24.8617 23.446C24.7767 23.531 24.6723 23.5943 24.5576 23.6304L15.275 27.9876C15.1906 28.0387 15.0967 28.0721 14.999 28.0858C14.9013 28.0996 14.8018 28.0933 14.7066 28.0674L4.92548 24.5378C4.82422 24.5148 4.73175 24.4631 4.65922 24.3888C4.58669 24.3145 4.53719 24.2208 4.51668 24.119L0.0797603 14.8463C0.0191188 14.6598 -0.00788951 14.464 -4.62856e-06 14.268L2.99118 5.89271C3.0824 5.71458 3.2288 5.57075 3.4085 5.4827C3.58821 5.39464 3.79158 5.36709 3.98824 5.40415C4.08561 5.45408 4.17196 5.52305 4.24218 5.60698C4.3124 5.6909 4.36506 5.78806 4.39704 5.89271L9.7712 16.9501C9.90482 17.2421 10.098 17.503 10.3384 17.7159C10.5788 17.9288 10.8611 18.0891 11.1671 18.1865C11.4698 18.3128 11.7968 18.3703 12.1244 18.3548C12.452 18.3393 12.7721 18.2511 13.0615 18.0967L18.3958 15.5542C18.9698 15.2623 19.4117 14.7634 19.6321 14.1583C19.7566 13.8556 19.814 13.5294 19.8002 13.2024C19.7864 12.8753 19.7019 12.5551 19.5524 12.2639L14.1284 1.12675C14.0437 0.930758 14.0391 0.70943 14.1155 0.510074C14.1919 0.310718 14.3432 0.149149 14.5371 0.0598981C14.6284 0.0203855 14.7268 0 14.8263 0C14.9258 0 15.0242 0.0203855 15.1154 0.0598981L18.7248 1.29625C18.9158 1.37231 19.0721 1.51594 19.164 1.6998C19.256 1.88366 19.2771 2.0949 19.2233 2.29332C19.1511 2.48679 19.0075 2.64524 18.8221 2.73611C18.6366 2.82698 18.4234 2.84336 18.2263 2.78188L16.3319 2.12382L20.9383 11.6458C21.164 12.108 21.2952 12.6107 21.3243 13.1243C21.3535 13.6379 21.2798 14.1521 21.1078 14.6369C20.9367 15.1399 20.6669 15.6035 20.3142 16.0008C19.9615 16.398 19.533 16.7208 19.0538 16.9501L13.7196 19.4926C13.2568 19.7167 12.7543 19.8471 12.2409 19.8762C11.7275 19.9053 11.2135 19.8325 10.7284 19.6621C10.222 19.4966 9.75346 19.2326 9.34961 18.8852C8.94576 18.5378 8.61464 18.114 8.37531 17.6381L3.85862 8.19592L1.56538 14.4375L5.75304 23.2216L14.8662 26.502L23.6503 22.3143L26.9207 13.2012L25.0462 9.17304Z" fill="#17262F"></path><path d="M40.8795 76.1956C40.7964 76.2556 40.7003 76.295 40.5991 76.3106C40.4978 76.3263 40.3943 76.3177 40.297 76.2856C40.1997 76.2535 40.1114 76.1988 40.0393 76.1259C39.9672 76.0531 39.9135 75.9642 39.8824 75.8665C39.8234 75.7742 39.7857 75.6698 39.772 75.5611C39.7584 75.4523 39.7692 75.3419 39.8035 75.2378C39.8379 75.1337 39.895 75.0386 39.9708 74.9594C40.0465 74.8801 40.139 74.8188 40.2414 74.7797L45.6654 72.2273C45.755 72.188 45.8517 72.1677 45.9496 72.1677C46.0474 72.1677 46.1441 72.188 46.2337 72.2273L51.907 74.2214C52.1016 74.3249 52.2482 74.5001 52.3158 74.7099L54.8384 80.0542C54.9113 80.1276 54.9585 80.2226 54.9729 80.3251C54.9873 80.4275 54.968 80.5319 54.9181 80.6225L52.8741 86.2958C52.8381 86.3902 52.782 86.4756 52.7097 86.5462C52.6374 86.6168 52.5506 86.6708 52.4554 86.7046L47.1211 89.2471C47.0302 89.321 46.9207 89.3685 46.8047 89.3843C46.6886 89.4002 46.5704 89.3837 46.463 89.3368L40.8795 87.2829C40.778 87.2555 40.6835 87.2068 40.6024 87.1399C40.5212 87.073 40.4553 86.9896 40.4091 86.8952C40.3628 86.8008 40.3373 86.6975 40.3341 86.5925C40.331 86.4874 40.3504 86.3828 40.3909 86.2858C40.4242 86.1895 40.4777 86.1013 40.5477 86.0272C40.6178 85.9531 40.7028 85.8948 40.7971 85.8561C40.8914 85.8175 40.9929 85.7993 41.0948 85.8029C41.1967 85.8065 41.2966 85.8318 41.388 85.877L46.7322 87.7415L51.578 85.4383L53.3826 80.453L51.0794 75.6073L45.9944 73.7827L40.8795 76.1956ZM40.72 83.9926C40.7779 84.0819 40.8154 84.1829 40.8301 84.2883C40.8447 84.3938 40.836 84.5011 40.8046 84.6029C40.7733 84.7046 40.72 84.7982 40.6485 84.8771C40.577 84.956 40.4891 85.0182 40.3909 85.0594C40.1944 85.139 39.975 85.1411 39.777 85.0652C39.579 84.9893 39.4171 84.8412 39.3241 84.6506L37.8883 81.5298C37.8043 81.3326 37.8011 81.1103 37.8795 80.9108C37.9578 80.7112 38.1113 80.5504 38.3071 80.463C38.3989 80.4209 38.4984 80.3981 38.5994 80.3961C38.7005 80.394 38.8008 80.4128 38.8943 80.4511C38.9878 80.4894 39.0724 80.5465 39.1429 80.6189C39.2134 80.6913 39.2683 80.7773 39.3041 80.8718L40.72 83.9926ZM40.3112 78.4888C40.2797 78.5878 40.2286 78.6795 40.1611 78.7585C40.0935 78.8375 40.0108 78.9021 39.9179 78.9486C39.8249 78.995 39.7236 79.0224 39.6199 79.0291C39.5162 79.0357 39.4122 79.0215 39.3141 78.9873C39.1231 78.9113 38.9668 78.7677 38.8749 78.5838C38.7829 78.3999 38.7618 78.1887 38.8156 77.9903L38.8953 77.9105C38.9714 77.7195 39.115 77.5632 39.2989 77.4713C39.4827 77.3793 39.694 77.3582 39.8924 77.412C39.9887 77.4456 40.0768 77.499 40.1511 77.5689C40.2254 77.6387 40.2842 77.7233 40.3236 77.8173C40.3631 77.9113 40.3824 78.0126 40.3803 78.1145C40.3781 78.2164 40.3546 78.3168 40.3112 78.409V78.4888Z" fill="#17262F"></path><path d="M22.3441 28.5559C22.2491 28.3825 22.0916 28.2519 21.9037 28.1905C21.7158 28.1292 21.5116 28.1416 21.3325 28.2254C21.1535 28.3092 21.0131 28.4581 20.9399 28.6417C20.8666 28.8253 20.8661 29.0299 20.9383 29.2139L24.2286 36.2831C24.3301 36.443 24.4866 36.5603 24.6685 36.6131C24.8504 36.6658 25.0454 36.6504 25.2167 36.5696C25.3881 36.4888 25.524 36.3483 25.5991 36.1744C25.6742 36.0005 25.6832 35.8051 25.6245 35.625L22.3441 28.5559ZM38.3569 66.0952C38.686 66.9128 40.0819 66.4143 39.7528 65.4371L38.8854 63.6225C38.853 63.5232 38.8005 63.4316 38.731 63.3535C38.6616 63.2754 38.5767 63.2126 38.4818 63.1689C38.3869 63.1252 38.284 63.1016 38.1796 63.0995C38.0751 63.0975 37.9714 63.1171 37.8748 63.1571C37.7783 63.1971 37.6911 63.2566 37.6187 63.3319C37.5462 63.4072 37.4902 63.4967 37.454 63.5947C37.4178 63.6927 37.4023 63.7972 37.4084 63.9015C37.4145 64.0058 37.4421 64.1077 37.4895 64.2008L38.3569 66.0952ZM34.1693 57.2214C34.2558 57.3914 34.4032 57.5225 34.5822 57.5886C34.7611 57.6547 34.9584 57.6508 35.1347 57.5778C35.3109 57.5048 35.4531 57.368 35.5329 57.1947C35.6127 57.0214 35.6242 56.8245 35.5652 56.6431L28.9148 42.6044C28.5857 41.6971 27.1001 42.2754 27.5089 43.2625L34.1693 57.2214Z" fill="#17262F"></path><path d="M12.8122 22.3143C13.0092 22.3791 13.1724 22.5195 13.2659 22.7046C13.3594 22.8897 13.3755 23.1044 13.3107 23.3014C13.246 23.4984 13.1056 23.6616 12.9204 23.7551C12.7353 23.8486 12.5207 23.8647 12.3237 23.7999L7.47794 22.075C7.36144 22.037 7.25557 21.9721 7.16893 21.8854C7.0823 21.7988 7.01736 21.6929 6.97941 21.5764L4.76593 16.9501C4.70585 16.7624 4.7139 16.5594 4.78868 16.3771C4.86345 16.1947 5.00015 16.0445 5.17472 15.953C5.26678 15.9124 5.36608 15.8908 5.46669 15.8895C5.56729 15.8881 5.66713 15.9071 5.76022 15.9453C5.85332 15.9835 5.93775 16.04 6.00847 16.1116C6.07918 16.1832 6.13473 16.2683 6.17179 16.3618L8.3055 20.719L12.8122 22.3143Z" fill="#17262F"></path></g><defs><clipPath id="clip0_5678_16766"><rect width="60.6114" height="95" fill="white"></rect></clipPath></defs></svg>