<svg xmlns="http://www.w3.org/2000/svg" width="104" height="90" viewBox="0 0 104 90" fill="none"><g clip-path="url(#clip0_5678_33327)"><path d="M78.4804 60.5603C68.2579 60.8596 60.5142 60.9747 54.5817 60.967V49.5472C54.5817 49.0913 54.4006 48.654 54.0782 48.3316C53.7558 48.0092 53.3186 47.8281 52.8626 47.8281C52.4067 47.8281 51.9694 48.0092 51.647 48.3316C51.3246 48.654 51.1435 49.0913 51.1435 49.5472V60.944C37.5671 60.7905 35.4106 59.8082 33.3078 58.8488C32.7475 58.5956 32.1719 58.3346 31.4275 58.0814C31.0035 57.9574 30.5481 58.0014 30.1557 58.2041C29.7633 58.4069 29.464 58.753 29.3199 59.1705C29.1758 59.588 29.1979 60.045 29.3817 60.4467C29.5655 60.8483 29.8968 61.1638 30.307 61.3277C30.8979 61.535 31.3814 61.7498 31.8419 61.9801C34.6585 63.2617 37.2141 64.4129 55.0806 64.4129C61.0207 64.4129 68.6493 64.2825 78.5418 63.9985C78.7762 64.0058 79.0095 63.9651 79.2276 63.8788C79.4456 63.7926 79.6437 63.6627 79.8097 63.4971C79.9756 63.3314 80.1059 63.1336 80.1926 62.9158C80.2793 62.6979 80.3205 62.4646 80.3137 62.2302C80.3069 61.9959 80.2522 61.7654 80.153 61.5529C80.0538 61.3405 79.9122 61.1506 79.7369 60.9949C79.5616 60.8392 79.3563 60.721 79.1336 60.6476C78.9109 60.5742 78.6756 60.5471 78.4421 60.568L78.4804 60.5603Z" fill="#17262F"></path><path d="M94.0522 47.3983H96.4697C100.767 47.3983 103.983 42.8319 103.983 38.7414V37.759C103.981 35.767 103.189 33.8571 101.78 32.4485C100.372 31.0399 98.4618 30.2476 96.4697 30.2456H36.6078C32.8243 30.2456 29.8849 26.0092 29.8849 22.3715V22.2026C29.8849 18.5572 32.8243 14.3208 36.6078 14.3208H42.2103V15.7022C42.2103 16.4927 42.5238 17.2509 43.082 17.8105C43.6402 18.3702 44.3976 18.6856 45.188 18.6876H49.1174C49.2282 18.6828 49.3385 18.67 49.4474 18.6493C50.8442 22.2563 54.0982 25.3262 58.1044 25.3262H62.8703C63.0957 25.3262 63.3189 25.2817 63.527 25.1952C63.7352 25.1087 63.9242 24.9819 64.0832 24.8222C64.2422 24.6625 64.3681 24.4729 64.4537 24.2644C64.5392 24.0558 64.5827 23.8325 64.5817 23.6071V19.5702H72.0184C72.2533 19.5859 72.489 19.5533 72.7107 19.4742C72.9324 19.3951 73.1356 19.2713 73.3075 19.1105C73.4795 18.9497 73.6165 18.7552 73.7103 18.5393C73.804 18.3233 73.8523 18.0904 73.8523 17.8549C73.8523 17.6195 73.804 17.3866 73.7103 17.1706C73.6165 16.9547 73.4795 16.7602 73.3075 16.5994C73.1356 16.4386 72.9324 16.3148 72.7107 16.2357C72.489 16.1567 72.2533 16.124 72.0184 16.1397H64.5817V9.10207H72.0184C72.2533 9.11779 72.489 9.0851 72.7107 9.00602C72.9324 8.92693 73.1356 8.80314 73.3075 8.64233C73.4795 8.48151 73.6165 8.28709 73.7103 8.07112C73.804 7.85515 73.8523 7.62223 73.8523 7.3868C73.8523 7.15137 73.804 6.91845 73.7103 6.70248C73.6165 6.48651 73.4795 6.29209 73.3075 6.13127C73.1356 5.97046 72.9324 5.84667 72.7107 5.76758C72.489 5.6885 72.2533 5.65581 72.0184 5.67153H64.5817V1.71911C64.5827 1.49372 64.5392 1.27034 64.4537 1.06181C64.3681 0.853287 64.2422 0.663713 64.0832 0.503978C63.9242 0.344243 63.7352 0.217493 63.527 0.131006C63.3189 0.0445183 63.0957 -2.26617e-06 62.8703 0L58.1044 0C56.1094 0.00332932 54.1665 0.636558 52.5527 1.80936C50.9388 2.98217 49.7366 4.63464 49.1174 6.53108H45.188C44.3983 6.53108 43.6409 6.84481 43.0824 7.40324C42.524 7.96168 42.2103 8.71908 42.2103 9.50883V10.8903H36.6385C30.8289 10.8903 26.485 16.8611 26.485 22.2026V22.3715C26.485 27.7437 30.8289 33.6761 36.6385 33.6761H96.5004C97.5752 33.6883 98.6019 34.1238 99.3577 34.8881C100.113 35.6525 100.537 36.6841 100.537 37.759V38.7414C100.537 41.0437 98.6109 43.9678 96.4543 43.9678H94.0368C92.0448 43.9698 90.1349 44.762 88.7263 46.1706C87.3177 47.5792 86.5254 49.4891 86.5234 51.4812V51.6117C86.5336 53.6011 87.3315 55.5054 88.7425 56.9078C90.1536 58.3102 92.0628 59.0965 94.0522 59.0944H96.4697C98.0046 59.0944 100.553 59.4781 100.553 62.0338V65.8711C100.553 66.9546 100.123 67.9939 99.3572 68.7608C98.5917 69.5277 97.5532 69.9596 96.4697 69.9616H87.5902C86.9992 64.5894 85.2187 58.0737 80.5833 52.5863C74.505 45.3799 64.9578 41.7268 52.1873 41.7268C39.954 41.7268 33.9908 47.3983 29.2095 51.9494C26.9916 54.0522 25.0806 55.8711 22.9854 56.6616C22.0721 57.0069 21.0361 57.3446 19.9156 57.713C12.0107 60.3684 0 64.3208 0 79.0484C0.0030299 79.2042 0.0262471 79.359 0.0690714 79.5088C0.0262471 79.6587 0.0030299 79.8135 0 79.9693C0 80.4252 0.18112 80.8625 0.503516 81.1849C0.825911 81.5073 1.26317 81.6884 1.71911 81.6884H12.7475C13.1387 84.015 14.3418 86.1276 16.143 87.6512C17.9442 89.1749 20.2271 90.0109 22.5863 90.0109C24.9456 90.0109 27.2284 89.1749 29.0297 87.6512C30.8309 86.1276 32.0339 84.015 32.4252 81.6884H59.1404C59.5317 84.015 60.7347 86.1276 62.5359 87.6512C64.3372 89.1749 66.6201 90.0109 68.9793 90.0109C71.3385 90.0109 73.6214 89.1749 75.4226 87.6512C77.2238 86.1276 78.4269 84.015 78.8181 81.6884H85.7713C86.1761 81.6886 86.5678 81.5453 86.877 81.2839C87.1861 81.0226 87.3925 80.6601 87.4597 80.2609C87.7915 77.9925 87.9148 75.6985 87.8281 73.4075H96.4697C98.4625 73.4035 100.372 72.6095 101.781 71.1997C103.189 69.7899 103.981 67.8792 103.983 65.8864V62.0491C103.983 58.2118 101.028 55.6792 96.4697 55.6792H94.0522C92.97 55.6772 91.9326 55.2464 91.1674 54.4811C90.4021 53.7159 89.9713 52.6785 89.9693 51.5963V51.4659C89.9754 50.3863 90.408 49.3529 91.1728 48.591C91.9376 47.829 92.9726 47.4003 94.0522 47.3983ZM52.0798 9.4551C52.0818 7.85791 52.7172 6.32672 53.8466 5.19734C54.976 4.06796 56.5072 3.43258 58.1044 3.43054H61.1742V21.9186H58.1044C54.7659 21.9186 52.0798 17.9969 52.0798 14.7506V9.4551ZM45.6408 9.97698H48.6416V15.2648H45.6408V9.97698ZM22.617 86.5771C20.8827 86.5751 19.2195 85.8874 17.9902 84.6639C16.7609 83.4404 16.0654 81.7804 16.0553 80.0461V79.9847C16.0553 78.2444 16.7466 76.5753 17.9772 75.3448C19.2077 74.1142 20.8767 73.4229 22.617 73.4229C24.3573 73.4229 26.0263 74.1142 27.2569 75.3448C28.4875 76.5753 29.1788 78.2444 29.1788 79.9847V80.0384C29.1666 81.7767 28.466 83.4394 27.2303 84.6621C25.9946 85.8848 24.3247 86.5679 22.5863 86.5618L22.617 86.5771ZM69.01 86.5771C67.7122 86.5771 66.4435 86.1923 65.3644 85.4713C64.2854 84.7503 63.4443 83.7254 62.9477 82.5264C62.451 81.3274 62.3211 80.0081 62.5743 78.7352C62.8275 77.4624 63.4524 76.2932 64.3701 75.3755C65.2878 74.4578 66.457 73.8328 67.7298 73.5797C69.0027 73.3265 70.3221 73.4564 71.5211 73.9531C72.7201 74.4497 73.7449 75.2907 74.4659 76.3698C75.1869 77.4489 75.5718 78.7176 75.5718 80.0154C75.5687 80.8781 75.3958 81.7317 75.0629 82.5276C74.73 83.3235 74.2435 84.046 73.6313 84.6539C73.0192 85.2618 72.2933 85.7432 71.4951 86.0705C70.6969 86.3979 69.842 86.5648 68.9793 86.5618L69.01 86.5771ZM84.2441 78.2809H78.8181C78.4269 75.9543 77.2238 73.8417 75.4226 72.3181C73.6214 70.7945 71.3385 69.9584 68.9793 69.9584C66.6201 69.9584 64.3372 70.7945 62.5359 72.3181C60.7347 73.8417 59.5317 75.9543 59.1404 78.2809H32.4252C32.0339 75.9543 30.8309 73.8417 29.0297 72.3181C27.2284 70.7945 24.9456 69.9584 22.5863 69.9584C20.2271 69.9584 17.9442 70.7945 16.143 72.3181C14.3418 73.8417 13.1387 75.9543 12.7475 78.2809H3.47659C3.91404 66.6769 13.7682 63.4075 21.0284 61.0207C22.1873 60.637 23.2694 60.2533 24.2287 59.9233C26.9762 58.8872 29.2249 56.746 31.604 54.482C36.1704 50.1305 41.3584 45.2034 52.1873 45.2034C63.8603 45.2034 72.5173 48.4421 77.9202 54.8273C84.8887 63.0315 84.5971 74.3362 84.2441 78.2809Z" fill="#17262F"></path></g><defs><clipPath id="clip0_5678_33327"><rect width="103.983" height="90" fill="white"></rect></clipPath></defs></svg>