<svg xmlns="http://www.w3.org/2000/svg" width="95" height="73" viewBox="0 0 95 73" fill="none"><g clip-path="url(#clip0_5678_33278)"><path d="M95 25.3912C95.0031 21.8502 94.1052 18.3667 92.3907 15.2685C90.6762 12.1703 88.2015 9.55926 85.1996 7.68121C82.1977 5.80316 78.7673 4.71985 75.2313 4.53322C71.6952 4.3466 68.1698 5.06281 64.9869 6.61444C60.0486 2.4018 53.7827 0.0657629 47.2919 0.0173688C40.801 -0.0310253 34.501 2.21132 29.5004 6.34986C26.3175 4.91789 22.8268 4.30512 19.3464 4.56737C15.866 4.82962 12.5066 5.95856 9.57414 7.85133C6.6417 9.7441 4.22947 12.3405 2.55723 15.4041C0.884984 18.4677 0.00587681 21.901 0 25.3912C0 36.0983 10.1366 44.9121 19.2811 46.0614V67.2276C19.2811 67.2276 19.2811 67.2276 19.2811 67.2855C19.2734 67.3624 19.2734 67.44 19.2811 67.517C19.2771 67.5582 19.2771 67.5997 19.2811 67.641C19.2984 67.7177 19.3234 67.7925 19.3555 67.8642C19.3656 67.904 19.3794 67.9428 19.3969 67.98C19.4291 68.0523 19.4678 68.1215 19.5126 68.1867C19.5288 68.2215 19.5482 68.2547 19.5705 68.2859C19.6155 68.3501 19.6653 68.4109 19.7193 68.4678L19.802 68.5587L19.8681 68.6249C20.5709 69.2202 25.201 72.2132 48.0209 72.2132C70.8407 72.2132 75.4708 69.2202 76.1323 68.6249L76.1902 68.567L76.2976 68.4513C76.3461 68.4027 76.3904 68.3502 76.4299 68.2942L76.5126 68.1619C76.5462 68.1057 76.5765 68.0478 76.6036 67.9883C76.6278 67.9378 76.6472 67.8852 76.6614 67.8312C76.6844 67.7746 76.7038 67.7166 76.7193 67.6575C76.7232 67.5997 76.7232 67.5417 76.7193 67.4839C76.7193 67.426 76.7193 67.3599 76.7193 67.302C76.7193 67.2441 76.7193 67.2524 76.7193 67.2276V45.9787C81.7532 45.3675 86.3901 42.9373 89.757 39.1455C93.1239 35.3538 94.9886 30.462 95 25.3912ZM74.95 42.473H70.1958C69.7292 42.5043 69.292 42.7117 68.9725 43.0533C68.6531 43.3949 68.4754 43.845 68.4754 44.3127C68.4754 44.7803 68.6531 45.2305 68.9725 45.572C69.292 45.9136 69.7292 46.121 70.1958 46.1523H73.1889V66.0949C71.3699 66.7894 65.1358 68.5091 48.0705 68.5091C31.0052 68.5091 24.8538 66.8555 22.9521 66.0783V46.1523H31.8734C32.34 46.121 32.7772 45.9136 33.0966 45.572C33.416 45.2305 33.5937 44.7803 33.5937 44.3127C33.5937 43.845 33.416 43.3949 33.0966 43.0533C32.7772 42.7117 32.34 42.5043 31.8734 42.473H21.1249C14.097 42.473 3.67102 35.2385 3.67102 25.3912C3.67542 22.4245 4.44536 19.5092 5.90634 16.9272C7.36733 14.3452 9.46992 12.184 12.0107 10.6525C14.5516 9.12103 17.4446 8.27117 20.41 8.18515C23.3754 8.09912 26.3129 8.77983 28.9382 10.1614C31.6675 11.62 33.9526 13.7881 35.5527 16.4369C35.8059 16.8535 36.2143 17.1525 36.688 17.268C37.1617 17.3835 37.6619 17.3061 38.0785 17.0529C38.4952 16.7996 38.7941 16.3912 38.9097 15.9175C39.0252 15.4438 38.9478 14.9436 38.6945 14.527C37.2215 12.0688 35.2602 9.93862 32.9317 8.26805C35.9483 6.07639 39.4327 4.61509 43.1102 3.99924C46.7878 3.3834 50.5581 3.62983 54.1242 4.71914C57.6903 5.80845 60.9547 7.71087 63.6604 10.2766C66.3661 12.8422 68.4392 16.0011 69.7163 19.5043C69.8521 19.851 70.0901 20.1481 70.3987 20.3563C70.7074 20.5646 71.072 20.674 71.4443 20.6701C71.6584 20.6707 71.871 20.6344 72.0727 20.5627C72.2991 20.4797 72.507 20.3529 72.6844 20.1895C72.8618 20.0262 73.0053 19.8295 73.1067 19.6106C73.208 19.3918 73.2653 19.1551 73.2751 18.9142C73.285 18.6732 73.2472 18.4326 73.1641 18.2063C71.9607 14.9366 70.1545 11.9217 67.8394 9.3181C70.1588 8.39998 72.6504 7.99817 75.1408 8.14063C77.6312 8.28308 80.0607 8.96639 82.2602 10.143C84.4598 11.3196 86.3766 12.9613 87.8773 14.9538C89.378 16.9464 90.4267 19.242 90.9502 21.6809C91.4738 24.1198 91.4598 26.6435 90.9091 29.0764C90.3584 31.5094 89.2843 33.7931 87.7615 35.7689C86.2387 37.7446 84.3037 39.3648 82.0912 40.5169C79.8787 41.669 77.4418 42.3252 74.95 42.4399V42.473Z" fill="#17262F"></path></g><defs><clipPath id="clip0_5678_33278"><rect width="95" height="72.1802" fill="white"></rect></clipPath></defs></svg>