<svg xmlns="http://www.w3.org/2000/svg" width="100" height="110" viewBox="0 0 100 110" fill="none"><g clip-path="url(#clip0_5678_18230)"><path d="M81.2315 83.7918L79.1367 86.8952L34.5408 61.168C34.5408 61.168 33.9047 60.749 34.7115 59.368L34.7891 59.2439C34.978 58.896 35.2712 58.6161 35.6275 58.4435C35.9838 58.2709 36.3852 58.2144 36.7753 58.2818L79.7263 82.9694L81.2315 83.7918Z" fill="#C76414"></path><path d="M46.9234 103.622L44.8752 106.726L0.232757 80.9521C0.232757 80.9521 -0.387923 80.5332 0.403444 79.1366V79.0125C0.588694 78.6614 0.881334 78.3786 1.23865 78.2055C1.59596 78.0325 1.99924 77.9781 2.38962 78.0505L45.4183 102.754L46.9234 103.622Z" fill="#C76414"></path><path d="M79.7264 82.9694L78.6712 84.5211L34.7891 59.2439C34.978 58.896 35.2712 58.6161 35.6275 58.4435C35.9838 58.2709 36.3852 58.2144 36.7753 58.2818L79.7264 82.9694Z" fill="#F0BE3A"></path><path d="M45.4182 102.754L44.3786 104.305L0.481018 79.0281C0.666268 78.677 0.958908 78.3942 1.31622 78.2212C1.67354 78.0481 2.07682 77.9937 2.46719 78.0661L45.4182 102.754Z" fill="#F0BE3A"></path><path d="M41.5235 105.795C42.2838 106.229 47.5906 109.286 48.413 109.581C49.6854 110.031 46.582 107.222 47.7458 106.478C48.0053 106.332 48.2231 106.122 48.3781 105.868C48.5331 105.613 48.6202 105.324 48.6312 105.026C48.6421 104.729 48.5764 104.433 48.4403 104.169C48.3043 103.904 48.1026 103.678 47.8544 103.514L42.5166 100.023C39.5684 97.2915 37.9546 92.264 38.0167 85.9331C38.0942 77.3056 42.8735 67.8092 48.2889 58.4215C56.7922 43.6958 67.8558 32.9891 77.7712 32.9891C79.5575 32.9536 81.3206 33.3984 82.8763 34.277C86.8487 36.5735 89.0831 42.1441 89.0831 49.5923C89.0831 58.2353 85.9797 68.2127 80.5488 77.5229C79.416 79.478 78.2057 81.3711 76.9333 83.1556C76.7179 83.4393 76.5633 83.7644 76.4792 84.1105C76.3951 84.4566 76.3832 84.8164 76.4444 85.1673C76.5055 85.5183 76.6384 85.8528 76.8346 86.1501C77.0309 86.4474 77.2863 86.701 77.585 86.8951L77.8333 87.0503C78.8729 87.64 84.2108 90.9761 84.909 89.9986C86.3056 88.0279 86.2435 82.3487 87.5004 80.1608C99.6191 59.1508 97.2606 36.5735 85.3901 29.7305C73.5195 22.8875 54.0768 34.3856 41.9425 55.3646C29.8082 76.3436 29.6685 98.9363 41.5235 105.795Z" fill="#3C3E40"></path><path d="M80.1453 22.9807L57.6146 9.94637V6.48608L80.1453 19.5204V22.9807Z" fill="#AC5200"></path><path d="M50.0733 40.3442L27.5427 27.3099V23.8651L50.0733 36.8994V40.3442Z" fill="#AC5200"></path><path d="M59.6784 5.30676L57.6146 6.48605L80.1453 19.5203L82.2091 18.341L59.6784 5.30676Z" fill="#F4C26C"></path><path d="M36.7443 48.0406L14.2291 35.0063V31.546L36.7443 44.5803V48.0406Z" fill="#AC5200"></path><path d="M14.2291 31.5461L36.7443 44.5804L38.1253 43.8045L15.5946 30.7703L14.2291 31.5461Z" fill="#676F70"></path><path d="M16.2929 30.3668L14.2291 31.5461L36.7443 44.5804L38.808 43.4011L16.2929 30.3668Z" fill="#F4C26C"></path><path d="M46.4424 108.619C47.2022 109.061 48.0023 109.43 48.832 109.721C49.4704 109.957 50.1528 110.05 50.8311 109.993C51.5094 109.937 52.1671 109.733 52.7578 109.395C53.0078 109.237 53.2137 109.018 53.3564 108.759C53.4991 108.5 53.5739 108.209 53.5739 107.913C53.5739 107.617 53.4991 107.326 53.3564 107.067C53.2137 106.808 53.0078 106.589 52.7578 106.431L47.4355 102.878C44.5028 100.131 42.889 95.1192 42.9355 88.7727C42.9355 80.1453 46.0389 70.1523 51.4699 60.8421C59.9577 46.1165 72.7747 35.8443 82.628 35.8443C84.4139 35.8125 86.176 36.2571 87.7331 37.1322C91.69 39.4132 93.9399 44.9993 93.9399 52.4319C93.8623 61.0749 90.8365 71.0523 85.4056 80.3625C84.2728 82.3177 83.078 84.1952 81.8056 85.9797C81.5978 86.274 81.4536 86.6085 81.3823 86.9617C81.311 87.3149 81.3142 87.679 81.3916 88.031C81.469 88.3829 81.6189 88.7148 81.8318 89.0055C82.0447 89.2962 82.3159 89.5393 82.628 89.7193L82.8918 89.8589C83.3939 90.1642 83.9928 90.2683 84.5685 90.1503C85.1441 90.0323 85.6538 89.7009 85.9952 89.2227C87.4323 87.2218 88.7684 85.1503 89.9986 83.0159C102.133 62.0059 102.412 39.4287 90.4796 32.5702C78.5471 25.7117 59.1663 37.2253 47.032 58.2198C34.8977 79.2143 34.5874 101.791 46.4424 108.619Z" fill="#CC6500"></path><path d="M93.7382 24.9048C92.9468 25.5875 80.1608 36.7287 77.0264 38.5442L73.6126 40.5149C65.4197 38.1718 59.8025 44.7975 51.3923 56.6991L51.144 64.9696L47.0165 62.7042L41.4925 59.6008L38.8701 58.1266C38.2223 57.7563 37.6842 57.2208 37.3108 56.5748C36.9374 55.9288 36.7419 55.1953 36.7443 54.4491V44.5803L82.2401 18.3411L85.3435 20.1721L85.5297 20.2807V25.7582L88.4469 24.0979L90.402 22.9651L93.7382 24.9048Z" fill="#AC5200"></path><path d="M87.1435 45.9458L88.54 45.139C90.1213 44.2206 91.4337 42.903 92.346 41.3182C93.2582 39.7333 93.7383 37.9367 93.7382 36.1081V24.9048L48.2889 51.2061V61.0594C48.2901 61.8071 48.4878 62.5413 48.8621 63.1886C49.2364 63.8359 49.7742 64.3735 50.4216 64.7475C51.069 65.1215 51.8034 65.3188 52.5511 65.3197C53.2988 65.3205 54.0336 65.1249 54.6819 64.7524L56.0009 63.9921C56.7418 63.5459 57.3898 62.9611 57.9094 62.2697C65.5438 51.9664 75.3816 45.9614 83.078 46.7527C84.484 46.9105 85.9043 46.6286 87.1435 45.9458Z" fill="#EB9500"></path><path d="M93.7382 24.9048L93.6917 24.9358L48.3044 51.144L36.7443 44.5803L82.1936 18.3411L85.328 20.1255H85.3435L85.5297 20.2341V25.7582L88.4004 24.0979L90.3555 22.9651L93.7382 24.9048Z" fill="#F4C26C"></path><path d="M53.875 52.1526C52.8974 51.7647 51.563 52.8509 50.8802 54.5577C50.1975 56.2646 50.4147 57.987 51.3923 58.3749C52.3699 58.7628 53.7043 57.6922 54.3871 55.9698C55.0698 54.2474 54.8371 52.5405 53.875 52.1526Z" fill="#5A5A5A"></path><path d="M53.875 52.1527C53.6918 52.106 53.4997 52.106 53.3164 52.1527C53.6989 52.672 53.9242 53.2903 53.9654 53.934C54.0067 54.5777 53.8622 55.2197 53.5492 55.7836C53.3811 56.3654 53.0701 56.8959 52.6446 57.3268C52.2191 57.7577 51.6926 58.0754 51.113 58.2508C51.1979 58.3201 51.2919 58.3775 51.3923 58.4215C52.3544 58.8094 53.7043 57.7388 54.3871 56.0164C55.0698 54.294 54.8371 52.5406 53.875 52.1527Z" fill="#4C4C4C"></path><path d="M90.4641 31.1116C89.5021 30.7237 88.1521 31.7944 87.4693 33.5168C86.7866 35.2391 87.0193 36.946 87.9814 37.3339C88.9435 37.7219 90.2934 36.6357 90.9762 34.9133C91.6589 33.1909 91.4417 31.4995 90.4641 31.1116Z" fill="#5A5A5A"></path><path d="M90.4641 31.1115C90.2809 31.0642 90.0887 31.0642 89.9055 31.1115C90.2948 31.6308 90.5241 32.2524 90.5655 32.9001C90.6068 33.5478 90.4584 34.1934 90.1383 34.758C89.9692 35.3376 89.6576 35.8656 89.2321 36.2938C88.8066 36.7221 88.2806 37.0369 87.7021 37.2097C87.7851 37.2857 87.8793 37.3485 87.9814 37.3959C88.959 37.7838 90.2934 36.6976 90.9762 34.9753C91.6589 33.2529 91.4417 31.4995 90.4641 31.1115Z" fill="#4C4C4C"></path><path d="M72.7747 44.7199C72.3247 44.5337 71.704 45.0458 71.3782 45.8372C71.0523 46.6285 71.1765 47.3889 71.6265 47.6061C72.0764 47.8233 72.6971 47.2802 73.0075 46.4889C73.3178 45.6975 73.2247 44.9061 72.7747 44.7199Z" fill="#5A5A5A"></path><path d="M72.7747 44.72C72.6875 44.704 72.5981 44.704 72.5109 44.72C72.6911 44.9611 72.7973 45.2493 72.8166 45.5496C72.8358 45.8499 72.7674 46.1493 72.6196 46.4114C72.5413 46.682 72.3967 46.9287 72.1989 47.1292C72.0011 47.3298 71.7563 47.4777 71.4868 47.5596L71.6265 47.6372C72.0765 47.8234 72.6971 47.3114 73.0075 46.52C73.3178 45.7286 73.2247 44.9062 72.7747 44.72Z" fill="#4C4C4C"></path><path d="M76.8867 43.4476C76.4367 43.2769 75.8005 43.7735 75.4902 44.5649C75.1799 45.3562 75.273 46.1166 75.7229 46.3493C76.1729 46.5821 76.7936 46.0235 77.1195 45.2321C77.4453 44.4407 77.3367 43.6959 76.8867 43.4476Z" fill="#5A5A5A"></path><path d="M76.8867 43.4476C76.8003 43.4245 76.7094 43.4245 76.6229 43.4476C76.8031 43.6886 76.9093 43.9768 76.9286 44.2771C76.9478 44.5774 76.8794 44.8768 76.7316 45.1389C76.6511 45.4066 76.5055 45.6502 76.3078 45.8479C76.1101 46.0456 75.8665 46.1912 75.5988 46.2717L75.7229 46.3648C76.1729 46.5355 76.7936 46.0389 77.1195 45.2475C77.4453 44.4562 77.3367 43.6958 76.8867 43.4476Z" fill="#4C4C4C"></path><path d="M68.6162 47.9475C68.1662 47.7613 67.5455 48.2733 67.2196 49.0647C66.8938 49.8561 67.0179 50.6164 67.4679 50.8336C67.9179 51.0509 68.5386 50.5078 68.8644 49.7164C69.1903 48.9251 69.0662 48.1026 68.6162 47.9475Z" fill="#5A5A5A"></path><path d="M68.6162 47.9476C68.529 47.9315 68.4396 47.9315 68.3524 47.9476C68.5357 48.1901 68.6438 48.4812 68.6631 48.7847C68.6824 49.0881 68.6121 49.3906 68.461 49.6544C68.3853 49.9263 68.2416 50.1744 68.0434 50.3754C67.8452 50.5763 67.5991 50.7234 67.3282 50.8027H67.4679C67.9179 50.9889 68.5386 50.4768 68.8644 49.6855C69.1903 48.8941 69.0662 48.1027 68.6162 47.9476Z" fill="#4C4C4C"></path><path d="M27.5427 23.8652L50.0889 36.884L72.6351 23.8652L50.0889 10.8464L27.5427 23.8652Z" fill="#F4C26C"></path><path d="M64.1628 38.2028L56.2181 33.6098V30.7546L64.1628 35.3477V38.2028Z" fill="#3C3E40"></path><path d="M64.1628 38.2028L72.1075 33.6098V30.7546L64.1628 35.3477V38.2028Z" fill="#5A5A5A"></path><path d="M56.2181 30.7702L64.1628 35.3477L72.1075 30.7546L64.1628 26.1771L56.2181 30.7702Z" fill="#8F9596"></path><path d="M64.1628 32.9581L59.8956 30.4909V26.6892L64.1628 29.1564V32.9581Z" fill="#0E0F0F"></path><path d="M64.1628 32.9581L68.43 30.4909V26.6892L64.1628 29.1564V32.9581Z" fill="#292929"></path><path d="M59.8956 26.6893L64.1628 29.1565L68.43 26.6893L64.1628 24.222L59.8956 26.6893Z" fill="#616565"></path><path d="M64.1628 29.5133L57.7698 25.8202V20.1255L64.1628 23.8185V29.5133Z" fill="#2D2F30"></path><path d="M64.1628 29.5133L70.5558 25.8202V20.1255L64.1628 23.8185V29.5133Z" fill="#4A4A4A"></path><path d="M57.7698 20.1255L64.1628 23.8186L70.5558 20.1255L64.1628 16.4325L57.7698 20.1255Z" fill="#808686"></path><path d="M64.1628 25.1686L56.8388 20.9479V14.4153L64.1628 18.6514V25.1686Z" fill="#3E4042"></path><path d="M64.1628 25.1686L71.4868 20.9479V14.4153L64.1628 18.6514V25.1686Z" fill="#5C5C5C"></path><path d="M56.8388 14.4153L64.1628 18.6515L71.5023 14.4153L64.1628 10.1792L56.8388 14.4153Z" fill="#919798"></path><path d="M64.1628 20.3583L54.2164 14.6171V5.74133L64.1628 11.4981V20.3583Z" fill="#AC5200"></path><path d="M64.1628 20.3583L74.1092 14.6171V5.74133L64.1628 11.4981V20.3583Z" fill="#EB9500"></path><path d="M54.2164 5.74129L64.1628 11.4981L74.1247 5.74129L64.1628 0L54.2164 5.74129Z" fill="#8F9596"></path><path d="M53.1768 44.5803L51.2061 45.7285L45.0303 49.2974L43.2769 48.2733L40.1115 46.4423L48.2889 41.6631L53.1768 44.5803Z" fill="#EB9500"></path><path d="M51.2061 45.7286L53.1768 44.5803L52.1837 43.9907L48.351 41.7717V47.3889L51.2061 45.7286Z" fill="#AC5200"></path><path d="M85.5297 20.2341V25.7582L82.2246 27.6667L80.4712 26.6426L79.5246 26.0995L77.3057 24.8271L85.328 20.1255H85.3435L85.5297 20.2341Z" fill="#EB9500"></path><path d="M45.0303 49.2975V61.649L40.1115 58.8094V46.4424L43.2769 48.2734L45.0303 49.2975Z" fill="#EB9500"></path><path d="M51.2061 45.7286L44.9993 49.2975V61.7111C43.7579 60.9973 41.1356 59.4611 40.0804 58.8715V54.3095C40.0813 52.5411 40.5479 50.8042 41.4332 49.2733C42.3184 47.7425 43.5912 46.4718 45.1234 45.5889L48.1027 43.8821L51.2061 45.7286Z" fill="#3C3E40"></path><path d="M87.2986 24.7341L85.5297 25.7582L82.2401 27.6668L80.4867 26.6427L79.5401 26.0996C80.5426 25.4318 81.5784 24.8155 82.6435 24.2531C83.404 23.9686 84.2199 23.864 85.0275 23.9474C85.8351 24.0309 86.6125 24.3001 87.2986 24.7341Z" fill="#3C3E40"></path><path d="M44.9993 54.4336L40.4218 51.7026C40.2055 52.5544 40.1012 53.4308 40.1114 54.3095V58.8094L44.9993 61.587V54.4336Z" fill="#2F3133"></path></g><defs><clipPath id="clip0_5678_18230"><rect width="99.1226" height="110" fill="white"></rect></clipPath></defs></svg>