<svg xmlns="http://www.w3.org/2000/svg" width="110" height="105" viewBox="0 0 110 105" fill="none"><g clip-path="url(#clip0_5678_16282)"><path d="M57.8404 43.4912C57.7456 43.4912 57.6548 43.4536 57.5878 43.3866C57.5209 43.3196 57.4832 43.2288 57.4832 43.1341V41.2945C57.4832 41.2481 57.4925 41.2021 57.5106 41.1594C57.5287 41.1167 57.5552 41.078 57.5885 41.0457C57.6218 41.0134 57.6612 40.9881 57.7045 40.9714C57.7478 40.9546 57.794 40.9467 57.8404 40.9482C57.9322 40.9482 58.0203 40.9847 58.0852 41.0496C58.1502 41.1145 58.1866 41.2026 58.1866 41.2945V43.1341C58.1881 43.1805 58.1802 43.2267 58.1635 43.2699C58.1467 43.3132 58.1214 43.3527 58.0891 43.386C58.0568 43.4193 58.0182 43.4458 57.9754 43.4638C57.9327 43.4819 57.8868 43.4912 57.8404 43.4912Z" fill="#17262F"></path><path d="M62.104 43.4913C62.0576 43.4914 62.0117 43.4821 61.9689 43.464C61.9262 43.4459 61.8875 43.4194 61.8552 43.3861C61.8229 43.3528 61.7976 43.3133 61.7809 43.2701C61.7641 43.2268 61.7563 43.1806 61.7577 43.1342V41.2621C61.7563 41.2158 61.7641 41.1696 61.7809 41.1263C61.7976 41.083 61.8229 41.0436 61.8552 41.0102C61.8875 40.9769 61.9262 40.9505 61.9689 40.9324C62.0117 40.9143 62.0576 40.905 62.104 40.905C62.1987 40.905 62.2895 40.9427 62.3565 41.0096C62.4235 41.0766 62.4611 41.1674 62.4611 41.2621V43.1342C62.4611 43.2289 62.4235 43.3198 62.3565 43.3868C62.2895 43.4537 62.1987 43.4913 62.104 43.4913Z" fill="#17262F"></path><path d="M79.5481 63.8462C78.6349 63.8472 77.7434 63.5676 76.9942 63.0455L58.0568 49.2807C57.4036 48.7821 56.9637 48.0544 56.826 47.2443C56.6882 46.4342 56.8628 45.602 57.3145 44.9156C57.7662 44.2291 58.4613 43.7395 59.2598 43.5454C60.0583 43.3514 60.9007 43.4674 61.617 43.87L81.8638 55.5895C82.3802 55.8952 82.8294 56.3023 83.1843 56.7862C83.5393 57.2701 83.7926 57.8208 83.9291 58.4051C84.0656 58.9895 84.0824 59.5955 83.9785 60.1865C83.8747 60.7776 83.6523 61.3415 83.3247 61.8443C83.0003 62.3468 82.5768 62.7779 82.0799 63.1109C81.5831 63.444 81.0235 63.6721 80.4354 63.7813C80.1432 63.8375 79.8454 63.8592 79.5481 63.8462ZM59.9722 44.0756C59.4329 44.0748 58.9072 44.244 58.4697 44.5591C58.0321 44.8742 57.7051 45.3193 57.5349 45.8309C57.3647 46.3426 57.3602 46.8948 57.5219 47.4092C57.6835 47.9236 58.0032 48.374 58.4355 48.6963L77.373 62.4828C77.7865 62.7521 78.249 62.9373 78.7341 63.0278C79.2192 63.1183 79.7174 63.1125 80.2003 63.0105C80.6831 62.9085 81.1411 62.7124 81.5482 62.4334C81.9552 62.1544 82.3033 61.7979 82.5726 61.3844C82.8419 60.9708 83.0271 60.5083 83.1177 60.0232C83.2082 59.5381 83.2023 59.0399 83.1003 58.5571C82.9984 58.0742 82.8023 57.6162 82.5233 57.2092C82.2442 56.8021 81.8878 56.454 81.4743 56.1847L61.2599 44.4218C60.8699 44.1919 60.4248 44.0723 59.9722 44.0756Z" fill="#17262F"></path><path d="M59.9614 48.6096C59.5762 48.6127 59.1991 48.4996 58.8792 48.285C58.6609 48.1437 58.4728 47.9605 58.3256 47.746C58.1785 47.5316 58.0753 47.2901 58.022 47.0356C57.9687 46.7811 57.9663 46.5185 58.015 46.263C58.0637 46.0076 58.1625 45.7643 58.3057 45.5472C58.5873 45.1216 59.0209 44.8197 59.5177 44.7031C59.7721 44.6472 60.0351 44.6423 60.2915 44.6888C60.5478 44.7352 60.7924 44.832 61.011 44.9737C61.4613 45.2493 61.7844 45.6917 61.91 46.2045C62.0357 46.7172 61.9537 47.2589 61.682 47.7115C61.5397 47.93 61.3555 48.118 61.14 48.2648C60.9246 48.4115 60.6821 48.514 60.4267 48.5664C60.2732 48.5952 60.1175 48.6097 59.9614 48.6096ZM59.9614 45.3632C59.8751 45.3528 59.7879 45.3528 59.7016 45.3632C59.3728 45.4354 59.0854 45.6336 58.9009 45.9151C58.8057 46.0523 58.7402 46.2079 58.7085 46.3719C58.6768 46.5358 58.6797 46.7046 58.7169 46.8674C58.7497 47.0328 58.8154 47.1899 58.9102 47.3294C59.0051 47.4688 59.127 47.5877 59.2688 47.679C59.5512 47.8594 59.8932 47.9216 60.2211 47.8521C60.3856 47.8211 60.5419 47.7559 60.6798 47.6609C60.8177 47.5658 60.9342 47.443 61.0219 47.3003C61.1143 47.1615 61.1782 47.0056 61.2097 46.8419C61.2413 46.6781 61.2399 46.5097 61.2056 46.3465C61.1714 46.1833 61.1049 46.0286 61.0102 45.8913C60.9155 45.7541 60.7944 45.6371 60.6539 45.5472C60.45 45.4196 60.2126 45.3555 59.9722 45.3632H59.9614Z" fill="#17262F"></path><path d="M84.9912 60.5132C84.8973 60.5113 84.8078 60.4724 84.7424 60.405C84.6782 60.3402 84.6423 60.2527 84.6423 60.1615C84.6423 60.0704 84.6782 59.9829 84.7424 59.918L106.05 37.7017C106.082 37.6683 106.121 37.6418 106.163 37.6237C106.206 37.6055 106.252 37.5962 106.299 37.5962C106.345 37.5962 106.391 37.6055 106.434 37.6237C106.477 37.6418 106.515 37.6683 106.547 37.7017C106.612 37.7684 106.648 37.8577 106.648 37.9506C106.648 38.0436 106.612 38.1328 106.547 38.1995L85.2401 60.3942C85.2095 60.4305 85.1714 60.46 85.1285 60.4805C85.0856 60.501 85.0388 60.5122 84.9912 60.5132Z" fill="#17262F"></path><path d="M78.8014 52.7435C78.7226 52.7445 78.646 52.7176 78.585 52.6678C78.5486 52.6401 78.5181 52.6056 78.4951 52.5661C78.4722 52.5267 78.4573 52.483 78.4512 52.4378C78.4452 52.3925 78.4482 52.3465 78.46 52.3024C78.4718 52.2583 78.4922 52.217 78.5201 52.1808L94.2219 32.0638C94.2486 32.0262 94.2827 31.9945 94.3221 31.9707C94.3616 31.9468 94.4055 31.9314 94.4512 31.9253C94.4969 31.9192 94.5434 31.9226 94.5877 31.9353C94.632 31.9479 94.6733 31.9696 94.7089 31.9989C94.7468 32.0266 94.7787 32.0617 94.8027 32.1021C94.8266 32.1425 94.8421 32.1873 94.8482 32.2339C94.8542 32.2804 94.8508 32.3277 94.838 32.3729C94.8252 32.4181 94.8034 32.4602 94.7738 32.4967L79.0828 52.6137C79.0481 52.6545 79.005 52.6872 78.9564 52.7096C78.9078 52.7321 78.8549 52.7436 78.8014 52.7435Z" fill="#17262F"></path><path d="M79.2992 62.4936C78.5414 62.4953 77.8095 62.2179 77.2431 61.7144C76.6118 61.1667 76.2232 60.3912 76.1624 59.5577C76.1015 58.7241 76.3734 57.9004 76.9185 57.2668C77.4697 56.6374 78.2466 56.2503 79.0811 56.1896C79.9155 56.1288 80.7404 56.3992 81.3769 56.9422C81.8493 57.3512 82.1898 57.891 82.3555 58.4934C82.5211 59.0959 82.5045 59.7339 82.3076 60.3269C82.1107 60.9199 81.7424 61.4412 81.2493 61.8249C80.7562 62.2086 80.1604 62.4376 79.5373 62.4828L79.2992 62.4936ZM79.2992 56.8881C78.9606 56.8858 78.6252 56.9535 78.314 57.0869C78.0028 57.2204 77.7226 57.4168 77.4909 57.6637C77.2592 57.9106 77.0811 58.2028 76.9677 58.5218C76.8543 58.8409 76.808 59.1799 76.8319 59.5177C76.8577 60.0097 77.0315 60.4824 77.3306 60.8739C77.6296 61.2655 78.0399 61.5576 78.5078 61.7119C78.9756 61.8663 79.4792 61.8758 79.9525 61.7392C80.4259 61.6025 80.8469 61.3261 81.1605 60.9461C81.4676 60.5917 81.6664 60.1563 81.733 59.6921C81.7997 59.2278 81.7314 58.7542 81.5364 58.3276C81.3414 57.9011 81.0278 57.5396 80.633 57.2863C80.2383 57.033 79.779 56.8985 79.31 56.8989L79.2992 56.8881Z" fill="#17262F"></path><path d="M79.3533 60.5997C79.1032 60.5984 78.8587 60.5254 78.6487 60.3895C78.4387 60.2535 78.2721 60.0603 78.1685 59.8326C78.0649 59.605 78.0287 59.3524 78.0642 59.1048C78.0996 58.8572 78.2052 58.6249 78.3685 58.4355C78.4798 58.3065 78.6155 58.2009 78.7678 58.1247C78.9201 58.0486 79.086 58.0034 79.2559 57.9918C79.4277 57.9745 79.6013 57.9935 79.7654 58.0476C79.9294 58.1016 80.0803 58.1895 80.2082 58.3056C80.3371 58.4168 80.4427 58.5525 80.5189 58.7048C80.5951 58.8571 80.6402 59.0231 80.6519 59.193C80.6652 59.372 80.6416 59.5519 80.5825 59.7214C80.5234 59.891 80.43 60.0466 80.3082 60.1785C80.1864 60.3104 80.0388 60.4159 79.8745 60.4884C79.7103 60.5608 79.5328 60.5987 79.3533 60.5997ZM79.3533 58.6843C79.1932 58.7001 79.0457 58.7778 78.9421 58.9008C78.8909 58.9605 78.852 59.0296 78.8276 59.1044C78.8032 59.1791 78.7937 59.2579 78.7997 59.3363C78.8058 59.4146 78.8272 59.4911 78.8627 59.5612C78.8983 59.6313 78.9473 59.6937 79.007 59.7448C79.0667 59.796 79.1359 59.8349 79.2106 59.8593C79.2853 59.8838 79.3641 59.8932 79.4425 59.8872C79.5209 59.8812 79.5973 59.8598 79.6674 59.8242C79.7375 59.7886 79.7999 59.7396 79.8511 59.6799C79.9047 59.6221 79.9459 59.5538 79.972 59.4793C79.998 59.4048 80.0085 59.3258 80.0026 59.2471C79.9907 59.0883 79.9168 58.9406 79.797 58.8358C79.7373 58.781 79.6674 58.7384 79.5913 58.7105C79.5151 58.6827 79.4343 58.6701 79.3533 58.6735V58.6843Z" fill="#17262F"></path><path d="M55.4164 37.5286C55.3226 37.5256 55.2336 37.4869 55.1675 37.4204L51.2285 33.4814C51.1966 33.4484 51.1715 33.4095 51.1548 33.3667C51.1381 33.324 51.13 33.2784 51.1311 33.2325V28.7633C51.1294 28.7111 51.1403 28.6592 51.1629 28.6121C51.1855 28.565 51.2191 28.5241 51.261 28.4927L57.678 23.266C57.737 23.2114 57.8141 23.1805 57.8945 23.1794H58.7602C58.8295 23.1801 58.897 23.201 58.9547 23.2394C59.0123 23.2778 59.0575 23.3322 59.0848 23.3959C59.1108 23.4613 59.1174 23.5327 59.104 23.6017C59.0905 23.6708 59.0576 23.7345 59.0091 23.7854L58.0351 24.7594L55.1783 29.0879V32.7023C55.1783 32.7487 55.169 32.7946 55.1509 32.8373C55.1329 32.8801 55.1064 32.9187 55.0731 32.951C55.0398 32.9833 55.0003 33.0086 54.957 33.0254C54.9138 33.0421 54.8676 33.05 54.8212 33.0486C54.7294 33.0486 54.6413 33.0121 54.5763 32.9471C54.5114 32.8822 54.4749 32.7941 54.4749 32.7023V28.9797C54.4542 28.9164 54.4542 28.8482 54.4749 28.7849L57.4291 24.3265L51.8345 28.9364V33.0918L55.6653 36.9226C55.6986 36.9549 55.7252 36.9936 55.7433 37.0363C55.7614 37.0791 55.7708 37.1251 55.7708 37.1715C55.7708 37.2179 55.7614 37.2639 55.7433 37.3067C55.7252 37.3494 55.6986 37.3881 55.6653 37.4204C55.5991 37.4869 55.5101 37.5256 55.4164 37.5286Z" fill="#17262F"></path><path d="M64.528 37.5287C64.434 37.5268 64.3446 37.4879 64.2791 37.4205C64.2457 37.3882 64.2192 37.3495 64.201 37.3068C64.1829 37.264 64.1736 37.218 64.1736 37.1716C64.1736 37.1251 64.1829 37.0792 64.201 37.0364C64.2192 36.9937 64.2457 36.955 64.2791 36.9227L68.1099 33.0919V28.9365L62.4395 24.305L65.4153 28.785C65.4314 28.8489 65.4314 28.9159 65.4153 28.9798V32.7024C65.4008 32.7851 65.3575 32.86 65.2932 32.914C65.2289 32.9679 65.1476 32.9975 65.0636 32.9975C64.9797 32.9975 64.8984 32.9679 64.8341 32.914C64.7698 32.86 64.7265 32.7851 64.712 32.7024V29.088L61.8118 24.7053L60.9353 23.8072C60.8867 23.7563 60.8538 23.6925 60.8404 23.6235C60.827 23.5544 60.8336 23.483 60.8595 23.4176C60.8868 23.3539 60.932 23.2996 60.9897 23.2611C61.0473 23.2227 61.1149 23.2019 61.1842 23.2012H62.0499C62.1299 23.2042 62.2063 23.2347 62.2663 23.2877L68.6834 28.5145C68.7234 28.5474 68.7557 28.5887 68.7781 28.6354C68.8006 28.6822 68.8125 28.7332 68.8133 28.785V33.2542C68.8113 33.3482 68.7725 33.4376 68.705 33.5031L64.7769 37.4421C64.7061 37.4982 64.6183 37.5288 64.528 37.5287Z" fill="#17262F"></path><path d="M59.9722 42.5713C59.9222 42.5815 59.8707 42.5815 59.8207 42.5713L55.2757 40.5261C55.212 40.4988 55.1576 40.4536 55.1192 40.3959C55.0808 40.3383 55.06 40.2707 55.0593 40.2014V35.7106C55.0592 35.6425 55.0799 35.576 55.1186 35.5199C55.1572 35.4639 55.212 35.4209 55.2757 35.3967L59.8207 33.3407C59.8664 33.3194 59.9163 33.3083 59.9668 33.3083C60.0172 33.3083 60.0671 33.3194 60.1129 33.3407L64.6687 35.3967C64.7413 35.4116 64.8066 35.4508 64.8539 35.5078C64.9011 35.5649 64.9274 35.6365 64.9284 35.7106V40.169C64.93 40.2373 64.9113 40.3047 64.8747 40.3624C64.8381 40.4202 64.7853 40.4659 64.7228 40.4936L60.167 42.5389C60.1068 42.569 60.0389 42.5803 59.9722 42.5713ZM55.7627 39.9417L59.9722 41.8355L64.1709 39.9417V35.9378L59.9722 34.0441L55.7627 35.9378V39.9417Z" fill="#17262F"></path><path d="M103.756 37.5177C102.831 37.5199 101.916 37.3285 101.07 36.9557C100.224 36.583 99.4651 36.0372 98.8426 35.3534L89.8176 25.2354C86.2282 21.2066 81.1989 18.7503 75.8147 18.3963H75.4901C75.3972 18.3907 75.3103 18.3492 75.2476 18.2805C75.185 18.2118 75.1516 18.1213 75.1546 18.0284C75.1526 17.981 75.161 17.9337 75.1792 17.8898C75.1975 17.846 75.2251 17.8067 75.2602 17.7747C75.2953 17.7428 75.337 17.7189 75.3823 17.7047C75.4276 17.6906 75.4755 17.6866 75.5225 17.6929H75.8688C81.4094 18.0618 86.5862 20.5822 90.2937 24.716L99.3621 34.8016C100.257 35.8133 101.481 36.4765 102.817 36.6745C104.153 36.8725 105.516 36.5924 106.666 35.8837C107.296 35.4709 107.835 34.9345 108.252 34.3071C108.668 33.6797 108.953 32.9743 109.088 32.2336C109.224 31.493 109.208 30.7326 109.04 29.9984C108.873 29.2642 108.559 28.5715 108.117 27.9624L95.9966 11.6438C92.773 7.26134 87.944 4.33513 82.5673 3.50608L77.5894 2.72694C77.4983 2.71099 77.417 2.66036 77.3625 2.58569C77.3081 2.51102 77.2846 2.41813 77.2972 2.32655C77.3038 2.28083 77.3195 2.23689 77.3433 2.19732C77.3671 2.15774 77.3986 2.12333 77.4359 2.0961C77.4732 2.06887 77.5156 2.04939 77.5605 2.03879C77.6055 2.02819 77.6521 2.02668 77.6976 2.03437L82.6755 2.80269C88.2401 3.66319 93.2366 6.69459 96.5701 11.2326L108.69 27.6378C109.189 28.3239 109.542 29.1042 109.73 29.9314C109.918 30.7585 109.935 31.6151 109.781 32.4492C109.627 33.2832 109.305 34.0773 108.835 34.783C108.365 35.4888 107.756 36.0915 107.045 36.5546C106.066 37.1896 104.923 37.5243 103.756 37.5177Z" fill="#17262F"></path><path d="M103.691 35.8081H103.225C102.643 35.7491 102.079 35.5753 101.564 35.2967C101.049 35.0181 100.595 34.6402 100.228 34.1849C99.4902 33.2671 99.1447 32.0952 99.2663 30.924C99.3878 29.7528 99.9667 28.677 100.877 27.9302C101.793 27.1871 102.966 26.8381 104.139 26.9598C105.312 27.0816 106.388 27.6641 107.132 28.5794C107.661 29.2312 107.995 30.0193 108.094 30.8528C108.194 31.6862 108.056 32.5309 107.696 33.2892C107.337 34.0476 106.769 34.6886 106.061 35.1381C105.352 35.5877 104.53 35.8275 103.691 35.8298V35.8081ZM103.691 27.6163C102.984 27.6177 102.292 27.8192 101.695 28.1974C101.097 28.5756 100.62 29.1151 100.316 29.7536C100.013 30.392 99.8964 31.1033 99.9803 31.8051C100.064 32.507 100.345 33.1707 100.79 33.7196C101.415 34.4891 102.32 34.9793 103.306 35.0827C104.292 35.1862 105.279 34.8944 106.05 34.2715C106.82 33.6446 107.31 32.7381 107.414 31.7504C107.517 30.7628 107.225 29.7744 106.602 29.0015C106.25 28.5663 105.804 28.2159 105.298 27.9762C104.793 27.7364 104.239 27.6134 103.68 27.6163H103.691Z" fill="#17262F"></path><path d="M103.691 32.9836H103.517C103.307 32.9629 103.103 32.9006 102.918 32.8002C102.732 32.6999 102.568 32.5636 102.435 32.3992C102.265 32.1924 102.149 31.9468 102.097 31.6842C102.045 31.4216 102.059 31.1502 102.137 30.8942C102.215 30.6382 102.356 30.4055 102.545 30.2169C102.735 30.0282 102.969 29.8895 103.226 29.813C103.482 29.7365 103.754 29.7247 104.016 29.7785C104.278 29.8324 104.523 29.9503 104.729 30.1216C104.934 30.293 105.094 30.5126 105.194 30.7608C105.295 31.0091 105.332 31.2782 105.303 31.5443C105.283 31.7548 105.222 31.9591 105.121 32.1451C105.021 32.331 104.884 32.4948 104.719 32.6265C104.428 32.8611 104.064 32.9873 103.691 32.9836ZM103.691 30.4406C103.518 30.444 103.349 30.4955 103.204 30.5894C103.059 30.6832 102.943 30.8157 102.868 30.9718C102.794 31.128 102.765 31.3018 102.784 31.4736C102.803 31.6455 102.87 31.8086 102.976 31.9447C103.137 32.1301 103.361 32.2495 103.604 32.2802C103.846 32.2996 104.086 32.226 104.275 32.0746C104.46 31.9179 104.579 31.6979 104.61 31.4578C104.633 31.2158 104.559 30.9745 104.405 30.7869C104.331 30.691 104.238 30.6116 104.132 30.5538C104.026 30.496 103.909 30.4611 103.788 30.4514L103.691 30.4406Z" fill="#17262F"></path><path d="M35.321 22.0866C35.2263 22.0866 35.1355 22.049 35.0685 21.982C35.0015 21.915 34.9639 21.8242 34.9639 21.7295V20.366C34.9639 20.3196 34.9732 20.2737 34.9913 20.2309C35.0094 20.1882 35.0358 20.1495 35.0691 20.1172C35.1025 20.0849 35.1419 20.0596 35.1852 20.0429C35.2285 20.0261 35.2747 20.0183 35.321 20.0197C35.4129 20.0197 35.501 20.0562 35.5659 20.1211C35.6308 20.1861 35.6673 20.2741 35.6673 20.366V21.7295C35.6688 21.7759 35.6609 21.8221 35.6441 21.8653C35.6274 21.9086 35.6021 21.9481 35.5698 21.9814C35.5375 22.0147 35.4988 22.0412 35.4561 22.0592C35.4134 22.0773 35.3674 22.0866 35.321 22.0866Z" fill="#17262F"></path><path d="M28.3629 22.0864C28.3165 22.0864 28.2705 22.0771 28.2278 22.0591C28.1851 22.041 28.1464 22.0145 28.1141 21.9812C28.0818 21.9479 28.0565 21.9084 28.0398 21.8652C28.023 21.8219 28.0151 21.7757 28.0166 21.7293V19.565C28.0166 19.4732 28.0531 19.3851 28.118 19.3202C28.183 19.2552 28.271 19.2188 28.3629 19.2188C28.4557 19.2187 28.545 19.2548 28.6116 19.3195C28.6783 19.3841 28.7172 19.4722 28.72 19.565V21.7293C28.72 21.824 28.6824 21.9149 28.6154 21.9818C28.5484 22.0488 28.4576 22.0864 28.3629 22.0864Z" fill="#17262F"></path><path d="M39.3033 45.3309C39.2569 45.331 39.211 45.3217 39.1682 45.3036C39.1255 45.2855 39.0868 45.259 39.0545 45.2257C39.0222 45.1924 38.997 45.1529 38.9802 45.1097C38.9635 45.0664 38.9556 45.0202 38.957 44.9738V23.1687H24.7269V44.9738C24.7283 45.0202 24.7205 45.0664 24.7037 45.1097C24.6869 45.1529 24.6617 45.1924 24.6294 45.2257C24.5971 45.259 24.5584 45.2855 24.5157 45.3036C24.4729 45.3217 24.427 45.331 24.3806 45.3309C24.2859 45.3309 24.1951 45.2933 24.1281 45.2263C24.0611 45.1594 24.0235 45.0685 24.0235 44.9738V22.8224C24.0235 22.7277 24.0611 22.6369 24.1281 22.5699C24.1951 22.503 24.2859 22.4653 24.3806 22.4653H39.3033C39.398 22.4653 39.4889 22.503 39.5558 22.5699C39.6228 22.6369 39.6604 22.7277 39.6604 22.8224V44.9738C39.6604 45.0685 39.6228 45.1594 39.5558 45.2263C39.4889 45.2933 39.398 45.3309 39.3033 45.3309Z" fill="#17262F"></path><path d="M49.7784 65.1557C49.6837 65.1557 49.5929 65.1181 49.5259 65.0511C49.4589 64.9842 49.4213 64.8933 49.4213 64.7986V50.0707C49.4213 49.2546 49.0979 48.4718 48.5218 47.8937C47.9458 47.3157 47.1641 46.9895 46.348 46.9866H17.3683C16.5522 46.9895 15.7706 47.3157 15.1945 47.8937C14.6185 48.4718 14.295 49.2546 14.2951 50.0707V64.7986C14.2951 64.8933 14.2574 64.9842 14.1905 65.0511C14.1235 65.1181 14.0327 65.1557 13.9379 65.1557C13.8915 65.1557 13.8456 65.1464 13.8029 65.1284C13.7601 65.1103 13.7215 65.0838 13.6892 65.0505C13.6569 65.0172 13.6316 64.9777 13.6148 64.9345C13.5981 64.8912 13.5902 64.845 13.5917 64.7986V50.0707C13.5917 49.0681 13.9892 48.1063 14.6972 47.3964C15.4051 46.6864 16.3657 46.2861 17.3683 46.2832H46.3156C47.3182 46.2861 48.2788 46.6864 48.9867 47.3964C49.6947 48.1063 50.0922 49.0681 50.0922 50.0707V64.7986C50.0954 64.8869 50.0646 64.9731 50.0063 65.0395C49.9479 65.1059 49.8664 65.1475 49.7784 65.1557Z" fill="#17262F"></path><path d="M69.376 18.8617H32.1071C30.8417 18.9046 29.5807 18.6924 28.399 18.2378C27.2174 17.7831 26.1394 17.0953 25.2291 16.2154C24.3188 15.3354 23.5949 14.2812 23.1005 13.1157C22.6061 11.9501 22.3513 10.697 22.3513 9.43089C22.3513 8.16481 22.6061 6.91167 23.1005 5.74611C23.5949 4.58054 24.3188 3.52639 25.2291 2.64642C26.1394 1.76645 27.2174 1.07867 28.399 0.624024C29.5807 0.169378 30.8417 -0.0428289 32.1071 3.99202e-05H69.376C71.8219 0.082905 74.14 1.1128 75.8409 2.87238C77.5419 4.63196 78.4927 6.98356 78.4927 9.43089C78.4927 11.8782 77.5419 14.2298 75.8409 15.9894C74.14 17.749 71.8219 18.7789 69.376 18.8617ZM32.1071 0.703431C30.9351 0.662156 29.7668 0.857346 28.672 1.27736C27.5771 1.69737 26.578 2.33359 25.7343 3.14809C24.8906 3.96258 24.2196 4.93865 23.7613 6.01809C23.303 7.09752 23.0669 8.2582 23.0669 9.43089C23.0669 10.6036 23.303 11.7643 23.7613 12.8437C24.2196 13.9231 24.8906 14.8992 25.7343 15.7137C26.578 16.5282 27.5771 17.1644 28.672 17.5844C29.7668 18.0044 30.9351 18.1996 32.1071 18.1583H69.376C71.6374 18.0787 73.7797 17.1243 75.3514 15.4963C76.9231 13.8683 77.8015 11.6938 77.8015 9.43089C77.8015 7.16801 76.9231 4.99347 75.3514 3.36546C73.7797 1.73745 71.6374 0.783076 69.376 0.703431H32.1071Z" fill="#17262F"></path><path d="M32.5183 16.059C31.2063 16.059 29.9238 15.67 28.8329 14.9411C27.742 14.2122 26.8918 13.1762 26.3897 11.964C25.8876 10.7519 25.7563 9.41815 26.0122 8.13138C26.2682 6.8446 26.9 5.66262 27.8277 4.73491C28.7554 3.80719 29.9374 3.17541 31.2241 2.91946C32.5109 2.6635 33.8447 2.79487 35.0568 3.29694C36.2689 3.79902 37.3049 4.64925 38.0339 5.74013C38.7628 6.831 39.1518 8.11353 39.1518 9.42551C39.1489 11.1839 38.4491 12.8695 37.2057 14.113C35.9623 15.3564 34.2767 16.0562 32.5183 16.059ZM32.5183 3.50621C31.345 3.50621 30.198 3.85428 29.2226 4.50637C28.2471 5.15846 27.4871 6.08526 27.0385 7.16948C26.59 8.2537 26.4732 9.4466 26.7029 10.5972C26.9326 11.7479 27.4985 12.8045 28.3289 13.6334C29.1593 14.4623 30.217 15.0262 31.368 15.2538C32.5191 15.4814 33.7118 15.3624 34.7952 14.9119C35.8786 14.4614 36.804 13.6997 37.4543 12.7231C38.1046 11.7464 38.4505 10.5988 38.4484 9.42551C38.4455 7.85462 37.8195 6.34905 36.7077 5.23927C35.5959 4.1295 34.0892 3.5062 32.5183 3.50621Z" fill="#17262F"></path><path d="M32.5183 11.7736C32.0534 11.7758 31.5983 11.6399 31.2108 11.3831C30.8232 11.1264 30.5205 10.7604 30.3411 10.3315C30.1617 9.90263 30.1137 9.43014 30.2031 8.97392C30.2924 8.51769 30.5152 8.09826 30.8432 7.76877C31.1712 7.43928 31.5896 7.21456 32.0454 7.12307C32.5012 7.03158 32.9739 7.07745 33.4036 7.25486C33.8333 7.43227 34.2007 7.73324 34.4592 8.11964C34.7177 8.50603 34.8557 8.96047 34.8557 9.42537C34.8557 10.0463 34.6098 10.6419 34.1718 11.082C33.7337 11.5221 33.1392 11.7707 32.5183 11.7736ZM32.5183 7.79134C32.1921 7.7892 31.8726 7.88412 31.6004 8.06403C31.3283 8.24394 31.1158 8.50072 30.9899 8.80172C30.8641 9.10271 30.8306 9.43433 30.8938 9.7544C30.9569 10.0745 31.1137 10.3686 31.3444 10.5992C31.5751 10.8299 31.8692 10.9868 32.1893 11.0499C32.5093 11.113 32.841 11.0796 33.142 10.9537C33.443 10.8279 33.6997 10.6154 33.8796 10.3432C34.0596 10.0711 34.1545 9.7516 34.1523 9.42537C34.1495 8.99287 33.9764 8.57889 33.6706 8.27307C33.3648 7.96724 32.9508 7.79417 32.5183 7.79134Z" fill="#17262F"></path><path d="M68.9539 16.059C67.6419 16.059 66.3594 15.67 65.2685 14.9411C64.1777 14.2122 63.3274 13.1762 62.8254 11.964C62.3233 10.7519 62.1919 9.41815 62.4479 8.13138C62.7038 6.8446 63.3356 5.66262 64.2633 4.73491C65.191 3.80719 66.373 3.17541 67.6598 2.91946C68.9466 2.6635 70.2803 2.79487 71.4925 3.29694C72.7046 3.79902 73.7406 4.64925 74.4695 5.74013C75.1984 6.831 75.5874 8.11353 75.5874 9.42551C75.5874 11.1848 74.8886 12.8721 73.6445 14.1161C72.4005 15.3601 70.7132 16.059 68.9539 16.059ZM68.9539 3.50621C67.7806 3.50621 66.6336 3.85428 65.6582 4.50637C64.6828 5.15846 63.9227 6.08526 63.4742 7.16948C63.0257 8.2537 62.9089 9.4466 63.1385 10.5972C63.3682 11.7479 63.9341 12.8045 64.7645 13.6334C65.595 14.4623 66.6526 15.0262 67.8037 15.2538C68.9547 15.4814 70.1474 15.3624 71.2308 14.9119C72.3142 14.4614 73.2396 13.6997 73.8899 12.7231C74.5402 11.7464 74.8862 10.5988 74.884 9.42551C74.884 8.64727 74.7306 7.87666 74.4324 7.15779C74.1343 6.43892 73.6973 5.7859 73.1465 5.2361C72.5957 4.6863 71.9419 4.25051 71.2225 3.95368C70.5031 3.65684 69.7322 3.50478 68.9539 3.50621Z" fill="#17262F"></path><path d="M68.9539 11.7736C68.4895 11.7736 68.0355 11.6359 67.6493 11.3779C67.2631 11.1199 66.9622 10.7531 66.7844 10.324C66.6067 9.89494 66.5602 9.42279 66.6508 8.96727C66.7414 8.51176 66.9651 8.09334 67.2935 7.76493C67.6219 7.43653 68.0403 7.21288 68.4958 7.12227C68.9513 7.03166 69.4235 7.07817 69.8526 7.2559C70.2816 7.43363 70.6484 7.73461 70.9064 8.12078C71.1644 8.50695 71.3022 8.96095 71.3022 9.42539C71.3022 10.0482 71.0548 10.6455 70.6144 11.0859C70.174 11.5262 69.5767 11.7736 68.9539 11.7736ZM68.9539 7.79136C68.6281 7.79137 68.3097 7.88812 68.039 8.06934C67.7683 8.25056 67.5574 8.50809 67.4333 8.80928C67.3091 9.11047 67.2772 9.44175 67.3415 9.76111C67.4059 10.0805 67.5636 10.3735 67.7947 10.6031C68.0258 10.8327 68.3199 10.9885 68.6397 11.0508C68.9595 11.113 69.2906 11.0789 69.5909 10.9527C69.8913 10.8266 70.1474 10.6141 70.3268 10.3422C70.5063 10.0702 70.6009 9.75117 70.5988 9.42539C70.5959 8.99103 70.4214 8.57543 70.1132 8.2693C69.805 7.96316 69.3883 7.79135 68.9539 7.79136Z" fill="#17262F"></path><path d="M57.6348 16.0589H43.8375C43.4823 16.0632 43.1299 15.997 42.8005 15.8641C42.4711 15.7311 42.1714 15.5341 41.9188 15.2845C41.6661 15.0348 41.4655 14.7375 41.3287 14.4098C41.1918 14.0821 41.1213 13.7304 41.1213 13.3752V5.48644C41.1213 4.77468 41.4041 4.09207 41.9073 3.58877C42.4106 3.08548 43.0932 2.80273 43.805 2.80273H57.6348C58.3475 2.80273 59.0312 3.08513 59.5363 3.58811C60.0413 4.0911 60.3264 4.77368 60.3293 5.48644V13.3752C60.3264 14.088 60.0413 14.7706 59.5363 15.2736C59.0312 15.7765 58.3475 16.0589 57.6348 16.0589ZM43.8375 3.50613C43.3123 3.50613 42.8086 3.71476 42.4372 4.08615C42.0658 4.45753 41.8572 4.96123 41.8572 5.48644V13.3752C41.8572 13.9004 42.0658 14.4042 42.4372 14.7755C42.8086 15.1469 43.3123 15.3556 43.8375 15.3556H57.6348C58.161 15.3556 58.6658 15.1473 59.0389 14.7762C59.412 14.4051 59.623 13.9014 59.6259 13.3752V5.48644C59.623 4.96024 59.412 4.45656 59.0389 4.08548C58.6658 3.71441 58.161 3.50612 57.6348 3.50613H43.8375Z" fill="#17262F"></path><path d="M91.8304 104.968H0.357106C0.267761 104.968 0.181523 104.935 0.115412 104.875C0.0493015 104.815 0.00812159 104.732 0 104.643L0 101.721C0 100.516 0.478845 99.3597 1.3312 98.5074C2.18355 97.655 3.33958 97.1762 4.54499 97.1762C4.63683 97.1762 4.72491 97.2127 4.78985 97.2776C4.85479 97.3425 4.89127 97.4306 4.89127 97.5225C4.89272 97.5688 4.88484 97.615 4.86808 97.6583C4.85133 97.7016 4.82605 97.741 4.79375 97.7743C4.76145 97.8077 4.72279 97.8341 4.68005 97.8522C4.63732 97.8703 4.59139 97.8796 4.54499 97.8796C4.0405 97.8796 3.54095 97.9789 3.07487 98.172C2.60879 98.3651 2.18529 98.648 1.82857 99.0047C1.47184 99.3615 1.18887 99.785 0.995815 100.251C0.802756 100.717 0.703391 101.217 0.703391 101.721V104.351H91.4841V101.721C91.4912 101.213 91.3975 100.709 91.2083 100.237C91.0192 99.7653 90.7383 99.3359 90.382 98.9735C90.0257 98.6112 89.6011 98.3232 89.1327 98.1261C88.6643 97.929 88.1615 97.8268 87.6533 97.8255C87.6069 97.8255 87.561 97.8162 87.5182 97.7981C87.4755 97.78 87.4368 97.7535 87.4045 97.7202C87.3722 97.6869 87.3469 97.6475 87.3302 97.6042C87.3134 97.5609 87.3056 97.5147 87.307 97.4684C87.307 97.3765 87.3435 97.2884 87.4084 97.2235C87.4734 97.1586 87.5615 97.1221 87.6533 97.1221C88.8587 97.1221 90.0147 97.6009 90.8671 98.4533C91.7194 99.3056 92.1983 100.462 92.1983 101.667V104.643C92.19 104.734 92.1473 104.818 92.0789 104.878C92.0105 104.939 91.9216 104.971 91.8304 104.968Z" fill="#17262F"></path><path d="M84.9912 97.8256H7.57497C7.52857 97.8256 7.48264 97.8163 7.4399 97.7982C7.39717 97.7801 7.3585 97.7537 7.3262 97.7204C7.2939 97.687 7.26862 97.6476 7.25187 97.6043C7.23512 97.561 7.22723 97.5148 7.22868 97.4685V69.9821C7.22868 68.9489 7.63912 67.958 8.36971 67.2275C9.1003 66.4969 10.0912 66.0864 11.1244 66.0864H54.5398C55.5722 66.0893 56.5614 66.5006 57.2913 67.2306C58.0213 67.9606 58.4327 68.9498 58.4355 69.9821C58.4355 70.8431 58.7776 71.6689 59.3864 72.2777C59.9952 72.8865 60.8209 73.2285 61.6819 73.2285H81.431C82.4671 73.2285 83.4607 73.6401 84.1933 74.3727C84.9259 75.1054 85.3375 76.099 85.3375 77.1351V97.4685C85.339 97.5148 85.3311 97.561 85.3143 97.6043C85.2976 97.6476 85.2723 97.687 85.24 97.7204C85.2077 97.7537 85.169 97.7801 85.1263 97.7982C85.0836 97.8163 85.0376 97.8256 84.9912 97.8256ZM7.88879 97.1222H84.6341V77.0918C84.6341 76.2308 84.2921 75.405 83.6833 74.7962C83.0745 74.1874 82.2487 73.8454 81.3877 73.8454H61.6819C60.6459 73.8454 59.6522 73.4338 58.9196 72.7012C58.187 71.9686 57.7754 70.9749 57.7754 69.9388C57.7754 69.0778 57.4334 68.2521 56.8246 67.6433C56.2157 67.0345 55.39 66.6924 54.529 66.6924H11.0811C10.2295 66.7066 9.4176 67.0549 8.82043 67.6622C8.22327 68.2695 7.88867 69.0871 7.88879 69.9388V97.1222Z" fill="#17262F"></path><path d="M83.5628 91.8846H8.94929C8.86659 91.87 8.79167 91.8268 8.73769 91.7625C8.6837 91.6981 8.65411 91.6169 8.65411 91.5329C8.65411 91.4489 8.6837 91.3676 8.73769 91.3033C8.79167 91.239 8.86659 91.1958 8.94929 91.1812H83.6169C83.6683 91.1722 83.721 91.1745 83.7713 91.188C83.8217 91.2015 83.8685 91.2258 83.9084 91.2594C83.9484 91.2929 83.9805 91.3347 84.0025 91.382C84.0245 91.4292 84.036 91.4807 84.036 91.5329C84.036 91.585 84.0245 91.6365 84.0025 91.6838C83.9805 91.731 83.9484 91.7729 83.9084 91.8064C83.8685 91.8399 83.8217 91.8643 83.7713 91.8778C83.721 91.8913 83.6683 91.8936 83.6169 91.8846H83.5628Z" fill="#17262F"></path><path d="M83.5628 83.3248H31.0466C30.9952 83.3338 30.9425 83.3315 30.8922 83.318C30.8418 83.3045 30.795 83.2801 30.7551 83.2466C30.7151 83.2131 30.683 83.1712 30.661 83.124C30.639 83.0767 30.6275 83.0252 30.6275 82.9731C30.6275 82.9209 30.639 82.8694 30.661 82.8222C30.683 82.7749 30.7151 82.7331 30.7551 82.6995C30.795 82.666 30.8418 82.6417 30.8922 82.6282C30.9425 82.6147 30.9952 82.6123 31.0466 82.6214H83.5628C83.6141 82.6123 83.6669 82.6147 83.7172 82.6282C83.7676 82.6417 83.8144 82.666 83.8543 82.6995C83.8942 82.7331 83.9263 82.7749 83.9484 82.8222C83.9704 82.8694 83.9818 82.9209 83.9818 82.9731C83.9818 83.0252 83.9704 83.0767 83.9484 83.124C83.9263 83.1712 83.8942 83.2131 83.8543 83.2466C83.8144 83.2801 83.7676 83.3045 83.7172 83.318C83.6669 83.3315 83.6141 83.3338 83.5628 83.3248Z" fill="#17262F"></path><path d="M18.3314 83.3247H8.94929C8.86659 83.3102 8.79167 83.2669 8.73769 83.2026C8.6837 83.1383 8.65411 83.057 8.65411 82.973C8.65411 82.8891 8.6837 82.8078 8.73769 82.7435C8.79167 82.6791 8.86659 82.6359 8.94929 82.6213H18.3314C18.4141 82.6359 18.4891 82.6791 18.543 82.7435C18.597 82.8078 18.6266 82.8891 18.6266 82.973C18.6266 83.057 18.597 83.1383 18.543 83.2026C18.4891 83.2669 18.4141 83.3102 18.3314 83.3247Z" fill="#17262F"></path><path d="M43.0367 58.3381H13.9379C13.8915 58.3381 13.8456 58.3288 13.8029 58.3107C13.7601 58.2927 13.7215 58.2662 13.6892 58.2329C13.6569 58.1996 13.6316 58.1601 13.6148 58.1168C13.5981 58.0736 13.5902 58.0274 13.5917 57.981C13.5917 57.8891 13.6281 57.8011 13.6931 57.7361C13.758 57.6712 13.8461 57.6347 13.9379 57.6347H43.0367C43.0831 57.6332 43.1292 57.6411 43.1725 57.6579C43.2158 57.6746 43.2552 57.6999 43.2886 57.7322C43.3219 57.7645 43.3484 57.8032 43.3664 57.8459C43.3845 57.8886 43.3938 57.9346 43.3938 57.981C43.3938 58.0757 43.3562 58.1665 43.2892 58.2335C43.2222 58.3005 43.1314 58.3381 43.0367 58.3381Z" fill="#17262F"></path><path d="M56.8881 39.8012C56.8102 39.7973 56.7358 39.768 56.6762 39.7178C56.6166 39.6676 56.575 39.5993 56.5578 39.5232C56.5406 39.4472 56.5488 39.3676 56.5811 39.2967C56.6134 39.2257 56.668 39.1673 56.7366 39.1303L62.8182 36.1544C62.9002 36.1292 62.9885 36.1344 63.067 36.169C63.1455 36.2035 63.2089 36.2652 63.2457 36.3427C63.2825 36.4202 63.2901 36.5083 63.2673 36.591C63.2444 36.6736 63.1926 36.7453 63.1212 36.7929L57.0396 39.7688C56.9922 39.7909 56.9404 39.802 56.8881 39.8012Z" fill="#17262F"></path><path d="M27.0535 45.3634C27.0071 45.3634 26.9612 45.3541 26.9184 45.336C26.8757 45.3179 26.837 45.2915 26.8047 45.2582C26.7724 45.2248 26.7471 45.1854 26.7304 45.1421C26.7136 45.0988 26.7058 45.0526 26.7072 45.0063V26.2961C26.7127 26.208 26.7516 26.1254 26.816 26.0651C26.8803 26.0048 26.9653 25.9713 27.0535 25.9714C27.1482 25.9714 27.239 26.0091 27.306 26.076C27.373 26.143 27.4106 26.2338 27.4106 26.3285V45.0063C27.4106 45.101 27.373 45.1918 27.306 45.2588C27.239 45.3258 27.1482 45.3634 27.0535 45.3634Z" fill="#17262F"></path><path d="M81.4635 53.025C81.3962 53.0241 81.3305 53.0041 81.274 52.9675C81.2176 52.9309 81.1726 52.879 81.1443 52.8179C81.116 52.7569 81.1056 52.689 81.1142 52.6223C81.1228 52.5555 81.1501 52.4926 81.1929 52.4406L95.791 34.6286C95.8558 34.5645 95.9433 34.5286 96.0345 34.5286C96.1256 34.5286 96.2131 34.5645 96.278 34.6286C96.3427 34.6953 96.379 34.7846 96.379 34.8775C96.379 34.9705 96.3427 35.0597 96.278 35.1264L81.734 52.8518C81.7033 52.8978 81.6634 52.9369 81.6169 52.9667C81.5703 52.9965 81.5181 53.0164 81.4635 53.025Z" fill="#17262F"></path><path d="M57.6564 5.95185H43.8267C43.7798 5.95185 43.7333 5.94261 43.69 5.92467C43.6467 5.90672 43.6073 5.88042 43.5741 5.84726C43.541 5.8141 43.5147 5.77473 43.4967 5.7314C43.4788 5.68808 43.4695 5.64164 43.4695 5.59475C43.4695 5.54835 43.4788 5.50241 43.4969 5.45968C43.515 5.41694 43.5415 5.37828 43.5748 5.34598C43.6081 5.31368 43.6475 5.2884 43.6908 5.27165C43.7341 5.2549 43.7803 5.24701 43.8267 5.24846H57.6564C57.7482 5.24846 57.8363 5.28494 57.9013 5.34988C57.9662 5.41483 58.0027 5.5029 58.0027 5.59475C58.0041 5.64112 57.9962 5.68732 57.9795 5.73059C57.9627 5.77386 57.9375 5.81332 57.9052 5.84663C57.8729 5.87994 57.8342 5.90642 57.7915 5.9245C57.7487 5.94257 57.7028 5.95187 57.6564 5.95185Z" fill="#17262F"></path></g><defs><clipPath id="clip0_5678_16282"><rect width="109.891" height="105" fill="white"></rect></clipPath></defs></svg>