<svg xmlns="http://www.w3.org/2000/svg" width="84" height="95" viewBox="0 0 84 95" fill="none"><g clip-path="url(#clip0_5678_6454)"><path d="M72.4091 26.9158H69.2921V5.65745C69.29 4.98433 69.0217 4.33936 68.5458 3.86339C68.0698 3.38742 67.4248 3.11911 66.7517 3.11705H64.3126C63.6402 3.11912 62.996 3.38767 62.5213 3.86387C62.0466 4.34006 61.78 4.98504 61.78 5.65745V26.9158H58.6629V5.65745C58.6629 4.15835 59.2579 2.72054 60.3172 1.65978C61.3765 0.599028 62.8135 0.00206488 64.3126 0L66.7517 0C68.2515 0.00206161 69.6893 0.598775 70.7498 1.65931C71.8104 2.71984 72.4071 4.15764 72.4091 5.65745V26.9158Z" fill="#17262F"></path><path d="M82.3603 51.4312H48.704C48.2906 51.4312 47.8942 51.267 47.6019 50.9747C47.3096 50.6825 47.1454 50.286 47.1454 49.8727V37.5759C47.1496 35.569 47.9491 33.6457 49.369 32.2273C50.7888 30.8089 52.713 30.0113 54.7199 30.0093H76.3678C78.3747 30.0113 80.2989 30.8089 81.7187 32.2273C83.1385 33.6457 83.9381 35.569 83.9422 37.5759V49.8727C83.9423 50.0794 83.9012 50.2839 83.8214 50.4746C83.7416 50.6652 83.6247 50.8381 83.4775 50.9831C83.3303 51.1281 83.1557 51.2424 82.9639 51.3194C82.7722 51.3963 82.567 51.4343 82.3603 51.4312ZM50.2625 48.3142H80.8018V37.5759C80.7998 36.3991 80.3325 35.2709 79.5018 34.4373C78.6712 33.6038 77.5446 33.1325 76.3678 33.1263H54.7199C53.539 33.1263 52.4065 33.5949 51.5708 34.4291C50.7351 35.2634 50.2645 36.3951 50.2625 37.5759V48.3142Z" fill="#17262F"></path><path d="M71.9338 74.6068H66.479C66.2043 74.6079 65.9343 74.5364 65.6962 74.3996C65.4581 74.2627 65.2603 74.0654 65.123 73.8276L62.9567 70.017L59.8396 74.0068C59.6944 74.1954 59.508 74.3482 59.2946 74.4536C59.0811 74.559 58.8464 74.614 58.6084 74.6146H38.2774C37.9949 74.6155 37.7174 74.5396 37.4746 74.3949C37.2319 74.2503 37.0331 74.0424 36.8994 73.7934C36.7657 73.5445 36.7023 73.2639 36.7158 72.9816C36.7293 72.6994 36.8192 72.4262 36.976 72.1911C42.7348 63.4867 47.1766 49.5379 47.2234 49.3977C47.3243 49.0825 47.523 48.8076 47.7906 48.6129C48.0582 48.4181 48.3808 48.3136 48.7117 48.3145H82.3603C82.6056 48.3129 82.8477 48.3693 83.0671 48.479C83.2864 48.5887 83.4768 48.7486 83.6227 48.9457C83.7676 49.1439 83.8636 49.3736 83.9029 49.616C83.9422 49.8584 83.9236 50.1067 83.8487 50.3406C83.802 50.4886 82.6876 53.9953 80.8252 58.6631C78.7957 63.9754 76.2592 69.0797 73.2508 73.9055C73.1074 74.1232 72.9117 74.3015 72.6817 74.424C72.4516 74.5465 72.1944 74.6094 71.9338 74.6068ZM67.3985 71.4898H71.0844C73.7673 67.0376 76.0566 62.3599 77.9263 57.5098C78.9004 55.0551 79.6797 52.8966 80.1862 51.4315H49.8729C48.8053 54.6109 45.4856 64.0166 41.1139 71.4898H57.8759L61.9436 66.2375C62.1012 66.0365 62.3058 65.8772 62.5393 65.7738C62.7729 65.6703 63.0283 65.6259 63.2831 65.6444C63.5379 65.6629 63.7842 65.7437 64.0004 65.8797C64.2166 66.0158 64.3961 66.2029 64.523 66.4246L67.3985 71.4898Z" fill="#17262F"></path><path d="M28.9652 71.4897H0V74.6068H28.9652V71.4897Z" fill="#17262F"></path><path d="M59.3019 94.9999H0V91.8829H59.3019C60.2242 91.886 61.1348 91.6767 61.9631 91.2713C62.7915 90.8659 63.5154 90.2752 64.0788 89.5451C65.896 87.2408 67.222 84.5888 67.9751 81.7524L71.0143 82.4616C70.1554 85.7052 68.6469 88.7407 66.5803 91.3841C65.7277 92.5069 64.6272 93.4174 63.3646 94.0446C62.1021 94.6718 60.7117 94.9987 59.3019 94.9999Z" fill="#17262F"></path><path d="M65.536 10.4108C65.3303 10.4119 65.1263 10.3721 64.936 10.2939C64.7462 10.2142 64.574 10.0977 64.4295 9.95106C64.1397 9.65885 63.9772 9.26386 63.9775 8.8523C63.966 8.75132 63.966 8.64936 63.9775 8.54839C63.9952 8.44686 64.024 8.34756 64.0632 8.25227C64.1022 8.16004 64.1491 8.07139 64.2035 7.98732C64.2622 7.90439 64.3273 7.82622 64.3983 7.75354C64.4816 7.67503 64.5762 7.60938 64.6789 7.55872C64.7617 7.50023 64.8505 7.45061 64.9438 7.41066C65.04 7.37392 65.139 7.34525 65.2399 7.32494C65.4909 7.27579 65.7502 7.28918 65.9948 7.36393C66.2395 7.43867 66.4619 7.57248 66.6426 7.75354C66.7158 7.82421 66.7811 7.90259 66.8374 7.98732C66.8918 8.07139 66.9387 8.16004 66.9777 8.25227C67.0159 8.34861 67.0471 8.44757 67.0712 8.54839C67.0789 8.64954 67.0789 8.75114 67.0712 8.8523C67.0695 9.26498 66.9041 9.66012 66.6114 9.95106C66.3262 10.2381 65.9406 10.403 65.536 10.4108Z" fill="#17262F"></path></g><defs><clipPath id="clip0_5678_6454"><rect width="83.9189" height="95" fill="white"></rect></clipPath></defs></svg>