<svg xmlns="http://www.w3.org/2000/svg" width="63" height="100" viewBox="0 0 63 100" fill="none"><g clip-path="url(#clip0_5678_33057)"><path d="M59.1543 36.8606C57.8831 36.0561 56.5372 35.3764 55.1353 34.8309C50.3992 32.9973 40.6766 31.3329 35.8796 31.1976C35.5791 30.2528 35.0102 29.4159 34.2422 28.7889C35.8119 24.2422 37.7199 14.5805 37.7199 9.62111C37.7138 8.11954 37.5643 6.62198 37.2733 5.14885C37.0237 3.69398 36.2629 2.37598 35.128 1.43208C33.9931 0.488175 32.5585 -0.0196486 31.0825 4.35417e-06C29.607 -0.0207936 28.1726 0.486768 27.0385 1.43101C25.9044 2.37526 25.1454 3.69393 24.8985 5.14885C24.6054 6.62179 24.4537 8.11933 24.4452 9.62111C24.4452 14.6076 26.3532 24.249 27.9296 28.7889C27.1625 29.4167 26.5938 30.2533 26.2923 31.1976C21.502 31.3329 11.7997 32.9973 7.03653 34.8309C5.63512 35.3775 4.28932 36.0572 3.01759 36.8606C1.8593 37.5759 0.963901 38.6471 0.465488 39.9139C-0.0329259 41.1808 -0.107529 42.5749 0.252852 43.8877C0.613234 45.2005 1.3892 46.3611 2.46455 47.1959C3.53989 48.0307 4.85673 48.4946 6.21786 48.5183C6.62838 48.5167 7.03805 48.4805 7.44249 48.41C8.92493 48.152 10.3794 47.7533 11.7862 47.2192C16.5223 45.3857 24.8647 40.1353 28.5115 37.023C28.8391 37.2194 29.1888 37.3762 29.5534 37.4899V98.4845C29.5534 98.8864 29.7131 99.2719 29.9973 99.5561C30.2816 99.8403 30.6671 100 31.069 100C31.471 100 31.8564 99.8403 32.1407 99.5561C32.4249 99.2719 32.5846 98.8864 32.5846 98.4845V37.4899C32.949 37.3785 33.2988 37.2241 33.6265 37.0298C37.2733 40.1353 45.5819 45.3857 50.3586 47.2192C51.7631 47.7531 53.2153 48.1518 54.6955 48.41C55.1043 48.4818 55.5186 48.518 55.9337 48.5183C57.2954 48.4961 58.6132 48.0331 59.6896 47.1989C60.7661 46.3646 61.5431 45.204 61.9044 43.8909C62.2656 42.5778 62.1916 41.183 61.6933 39.9155C61.1951 38.6481 60.2995 37.5762 59.1407 36.8606H59.1543ZM30.3586 30.8457C30.5883 30.7514 30.8342 30.7031 31.0825 30.7037C31.3352 30.7031 31.5856 30.7513 31.82 30.8457C32.1896 30.9976 32.5062 31.2551 32.7301 31.5861C32.954 31.9171 33.0751 32.3068 33.0785 32.7064C33.0801 33.2079 32.8915 33.6915 32.5507 34.0595C32.361 34.2613 32.1319 34.422 31.8776 34.5319C31.6234 34.6418 31.3494 34.6985 31.0724 34.6985C30.7954 34.6985 30.5214 34.6418 30.2671 34.5319C30.0129 34.422 29.7838 34.2613 29.594 34.0595C29.3813 33.8198 29.2296 33.5322 29.152 33.2212C29.0744 32.9102 29.073 32.585 29.1481 32.2734C29.2232 31.9618 29.3725 31.6729 29.5832 31.4314C29.794 31.1899 30.06 31.0029 30.3586 30.8863V30.8457ZM27.8755 5.72396C27.9902 4.96156 28.378 4.26679 28.9667 3.76895C29.5554 3.27111 30.3049 3.00409 31.0758 3.0176C31.8482 3.00366 32.5995 3.27021 33.1904 3.76783C33.7813 4.26546 34.1719 4.96043 34.2896 5.72396C34.5421 7.00787 34.6734 8.31264 34.682 9.62111C34.682 14.249 32.862 23.4844 31.4073 27.6996C31.182 27.6852 30.956 27.6852 30.7307 27.6996C29.276 23.4844 27.456 14.249 27.456 9.62111C27.4701 8.31159 27.6106 7.00649 27.8755 5.72396ZM10.7036 44.3911C9.48038 44.852 8.21631 45.1963 6.92828 45.4195C6.17561 45.5692 5.39424 45.4482 4.72218 45.0777C4.05011 44.7072 3.53059 44.1111 3.25538 43.3948C2.98016 42.6784 2.96696 41.8878 3.2181 41.1626C3.46923 40.4375 3.96856 39.8244 4.62787 39.4317C5.7325 38.7328 6.90159 38.1415 8.11908 37.6658C12.7402 35.8593 22.138 34.3708 26.3126 34.2355C26.3702 34.4129 26.438 34.5868 26.5156 34.7564C23.3153 37.4493 15.3248 42.6252 10.7036 44.3911ZM58.9039 43.3897C58.6414 44.1143 58.1253 44.7191 57.451 45.0923C56.7768 45.4655 55.9902 45.5817 55.2368 45.4195C53.9485 45.1978 52.6842 44.8534 51.4614 44.3911C47.111 42.7131 38.9851 37.6252 35.6495 34.7632C35.7239 34.5873 35.7916 34.4114 35.8525 34.2287C40.0135 34.3505 49.4384 35.8931 54.0392 37.6658C55.251 38.1399 56.4135 38.7313 57.5101 39.4317C58.1824 39.8108 58.6941 40.421 58.9505 41.1489C59.2068 41.8768 59.1903 42.6731 58.9039 43.3897Z" fill="#17262F"></path></g><defs><clipPath id="clip0_5678_33057"><rect width="62.1651" height="100" fill="white"></rect></clipPath></defs></svg>