<svg xmlns="http://www.w3.org/2000/svg" width="101" height="100" viewBox="0 0 101 100" fill="none"><g clip-path="url(#clip0_5678_16783)"><path d="M98.4134 21.052C98.4134 20.8431 98.4964 20.6426 98.6442 20.4948C98.7919 20.3471 98.9924 20.2641 99.2014 20.2641C99.4196 20.2605 99.631 20.3399 99.7931 20.4861C99.9551 20.6324 100.056 20.8346 100.075 21.052V21.4034C100.056 21.6209 99.9551 21.8231 99.7931 21.9693C99.631 22.1156 99.4196 22.1949 99.2014 22.1914C98.9924 22.1914 98.7919 22.1084 98.6442 21.9606C98.4964 21.8129 98.4134 21.6124 98.4134 21.4034V21.052ZM98.4134 23.6822C98.4134 23.4732 98.4964 23.2728 98.6442 23.125C98.7919 22.9773 98.9924 22.8942 99.2014 22.8942C99.3111 22.8855 99.4215 22.8993 99.5257 22.9347C99.63 22.9701 99.7259 23.0264 99.8077 23.1002C99.8894 23.1739 99.9552 23.2636 100.001 23.3637C100.047 23.4638 100.072 23.5721 100.075 23.6822V30.3482C100.072 30.4582 100.047 30.5666 100.001 30.6667C99.9552 30.7668 99.8894 30.8565 99.8077 30.9302C99.7259 31.004 99.63 31.0603 99.5257 31.0957C99.4215 31.1311 99.3111 31.1449 99.2014 31.1362C98.9924 31.1362 98.7919 31.0531 98.6442 30.9054C98.4964 30.7576 98.4134 30.5572 98.4134 30.3482V23.6822ZM98.4134 32.627C98.4134 32.418 98.4964 32.2175 98.6442 32.0698C98.7919 31.922 98.9924 31.839 99.2014 31.839C99.4196 31.8355 99.631 31.9148 99.7931 32.061C99.9551 32.2073 100.056 32.4095 100.075 32.627V43.6588C100.056 43.8762 99.9551 44.0785 99.7931 44.2247C99.631 44.3709 99.4196 44.4503 99.2014 44.4468H50.6975V60.6112C50.6975 60.7147 50.6771 60.8171 50.6375 60.9127C50.5979 61.0083 50.5398 61.0952 50.4667 61.1684C50.3935 61.2416 50.3066 61.2996 50.211 61.3392C50.1154 61.3788 50.013 61.3992 49.9095 61.3992H45.9589C45.7499 61.3992 45.5495 61.3162 45.4017 61.1684C45.2539 61.0206 45.1709 60.8202 45.1709 60.6112V39.7295C45.1734 39.6194 45.1984 39.511 45.2443 39.411C45.2902 39.3109 45.356 39.2212 45.4378 39.1474C45.5195 39.0737 45.6154 39.0174 45.7197 38.982C45.8239 38.9466 45.9343 38.9328 46.0441 38.9415H59.557C59.766 38.9415 59.9664 39.0245 60.1142 39.1723C60.262 39.3201 60.345 39.5205 60.345 39.7295C60.345 39.9385 60.262 40.1389 60.1142 40.2867C59.9664 40.4345 59.766 40.5175 59.557 40.5175H46.8534V59.6848H48.9831L49.1215 43.6588C49.1112 43.5487 49.1238 43.4377 49.1586 43.3327C49.1934 43.2278 49.2497 43.1312 49.3237 43.0492C49.3978 42.9671 49.4881 42.9013 49.5889 42.8559C49.6898 42.8105 49.7989 42.7866 49.9095 42.7856H98.4134V32.627ZM62.102 40.5175C61.9985 40.5175 61.8961 40.4971 61.8005 40.4575C61.7049 40.4179 61.618 40.3599 61.5448 40.2867C61.4716 40.2135 61.4136 40.1266 61.374 40.031C61.3344 39.9354 61.314 39.833 61.314 39.7295C61.314 39.626 61.3344 39.5235 61.374 39.4279C61.4136 39.3323 61.4716 39.2455 61.5448 39.1723C61.618 39.0991 61.7049 39.0411 61.8005 39.0015C61.8961 38.9619 61.9985 38.9415 62.102 38.9415H69.6411C69.7446 38.9415 69.8471 38.9619 69.9427 39.0015C70.0383 39.0411 70.1252 39.0991 70.1983 39.1723C70.2715 39.2455 70.3295 39.3323 70.3691 39.4279C70.4087 39.5235 70.4291 39.626 70.4291 39.7295C70.4291 39.833 70.4087 39.9354 70.3691 40.031C70.3295 40.1266 70.2715 40.2135 70.1983 40.2867C70.1252 40.3599 70.0383 40.4179 69.9427 40.4575C69.8471 40.4971 69.7446 40.5175 69.6411 40.5175H62.102ZM72.1009 40.5175C71.9975 40.5175 71.895 40.4971 71.7994 40.4575C71.7038 40.4179 71.6169 40.3599 71.5438 40.2867C71.4706 40.2135 71.4125 40.1266 71.3729 40.031C71.3333 39.9354 71.313 39.833 71.313 39.7295C71.313 39.626 71.3333 39.5235 71.3729 39.4279C71.4125 39.3323 71.4706 39.2455 71.5438 39.1723C71.6169 39.0991 71.7038 39.0411 71.7994 39.0015C71.895 38.9619 71.9975 38.9415 72.1009 38.9415H72.2713C72.3748 38.9415 72.4773 38.9619 72.5729 39.0015C72.6685 39.0411 72.7553 39.0991 72.8285 39.1723C72.9017 39.2455 72.9597 39.3323 72.9993 39.4279C73.0389 39.5235 73.0593 39.626 73.0593 39.7295C73.0593 39.833 73.0389 39.9354 72.9993 40.031C72.9597 40.1266 72.9017 40.2135 72.8285 40.2867C72.7553 40.3599 72.6685 40.4179 72.5729 40.4575C72.4773 40.4971 72.3748 40.5175 72.2713 40.5175H72.1009ZM74.6459 40.5175C74.5424 40.5175 74.44 40.4971 74.3444 40.4575C74.2488 40.4179 74.1619 40.3599 74.0887 40.2867C74.0156 40.2135 73.9575 40.1266 73.9179 40.031C73.8783 39.9354 73.8579 39.833 73.8579 39.7295C73.8579 39.626 73.8783 39.5235 73.9179 39.4279C73.9575 39.3323 74.0156 39.2455 74.0887 39.1723C74.1619 39.0991 74.2488 39.0411 74.3444 39.0015C74.44 38.9619 74.5424 38.9415 74.6459 38.9415H94.4628V16.6649H90.7784C90.5602 16.6684 90.3487 16.589 90.1867 16.4428C90.0246 16.2966 89.9241 16.0943 89.9052 15.8769V11.9263C89.9241 11.7088 90.0246 11.5066 90.1867 11.3604C90.3487 11.2141 90.5602 11.1348 90.7784 11.1383H99.2014C99.4196 11.1348 99.631 11.2141 99.7931 11.3604C99.9551 11.5066 100.056 11.7088 100.075 11.9263V18.5071C100.072 18.6171 100.047 18.7255 100.001 18.8256C99.9552 18.9257 99.8894 19.0153 99.8077 19.0891C99.7259 19.1629 99.63 19.2192 99.5257 19.2546C99.4215 19.29 99.3111 19.3038 99.2014 19.295C98.9924 19.295 98.7919 19.212 98.6442 19.0642C98.4964 18.9165 98.4134 18.716 98.4134 18.5071V12.7782H91.577V14.9718H95.3466C95.4585 14.9727 95.5691 14.997 95.6712 15.0429C95.7733 15.0888 95.8648 15.1554 95.9398 15.2384C96.0149 15.3215 96.0719 15.4192 96.1073 15.5255C96.1426 15.6317 96.1556 15.7441 96.1452 15.8556V39.7082C96.1452 39.8126 96.1245 39.9159 96.0842 40.0122C96.044 40.1085 95.985 40.1959 95.9107 40.2692C95.8364 40.3425 95.7483 40.4003 95.6514 40.4393C95.5546 40.4783 95.451 40.4976 95.3466 40.4962L74.6459 40.5175Z" fill="#17262F"></path><path d="M52.1776 69.9076C52.1872 69.6921 52.2708 69.4864 52.4143 69.3254C52.5579 69.1644 52.7526 69.0578 52.9656 69.0237C53.1838 69.0202 53.3953 69.0996 53.5573 69.2458C53.7194 69.392 53.82 69.5943 53.8388 69.8117L53.9346 70.259C53.9381 70.4772 53.8588 70.6886 53.7125 70.8507C53.5663 71.0127 53.3641 71.1133 53.1466 71.1321C53.0348 71.1495 52.9205 71.1419 52.8119 71.1099C52.7033 71.0778 52.6032 71.0221 52.5187 70.9468C52.4342 70.8715 52.3674 70.7784 52.3232 70.6742C52.2789 70.57 52.2583 70.4573 52.2628 70.3441L52.1776 69.9076ZM52.4438 72.9743C52.4198 72.7653 52.4798 72.5554 52.6106 72.3906C52.7414 72.2259 52.9323 72.1198 53.1413 72.0958C53.3503 72.0718 53.5603 72.1318 53.725 72.2626C53.8898 72.3934 53.9958 72.5843 54.0198 72.7933L54.5416 80.1621C54.5629 80.2722 54.5613 80.3856 54.537 80.4952C54.5127 80.6047 54.4661 80.7081 54.4003 80.7989C54.3344 80.8898 54.2506 80.9661 54.154 81.0232C54.0574 81.0804 53.9501 81.1171 53.8388 81.1311C53.6206 81.1346 53.4091 81.0552 53.2471 80.909C53.085 80.7628 52.9844 80.5605 52.9656 80.3431L52.4438 72.9743ZM53.1466 82.7922C53.1363 82.6822 53.149 82.5711 53.1838 82.4662C53.2186 82.3612 53.2748 82.2647 53.3489 82.1826C53.423 82.1005 53.5133 82.0347 53.6141 81.9893C53.7149 81.944 53.8241 81.92 53.9346 81.9191C54.0382 81.9072 54.1431 81.9161 54.2432 81.9451C54.3434 81.9741 54.4368 82.0228 54.518 82.0881C54.5992 82.1535 54.6666 82.2343 54.7164 82.3259C54.7661 82.4176 54.7972 82.5181 54.8078 82.6219C55.074 87.2752 55.8726 92.9722 55.8726 97.4446C55.8075 98.0747 55.5274 98.6632 55.0795 99.1112C54.6315 99.5592 54.043 99.8392 53.4128 99.9044C49.9947 99.9896 45.7885 100.075 42.4555 99.9044C41.8367 99.8581 41.2498 99.6114 40.7837 99.2016C40.3535 98.7147 40.1051 98.0938 40.0809 97.4446C40.7837 86.6576 41.2203 74.9017 42.3597 64.2C42.4136 64.0043 42.5283 63.8309 42.6871 63.7046C42.846 63.5783 43.0408 63.5057 43.2435 63.4972H52.6249C52.8448 63.4939 53.0577 63.5747 53.22 63.7231C53.3823 63.8716 53.4818 64.0764 53.498 64.2958L53.6791 67.3626C53.6691 67.5768 53.5851 67.781 53.4414 67.9402C53.2977 68.0995 53.1032 68.2039 52.8911 68.2357C52.6717 68.2395 52.459 68.1605 52.2952 68.0145C52.1314 67.8684 52.0286 67.6661 52.0072 67.4478L51.8369 65.169H44.0315L41.6569 97.4446C41.6569 97.6149 41.8379 97.796 41.9231 97.9663C42.017 98.0548 42.1274 98.1238 42.248 98.1695C42.3686 98.2152 42.497 98.2366 42.6259 98.2325C46.172 98.454 49.7284 98.454 53.2744 98.2325C53.5057 98.2213 53.7251 98.1268 53.892 97.9663C53.9669 97.9005 54.0281 97.8205 54.0719 97.731C54.1158 97.6414 54.1415 97.5441 54.1476 97.4446C54.3286 94.25 53.3596 86.3914 53.0827 82.7922H53.1466Z" fill="#17262F"></path><path d="M41.8379 59.7274H54.3073C54.6656 59.7245 55.0208 59.7932 55.3523 59.9293C55.6837 60.0654 55.9847 60.2663 56.2375 60.5201C56.4904 60.7739 56.6901 61.0757 56.8249 61.4076C56.9597 61.7396 57.0269 62.0951 57.0227 62.4534C57.0255 62.8108 56.9572 63.1651 56.8218 63.4959C56.6863 63.8266 56.4864 64.1271 56.2337 64.3798C55.981 64.6325 55.6805 64.8324 55.3498 64.9678C55.0191 65.1033 54.6647 65.1716 54.3073 65.1688H41.8379C41.1308 65.152 40.4587 64.8579 39.9666 64.3498C39.4745 63.8418 39.202 63.1607 39.2077 62.4534C39.2068 61.7292 39.4897 61.0335 39.9957 60.5154C40.4881 60.0293 41.1463 59.7477 41.8379 59.7274ZM54.3073 61.3992H41.8379C41.7003 61.3912 41.5629 61.4194 41.4396 61.481C41.3163 61.5427 41.2113 61.6357 41.1351 61.7506C41.0271 61.832 40.9394 61.9373 40.8791 62.0584C40.8187 62.1794 40.7873 62.3128 40.7873 62.4481C40.7873 62.5833 40.8187 62.7167 40.8791 62.8378C40.9394 62.9588 41.0271 63.0642 41.1351 63.1455C41.2113 63.2605 41.3163 63.3534 41.4396 63.4151C41.5629 63.4768 41.7003 63.505 41.8379 63.4969H54.3073C54.4434 63.5042 54.5789 63.4755 54.7004 63.4138C54.8219 63.3522 54.925 63.2596 54.9995 63.1455C55.1075 63.0642 55.1952 62.9588 55.2555 62.8378C55.3159 62.7167 55.3473 62.5833 55.3473 62.4481C55.3473 62.3128 55.3159 62.1794 55.2555 62.0584C55.1952 61.9373 55.1075 61.832 54.9995 61.7506C54.925 61.6365 54.8219 61.544 54.7004 61.4823C54.5789 61.4206 54.4434 61.392 54.3073 61.3992Z" fill="#17262F"></path><path d="M19.8168 1.66127C19.5902 1.64628 19.3767 1.54947 19.2161 1.38885C19.0555 1.22823 18.9587 1.01474 18.9437 0.788093C18.9625 0.570641 19.0631 0.368416 19.2251 0.222186C19.3872 0.0759555 19.5986 -0.00340471 19.8168 0.000104059H20.0831C20.292 0.000104059 20.4925 0.083124 20.6402 0.230901C20.788 0.378677 20.871 0.579105 20.871 0.788093C20.8746 1.00633 20.7952 1.21778 20.649 1.37982C20.5027 1.54186 20.3005 1.64243 20.0831 1.66127H19.8168ZM23.0646 1.66127C22.8472 1.64243 22.645 1.54186 22.4987 1.37982C22.3525 1.21778 22.2731 1.00633 22.2766 0.788093C22.2766 0.579105 22.3597 0.378677 22.5074 0.230901C22.6552 0.083124 22.8556 0.000104059 23.0646 0.000104059H33.3298C33.5313 0.0110127 33.7209 0.0988242 33.8596 0.245435C33.9983 0.392046 34.0755 0.58628 34.0752 0.788093C34.0787 1.00633 33.9993 1.21778 33.8531 1.37982C33.7069 1.54186 33.5046 1.64243 33.2872 1.66127H23.0646ZM36.8438 1.66127C36.6152 1.64877 36.3992 1.55307 36.2364 1.39221C36.0735 1.23135 35.9752 1.01646 35.96 0.788093C35.9789 0.568766 36.081 0.36498 36.2453 0.218479C36.4096 0.0719788 36.6237 -0.00614748 36.8438 0.000104059H80.5026C82.3653 0.0142716 84.1535 0.733354 85.5074 2.01267V2.1298C86.1558 2.7667 86.6692 3.52779 87.0168 4.36757C87.3644 5.20736 87.5392 6.10861 87.5306 7.01746V20.8605C87.5306 22.7216 86.7913 24.5065 85.4753 25.8225C84.1593 27.1385 82.3744 27.8779 80.5132 27.8779H12.0115C10.1539 27.8723 8.37391 27.1326 7.05942 25.8201C5.74493 24.5076 5.00256 22.7287 4.99414 20.8712V7.02811C5.01225 5.16419 5.73506 3.37618 7.01735 2.02332H7.10254C8.41763 0.742473 10.1758 0.0178368 12.0115 0.000104059H16.5797C16.7887 0.000104059 16.9891 0.083124 17.1369 0.230901C17.2847 0.378677 17.3677 0.579105 17.3677 0.788093C17.3712 1.00633 17.2918 1.21778 17.1456 1.37982C16.9994 1.54186 16.7972 1.64243 16.5797 1.66127H12.0115C10.6035 1.66338 9.25159 2.21331 8.24193 3.19465V3.29049C7.24659 4.27699 6.68032 5.61614 6.66595 7.01746V20.8605C6.68558 22.2764 7.25001 23.6302 8.24193 24.6407C8.73554 25.1387 9.32264 25.5342 9.96953 25.8047C10.6164 26.0751 11.3104 26.2152 12.0115 26.2167H80.5132C81.9543 26.1972 83.3348 25.6344 84.3786 24.6407C85.3706 23.6302 85.935 22.2764 85.9546 20.8605V7.01746C85.9367 5.60439 85.3718 4.25326 84.3786 3.24789C83.3388 2.24673 81.9566 1.67937 80.5132 1.66127H36.8438Z" fill="#17262F"></path><path d="M86.7426 8.67871H88.8723C89.5342 8.69641 90.1757 8.91148 90.7145 9.29632C90.9808 9.46355 91.1999 9.69617 91.3509 9.97204C91.5019 10.2479 91.5797 10.5578 91.577 10.8723V17.0378C91.5673 17.351 91.483 17.6573 91.3312 17.9314C91.1793 18.2055 90.9643 18.4394 90.7039 18.6138C90.1571 18.972 89.5152 19.1575 88.8617 19.1462H85.9546V8.67871H86.7426ZM88.8723 10.3505H87.5306V17.4531H88.851C89.1506 17.4559 89.4477 17.398 89.7242 17.2827C89.9052 17.1869 89.9052 17.1017 89.9052 17.0165V10.8723C89.9052 10.7871 89.9052 10.7019 89.7242 10.6167C89.4768 10.4217 89.1652 10.3267 88.851 10.3505H88.8723Z" fill="#17262F"></path><path d="M3.24779 8.67867H6.66596V19.1674H3.24779C2.50185 19.1947 1.76344 19.0101 1.11809 18.635C0.788819 18.487 0.508668 18.248 0.310595 17.9462C0.112522 17.6443 0.00476459 17.2922 0 16.9312L0 10.7871C0.0264048 10.4449 0.146764 10.1167 0.34781 9.83866C0.548856 9.56058 0.822781 9.34341 1.13939 9.21109C1.78473 8.83598 2.52314 8.65138 3.26909 8.67867H3.24779ZM4.99414 10.3505H3.24779C2.79015 10.3429 2.33737 10.4452 1.92738 10.6486C1.83219 10.6947 1.74282 10.7519 1.66116 10.819V16.9312C1.66116 17.0164 1.757 17.1016 1.92738 17.1868C2.3401 17.3792 2.79275 17.4705 3.24779 17.453H4.99414V10.3505Z" fill="#17262F"></path><path d="M43.6588 20.2321C43.5478 20.2297 43.4384 20.2044 43.3376 20.1578C43.2367 20.1113 43.1465 20.0445 43.0726 19.9616C42.9987 19.8787 42.9426 19.7814 42.9079 19.6759C42.8732 19.5704 42.8606 19.4589 42.8708 19.3483C42.8708 19.1393 42.9539 18.9389 43.1016 18.7911C43.2494 18.6433 43.4498 18.5603 43.6588 18.5603H80.5133C80.7232 18.5603 80.9248 18.643 81.0742 18.7904C81.2237 18.9379 81.3091 19.1383 81.3119 19.3483C81.3206 19.4594 81.3066 19.5712 81.2706 19.6768C81.2347 19.7823 81.1776 19.8794 81.1028 19.9621C81.0281 20.0448 80.9372 20.1115 80.8359 20.1579C80.7345 20.2043 80.6247 20.2296 80.5133 20.2321H43.6588Z" fill="#17262F"></path><path d="M50.9637 14.6524C50.7355 14.6642 50.5118 14.586 50.3406 14.4347C50.1694 14.2834 50.0643 14.071 50.0479 13.8431C50.0632 13.6148 50.1615 13.3999 50.3243 13.239C50.4871 13.0782 50.7032 12.9825 50.9317 12.97H80.5133C80.7317 12.9887 80.9351 13.0889 81.083 13.2506C81.231 13.4124 81.3127 13.6239 81.3119 13.8431C81.3091 14.0541 81.2241 14.2556 81.0749 14.4048C80.9257 14.554 80.7242 14.639 80.5133 14.6418L50.9637 14.6524Z" fill="#17262F"></path><path d="M44.3829 75.4339C44.4125 75.2198 44.5159 75.0228 44.6754 74.877C44.8348 74.7312 45.0403 74.6456 45.2561 74.6353C45.4745 74.6566 45.6768 74.7594 45.8228 74.9232C45.9688 75.087 46.0478 75.2997 46.0441 75.5191L44.9792 95.7512C44.9474 95.9633 44.843 96.1579 44.6837 96.3016C44.5245 96.4453 44.3203 96.5293 44.1061 96.5392C43.8877 96.5178 43.6854 96.415 43.5394 96.2513C43.3934 96.0875 43.3144 95.8748 43.3181 95.6554L44.3829 75.4339Z" fill="#17262F"></path><path d="M46.6617 83.676C46.6464 83.5612 46.6593 83.4444 46.6992 83.3358C46.7392 83.2271 46.805 83.1298 46.8909 83.0522C46.9769 82.9746 47.0804 82.9191 47.1926 82.8905C47.3048 82.8619 47.4223 82.861 47.5349 82.888C47.6434 82.8847 47.7512 82.9067 47.8499 82.9521C47.9485 82.9975 48.0353 83.0652 48.1034 83.1498C48.1715 83.2344 48.2191 83.3336 48.2424 83.4397C48.2656 83.5458 48.264 83.6558 48.2377 83.7612L47.6307 95.8365C47.5986 96.0431 47.4908 96.2303 47.3282 96.3616C47.1656 96.493 46.96 96.5591 46.7513 96.5472C46.5426 96.5352 46.3459 96.446 46.1994 96.2969C46.0529 96.1478 45.9672 95.9496 45.9589 95.7407L46.6617 83.676Z" fill="#17262F"></path><path d="M11.2235 11.9263C11.0053 11.9298 10.7938 11.8504 10.6318 11.7042C10.4697 11.558 10.3692 11.3558 10.3503 11.1383C10.3653 10.9117 10.4621 10.6982 10.6228 10.5376C10.7834 10.3769 10.9969 10.2801 11.2235 10.2651H30.3908C30.6234 10.2651 30.8466 10.3568 31.012 10.5202C31.1775 10.6837 31.2718 10.9058 31.2746 11.1383C31.2722 11.2494 31.2469 11.3587 31.2004 11.4596C31.1538 11.5604 31.087 11.6506 31.0041 11.7245C30.9212 11.7985 30.824 11.8545 30.7184 11.8892C30.6129 11.9239 30.5014 11.9366 30.3908 11.9263H11.2235Z" fill="#17262F"></path><path d="M11.2235 6.38906C10.9919 6.38906 10.7698 6.29706 10.6061 6.13331C10.4423 5.96956 10.3503 5.74746 10.3503 5.51588C10.3692 5.29843 10.4697 5.09621 10.6318 4.94998C10.7938 4.80375 11.0053 4.72439 11.2235 4.72789H26.6212C26.8395 4.72439 27.0509 4.80375 27.213 4.94998C27.375 5.09621 27.4756 5.29843 27.4944 5.51588C27.4944 5.74746 27.4024 5.96956 27.2387 6.13331C27.0749 6.29706 26.8528 6.38906 26.6212 6.38906H11.2235Z" fill="#17262F"></path></g><defs><clipPath id="clip0_5678_16783"><rect width="100.075" height="100" fill="white"></rect></clipPath></defs></svg>