<svg xmlns="http://www.w3.org/2000/svg" width="90" height="90" viewBox="0 0 90 90" fill="none"><g clip-path="url(#clip0_5678_33282)"><path d="M89.5005 13.2128L83.9889 7.3016C83.081 6.17327 81.855 5.34377 80.4699 4.92067C79.0848 4.49758 77.6046 4.50041 76.2211 4.9288L70.901 6.46904C69.1464 6.97629 67.6129 8.05819 66.5467 9.54119L56.3395 23.7447H18.7743L18.5079 23.445C17.7752 22.6874 17.6753 21.655 17.6253 20.1147H56.6142C57.1044 20.1147 57.5746 19.92 57.9212 19.5734C58.2678 19.2268 58.4625 18.7566 58.4625 18.2664C58.4625 17.7762 58.2678 17.3061 57.9212 16.9595C57.5746 16.6129 57.1044 16.4182 56.6142 16.4182H36.4413C36.0853 12.9019 34.7168 9.56439 32.5019 6.81032C30.2869 4.05626 27.3205 2.00389 23.9624 0.902066C20.6043 -0.199763 16.9987 -0.303736 13.5827 0.602751C10.1666 1.50924 7.08694 3.38725 4.71696 6.00911C2.34698 8.63096 0.78849 11.884 0.230455 15.374C-0.327581 18.8639 0.138798 22.4408 1.57305 25.6709C3.0073 28.901 5.34782 31.6458 8.31085 33.5722C11.2739 35.4987 14.7322 36.5243 18.2664 36.5245C20.2671 36.522 22.2534 36.1872 24.1443 35.5338L39.7132 53.359V85.8289H31.9871C31.4969 85.8289 31.0267 86.0236 30.6801 86.3702C30.3335 86.7169 30.1388 87.187 30.1388 87.6772C30.1388 88.1674 30.3335 88.6375 30.6801 88.9841C31.0267 89.3307 31.4969 89.5255 31.9871 89.5255H57.4468C57.937 89.5255 58.4071 89.3307 58.7537 88.9841C59.1004 88.6375 59.2951 88.1674 59.2951 87.6772C59.2951 87.187 59.1004 86.7169 58.7537 86.3702C58.4071 86.0236 57.937 85.8289 57.4468 85.8289H48.9214V53.3673L73.1406 26.0343C75.1221 24.0195 75.1138 21.4718 75.1138 19.2239V18.2664C75.1149 18.0234 75.0678 17.7826 74.9753 17.5578C74.8828 17.3331 74.7467 17.1289 74.5749 16.9571C74.403 16.7852 74.1989 16.6491 73.9741 16.5566C73.7494 16.4641 73.5085 16.4171 73.2655 16.4182C73.199 16.4142 73.1322 16.4142 73.0657 16.4182C72.9964 16.4136 72.9268 16.4136 72.8575 16.4182H66.1554L69.5439 11.6975C70.1332 10.8923 70.9739 10.3064 71.9334 10.0324L77.2451 8.50049C77.9259 8.27519 78.659 8.26202 79.3474 8.46274C80.0358 8.66346 80.6469 9.06858 81.0999 9.62445C81.0999 9.6744 81.1832 9.72435 81.2248 9.77431L86.803 15.7521C87.1466 16.0529 87.5895 16.2158 88.0461 16.2094C88.5028 16.203 88.9409 16.0278 89.276 15.7175C89.6111 15.4072 89.8195 14.9839 89.8609 14.529C89.9024 14.0742 89.774 13.6202 89.5005 13.2544V13.2128ZM18.2664 32.828C15.4629 32.8295 12.7185 32.0223 10.3624 30.503C8.0063 28.9837 6.13853 26.817 4.98317 24.2626C3.8278 21.7083 3.4339 18.8749 3.84872 16.1023C4.26354 13.3296 5.46947 10.7356 7.32184 8.63125C9.1742 6.52692 11.5943 5.00169 14.292 4.23852C16.9896 3.47535 19.8501 3.50666 22.5303 4.32868C25.2106 5.15071 27.5967 6.72855 29.4026 8.87292C31.2085 11.0173 32.3573 13.6371 32.7114 16.4182H15.7687C15.2785 16.4182 14.8084 16.6129 14.4618 16.9595C14.1152 17.3061 13.9204 17.7762 13.9204 18.2664V19.3155C13.9204 21.5218 13.9204 24.0195 15.7854 25.976L21.4801 32.47C20.4259 32.7104 19.3477 32.8305 18.2664 32.828ZM43.4098 85.7956V52.6679C43.4144 52.632 43.4144 52.5956 43.4098 52.5597C43.4139 52.4932 43.4139 52.4264 43.4098 52.3599C43.4098 52.3016 43.4098 52.2516 43.4098 52.1934C43.3942 52.1339 43.3747 52.0755 43.3515 52.0185L43.2766 51.852L43.1933 51.6938L43.0768 51.5356C43.0602 51.506 43.0407 51.4781 43.0185 51.4524L21.9963 27.4746H66.9547L45.691 51.4441L45.6244 51.5273C45.5809 51.5794 45.5419 51.6351 45.5079 51.6938C45.477 51.742 45.4492 51.792 45.4246 51.8437L45.3497 52.0102C45.3254 52.066 45.3086 52.1248 45.2997 52.185C45.2959 52.2433 45.2959 52.3017 45.2997 52.3599C45.2957 52.4236 45.2957 52.4876 45.2997 52.5514C45.2997 52.593 45.2997 52.6263 45.2997 52.6679V85.7956H43.4098ZM71.4089 20.1147C71.4089 21.6466 71.234 22.6957 70.4348 23.5116L70.2266 23.7447H60.8936L63.4995 20.1147H71.4089Z" fill="#17262F"></path></g><defs><clipPath id="clip0_5678_33282"><rect width="90" height="89.4921" fill="white"></rect></clipPath></defs></svg>