<svg xmlns="http://www.w3.org/2000/svg" width="110" height="73" viewBox="0 0 110 73" fill="none"><g clip-path="url(#clip0_5678_33161)"><path d="M30.9118 21.9943C28.4567 21.9943 27.0343 24.0594 27.0343 26.3267V50.581C27.0343 50.8048 27.1642 52.3356 26.926 52.3356H4.33241C2.05068 52.3356 0 53.7797 0 56.2564C0 58.7331 2.07234 60.1267 4.33241 60.1267H28.3557C30.002 60.1267 31.5472 60.0184 32.8975 58.8992C34.4066 57.65 34.8326 55.9171 34.8326 54.0614V26.1678C34.8599 25.6338 34.779 25.0997 34.5948 24.5977C34.4107 24.0956 34.127 23.6359 33.7609 23.2462C33.3947 22.8565 32.9536 22.5447 32.4641 22.3295C31.9745 22.1144 31.4465 22.0004 30.9118 21.9943ZM31.8216 54.7906C31.8178 55.1004 31.753 55.4063 31.6307 55.691C31.5085 55.9756 31.3312 56.2333 31.1092 56.4493C30.8872 56.6653 30.6247 56.8354 30.3368 56.9497C30.0489 57.0641 29.7413 57.1205 29.4315 57.1157H4.33241C3.85585 57.1157 3.34318 57.1518 3.09768 56.6175C2.70776 55.7799 3.48759 55.3466 4.18078 55.3466H27.6913C28.8178 55.3466 30.0453 55.2022 30.0453 53.7148V26.1101C30.0453 25.388 30.7674 24.5865 31.4894 25.193C31.8577 25.4891 31.8144 25.9151 31.8144 26.3195V54.7906H31.8216Z" fill="#17262F"></path><path d="M106.354 24.9764C105.672 25.0232 104.997 25.1394 104.339 25.323L100.895 26.0451L95.7536 27.1426V4.81624C95.7536 3.27102 95.7536 1.74745 94.3744 0.700451C93.2913 -0.115487 91.9988 -0.0216181 90.7641 -0.0216181H65.2895C64.9654 -0.0201582 64.6503 0.0851006 64.3904 0.278723C64.1305 0.472346 63.9395 0.744146 63.8453 1.05426C63.7515 1.31421 63.6937 2.11571 63.4843 2.27456C63.2749 2.43342 62.9211 2.27456 62.7622 2.27456H58.2132C55.8665 2.27456 55.2816 4.30358 54.6534 6.09431L52.3139 12.7734C52.0684 13.4955 51.8157 14.2176 51.5918 14.9397C51.1947 16.0877 51.989 17.4669 53.3537 17.1059C54.184 16.8748 54.379 16.1166 54.6317 15.4162L55.5993 12.629L58.0543 5.71161C58.0543 5.71161 58.1627 5.31447 58.1988 5.31447H62.5962C60.5407 12.2897 58.4924 19.2697 56.4513 26.2545L53.6353 35.8508C53.4475 36.4934 52.4727 36.3995 51.8734 36.5295L45.1654 37.9737L39.4755 39.1867C38.6048 39.2976 37.8065 39.7289 37.2365 40.3963C36.6665 41.0638 36.3655 41.9197 36.3923 42.7971V55.1878C36.3923 57.0652 36.3923 59.087 38.5007 59.9101C39.5044 60.3 40.7608 60.1267 41.8222 60.1267C42.1905 60.1267 42.2049 61.4265 42.2916 61.7947C42.4915 62.6702 42.7769 63.5239 43.1436 64.3436C44.3746 67.1125 46.4642 69.4116 49.1034 70.9006C51.7425 72.3895 54.7909 72.9893 57.7974 72.611C60.8039 72.2328 63.6088 70.8966 65.7969 68.8004C67.985 66.7041 69.4401 63.9591 69.9468 60.9716C70.0335 60.4661 69.8602 60.1267 70.3801 60.1267H75.1529C75.6728 60.1267 75.5068 60.4661 75.5862 60.9716C76.056 63.755 77.35 66.3336 79.3008 68.3739C81.2517 70.4142 83.7697 71.8224 86.5293 72.4165C89.289 73.0105 92.1634 72.7632 94.7809 71.7063C97.3985 70.6495 99.6389 68.8318 101.212 66.4882C102.174 65.0613 102.866 63.4707 103.256 61.7947C103.328 61.4626 103.386 60.1267 103.689 60.1267H105.422C106.7 60.1267 107.899 60.069 108.895 59.1231C109.265 58.7668 109.558 58.3378 109.754 57.8631C109.95 57.3885 110.046 56.8783 110.036 56.3647V28.9767C110 26.8755 108.606 24.9764 106.354 24.9764ZM66.4303 3.01829H92.2876C93.053 3.01829 92.757 4.90289 92.757 5.35058V27.6192C92.757 28.0596 91.4067 28.0813 91.024 28.1607V6.62864C91.0726 6.28007 91.0101 5.92505 90.8455 5.61398C90.6809 5.30291 90.4225 5.05159 90.107 4.89567C89.7258 4.7814 89.3261 4.74216 88.93 4.78014H65.896L66.4303 3.01829ZM64.9862 7.79117H87.9697C87.9697 7.79117 87.9697 8.46991 87.9697 8.51324V27.287C87.9697 27.7131 88.2368 28.7312 87.7314 28.8539L84.4026 29.576L71.001 32.4643L56.8918 35.4609C59.0291 28.1872 61.1641 20.9063 63.2966 13.6183L64.9862 7.79117ZM56.0398 69.723C53.7204 69.7235 51.4592 68.9973 49.5738 67.6464C47.6884 66.2956 46.2736 64.388 45.5281 62.1917C44.7827 59.9954 44.7441 57.6207 45.4178 55.4013C46.0915 53.1819 47.4435 51.2294 49.2841 49.818C51.1246 48.4066 53.361 47.6073 55.6792 47.5324C57.9973 47.4575 60.2807 48.1108 62.2085 49.4004C64.1363 50.6901 65.6116 52.5513 66.4271 54.7225C67.2426 56.8938 67.3574 59.266 66.7553 61.5059C66.1043 63.8537 64.7064 65.9256 62.773 67.4082C60.8397 68.8908 58.4761 69.7034 56.0398 69.723ZM89.5005 69.723C87.1814 69.722 84.9209 68.9945 83.0365 67.6428C81.1522 66.291 79.7386 64.3829 78.9943 62.1866C78.2501 59.9902 78.2125 57.6158 78.887 55.397C79.5615 53.1782 80.9141 51.2264 82.7548 49.8158C84.5955 48.4052 86.8319 47.6066 89.1498 47.5323C91.4677 47.458 93.7506 48.1116 95.6779 49.4014C97.6052 50.6912 99.0801 52.5523 99.8953 54.7234C100.711 56.8944 100.825 59.2663 100.223 61.5059C99.5736 63.849 98.18 65.9174 96.2525 67.3995C94.3249 68.8817 91.9679 69.6971 89.5366 69.723H89.5005ZM106.989 35.5619C106.137 35.5619 105.27 35.497 104.426 35.5619C103.759 35.6274 103.141 35.9432 102.698 36.4456C102.254 36.948 102.018 37.5998 102.036 38.2697V46.6457C102.028 46.9942 102.142 47.3344 102.358 47.6085C102.573 47.8826 102.876 48.0737 103.217 48.1495C103.557 48.2252 103.913 48.1807 104.224 48.0238C104.535 47.8668 104.782 47.6069 104.924 47.2883C105.091 46.6134 105.133 45.9133 105.047 45.2232V38.8474C105.047 38.6741 104.982 38.573 105.162 38.573H106.787C107.141 38.573 106.989 38.9557 106.989 39.295V56.4153C106.989 57.3901 105.545 57.1374 104.938 57.1374H103.581C103.581 57.1374 103.018 54.5524 102.924 54.2924C102.2 52.1798 101.013 50.2555 99.4506 48.6603C97.8891 47.1105 95.9867 45.9476 93.8955 45.2645C91.8043 44.5814 89.5823 44.397 87.4071 44.7261C85.2319 45.0552 83.1639 45.8886 81.3683 47.1598C79.5728 48.4309 78.0996 50.1045 77.0664 52.0468C76.5575 52.9958 76.1624 54.0016 75.8894 55.0434C75.8028 55.3827 75.6151 57.1374 75.3696 57.1374H70.7628C70.3656 57.1374 70.0985 57.289 70.0407 56.8702C69.7644 54.646 68.9516 52.5224 67.6723 50.6821C66.4318 48.8584 64.7803 47.3516 62.8508 46.2832C60.9212 45.2147 58.7677 44.6145 56.5637 44.5309C54.3597 44.4473 52.1669 44.8826 50.1619 45.8018C48.157 46.721 46.3961 48.0983 45.021 49.8228C43.6287 51.5624 42.6664 53.6058 42.2121 55.7871C42.2121 55.9098 42.01 57.1085 41.9955 57.1085H39.8293C39.3094 57.1085 39.4394 56.4947 39.4394 56.1265V43.5047C39.4394 43.2592 39.2878 42.3061 39.6632 42.2266C40.005 42.1021 40.3621 42.0244 40.7247 41.9956L43.4036 41.4251L50.5448 39.9016L56.2131 38.6885L78.3012 33.9373L103.415 28.5723L105.494 28.1607C105.778 28.0712 106.071 28.0131 106.368 27.9874C107.047 27.9874 106.989 28.7095 106.989 29.1861V35.5619Z" fill="#17262F"></path><path d="M56.0326 52.5451C54.8295 52.5422 53.6526 52.8963 52.6509 53.5627C51.6491 54.229 50.8676 55.1775 50.4052 56.2882C49.9429 57.3989 49.8204 58.6218 50.0534 59.8021C50.2863 60.9824 50.8642 62.0671 51.7139 62.9188C52.5636 63.7706 53.6469 64.351 54.8267 64.5868C56.0064 64.8226 57.2296 64.703 58.3414 64.2433C59.4532 63.7835 60.4036 63.0043 61.0723 62.0041C61.741 61.004 62.0979 59.828 62.0979 58.6249C62.0829 57.0196 61.4395 55.484 60.3057 54.3475C59.1719 53.2109 57.6378 52.5639 56.0326 52.5451ZM56.0326 61.6865C55.4273 61.685 54.8361 61.5043 54.3336 61.167C53.8311 60.8297 53.4398 60.3511 53.2092 59.7915C52.9786 59.232 52.919 58.6166 53.0379 58.0232C53.1569 57.4298 53.449 56.8849 53.8775 56.4575C54.3059 56.03 54.8515 55.7392 55.4451 55.6216C56.0388 55.5041 56.654 55.5651 57.2131 55.7971C57.7721 56.029 58.2498 56.4214 58.5859 56.9247C58.922 57.428 59.1013 58.0197 59.1014 58.6249C59.0938 59.4358 58.7678 60.2112 58.1937 60.7839C57.6197 61.3567 56.8435 61.6808 56.0326 61.6865Z" fill="#17262F"></path><path d="M89.5365 52.545C88.3341 52.545 87.1586 52.9016 86.1588 53.5697C85.159 54.2377 84.3797 55.1873 83.9195 56.2982C83.4594 57.4092 83.339 58.6316 83.5736 59.811C83.8081 60.9903 84.3872 62.0737 85.2375 62.9239C86.0877 63.7742 87.1711 64.3533 88.3504 64.5879C89.5298 64.8225 90.7523 64.7021 91.8632 64.2419C92.9741 63.7817 93.9237 63.0025 94.5917 62.0026C95.2598 61.0028 95.6164 59.8273 95.6164 58.6249C95.6013 57.0171 94.9559 55.4794 93.819 54.3424C92.682 53.2055 91.1444 52.5601 89.5365 52.545ZM89.5365 61.6864C88.9313 61.685 88.3401 61.5042 87.8376 61.167C87.3351 60.8297 86.9438 60.351 86.7132 59.7915C86.4826 59.2319 86.423 58.6166 86.5419 58.0232C86.6609 57.4298 86.953 56.8849 87.3815 56.4575C87.8099 56.03 88.3554 55.7392 88.9491 55.6216C89.5428 55.5041 90.158 55.5651 90.717 55.797C91.2761 56.029 91.7538 56.4214 92.0899 56.9247C92.426 57.428 92.6053 58.0197 92.6053 58.6249C92.5978 59.4358 92.2718 60.2112 91.6977 60.7839C91.1236 61.3566 90.3475 61.6808 89.5365 61.6864Z" fill="#17262F"></path><path d="M69.0515 10.2535C67.2608 9.74079 66.9719 12.0586 66.6398 13.2356C66.0332 15.344 65.4315 17.4573 64.8346 19.5754L62.885 26.4134C62.589 27.4676 62.2063 28.5362 61.9752 29.6121C61.4481 31.4823 64.3436 32.2982 64.8635 30.4353C64.9501 30.1176 65.044 29.7999 65.1306 29.4822C65.665 27.6144 66.1969 25.7442 66.7264 23.8717C67.824 20.0206 68.9191 16.1696 70.0118 12.3186C70.0926 12.1192 70.1312 11.9053 70.1253 11.6903C70.1194 11.4753 70.0691 11.2639 69.9775 11.0693C69.886 10.8747 69.7552 10.7011 69.5933 10.5594C69.4315 10.4178 69.2421 10.3112 69.037 10.2462L69.0515 10.2535Z" fill="#17262F"></path><path d="M83.6517 35.0637L63.1811 39.1651C62.8578 39.2185 62.5605 39.3751 62.3338 39.6116C62.107 39.848 61.9629 40.1516 61.9231 40.4768C61.8832 40.802 61.9498 41.1313 62.1128 41.4155C62.2758 41.6997 62.5264 41.9235 62.8272 42.0533C63.2952 42.214 63.8034 42.214 64.2714 42.0533L69.2248 41.0641L82.5903 38.3852L84.2005 38.0603C86.1212 37.6415 85.5941 34.6594 83.6517 35.0637Z" fill="#17262F"></path></g><defs><clipPath id="clip0_5678_33161"><rect width="110" height="72.7196" fill="white"></rect></clipPath></defs></svg>