<svg xmlns="http://www.w3.org/2000/svg" width="89" height="95" viewBox="0 0 89 95" fill="none"><g clip-path="url(#clip0_5678_6463)"><path d="M38.1299 54.1396L38.0449 54.0468C36.7438 52.6664 35.7273 51.0434 35.0535 49.2702C34.3797 47.4971 34.0617 45.6086 34.1177 43.7126C34.1737 41.8166 34.6026 39.9501 35.38 38.2199C36.1573 36.4896 37.2678 34.9294 38.6481 33.6283C40.0284 32.3272 41.6515 31.3107 43.4246 30.6369C45.1978 29.9631 47.0863 29.6451 48.9823 29.7011C50.8783 29.7571 52.7448 30.1861 54.475 30.9634C56.2053 31.7407 57.7655 32.8513 59.0666 34.2316L59.1517 34.3166L56.901 36.4358L56.8159 36.3508C54.7554 34.16 51.9091 32.8775 48.903 32.7854C45.8969 32.6933 42.9774 33.7991 40.7867 35.8596C38.5959 37.9201 37.3134 40.7665 37.2213 43.7725C37.1292 46.7786 38.235 49.6982 40.2955 51.8889L40.3729 51.9662L38.1299 54.1396Z" fill="#17262F"></path><path d="M38.1299 54.1396L38.0449 54.0468C36.7438 52.6664 35.7273 51.0434 35.0535 49.2702C34.3797 47.4971 34.0617 45.6086 34.1177 43.7126C34.1737 41.8166 34.6026 39.9501 35.38 38.2199C36.1573 36.4896 37.2678 34.9294 38.6481 33.6283C40.0284 32.3272 41.6515 31.3107 43.4246 30.6369C45.1978 29.9631 47.0863 29.6451 48.9823 29.7011C50.8783 29.7571 52.7448 30.1861 54.475 30.9634C56.2053 31.7407 57.7655 32.8513 59.0666 34.2316L59.1517 34.3166L56.901 36.4358L56.8159 36.3508C54.7554 34.16 51.9091 32.8775 48.903 32.7854C45.8969 32.6933 42.9774 33.7991 40.7867 35.8596C38.5959 37.9201 37.3134 40.7665 37.2213 43.7725C37.1292 46.7786 38.235 49.6982 40.2955 51.8889L40.3729 51.9662L38.1299 54.1396Z" fill="#17262F"></path><path d="M11.3926 79.3301C10.6493 79.3328 9.91347 79.1824 9.23085 78.8883C8.54824 78.5943 7.93349 78.1628 7.42489 77.6208L1.47724 71.3019C0.978062 70.782 0.587705 70.1677 0.32906 69.495C0.0704156 68.8223 -0.05131 68.1047 -0.0289784 67.3844C-0.00664676 66.664 0.159293 65.9553 0.459109 65.2999C0.758925 64.6445 1.18658 64.0556 1.717 63.5676L13.7593 52.2756C14.314 51.7428 14.7364 51.0876 14.9929 50.3625C15.2494 49.6373 15.3328 48.8622 15.2365 48.0991C13.5582 34.0305 20.7588 20.6811 33.5745 14.0142C46.5139 7.27765 62.7326 10.2012 73.0192 21.122L73.1043 21.2148C73.3676 21.5209 73.5009 21.9178 73.4755 22.3208C73.4696 22.5245 73.4236 22.725 73.3399 22.9108C73.2563 23.0966 73.1368 23.2641 72.9883 23.4036L59.0898 36.5054C58.9409 36.6451 58.7658 36.7539 58.5747 36.8256C58.3835 36.8973 58.1801 36.9304 57.9761 36.9231C57.7718 36.9162 57.571 36.8689 57.3851 36.7839C57.1993 36.699 57.0321 36.578 56.8933 36.4281L56.8159 36.343C55.2178 34.6126 53.1169 33.4273 50.8094 32.9541C48.5019 32.481 46.104 32.7438 43.9538 33.7056C42.284 34.472 40.82 35.624 39.6824 37.0668C38.5448 38.5096 37.7662 40.2019 37.4106 42.0045C37.0836 43.7629 37.1743 45.5735 37.6754 47.2904C38.1765 49.0073 39.074 50.5825 40.2955 51.8889L40.3729 51.9662C40.6505 52.2638 40.7998 52.6588 40.7882 53.0656C40.7766 53.4724 40.6051 53.8583 40.311 54.1396L26.3816 67.2878L24.2624 65.0372L37.1245 52.9176C35.8008 51.1881 34.8843 49.1822 34.4434 47.0495C34.0024 44.9167 34.0482 42.7119 34.5775 40.5993C35.1067 38.4867 36.1058 36.5207 37.5002 34.8477C38.8947 33.1747 40.6486 31.8379 42.6313 30.9368C45.1443 29.7661 47.9466 29.3619 50.688 29.7746C53.4295 30.1872 55.9886 31.3985 58.0457 33.2571L69.7476 22.228C60.3969 13.148 46.3128 10.8741 35.0053 16.7599C23.342 22.8235 16.7911 34.9818 18.307 47.6969C18.4599 48.941 18.3199 50.2035 17.8983 51.3839C17.4766 52.5642 16.7849 53.6297 15.8784 54.4953L3.86713 65.857C3.63893 66.0658 3.45478 66.3181 3.3255 66.5991C3.19622 66.8801 3.12443 67.184 3.11434 67.4932C3.10425 67.8023 3.15608 68.1104 3.26676 68.3992C3.37744 68.688 3.54475 68.9518 3.75885 69.175L9.7065 75.5016C9.91582 75.7293 10.1685 75.9128 10.4498 76.0414C10.7311 76.17 11.0352 76.2411 11.3443 76.2505C11.6535 76.2598 11.9613 76.2073 12.2499 76.096C12.5384 75.9846 12.8018 75.8167 13.0245 75.6022L24.2624 65.014L26.3816 67.2878L15.1128 77.8528C14.1069 78.8024 12.7758 79.331 11.3926 79.3301Z" fill="#17262F"></path><path d="M48.6176 72.9726C41.9474 72.9832 35.483 70.6633 30.3415 66.4139L32.306 64.0241C37.1286 67.9969 43.2339 70.0757 49.4788 69.8711C55.7237 69.6665 61.6799 67.1926 66.2321 62.9126C70.7843 58.6326 73.6203 52.84 74.209 46.6196C74.7978 40.3991 73.0989 34.1773 69.4305 29.1193L71.9287 27.3018C75.0458 31.5968 76.9143 36.6704 77.3275 41.9613C77.7406 47.2522 76.6823 52.5543 74.2696 57.2812C71.857 62.0081 68.1839 65.9756 63.6567 68.7449C59.1295 71.5142 53.9246 72.9773 48.6176 72.9726Z" fill="#17262F"></path><path d="M48.7259 50.3421H48.5248C46.9748 50.3156 45.498 49.6779 44.4159 48.5677C43.3339 47.4575 42.7342 45.9649 42.7475 44.4147C42.7608 42.8645 43.3859 41.3823 44.4867 40.2908C45.5876 39.1993 47.0751 38.5869 48.6253 38.5869C50.1756 38.5869 51.663 39.1993 52.7639 40.2908C53.8648 41.3823 54.4899 42.8645 54.5032 44.4147C54.5164 45.9649 53.9167 47.4575 52.8347 48.5677C51.7527 49.6779 50.2759 50.3156 48.7259 50.3421ZM48.7259 40.9914C47.9315 40.9904 47.1671 41.295 46.5912 41.8422C46.2913 42.1211 46.0498 42.4568 45.8806 42.8298C45.7115 43.2028 45.6181 43.6057 45.6059 44.0151C45.5936 44.4245 45.6628 44.8322 45.8094 45.2147C45.956 45.5971 46.177 45.9466 46.4597 46.243C46.7401 46.5406 47.0763 46.78 47.4491 46.9477C47.822 47.1154 48.2242 47.2079 48.6329 47.2202C49.0416 47.2324 49.4486 47.164 49.8308 47.0189C50.213 46.8738 50.5629 46.6548 50.8605 46.3745C51.1581 46.0941 51.3976 45.7579 51.5653 45.3851C51.7329 45.0122 51.8255 44.6099 51.8377 44.2013C51.8499 43.7926 51.7815 43.3856 51.6364 43.0034C51.4913 42.6212 51.2723 42.2713 50.992 41.9737C50.7119 41.6734 50.3747 41.4319 50.0003 41.2632C49.6258 41.0946 49.2215 41.0022 48.8109 40.9914H48.7259Z" fill="#17262F"></path><path d="M67.0484 19.5135C66.7379 19.514 66.4344 19.421 66.1775 19.2467C65.9206 19.0724 65.722 18.8248 65.6077 18.5361C65.4934 18.2474 65.4686 17.931 65.5366 17.6281C65.6046 17.3251 65.7621 17.0496 65.9888 16.8374L77.2808 6.18735L74.9605 3.70465L62.1758 15.7469C61.8763 16.0279 61.4774 16.1785 61.0669 16.1654C60.6565 16.1524 60.268 15.9768 59.987 15.6773C59.7059 15.3778 59.5554 14.979 59.5685 14.5685C59.5815 14.158 59.7571 13.7695 60.0566 13.4885L73.9783 0.417585C74.2772 0.138538 74.6744 -0.0107913 75.0832 0.0022529C75.4919 0.0152972 75.8788 0.189653 76.1593 0.487194L80.622 5.2283C80.9022 5.52713 81.0524 5.92488 81.0396 6.3343C81.0257 6.74297 80.8505 7.1295 80.5524 7.40936L68.1079 19.0958C67.8207 19.3647 67.4418 19.5141 67.0484 19.5135Z" fill="#17262F"></path><path d="M86.8558 95H1.54685C1.1366 95 0.743154 94.837 0.453063 94.5469C0.162972 94.2568 0 93.8634 0 93.4531V67.2881H3.09371V91.9063H85.309V83.3986H18.2451C17.8349 83.3986 17.4414 83.2356 17.1513 82.9455C16.8613 82.6554 16.6983 82.262 16.6983 81.8517V72.7949H19.792V80.3281H86.8558C87.2661 80.3281 87.6595 80.491 87.9496 80.7811C88.2397 81.0712 88.4027 81.4647 88.4027 81.8749V93.4763C88.3966 93.8825 88.2309 94.27 87.9415 94.5551C87.652 94.8402 87.2621 95 86.8558 95Z" fill="#17262F"></path><path d="M11.7638 69.9798C11.4588 69.9785 11.161 69.8871 10.9078 69.717C10.6546 69.547 10.4574 69.3059 10.3408 69.024C10.2243 68.7422 10.1937 68.4321 10.2528 68.1329C10.312 67.8337 10.4583 67.5587 10.6733 67.3424C10.9631 67.0543 11.3552 66.8926 11.7638 66.8926C12.1725 66.8926 12.5645 67.0543 12.8543 67.3424C12.9292 67.4105 12.9942 67.4885 13.0477 67.5744C13.1087 67.6576 13.1581 67.7487 13.1947 67.8451C13.2346 67.9367 13.2632 68.0328 13.2797 68.1313C13.2912 68.2315 13.2912 68.3327 13.2797 68.4329C13.2797 68.8432 13.1168 69.2366 12.8267 69.5267C12.5366 69.8168 12.1431 69.9798 11.7329 69.9798H11.7638Z" fill="#17262F"></path></g><defs><clipPath id="clip0_5678_6463"><rect width="88.4027" height="95" fill="white"></rect></clipPath></defs></svg>