<svg xmlns="http://www.w3.org/2000/svg" width="91" height="90" viewBox="0 0 91 90" fill="none"><g clip-path="url(#clip0_5678_33145)"><path d="M87.605 75.8806L72.2314 60.5071L80.525 52.173C81.8557 50.8409 82.6031 49.0351 82.6031 47.1523C82.6031 45.2695 81.8557 43.4637 80.525 42.1317L73.9549 35.5534C73.7972 35.3909 73.6086 35.2618 73.4001 35.1735C73.1916 35.0853 72.9675 35.0399 72.7412 35.0399C72.5148 35.0399 72.2907 35.0853 72.0822 35.1735C71.8737 35.2618 71.6851 35.3909 71.5275 35.5534L71.3009 35.78L68.5256 32.9965L36.0469 0.477426H35.9984L35.8123 0.299417C35.7314 0.250869 35.6586 0.194229 35.5776 0.153773H35.521H35.3754C35.2941 0.0901693 35.2042 0.0384094 35.1083 3.72115e-05C35.0331 -0.00831319 34.9571 -0.00831319 34.8818 3.72115e-05H34.6229L34.3882 0.0647679C34.336 0.0744449 34.2847 0.0879674 34.2345 0.105225H34.1536L33.9836 0.275143C33.9099 0.314315 33.8419 0.36331 33.7814 0.420787L33.7004 0.477426L0.525943 33.6519C0.34712 33.8147 0.207052 34.0155 0.116037 34.2395C0.0250216 34.4636 -0.0146272 34.7052 5.3104e-06 34.9465C0.105193 36.4111 0.0971014 38.5715 0.0809187 41.0636C5.30807e-06 50.6195 0.218471 58.1444 3.04235 60.9845C3.40306 61.359 3.83529 61.6572 4.31342 61.8615C4.79154 62.0658 5.30582 62.1721 5.82577 62.1739C9.49115 62.1739 11.7891 57.8127 12.9947 48.54L33.0208 68.5499L35.7961 71.3171L35.5695 71.5518C35.2543 71.8674 35.0772 72.2952 35.0772 72.7412C35.0772 73.1873 35.2543 73.6151 35.5695 73.9306L42.1397 80.5089C43.4745 81.8405 45.283 82.5883 47.1685 82.5883C49.0539 82.5883 50.8624 81.8405 52.1973 80.5089L60.5071 72.1991L75.8806 87.5726C77.4206 89.1118 79.5088 89.9764 81.6861 89.9764C83.8634 89.9764 85.9516 89.1118 87.4917 87.5726L87.5888 87.4755C88.3531 86.7134 88.9594 85.8079 89.3732 84.811C89.7869 83.8141 89.9999 82.7453 89.9999 81.666C89.9999 80.5866 89.7869 79.5178 89.3732 78.5209C88.9594 77.524 88.3531 76.6185 87.5888 75.8564L87.605 75.8806ZM10.3893 40.2787C10.3893 40.5458 10.3165 41.0474 10.2679 41.7109C10.2113 42.52 10.1304 43.5396 10.0252 44.729V44.7856C8.76293 58.6704 5.97951 58.8322 5.82577 58.8322C5.75295 58.8322 5.63158 58.8322 5.43739 58.638C3.38219 56.5343 3.43073 46.8651 3.45501 41.0798C3.45501 38.9194 3.45501 37.0341 3.45501 35.4887L32.8428 6.07664C32.8389 6.1224 32.8389 6.16842 32.8428 6.21419L32.7214 7.16897V7.38743C32.6728 7.77582 32.6081 8.19657 32.5515 8.55259C32.5515 8.66586 32.5515 8.78724 32.4948 8.90051C32.4463 9.18371 32.3977 9.475 32.3411 9.7582L32.2683 10.1466C32.2116 10.446 32.1469 10.7292 32.0822 11.0124C32.0822 11.1175 32.0417 11.2146 32.0174 11.3198C31.9284 11.692 31.8313 12.0561 31.7342 12.4122L31.6614 12.6225C31.5805 12.8976 31.4996 13.1647 31.4025 13.4317C31.4025 13.5369 31.3297 13.6339 31.2892 13.7391C31.2115 13.9567 31.1224 14.1701 31.0222 14.3784C30.9894 14.4667 30.9515 14.5532 30.9089 14.6373C30.7823 14.8928 30.6418 15.1413 30.4882 15.3817C27.7614 19.4759 26.8633 25.1398 27.5025 34.3154C27.5837 35.0142 27.5162 35.7223 27.3042 36.3931C27.0922 37.0638 26.7406 37.6822 26.2726 38.2074C26.1263 38.3635 25.9695 38.5095 25.8033 38.6443C24.7643 39.4679 23.4799 39.9207 22.1541 39.9308C21.0941 39.9308 20.5763 39.6072 20.5358 39.4939C20.2763 38.5444 19.6921 37.716 18.885 37.1527C18.0778 36.5895 17.0986 36.327 16.118 36.4111C13.5854 36.4111 10.6806 37.9161 10.3893 40.2464V40.2787ZM34.2183 64.9735L13.4559 44.2192C13.4523 44.1924 13.4523 44.1652 13.4559 44.1383C13.4559 43.7499 13.5125 43.3939 13.5449 43.0541C13.5406 42.9732 13.5406 42.8922 13.5449 42.8113C13.5449 42.4958 13.5935 42.1964 13.6096 41.9294C13.6582 41.3225 13.6906 40.8694 13.6986 40.7157C14.0135 40.3939 14.392 40.1414 14.8099 39.9742C15.2279 39.807 15.6762 39.7288 16.1261 39.7447C17.0727 39.7447 17.1698 40.1331 17.2103 40.303C17.6715 42.1559 19.5568 43.2968 22.1217 43.2968C23.0489 43.2979 23.971 43.1587 24.8566 42.8842C26.319 42.4348 27.6421 41.6186 28.7 40.5134C29.873 39.2464 30.6052 37.6344 30.7876 35.9175C30.8541 35.3076 30.8676 34.693 30.828 34.0808C30.7876 33.5629 30.7633 33.0613 30.7309 32.5677C30.6824 31.5805 30.6581 30.642 30.6419 29.7519C30.5934 23.9423 31.451 20.0423 33.2554 17.2589C33.4795 16.9143 33.6796 16.5548 33.8542 16.1827L34.0241 15.8267C34.1536 15.5435 34.2749 15.2522 34.3882 14.9447C34.4448 14.8072 34.4934 14.6777 34.5419 14.5402C34.6714 14.1761 34.7928 13.8039 34.9061 13.4155C34.9313 13.3438 34.9529 13.2709 34.9708 13.197C35.1002 12.7358 35.2216 12.2584 35.3349 11.781C35.3349 11.6435 35.3915 11.5059 35.4239 11.3603C35.4967 11.0124 35.5695 10.6563 35.6343 10.3003C35.6343 10.1385 35.699 9.98475 35.7233 9.82293C35.788 9.45073 35.8527 9.08661 35.9013 8.7225C35.9013 8.60923 35.9417 8.49595 35.9579 8.38267C36.0227 7.91337 36.0874 7.45216 36.1359 7.00714C36.1359 6.88577 36.1359 6.78058 36.1764 6.65921C36.1764 6.32747 36.2492 5.99572 36.2816 5.68016C36.2856 5.62089 36.2856 5.56142 36.2816 5.50215L64.9897 34.194L57.934 41.2659L45.5543 27.5106C45.2466 27.2117 44.8369 27.0409 44.4081 27.0327C43.9793 27.0245 43.5634 27.1796 43.2446 27.4665C42.9257 27.7534 42.7279 28.1508 42.691 28.5781C42.6541 29.0054 42.781 29.4308 43.0459 29.7681L55.5471 43.6366L50.8703 48.3134L41.8161 38.2478C41.6701 38.0748 41.4908 37.9328 41.2889 37.8303C41.087 37.7278 40.8666 37.6669 40.6408 37.6512C40.4149 37.6355 40.1882 37.6653 39.974 37.7389C39.7599 37.8124 39.5627 37.9282 39.3942 38.0794C39.2257 38.2306 39.0892 38.4141 38.9929 38.619C38.8966 38.824 38.8425 39.0461 38.8337 39.2724C38.8248 39.4986 38.8615 39.7243 38.9416 39.9361C39.0216 40.1479 39.1434 40.3414 39.2997 40.5053L48.4833 50.7004L42.9569 56.2268L33.9027 46.1611C33.7597 45.979 33.5807 45.8282 33.3769 45.7181C33.1732 45.6079 32.949 45.5408 32.7182 45.5209C32.4875 45.501 32.2551 45.5287 32.0355 45.6023C31.8159 45.6759 31.6137 45.7938 31.4416 45.9488C31.2694 46.1037 31.1309 46.2924 31.0347 46.503C30.9384 46.7137 30.8865 46.9419 30.8821 47.1735C30.8776 47.405 30.9208 47.635 31.009 47.8492C31.0971 48.0634 31.2283 48.2572 31.3944 48.4186L40.57 58.6137L34.2183 64.9735ZM36.6457 67.4009L67.3928 36.6538L69.0111 38.2721L53.6375 53.6456L38.264 69.0192L36.6457 67.4009ZM49.8103 78.13C49.0975 78.8073 48.1518 79.185 47.1685 79.185C46.1852 79.185 45.2395 78.8073 44.5267 78.13L39.154 72.7493L39.3806 72.5227L45.9831 65.9202L72.7654 39.1379L78.1381 44.5024C78.4845 44.8488 78.7593 45.26 78.9468 45.7126C79.1343 46.1652 79.2308 46.6503 79.2308 47.1402C79.2308 47.6301 79.1343 48.1152 78.9468 48.5678C78.7593 49.0204 78.4845 49.4316 78.1381 49.778L68.655 59.2772L63.5332 64.4071L49.8103 78.13ZM85.2261 85.1129L85.1209 85.21C84.2116 86.1117 82.9829 86.6177 81.7023 86.6177C80.4217 86.6177 79.193 86.1117 78.2837 85.21L62.9102 69.8364L66.5918 66.1549L69.8283 62.9183L85.2018 78.2919C86.106 79.2015 86.6136 80.4319 86.6136 81.7145C86.6136 82.9971 86.106 84.2275 85.2018 85.1371L85.2261 85.1129Z" fill="#17262F"></path><path d="M6.93428 82.734C6.36546 82.7202 5.79923 82.6525 5.24319 82.5318C4.28144 82.3966 3.37857 81.9887 2.64149 81.3563C1.9044 80.7239 1.36399 79.8935 1.08424 78.9635C3.51667e-06 75.2496 2.98571 69.6665 5.48593 67.2877C5.74971 67.0395 6.08587 66.8821 6.44539 66.8384C6.80491 66.7948 7.16898 66.8671 7.48449 67.0449C7.69487 67.1663 9.58015 68.3153 11.3117 71.8997C12.4445 74.2786 12.9704 77.9521 11.425 80.3956C10.9474 81.1451 10.281 81.7557 9.49276 82.1662C8.70452 82.5766 7.82216 82.7725 6.93428 82.734ZM6.76436 70.9369C5.1461 73.1053 3.82721 76.3419 4.33696 78.0492C4.47452 78.5185 4.7658 79.0282 5.90668 79.2467C6.24685 79.3215 6.59408 79.3595 6.94237 79.36C7.25403 79.4015 7.57109 79.3545 7.85727 79.2242C8.14345 79.094 8.3872 78.8859 8.56064 78.6236C9.36978 77.3938 9.00567 74.9421 8.25317 73.3805C7.8538 72.5107 7.35414 71.6906 6.76436 70.9369Z" fill="#17262F"></path></g><defs><clipPath id="clip0_5678_33145"><rect width="90.0162" height="90" fill="white"></rect></clipPath></defs></svg>