<svg xmlns="http://www.w3.org/2000/svg" width="86" height="90" viewBox="0 0 86 90" fill="none"><g clip-path="url(#clip0_5678_33229)"><path d="M1.83758 30.6843C1.57139 30.6855 1.30819 30.6283 1.0665 30.5167C0.824808 30.4052 0.610512 30.242 0.438702 30.0387C0.12461 29.6668 -0.0298709 29.1859 0.00888541 28.7007C0.0476417 28.2155 0.276498 27.7652 0.645636 27.4479C17.0017 13.4922 35.4355 9.93293 51.2039 17.7468C51.4213 17.8555 51.6152 18.0059 51.7744 18.1896C51.9337 18.3732 52.0552 18.5864 52.1321 18.817C52.2089 19.0475 52.2396 19.291 52.2224 19.5335C52.2052 19.7759 52.1403 20.0126 52.0316 20.23C51.9229 20.4474 51.7725 20.6413 51.5889 20.8005C51.4052 20.9598 51.192 21.0813 50.9615 21.1582C50.7309 21.235 50.4874 21.2657 50.245 21.2485C50.0025 21.2312 49.7658 21.1664 49.5484 21.0577C41.122 16.8611 23.8223 12.5072 3.02952 30.2456C2.69773 30.5302 2.27467 30.6859 1.83758 30.6843Z" fill="#17262F"></path><path d="M83.3367 1.96174C82.7597 1.34705 82.0637 0.856159 81.291 0.518913C80.5183 0.181666 79.6851 0.00511624 78.8421 0C76.6651 0 74.3392 1.12572 71.6821 3.51789L69.3727 5.79417C67.32 8.03734 65.3665 10.6613 63.7938 12.772L63.2061 13.5997C59.6634 18.3675 51.7254 26.3386 48.8366 29.2192C47.8493 28.9676 46.8341 28.8425 45.8153 28.8467C41.3104 28.9911 37.0434 30.9031 33.9373 34.169C28.0852 40.0212 25.2129 50.252 30.138 55.1688C31.9338 56.8335 34.3122 57.7255 36.7599 57.652C36.3991 58.1211 35.9627 58.5267 35.4686 58.8522C34.8552 59.2639 34.1559 59.53 33.4241 59.6303C32.4808 59.7579 31.5252 59.5076 30.7656 58.934C30.0059 58.3604 29.5037 57.5098 29.3682 56.5676C29.3345 56.3285 29.254 56.0983 29.1313 55.8903C29.0087 55.6823 28.8463 55.5004 28.6533 55.3551C28.4604 55.2099 28.2408 55.104 28.0069 55.0436C27.7731 54.9833 27.5297 54.9695 27.2905 55.0032C26.8076 55.0713 26.3714 55.3284 26.078 55.718C25.7846 56.1077 25.6581 56.5979 25.7261 57.0808C25.9728 58.8143 26.8356 60.4008 28.1566 61.55C29.4776 62.6992 31.1683 63.3341 32.9192 63.3385C34.5254 63.3349 36.0948 62.8569 37.4303 61.9645C39.1884 60.8605 40.4563 59.1246 40.973 57.1139C43.526 56.4412 45.9392 55.3201 48.0999 53.803C48.1178 54.6862 48.0624 55.5694 47.9343 56.4435C47.3144 59.4095 45.7981 62.1133 43.5907 64.189C41.3832 66.2647 38.5912 67.612 35.5927 68.0484C34.105 68.26 32.5902 68.1761 31.1349 67.8017C29.6796 67.4273 28.3124 66.7695 27.1115 65.8662C25.9106 64.9629 24.8997 63.8316 24.1364 62.5372C23.3732 61.2427 22.8727 59.8105 22.6635 58.3224C22.4472 56.8207 22.6267 55.2886 23.1841 53.8775C23.7416 52.4664 24.6578 51.2253 25.842 50.2768C26.0372 50.1282 26.2008 49.942 26.3229 49.7292C26.445 49.5164 26.5233 49.2812 26.5531 49.0377C26.5828 48.7941 26.5635 48.547 26.4963 48.3111C26.4291 48.0751 26.3152 47.8549 26.1615 47.6637C26.0079 47.4724 25.8174 47.3138 25.6014 47.1973C25.3855 47.0808 25.1484 47.0088 24.9041 46.9854C24.6599 46.962 24.4134 46.9878 24.1793 47.0612C23.9451 47.1346 23.7281 47.2542 23.5409 47.4129C21.8715 48.7672 20.58 50.5294 19.7911 52.5291C19.0023 54.5287 18.7429 56.6981 19.038 58.8274C19.6005 62.7877 21.7084 66.3642 24.9006 68.7747C28.0929 71.1851 32.1098 72.2335 36.0728 71.6904C39.8143 71.1572 43.3024 69.4899 46.0671 66.9132C48.8317 64.3365 50.7401 60.9742 51.535 57.2795C51.795 55.1154 51.8532 52.9318 51.7088 50.7569C55.5826 46.5355 57.2547 41.031 56.071 36.4867C57.4202 35.1209 59.5475 33.0019 61.9066 30.7422C66.0147 35.5301 68.8602 41.2694 70.1839 47.4377C71.7318 55.1357 69.3562 64.6298 63.9925 72.2202C61.432 75.9191 58.136 79.05 54.3105 81.4171C50.4849 83.7842 46.2122 85.3366 41.7594 85.9772C33.5234 87.1277 25.5688 85.3895 19.336 81.077C16.1914 78.8754 13.543 76.0395 11.5613 72.7519C9.57965 69.4643 8.30872 65.798 7.8304 61.9893C6.93644 55.5495 8.27738 49.4491 11.5883 44.7972C14.8993 40.1453 20.1885 37.0661 26.5787 36.1722C27.3192 36.0656 28.0656 36.0048 28.8136 35.9901C29.0563 35.9868 29.296 35.9356 29.5188 35.8392C29.7416 35.7428 29.9431 35.6032 30.1117 35.4285C30.2802 35.2538 30.4125 35.0474 30.5008 34.8213C30.5892 34.5952 30.6318 34.3538 30.6263 34.1111C30.6231 33.8662 30.5714 33.6243 30.4742 33.3995C30.3769 33.1747 30.2361 32.9714 30.0599 32.8013C29.8837 32.6312 29.6755 32.4977 29.4473 32.4086C29.2192 32.3194 28.9757 32.2763 28.7308 32.2818C27.8388 32.2993 26.9487 32.3712 26.0655 32.497C18.7648 33.5234 12.5733 37.1158 8.61675 42.6285C4.66016 48.1413 3.16196 55.086 4.19663 62.4943C4.74233 66.8093 6.1876 70.9618 8.43899 74.6832C10.6904 78.4047 13.6977 81.6121 17.2666 84.0982C23.0408 88.0152 29.8739 90.0744 36.8509 90C38.6705 89.997 40.4877 89.867 42.2892 89.611C47.2465 88.9123 52.0055 87.1946 56.2664 84.5663C60.5273 81.938 64.1978 78.4558 67.0468 74.3392C72.99 65.9542 75.5891 55.3674 73.8425 46.7093C72.356 39.8624 69.1644 33.5018 64.5636 28.2176C66.8315 26.057 69.2074 24.0126 71.6821 22.0923L72.4685 21.5046C74.9112 19.7472 77.2623 17.8658 79.5125 15.8677L81.8302 13.5501C86.9539 7.84696 85.4805 4.13869 83.3367 1.96174ZM79.198 11.0172L76.9797 13.2438C74.8689 15.1724 72.4354 16.9852 70.2833 18.5827L69.4555 19.1704C64.2491 23.0442 55.2929 32.0335 52.669 34.6905C52.4218 34.9434 52.2529 35.2622 52.1824 35.6087C52.1119 35.9552 52.1429 36.3147 52.2717 36.644C53.6457 40.2115 52.1061 45.1945 48.5303 48.7703C45.3932 51.9075 40.7413 54.0265 36.942 54.0265C35.3965 54.1077 33.8799 53.5853 32.7122 52.5697C29.6827 49.5401 31.5617 41.718 36.5115 36.7681C38.9367 34.2123 42.2547 32.6912 45.7739 32.5218C46.7487 32.5139 47.7167 32.6851 48.6296 33.0268C48.9586 33.1527 49.3169 33.1815 49.6618 33.1096C50.0066 33.0376 50.3236 32.8681 50.5748 32.6212C52.4703 30.7836 62.0804 21.3225 66.1528 15.8015L66.7488 14.9738C68.3464 12.8299 70.1591 10.3881 72.0215 8.35188L74.2067 6.16665C76.5161 4.0973 78.0061 3.68344 78.8421 3.68344C79.2028 3.68806 79.5584 3.76943 79.8852 3.92214C80.2121 4.07485 80.5026 4.2954 80.7376 4.56912C81.4081 5.23131 82.9725 6.79573 79.1815 11.0172H79.198Z" fill="#17262F"></path></g><defs><clipPath id="clip0_5678_33229"><rect width="85.315" height="90" fill="white"></rect></clipPath></defs></svg>