<svg xmlns="http://www.w3.org/2000/svg" width="77" height="90" viewBox="0 0 77 90" fill="none"><g clip-path="url(#clip0_5678_33587)"><path d="M38.4353 67.5914H38.3361C25.3211 66.8289 15.5007 56.7036 15.5007 44.1155C15.5067 37.9659 17.9523 32.07 22.3007 27.7216C26.6491 23.3733 32.545 20.9277 38.6945 20.9216C39.457 20.9216 40.2194 20.9216 40.9285 21.0207C42.1223 21.1703 43.3044 21.4022 44.4663 21.7146C44.8758 21.8359 45.2203 22.1149 45.424 22.4903C45.6278 22.8656 45.6741 23.3065 45.5528 23.716C45.4314 24.1255 45.1524 24.47 44.7771 24.6738C44.4017 24.8775 43.9608 24.9238 43.5513 24.8025C42.574 24.5439 41.5807 24.3503 40.5778 24.2231C39.983 24.1697 39.335 24.1392 38.6945 24.1392C33.3983 24.1452 28.3208 26.2518 24.5758 29.9968C20.8309 33.7418 18.7243 38.8193 18.7182 44.1155C18.7182 55.1558 27.0518 63.6724 38.542 64.3738C38.9687 64.387 39.3727 64.5691 39.6651 64.8801C39.9575 65.1911 40.1144 65.6055 40.1012 66.0322C40.0881 66.4589 39.906 66.8628 39.595 67.1552C39.284 67.4477 38.8696 67.6045 38.4429 67.5914H38.4353Z" fill="#17262F"></path><path d="M40.5549 19.2747H40.41C40.1966 19.2641 39.9875 19.211 39.7948 19.1186C39.6021 19.0263 39.4298 18.8965 39.2878 18.7368C39.1458 18.5771 39.0371 18.3907 38.968 18.1885C38.8988 17.9863 38.8707 17.7724 38.8851 17.5592L39.5256 8.18865C39.5563 7.76401 39.754 7.36885 40.0755 7.08975C40.397 6.81064 40.816 6.67035 41.2407 6.69961C41.6655 6.72886 42.0613 6.92529 42.3415 7.24584C42.6216 7.56639 42.7633 7.98493 42.7355 8.40976L42.095 17.7727C42.069 18.169 41.8973 18.5417 41.613 18.819C41.3286 19.0963 40.9517 19.2586 40.5549 19.2747Z" fill="#17262F"></path><path d="M36.1022 84.4264H36.0107C35.5839 84.4008 35.1843 84.2079 34.8989 83.8896C34.6134 83.5712 34.4649 83.1532 34.4858 82.7261L35.0271 73.1954C35.0514 72.7687 35.2441 72.3692 35.563 72.0846C35.8819 71.8001 36.3007 71.6539 36.7274 71.6781C37.1541 71.7024 37.5536 71.8952 37.8382 72.214C38.1227 72.5329 38.2689 72.9517 38.2447 73.3784L37.711 82.8938C37.6913 83.3071 37.5132 83.697 37.2136 83.9824C36.914 84.2678 36.516 84.4268 36.1022 84.4264Z" fill="#17262F"></path><path d="M11.3682 44.7255H11.2614L1.52491 44.0622C1.09823 44.0329 0.700682 43.8352 0.419711 43.5128C0.13874 43.1904 -0.00263562 42.7695 0.0266856 42.3428C0.0560068 41.9162 0.253623 41.5186 0.57606 41.2376C0.898497 40.9567 1.31934 40.8153 1.74602 40.8446L11.4978 41.5156C11.9059 41.5539 12.284 41.7465 12.5549 42.0541C12.8258 42.3617 12.969 42.7611 12.9554 43.1708C12.9418 43.5804 12.7723 43.9695 12.4816 44.2584C12.1908 44.5473 11.8008 44.7144 11.3911 44.7255H11.3682Z" fill="#17262F"></path><path d="M10.4685 71.2133C10.141 71.2114 9.82172 71.11 9.55308 70.9226C9.28444 70.7353 9.07905 70.4707 8.96414 70.164C8.84922 69.8573 8.8302 69.5229 8.90958 69.2051C8.98897 68.8873 9.16302 68.6012 9.40867 68.3846L16.6444 62.0791C16.8021 61.9313 16.988 61.8169 17.191 61.7426C17.394 61.6683 17.6098 61.6356 17.8257 61.6466C18.0416 61.6576 18.253 61.7119 18.4474 61.8064C18.6418 61.9009 18.8152 62.0336 18.9571 62.1966C19.0991 62.3596 19.2068 62.5495 19.2737 62.755C19.3407 62.9606 19.3655 63.1775 19.3468 63.3928C19.328 63.6081 19.2661 63.8175 19.1646 64.0083C19.0632 64.1992 18.9243 64.3677 18.7564 64.5037L11.5283 70.8168C11.2347 71.0729 10.8581 71.2138 10.4685 71.2133Z" fill="#17262F"></path><path d="M20.3804 25.6108C20.1503 25.6097 19.9232 25.5594 19.7141 25.4634C19.5051 25.3674 19.3189 25.2279 19.1681 25.0542L13.2209 18.2379C12.9409 17.9154 12.8004 17.4948 12.8304 17.0687C12.8605 16.6426 13.0585 16.2459 13.3811 15.9658C13.7036 15.6857 14.1242 15.5452 14.5503 15.5753C14.9764 15.6053 15.3731 15.8034 15.6532 16.1259L21.6003 22.9422C21.7406 23.1026 21.8478 23.2892 21.9157 23.4912C21.9836 23.6932 22.0109 23.9066 21.996 24.1192C21.9812 24.3318 21.9244 24.5394 21.829 24.7299C21.7336 24.9205 21.6015 25.0903 21.4402 25.2296C21.1451 25.4814 20.7683 25.617 20.3804 25.6108Z" fill="#17262F"></path><path d="M59.2808 89.9695C54.6253 89.9635 50.1612 88.1162 46.8629 84.8307C43.5646 81.5453 41.6999 77.0885 41.6757 72.4331C41.6612 69.8428 42.2244 67.282 43.3244 64.9369C44.4245 62.5918 46.0335 60.5215 48.0346 58.8767V11.1699C48.0366 8.21206 49.2109 5.37557 51.3003 3.2819C53.3897 1.18822 56.2238 0.00806993 59.1816 0L59.3799 0C62.3404 0.00403821 65.1784 1.18241 67.2711 3.27652C69.3637 5.37064 70.5402 8.20943 70.5422 11.1699V58.869C73.3098 61.1875 75.2977 64.3008 76.2364 67.787C77.1752 71.2732 77.0194 74.9637 75.7902 78.3584C74.5609 81.7531 72.3178 84.6878 69.3646 86.7648C66.4114 88.8417 62.8911 89.9605 59.2808 89.9695ZM59.1816 3.21755C57.0732 3.21957 55.0516 4.05806 53.5607 5.54898C52.0698 7.03991 51.2313 9.06146 51.2292 11.1699V59.6544C51.2307 59.9024 51.1743 60.1473 51.0644 60.3697C50.9546 60.5921 50.7943 60.7857 50.5964 60.9353C48.1947 62.7538 46.4248 65.2806 45.5365 68.1591C44.6482 71.0376 44.6863 74.1224 45.6454 76.9781C46.6046 79.8337 48.4364 82.3161 50.8822 84.0747C53.3281 85.8333 56.2645 86.7794 59.2769 86.7794C62.2894 86.7794 65.2258 85.8333 67.6716 84.0747C70.1175 82.3161 71.9493 79.8337 72.9084 76.9781C73.8676 74.1224 73.9057 71.0376 73.0174 68.1591C72.129 65.2806 70.3591 62.7538 67.9575 60.9353C67.7585 60.7845 67.5971 60.5898 67.486 60.3662C67.3748 60.1426 67.317 59.8964 67.317 59.6467V11.1699C67.317 9.06348 66.4813 7.04306 64.9932 5.55214C63.5051 4.06121 61.4863 3.22159 59.3799 3.21755H59.1816Z" fill="#17262F"></path><path d="M59.2731 10.865C58.8464 10.865 58.4372 11.0345 58.1355 11.3362C57.8338 11.6379 57.6643 12.0471 57.6643 12.4738V15.5236H54.7442C54.3356 15.5517 53.953 15.7338 53.6736 16.0331C53.3941 16.3325 53.2387 16.7267 53.2387 17.1362C53.2387 17.5457 53.3941 17.9399 53.6736 18.2392C53.953 18.5386 54.3356 18.7207 54.7442 18.7488H57.6643V25.161H54.7442C54.3356 25.1891 53.953 25.3712 53.6736 25.6706C53.3941 25.9699 53.2387 26.3641 53.2387 26.7736C53.2387 27.1831 53.3941 27.5773 53.6736 27.8766C53.953 28.176 54.3356 28.3581 54.7442 28.3862H57.6643V34.7908H54.7442C54.3356 34.8189 53.953 35.001 53.6736 35.3003C53.3941 35.5997 53.2387 35.9939 53.2387 36.4034C53.2387 36.8129 53.3941 37.2071 53.6736 37.5064C53.953 37.8058 54.3356 37.9879 54.7442 38.016H57.6643V44.4282H54.7442C54.3175 44.4282 53.9083 44.5977 53.6066 44.8994C53.3049 45.2011 53.1354 45.6103 53.1354 46.037C53.1354 46.4637 53.3049 46.8729 53.6066 47.1746C53.9083 47.4763 54.3175 47.6458 54.7442 47.6458H57.6643V54.058H54.7442C54.3175 54.058 53.9083 54.2275 53.6066 54.5292C53.3049 54.8309 53.1354 55.2401 53.1354 55.6668C53.1354 56.0934 53.3049 56.5026 53.6066 56.8043C53.9083 57.1061 54.3175 57.2755 54.7442 57.2755H57.6643V73.9047C57.6491 74.1257 57.6795 74.3476 57.7537 74.5564C57.8279 74.7653 57.9442 74.9566 58.0954 75.1186C58.2466 75.2806 58.4296 75.4098 58.6328 75.4981C58.8361 75.5864 59.0553 75.632 59.2769 75.632C59.4986 75.632 59.7178 75.5864 59.9211 75.4981C60.1243 75.4098 60.3072 75.2806 60.4585 75.1186C60.6097 74.9566 60.726 74.7653 60.8002 74.5564C60.8743 74.3476 60.9047 74.1257 60.8895 73.9047V12.4738C60.8895 12.2619 60.8477 12.0521 60.7663 11.8564C60.685 11.6607 60.5658 11.483 60.4156 11.3335C60.2654 11.184 60.0872 11.0657 59.8911 10.9853C59.6951 10.9049 59.485 10.864 59.2731 10.865Z" fill="#17262F"></path><path d="M27.6999 39.1672C27.5042 39.1686 27.3101 39.1324 27.1281 39.0604C26.9304 38.986 26.7493 38.8732 26.5954 38.7284C26.4414 38.5837 26.3177 38.4099 26.2312 38.2172C26.1447 38.0244 26.0973 37.8164 26.0915 37.6052C26.0858 37.394 26.122 37.1837 26.1979 36.9865C29.446 28.4471 39.6476 29.1485 40.0593 29.1866C40.485 29.22 40.8799 29.4211 41.1573 29.7457C41.4347 30.0703 41.5718 30.4917 41.5385 30.9174C41.5051 31.3431 41.304 31.738 40.9794 32.0154C40.6548 32.2928 40.2334 32.4299 39.8077 32.3966C39.4722 32.3966 31.5884 31.8629 29.2096 38.1302C29.0924 38.4355 28.8853 38.698 28.6158 38.8831C28.3463 39.0683 28.0269 39.1673 27.6999 39.1672Z" fill="#17262F"></path></g><defs><clipPath id="clip0_5678_33587"><rect width="76.8782" height="90" fill="white"></rect></clipPath></defs></svg>