<svg xmlns="http://www.w3.org/2000/svg" width="100" height="86" viewBox="0 0 100 86" fill="none"><g clip-path="url(#clip0_5678_33266)"><path d="M98.2627 16.625H1.73731C1.50956 16.6239 1.28383 16.6678 1.0731 16.7542C0.862361 16.8406 0.670775 16.9678 0.50934 17.1285C0.347904 17.2891 0.219803 17.4801 0.132392 17.6904C0.0449821 17.9008 -1.40521e-05 18.1263 -1.14199e-05 18.354V56.4421C-0.00221762 56.6713 0.041152 56.8986 0.127576 57.1108C0.214 57.3231 0.341753 57.516 0.50341 57.6785C0.665066 57.8409 0.857399 57.9696 1.06923 58.057C1.28105 58.1444 1.50815 58.1889 1.73731 58.1878H25.079L14.0565 78.5868C13.64 79.3479 13.4293 80.2046 13.4452 81.0721C13.4611 81.9396 13.703 82.788 14.1471 83.5334C14.5911 84.2788 15.222 84.8955 15.9773 85.3225C16.7326 85.7495 17.5862 85.9721 18.4539 85.9683H18.5287C19.4307 85.969 20.3159 85.7251 21.0903 85.2626C21.8646 84.8 22.4991 84.1361 22.926 83.3416L36.5087 58.1878H61.3466L74.9293 83.3582C75.3563 84.1527 75.9907 84.8166 76.765 85.2792C77.5394 85.7417 78.4247 85.9857 79.3267 85.9849H79.4015C80.2698 85.9902 81.1245 85.7687 81.881 85.3423C82.6374 84.9158 83.2695 84.2993 83.7145 83.5536C84.1595 82.808 84.4022 81.959 84.4184 81.0908C84.4347 80.2226 84.224 79.3652 83.8071 78.6034L72.7847 58.1878H98.2627C98.722 58.1878 99.1626 58.0059 99.4882 57.6819C99.8138 57.3579 99.9978 56.9181 100 56.4588V18.354C99.9978 17.8947 99.8138 17.4549 99.4882 17.1309C99.1626 16.8069 98.722 16.625 98.2627 16.625ZM19.8753 81.6957C19.748 81.9438 19.5552 82.1525 19.3178 82.299C19.0805 82.4455 18.8076 82.5243 18.5287 82.5269H18.4539C18.1886 82.5292 17.9273 82.462 17.696 82.3321C17.4647 82.2022 17.2714 82.014 17.1353 81.7863C16.9991 81.5586 16.9249 81.2992 16.92 81.034C16.9151 80.7688 16.9796 80.5068 17.1072 80.2742L29.0191 58.1878H32.5686L19.8753 81.6957ZM80.7564 80.241C80.8818 80.4745 80.9443 80.7367 80.9378 81.0016C80.9313 81.2666 80.856 81.5254 80.7194 81.7525C80.5828 81.9797 80.3895 82.1674 80.1584 82.2973C79.9274 82.4273 79.6665 82.4949 79.4015 82.4937H79.3267C79.048 82.4902 78.7754 82.411 78.5382 82.2646C78.301 82.1181 78.1081 81.91 77.98 81.6624L65.2868 58.1878H68.8362L80.7564 80.241ZM96.5503 54.7048H77.8803L92.951 25.3532C93.0715 25.1494 93.1491 24.9232 93.179 24.6884C93.209 24.4535 93.1906 24.215 93.125 23.9876C93.0595 23.7601 92.9481 23.5484 92.7978 23.3655C92.6475 23.1826 92.4613 23.0324 92.2509 22.924C92.0404 22.8157 91.81 22.7515 91.5738 22.7354C91.3376 22.7193 91.1006 22.7516 90.8774 22.8304C90.6541 22.9092 90.4494 23.0328 90.2756 23.1936C90.1019 23.3544 89.9628 23.549 89.867 23.7655L73.9817 54.7048H65.586L80.6317 25.3532C80.7523 25.1494 80.8299 24.9232 80.8598 24.6884C80.8898 24.4535 80.8714 24.215 80.8058 23.9876C80.7403 23.7601 80.6289 23.5484 80.4786 23.3655C80.3283 23.1826 80.1422 23.0324 79.9317 22.924C79.7212 22.8157 79.4908 22.7515 79.2546 22.7354C79.0184 22.7193 78.7814 22.7516 78.5582 22.8304C78.3349 22.9092 78.1302 23.0328 77.9564 23.1936C77.7827 23.3544 77.6436 23.549 77.5478 23.7655L61.6874 54.7048H49.2186L64.3225 25.3532C64.443 25.1494 64.5207 24.9232 64.5506 24.6884C64.5805 24.4535 64.5622 24.215 64.4966 23.9876C64.431 23.7601 64.3197 23.5484 64.1694 23.3655C64.019 23.1826 63.8329 23.0324 63.6224 22.924C63.412 22.8157 63.1816 22.7515 62.9454 22.7354C62.7092 22.7193 62.4722 22.7516 62.2489 22.8304C62.0257 22.9092 61.8209 23.0328 61.6472 23.1936C61.4734 23.3544 61.3344 23.549 61.2386 23.7655L45.3533 54.7048H36.9327L52.0033 25.3532C52.1827 24.948 52.2004 24.4896 52.0529 24.0717C51.9054 23.6539 51.6038 23.3082 51.2099 23.1054C50.8159 22.9026 50.3593 22.8579 49.9335 22.9806C49.5078 23.1034 49.145 23.3841 48.9194 23.7655L33.0341 54.7048H20.5652L35.6691 25.3532C35.7897 25.1494 35.8673 24.9232 35.8972 24.6884C35.9272 24.4535 35.9088 24.215 35.8432 23.9876C35.7777 23.7601 35.6663 23.5484 35.516 23.3655C35.3657 23.1826 35.1796 23.0324 34.9691 22.924C34.7586 22.8157 34.5282 22.7515 34.292 22.7354C34.0558 22.7193 33.8188 22.7516 33.5956 22.8304C33.3723 22.9092 33.1676 23.0328 32.9938 23.1936C32.8201 23.3544 32.681 23.549 32.5852 23.7655L16.6999 54.7048H8.31254L23.3666 25.3532C23.5459 24.948 23.5637 24.4896 23.4162 24.0717C23.2687 23.6539 22.9671 23.3082 22.5731 23.1054C22.1792 22.9026 21.7226 22.8579 21.2968 22.9806C20.871 23.1034 20.5082 23.3841 20.2826 23.7655L4.39733 54.7048H3.46632V20.0914H96.5669L96.5503 54.7048Z" fill="#17262F"></path><path d="M31.1804 15.029C29.7007 15.029 28.2543 14.5902 27.024 13.7682C25.7937 12.9461 24.8348 11.7777 24.2685 10.4107C23.7023 9.04365 23.5542 7.53941 23.8428 6.08818C24.1315 4.63695 24.844 3.30391 25.8903 2.25763C26.9366 1.21135 28.2696 0.498828 29.7208 0.210161C31.1721 -0.0785068 32.6763 0.0696477 34.0433 0.635889C35.4104 1.20213 36.5788 2.16103 37.4008 3.39132C38.2229 4.62161 38.6617 6.06805 38.6617 7.54771C38.6617 9.53187 37.8735 11.4348 36.4704 12.8378C35.0674 14.2408 33.1645 15.029 31.1804 15.029ZM31.1804 3.46624C30.3783 3.46627 29.5943 3.70456 28.9279 4.15087C28.2615 4.59718 27.7426 5.2314 27.4372 5.97305C27.1318 6.7147 27.0536 7.53036 27.2125 8.31653C27.3715 9.1027 27.7603 9.82395 28.3298 10.3888C28.8993 10.9536 29.6237 11.3365 30.4112 11.4889C31.1986 11.6413 32.0136 11.5564 32.7527 11.2449C33.4918 10.9334 34.1218 10.4093 34.5626 9.73926C35.0034 9.06917 35.2352 8.28325 35.2286 7.48121C35.2198 6.41332 34.7894 5.39217 34.0312 4.64016C33.273 3.88815 32.2483 3.46621 31.1804 3.46624Z" fill="#17262F"></path><path d="M67.5478 15.029C66.0681 15.029 64.6217 14.5902 63.3914 13.7682C62.1611 12.9461 61.2022 11.7777 60.636 10.4107C60.0697 9.04365 59.9216 7.53941 60.2103 6.08818C60.4989 4.63695 61.2114 3.30391 62.2577 2.25763C63.304 1.21135 64.637 0.498828 66.0883 0.210161C67.5395 -0.0785068 69.0437 0.0696477 70.4108 0.635889C71.7778 1.20213 72.9462 2.16103 73.7683 3.39132C74.5903 4.62161 75.0291 6.06805 75.0291 7.54771C75.016 9.52783 74.2236 11.4231 72.8234 12.8233C71.4232 14.2235 69.5279 15.0159 67.5478 15.029ZM67.5478 3.46624C66.7457 3.46627 65.9617 3.70456 65.2953 4.15087C64.6289 4.59718 64.1101 5.2314 63.8047 5.97305C63.4993 6.7147 63.4211 7.53036 63.58 8.31653C63.7389 9.1027 64.1278 9.82395 64.6972 10.3888C65.2667 10.9536 65.9912 11.3365 66.7786 11.4889C67.5661 11.6413 68.3811 11.5564 69.1202 11.2449C69.8593 10.9334 70.4892 10.4093 70.93 9.73926C71.3708 9.06917 71.6026 8.28325 71.596 7.48121C71.5872 6.41332 71.1569 5.39217 70.3986 4.64016C69.6404 3.88815 68.6157 3.46621 67.5478 3.46624Z" fill="#17262F"></path></g><defs><clipPath id="clip0_5678_33266"><rect width="100" height="85.9684" fill="white"></rect></clipPath></defs></svg>