<svg xmlns="http://www.w3.org/2000/svg" width="87" height="110" viewBox="0 0 87 110" fill="none"><g clip-path="url(#clip0_5678_16319)"><path d="M20.6124 79.6522H20.3662C20.3182 79.6522 20.2707 79.6426 20.2265 79.6239C20.1823 79.6052 20.1424 79.5778 20.109 79.5434C20.0755 79.5089 20.0494 79.4681 20.0321 79.4234C20.0148 79.3786 20.0066 79.3308 20.0081 79.2829C20.0073 79.2078 20.0309 79.1345 20.0752 79.074C20.1196 79.0135 20.1825 78.969 20.2543 78.9472V74.4711C20.2528 74.4231 20.261 74.3754 20.2783 74.3306C20.2956 74.2859 20.3217 74.2451 20.3551 74.2106C20.3885 74.1762 20.4285 74.1488 20.4727 74.1301C20.5169 74.1114 20.5644 74.1018 20.6124 74.1018C20.7103 74.1018 20.8042 74.1407 20.8735 74.21C20.9428 74.2792 20.9817 74.3731 20.9817 74.4711V79.2941C20.9788 79.3901 20.9386 79.4811 20.8696 79.548C20.8007 79.6148 20.7084 79.6522 20.6124 79.6522Z" fill="#17262F"></path><path d="M8.13527 79.6521H7.88909C7.8411 79.6521 7.79361 79.6425 7.74942 79.6238C7.70523 79.6051 7.66524 79.5778 7.63184 79.5433C7.59844 79.5089 7.5723 79.4681 7.55498 79.4233C7.53765 79.3786 7.5295 79.3308 7.531 79.2828V74.4599C7.5295 74.4119 7.53765 74.3641 7.55498 74.3194C7.5723 74.2746 7.59844 74.2338 7.63184 74.1994C7.66524 74.1649 7.70523 74.1376 7.74942 74.1189C7.79361 74.1002 7.8411 74.0906 7.88909 74.0906C7.98702 74.0906 8.08095 74.1295 8.1502 74.1987C8.21946 74.268 8.25836 74.3619 8.25836 74.4599V78.9359C8.3284 78.9607 8.38935 79.0059 8.43327 79.0658C8.47719 79.1257 8.50203 79.1974 8.50455 79.2717C8.50605 79.3211 8.4976 79.3703 8.47972 79.4164C8.46183 79.4625 8.43487 79.5046 8.40043 79.54C8.36599 79.5755 8.32477 79.6037 8.27922 79.623C8.23367 79.6422 8.18472 79.6521 8.13527 79.6521Z" fill="#17262F"></path><path d="M41.2696 36.6593C36.2488 36.1822 31.5843 33.8573 28.1809 30.1354C24.7774 26.4135 22.8778 21.5602 22.8505 16.5169C22.8527 15.6031 22.9201 14.6907 23.0519 13.7865C23.0628 13.6995 23.1054 13.6195 23.1714 13.5617C23.2374 13.504 23.3223 13.4725 23.41 13.4732H62.6653C62.753 13.4725 62.8379 13.504 62.9039 13.5617C62.9699 13.6195 63.0124 13.6995 63.0234 13.7865C63.1497 14.6913 63.217 15.6034 63.2248 16.5169C63.229 20.2951 62.1703 23.9984 60.1699 27.2036C60.1449 27.244 60.1122 27.2791 60.0737 27.3069C60.0351 27.3346 59.9915 27.3545 59.9452 27.3655C59.8519 27.3875 59.7535 27.3715 59.6719 27.3211C59.5903 27.2706 59.5321 27.1898 59.5101 27.0964C59.488 27.003 59.504 26.9047 59.5544 26.8231C61.4814 23.7312 62.5011 20.1601 62.4975 16.5169C62.4959 15.7422 62.4435 14.9684 62.3408 14.2005H23.7009C23.5832 14.9674 23.5159 15.7412 23.4995 16.5169C23.5261 21.3861 25.3638 26.0712 28.6548 29.66C31.9458 33.2488 36.4545 35.4846 41.3032 35.932C41.3508 35.9346 41.3974 35.9471 41.4401 35.9686C41.4827 35.9901 41.5204 36.0202 41.5509 36.057C41.5813 36.0938 41.6039 36.1364 41.6171 36.1823C41.6303 36.2282 41.6339 36.2763 41.6277 36.3236C41.622 36.4147 41.5817 36.5001 41.5152 36.5625C41.4487 36.6249 41.3608 36.6595 41.2696 36.6593Z" fill="#17262F"></path><path d="M56.4324 21.5299C56.3882 21.54 56.3423 21.54 56.2981 21.5299C56.2103 21.4927 56.1404 21.423 56.1029 21.3354C56.0653 21.2478 56.0631 21.1491 56.0966 21.0599C56.7654 19.3951 57.1073 17.617 57.1038 15.8229C57.1038 15.725 57.1427 15.631 57.2119 15.5618C57.2812 15.4925 57.3751 15.4536 57.473 15.4536C57.521 15.4536 57.5685 15.4632 57.6127 15.4819C57.6569 15.5006 57.6969 15.528 57.7303 15.5624C57.7637 15.5969 57.7898 15.6377 57.8072 15.6824C57.8245 15.7272 57.8326 15.7749 57.8311 15.8229C57.8234 17.6855 57.4666 19.5302 56.7793 21.2613C56.7548 21.3356 56.7088 21.4009 56.6469 21.4488C56.5851 21.4966 56.5104 21.5249 56.4324 21.5299Z" fill="#17262F"></path><path d="M38.1363 29.7437H38.0132C35.1501 28.7048 32.6754 26.8112 30.9241 24.3193C29.1728 21.8275 28.2294 18.8576 28.2217 15.8119C28.2217 15.714 28.2606 15.62 28.3299 15.5508C28.3992 15.4815 28.4931 15.4426 28.591 15.4426C28.639 15.4426 28.6865 15.4522 28.7307 15.4709C28.7749 15.4896 28.8149 15.517 28.8483 15.5514C28.8817 15.5859 28.9078 15.6267 28.9251 15.6714C28.9425 15.7162 28.9506 15.7639 28.9491 15.8119C28.9495 18.7139 29.8433 21.5455 31.509 23.9219C33.1747 26.2983 35.5315 28.1044 38.2594 29.0947C38.3044 29.1098 38.346 29.1337 38.3817 29.1651C38.4174 29.1964 38.4466 29.2345 38.4674 29.2772C38.4882 29.3199 38.5003 29.3664 38.5031 29.4138C38.5058 29.4612 38.499 29.5087 38.4832 29.5535C38.4484 29.614 38.3976 29.6637 38.3364 29.6973C38.2752 29.7308 38.206 29.7469 38.1363 29.7437Z" fill="#17262F"></path><path d="M5.59508 69.6705C5.50011 69.6705 5.40903 69.6328 5.34187 69.5656C5.27472 69.4984 5.23699 69.4074 5.23699 69.3124C5.23549 69.2644 5.24365 69.2167 5.26097 69.1719C5.27829 69.1272 5.30443 69.0864 5.33783 69.0519C5.37123 69.0175 5.41122 68.9901 5.45541 68.9714C5.4996 68.9527 5.5471 68.9431 5.59508 68.9431H9.12C9.21603 68.9431 9.3083 68.9804 9.37724 69.0473C9.44618 69.1141 9.48637 69.2052 9.48928 69.3012C9.49078 69.3492 9.48263 69.3969 9.4653 69.4417C9.44798 69.4864 9.42184 69.5272 9.38844 69.5617C9.35504 69.5961 9.31505 69.6235 9.27086 69.6422C9.22667 69.6609 9.17917 69.6705 9.13119 69.6705H5.59508Z" fill="#17262F"></path><path d="M5.59511 74.8292C5.52315 74.8277 5.45318 74.8053 5.3938 74.7646C5.33442 74.724 5.28822 74.6668 5.26088 74.6002C5.23354 74.5337 5.22624 74.4606 5.2399 74.3899C5.25355 74.3192 5.28756 74.2541 5.33773 74.2025L5.74058 73.8556L5.34892 73.4751C5.31293 73.4426 5.28416 73.4029 5.26447 73.3586C5.24478 73.3142 5.23461 73.2663 5.23461 73.2178C5.23461 73.1693 5.24478 73.1213 5.26447 73.077C5.28416 73.0326 5.31293 72.9929 5.34892 72.9604L5.74058 72.5687L5.33773 72.1883C5.26801 72.1205 5.22781 72.0281 5.22583 71.9309C5.22941 71.8308 5.26917 71.7354 5.33773 71.6623L5.72939 71.2819L5.33773 70.9014C5.28564 70.85 5.24949 70.7846 5.23361 70.7132C5.21773 70.6417 5.2228 70.5672 5.24821 70.4985C5.27717 70.4309 5.32566 70.3735 5.38746 70.3336C5.44927 70.2938 5.52157 70.2732 5.59511 70.2747H12.175C12.2729 70.2747 12.3668 70.3136 12.4361 70.3829C12.5053 70.4521 12.5442 70.5461 12.5442 70.644C12.5443 70.692 12.5346 70.7395 12.516 70.7837C12.4973 70.8279 12.4699 70.8679 12.4354 70.9013C12.401 70.9347 12.3602 70.9608 12.3154 70.9781C12.2707 70.9954 12.2229 71.0036 12.175 71.0021H6.49033C6.55889 71.0751 6.59865 71.1706 6.60223 71.2707C6.60025 71.3678 6.56004 71.4603 6.49033 71.528L6.09867 71.9085L6.49033 72.3002C6.56004 72.3679 6.60025 72.4604 6.60223 72.5575C6.60403 72.6061 6.59491 72.6544 6.57554 72.699C6.55617 72.7435 6.52705 72.7831 6.49033 72.8149L6.09867 73.2066L6.49033 73.587C6.52705 73.6188 6.55617 73.6585 6.57554 73.703C6.59491 73.7476 6.60403 73.7959 6.60223 73.8444C6.60274 73.9433 6.5669 74.0389 6.50152 74.113H22.0895C22.0209 74.04 21.9812 73.9445 21.9776 73.8444C21.9758 73.7959 21.9849 73.7476 22.0043 73.703C22.0237 73.6585 22.0528 73.6188 22.0895 73.587L22.4812 73.2066L22.0671 72.7366C22.0304 72.7048 22.0013 72.6652 21.9819 72.6206C21.9626 72.5761 21.9534 72.5277 21.9552 72.4792C21.9541 72.4318 21.9625 72.3846 21.9798 72.3404C21.997 72.2962 22.0229 72.2559 22.0559 72.2218L22.4588 71.8302L22.0559 71.4497C22.0039 71.3797 21.9784 71.2935 21.9838 71.2065C21.9892 71.1194 22.0253 71.0371 22.0856 70.9741C22.1459 70.9111 22.2266 70.8715 22.3134 70.8623C22.4001 70.8531 22.4873 70.8748 22.5595 70.9238L23.2309 71.5728C23.2669 71.6053 23.2957 71.645 23.3154 71.6894C23.3351 71.7337 23.3452 71.7817 23.3452 71.8302C23.3452 71.8787 23.3351 71.9267 23.3154 71.971C23.2957 72.0153 23.2669 72.055 23.2309 72.0876L22.8393 72.4792L23.2309 72.8597C23.267 72.892 23.2957 72.9317 23.3151 72.9761C23.3344 73.0205 23.3438 73.0686 23.3428 73.117C23.3447 73.1672 23.3357 73.2173 23.3164 73.2636C23.2971 73.31 23.2679 73.3516 23.2309 73.3856L22.8393 73.7661L23.2421 74.1466C23.2923 74.1992 23.3264 74.2651 23.3402 74.3365C23.3541 74.4079 23.3473 74.4818 23.3204 74.5494C23.2922 74.6153 23.2455 74.6715 23.1859 74.7112C23.1262 74.7509 23.0564 74.7725 22.9847 74.7732L5.59511 74.8292Z" fill="#17262F"></path><path d="M67.5554 51.8332C67.4831 51.8355 67.4119 51.8152 67.3517 51.7751C67.2915 51.735 67.2453 51.677 67.2197 51.6094L52.0905 15.9237C52.0632 15.8786 52.0458 15.8282 52.0396 15.7758C52.0334 15.7235 52.0385 15.6704 52.0545 15.6202C52.0705 15.57 52.0971 15.5237 52.1324 15.4846C52.1678 15.4455 52.2111 15.4144 52.2595 15.3935C52.3079 15.3725 52.3602 15.3622 52.4129 15.3631C52.4656 15.364 52.5175 15.3762 52.5651 15.3989C52.6127 15.4216 52.6549 15.4542 52.6888 15.4945C52.7228 15.5349 52.7477 15.582 52.7619 15.6328L67.8799 51.3296C67.9001 51.3735 67.9112 51.4211 67.9125 51.4694C67.9139 51.5178 67.9054 51.5659 67.8876 51.6108C67.8698 51.6558 67.8431 51.6967 67.8091 51.7311C67.7751 51.7654 67.7345 51.7925 67.6897 51.8108L67.5554 51.8332Z" fill="#17262F"></path><path d="M52.1017 52.3815C52.0353 52.383 51.9698 52.366 51.9125 52.3324C51.8552 52.2988 51.8083 52.25 51.7772 52.1913L34.4995 20.7915C33.6701 19.252 33.2828 17.513 33.3804 15.7671C33.3711 15.714 33.3735 15.6595 33.3875 15.6074C33.4014 15.5553 33.4266 15.5069 33.4613 15.4656C33.4959 15.4243 33.5392 15.3911 33.5881 15.3683C33.637 15.3455 33.6902 15.3337 33.7441 15.3337C33.798 15.3337 33.8513 15.3455 33.9002 15.3683C33.949 15.3911 33.9923 15.4243 34.027 15.4656C34.0616 15.5069 34.0868 15.5553 34.1008 15.6074C34.1148 15.6595 34.1172 15.714 34.1078 15.7671C34.0004 17.3727 34.3414 18.9766 35.0926 20.3998L52.415 51.8444C52.4385 51.8861 52.4533 51.9321 52.4587 51.9797C52.4641 52.0272 52.4599 52.0754 52.4463 52.1213C52.4327 52.1672 52.4101 52.2099 52.3797 52.2469C52.3494 52.2839 52.3119 52.3145 52.2696 52.3367C52.2169 52.362 52.16 52.3771 52.1017 52.3815Z" fill="#17262F"></path><path d="M43.06 24.059C42.0185 24.0582 40.9894 23.8323 40.0433 23.3968C39.0972 22.9613 38.2563 22.3265 37.5783 21.5358C36.9003 20.7452 36.4012 19.8174 36.1151 18.8159C35.829 17.8144 35.7626 16.7629 35.9206 15.7335C35.9273 15.6851 35.9438 15.6385 35.9692 15.5967C35.9945 15.555 36.0281 15.5188 36.068 15.4905C36.1078 15.4622 36.153 15.4423 36.2008 15.4322C36.2486 15.422 36.298 15.4217 36.3459 15.4313C36.44 15.4478 36.5241 15.5002 36.5805 15.5774C36.6368 15.6546 36.661 15.7507 36.648 15.8454C36.4675 17.0141 36.6098 18.21 37.0595 19.3037C37.5092 20.3975 38.2492 21.3476 39.1996 22.0515C40.1499 22.7553 41.2745 23.1861 42.4519 23.2973C43.6292 23.4086 44.8146 23.196 45.88 22.6826C47.1306 22.0831 48.1544 21.0962 48.7995 19.8685C49.4446 18.6408 49.6766 17.2377 49.4608 15.8677C49.4509 15.7719 49.4777 15.6758 49.5359 15.599C49.594 15.5221 49.6792 15.4702 49.7742 15.4537C49.8705 15.4409 49.968 15.4667 50.0455 15.5253C50.123 15.584 50.1743 15.6708 50.1882 15.767C50.4212 17.2896 50.1587 18.8467 49.4394 20.2088C48.7201 21.5708 47.5821 22.6656 46.1933 23.3316C45.219 23.8127 44.1466 24.0616 43.06 24.059Z" fill="#17262F"></path><path d="M43.06 19.3816C42.6166 19.3844 42.1801 19.2711 41.7941 19.0529C41.408 18.8347 41.0858 18.5192 40.8595 18.1379C40.6332 17.7565 40.5106 17.3226 40.5041 16.8792C40.4975 16.4358 40.6071 15.9984 40.822 15.6105C40.868 15.5259 40.9457 15.4631 41.038 15.4358C41.1304 15.4085 41.2298 15.419 41.3143 15.465C41.3989 15.511 41.4618 15.5887 41.4891 15.6811C41.5163 15.7734 41.5058 15.8728 41.4598 15.9574C41.3045 16.2289 41.222 16.5359 41.2205 16.8487C41.2189 17.1615 41.2983 17.4694 41.451 17.7424C41.6036 18.0154 41.8243 18.2442 42.0916 18.4067C42.3589 18.5692 42.6636 18.6598 42.9763 18.6696C43.2889 18.6794 43.5987 18.6082 43.8757 18.4629C44.1527 18.3175 44.3873 18.103 44.5568 17.8401C44.7263 17.5772 44.8249 17.275 44.8431 16.9627C44.8612 16.6504 44.7982 16.3388 44.6602 16.0581C44.6336 16.0143 44.6165 15.9654 44.6098 15.9146C44.6031 15.8638 44.6071 15.8122 44.6215 15.763C44.6359 15.7138 44.6603 15.6681 44.6933 15.6289C44.7263 15.5897 44.7671 15.5578 44.8131 15.5352C44.859 15.5125 44.9092 15.4998 44.9604 15.4976C45.0116 15.4955 45.0627 15.504 45.1104 15.5226C45.1582 15.5413 45.2015 15.5697 45.2376 15.606C45.2738 15.6423 45.302 15.6858 45.3205 15.7336C45.6001 16.336 45.6338 17.0237 45.4144 17.6506C45.195 18.2775 44.7398 18.7941 44.1455 19.0906C43.8089 19.2647 43.4386 19.364 43.06 19.3816Z" fill="#17262F"></path><path d="M65.7314 53.3439C68.1353 53.3439 70.4408 54.2989 72.1407 55.9987C73.8405 57.6986 74.7955 60.004 74.7955 62.408C74.7955 64.8119 73.8405 67.1174 72.1407 68.8173C70.4408 70.5171 68.1353 71.4721 65.7314 71.4721H65.4964L13.887 69.234C12.2302 69.1774 10.6595 68.4823 9.50331 67.2943C8.34713 66.1062 7.69508 64.5171 7.68351 62.8594C7.67195 61.2016 8.30178 59.6036 9.44127 58.3996C10.5808 57.1955 12.1417 56.4786 13.7975 56.3988L65.3733 53.3887L65.7314 53.3439ZM65.7314 52.6165H65.3397L13.7528 55.6267C11.9065 55.7117 10.1648 56.5082 8.89294 57.8493C7.62112 59.1904 6.918 60.9719 6.93102 62.8201C6.94405 64.6683 7.67222 66.4397 8.96281 67.7628C10.2534 69.0858 12.0061 69.8577 13.8535 69.9166L65.4628 72.1547H65.7314C68.3283 72.1547 70.8187 71.1231 72.655 69.2868C74.4913 67.4506 75.5229 64.9601 75.5229 62.3632C75.5229 59.7664 74.4913 57.2759 72.655 55.4396C70.8187 53.6034 68.3283 52.5718 65.7314 52.5718V52.6165Z" fill="#17262F"></path><path d="M65.2726 68.9766C63.5424 68.9766 61.883 68.2892 60.6595 67.0658C59.4361 65.8423 58.7487 64.1829 58.7487 62.4527C58.7487 60.7224 59.4361 59.063 60.6595 57.8396C61.883 56.6161 63.5424 55.9288 65.2726 55.9288C66.1303 55.9116 66.9825 56.0694 67.7771 56.3927C68.5717 56.7159 69.2921 57.1977 69.8942 57.8087C70.8201 58.7133 71.4559 59.8729 71.7208 61.14C71.9857 62.4071 71.8677 63.7243 71.3818 64.9241C70.8959 66.1238 70.0641 67.152 68.9921 67.8776C67.9202 68.6032 66.6566 68.9936 65.3621 68.9989L65.2726 68.9766ZM65.2726 56.6673C64.1259 56.6751 63.0072 57.0229 62.0582 57.6667C61.1091 58.3104 60.3724 59.2212 59.9411 60.2838C59.5098 61.3464 59.4034 62.5131 59.6354 63.6361C59.8673 64.7592 60.4272 65.7882 61.2441 66.593C61.778 67.1249 62.4116 67.546 63.1087 67.8322C63.8059 68.1183 64.5527 68.2638 65.3062 68.2604C66.8435 68.2604 68.3179 67.6497 69.405 66.5626C70.492 65.4756 71.1027 64.0012 71.1027 62.4639C71.1027 60.9265 70.492 59.4521 69.405 58.3651C68.3179 57.278 66.8435 56.6673 65.3062 56.6673H65.2726Z" fill="#17262F"></path><path d="M14.1556 67.3763C12.9736 67.318 11.8593 66.8074 11.0434 65.9503C10.2274 65.0931 9.77234 63.955 9.77234 62.7715C9.77234 61.5881 10.2274 60.45 11.0434 59.5928C11.8593 58.7356 12.9736 58.225 14.1556 58.1667C15.3376 58.225 16.452 58.7356 17.2679 59.5928C18.0839 60.45 18.539 61.5881 18.539 62.7715C18.539 63.955 18.0839 65.0931 17.2679 65.9503C16.452 66.8074 15.3376 67.318 14.1556 67.3763ZM14.1556 58.5248V58.8941C13.1633 58.9474 12.2292 59.3792 11.5456 60.1005C10.862 60.8218 10.481 61.7778 10.481 62.7715C10.481 63.7653 10.862 64.7212 11.5456 65.4425C12.2292 66.1639 13.1633 66.5956 14.1556 66.6489C15.148 66.5956 16.0821 66.1639 16.7657 65.4425C17.4493 64.7212 17.8303 63.7653 17.8303 62.7715C17.8303 61.7778 17.4493 60.8218 16.7657 60.1005C16.0821 59.3792 15.148 58.9474 14.1556 58.8941V58.5248Z" fill="#17262F"></path><path d="M65.2279 64.9034C64.898 64.9052 64.5711 64.8419 64.2657 64.717C63.9604 64.5922 63.6827 64.4084 63.4486 64.176C63.0883 63.8256 62.8406 63.3757 62.7372 62.8839C62.6337 62.392 62.6791 61.8805 62.8676 61.4146C63.0562 60.9487 63.3792 60.5495 63.7956 60.268C64.212 59.9865 64.7029 59.8355 65.2055 59.8342C65.8743 59.8342 66.5158 60.0991 66.9898 60.571C67.4638 61.0429 67.7315 61.6832 67.7345 62.352C67.7403 62.6841 67.6788 63.0139 67.5538 63.3216C67.4288 63.6293 67.2428 63.9085 67.0071 64.1425C66.7733 64.3807 66.4948 64.5706 66.1876 64.7011C65.8804 64.8317 65.5505 64.9004 65.2167 64.9034H65.2279ZM65.2279 60.5616C64.9898 60.5594 64.7539 60.6059 64.5345 60.6983C64.3151 60.7907 64.117 60.9269 63.9522 61.0987C63.784 61.2656 63.6508 61.4644 63.5605 61.6835C63.4702 61.9026 63.4245 62.1375 63.4262 62.3744C63.4241 62.6124 63.4706 62.8484 63.563 63.0678C63.6553 63.2871 63.7916 63.4853 63.9634 63.6501C64.1327 63.8181 64.3336 63.9511 64.5544 64.0413C64.7752 64.1316 65.0117 64.1774 65.2502 64.176C65.705 64.1402 66.1295 63.9343 66.4391 63.5993C66.7488 63.2644 66.9207 62.825 66.9207 62.3688C66.9207 61.9127 66.7488 61.4733 66.4391 61.1383C66.1295 60.8033 65.705 60.5974 65.2502 60.5616H65.2279Z" fill="#17262F"></path><path d="M14.2563 64.4446C13.9166 64.4536 13.5821 64.3594 13.297 64.1742C13.012 63.989 12.7899 63.7217 12.6601 63.4075C12.5304 63.0934 12.499 62.7473 12.5702 62.4149C12.6414 62.0826 12.8119 61.7797 13.059 61.5463C13.2126 61.3868 13.3969 61.26 13.6007 61.1735C13.8045 61.087 14.0237 61.0425 14.2452 61.0427C14.6903 61.0427 15.1173 61.2196 15.4321 61.5344C15.7468 61.8491 15.9237 62.2761 15.9237 62.7213C15.9237 63.1664 15.7468 63.5934 15.4321 63.9082C15.1173 64.223 14.6903 64.3998 14.2452 64.3998L14.2563 64.4446ZM14.2563 61.8484C14.0041 61.8484 13.7621 61.9486 13.5838 62.127C13.4054 62.3054 13.3052 62.5473 13.3052 62.7996C13.3052 63.0519 13.4054 63.2938 13.5838 63.4722C13.7621 63.6506 14.0041 63.7508 14.2563 63.7508C14.5086 63.7508 14.7505 63.6506 14.9289 63.4722C15.1073 63.2938 15.2075 63.0519 15.2075 62.7996C15.2075 62.5473 15.1073 62.3054 14.9289 62.127C14.7505 61.9486 14.5086 61.8484 14.2563 61.8484Z" fill="#17262F"></path><path d="M75.6236 14.2003H10.4404C8.99305 14.1974 7.60578 13.6211 6.58231 12.5976C5.55885 11.5741 4.98256 10.1869 4.97961 8.73948C4.97811 8.69152 4.98626 8.64375 5.00358 8.59901C5.02091 8.55426 5.04705 8.51345 5.08045 8.47901C5.11385 8.44456 5.15383 8.41718 5.19802 8.39849C5.24222 8.3798 5.28971 8.37018 5.33769 8.3702C5.38619 8.3702 5.43421 8.37975 5.47901 8.39831C5.52381 8.41687 5.56452 8.44407 5.59881 8.47836C5.6331 8.51265 5.6603 8.55336 5.67886 8.59816C5.69742 8.64296 5.70697 8.69098 5.70697 8.73948C5.72167 9.98618 6.2265 11.177 7.1123 12.0544C7.99809 12.9318 9.19365 13.4253 10.4404 13.4282H75.6236C76.878 13.4252 78.0803 12.9256 78.9674 12.0385C79.8544 11.1515 80.3541 9.9492 80.357 8.69472C80.357 8.59678 80.3959 8.50285 80.4652 8.4336C80.5344 8.36435 80.6284 8.32544 80.7263 8.32544C80.7743 8.32542 80.8218 8.33504 80.866 8.35373C80.9102 8.37242 80.9501 8.3998 80.9835 8.43425C81.0169 8.46869 81.0431 8.5095 81.0604 8.55424C81.0777 8.59899 81.0859 8.64676 81.0844 8.69472C81.0888 9.41519 80.9509 10.1294 80.6786 10.7965C80.4063 11.4635 80.0049 12.0702 79.4975 12.5818C78.9902 13.0933 78.3867 13.4996 77.7219 13.7774C77.0572 14.0551 76.344 14.1989 75.6236 14.2003Z" fill="#17262F"></path><path d="M85.6948 7.83316H0.369252C0.317282 7.8352 0.265491 7.82589 0.217482 7.80589C0.169473 7.78588 0.126398 7.75566 0.0912532 7.71732C0.0561084 7.67898 0.0297373 7.63344 0.0139739 7.58388C-0.0017894 7.53432 -0.00656655 7.48191 -2.52775e-05 7.43031V0.369278C-2.52775e-05 0.271339 0.0388807 0.177412 0.108134 0.108159C0.177387 0.0389059 0.271314 0 0.369252 0L85.6948 0C85.7927 0 85.8867 0.0389059 85.9559 0.108159C86.0252 0.177412 86.0641 0.271339 86.0641 0.369278V7.43031C86.0706 7.48191 86.0658 7.53432 86.0501 7.58388C86.0343 7.63344 86.0079 7.67898 85.9728 7.71732C85.9376 7.75566 85.8946 7.78588 85.8466 7.80589C85.7986 7.82589 85.7468 7.8352 85.6948 7.83316ZM0.72734 7.06104H85.3367V0.727365H0.72734V7.06104Z" fill="#17262F"></path><path d="M12.3092 110H10.9552C10.8721 109.999 10.7924 109.967 10.7314 109.91L0.436406 101.518C0.393165 101.485 0.358378 101.443 0.335 101.394C0.311623 101.346 0.300344 101.292 0.302123 101.238V94.065C0.301022 94.0176 0.309358 93.9704 0.326648 93.9262C0.343937 93.882 0.369834 93.8417 0.402835 93.8076L6.71413 87.4851C6.78249 87.4214 6.87246 87.386 6.96591 87.386C7.05936 87.386 7.14933 87.4214 7.21769 87.4851C7.25221 87.5185 7.27965 87.5585 7.2984 87.6027C7.31715 87.6469 7.32681 87.6945 7.32681 87.7425C7.32681 87.7905 7.31715 87.8381 7.2984 87.8823C7.27965 87.9265 7.25221 87.9665 7.21769 87.9999L1.02949 94.2105V101.07L11.1007 109.273H11.47L10.5412 108.333L5.72939 101.092C5.69283 101.032 5.67349 100.962 5.67344 100.891V94.9266C5.67166 94.8726 5.68294 94.819 5.70631 94.7703C5.72969 94.7216 5.76448 94.6793 5.80772 94.6469L10.8657 90.6408C10.9032 90.6114 10.9461 90.5897 10.9919 90.5768C11.0378 90.564 11.0857 90.5604 11.133 90.5661C11.1803 90.5718 11.226 90.5868 11.2675 90.6102C11.309 90.6335 11.3455 90.6649 11.3749 90.7023C11.4043 90.7398 11.426 90.7827 11.4388 90.8286C11.4516 90.8744 11.4553 90.9224 11.4495 90.9696C11.4438 91.0169 11.4288 91.0626 11.4055 91.1041C11.3821 91.1456 11.3508 91.1821 11.3133 91.2115L6.38961 95.1169V100.802L11.0895 107.885L12.6002 109.384C12.6504 109.436 12.6844 109.501 12.698 109.572C12.7117 109.642 12.7044 109.716 12.677 109.782C12.6497 109.849 12.6035 109.906 12.5441 109.947C12.4847 109.987 12.4148 110.01 12.3428 110.011L12.3092 110Z" fill="#17262F"></path><path d="M17.6134 110H16.237C16.1633 110.002 16.0911 109.98 16.0307 109.937C15.9704 109.895 15.925 109.835 15.9013 109.765C15.8724 109.7 15.8644 109.627 15.8784 109.557C15.8925 109.487 15.9278 109.423 15.9796 109.373L17.5351 107.818L22.179 100.79V95.117L17.3448 91.2452C17.3074 91.2158 17.276 91.1793 17.2527 91.1378C17.2293 91.0963 17.2143 91.0506 17.2086 91.0034C17.2029 90.9561 17.2066 90.9081 17.2194 90.8623C17.2322 90.8164 17.2539 90.7735 17.2833 90.736C17.3127 90.6986 17.3492 90.6672 17.3907 90.6439C17.4322 90.6205 17.4778 90.6055 17.5251 90.5998C17.5724 90.5941 17.6203 90.5978 17.6662 90.6106C17.7121 90.6234 17.755 90.6451 17.7924 90.6745L22.7721 94.647C22.8153 94.6794 22.8501 94.7217 22.8735 94.7705C22.8969 94.8192 22.9082 94.8728 22.9064 94.9268V100.891C22.9294 100.956 22.9294 101.027 22.9064 101.093L18.1505 108.277L17.1658 109.273H17.5463L27.6175 101.07V94.2106L21.4069 88C21.3724 87.9666 21.3449 87.9266 21.3262 87.8824C21.3074 87.8382 21.2978 87.7907 21.2978 87.7427C21.2978 87.6946 21.3074 87.6471 21.3262 87.6029C21.3449 87.5587 21.3724 87.5187 21.4069 87.4853C21.4771 87.4208 21.5689 87.385 21.6643 87.385C21.7596 87.385 21.8514 87.4208 21.9216 87.4853L28.2329 93.8078C28.3027 93.8755 28.3429 93.968 28.3448 94.0651V101.238C28.3441 101.292 28.3317 101.344 28.3085 101.393C28.2853 101.441 28.2519 101.484 28.2106 101.518L17.9044 109.911C17.8654 109.946 17.8192 109.972 17.7689 109.988C17.7186 110.003 17.6655 110.007 17.6134 110Z" fill="#17262F"></path><path d="M14.2899 90.0365C12.2326 90.0392 10.1987 89.6003 8.32551 88.7497L6.82602 88.0782C6.76308 88.0473 6.70992 87.9996 6.6724 87.9404C6.63488 87.8811 6.61446 87.8127 6.6134 87.7425V85.0457C6.61496 83.6505 7.01772 82.2853 7.77366 81.1127C8.5296 79.9401 9.60682 79.0096 10.8769 78.4323L11.3133 78.242C12.2493 77.8215 13.2638 77.604 14.2899 77.604C15.316 77.604 16.3305 77.8215 17.2665 78.242L17.6917 78.4323C18.9635 79.0074 20.0423 79.9373 20.7985 81.1104C21.5548 82.2835 21.9564 83.6499 21.9552 85.0457V87.7425C21.9569 87.8132 21.9376 87.8828 21.8997 87.9426C21.8619 88.0023 21.8072 88.0495 21.7426 88.0782L20.2431 88.7497C18.3735 89.5991 16.3435 90.0379 14.2899 90.0365ZM7.34077 87.5075L8.62765 88.0894C10.4056 88.8917 12.3338 89.3066 14.2843 89.3066C16.2348 89.3066 18.1631 88.8917 19.941 88.0894L21.2614 87.5075V85.0457C21.2629 83.7891 20.9015 82.5589 20.2206 81.5028C19.5397 80.4467 18.5683 79.6098 17.4232 79.0925L16.9979 78.9023C16.1545 78.5261 15.2414 78.3317 14.3179 78.3317C13.3944 78.3317 12.4812 78.5261 11.6378 78.9023L11.2126 79.0925C10.0629 79.6071 9.08604 80.4425 8.39927 81.4984C7.7125 82.5544 7.34497 83.7861 7.34077 85.0457V87.5075Z" fill="#17262F"></path><path d="M19.7172 58.8942C19.6249 58.8916 19.537 58.8545 19.4707 58.7903C19.4045 58.7261 19.3646 58.6394 19.3591 58.5473C19.356 58.5003 19.3623 58.4531 19.3776 58.4085C19.3928 58.3639 19.4167 58.3227 19.4479 58.2874C19.4791 58.252 19.517 58.2232 19.5593 58.2025C19.6017 58.1818 19.6477 58.1697 19.6948 58.1669L57.3611 55.9288C57.4098 55.9222 57.4593 55.9264 57.5061 55.941C57.553 55.9556 57.5961 55.9803 57.6324 56.0134C57.6686 56.0465 57.6972 56.0871 57.7161 56.1324C57.735 56.1778 57.7437 56.2267 57.7416 56.2757C57.7446 56.3228 57.7383 56.3699 57.7231 56.4146C57.7078 56.4592 57.6839 56.5003 57.6527 56.5357C57.6216 56.571 57.5837 56.5999 57.5413 56.6205C57.499 56.6412 57.4529 56.6533 57.4059 56.6562L19.7395 58.8942H19.7172Z" fill="#17262F"></path><path d="M44.3917 2.9654H0.369278C0.32132 2.9669 0.27355 2.95875 0.228805 2.94142C0.18406 2.9241 0.143252 2.89796 0.108806 2.86456C0.0743605 2.83116 0.0469788 2.79117 0.0282875 2.74698C0.00959622 2.70279 -2.33916e-05 2.6553 4.27131e-08 2.60731C4.27131e-08 2.50938 0.038906 2.41545 0.108159 2.3462C0.177412 2.27694 0.271339 2.23804 0.369278 2.23804H44.3917C44.4896 2.23804 44.5835 2.27694 44.6528 2.3462C44.722 2.41545 44.7609 2.50938 44.7609 2.60731C44.761 2.6553 44.7513 2.70279 44.7326 2.74698C44.714 2.79117 44.6866 2.83116 44.6521 2.86456C44.6177 2.89796 44.5769 2.9241 44.5321 2.94142C44.4874 2.95875 44.4396 2.9669 44.3917 2.9654Z" fill="#17262F"></path><path d="M12.6338 85.9858H7.03865C6.94071 85.9858 6.84678 85.9469 6.77753 85.8777C6.70828 85.8084 6.66937 85.7145 6.66937 85.6166C6.66935 85.5686 6.67897 85.5211 6.69766 85.4769C6.71635 85.4327 6.74373 85.3927 6.77818 85.3593C6.81262 85.3259 6.85343 85.2998 6.89818 85.2824C6.94292 85.2651 6.99069 85.257 7.03865 85.2585H12.6338C12.6817 85.257 12.7295 85.2651 12.7742 85.2824C12.819 85.2998 12.8598 85.3259 12.8942 85.3593C12.9287 85.3927 12.9561 85.4327 12.9748 85.4769C12.9934 85.5211 13.0031 85.5686 13.003 85.6166C13.003 85.7145 12.9641 85.8084 12.8949 85.8777C12.8256 85.9469 12.7317 85.9858 12.6338 85.9858Z" fill="#17262F"></path><path d="M18.3967 85.9858H15.3306C15.2826 85.9859 15.2351 85.9762 15.1909 85.9575C15.1468 85.9389 15.1068 85.9115 15.0734 85.877C15.04 85.8426 15.0138 85.8018 14.9965 85.757C14.9792 85.7123 14.971 85.6645 14.9725 85.6166C14.9725 85.5216 15.0103 85.4305 15.0774 85.3634C15.1446 85.2962 15.2356 85.2585 15.3306 85.2585H18.3967C18.4447 85.257 18.4925 85.2651 18.5372 85.2824C18.582 85.2998 18.6228 85.3259 18.6572 85.3593C18.6917 85.3927 18.719 85.4327 18.7377 85.4769C18.7564 85.5211 18.766 85.5686 18.766 85.6166C18.766 85.7145 18.7271 85.8084 18.6579 85.8777C18.5886 85.9469 18.4947 85.9858 18.3967 85.9858Z" fill="#17262F"></path></g><defs><clipPath id="clip0_5678_16319"><rect width="86.0641" height="110" fill="white"></rect></clipPath></defs></svg>