<svg xmlns="http://www.w3.org/2000/svg" width="90" height="90" viewBox="0 0 90 90" fill="none"><g clip-path="url(#clip0_5678_16743)"><path d="M88.252 60.1919C88.2665 59.973 88.36 59.7669 88.5151 59.6118C88.6702 59.4567 88.8763 59.3632 89.0952 59.3487C89.3051 59.3669 89.5004 59.464 89.6416 59.6205C89.7828 59.7769 89.8594 59.9811 89.8561 60.1919V60.5312C89.8594 60.7419 89.7828 60.9461 89.6416 61.1025C89.5004 61.259 89.3051 61.3561 89.0952 61.3743C88.8763 61.3598 88.6702 61.2664 88.5151 61.1113C88.36 60.9562 88.2665 60.75 88.252 60.5312V60.1919ZM88.252 62.3922C88.2702 62.1823 88.3673 61.987 88.5238 61.8458C88.6803 61.7046 88.8844 61.628 89.0952 61.6314C89.297 61.6314 89.4905 61.7115 89.6332 61.8542C89.7759 61.9969 89.8561 62.1904 89.8561 62.3922V66.6285C89.8645 66.7345 89.8512 66.8411 89.817 66.9417C89.7828 67.0424 89.7284 67.135 89.6572 67.2139C89.586 67.2929 89.4994 67.3564 89.4028 67.4007C89.3061 67.4451 89.2015 67.4692 89.0952 67.4716C88.8716 67.4716 88.6571 67.3828 88.499 67.2247C88.3409 67.0666 88.252 66.8521 88.252 66.6285V62.3922ZM88.252 69.1682C88.252 68.9436 88.3405 68.7281 88.4984 68.5683C88.6562 68.4086 88.8706 68.3175 89.0952 68.3148C89.2019 68.3186 89.3068 68.344 89.4035 68.3894C89.5002 68.4349 89.5866 68.4994 89.6577 68.5791C89.7288 68.6589 89.783 68.7521 89.8171 68.8534C89.8512 68.9546 89.8644 69.0617 89.8561 69.1682V89.1568C89.8594 89.3675 89.7828 89.5717 89.6416 89.7282C89.5004 89.8846 89.3051 89.9817 89.0952 89.9999H80.2011C79.9822 89.9854 79.7761 89.892 79.621 89.7369C79.4659 89.5818 79.3724 89.3756 79.3579 89.1568V47.6579C79.3722 47.4379 79.4653 47.2305 79.6202 47.0737C79.7751 46.9169 79.9813 46.8213 80.2011 46.8044H89.0952C89.306 46.8251 89.5014 46.9243 89.6424 47.0825C89.7834 47.2406 89.8596 47.446 89.8561 47.6579V57.7344C89.8561 57.9362 89.7759 58.1297 89.6332 58.2724C89.4905 58.4151 89.297 58.4953 89.0952 58.4953C88.8844 58.4987 88.6803 58.422 88.5238 58.2808C88.3673 58.1396 88.2702 57.9444 88.252 57.7344V48.4187H80.962V88.4267H88.252V69.1682Z" fill="#17262F"></path><path d="M0.761208 0.0616473H12.0716C12.2823 0.0582592 12.4865 0.134889 12.643 0.276089C12.7995 0.417289 12.8966 0.612558 12.9148 0.822529C12.9108 1.00302 12.8536 1.17832 12.7502 1.32636L1.43983 17.418C1.31482 17.584 1.13026 17.695 0.925035 17.7276C0.71981 17.7602 0.509941 17.7118 0.339638 17.5928C0.229384 17.5185 0.140203 17.417 0.0807503 17.2981C0.021298 17.1792 -0.00640639 17.0469 0.00032587 16.9142V0.822529C0.00032587 0.620731 0.08049 0.427197 0.223183 0.284504C0.365876 0.141811 0.559409 0.0616473 0.761208 0.0616473ZM10.4984 1.66567H1.60435V14.4567L10.4984 1.66567ZM25.8292 1.58341C25.6274 1.58341 25.4339 1.50325 25.2912 1.36055C25.1485 1.21786 25.0683 1.02433 25.0683 0.822529C25.0707 0.715301 25.0951 0.609707 25.14 0.512322C25.185 0.414937 25.2495 0.327846 25.3295 0.25647C25.4096 0.185095 25.5035 0.130963 25.6054 0.0974456C25.7072 0.0639282 25.8149 0.0517425 25.9217 0.0616473H26.4256C26.5315 0.0532256 26.6381 0.0665171 26.7388 0.100708C26.8394 0.1349 26.9321 0.189272 27.011 0.260497C27.0899 0.331723 27.1535 0.418304 27.1978 0.514943C27.2421 0.611582 27.2662 0.716245 27.2687 0.822529C27.2662 0.928813 27.2421 1.03348 27.1978 1.13012C27.1535 1.22675 27.0899 1.31334 27.011 1.38456C26.9321 1.45579 26.8394 1.51016 26.7388 1.54435C26.6381 1.57854 26.5315 1.59183 26.4256 1.58341H25.8292ZM29.3046 1.66567C29.0857 1.65119 28.8796 1.55771 28.7245 1.40262C28.5694 1.24753 28.4759 1.04138 28.4614 0.822529C28.4796 0.612558 28.5767 0.417289 28.7332 0.276089C28.8897 0.134889 29.0938 0.0582592 29.3046 0.0616473H33.9315C34.0375 0.0532256 34.1441 0.0665171 34.2448 0.100708C34.3454 0.1349 34.4381 0.189272 34.517 0.260497C34.5959 0.331723 34.6595 0.418304 34.7038 0.514943C34.7481 0.611582 34.7722 0.716245 34.7747 0.822529C34.7707 1.00302 34.7135 1.17832 34.6102 1.32636L33.6745 2.60135C33.623 2.69457 33.5525 2.77595 33.4676 2.84022C33.3827 2.90449 33.2852 2.95022 33.1815 2.97445C33.0778 2.99868 32.9702 3.00087 32.8656 2.98088C32.761 2.96089 32.6618 2.91916 32.5743 2.8584C32.4053 2.7144 32.2952 2.5133 32.2649 2.29337C32.2345 2.07344 32.2861 1.85004 32.4098 1.66567H29.3046ZM30.487 4.46242C30.6152 4.30485 30.7991 4.20258 31.0006 4.17678C31.2021 4.15098 31.4058 4.20362 31.5696 4.32381C31.7333 4.444 31.8447 4.62254 31.8805 4.8225C31.9163 5.02246 31.8739 5.22854 31.762 5.3981L1.8614 48.0795C1.81482 48.1927 1.73208 48.2874 1.62608 48.3488C1.52008 48.4102 1.39675 48.4348 1.27532 48.4188H0.761208C0.559409 48.4188 0.365876 48.3386 0.223183 48.1959C0.08049 48.0532 0.00032587 47.8597 0.00032587 47.6579V32.6665C0.00537379 32.4572 0.0618753 32.2524 0.164841 32.0701L22.3641 0.400959C22.4131 0.305249 22.4824 0.221363 22.5671 0.155135C22.6518 0.0889066 22.7499 0.0419267 22.8546 0.0174624C22.9593 -0.00700191 23.0681 -0.00836344 23.1734 0.0134725C23.2787 0.0353085 23.3779 0.0798177 23.4643 0.143905C23.6298 0.268977 23.7412 0.45263 23.7756 0.657202C23.81 0.861774 23.7648 1.07176 23.6494 1.2441L1.60435 32.831V45.7968L30.487 4.46242ZM21.7677 46.8045C21.9786 46.8251 22.1739 46.9244 22.3149 47.0825C22.4559 47.2406 22.5322 47.4461 22.5286 47.6579C22.5286 47.8597 22.4484 48.0532 22.3057 48.1959C22.1631 48.3386 21.9695 48.4188 21.7677 48.4188H12.195C11.9932 48.4188 11.7997 48.3386 11.657 48.1959C11.5143 48.0532 11.4341 47.8597 11.4341 47.6579C11.437 47.4724 11.4982 47.2926 11.6089 47.1438L44.296 0.400959C44.3695 0.289972 44.4709 0.200225 44.59 0.140682C44.7091 0.08114 44.8417 0.0538875 44.9746 0.0616473H55.8943C56.0011 0.0517425 56.1088 0.0639282 56.2107 0.0974456C56.3126 0.130963 56.4064 0.185095 56.4865 0.25647C56.5666 0.327846 56.6311 0.414937 56.676 0.512322C56.7209 0.609707 56.7454 0.715301 56.7477 0.822529C56.7402 1.00399 56.6794 1.1792 56.5729 1.32636L25.3254 46.0436C25.1828 46.2142 24.9823 46.3263 24.7623 46.3585C24.5423 46.3908 24.3182 46.3409 24.1326 46.2184C23.9683 46.0919 23.8593 45.9066 23.8286 45.7015C23.7979 45.4963 23.8479 45.2873 23.9681 45.1182L54.3725 1.66567H45.3962L13.7168 46.8045H21.7677ZM66.9065 0.0616473H77.8365C77.9425 0.0532256 78.0491 0.0665171 78.1497 0.100708C78.2504 0.1349 78.343 0.189272 78.4219 0.260497C78.5009 0.331723 78.5644 0.418304 78.6087 0.514943C78.653 0.611582 78.6772 0.716245 78.6796 0.822529C78.6626 1.00054 78.6064 1.17259 78.5151 1.32636L45.7355 48.0795C45.687 48.1936 45.6024 48.2886 45.4947 48.3499C45.3869 48.4112 45.262 48.4354 45.1391 48.4188H34.1269C34.027 48.4188 33.928 48.3991 33.8357 48.3609C33.7434 48.3226 33.6595 48.2666 33.5889 48.1959C33.5182 48.1253 33.4622 48.0414 33.4239 47.9491C33.3857 47.8568 33.366 47.7578 33.366 47.6579C33.3689 47.4724 33.4301 47.2926 33.5408 47.1438L66.2279 0.400959C66.3022 0.290705 66.4037 0.201524 66.5226 0.142072C66.6415 0.0826194 66.7738 0.054915 66.9065 0.0616473ZM76.3044 1.66567H67.3281L35.659 46.8045H44.7176L76.3044 1.66567ZM89.8564 31.813V47.6579C89.8564 47.8597 89.7762 48.0532 89.6335 48.1959C89.4908 48.3386 89.2973 48.4188 89.0955 48.4188H78.001C77.7992 48.4188 77.6057 48.3386 77.463 48.1959C77.3203 48.0532 77.2401 47.8597 77.2401 47.6579C77.2445 47.4743 77.3016 47.2958 77.4046 47.1438L88.4271 31.3915C88.5132 31.2411 88.6475 31.124 88.8082 31.0592C88.969 30.9945 89.1469 30.9857 89.3132 31.0344C89.4795 31.0832 89.6246 31.1865 89.725 31.3277C89.8254 31.469 89.8753 31.64 89.8667 31.813H89.8564ZM88.3346 46.8045V34.363L79.5228 46.8045H88.3346ZM89.7741 16.5748L67.6674 48.0795C67.6208 48.1927 67.5381 48.2874 67.4321 48.3488C67.3261 48.4102 67.2028 48.4348 67.0813 48.4188H56.0691C55.9692 48.4188 55.8702 48.3991 55.7779 48.3609C55.6856 48.3226 55.6017 48.2666 55.5311 48.1959C55.4604 48.1253 55.4044 48.0414 55.3661 47.9491C55.3279 47.8568 55.3082 47.7578 55.3082 47.6579C55.3125 47.4743 55.3697 47.2958 55.4727 47.1438L88.1701 0.400959C88.242 0.290794 88.3416 0.20146 88.4589 0.141908C88.5762 0.082356 88.7071 0.0546779 88.8384 0.0616473H89.0955C89.2973 0.0616473 89.4908 0.141811 89.6335 0.284504C89.7762 0.427197 89.8564 0.620731 89.8564 0.822529V16.1533C89.8777 16.2991 89.8487 16.4478 89.7741 16.5748ZM66.6495 46.8045L88.3346 15.8962V2.94066L57.5806 46.8045H66.6495Z" fill="#17262F"></path><path d="M37.0159 1.66565C36.8041 1.64994 36.6063 1.55391 36.4629 1.39718C36.3196 1.24045 36.2415 1.03488 36.2447 0.822513C36.2447 0.721722 36.2647 0.621933 36.3036 0.528942C36.3425 0.43595 36.3994 0.351611 36.4712 0.28082C36.5429 0.21003 36.628 0.154199 36.7215 0.116572C36.815 0.0789442 36.9151 0.0602691 37.0159 0.0616312H89.0952C89.297 0.0616312 89.4905 0.141795 89.6332 0.284488C89.7759 0.427181 89.856 0.620715 89.856 0.822513V19.0323C89.856 19.2341 89.7759 19.4276 89.6332 19.5703C89.4905 19.713 89.297 19.7932 89.0952 19.7932C88.8844 19.7965 88.6803 19.7199 88.5238 19.5787C88.3673 19.4375 88.2702 19.2422 88.252 19.0323V1.66565H37.0159ZM88.252 21.3149C88.2665 21.0961 88.36 20.8899 88.5151 20.7348C88.6702 20.5797 88.8763 20.4863 89.0952 20.4718C89.3051 20.49 89.5004 20.5871 89.6416 20.7435C89.7828 20.9 89.8594 21.1042 89.856 21.3149V21.4897C89.8594 21.7004 89.7828 21.9046 89.6416 22.0611C89.5004 22.2176 89.3051 22.3147 89.0952 22.3329C88.8763 22.3184 88.6702 22.2249 88.5151 22.0698C88.36 21.9147 88.2665 21.7086 88.252 21.4897V21.3149ZM88.252 23.8546C88.2702 23.6446 88.3673 23.4494 88.5238 23.3082C88.6803 23.167 88.8844 23.0903 89.0952 23.0937C89.297 23.0937 89.4905 23.1739 89.6332 23.3166C89.7759 23.4593 89.856 23.6528 89.856 23.8546V27.7618C89.856 27.9636 89.7759 28.1572 89.6332 28.2999C89.4905 28.4426 89.297 28.5227 89.0952 28.5227C88.8844 28.5261 88.6803 28.4495 88.5238 28.3083C88.3673 28.1671 88.2702 27.9718 88.252 27.7618V23.8546ZM88.252 29.7874C88.2665 29.5686 88.36 29.3624 88.5151 29.2073C88.6702 29.0523 88.8763 28.9588 89.0952 28.9443C89.3051 28.9625 89.5004 29.0596 89.6416 29.2161C89.7828 29.3725 89.8594 29.5767 89.856 29.7874V47.6579C89.856 47.8597 89.7759 48.0532 89.6332 48.1959C89.4905 48.3386 89.297 48.4188 89.0952 48.4188H33.448C33.2372 48.4222 33.0331 48.3455 32.8766 48.2043C32.7201 48.0631 32.623 47.8679 32.6048 47.6579C32.619 47.4379 32.7121 47.2305 32.867 47.0737C33.0219 46.917 33.2282 46.8213 33.448 46.8045H88.252V29.7874ZM30.8466 46.8045C31.0674 46.8211 31.275 46.9163 31.4315 47.0729C31.5881 47.2295 31.6834 47.437 31.7 47.6579C31.6793 47.8687 31.5801 48.0641 31.4219 48.2051C31.2638 48.3461 31.0584 48.4224 30.8466 48.4188H30.6821C30.4696 48.4248 30.2628 48.3494 30.1042 48.2079C29.9455 48.0664 29.8469 47.8697 29.8286 47.6579C29.8431 47.4363 29.9377 47.2276 30.0947 47.0705C30.2517 46.9135 30.4605 46.819 30.6821 46.8045H30.8466ZM28.1424 46.8045C28.3532 46.8251 28.5486 46.9244 28.6895 47.0825C28.8305 47.2406 28.9068 47.4461 28.9032 47.6579C28.9032 47.8597 28.8231 48.0532 28.6804 48.1959C28.5377 48.3386 28.3442 48.4188 28.1424 48.4188H24.2248C24.118 48.4287 24.0103 48.4165 23.9085 48.383C23.8066 48.3494 23.7127 48.2953 23.6326 48.2239C23.5526 48.1526 23.4881 48.0655 23.4431 47.9681C23.3982 47.8707 23.3738 47.7651 23.3714 47.6579C23.3714 47.4315 23.4613 47.2145 23.6214 47.0544C23.7814 46.8944 23.9985 46.8045 24.2248 46.8045H28.1424ZM21.788 46.8045C21.9988 46.8251 22.1942 46.9244 22.3352 47.0825C22.4761 47.2406 22.5524 47.4461 22.5488 47.6579C22.5488 47.8597 22.4687 48.0532 22.326 48.1959C22.1833 48.3386 21.9898 48.4188 21.788 48.4188H0.760882C0.559084 48.4188 0.36555 48.3386 0.222857 48.1959C0.0801641 48.0532 0 47.8597 0 47.6579L0 0.822513C0 0.620715 0.0801641 0.427181 0.222857 0.284488C0.36555 0.141795 0.559084 0.0616312 0.760882 0.0616312H23.5462C23.7569 0.0582431 23.9611 0.134873 24.1176 0.276073C24.274 0.417273 24.3712 0.612542 24.3894 0.822513C24.3749 1.04137 24.2814 1.24751 24.1263 1.40261C23.9712 1.5577 23.7651 1.65118 23.5462 1.66565H1.60402V46.8045H21.788Z" fill="#17262F"></path><path d="M-8.92906e-07 60.1919C-0.00338896 59.9811 0.0732413 59.7769 0.214441 59.6205C0.355641 59.464 0.55091 59.3669 0.760881 59.3487C0.979736 59.3632 1.18588 59.4567 1.34097 59.6118C1.49607 59.7669 1.58954 59.973 1.60402 60.1919V60.5312C1.58954 60.75 1.49607 60.9562 1.34097 61.1113C1.18588 61.2664 0.979736 61.3598 0.760881 61.3743C0.55091 61.3561 0.355641 61.259 0.214441 61.1025C0.0732413 60.9461 -0.00338896 60.7419 -8.92906e-07 60.5312V60.1919ZM-8.92906e-07 62.3922C-8.92906e-07 62.1904 0.0801632 61.9969 0.222856 61.8542C0.365549 61.7115 0.559083 61.6314 0.760881 61.6314C0.971611 61.628 1.17579 61.7046 1.33225 61.8458C1.48872 61.987 1.58583 62.1823 1.60402 62.3922V66.6285C1.60402 66.8521 1.51519 67.0666 1.35707 67.2247C1.19895 67.3828 0.984496 67.4716 0.760881 67.4716C0.654597 67.4692 0.549933 67.4451 0.453295 67.4007C0.356656 67.3564 0.270075 67.2929 0.198849 67.2139C0.127624 67.135 0.0732517 67.0424 0.0390603 66.9417C0.00486898 66.8411 -0.00842254 66.7345 -8.92906e-07 66.6285V62.3922ZM-8.92906e-07 69.1682C-0.00839336 69.0617 0.00485063 68.9546 0.0389337 68.8534C0.0730168 68.7521 0.127234 68.6589 0.198321 68.5791C0.269409 68.4994 0.355896 68.4349 0.452576 68.3894C0.549256 68.344 0.654129 68.3186 0.760881 68.3148C0.985436 68.3175 1.19987 68.4086 1.35771 68.5683C1.51554 68.7281 1.60404 68.9436 1.60402 69.1682V88.4267H8.89409V48.4187H1.60402V57.7344C1.58583 57.9444 1.48872 58.1396 1.33225 58.2808C1.17579 58.422 0.971611 58.4987 0.760881 58.4953C0.660961 58.4953 0.562019 58.4756 0.469704 58.4374C0.37739 58.3991 0.293511 58.3431 0.222856 58.2724C0.152202 58.2018 0.0961557 58.1179 0.0579178 58.0256C0.0196799 57.9333 -8.92906e-07 57.8343 -8.92906e-07 57.7344V47.6579C-0.00359225 47.446 0.0726957 47.2406 0.213684 47.0825C0.354673 46.9243 0.550028 46.8251 0.760881 46.8044H9.65497C9.87953 46.8071 10.094 46.8983 10.2518 47.058C10.4096 47.2178 10.4981 47.4333 10.4981 47.6579V89.1568C10.4981 89.3804 10.4093 89.5949 10.2512 89.753C10.093 89.9111 9.87859 89.9999 9.65497 89.9999H0.760881C0.55091 89.9817 0.355641 89.8846 0.214441 89.7282C0.0732413 89.5717 -0.00338896 89.3675 -8.92906e-07 89.1568V69.1682Z" fill="#17262F"></path><path d="M6.01508 83.4812C6.01508 83.683 5.93492 83.8765 5.79223 84.0192C5.64953 84.1619 5.456 84.242 5.2542 84.242C5.04172 84.2481 4.83497 84.1726 4.6763 84.0312C4.51763 83.8897 4.41906 83.6929 4.40078 83.4812V53.3338C4.41898 53.1211 4.51718 52.9232 4.67557 52.7801C4.83396 52.6369 5.04075 52.5592 5.2542 52.5626C5.45694 52.5653 5.65046 52.6477 5.79286 52.7921C5.93527 52.9364 6.0151 53.131 6.01508 53.3338V83.4812Z" fill="#17262F"></path><path d="M85.4553 83.481C85.4528 83.5873 85.4287 83.692 85.3844 83.7886C85.3401 83.8852 85.2765 83.9718 85.1976 84.0431C85.1187 84.1143 85.026 84.1687 84.9254 84.2028C84.8247 84.237 84.7181 84.2503 84.6121 84.2419C84.5114 84.2433 84.4113 84.2246 84.3178 84.187C84.2243 84.1493 84.1392 84.0935 84.0674 84.0227C83.9957 83.9519 83.9387 83.8676 83.8999 83.7746C83.861 83.6816 83.841 83.5818 83.841 83.481V53.3336C83.841 53.1291 83.9222 52.933 84.0668 52.7883C84.2115 52.6437 84.4076 52.5625 84.6121 52.5625C84.7186 52.5555 84.8255 52.5702 84.9262 52.6055C85.0269 52.6409 85.1194 52.6963 85.1981 52.7683C85.2769 52.8403 85.3403 52.9276 85.3844 53.0247C85.4286 53.1219 85.4527 53.2269 85.4553 53.3336V83.481Z" fill="#17262F"></path><path d="M68.7673 22.6722C68.7114 22.7621 68.6367 22.8387 68.5483 22.8969C68.4599 22.955 68.3599 22.9932 68.2552 23.0088C68.1506 23.0245 68.0438 23.0172 67.9422 22.9875C67.8407 22.9578 67.7468 22.9063 67.6671 22.8367C67.5005 22.7118 67.3898 22.5263 67.3591 22.3204C67.3283 22.1145 67.3798 21.9047 67.5026 21.7365L79.8412 4.80177C79.9003 4.71221 79.977 4.63559 80.0666 4.57658C80.1562 4.51756 80.2568 4.47737 80.3625 4.45845C80.4681 4.43953 80.5764 4.44228 80.681 4.46652C80.7855 4.49077 80.884 4.536 80.9705 4.59948C81.057 4.66296 81.1297 4.74337 81.1842 4.8358C81.2386 4.92824 81.2738 5.03079 81.2874 5.13722C81.301 5.24365 81.2929 5.35173 81.2634 5.45491C81.234 5.5581 81.1839 5.65422 81.1162 5.73745L68.7673 22.6722Z" fill="#17262F"></path><path d="M11.1767 42.6607C11.0441 42.8029 10.8638 42.8913 10.6702 42.909C10.4766 42.9268 10.2833 42.8727 10.127 42.7571C9.9707 42.6415 9.86241 42.4724 9.82277 42.282C9.78313 42.0917 9.8149 41.8935 9.91203 41.7251L21.3458 25.9728C21.4707 25.8062 21.6562 25.6955 21.8622 25.6647C22.0681 25.6339 22.2778 25.6855 22.446 25.8082C22.5367 25.8632 22.6142 25.9373 22.6733 26.0253C22.7325 26.1133 22.7717 26.2131 22.7883 26.3178C22.805 26.4225 22.7986 26.5296 22.7697 26.6316C22.7407 26.7336 22.6899 26.8281 22.6208 26.9084L11.1767 42.6607Z" fill="#17262F"></path><path d="M74.186 45.3651C74.061 45.531 73.8764 45.642 73.6712 45.6746C73.466 45.7072 73.2561 45.6589 73.0858 45.5399C72.9959 45.484 72.9193 45.4093 72.8612 45.3209C72.803 45.2324 72.7648 45.1324 72.7492 45.0278C72.7335 44.9231 72.7408 44.8164 72.7705 44.7148C72.8002 44.6132 72.8517 44.5194 72.9213 44.4397L85.2599 27.4124C85.3883 27.2473 85.5753 27.138 85.7822 27.1074C85.989 27.0768 86.1997 27.1271 86.3704 27.2478C86.5386 27.3901 86.6484 27.5894 86.6788 27.8076C86.7091 28.0258 86.6579 28.2475 86.5349 28.4303L74.186 45.3651Z" fill="#17262F"></path><path d="M4.11287 21.2326C4.05714 21.3292 3.98161 21.413 3.89123 21.4784C3.80086 21.5438 3.69769 21.5894 3.58847 21.6121C3.47925 21.6349 3.36646 21.6343 3.25749 21.6104C3.14852 21.5865 3.04582 21.5398 2.95614 21.4735C2.86646 21.4071 2.79181 21.3226 2.73709 21.2254C2.68237 21.1281 2.64881 21.0205 2.63861 20.9094C2.62842 20.7983 2.64182 20.6863 2.67793 20.5807C2.71404 20.4752 2.77205 20.3784 2.84816 20.2969L15.1868 3.36212C15.2374 3.2652 15.3099 3.18148 15.3987 3.1177C15.4875 3.05391 15.59 3.01183 15.698 2.99483C15.806 2.97783 15.9164 2.98639 16.0205 3.01982C16.1246 3.05325 16.2194 3.11062 16.2973 3.18732C16.4629 3.31559 16.5718 3.5036 16.6006 3.71113C16.6295 3.91866 16.5759 4.12923 16.4515 4.2978L4.11287 21.2326Z" fill="#17262F"></path><path d="M41.9205 29.5304C41.8643 29.6197 41.7897 29.696 41.7017 29.7541C41.6136 29.8122 41.5142 29.8508 41.41 29.8673C41.3059 29.8839 41.1993 29.878 41.0976 29.85C40.9959 29.8221 40.9014 29.7727 40.8203 29.7052C40.7363 29.6433 40.6655 29.5654 40.6117 29.4759C40.558 29.3865 40.5225 29.2874 40.5072 29.1842C40.4919 29.081 40.4972 28.9758 40.5227 28.8746C40.5482 28.7735 40.5934 28.6784 40.6558 28.5947L52.9944 11.66C53.1226 11.5024 53.3065 11.4001 53.508 11.3743C53.7095 11.3485 53.9132 11.4012 54.077 11.5214C54.2407 11.6415 54.352 11.8201 54.3879 12.0201C54.4237 12.22 54.3813 12.4261 54.2694 12.5957L41.9205 29.5304Z" fill="#17262F"></path></g><defs><clipPath id="clip0_5678_16743"><rect width="89.856" height="90" fill="white"></rect></clipPath></defs></svg>