<svg xmlns="http://www.w3.org/2000/svg" width="73" height="90" viewBox="0 0 73 90" fill="none"><g clip-path="url(#clip0_5678_33657)"><path d="M70.1764 23.5847C63.9214 14.7636 59.7514 10.9143 54.7153 7.16932C51.66 4.89988 40.9864 -2.26131 32.3416 0.753927C27.8909 2.27758 24.7634 6.17494 23.0553 12.3257V12.4299C22.6624 14.2824 22.4539 15.1725 22.3496 15.5815C20.1263 16.2257 18.061 17.3246 16.2844 18.8085C14.5078 20.2925 13.0587 22.1291 12.0289 24.2022C11.8307 24.6023 11.7987 25.0646 11.94 25.4882C12.0812 25.9118 12.3841 26.2624 12.7827 26.4636C13.0294 26.5938 13.3058 26.6574 13.5846 26.6481C13.8956 26.649 14.2009 26.5641 14.4669 26.4029C14.7329 26.2416 14.9492 26.0101 15.0922 25.7339C15.8683 24.143 16.9538 22.7229 18.2854 21.5566C19.6169 20.3903 21.1676 19.5013 22.8468 18.9416C26.1427 27.9472 30.1925 33.4644 34.9158 35.3249C36.0988 35.8005 37.3617 36.0455 38.6367 36.0466C40.6236 36.009 42.5708 35.483 44.3063 34.515C47.0744 33.0262 49.6881 31.2668 52.1091 29.2624C56.1187 26.0547 58.0754 24.4909 68.5485 26.2231C68.8817 26.2726 69.2221 26.2229 69.5272 26.0803C69.8324 25.9377 70.0889 25.7085 70.2646 25.4211C70.4275 25.1388 70.5058 24.8156 70.4902 24.49C70.4745 24.1644 70.3656 23.8502 70.1764 23.5847ZM49.9599 26.624C47.7106 28.5079 45.2732 30.1552 42.6864 31.5398C40.3208 32.7908 38.1796 33.0073 36.1267 32.1974C33.5204 31.1629 29.7113 27.8429 26.1107 18.0996C27.9389 17.7875 29.7893 17.624 31.6439 17.6104C32.5982 20.6497 36.9527 24.7395 39.4066 26.6882C39.7038 26.9284 40.0749 27.0587 40.4571 27.0571C40.8044 27.0538 41.1424 26.9437 41.425 26.7418C41.7076 26.5398 41.9213 26.2558 42.0369 25.9282C42.1525 25.6007 42.1645 25.2455 42.0712 24.9108C41.978 24.5762 41.784 24.2784 41.5156 24.0579C39.1746 22.2313 37.1156 20.0696 35.405 17.6425C39.4146 17.8028 44.0257 18.284 49.15 18.8694C49.3711 18.8947 49.5951 18.8761 49.8091 18.8149C50.0231 18.7536 50.2229 18.6508 50.3971 18.5123C50.5714 18.3737 50.7166 18.2023 50.8246 18.0076C50.9326 17.813 51.0012 17.599 51.0265 17.3778C51.0517 17.1567 51.0332 16.9327 50.9719 16.7187C50.9106 16.5047 50.8078 16.3049 50.6693 16.1307C50.5308 15.9564 50.3593 15.8111 50.1647 15.7032C49.97 15.5952 49.756 15.5266 49.5349 15.5013C45.2285 15.0121 41.0666 14.531 37.1612 14.3065C38.1279 13.4357 39.2304 12.7288 40.425 12.2134C40.8076 12.0136 41.0999 11.6756 41.2425 11.2682C41.3851 10.8607 41.3674 10.4143 41.1929 10.0194C41.0184 9.6246 40.7003 9.3109 40.303 9.142C39.9058 8.97311 39.4591 8.96166 39.0537 9.10998C36.5401 10.1737 34.3796 11.9282 32.8228 14.1701C30.5413 14.1515 28.2619 14.3151 26.0064 14.6593C26.0946 14.2343 26.2069 13.7291 26.3352 13.1196C27.7306 8.14767 30.1203 5.04422 33.4403 3.89747C40.7137 1.39547 50.7618 8.43637 52.6864 9.87181C57.4388 13.3603 61.6165 17.5705 65.0682 22.3498C56.8484 21.5238 54.0577 23.3602 49.9599 26.624Z" fill="#17262F"></path><path d="M59.7674 68.2279C59.3222 68.23 58.8942 68.0557 58.5771 67.7432C58.26 67.4306 58.0796 67.0051 58.0754 66.5599V61.9328C58.0754 61.484 58.2536 61.0536 58.571 60.7363C58.8883 60.419 59.3187 60.2407 59.7674 60.2407C60.2162 60.2407 60.6466 60.419 60.9639 60.7363C61.2812 61.0536 61.4595 61.484 61.4595 61.9328V66.5599C61.4553 67.0051 61.2749 67.4306 60.9578 67.7432C60.6407 68.0557 60.2127 68.23 59.7674 68.2279Z" fill="#17262F"></path><path d="M36.7041 68.2279C36.2588 68.23 35.8308 68.0557 35.5137 67.7432C35.1967 67.4306 35.0163 67.0051 35.012 66.5599V61.9328C35.012 61.484 35.1903 61.0536 35.5076 60.7363C35.8249 60.419 36.2553 60.2407 36.7041 60.2407C37.1528 60.2407 37.5832 60.419 37.9006 60.7363C38.2179 61.0536 38.3961 61.484 38.3961 61.9328V66.5599C38.3919 67.0051 38.2115 67.4306 37.8944 67.7432C37.5773 68.0557 37.1493 68.23 36.7041 68.2279Z" fill="#17262F"></path><path d="M72.6463 54.1701L63.6728 41.604C63.5368 41.4121 63.3626 41.2503 63.1611 41.1289C62.9596 41.0075 62.7352 40.9289 62.502 40.8983C62.2682 40.8705 62.0312 40.8918 61.8061 40.9609C61.5811 41.0299 61.3729 41.1452 61.1949 41.2992L48.3641 52.3097L40.6897 41.604C40.5457 41.4018 40.3589 41.2338 40.1427 41.1118C39.9266 40.9898 39.6862 40.9169 39.4387 40.8983C39.1916 40.8822 38.944 40.9197 38.7129 41.0083C38.4817 41.0969 38.2724 41.2344 38.0994 41.4115L25.2686 54.6032L23.4563 32.1493C23.376 31.251 22.9614 30.4155 22.2947 29.8082C21.6279 29.2008 20.7575 28.8658 19.8557 28.8694L13.5525 28.9416L8.09142 28.8694C7.19836 28.8723 6.33886 29.21 5.68264 29.8158C5.02641 30.4215 4.62116 31.2513 4.54691 32.1413L2.0992e-06 88.2118C-0.0186424 88.4331 0.00666767 88.6559 0.0744753 88.8674C0.142283 89.0789 0.251249 89.2749 0.3951 89.444C0.538952 89.6132 0.714848 89.7523 0.912662 89.8532C1.11048 89.9542 1.3263 90.015 1.54772 90.0322H1.68404C2.11736 90.0309 2.53381 89.8641 2.84829 89.566C3.16278 89.2679 3.35158 88.861 3.3761 88.4284L5.87811 57.434H12.2935C12.7423 57.434 13.1727 57.2557 13.49 56.9384C13.8073 56.6211 13.9856 56.1907 13.9856 55.7419C13.9856 55.2931 13.8073 54.8628 13.49 54.5454C13.1727 54.2281 12.7423 54.0498 12.2935 54.0498H6.15076L6.36728 51.3875H12.7105C13.1593 51.3875 13.5897 51.2092 13.907 50.8919C14.2243 50.5745 14.4026 50.1442 14.4026 49.6954C14.4026 49.2466 14.2243 48.8162 13.907 48.4989C13.5897 48.1816 13.1593 48.0033 12.7105 48.0033H6.63994L7.89094 32.3979C7.89477 32.3574 7.91313 32.3197 7.94261 32.2917C7.97208 32.2637 8.0107 32.2473 8.05132 32.2455L13.5205 32.3097H13.5605L19.8877 32.2455C19.9084 32.2444 19.9291 32.2476 19.9485 32.2547C19.9679 32.2619 19.9857 32.2729 20.0007 32.2872C20.0157 32.3015 20.0276 32.3186 20.0358 32.3377C20.044 32.3567 20.0481 32.3772 20.0481 32.3979L24.563 88.4364C24.5855 88.8683 24.7726 89.2752 25.0858 89.5735C25.399 89.8717 25.8145 90.0388 26.247 90.0402H26.3833C26.6065 90.024 26.8242 89.9637 27.0239 89.8628C27.2236 89.7619 27.4014 89.6224 27.5468 89.4524C27.6922 89.2823 27.8025 89.0851 27.8712 88.8722C27.9399 88.6593 27.9657 88.4348 27.9471 88.2118L27.8749 87.2896H40.0962C40.545 87.2896 40.9754 87.1114 41.2927 86.794C41.61 86.4767 41.7883 86.0463 41.7883 85.5976C41.7883 85.1488 41.61 84.7184 41.2927 84.4011C40.9754 84.0838 40.545 83.9055 40.0962 83.9055H27.6022L25.6055 59.126L39.1099 45.2207L46.5838 55.6457V85.5174C46.5838 85.9661 46.7621 86.3965 47.0794 86.7138C47.3967 87.0312 47.8271 87.2094 48.2759 87.2094H62.9591C63.4079 87.2094 63.8382 87.0312 64.1556 86.7138C64.4729 86.3965 64.6512 85.9661 64.6512 85.5174C64.6512 85.0686 64.4729 84.6382 64.1556 84.3209C63.8382 84.0036 63.4079 83.8253 62.9591 83.8253H49.9759V55.381L62.0048 45.0843L69.575 55.6778V85.5575C69.575 86.0062 69.7533 86.4366 70.0706 86.7539C70.3879 87.0713 70.8183 87.2495 71.267 87.2495C71.7158 87.2495 72.1462 87.0713 72.4635 86.7539C72.7808 86.4366 72.9591 86.0062 72.9591 85.5575V55.1405C72.9571 54.7926 72.8479 54.4537 72.6463 54.1701Z" fill="#17262F"></path></g><defs><clipPath id="clip0_5678_33657"><rect width="72.9511" height="90" fill="white"></rect></clipPath></defs></svg>