<svg xmlns="http://www.w3.org/2000/svg" width="76" height="90" viewBox="0 0 76 90" fill="none"><g clip-path="url(#clip0_5678_6426)"><path d="M42.9518 90H32.9048C32.5308 90 32.1722 89.8515 31.9077 89.587C31.6433 89.3226 31.4947 88.9639 31.4947 88.5899V83.9859C29.9476 83.5312 28.4538 82.9119 27.0388 82.1387L23.7814 85.396C23.6505 85.5272 23.4949 85.6312 23.3238 85.7021C23.1526 85.7731 22.9691 85.8096 22.7838 85.8096C22.5985 85.8096 22.415 85.7731 22.2438 85.7021C22.0726 85.6312 21.9171 85.5272 21.7861 85.396L14.6862 78.2609C14.4236 77.9967 14.2762 77.6393 14.2762 77.2668C14.2762 76.8943 14.4236 76.5369 14.6862 76.2727L17.9365 73.0153C17.1687 71.5986 16.5519 70.1051 16.0963 68.5594H11.4853C11.1113 68.5594 10.7527 68.4108 10.4882 68.1464C10.2238 67.8819 10.0752 67.5233 10.0752 67.1493V57.1093C10.0752 56.7353 10.2238 56.3767 10.4882 56.1122C10.7527 55.8478 11.1113 55.6992 11.4853 55.6992H17.1821V58.5194H12.8954V65.7674H17.1821C17.498 65.768 17.8045 65.8747 18.0525 66.0703C18.3005 66.2659 18.4757 66.5391 18.5499 66.8461C19.0311 68.8546 19.8258 70.7748 20.9048 72.5359C21.0705 72.8059 21.1405 73.1239 21.1034 73.4386C21.0663 73.7532 20.9243 74.0462 20.7003 74.2703L17.6757 77.295L22.7802 82.4066L25.812 79.3819C26.0356 79.1596 26.3273 79.0187 26.6404 78.9816C26.9535 78.9446 27.27 79.0135 27.5394 79.1775C29.3042 80.2541 31.2263 81.0487 33.2362 81.5324C33.5432 81.6066 33.8164 81.7817 34.012 82.0298C34.2076 82.2778 34.3143 82.5843 34.3149 82.9002V87.1798H41.5417V82.9002C41.5423 82.5843 41.649 82.2778 41.8446 82.0298C42.0402 81.7817 42.3134 81.6066 42.6204 81.5324C44.6281 81.0486 46.5479 80.2541 48.3102 79.1775C48.5802 79.0118 48.8982 78.9418 49.2129 78.9789C49.5275 79.016 49.8205 79.158 50.0446 79.3819L53.0693 82.4066L58.181 77.295L55.1563 74.2703C54.9323 74.0462 54.7903 73.7532 54.7532 73.4386C54.7161 73.1239 54.7861 72.8059 54.9518 72.5359C56.0279 70.7733 56.8224 68.8536 57.3067 66.8461C57.3809 66.5391 57.5561 66.2659 57.8041 66.0703C58.0521 65.8747 58.3586 65.768 58.6745 65.7674H62.9542V58.5194H58.6745V55.6992H64.3643C64.7382 55.6992 65.0969 55.8478 65.3614 56.1122C65.6258 56.3767 65.7744 56.7353 65.7744 57.1093V67.1775C65.7744 67.5515 65.6258 67.9101 65.3614 68.1746C65.0969 68.439 64.7382 68.5876 64.3643 68.5876H59.7603C59.3023 70.1335 58.6831 71.627 57.913 73.0435L61.1704 76.3009C61.3015 76.4318 61.4055 76.5873 61.4765 76.7585C61.5474 76.9297 61.5839 77.1132 61.5839 77.2985C61.5839 77.4838 61.5474 77.6673 61.4765 77.8385C61.4055 78.0097 61.3015 78.1652 61.1704 78.2962L54.0705 85.396C53.9395 85.5272 53.784 85.6312 53.6128 85.7021C53.4416 85.7731 53.2582 85.8096 53.0728 85.8096C52.8875 85.8096 52.704 85.7731 52.5329 85.7021C52.3617 85.6312 52.2062 85.5272 52.0752 85.396L48.8178 82.1387C47.4021 82.9105 45.9085 83.5297 44.3619 83.9859V88.5899C44.3619 88.9639 44.2134 89.3226 43.9489 89.587C43.6845 89.8515 43.3258 90 42.9518 90Z" fill="#17262F"></path><path d="M37.9248 73.3887C35.8948 73.3878 33.903 72.837 32.1608 71.795C30.4187 70.7529 28.9914 69.2584 28.0304 67.4703C27.0694 65.6821 26.6108 63.6671 26.7031 61.6392C26.7954 59.6113 27.4352 57.6462 28.5546 55.9528L30.9095 57.5109C30.072 58.7791 29.5934 60.2504 29.5245 61.7687C29.4556 63.287 29.799 64.7956 30.5183 66.1344C31.2376 67.4732 32.306 68.5924 33.61 69.373C34.914 70.1537 36.405 70.5668 37.9248 70.5685C39.4517 70.5681 40.9497 70.1524 42.2585 69.366C43.5673 68.5795 44.6375 67.4519 45.3546 66.1039C46.0717 64.7559 46.4087 63.2382 46.3295 61.7133C46.2502 60.1885 45.7578 58.7139 44.9048 57.4475L47.2385 55.8682C48.3784 57.5591 49.0367 59.5283 49.143 61.5647C49.2492 63.6012 48.7993 65.6282 47.8416 67.4285C46.8838 69.2289 45.4543 70.7347 43.7061 71.7846C41.9579 72.8346 39.957 73.3891 37.9177 73.3887H37.9248Z" fill="#17262F"></path><path d="M74.4465 54.1835H1.41011C1.03612 54.1835 0.677456 54.0349 0.41301 53.7705C0.148564 53.506 0 53.1474 0 52.7734V43.4667C5.17705e-05 43.1989 0.0763291 42.9367 0.219913 42.7108C0.363496 42.4848 0.568451 42.3043 0.810811 42.1905L5.13278 40.1882C4.74501 35.0272 4.15981 12.4303 23.2667 6.39501C23.4037 6.35246 23.5464 6.33107 23.6898 6.33155H28.2021V9.15176H23.9718C4.93537 15.328 7.92479 39.8004 8.0658 40.8791C8.09363 41.1746 8.02751 41.4714 7.87686 41.7271C7.72622 41.9828 7.49873 42.1845 7.22679 42.3033L2.82021 44.3621V51.3633H73.0364V44.3621L68.6228 42.3033C68.3525 42.1759 68.1296 41.9659 67.9864 41.7035C67.8432 41.4412 67.7871 41.1402 67.8261 40.8439C67.96 39.8004 70.9495 15.328 51.913 9.15176H47.6827V6.34565H52.1739C52.3173 6.34601 52.4598 6.36739 52.5969 6.40911C71.7321 12.4444 71.1469 35.0413 70.752 40.1811L75.074 42.2046C75.3177 42.3174 75.5241 42.4974 75.669 42.7235C75.8139 42.9495 75.8912 43.2123 75.8919 43.4808V52.7875C75.8901 52.9745 75.8511 53.1592 75.7772 53.331C75.7033 53.5028 75.596 53.6582 75.4615 53.7881C75.327 53.918 75.168 54.0199 74.9937 54.0877C74.8195 54.1556 74.6335 54.1882 74.4465 54.1835Z" fill="#17262F"></path><path d="M49.0928 18.0211H46.2726V2.82021H29.6122V18.0211H26.792V1.41011C26.792 1.03612 26.9406 0.677456 27.205 0.41301C27.4694 0.148564 27.8281 0 28.2021 0L47.6827 0C48.0567 0 48.4154 0.148564 48.6798 0.41301C48.9442 0.677456 49.0928 1.03612 49.0928 1.41011V18.0211Z" fill="#17262F"></path><path d="M47.6898 39.6167H6.63455V42.4369H47.6898V39.6167Z" fill="#17262F"></path><path d="M69.2221 39.6167H59.2033V42.4369H69.2221V39.6167Z" fill="#17262F"></path><path d="M14.6228 29.8661L11.8519 29.3514C13.4101 20.9895 19.6075 18.0705 19.8472 17.9507L21.0176 20.5171L20.4465 19.2339L21.0388 20.51C20.8202 20.6087 15.8989 22.9918 14.6228 29.8661Z" fill="#17262F"></path></g><defs><clipPath id="clip0_5678_6426"><rect width="75.8566" height="90" fill="white"></rect></clipPath></defs></svg>