<svg xmlns="http://www.w3.org/2000/svg" width="98" height="110" viewBox="0 0 98 110" fill="none"><g clip-path="url(#clip0_5678_16214)"><path d="M38.4499 110H37.6929C37.6061 110 37.5229 109.966 37.4615 109.904C37.4001 109.843 37.3656 109.76 37.3656 109.673V107.709L33.7549 104.057C33.692 103.995 33.6555 103.911 33.6526 103.822V94.2478C33.6544 94.159 33.6911 94.0745 33.7549 94.0126L38.2658 89.5017C38.2941 89.4616 38.331 89.4281 38.3736 89.4037C38.4163 89.3793 38.4637 89.3645 38.5127 89.3603C38.5617 89.3562 38.611 89.3628 38.6571 89.3796C38.7033 89.3965 38.7452 89.4232 38.78 89.458C38.8147 89.4927 38.8415 89.5347 38.8583 89.5808C38.8752 89.627 38.8818 89.6763 38.8776 89.7253C38.8735 89.7742 38.8587 89.8217 38.8342 89.8644C38.8098 89.907 38.7764 89.9438 38.7363 89.9722L34.2663 94.391V103.679L37.9282 107.341C37.9919 107.403 38.0287 107.487 38.0305 107.576V109.335H38.3067L40.1683 107.474V104.589L37.8464 102.288C37.7835 102.225 37.747 102.141 37.7441 102.052V96.3856C37.7459 96.2968 37.7826 96.2123 37.8464 96.1504L42.6539 91.3429C42.6844 91.3113 42.721 91.2862 42.7614 91.2691C42.8018 91.252 42.8453 91.2431 42.8891 91.2431C42.933 91.2431 42.9765 91.252 43.0169 91.2691C43.0573 91.2862 43.0939 91.3113 43.1244 91.3429C43.1834 91.407 43.2161 91.491 43.2161 91.5781C43.2161 91.6653 43.1834 91.7492 43.1244 91.8134L38.409 96.5186V101.899L40.7309 104.221C40.761 104.252 40.7847 104.289 40.8005 104.329C40.8163 104.37 40.8239 104.413 40.8229 104.456V107.617C40.8239 107.704 40.7909 107.789 40.7309 107.852L38.6851 109.898C38.622 109.96 38.5382 109.996 38.4499 110Z" fill="#17262F"></path><path d="M54.3147 110H53.5577C53.4707 109.999 53.3871 109.966 53.3225 109.908L51.2767 107.862C51.2168 107.799 51.1838 107.714 51.1847 107.627V104.466C51.1837 104.423 51.1913 104.38 51.2071 104.339C51.2229 104.299 51.2466 104.262 51.2767 104.231L53.5987 101.909V96.5185L48.8934 91.8132C48.8619 91.7827 48.8368 91.7462 48.8197 91.7057C48.8025 91.6653 48.7937 91.6219 48.7937 91.578C48.7937 91.5341 48.8025 91.4906 48.8197 91.4502C48.8368 91.4098 48.8619 91.3732 48.8934 91.3427C48.9231 91.3115 48.9587 91.2866 48.9983 91.2695C49.0379 91.2525 49.0805 91.2438 49.1236 91.2438C49.1667 91.2438 49.2093 91.2525 49.2488 91.2695C49.2884 91.2866 49.3241 91.3115 49.3537 91.3427L54.1612 96.1502C54.225 96.2121 54.2617 96.2967 54.2635 96.3855V102.042C54.2607 102.131 54.2241 102.215 54.1612 102.277L51.8495 104.589V107.473L53.7112 109.335H53.9873V107.576C53.9892 107.487 54.0259 107.402 54.0896 107.34L57.7515 103.679V94.3909L53.3225 90.013C53.2824 89.9846 53.2489 89.9478 53.2245 89.9051C53.2001 89.8625 53.1853 89.815 53.1811 89.766C53.177 89.7171 53.1836 89.6678 53.2004 89.6216C53.2173 89.5754 53.244 89.5335 53.2788 89.4988C53.3135 89.464 53.3555 89.4373 53.4016 89.4204C53.4478 89.4035 53.4971 89.397 53.546 89.4011C53.595 89.4053 53.6425 89.4201 53.6852 89.4445C53.7278 89.4689 53.7646 89.5023 53.793 89.5425L58.3039 94.0124C58.3676 94.0743 58.4044 94.1589 58.4062 94.2477V103.822C58.4033 103.91 58.3667 103.995 58.3039 104.057L54.642 107.709V109.673C54.642 109.759 54.6075 109.843 54.5461 109.904C54.4847 109.965 54.4015 110 54.3147 110Z" fill="#17262F"></path><path d="M53.5884 90.0744H38.4499C38.3604 90.0744 38.2745 90.0389 38.2112 89.9756C38.1479 89.9123 38.1123 89.8264 38.1123 89.7369V83.8758C38.1123 83.832 38.1211 83.7885 38.1382 83.7481C38.1553 83.7078 38.1803 83.6712 38.2118 83.6407C38.2433 83.6101 38.2806 83.5862 38.3215 83.5704C38.3624 83.5546 38.406 83.5471 38.4499 83.5485C38.5367 83.5485 38.62 83.583 38.6813 83.6444C38.7427 83.7058 38.7772 83.789 38.7772 83.8758V89.3993H53.2611V84.2236H41.5799C41.4904 84.2236 41.4045 84.188 41.3412 84.1247C41.2779 84.0614 41.2423 83.9756 41.2423 83.8861C41.2423 83.8422 41.2511 83.7988 41.2682 83.7584C41.2853 83.718 41.3103 83.6814 41.3418 83.6509C41.3733 83.6204 41.4106 83.5965 41.4515 83.5806C41.4924 83.5648 41.536 83.5574 41.5799 83.5587H53.5884C53.6323 83.5574 53.6759 83.5648 53.7168 83.5806C53.7577 83.5965 53.795 83.6204 53.8265 83.6509C53.858 83.6814 53.883 83.718 53.9001 83.7584C53.9172 83.7988 53.926 83.8422 53.926 83.8861V89.7369C53.926 89.8264 53.8904 89.9123 53.8271 89.9756C53.7638 90.0389 53.678 90.0744 53.5884 90.0744Z" fill="#17262F"></path><path d="M38.4499 84.2236C38.361 84.2218 38.2765 84.1851 38.2146 84.1213C38.1831 84.0908 38.158 84.0543 38.1408 84.0138C38.1237 83.9734 38.1149 83.93 38.1149 83.8861C38.1149 83.8422 38.1237 83.7987 38.1408 83.7583C38.158 83.7179 38.1831 83.6813 38.2146 83.6508L41.4162 80.4492C41.4787 80.3864 41.5629 80.3498 41.6515 80.3469H50.3868C50.4754 80.3498 50.5596 80.3864 50.6221 80.4492L53.8237 83.6508C53.8697 83.7158 53.8912 83.795 53.8845 83.8744C53.8777 83.9537 53.8432 84.0282 53.7868 84.0845C53.7305 84.1408 53.6561 84.1754 53.5767 84.1821C53.4974 84.1889 53.4182 84.1673 53.3532 84.1213L50.2845 81.0527H41.7947L38.7261 84.1213C38.6892 84.156 38.6458 84.1829 38.5983 84.2004C38.5509 84.218 38.5004 84.2259 38.4499 84.2236Z" fill="#17262F"></path><path d="M53.8953 73.964C53.8085 73.964 53.7252 73.9296 53.6638 73.8682C53.6025 73.8068 53.568 73.7235 53.568 73.6367V66.9676C53.5715 65.5337 53.1676 64.1283 52.4035 62.915C51.6393 61.7018 50.5462 60.7305 49.2514 60.1143C49.2051 60.1001 49.1624 60.0761 49.1262 60.0439C49.09 60.0117 49.0612 59.972 49.0416 59.9277C49.0221 59.8833 49.0124 59.8353 49.013 59.7869C49.0137 59.7384 49.0248 59.6907 49.0456 59.6469C49.0664 59.6032 49.0963 59.5644 49.1334 59.5332C49.1705 59.502 49.2139 59.4792 49.2606 59.4663C49.3073 59.4534 49.3562 59.4507 49.4041 59.4584C49.4519 59.466 49.4975 59.4839 49.5378 59.5108C50.9426 60.1843 52.1275 61.2424 52.9549 62.5623C53.7824 63.8822 54.2184 65.4098 54.2124 66.9676V73.647C54.2098 73.7302 54.1756 73.8094 54.1167 73.8683C54.0577 73.9272 53.9786 73.9615 53.8953 73.964Z" fill="#17262F"></path><path d="M38.1635 73.9027C38.0757 73.9 37.9925 73.8633 37.9314 73.8003C37.8703 73.7373 37.8361 73.6529 37.8362 73.5651V70.1385C37.8361 70.0947 37.8449 70.0512 37.862 70.0109C37.8791 69.9705 37.9041 69.9339 37.9356 69.9034C37.9671 69.8728 38.0044 69.849 38.0453 69.8331C38.0862 69.8173 38.1299 69.8098 38.1737 69.8112C38.2176 69.8112 38.261 69.82 38.3014 69.837C38.3418 69.8541 38.3783 69.8792 38.4088 69.9107C38.4394 69.9421 38.4633 69.9794 38.4791 70.0203C38.4949 70.0612 38.5024 70.1049 38.501 70.1487V73.5651C38.501 73.6547 38.4655 73.7405 38.4022 73.8038C38.3389 73.8671 38.253 73.9027 38.1635 73.9027Z" fill="#17262F"></path><path d="M55.092 79.3648L36.9156 79.2932C36.8486 79.2931 36.7832 79.2724 36.7284 79.234C36.6735 79.1956 36.6317 79.1413 36.6087 79.0784C36.5835 79.0176 36.5778 78.9505 36.5925 78.8863C36.6072 78.8222 36.6414 78.7642 36.6905 78.7204L37.1406 78.2805L36.6905 77.8509C36.6308 77.7832 36.598 77.6958 36.5985 77.6055C36.5968 77.5611 36.6052 77.5169 36.6229 77.4762C36.6406 77.4355 36.6672 77.3992 36.7008 77.3702L37.1508 76.9406L36.7008 76.5007C36.6364 76.4351 36.5998 76.3472 36.5985 76.2553C36.6013 76.1667 36.6379 76.0825 36.7008 76.02L37.1508 75.5904L36.7008 75.1505C36.6392 75.0839 36.6062 74.9958 36.6087 74.9051V73.5651C36.6113 73.4764 36.6477 73.392 36.7104 73.3293C36.7732 73.2665 36.8575 73.2301 36.9462 73.2275L55.1227 73.3094C55.1666 73.3093 55.21 73.3181 55.2504 73.3352C55.2908 73.3523 55.3273 73.3773 55.3579 73.4088C55.3884 73.4403 55.4123 73.4776 55.4281 73.5185C55.444 73.5594 55.4514 73.6031 55.4501 73.6469V74.9869C55.4663 75.0437 55.4663 75.1039 55.4501 75.1608L55.3887 75.2324L54.9386 75.662L55.3887 76.1018C55.4216 76.1316 55.4479 76.1678 55.4659 76.2084C55.4839 76.2489 55.4932 76.2927 55.4932 76.3371C55.4932 76.3814 55.4839 76.4253 55.4659 76.4658C55.4479 76.5063 55.4216 76.5426 55.3887 76.5723L54.9386 77.0122L55.3887 77.4418C55.4484 77.5096 55.4812 77.5969 55.4807 77.6873C55.4824 77.7316 55.474 77.7758 55.4563 77.8165C55.4386 77.8573 55.412 77.8935 55.3785 77.9225L54.9284 78.3624L55.3785 78.792C55.4243 78.8401 55.4555 78.9004 55.4682 78.9656C55.4808 79.0309 55.4746 79.0984 55.4501 79.1602C55.4214 79.2291 55.3707 79.2865 55.3059 79.3235C55.2411 79.3605 55.1659 79.375 55.092 79.3648ZM37.7032 78.6283L54.2328 78.6999L54.1305 78.5976C54.0679 78.5309 54.0315 78.4437 54.0283 78.3521C54.0301 78.2633 54.0668 78.1788 54.1305 78.1169L54.6215 77.7384L54.2124 77.2474C54.1524 77.1839 54.1194 77.0996 54.1203 77.0122C54.1186 76.9663 54.1268 76.9206 54.1445 76.8782C54.1621 76.8358 54.1888 76.7978 54.2226 76.7667L54.6727 76.3371L54.2124 75.8972C54.1486 75.8353 54.1119 75.7508 54.1101 75.662C54.1114 75.5701 54.148 75.4822 54.2124 75.4165L54.8159 74.8437V73.9742L37.3043 73.9026V74.7721L37.8975 75.3551C37.9277 75.3863 37.9514 75.4231 37.9672 75.4635C37.983 75.5039 37.9906 75.547 37.9896 75.5904C37.9912 75.6348 37.9829 75.6789 37.9652 75.7196C37.9475 75.7604 37.9209 75.7966 37.8873 75.8256L37.4372 76.2655L37.8464 76.7155C37.8793 76.7453 37.9056 76.7816 37.9236 76.8221C37.9416 76.8626 37.9509 76.9065 37.9509 76.9508C37.9509 76.9952 37.9416 77.039 37.9236 77.0795C37.9056 77.12 37.8793 77.1563 37.8464 77.1861L37.3963 77.6259L37.8361 78.0555C37.87 78.0866 37.8966 78.1246 37.9143 78.167C37.9319 78.2094 37.9402 78.2551 37.9384 78.301C37.9394 78.3453 37.9307 78.3892 37.9131 78.4298C37.8954 78.4704 37.8692 78.5068 37.8361 78.5363L37.7032 78.6283Z" fill="#17262F"></path><path d="M26.1652 37.8465C26.0926 37.8465 26.022 37.8224 25.9646 37.778C25.9072 37.7335 25.8662 37.6713 25.8481 37.601C25.8357 37.5587 25.8321 37.5143 25.8373 37.4705C25.8426 37.4268 25.8566 37.3845 25.8786 37.3463C25.9005 37.3081 25.93 37.2747 25.9652 37.2482C26.0004 37.2216 26.0405 37.2025 26.0833 37.1918L35.8006 34.4403C35.8436 34.4279 35.8886 34.4241 35.9331 34.4292C35.9775 34.4344 36.0205 34.4483 36.0596 34.4702C36.0986 34.4921 36.1329 34.5215 36.1604 34.5567C36.188 34.592 36.2082 34.6324 36.22 34.6756C36.2394 34.7608 36.226 34.8503 36.1824 34.9261C36.1388 35.002 36.0682 35.0586 35.9848 35.0847L26.2572 37.8465H26.1652Z" fill="#17262F"></path><path d="M14.9749 27.6177C14.8993 27.6139 14.8272 27.5848 14.7702 27.5351C14.7131 27.4855 14.6744 27.418 14.6602 27.3437C14.6461 27.2694 14.6573 27.1925 14.6921 27.1253C14.7269 27.0581 14.7833 27.0046 14.8521 26.9733L29.2235 21.2861C29.3049 21.2535 29.3959 21.2546 29.4765 21.2892C29.557 21.3237 29.6206 21.3888 29.6531 21.4702C29.6857 21.5516 29.6846 21.6426 29.6501 21.7231C29.6155 21.8037 29.5504 21.8673 29.469 21.8998L15.0976 27.6177H14.9749Z" fill="#17262F"></path><path d="M46.0294 72.9106C44.668 72.9121 43.3432 72.4705 42.255 71.6525L3.42663 42.8483C2.496 42.1229 1.72025 41.2182 1.14524 40.1878C0.570234 39.1574 0.207645 38.0222 0.0789088 36.8493C-0.0498276 35.6763 0.0579011 34.4895 0.395726 33.3589C0.733552 32.2283 1.29462 31.177 2.04575 30.2669C2.79489 29.3526 3.72061 28.5987 4.76761 28.0501C5.81462 27.5016 6.96145 27.1696 8.1396 27.0742C9.31775 26.9787 10.5031 27.1216 11.6247 27.4944C12.7464 27.8673 13.7815 28.4623 14.668 29.2441L50.2743 61.884C51.2173 62.7444 51.8787 63.8693 52.172 65.1117C52.4653 66.354 52.3769 67.656 51.9183 68.8473C51.4596 70.0386 50.6522 71.0637 49.6015 71.7887C48.5509 72.5136 47.3059 72.9047 46.0294 72.9106ZM2.5265 30.6863C1.83697 31.5309 1.32317 32.5047 1.01528 33.5506C0.707388 34.5966 0.611615 35.6935 0.733586 36.7769C0.855557 37.8604 1.19281 38.9085 1.72554 39.8598C2.25827 40.8111 2.97574 41.6463 3.83578 42.3164L42.6028 71.1206C43.7711 71.9568 45.213 72.3189 46.6377 72.134C48.0625 71.949 49.3642 71.2307 50.2802 70.1239C51.1963 69.0171 51.6586 67.6041 51.574 66.1699C51.4894 64.7357 50.8641 63.3869 49.8242 62.3955L14.1975 29.7555C13.3757 29.0382 12.4187 28.4924 11.3829 28.1503C10.3471 27.8082 9.25339 27.6767 8.16601 27.7634C7.07863 27.8501 6.01956 28.1534 5.05107 28.6553C4.08259 29.1573 3.22424 29.8478 2.5265 30.6863Z" fill="#17262F"></path><path d="M9.20587 41.3959C8.18102 41.3972 7.17787 41.1007 6.31841 40.5425C5.45895 39.9842 4.78022 39.1883 4.36475 38.2514C3.94929 37.3146 3.815 36.2772 3.97822 35.2654C4.14144 34.2536 4.59513 33.3111 5.28411 32.5524C5.9731 31.7937 6.86769 31.2516 7.8591 30.9919C8.8505 30.7322 9.896 30.7662 10.8684 31.0898C11.8409 31.4133 12.6984 32.0124 13.3366 32.8143C13.9748 33.6161 14.3663 34.5862 14.4634 35.6064C14.5376 36.2961 14.4725 36.9937 14.2722 37.6578C14.0719 38.3219 13.7404 38.9391 13.2974 39.4729C12.8009 40.077 12.1761 40.563 11.4684 40.8956C10.7607 41.2282 9.98783 41.3991 9.20587 41.3959ZM9.20587 31.4944H8.7558C7.55052 31.5532 6.41597 32.0808 5.59442 32.9647C4.77287 33.8485 4.32944 35.0185 4.35881 36.2249C4.38819 37.4312 4.88804 38.5783 5.75164 39.4211C6.61524 40.264 7.77413 40.7357 8.98084 40.7357C10.1875 40.7357 11.3464 40.264 12.21 39.4211C13.0736 38.5783 13.5735 37.4312 13.6029 36.2249C13.6322 35.0185 13.1888 33.8485 12.3673 32.9647C11.5457 32.0808 10.4111 31.5532 9.20587 31.4944Z" fill="#17262F"></path><path d="M46.0294 69.9646C45.2408 69.9679 44.4764 69.6926 43.8711 69.1872C43.3581 68.7587 42.9834 68.1879 42.7942 67.5468C42.605 66.9057 42.6098 66.223 42.8081 65.5846C43.0063 64.9463 43.389 64.3809 43.908 63.9597C44.427 63.5385 45.0591 63.2803 45.7246 63.2177C46.3901 63.1552 47.0592 63.291 47.6476 63.6081C48.236 63.9252 48.7174 64.4093 49.0312 64.9996C49.3449 65.5898 49.4768 66.2597 49.4105 66.9248C49.3441 67.5899 49.0823 68.2205 48.6582 68.7371C48.0796 69.4281 47.2535 69.865 46.3567 69.9543L46.0294 69.9646ZM46.0294 63.8273C45.5678 63.8186 45.1115 63.9271 44.7031 64.1427C44.2948 64.3582 43.9478 64.6737 43.6946 65.0598C43.4413 65.4458 43.29 65.8898 43.2549 66.3502C43.2198 66.8105 43.302 67.2723 43.4937 67.6923C43.6855 68.1123 43.9806 68.4768 44.3515 68.7518C44.7224 69.0268 45.157 69.2032 45.6146 69.2647C46.0722 69.3261 46.5379 69.2706 46.9682 69.1032C47.3985 68.9358 47.7794 68.662 48.0751 68.3075C48.3127 68.0271 48.4899 67.7007 48.5955 67.3487C48.7011 66.9966 48.7329 66.6266 48.6889 66.2617C48.6489 65.9009 48.538 65.5516 48.3624 65.2338C48.1869 64.9161 47.9502 64.6362 47.666 64.4103C47.199 64.0433 46.6233 63.8418 46.0294 63.8375V63.8273Z" fill="#17262F"></path><path d="M9.20587 38.5317C8.61674 38.5365 8.04743 38.3192 7.61141 37.9229C7.1754 37.5267 6.90469 36.9808 6.85326 36.3939C6.82176 36.0848 6.85261 35.7726 6.94397 35.4756C7.03534 35.1787 7.18536 34.9031 7.38515 34.6652C7.57839 34.4134 7.82038 34.2032 8.09667 34.0469C8.37296 33.8907 8.6779 33.7918 8.99327 33.756C9.30864 33.7202 9.62798 33.7484 9.93224 33.8387C10.2365 33.9291 10.5194 34.0798 10.7642 34.2819C11.0089 34.484 11.2104 34.7334 11.3566 35.0151C11.5029 35.2968 11.5909 35.605 11.6154 35.9215C11.6399 36.2379 11.6004 36.5561 11.4992 36.8569C11.398 37.1577 11.2373 37.4351 11.0266 37.6725C10.8061 37.942 10.5282 38.159 10.2132 38.3077C9.89829 38.4563 9.55414 38.5328 9.20587 38.5317ZM9.20587 34.4402H9.01152C8.56415 34.4842 8.15248 34.7038 7.86678 35.0508C7.58108 35.3979 7.44466 35.8441 7.48744 36.2916C7.50655 36.5131 7.56979 36.7286 7.67343 36.9254C7.77707 37.1221 7.91903 37.2961 8.09094 37.4372C8.26219 37.5811 8.46034 37.6896 8.67388 37.7562C8.88741 37.8229 9.11207 37.8464 9.33478 37.8255C9.5575 37.8046 9.77383 37.7396 9.9712 37.6343C10.1686 37.529 10.343 37.3855 10.4845 37.2122C10.7538 36.8629 10.8776 36.4229 10.83 35.9844C10.7823 35.5459 10.5669 35.1428 10.2287 34.8596C9.94082 34.6193 9.58069 34.4825 9.20587 34.4709V34.4402Z" fill="#17262F"></path><path d="M45.9373 68.0723C45.5637 68.0842 45.1991 67.9566 44.9145 67.7143C44.7551 67.5846 44.623 67.4246 44.5258 67.2435C44.4287 67.0625 44.3684 66.864 44.3484 66.6595C44.3284 66.455 44.3492 66.2486 44.4095 66.0521C44.4698 65.8557 44.5684 65.6732 44.6997 65.5151C44.955 65.2039 45.3223 65.0056 45.7225 64.9627C46.1351 64.9256 46.5459 65.0503 46.8682 65.3105C47.1145 65.5181 47.2908 65.7966 47.373 66.1081C47.4552 66.4196 47.4392 66.7488 47.3274 67.0509C47.2155 67.353 47.0131 67.6132 46.7478 67.796C46.4826 67.9788 46.1674 68.0753 45.8453 68.0723H45.9373ZM45.9373 65.6174H45.8453C45.6101 65.6466 45.3945 65.7635 45.2418 65.9447C45.1667 66.0352 45.1103 66.1396 45.0759 66.2519C45.0414 66.3643 45.0295 66.4824 45.0409 66.5993C45.0523 66.7163 45.0868 66.8299 45.1424 66.9335C45.1979 67.037 45.2734 67.1286 45.3645 67.2028C45.5497 67.3324 45.7768 67.3876 46.0008 67.3575C46.2247 67.3274 46.4292 67.2141 46.5735 67.0401C46.7178 66.8662 46.7913 66.6444 46.7796 66.4187C46.7679 66.193 46.6717 65.98 46.5101 65.822C46.3501 65.687 46.1467 65.6144 45.9373 65.6174Z" fill="#17262F"></path><path d="M54.6113 41.181C48.1745 41.1756 42.0027 38.6169 37.4502 34.0663C32.8977 29.5158 30.3364 23.345 30.3282 16.9082C30.3375 15.8129 30.4195 14.7194 30.5737 13.635C30.5814 13.5536 30.6192 13.4781 30.6798 13.4232C30.7404 13.3683 30.8193 13.338 30.9011 13.3384H78.3113C78.3931 13.338 78.472 13.3683 78.5326 13.4232C78.5931 13.4781 78.631 13.5536 78.6386 13.635C78.7983 14.7188 78.8803 15.8127 78.8841 16.9082C78.8787 23.3441 76.3197 29.5149 71.7688 34.0657C67.2179 38.6166 61.0472 41.1756 54.6113 41.181ZM31.1977 14.0033C31.0704 14.9665 31.0021 15.9366 30.9931 16.9082C30.9879 20.1356 31.6442 23.3298 32.9215 26.2937C34.1988 29.2575 36.07 31.9282 38.4196 34.1407C40.7691 36.3533 43.5472 38.0608 46.5824 39.158C49.6176 40.2551 52.8454 40.7185 56.0667 40.5196C59.2879 40.3208 62.4342 39.4638 65.3114 38.0016C68.1886 36.5395 70.7355 34.5032 72.7951 32.0184C74.8547 29.5336 76.3831 26.6531 77.2861 23.5546C78.1891 20.4561 78.4475 17.2055 78.0454 14.0033H31.1977Z" fill="#17262F"></path><path d="M54.775 33.7549C50.0742 33.7468 45.568 31.8773 42.2422 28.5552C38.9163 25.2332 37.0416 20.7292 37.0281 16.0285C37.0281 15.9389 37.0636 15.8531 37.1269 15.7898C37.1902 15.7265 37.2761 15.6909 37.3656 15.6909C37.4095 15.6909 37.4529 15.6997 37.4933 15.7168C37.5337 15.7339 37.5702 15.7589 37.6008 15.7904C37.6313 15.8219 37.6552 15.8592 37.671 15.9001C37.6869 15.941 37.6943 15.9846 37.6929 16.0285C37.6929 20.5589 39.4927 24.9038 42.6962 28.1073C45.8997 31.3108 50.2445 33.1105 54.775 33.1105C59.3054 33.1105 63.6503 31.3108 66.8538 28.1073C70.0573 24.9038 71.857 20.5589 71.857 16.0285C71.857 15.9389 71.8925 15.8531 71.9558 15.7898C72.0191 15.7265 72.105 15.6909 72.1945 15.6909C72.2384 15.6909 72.2818 15.6997 72.3222 15.7168C72.3626 15.7339 72.3991 15.7589 72.4297 15.7904C72.4602 15.8219 72.4841 15.8592 72.4999 15.9001C72.5158 15.941 72.5232 15.9846 72.5218 16.0285C72.511 20.73 70.6371 25.2356 67.3107 28.5582C63.9843 31.8808 59.4765 33.7495 54.775 33.7549Z" fill="#17262F"></path><path d="M86.883 14.0032H22.3396C20.9117 14.0032 19.5421 13.4366 18.5315 12.4279C17.5209 11.4192 16.9517 10.0507 16.949 8.62285C16.949 8.53332 16.9846 8.44747 17.0479 8.38416C17.1112 8.32086 17.1971 8.2853 17.2866 8.2853C17.3304 8.28528 17.3739 8.29407 17.4143 8.31116C17.4546 8.32824 17.4912 8.35327 17.5217 8.38476C17.5523 8.41624 17.5762 8.45354 17.592 8.49444C17.6078 8.53535 17.6153 8.57901 17.6139 8.62285C17.6274 9.86729 18.1312 11.0562 19.016 11.9314C19.9008 12.8066 21.0951 13.2975 22.3396 13.2974H86.883C88.1328 13.2947 89.3306 12.797 90.2144 11.9133C91.0981 11.0295 91.5958 9.83172 91.5985 8.58193C91.5985 8.49241 91.634 8.40655 91.6973 8.34325C91.7606 8.27995 91.8465 8.24438 91.936 8.24438C91.9799 8.24436 92.0233 8.25316 92.0637 8.27024C92.1041 8.28733 92.1406 8.31236 92.1712 8.34384C92.2017 8.37533 92.2256 8.41263 92.2414 8.45353C92.2573 8.49443 92.2647 8.5381 92.2633 8.58193C92.2674 9.29155 92.1313 9.99498 91.8628 10.6519C91.5944 11.3088 91.1989 11.9062 90.699 12.4099C90.1991 12.9135 89.6047 13.3136 88.9499 13.587C88.295 13.8604 87.5926 14.0018 86.883 14.0032Z" fill="#17262F"></path><path d="M96.8663 7.66133H12.3563C12.3125 7.66136 12.2691 7.65256 12.2287 7.63548C12.1883 7.61839 12.1517 7.59336 12.1212 7.56188C12.0907 7.53039 12.0668 7.49309 12.0509 7.45219C12.0351 7.41129 12.0276 7.36762 12.029 7.32379V0.337549C12.0276 0.293712 12.0351 0.250046 12.0509 0.209145C12.0668 0.168245 12.0907 0.130944 12.1212 0.0994576C12.1517 0.0679714 12.1883 0.0429423 12.2287 0.025857C12.2691 0.0087717 12.3125 -2.13817e-05 12.3563 3.90431e-08H96.8663C96.9513 0.00527678 97.0309 0.0434856 97.0882 0.106512C97.1455 0.169539 97.176 0.252418 97.1731 0.337549V7.32379C97.176 7.40892 97.1455 7.4918 97.0882 7.55482C97.0309 7.61785 96.9513 7.65606 96.8663 7.66133ZM12.6939 6.99647H96.5697V0.664869H12.6939V6.99647Z" fill="#17262F"></path><path d="M89.4402 2.47542H12.3563C12.3125 2.47544 12.2691 2.46664 12.2287 2.44956C12.1883 2.43247 12.1517 2.40744 12.1212 2.37596C12.0907 2.34447 12.0668 2.30717 12.0509 2.26627C12.0351 2.22537 12.0276 2.1817 12.029 2.13787C12.029 2.05106 12.0635 1.9678 12.1249 1.90642C12.1863 1.84503 12.2695 1.81055 12.3563 1.81055H89.4402C89.527 1.81055 89.6103 1.84503 89.6717 1.90642C89.733 1.9678 89.7675 2.05106 89.7675 2.13787C89.7689 2.1817 89.7614 2.22537 89.7456 2.26627C89.7298 2.30717 89.7059 2.34447 89.6754 2.37596C89.6448 2.40744 89.6083 2.43247 89.5679 2.44956C89.5275 2.46664 89.4841 2.47544 89.4402 2.47542Z" fill="#17262F"></path><path d="M17.2866 29.1417C17.2182 29.1422 17.1513 29.122 17.0946 29.0836C17.038 29.0453 16.9944 28.9906 16.9695 28.9269C16.94 28.8428 16.9449 28.7504 16.9832 28.6699C17.0215 28.5894 17.0902 28.5274 17.1741 28.4973L29.2338 24.1091C29.3166 24.0791 29.4079 24.0826 29.4881 24.1189C29.5684 24.1552 29.6313 24.2214 29.6634 24.3035C29.6929 24.3876 29.688 24.48 29.6497 24.5605C29.6113 24.641 29.5427 24.703 29.4588 24.7331L17.3889 29.1212C17.3567 29.1356 17.3218 29.1426 17.2866 29.1417Z" fill="#17262F"></path></g><defs><clipPath id="clip0_5678_16214"><rect width="97.1936" height="110" fill="white"></rect></clipPath></defs></svg>