<svg xmlns="http://www.w3.org/2000/svg" width="90" height="86" viewBox="0 0 90 86" fill="none"><g clip-path="url(#clip0_5678_33076)"><path d="M89.9359 42.5991C89.9437 42.5191 89.9437 42.4386 89.9359 42.3586C89.9359 42.3586 89.9359 42.2865 89.9359 42.2544C89.8359 41.8378 89.5903 41.4707 89.2433 41.2193C88.8964 40.9679 88.471 40.8488 88.044 40.8836L58.1348 42.3907C57.5372 39.4573 55.9804 36.8062 53.7098 34.8553L70.0632 9.77201C70.3233 9.37112 70.4136 8.88344 70.3144 8.41602C70.2152 7.94859 69.9346 7.53963 69.5341 7.27891C62.2985 2.56896 53.8607 0.0396964 45.2272 -0.00720909C36.5938 -0.0541146 28.129 2.38332 20.8426 7.01437C20.441 7.26968 20.1571 7.67397 20.0534 8.13843C19.9497 8.6029 20.0346 9.08953 20.2895 9.49143L36.3222 34.7591C34.0355 36.6921 32.4586 39.3325 31.8411 42.2624L2.03614 40.1381C1.67816 40.1056 1.31908 40.187 1.01004 40.3706C0.930422 40.4139 0.855243 40.4649 0.785581 40.5229L0.729466 40.563C0.655897 40.6339 0.586315 40.7088 0.52104 40.7874C0.52104 40.7874 0.43286 40.9237 0.384761 40.9958L0.336663 41.076L0.272532 41.2363C0.246371 41.2933 0.224922 41.3523 0.208401 41.4127C0.208401 41.4127 0.208401 41.4608 0.208401 41.4929C0.183952 41.582 0.16785 41.6733 0.160302 41.7654C0.0881548 42.7675 0.0480728 43.8497 0.0480728 44.972C0.0322171 52.5103 1.91763 59.9308 5.52991 66.5473C9.14219 73.1637 14.3647 78.7624 20.7143 82.8254C20.8426 82.9105 20.9832 82.9754 21.1312 83.0178H21.2434C21.3742 83.0527 21.5088 83.0715 21.6442 83.0739C22.0053 83.0696 22.3569 82.9579 22.6543 82.7532C22.8465 82.6158 23.0121 82.4447 23.1433 82.2482L39.3364 57.1328C42.455 58.5774 46.0072 58.7781 49.2687 57.694L62.3675 84.589C62.4634 84.7797 62.5938 84.9509 62.7523 85.094L62.8805 85.1982C63.0129 85.3067 63.1617 85.3933 63.3214 85.4547C63.3214 85.4547 63.3695 85.4948 63.4016 85.5028C63.5777 85.56 63.7616 85.5898 63.9467 85.591C64.0801 85.6028 64.2142 85.6028 64.3475 85.591H64.4277C64.533 85.5684 64.6352 85.5334 64.7323 85.4868C72.3204 81.8136 78.7153 76.0698 83.179 68.9181C87.6428 61.7665 89.9935 53.4985 89.9599 45.0682C90 44.1944 89.9759 43.3927 89.9359 42.5991ZM66.047 9.34714L57.8382 21.9649L50.7277 32.8672C48.9532 32.0435 47.0204 31.6168 45.0641 31.6168C43.1078 31.6168 41.175 32.0435 39.4005 32.8672L24.3377 9.11466C30.6869 5.46675 37.8893 3.56647 45.2117 3.60731C52.5341 3.64814 59.7149 5.62864 66.023 9.34714H66.047ZM3.59933 44.996C3.59933 44.6112 3.59933 44.1944 3.59933 43.8577L18.9908 44.9479L31.6326 45.8538C31.7422 47.6459 32.2134 49.3972 33.018 51.0023C33.8226 52.6073 34.9439 54.0328 36.3142 55.1929L21.0831 78.8252C15.6648 75.0064 11.2468 69.938 8.20333 64.0492C5.15986 58.1604 3.58059 51.6248 3.59933 44.996ZM39.7132 53.2449C38.3275 52.3653 37.1875 51.1488 36.3996 49.7091C35.6117 48.2693 35.2017 46.6533 35.208 45.0121C35.208 44.7876 35.208 44.5631 35.208 44.3387C35.3166 42.8114 35.7823 41.331 36.5676 40.0167C37.3529 38.7023 38.4358 37.5906 39.7292 36.7712C41.3225 35.7879 43.1598 35.2719 45.0321 35.2818C46.9043 35.2917 48.7361 35.8272 50.3189 36.8273C51.5947 37.6636 52.659 38.7844 53.4283 40.1017C54.1975 41.419 54.6506 42.8968 54.7519 44.4188C54.7519 44.6193 54.7519 44.8357 54.7519 45.0441C54.7657 46.8781 54.2614 48.6786 53.297 50.2386C52.3326 51.7986 50.9474 53.0546 49.3008 53.8622C47.7821 54.5831 46.1046 54.9048 44.4269 54.7968C42.7493 54.6888 41.1269 54.1546 39.7132 53.2449ZM64.7965 81.3584L59.7301 70.9371L52.4913 56.1148C54.1804 54.9865 55.588 53.4854 56.6053 51.7272C57.6227 49.9691 58.2228 48.0007 58.3593 45.974L74.7368 45.1724L86.4006 44.5872V45.0121C86.4286 52.4589 84.4336 59.7736 80.6286 66.1751C76.8236 72.5766 71.3515 77.8244 64.7965 81.3584Z" fill="#17262F"></path></g><defs><clipPath id="clip0_5678_33076"><rect width="90" height="85.599" fill="white"></rect></clipPath></defs></svg>