<svg xmlns="http://www.w3.org/2000/svg" width="95" height="88" viewBox="0 0 95 88" fill="none"><g clip-path="url(#clip0_5678_33272)"><path d="M53.1542 36.0139C51.1664 36.0234 49.2467 35.2906 47.7709 33.9589C46.2951 32.6273 45.3695 30.7928 45.1753 28.8145C44.9811 26.8363 45.5323 24.8568 46.721 23.2636C47.9097 21.6704 49.6502 20.5783 51.6019 20.2011C50.9229 19.2772 50.1605 18.4177 49.3243 17.6333C48.836 17.1787 48.32 16.7547 47.7793 16.3639C47.6415 16.2696 47.5036 16.1753 47.3513 16.0883C47.199 16.0013 46.6259 16.567 46.5317 16.6758C45.5807 17.7331 44.7443 18.888 44.0364 20.1213C41.8604 23.2693 39.7641 26.4899 37.5082 29.5509C36.3172 31.2118 34.5343 32.3524 32.5271 32.7374C30.5198 33.1224 28.4414 32.7225 26.7204 31.6201C24.9994 30.5177 23.767 28.7969 23.2774 26.8126C22.7878 24.8283 23.0784 22.7318 24.0891 20.9554C24.8145 19.7151 25.6921 18.5618 26.5045 17.3939L30.6826 11.3445L33.3374 7.50007C35.551 4.48676 38.6002 2.18919 42.107 0.892072C45.664 -0.379086 49.5656 -0.288651 53.0599 1.14595C56.6141 2.59666 59.7404 5.22971 62.3299 8.02233C63.0553 8.74769 63.6283 9.64713 64.2594 10.4595C65.347 8.96905 66.9175 7.90156 68.7036 7.43878C70.4897 6.976 72.381 7.14654 74.0555 7.92136C75.73 8.69619 77.0842 10.0274 77.8876 11.6884C78.6911 13.3494 78.894 15.2375 78.4619 17.0313C78.0199 18.5984 77.4945 20.1408 76.8878 21.6518L74.5812 28.18C74.141 29.8274 73.2726 31.329 72.0642 32.5321C70.7454 33.7053 69.0908 34.4337 67.3349 34.6139L55.1271 35.847C54.4729 35.9379 53.8143 35.9936 53.1542 36.0139ZM47.1482 12.7009C47.9058 12.7404 48.6371 12.9918 49.259 13.4262C50.6748 14.3019 51.9389 15.4019 53.0018 16.6831L54.7354 18.9317C55.2359 19.5773 56.1862 20.4259 56.2659 21.2746C56.4836 23.0227 54.6702 23.117 53.4588 23.2403C51.9138 23.4072 50.5139 23.7843 49.4911 25.0537C48.9441 25.7522 48.603 26.5894 48.506 27.4713C48.4091 28.3531 48.5603 29.2445 48.9425 30.0451C49.3247 30.8457 49.9228 31.5237 50.6694 32.0028C51.4161 32.482 52.2816 32.7431 53.1687 32.757C54.6525 32.6878 56.1317 32.5425 57.6006 32.3218L64.7744 31.5964C65.9712 31.4659 67.4437 31.5021 68.5607 30.9726C69.1722 30.6834 69.7188 30.2733 70.1675 29.7672C70.6163 29.2611 70.958 28.6694 71.172 28.0277C72.468 24.3719 73.7616 20.7185 75.0527 17.0675C76.0537 14.2604 74.5812 11.0833 71.4912 10.5393C70.5809 10.3887 69.6465 10.506 68.8016 10.8769C67.9568 11.2478 67.2381 11.8563 66.7328 12.6283C66.3702 13.1869 66.2686 13.8905 65.8914 14.4345C65.7528 14.6243 65.5754 14.7824 65.3709 14.8982C65.1664 15.014 64.9396 15.0849 64.7055 15.1062C64.4715 15.1275 64.2356 15.0986 64.0136 15.0216C63.7916 14.9445 63.5885 14.821 63.418 14.6593C62.2066 13.4625 61.3144 11.8812 60.2409 10.5683C58.92 8.98865 57.3956 7.59105 55.7074 6.41204C54.1517 5.20901 52.3926 4.29506 50.5139 3.71371C44.3193 1.93659 38.5672 5.65041 35.1508 10.5973L27.7086 21.3689C27.433 21.7678 27.1356 22.1595 26.9035 22.5802C26.4292 23.4715 26.2522 24.491 26.3981 25.49C26.5441 26.489 27.0054 27.4153 27.7148 28.1336C28.4243 28.8519 29.3447 29.3248 30.3418 29.4832C31.3389 29.6416 32.3605 29.4773 33.2576 29.0142C34.0461 28.5639 34.7113 27.9261 35.1943 27.1572L40.6635 19.2436C41.4904 18.054 42.3101 16.8572 43.137 15.6603C43.9639 14.4635 45.5016 12.7154 47.17 12.6791C48.1202 12.7081 46.0166 12.7299 47.1482 12.7009Z" fill="#17262F"></path><path d="M66.1018 87.6448C63.3164 87.6448 61.2201 86.194 59.4575 84.2066L55.0328 79.2161C52.6609 76.5395 49.4621 73.8775 49.346 70.0186C49.2808 66.312 51.9066 63.7297 54.0391 60.9879L58.3332 55.4679C59.6969 53.6763 61.0751 52.1023 63.3237 51.4204C69.4747 49.5635 75.3428 55.6855 73.1668 61.7568H78.8536C78.0267 60.7195 77.3521 59.5299 76.6267 58.4201L72.6735 52.3634L69.4094 47.3729C68.1264 45.6379 67.518 43.4956 67.6976 41.3452C67.932 39.5 68.7976 37.7926 70.1475 36.5128C71.4973 35.233 73.2483 34.4596 75.1035 34.3238C76.5627 34.2453 78.0161 34.5608 79.3114 35.2371C80.6068 35.9135 81.6963 36.9259 82.4658 38.1682L89.3277 48.6713L91.5473 52.0588C92.578 53.4981 93.4259 55.0599 94.0716 56.7083C94.7195 58.5728 95.0314 60.5376 94.9928 62.5111C94.9467 66.2008 93.5742 69.7506 91.1262 72.5116C88.6782 75.2726 85.3183 77.0603 81.6607 77.5478C79.0577 77.7643 76.4437 77.8176 73.8341 77.7074C74.1176 78.8835 74.1323 80.1083 73.8773 81.2909C73.6223 82.4735 73.1041 83.5835 72.3612 84.5383C71.6183 85.4931 70.6697 86.2682 69.5861 86.806C68.5024 87.3438 67.3115 87.6305 66.1018 87.6448ZM53.8142 72.9345L61.3797 81.4647C62.7942 83.0605 64.2014 84.62 66.6023 84.3661C67.2851 84.2904 67.9433 84.0671 68.5314 83.712C69.1195 83.3568 69.6234 82.8781 70.0084 82.309C70.3933 81.7399 70.65 81.094 70.7607 80.416C70.8715 79.7379 70.8336 79.0439 70.6498 78.382C70.3959 77.497 69.5617 76.7136 69.7648 75.7562C70.026 74.5448 71.1285 74.4723 72.115 74.4723H75.4371C77.5746 74.5825 79.7176 74.5072 81.842 74.2474C83.5666 73.9521 85.2044 73.2786 86.6379 72.2753C88.0714 71.272 89.2649 69.9638 90.1329 68.4446C91.0419 66.7411 91.5692 64.8602 91.6782 62.9325C91.7871 61.0047 91.4752 59.0764 90.7639 57.2813C89.9671 55.586 88.9947 53.979 87.8625 52.4867L84.2357 46.8942C83.0123 45.0131 81.784 43.132 80.5509 41.2509C79.5499 39.7204 78.6505 38.1827 76.7065 37.7112C75.8239 37.516 74.9039 37.5754 74.0538 37.8826C73.2036 38.1898 72.4581 38.7321 71.9041 39.4464C71.3502 40.1608 71.0104 41.0177 70.9245 41.9176C70.8385 42.8175 71.0099 43.7233 71.4187 44.5295C72.0062 45.6321 72.7896 46.6621 73.4714 47.7066C75.8893 51.3769 78.2854 55.0448 80.6597 58.7103C80.9426 59.1527 81.24 59.5589 81.5519 59.9869C82.5021 61.2998 82.6254 63.7515 81.0514 64.6655C80.3731 64.9844 79.6214 65.1147 78.8753 65.0426H75.9304H70.2871C69.9845 65.0391 69.6888 64.9518 69.4327 64.7905C69.1767 64.6291 68.9703 64.4001 68.8364 64.1287C68.4374 63.3308 68.8364 62.678 69.3151 62.0252C69.9279 61.253 70.2874 60.3106 70.3445 59.3265C70.4016 58.3425 70.1536 57.3648 69.6343 56.527C67.7701 53.6255 63.7589 53.7778 61.7424 56.3674L58.2679 60.8356L54.2132 66.0509C53.5275 66.8136 53.0175 67.7173 52.719 68.6984C52.5582 69.441 52.5736 70.2109 52.7638 70.9465C52.954 71.6821 53.3137 72.3629 53.8142 72.9345Z" fill="#17262F"></path><path d="M18.9826 78.5561C15.7307 78.5148 12.5625 77.5195 9.87136 75.6935C7.18018 73.8676 5.08448 71.2915 3.84441 68.2851C2.60137 65.113 2.4836 61.6106 3.51074 58.3622C4.28688 55.9177 5.79562 53.8867 7.13753 51.7252C5.39399 51.5291 3.76368 50.7638 2.49894 49.5478C1.23419 48.3317 0.405541 46.7327 0.141235 44.9982C-0.123072 43.2637 0.191707 41.4904 1.03685 39.9528C1.88199 38.4153 3.21037 37.1991 4.81639 36.4927C6.27252 35.9727 7.78021 35.6104 9.3136 35.4119L16.4439 33.9975C19.3453 33.4244 22.8415 32.1768 25.7792 33.2721C27.5582 33.9474 29.058 35.202 30.037 36.8336C30.7624 38.0232 31.2992 39.3578 31.9157 40.6055L34.9187 46.7057C35.6441 48.1564 36.4855 49.6071 36.7176 51.261C36.9743 53.0127 36.6412 54.8001 35.7706 56.3417C34.8999 57.8833 33.5413 59.0916 31.9086 59.7763C30.2758 60.4609 28.4618 60.5831 26.752 60.1236C25.0422 59.664 23.5338 58.6488 22.4643 57.2379C21.3908 59.015 20.3971 60.8647 19.2002 62.591L29.8775 62.504L36.1591 62.4532C38.0377 62.4532 39.7858 62.533 41.5049 63.4905C43.0381 64.3594 44.2405 65.7114 44.9245 67.3356C45.6084 68.9598 45.7354 70.7647 45.2856 72.4686C44.8358 74.1726 43.8345 75.6796 42.4381 76.7546C41.0416 77.8297 39.3286 78.4121 37.5663 78.4111L25.9605 78.5054C23.6394 78.5199 21.311 78.5561 18.9826 78.5561ZM10.155 48.2072C10.3867 48.2085 10.6154 48.2589 10.8262 48.355C11.037 48.4511 11.2249 48.5908 11.3778 48.7649C11.5306 48.939 11.6448 49.1435 11.7129 49.365C11.7809 49.5864 11.8013 49.8197 11.7726 50.0496C11.6959 50.4469 11.5297 50.8215 11.2866 51.1449L9.52395 54.0463C8.97994 54.9385 8.36338 55.7799 7.82662 56.6794C6.78625 58.4082 6.18599 60.3658 6.07851 62.3807C5.79562 69.5037 12.2368 75.3283 19.1349 75.2703L31.1904 75.205L36.8627 75.1615C37.3472 75.1761 37.8321 75.1543 38.3134 75.0962C39.5638 74.9769 40.7157 74.3658 41.5155 73.3972C42.3154 72.4287 42.6977 71.1821 42.5785 69.9316C42.4592 68.6812 41.8481 67.5293 40.8795 66.7295C39.911 65.9296 38.6644 65.5473 37.4139 65.6665L32.8297 65.7028L19.7732 65.8044C19.3056 65.8335 18.8362 65.8116 18.3733 65.7391C16.6325 65.3836 14.9061 63.563 15.791 61.7569C16.1465 61.0315 16.7267 60.3569 17.162 59.6533L18.9028 56.7519L20.6437 53.8505C21.1006 53.1251 21.5286 52.2474 22.5731 52.2982C24.0238 52.3635 24.2922 54.1914 25.0176 55.1489C25.7525 56.0331 26.7844 56.6192 27.9202 56.7978C29.056 56.9763 30.2179 56.735 31.1887 56.1189C32.1594 55.5029 32.8725 54.5543 33.1946 53.4506C33.5166 52.3468 33.4256 51.1636 32.9385 50.1221L30.465 45.3856L27.2589 39.1693C26.6714 38.0232 26.3812 37.2035 25.1844 36.5942C24.1128 36.102 22.9061 35.987 21.7607 36.2678L16.2553 37.3631L9.27733 38.7413C7.60176 39.075 5.84639 39.2418 4.59153 40.5547C3.97925 41.1988 3.56055 42.0022 3.38327 42.8731C3.20598 43.7439 3.27727 44.6471 3.58899 45.4793C3.9007 46.3115 4.44026 47.0393 5.14601 47.5794C5.85176 48.1195 6.69522 48.4502 7.58 48.5336C8.45768 48.5989 9.27008 48.2072 10.155 48.2072Z" fill="#17262F"></path></g><defs><clipPath id="clip0_5678_33272"><rect width="95" height="87.6449" fill="white"></rect></clipPath></defs></svg>