<svg xmlns="http://www.w3.org/2000/svg" width="129" height="100" viewBox="0 0 129 100" fill="none"><g clip-path="url(#clip0_5678_26547)"><path d="M74.2294 100C59.6083 100 45.8328 96.6619 35.4401 90.6866C25.0473 84.7113 19.1387 76.5328 19.1387 67.8758C19.1387 59.2189 24.847 51.3186 35.1953 45.3433C45.5435 39.368 59.0631 36.1745 73.5507 36.1745C88.0383 36.1745 101.958 39.5127 112.34 45.488C122.722 51.4633 128.641 59.6417 128.641 68.2764C128.641 76.9111 122.944 84.8337 112.585 90.809C102.225 96.7843 88.7281 99.9778 74.2405 99.9778L74.2294 100Z" fill="url(#paint0_linear_5678_26547)"></path><path d="M74.2294 98.776C59.6083 98.776 45.8328 95.4379 35.4401 89.4737C25.0473 83.5095 19.1387 75.3088 19.1387 66.6852C19.1387 58.0617 24.847 50.128 35.1953 44.1527C45.5435 38.1774 59.0631 34.9839 73.5507 34.9839C88.0383 34.9839 101.958 38.322 112.34 44.2862C122.722 50.2504 128.641 58.4511 128.641 67.0747C128.641 75.6982 122.944 83.6319 112.585 89.6072C102.225 95.5825 88.7281 98.776 74.2405 98.776H74.2294Z" fill="#F3EEEC"></path><path d="M127.949 67.1737C128.042 49.9362 103.912 35.8315 74.0516 35.6699C44.1917 35.5084 19.9098 49.3512 19.8166 66.5887C19.7233 83.8262 43.854 97.931 73.7139 98.0925C103.574 98.2541 127.856 84.4113 127.949 67.1737Z" fill="#AB8777"></path><path d="M35.8295 46.4449C56.7486 34.383 90.6977 34.4943 111.717 46.5784C124.024 53.6887 129.153 63.3471 127.117 72.5604C130.11 62.8352 125.07 52.4202 112.006 44.8759C90.8646 32.636 56.5928 32.636 35.5402 44.7424C22.6438 52.1865 17.7367 62.4903 20.6632 72.1709C18.638 63.0133 23.6898 53.4105 35.8295 46.4449Z" fill="#90604B"></path><path style="mix-blend-mode:multiply" d="M73.2502 52.6538L73.4394 45.6215L64.6823 45.9553C47.9915 40.9369 26.9166 42.4502 12.952 50.5063C-4.32849 60.5208 -4.23947 76.7108 13.1412 86.7475C21.3419 91.4877 31.9128 93.9913 42.606 94.2806H72.3934L72.5826 85.3789C86.4471 76.0209 86.6585 62.2232 73.2502 52.6538Z" fill="url(#paint1_linear_5678_26547)"></path><path d="M124.413 29.0531H123.857C122.31 23.0444 117.525 36.486 109.503 31.8571C89.7185 20.4295 57.7278 20.3739 38.055 31.7236C30.01 36.3748 25.2698 22.9888 23.8456 29.0531H23.3671V64.2706C23.0889 71.9818 28.0516 79.7708 38.2775 85.6793C58.0728 97.0958 90.0634 97.1626 109.725 85.8017C119.517 80.1602 124.402 72.7495 124.413 65.3166V29.0531Z" fill="url(#paint2_linear_5678_26547)"></path><g style="mix-blend-mode:multiply"><path d="M121.854 48.9596C122.101 48.8371 122.319 48.6642 122.495 48.4519C122.671 48.2397 122.8 47.993 122.874 47.7276C122.949 47.4623 122.967 47.1843 122.927 46.9116C122.887 46.6389 122.791 46.3775 122.644 46.1445L119.539 43.3961C118.344 45.5707 116.846 47.564 115.088 49.3157L114.732 49.1933L107.611 63.3471L97.2071 75.9431L87.6599 85.6794L75.9653 94.2584C76.7442 94.2584 77.5231 94.2584 78.302 94.1805L78.0349 94.0581L79.1476 93.2681L80.2604 93.8245L79.8153 94.1026L81.6624 93.9691L89.9633 87.8158L101.958 75.6649L110.293 65.2721L117.325 51.53L117.959 51.7637L121.854 48.9596ZM115.278 50.0724L115.467 50.1948L115.255 50.1169L115.278 50.0724ZM81.0838 93.1791L79.9711 92.6338L81.0281 91.8438L82.1409 92.3668L81.0838 93.1791ZM83.0088 91.7325L81.8961 91.2096L82.942 90.4418L84.0547 90.9425L83.0088 91.7325ZM84.9115 90.3194L83.7988 89.8187L84.7891 89.0175L85.9686 89.496L84.9115 90.3194ZM86.792 88.9174L85.6125 88.4389L86.6362 87.6823L87.838 88.1273L86.792 88.9174ZM89.2511 87.0814L88.6391 87.5376L87.4485 87.0814L88.4277 86.347L89.5404 86.7364L89.2511 87.0814ZM90.286 85.9687L89.1732 85.5792L90.0523 84.6779L91.2429 85.123L90.286 85.9687ZM91.8549 84.3886L90.6643 84.0103L91.5433 83.1201L92.7451 83.4873L91.8549 84.3886ZM93.3904 82.8308L92.1887 82.4636L93.0455 81.5734L94.2806 81.9406L93.3904 82.8308ZM94.926 81.2952L93.6909 80.9281L94.5811 80.1158L95.8384 80.4718L94.926 81.2952ZM96.4282 79.7708L95.1708 79.4148L96.0165 78.5468L97.3072 78.8918L96.4282 79.7708ZM97.9192 78.3243L96.6396 77.9793L97.4852 77.1114L98.7871 77.4452L97.9192 78.3243ZM99.388 76.8332L98.075 76.4883L98.8205 75.5759L100.256 75.9653L99.388 76.8332ZM101.257 75.0084L100.901 75.3645L99.3991 74.9305L100.145 74.0181L101.702 74.452L101.257 75.0084ZM102.214 73.8178L100.601 73.4395L101.714 72.2488L102.938 72.9499L102.214 73.8178ZM103.461 72.26L102.248 71.5701L102.982 70.6688L104.206 71.3364L103.461 72.26ZM104.596 70.7244L103.483 70.1013L104.206 69.2111L105.43 69.8676L104.596 70.7244ZM105.82 69.2L104.596 68.5546L105.319 67.6644L106.554 68.2987L105.82 69.2ZM107.032 67.6978L105.808 67.0636L106.521 66.1845L107.756 66.7965L107.032 67.6978ZM108.234 66.2068L107.043 65.6504L107.756 64.7714L109.046 65.3166L108.234 66.2068ZM109.425 64.7269L108.19 64.126L108.434 63.8367L108.735 63.2358L109.848 63.7811L109.425 64.7269ZM110.248 63.1134L109.069 62.5571L109.547 61.589L110.738 62.1342L110.248 63.1134ZM111.072 61.5222L109.859 60.9659L110.337 59.9978L111.561 60.5319L111.072 61.5222ZM111.895 59.9311L110.649 59.3747L111.127 58.4178L112.385 58.9741L111.895 59.9311ZM112.707 58.351L111.472 57.8614L111.939 56.9045L113.241 57.4497L112.707 58.351ZM113.508 56.7932L112.195 56.248L112.663 55.291L113.998 55.8362L113.508 56.7932ZM114.298 55.2465L112.963 54.7013L113.431 53.7555L114.788 54.3007L114.298 55.2465ZM115.088 53.711L113.72 53.1657L114.187 52.231L115.578 52.7651L115.088 53.711ZM115.867 52.1977L114.465 51.6524L114.933 50.7177L116.357 51.2519L115.867 52.1977Z" fill="#A9A6AB"></path></g><path d="M124.411 29.4408C124.498 13.334 101.952 0.154479 74.0522 0.00352667C46.1526 -0.147426 23.4649 12.7873 23.3778 28.8941C23.2906 45.0009 45.8371 58.1804 73.7366 58.3314C101.636 58.4823 124.324 45.5476 124.411 29.4408Z" fill="#EDE5E2"></path><path d="M124.411 29.4408C124.498 13.334 101.952 0.154479 74.0522 0.00352667C46.1526 -0.147426 23.4649 12.7873 23.3778 28.8941C23.2906 45.0009 45.8371 58.1804 73.7366 58.3314C101.636 58.4823 124.324 45.5476 124.411 29.4408Z" fill="url(#paint3_linear_5678_26547)"></path><path d="M123.542 29.023C123.628 13.1436 101.4 0.150123 73.8934 0.00129812C46.3871 -0.147527 24.0192 12.6046 23.9333 28.4841C23.8474 44.3635 46.076 57.3569 73.5823 57.5057C101.089 57.6546 123.456 44.9024 123.542 29.023Z" fill="url(#paint4_linear_5678_26547)"></path><path d="M120.519 41.0927C118.707 43.5317 116.543 45.6879 114.098 47.4908L118.338 49.9499L124.558 46.3559C124.814 46.2072 125.027 45.9938 125.175 45.737C125.323 45.4802 125.401 45.189 125.401 44.8926C125.401 44.5963 125.323 44.3051 125.175 44.0483C125.027 43.7915 124.814 43.5781 124.558 43.4294L120.519 41.0927Z" fill="#545454"></path><path d="M69.7786 94.6367L69.6339 94.481L84.3774 85.4457L94.136 76.5439L105.297 63.7922L113.965 46.8677L114.877 47.324L106.153 64.3597L106.109 64.4153L94.8481 77.2783L84.9894 86.2691L71.8371 94.3808L69.7786 94.6367Z" fill="#ADADAD"></path><path d="M72.0596 94.4587L69.7786 94.6367L84.5332 85.6126L94.2806 76.7108L105.452 63.9479L114.12 47.0235L115.033 47.4908L106.298 64.5266L106.253 64.5711L94.9928 77.4452L85.1452 86.436L72.0596 94.4587Z" fill="#7D7D7D"></path><path d="M72.4713 96.0387L71.5923 96.2056L70.6465 94.6033V94.3919L71.5255 94.4253L72.4713 96.0387Z" fill="#4C4C4C"></path><path d="M74.2739 94.9371L73.406 95.1152L72.4157 93.524V93.3126L73.2948 93.3348L74.2739 94.9371Z" fill="#4C4C4C"></path><path d="M76.0877 93.8467L75.2198 94.0248L74.1849 92.4447V92.2333L75.0529 92.2555L76.0877 93.8467Z" fill="#4D4D4D"></path><path d="M77.9014 92.7562L77.0335 92.9454L75.9542 91.3653V91.1539L76.8221 91.1762L77.9014 92.7562Z" fill="#4D4D4D"></path><path d="M79.704 91.6658L78.8472 91.8549L77.7234 90.286V90.0746L78.5802 90.0968L79.704 91.6658Z" fill="#4D4D4D"></path><path d="M81.5178 90.5642L80.661 90.7645L79.4926 89.2066V88.9952L80.3494 89.0064L81.5178 90.5642Z" fill="#4D4D4D"></path><path d="M83.3204 89.4737L82.4747 89.674L81.2618 88.1273V87.9159L82.1075 87.927L83.3204 89.4737Z" fill="#4E4E4E"></path><path d="M85.134 88.3832L84.2884 88.5835L83.031 87.048V86.8365L83.8767 86.8477L85.134 88.3832Z" fill="#4E4E4E"></path><path d="M86.9478 87.2816L86.1021 87.493L84.8002 85.9686V85.7572H85.6348L86.9478 87.2816Z" fill="#4E4E4E"></path><path d="M88.5168 85.8908L87.6933 86.1022L86.3358 84.5778V84.3775L87.1704 84.3663L88.5168 85.8908Z" fill="#4E4E4E"></path><path d="M90.0745 84.4665L89.2511 84.6779L87.8602 83.1757V82.9643L88.6836 82.9532L90.0745 84.4665Z" fill="#4F4F4F"></path><path d="M91.6435 83.0422L90.8201 83.2648L89.3735 81.7626V81.5512L90.1969 81.54L91.6435 83.0422Z" fill="#4F4F4F"></path><path d="M93.2013 81.6179L92.389 81.8405L90.8979 80.3606V80.1491L91.7102 80.1269L93.2013 81.6179Z" fill="#4F4F4F"></path><path d="M94.7591 80.1936L93.9468 80.4273L92.4113 78.9474V78.736L93.2235 78.7249L94.7591 80.1936Z" fill="#4F4F4F"></path><path d="M96.3169 78.7693L95.5157 79.003L93.9357 77.5342V77.3339L94.7368 77.3005L96.3169 78.7693Z" fill="#505050"></path><path d="M97.8747 77.3451L97.0847 77.5788L95.4601 76.1322V75.9208L96.2501 75.8986L97.8747 77.3451Z" fill="#505050"></path><path d="M99.3657 75.854L98.5646 76.0877L96.8955 74.6523V74.4409L97.6967 74.4075L99.3657 75.854Z" fill="#505050"></path><path d="M100.745 74.2629L99.9555 74.5077L98.2419 73.0723V72.8608L99.0319 72.8275L100.745 74.2629Z" fill="#505050"></path><path d="M102.136 72.6717L101.346 72.9165L99.5883 71.4922V71.2808L100.367 71.2474L102.136 72.6717Z" fill="#515151"></path><path d="M103.516 71.0693L102.737 71.3252L100.935 69.9121V69.7118L101.714 69.6673L103.516 71.0693Z" fill="#515151"></path><path d="M104.907 69.4781L104.128 69.7341L102.281 68.332V68.1317L103.049 68.0761L104.907 69.4781Z" fill="#515151"></path><path d="M106.287 67.887L105.519 68.154L103.627 66.7631V66.5517L104.395 66.4961L106.287 67.887Z" fill="#515151"></path><path d="M107.678 66.2958L106.91 66.5628L104.963 65.1831V64.9717L105.73 64.916L107.678 66.2958Z" fill="#525252"></path><path d="M108.713 64.4709L107.956 64.738L105.975 63.3693V63.1579L106.732 63.1023L108.713 64.4709Z" fill="#525252"></path><path d="M109.714 62.6127L108.957 62.8909L106.932 61.5334V61.322L107.678 61.2552L109.714 62.6127Z" fill="#525252"></path><path d="M110.715 60.7545L109.97 61.0326L107.889 59.6863V59.4748L108.635 59.4081L110.715 60.7545Z" fill="#525252"></path><path d="M111.706 58.9074L110.971 59.1855L108.846 57.8392V57.6389L109.58 57.561L111.706 58.9074Z" fill="#535353"></path><path d="M112.707 57.0491L111.973 57.3273L109.803 56.0032V55.7918L110.537 55.7139L112.707 57.0491Z" fill="#535353"></path><path d="M113.709 55.1908L112.974 55.4801L110.76 54.156V53.9446L111.483 53.8667L113.709 55.1908Z" fill="#535353"></path><path d="M114.699 53.3326L113.976 53.6219L111.717 52.3201V52.1087L112.44 52.0308L114.699 53.3326Z" fill="#535353"></path><path d="M115.7 51.4743L114.977 51.7748L112.674 50.4729V50.2615L113.397 50.1836L115.7 51.4743Z" fill="#545454"></path><path d="M116.702 49.6161L115.979 49.9165L113.631 48.6369V48.4255L114.343 48.3365L116.702 49.6161Z" fill="#545454"></path><path d="M72.4713 95.8273L71.5923 96.0053L70.6465 94.3919L71.5255 94.2139L72.4713 95.8273Z" fill="#919191"></path><path d="M74.2739 94.7257L73.406 94.9149L72.4157 93.3126L73.2948 93.1345L74.2739 94.7257Z" fill="#929292"></path><path d="M76.0877 93.6353L75.2198 93.8244L74.1849 92.2332L75.0529 92.0441L76.0877 93.6353Z" fill="#949494"></path><path d="M77.8903 92.5448L77.0335 92.7339L75.9542 91.1539L76.8221 90.9647L77.8903 92.5448Z" fill="#959595"></path><path d="M79.704 91.4544L78.8472 91.6435L77.7234 90.0746L78.5802 89.8854L79.704 91.4544Z" fill="#979797"></path><path d="M81.5066 90.3528L80.661 90.5531L79.4926 88.9953L80.3383 88.8061L81.5066 90.3528Z" fill="#989898"></path><path d="M83.3204 89.2623L82.4747 89.4626L81.2618 87.9159L82.1075 87.7156L83.3204 89.2623Z" fill="#999999"></path><path d="M85.1229 88.1718L84.2884 88.3721L83.031 86.8366L83.8655 86.6363L85.1229 88.1718Z" fill="#9B9B9B"></path><path d="M86.9367 87.0814L86.1021 87.2928L84.7891 85.7572L85.6348 85.5569L86.9367 87.0814Z" fill="#9C9C9C"></path><path d="M88.5168 85.6793L87.6822 85.8907L86.3358 84.3774L87.1592 84.166L88.5168 85.6793Z" fill="#9D9D9D"></path><path d="M90.0746 84.255L89.2511 84.4776L87.8491 82.9643L88.6837 82.7529L90.0746 84.255Z" fill="#9F9F9F"></path><path d="M91.6324 82.8308L90.8089 83.0533L89.3735 81.5623L90.1969 81.3397L91.6324 82.8308Z" fill="#A0A0A0"></path><path d="M93.1901 81.4065L92.3779 81.6402L90.8979 80.1491L91.7102 79.9266L93.1901 81.4065Z" fill="#A2A2A2"></path><path d="M94.7591 79.9933L93.9468 80.2159L92.4113 78.7471L93.2235 78.5134L94.7591 79.9933Z" fill="#A3A3A3"></path><path d="M96.3169 78.5691L95.5046 78.7916L93.9357 77.334L94.7368 77.1003L96.3169 78.5691Z" fill="#A4A4A4"></path><path d="M97.8747 77.1448L97.0735 77.3785L95.449 75.9208L96.2501 75.6871L97.8747 77.1448Z" fill="#A6A6A6"></path><path d="M99.3657 75.6426L98.5646 75.8874L96.8955 74.4409L97.6967 74.2072L99.3657 75.6426Z" fill="#A7A7A7"></path><path d="M100.745 74.0514L99.9555 74.2962L98.2419 72.8608L99.0319 72.616L100.745 74.0514Z" fill="#A9A9A9"></path><path d="M102.125 72.4602L101.346 72.705L99.5883 71.2807L100.367 71.0359L102.125 72.4602Z" fill="#AAAAAA"></path><path d="M103.516 70.8691L102.737 71.1139L100.935 69.7119L101.714 69.4559L103.516 70.8691Z" fill="#ABABAB"></path><path d="M104.896 69.2779L104.128 69.5338L102.281 68.1318L103.049 67.8759L104.896 69.2779Z" fill="#ADADAD"></path><path d="M106.287 67.6867L105.519 67.9426L103.627 66.5517L104.384 66.2958L106.287 67.6867Z" fill="#BFBFBF"></path><path d="M107.667 66.0955L106.91 66.3514L104.963 64.9716L105.73 64.7046L107.667 66.0955Z" fill="#C1C1C1"></path><path d="M108.713 64.2595L107.956 64.5266L105.964 63.1579L106.732 62.8909L108.713 64.2595Z" fill="#C2C2C2"></path><path d="M109.714 62.4124L108.957 62.6795L106.932 61.3219L107.678 61.0438L109.714 62.4124Z" fill="#C3C3C3"></path><path d="M110.715 60.5542L109.97 60.8212L107.889 59.4748L108.635 59.1967L110.715 60.5542Z" fill="#C5C5C5"></path><path d="M111.706 58.6959L110.971 58.9741L108.846 57.6388L109.58 57.3607L111.706 58.6959Z" fill="#C6C6C6"></path><path d="M112.707 56.8377L111.973 57.127L109.803 55.7917L110.537 55.5135L112.707 56.8377Z" fill="#C7C7C7"></path><path d="M113.709 54.9795L112.974 55.2688L110.76 53.9558L111.483 53.6664L113.709 54.9795Z" fill="#C9C9C9"></path><path d="M114.699 53.1212L113.976 53.4216L111.717 52.1086L112.44 51.8193L114.699 53.1212Z" fill="#CACACA"></path><path d="M115.7 51.263L114.977 51.5634L112.674 50.2615L113.397 49.9722L115.7 51.263Z" fill="#CCCCCC"></path><path d="M116.702 49.4047L115.979 49.7052L113.631 48.4256L114.343 48.1251L116.702 49.4047Z" fill="#CDCDCD"></path><path d="M72.7606 96.239L70.6687 96.4727L70.5908 96.3058L85.6236 87.6822L98.0193 76.5884L107.388 65.8618L116.758 48.4255L117.659 48.9151L108.234 66.4516L108.19 66.4961L98.7203 77.334L86.2245 88.5057L86.18 88.5279L72.7606 96.239Z" fill="#ADADAD"></path><path d="M72.8719 96.3837L70.6687 96.4727L85.7349 87.8269L98.1306 76.7442L107.5 66.0176L116.88 48.5702L117.77 49.0598L108.345 66.5962L108.312 66.6407L98.8427 77.4786L86.3469 88.6503L86.3024 88.6726L72.8719 96.3837Z" fill="#848484"></path><path d="M120.519 40.5809C118.707 43.0198 116.543 45.1761 114.098 46.979L118.338 49.4381L124.558 45.844C124.814 45.6954 125.027 45.482 125.175 45.2252C125.323 44.9684 125.401 44.6772 125.401 44.3808C125.401 44.0844 125.323 43.7932 125.175 43.5364C125.027 43.2796 124.814 43.0662 124.558 42.9176L120.519 40.5809Z" fill="#CDCDCD"></path><g style="mix-blend-mode:multiply"><path d="M118.46 49.1154L116.991 48.292L117.125 48.0583L118.449 48.8039L124.012 45.5881C124.225 45.4634 124.401 45.2853 124.523 45.0716C124.645 44.8579 124.71 44.6159 124.71 44.3697C124.71 44.1234 124.645 43.8815 124.523 43.6677C124.401 43.454 124.225 43.276 124.012 43.1512L120.34 41.0371L120.474 40.8034L124.146 42.9176C124.4 43.0639 124.611 43.2747 124.758 43.5286C124.905 43.7826 124.982 44.0708 124.982 44.3641C124.982 44.6575 124.905 44.9456 124.758 45.1996C124.611 45.4535 124.4 45.6643 124.146 45.8106L118.46 49.1154Z" fill="#C4C4C4"></path></g><path d="M117.347 48.2586V46.6452H117.058V48.2586C117.053 48.2671 117.05 48.2767 117.05 48.2865C117.05 48.2962 117.053 48.3058 117.058 48.3143C117.089 48.3308 117.123 48.3395 117.158 48.3395C117.193 48.3395 117.227 48.3308 117.258 48.3143C117.267 48.3215 117.278 48.3257 117.29 48.3264C117.301 48.327 117.313 48.3241 117.322 48.318C117.332 48.3119 117.34 48.3029 117.344 48.2923C117.349 48.2816 117.35 48.2699 117.347 48.2586Z" fill="url(#paint5_linear_5678_26547)"></path><path d="M118.571 48.8706V47.2683H118.271V48.8706C118.271 48.8706 118.271 48.8706 118.271 48.9374C118.304 48.954 118.34 48.9627 118.377 48.9627C118.413 48.9627 118.449 48.954 118.482 48.9374C118.492 48.939 118.503 48.9385 118.513 48.9359C118.523 48.9334 118.532 48.9289 118.541 48.9227C118.549 48.9165 118.556 48.9087 118.561 48.8997C118.566 48.8908 118.57 48.8809 118.571 48.8706Z" fill="url(#paint6_linear_5678_26547)"></path><path d="M121.909 47.0013V45.3878H121.609V47.0013C121.609 47.0013 121.609 47.0013 121.609 47.068C121.642 47.0846 121.678 47.0933 121.715 47.0933C121.751 47.0933 121.788 47.0846 121.82 47.068C121.82 47.068 121.909 47.0235 121.909 47.0013Z" fill="url(#paint7_linear_5678_26547)"></path><path d="M118.46 47.7134L116.958 46.8677L117.147 46.5339L118.449 47.2683L124.012 44.0637C124.216 43.9451 124.384 43.7753 124.501 43.5713C124.618 43.3673 124.68 43.1361 124.68 42.9009C124.68 42.6656 124.618 42.4345 124.501 42.2305C124.384 42.0265 124.216 41.8567 124.012 41.7381L120.329 39.6128L120.53 39.279L124.202 41.4043C124.464 41.5547 124.683 41.7717 124.835 42.0335C124.988 42.2952 125.069 42.5925 125.07 42.8953C125.073 43.2005 124.994 43.501 124.841 43.7653C124.689 44.0295 124.468 44.2479 124.202 44.3975L118.46 47.7134Z" fill="#F5AA2C"></path><path d="M117.347 46.7898V45.1764H117.058V46.7898C117.053 46.7983 117.05 46.8079 117.05 46.8177C117.05 46.8274 117.053 46.837 117.058 46.8455C117.089 46.862 117.123 46.8707 117.158 46.8707C117.193 46.8707 117.227 46.862 117.258 46.8455C117.267 46.8527 117.278 46.8569 117.29 46.8575C117.301 46.8582 117.313 46.8553 117.322 46.8492C117.332 46.8431 117.34 46.8341 117.344 46.8235C117.349 46.8128 117.35 46.8011 117.347 46.7898Z" fill="url(#paint8_linear_5678_26547)"></path><path d="M118.571 47.4129V45.7995H118.271V47.4129C118.304 47.4296 118.34 47.4382 118.377 47.4382C118.413 47.4382 118.449 47.4296 118.482 47.4129C118.482 47.4129 118.571 47.4241 118.571 47.4129Z" fill="url(#paint9_linear_5678_26547)"></path><path d="M121.909 45.5325V43.9302H121.609V45.5325C121.609 45.5325 121.609 45.5325 121.609 45.5993C121.642 45.6159 121.678 45.6245 121.715 45.6245C121.751 45.6245 121.788 45.6159 121.82 45.5993C121.82 45.5993 121.909 45.5547 121.909 45.5325Z" fill="url(#paint10_linear_5678_26547)"></path><path d="M118.46 46.2446L116.958 45.3989L117.147 45.0651L118.449 45.7995L124.012 42.5949C124.216 42.4763 124.384 42.3065 124.501 42.1025C124.618 41.8985 124.68 41.6673 124.68 41.4321C124.68 41.1968 124.618 40.9657 124.501 40.7617C124.384 40.5576 124.216 40.3879 124.012 40.2693L120.329 38.144L120.53 37.8102L124.202 39.9355C124.465 40.0864 124.684 40.3044 124.837 40.5672C124.989 40.83 125.069 41.1283 125.069 41.4321C125.069 41.7358 124.989 42.0342 124.837 42.297C124.684 42.5598 124.465 42.7777 124.202 42.9287L118.46 46.2446Z" fill="#F5AA2C"></path><path d="M117.347 45.321V43.7076H117.058V45.321C117.053 45.3295 117.05 45.3391 117.05 45.3488C117.05 45.3586 117.053 45.3682 117.058 45.3767C117.089 45.3932 117.123 45.4019 117.158 45.4019C117.193 45.4019 117.227 45.3932 117.258 45.3767C117.267 45.3839 117.278 45.3881 117.29 45.3887C117.301 45.3894 117.313 45.3865 117.322 45.3804C117.332 45.3743 117.34 45.3653 117.344 45.3546C117.349 45.344 117.35 45.3323 117.347 45.321Z" fill="url(#paint11_linear_5678_26547)"></path><path d="M118.571 45.9442V44.3307H118.271V45.9442C118.264 45.9621 118.264 45.9819 118.271 45.9998C118.304 46.0164 118.34 46.0251 118.377 46.0251C118.413 46.0251 118.449 46.0164 118.482 45.9998C118.491 46.007 118.502 46.0112 118.514 46.0119C118.525 46.0126 118.537 46.0096 118.546 46.0035C118.556 45.9974 118.564 45.9884 118.568 45.9778C118.573 45.9672 118.574 45.9554 118.571 45.9442Z" fill="url(#paint12_linear_5678_26547)"></path><path d="M121.909 44.0637V42.4614H121.609V44.0637C121.609 44.0637 121.609 44.0637 121.609 44.1304C121.642 44.1471 121.678 44.1557 121.715 44.1557C121.751 44.1557 121.788 44.1471 121.82 44.1304C121.82 44.1304 121.909 44.0859 121.909 44.0637Z" fill="url(#paint13_linear_5678_26547)"></path><path d="M124.413 40.1247V38.5112H124.113V40.1247V40.1914C124.145 40.2081 124.182 40.2167 124.218 40.2167C124.255 40.2167 124.291 40.2081 124.324 40.1914C124.334 40.193 124.345 40.1925 124.355 40.19C124.365 40.1875 124.374 40.183 124.383 40.1768C124.391 40.1705 124.398 40.1627 124.403 40.1538C124.408 40.1448 124.412 40.1349 124.413 40.1247Z" fill="url(#paint14_linear_5678_26547)"></path><path d="M118.46 44.7758L116.958 43.9413L117.147 43.5963L118.449 44.3307L124.012 41.1261C124.209 41.0127 124.374 40.851 124.491 40.6563C124.607 40.4616 124.673 40.2403 124.68 40.0134C124.681 39.7772 124.62 39.5449 124.503 39.3398C124.386 39.1347 124.216 38.9641 124.012 38.845L120.329 36.7197L120.53 36.3859L124.202 38.5112C124.465 38.6622 124.684 38.8801 124.837 39.1429C124.989 39.4057 125.069 39.7041 125.069 40.0078C125.069 40.3116 124.989 40.61 124.837 40.8728C124.684 41.1356 124.465 41.3535 124.202 41.5044L118.46 44.7758Z" fill="#F5AA2C"></path><g style="mix-blend-mode:multiply"><path d="M40.5808 45.232C40.376 45.1218 40.1502 45.0559 39.9183 45.0387C39.6863 45.0214 39.4533 45.0532 39.2344 45.1319C38.6144 45.0895 37.9915 45.1421 37.3873 45.2876C36.5148 45.7965 35.7045 46.4052 34.9727 47.1014C34.7884 47.3765 34.6212 47.6626 34.472 47.9582H34.0046V83.0978C34.472 83.376 34.9616 83.6431 35.4512 83.899V47.9582C35.5624 47.8135 37.365 46.545 37.6766 46.2891C38.0915 46.116 38.5414 46.0436 38.9896 46.0777C39.2158 46.1986 39.4676 46.2635 39.724 46.2668H40.4139C40.6809 46.2668 40.336 46.2001 40.5252 46.0888C40.9814 45.8663 40.9925 45.4768 40.5808 45.232Z" fill="#A9A6AB"></path></g><path d="M41.5489 45.2209H40.9925C40.6684 45.1319 40.3263 45.1319 40.0022 45.2209H39.3791V45.6215C39.3905 45.7156 39.4263 45.8052 39.4828 45.8813C39.5394 45.9574 39.6149 46.0174 39.7018 46.0554C39.9406 46.1732 40.2033 46.2345 40.4696 46.2345C40.7358 46.2345 40.9985 46.1732 41.2373 46.0554C41.3236 46.0149 41.3978 45.9525 41.4525 45.8745C41.5072 45.7964 41.5404 45.7053 41.5489 45.6103V45.2209Z" fill="url(#paint15_linear_5678_26547)"></path><path d="M41.2262 44.7869C40.9874 44.6692 40.7247 44.6079 40.4584 44.6079C40.1922 44.6079 39.9295 44.6692 39.6907 44.7869C39.2678 45.0317 39.2678 45.4323 39.6907 45.6771C39.9287 45.7974 40.1917 45.8601 40.4584 45.8601C40.7252 45.8601 40.9882 45.7974 41.2262 45.6771C41.6602 45.4212 41.6602 45.0317 41.2262 44.7869Z" fill="#F2EDEB"></path><g style="mix-blend-mode:multiply"><path d="M40.7811 44.7758H39.6684C39.2901 44.9984 39.2567 45.3544 39.5794 45.5992H40.4362L40.7811 44.7758Z" fill="#A9A6AB"></path></g><path d="M35.4067 84.077H34.906C34.6227 83.9935 34.3213 83.9935 34.038 84.077H33.4928V84.5666C33.502 84.6499 33.5324 84.7294 33.5811 84.7976C33.6298 84.8658 33.6952 84.9204 33.771 84.956C33.9821 85.0601 34.2143 85.1142 34.4497 85.1142C34.6851 85.1142 34.9174 85.0601 35.1285 84.956C35.2057 84.9222 35.2722 84.8682 35.3212 84.7996C35.3702 84.7311 35.3997 84.6506 35.4067 84.5666V84.077Z" fill="url(#paint16_linear_5678_26547)"></path><path d="M35.1174 83.6876C34.9098 83.5784 34.6788 83.5214 34.4442 83.5214C34.2096 83.5214 33.9786 83.5784 33.771 83.6876C33.4038 83.899 33.4038 84.2439 33.771 84.4665C33.9821 84.5705 34.2144 84.6246 34.4498 84.6246C34.6851 84.6246 34.9174 84.5705 35.1285 84.4665C35.2093 84.4375 35.279 84.384 35.3279 84.3135C35.3768 84.2429 35.4024 84.1589 35.4012 84.073C35.4 83.9872 35.372 83.9039 35.3211 83.8348C35.2702 83.7657 35.199 83.7142 35.1174 83.6876Z" fill="#B3A09F"></path><path d="M41.1706 45.1541C41.1683 44.7761 41.0636 44.4058 40.8677 44.0825C40.6718 43.7592 40.3919 43.4951 40.0579 43.3181C39.7384 43.127 39.3731 43.026 39.0008 43.026C38.6285 43.026 38.2631 43.127 37.9437 43.3181L35.874 44.5088C35.2351 44.8802 34.7047 45.4127 34.3357 46.0531C33.9667 46.6935 33.772 47.4194 33.771 48.1585V84.0103C33.781 84.0688 33.8042 84.1243 33.8389 84.1726C33.8736 84.2208 33.9189 84.2604 33.9713 84.2884C34.1222 84.3614 34.2877 84.3992 34.4553 84.3992C34.6229 84.3992 34.7884 84.3614 34.9393 84.2884C34.9934 84.2639 35.0397 84.225 35.073 84.1759C35.1064 84.1269 35.1256 84.0695 35.1285 84.0103V48.1696C35.1279 47.6703 35.2581 47.1796 35.506 46.7462C35.7539 46.3128 36.111 45.9519 36.5417 45.6994L38.6447 44.5088C38.7589 44.4401 38.8897 44.4038 39.023 44.4038C39.1563 44.4038 39.2871 44.4401 39.4014 44.5088C39.5173 44.5744 39.6136 44.6699 39.6801 44.7854C39.7467 44.9008 39.781 45.032 39.7797 45.1653C39.7836 45.2258 39.8044 45.2839 39.8398 45.3331C39.8752 45.3823 39.9238 45.4206 39.98 45.4434C40.1309 45.5164 40.2964 45.5542 40.464 45.5542C40.6316 45.5542 40.7971 45.5164 40.948 45.4434C41.0043 45.4176 41.0526 45.3771 41.0878 45.3262C41.1231 45.2753 41.144 45.2159 41.1483 45.1541H41.1706Z" fill="url(#paint17_linear_5678_26547)"></path><path d="M34.8726 84.3107H34.9393C34.9934 84.2862 35.0397 84.2473 35.073 84.1982C35.1064 84.1491 35.1256 84.0918 35.1285 84.0325V48.1696C35.1109 49.0719 35.0291 49.9717 34.8837 50.8624C34.7502 51.4188 34.8281 74.2406 34.8726 84.3107Z" fill="#DE8601"></path><path d="M34.1827 84.0102V48.1696C34.1795 47.4282 34.3723 46.6991 34.7416 46.0562C35.1109 45.4133 35.6436 44.8794 36.2857 44.5087L38.3665 43.307C38.6302 43.1568 38.9217 43.0622 39.2233 43.0288C38.785 42.9814 38.3433 43.0792 37.9659 43.307L35.874 44.5087C35.2351 44.8802 34.7047 45.4127 34.3357 46.0531C33.9667 46.6935 33.772 47.4194 33.771 48.1585V84.0102C33.781 84.0688 33.8042 84.1243 33.8389 84.1726C33.8736 84.2208 33.9189 84.2604 33.9713 84.2884L34.1827 84.3663V84.0102Z" fill="url(#paint18_linear_5678_26547)"></path><path d="M40.0578 45.1986C40.0592 45.0654 40.0248 44.9342 39.9583 44.8187C39.8918 44.7033 39.7955 44.6078 39.6795 44.5421C39.5331 44.4636 39.3659 44.4325 39.201 44.4531C39.2838 44.4681 39.363 44.4982 39.4347 44.5421C39.5507 44.6078 39.647 44.7033 39.7135 44.8187C39.78 44.9342 39.8144 45.0654 39.813 45.1986C39.8169 45.2591 39.8378 45.3173 39.8732 45.3665C39.9086 45.4157 39.9572 45.4539 40.0133 45.4768C40.0578 45.3433 40.0578 45.2209 40.0578 45.1986Z" fill="#E59519"></path><g style="mix-blend-mode:multiply"><path d="M44.5755 47.6355C44.1538 47.4248 43.666 47.3888 43.218 47.5353C42.6017 47.4992 41.9834 47.5516 41.382 47.6911C40.5022 48.2037 39.6845 48.816 38.9451 49.516C38.7579 49.7913 38.587 50.0774 38.4333 50.3728H37.9771V85.5013C38.4444 85.7906 38.934 86.0465 39.4236 86.3136V50.3728C39.5349 50.2281 41.3375 48.9596 41.649 48.7037C42.0639 48.5306 42.5138 48.4582 42.962 48.4923C43.1875 48.6149 43.4398 48.6798 43.6964 48.6814H44.5087C44.7758 48.6814 44.4308 48.6147 44.62 48.4923C44.976 48.2697 44.9872 47.8469 44.5755 47.6355Z" fill="#A9A6AB"></path></g><path d="M45.5435 47.6355H44.9761C44.6528 47.5406 44.309 47.5406 43.9857 47.6355H43.396V48.114C43.4022 48.2096 43.4345 48.3017 43.4894 48.3801C43.5444 48.4586 43.6198 48.5205 43.7076 48.5591C43.9456 48.6793 44.2086 48.742 44.4753 48.742C44.7421 48.742 45.005 48.6793 45.2431 48.5591C45.3329 48.5221 45.4107 48.4609 45.4677 48.3823C45.5246 48.3037 45.5586 48.2108 45.5658 48.114L45.5435 47.6355Z" fill="url(#paint19_linear_5678_26547)"></path><path d="M45.2209 47.1904C44.9828 47.0701 44.7198 47.0074 44.4531 47.0074C44.1864 47.0074 43.9234 47.0701 43.6853 47.1904C43.591 47.2206 43.5087 47.28 43.4503 47.36C43.3919 47.44 43.3605 47.5365 43.3605 47.6355C43.3605 47.7345 43.3919 47.831 43.4503 47.911C43.5087 47.991 43.591 48.0504 43.6853 48.0806C43.9234 48.2009 44.1864 48.2635 44.4531 48.2635C44.7198 48.2635 44.9828 48.2009 45.2209 48.0806C45.3152 48.0504 45.3975 47.991 45.4559 47.911C45.5143 47.831 45.5457 47.7345 45.5457 47.6355C45.5457 47.5365 45.5143 47.44 45.4559 47.36C45.3975 47.28 45.3152 47.2206 45.2209 47.1904Z" fill="#F2EDEB"></path><g style="mix-blend-mode:multiply"><path d="M44.7758 47.1904H43.663C43.2736 47.413 43.2513 47.7579 43.5629 48.0027H44.5087L44.7758 47.1904Z" fill="#A9A6AB"></path></g><path d="M39.3902 86.4805H38.9451C38.6618 86.397 38.3605 86.397 38.0772 86.4805H37.532V86.9924C37.5397 87.0747 37.5697 87.1534 37.6187 87.2201C37.6677 87.2867 37.7339 87.3388 37.8102 87.3707C38.0183 87.478 38.2491 87.534 38.4834 87.534C38.7176 87.534 38.9484 87.478 39.1566 87.3707C39.3457 87.2594 39.4459 87.1148 39.4347 86.9812L39.3902 86.4805Z" fill="url(#paint20_linear_5678_26547)"></path><path d="M39.1121 86.1022C38.9039 85.9948 38.6731 85.9388 38.4389 85.9388C38.2047 85.9388 37.9738 85.9948 37.7657 86.1022C37.3874 86.3247 37.3874 86.6697 37.7657 86.8811C37.9738 86.9885 38.2047 87.0445 38.4389 87.0445C38.6731 87.0445 38.9039 86.9885 39.1121 86.8811C39.4904 86.6586 39.4904 86.3136 39.1121 86.1022Z" fill="#B3A09F"></path><path d="M45.1318 47.5688C45.1305 47.1969 45.0316 46.8319 44.845 46.5102C44.6584 46.1885 44.3907 45.9215 44.0686 45.7356C43.7465 45.5498 43.3813 45.4517 43.0094 45.4512C42.6375 45.4507 42.2721 45.5478 41.9494 45.7328L39.8687 46.9345C39.2298 47.3033 38.6993 47.8337 38.3301 48.4723C37.961 49.111 37.7663 49.8355 37.7656 50.5731V86.4249C37.7656 86.5287 37.8324 86.6178 37.9659 86.6919C38.1136 86.769 38.2778 86.8092 38.4444 86.8092C38.611 86.8092 38.7751 86.769 38.9229 86.6919C38.9781 86.671 39.0263 86.6348 39.0618 86.5875C39.0972 86.5402 39.1185 86.4838 39.1231 86.4249V50.5731C39.1234 50.0742 39.2552 49.5841 39.5052 49.1524C39.7553 48.7206 40.1148 48.3625 40.5474 48.114L42.6282 46.9011C42.7463 46.8378 42.8781 46.8047 43.0121 46.8047C43.146 46.8047 43.2779 46.8378 43.396 46.9011C43.5121 46.9694 43.6081 47.0671 43.6745 47.1843C43.7409 47.3015 43.7753 47.4341 43.7743 47.5688C43.7806 47.6286 43.8023 47.6857 43.8374 47.7345C43.8726 47.7833 43.9199 47.822 43.9746 47.8469C44.1255 47.9199 44.291 47.9577 44.4586 47.9577C44.6263 47.9577 44.7917 47.9199 44.9427 47.8469C44.9967 47.8225 45.043 47.7835 45.0764 47.7345C45.1097 47.6854 45.1289 47.628 45.1318 47.5688Z" fill="url(#paint21_linear_5678_26547)"></path><path d="M38.8673 86.7253C38.9225 86.7043 38.9707 86.6681 39.0062 86.6208C39.0416 86.5735 39.0629 86.5171 39.0675 86.4582V50.5731C39.0921 51.4724 39.0512 52.3724 38.9451 53.2658C38.7337 53.8333 38.8227 76.6552 38.8673 86.7253Z" fill="#DE8601"></path><path d="M38.1662 86.4249V50.5731C38.1692 49.8346 38.366 49.1098 38.737 48.4712C39.108 47.8327 39.6402 47.3028 40.2804 46.9345L42.3612 45.7327C42.624 45.5808 42.916 45.486 43.2179 45.4546C42.7762 45.4088 42.3315 45.5063 41.9494 45.7327L39.8687 46.9345C39.2298 47.3033 38.6993 47.8336 38.3301 48.4723C37.961 49.1109 37.7663 49.8354 37.7656 50.5731V86.4249C37.7656 86.5287 37.8324 86.6177 37.9659 86.6919C38.0277 86.7293 38.0954 86.7556 38.1662 86.7698V86.4249Z" fill="url(#paint22_linear_5678_26547)"></path><path d="M44.0191 47.6132C44.0202 47.4785 43.9857 47.346 43.9193 47.2288C43.8529 47.1116 43.7569 47.0139 43.6408 46.9456C43.489 46.8711 43.3195 46.8403 43.1512 46.8566C43.236 46.8766 43.3182 46.9064 43.396 46.9456C43.5121 47.0139 43.6081 47.1116 43.6745 47.2288C43.7409 47.346 43.7754 47.4785 43.7743 47.6132C43.7806 47.673 43.8023 47.7302 43.8375 47.779C43.8726 47.8278 43.9199 47.8665 43.9746 47.8914L44.0191 47.6132Z" fill="#E59519"></path></g><defs><linearGradient id="paint0_linear_5678_26547" x1="19.1387" y1="68.0984" x2="128.641" y2="68.0984" gradientUnits="userSpaceOnUse"><stop stop-color="#917D80"></stop><stop offset="0.03" stop-color="#968385"></stop><stop offset="0.22" stop-color="#B3A19F"></stop><stop offset="0.41" stop-color="#C8B7B3"></stop><stop offset="0.59" stop-color="#D5C4BE"></stop><stop offset="0.75" stop-color="#D9C9C2"></stop></linearGradient><linearGradient id="paint1_linear_5678_26547" x1="27.2171" y1="94.8704" x2="60.0979" y2="37.9103" gradientUnits="userSpaceOnUse"><stop offset="0.11" stop-color="#AEACBA"></stop><stop offset="0.99" stop-color="#7B738C"></stop></linearGradient><linearGradient id="paint2_linear_5678_26547" x1="23.3782" y1="58.7627" x2="124.413" y2="58.7627" gradientUnits="userSpaceOnUse"><stop stop-color="#9A878A"></stop><stop offset="0.16" stop-color="#917D80"></stop><stop offset="0.41" stop-color="#B5A3A1"></stop><stop offset="0.63" stop-color="#CFBFB9"></stop><stop offset="0.75" stop-color="#D9C9C2"></stop></linearGradient><linearGradient id="paint3_linear_5678_26547" x1="43.3401" y1="67.5232" x2="83.8431" y2="16.6831" gradientUnits="userSpaceOnUse"><stop offset="0.1" stop-color="#C9BBB4"></stop><stop offset="0.16" stop-color="#CEC1BA"></stop><stop offset="0.48" stop-color="#E3DAD6"></stop><stop offset="0.76" stop-color="#EFEAE7"></stop><stop offset="0.97" stop-color="#F4EFED"></stop></linearGradient><linearGradient id="paint4_linear_5678_26547" x1="49.5905" y1="59.0763" x2="89.5037" y2="8.95944" gradientUnits="userSpaceOnUse"><stop offset="0.1" stop-color="#C9BBB4"></stop><stop offset="0.16" stop-color="#CEC1BA"></stop><stop offset="0.48" stop-color="#E3DAD6"></stop><stop offset="0.76" stop-color="#EFEAE7"></stop><stop offset="0.97" stop-color="#F4EFED"></stop></linearGradient><linearGradient id="paint5_linear_5678_26547" x1="117.058" y1="47.4909" x2="117.347" y2="47.4909" gradientUnits="userSpaceOnUse"><stop stop-color="#E08D10"></stop><stop offset="0.1" stop-color="#E89B21"></stop><stop offset="0.32" stop-color="#F9B642"></stop><stop offset="0.43" stop-color="#FFC04F"></stop></linearGradient><linearGradient id="paint6_linear_5678_26547" x1="118.271" y1="48.114" x2="118.571" y2="48.114" gradientUnits="userSpaceOnUse"><stop stop-color="#E08D10"></stop><stop offset="0.1" stop-color="#E89B21"></stop><stop offset="0.32" stop-color="#F9B642"></stop><stop offset="0.43" stop-color="#FFC04F"></stop></linearGradient><linearGradient id="paint7_linear_5678_26547" x1="121.609" y1="46.2446" x2="121.909" y2="46.2446" gradientUnits="userSpaceOnUse"><stop stop-color="#E08D10"></stop><stop offset="0.1" stop-color="#E89B21"></stop><stop offset="0.32" stop-color="#F9B642"></stop><stop offset="0.43" stop-color="#FFC04F"></stop></linearGradient><linearGradient id="paint8_linear_5678_26547" x1="117.058" y1="46.0221" x2="117.347" y2="46.0221" gradientUnits="userSpaceOnUse"><stop stop-color="#E08D10"></stop><stop offset="0.1" stop-color="#E89B21"></stop><stop offset="0.32" stop-color="#F9B642"></stop><stop offset="0.43" stop-color="#FFC04F"></stop></linearGradient><linearGradient id="paint9_linear_5678_26547" x1="118.271" y1="46.6452" x2="118.571" y2="46.6452" gradientUnits="userSpaceOnUse"><stop stop-color="#E08D10"></stop><stop offset="0.1" stop-color="#E89B21"></stop><stop offset="0.32" stop-color="#F9B642"></stop><stop offset="0.43" stop-color="#FFC04F"></stop></linearGradient><linearGradient id="paint10_linear_5678_26547" x1="121.609" y1="44.7758" x2="121.909" y2="44.7758" gradientUnits="userSpaceOnUse"><stop stop-color="#E08D10"></stop><stop offset="0.1" stop-color="#E89B21"></stop><stop offset="0.32" stop-color="#F9B642"></stop><stop offset="0.43" stop-color="#FFC04F"></stop></linearGradient><linearGradient id="paint11_linear_5678_26547" x1="117.058" y1="44.5532" x2="117.347" y2="44.5532" gradientUnits="userSpaceOnUse"><stop stop-color="#E08D10"></stop><stop offset="0.1" stop-color="#E89B21"></stop><stop offset="0.32" stop-color="#F9B642"></stop><stop offset="0.43" stop-color="#FFC04F"></stop></linearGradient><linearGradient id="paint12_linear_5678_26547" x1="118.271" y1="45.1764" x2="118.571" y2="45.1764" gradientUnits="userSpaceOnUse"><stop stop-color="#E08D10"></stop><stop offset="0.1" stop-color="#E89B21"></stop><stop offset="0.32" stop-color="#F9B642"></stop><stop offset="0.43" stop-color="#FFC04F"></stop></linearGradient><linearGradient id="paint13_linear_5678_26547" x1="121.609" y1="43.307" x2="121.909" y2="43.307" gradientUnits="userSpaceOnUse"><stop stop-color="#E08D10"></stop><stop offset="0.1" stop-color="#E89B21"></stop><stop offset="0.32" stop-color="#F9B642"></stop><stop offset="0.43" stop-color="#FFC04F"></stop></linearGradient><linearGradient id="paint14_linear_5678_26547" x1="124.113" y1="39.368" x2="124.413" y2="39.368" gradientUnits="userSpaceOnUse"><stop stop-color="#E08D10"></stop><stop offset="0.1" stop-color="#E89B21"></stop><stop offset="0.32" stop-color="#F9B642"></stop><stop offset="0.43" stop-color="#FFC04F"></stop></linearGradient><linearGradient id="paint15_linear_5678_26547" x1="39.3791" y1="45.7105" x2="41.5489" y2="45.7105" gradientUnits="userSpaceOnUse"><stop stop-color="#9A878A"></stop><stop offset="0.16" stop-color="#917D80"></stop><stop offset="0.41" stop-color="#B5A3A1"></stop><stop offset="0.63" stop-color="#CFBFB9"></stop><stop offset="0.75" stop-color="#D9C9C2"></stop></linearGradient><linearGradient id="paint16_linear_5678_26547" x1="33.4928" y1="84.5443" x2="35.4067" y2="84.5443" gradientUnits="userSpaceOnUse"><stop stop-color="#9A878A"></stop><stop offset="0.16" stop-color="#917D80"></stop><stop offset="0.52" stop-color="#A79494"></stop></linearGradient><linearGradient id="paint17_linear_5678_26547" x1="31.5567" y1="64.6601" x2="54.4008" y2="60.4651" gradientUnits="userSpaceOnUse"><stop stop-color="#E08D10"></stop><stop offset="0.1" stop-color="#E89B21"></stop><stop offset="0.32" stop-color="#F9B642"></stop><stop offset="0.43" stop-color="#FFC04F"></stop></linearGradient><linearGradient id="paint18_linear_5678_26547" x1="33.771" y1="63.692" x2="39.2233" y2="63.692" gradientUnits="userSpaceOnUse"><stop offset="0.23" stop-color="#DE8601"></stop><stop offset="0.81" stop-color="#FFC04F"></stop></linearGradient><linearGradient id="paint19_linear_5678_26547" x1="43.3737" y1="48.1251" x2="45.5435" y2="48.1251" gradientUnits="userSpaceOnUse"><stop stop-color="#9A878A"></stop><stop offset="0.16" stop-color="#917D80"></stop><stop offset="0.41" stop-color="#B5A3A1"></stop><stop offset="0.63" stop-color="#CFBFB9"></stop><stop offset="0.75" stop-color="#D9C9C2"></stop></linearGradient><linearGradient id="paint20_linear_5678_26547" x1="37.4875" y1="86.959" x2="39.3902" y2="86.959" gradientUnits="userSpaceOnUse"><stop stop-color="#9A878A"></stop><stop offset="0.16" stop-color="#917D80"></stop><stop offset="0.52" stop-color="#A79494"></stop></linearGradient><linearGradient id="paint21_linear_5678_26547" x1="35.5513" y1="67.0747" x2="58.3954" y2="62.8686" gradientUnits="userSpaceOnUse"><stop stop-color="#E08D10"></stop><stop offset="0.1" stop-color="#E89B21"></stop><stop offset="0.32" stop-color="#F9B642"></stop><stop offset="0.43" stop-color="#FFC04F"></stop></linearGradient><linearGradient id="paint22_linear_5678_26547" x1="37.7656" y1="66.1066" x2="43.2179" y2="66.1066" gradientUnits="userSpaceOnUse"><stop offset="0.23" stop-color="#DE8601"></stop><stop offset="0.81" stop-color="#FFC04F"></stop></linearGradient><clipPath id="clip0_5678_26547"><rect width="128.641" height="100" fill="white"></rect></clipPath></defs></svg>