<svg xmlns="http://www.w3.org/2000/svg" width="98" height="90" viewBox="0 0 98 90" fill="none"><g clip-path="url(#clip0_5678_33115)"><path d="M97.865 44.9964C97.8506 34.2602 94.0041 23.8819 87.018 15.7297C80.0319 7.57744 70.3651 2.18683 59.7579 0.528273C57.4784 0.17628 55.1752 -0.000320193 52.8687 2.68662e-05C46.0448 -0.0176082 39.308 1.53107 33.1768 4.52681C32.9709 4.61495 32.7851 4.74426 32.631 4.90681C32.4768 5.06935 32.3575 5.2617 32.2804 5.47203C32.2033 5.68235 32.17 5.90623 32.1826 6.12989C32.1952 6.35355 32.2533 6.57229 32.3535 6.77265C32.4537 6.97302 32.5938 7.15079 32.7652 7.29504C32.9366 7.43929 33.1356 7.54698 33.3502 7.6115C33.5647 7.67601 33.7901 7.69598 34.0127 7.67019C34.2352 7.6444 34.4501 7.57338 34.6442 7.46151C40.321 4.69863 46.5553 3.27306 52.8687 3.29423C53.3162 3.29423 53.7564 3.29423 54.1966 3.29423C50.2861 6.52974 48.9435 11.1079 50.4255 16.5958C50.5293 16.9723 50.7633 17.2999 51.0858 17.5202C51.7204 17.9049 52.4313 18.1462 53.1689 18.2273C53.9065 18.3084 54.6529 18.2274 55.3558 17.9898C56.1031 17.8144 56.8059 17.4859 57.4196 17.0249C58.0334 16.564 58.5448 15.9806 58.9215 15.3118C59.2212 15.122 59.5597 15.0017 59.912 14.9597C59.6364 15.5205 59.2966 16.0473 58.8995 16.5297C57.5936 18.1732 55.1724 19.5965 52.92 18.8335C52.5852 18.7164 52.2213 18.7118 51.8836 18.8203C51.546 18.9289 51.253 19.1448 51.0492 19.4351C49.7946 21.2033 50.587 23.573 51.2839 25.6567C51.6141 26.6545 52.2377 28.496 51.9809 28.9069C51.4747 29.3544 48.7968 29.0829 47.6596 28.9729C46.6511 28.8331 45.6323 28.7815 44.6148 28.8188C44.245 28.8542 43.8982 29.0144 43.6315 29.2731C43.3648 29.5318 43.1941 29.8735 43.1475 30.2421C42.744 33.1768 43.9472 38.1071 47.168 39.237C50.8364 40.4916 55.2898 36.427 56.1556 35.5686C56.5287 35.1759 56.8697 34.7539 57.1754 34.3067C58.8115 32.1057 59.9853 30.8878 61.1445 31.5114C61.2032 31.5114 67.6596 34.4461 69.9046 33.507C70.1954 33.3986 70.4496 33.2104 70.6383 32.9641C71.372 31.9369 71.6068 30.2715 71.9076 27.4175C72.2377 24.3214 72.722 19.7212 74.4974 19.0829C74.4974 19.5158 74.358 20.1027 74.2847 20.5503C74.0059 22.1424 73.6977 23.9545 74.2847 25.554C74.3145 25.6269 74.3488 25.698 74.3874 25.7667C75.73 28.1512 77.6229 28.2099 79.0022 28.2465C79.5855 28.2378 80.1675 28.3044 80.7337 28.4446C80.121 29.1674 79.4295 29.8195 78.6721 30.3889C78.2172 30.7631 77.777 31.1226 77.4101 31.4674C72.069 36.4637 64.989 37.0947 59.8019 37.5642C55.8401 37.9164 52.7073 38.2025 52.1937 40.8071C51.3573 45.2018 58.3272 54.7249 59.4277 56.0162C63.8298 61.2179 70.8291 59.8533 75.9575 58.8555C78.452 58.3713 81.0345 57.8724 82.0543 58.4006C83.6464 59.2297 83.8885 61.8049 83.3089 63.8078C82.9803 64.8526 82.5833 65.8746 82.1203 66.8672C81.3744 68.4148 80.8224 70.0486 80.4769 71.7315C80.2554 73.135 80.3839 74.5716 80.8511 75.9135C73.1968 82.8666 63.2243 86.7148 52.8834 86.7058C51.6361 86.7058 50.4035 86.6398 49.215 86.5371C48.8335 80.9073 48.4544 75.2825 48.0778 69.6625C48.0646 67.6911 47.6632 65.7415 46.8966 63.9252C45.7161 61.6678 43.7113 59.952 41.2986 59.1343C40.8975 59.011 40.4645 59.0451 40.0876 59.2296C39.7107 59.4141 39.4183 59.7353 39.2697 60.1277C39.1211 60.5202 39.1276 60.9545 39.2878 61.3424C39.448 61.7302 39.7499 62.0425 40.1321 62.2157C41.7552 62.7509 43.1156 63.8806 43.9398 65.3779C44.4865 66.8088 44.7627 68.3288 44.7542 69.8606C45.1113 75.285 45.4757 80.7019 45.8474 86.1116C42.4962 85.537 39.2287 84.5513 36.1189 83.1769C35.9209 83.0901 35.7077 83.0433 35.4916 83.0389C35.2755 83.0346 35.0607 83.0729 34.8594 83.1515C34.658 83.2302 34.4742 83.3478 34.3183 83.4975C34.1624 83.6473 34.0376 83.8263 33.9509 84.0242C33.8641 84.2222 33.8173 84.4354 33.8129 84.6515C33.8086 84.8676 33.8469 85.0824 33.9255 85.2838C34.0042 85.4851 34.1218 85.6689 34.2715 85.8248C34.4213 85.9807 34.6003 86.1056 34.7982 86.1923C42.8914 89.7378 51.8498 90.82 60.5545 89.3038C69.2591 87.7876 77.324 83.7401 83.7418 77.6669C83.9048 77.5624 84.0467 77.4279 84.16 77.2708C88.4932 73.0861 91.9397 68.0719 94.2943 62.5272C96.6488 56.9824 97.8632 51.0204 97.865 44.9964ZM83.5583 55.4806C81.5187 54.4168 78.6427 54.9817 75.3118 55.6273C70.5062 56.5591 65.0404 57.6156 61.9296 53.8959C59.3324 50.8071 55.2531 43.7491 55.4145 41.6361C56.0455 41.2546 58.3492 41.0492 60.1027 40.9025C65.4292 40.4182 73.4703 39.6992 79.6405 33.9325C79.9633 33.6317 80.3742 33.3236 80.741 33.0008C82.5459 31.5334 85.2825 29.3324 83.7197 26.5664C83.5709 26.2974 83.3465 26.078 83.0741 25.9355C81.8421 25.2987 80.4693 24.9833 79.0829 25.0184C77.9457 24.9817 77.6963 24.9743 77.3001 24.2847C77.1571 23.2315 77.2169 22.1606 77.4762 21.1299C77.777 19.3837 78.0631 17.733 76.9846 16.5811C76.6519 16.2466 76.2434 15.9973 75.7939 15.8543C75.3443 15.7112 74.8669 15.6787 74.4021 15.7594C69.7359 16.2509 69.0682 22.5165 68.584 27.0947C68.4666 28.1805 68.3199 29.5598 68.1438 30.3889C66.2733 29.9768 64.4458 29.3897 62.6853 28.6354C58.7674 26.5444 55.8768 30.4916 54.4901 32.3845C54.2553 32.7073 53.9619 33.1181 53.8518 33.2209C51.7682 35.2238 49.303 36.4931 48.2245 36.1556C47.3441 35.8474 46.5444 33.9545 46.3683 32.179L47.3221 32.2744C50.1688 32.5606 53.3896 32.8907 54.7469 30.7117C55.8474 28.9582 55.1137 26.7645 54.4021 24.6442C54.14 23.8908 53.9172 23.1243 53.7344 22.3478C55.2315 22.3882 56.7165 22.0688 58.0646 21.4164C59.4128 20.7641 60.5847 19.7978 61.482 18.5987C62.1203 17.7843 64.0646 15.3192 63.0521 13.2722C62.7605 12.7446 62.3212 12.3136 61.7882 12.0321C61.2551 11.7506 60.6515 11.6308 60.0514 11.6875C58.5106 11.6875 56.6104 12.4725 55.9721 13.8885C55.612 14.3708 55.0917 14.7089 54.5048 14.8423C54.1604 14.9463 53.7998 14.9861 53.4409 14.9597C52.3624 9.88998 54.4608 6.15557 59.6699 3.84449C67.0795 5.06303 74.0223 8.26107 79.7641 13.1005C85.5059 17.9399 89.8334 24.2409 92.289 31.3372C94.7446 38.4335 95.2372 46.0615 93.7146 53.4148C92.192 60.768 88.7108 67.5732 83.639 73.1108C83.6386 72.8307 83.6606 72.551 83.7051 72.2744C84.0037 70.8578 84.4743 69.483 85.1064 68.1805C85.6226 67.0558 86.0661 65.8991 86.4343 64.7176C87.3955 61.4894 86.8892 57.2267 83.5583 55.4806Z" fill="#17262F"></path><path d="M22.5459 83.8738C21.9822 83.8736 21.419 83.8442 20.8584 83.7858C17.9342 83.4591 15.1693 82.2847 12.9039 80.4071C10.6385 78.5294 8.9713 76.0306 8.10752 73.2178C7.24374 70.4051 7.22102 67.4012 8.04217 64.5757C8.86331 61.7502 10.4925 59.2264 12.7293 57.3148V15.8548C12.7312 13.2745 13.7566 10.8004 15.5804 8.9752C17.4042 7.15 19.8776 6.12278 22.4578 6.1189H22.6266C25.2068 6.12278 27.6802 7.15 29.504 8.9752C31.3278 10.8004 32.3532 13.2745 32.3551 15.8548V57.3074C34.6976 59.314 36.3695 61.9898 37.1457 64.9749C37.9219 67.96 37.7653 71.1113 36.697 74.0048C35.6286 76.8982 33.6997 79.3951 31.1698 81.1595C28.6399 82.9239 25.6303 83.8711 22.5459 83.8738ZM22.4578 9.4131C20.7512 9.41698 19.1158 10.0971 17.9098 11.3046C16.7037 12.512 16.0254 14.1482 16.0235 15.8548V58.0925C16.0309 58.3475 15.9792 58.6009 15.8722 58.8325C15.7653 59.0642 15.6061 59.268 15.4072 59.4278C13.7203 60.7061 12.4103 62.4167 11.616 64.3785C10.8217 66.3404 10.5726 68.4805 10.8951 70.5723C11.2942 73.1371 12.5225 75.5005 14.392 77.3011C16.2615 79.1017 18.6693 80.2404 21.2473 80.543C21.6875 80.587 22.135 80.6163 22.5752 80.6163C25.0417 80.6098 27.4442 79.831 29.4453 78.3891C31.4464 76.9472 32.9456 74.9147 33.7323 72.5771C34.5191 70.2394 34.5539 67.7141 33.8318 65.3557C33.1098 62.9973 31.6672 60.9243 29.7065 59.4278C29.5062 59.274 29.3438 59.0763 29.2319 58.8499C29.1199 58.6235 29.0614 58.3744 29.0609 58.1218V15.8548C29.0609 14.1476 28.3832 12.5103 27.1768 11.3024C25.9703 10.0946 24.3337 9.41504 22.6266 9.4131H22.4578Z" fill="#17262F"></path><path d="M22.5459 70.4328C22.1093 70.4328 21.6905 70.2599 21.3812 69.9519C21.0718 69.6439 20.897 69.2259 20.8951 68.7894V16.1775C20.88 15.952 20.9114 15.7257 20.9874 15.5128C21.0634 15.2999 21.1822 15.1049 21.3367 14.9398C21.4911 14.7747 21.6778 14.6431 21.8851 14.5531C22.0925 14.4632 22.3161 14.4167 22.5422 14.4167C22.7682 14.4167 22.9919 14.4632 23.1992 14.5531C23.4066 14.6431 23.5933 14.7747 23.7477 14.9398C23.9021 15.1049 24.021 15.2999 24.097 15.5128C24.1729 15.7257 24.2044 15.952 24.1893 16.1775V68.7821C24.1903 68.9985 24.1485 69.213 24.0663 69.4132C23.9841 69.6135 23.8632 69.7955 23.7105 69.9489C23.5578 70.1023 23.3763 70.224 23.1765 70.307C22.9766 70.3901 22.7623 70.4328 22.5459 70.4328Z" fill="#17262F"></path><path d="M9.09024 20.2201H1.64343C1.20757 20.2201 0.789554 20.0469 0.481351 19.7387C0.173147 19.4305 0 19.0125 0 18.5767C0 18.1408 0.173147 17.7228 0.481351 17.4146C0.789554 17.1064 1.20757 16.9332 1.64343 16.9332H9.09024C9.52611 16.9332 9.94412 17.1064 10.2523 17.4146C10.5605 17.7228 10.7337 18.1408 10.7337 18.5767C10.7337 19.0125 10.5605 19.4305 10.2523 19.7387C9.94412 20.0469 9.52611 20.2201 9.09024 20.2201Z" fill="#17262F"></path><path d="M9.09024 27.4321H1.64343C1.22559 27.4042 0.833974 27.2186 0.547893 26.9128C0.261812 26.6069 0.102654 26.2038 0.102654 25.785C0.102654 25.3663 0.261812 24.9632 0.547893 24.6573C0.833974 24.3515 1.22559 24.1658 1.64343 24.1379H9.09024C9.31579 24.1229 9.54202 24.1543 9.75493 24.2303C9.96783 24.3062 10.1629 24.4251 10.3279 24.5795C10.493 24.7339 10.6246 24.9206 10.7146 25.128C10.8046 25.3354 10.851 25.559 10.851 25.785C10.851 26.0111 10.8046 26.2347 10.7146 26.4421C10.6246 26.6495 10.493 26.8362 10.3279 26.9906C10.1629 27.145 9.96783 27.2639 9.75493 27.3398C9.54202 27.4158 9.31579 27.4472 9.09024 27.4321Z" fill="#17262F"></path><path d="M9.09024 34.6369H1.64343C1.22559 34.609 0.833974 34.4233 0.547893 34.1175C0.261812 33.8116 0.102654 33.4085 0.102654 32.9898C0.102654 32.571 0.261812 32.1679 0.547893 31.862C0.833974 31.5562 1.22559 31.3706 1.64343 31.3427H9.09024C9.31579 31.3276 9.54202 31.359 9.75493 31.435C9.96783 31.5109 10.1629 31.6298 10.3279 31.7842C10.493 31.9387 10.6246 32.1253 10.7146 32.3327C10.8046 32.5401 10.851 32.7637 10.851 32.9898C10.851 33.2158 10.8046 33.4394 10.7146 33.6468C10.6246 33.8542 10.493 34.0409 10.3279 34.1953C10.1629 34.3497 9.96783 34.4686 9.75493 34.5445C9.54202 34.6205 9.31579 34.6519 9.09024 34.6369Z" fill="#17262F"></path><path d="M9.09024 41.8195H1.64343C1.22559 41.7916 0.833974 41.6059 0.547893 41.3001C0.261812 40.9943 0.102654 40.5912 0.102654 40.1724C0.102654 39.7536 0.261812 39.3505 0.547893 39.0447C0.833974 38.7388 1.22559 38.5532 1.64343 38.5253H9.09024C9.31579 38.5102 9.54202 38.5416 9.75493 38.6176C9.96783 38.6935 10.1629 38.8124 10.3279 38.9668C10.493 39.1213 10.6246 39.308 10.7146 39.5153C10.8046 39.7227 10.851 39.9463 10.851 40.1724C10.851 40.3984 10.8046 40.6221 10.7146 40.8294C10.6246 41.0368 10.493 41.2235 10.3279 41.3779C10.1629 41.5323 9.96783 41.6512 9.75493 41.7272C9.54202 41.8031 9.31579 41.8345 9.09024 41.8195Z" fill="#17262F"></path><path d="M9.09024 49.0462H1.64343C1.22559 49.0183 0.833974 48.8326 0.547893 48.5268C0.261812 48.221 0.102654 47.8178 0.102654 47.3991C0.102654 46.9803 0.261812 46.5772 0.547893 46.2713C0.833974 45.9655 1.22559 45.7799 1.64343 45.752H9.09024C9.31579 45.7369 9.54202 45.7683 9.75493 45.8443C9.96783 45.9202 10.1629 46.0391 10.3279 46.1935C10.493 46.348 10.6246 46.5346 10.7146 46.742C10.8046 46.9494 10.851 47.173 10.851 47.3991C10.851 47.6251 10.8046 47.8487 10.7146 48.0561C10.6246 48.2635 10.493 48.4502 10.3279 48.6046C10.1629 48.759 9.96783 48.8779 9.75493 48.9538C9.54202 49.0298 9.31579 49.0612 9.09024 49.0462Z" fill="#17262F"></path><path d="M9.09024 56.251H1.64343C1.20757 56.251 0.789554 56.0778 0.481351 55.7696C0.173147 55.4614 0 55.0434 0 54.6075C0 54.1717 0.173147 53.7537 0.481351 53.4455C0.789554 53.1373 1.20757 52.9641 1.64343 52.9641H9.09024C9.52611 52.9641 9.94412 53.1373 10.2523 53.4455C10.5605 53.7537 10.7337 54.1717 10.7337 54.6075C10.7337 55.0434 10.5605 55.4614 10.2523 55.7696C9.94412 56.0778 9.52611 56.251 9.09024 56.251Z" fill="#17262F"></path></g><defs><clipPath id="clip0_5678_33115"><rect width="97.865" height="90" fill="white"></rect></clipPath></defs></svg>