<svg xmlns="http://www.w3.org/2000/svg" width="78" height="110" viewBox="0 0 78 110" fill="none"><g clip-path="url(#clip0_5678_17341)"><path d="M1.33659 11.7681L28.852 65.032L33.7835 66.0153L6.26816 12.7513L1.33659 11.7681Z" fill="#A34200"></path><path d="M33.7835 66.0154L6.26816 12.7514L10.0475 10.616L37.5782 63.8799L33.7835 66.0154Z" fill="#CC6500"></path><path d="M36.6564 110L0 88.8297V82.3926L36.6564 103.563V110Z" fill="#3C3E40"></path><path d="M36.6564 110L73.3129 88.8297V82.3926L36.6564 103.563V110Z" fill="#555A5C"></path><path d="M0 82.3926L36.6564 103.563L73.3282 82.3926L36.6718 61.2222L0 82.3926Z" fill="#858B8C"></path><path d="M60.3617 79.5349L58.9483 77.6299C55.6606 72.4679 46.9344 68.7654 36.6564 68.7654C26.3785 68.7654 17.6676 72.4679 14.3799 77.6299L12.9818 79.5349V81.8548C12.9818 81.9469 12.9818 82.0545 12.9818 82.1467C12.9818 89.5363 23.5978 95.528 36.6718 95.528C49.7458 95.528 60.3771 89.5363 60.3771 82.1467C60.3771 82.0545 60.3771 81.9469 60.3771 81.8548L60.3617 79.5349Z" fill="#3C3E40"></path><path d="M36.6564 93.546C49.74 93.546 60.3464 87.555 60.3464 80.1647C60.3464 72.7745 49.74 66.7834 36.6564 66.7834C23.5728 66.7834 12.9665 72.7745 12.9665 80.1647C12.9665 87.555 23.5728 93.546 36.6564 93.546Z" fill="#939899"></path><path d="M37.0251 96.3574V100.244C37.7933 100.029 38.331 99.5683 38.331 99.046V97.5097C38.4078 97.018 37.7933 96.5725 37.0251 96.3574Z" fill="#6B5C5C"></path><path d="M38.4078 97.5405C38.4078 98.0629 37.8701 98.5084 37.102 98.7235C36.4281 98.9078 35.7171 98.9078 35.0433 98.7235C34.2598 98.5084 33.7374 98.0629 33.7374 97.5405C33.7374 97.0182 34.1215 96.7109 34.7207 96.4651H34.9358H35.0433C35.7171 96.2808 36.4281 96.2808 37.102 96.4651C37.7933 96.5727 38.4078 97.0182 38.4078 97.5405Z" fill="#847271"></path><path d="M37.4399 96.6956V97.4638C37.4399 97.7864 37.102 98.063 36.6257 98.2012H36.4721H35.5196H35.3659H35.2737H35.1355H35.0279L34.8897 98.1091H34.8128C34.8041 98.0686 34.8041 98.0267 34.8128 97.9861V97.218C34.8128 96.9415 35.0587 96.711 35.4274 96.5574H35.5656C35.9766 96.4344 36.4145 96.4344 36.8254 96.5574C37.102 96.0965 37.4399 96.373 37.4399 96.6956Z" fill="#C2C2C2"></path><path d="M36.6257 95.9734V98.201C37.102 98.0628 37.4399 97.7862 37.4399 97.4636V96.6955C37.4399 96.3728 37.102 96.0963 36.6257 95.9734Z" fill="#D4D4D4"></path><path d="M35.7654 95.9121C35.6327 95.8962 35.4986 95.8962 35.3659 95.9121H35.2277C34.8589 96.0657 34.6131 96.2962 34.6131 96.5727V97.3409C34.6044 97.3814 34.6044 97.4233 34.6131 97.4638H34.69L34.8282 97.556H34.9358H35.074H35.1662H35.3198H35.5657L35.7654 95.9121Z" fill="#B0B0B0"></path><path d="M34.9972 96.1426C34.736 96.2962 34.5517 96.4806 34.5517 96.6956V97.4638C34.543 97.5043 34.543 97.5462 34.5517 97.5867H34.6285L34.7668 97.6789L34.9972 96.1426Z" fill="#A1A1A1"></path><path d="M37.44 96.6955C37.44 97.0181 37.102 97.2946 36.6257 97.4329C36.212 97.5351 35.7796 97.5351 35.3659 97.4329C34.8897 97.2946 34.5517 97.0181 34.5517 96.6955C34.5517 96.3729 34.7975 96.1885 35.1662 96.0349H35.3045C35.7154 95.9119 36.1533 95.9119 36.5643 96.0349C37.102 96.0963 37.44 96.3729 37.44 96.6955Z" fill="#EDEDED"></path><path d="M68.074 80.2877V81.824C68.074 82.3464 67.5363 82.8073 66.7682 83.0224H66.507H66.2305H66H65.4623H65.2318H64.9707H64.7095L64.5251 82.9609L64.2793 82.8687L64.1103 82.7765H64.0335C63.9559 82.7342 63.8836 82.6827 63.8184 82.6229C63.7866 82.5833 63.7505 82.5472 63.7109 82.5154C63.7062 82.4745 63.7062 82.4333 63.7109 82.3925C63.7109 82.3925 63.7109 82.3925 63.7109 82.3003C63.7035 82.2339 63.7035 82.1669 63.7109 82.1006V80.5643C63.7109 80.1187 64.1103 79.7347 64.7095 79.4888L64.9246 79.412H65.0321C65.3666 79.3157 65.7134 79.2691 66.0615 79.2738C66.4094 79.2713 66.7559 79.3178 67.0908 79.412C67.5978 79.3198 68.074 79.7654 68.074 80.2877Z" fill="#594D4D"></path><path d="M66.7682 79.1047V82.9609C67.5363 82.7458 68.074 82.2849 68.074 81.7626V80.2262C68.074 79.7654 67.5978 79.3198 66.7682 79.1047Z" fill="#6B5C5C"></path><path d="M65.3701 79.0127C65.1478 79.0262 64.927 79.057 64.7095 79.1049H64.602L64.3869 79.1817C63.7877 79.4275 63.3883 79.8116 63.3883 80.2571V81.7934C63.3809 81.8598 63.3809 81.9268 63.3883 81.9931C63.3883 81.9931 63.3883 81.9931 63.3883 82.0853C63.3836 82.1262 63.3836 82.1674 63.3883 82.2082C63.4279 82.2401 63.4639 82.2762 63.4958 82.3158C63.561 82.3755 63.6332 82.4271 63.7109 82.4694H63.7877L63.9567 82.5616L64.5251 82.961H64.6634H64.9246H65.324L65.3701 79.0127Z" fill="#473D3D"></path><path d="M64.1103 79.3813C63.6955 79.6272 63.3883 79.9344 63.3883 80.2878V81.8241C63.3809 81.8905 63.3809 81.9574 63.3883 82.0238C63.3883 82.0238 63.3883 82.0238 63.3883 82.116C63.3836 82.1568 63.3836 82.1981 63.3883 82.2389C63.4279 82.2708 63.4639 82.3068 63.4958 82.3464C63.561 82.4062 63.6332 82.4578 63.7109 82.5001H63.7877L64.1103 79.3813Z" fill="#383030"></path><path d="M68.074 80.2876C68.074 80.81 67.5363 81.2555 66.7682 81.4706C66.4333 81.5648 66.0867 81.6114 65.7388 81.6089C65.3908 81.6135 65.044 81.5669 64.7095 81.4706C63.926 81.2555 63.3883 80.81 63.3883 80.2876C63.3883 79.7653 63.7877 79.458 64.3869 79.2122L64.602 79.1354H64.7095C65.044 79.0391 65.3908 78.9925 65.7388 78.9971C66.0867 78.9946 66.4333 79.0412 66.7682 79.1354C67.5978 79.3198 68.074 79.7653 68.074 80.2876Z" fill="#847271"></path><path d="M67.1676 79.4429V80.211C67.1676 80.5336 66.845 80.8102 66.3687 80.9484H66.1997H65.2626H65.0936H64.9553H64.8478L64.5251 80.6719V80.5951C64.5164 80.5546 64.5164 80.5127 64.5251 80.4722V79.704C64.5251 79.4275 64.7556 79.1971 65.1397 79.0434H65.2626C65.4718 78.9806 65.6893 78.9495 65.9078 78.9512C66.1212 78.9506 66.3335 78.9816 66.5377 79.0434C66.845 78.8437 67.1676 79.1202 67.1676 79.4429Z" fill="#C2C2C2"></path><path d="M66.3687 78.7207V80.9484C66.845 80.8101 67.1676 80.5335 67.1676 80.2109V79.4428C67.1676 79.1201 66.845 78.8436 66.3687 78.7207Z" fill="#D4D4D4"></path><path d="M65.5084 78.6592C65.3706 78.6432 65.2314 78.6432 65.0936 78.6592H64.9707C64.5866 78.8129 64.3562 79.0433 64.3562 79.3198V80.088C64.3474 80.1285 64.3474 80.1704 64.3562 80.2109V80.2877L64.4944 80.3799H64.602H64.7402H64.9092H65.155L65.5084 78.6592Z" fill="#B0B0B0"></path><path d="M64.7402 78.8896C64.479 79.0433 64.2947 79.2276 64.2947 79.4427V80.2109C64.286 80.2514 64.286 80.2933 64.2947 80.3338V80.4106L64.433 80.5028L64.7402 78.8896Z" fill="#A1A1A1"></path><path d="M67.1676 79.4428C67.1676 79.7654 66.845 80.042 66.3687 80.1802C66.1623 80.2294 65.951 80.2552 65.7388 80.2571C65.5215 80.2561 65.305 80.2303 65.0936 80.1802C64.6173 80.042 64.2947 79.7654 64.2947 79.4428C64.2947 79.1202 64.5251 78.9358 64.9092 78.7822H65.0321C65.2414 78.7193 65.4589 78.6883 65.6774 78.69C65.8907 78.6893 66.103 78.7204 66.3073 78.7822C66.845 78.8436 67.1676 79.1202 67.1676 79.4428Z" fill="#EDEDED"></path><path d="M8.09637 79.6885V83.5754C8.86452 83.3603 9.40223 82.8994 9.40223 82.377V80.8407C9.40223 80.3645 8.86452 79.8882 8.09637 79.6885Z" fill="#6B5C5C"></path><path d="M9.40223 80.8714C9.40223 81.3937 8.86452 81.8546 8.09637 82.0697C7.4199 82.2333 6.71418 82.2333 6.03771 82.0697C5.25419 81.8546 4.73184 81.3937 4.73184 80.8714C4.73184 80.3491 5.11592 80.0418 5.71508 79.796H5.93017H6.03771C6.37392 79.7082 6.71958 79.6618 7.06704 79.6577C7.41449 79.6618 7.76016 79.7082 8.09637 79.796C8.86452 79.8882 9.40223 80.3644 9.40223 80.8714Z" fill="#847271"></path><path d="M8.51118 80.0266V80.8102C8.51118 81.1174 8.17319 81.394 7.69693 81.5322H7.5433H6.59079H6.43715H6.34498L6.14525 81.4247H6.03771L5.89944 81.3325C5.89944 81.3325 5.89944 81.2557 5.89944 81.225V80.4414C5.89944 80.1803 6.14525 79.9345 6.51397 79.7808H6.65224C6.86092 79.748 7.07344 79.748 7.28213 79.7808C7.49081 79.748 7.70333 79.748 7.91201 79.7808C8.17319 79.4428 8.51118 79.7194 8.51118 80.0266Z" fill="#C2C2C2"></path><path d="M7.68156 79.3044V81.5321C8.15782 81.3938 8.49581 81.1173 8.49581 80.81V80.0265C8.51117 79.7192 8.17318 79.4427 7.68156 79.3044Z" fill="#D4D4D4"></path><path d="M6.85195 79.2429H6.43715H6.29888C5.93017 79.3966 5.68436 79.6424 5.68436 79.9035V80.6871C5.68436 80.6871 5.68436 80.6871 5.68436 80.7946L5.82262 80.8868L6.14525 81.4245H6.28352H6.3757H6.52933H6.7905L6.85195 79.2429Z" fill="#B0B0B0"></path><path d="M6.14525 79.4734C5.88408 79.627 5.69972 79.8114 5.69972 80.0265V80.81C5.69972 80.81 5.69972 80.81 5.69972 80.9175L5.83799 81.0097H6.14525V79.4734Z" fill="#A1A1A1"></path><path d="M8.51118 80.0265C8.51118 80.3492 8.17319 80.6257 7.69693 80.764C7.28322 80.8661 6.85087 80.8661 6.43716 80.764C5.9609 80.6257 5.62291 80.3492 5.62291 80.0265C5.62291 79.7039 5.86872 79.5195 6.23743 79.3659H6.3757C6.58438 79.3331 6.79691 79.3331 7.00559 79.3659C7.21427 79.3331 7.4268 79.3331 7.63548 79.3659C8.17319 79.4427 8.51118 79.7193 8.51118 80.0265Z" fill="#EDEDED"></path><path d="M39.1453 63.6188V65.1551C39.1453 65.6775 38.6075 66.1384 37.8394 66.3534H37.5782H36.0419H35.7807H35.6425L35.412 66.2613H35.3198L35.1508 66.0615H35.074C34.9964 66.0192 34.9241 65.9677 34.8589 65.9079L34.7514 65.8004V65.6928V65.6007C34.7514 65.6007 34.7514 65.6007 34.7514 65.5085C34.7429 65.4422 34.7429 65.3751 34.7514 65.3087V63.7724C34.7514 63.3269 35.1508 62.9428 35.75 62.697L35.9651 62.6202H36.0726C36.4086 62.5313 36.7544 62.4849 37.102 62.4819C37.4493 62.487 37.7949 62.5334 38.1313 62.6202C38.6075 62.6509 39.1453 63.1118 39.1453 63.6188Z" fill="#594D4D"></path><path d="M37.8394 62.4358V66.3227C38.6075 66.1076 39.1453 65.6467 39.1453 65.1243V63.588C39.1453 63.1118 38.6075 62.6509 37.8394 62.4358Z" fill="#6B5C5C"></path><path d="M36.4413 62.359C36.2215 62.3422 36.0006 62.3422 35.7807 62.359H35.6732L35.4581 62.4359C34.8589 62.6817 34.4595 63.0657 34.4595 63.5113V65.0476C34.451 65.1139 34.451 65.181 34.4595 65.2473C34.4595 65.2473 34.4595 65.2473 34.4595 65.3395V65.4317V65.5392L34.567 65.6468C34.6322 65.7065 34.7045 65.7581 34.7821 65.8004H34.8589L35.0279 65.8926H35.1201L35.3506 65.9847H35.4888H35.75H36.1494L36.4413 62.359Z" fill="#473D3D"></path><path d="M35.1816 62.7275C34.7668 62.958 34.4595 63.2652 34.4595 63.6186V65.1549C34.451 65.2212 34.451 65.2883 34.4595 65.3546C34.4595 65.3546 34.4595 65.3546 34.4595 65.4468V65.539V65.6465L34.567 65.7541C34.6322 65.8138 34.7045 65.8654 34.7821 65.9077H34.8589L35.1816 62.7275Z" fill="#383030"></path><path d="M39.1453 63.6186C39.1453 64.141 38.6075 64.6019 37.8394 64.817C37.5023 64.8984 37.1568 64.9397 36.8101 64.9399C36.4632 64.9416 36.1174 64.9003 35.7807 64.817C34.9972 64.6019 34.4595 64.141 34.4595 63.6186C34.4595 63.0963 34.8589 62.789 35.4581 62.5432L35.6732 62.4664H35.7807C36.1167 62.3775 36.4625 62.3311 36.8101 62.3281C37.1574 62.3332 37.503 62.3796 37.8394 62.4664C38.6075 62.6508 39.1453 63.1116 39.1453 63.6186Z" fill="#847271"></path><path d="M38.2388 62.7736V63.5572C38.2388 63.8644 37.9162 64.141 37.44 64.2792H37.271H36.3338H36.1648H36.088H35.9497H35.8422L35.7193 64.187V64.1102C35.7118 64.0748 35.7118 64.0381 35.7193 64.0027V63.2192C35.7193 62.958 35.9651 62.7122 36.3338 62.5586H36.4567C36.6706 62.5266 36.8881 62.5266 37.102 62.5586C37.3108 62.5276 37.523 62.5276 37.7318 62.5586C37.9162 62.1898 38.2388 62.4664 38.2388 62.7736Z" fill="#C2C2C2"></path><path d="M37.4399 62.0518V64.2794C37.9162 64.1411 38.2388 63.8646 38.2388 63.5573V62.7738C38.2388 62.4666 37.9162 62.19 37.4399 62.0518Z" fill="#D4D4D4"></path><path d="M36.5796 61.9902H36.1648H36.0419C35.6732 62.1439 35.4274 62.3897 35.4274 62.6508V63.4344C35.4199 63.4698 35.4199 63.5065 35.4274 63.5419V63.6187L35.5503 63.7109H35.6578H35.7961H35.8729H36.0419H36.2877L36.5796 61.9902Z" fill="#B0B0B0"></path><path d="M35.8115 62.2207C35.5503 62.3743 35.3659 62.5587 35.3659 62.7738V63.5573C35.3585 63.5928 35.3585 63.6294 35.3659 63.6648V63.7417L35.4888 63.8338L35.8115 62.2207Z" fill="#A1A1A1"></path><path d="M38.2388 62.7737C38.2388 63.0963 37.9162 63.3729 37.4399 63.5111C37.2306 63.5346 37.0194 63.5346 36.8101 63.5111C36.5957 63.5355 36.3792 63.5355 36.1648 63.5111C35.6885 63.3729 35.3659 63.0963 35.3659 62.7737C35.3659 62.4511 35.6117 62.2667 35.9804 62.1131H36.1034C36.3172 62.0811 36.5347 62.0811 36.7486 62.1131C36.9574 62.0822 37.1697 62.0822 37.3785 62.1131C37.9162 62.1899 38.2388 62.4665 38.2388 62.7737Z" fill="#EDEDED"></path><path d="M36.6564 68.9036C47.088 68.9036 55.5531 73.1131 55.5531 78.3058C55.569 78.5103 55.569 78.7158 55.5531 78.9203V81.2862H17.7751V78.3058C17.7444 73.1131 26.2095 68.9036 36.6564 68.9036Z" fill="#616161"></path><path d="M55.5838 81.2863C55.5838 85.465 50.0992 88.9678 42.5251 90.243C40.59 90.5569 38.6323 90.7111 36.6718 90.7039C34.7014 90.704 32.7341 90.5499 30.7877 90.243C23.2291 88.9986 17.7751 85.465 17.7751 81.2863C17.7751 76.0935 26.2249 71.884 36.6718 71.884C47.1187 71.884 55.5838 76.0935 55.5838 81.2863Z" fill="#2E2E2E"></path><path d="M42.5405 89.7054C42.5405 89.7054 42.5405 89.8436 42.5405 89.9358C42.5481 90.0381 42.5481 90.1408 42.5405 90.2431C40.6053 90.557 38.6476 90.7112 36.6872 90.704C34.7168 90.7041 32.7494 90.55 30.8031 90.2431C30.7955 90.1408 30.7955 90.0381 30.8031 89.9358V84.021H42.6327L42.5405 89.7054Z" fill="#9E4810"></path><path d="M36.6718 87.3549C39.93 87.3549 42.5712 85.8623 42.5712 84.0211C42.5712 82.1798 39.93 80.6873 36.6718 80.6873C33.4136 80.6873 30.7724 82.1798 30.7724 84.0211C30.7724 85.8623 33.4136 87.3549 36.6718 87.3549Z" fill="#6B2500"></path><path d="M36.6564 88C47.5182 88 56.3212 83.0223 56.3212 76.8924C56.3371 76.652 56.3371 76.4108 56.3212 76.1704V73.3743H16.9916V76.8924C16.9763 82.9609 25.7947 88 36.6564 88Z" fill="#FF951A"></path><path d="M36.6718 84.4819C47.5408 84.4819 56.352 79.5089 56.352 73.3744C56.352 67.2399 47.5408 62.2668 36.6718 62.2668C25.8027 62.2668 16.9916 67.2399 16.9916 73.3744C16.9916 79.5089 25.8027 84.4819 36.6718 84.4819Z" fill="#CC6500"></path><path d="M32.0629 46.6579L38.2388 81.7781L51.1439 74.3423L53.6634 66.7068L49.5307 56.7515L37.4246 41.9875L32.0629 46.6579Z" fill="#8D3D06"></path><path d="M53.4944 49.5768C51.6329 46.2106 48.8932 43.4124 45.567 41.4804L34.4749 38.6536L21.5084 45.9664L27.0391 60.4078L35.6578 65.4161L40.6969 74.1424L53.6173 66.7066C57.6885 64.3714 57.6117 56.7052 53.4944 49.5768Z" fill="#FF951A"></path><path d="M53.9399 59.2556C53.9399 61.4526 53.3101 63.035 52.1117 63.7263L48.7011 65.6928L45.6285 67.4595C45.7501 66.7751 45.8067 66.0807 45.7975 65.3855C45.6902 62.7133 45.0145 60.0946 43.8156 57.704C43.5698 57.2123 43.2933 56.69 43.0168 56.1676C42.9399 56.0294 42.8478 55.8911 42.7556 55.7528C42.5559 55.4149 42.3561 55.0922 42.1257 54.7696C41.5383 53.878 40.8862 53.0307 40.1746 52.2347C39.3398 51.3167 38.4074 50.4924 37.3939 49.7766C36.5355 49.1406 35.5949 48.6238 34.5978 48.2403L37.5168 46.5503L39.5908 45.3674V45.4903L40.0978 45.1369L40.6969 44.7068L40.9581 44.5224C41.4278 44.2623 41.9575 44.1299 42.4944 44.1383C43.0166 44.1492 43.5343 44.2372 44.0307 44.3995C45.8848 45.1016 47.5292 46.2649 48.8087 47.7794C49.4316 48.4103 49.9923 49.0997 50.4832 49.838C50.7905 50.2989 51.1131 50.7752 51.405 51.2668C52.9117 53.6727 53.7838 56.4212 53.9399 59.2556Z" fill="#7E1F00"></path><path d="M51.5126 51.2822C49.9205 48.2052 47.3082 45.7775 44.1229 44.4149C43.6296 44.2383 43.1105 44.1448 42.5866 44.1383C42.0474 44.127 41.5157 44.2653 41.0503 44.5378C40.9521 44.5896 40.8594 44.6514 40.7737 44.7221L40.0517 45.2445C39.9185 45.9409 39.7495 46.6323 39.5447 47.3185C42.599 48.7348 45.1036 51.1152 46.6732 54.0936C48.1581 56.4952 49.014 59.2321 49.162 62.0517C49.265 62.8807 49.1571 63.7222 48.8483 64.4984C48.5394 65.2745 48.0396 65.9601 47.3953 66.4917L52.1732 63.7263C52.8416 63.2055 53.362 62.5188 53.6827 61.7345C54.0035 60.9502 54.1133 60.0956 54.0014 59.2557C53.852 56.4315 52.9963 53.6899 51.5126 51.2822Z" fill="#6E3C00"></path><path d="M13.8268 61.0224V61.8059C13.9117 63.6605 14.4595 65.4643 15.4202 67.0529C16.3809 68.6415 17.7239 69.9644 19.3268 70.9009L26.4707 75.0336L38.162 81.778L40.6662 74.0964L36.5489 64.1411L32.5698 48.778L21.5084 45.9666L16.6536 52.1118C14.6794 54.6501 13.6768 57.8102 13.8268 61.0224Z" fill="#AC5200"></path><path d="M40.743 74.1424C36.7179 76.4776 30.1117 72.6061 25.9944 65.4316C21.8771 58.257 21.8003 50.6983 25.8254 48.317C29.8506 45.9357 36.4567 49.8533 40.5894 57.0126C44.7221 64.1718 44.7682 71.8226 40.743 74.1424Z" fill="#CC6500"></path><path d="M40.1746 45.1522V52.2346C39.3398 51.3165 38.4074 50.4923 37.3939 49.7765C36.5355 49.1404 35.5949 48.6236 34.5978 48.2401L26.7011 19.0502L31.0796 17.6982L40.1746 45.1522Z" fill="#A34200"></path><path d="M26.6858 19.1424L35.4427 14.1647L39.8366 12.8127L31.0796 17.7904L26.6858 19.1424Z" fill="#8D3D06"></path><path d="M32.9232 21.2934L34.7053 20.2794L39.0838 18.9275L34.2137 21.7082L32.9232 21.2934Z" fill="#8D3D06"></path><path d="M34.7053 20.2793L33.8911 16.6997L38.8226 17.514L39.0838 18.9274L34.7053 20.2793Z" fill="#A34200"></path><path d="M25.6871 2.76536L30.5726 0L46.1816 7.48184L41.2961 10.2472L25.6871 2.76536Z" fill="#CC6500"></path><path d="M1.53631 8.97216C1.53441 9.56642 1.66262 10.1539 1.91195 10.6933C2.16128 11.2327 2.52567 11.711 2.97954 12.0946C3.43341 12.4782 3.96576 12.7578 4.5392 12.9138C5.11263 13.0697 5.71325 13.0982 6.29888 12.9973L18.5894 10.9079V3.88696L3.64106 6.42188C3.0472 6.53337 2.51127 6.84968 2.12666 7.31571C1.74205 7.78173 1.53313 8.36793 1.53631 8.97216Z" fill="#A34200"></path><path d="M3.18017 6.52933L6.69833 4.60894C7.59764 4.09664 8.58078 3.74812 9.60196 3.57961L30.5726 0L25.6872 2.76536L3.18017 6.52933Z" fill="#C44F00"></path><path d="M39.852 12.8127L39.4371 13.0432V17.1605L38.8226 17.5139L39.0838 18.9273L34.2137 21.708L33.2151 16.5767L31.0642 17.7904L40.1592 52.2345C40.8749 53.0202 41.5322 53.8571 42.1257 54.7387C42.3561 55.0613 42.5559 55.384 42.7556 55.722C42.8478 55.8602 42.9399 55.9985 43.0168 56.1368C43.2933 56.6284 43.5698 57.1507 43.8156 57.6731L48.9008 54.7695V47.7946L39.852 12.8127Z" fill="#FF7E1B"></path><path d="M30.6187 71.3003L36.3953 67.9665C37.7318 67.183 38.1006 65.1397 37.5014 62.8198C37.5014 62.574 37.3478 62.3129 37.271 62.0517L37.1634 61.7598C37.1394 61.6805 37.1085 61.6034 37.0712 61.5293L36.9791 61.2835L36.6872 60.669L36.5642 60.4078L36.3031 59.9162C36.2252 59.7625 36.138 59.6137 36.0419 59.4707C36.0419 59.3785 35.9344 59.3017 35.8883 59.2249L35.5042 58.6872C35.4516 58.6126 35.3952 58.5408 35.3352 58.4721C35.2918 58.4045 35.2402 58.3426 35.1816 58.2877C35.1816 58.1955 35.0433 58.1187 34.9818 58.0419C34.8094 57.8364 34.6247 57.6414 34.4288 57.4581L34.1369 57.1816C33.9538 57.0092 33.7587 56.85 33.5531 56.7053L33.3534 56.5517L32.8464 56.2137L32.6159 56.0908C32.3842 55.9642 32.1427 55.8563 31.8939 55.7682H31.6941L31.2486 55.6453H30.8338H30.5265H30.2346H30.0964H30.0042C29.8215 55.6942 29.646 55.7665 29.4818 55.8603L23.6592 59.2249C23.0516 59.7098 22.6027 60.3652 22.37 61.107C22.1373 61.8488 22.1315 62.6432 22.3534 63.3883C22.3808 63.6108 22.4219 63.8314 22.4763 64.0489C22.4763 64.1564 22.4763 64.264 22.4763 64.3715C22.7515 65.3715 23.1542 66.3319 23.6746 67.2291C24.1821 68.1269 24.813 68.9492 25.5489 69.6718C27.3156 71.3617 29.2821 72.0684 30.6187 71.3003Z" fill="#B24700"></path><path d="M25.6103 69.6719C25.6103 69.6719 25.6103 69.6719 25.5335 69.5797L37.4707 62.697C37.4638 62.7377 37.4638 62.7792 37.4707 62.8199C38.0698 65.1398 37.7011 67.1831 36.3645 67.9666L30.588 71.3004C29.2821 72.0685 27.3156 71.3618 25.6103 69.6719Z" fill="#A34100"></path><path d="M23.3212 66.2305C23.0073 65.6344 22.7451 65.0125 22.5377 64.3716C22.5377 64.264 22.5377 64.1565 22.5377 64.0489C22.4833 63.8314 22.4423 63.6108 22.4148 63.3883C22.193 62.6432 22.1988 61.8488 22.4314 61.107C22.6641 60.3652 23.113 59.7098 23.7207 59.2249L29.4819 55.8911C29.646 55.7972 29.8216 55.7249 30.0042 55.676H30.1732H30.4805H30.7877H31.2025L31.6481 55.7989H31.8478C32.0955 55.89 32.3367 55.9978 32.5698 56.1216L32.8003 56.2445L33.3073 56.5825L33.507 56.7361C33.7126 56.8808 33.9077 57.0399 34.0908 57.2123L34.3827 57.4889C34.5786 57.6722 34.7633 57.8671 34.9358 58.0727C34.9358 58.0727 35.074 58.2263 35.1355 58.3185C35.1941 58.3733 35.2458 58.4353 35.2891 58.5028C35.3491 58.5716 35.4056 58.6433 35.4581 58.7179L35.6886 59.0405L23.3212 66.2305Z" fill="#D65601"></path><path d="M22.3841 62.4204C22.3022 61.823 22.3767 61.2146 22.6002 60.6545C22.8236 60.0944 23.1885 59.6019 23.6592 59.2249L29.4204 55.8911C29.5845 55.7972 29.7601 55.7249 29.9427 55.676H30.1117H30.419H30.7263H31.1411L31.5866 55.7989H31.7863C32.034 55.89 32.2753 55.9978 32.5084 56.1216L32.7388 56.2445L32.831 56.3213L22.3841 62.4204Z" fill="#C44F00"></path><path d="M30.6187 71.3003C31.9707 70.5168 32.3394 68.4735 31.7249 66.1383C31.1845 64.1321 30.1247 62.3038 28.6522 60.838C26.9469 59.148 24.9804 58.4413 23.6439 59.2249C23.0362 59.7098 22.5873 60.3652 22.3546 61.107C22.122 61.8488 22.1162 62.6432 22.338 63.3883C22.3655 63.6108 22.4065 63.8314 22.4609 64.0489C22.4609 64.1564 22.4609 64.264 22.4609 64.3715C22.7361 65.3715 23.1389 66.3319 23.6592 67.2291C24.1667 68.1269 24.7976 68.9492 25.5335 69.6718C27.3156 71.3617 29.2821 72.0684 30.6187 71.3003Z" fill="#FF761A"></path><path d="M28.1453 68.9651L28.9902 68.4735C29.7123 68.0587 29.912 66.9372 29.5894 65.7235C29.5894 65.6006 29.5126 65.4623 29.4665 65.324V65.1704V65.0475V64.9092L29.1899 64.5252H29.0824C29.0824 64.4483 29.0056 64.3715 28.9595 64.2793L28.8059 64.0489C28.7838 64.0058 28.7581 63.9647 28.7291 63.926L28.514 63.6341C28.5187 63.5933 28.5187 63.552 28.514 63.5112L28.4372 63.419L28.3296 63.2807L28.0223 62.9735L27.8687 62.8198L27.5615 62.574H27.4539L27.1927 62.3897H27.0545C26.9311 62.319 26.8027 62.2574 26.6704 62.2053H26.5629H26.3324H25.6411C25.5434 62.2249 25.4498 62.2613 25.3645 62.3129L24.5042 62.8045C24.1822 63.0663 23.9447 63.4174 23.8217 63.8138C23.6987 64.2101 23.6956 64.634 23.8128 65.0321C23.8068 65.1498 23.8068 65.2678 23.8128 65.3855V65.5545C23.9511 66.0931 24.163 66.6101 24.4427 67.0908C24.7125 67.5709 25.0487 68.0105 25.4413 68.3967C26.3785 68.9958 27.4232 69.3799 28.1453 68.9651Z" fill="#B24700"></path><path d="M25.4721 68.1047L29.6201 65.708C29.9427 66.9524 29.743 68.0432 29.021 68.458L28.176 68.9496C27.4232 69.3798 26.3785 68.9957 25.4721 68.1047Z" fill="#A34100"></path><path d="M24.243 66.2611C24.0772 65.9476 23.9434 65.6182 23.8436 65.2779V65.1089C23.8375 64.9912 23.8375 64.8732 23.8436 64.7555C23.7264 64.3574 23.7294 63.9335 23.8525 63.5372C23.9755 63.1408 24.2129 62.7897 24.5349 62.5279L25.3953 62.0363C25.4805 61.9847 25.5741 61.9483 25.6718 61.9287H26.3631H26.5936H26.7011C26.8398 61.9774 26.9736 62.0391 27.1006 62.1131H27.2235L27.4846 62.2974H27.5922L27.8994 62.5432L28.0531 62.6969L28.3603 63.0041L28.4679 63.1424L28.5447 63.2346C28.5494 63.2754 28.5494 63.3166 28.5447 63.3575L28.683 63.5265L24.243 66.2611Z" fill="#D65601"></path><path d="M23.7514 64.2485C23.7087 63.9279 23.7484 63.6017 23.8667 63.3007C23.9849 62.9997 24.1779 62.7337 24.4274 62.5279L25.2877 62.0363C25.373 61.9847 25.4665 61.9483 25.5642 61.9287H26.2556H26.486H26.5936C26.7323 61.9774 26.866 62.0391 26.993 62.1131H27.1159L23.7514 64.2485Z" fill="#C44F00"></path><path d="M28.1453 68.965C28.852 68.5502 29.0517 67.4286 28.7291 66.215C28.5908 65.6763 28.3789 65.1593 28.0992 64.6786C27.8254 64.2012 27.4896 63.7621 27.1006 63.3728C26.1941 62.4817 25.1494 62.113 24.4274 62.5124C24.1054 62.7742 23.8679 63.1254 23.7449 63.5218C23.6219 63.9181 23.6188 64.342 23.736 64.7401C23.73 64.8578 23.73 64.9757 23.736 65.0935V65.2624C23.8742 65.8011 24.0862 66.3181 24.3659 66.7988C24.6357 67.2789 24.9719 67.7185 25.3645 68.1046C26.3785 68.9957 27.4232 69.3798 28.1453 68.965Z" fill="#FF8330"></path><path d="M5.00838 13.8268L5.85335 13.3352C6.57542 12.9204 6.77514 11.7989 6.45252 10.6006C6.41863 10.4603 6.37761 10.3218 6.32961 10.1858C6.33573 10.1347 6.33573 10.0832 6.32961 10.0321V9.90922V9.78632C6.28481 9.67085 6.23352 9.55801 6.17598 9.44833C6.18105 9.40238 6.18105 9.35601 6.17598 9.31006C6.14107 9.23016 6.09998 9.15311 6.05308 9.07962C6.05308 8.98744 5.94553 8.91062 5.89944 8.83381C5.90696 8.79318 5.90696 8.75153 5.89944 8.7109L5.69972 8.419L5.30028 8.2961L5.22347 8.20392L5.11592 8.08101C5.02375 7.95811 4.9162 7.86593 4.82403 7.75839L4.60894 7.68157L4.30168 7.4204H4.19414L3.93296 7.2514H3.81006L3.42598 7.08241H3.31844L3.07263 6.77515H2.85754H2.42738C2.32994 6.80307 2.23686 6.84443 2.15084 6.89805L1.29051 7.38967C0.968485 7.65146 0.731045 8.00261 0.608037 8.39898C0.485029 8.79534 0.481942 9.21922 0.599165 9.61733C0.593087 9.73503 0.593087 9.85297 0.599165 9.97068V10.1397C0.737373 10.6783 0.94934 11.1953 1.22905 11.676C1.49883 12.1561 1.83502 12.5957 2.22766 12.9819C3.24162 13.8268 4.28632 14.2416 5.00838 13.8268Z" fill="#B24700"></path><path d="M2.3352 12.9664L6.43715 10.5391C6.75978 11.7681 6.56006 12.8589 5.83799 13.2737L5.00838 13.8268C4.28631 14.2416 3.24162 13.8268 2.3352 12.9664Z" fill="#A34100"></path><path d="M1.12151 11.1229C0.950982 10.8097 0.81203 10.4804 0.706707 10.1397V9.97069C0.700629 9.85299 0.700629 9.73505 0.706707 9.61734C0.580301 9.23157 0.568158 8.81746 0.67174 8.42494C0.775322 8.03242 0.99021 7.67823 1.29051 7.40505L2.15084 6.91343C2.23686 6.85981 2.32994 6.81845 2.42738 6.79053H2.90363H3.11872H3.36453H3.47207L3.85615 6.95952H3.97905L4.24023 7.12852H4.34777L4.60894 7.68159L4.77794 7.81986C4.87011 7.9274 4.97766 8.01958 5.06984 8.14248L5.17738 8.26539L5.25419 8.35757L5.34637 8.48047C5.37833 8.54283 5.4198 8.59985 5.46928 8.64947L1.12151 11.1229Z" fill="#D65601"></path><path d="M0.614521 9.11036C0.570102 8.79192 0.609034 8.46741 0.727514 8.16852C0.845994 7.86963 1.03997 7.60657 1.2905 7.40505L2.15083 6.91343C2.23685 6.85981 2.32993 6.81845 2.42737 6.79053H2.90363H3.11871H3.36452H3.47206L3.85614 6.95952H3.97905L0.614521 9.11036Z" fill="#C44F00"></path><path d="M5.00838 13.8268C5.73044 13.412 5.9148 12.2905 5.59218 11.0922C5.45689 10.5525 5.24476 10.0351 4.96229 9.55584C4.69251 9.07575 4.35632 8.63612 3.96368 8.24998C3.07262 7.35892 2.01257 6.9902 1.2905 7.40501C0.97138 7.66562 0.735768 8.01416 0.612875 8.40741C0.489982 8.80067 0.485213 9.22135 0.599159 9.6173C0.59308 9.735 0.59308 9.85294 0.599159 9.97065V10.1396C0.737367 10.6783 0.949333 11.1953 1.22905 11.676C1.49883 12.1561 1.83501 12.5957 2.22765 12.9818C3.24162 13.8268 4.28631 14.2416 5.00838 13.8268Z" fill="#FF8330"></path><path d="M18.6201 3.88689L25.6872 2.76538L41.2961 10.2472L34.5517 12.9204L18.6201 3.88689Z" fill="#A34200"></path><path d="M31.0643 17.7906L33.2151 16.5769L33.7682 19.4191L36.0112 20.6789L41.2961 23.6593V10.2473L18.6201 3.88696V10.9079L31.095 17.9135L31.0643 17.7906Z" fill="#A34200"></path><path d="M51.067 15.7934V29.2054L50.6215 28.9596L41.757 23.9051L41.3114 23.6593L41.2961 10.2473L41.757 10.5085L50.6215 15.5476L51.067 15.7934Z" fill="#2C3637"></path><path d="M55.9525 31.9706V18.5739L51.067 15.7932V29.2052L55.9525 31.9706Z" fill="#A34200"></path><path d="M55.9525 18.5739L60.8226 15.7932L55.9525 13.0278L51.067 15.7932L55.9525 18.5739Z" fill="#CC6500"></path><path d="M55.9371 31.9706L55.9525 18.5739L60.8226 15.7932V29.2052L55.9371 31.9706Z" fill="#BD5D00"></path><path d="M55.9525 26.8086L63.6187 31.2946L66.8603 29.4357L55.9525 23.0139V26.8086Z" fill="#A34200"></path><path d="M65.7542 25.042L58.3952 28.0532L63.5265 34.521L71.2388 38.5308L73.1285 37.44L66.2458 33.9372L62.9274 29.8967L65.7542 28.2682L71.1006 31.1412L75.0796 36.3493L77.0615 35.2124L71.1006 27.9149L65.7542 25.042Z" fill="#434C4D"></path><path d="M63.5419 21.8618L58.3952 24.8269L63.5265 31.2948L71.2388 35.3046L73.1285 34.2138L66.2458 30.711L62.9274 26.6705L65.7542 25.042L71.1006 27.9149L75.0796 33.123L77.0615 31.9861L72.1453 26.4708L63.5419 21.8618Z" fill="#6B7273"></path><path d="M58.3952 24.8269V28.0532L63.5265 34.521V31.2948L58.3952 24.8269Z" fill="#434C4D"></path><path d="M71.2388 35.3045V38.5307L63.5265 34.5209V31.2947L71.2388 35.3045Z" fill="#51595A"></path><path d="M73.1285 34.2136V37.4399L71.2388 38.5307V35.3044L73.1285 34.2136Z" fill="#7B8182"></path><path d="M77.0615 31.9861V35.2123L75.0335 36.3646V33.1383L77.0615 31.9861Z" fill="#7B8182"></path><path d="M65.7542 25.042V28.2682L71.1006 31.1412V27.9149L65.7542 25.042Z" fill="#313C3D"></path><path d="M55.9525 23.0141L63.6187 27.5001L66.8603 25.6258L60.838 20.2026L55.9525 23.0141Z" fill="#FF951A"></path><path d="M51.067 15.7934L55.9525 13.028L46.1816 7.48193L41.2961 10.2473L51.067 15.7934Z" fill="#6B7273"></path><path d="M66.8603 25.6257V29.4358L65.7542 30.1118L63.6187 27.5L66.8603 25.6257Z" fill="#A34200"></path><path d="M41.757 10.5085V23.9051L41.3114 23.6593L41.2961 10.2473L41.757 10.5085Z" fill="#192425"></path><path d="M42.9246 11.1689V24.5655L42.4637 24.3197V10.9077L42.9246 11.1689Z" fill="#192425"></path><path d="M44.0768 11.8296V25.2262L43.6313 24.9804L43.6159 11.5837L44.0768 11.8296Z" fill="#192425"></path><path d="M45.2444 12.4902V25.8868L44.7989 25.641L44.7835 12.2444L45.2444 12.4902Z" fill="#192425"></path><path d="M46.412 13.1508V26.5475L45.9665 26.3017L45.9511 12.905L46.412 13.1508Z" fill="#192425"></path><path d="M47.5796 13.8115V27.2081L47.1341 26.9623L47.1187 13.5657L47.5796 13.8115Z" fill="#192425"></path><path d="M48.7472 14.4721V27.8688L48.2863 27.623V14.2263L48.7472 14.4721Z" fill="#192425"></path><path d="M49.8995 15.1328V28.5448L49.4539 28.2836V14.887L49.8995 15.1328Z" fill="#192425"></path><path d="M51.0671 15.7934V29.2054L50.6215 28.9596V15.5476L51.0671 15.7934Z" fill="#192425"></path><path d="M46.6425 7.74311L41.757 10.4931L41.3115 10.2473L46.1662 7.48193L46.6425 7.74311Z" fill="#474F50"></path><path d="M47.7947 8.40375L42.9246 11.1691L42.4637 10.9079L47.3338 8.14258L47.7947 8.40375Z" fill="#474F50"></path><path d="M48.9623 9.06415L44.0768 11.8295L43.6313 11.5837L48.5014 8.80298L48.9623 9.06415Z" fill="#474F50"></path><path d="M50.1299 9.7248L45.2444 12.4902L44.7989 12.2443L49.669 9.46362L50.1299 9.7248Z" fill="#474F50"></path><path d="M51.2975 10.3854L46.412 13.1508L45.9665 12.905L50.8366 10.1243L51.2975 10.3854Z" fill="#474F50"></path><path d="M52.4497 11.0461L47.5796 13.8114L47.1341 13.5656L52.0042 10.7849L52.4497 11.0461Z" fill="#474F50"></path><path d="M53.6173 11.7067L48.7472 14.4721L48.2863 14.2263L53.1718 11.4456L53.6173 11.7067Z" fill="#474F50"></path><path d="M54.7849 12.3674L49.8995 15.1327L49.4539 14.8869L54.3394 12.1062L54.7849 12.3674Z" fill="#474F50"></path><path d="M55.9525 13.028L51.0671 15.7934L50.6215 15.5476L55.4916 12.7822L55.9525 13.028Z" fill="#474F50"></path></g><defs><clipPath id="clip0_5678_17341"><rect width="77.0461" height="110" fill="white"></rect></clipPath></defs></svg>