<svg xmlns="http://www.w3.org/2000/svg" width="64" height="95" viewBox="0 0 64 95" fill="none"><g clip-path="url(#clip0_5678_33029)"><path d="M31.5841 0C25.5394 0.00125753 19.6219 1.73663 14.5339 5.00017C9.44589 8.26372 5.40094 12.9184 2.87907 18.412C0.357192 23.9055 -0.535739 30.0072 0.306235 35.9929C1.14821 41.9787 3.68974 47.5973 7.62924 52.182C16.4999 62.8507 17.8763 69.1437 18.0672 71.2997V72.3976C18.0639 72.416 18.0639 72.4349 18.0672 72.4533C18.0672 72.501 18.0672 72.5488 18.0672 72.5965C18.0634 72.6574 18.0634 72.7186 18.0672 72.7795C18.0769 72.8204 18.0902 72.8603 18.107 72.8988C18.1246 72.9636 18.1459 73.0274 18.1706 73.0898L18.2979 73.1932C18.3294 73.2532 18.364 73.3117 18.4014 73.3682L18.4809 73.4637L18.6082 73.6069L18.7116 73.6944L18.8548 73.8058L18.9821 73.8694C19.0163 73.9119 19.0535 73.9518 19.0935 73.9888H19.2208L19.4118 74.0365C19.4991 74.0444 19.587 74.0444 19.6743 74.0365H43.4223C43.852 74.037 44.2653 73.8719 44.5764 73.5756C44.8875 73.2793 45.0726 72.8745 45.093 72.4454C45.093 72.4454 45.093 72.3897 45.093 72.3578V71.3315C45.276 69.2074 46.6205 62.9223 55.4355 52.2377C59.3833 47.66 61.9352 42.046 62.7886 36.0617C63.6421 30.0774 62.7612 23.9739 60.2505 18.4751C57.7398 12.9764 53.7046 8.3131 48.6236 5.03845C43.5426 1.76379 37.6289 0.0151729 31.5841 0V0ZM31.5841 3.35734C36.9881 3.35888 42.2781 4.91118 46.826 7.8299C51.374 10.7486 54.9888 14.9112 57.2413 19.8233C59.4938 24.7354 60.2894 30.1908 59.5336 35.5416C58.7777 40.8925 56.5022 45.914 52.9772 50.01C44.6236 60.0502 42.396 66.6217 41.863 70.0109C41.7815 70.2047 41.7408 70.4132 41.7436 70.6235V70.711H21.4246V70.6235C21.4244 70.4168 21.3867 70.212 21.3132 70.0188C20.7881 66.6615 18.5843 60.1218 10.3262 50.1294L10.2308 50.018C6.70206 45.9258 4.42205 40.9068 3.66156 35.5571C2.90108 30.2074 3.69208 24.7518 5.94062 19.8384C8.18915 14.925 11.8007 10.7602 16.3463 7.83871C20.892 4.91723 26.1806 3.36186 31.5841 3.35734Z" fill="#17262F"></path><path d="M43.7568 83.4561C43.3203 83.3718 42.868 83.4632 42.4986 83.7105C42.1291 83.9578 41.8722 84.341 41.7838 84.7768C41.7281 85.0632 40.2881 91.6426 31.5924 91.6426C22.8967 91.6426 21.4806 85.0791 21.3931 84.7847C21.2913 84.3663 21.0326 84.003 20.6704 83.77C20.3083 83.5369 19.8704 83.452 19.4474 83.5327C19.0244 83.6134 18.6485 83.8536 18.3976 84.2036C18.1468 84.5537 18.04 84.9867 18.0994 85.4133C18.7279 88.7308 22.3478 94.9602 31.6242 94.9602C40.9007 94.9602 44.4887 88.691 45.1491 85.4133C45.1878 85.1932 45.1823 84.9676 45.1331 84.7496C45.0839 84.5316 44.9918 84.3256 44.8623 84.1435C44.7327 83.9614 44.5683 83.8069 44.3785 83.6889C44.1887 83.5709 43.9774 83.4918 43.7568 83.4561Z" fill="#17262F"></path><path d="M42.3327 83.0027H20.8521C20.4069 83.0027 19.9799 82.8258 19.6651 82.511C19.3503 82.1962 19.1734 81.7692 19.1734 81.324C19.1734 80.8788 19.3503 80.4518 19.6651 80.137C19.9799 79.8222 20.4069 79.6453 20.8521 79.6453H42.3327C42.7779 79.6453 43.2049 79.8222 43.5197 80.137C43.8345 80.4518 44.0114 80.8788 44.0114 81.324C44.0114 81.7692 43.8345 82.1962 43.5197 82.511C43.2049 82.8258 42.7779 83.0027 42.3327 83.0027Z" fill="#17262F"></path><path d="M42.3327 78.6349H20.8521C20.4258 78.6056 20.0266 78.4156 19.735 78.1033C19.4434 77.7909 19.2812 77.3796 19.2812 76.9523C19.2812 76.525 19.4434 76.1137 19.735 75.8013C20.0266 75.489 20.4258 75.299 20.8521 75.2697H42.3327C42.759 75.299 43.1582 75.489 43.4498 75.8013C43.7414 76.1137 43.9036 76.525 43.9036 76.9523C43.9036 77.3796 43.7414 77.7909 43.4498 78.1033C43.1582 78.4156 42.759 78.6056 42.3327 78.6349Z" fill="#17262F"></path><path d="M52.0229 26.819C51.7379 26.6172 51.3974 26.5089 51.0483 26.5089C50.6992 26.5089 50.3586 26.6172 50.0737 26.819C48.1723 28.1874 46.3822 28.5135 42.4521 29.2057C41.0359 29.4682 39.2697 29.7865 37.1774 30.2161C35.5008 30.5315 33.9013 31.1691 32.4676 32.0937C32.2004 32.2695 31.9925 32.5218 31.8709 32.8176C30.3345 31.6391 28.6029 30.7397 26.7553 30.1604C22.6691 28.7584 18.8096 26.7669 15.299 24.2492C15.0537 24.0363 14.7522 23.8986 14.4307 23.8529C14.1091 23.8071 13.7812 23.8552 13.4863 23.9913C13.1913 24.1274 12.942 24.3458 12.7682 24.6202C12.5944 24.8946 12.5035 25.2133 12.5065 25.5381C12.5065 27.9248 12.4428 29.9376 12.3553 31.7197C12.1724 35.2362 12.0132 38.2753 13.0316 42.1577C14.6625 48.3951 19.2848 51.9752 25.7051 51.9752C27.2013 51.962 28.692 51.7913 30.1524 51.466C29.8253 53.636 29.9226 55.8488 30.4388 57.9818C30.5218 58.3551 30.7292 58.6891 31.027 58.9291C31.3248 59.1691 31.6953 59.3007 32.0777 59.3024C32.1994 59.3146 32.322 59.3146 32.4437 59.3024C32.8811 59.2036 33.2616 58.9355 33.5017 58.5567C33.7417 58.1779 33.8219 57.7194 33.7246 57.2817C33.1985 55.2795 33.1711 53.1789 33.645 51.1637C35.5219 51.9506 37.5295 52.3796 39.5641 52.4286C41.1382 52.4484 42.6938 52.0882 44.0989 51.3785C47.0505 49.8669 49.0951 46.8675 50.1771 42.46C50.6147 40.6859 50.9727 38.4821 51.2989 36.0954C51.6031 33.5851 52.0601 31.0956 52.6673 28.6408C52.7607 28.3078 52.7489 27.954 52.6335 27.6279C52.5182 27.3018 52.3049 27.0192 52.0229 26.819ZM32.1334 46.43C27.8452 44.091 25.2278 39.4448 24.0424 37.3365C23.8037 36.9228 23.6128 36.5887 23.4696 36.3659C23.3663 36.15 23.2181 35.9588 23.0349 35.8048C22.8517 35.6509 22.6377 35.538 22.4072 35.4736C22.1768 35.4091 21.9352 35.3947 21.6987 35.4313C21.4623 35.4678 21.2363 35.5545 21.0361 35.6855C20.8359 35.8165 20.666 35.9888 20.5378 36.1909C20.4096 36.3929 20.3261 36.62 20.2928 36.857C20.2596 37.0939 20.2774 37.3353 20.345 37.5648C20.4127 37.7943 20.5286 38.0067 20.685 38.1878C20.8044 38.3708 20.9555 38.6492 21.1544 38.9834C22.3398 41.0837 24.7982 45.4196 28.8636 48.3234C27.8354 48.5199 26.7917 48.6238 25.7449 48.6337C19.5394 48.6337 17.1925 44.6558 16.3173 41.3224C15.4422 37.9889 15.5774 35.276 15.7445 31.9027C15.8002 30.9162 15.8559 29.8501 15.8877 28.7204C18.9757 30.6755 22.2879 32.2515 25.7529 33.4143C33.3427 35.9283 33.2234 40.9643 32.1095 46.43H32.1334ZM47.9734 35.5703C47.6313 37.8695 47.313 40.0415 46.9153 41.6565C46.3345 44.0432 45.1172 47.0823 42.5714 48.3871C40.67 49.3259 38.1878 49.2702 35.1884 48.1564L35.26 47.7904C35.3475 47.4006 35.4351 46.9948 35.5226 46.5175C35.6072 46.4364 35.6819 46.3456 35.7453 46.247C37.973 42.5157 41.8156 39.7392 43.7011 38.4026C44.0619 38.1409 44.304 37.7467 44.3741 37.3066C44.4443 36.8664 44.3367 36.4164 44.075 36.0556C43.8134 35.6948 43.4191 35.4527 42.979 35.3826C42.5389 35.3125 42.0889 35.4201 41.7281 35.6817C39.6713 37.111 37.7535 38.7305 35.9999 40.5188C35.8404 38.565 35.168 36.6879 34.0508 35.0771C34.1681 35.0343 34.2802 34.9782 34.3849 34.91C35.4554 34.2307 36.6465 33.7635 37.8934 33.5336C39.9539 33.112 41.6247 32.8097 43.0965 32.5392C44.979 32.2498 46.8397 31.8325 48.6655 31.2901C48.403 32.6585 48.1882 34.1303 47.9734 35.5703Z" fill="#17262F"></path></g><defs><clipPath id="clip0_5678_33029"><rect width="63.1689" height="95" fill="white"></rect></clipPath></defs></svg>