<svg xmlns="http://www.w3.org/2000/svg" width="73" height="90" viewBox="0 0 73 90" fill="none"><g clip-path="url(#clip0_5678_32965)"><path d="M56.7186 34.1534H64.834C66.7426 34.1514 68.5725 33.3923 69.9221 32.0427C71.2717 30.6931 72.0308 28.8632 72.0328 26.9545V7.19881C72.0308 5.29017 71.2717 3.46027 69.9221 2.11066C68.5725 0.76105 66.7426 0.00197275 64.834 0L56.7186 0C54.8099 0.00197275 52.98 0.76105 51.6304 2.11066C50.2808 3.46027 49.5217 5.29017 49.5197 7.19881V15.3962H22.5056V7.19881C22.5036 5.29017 21.7445 3.46027 20.3949 2.11066C19.0453 0.76105 17.2154 0.00197275 15.3068 0L7.19881 0C5.29017 0.00197275 3.46027 0.76105 2.11066 2.11066C0.76105 3.46027 0.00197275 5.29017 0 7.19881L0 26.9545C0.00197275 28.8632 0.76105 30.6931 2.11066 32.0427C3.46027 33.3923 5.29017 34.1514 7.19881 34.1534H15.3068C17.2154 34.1514 19.0453 33.3923 20.3949 32.0427C21.7445 30.6931 22.5036 28.8632 22.5056 26.9545V18.7571H34.3247V35.8972C32.352 36.2903 30.5765 37.355 29.3007 38.9102C28.0248 40.4653 27.3276 42.4147 27.3276 44.4262C27.3276 46.4377 28.0248 48.387 29.3007 49.9422C30.5765 51.4973 32.352 52.5621 34.3247 52.9552V71.2354H22.5056V63.038C22.5036 61.1294 21.7445 59.2995 20.3949 57.9499C19.0453 56.6003 17.2154 55.8412 15.3068 55.8392H7.19881C5.28888 55.8412 3.45785 56.6013 2.10803 57.9525C0.758205 59.3037 -1.02125e-06 61.1355 0 63.0455L0 82.8012C0.00197275 84.7098 0.76105 86.5397 2.11066 87.8893C3.46027 89.239 5.29017 89.998 7.19881 90H15.3068C17.2148 89.9961 19.0436 89.2364 20.3928 87.8872C21.7419 86.538 22.5016 84.7092 22.5056 82.8012V74.6038H49.5197V82.8012C49.5217 84.7098 50.2808 86.5397 51.6304 87.8893C52.98 89.239 54.8099 89.998 56.7186 90H64.834C66.742 89.9961 68.5708 89.2364 69.92 87.8872C71.2691 86.538 72.0289 84.7092 72.0328 82.8012V63.0455C72.0308 61.1368 71.2717 59.3069 69.9221 57.9573C68.5725 56.6077 66.7426 55.8486 64.834 55.8467H56.7186C54.8099 55.8486 52.98 56.6077 51.6304 57.9573C50.2808 59.3069 49.5217 61.1368 49.5197 63.0455V71.2429H37.7006V52.9999C39.6733 52.6068 41.4488 51.542 42.7246 49.9869C44.0005 48.4318 44.6978 46.4824 44.6978 44.4709C44.6978 42.4594 44.0005 40.51 42.7246 38.9549C41.4488 37.3998 39.6733 36.335 37.7006 35.9419V18.8019H49.5197V26.9993C49.5335 28.9001 50.2978 30.7186 51.6461 32.0585C52.9945 33.3985 54.8176 34.1514 56.7186 34.1534ZM19.1223 26.9545C19.1223 27.9672 18.7205 28.9384 18.0052 29.6552C17.2899 30.3719 16.3194 30.7755 15.3068 30.7775H7.19881C6.69677 30.7775 6.19964 30.6786 5.73582 30.4865C5.272 30.2944 4.85056 30.0128 4.49556 29.6578C4.14056 29.3028 3.85897 28.8814 3.66684 28.4175C3.47472 27.9537 3.37584 27.4566 3.37584 26.9545V7.19881C3.37584 6.18489 3.77861 5.21251 4.49556 4.49556C5.21251 3.77861 6.18489 3.37584 7.19881 3.37584H15.3068C16.3194 3.37781 17.2899 3.78146 18.0052 4.49819C18.7205 5.21492 19.1223 6.18618 19.1223 7.19881V26.9545ZM19.1223 82.8012C19.1223 83.8131 18.7203 84.7836 18.0048 85.4992C17.2892 86.2147 16.3187 86.6167 15.3068 86.6167H7.19881C6.18618 86.6167 5.21492 86.215 4.49819 85.4996C3.78146 84.7843 3.37781 83.8138 3.37584 82.8012V63.0455C3.37584 62.0315 3.77861 61.0592 4.49556 60.3422C5.21251 59.6253 6.18489 59.2225 7.19881 59.2225H15.3068C16.3194 59.2245 17.2899 59.6281 18.0052 60.3448C18.7205 61.0616 19.1223 62.0328 19.1223 63.0455V82.8012ZM52.9105 63.0455C52.9105 62.0315 53.3133 61.0592 54.0302 60.3422C54.7472 59.6253 55.7195 59.2225 56.7335 59.2225H64.834C65.8473 59.2245 66.8185 59.6279 67.5351 60.3444C68.2516 61.0609 68.655 62.0322 68.6569 63.0455V82.8012C68.655 83.8138 68.2513 84.7843 67.5346 85.4996C66.8179 86.215 65.8466 86.6167 64.834 86.6167H56.7186C55.7085 86.6128 54.7411 86.2093 54.0276 85.4944C53.314 84.7795 52.9124 83.8112 52.9105 82.8012V63.0455ZM41.3298 44.4672C41.3298 45.5195 41.0177 46.5483 40.4331 47.4233C39.8484 48.2983 39.0174 48.9803 38.0451 49.383C37.0729 49.7857 36.003 49.8911 34.9709 49.6858C33.9387 49.4805 32.9907 48.9737 32.2465 48.2296C31.5024 47.4855 30.9956 46.5374 30.7903 45.5052C30.585 44.4731 30.6904 43.4032 31.0931 42.431C31.4958 41.4587 32.1778 40.6277 33.0528 40.043C33.9278 39.4584 34.9566 39.1463 36.0089 39.1463C37.4201 39.1463 38.7735 39.7069 39.7714 40.7048C40.7692 41.7026 41.3298 43.056 41.3298 44.4672ZM52.9105 7.19881C52.9105 6.18489 53.3133 5.21251 54.0302 4.49556C54.7472 3.77861 55.7195 3.37584 56.7335 3.37584H64.834C65.8473 3.37781 66.8185 3.78122 67.5351 4.49774C68.2516 5.21426 68.655 6.1855 68.6569 7.19881V26.9545C68.655 27.9679 68.2516 28.9391 67.5351 29.6556C66.8185 30.3721 65.8473 30.7755 64.834 30.7775H56.7186C55.7072 30.7736 54.7387 30.3691 54.0249 29.6525C53.3112 28.936 52.9105 27.9659 52.9105 26.9545V7.19881Z" fill="#17262F"></path><path d="M9.09165 5.73072C8.93812 5.55906 8.75116 5.42056 8.54221 5.3237C8.33327 5.22684 8.10675 5.17366 7.87653 5.16743C7.64631 5.1612 7.41724 5.20204 7.20337 5.28745C6.98949 5.37286 6.7953 5.50105 6.63271 5.66415C6.47011 5.82725 6.34253 6.02184 6.25779 6.23598C6.17304 6.45012 6.13292 6.67932 6.13987 6.90952C6.14682 7.13971 6.2007 7.36607 6.29822 7.57471C6.39573 7.78335 6.53481 7.96988 6.70695 8.12288L11.9235 13.3394C12.0765 13.5115 12.263 13.6506 12.4716 13.7481C12.6803 13.8457 12.9066 13.8995 13.1368 13.9065C13.367 13.9134 13.5962 13.8733 13.8104 13.7886C14.0245 13.7038 14.2191 13.5762 14.3822 13.4137C14.5453 13.2511 14.6735 13.0569 14.7589 12.843C14.8443 12.6291 14.8852 12.4 14.8789 12.1698C14.8727 11.9396 14.8195 11.7131 14.7227 11.5041C14.6258 11.2952 14.4873 11.1082 14.3156 10.9547L9.09165 5.73072Z" fill="#17262F"></path><path d="M9.09166 12.9146C8.93508 12.7581 8.74919 12.6338 8.5446 12.5491C8.34002 12.4644 8.12075 12.4207 7.89931 12.4207C7.67787 12.4207 7.4586 12.4644 7.25402 12.5491C7.04943 12.6338 6.86354 12.7581 6.70696 12.9146C6.55038 13.0712 6.42617 13.2571 6.34143 13.4617C6.25669 13.6663 6.21307 13.8855 6.21307 14.107C6.21307 14.3284 6.25669 14.5477 6.34143 14.7523C6.42617 14.9569 6.55038 15.1427 6.70696 15.2993L11.9235 20.5159C12.0798 20.6763 12.2664 20.804 12.4725 20.8917C12.6786 20.9794 12.9001 21.0253 13.1241 21.0268C13.348 21.0282 13.5701 20.9851 13.7773 20.9001C13.9845 20.815 14.1727 20.6897 14.3311 20.5313C14.4895 20.3729 14.6148 20.1847 14.6999 19.9775C14.7849 19.7703 14.828 19.5483 14.8265 19.3243C14.8251 19.1003 14.7792 18.8789 14.6915 18.6728C14.6038 18.4667 14.476 18.28 14.3156 18.1237L9.09166 12.9146Z" fill="#17262F"></path><path d="M9.09168 20.1209C8.77007 19.8547 8.36106 19.7174 7.94398 19.7358C7.5269 19.7541 7.13148 19.9266 6.83442 20.22C6.53737 20.5133 6.35985 20.9065 6.3363 21.3233C6.31275 21.7401 6.44485 22.1509 6.70698 22.4758L11.9235 27.6923C12.0702 27.8798 12.2549 28.0343 12.4654 28.1455C12.676 28.2568 12.9076 28.3223 13.1452 28.3379C13.3828 28.3534 13.621 28.3187 13.8442 28.2358C14.0675 28.153 14.2707 28.024 14.4406 27.8572C14.6106 27.6904 14.7434 27.4897 14.8304 27.268C14.9174 27.0464 14.9567 26.8089 14.9456 26.571C14.9345 26.3332 14.8733 26.1004 14.766 25.8878C14.6588 25.6752 14.5078 25.4877 14.3231 25.3374L9.09168 20.1209Z" fill="#17262F"></path><path d="M9.09166 61.9351C8.93508 61.7785 8.74919 61.6543 8.5446 61.5695C8.34002 61.4848 8.12075 61.4412 7.89931 61.4412C7.67787 61.4412 7.4586 61.4848 7.25402 61.5695C7.04943 61.6543 6.86354 61.7785 6.70696 61.9351C6.55038 62.0917 6.42617 62.2776 6.34143 62.4821C6.25669 62.6867 6.21307 62.906 6.21307 63.1274C6.21307 63.3489 6.25669 63.5681 6.34143 63.7727C6.42617 63.9773 6.55038 64.1632 6.70696 64.3198L11.9235 69.5363C12.2417 69.8517 12.6716 70.0286 13.1196 70.0286C13.5676 70.0286 13.9974 69.8517 14.3156 69.5363C14.6305 69.2194 14.8073 68.7907 14.8073 68.344C14.8073 67.8972 14.6305 67.4685 14.3156 67.1516L9.09166 61.9351Z" fill="#17262F"></path><path d="M9.09167 69.1115C8.76951 68.7953 8.33493 68.62 7.88351 68.6242C7.4321 68.6284 7.00085 68.8117 6.68462 69.1339C6.36839 69.456 6.19309 69.8906 6.19728 70.342C6.20147 70.7935 6.38481 71.2247 6.70697 71.5409L11.9235 76.7575C12.0801 76.9154 12.2664 77.0408 12.4717 77.1263C12.677 77.2119 12.8972 77.2559 13.1196 77.2559C13.342 77.2559 13.5622 77.2119 13.7675 77.1263C13.9728 77.0408 14.1591 76.9154 14.3157 76.7575C14.6306 76.4405 14.8073 76.0119 14.8073 75.5651C14.8073 75.1183 14.6306 74.6897 14.3157 74.3728L9.09167 69.1115Z" fill="#17262F"></path><path d="M9.09165 76.288C8.93812 76.1163 8.75116 75.9778 8.54221 75.8809C8.33327 75.7841 8.10675 75.7309 7.87653 75.7247C7.64631 75.7184 7.41724 75.7593 7.20337 75.8447C6.98949 75.9301 6.7953 76.0583 6.63271 76.2214C6.47011 76.3845 6.34253 76.5791 6.25779 76.7932C6.17304 77.0074 6.13292 77.2366 6.13987 77.4668C6.14682 77.697 6.2007 77.9233 6.29822 78.132C6.39573 78.3406 6.53481 78.5271 6.70695 78.6801L11.9235 83.8967C12.0765 84.0688 12.263 84.2079 12.4716 84.3054C12.6803 84.4029 12.9066 84.4568 13.1368 84.4637C13.367 84.4707 13.5962 84.4306 13.8104 84.3458C14.0245 84.2611 14.2191 84.1335 14.3822 83.9709C14.5453 83.8083 14.6735 83.6141 14.7589 83.4002C14.8443 83.1864 14.8852 82.9573 14.8789 82.7271C14.8727 82.4969 14.8195 82.2703 14.7227 82.0614C14.6258 81.8525 14.4873 81.6655 14.3156 81.512L9.09165 76.288Z" fill="#17262F"></path><path d="M62.1884 13.3469C62.3454 13.5054 62.5323 13.6312 62.7382 13.7169C62.9442 13.8026 63.1651 13.8465 63.3882 13.8462C63.6102 13.8468 63.8302 13.8029 64.0349 13.7172C64.2397 13.6314 64.4253 13.5055 64.5806 13.3469C64.8955 13.0299 65.0722 12.6013 65.0722 12.1545C65.0722 11.7077 64.8955 11.2791 64.5806 10.9622L59.3641 5.74563C59.2105 5.57397 59.0236 5.43547 58.8146 5.33861C58.6057 5.24175 58.3791 5.18857 58.1489 5.18234C57.9187 5.1761 57.6896 5.21694 57.4758 5.30236C57.2619 5.38777 57.0677 5.51595 56.9051 5.67906C56.7425 5.84216 56.6149 6.03674 56.5302 6.25089C56.4454 6.46503 56.4053 6.69423 56.4123 6.92442C56.4192 7.15462 56.4731 7.38098 56.5706 7.58962C56.6681 7.79826 56.8072 7.98479 56.9794 8.13778L62.1884 13.3469Z" fill="#17262F"></path><path d="M62.1884 20.5308C62.5085 20.8455 62.9393 21.0221 63.3882 21.0226C63.6095 21.023 63.8288 20.9797 64.0334 20.8953C64.238 20.811 64.4239 20.6871 64.5806 20.5308C64.896 20.2126 65.0729 19.7827 65.0729 19.3347C65.0729 18.8867 64.896 18.4568 64.5806 18.1386L59.3641 12.9221C59.2075 12.7655 59.0216 12.6413 58.817 12.5565C58.6124 12.4718 58.3931 12.4282 58.1717 12.4282C57.9503 12.4282 57.731 12.4718 57.5264 12.5565C57.3218 12.6413 57.1359 12.7655 56.9794 12.9221C56.8228 13.0787 56.6986 13.2645 56.6138 13.4691C56.5291 13.6737 56.4855 13.893 56.4855 14.1144C56.4855 14.3359 56.5291 14.5551 56.6138 14.7597C56.6986 14.9643 56.8228 15.1502 56.9794 15.3068L62.1884 20.5308Z" fill="#17262F"></path><path d="M62.1884 27.7072C62.5085 28.022 62.9393 28.1986 63.3882 28.1991C63.6095 28.1994 63.8288 28.1562 64.0334 28.0718C64.238 27.9874 64.4239 27.8635 64.5806 27.7072C64.896 27.389 65.0729 26.9591 65.0729 26.5111C65.0729 26.0631 64.896 25.6333 64.5806 25.3151L59.3641 20.0985C59.2075 19.9419 59.0216 19.8177 58.817 19.733C58.6124 19.6483 58.3931 19.6046 58.1717 19.6046C57.9503 19.6046 57.731 19.6483 57.5264 19.733C57.3218 19.8177 57.1359 19.9419 56.9794 20.0985C56.8228 20.2551 56.6986 20.441 56.6138 20.6456C56.5291 20.8502 56.4855 21.0694 56.4855 21.2909C56.4855 21.5123 56.5291 21.7316 56.6138 21.9362C56.6986 22.1408 56.8228 22.3266 56.9794 22.4832L62.1884 27.7072Z" fill="#17262F"></path><path d="M62.1884 69.5512C62.5085 69.866 62.9393 70.0426 63.3882 70.0431C63.7218 70.0436 64.0479 69.9452 64.3254 69.7601C64.6029 69.5751 64.8193 69.3119 64.947 69.0038C65.0747 68.6957 65.108 68.3566 65.0428 68.0295C64.9776 67.7024 64.8167 67.4021 64.5806 67.1665L59.3641 61.95C59.0478 61.6338 58.6189 61.4561 58.1717 61.4561C57.7245 61.4561 57.2956 61.6338 56.9794 61.95C56.6631 62.2662 56.4855 62.6951 56.4855 63.1423C56.4855 63.5896 56.6631 64.0185 56.9794 64.3347L62.1884 69.5512Z" fill="#17262F"></path><path d="M62.1884 76.7575C62.5078 77.0743 62.9384 77.2535 63.3882 77.2568C63.7217 77.2553 64.0473 77.1552 64.3241 76.9693C64.6009 76.7833 64.8165 76.5196 64.9439 76.2115C65.0713 75.9033 65.1048 75.5643 65.0402 75.2372C64.9755 74.9101 64.8156 74.6093 64.5806 74.3728L59.3641 69.1562C59.2082 68.9955 59.022 68.8672 58.8162 68.779C58.6104 68.6907 58.3891 68.6442 58.1652 68.6421C57.9413 68.64 57.7192 68.6824 57.5118 68.7668C57.3044 68.8512 57.1158 68.9759 56.957 69.1337C56.7981 69.2916 56.6722 69.4794 56.5865 69.6863C56.5008 69.8932 56.4571 70.115 56.4578 70.3389C56.4585 70.5628 56.5036 70.7844 56.5906 70.9907C56.6776 71.1971 56.8047 71.3841 56.9645 71.5409L62.1884 76.7575Z" fill="#17262F"></path><path d="M62.1884 83.9041C62.3454 84.0627 62.5323 84.1884 62.7382 84.2742C62.9442 84.3599 63.1651 84.4038 63.3882 84.4034C63.6102 84.4041 63.8302 84.3602 64.0349 84.2745C64.2397 84.1887 64.4253 84.0628 64.5806 83.9041C64.8955 83.5872 65.0722 83.1586 65.0722 82.7118C65.0722 82.265 64.8955 81.8364 64.5806 81.5194L59.3641 76.3029C59.2105 76.1312 59.0236 75.9927 58.8146 75.8959C58.6057 75.799 58.3791 75.7458 58.1489 75.7396C57.9187 75.7334 57.6896 75.7742 57.4758 75.8596C57.2619 75.945 57.0677 76.0732 56.9051 76.2363C56.7425 76.3994 56.6149 76.594 56.5302 76.8082C56.4454 77.0223 56.4053 77.2515 56.4123 77.4817C56.4192 77.7119 56.4731 77.9382 56.5706 78.1469C56.6681 78.3555 56.8072 78.5421 56.9794 78.695L62.1884 83.9041Z" fill="#17262F"></path></g><defs><clipPath id="clip0_5678_32965"><rect width="72.0253" height="90" fill="white"></rect></clipPath></defs></svg>