<svg xmlns="http://www.w3.org/2000/svg" width="133" height="110" viewBox="0 0 133 110" fill="none"><g clip-path="url(#clip0_5678_18787)"><path d="M87.7941 29.198C86.2573 26.5241 83.7678 25.0642 82.2618 25.9401L82.0928 26.0477L79.9106 27.2771L85.5043 36.9585L87.917 35.5601C89.3615 34.6842 89.3462 31.8105 87.7941 29.198Z" fill="#6E6E6E"></path><path d="M85.4429 36.9585C83.9061 37.8345 81.4473 36.3746 79.9106 33.7006C78.3738 31.0267 78.3738 28.153 79.9106 27.2771C81.4473 26.4011 83.8907 27.8764 85.4429 30.5503C86.995 33.2242 86.9489 36.098 85.4429 36.9585Z" fill="#3D3D3D"></path><path d="M69.9064 4.68705C67.8472 1.12181 64.5432 -0.829857 62.53 0.338067L62.2995 0.491741L59.3029 2.21289L66.7561 15.1215L69.9832 13.2467C71.9964 12.0788 71.9656 8.25229 69.9064 4.68705Z" fill="#6E6E6E"></path><path d="M66.7561 15.1214C64.7429 16.2894 61.4697 14.3377 59.3797 10.7571C57.2897 7.17649 57.2897 3.36537 59.3797 2.19744C61.4697 1.02952 64.6968 2.98118 66.7561 6.54642C68.8153 10.1117 68.7692 13.9689 66.7561 15.1214Z" fill="#3D3D3D"></path><path d="M36.3593 110L0 89.0081V82.6152L36.3593 103.607V110Z" fill="#3C3E40"></path><path d="M36.3593 110L72.7186 89.0081V82.6152L36.3593 103.607V110Z" fill="#555A5C"></path><path d="M0 82.6306L36.3593 103.607L72.7186 82.6152L36.3593 61.6233L0 82.6306Z" fill="#858B8C"></path><path d="M59.9329 79.7876L58.3962 77.8974C55.1998 72.78 46.5479 69.1533 36.3593 69.1533C26.1707 69.1533 17.5189 72.78 14.261 77.8974L12.8779 79.7876V82.0927C12.8696 82.1898 12.8696 82.2875 12.8779 82.3847C12.8779 89.7149 23.4046 95.6468 36.3747 95.6468C49.3448 95.6468 59.9329 89.7149 59.9329 82.3847C59.9329 82.2771 59.9329 82.1849 59.9329 82.0927V79.7876Z" fill="#3C3E40"></path><path d="M36.3593 93.695C49.3362 93.695 59.8561 87.7505 59.8561 80.4176C59.8561 73.0847 49.3362 67.1401 36.3593 67.1401C23.3824 67.1401 12.8625 73.0847 12.8625 80.4176C12.8625 87.7505 23.3824 93.695 36.3593 93.695Z" fill="#939899"></path><path d="M36.7128 96.4766V100.349C37.4965 100.134 38.019 99.6884 38.019 99.1812V97.6445C38.019 97.1374 37.4965 96.6917 36.7128 96.4766Z" fill="#6B5C5C"></path><path d="M38.019 97.6446C38.019 98.1671 37.4965 98.6127 36.7128 98.8279C36.0492 99.0126 35.3478 99.0126 34.6843 98.8279C33.9159 98.6127 33.378 98.1671 33.378 97.6446C33.378 97.1221 33.7622 96.8147 34.3616 96.5842L34.5767 96.5074H34.6843C35.3478 96.3226 36.0492 96.3226 36.7128 96.5074C37.4965 96.6918 38.019 97.1374 38.019 97.6446Z" fill="#847271"></path><path d="M37.1277 96.8147V97.5831C37.1277 97.8904 36.805 98.167 36.3286 98.3054H36.1749H35.2221H35.0685H34.9916H34.8379H34.7304L34.6074 98.2131L34.5306 98.1363C34.5219 98.0958 34.5219 98.0539 34.5306 98.0134V96.8147C34.5306 96.5381 34.7765 96.2922 35.1299 96.1539H35.2682C35.4723 96.0909 35.6848 96.0598 35.8983 96.0617C36.1119 96.0588 36.3246 96.0899 36.5284 96.1539C36.8818 96.2154 37.1277 96.492 37.1277 96.8147Z" fill="#C2C2C2"></path><path d="M36.3286 96.0924V98.3514C36.805 98.2131 37.1277 97.9365 37.1277 97.6291V96.8147C37.1277 96.492 36.8818 96.2153 36.3286 96.0924Z" fill="#D4D4D4"></path><path d="M35.4834 96.0309C35.3455 96.0149 35.2063 96.0149 35.0685 96.0309H34.9301C34.5767 96.1692 34.3308 96.4151 34.3308 96.6917V97.4447C34.3221 97.4852 34.3221 97.5272 34.3308 97.5677L34.4077 97.6445L34.5306 97.7367H34.6382H34.7918H34.8687H35.0224H35.2836L35.4834 96.0309Z" fill="#B0B0B0"></path><path d="M34.715 96.2615C34.4538 96.3998 34.2693 96.5842 34.2693 96.8147V97.5677C34.2606 97.6082 34.2606 97.6501 34.2693 97.6906L34.3462 97.7675L34.4691 97.8597L34.715 96.2615Z" fill="#A1A1A1"></path><path d="M37.1277 96.8147C37.1277 97.1374 36.805 97.3987 36.3286 97.537C36.1225 97.5881 35.9109 97.6139 35.6985 97.6138C35.4862 97.6129 35.2748 97.5871 35.0685 97.537C34.5921 97.3987 34.2693 97.1374 34.2693 96.8147C34.2693 96.492 34.5152 96.2922 34.8687 96.1539H35.007C35.211 96.0909 35.4235 96.0598 35.6371 96.0617C35.8506 96.0588 36.0633 96.0899 36.2671 96.1539C36.8818 96.2154 37.1277 96.492 37.1277 96.8147Z" fill="#EDEDED"></path><path d="M67.5091 80.5406V82.0773C67.5091 82.5998 66.9866 83.0455 66.2182 83.2606H65.957H65.6804H65.4652H64.9273H64.6968H64.4356H64.1743H64.036L63.8055 83.1684H63.7287L63.5443 82.984C63.4642 82.9456 63.3914 82.8936 63.3291 82.8303C63.2895 82.7984 63.2534 82.7624 63.2216 82.7227L63.0064 82.4922C63.0108 82.4616 63.0108 82.4306 63.0064 82.4C63.0064 82.4 63.0064 82.4 63.0064 82.3078C62.999 82.2466 62.999 82.1847 63.0064 82.1234V80.5867C63.0064 80.141 63.3906 79.7568 63.9899 79.5109L64.2051 79.4341H64.3127C64.6444 79.3517 64.9851 79.3104 65.3269 79.3112C65.6738 79.3105 66.0195 79.3518 66.3565 79.4341C66.9866 79.5724 67.5091 80.0181 67.5091 80.5406Z" fill="#594D4D"></path><path d="M66.2182 79.3573V83.2145C66.9866 82.9994 67.5091 82.5537 67.5091 82.0312V80.4945C67.5091 80.0181 66.9866 79.5724 66.2182 79.3573Z" fill="#6B5C5C"></path><path d="M64.8351 79.2804C64.6152 79.2636 64.3943 79.2636 64.1743 79.2804H64.0668L63.8516 79.3573C63.2523 79.6032 62.8681 79.9873 62.8681 80.433V81.9697C62.8607 82.031 62.8607 82.0929 62.8681 82.1541C62.8681 82.1541 62.8681 82.1541 62.8681 82.2463V82.3386L62.945 82.4461C62.9768 82.4857 63.0129 82.5218 63.0525 82.5537C63.1148 82.617 63.1876 82.669 63.2677 82.7074L63.4521 82.7996H63.5289L63.7594 82.8918H63.8977H64.159H64.5585L64.8351 79.2804Z" fill="#473D3D"></path><path d="M63.5904 79.6493C63.1755 79.8798 62.8681 80.1871 62.8681 80.5406V82.0773C62.8607 82.1386 62.8607 82.2005 62.8681 82.2617C62.8681 82.2617 62.8681 82.2618 62.8681 82.354V82.4462L62.945 82.5537C62.9768 82.5934 63.0129 82.6294 63.0525 82.6613C63.1148 82.7246 63.1876 82.7766 63.2677 82.815L63.5904 79.6493Z" fill="#383030"></path><path d="M67.5091 80.5406C67.5091 81.0478 66.9866 81.5088 66.2182 81.7086C65.8834 81.8038 65.5367 81.8504 65.1886 81.8469C64.8456 81.8504 64.5039 81.8039 64.1743 81.7086C63.406 81.5088 62.8681 81.0478 62.8681 80.5406C62.8681 80.0335 63.2523 79.7108 63.8516 79.4649L64.0668 79.3881H64.1743C64.5061 79.3056 64.8467 79.2643 65.1886 79.2651C65.5355 79.2645 65.8812 79.3057 66.2182 79.3881C66.9866 79.5725 67.5091 80.0181 67.5091 80.5406Z" fill="#847271"></path><path d="M66.6178 79.6954V80.4637C66.6178 80.7865 66.2951 81.0631 65.8187 81.186H65.665H64.7276H64.5585H64.4202H64.3127L64.1897 81.0938V81.017C64.1897 81.017 64.1897 81.017 64.1897 80.894V80.1257C64.1897 79.8644 64.4356 79.6185 64.8044 79.4802H64.9274C65.1367 79.4568 65.3481 79.4568 65.5574 79.4802C65.7667 79.4548 65.9782 79.4548 66.1875 79.4802C66.2951 79.1114 66.6178 79.388 66.6178 79.6954Z" fill="#C2C2C2"></path><path d="M65.8187 78.9731V81.2014C66.2951 81.0785 66.6178 80.8019 66.6178 80.4792V79.7108C66.6178 79.3881 66.2951 79.1115 65.8187 78.9731Z" fill="#D4D4D4"></path><path d="M64.9734 78.9271C64.8353 78.9187 64.6967 78.9187 64.5585 78.9271H64.4356C64.0668 79.0654 63.8209 79.3112 63.8209 79.5725V80.3409C63.8209 80.3409 63.8209 80.3409 63.8209 80.4638V80.5406L63.9592 80.6328H64.0668H64.2051H64.3741H64.62L64.9734 78.9271Z" fill="#B0B0B0"></path><path d="M64.2051 79.1421C63.9438 79.2958 63.7594 79.4802 63.7594 79.6953V80.4637C63.7594 80.4637 63.7594 80.4637 63.7594 80.5866V80.6635L63.8977 80.7557L64.2051 79.1421Z" fill="#A1A1A1"></path><path d="M66.6178 79.6954C66.6178 80.0181 66.2951 80.2947 65.8187 80.4177C65.6149 80.4816 65.4022 80.5127 65.1886 80.5099C64.9752 80.5105 64.7628 80.4795 64.5585 80.4177C64.0975 80.2947 63.7594 80.0181 63.7594 79.6954C63.7594 79.3727 64.0053 79.1883 64.3741 79.0499H64.4971C64.7064 79.0265 64.9178 79.0265 65.1271 79.0499C65.3364 79.0245 65.5479 79.0245 65.7572 79.0499C66.2951 79.1114 66.6178 79.388 66.6178 79.6954Z" fill="#EDEDED"></path><path d="M9.32802 81.1246V82.6613C9.32802 83.1838 8.80553 83.6294 8.02179 83.8446H7.77591H7.66834H7.4993H7.28416H6.73093H6.51578H6.34674H6.23917H5.99329H5.85499L5.62448 83.7524H5.54764L5.36323 83.6602H5.28639L5.07125 83.5065L4.96368 83.3989L4.88684 83.2914V83.1992C4.88018 83.1688 4.88018 83.1373 4.88684 83.1069C4.87944 83.0457 4.87944 82.9838 4.88684 82.9225V81.3858C4.88684 80.9401 5.27102 80.556 5.87035 80.3101L5.88572 79.9105H5.99329C6.32437 79.8227 6.66505 79.7763 7.00754 79.7722C7.35004 79.7763 7.69071 79.8227 8.02179 79.9105C8.80553 80.1564 9.32802 80.6021 9.32802 81.1246Z" fill="#594D4D"></path><path d="M8.02179 79.9105V83.7677C8.80553 83.5526 9.32802 83.1069 9.32802 82.5845V81.0477C9.32802 80.6021 8.80553 80.1564 8.02179 79.9105Z" fill="#6B5C5C"></path><path d="M6.65409 79.9106C6.43415 79.8937 6.21324 79.8937 5.99329 79.9106H5.88572L5.67058 79.9874C5.07125 80.2333 4.68706 80.6175 4.68706 81.0631V82.5999C4.67966 82.6611 4.67966 82.723 4.68706 82.7843C4.6804 82.8146 4.6804 82.8461 4.68706 82.8765V82.9687L4.7639 83.0763L4.87147 83.1838L5.08662 83.3375H5.16345L5.34786 83.4297H5.4247L5.65521 83.5219H5.79352H6.0394H6.14697H6.45432L6.65409 79.9106Z" fill="#473D3D"></path><path d="M5.40933 80.2179C4.97904 80.4638 4.68706 80.7558 4.68706 81.1246V82.6613C4.67966 82.7226 4.67966 82.7845 4.68706 82.8457C4.6804 82.8761 4.6804 82.9076 4.68706 82.9379V83.0301L4.7639 83.1377L4.87147 83.2453L5.08662 83.399H5.16345L5.40933 80.2179Z" fill="#383030"></path><path d="M9.32803 81.1246C9.32803 81.6317 8.80553 82.0773 8.0218 82.2925C7.69226 82.3878 7.35056 82.4344 7.00755 82.4308C6.66453 82.4344 6.32283 82.3878 5.9933 82.2925C5.22493 82.0773 4.68707 81.6317 4.68707 81.1246C4.68707 80.6174 5.07125 80.2947 5.67058 80.0488L5.88572 79.9105H5.9933C6.32437 79.8227 6.66505 79.7763 7.00755 79.7722C7.35004 79.7763 7.69072 79.8227 8.0218 79.9105C8.80553 80.1564 9.32803 80.6021 9.32803 81.1246Z" fill="#847271"></path><path d="M8.43671 80.2794V81.0478C8.43671 81.3705 8.114 81.6317 7.63761 81.77H7.48393H6.54652H6.37748H6.30064H6.16234H6.14697H6.0394L5.82425 81.4473C5.81679 81.4118 5.81679 81.3752 5.82425 81.3397V80.5714C5.82425 80.3101 6.07013 80.0643 6.42358 79.9106H6.56189C6.76819 79.8605 6.97965 79.8347 7.19195 79.8337C7.40432 79.8336 7.6159 79.8595 7.82202 79.9106C8.114 79.6954 8.43671 79.9106 8.43671 80.2794Z" fill="#C2C2C2"></path><path d="M7.68371 79.5571V81.77C8.1601 81.6317 8.48281 81.3705 8.48281 81.0478V80.2794C8.43671 79.9106 8.114 79.6954 7.68371 79.5571Z" fill="#D4D4D4"></path><path d="M6.7924 79.5109C6.65455 79.4951 6.51533 79.4951 6.37748 79.5109H6.23917C5.88572 79.6646 5.63984 79.9105 5.63984 80.1717V80.9401C5.63238 80.9756 5.63238 81.0122 5.63984 81.0477L5.76278 81.1399H5.87035H6.14697H6.28528H6.36211H6.53115H6.77703L6.7924 79.5109Z" fill="#B0B0B0"></path><path d="M6.02403 79.7261C5.76278 79.8797 5.57837 80.0642 5.57837 80.2793V81.0477C5.57091 81.0831 5.57091 81.1198 5.57837 81.1552L5.70131 81.2474L6.02403 79.7261Z" fill="#A1A1A1"></path><path d="M8.43672 80.2794C8.43672 80.6021 8.114 80.8787 7.63761 81.0017C7.43381 81.0656 7.22113 81.0967 7.00755 81.0939C6.79403 81.0957 6.58151 81.0646 6.37748 81.0017C5.90109 80.8787 5.57838 80.6021 5.57838 80.2794C5.57838 79.9567 5.82426 79.7723 6.17771 79.6186H6.31601C6.52232 79.5685 6.73378 79.5427 6.94608 79.5417C7.15844 79.5417 7.37002 79.5675 7.57614 79.6186C8.114 79.6954 8.43672 79.9106 8.43672 80.2794Z" fill="#EDEDED"></path><path d="M38.8181 64.0052V65.542C38.8181 66.0645 38.2956 66.5101 37.5272 66.7253H37.266H35.7293H35.468H35.3297H35.0992H35.0224L34.8533 66.6331H34.7765C34.6997 66.5892 34.6277 66.5378 34.5613 66.4794L34.4077 66.0798C34.3737 66.0507 34.3474 66.0138 34.3308 65.9723V65.8954C34.3308 65.8954 34.3308 65.8954 34.3308 65.8032C34.3223 65.7369 34.3223 65.6698 34.3308 65.6034V64.0667C34.3308 63.621 34.715 63.2369 35.3143 63.0063L35.5295 62.9295H35.637C35.9666 62.8342 36.3083 62.7876 36.6513 62.7912C36.9994 62.7877 37.3461 62.8342 37.6809 62.9295C38.2956 63.0064 38.8181 63.4981 38.8181 64.0052Z" fill="#594D4D"></path><path d="M37.5272 62.8373V66.6945C38.2956 66.4794 38.8181 66.0337 38.8181 65.5112V63.9745C38.8181 63.4981 38.2956 63.0063 37.5272 62.8373Z" fill="#6B5C5C"></path><path d="M36.1442 62.7451C35.9211 62.751 35.6995 62.782 35.4834 62.8373H35.3758L35.1607 62.9142C34.5613 63.1447 34.1771 63.5289 34.1771 63.9745V65.5113C34.1686 65.5776 34.1686 65.6447 34.1771 65.711C34.1771 65.711 34.1771 65.711 34.1771 65.8032V65.8801C34.1937 65.9216 34.22 65.9585 34.254 65.9876L34.3615 66.1106C34.4279 66.1689 34.5 66.2204 34.5767 66.2643H34.6535L34.8226 66.3565H34.8994H35.1299H35.2682H35.5295H35.929L36.1442 62.7451Z" fill="#473D3D"></path><path d="M34.8994 63.1139C34.4845 63.3444 34.1771 63.6518 34.1771 64.0052V65.5419C34.1686 65.6083 34.1686 65.6754 34.1771 65.7417C34.1771 65.7417 34.1771 65.7417 34.1771 65.8339V65.9108C34.1937 65.9523 34.22 65.9892 34.254 66.0183L34.3615 66.1413C34.4279 66.1996 34.5 66.2511 34.5767 66.2949H34.6535L34.8994 63.1139Z" fill="#383030"></path><path d="M38.8181 64.0053C38.8181 64.5278 38.2956 64.9734 37.5272 65.1886C37.1909 65.2764 36.8452 65.3229 36.4976 65.3269C36.1551 65.3228 35.8144 65.2764 35.4834 65.1886C34.715 64.9734 34.1771 64.5278 34.1771 64.0053C34.1771 63.4828 34.5613 63.1755 35.1607 62.9449L35.3758 62.8681H35.4834C35.8129 62.7728 36.1546 62.7262 36.4976 62.7298C36.8457 62.7263 37.1924 62.7728 37.5272 62.8681C38.2956 63.0064 38.8181 63.4982 38.8181 64.0053Z" fill="#847271"></path><path d="M37.9268 63.1753V63.9284C37.9268 64.2511 37.6041 64.5277 37.1277 64.666H36.974H36.0366H35.8676H35.7907H35.6524H35.5448C35.4971 64.6386 35.4554 64.6021 35.4219 64.5584V64.4816C35.4219 64.4816 35.4219 64.4816 35.4219 64.3586V63.6056C35.4219 63.329 35.6678 63.0831 36.0366 62.9448H36.1595C36.3638 62.883 36.5762 62.8519 36.7896 62.8526C37.0032 62.8497 37.2159 62.8809 37.4197 62.9448C37.6041 62.576 37.9268 62.8526 37.9268 63.1753Z" fill="#C2C2C2"></path><path d="M37.1277 62.4531V64.6814C37.6041 64.5431 37.9268 64.2665 37.9268 63.9438V63.1908C37.9268 62.8527 37.6041 62.5761 37.1277 62.4531Z" fill="#D4D4D4"></path><path d="M36.2825 62.3916C36.1446 62.3756 36.0054 62.3756 35.8676 62.3916H35.7446C35.3758 62.53 35.1299 62.7758 35.1299 63.0524V63.8055C35.1299 63.8055 35.1299 63.8977 35.1299 63.9284V64.0052C35.1658 64.0526 35.2135 64.0897 35.2682 64.1128H35.3758H35.5141H35.591H35.76H36.0059L36.2825 62.3916Z" fill="#B0B0B0"></path><path d="M35.5141 62.6222C35.2529 62.7605 35.0685 62.9449 35.0685 63.1754V63.9284C35.0685 63.9284 35.0685 64.0206 35.0685 64.0514V64.1282C35.1043 64.1756 35.152 64.2127 35.2068 64.2358L35.5141 62.6222Z" fill="#A1A1A1"></path><path d="M37.9268 63.1754C37.9268 63.4828 37.6041 63.7594 37.1277 63.8977C36.9216 63.9488 36.71 63.9746 36.4976 63.9745C36.2854 63.9727 36.074 63.9469 35.8676 63.8977C35.4065 63.7594 35.0685 63.4828 35.0685 63.1754C35.0685 62.8681 35.3143 62.6529 35.6831 62.5146H35.8061C36.0104 62.4528 36.2227 62.4217 36.4362 62.4224C36.6497 62.4195 36.8624 62.4507 37.0662 62.5146C37.6041 62.5761 37.9268 62.8527 37.9268 63.1754Z" fill="#EDEDED"></path><path d="M36.3593 69.2455C46.7016 69.2455 55.1076 73.4254 55.1076 78.5735C55.1076 78.7733 55.1076 78.9731 55.1076 79.1882V81.524H17.6264V78.5735C17.6111 73.4254 26.0017 69.2455 36.3593 69.2455Z" fill="#616161"></path><path d="M55.1229 81.5241C55.1229 85.6733 49.6829 89.2078 42.1836 90.4064C40.2634 90.7205 38.3204 90.8747 36.3747 90.8675C34.4191 90.8676 32.4665 90.7135 30.5351 90.4064C23.0358 89.177 17.6264 85.6733 17.6264 81.5241C17.6264 76.376 26.017 72.196 36.3747 72.196C46.7323 72.196 55.1229 76.376 55.1229 81.5241Z" fill="#2E2E2E"></path><path d="M42.1989 89.884C42.1989 89.884 42.1989 90.0223 42.1989 90.0991C42.2065 90.2014 42.2065 90.3042 42.1989 90.4065C40.2787 90.7205 38.3358 90.8747 36.39 90.8675C34.4344 90.8677 32.4818 90.7135 30.5504 90.4065C30.5429 90.3042 30.5429 90.2014 30.5504 90.0991V84.2441H42.2758L42.1989 89.884Z" fill="#9E4810"></path><path d="M30.5043 84.2442C30.5043 82.4154 33.1322 80.9248 36.3593 80.9248C39.5865 80.9248 42.2297 82.4615 42.2297 84.2442C42.2297 86.0268 39.6018 87.5943 36.3593 87.5943C33.1168 87.5943 30.5043 86.0575 30.5043 84.2442Z" fill="#6B2500"></path><path d="M1.53674 54.1086V72.5495L20.5462 83.5219C24.0807 86.3188 29.8589 88.1321 36.4054 88.1321C47.1626 88.1321 55.9067 83.1992 55.9067 77.1137C55.9067 76.9293 55.9067 58.8111 55.9067 58.6728C55.6454 56.0142 1.53674 54.1086 1.53674 54.1086Z" fill="#D97400"></path><path d="M28.691 49.2525C15.1062 48.4534 1.53674 54.1086 1.53674 54.1086V72.5495L20.5462 83.5219C22.9807 85.3174 25.7665 86.5794 28.7217 87.2254L28.691 49.2525Z" fill="#CC6500"></path><path d="M50.7125 51.2196L28.7832 38.5261L1.53674 54.1087L20.5462 65.081C24.0807 67.8779 29.8589 69.6912 36.4054 69.6912C47.1626 69.6912 55.9067 64.7583 55.9067 58.6574C55.8759 55.7991 53.9089 53.1866 50.7125 51.2196Z" fill="#FF951A"></path><path d="M46.9014 24.0346L61.3467 15.7516L29.152 52.0648L14.9525 60.2249L39.064 21.96L46.9014 24.0346Z" fill="#BD5607"></path><path d="M43.2747 45.7642H36.5284V46.9628C36.24 46.7999 35.9145 46.7142 35.5833 46.7142C35.2521 46.7142 34.9265 46.7999 34.6382 46.9628L30.3968 49.4216L28.86 50.3436L23.0511 48.6225V53.9396C23.0487 54.0133 23.0659 54.0863 23.101 54.1511C23.1361 54.216 23.1878 54.2703 23.2509 54.3084L29.7206 58.0427C30.0191 58.2169 30.3585 58.3087 30.7041 58.3087C31.0497 58.3087 31.3891 58.2169 31.6876 58.0427L38.311 54.2316L43.0288 51.4347C43.0788 51.4056 43.122 51.366 43.1552 51.3185C43.1884 51.2711 43.2109 51.217 43.2212 51.1599C43.2314 51.1029 43.2291 51.0444 43.2145 50.9883C43.1998 50.9323 43.1732 50.8801 43.1363 50.8354H43.2286L43.2747 45.7642Z" fill="#D16811"></path><path d="M30.4121 49.4215L28.8754 50.3436L23.0511 48.6224V53.9396C23.0487 54.0132 23.0659 54.0863 23.101 54.1511C23.1361 54.2159 23.1878 54.2702 23.2509 54.3084L29.7206 58.0427C29.9469 58.1721 30.1985 58.2507 30.4582 58.2732L30.4121 49.4215Z" fill="#803400"></path><path d="M43.0288 45.3953L36.5591 41.661C36.2581 41.4942 35.9197 41.4066 35.5756 41.4066C35.2315 41.4066 34.893 41.4942 34.5921 41.661L30.3968 44.1044L23.2048 48.269C23.1409 48.3052 23.0877 48.3576 23.0507 48.4211C23.0137 48.4845 22.9942 48.5567 22.9942 48.6301C22.9942 48.7036 23.0137 48.7757 23.0507 48.8392C23.0877 48.9026 23.1409 48.9551 23.2048 48.9913L29.6745 52.7255C29.9754 52.8924 30.3139 52.9799 30.658 52.9799C31.0021 52.9799 31.3406 52.8924 31.6415 52.7255L38.2649 48.899L43.0288 46.1022C43.0892 46.065 43.139 46.0131 43.1736 45.9512C43.2082 45.8893 43.2264 45.8196 43.2264 45.7487C43.2264 45.6778 43.2082 45.6081 43.1736 45.5463C43.139 45.4844 43.0892 45.4324 43.0288 45.3953Z" fill="#A34200"></path><path d="M37.2506 45.8409L37.8039 45.9485L36.6513 47.7465L36.2825 47.5467L37.2506 45.8409Z" fill="#803400"></path><path d="M42.368 55.3226L39.9553 53.9242L39.2945 53.5246L38.8488 50.7124C38.9452 50.6889 39.0314 50.6351 39.0947 50.5587L41.0618 47.4852L41.5689 47.8233L42.0453 52.2491V52.6487L42.368 55.3226Z" fill="#803400"></path><path d="M45.2571 41.1539L41.8148 46.4557L41.0617 47.5929L39.0947 50.6664C39.0314 50.7427 38.9452 50.7966 38.8488 50.8201L38.4186 48.6994L36.5898 47.7466L37.7424 45.9486L38.188 45.2571L42.245 38.941L45.2571 41.1539Z" fill="#4A4644"></path><path d="M42.9058 39.402L42.7829 39.4327L37.0816 47.9616L38.48 48.6993L38.6798 49.8365L44.5041 40.5853L42.9058 39.402Z" fill="#363331"></path><path d="M43.1824 38.6336C43.632 38.7046 44.0584 38.8808 44.4269 39.1479C44.7955 39.4149 45.0957 39.7652 45.3032 40.1703C45.6566 40.9233 45.3032 41.4919 44.4426 41.4151C43.993 41.3441 43.5666 41.1679 43.1981 40.9008C42.8296 40.6338 42.5293 40.2834 42.3219 39.8784C41.9684 39.11 42.3526 38.5568 43.1824 38.6336Z" fill="#595959"></path><path d="M52.9254 23.343L53.8167 23.5735L54.3392 24.3573L44.6885 40.2779C44.5238 40.371 44.3337 40.4092 44.1459 40.3871C43.958 40.365 43.7821 40.2837 43.6435 40.155C43.5003 40.0556 43.3882 39.9177 43.3202 39.7572C43.2522 39.5967 43.2311 39.4203 43.2593 39.2483L52.9254 23.343Z" fill="#B2B1AD"></path><path d="M55.5071 19.7471L43.3669 39.8323C43.4356 39.9579 43.5298 40.0678 43.6435 40.155C43.7786 40.2611 43.9364 40.3347 44.1045 40.3701L56.5675 19.7471H55.5071Z" fill="#807F7C"></path><path d="M46.9014 24.0346L41.6303 17.8262L7.60687 55.9835L14.9525 60.2249L46.9014 24.0346Z" fill="#A34200"></path><path d="M37.2506 45.8409L38.2495 45.257L37.8039 45.9485L37.2506 45.8409Z" fill="#FAB03E"></path><path d="M43.6896 54.5851L42.368 55.3534L42.0914 52.7102L42.1528 52.6795H42.076L42.0453 52.2799L41.5689 47.931L41.0618 47.5929L41.8148 46.4557L42.8905 47.1626L43.3976 51.8189L43.413 51.9572V52.0033L43.6896 54.5851Z" fill="#FAB03E"></path><path d="M52.9254 16.7812L47.639 10.5727L59.4719 3.78033C60.3178 3.48098 61.2388 3.46935 62.0919 3.74724C62.945 4.02513 63.6825 4.57698 64.1897 5.31708C66.3412 8.52887 64.6507 9.9273 64.6507 9.9273L52.9254 16.7812Z" fill="#566B6F"></path><path d="M47.6544 10.5728L41.6303 17.8262L46.9014 24.0346L52.9254 16.7966L47.6544 10.5728Z" fill="#1F3B41"></path><path d="M46.9014 24.0346L52.9254 16.7966L67.3708 8.49817L61.3467 15.7516L46.9014 24.0346Z" fill="#1C2224"></path><path d="M66.9098 36.2671L52.9254 16.7966L67.3708 8.49817L81.3551 27.9841L66.9098 36.2671Z" fill="#FF951A"></path><path d="M52.9254 16.7965L48.0232 22.5439L63.6058 41.1846L66.9098 36.267L52.9254 16.7965Z" fill="#A34200"></path><path d="M85.7502 49.3294L71.5815 41.2922L85.1662 33.4856L99.335 41.5228L85.7502 49.3294Z" fill="#FAB03E"></path><path d="M85.7502 57.5509V49.3294L99.335 41.5227V49.7596L85.7502 57.5509Z" fill="#D97400"></path><path d="M71.5814 41.2922L66.9558 46.7016L85.7502 57.551V49.3294L71.5814 41.2922Z" fill="#A34200"></path><path d="M63.6058 41.1846L66.9098 36.2671L81.3551 27.984L78.0511 32.9016L63.6058 41.1846Z" fill="#D97400"></path><path d="M33.5163 48.0693L34.8533 47.3009L36.5284 47.639L39.1716 49.3909L39.9707 56.8133L38.6337 57.5817L33.5163 48.0693Z" fill="#FAB03E"></path><path d="M32.5482 49.775L33.5163 48.0692L35.2068 48.4073L37.8346 50.1592L38.6337 57.5816L35.6063 55.7529L34.7457 50.9276L32.5482 49.775Z" fill="#803400"></path><path d="M12.1249 78.7272L1.506 72.5956V49.9901L12.1249 56.1217V78.7272Z" fill="#3C3E40"></path><path d="M12.1249 68.6308L13.7231 61.1622L22.7284 55.7068V49.9901L12.1249 56.1217V68.6308Z" fill="#555A5C"></path><path d="M1.506 49.9901L12.1249 56.1217L22.7438 49.9901L12.1249 43.8585L1.506 49.9901Z" fill="#858B8C"></path><path d="M18.656 42.6906V49.2832C18.656 50.82 17.1193 52.1569 14.7835 52.787C14.5325 52.8682 14.2756 52.9298 14.0151 52.9714H13.7077H13.4772H13.216H12.5552H11.0184H10.373H10.0964H9.86589H9.55854C9.29877 52.9263 9.04212 52.8647 8.79017 52.787L8.39061 52.6794C8.15059 52.6047 7.91464 52.5175 7.68371 52.4182C7.57799 52.3778 7.47941 52.3207 7.39173 52.2491L6.85387 51.9879L6.63873 51.8496C6.41148 51.7136 6.19563 51.5594 5.9933 51.3886L5.83962 51.2503L5.51691 50.9275C5.43071 50.8608 5.3486 50.789 5.27103 50.7124C5.21132 50.6306 5.15984 50.5431 5.11735 50.4512C5.06727 50.3687 5.02606 50.2811 4.99441 50.1899V50.0362V49.9594C4.97095 49.7706 4.97095 49.5796 4.99441 49.3908V42.6906C4.99441 41.369 6.14697 40.2011 7.91422 39.5096C8.12237 39.4144 8.33831 39.3373 8.55965 39.279L8.867 39.1715C9.87004 38.9082 10.9035 38.7791 11.9405 38.7873C12.9775 38.7785 14.011 38.9077 15.014 39.1715C17.0886 39.8169 18.656 41.1385 18.656 42.6906Z" fill="#C43333"></path><path d="M14.7835 39.1715H14.6759V52.8331H14.7835C17.0886 52.2031 18.6561 50.8661 18.6561 49.3294V42.6906C18.6561 41.1385 17.0886 39.8169 14.7835 39.1715Z" fill="#D63838"></path><path d="M10.7572 38.9257C10.0961 38.9564 9.43846 39.0386 8.79017 39.1715L8.48282 39.2791C8.26147 39.3373 8.04553 39.4144 7.83739 39.5096C6.07013 40.2012 4.91758 41.3691 4.91758 42.6907V49.2833C4.89411 49.4721 4.89411 49.6631 4.91758 49.8519C4.91758 49.9287 4.91758 49.9595 4.91758 50.0209C4.94622 50.1181 4.98755 50.2112 5.04052 50.2976C5.08301 50.3895 5.13448 50.477 5.19419 50.5588C5.26736 50.6776 5.34956 50.7907 5.44007 50.8969L5.76279 51.2196L5.91646 51.3579C6.11603 51.5323 6.33221 51.6867 6.56189 51.8189L6.77703 51.9572L7.3149 52.2185C7.38714 52.2635 7.46453 52.2996 7.54541 52.326C7.77131 52.4249 8.00212 52.5121 8.23694 52.5873L8.63649 52.6949C8.88845 52.7726 9.14509 52.8341 9.40486 52.8793H9.71221H9.94272H10.2193H10.6035L10.7572 38.9257Z" fill="#B22E2E"></path><path d="M6.96144 39.9552C5.73204 40.6621 4.84073 41.4919 4.84073 42.6445V49.2371C4.81727 49.4259 4.81727 49.6169 4.84073 49.8057C4.84073 49.8826 4.84073 49.9133 4.84073 49.9748C4.86938 50.072 4.91071 50.165 4.96367 50.2514C5.00616 50.3433 5.05764 50.4308 5.11735 50.5126C5.19051 50.6315 5.27272 50.7445 5.36323 50.8507L5.68594 51.1734L5.83962 51.3117C6.03919 51.4861 6.25536 51.6405 6.48505 51.7727L6.70019 51.9111H6.80776L6.96144 39.9552Z" fill="#A32A2A"></path><path d="M18.656 42.6906C18.656 44.2274 17.1193 45.5489 14.7835 46.1944C12.7952 46.7272 10.7016 46.7272 8.71333 46.1944C6.40821 45.5489 4.84074 44.2274 4.84074 42.6906C4.84074 41.1539 5.99329 40.2011 7.76055 39.5096C7.96869 39.4144 8.18463 39.3373 8.40598 39.279L8.71333 39.1715C9.71636 38.9082 10.7498 38.7791 11.7868 38.7873C12.8238 38.7785 13.8574 38.9077 14.8603 39.1715C17.0886 39.8169 18.656 41.1385 18.656 42.6906Z" fill="#FF5C5C"></path><path d="M15.3674 41.7071V42.6906C15.3674 43.5051 14.5222 44.2273 13.3082 44.5501L12.8933 44.6576H12.7396H12.6013H12.5398H12.171H11.3258H10.9723H10.834H10.7111H10.5421L10.1271 44.5654H9.92736L9.54317 44.4271H9.42023L9.22045 44.1505H9.09751L8.75943 43.9046L8.68259 43.8278L8.51355 43.6434C8.45932 43.5942 8.4127 43.5372 8.37525 43.4743C8.34392 43.4317 8.31811 43.3852 8.29841 43.336C8.29262 43.2901 8.29262 43.2437 8.29841 43.1977V43.1209C8.29088 43.0237 8.29088 42.9261 8.29841 42.8289V41.8454C8.29841 41.1539 8.91311 40.5238 9.83515 40.155L9.97346 39.9552H10.1271C11.1885 39.665 12.3083 39.665 13.3697 39.9552C14.5837 40.1857 15.3674 40.8926 15.3674 41.7071Z" fill="#C43333"></path><path d="M13.3697 39.8477V44.5655C14.5837 44.2274 15.4289 43.5205 15.4289 42.706V41.7225C15.3674 40.8926 14.5837 40.1857 13.3697 39.8477Z" fill="#D63838"></path><path d="M11.1875 39.7094C10.8305 39.7221 10.4755 39.7684 10.1271 39.8477H9.97346L9.62001 39.9552C8.6826 40.324 8.08327 40.9541 8.08327 41.6456V42.6292C8.07574 42.7263 8.07574 42.824 8.08327 42.9211C8.08107 42.9518 8.08107 42.9827 8.08327 43.0133V43.167C8.10297 43.2162 8.12878 43.2626 8.1601 43.3053C8.19756 43.3682 8.24418 43.4252 8.29841 43.4744L8.46745 43.6588L8.54429 43.7356L8.88237 43.9815H9.00531L9.28193 44.1352H9.40487L9.78905 44.2735H9.98883L10.4037 44.381H10.7572H10.8801H11.2336L11.1875 39.7094Z" fill="#B22E2E"></path><path d="M9.22046 40.278C8.55966 40.6621 8.08327 41.1385 8.08327 41.7071V42.6906C8.07574 42.7878 8.07574 42.8854 8.08327 42.9826C8.08107 43.0133 8.08107 43.0441 8.08327 43.0748V43.2285C8.10297 43.2776 8.12878 43.3241 8.1601 43.3668C8.19756 43.4297 8.24418 43.4867 8.29841 43.5358L8.46745 43.7203L8.54429 43.7971L8.88237 44.043H9.00531L9.22046 40.278Z" fill="#A32A2A"></path><path d="M15.3674 41.7071C15.3674 42.5369 14.5222 43.2438 13.3082 43.5819C12.8067 43.7144 12.2902 43.7815 11.7714 43.7817C11.222 43.7882 10.6741 43.721 10.1425 43.5819C8.92847 43.2438 8.08327 42.5369 8.08327 41.7071C8.08327 40.8773 8.69796 40.3855 9.62001 40.0167L9.97346 39.9552H10.1271C11.1885 39.665 12.3083 39.665 13.3697 39.9552C14.5837 40.1857 15.3674 40.8926 15.3674 41.7071Z" fill="#FF7272"></path><path d="M69.6759 43.9047L65.0657 38.4646L80.1411 29.7513C80.8891 29.4923 81.7023 29.4908 82.4513 29.7469C83.2003 30.0031 83.8422 30.5022 84.2749 31.1651C86.1651 33.9773 84.6745 35.2374 84.6745 35.2374L69.6759 43.9047Z" fill="#566B6F"></path><path d="M96.2769 58.0427L90.3758 54.708V44.3657L99.335 49.5445L96.2769 58.0427Z" fill="#AC5200"></path><path d="M96.2769 58.0427L105.221 52.8639L108.294 44.3657L99.335 49.5445L96.2769 58.0427Z" fill="#EB9500"></path><path d="M90.3758 44.3657L99.335 49.5445L108.294 44.3657L99.335 39.2023L90.3758 44.3657Z" fill="#FFAE50"></path><path d="M96.0003 49.8826C95.7237 49.4062 95.2934 49.1604 95.0321 49.314L94.6326 49.5446L95.6161 51.235L96.0464 50.9891C96.2769 50.8508 96.2615 50.3437 96.0003 49.8826Z" fill="#6E6E6E"></path><path d="M95.5854 51.2503C95.3241 51.404 94.8938 51.1427 94.6172 50.6817C94.3406 50.2207 94.3406 49.7136 94.6172 49.5599C94.8938 49.4062 95.3241 49.6521 95.5854 50.1285C95.8466 50.6049 95.8466 51.0966 95.5854 51.2503Z" fill="#3D3D3D"></path><path d="M85.9346 63.1447H85.4121C78.0358 62.7144 70.1369 45.4414 69.7988 44.7038L71.1973 44.0737C73.3641 48.8376 80.1411 61.3006 85.5043 61.608C86.2449 61.6832 86.9929 61.6017 87.6999 61.3687C88.4068 61.1357 89.0568 60.7564 89.6074 60.2556C90.1624 59.7157 90.6044 59.0708 90.9078 58.3585C91.2112 57.6462 91.3699 56.8806 91.3747 56.1064C91.3747 55.4149 91.5591 51.9572 93.2649 50.6202C93.6848 50.2799 94.144 49.991 94.6326 49.7597C94.7786 49.7606 94.9218 49.7993 95.0484 49.872C95.175 49.9447 95.2805 50.049 95.3549 50.1746C95.4573 50.2804 95.5265 50.414 95.5538 50.5588C95.5811 50.7036 95.5654 50.8532 95.5085 50.9891C95.0504 51.2199 94.6178 51.498 94.2177 51.8189C93.2996 53.0658 92.8384 54.5905 92.9114 56.1372C92.9029 57.1157 92.7002 58.0827 92.3151 58.9823C91.9299 59.8818 91.37 60.696 90.6678 61.3774C89.3752 62.5518 87.6806 63.1845 85.9346 63.1447Z" fill="black"></path><path d="M22.1137 51.8804L21.3607 50.528C31.6108 44.7345 49.0221 24.4034 49.268 24.2344L50.1132 23.2662L50.5742 24.4649C51.7586 27.4246 53.1026 30.318 54.6004 33.1321C57.0131 37.7423 62.822 37.7423 62.8835 37.7423V39.2791C62.6069 39.2791 56.0911 39.1869 53.2635 33.839C51.4962 30.4889 50.2668 27.6921 49.6368 26.1553C45.9793 30.3506 31.4417 46.6093 22.1137 51.8804Z" fill="black"></path><path d="M52.3568 14.8449C50.2976 11.2796 46.9936 9.32798 44.9804 10.4959L44.7653 10.6496L41.7533 12.3707L49.1757 25.2794L52.4029 23.4045C54.4468 22.2366 54.416 18.4409 52.3568 14.8449Z" fill="#6E6E6E"></path><path d="M49.1757 25.2793C47.1626 26.4472 43.874 24.4956 41.8148 20.9303C39.7555 17.3651 39.7094 13.5386 41.7225 12.3707C43.7357 11.2027 47.0397 13.1544 49.0989 16.7196C51.1581 20.2849 51.235 24.1267 49.1757 25.2793Z" fill="#3D3D3D"></path><path d="M70.9975 38.8641C69.4607 36.1902 66.9866 34.7303 65.4806 35.6062L65.3115 35.7292L63.0064 37.02L68.6002 46.7015L71.0128 45.2877C72.5803 44.4118 72.5496 41.492 70.9975 38.8641Z" fill="#6E6E6E"></path><path d="M68.6463 46.7015C67.1095 47.5775 64.6661 46.1176 63.114 43.4436C61.5619 40.7697 61.5773 37.8806 63.114 37.0201C64.6507 36.1595 67.0942 37.604 68.6463 40.278C70.1984 42.9519 70.1523 45.8256 68.6463 46.7015Z" fill="#3D3D3D"></path><path d="M99.4733 51.0966C101.01 48.4227 103.5 46.9628 105.006 47.8234L105.175 47.9463L107.418 49.1757L101.84 58.8572L99.4118 57.4434C97.9058 56.6443 97.9366 53.7859 99.4733 51.0966Z" fill="#6E6E6E"></path><path d="M101.84 58.9187C103.377 59.7946 105.82 58.3347 107.372 55.6608C108.924 52.9869 108.909 50.1132 107.372 49.2372C105.835 48.3613 103.392 49.8212 101.855 52.4951C100.319 55.169 100.319 58.0427 101.84 58.9187Z" fill="#3D3D3D"></path><path d="M102.716 52.9715C103.807 51.0813 105.559 50.0517 106.619 50.6664L106.742 50.7586L117.73 57.1668L113.796 63.9899L102.67 57.5202C101.609 56.8594 101.625 54.8617 102.716 52.9715Z" fill="#313131"></path><path d="M113.796 63.9745C114.856 64.5892 116.608 63.5596 117.699 61.6694C118.79 59.7792 118.806 57.766 117.699 57.1513C116.593 56.5366 114.887 57.5663 113.796 59.4411C112.705 61.3159 112.72 63.3598 113.796 63.9745Z" fill="black"></path><path d="M126.305 63.2061L124.876 65.6802L123.247 68.5232L114.61 63.4827C113.719 63.0063 113.796 61.4696 114.641 59.9328C115.486 58.3961 116.839 57.6584 117.714 58.1348H117.807L126.305 63.2061Z" fill="#ABABAB"></path><path d="M132.544 74.7317L130.285 76.1301L128.149 77.4517L123.277 68.5232C122.54 68.1083 122.54 66.6945 123.277 65.4497C123.277 65.3422 123.4 65.2346 123.477 65.1424C124.23 64.0206 125.598 62.9602 126.289 63.3444C126.503 63.4865 126.661 63.6983 126.735 63.9437L132.544 74.7317Z" fill="#ABABAB"></path><path d="M132.544 74.7317L130.285 76.1301L124.722 65.9876L124.568 65.6342L123.493 65.081L114.841 59.7638C115.594 58.4422 116.792 57.7353 117.545 58.2271H117.622L126.305 63.2983C126.518 63.4404 126.676 63.6523 126.75 63.8977L132.544 74.7317Z" fill="#C3C3C3"></path><path d="M128.103 77.3441C128.333 77.9435 129.517 77.8666 130.746 77.1443C131.975 76.4221 132.775 75.3003 132.544 74.7317C132.313 74.1631 131.13 74.1938 129.901 74.9161C128.671 75.6383 127.872 76.7294 128.103 77.3441Z" fill="#9A9A9A"></path></g><defs><clipPath id="clip0_5678_18787"><rect width="132.59" height="110" fill="white"></rect></clipPath></defs></svg>