<svg xmlns="http://www.w3.org/2000/svg" width="77" height="100" viewBox="0 0 77 100" fill="none"><g clip-path="url(#clip0_5678_16798)"><path d="M5.6034 50.9518C5.60952 51.0679 5.59117 51.184 5.54952 51.2926C5.50787 51.4011 5.44386 51.4997 5.36164 51.5819C5.27943 51.6642 5.18084 51.7282 5.07229 51.7698C4.96373 51.8115 4.84763 51.8298 4.73152 51.8237C4.62162 51.8211 4.51339 51.7962 4.41345 51.7504C4.31352 51.7046 4.22399 51.6388 4.15034 51.5572C4.07668 51.4756 4.02046 51.3798 3.9851 51.2757C3.94974 51.1716 3.936 51.0614 3.94471 50.9518V41.7546C3.94121 41.5367 4.02045 41.3255 4.16646 41.1637C4.31247 41.0019 4.5144 40.9015 4.73152 40.8827H22.4242C22.6506 40.8977 22.8637 40.9943 23.0241 41.1547C23.1845 41.3151 23.2811 41.5283 23.2961 41.7546C23.2773 41.9717 23.1769 42.1736 23.0151 42.3196C22.8533 42.4657 22.6422 42.5449 22.4242 42.5414H5.6034V50.9518ZM26.1031 42.5308C25.9989 42.5322 25.8955 42.5129 25.7988 42.474C25.7021 42.435 25.6141 42.3773 25.5399 42.3041C25.4657 42.2309 25.4068 42.1437 25.3666 42.0475C25.3264 41.9514 25.3057 41.8482 25.3057 41.7439C25.3024 41.5243 25.3831 41.3118 25.5313 41.1497C25.6796 40.9876 25.8841 40.8883 26.1031 40.8721H27.2408C27.4721 40.8721 27.6938 40.9639 27.8573 41.1274C28.0208 41.2909 28.1127 41.5127 28.1127 41.7439C28.1102 41.8539 28.0852 41.9621 28.0394 42.062C27.9936 42.1619 27.9278 42.2515 27.8462 42.3251C27.7646 42.3988 27.6688 42.455 27.5647 42.4904C27.4606 42.5257 27.3504 42.5395 27.2408 42.5308H26.1031ZM30.3562 42.5308C30.1475 42.5308 29.9474 42.4479 29.7998 42.3003C29.6523 42.1528 29.5694 41.9526 29.5694 41.7439C29.5659 41.526 29.6451 41.3149 29.7911 41.1531C29.9371 40.9913 30.1391 40.8909 30.3562 40.8721H42.7964C43.0135 40.8909 43.2154 40.9913 43.3614 41.1531C43.5075 41.3149 43.5867 41.526 43.5832 41.7439C43.5832 41.9526 43.5003 42.1528 43.3527 42.3003C43.2052 42.4479 43.0051 42.5308 42.7964 42.5308H30.3562ZM46.0393 42.5308C45.8196 42.537 45.6058 42.459 45.4417 42.3127C45.2777 42.1664 45.1757 41.9629 45.1568 41.7439C45.1721 41.5159 45.2702 41.3013 45.4328 41.1407C45.5954 40.9801 45.8111 40.8845 46.0393 40.8721H70.0691C70.2954 40.887 70.5086 40.9837 70.669 41.1441C70.8293 41.3045 70.926 41.5176 70.941 41.7439V50.9412C70.9419 52.2746 70.6794 53.5951 70.1685 54.8267C69.6576 56.0584 68.9083 57.177 67.9638 58.1182C66.0551 59.9513 63.5181 60.9858 60.8719 61.0103H17.6077C17.399 61.0103 17.1988 60.9274 17.0513 60.7798C16.9037 60.6323 16.8208 60.4322 16.8208 60.2235C16.8173 60.0056 16.8966 59.7944 17.0426 59.6326C17.1886 59.4708 17.3905 59.3704 17.6077 59.3516H60.8719C61.9659 59.3638 63.0509 59.1522 64.0602 58.7298C65.0695 58.3074 65.9818 57.6832 66.7411 56.8955C67.5478 56.1289 68.1886 55.2049 68.6238 54.1807C69.0591 53.1566 69.2796 52.054 69.2717 50.9412V42.5308H46.0393ZM14.0138 59.3622C14.2309 59.381 14.4329 59.4815 14.5789 59.6433C14.7249 59.8051 14.8041 60.0162 14.8006 60.2341C14.8006 60.4428 14.7177 60.6429 14.5702 60.7905C14.4226 60.938 14.2225 61.0209 14.0138 61.0209C13.234 61.0233 12.4565 60.9377 11.6959 60.7657C10.9631 60.6069 10.25 60.368 9.56938 60.0534C8.78855 59.6689 8.07136 59.1669 7.44285 58.5648C6.74859 58.0355 6.15752 57.3832 5.69909 56.6403C5.56956 56.4521 5.51518 56.2222 5.54666 55.9959C5.57815 55.7696 5.69322 55.5632 5.86922 55.4175C6.06088 55.3262 6.2779 55.3027 6.48465 55.351C6.6914 55.3993 6.87557 55.5165 7.00691 55.6833C7.46103 56.2758 7.96241 56.8305 8.50611 57.342C9.07328 57.8149 9.69003 58.2249 10.3456 58.5648C10.9435 58.8132 11.5582 59.0193 12.185 59.1815C12.7845 59.3401 13.4056 59.4012 14.0245 59.3622H14.0138ZM6.13503 53.929C6.17929 54.1402 6.15085 54.3601 6.05434 54.5532C5.95784 54.7462 5.79892 54.9009 5.6034 54.9922C5.3918 55.052 5.1655 55.0306 4.96883 54.9323C4.77216 54.8339 4.61928 54.6657 4.54014 54.4606L4.46571 54.2267C4.42768 54.1221 4.41136 54.0109 4.41775 53.8999C4.42413 53.7888 4.45308 53.6802 4.50283 53.5807C4.55258 53.4812 4.62209 53.3929 4.70711 53.3211C4.79214 53.2494 4.89089 53.1957 4.99734 53.1634C5.10094 53.1219 5.2121 53.1026 5.32362 53.1068C5.43515 53.1109 5.54456 53.1385 5.64478 53.1876C5.745 53.2367 5.83379 53.3063 5.90542 53.3918C5.97705 53.4774 6.02992 53.5771 6.0606 53.6844L6.13503 53.929Z" fill="#17262F"></path><path d="M42.3923 69.4312C42.2966 68.9952 42.6475 68.6444 43.1792 68.5487C43.394 68.561 43.5981 68.6471 43.7569 68.7924C43.9157 68.9376 44.0196 69.1332 44.051 69.3461V69.6013C44.0573 69.821 43.9793 70.0348 43.833 70.1989C43.6867 70.363 43.4832 70.4649 43.2642 70.4838C43.1546 70.4925 43.0444 70.4788 42.9403 70.4434C42.8362 70.4081 42.7404 70.3518 42.6588 70.2782C42.5772 70.2045 42.5115 70.115 42.4657 70.0151C42.4198 69.9151 42.3949 69.8069 42.3923 69.697V69.4312ZM42.5306 72.7592C42.542 72.5446 42.6262 72.3403 42.7692 72.1799C42.9122 72.0195 43.1055 71.9126 43.3174 71.8767C43.5381 71.8732 43.7519 71.9535 43.9157 72.1016C44.0795 72.2496 44.1811 72.4542 44.1999 72.6741L44.5508 78.3626C44.6358 78.7985 44.2849 79.1494 43.7639 79.2345C43.5481 79.2269 43.3418 79.1442 43.1806 79.0005C43.0194 78.8568 42.9136 78.6612 42.8814 78.4477L42.5306 72.7592ZM43.0622 80.9889C43.0721 80.7749 43.156 80.571 43.2995 80.412C43.443 80.253 43.6372 80.1487 43.849 80.117C44.0669 80.1135 44.2781 80.1927 44.4399 80.3387C44.6017 80.4847 44.7021 80.6867 44.7209 80.9038L45.5077 92.7273V92.8124C45.5477 94.2095 45.1624 95.5858 44.403 96.7592C43.6435 97.9326 42.5456 98.8476 41.2546 99.3833C40.246 99.8089 39.1595 100.019 38.0649 100C37.0404 100.004 36.0264 99.7936 35.0877 99.3833C33.8131 98.8493 32.7271 97.9465 31.9693 96.7908C31.2114 95.6351 30.8163 94.2793 30.8347 92.8974L32.9612 60.1489C32.9612 59.9402 33.0441 59.7401 33.1916 59.5925C33.3392 59.445 33.5393 59.3621 33.748 59.3621H42.5306C42.7628 59.362 42.9857 59.4536 43.1509 59.6168C43.3161 59.78 43.4103 60.0017 43.4131 60.2339L43.849 66.89C43.8525 67.1079 43.7733 67.319 43.6273 67.4808C43.4812 67.6426 43.2793 67.743 43.0622 67.7618C42.9535 67.7758 42.8431 67.7659 42.7386 67.7329C42.6341 67.6999 42.5381 67.6446 42.4571 67.5707C42.3762 67.4969 42.3123 67.4063 42.2699 67.3053C42.2275 67.2042 42.2076 67.0952 42.2116 66.9857L41.8607 61.0314H34.5029L32.4933 92.9293C32.4731 93.9909 32.7711 95.0342 33.3491 95.9249C33.9271 96.8156 34.7585 97.5128 35.7363 97.9267C36.4796 98.25 37.287 98.3991 38.0968 98.3626C38.9373 98.3956 39.7751 98.2469 40.5529 97.9267C41.5525 97.5097 42.404 96.8025 42.9973 95.8965C43.5906 94.9904 43.8984 93.9271 43.8809 92.8442L43.0622 80.9889Z" fill="#17262F"></path><path d="M75.4918 9.17609C75.4873 9.28195 75.4603 9.38563 75.4125 9.4802C75.3647 9.57478 75.2973 9.65807 75.2148 9.7245C75.1323 9.79093 75.0365 9.83898 74.9339 9.86542C74.8313 9.89187 74.7242 9.8961 74.6199 9.87784C74.4017 9.83631 74.2075 9.71305 74.0771 9.53323C73.9467 9.35341 73.8898 9.1306 73.9181 8.91027L74.6199 4.00863L74.269 4.3595C72.9506 5.84807 71.462 7.60246 70.0159 7.4217C68.5699 7.24095 67.6555 5.84807 66.8262 4.44456C66.2095 3.57269 65.7629 2.78587 65.5928 2.87093C64.8591 3.18991 64.6358 4.18938 64.37 5.06126C64.0191 6.54983 63.5832 7.85764 62.0946 7.85764C61.1271 7.85764 60.6061 6.46477 60.0851 5.06126C59.8192 4.18938 59.7342 3.39193 59.6385 3.13675C58.3416 3.75351 57.2707 4.76122 56.5763 6.01819C56.1878 6.4592 55.8324 6.92832 55.513 7.4217C55.4496 7.51003 55.3675 7.58338 55.2727 7.6366C55.1778 7.68981 55.0725 7.72158 54.964 7.72969C54.8556 7.7378 54.7467 7.72204 54.645 7.68353C54.5432 7.64501 54.4512 7.58468 54.3753 7.50676L53.8543 6.98577C53.1469 6.22418 52.3866 5.51357 51.5789 4.85924C50.7233 4.38726 49.8308 3.98545 48.9102 3.65775L47.6874 3.04105C47.2829 3.89901 46.9279 4.77941 46.6241 5.67795C46.3401 6.73213 45.8954 7.73629 45.3057 8.65509C45.258 8.7472 45.191 8.82796 45.1094 8.89191C45.0277 8.95585 44.9332 9.00147 44.8324 9.02568C44.7315 9.04988 44.6266 9.05211 44.5248 9.03219C44.423 9.01228 44.3267 8.9707 44.2424 8.91027C44.1525 8.87964 44.0721 8.82637 44.0087 8.7556C43.9454 8.68484 43.9014 8.59896 43.8809 8.50623C43.5987 7.74322 43.2426 7.00962 42.8177 6.31591C42.2824 5.56589 41.9492 4.69076 41.8501 3.77471L36.7889 8.38927C36.6345 8.53743 36.4288 8.62016 36.2148 8.62016C36.0008 8.62016 35.7951 8.53743 35.6406 8.38927C35.5887 8.34647 35.5466 8.29296 35.5173 8.2324C35.4879 8.17185 35.472 8.10568 35.4705 8.0384L33.2802 2.34993L27.7618 8.20852C27.6001 8.33704 27.3996 8.407 27.193 8.407C26.9864 8.407 26.7859 8.33704 26.6241 8.20852L20.202 3.18991C19.7082 4.07168 19.4655 5.07195 19.5003 6.08199C19.4822 7.00981 19.3023 7.92736 18.9686 8.79331C18.9304 8.89403 18.8719 8.98582 18.7967 9.06299C18.7215 9.14016 18.6313 9.20107 18.5316 9.24194C18.4319 9.28281 18.3249 9.30277 18.2172 9.30059C18.1094 9.29841 18.0033 9.27413 17.9054 9.22925C17.6712 9.12532 17.4824 8.9403 17.3737 8.70825L17.2887 8.17662C16.5019 5.19948 16.0659 3.8066 12.5572 3.18991C12.3477 3.13223 12.1642 3.00501 12.0366 2.82916C11.9091 2.65332 11.8452 2.43932 11.8554 2.22234C11.9035 2.01377 12.0324 1.83282 12.2138 1.71919C12.3952 1.60557 12.6143 1.56855 12.823 1.61628C16.0128 2.05222 17.2036 3.10485 17.9054 4.80607C18.1146 3.66338 18.56 2.57695 19.2132 1.61628L19.2983 1.53122C19.4414 1.37112 19.6411 1.27279 19.8552 1.25692C20.0694 1.24106 20.2814 1.3089 20.4466 1.44616L27.0069 6.52856L33.0144 0.24467C33.0994 0.159609 33.1951 0.0639149 33.2802 0.0639149C33.3776 0.0120917 33.4854 -0.0173997 33.5957 -0.0224225C33.706 -0.0274453 33.816 -0.0078737 33.9178 0.0348742C34.0196 0.0776222 34.1106 0.142476 34.1842 0.224736C34.2578 0.306997 34.3122 0.404604 34.3434 0.510486L36.6082 6.3797L41.9245 1.393C42.0867 1.29527 42.268 1.23362 42.4561 1.21224C42.5683 1.19438 42.683 1.20205 42.7918 1.23468C42.9006 1.26731 43.0006 1.32406 43.0844 1.40071C43.1682 1.47735 43.2336 1.57192 43.2758 1.67736C43.318 1.7828 43.3358 1.89639 43.328 2.00969C43.2442 3.21298 43.554 4.4109 44.2105 5.42277C44.3807 5.68858 44.4657 5.94377 44.6465 6.20958C44.8021 5.8691 44.9197 5.51254 44.9973 5.14632C45.4025 3.94359 45.9002 2.77405 46.4859 1.64818C46.5286 1.55171 46.591 1.46525 46.6692 1.3944C46.7474 1.32354 46.8395 1.26985 46.9397 1.23679C47.0399 1.20373 47.1459 1.19203 47.2508 1.20245C47.3558 1.21288 47.4575 1.24519 47.5492 1.2973L49.5694 2.12665C50.5685 2.5185 51.5354 2.98776 52.4615 3.53016C53.3246 4.1494 54.1163 4.86262 54.8219 5.65669L55.2897 4.9762C56.6082 3.22181 57.3099 2.34993 59.3195 1.55248C59.3807 1.4972 59.4604 1.46685 59.5428 1.46742C60.6061 1.46742 61.1164 2.95599 61.6693 4.44456C61.9245 5.32707 61.9245 6.19895 62.1053 6.19895C62.286 6.19895 62.6263 5.4972 62.807 4.62532C63.1579 3.39193 63.5938 1.99906 64.7315 1.43553H64.8591C66.2626 0.733771 67.2302 2.13728 68.1871 3.62585C68.8038 4.68911 69.5056 5.81617 70.1223 5.81617C70.739 5.81617 71.9936 4.44456 73.0462 3.18991C74.0032 2.12665 74.8751 1.16971 75.6725 1.16971H75.8426C76.0608 1.20882 76.2558 1.32951 76.3881 1.50726C76.5204 1.68501 76.5801 1.90648 76.555 2.12665L75.4918 9.17609ZM8.84637 1.20161C8.95684 1.19285 9.06793 1.20691 9.17273 1.24292C9.27754 1.27892 9.37381 1.33609 9.45558 1.41088C9.53736 1.48567 9.60287 1.57648 9.64806 1.67766C9.69324 1.77885 9.71713 1.88825 9.71824 1.99906C9.70327 2.22537 9.60661 2.43854 9.44623 2.59892C9.28585 2.7593 9.07268 2.85596 8.84637 2.87093C7.97449 2.78587 6.65604 2.78587 5.25254 2.78587H1.7544L2.62627 11.9831C2.64752 12.0925 2.64591 12.2051 2.62153 12.3139C2.59716 12.4226 2.55056 12.5252 2.48465 12.615C2.41875 12.7049 2.33496 12.7802 2.23857 12.8361C2.14217 12.892 2.03525 12.9274 1.92452 12.94C1.7028 12.9253 1.49126 12.8415 1.31962 12.7004C1.14798 12.5593 1.02487 12.3679 0.967581 12.1532L1.08159e-05 1.99906C-0.00139766 1.89484 0.0179139 1.79138 0.056824 1.69469C0.0957341 1.598 0.153467 1.51 0.22667 1.43581C0.299874 1.36161 0.387088 1.30271 0.483249 1.2625C0.579409 1.2223 0.682599 1.2016 0.786826 1.20161L5.25254 1.11655C6.7411 1.11655 8.05955 1.20161 8.84637 1.20161ZM1.40352 16.2681C1.37601 16.0459 1.43611 15.8217 1.57108 15.6431C1.70605 15.4644 1.90528 15.3454 2.12654 15.3111C2.35399 15.3053 2.57591 15.3817 2.75166 15.5262C2.9274 15.6707 3.0452 15.8737 3.08348 16.0979L3.1898 17.0123C3.19352 17.2314 3.11463 17.4438 2.96883 17.6073C2.82304 17.7709 2.62103 17.8735 2.40299 17.8949C2.29874 17.9082 2.19287 17.9005 2.09165 17.8722C1.99043 17.8439 1.8959 17.7956 1.81364 17.7302C1.73138 17.6648 1.66305 17.5836 1.6127 17.4913C1.56235 17.3991 1.53099 17.2977 1.52048 17.1931L1.40352 16.2681ZM1.7544 20.1277C1.74815 19.908 1.82616 19.6942 1.97245 19.5301C2.11873 19.366 2.32221 19.2641 2.54121 19.2452C2.64558 19.2269 2.75264 19.2312 2.85524 19.2576C2.95783 19.2841 3.0536 19.3321 3.13614 19.3985C3.21868 19.465 3.28608 19.5483 3.33384 19.6428C3.3816 19.7374 3.40862 19.8411 3.41309 19.947L5.60341 42.1054C5.61469 42.3253 5.53813 42.5408 5.39058 42.7043C5.24302 42.8678 5.03655 42.966 4.8166 42.9773C4.59664 42.9885 4.38121 42.912 4.2177 42.7644C4.0542 42.6169 3.956 42.4104 3.94472 42.1904L1.7544 20.1277ZM70.941 42.2755C70.9019 42.495 70.7792 42.6907 70.5988 42.8216C70.4183 42.9524 70.1942 43.0082 69.9734 42.9773C69.8676 42.9728 69.7639 42.9458 69.6693 42.898C69.5747 42.8503 69.4914 42.7829 69.425 42.7003C69.3586 42.6178 69.3105 42.522 69.2841 42.4194C69.2576 42.3168 69.2534 42.2098 69.2717 42.1054L70.1754 35.8002C70.1895 35.6901 70.2259 35.5841 70.2823 35.4885C70.3386 35.3928 70.4139 35.3097 70.5034 35.2441C70.5929 35.1784 70.6948 35.1317 70.8029 35.1066C70.911 35.0816 71.0231 35.0788 71.1324 35.0985C71.3428 35.1544 71.5275 35.2812 71.6553 35.4574C71.7832 35.6337 71.8463 35.8486 71.8341 36.066L70.941 42.2755ZM72.302 31.898C72.2779 32.1081 72.1715 32.3 72.006 32.4316C71.8405 32.5632 71.6295 32.6237 71.4195 32.5998C71.313 32.5971 71.2084 32.5712 71.1129 32.524C71.0175 32.4768 70.9334 32.4094 70.8666 32.3264C70.7999 32.2434 70.752 32.1469 70.7262 32.0436C70.7005 31.9402 70.6976 31.8325 70.7177 31.7279L72.7379 17.2782C72.7424 17.1723 72.7694 17.0686 72.8172 16.974C72.8649 16.8795 72.9323 16.7962 73.0149 16.7298C73.0974 16.6633 73.1932 16.6153 73.2958 16.5888C73.3984 16.5624 73.5054 16.5582 73.6098 16.5764C73.7133 16.587 73.8138 16.618 73.9053 16.6677C73.9967 16.7174 74.0774 16.7847 74.1427 16.8658C74.208 16.9469 74.2565 17.0401 74.2855 17.1401C74.3145 17.2401 74.3233 17.3449 74.3115 17.4483L72.302 31.898ZM74.8325 13.6843C74.8281 13.7902 74.801 13.8939 74.7533 13.9884C74.7055 14.083 74.6381 14.1663 74.5556 14.2327C74.473 14.2992 74.3773 14.3472 74.2747 14.3737C74.1721 14.4001 74.065 14.4043 73.9607 14.3861C73.7424 14.3446 73.5483 14.2213 73.4179 14.0415C73.2875 13.8617 73.2306 13.6388 73.2589 13.4185V12.9826C73.3027 12.7656 73.4266 12.5729 73.6058 12.443C73.785 12.313 74.0066 12.2551 74.2265 12.2808C74.337 12.2962 74.4433 12.3338 74.539 12.3913C74.6346 12.4488 74.7177 12.5249 74.7832 12.6153C74.8487 12.7056 74.8954 12.8083 74.9203 12.9171C74.9452 13.0258 74.9479 13.1385 74.9282 13.2484L74.8325 13.6843Z" fill="#17262F"></path><path d="M10.42 10.7498C10.43 10.5359 10.5138 10.332 10.6573 10.173C10.8008 10.014 10.995 9.9097 11.2068 9.87793C11.4226 9.88545 11.629 9.96824 11.7902 10.1119C11.9514 10.2556 12.0572 10.4512 12.0893 10.6647L13.1526 35.0135C13.1423 35.2214 13.0551 35.4181 12.908 35.5655C12.7609 35.7128 12.5643 35.8002 12.3564 35.8108C12.1485 35.8214 11.944 35.7544 11.7827 35.6228C11.6214 35.4912 11.5147 35.3044 11.4833 35.0986L10.42 10.7498Z" fill="#17262F"></path><path d="M19.0005 16.8848C19.0005 16.7806 19.0212 16.6774 19.0614 16.5812C19.1016 16.4851 19.1605 16.3979 19.2347 16.3247C19.3089 16.2515 19.3969 16.1937 19.4936 16.1548C19.5903 16.1159 19.6938 16.0966 19.798 16.098C20.0159 16.0945 20.227 16.1737 20.3888 16.3198C20.5506 16.4658 20.651 16.6677 20.6698 16.8848V33.089C20.6549 33.3153 20.5582 33.5285 20.3978 33.6888C20.2375 33.8492 20.0243 33.9459 19.798 33.9608C19.5789 33.9446 19.3744 33.8453 19.2262 33.6832C19.0779 33.5212 18.9972 33.3086 19.0005 33.089V16.8848Z" fill="#17262F"></path><path d="M31.0048 54.4499C30.7862 54.456 30.5736 54.3777 30.4113 54.2312C30.2489 54.0846 30.1492 53.8812 30.1329 53.6631C30.1329 53.4319 30.2248 53.2101 30.3883 53.0466C30.5518 52.8831 30.7735 52.7913 31.0048 52.7913H64.37C64.4799 52.7938 64.5881 52.8188 64.6881 52.8646C64.788 52.9104 64.8775 52.9761 64.9512 53.0577C65.0249 53.1394 65.0811 53.2351 65.1164 53.3392C65.1518 53.4433 65.1655 53.5535 65.1568 53.6631C65.1583 53.7669 65.1389 53.8698 65.0998 53.9659C65.0608 54.062 65.0029 54.1493 64.9296 54.2227C64.8562 54.296 64.7689 54.3539 64.6728 54.393C64.5767 54.432 64.4737 54.4514 64.37 54.4499H31.0048Z" fill="#17262F"></path><path d="M39.6704 48.8466C39.5671 48.8466 39.4648 48.8262 39.3693 48.7867C39.2738 48.7471 39.1871 48.6892 39.114 48.6161C39.041 48.5431 38.983 48.4563 38.9435 48.3609C38.9039 48.2654 38.8836 48.1631 38.8836 48.0598C38.8836 47.9564 38.9039 47.8541 38.9435 47.7587C38.983 47.6632 39.041 47.5765 39.114 47.5034C39.1871 47.4303 39.2738 47.3724 39.3693 47.3328C39.4648 47.2933 39.5671 47.2729 39.6704 47.2729H64.37C64.4733 47.2729 64.5757 47.2933 64.6711 47.3328C64.7666 47.3724 64.8533 47.4303 64.9264 47.5034C64.9994 47.5765 65.0574 47.6632 65.0969 47.7587C65.1365 47.8541 65.1568 47.9564 65.1568 48.0598C65.1568 48.1631 65.1365 48.2654 65.0969 48.3609C65.0574 48.4563 64.9994 48.5431 64.9264 48.6161C64.8533 48.6892 64.7666 48.7471 64.6711 48.7867C64.5757 48.8262 64.4733 48.8466 64.37 48.8466H39.6704Z" fill="#17262F"></path><path d="M35.2047 72.8444C35.2361 72.6386 35.3428 72.4518 35.5041 72.3202C35.6654 72.1886 35.8699 72.1216 36.0778 72.1322C36.2857 72.1428 36.4823 72.2302 36.6294 72.3775C36.7765 72.5249 36.8637 72.7216 36.874 72.9295L35.8107 93.1315C35.8169 93.2439 35.7978 93.3563 35.7549 93.4604C35.712 93.5645 35.6463 93.6577 35.5627 93.7332C35.4791 93.8086 35.3797 93.8644 35.2718 93.8964C35.1638 93.9285 35.0501 93.9359 34.9389 93.9183C34.828 93.9172 34.7187 93.8933 34.6175 93.8481C34.5163 93.803 34.4255 93.7374 34.3507 93.6557C34.2759 93.5739 34.2187 93.4776 34.1827 93.3728C34.1467 93.268 34.1327 93.1569 34.1414 93.0465L35.2047 72.8444Z" fill="#17262F"></path><path d="M37.4801 81.074C37.4754 80.9569 37.4953 80.8402 37.5385 80.7313C37.5816 80.6223 37.6471 80.5236 37.7307 80.4415C37.8142 80.3594 37.9141 80.2957 38.0237 80.2544C38.1334 80.2132 38.2505 80.1954 38.3675 80.2021C38.4844 80.2088 38.5987 80.2399 38.7029 80.2934C38.8072 80.3469 38.8991 80.4216 38.9727 80.5127C39.0464 80.6038 39.1001 80.7094 39.1305 80.8225C39.161 80.9357 39.1674 81.0539 39.1494 81.1697L38.4476 93.1633C38.4604 93.2774 38.4458 93.3928 38.4051 93.5001C38.3643 93.6074 38.2987 93.7034 38.2135 93.7803C38.1283 93.8572 38.026 93.9127 37.9151 93.9422C37.8042 93.9718 37.6879 93.9745 37.5758 93.9501C37.4659 93.9476 37.3576 93.9226 37.2577 93.8768C37.1578 93.831 37.0682 93.7653 36.9946 93.6837C36.9209 93.602 36.8647 93.5063 36.8293 93.4022C36.794 93.2981 36.7802 93.1879 36.7889 93.0783L37.4801 81.074Z" fill="#17262F"></path></g><defs><clipPath id="clip0_5678_16798"><rect width="76.5444" height="100" fill="white"></rect></clipPath></defs></svg>