<svg xmlns="http://www.w3.org/2000/svg" width="78" height="110" viewBox="0 0 78 110" fill="none"><g clip-path="url(#clip0_5678_31958)"><path style="mix-blend-mode:multiply" d="M72.4993 98.3137C72.1074 98.1027 75.1822 97.6806 74.6095 97.751L71.0523 98.0926L15.5951 97.0074C15.4806 96.7469 15.2917 96.526 15.0522 96.3723C14.8127 96.2186 14.5332 96.1389 14.2487 96.1432L8.8828 95.9624C8.3649 95.9757 7.85527 96.0954 7.38559 96.3141H7.05399C5.99794 96.4732 5.00665 96.9219 4.19019 97.6103C1.77857 99.4793 -0.0904309 102.434 4.79096e-06 104.343C-0.0198751 104.682 0.0858653 105.018 0.297096 105.284C0.508327 105.551 0.810299 105.731 1.14552 105.79H1.50727C1.64843 105.934 1.81753 106.047 2.00416 106.123C2.19079 106.199 2.39101 106.236 2.5925 106.232L7.83777 106.413C8.67992 106.386 9.49931 106.133 10.2092 105.679L14.8817 105.94L67.3344 109.96H67.7263C68.3945 109.915 69.047 109.738 69.6456 109.437C70.3232 109.125 70.9636 108.737 71.5548 108.282C74.6597 105.95 73.5645 102.403 73.3936 99.9516C73.4011 99.6242 73.3225 99.3005 73.1655 99.013C73.0086 98.7256 72.7788 98.4844 72.4993 98.3137Z" fill="url(#paint0_linear_5678_31958)"></path><path d="M77.4833 102.645H77.3728C77.1589 101.994 76.8178 101.392 76.3693 100.875C75.9208 100.357 75.3738 99.9342 74.7602 99.63C72.7432 98.6093 70.5144 98.0775 68.2539 98.0775C65.9933 98.0775 63.7645 98.6093 61.7475 99.63C61.133 99.9297 60.5862 100.352 60.1404 100.87C59.6946 101.388 59.3593 101.992 59.155 102.645H59.0847V104.504C59.0847 105.91 59.9388 107.327 61.7978 108.402C63.8205 109.434 66.0587 109.971 68.3292 109.971C70.5997 109.971 72.8379 109.434 74.8607 108.402C76.6393 107.397 77.5336 106.021 77.5336 104.674L77.4833 102.645Z" fill="url(#paint1_linear_5678_31958)"></path><path d="M74.7703 99.0573C72.754 98.0342 70.5249 97.5011 68.2639 97.5011C66.0029 97.5011 63.7738 98.0342 61.7576 99.0573C58.1803 101.127 58.1904 104.483 61.7576 106.563C63.781 107.592 66.019 108.129 68.289 108.129C70.5591 108.129 72.797 107.592 74.8205 106.563C78.3776 104.504 78.3776 101.137 74.7703 99.0573Z" fill="#EDE5E2"></path><g style="mix-blend-mode:multiply"><path d="M68.3292 99.4793H61.0944C58.1703 101.559 58.4014 104.624 61.7777 106.573C62.4157 106.933 63.0892 107.226 63.7873 107.448H68.3292V99.4793Z" fill="#897998"></path></g><path d="M73.0118 14.5803C71.5512 15.3209 69.9367 15.7069 68.2991 15.7069C66.6615 15.7069 65.0469 15.3209 63.5864 14.5803C60.9838 13.083 60.9738 10.6413 63.5864 9.14407C65.0452 8.40353 66.6581 8.01758 68.2941 8.01758C69.93 8.01758 71.543 8.40353 73.0017 9.14407C75.5842 10.6513 75.6043 13.063 73.0118 14.5803Z" fill="#CFC2BE"></path><path d="M76.8704 102.635C76.8804 102.504 76.8804 102.373 76.8704 102.243L74.8607 31.3511V31.0697L74.3482 11.9777L62.2901 11.837L61.7877 31.0496L59.778 101.811C59.4866 103.278 60.3005 104.825 62.2499 105.93C64.1363 106.884 66.2205 107.381 68.3342 107.381C70.448 107.381 72.5322 106.884 74.4186 105.93C75.0684 105.631 75.6346 105.177 76.0675 104.608C76.5003 104.038 76.7864 103.371 76.9005 102.665L76.8704 102.635Z" fill="url(#paint2_linear_5678_31958)"></path><path d="M75.3631 11.9476V5.80798L67.2038 6.37069L61.2451 5.65726V11.9476C61.31 12.564 61.534 13.153 61.8952 13.6568C62.2563 14.1606 62.7421 14.5619 63.305 14.8214C64.8517 15.6038 66.5607 16.0114 68.2941 16.0114C70.0274 16.0114 71.7364 15.6038 73.2831 14.8214C73.8565 14.5741 74.3524 14.1766 74.7186 13.6707C75.0847 13.1649 75.3074 12.5695 75.3631 11.9476Z" fill="url(#paint3_linear_5678_31958)"></path><path d="M73.2931 8.68184C71.7464 9.46419 70.0374 9.87183 68.3041 9.87183C66.5708 9.87183 64.8618 9.46419 63.3151 8.68184C60.5417 7.0339 60.5317 4.4816 63.305 2.89395C64.853 2.10995 66.5639 1.70142 68.2991 1.70142C70.0343 1.70142 71.7451 2.10995 73.2931 2.89395C76.0263 4.51175 76.0364 7.09419 73.2931 8.68184Z" fill="#CFC2BE"></path><path d="M74.9411 3.52699H73.9362C73.654 3.26611 73.344 3.03697 73.0118 2.8437C71.5523 2.10549 69.9397 1.72086 68.3041 1.72086C66.6685 1.72086 65.0559 2.10549 63.5964 2.8437C63.2523 3.03691 62.932 3.26959 62.6418 3.53704H61.637V5.42614C61.6631 6.0351 61.8597 6.62448 62.2044 7.12721C62.549 7.62995 63.0278 8.02584 63.5864 8.26984C65.0476 9.00815 66.6619 9.3928 68.2991 9.3928C69.9363 9.3928 71.5505 9.00815 73.0118 8.26984C73.5094 8.0353 73.9434 7.68473 74.2774 7.24758C74.6114 6.81044 74.8355 6.29951 74.931 5.75774L74.9411 3.52699Z" fill="url(#paint4_linear_5678_31958)"></path><path d="M73.0118 6.57166C71.5512 7.31229 69.9367 7.69826 68.2991 7.69826C66.6615 7.69826 65.0469 7.31229 63.5864 6.57166C60.9838 5.06439 60.9738 2.63268 63.5864 1.13546C65.0452 0.394922 66.6581 0.00897217 68.2941 0.00897217C69.93 0.00897217 71.543 0.394922 73.0017 1.13546C75.5842 2.64272 75.6043 5.07444 73.0118 6.57166Z" fill="#CFC2BE"></path><path d="M72.5797 6.33052C71.2526 7.00163 69.7862 7.3513 68.2991 7.3513C66.8119 7.3513 65.3456 7.00163 64.0185 6.33052C61.637 4.96393 61.6269 2.74323 64.0185 1.3867C65.3466 0.713157 66.8149 0.362152 68.3041 0.362152C69.7933 0.362152 71.2616 0.713157 72.5897 1.3867C74.931 2.75328 74.9411 4.96393 72.5797 6.33052Z" fill="url(#paint5_linear_5678_31958)"></path><g style="mix-blend-mode:multiply"><path d="M76.8804 102.635V102.705C76.7604 103.416 76.4677 104.086 76.0279 104.657C75.5881 105.229 75.0148 105.683 74.3583 105.981C72.4719 106.934 70.3877 107.431 68.274 107.431C66.1602 107.431 64.076 106.934 62.1896 105.981C60.2403 104.855 59.4263 103.328 59.7177 101.861L60.9838 57.0047C61.0532 57.6395 61.2884 58.2448 61.6659 58.7599C62.0434 59.2749 62.5498 59.6815 63.1342 59.9388C64.7306 60.7467 66.4948 61.1677 68.284 61.1677C70.0732 61.1677 71.8374 60.7467 73.4338 59.9388C74.014 59.6765 74.5151 59.2666 74.8872 58.7499C75.2593 58.2333 75.4892 57.628 75.554 56.9946L76.8503 102.212C76.8804 102.373 76.8804 102.494 76.8804 102.635Z" fill="#E3D6B8"></path></g><g style="mix-blend-mode:multiply"><path d="M74.7502 27.8542C74.6721 28.3967 74.4592 28.9109 74.1309 29.3498C73.8026 29.7887 73.3695 30.1382 72.8711 30.3663C71.4524 31.085 69.8844 31.4594 68.2941 31.4594C66.7037 31.4594 65.1357 31.085 63.717 30.3663C63.2155 30.1345 62.7795 29.7818 62.448 29.3398C62.1165 28.8978 61.9 28.3804 61.8179 27.8341V27.4724L62.0289 19.725C62.0803 20.2757 62.2779 20.8026 62.6012 21.2513C62.9244 21.7 63.3617 22.0542 63.8677 22.2773C65.2375 22.9736 66.7524 23.3366 68.289 23.3366C69.8256 23.3366 71.3405 22.9736 72.7103 22.2773C73.2122 22.0605 73.6456 21.7112 73.9642 21.2669C74.2828 20.8226 74.4746 20.3001 74.5191 19.7552L74.7301 27.5025V27.8542H74.7502Z" fill="#FF9375"></path></g><g style="mix-blend-mode:multiply"><path d="M75.3631 48.0113C75.3084 48.6217 75.0939 49.2068 74.7411 49.7078C74.3882 50.2088 73.9096 50.6079 73.3534 50.8651C71.8133 51.6455 70.111 52.0522 68.3845 52.0522C66.6579 52.0522 64.9557 51.6455 63.4156 50.8651C62.8368 50.6147 62.3353 50.2146 61.9626 49.7059C61.5899 49.1973 61.3596 48.5984 61.2953 47.9711V47.9209L61.5465 39.1285C61.6031 39.7295 61.8192 40.3044 62.1725 40.7938C62.5258 41.2832 63.0036 41.6692 63.5562 41.912C65.0418 42.665 66.6838 43.0574 68.3493 43.0574C70.0148 43.0574 71.6569 42.665 73.1424 41.912C73.6914 41.6751 74.1671 41.296 74.5204 40.8137C74.8737 40.3314 75.0918 39.7635 75.1521 39.1687L75.3631 48.0113Z" fill="#FF9375"></path></g></g><defs><linearGradient id="paint0_linear_5678_31958" x1="27.191" y1="120.933" x2="49.1066" y2="82.9798" gradientUnits="userSpaceOnUse"><stop offset="0.11" stop-color="#AEACBA"></stop><stop offset="0.99" stop-color="#7B738C"></stop></linearGradient><linearGradient id="paint1_linear_5678_31958" x1="59.0847" y1="104.041" x2="77.4833" y2="104.041" gradientUnits="userSpaceOnUse"><stop stop-color="#856F72"></stop><stop offset="0.22" stop-color="#917D80"></stop><stop offset="0.75" stop-color="#D9C9C2"></stop></linearGradient><linearGradient id="paint2_linear_5678_31958" x1="59.6876" y1="59.6373" x2="76.8804" y2="59.6373" gradientUnits="userSpaceOnUse"><stop stop-color="#9A878A"></stop><stop offset="0.16" stop-color="#917D80"></stop><stop offset="0.41" stop-color="#B5A3A1"></stop><stop offset="0.63" stop-color="#CFBFB9"></stop><stop offset="0.75" stop-color="#D9C9C2"></stop></linearGradient><linearGradient id="paint3_linear_5678_31958" x1="61.225" y1="10.8422" x2="75.343" y2="10.8422" gradientUnits="userSpaceOnUse"><stop stop-color="#9A878A"></stop><stop offset="0.16" stop-color="#917D80"></stop><stop offset="0.41" stop-color="#B5A3A1"></stop><stop offset="0.63" stop-color="#CFBFB9"></stop><stop offset="0.75" stop-color="#D9C9C2"></stop></linearGradient><linearGradient id="paint4_linear_5678_31958" x1="61.6269" y1="5.55677" x2="74.9411" y2="5.55677" gradientUnits="userSpaceOnUse"><stop stop-color="#9A878A"></stop><stop offset="0.16" stop-color="#917D80"></stop><stop offset="0.41" stop-color="#B5A3A1"></stop><stop offset="0.63" stop-color="#CFBFB9"></stop><stop offset="0.75" stop-color="#D9C9C2"></stop></linearGradient><linearGradient id="paint5_linear_5678_31958" x1="62.059" y1="0.924471" x2="73.0319" y2="6.06926" gradientUnits="userSpaceOnUse"><stop offset="0.25" stop-color="#D9C9C2"></stop><stop offset="0.57" stop-color="#A79494"></stop><stop offset="0.75" stop-color="#917D80"></stop><stop offset="1" stop-color="#856F72"></stop></linearGradient><clipPath id="clip0_5678_31958"><rect width="77.4833" height="110" fill="white"></rect></clipPath></defs></svg>