<svg xmlns="http://www.w3.org/2000/svg" width="119" height="90" viewBox="0 0 119 90" fill="none"><g clip-path="url(#clip0_5678_16715)"><path d="M1.95598 88.044H38.6836V72.3464H1.95598V88.044ZM39.7052 90H0.92193C0.792006 89.9971 0.664063 89.9676 0.546065 89.9131C0.428068 89.8587 0.322543 89.7805 0.236061 89.6835C0.149578 89.5865 0.0839894 89.4727 0.0433778 89.3493C0.00276627 89.2259 -0.0119986 89.0954 2.58256e-06 88.966V71.4244C-0.0043489 71.1678 0.0880858 70.9189 0.258916 70.7273C0.429746 70.5357 0.666449 70.4154 0.92193 70.3904H39.7052C39.9629 70.4124 40.2026 70.5314 40.3761 70.7233C40.5495 70.9152 40.6436 71.1658 40.6395 71.4244V88.966C40.6516 89.0964 40.6365 89.2279 40.5951 89.3522C40.5538 89.4765 40.4871 89.5908 40.3992 89.688C40.3114 89.7852 40.2044 89.8631 40.0849 89.9168C39.9655 89.9705 39.8361 89.9988 39.7052 90Z" fill="#17262F"></path><path d="M1.95597 52.8487H38.6835V37.151H1.95597V52.8487ZM39.7051 54.8172H0.921921C0.790233 54.8164 0.660203 54.7877 0.540356 54.7331C0.420509 54.6786 0.313553 54.5993 0.226501 54.5005C0.13945 54.4016 0.0742693 54.2855 0.0352337 54.1598C-0.00380191 54.034 -0.0158108 53.9014 -5.49015e-06 53.7707V36.2291C-0.00731963 35.9717 0.0840862 35.7212 0.255488 35.5289C0.42689 35.3367 0.665314 35.2172 0.921921 35.1951H39.7051C39.964 35.2142 40.2055 35.3323 40.3795 35.5249C40.5535 35.7175 40.6466 35.9697 40.6395 36.2291V53.7707C40.6498 53.9001 40.6333 54.0303 40.5911 54.1531C40.5489 54.2759 40.482 54.3887 40.3943 54.4845C40.3067 54.5803 40.2003 54.6571 40.0817 54.71C39.9632 54.7629 39.835 54.7909 39.7051 54.7922V54.8172Z" fill="#17262F"></path><path d="M58.0814 54.8172H21.2417V70.3903H58.0814V54.8172ZM20.3198 52.8488H59.0033C59.2587 52.8447 59.506 52.9375 59.6956 53.1086C59.8852 53.2797 60.0029 53.5163 60.0249 53.7707V71.4244C60.0029 71.6788 59.8852 71.9154 59.6956 72.0865C59.506 72.2575 59.2587 72.3504 59.0033 72.3463H20.3821C20.1254 72.3506 19.8765 72.2582 19.6849 72.0874C19.4933 71.9165 19.373 71.6798 19.348 71.4244V53.7707C19.373 53.5152 19.4933 53.2785 19.6849 53.1077C19.8765 52.9369 20.1254 52.8444 20.3821 52.8488H20.3198Z" fill="#17262F"></path><path d="M68.2351 90C68.0979 90.0074 67.9607 89.9855 67.8326 89.936C67.7045 89.8865 67.5884 89.8103 67.4918 89.7126C67.3953 89.6149 67.3206 89.4978 67.2726 89.3691C67.2246 89.2404 67.2045 89.103 67.2135 88.966C67.2164 88.8372 67.2457 88.7104 67.2994 88.5933C67.3531 88.4762 67.4301 88.3713 67.5257 88.285C67.6213 88.1987 67.7336 88.1328 67.8555 88.0914C67.9775 88.0499 68.1066 88.0338 68.2351 88.044H77.3671V72.3464H40.6395V88.044H50.4817C50.6038 88.0424 50.7251 88.065 50.8384 88.1106C50.9517 88.1562 51.0548 88.2238 51.1417 88.3096C51.2286 88.3954 51.2977 88.4976 51.3448 88.6103C51.3919 88.7229 51.4161 88.8438 51.4161 88.966C51.4282 89.0964 51.4131 89.2279 51.3717 89.3522C51.3303 89.4765 51.2636 89.5908 51.1758 89.688C51.088 89.7852 50.981 89.8631 50.8615 89.9168C50.742 89.9705 50.6127 89.9988 50.4817 90H39.7052C39.568 90.0074 39.4308 89.9855 39.3027 89.936C39.1746 89.8865 39.0585 89.8103 38.9619 89.7126C38.8654 89.6149 38.7907 89.4978 38.7427 89.3691C38.6947 89.2404 38.6746 89.103 38.6836 88.966V71.4244C38.6835 71.1523 38.7908 70.8912 38.982 70.6976C39.1732 70.504 39.4331 70.3937 39.7052 70.3904H78.4012C78.6567 70.4154 78.8934 70.5357 79.0642 70.7273C79.235 70.9189 79.3274 71.1678 79.3231 71.4244V88.966C79.3351 89.0954 79.3203 89.2259 79.2797 89.3493C79.2391 89.4727 79.1735 89.5865 79.087 89.6835C79.0006 89.7805 78.895 89.8587 78.777 89.9131C78.659 89.9676 78.5311 89.9971 78.4012 90H68.2351ZM55.0042 90C54.8742 89.9971 54.7463 89.9676 54.6283 89.9131C54.5103 89.8587 54.4048 89.7805 54.3183 89.6835C54.2318 89.5865 54.1662 89.4727 54.1256 89.3493C54.085 89.2259 54.0702 89.0954 54.0822 88.966C54.0822 88.7215 54.1794 88.487 54.3523 88.3141C54.5252 88.1412 54.7597 88.044 55.0042 88.044H60.9593C61.2146 88.0399 61.462 88.1328 61.6516 88.3039C61.8412 88.475 61.9589 88.7116 61.9809 88.966C61.9809 89.2381 61.8737 89.4992 61.6825 89.6928C61.4912 89.8864 61.2314 89.9967 60.9593 90H55.0042ZM64.1362 90C63.8641 89.9967 63.6043 89.8864 63.4131 89.6928C63.2218 89.4992 63.1146 89.2381 63.1146 88.966C63.1367 88.7116 63.2543 88.475 63.4439 88.3039C63.6335 88.1328 63.8809 88.0399 64.1362 88.044H64.7841C64.9056 88.0424 65.0262 88.0651 65.1388 88.1108C65.2515 88.1565 65.3538 88.2244 65.4397 88.3103C65.5256 88.3963 65.5935 88.4986 65.6392 88.6112C65.685 88.7238 65.7077 88.8444 65.706 88.966C65.718 89.0954 65.7032 89.2259 65.6626 89.3493C65.622 89.4727 65.5564 89.5865 65.4699 89.6835C65.3834 89.7805 65.2779 89.8587 65.1599 89.9131C65.0419 89.9676 64.914 89.9971 64.7841 90H64.1362Z" fill="#17262F"></path><path d="M79.3231 88.044H116.163V72.3464H79.3231V88.044ZM117.11 90H78.4012C78.1269 90 77.8639 89.8911 77.67 89.6971C77.4761 89.5032 77.3671 89.2402 77.3671 88.966V71.4244C77.3872 71.1569 77.5026 70.9054 77.6924 70.7156C77.8821 70.5259 78.1336 70.4105 78.4012 70.3904H117.11C117.365 70.4154 117.602 70.5357 117.773 70.7273C117.944 70.9189 118.036 71.1678 118.032 71.4244V88.966C118.044 89.0954 118.029 89.2259 117.988 89.3493C117.948 89.4727 117.882 89.5865 117.796 89.6835C117.709 89.7805 117.604 89.8587 117.486 89.9131C117.368 89.9676 117.24 89.9971 117.11 90Z" fill="#17262F"></path><path d="M116.163 51.9268C116.163 51.6823 116.26 51.4478 116.433 51.2749C116.606 51.102 116.84 51.0049 117.085 51.0049C117.329 51.0049 117.564 51.102 117.737 51.2749C117.91 51.4478 118.007 51.6823 118.007 51.9268V53.7707C118.022 53.8993 118.011 54.0299 117.973 54.154C117.936 54.278 117.873 54.3929 117.789 54.4914C117.704 54.5898 117.6 54.6696 117.483 54.7257C117.366 54.7818 117.239 54.8129 117.11 54.8172H78.4012C78.266 54.8188 78.1318 54.7936 78.0064 54.743C77.881 54.6924 77.7669 54.6174 77.6707 54.5224C77.5745 54.4274 77.4982 54.3142 77.4461 54.1894C77.3939 54.0647 77.3671 53.9308 77.3671 53.7956V36.2291C77.3847 35.9606 77.4993 35.7077 77.6895 35.5175C77.8798 35.3272 78.1327 35.2126 78.4012 35.1951H117.11C117.366 35.2172 117.605 35.3367 117.776 35.5289C117.947 35.7212 118.039 35.9717 118.032 36.2291V38.2723C118.032 38.5168 117.934 38.7513 117.762 38.9242C117.589 39.0971 117.354 39.1942 117.11 39.1942C116.865 39.1942 116.631 39.0971 116.458 38.9242C116.285 38.7513 116.188 38.5168 116.188 38.2723V37.151H79.3231V52.8487H116.163V51.9268ZM116.163 41.362C116.163 41.1175 116.26 40.883 116.433 40.7101C116.606 40.5372 116.84 40.4401 117.085 40.4401C117.329 40.4401 117.564 40.5372 117.737 40.7101C117.91 40.883 118.007 41.1175 118.007 41.362V41.7607C118.007 42.0052 117.91 42.2397 117.737 42.4126C117.564 42.5855 117.329 42.6826 117.085 42.6826C116.84 42.6826 116.606 42.5855 116.433 42.4126C116.26 42.2397 116.163 42.0052 116.163 41.7607V41.362ZM116.163 44.8504C116.163 44.6059 116.26 44.3714 116.433 44.1985C116.606 44.0256 116.84 43.9285 117.085 43.9285C117.329 43.9285 117.564 44.0256 117.737 44.1985C117.91 44.3714 118.007 44.6059 118.007 44.8504V49.3604C118.007 49.6049 117.91 49.8394 117.737 50.0123C117.564 50.1851 117.329 50.2823 117.085 50.2823C116.84 50.2823 116.606 50.1851 116.433 50.0123C116.26 49.8394 116.163 49.6049 116.163 49.3604V44.8504Z" fill="#17262F"></path><path d="M97.6869 72.3464C97.4424 72.3464 97.2079 72.2492 97.035 72.0763C96.8621 71.9035 96.765 71.669 96.765 71.4244C96.7606 71.1678 96.853 70.9189 97.0239 70.7273C97.1947 70.5357 97.4314 70.4154 97.6869 70.3904H116.163V54.8173H97.6869C97.5575 54.8161 97.4298 54.7881 97.3119 54.7351C97.1939 54.682 97.0883 54.605 97.0016 54.509C96.9149 54.4129 96.8491 54.2999 96.8084 54.1772C96.7677 54.0544 96.7529 53.9245 96.765 53.7957C96.765 53.5512 96.8621 53.3167 97.035 53.1438C97.2079 52.9709 97.4424 52.8738 97.6869 52.8738H117.11C117.354 52.8738 117.589 52.9709 117.762 53.1438C117.934 53.3167 118.032 53.5512 118.032 53.7957V71.4244C118.032 71.669 117.934 71.9035 117.762 72.0763C117.589 72.2492 117.354 72.3464 117.11 72.3464H97.6869Z" fill="#17262F"></path><path d="M8.47098e-06 35.0954C8.47098e-06 34.8509 0.0971398 34.6164 0.270035 34.4435C0.442929 34.2706 0.677425 34.1735 0.921935 34.1735C1.05134 34.1615 1.18182 34.1763 1.30527 34.2169C1.42871 34.2575 1.54248 34.3231 1.63948 34.4096C1.73648 34.4961 1.81464 34.6016 1.86909 34.7196C1.92354 34.8376 1.95312 34.9655 1.95599 35.0954V35.1951H19.2857V19.5971H1.95599L1.84386 21.0423C1.85407 21.1707 1.83796 21.2998 1.79653 21.4218C1.75511 21.5438 1.68923 21.656 1.60292 21.7516C1.51662 21.8473 1.41172 21.9243 1.29462 21.978C1.17753 22.0317 1.05072 22.0609 0.921935 22.0639C0.667523 22.0418 0.430924 21.9242 0.259839 21.7346C0.0887527 21.545 -0.0040967 21.2976 8.47098e-06 21.0423V18.5506C8.47098e-06 18.3061 0.0971398 18.0716 0.270035 17.8987C0.442929 17.7258 0.677425 17.6287 0.921935 17.6287H20.3198C20.5643 17.6287 20.7988 17.7258 20.9717 17.8987C21.1446 18.0716 21.2417 18.3061 21.2417 18.5506V36.2292C21.2417 36.4737 21.1446 36.7082 20.9717 36.8811C20.7988 37.054 20.5643 37.1511 20.3198 37.1511H0.921935C0.677425 37.1511 0.442929 37.054 0.270035 36.8811C0.0971398 36.7082 8.47098e-06 36.4737 8.47098e-06 36.2292V35.0954ZM8.47098e-06 25.0415C8.47098e-06 24.7969 0.0971398 24.5624 0.270035 24.3896C0.442929 24.2167 0.677425 24.1195 0.921935 24.1195C1.16645 24.1195 1.40094 24.2167 1.57384 24.3896C1.74673 24.5624 1.84386 24.7969 1.84386 25.0415L1.95599 28.941C1.95271 29.213 1.84232 29.4729 1.64875 29.6641C1.45518 29.8553 1.19404 29.9626 0.921935 29.9625C0.667523 29.9405 0.430924 29.8228 0.259839 29.6333C0.0887527 29.4437 -0.0040967 29.1963 8.47098e-06 28.941V25.0415ZM8.47098e-06 32.392C8.47098e-06 32.1474 0.0971398 31.9129 0.270035 31.7401C0.442929 31.5672 0.677425 31.47 0.921935 31.47C1.05134 31.458 1.18182 31.4728 1.30527 31.5134C1.42871 31.554 1.54248 31.6196 1.63948 31.7061C1.73648 31.7926 1.81464 31.8981 1.86909 32.0161C1.92354 32.1341 1.95312 32.262 1.95599 32.392V32.4916C1.95271 32.7637 1.84232 33.0235 1.64875 33.2148C1.45518 33.406 1.19404 33.5132 0.921935 33.5132C0.673931 33.4918 0.442608 33.3794 0.27243 33.1977C0.102252 33.016 0.00522837 32.7779 8.47098e-06 32.529V32.392Z" fill="#17262F"></path><path d="M60.0249 36.2293C60.0029 36.4837 59.8852 36.7203 59.6956 36.8914C59.5061 37.0625 59.2587 37.1553 59.0033 37.1512C58.7588 37.1512 58.5243 37.0541 58.3514 36.8812C58.1785 36.7083 58.0814 36.4738 58.0814 36.2293V19.5972H21.2417V35.1952H39.8671C40.1237 35.2174 40.3622 35.3368 40.5336 35.5291C40.705 35.7213 40.7964 35.9718 40.789 36.2293C40.789 36.4738 40.6919 36.7083 40.519 36.8812C40.3461 37.0541 40.1116 37.1512 39.8671 37.1512H20.3198C20.0631 37.1556 19.8142 37.0631 19.6226 36.8923C19.431 36.7215 19.3107 36.4848 19.2857 36.2293V18.5756C19.3107 18.3202 19.431 18.0835 19.6226 17.9126C19.8142 17.7418 20.0631 17.6494 20.3198 17.6537H59.0033C59.2587 17.6496 59.5061 17.7425 59.6956 17.9135C59.8852 18.0846 60.0029 18.3212 60.0249 18.5756V36.2293Z" fill="#17262F"></path><path d="M78.8123 37.1512C78.5678 37.1512 78.3333 37.0541 78.1604 36.8812C77.9875 36.7083 77.8904 36.4738 77.8904 36.2293C77.8831 35.9718 77.9745 35.7213 78.1459 35.5291C78.3173 35.3368 78.5557 35.2174 78.8123 35.1952H96.7649V19.5972H60.0249V36.2293C60.0029 36.4837 59.8852 36.7203 59.6956 36.8914C59.506 37.0625 59.2587 37.1553 59.0033 37.1512C58.7588 37.1512 58.5243 37.0541 58.3514 36.8812C58.1785 36.7083 58.0814 36.4738 58.0814 36.2293V18.5756C58.0814 18.3311 58.1785 18.0966 58.3514 17.9237C58.5243 17.7508 58.7588 17.6537 59.0033 17.6537H97.6869C97.8163 17.6417 97.9468 17.6565 98.0702 17.6971C98.1937 17.7377 98.3074 17.8033 98.4044 17.8898C98.5014 17.9762 98.5796 18.0818 98.634 18.1998C98.6885 18.3178 98.7181 18.4457 98.7209 18.5756V36.2293C98.7181 36.3592 98.6885 36.4872 98.634 36.6051C98.5796 36.7231 98.5014 36.8287 98.4044 36.9152C98.3074 37.0016 98.1937 37.0672 98.0702 37.1078C97.9468 37.1484 97.8163 37.1632 97.6869 37.1512H78.8123Z" fill="#17262F"></path><path d="M116.163 19.5971H98.7209V35.1951H116.163V19.5971ZM97.6869 17.6536H117.11C117.354 17.6536 117.589 17.7507 117.762 17.9236C117.934 18.0965 118.032 18.331 118.032 18.5755V36.2291C118.032 36.4737 117.934 36.7082 117.762 36.881C117.589 37.0539 117.354 37.1511 117.11 37.1511H97.6869C97.4424 37.1511 97.2079 37.0539 97.035 36.881C96.8621 36.7082 96.765 36.4737 96.765 36.2291V18.5755C96.765 18.331 96.8621 18.0965 97.035 17.9236C97.2079 17.7507 97.4424 17.6536 97.6869 17.6536Z" fill="#17262F"></path><path d="M78.4012 19.5972H39.7052C39.5691 19.6044 39.4331 19.5828 39.3059 19.534C39.1787 19.4852 39.0632 19.4102 38.9668 19.3139C38.8705 19.2176 38.7955 19.1021 38.7467 18.9749C38.6979 18.8477 38.6764 18.7116 38.6836 18.5756V1.02159C38.6836 0.750651 38.7912 0.490804 38.9828 0.299218C39.1744 0.107632 39.4342 0 39.7052 0L78.4012 0C78.6556 0.0220356 78.8922 0.139705 79.0633 0.329287C79.2344 0.518868 79.3272 0.766262 79.3231 1.02159V18.5756C79.3333 18.704 79.3172 18.8331 79.2758 18.9551C79.2343 19.0771 79.1685 19.1893 79.0822 19.2849C78.9959 19.3806 78.8909 19.4576 78.7739 19.5113C78.6568 19.565 78.5299 19.5942 78.4012 19.5972ZM40.6395 17.6537H77.3671V1.94352H40.6395V17.6537Z" fill="#17262F"></path><path d="M91.6321 1.94352C91.5033 1.9556 91.3734 1.94081 91.2506 1.90007C91.1278 1.85934 91.0149 1.79356 90.9188 1.7069C90.8228 1.62024 90.7458 1.51458 90.6927 1.39661C90.6397 1.27865 90.6116 1.15095 90.6105 1.02159C90.6105 0.750651 90.7181 0.490804 90.9097 0.299218C91.1013 0.107632 91.3611 0 91.6321 0L92.1927 0C92.4471 0.0220356 92.6837 0.139705 92.8548 0.329287C93.0259 0.518868 93.1187 0.766262 93.1146 1.02159C93.1163 1.14313 93.0936 1.26376 93.0479 1.37637C93.0021 1.48899 92.9343 1.59129 92.8484 1.67723C92.7624 1.76318 92.6601 1.83102 92.5475 1.87676C92.4349 1.9225 92.3142 1.9452 92.1927 1.94352H91.6321ZM95.0208 1.94352C94.8992 1.9452 94.7786 1.9225 94.666 1.87676C94.5534 1.83102 94.4511 1.76318 94.3652 1.67723C94.2792 1.59129 94.2114 1.48899 94.1656 1.37637C94.1199 1.26376 94.0972 1.14313 94.0989 1.02159C94.0948 0.766262 94.1876 0.518868 94.3587 0.329287C94.5298 0.139705 94.7664 0.0220356 95.0208 0L104.776 0C105.03 0.0220356 105.267 0.139705 105.438 0.329287C105.609 0.518868 105.702 0.766262 105.698 1.02159C105.699 1.14313 105.677 1.26376 105.631 1.37637C105.585 1.48899 105.517 1.59129 105.431 1.67723C105.345 1.76318 105.243 1.83102 105.131 1.87676C105.018 1.9225 104.897 1.9452 104.776 1.94352H95.0208ZM108.725 1.94352C108.604 1.9452 108.483 1.9225 108.37 1.87676C108.258 1.83102 108.155 1.76318 108.069 1.67723C107.984 1.59129 107.916 1.48899 107.87 1.37637C107.824 1.26376 107.802 1.14313 107.803 1.02159C107.795 0.773245 107.88 0.53081 108.041 0.341823C108.203 0.152835 108.429 0.0309269 108.675 0L117.11 0C117.364 0.0220356 117.601 0.139705 117.772 0.329287C117.943 0.518868 118.036 0.766262 118.032 1.02159V18.5756C118.042 18.704 118.026 18.8331 117.984 18.9551C117.943 19.0771 117.877 19.1893 117.791 19.2849C117.704 19.3806 117.599 19.4576 117.482 19.5113C117.365 19.565 117.238 19.5942 117.11 19.5972H78.4012C78.1291 19.5972 77.8679 19.49 77.6744 19.2987C77.4808 19.1075 77.3704 18.8477 77.3671 18.5756V1.02159C77.3876 0.755334 77.5034 0.505398 77.6934 0.317717C77.8834 0.130035 78.1347 0.017219 78.4012 0L88.5548 0C88.8213 0.017219 89.0726 0.130035 89.2626 0.317717C89.4526 0.505398 89.5684 0.755334 89.5889 1.02159C89.5667 1.2782 89.4473 1.51663 89.2551 1.68803C89.0628 1.85943 88.8123 1.95084 88.5548 1.94352H79.3231V17.6537H116.163V1.94352H108.725Z" fill="#17262F"></path><path d="M1.95598 54.9045C1.95312 55.0345 1.92354 55.1624 1.86909 55.2804C1.81464 55.3984 1.73648 55.5039 1.63947 55.5904C1.54247 55.6769 1.42871 55.7425 1.30526 55.7831C1.18182 55.8237 1.05133 55.8385 0.92193 55.8265C0.800861 55.8265 0.680977 55.8026 0.569124 55.7563C0.457271 55.7099 0.355638 55.642 0.270029 55.5564C0.0971345 55.3835 3.20841e-06 55.149 3.20841e-06 54.9045V53.7708C3.20841e-06 53.6497 0.0238496 53.5299 0.0701807 53.418C0.116512 53.3061 0.184421 53.2045 0.270029 53.1189C0.355638 53.0333 0.457271 52.9654 0.569124 52.9191C0.680977 52.8727 0.800861 52.8489 0.92193 52.8489H20.3198C20.4408 52.8489 20.5607 52.8727 20.6726 52.9191C20.7844 52.9654 20.8861 53.0333 20.9717 53.1189C21.0573 53.2045 21.1252 53.3061 21.1715 53.418C21.2179 53.5299 21.2417 53.6497 21.2417 53.7708V71.4245C21.2417 71.669 21.1446 71.9035 20.9717 72.0764C20.7988 72.2493 20.5643 72.3464 20.3198 72.3464H0.92193C0.67742 72.3464 0.442924 72.2493 0.270029 72.0764C0.0971345 71.9035 3.20841e-06 71.669 3.20841e-06 71.4245V68.9328C3.20841e-06 68.6883 0.0971345 68.4538 0.270029 68.2809C0.442924 68.108 0.67742 68.0108 0.92193 68.0108C1.43273 67.9112 1.84386 68.422 1.84386 68.9328L1.95598 70.3655H19.2857V54.8173H1.95598V54.9045ZM1.84386 64.9585C1.86111 65.2223 1.7742 65.4823 1.60181 65.6826C1.42942 65.883 1.1853 66.0077 0.92193 66.0299C0.658561 66.0077 0.414444 65.883 0.24205 65.6826C0.0696563 65.4823 -0.0172527 65.2223 3.20841e-06 64.9585V61.0466C3.20841e-06 60.802 0.0971345 60.5675 0.270029 60.3947C0.442924 60.2218 0.67742 60.1246 0.92193 60.1246C1.05133 60.1126 1.18182 60.1274 1.30526 60.168C1.42871 60.2086 1.54247 60.2742 1.63947 60.3607C1.73648 60.4472 1.81464 60.5527 1.86909 60.6707C1.92354 60.7887 1.95312 60.9166 1.95598 61.0466L1.84386 64.9585ZM1.95598 57.5706C1.96191 57.7058 1.93881 57.8406 1.88825 57.9661C1.83768 58.0915 1.76082 58.2047 1.66284 58.298C1.56486 58.3912 1.44803 58.4624 1.32023 58.5067C1.19243 58.551 1.05661 58.5674 0.92193 58.5549C0.795436 58.5551 0.670236 58.5294 0.554119 58.4792C0.438002 58.4291 0.333453 58.3555 0.246978 58.2632C0.160502 58.1709 0.093949 58.0618 0.0514603 57.9426C0.00897159 57.8235 -0.00854404 57.6968 3.20841e-06 57.5706V57.471C-0.00167335 57.3494 0.0210279 57.2288 0.0667654 57.1162C0.112503 57.0036 0.180349 56.9013 0.266294 56.8153C0.352239 56.7294 0.454539 56.6615 0.56715 56.6158C0.679761 56.5701 0.800397 56.5474 0.92193 56.549C1.05133 56.537 1.18182 56.5518 1.30526 56.5924C1.42871 56.633 1.54247 56.6986 1.63947 56.7851C1.73648 56.8716 1.81464 56.9771 1.86909 57.0951C1.92354 57.2131 1.95312 57.3411 1.95598 57.471V57.5706Z" fill="#17262F"></path><path d="M14.1652 1.94352C14.0437 1.9452 13.9231 1.9225 13.8105 1.87676C13.6978 1.83102 13.5955 1.76318 13.5096 1.67723C13.4237 1.59129 13.3558 1.48899 13.3101 1.37637C13.2643 1.26376 13.2416 1.14313 13.2433 1.02159C13.2392 0.766262 13.3321 0.518868 13.5031 0.329287C13.6742 0.139705 13.9108 0.0220356 14.1652 0L14.676 0C14.947 0 15.2068 0.107632 15.3984 0.299218C15.59 0.490804 15.6976 0.750651 15.6976 1.02159C15.6965 1.15095 15.6685 1.27865 15.6154 1.39661C15.5623 1.51458 15.4853 1.62024 15.3893 1.7069C15.2933 1.79356 15.1803 1.85934 15.0575 1.90007C14.9347 1.94081 14.8048 1.9556 14.676 1.94352H14.1652ZM17.6536 1.94352C17.5315 1.94517 17.4103 1.92254 17.297 1.87695C17.1837 1.83136 17.0806 1.76371 16.9936 1.67794C16.9067 1.59217 16.8377 1.48998 16.7906 1.3773C16.7435 1.26463 16.7192 1.14372 16.7192 1.02159C16.7183 0.765105 16.8139 0.517648 16.987 0.328382C17.1601 0.139117 17.3981 0.0218939 17.6536 0L27.2965 0C27.5674 0 27.8273 0.107632 28.0188 0.299218C28.2104 0.490804 28.3181 0.750651 28.3181 1.02159C28.3169 1.15095 28.2889 1.27865 28.2358 1.39661C28.1827 1.51458 28.1058 1.62024 28.0097 1.7069C27.9137 1.79356 27.8007 1.85934 27.6779 1.90007C27.5552 1.94081 27.4253 1.9556 27.2965 1.94352H17.6536ZM31.3579 1.94352C31.226 1.95545 31.093 1.94095 30.9667 1.90086C30.8404 1.86078 30.7234 1.79592 30.6225 1.71008C30.5215 1.62424 30.4387 1.51914 30.3789 1.40092C30.3191 1.28271 30.2834 1.15375 30.274 1.02159C30.2916 0.756418 30.4048 0.50664 30.5928 0.318722C30.7807 0.130804 31.0305 0.0175403 31.2956 0H39.7051C39.9618 0.0190336 40.2014 0.135399 40.3751 0.325297C40.5488 0.515195 40.6434 0.764275 40.6395 1.02159V18.5756C40.6497 18.705 40.6333 18.8352 40.5911 18.958C40.5489 19.0808 40.4819 19.1936 40.3943 19.2894C40.3066 19.3852 40.2002 19.462 40.0817 19.5149C39.9631 19.5679 39.8349 19.5959 39.7051 19.5972H0.921881C0.793102 19.5942 0.666285 19.565 0.549193 19.5113C0.4321 19.4576 0.327193 19.3806 0.240892 19.2849C0.154591 19.1893 0.0887112 19.0771 0.0472831 18.9551C0.00585492 18.8331 -0.0102498 18.704 -4.569e-05 18.5756V1.02159C-0.00415086 0.766262 0.0886986 0.518868 0.259784 0.329287C0.43087 0.139705 0.667468 0.0220356 0.921881 0L11.2126 0C11.467 0.0220356 11.7036 0.139705 11.8747 0.329287C12.0458 0.518868 12.1386 0.766262 12.1345 1.02159C12.1362 1.14313 12.1135 1.26376 12.0677 1.37637C12.022 1.48899 11.9542 1.59129 11.8682 1.67723C11.7823 1.76318 11.68 1.83102 11.5674 1.87676C11.4547 1.9225 11.3341 1.9452 11.2126 1.94352H1.95593V17.6537H38.6835V1.94352H31.3579Z" fill="#17262F"></path><path d="M52.8488 37.151C52.6043 37.151 52.3698 37.0539 52.1969 36.881C52.0241 36.7081 51.9269 36.4736 51.9269 36.2291C51.9196 35.9717 52.011 35.7212 52.1824 35.5289C52.3538 35.3367 52.5922 35.2172 52.8488 35.1951H53.4593C53.7159 35.2172 53.9543 35.3367 54.1257 35.5289C54.2971 35.7212 54.3886 35.9717 54.3812 36.2291C54.3829 36.3507 54.3602 36.4713 54.3145 36.5839C54.2687 36.6965 54.2009 36.7988 54.1149 36.8848C54.029 36.9707 53.9267 37.0385 53.8141 37.0843C53.7015 37.13 53.5808 37.1527 53.4593 37.151H52.8488ZM56.3372 37.151C56.0927 37.151 55.8582 37.0539 55.6853 36.881C55.5124 36.7081 55.4153 36.4736 55.4153 36.2291C55.408 35.9717 55.4994 35.7212 55.6708 35.5289C55.8422 35.3367 56.0806 35.2172 56.3372 35.1951H66.0299C66.2887 35.2142 66.5303 35.3323 66.7043 35.5249C66.8783 35.7175 66.9714 35.9697 66.9643 36.2291C66.9643 36.3512 66.9401 36.4722 66.8929 36.5848C66.8458 36.6975 66.7768 36.7997 66.6899 36.8855C66.6029 36.9712 66.4998 37.0389 66.3865 37.0845C66.2733 37.1301 66.152 37.1527 66.0299 37.151H56.3372ZM70.0415 37.151C69.797 37.151 69.5625 37.0539 69.3896 36.881C69.2167 36.7081 69.1196 36.4736 69.1196 36.2291C69.1123 35.9717 69.2037 35.7212 69.3751 35.5289C69.5465 35.3367 69.7849 35.2172 70.0415 35.1951H78.4635C78.7201 35.2172 78.9585 35.3367 79.1299 35.5289C79.3013 35.7212 79.3927 35.9717 79.3854 36.2291V53.7707C79.3975 53.8994 79.3827 54.0293 79.3419 54.1521C79.3012 54.2749 79.2354 54.3879 79.1488 54.4839C79.0621 54.5799 78.9564 54.6569 78.8385 54.71C78.7205 54.7631 78.5928 54.7911 78.4635 54.7922H39.7052C39.5686 54.8014 39.4317 54.7813 39.3036 54.7332C39.1755 54.6851 39.0591 54.6102 38.9624 54.5134C38.8656 54.4167 38.7907 54.3003 38.7426 54.1722C38.6945 54.0441 38.6744 53.9072 38.6836 53.7707V36.2291C38.6835 35.957 38.7908 35.6959 38.982 35.5023C39.1733 35.3087 39.4331 35.1983 39.7052 35.1951H49.8339C50.0905 35.2172 50.3289 35.3367 50.5003 35.5289C50.6717 35.7212 50.7631 35.9717 50.7558 36.2291C50.7558 36.4736 50.6587 36.7081 50.4858 36.881C50.3129 37.0539 50.0784 37.151 49.8339 37.151H40.6395V52.8487H77.3671V37.151H70.0415Z" fill="#17262F"></path><path d="M96.765 69.5805C96.7576 69.323 96.849 69.0725 97.0204 68.8803C97.1918 68.688 97.4303 68.5686 97.6869 68.5464C97.9611 68.5464 98.2241 68.6554 98.4181 68.8493C98.612 69.0432 98.7209 69.3063 98.7209 69.5805V71.4244C98.7181 71.5543 98.6885 71.6822 98.634 71.8002C98.5796 71.9182 98.5014 72.0237 98.4044 72.1102C98.3074 72.1967 98.1937 72.2623 98.0702 72.3029C97.9468 72.3435 97.8163 72.3583 97.6869 72.3463H59.0656C58.8211 72.3463 58.5866 72.2492 58.4137 72.0763C58.2408 71.9034 58.1437 71.6689 58.1437 71.4244V53.7707C58.1437 53.5262 58.2408 53.2917 58.4137 53.1188C58.5866 52.9459 58.8211 52.8488 59.0656 52.8488H97.6869C97.8163 52.8368 97.9468 52.8515 98.0702 52.8921C98.1937 52.9328 98.3074 52.9983 98.4044 53.0848C98.5014 53.1713 98.5796 53.2768 98.634 53.3948C98.6885 53.5128 98.7181 53.6408 98.7209 53.7707V55.926C98.7181 56.0559 98.6885 56.1839 98.634 56.3019C98.5796 56.4199 98.5014 56.5254 98.4044 56.6119C98.3074 56.6984 98.1937 56.764 98.0702 56.8046C97.9468 56.8452 97.8163 56.8599 97.6869 56.8479C97.4424 56.8479 97.2079 56.7508 97.035 56.5779C96.8621 56.405 96.765 56.1705 96.765 55.926V54.8172H60.0249V70.3903H96.765V69.5805ZM96.765 58.9036C96.765 58.7825 96.7888 58.6626 96.8351 58.5508C96.8815 58.4389 96.9494 58.3373 97.035 58.2517C97.1206 58.1661 97.2222 58.0982 97.3341 58.0518C97.4459 58.0055 97.5658 57.9817 97.6869 57.9817C97.8163 57.9697 97.9468 57.9844 98.0702 58.025C98.1937 58.0657 98.3074 58.1312 98.4044 58.2177C98.5014 58.3042 98.5796 58.4097 98.634 58.5277C98.6885 58.6457 98.7181 58.7737 98.7209 58.9036V59.3147C98.7177 59.5868 98.6073 59.8466 98.4137 60.0379C98.2201 60.2291 97.959 60.3363 97.6869 60.3363C97.4325 60.3143 97.1959 60.1966 97.0248 60.007C96.8537 59.8174 96.7608 59.5701 96.765 59.3147V58.9036ZM96.765 62.392C96.765 62.1475 96.8621 61.913 97.035 61.7401C97.2079 61.5672 97.4424 61.47 97.6869 61.47C97.8163 61.458 97.9468 61.4728 98.0702 61.5134C98.1937 61.554 98.3074 61.6196 98.4044 61.7061C98.5014 61.7926 98.5796 61.8981 98.634 62.0161C98.6885 62.1341 98.7181 62.262 98.7209 62.392V66.9019C98.7209 67.1762 98.612 67.4392 98.4181 67.6331C98.2241 67.827 97.9611 67.936 97.6869 67.936C97.4303 67.9138 97.1918 67.7944 97.0204 67.6021C96.849 67.4099 96.7576 67.1594 96.765 66.9019V62.392Z" fill="#17262F"></path><path d="M1.95598 13.7043C1.83387 13.7059 1.71264 13.6833 1.59935 13.6377C1.48605 13.5921 1.38295 13.5245 1.29601 13.4387C1.20908 13.3529 1.14006 13.2507 1.09295 13.1381C1.04584 13.0254 1.02159 12.9045 1.0216 12.7823C1.0175 12.5237 1.11166 12.2732 1.28508 12.0812C1.4585 11.8893 1.69826 11.7703 1.95598 11.7483H22.8862C23.1583 11.7516 23.4181 11.862 23.6094 12.0555C23.8006 12.2491 23.9078 12.5102 23.9078 12.7823C23.9048 12.9111 23.8756 13.0379 23.8219 13.155C23.7682 13.2721 23.6912 13.377 23.5956 13.4633C23.4999 13.5496 23.3877 13.6155 23.2657 13.6569C23.1438 13.6984 23.0146 13.7145 22.8862 13.7043H1.95598Z" fill="#17262F"></path><path d="M1.95599 7.28816C1.82267 7.28735 1.69103 7.25839 1.56968 7.20318C1.44833 7.14797 1.34001 7.06776 1.2518 6.96779C1.1636 6.86782 1.0975 6.75035 1.05783 6.62307C1.01816 6.49579 1.00581 6.36157 1.0216 6.22919C1.01993 6.10602 1.04295 5.98377 1.08931 5.86964C1.13568 5.75552 1.20444 5.65185 1.29154 5.56475C1.37865 5.47764 1.48232 5.40888 1.59644 5.36252C1.71056 5.31615 1.83282 5.29313 1.95599 5.29481H18.7749C19.0336 5.29071 19.2841 5.38487 19.476 5.55829C19.6679 5.73171 19.7869 5.97147 19.809 6.22919C19.8057 6.50127 19.6953 6.7611 19.5017 6.95234C19.3082 7.14357 19.047 7.25081 18.7749 7.25079L1.95599 7.28816Z" fill="#17262F"></path><path d="M59.4145 31.8065C59.2929 31.8081 59.1723 31.7854 59.0597 31.7397C58.9471 31.694 58.8448 31.6261 58.7588 31.5402C58.6729 31.4542 58.605 31.3519 58.5593 31.2393C58.5136 31.1267 58.4909 31.0061 58.4925 30.8845C58.4823 30.7561 58.4984 30.627 58.5399 30.505C58.5813 30.383 58.6472 30.2708 58.7335 30.1752C58.8198 30.0795 58.9247 30.0025 59.0418 29.9488C59.1589 29.8951 59.2857 29.8659 59.4145 29.8629H80.3447C80.4818 29.8539 80.6192 29.8741 80.7479 29.9221C80.8766 29.9701 80.9936 30.0448 81.0913 30.1413C81.189 30.2378 81.2652 30.354 81.3147 30.4821C81.3643 30.6102 81.3861 30.7474 81.3788 30.8845C81.3759 31.0144 81.3463 31.1424 81.2919 31.2604C81.2374 31.3784 81.1592 31.4839 81.0622 31.5704C80.9652 31.6569 80.8515 31.7225 80.728 31.7631C80.6046 31.8037 80.4741 31.8185 80.3447 31.8065H59.4145Z" fill="#17262F"></path><path d="M59.4145 25.2408C59.17 25.2408 58.9355 25.1437 58.7626 24.9708C58.5897 24.7979 58.4925 24.5634 58.4925 24.3189C58.4925 24.0744 58.5897 23.8399 58.7626 23.667C58.9355 23.4941 59.17 23.397 59.4145 23.397H76.2459C76.4904 23.397 76.7249 23.4941 76.8978 23.667C77.0707 23.8399 77.1678 24.0744 77.1678 24.3189C77.1678 24.5634 77.0707 24.7979 76.8978 24.9708C76.7249 25.1437 76.4904 25.2408 76.2459 25.2408H59.4145Z" fill="#17262F"></path><path d="M21.2417 66.5032C21.1196 66.5032 20.9987 66.479 20.886 66.4319C20.7733 66.3848 20.6711 66.3158 20.5854 66.2288C20.4996 66.1419 20.4319 66.0388 20.3863 65.9255C20.3408 65.8122 20.3181 65.691 20.3198 65.5688C20.3096 65.4404 20.3257 65.3113 20.3671 65.1893C20.4085 65.0674 20.4744 64.9551 20.5607 64.8595C20.647 64.7639 20.7519 64.6868 20.869 64.6332C20.9861 64.5795 21.1129 64.5502 21.2417 64.5473H42.1719C42.309 64.5383 42.4464 64.5584 42.5751 64.6064C42.7038 64.6544 42.8209 64.7291 42.9186 64.8256C43.0163 64.9222 43.0924 65.0383 43.142 65.1664C43.1915 65.2945 43.2133 65.4317 43.206 65.5688C43.2048 65.6998 43.1765 65.8291 43.1228 65.9486C43.0691 66.0681 42.9912 66.1751 42.894 66.2629C42.7968 66.3508 42.6825 66.4175 42.5582 66.4588C42.4339 66.5002 42.3024 66.5153 42.1719 66.5032H21.2417Z" fill="#17262F"></path><path d="M21.2417 60.0374C20.9862 60.0124 20.7495 59.8921 20.5787 59.7005C20.4079 59.5089 20.3154 59.26 20.3198 59.0034C20.3198 58.7588 20.4169 58.5244 20.5898 58.3515C20.7627 58.1786 20.9972 58.0814 21.2417 58.0814H38.0731C38.3284 58.0773 38.5758 58.1702 38.7654 58.3413C38.955 58.5123 39.0727 58.7489 39.0947 59.0034C39.0775 59.2698 38.9647 59.5212 38.777 59.7111C38.5893 59.9011 38.3394 60.017 38.0731 60.0374H21.2417Z" fill="#17262F"></path><path d="M79.7342 85.1785C79.6043 85.1757 79.4764 85.1461 79.3584 85.0916C79.2404 85.0372 79.1348 84.959 79.0484 84.862C78.9619 84.765 78.8963 84.6513 78.8557 84.5278C78.8151 84.4044 78.8003 84.2739 78.8123 84.1445C78.8123 84.0234 78.8362 83.9035 78.8825 83.7917C78.9288 83.6798 78.9967 83.5782 79.0823 83.4926C79.1679 83.407 79.2696 83.3391 79.3814 83.2927C79.4933 83.2464 79.6132 83.2226 79.7342 83.2226H100.664C100.921 83.2182 101.17 83.3106 101.362 83.4815C101.553 83.6523 101.674 83.889 101.699 84.1445C101.699 84.4187 101.59 84.6817 101.396 84.8757C101.202 85.0696 100.939 85.1785 100.664 85.1785H79.7342Z" fill="#17262F"></path><path d="M79.7342 78.6005C79.4897 78.6005 79.2552 78.5034 79.0823 78.3305C78.9094 78.1576 78.8123 77.9231 78.8123 77.6786C78.8082 77.4232 78.901 77.1759 79.0721 76.9863C79.2432 76.7967 79.4798 76.679 79.7342 76.657H96.5656C96.82 76.679 97.0566 76.7967 97.2277 76.9863C97.3988 77.1759 97.4916 77.4232 97.4875 77.6786C97.4875 77.9231 97.3904 78.1576 97.2175 78.3305C97.0446 78.5034 96.8101 78.6005 96.5656 78.6005H79.7342Z" fill="#17262F"></path></g><defs><clipPath id="clip0_5678_16715"><rect width="118.007" height="90" fill="white"></rect></clipPath></defs></svg>