<svg xmlns="http://www.w3.org/2000/svg" width="141" height="110" viewBox="0 0 141 110" fill="none"><g clip-path="url(#clip0_5678_7806)"><g style="mix-blend-mode:multiply"><path d="M109.621 84.7666L109.713 81.4268L99.6321 72.8722L41.492 35.6626L19.7625 49.2269L11.1875 54.0523L2.99152 60.9061L0 65.8442L5.35811 69.6656L24.8235 81.7854L37.7219 81.6727L39.2484 82.3078L31.411 83.0557L32.999 84.0802L41.7994 83.3221C46.2252 85.0535 53.0688 87.5533 56.3882 87.7479C59.1748 87.9221 63.5596 87.9426 66.9097 87.9323L70.6696 95.8722L74.9213 98.7817L73.5075 99.6833L74.071 104.263L81.7342 109.621L85.238 108.822H94.0281L97.4909 109.621L104.662 110L107.736 98.4436L95.3907 90.5858L99.4887 89.7867L109.621 84.7666ZM78.63 96.4356L73.7636 93.4543L71.1409 87.9528H71.8888L76.8371 85.494L79.4291 85.6579L89.674 89.3564L78.63 96.4356Z" fill="#BBBBBB"></path></g><path d="M103.484 65.3421L105.011 58.3038L102.716 50.3332L104.253 49.4521L115.604 58.6931L120.737 63.7234L121.607 66.6841L121.095 67.8521L123.042 77.4413L123.554 78.1585V78.9678L124.794 82.4306L125.777 82.9941L126.679 84.162L125.613 85.4836L124.077 86.3749L122.376 82.7277L122.069 82.738L121.464 80.187L118.872 66.5612L117.776 65.2806L117.581 63.8053L116.587 62.494L107.008 54.5029L108.33 59.9635L106.025 67.5857L104.755 67.5037L103.74 66.4588L103.484 65.3421Z" fill="#423D3D"></path><path d="M119.569 68.7336L121.095 67.8525L121.608 66.6846L120.081 67.5656L119.569 68.7336Z" fill="#1E1A1A"></path><path d="M119.21 64.6047L120.737 63.7236L121.608 66.6844L120.081 67.5655L119.21 64.6047Z" fill="#312C2C"></path><path d="M119.569 68.7331L121.095 67.8521L123.042 77.4413L123.554 78.1585V78.9678L124.384 82.1847L123.257 83.3117L122.028 79.8489V79.0395L121.515 78.3224L119.569 68.7331Z" fill="#382B2D"></path><path d="M120.399 67.9443C120.495 67.9572 120.593 67.9482 120.685 67.9181C120.777 67.8879 120.861 67.8374 120.931 67.7701C121.044 67.637 121.003 67.5038 120.829 67.4628C120.734 67.4492 120.638 67.4579 120.547 67.4881C120.456 67.5183 120.374 67.5693 120.306 67.637C120.28 67.6588 120.261 67.6879 120.251 67.7207C120.241 67.7534 120.241 67.7884 120.251 67.8212C120.26 67.854 120.28 67.8832 120.306 67.9051C120.332 67.927 120.365 67.9406 120.399 67.9443Z" fill="#898989"></path><path d="M123.667 77.4311L123.861 77.3594L125.173 81.3344C125.105 81.3479 125.035 81.3479 124.968 81.3344L123.667 77.4311Z" fill="#939393"></path><path d="M125.173 81.3348L123.861 77.3598L124.118 77.2881H124.21L125.449 81.0377C125.467 81.0634 125.476 81.0937 125.476 81.1248C125.476 81.1559 125.467 81.1863 125.449 81.2119C125.371 81.2788 125.275 81.3215 125.173 81.3348Z" fill="#818181"></path><path d="M123.472 77.4926L123.667 77.4312L124.988 81.3755H124.886C124.85 81.3722 124.815 81.359 124.786 81.3373C124.758 81.3156 124.735 81.2862 124.722 81.2525L123.472 77.4926Z" fill="#898989"></path><path d="M123.472 77.4926L123.667 77.4312L124.988 81.3755H124.886C124.85 81.3722 124.815 81.359 124.786 81.3373C124.758 81.3156 124.735 81.2862 124.722 81.2525L123.472 77.4926Z" fill="#818181"></path><path d="M123.861 77.3598L124.118 77.2881L125.398 81.1812C125.339 81.2459 125.265 81.2952 125.183 81.3246L123.861 77.3598Z" fill="#898989"></path><path d="M123.626 77.6158C123.722 77.6266 123.819 77.6166 123.911 77.5866C124.003 77.5565 124.087 77.5071 124.159 77.4417C124.271 77.3085 124.23 77.1651 124.056 77.1343C123.961 77.1181 123.864 77.1256 123.773 77.1559C123.682 77.1863 123.6 77.2387 123.534 77.3085C123.411 77.4417 123.452 77.5749 123.626 77.6158Z" fill="#A7A7A7"></path><path d="M121.618 71.6532L121.935 71.5508L124.046 77.9846C123.937 78.024 123.823 78.0448 123.708 78.0461L121.618 71.6532Z" fill="#939393"></path><path d="M124.056 77.9845L121.915 71.5507L122.314 71.4175H122.478L124.527 77.4825C124.538 77.5358 124.535 77.5908 124.519 77.6427C124.503 77.6945 124.474 77.7416 124.435 77.7796C124.327 77.8772 124.197 77.9475 124.056 77.9845Z" fill="#818181"></path><path d="M121.3 71.7148L121.618 71.6123L123.718 78.0051C123.667 78.0154 123.615 78.0154 123.564 78.0051C123.506 77.9982 123.45 77.9755 123.403 77.9394C123.356 77.9034 123.32 77.8553 123.298 77.8003L121.3 71.7148Z" fill="#818181"></path><path d="M121.3 71.7148L121.618 71.6123L123.718 78.0051C123.667 78.0154 123.615 78.0154 123.564 78.0051C123.506 77.9982 123.45 77.9755 123.403 77.9394C123.356 77.9034 123.32 77.8553 123.298 77.8003L121.3 71.7148Z" fill="#818181"></path><path d="M121.915 71.5507L122.325 71.4175L124.374 77.7386C124.272 77.8459 124.145 77.9268 124.005 77.9742L121.915 71.5507Z" fill="#898989"></path><path d="M121.556 71.9501C121.711 71.9699 121.867 71.9544 122.015 71.9047C122.162 71.855 122.296 71.7724 122.407 71.6632C122.601 71.4481 122.53 71.2329 122.253 71.1715C122.099 71.1516 121.942 71.1671 121.795 71.2168C121.647 71.2665 121.513 71.3491 121.403 71.4583C121.208 71.7144 121.28 71.8886 121.556 71.9501Z" fill="#A7A7A7"></path><path d="M120.44 67.7602L120.634 67.6987L121.915 71.7147H121.71L120.44 67.7602Z" fill="#939393"></path><path d="M121.915 71.7147L120.604 67.7499L120.89 67.6167H120.983L122.222 71.3664C122.24 71.3956 122.25 71.4293 122.25 71.4637C122.25 71.4981 122.24 71.5318 122.222 71.561C122.138 71.643 122.031 71.6967 121.915 71.7147Z" fill="#818181"></path><path d="M120.245 67.8217L120.44 67.7603L121.741 71.7148H121.638C121.543 71.7148 121.491 71.6738 121.485 71.5919L120.245 67.8217Z" fill="#898989"></path><path d="M120.245 67.8217L120.44 67.7603L121.741 71.7148H121.638C121.543 71.7148 121.491 71.6738 121.485 71.5919L120.245 67.8217Z" fill="#818181"></path><path d="M120.634 67.6987L120.89 67.6167L122.171 71.52C122.106 71.6084 122.017 71.6761 121.915 71.7147L120.634 67.6987Z" fill="#898989"></path><path d="M104.498 68.4669L106.025 67.5858L108.33 59.9636L107.029 54.6055L105.482 55.3943L106.804 60.8446L104.498 68.4669Z" fill="#1E1A1A"></path><path d="M124.794 82.431L125.859 80.1361L128.451 78.8555L129.158 80.0336L126.679 81.5089L125.583 83.8857L124.794 82.431Z" fill="#423D3D"></path><path d="M101.958 66.2234L103.484 59.1851L102.716 53.827V50.3335L114.077 59.5744L119.21 64.6047L120.081 67.5655L119.569 68.7334L121.515 78.3227L122.028 79.0398V79.8492L123.257 83.312L124.251 83.8857L125.152 85.0536L124.077 86.3752L122.304 84.0496L122.161 83.6808L121.853 83.691L119.938 81.0683L117.346 67.4426L116.249 66.1619L116.045 64.6969L115.061 63.3753L105.482 55.3945L106.804 60.8448L104.498 68.4671L103.228 68.3851L102.214 67.3401L101.958 66.2234Z" fill="#362326"></path><path d="M123.257 83.3118L124.333 81.0169L126.925 79.7363L127.632 80.9145L125.152 82.4L124.046 84.7666L123.257 83.3118Z" fill="#291E1F"></path><path d="M118.288 66.797C118.187 66.7936 118.089 66.7655 118.001 66.715C117.827 66.6055 117.683 66.4547 117.581 66.2759C117.479 66.0972 117.423 65.8961 117.417 65.6905C117.417 65.4037 117.571 65.2192 117.807 65.2192C117.909 65.2228 118.008 65.2548 118.093 65.3114C118.266 65.4222 118.408 65.5735 118.508 65.7521C118.608 65.9308 118.663 66.1312 118.667 66.3359C118.667 66.5921 118.514 66.797 118.288 66.797Z" fill="#1C1818"></path><path d="M118.524 66.377C118.524 66.7151 118.278 66.8585 117.991 66.6843C117.836 66.5833 117.707 66.4471 117.615 66.287C117.522 66.1268 117.468 65.947 117.458 65.7623C117.458 65.4242 117.694 65.291 117.991 65.4652C118.145 65.5647 118.274 65.699 118.366 65.8575C118.459 66.0159 118.513 66.1939 118.524 66.377Z" fill="#1C1818"></path><path d="M49.5651 17.6929L48.3254 26.8723L91.5284 62.3813L96.1078 58.4575L68.2109 27.0055L52.1263 17.7236L49.5651 17.6929Z" fill="#434C5F"></path><path d="M84.3876 40.5493L83.8446 41.9324L83.5783 56.5622L93.5569 63.8668L100.882 67.473L108.156 70.7514L108.873 69.5835L103.443 57.9145L84.3876 40.5493Z" fill="#434C5F"></path><path d="M56.757 25.0081L92.809 60.1072C92.809 60.1072 97.5319 65.7727 96.907 70.4546C96.282 75.1366 93.2598 75.5771 89.797 73.5281L53.0483 52.3928C53.0483 52.3928 41.9223 44.8832 41.9223 31.196C41.9223 18.9226 51.4296 20.3261 56.757 25.0081Z" fill="#434C5F"></path><path d="M112.797 70.5775V67.4323L111.567 67.002L111.117 57.6791L110.758 54.831L83.5783 35.3656L82.7177 35.2427L81.4781 37.558L81.7444 43.0903C81.7444 43.0903 92.2045 48.5509 94.0384 52.8332C95.3647 56.1679 96.3932 59.6134 97.1118 63.1294L101.425 66.1619L112.797 70.5775Z" fill="#434C5F"></path><path d="M51.9829 14.3735L51.276 16.2381L58.5089 20.4078L73.3641 36.2772L76.8371 41.0719L79.5008 41.0924L71.8888 26.7187L58.2323 17.5904L54.247 14.9268L51.9829 14.3735Z" fill="#434C5F"></path><path d="M61.2955 3.07324L59.6256 17.6211L58.9494 17.2318L58.2323 17.5903C58.2323 17.5903 70.7721 27.2001 72.2064 29.6281C73.6407 32.0562 76.8371 41.0615 76.8371 41.0615L79.3061 44.2477L83.7524 46.8192L83.8446 41.9323L84.1213 36.2464L81.4166 17.0678L61.2955 3.07324Z" fill="#434C5F"></path><path d="M59.5129 1.65968L59.7178 0.225389L60.3222 0L74.8598 10.0196L83.5783 17.0988L83.2094 18.4204L81.9596 17.9696L61.234 3.50377L59.5129 1.65968Z" fill="#434C5F"></path><path d="M62.443 5.13281L60.8345 17.7136L70.6389 24.6699L70.977 10.829L62.443 5.13281Z" fill="#7E7E7E"></path><path d="M88.1578 46.5734L86.4571 45.5898V51.2758L88.1578 52.2593V46.5734Z" fill="#434C5F"></path><path d="M45.7334 15.4495L46.9116 16.9863L49.9851 18.7689C49.9851 18.7689 51.9009 18.2976 55.8452 20.2646C59.7895 22.2317 70.5364 34.5051 70.5364 34.5051L78.4251 44.3608L83.3426 47.4342V46.6351L78.466 43.2441L70.5774 31.8619L56.8902 18.062L46.9116 14.8143L45.7334 14.6812V15.4495Z" fill="#434C5F"></path><path d="M102.665 67.5348C103.341 62.8631 98.6281 57.1976 98.6281 57.1976L62.5659 22.0882C59.4207 19.2913 54.6875 17.6624 51.4399 19.4655L59.0314 15.0909C59.2055 14.9782 59.3695 14.886 59.5436 14.7938C62.7913 13.1649 67.3605 14.7938 70.4955 17.5395L106.547 52.6079C106.547 52.6079 111.27 58.2734 110.645 62.9553C110.615 63.6746 110.433 64.3794 110.112 65.0238C109.79 65.6681 109.337 66.2375 108.781 66.6947L108.494 66.8586L100.851 71.264C101.732 70.6902 102.388 69.4506 102.665 67.5348Z" fill="#4F1F26"></path><path d="M78.8348 31.411L83.2709 30.8577L82.8816 30.1099L78.3943 30.6836L75.075 34.2693L75.6487 34.8328L78.8348 31.411Z" fill="#5D3138"></path><path d="M75.3311 28.2044L79.7774 27.6512L79.3779 26.9033L74.8906 27.477L71.6736 30.9603L72.2474 31.5238L75.3311 28.2044Z" fill="#5D3138"></path><path d="M82.3284 34.6175L86.7747 34.0643L86.3751 33.3062L81.8879 33.8901L78.4763 37.5885L79.05 38.1418L82.3284 34.6175Z" fill="#5D3138"></path><path d="M71.8273 24.9979L76.2736 24.4447L75.8843 23.6968L71.3868 24.2807L68.2723 27.6513L68.8461 28.2148L71.8273 24.9979Z" fill="#5D3138"></path><path d="M85.8322 37.8245L90.2785 37.2713L89.8789 36.5132L85.3916 37.0971L81.8776 40.898L82.4513 41.4615L85.8322 37.8245Z" fill="#5D3138"></path><path d="M64.83 18.5946L69.2763 18.0413L68.8768 17.2832L64.3895 17.8672L61.316 21.1455C61.5414 21.2992 61.7565 21.4631 61.9717 21.6271L64.83 18.5946Z" fill="#5D3138"></path><path d="M68.3338 21.8011L72.7801 21.2376L72.3805 20.4897L67.8933 21.0737L64.871 24.3418L65.4447 24.8951L68.3338 21.8011Z" fill="#5D3138"></path><path d="M61.3365 15.3672L65.7726 14.814L65.7009 14.6705C65.1538 14.4805 64.5918 14.3366 64.0207 14.2402L60.8857 14.6398L56.9005 18.9529V19.0041L57.7098 19.2398L61.3365 15.3672Z" fill="#5D3138"></path><path d="M102.788 54.2982L107.224 53.745L106.834 52.9971L102.347 53.581L98.8023 57.4024C98.915 57.5561 99.0891 57.7712 99.294 58.0581L102.788 54.2982Z" fill="#5D3138"></path><path d="M89.3359 41.0311L93.772 40.4676L93.4339 39.8222L93.3417 39.73L88.8954 40.3037L85.2789 44.207L85.8527 44.7705L89.3359 41.0311Z" fill="#5D3138"></path><path d="M110.102 64.9119L109.98 64.6763L105.523 65.2602L102.449 68.5181C102.316 69.1014 102.095 69.661 101.794 70.1778L101.876 70.3212L105.912 65.9774L109.795 65.4959C109.912 65.3091 110.015 65.1139 110.102 64.9119Z" fill="#5D3138"></path><path d="M110.584 60.814L106.302 61.3774L102.624 65.3422C102.676 65.6817 102.71 66.0237 102.726 66.3667L106.742 62.0434L110.656 61.5618C110.645 61.3467 110.645 61.0803 110.584 60.814Z" fill="#5D3138"></path><path d="M105.451 58.2425L109.672 57.72C109.559 57.4639 109.447 57.2078 109.324 56.9619L105.011 57.5151L101.343 61.4697C101.476 61.7258 101.589 61.9819 101.712 62.2586L105.451 58.2425Z" fill="#5D3138"></path><path d="M99.837 50.641L104.017 50.1185L103.279 49.4116L99.3862 49.9136L95.4829 54.1448L96.0566 54.698L99.837 50.641Z" fill="#5D3138"></path><path d="M92.8295 44.2274L97.2758 43.6742L97.1528 43.4385L96.6508 42.957L92.3889 43.5103L88.6803 47.516L89.254 48.0795L92.8295 44.2274Z" fill="#5D3138"></path><path d="M96.3332 47.434L100.698 46.891L99.9702 46.1841L95.8927 46.7066L92.0816 50.8353L92.6553 51.3885L96.3332 47.434Z" fill="#5D3138"></path><path d="M89.131 42.6496H88.4139V37.9062L87.666 32.6301C87.6524 32.5244 87.6111 32.4243 87.5464 32.3397C87.4816 32.2552 87.3956 32.1892 87.2972 32.1486C87.2002 32.0989 87.0912 32.0774 86.9825 32.0864C86.8739 32.0955 86.77 32.1347 86.6825 32.1998L83.4451 34.3717L83.066 33.8083L86.2932 31.6363C86.4811 31.5161 86.6959 31.4447 86.9184 31.4284C87.1408 31.4121 87.3638 31.4515 87.5671 31.543C87.7705 31.6345 87.9479 31.7753 88.0832 31.9526C88.2185 32.1299 88.3075 32.3381 88.3422 32.5584L89.131 37.9062V42.6496Z" fill="#E26600"></path><path d="M84.8077 17.7137L84.152 18.5333C83.4002 19.5309 82.9456 20.7207 82.8406 21.9654V27.0161C82.8406 27.9792 83.7217 28.1226 84.4388 27.1903L84.8179 26.1658C85.4806 25.325 85.8414 24.2858 85.8424 23.2153L86.0575 18.144C86.0575 17.181 85.5351 16.7917 84.8077 17.7137Z" fill="#1F140B"></path><path d="M84.7769 18.0823L84.4389 18.5331C83.6942 19.5337 83.2435 20.7223 83.1378 21.9651V27.0159C83.1378 27.9789 83.7217 28.0404 84.4389 27.0773L85.1048 26.1451C85.7717 25.3066 86.1331 24.2659 86.1293 23.1945V18.1438C86.0576 17.1807 85.5043 17.15 84.7769 18.0823Z" fill="#332D28"></path><path d="M81.8981 34.2077L83.5885 30.3659C84.2577 29.5286 84.6193 28.4871 84.613 27.4153V16.986C84.6079 16.7992 84.5519 16.6173 84.4509 16.4601C84.3499 16.3029 84.2079 16.1763 84.0401 16.094C83.8724 16.0117 83.6853 15.9768 83.4991 15.9932C83.313 16.0096 83.1349 16.0765 82.9841 16.1868L79.9106 18.6764L80.177 19.2706L83.148 16.7196C83.2405 16.6477 83.3511 16.6028 83.4676 16.5899C83.584 16.577 83.7018 16.5965 83.8078 16.6464C83.9138 16.6962 84.004 16.7744 84.0684 16.8723C84.1327 16.9702 84.1688 17.084 84.1725 17.2011V27.2002C84.1827 28.2788 83.8209 29.3281 83.148 30.1712L81.642 33.7467L81.8981 34.2077Z" fill="#312821"></path><path d="M33.6342 26.8828L32.4048 36.0725L75.6077 71.5713L80.1872 67.6475L52.28 36.2057L36.1954 26.9135L33.6342 26.8828Z" fill="#380009"></path><path d="M67.8318 56.0089L83.7524 46.8192L84.1213 36.2464L81.4166 17.0679L65.4959 26.2576L68.1904 45.4361L67.8318 56.0089Z" fill="#5C2930"></path><path d="M83.2607 34.3002L78.2714 38.4084L77.3084 38.8387L68.6616 42.6908L66.7458 28.6143L72.4215 25.7354L75.0032 24.4241L81.1195 20.2954L81.2014 20.2441L83.1582 33.6138L83.2607 34.3002Z" fill="#67383F"></path><path d="M83.2607 34.3003L78.2714 38.3982L77.3084 38.8285C76.7236 36.0229 75.9814 33.2524 75.0852 30.5301C74.4157 28.8168 73.5198 27.2008 72.4215 25.7253L75.0033 24.4139L81.1502 20.3159L83.1992 33.6344L83.2607 34.3003Z" fill="#7E7E7E"></path><path d="M83.2607 34.3002L80.7097 32.5073L75.0032 34.4539L68.1699 39.0538L68.6616 42.6908L78.2714 38.4084L83.2607 34.3002Z" fill="#784A51"></path><path d="M68.1904 45.4366L69.4402 44.5657L83.5783 35.417L84.0188 35.5502L84.1213 36.2468L81.7342 46.9938L69.6144 54.9746L67.8318 56.0093L68.1904 45.4366Z" fill="#ECBB1F"></path><path d="M70.2496 48.7148L69.7066 50.0979L69.4402 64.7175L78.7017 72.4421L86.0268 76.0484L92.5119 78.9682L94.0281 78.1588L88.5881 66.5001L70.2496 48.7148Z" fill="#5C2930"></path><path d="M69.6656 52.5566L68.8563 55.7326L77.462 63.8363L80.7097 67.9343L79.091 59.5232L73.0875 54.452L69.6656 52.5566Z" fill="#380009"></path><path d="M34.7713 37.6912L70.8335 72.8006C70.8335 72.8006 75.5565 78.466 74.9315 83.1377C74.3066 87.8094 71.2843 88.2602 67.7601 86.2112L31.0729 65.0759C31.0729 65.0759 19.9469 57.5664 19.9469 43.8791C19.9469 31.6057 29.4542 33.0092 34.7713 37.6912Z" fill="#250007"></path><path d="M26.7495 35.5498H27.1491C26.1718 37.4201 25.712 39.5175 25.8173 41.6251C25.8173 54.1444 35.7241 61.3158 36.3491 61.7564L73.0055 82.9839C73.1935 83.1015 73.3885 83.2076 73.5894 83.3015C73.0874 86.1906 71.7044 86.1906 71.2434 86.1906C70.2289 86.1103 69.2503 85.7794 68.3953 85.2276L31.7593 64.0205C31.1241 63.5697 21.2275 56.4085 21.2275 43.8789C21.207 40.0781 22.1701 35.5498 26.7495 35.5498Z" fill="#4F1F26"></path><path d="M51.9931 67.6165C51.9931 69.6655 50.5793 70.4236 48.8274 69.4196C47.9106 68.825 47.147 68.0224 46.5987 67.0772C46.0505 66.1319 45.7329 65.0706 45.672 63.9796C45.672 61.9306 47.0858 61.1724 48.8274 62.1764C49.7467 62.7693 50.5127 63.5713 51.0629 64.5167C51.6131 65.4622 51.9318 66.5243 51.9931 67.6165Z" fill="#6A3B42"></path><path d="M51.2964 66.7561C51.2964 68.0265 50.4051 68.5387 49.2475 67.8933C48.6677 67.5165 48.1847 67.0086 47.8377 66.4106C47.4906 65.8126 47.2892 65.1413 47.2497 64.451C47.2497 63.1806 48.1513 62.6786 49.2475 63.3138C49.8373 63.6842 50.3307 64.1894 50.6869 64.7879C51.0432 65.3864 51.2521 66.061 51.2964 66.7561Z" fill="#805E63"></path><path d="M59.4207 71.7147C59.4207 73.7636 58.0069 74.5218 56.2652 73.5178C55.3473 72.9243 54.5829 72.1221 54.0344 71.1766C53.486 70.231 53.1691 69.1691 53.1098 68.0777C53.1098 66.0287 54.5134 65.2706 56.2652 66.2746C57.182 66.8692 57.9456 67.6718 58.4939 68.6171C59.0422 69.5623 59.3597 70.6236 59.4207 71.7147Z" fill="#6A3B42"></path><path d="M58.765 70.8132C58.765 72.0836 57.8635 72.5856 56.716 71.9504C56.1345 71.5755 55.6503 71.068 55.303 70.4696C54.9557 69.8712 54.7553 69.199 54.7183 68.5081C54.7183 67.2377 55.6096 66.7357 56.716 67.3709C57.3042 67.7432 57.7963 68.2489 58.1523 68.847C58.5083 69.4451 58.7182 70.1187 58.765 70.8132Z" fill="#805E63"></path><path d="M46.2764 56.6954C46.2764 63.8669 41.2359 66.7047 35.007 63.119C28.7781 59.5333 23.7375 50.8251 23.7375 43.6536C23.7375 36.4822 28.7781 33.6443 35.007 37.2403C41.2359 40.8363 46.2764 49.5547 46.2764 56.6954Z" fill="#4F1F26"></path><path d="M40.5905 64.6885C44.8646 62.1899 44.8201 54.1613 40.4911 46.7561C36.1622 39.3509 29.188 35.3733 24.9138 37.8719C20.6397 40.3705 20.6842 48.3991 25.0132 55.8043C29.3422 63.2095 36.3164 67.1871 40.5905 64.6885Z" fill="#E68D00"></path><path d="M43.2542 57.3718C43.2542 64.031 38.5517 66.7049 32.7531 63.3651C26.9544 60.0252 22.252 51.8702 22.252 45.211C22.252 38.5518 26.9544 35.8574 32.7838 39.228C38.6132 42.5986 43.2542 50.6818 43.2542 57.3718Z" fill="#6A3B42"></path><path d="M28.5117 37.8139C25.4382 38.0495 23.3892 40.621 23.3892 44.9853C23.3892 51.3782 27.9072 59.1848 33.4907 62.4017C37.5272 64.7376 41.0105 64.0204 42.619 61.0289C41.1847 64.881 37.3018 65.9875 32.7326 63.3545C26.9442 59.9635 22.252 51.8699 22.252 45.221C22.252 40.2931 24.8235 37.5577 28.5117 37.8139Z" fill="#4F1820"></path><path d="M42.5063 56.0499C42.5063 61.7256 38.5005 64.0204 33.5522 61.1723C28.6039 58.3243 24.5879 51.3884 24.5879 45.7025C24.5879 40.0165 28.6039 37.7422 33.5522 40.58C38.5005 43.4179 42.5063 50.3742 42.5063 56.0499Z" fill="#805E63"></path><path d="M39.2093 60.5647C42.2965 58.76 42.2643 52.961 39.1375 47.6123C36.0107 42.2635 30.9733 39.3905 27.8861 41.1952C24.799 42.9999 24.8312 48.7989 27.958 54.1477C31.0848 59.4964 36.1222 62.3694 39.2093 60.5647Z" fill="#6A3B42"></path><path d="M40.4573 53.8682C40.4573 57.7305 37.7321 59.2877 34.3718 57.3412C32.6027 56.1932 31.1295 54.6438 30.072 52.8191C29.0146 50.9944 28.4027 48.9459 28.2863 46.8401C28.2863 42.988 31.0114 41.4308 34.3718 43.3671C36.1392 44.5169 37.6111 46.0667 38.6683 47.891C39.7255 49.7154 40.3384 51.763 40.4573 53.8682Z" fill="#805E63"></path><path d="M37.0867 52.3618C37.0867 54.4723 35.5909 55.3226 33.7468 54.2571C32.7805 53.6268 31.9758 52.7783 31.3974 51.78C30.8191 50.7817 30.4834 49.6616 30.4172 48.5097C30.4172 46.3993 31.913 45.5489 33.7468 46.6144C34.7179 47.2406 35.5268 48.0878 36.1073 49.0868C36.6879 50.0858 37.0235 51.2081 37.0867 52.3618Z" fill="#E66A00"></path><path d="M36.8818 52.8023C36.8818 54.9127 35.386 55.7631 33.5522 54.6976C32.5811 54.0714 31.7722 53.2242 31.1917 52.2252C30.6112 51.2262 30.2756 50.1039 30.2123 48.9502C30.2123 46.8397 31.7081 45.9894 33.5522 47.0549C34.5185 47.6852 35.3233 48.5337 35.9016 49.532C36.4799 50.5303 36.8157 51.6504 36.8818 52.8023Z" fill="#E68D00"></path><path d="M49.9441 63.7852L48.5611 64.4819L39.105 58.2325L32.1896 48.51L32.7531 48.2231L39.6582 52.0138L45.5388 54.2574L50.651 59.5336L49.9441 63.7852Z" fill="#FFB828"></path><path d="M48.561 64.4816L37.7219 58.9391L31.37 53.4683L32.1896 48.5098L38.2649 52.7204L49.7802 57.1155L48.561 64.4816Z" fill="#EB7F00"></path><path d="M40.5802 54.2061L44.5962 55.5277L43.8893 56.0809L39.8733 54.7593L40.5802 54.2061Z" fill="#FFB828"></path><path d="M39.8733 54.7593L43.8893 56.0809V57.8123L39.8733 56.4907V54.7593Z" fill="#EC9700"></path><path d="M43.8893 56.0811L44.5962 55.5278V57.2592L43.8893 57.8125V56.0811Z" fill="#E26600"></path><path d="M45.1187 55.6606L49.1348 56.9822L48.4381 57.5355L44.4221 56.2139L45.1187 55.6606Z" fill="#FFB828"></path><path d="M44.4221 56.2139L48.4381 57.5355V59.2669L44.4221 57.9453V56.2139Z" fill="#EC9700"></path><path d="M48.4381 57.5356L49.1348 56.9824V58.7138L48.4381 59.267V57.5356Z" fill="#006B8D"></path><g style="mix-blend-mode:multiply"><path d="M43.2234 53.376L41.9223 54.1136L43.582 57.8428L48.8274 62.8423L50.149 62.5452L50.651 59.5332L45.5388 54.257L43.2234 53.376Z" fill="#A7A7A7"></path></g><path d="M38.2649 52.7204L37.7219 58.9391L31.37 53.4683L32.1896 48.5098L38.2649 52.7204Z" fill="#E27D00"></path><path d="M64.4612 70.4033L62.4635 71.5507L58.0069 65.9672L47.2804 55.292L43.9816 48.643L45.9793 47.4854L48.7967 52.28L59.6461 63.0679L65.7316 67.1352L64.4612 70.4033Z" fill="#FF9A0A"></path><path d="M62.4634 71.5508L56.0091 67.1249L45.2827 56.4395L42.7214 51.901L43.9816 48.6431L46.7989 53.4377L57.6381 64.2256L63.7236 68.2929L62.4634 71.5508Z" fill="#E27D00"></path><path d="M73.4665 81.6214C73.4665 85.2379 70.9155 86.7439 67.7601 84.8691C66.1051 83.7945 64.7268 82.3449 63.7371 80.6378C62.7474 78.9307 62.1741 77.0143 62.0639 75.0442C62.0639 71.4277 64.6149 69.9217 67.7601 71.7965C69.4176 72.8693 70.7983 74.3183 71.7899 76.0256C72.7815 77.7329 73.356 79.6502 73.4665 81.6214Z" fill="#E68D00"></path><path d="M72.7391 81.2221C72.7391 84.398 70.4955 85.6786 67.7191 84.0804C66.2639 83.136 65.0519 81.8618 64.1815 80.3613C63.311 78.8607 62.8066 77.176 62.7093 75.4439C62.7093 72.268 64.953 70.9874 67.7191 72.5856C69.1773 73.5276 70.3922 74.801 71.2646 76.3019C72.137 77.8029 72.6423 79.4888 72.7391 81.2221Z" fill="#6A3B42"></path><path d="M71.7146 79.7875C71.7146 81.8365 70.2906 82.6049 68.549 81.6009C67.6271 81.0025 66.8592 80.1953 66.3075 79.2448C65.7557 78.2944 65.4356 77.2273 65.373 76.1301C65.373 74.0811 66.7971 73.3127 68.549 74.327C69.4681 74.9249 70.2336 75.7308 70.7835 76.6794C71.3335 77.628 71.6525 78.6928 71.7146 79.7875Z" fill="#805E63"></path><path d="M70.0242 78.8861C70.0242 79.8388 69.348 80.2282 68.5182 79.7466C68.0768 79.4622 67.7093 79.077 67.4457 78.6229C67.1821 78.1687 67.03 77.6585 67.002 77.1342C67.002 76.1814 67.6781 75.7921 68.5182 76.2736C68.9565 76.5604 69.3212 76.9464 69.5828 77.4002C69.8444 77.854 69.9956 78.363 70.0242 78.8861Z" fill="#E66A00"></path><path d="M69.5529 78.8862C69.5529 79.7263 68.969 80.0541 68.2416 79.6341C67.8597 79.3871 67.5418 79.0532 67.3138 78.6596C67.0859 78.2661 66.9544 77.8241 66.9302 77.37C66.9302 76.5401 67.5142 76.202 68.2416 76.6221C68.6229 76.8697 68.9404 77.2038 69.1683 77.5972C69.3961 77.9906 69.5279 78.4322 69.5529 78.8862Z" fill="#E68D00"></path><path d="M19.9469 43.8791C19.9469 57.5664 31.0729 65.0759 31.0729 65.0759L67.7601 86.2625C71.2331 88.3114 74.2041 87.8197 74.9315 83.189C75.6589 78.5583 70.8335 72.8518 70.8335 72.8518L34.7713 37.6912C29.4542 33.0092 19.9469 31.6057 19.9469 43.8791ZM21.207 43.8791C21.207 40.0782 22.1701 35.55 26.7495 35.55C29.4219 35.7213 31.954 36.8064 33.921 38.6234L69.9115 73.6612C70.3315 74.1837 74.1939 79.1115 73.6407 82.9738C73.1796 86.1498 71.7249 86.1498 71.2433 86.1498C70.2289 86.0694 69.2503 85.7385 68.3953 85.1867L31.7593 64.0207C31.1036 63.5699 21.207 56.4087 21.207 43.8791Z" fill="#816065"></path><path d="M97.1631 79.593V76.4478L96.7226 75.577L96.3025 66.2541L95.9439 63.406L78.4558 48.0386L71.2844 41.8916L69.4403 44.5655L69.2456 52.2492C69.2456 52.2492 76.8371 57.5254 77.8616 60.3735C79.4086 64.7993 81.3244 71.2946 81.3244 71.2946L86.4469 74.7369L97.1631 79.593Z" fill="#E25D00"></path><path d="M111.117 57.6792L111.567 67.0021L96.7225 75.5771L96.2718 66.2542L111.117 57.6792Z" fill="#FF9A0A"></path><path d="M111.393 63.3651L111.117 57.6792L109.795 61.0293L101.835 65.6293L96.2718 66.2542L96.5484 72.0631L102.06 71.4484L110.02 66.8484L111.393 63.3651Z" fill="#5C2930"></path><path d="M111.199 59.2464L109.877 62.6067L101.906 67.1965L96.3435 67.8214L96.3025 67.0428L101.876 66.4076L109.836 61.8179L111.158 58.4575L111.199 59.2464Z" fill="#4A2126"></path><path d="M111.27 60.824L109.949 64.1741L101.978 68.7741L96.4152 69.399L96.3845 68.6102L101.947 67.9852L109.908 63.3853L111.24 60.0352L111.27 60.824Z" fill="#4A2126"></path><path d="M111.342 62.3919L110.02 65.742L102.06 70.342L96.4972 70.9669L96.4562 70.178L102.019 69.5531L109.99 64.9634L111.311 61.603L111.342 62.3919Z" fill="#4A2126"></path><path d="M110.758 54.8311L111.117 57.6791L109.795 61.0292L101.835 65.6292L96.2718 66.2542L95.9132 63.4061L100.134 63.1397L110.184 57.3411L110.758 54.8311Z" fill="#FF9A0A"></path><path d="M111.567 67.0019L111.537 66.3462L112.797 67.4322L96.8557 76.6321L81.4781 67.1658L82.1235 66.6535L96.7225 75.5769L111.567 67.0019Z" fill="#FFD02D"></path><path d="M112.797 70.5773L96.8557 79.7773V76.6321L112.797 67.4321V70.5773Z" fill="#FF9A0A"></path><path d="M112.981 71.2842L101.845 75.9456L96.8557 79.7772L104.058 79.5826L113.125 74.3474L112.981 71.2842Z" fill="#FF9A0A"></path><path d="M112.797 67.4321L96.8557 76.6321L104.058 76.4374L112.981 71.2842L112.797 67.4321Z" fill="#FFD02D"></path><path d="M111.567 67.002L96.7225 75.577L102.286 74.952L110.246 70.352L111.567 67.002Z" fill="#FF9A0A"></path><path d="M85.7809 63.1396L87.3894 64.0617V64.8403L85.5248 63.2933L85.7809 63.1396Z" fill="#DC6E36"></path><path d="M85.5248 63.2935L87.1333 64.2155V64.9941L85.5248 64.0516V63.2935Z" fill="#FF8936"></path><path d="M87.1333 64.2152L87.3894 64.0615V64.8401L87.1333 64.9938V64.2152Z" fill="#D75716"></path><path d="M96.5484 72.0628L92.9934 69.8192L89.4793 67.1657L89.1925 66.1105L88.9364 65.1679L88.752 64.4713V61.2339L93.7925 64.9938L96.2717 66.2539L96.3025 67.0428L96.3435 67.8214L96.3844 68.6102L96.4152 69.3991L96.4562 70.1777L96.4971 70.9666L96.5484 72.0628Z" fill="#380009"></path><path d="M96.3435 67.8216L93.8745 66.5717L88.793 62.7811V62.0229L93.8335 65.7828L96.3025 67.043L96.3435 67.8216Z" fill="#290006"></path><path d="M96.4152 69.3991L93.9461 68.139L88.752 64.2664V63.5083L93.9052 67.3502L96.3844 68.6103L96.4152 69.3991Z" fill="#290006"></path><path d="M96.4971 70.9666L94.0281 69.7167L89.1925 66.1105L88.9364 65.168L93.9769 68.9279L96.4562 70.1777L96.4971 70.9666Z" fill="#290006"></path><path d="M88.752 61.2341L81.2015 55.9989L70.0857 46.9731L70.1779 50.1901L80.7097 58.2938L88.752 63.5085V61.2341Z" fill="#290006"></path><path d="M96.8557 76.6324L84.7155 69.2662L81.4781 67.166L81.3449 69.256L82.021 71.9402L86.201 74.9214L96.8557 79.7775V76.6324Z" fill="#E26600"></path><path d="M84.7359 71.909L84.7667 69.983L82.4821 62.0227L84.0086 61.1416L95.36 70.3825L100.493 75.4128L101.363 78.3736L100.861 79.5313L102.798 89.1308L103.31 89.8377V90.6471L104.55 94.1098L105.533 94.6836L106.435 95.8515L105.369 97.1731L103.843 98.0541L102.132 94.4069L101.825 94.4274L101.22 91.8662L98.6281 78.2507L97.5319 76.97L97.3372 75.4948L96.3537 74.1834L86.7644 66.1924L88.0963 71.6529L87.2664 74.1527L85.9961 74.0707L84.9818 73.0257L84.7359 71.909Z" fill="#423D3D"></path><path d="M99.3248 80.4128L100.862 79.5317L101.364 78.374L99.837 79.2551L99.3248 80.4128Z" fill="#1E1A1A"></path><path d="M98.9662 76.2942L100.493 75.4131L101.364 78.3739L99.837 79.2549L98.9662 76.2942Z" fill="#312C2C"></path><path d="M99.3248 80.4128L100.862 79.5317L102.798 89.1313L103.31 89.8382V90.6475L104.14 93.8747L103.023 95.0016L101.784 91.5286V90.7295L101.271 90.0123L99.3248 80.4128Z" fill="#382B2D"></path><path d="M100.042 79.8186C100.138 79.8339 100.237 79.8261 100.329 79.7958C100.422 79.7655 100.506 79.7136 100.575 79.6444C100.687 79.5112 100.646 79.3781 100.472 79.3371C100.378 79.3258 100.282 79.3355 100.191 79.3656C100.101 79.3958 100.019 79.4455 99.9497 79.5112C99.8268 79.6444 99.878 79.7879 100.042 79.8186Z" fill="#898989"></path><path d="M103.31 89.3154L103.505 89.2437L104.816 93.2289C104.749 93.2483 104.678 93.2483 104.611 93.2289L103.31 89.3154Z" fill="#939393"></path><path d="M104.816 93.2289L103.474 89.2436L103.73 89.1616H103.833L105.062 92.901C105.077 92.9294 105.085 92.961 105.085 92.9932C105.085 93.0254 105.077 93.0571 105.062 93.0854C104.995 93.1555 104.91 93.2052 104.816 93.2289Z" fill="#818181"></path><path d="M103.115 89.3667H103.31L104.611 93.229C104.577 93.2341 104.543 93.2341 104.509 93.229C104.472 93.2257 104.438 93.2111 104.41 93.1872C104.383 93.1633 104.363 93.1314 104.355 93.0959L103.115 89.3667Z" fill="#898989"></path><path d="M103.115 89.3667H103.31L104.611 93.229C104.577 93.2341 104.543 93.2341 104.509 93.229C104.472 93.2257 104.438 93.2111 104.41 93.1872C104.383 93.1633 104.363 93.1314 104.355 93.0959L103.115 89.3667Z" fill="#818181"></path><path d="M103.474 89.2436L103.73 89.1616L105.021 93.0649C104.962 93.1266 104.888 93.1724 104.806 93.1981L103.474 89.2436Z" fill="#898989"></path><path d="M103.269 89.4897C103.365 89.505 103.464 89.4972 103.556 89.4669C103.649 89.4366 103.733 89.3847 103.802 89.3156C103.914 89.1824 103.874 89.0492 103.699 89.0082C103.605 88.9946 103.508 89.0033 103.418 89.0335C103.327 89.0637 103.244 89.1147 103.177 89.1824C103.15 89.2042 103.131 89.2333 103.121 89.2661C103.111 89.2989 103.111 89.3338 103.121 89.3666C103.131 89.3994 103.15 89.4286 103.177 89.4505C103.203 89.4724 103.235 89.486 103.269 89.4897Z" fill="#A7A7A7"></path><path d="M101.261 83.5375L101.579 83.4248L103.689 89.8484C103.582 89.8927 103.467 89.917 103.351 89.9201L101.261 83.5375Z" fill="#939393"></path><path d="M103.699 89.8585L101.589 83.4349L101.988 83.3017L102.152 83.2402L104.201 89.3155C104.212 89.3688 104.209 89.4238 104.193 89.4757C104.177 89.5275 104.148 89.5746 104.109 89.6126C104.001 89.7344 103.858 89.8202 103.699 89.8585Z" fill="#818181"></path><path d="M100.943 83.6396L101.261 83.5371L103.31 89.93H103.156C103.003 89.93 102.921 89.8173 102.9 89.7251L100.943 83.6396Z" fill="#818181"></path><path d="M100.943 83.6396L101.261 83.5371L103.31 89.93H103.156C103.003 89.93 102.921 89.8173 102.9 89.7251L100.943 83.6396Z" fill="#818181"></path><path d="M101.579 83.4247L101.988 83.2915L104.037 89.6024C103.94 89.7084 103.816 89.7863 103.679 89.8278L101.568 83.4042L101.579 83.4247Z" fill="#898989"></path><path d="M101.2 83.8244C101.355 83.8472 101.513 83.8341 101.662 83.7861C101.811 83.7382 101.947 83.6566 102.06 83.5478C102.245 83.3326 102.173 83.1072 101.896 83.056C101.743 83.0348 101.587 83.0487 101.439 83.0966C101.292 83.1445 101.158 83.2252 101.046 83.3326C100.851 83.5478 100.923 83.7731 101.2 83.8244Z" fill="#A7A7A7"></path><path d="M100.083 79.644L100.278 79.5723L101.589 83.5473C101.521 83.557 101.452 83.557 101.384 83.5473L100.083 79.644Z" fill="#939393"></path><path d="M101.589 83.5477L100.278 79.5727L100.534 79.4907H100.626L101.865 83.2404C101.877 83.2726 101.879 83.3077 101.87 83.3408C101.86 83.3739 101.841 83.4033 101.814 83.4248C101.747 83.4792 101.671 83.5208 101.589 83.5477Z" fill="#818181"></path><path d="M99.8882 79.7055L100.083 79.644L101.425 83.5883H101.323C101.288 83.5845 101.255 83.5708 101.228 83.5491C101.201 83.5273 101.18 83.4983 101.169 83.4654L99.8882 79.7055Z" fill="#898989"></path><path d="M99.8882 79.7055L100.083 79.644L101.425 83.5883H101.323C101.288 83.5845 101.255 83.5708 101.228 83.5491C101.201 83.5273 101.18 83.4983 101.169 83.4654L99.8882 79.7055Z" fill="#818181"></path><path d="M100.278 79.5727L100.534 79.4907L101.814 83.3941C101.749 83.4558 101.672 83.5044 101.589 83.5375L100.278 79.5727Z" fill="#898989"></path><path d="M85.74 75.0339L87.2664 74.1528L88.0963 71.653L86.7952 66.2847L85.2379 67.0735L86.5698 72.5341L85.74 75.0339Z" fill="#1E1A1A"></path><path d="M83.2094 72.7904L83.2402 70.8643L82.4821 65.5165V62.0229L93.8335 71.2639L98.9662 76.2942L99.837 79.255L99.3247 80.4126L101.271 90.0121L101.784 90.7293V91.5284L103.023 95.0014L104.007 95.5649L104.908 96.7328L103.843 98.0544L102.06 95.7391L101.917 95.36L101.609 95.3805L99.6936 92.7578L97.1016 79.132L96.0054 77.8514L95.8107 76.3761L94.817 75.0648L85.2379 67.0737L86.5698 72.5343L85.7399 75.034L84.4696 74.9521L83.4553 73.9071L83.2094 72.7904Z" fill="#362326"></path><path d="M74.8803 83.1375C75.5565 78.4658 70.7823 72.8004 70.7823 72.8004L34.7713 37.6909C31.5852 34.8941 26.9032 33.2651 23.6556 35.0477L31.2471 30.6629C31.4121 30.5574 31.5831 30.4616 31.7593 30.3761C34.9967 28.7471 39.5762 30.3761 42.7009 33.1115L78.7836 68.2106C78.7836 68.2106 83.4963 73.8761 82.8304 78.5478C82.7961 79.2695 82.6094 79.9758 82.2828 80.6203C81.9561 81.2647 81.4968 81.8328 80.9351 82.2872C80.8432 82.3512 80.7474 82.4094 80.6482 82.4614L73.0157 86.8667C73.5677 86.408 74.0185 85.8397 74.3395 85.1978C74.6604 84.5559 74.8446 83.8543 74.8803 83.1375Z" fill="#4F1F26"></path><path d="M51.0403 47.014L55.4866 46.4608L55.0871 45.7026L50.5998 46.2866L47.2907 49.8723L47.8644 50.4358L51.0403 47.014Z" fill="#5D3138"></path><path d="M47.5468 43.8074L51.9829 43.2542L51.5935 42.4961L47.1063 43.0801L43.8893 46.5633L44.4631 47.1268L47.5468 43.8074Z" fill="#5D3138"></path><path d="M54.5441 50.2205L58.9904 49.6571L58.5908 48.9092L54.1036 49.4931L50.692 53.1813L51.2657 53.7448L54.5441 50.2205Z" fill="#5D3138"></path><path d="M44.043 40.6009L48.4893 40.0477L48.0898 39.2998L43.6025 39.8735L40.488 43.2544L41.0618 43.8076L44.043 40.6009Z" fill="#5D3138"></path><path d="M58.0479 53.4173L62.4839 52.8641L62.0946 52.1162L57.5971 52.7002L54.0933 56.5011L54.667 57.0543L58.0479 53.4173Z" fill="#5D3138"></path><path d="M37.0457 34.1873L41.492 33.6341L41.0925 32.8862L36.6052 33.4702L33.5317 36.7383L34.1771 37.2301L37.0457 34.1873Z" fill="#5D3138"></path><path d="M40.5392 37.3939L44.9856 36.8407L44.586 36.0928L40.0987 36.6767L37.0867 39.9346L37.6604 40.4981L40.5392 37.3939Z" fill="#5D3138"></path><path d="M33.542 30.9912L37.9883 30.4277L37.9063 30.2843C37.3602 30.1026 36.8023 29.9588 36.2364 29.854L33.1014 30.2638L29.1059 34.5769C29.3723 34.6486 29.6386 34.7204 29.905 34.8126L33.542 30.9912Z" fill="#5D3138"></path><path d="M74.993 69.9217L79.4393 69.3685L79.0398 68.6411L74.5525 69.2251L71.018 73.0567L71.4995 73.7124L74.993 69.9217Z" fill="#5D3138"></path><path d="M61.5414 56.6239L65.9877 56.0706L65.6496 55.415L65.5472 55.3228L61.1009 55.8965L57.4946 59.81L58.0683 60.3633L61.5414 56.6239Z" fill="#5D3138"></path><path d="M82.3181 80.5149L82.1952 80.269L77.6977 80.853L74.6856 84.1211C74.5499 84.7004 74.3289 85.2562 74.03 85.7706L74.1017 85.9243L78.1382 81.5804L82.0313 81.0989C82.1337 80.935 82.2259 80.7198 82.3181 80.5149Z" fill="#5D3138"></path><path d="M82.7894 76.417L78.507 76.9702L74.8394 80.935C74.8885 81.2746 74.9193 81.6166 74.9316 81.9595L78.9476 77.6361L82.8714 77.1444C82.8509 76.9497 82.8304 76.6834 82.7894 76.417Z" fill="#5D3138"></path><path d="M77.6669 73.8456L81.8776 73.3128L81.5395 72.5649L77.2264 73.1182L73.5587 77.083C73.6817 77.3391 73.8046 77.6055 73.9173 77.8718L77.6669 73.8456Z" fill="#5D3138"></path><path d="M72.0425 66.244L76.2224 65.7216L75.495 65.0146L71.6019 65.5167L67.6986 69.7478L68.2723 70.301L72.0425 66.244Z" fill="#5D3138"></path><path d="M65.0452 59.8304L69.4915 59.2772L69.3685 59.0416L68.8665 58.5498L64.6046 59.103L60.896 63.1191L61.4697 63.6825L65.0452 59.8304Z" fill="#5D3138"></path><path d="M68.549 63.037L72.9031 62.494L72.1757 61.7871L68.0982 62.3096L64.2973 66.4281L64.871 66.9915L68.549 63.037Z" fill="#5D3138"></path><path d="M60.8857 53.5914L62.3712 54.831L57.2488 57.5767L34.8328 34.8329C33.3676 34.0834 31.8205 33.5058 30.2226 33.1117C29.0223 32.9264 27.7963 32.9998 26.6266 33.3269L31.2573 30.653C32.5057 30.4736 33.7665 30.3948 35.0275 30.4173C35.468 30.5915 51.8702 43.5923 51.8702 43.5923L60.8857 53.5914Z" fill="#380009"></path><path d="M36.0827 24.4238L33.0912 28.4296L42.578 29.6078L60.773 51.8598L67.4527 56.5827L67.8318 56.009L55.9579 35.9187L42.3116 26.7802L38.3468 24.9771L36.0827 24.4238Z" fill="#E25D00"></path><path d="M45.3646 12.2939L43.7972 25.6124L43.0288 26.432L42.3116 26.7905C42.3116 26.7905 55.8657 36.6462 57.3102 39.0845C58.7548 41.5228 60.9779 51.0403 60.9779 51.0403L67.8318 56.0194L68.1904 45.4466L65.496 26.2578L45.3646 12.2939Z" fill="#380009"></path><path d="M43.5923 10.8599L43.7972 9.42557L44.4016 9.18994L58.9289 19.2095L67.6474 26.2888L67.2786 27.6104L66.0287 27.1596L44.9036 12.2634L43.5923 10.8599Z" fill="#E25D00"></path><path d="M46.5223 14.3223L45.1085 27.0465L54.708 33.8696L55.0461 20.0185L46.5223 14.3223Z" fill="#4F2F32"></path><path d="M56.4599 21.1455V34.884L59.1646 39.7401L62.0229 50.9378L66.8073 54.0933L67.4015 45.0572L64.8505 27.231L56.4599 21.1455Z" fill="#4F2F32"></path><path d="M26.1758 28.3375L28.8703 28.9419L33.6649 30.2942C33.6649 30.2942 35.0787 30.7758 38.5312 33.5009C41.8096 36.0929 50.3232 45.467 50.3232 45.467L56.4701 54.1547L57.2897 55.7324L61.4697 53.2737V51.9111L60.8652 51.4603L54.6773 41.2871L40.9798 27.5281L32.0155 25.7967L30.8168 25.6123L26.1758 28.3375Z" fill="#FFC523"></path><path d="M54.6773 41.2871L50.2207 43.8688L56.6341 53.9191L60.8857 51.4603L54.6773 41.2871Z" fill="#FF9A0A"></path><path d="M93.229 43.0288V46.3994C93.1827 46.774 93.0338 47.1285 92.7987 47.4239H92.686C92.4049 47.5451 92.0916 47.5703 91.7947 47.4956L91.5181 47.3932C91.4417 47.3579 91.377 47.3016 91.3317 47.2308C91.2863 47.16 91.2621 47.0777 91.262 46.9936V43.582L93.229 43.0288Z" fill="#615851"></path><path d="M95.0219 47.0655C95.0321 47.254 95.0027 47.4425 94.9356 47.6189C94.8686 47.7954 94.7654 47.9558 94.6326 48.09L94.5404 48.1924C94.4174 48.3256 94.0384 48.4178 93.9564 48.2846L91.8357 47.4548L91.5591 47.3523L91.8254 46.9938L92.6553 45.8566L92.9626 45.457L93.1266 45.5492L93.2802 45.6312L94.8784 46.4508C94.9898 46.6355 95.0399 46.8506 95.0219 47.0655Z" fill="#615851"></path><path d="M94.6326 48.0795L94.5404 48.1819C94.4174 48.3151 94.0384 48.4073 93.9564 48.2741L91.8357 47.4443L91.5591 47.3419C91.4827 47.3067 91.418 47.2503 91.3726 47.1795C91.3272 47.1087 91.3031 47.0264 91.303 46.9423V43.9405C91.7128 43.8791 92.184 43.8278 92.5324 43.8073C92.8008 43.7489 93.0572 43.6449 93.2905 43.5V45.2314C93.2946 45.2517 93.2946 45.2726 93.2905 45.2929C93.2615 45.3792 93.2163 45.4591 93.1573 45.5285C93.032 45.6729 92.8687 45.7794 92.686 45.8359C92.1021 46.0715 91.805 46.2149 91.805 46.2866C91.805 46.3583 91.805 46.973 91.805 46.973L92.727 47.3726C93.3349 47.6761 93.9738 47.9132 94.6326 48.0795Z" fill="#463C34"></path><path d="M94.0999 24.7622V43.9612C94.0885 44.1228 94.0354 44.2786 93.9456 44.4133C93.8557 44.548 93.7324 44.657 93.5876 44.7296C93.2049 44.9295 92.7798 45.0349 92.348 45.037C92.0018 45.0606 91.6542 45.0189 91.3235 44.914C91.1639 44.8839 91.0111 44.8249 90.8727 44.7399C90.7125 44.6676 90.5763 44.5512 90.4801 44.4041C90.3839 44.2571 90.3318 44.0857 90.3297 43.91V24.7622H94.0999Z" fill="#69645F"></path><path d="M91.2825 24.7622V44.9448C91.1228 44.9147 90.9701 44.8556 90.8317 44.7706C90.6715 44.6984 90.5353 44.5819 90.4391 44.4349C90.3429 44.2879 90.2907 44.1164 90.2887 43.9407V24.7622H91.2825Z" fill="#615851"></path><path d="M93.5876 24.7622V44.7296C93.2048 44.9296 92.7798 45.0349 92.348 45.037V24.7622H93.5876Z" fill="#737373"></path><path d="M90.678 28.778C90.8478 28.778 90.9854 28.5624 90.9854 28.2965C90.9854 28.0305 90.8478 27.8149 90.678 27.8149C90.5083 27.8149 90.3707 28.0305 90.3707 28.2965C90.3707 28.5624 90.5083 28.778 90.678 28.778Z" fill="#2B2B2B"></path><path d="M90.9854 30.6734C90.9854 30.9295 90.8419 31.1447 90.678 31.1447C90.5141 31.1447 90.3707 30.9295 90.3707 30.6734C90.3707 30.4173 90.5141 30.1919 90.678 30.1919C90.8419 30.1919 90.9854 30.407 90.9854 30.6734Z" fill="#2B2B2B"></path><path d="M90.9854 33.0401C90.9854 33.3065 90.8419 33.5114 90.678 33.5114C90.5141 33.5114 90.3707 33.3065 90.3707 33.0401C90.3707 32.7737 90.5141 32.5586 90.678 32.5586C90.8419 32.5586 90.9854 32.784 90.9854 33.0401Z" fill="#2B2B2B"></path><path d="M90.9854 35.4063C90.9854 35.6727 90.8419 35.8878 90.678 35.8878C90.5141 35.8878 90.3707 35.6727 90.3707 35.4063C90.3707 35.14 90.5141 34.9351 90.678 34.9351C90.8419 34.9351 90.9854 35.14 90.9854 35.4063Z" fill="#2B2B2B"></path><path d="M90.9854 37.773C90.9854 38.0394 90.8419 38.2545 90.678 38.2545C90.5141 38.2545 90.3707 38.0394 90.3707 37.773C90.3707 37.5067 90.5141 37.3018 90.678 37.3018C90.8419 37.3018 90.9854 37.5169 90.9854 37.773Z" fill="#2B2B2B"></path><path d="M90.9854 40.15C90.9854 40.4061 90.8419 40.6212 90.678 40.6212C90.5141 40.6212 90.3707 40.4061 90.3707 40.15C90.3707 39.8938 90.5141 39.6685 90.678 39.6685C90.8419 39.6685 90.9854 39.8836 90.9854 40.15Z" fill="#2B2B2B"></path><path d="M92.348 29.9561C92.3574 30.0161 92.3538 30.0774 92.3373 30.1358C92.3207 30.1942 92.2918 30.2483 92.2523 30.2945C92.2129 30.3406 92.1639 30.3776 92.1088 30.403C92.0537 30.4284 91.9937 30.4416 91.933 30.4416C91.8724 30.4416 91.8124 30.4284 91.7573 30.403C91.7021 30.3776 91.6532 30.3406 91.6137 30.2945C91.5743 30.2483 91.5453 30.1942 91.5288 30.1358C91.5123 30.0774 91.5087 30.0161 91.5181 29.9561C91.5087 29.8962 91.5123 29.8349 91.5288 29.7765C91.5453 29.7181 91.5743 29.664 91.6137 29.6178C91.6532 29.5717 91.7021 29.5347 91.7573 29.5093C91.8124 29.4839 91.8724 29.4707 91.933 29.4707C91.9937 29.4707 92.0537 29.4839 92.1088 29.5093C92.1639 29.5347 92.2129 29.5717 92.2523 29.6178C92.2918 29.664 92.3207 29.7181 92.3373 29.7765C92.3538 29.8349 92.3574 29.8962 92.348 29.9561Z" fill="#2B2B2B"></path><path d="M92.348 32.3228C92.3574 32.3828 92.3538 32.4441 92.3373 32.5025C92.3207 32.5609 92.2918 32.615 92.2523 32.6612C92.2129 32.7073 92.1639 32.7443 92.1088 32.7697C92.0537 32.7951 91.9937 32.8083 91.933 32.8083C91.8724 32.8083 91.8124 32.7951 91.7573 32.7697C91.7021 32.7443 91.6532 32.7073 91.6137 32.6612C91.5743 32.615 91.5453 32.5609 91.5288 32.5025C91.5123 32.4441 91.5087 32.3828 91.5181 32.3228C91.5087 32.2629 91.5123 32.2016 91.5288 32.1432C91.5453 32.0848 91.5743 32.0307 91.6137 31.9845C91.6532 31.9384 91.7021 31.9014 91.7573 31.876C91.8124 31.8506 91.8724 31.8374 91.933 31.8374C91.9937 31.8374 92.0537 31.8506 92.1088 31.876C92.1639 31.9014 92.2129 31.9384 92.2523 31.9845C92.2918 32.0307 92.3207 32.0848 92.3373 32.1432C92.3538 32.2016 92.3574 32.2629 92.348 32.3228Z" fill="#2B2B2B"></path><path d="M92.348 34.6896C92.338 34.7702 92.305 34.8462 92.2528 34.9083C92.2006 34.9705 92.1315 35.0163 92.0539 35.04C91.9762 35.0637 91.8934 35.0645 91.8153 35.0421C91.7373 35.0197 91.6674 34.9752 91.6141 34.9139C91.5608 34.8527 91.5264 34.7773 91.5151 34.6969C91.5038 34.6165 91.516 34.5345 91.5503 34.4609C91.5846 34.3873 91.6395 34.3252 91.7083 34.2822C91.7771 34.2391 91.857 34.2169 91.9382 34.2183C92.0541 34.2288 92.1615 34.2836 92.2379 34.3715C92.3143 34.4593 92.3537 34.5733 92.348 34.6896Z" fill="#2B2B2B"></path><path d="M92.3479 37.066C92.3361 37.1458 92.3016 37.2206 92.2484 37.2813C92.1952 37.342 92.1257 37.3861 92.0481 37.4083C91.9706 37.4305 91.8882 37.4299 91.811 37.4066C91.7337 37.3833 91.6649 37.3382 91.6126 37.2768C91.5603 37.2153 91.5268 37.1401 91.5161 37.0601C91.5054 36.9801 91.518 36.8988 91.5523 36.8257C91.5867 36.7527 91.6413 36.6911 91.7097 36.6484C91.7782 36.6056 91.8575 36.5834 91.9381 36.5845C92.056 36.595 92.165 36.6513 92.2416 36.7414C92.3183 36.8314 92.3565 36.948 92.3479 37.066Z" fill="#2B2B2B"></path><path d="M92.348 39.4327C92.3574 39.4927 92.3538 39.5539 92.3373 39.6124C92.3207 39.6708 92.2918 39.7249 92.2523 39.771C92.2129 39.8172 92.1639 39.8542 92.1088 39.8796C92.0537 39.905 91.9937 39.9182 91.933 39.9182C91.8724 39.9182 91.8124 39.905 91.7573 39.8796C91.7021 39.8542 91.6532 39.8172 91.6137 39.771C91.5743 39.7249 91.5453 39.6708 91.5288 39.6124C91.5123 39.5539 91.5087 39.4927 91.5181 39.4327C91.5087 39.3728 91.5123 39.3115 91.5288 39.2531C91.5453 39.1947 91.5743 39.1405 91.6137 39.0944C91.6532 39.0483 91.7021 39.0112 91.7573 38.9858C91.8124 38.9604 91.8724 38.9473 91.933 38.9473C91.9937 38.9473 92.0537 38.9604 92.1088 38.9858C92.1639 39.0112 92.2129 39.0483 92.2523 39.0944C92.2918 39.1405 92.3207 39.1947 92.3373 39.2531C92.3538 39.3115 92.3574 39.3728 92.348 39.4327Z" fill="#2B2B2B"></path><path d="M92.348 41.7994C92.3574 41.8594 92.3538 41.9206 92.3373 41.979C92.3207 42.0375 92.2918 42.0916 92.2523 42.1377C92.2129 42.1839 92.1639 42.2209 92.1088 42.2463C92.0537 42.2717 91.9937 42.2848 91.933 42.2848C91.8724 42.2848 91.8124 42.2717 91.7573 42.2463C91.7021 42.2209 91.6532 42.1839 91.6137 42.1377C91.5743 42.0916 91.5453 42.0375 91.5288 41.979C91.5123 41.9206 91.5087 41.8594 91.5181 41.7994C91.5087 41.7395 91.5123 41.6782 91.5288 41.6198C91.5453 41.5614 91.5743 41.5072 91.6137 41.4611C91.6532 41.415 91.7021 41.3779 91.7573 41.3525C91.8124 41.3271 91.8724 41.314 91.933 41.314C91.9937 41.314 92.0537 41.3271 92.1088 41.3525C92.1639 41.3779 92.2129 41.415 92.2523 41.4611C92.2918 41.5072 92.3207 41.5614 92.3373 41.6198C92.3538 41.6782 92.3574 41.7395 92.348 41.7994Z" fill="#2B2B2B"></path><path d="M93.5159 28.7779C93.5276 28.889 93.4956 29.0002 93.4268 29.0881C93.358 29.1761 93.2577 29.2338 93.1471 29.2492C92.9524 29.2492 92.7885 29.034 92.7885 28.7779C92.7885 28.5218 92.9524 28.2964 93.1471 28.2964C93.2585 28.3141 93.3589 28.374 93.4275 28.4636C93.4962 28.5532 93.5278 28.6657 93.5159 28.7779Z" fill="#2B2B2B"></path><path d="M93.5159 31.1446C93.5278 31.2568 93.4962 31.3693 93.4275 31.4589C93.3589 31.5485 93.2585 31.6084 93.1471 31.6261C92.9524 31.6261 92.7885 31.411 92.7885 31.1446C92.7719 31.0881 92.7687 31.0285 92.7791 30.9705C92.7896 30.9125 92.8134 30.8578 92.8487 30.8106C92.884 30.7634 92.9298 30.7252 92.9825 30.6988C93.0352 30.6724 93.0933 30.6587 93.1522 30.6587C93.2111 30.6587 93.2692 30.6724 93.3219 30.6988C93.3746 30.7252 93.4204 30.7634 93.4557 30.8106C93.491 30.8578 93.5148 30.9125 93.5252 30.9705C93.5357 31.0285 93.5325 31.0881 93.5159 31.1446Z" fill="#2B2B2B"></path><path d="M93.5159 33.5113C93.5278 33.6235 93.4962 33.736 93.4275 33.8256C93.3589 33.9152 93.2585 33.9751 93.1471 33.9928C92.9524 33.9928 92.7885 33.7777 92.7885 33.5113C92.7885 33.2449 92.9524 33.04 93.1471 33.04C93.2577 33.0554 93.358 33.1131 93.4268 33.2011C93.4956 33.289 93.5276 33.4002 93.5159 33.5113Z" fill="#2B2B2B"></path><path d="M93.5159 35.8575C93.5276 35.9685 93.4956 36.0798 93.4268 36.1677C93.358 36.2557 93.2577 36.3134 93.1471 36.3288C92.9524 36.3288 92.7885 36.1136 92.7885 35.8575C92.7885 35.6014 92.9524 35.376 93.1471 35.376C93.2585 35.3937 93.3589 35.4536 93.4275 35.5432C93.4962 35.6327 93.5278 35.7453 93.5159 35.8575Z" fill="#2B2B2B"></path><path d="M93.5159 38.2545C93.5325 38.311 93.5357 38.3706 93.5252 38.4286C93.5148 38.4865 93.491 38.5413 93.4557 38.5884C93.4204 38.6356 93.3746 38.6739 93.3219 38.7003C93.2692 38.7266 93.2111 38.7404 93.1522 38.7404C93.0933 38.7404 93.0352 38.7266 92.9825 38.7003C92.9298 38.6739 92.884 38.6356 92.8487 38.5884C92.8134 38.5413 92.7896 38.4865 92.7791 38.4286C92.7687 38.3706 92.7719 38.311 92.7885 38.2545C92.7885 37.9881 92.9524 37.7729 93.1471 37.7729C93.2585 37.7907 93.3589 37.8505 93.4275 37.9401C93.4962 38.0297 93.5278 38.1422 93.5159 38.2545Z" fill="#2B2B2B"></path><path d="M93.5159 40.6212C93.5278 40.7334 93.4962 40.8459 93.4275 40.9355C93.3589 41.0251 93.2585 41.0849 93.1471 41.1027C92.9524 41.1027 92.7885 40.8875 92.7885 40.6212C92.7719 40.5646 92.7687 40.505 92.7791 40.447C92.7896 40.3891 92.8134 40.3343 92.8487 40.2872C92.884 40.24 92.9298 40.2017 92.9825 40.1754C93.0352 40.149 93.0933 40.1353 93.1522 40.1353C93.2111 40.1353 93.2692 40.149 93.3219 40.1754C93.3746 40.2017 93.4204 40.24 93.4557 40.2872C93.491 40.3343 93.5148 40.3891 93.5252 40.447C93.5357 40.505 93.5325 40.5646 93.5159 40.6212Z" fill="#2B2B2B"></path><path d="M94.0281 27.5894C94.0281 27.8455 93.9667 28.0607 93.895 28.0607C93.8232 28.0607 93.7515 27.8455 93.7515 27.5894C93.7515 27.3333 93.813 27.1079 93.895 27.1079C93.9769 27.1079 94.0281 27.3231 94.0281 27.5894Z" fill="#2B2B2B"></path><path d="M94.0281 29.9561C94.0281 30.2225 93.9667 30.4274 93.895 30.4274C93.8232 30.4274 93.7515 30.2225 93.7515 29.9561C93.7515 29.6898 93.813 29.4746 93.895 29.4746C93.9769 29.4746 94.0281 29.7102 94.0281 29.9561Z" fill="#2B2B2B"></path><path d="M94.0281 32.3228C94.0281 32.5892 93.9667 32.8043 93.895 32.8043C93.8232 32.8043 93.7515 32.5892 93.7515 32.3228C93.7515 32.0565 93.813 31.8516 93.895 31.8516C93.9769 31.8516 94.0281 32.0565 94.0281 32.3228Z" fill="#2B2B2B"></path><path d="M94.0281 34.6895C94.0281 34.9559 93.9667 35.171 93.895 35.171C93.8232 35.171 93.7515 34.9559 93.7515 34.6895C93.7515 34.4232 93.813 34.2183 93.895 34.2183C93.9769 34.2183 94.0281 34.4334 94.0281 34.6895Z" fill="#2B2B2B"></path><path d="M94.0281 37.066C94.0281 37.3221 93.9667 37.5373 93.895 37.5373C93.8232 37.5373 93.7515 37.3221 93.7515 37.066C93.7515 36.8099 93.813 36.5845 93.895 36.5845C93.9769 36.5845 94.0281 36.7996 94.0281 37.066Z" fill="#2B2B2B"></path><path d="M93.8949 39.9142C93.9685 39.9142 94.0281 39.6986 94.0281 39.4327C94.0281 39.1668 93.9685 38.9512 93.8949 38.9512C93.8214 38.9512 93.7617 39.1668 93.7617 39.4327C93.7617 39.6986 93.8214 39.9142 93.8949 39.9142Z" fill="#2B2B2B"></path><path d="M94.0281 41.7994C94.0281 42.0658 93.9667 42.2809 93.895 42.2809C93.8232 42.2809 93.7515 42.0658 93.7515 41.7994C93.7515 41.533 93.813 41.3281 93.895 41.3281C93.9769 41.3281 94.0281 41.533 94.0281 41.7994Z" fill="#2B2B2B"></path><path d="M90.8419 25.5409C91.2593 25.7532 91.7209 25.8639 92.1892 25.8639C92.6574 25.8639 93.119 25.7532 93.5364 25.5409C93.7003 25.487 93.8431 25.3827 93.9443 25.2429C94.0455 25.1031 94.1 24.9349 94.1 24.7623C94.1 24.5897 94.0455 24.4215 93.9443 24.2816C93.8431 24.1418 93.7003 24.0375 93.5364 23.9836C93.119 23.7713 92.6574 23.6606 92.1892 23.6606C91.7209 23.6606 91.2593 23.7713 90.8419 23.9836C90.1555 24.4139 90.0941 25.1106 90.8419 25.5409Z" fill="#838383"></path><path d="M91.2722 20.4897L93.1061 21.7294V24.4341C93.1031 24.5175 93.0765 24.5984 93.0294 24.6674C92.9822 24.7363 92.9164 24.7904 92.8397 24.8234C92.6384 24.9267 92.4154 24.9806 92.1891 24.9806C91.9629 24.9806 91.7399 24.9267 91.5386 24.8234C91.4614 24.7922 91.3956 24.7382 91.3498 24.6687C91.304 24.5991 91.2806 24.5173 91.2825 24.4341L91.2722 20.4897Z" fill="#615851"></path><path d="M91.5386 21.0432C91.8629 21.4624 92.3229 21.7557 92.8397 21.8731C93.1983 21.8731 93.1983 21.5657 92.8397 21.1354C92.5168 20.7175 92.0617 20.4214 91.5488 20.2953C91.18 20.2749 91.18 20.6027 91.5386 21.0432Z" fill="#838383"></path><path d="M92.645 21.1147C92.4165 20.8267 92.0998 20.6215 91.7435 20.5308C91.4874 20.5308 91.4874 20.7459 91.7435 21.0533C91.9696 21.3487 92.2923 21.5554 92.6553 21.6372C92.9012 21.6577 92.9012 21.4221 92.645 21.1147Z" fill="#332D28"></path><path d="M95.9132 63.4061L100.134 63.1397L110.184 57.3411L110.758 54.8311L90.3399 40.6008L82.7177 35.2939L78.3021 38.8285L71.2433 41.9224L78.4251 48.0489L95.9132 63.4061Z" fill="#FFC523"></path><g style="mix-blend-mode:screen"><path d="M88.8442 39.5659L109.785 54.8309L109.088 56.6135L99.8882 61.8897L95.9132 62.5248L79.7774 48.8171L71.2433 41.9223L95.9132 63.4059L100.134 63.1395L110.184 57.3409L110.758 54.8309L88.8442 39.5659Z" fill="#FF6200"></path></g><path d="M26.1758 29.1058L27.3438 29.9868L35.8573 31.5236L49.2167 44.9445L55.8657 54.5235L57.2385 55.7324V54.3596L56.6341 53.919L50.2207 43.8687L36.3183 30.2122L27.354 28.4706L26.1758 28.3374V29.1058Z" fill="#E25D00"></path><path d="M82.7177 35.2939L83.5783 35.4169L110.758 54.8311L82.7177 35.2939Z" fill="#E29200"></path><path d="M83.5783 17.0988L67.6474 26.2885L58.9289 19.2093L44.4016 9.18972L43.7971 9.42535L59.7178 0.225389L60.3223 0L74.8598 10.0196L83.5783 17.0988Z" fill="#FFC523"></path><path d="M74.8598 10.0195L58.9289 19.2092L67.6474 26.2885L83.5783 17.0988L74.8598 10.0195Z" fill="#FFD02D"></path><path d="M83.2095 18.4202L67.2786 27.6099L67.6474 26.2884L83.5783 17.0986L83.2095 18.4202Z" fill="#ECBB1F"></path><path d="M36.0827 24.4241L44.6475 18.5742L43.7971 25.5715L43.0288 26.4321L42.3116 26.7804L36.0827 24.4241Z" fill="#F37C00"></path><path d="M61.0599 29.8639L60.1788 29.9458C59.77 30.1025 59.4221 30.3859 59.1862 30.7546C58.9502 31.1234 58.8385 31.558 58.8675 31.9948V37.5988C58.8675 38.5618 59.4514 39.2277 60.1788 39.0741L61.3877 38.8692C62.1151 38.7257 62.4122 37.9471 62.4122 36.9841V31.3391C62.3712 30.3761 61.7873 29.7102 61.0599 29.8639Z" fill="#1F140B"></path><path d="M61.0599 30.0177L60.1788 30.0997C59.77 30.2563 59.4221 30.5398 59.1862 30.9085C58.9502 31.2772 58.8385 31.7118 58.8675 32.1487V37.7424C58.8675 38.7054 59.4514 39.3714 60.1788 39.2279L61.3877 39.0128C62.1151 38.8694 62.4122 38.0907 62.4122 37.1277V31.5032C62.3712 30.53 61.7873 29.8743 61.0599 30.0177Z" fill="#332D28"></path><path d="M61.1623 38.4494V31.5955C61.1598 31.0535 61.2665 30.5166 61.4759 30.0167C61.6854 29.5168 61.9934 29.0642 62.3815 28.6859L65.455 25.6944V25.3358L65.1681 25.2026L61.8897 28.3376C61.4933 28.7182 61.1774 29.1746 60.9609 29.6797C60.7444 30.1848 60.6318 30.7283 60.6296 31.2779V38.562C60.6295 39.2235 60.7931 39.8747 61.106 40.4575C61.4188 41.0403 61.8711 41.5365 62.4225 41.9019L67.6781 45.3544L68.0367 45.2213L67.8216 44.6783L62.6991 41.236C62.2351 40.932 61.8526 40.5192 61.5847 40.0335C61.3169 39.5478 61.1719 39.0039 61.1623 38.4494Z" fill="#312821"></path><path d="M46.2764 26.2884C46.5428 26.3806 55.0256 21.1659 55.0256 21.1659V20.039L47.0038 14.3428L46.2764 26.2884Z" fill="#664A4C"></path><path d="M61.4902 51.9111L57.2385 54.3597V55.7325L61.4902 53.284V51.9111Z" fill="#FF9A0A"></path><path d="M40.9593 27.5281L36.3183 30.2123L26.1758 28.3375L30.8168 25.6533L40.9593 27.5281Z" fill="#FFB828"></path><path d="M32.8146 24.4546L29.6284 26.2987V27.8764L33.3371 24.7517L32.8146 24.4546Z" fill="#FFD02D"></path><path d="M33.3371 24.752L30.1509 26.596V28.1738L33.3371 26.3297V24.752Z" fill="#E29200"></path><path d="M30.1509 26.5959L29.6284 26.2988V27.8765L30.1509 28.1737V26.5959Z" fill="#E25B00"></path><g style="mix-blend-mode:screen"><path d="M44.4016 9.18972L59.5129 18.8712L67.8318 25.3255L82.2567 17.0681L74.1017 10.4498L60.3223 0L74.8598 10.0196L83.5783 17.0988L67.6474 26.2885L58.9289 19.2093L44.4016 9.18972Z" fill="#FF6200"></path></g><path d="M105.113 66.9507L105.205 68.5182L103.781 69.3378L103.679 67.7703L105.113 66.9507Z" fill="#F1F1F1"></path><path d="M108.494 65.0044L108.586 66.5514L107.162 67.3812L107.06 65.824L108.494 65.0044Z" fill="#F1F1F1"></path><path d="M103.761 69.1533L103.72 68.5591L104.621 68.0162L105.185 68.3337L105.113 66.9507L103.679 67.7703L103.761 69.1533Z" fill="#AAAAAA"></path><path d="M107.142 67.1968L107.111 66.6128L108.002 66.0699L108.576 66.3772L108.494 65.0044L107.06 65.824L107.142 67.1968Z" fill="#AAAAAA"></path><path d="M105.636 71.4686C105.614 71.6589 105.549 71.8416 105.444 72.0018C105.339 72.162 105.197 72.2952 105.031 72.3906L103.32 73.4151C103.033 73.5995 102.736 73.4868 102.767 73.2102L102.818 72.7389C102.832 72.5874 102.884 72.4416 102.968 72.3147C103.052 72.1878 103.166 72.0836 103.3 72.0115L104.529 71.2739L105.226 70.8641C105.431 70.7309 105.636 70.8129 105.636 71.0075V71.4686Z" fill="#CDCDCD"></path><path d="M103.925 72.575L102.777 73.159L102.829 72.6877C102.843 72.5361 102.894 72.3904 102.978 72.2634C103.062 72.1365 103.176 72.0324 103.31 71.9603L104.539 71.2227V71.6529C104.522 71.8458 104.457 72.0312 104.35 72.1923C104.242 72.3534 104.096 72.485 103.925 72.575Z" fill="#E3E7EB"></path><path d="M109.928 68.9383C109.91 69.1294 109.845 69.3131 109.739 69.4737C109.634 69.6343 109.492 69.7669 109.324 69.8604L107.613 70.8849C107.326 71.0693 107.029 70.9566 107.06 70.68V70.2087C107.073 70.0569 107.124 69.9107 107.208 69.7837C107.292 69.6566 107.407 69.5526 107.541 69.4813L108.781 68.7437L109.467 68.3236C109.672 68.2007 109.887 68.3236 109.877 68.4773L109.928 68.9383Z" fill="#CDCDCD"></path><path d="M108.217 70.0447L107.07 70.6287V70.1574C107.083 70.0056 107.134 69.8595 107.218 69.7324C107.302 69.6053 107.417 69.5014 107.551 69.43L108.791 68.6924V69.1227C108.774 69.3105 108.713 69.4916 108.614 69.6517C108.514 69.8118 108.378 69.9464 108.217 70.0447Z" fill="#E3E7EB"></path><path d="M45.7744 8.64697L60.5579 18.4514L60.6193 18.5436L60.1481 18.8305L45.672 8.84163L45.7744 8.64697Z" fill="#E29200"></path><path d="M46.1535 8.42139L60.5579 18.4512L60.2505 18.6356L45.7744 8.64677L46.1535 8.42139Z" fill="#FFD02D"></path><path d="M48.5406 7.05859L63.3138 16.863L63.3752 16.9552L62.904 17.2421L48.4381 7.25325L48.5406 7.05859Z" fill="#E29200"></path><path d="M48.9094 6.84375L63.3138 16.8633L63.0064 17.0477L48.5406 7.05889L48.9094 6.84375Z" fill="#FFD02D"></path><path d="M51.2964 5.4707L66.0697 15.2751L66.1414 15.3776L65.6599 15.6644L51.194 5.66536L51.2964 5.4707Z" fill="#E29200"></path><path d="M51.6653 5.25586L66.0697 15.2754L65.7623 15.4701L51.2964 5.471L51.6653 5.25586Z" fill="#FFD02D"></path><path d="M54.0523 3.88281L68.8358 13.6975L68.8973 13.7897L68.426 14.0765L53.9499 4.07747L54.0523 3.88281Z" fill="#E29200"></path><path d="M54.4314 3.66748L68.8358 13.6973L68.5284 13.8817L54.0523 3.88262L54.4314 3.66748Z" fill="#FFD02D"></path><path d="M56.8082 2.30518L71.5917 12.1096L71.6532 12.2018L71.1819 12.4887L56.7058 2.49983L56.8082 2.30518Z" fill="#E29200"></path><path d="M57.1873 2.08984L71.5917 12.1094L71.2843 12.2938L56.8082 2.30499L57.1873 2.08984Z" fill="#FFD02D"></path><path d="M59.5744 0.717285L74.3476 10.5217L74.4091 10.6241L73.9378 10.911L59.4719 0.911939L59.5744 0.717285Z" fill="#E29200"></path><path d="M59.9432 0.501953L74.3476 10.5215L74.0402 10.7162L59.5744 0.717097L59.9432 0.501953Z" fill="#FFD02D"></path><path d="M60.2505 18.6357L67.8113 24.4241L67.8728 24.5163L67.4015 24.8032L60.1481 18.8304L60.2505 18.6357Z" fill="#E29200"></path><path d="M60.6194 18.4204L67.8113 24.424L67.504 24.6084L60.2505 18.6356L60.6194 18.4204Z" fill="#FFD02D"></path><path d="M63.0064 17.0474L70.5672 22.8358L70.6287 22.928L70.1574 23.2148L62.904 17.242L63.0064 17.0474Z" fill="#E29200"></path><path d="M63.3752 16.8325L70.5672 22.8361L70.2598 23.0205L63.0064 17.0477L63.3752 16.8325Z" fill="#FFD02D"></path><path d="M65.7623 15.4697L73.3231 21.2479L73.3948 21.3503L72.9133 21.6269L65.6599 15.6644L65.7623 15.4697Z" fill="#E29200"></path><path d="M66.1414 15.2549L73.3231 21.2482L73.0157 21.4428L65.7623 15.47L66.1414 15.2549Z" fill="#FFD02D"></path><path d="M72.0732 21.3198L70.895 21.996L71.52 22.5185L72.6981 21.8321L72.0732 21.3198Z" fill="#FFA036"></path><path d="M72.6981 21.832L71.52 22.5184V23.1024L72.6981 22.416V21.832Z" fill="#FF8936"></path><path d="M71.52 22.5186L70.895 21.9961V22.5801L71.52 23.1025V22.5186Z" fill="#D75716"></path><path d="M75.0135 19.5986L73.8353 20.285L74.4603 20.7973L75.6384 20.1109L75.0135 19.5986Z" fill="#FFA036"></path><path d="M75.6384 20.1108L74.4603 20.7973V21.3812L75.6384 20.6948V20.1108Z" fill="#FF8936"></path><path d="M74.4603 20.7974L73.8353 20.2852V20.8691L74.4603 21.3814V20.7974Z" fill="#D75716"></path><path d="M77.7386 17.9697L76.5605 18.6561L77.1752 19.1684L78.3636 18.482L77.7386 17.9697Z" fill="#FFA036"></path><path d="M78.3636 18.4819L77.1752 19.1683V19.7523L78.3636 19.0659V18.4819Z" fill="#FF8936"></path><path d="M77.1752 19.1685L76.5605 18.6562V19.2402L77.1752 19.7525V19.1685Z" fill="#D75716"></path><path d="M68.5284 13.8818L76.0892 19.6702L76.1507 19.7624L75.6692 20.0493L68.426 14.0765L68.5284 13.8818Z" fill="#E29200"></path><path d="M68.8973 13.667L76.0892 19.6705L75.7716 19.8549L68.5284 13.8821L68.8973 13.667Z" fill="#FFD02D"></path><path d="M71.2843 12.2939L78.8451 18.0823L78.9066 18.1745L78.4353 18.4614L71.1819 12.4886L71.2843 12.2939Z" fill="#E29200"></path><path d="M71.6532 12.0786L78.8451 18.0822L78.5378 18.2666L71.2843 12.2938L71.6532 12.0786Z" fill="#FFD02D"></path><path d="M74.0402 10.7163L81.601 16.4945L81.6625 16.5969L81.1912 16.8838L73.9378 10.911L74.0402 10.7163Z" fill="#E29200"></path><path d="M74.4193 10.4907L81.601 16.4943L81.2936 16.6787L74.0402 10.7161L74.4193 10.4907Z" fill="#FFD02D"></path><g style="mix-blend-mode:multiply"><path d="M61.3365 16.7503L61.1521 14.8242L56.4599 14.9164C56.107 14.9245 55.7591 15.001 55.4354 15.1418C54.8617 15.4389 54.9027 15.9102 55.5276 16.1663C55.7853 16.2895 56.0628 16.3658 56.3472 16.3917L61.3365 16.7503Z" fill="#D99824"></path></g><path d="M59.5436 14.6093L63.1294 14.5479V15.8592C63.1294 16.0846 62.9859 16.2997 62.6479 16.4739C62.2471 16.6416 61.817 16.7279 61.3826 16.7279C60.9482 16.7279 60.5181 16.6416 60.1174 16.4739C59.7485 16.31 59.5539 16.0948 59.5436 15.8797V14.6093Z" fill="#B2CDCF"></path><path d="M59.7075 11.3413H62.781L63.1191 14.5787C63.1191 14.8041 62.9757 15.0192 62.6376 15.1934C62.2368 15.3611 61.8068 15.4474 61.3724 15.4474C60.9379 15.4474 60.5079 15.3611 60.1071 15.1934C59.7383 15.0295 59.5436 14.8143 59.5334 14.5992L59.7075 11.3413Z" fill="#D76600"></path><path d="M60.1174 10.8186C60.463 10.674 60.8338 10.5996 61.2084 10.5996C61.5831 10.5996 61.9539 10.674 62.2995 10.8186C62.9245 11.0952 62.9655 11.5562 62.3917 11.8431C61.6891 12.1301 60.902 12.1301 60.1993 11.8431C59.5744 11.587 59.5334 11.1157 60.1174 10.8186Z" fill="#FFA71E"></path><path d="M60.0969 13.9945C60.4703 13.8396 60.8707 13.7598 61.275 13.7598C61.6794 13.7598 62.0798 13.8396 62.4532 13.9945C63.1294 14.2917 63.1704 14.7937 62.5454 15.1215C62.172 15.2765 61.7716 15.3563 61.3672 15.3563C60.9629 15.3563 60.5625 15.2765 60.1891 15.1215C59.5129 14.8141 59.4719 14.3429 60.0969 13.9945Z" fill="#FF9C00"></path><path d="M61.7975 12.7653C61.9603 13.2646 61.9603 13.8027 61.7975 14.3021C61.6336 14.7016 60.8857 14.5889 60.773 14.1586C60.6987 13.9981 60.6602 13.8233 60.6602 13.6464C60.6602 13.4695 60.6987 13.2947 60.773 13.1341C60.9984 12.6936 61.6336 12.294 61.7975 12.7653Z" fill="#FF9C00"></path><path d="M61.1828 13.1443C61.3271 13.594 61.3271 14.0776 61.1828 14.5273C61.0394 14.8552 60.814 14.763 60.6808 14.3122C60.5467 13.8609 60.5467 13.3804 60.6808 12.9291C60.8243 12.6013 61.0496 12.6935 61.1828 13.1443Z" fill="#FFA71E"></path><path d="M140.407 89.3361L104.703 109.949L95.5034 102.757L93.6388 85.0332L129.342 64.4204L131.197 76.909L134.158 83.6604L140.407 89.3361Z" fill="#262021"></path><path d="M126.781 81.2832L91.7332 101.517L105.359 109.57L139.29 89.766L126.781 81.2832Z" fill="#362E2F"></path><path d="M103.546 107.428L137.958 87.5737L139.762 89.7047L105.359 109.57L103.546 107.428Z" fill="#5C4E4F"></path><path d="M94.2843 84.6641L99.2018 87.7683L99.4477 88.6801L97.911 91.3028L101.589 103.392L102.788 104.58L103.546 107.428L105.359 109.57L104.703 109.949L92.3787 101.138L86.9386 94.0587L94.2843 84.6641Z" fill="#4A3F40"></path><path d="M129.342 64.4204L134.26 67.5349L134.496 68.4467L132.969 71.0694L136.647 83.1584L137.835 84.3468L138.604 87.1949L140.407 89.3361L139.762 89.7049L127.437 80.9045L121.987 73.8253L129.342 64.4204Z" fill="#4A3F40"></path><path d="M128.697 64.7993L133.615 67.9138L133.85 68.8153L132.324 71.438L136.002 83.5373L137.19 84.7155L137.958 87.5738L139.762 89.7048L139.29 89.7663L126.781 81.2834L121.341 74.1939L128.697 64.7993Z" fill="#2E2728"></path><path d="M93.6388 85.0332L98.5564 88.1477L98.792 89.0492L97.2655 91.6822L100.943 103.771L102.142 104.949L102.9 107.808L104.703 109.949L104.242 110L91.7333 101.517L86.283 94.4278L93.6388 85.0332Z" fill="#2E2728"></path><path d="M98.5564 88.1477L98.792 89.0493L134.496 68.4467L134.26 67.5349L129.342 64.4204L93.6388 85.0332L98.5564 88.1477Z" fill="#5C4E4F"></path><g style="mix-blend-mode:multiply"><path d="M139.29 89.7663L131.197 89.0492L125.962 87.1846L121.987 86.0269L100.114 98.5258L97.9109 91.3031L99.4477 88.6804L133.85 68.8154L132.324 71.4381L136.002 83.5374L137.19 84.7156L137.958 87.5739L139.762 89.7049L139.29 89.7663Z" fill="#AFABA6"></path></g><path d="M101.743 107.285L99.3145 105.431L93.7617 87.8916L96.1898 89.7459L101.743 107.285Z" fill="#A3A8B1"></path><path d="M97.0504 92.4606L94.6223 90.6062L94.1818 89.2334L96.6201 91.0877L97.0504 92.4606Z" fill="#E82D24"></path><path d="M97.9929 95.4215L95.5546 93.5672L95.1243 92.1943L97.5524 94.0487L97.9929 95.4215Z" fill="#E82D24"></path><path d="M98.9252 98.3927L96.4972 96.5281L96.0669 95.1553L98.4949 97.0199L98.9252 98.3927Z" fill="#E82D24"></path><path d="M99.8677 101.353L97.4397 99.4988L96.9991 98.126L99.4272 99.9803L99.8677 101.353Z" fill="#E82D24"></path><path d="M100.8 104.314L98.372 102.46L97.9315 101.087L100.37 102.941L100.8 104.314Z" fill="#E82D24"></path><path d="M101.743 107.285L99.3145 105.421L98.874 104.048L101.302 105.912L101.743 107.285Z" fill="#E82D24"></path></g><defs><clipPath id="clip0_5678_7806"><rect width="140.407" height="110" fill="white"></rect></clipPath></defs></svg>