<svg xmlns="http://www.w3.org/2000/svg" width="92" height="80" viewBox="0 0 92 80" fill="none"><g clip-path="url(#clip0_5678_33721)"><path d="M8.30263 79.9687C7.94479 79.9682 7.59677 79.8517 7.31077 79.6366C7.02477 79.4215 6.81622 79.1195 6.7164 78.7759C6.61658 78.4323 6.63087 78.0655 6.75714 77.7307C6.8834 77.3959 7.11483 77.1111 7.4167 76.9189C14.7001 72.2854 20.5802 69.51 24.8922 68.6868C29.3767 67.9577 39.8902 68.2556 44.9471 68.3968H46.2799C47.0639 68.3968 47.8949 68.4595 48.6319 68.4908C51.5171 68.632 54.2454 68.7574 55.7664 67.8636C56.7307 67.2913 58.4555 66.3505 60.4704 65.2607C63.481 63.6222 67.2207 61.5916 69.4473 60.2117L70.7958 59.3807C75.9799 56.3049 80.9895 52.9443 85.8017 49.314C85.8846 49.2501 85.9739 49.195 86.0682 49.1494C86.3975 48.9848 86.9385 48.6555 87.6362 48.2164C87.5787 48.091 87.5003 47.9342 87.401 47.746L87.3461 47.652C87.0404 47.0875 86.9149 46.9228 86.6248 46.8679C85.9114 46.7111 83.4888 46.8679 76.4328 51.9718C76.3459 52.0341 76.2542 52.0892 76.1584 52.1365C70.8312 54.4699 65.197 56.0276 59.4277 56.7621C53.4222 57.3344 46.2015 57.4207 42.6343 56.9816L41.0662 56.7778C40.0266 56.7726 39.0316 56.3546 38.3001 55.6158C37.5686 54.877 37.1606 53.8778 37.1658 52.8382C37.171 51.7985 37.589 50.8035 38.3278 50.072C39.0667 49.3405 40.0658 48.9325 41.1054 48.9377C47.7852 48.1537 52.5519 47.5187 54.1827 47.1188C55.8134 46.719 57.2481 44.7119 57.4598 43.7633C55.343 42.8303 52.2462 42.9322 48.2321 44.0769C45.6151 44.6882 42.9289 44.9518 40.243 44.8609C36.1349 44.9079 31.8934 44.9628 28.0988 47.4716C25.9647 48.9373 23.9321 50.5456 22.0149 52.2854C16.0986 57.5741 9.50795 62.0557 2.41474 65.6135C2.04154 65.7406 1.63521 65.7303 1.26898 65.5843C0.902743 65.4383 0.600679 65.1664 0.417213 64.8174C0.233748 64.4685 0.180945 64.0654 0.268319 63.681C0.355693 63.2965 0.577498 62.9559 0.893769 62.7206C7.76046 59.2916 14.1342 54.9536 19.8432 49.8237C21.8706 47.9946 24.0155 46.3001 26.2642 44.7511C30.8742 41.7092 35.8212 41.6151 40.196 41.6151C42.5879 41.7063 44.9814 41.4822 47.3148 40.9487C52.5284 39.4434 56.4485 39.4904 59.3963 41.0585C59.9069 41.3518 60.3129 41.7975 60.5575 42.3332C60.8022 42.8688 60.8731 43.4675 60.7605 44.0455C60.4506 45.5251 59.7475 46.8937 58.7251 48.0072C57.7026 49.1207 56.3988 49.9378 54.951 50.3725C52.5284 50.9605 45.4724 51.8072 41.4661 52.2619C41.3178 52.2795 41.1816 52.3521 41.0843 52.4654C40.9871 52.5786 40.9358 52.7242 40.9408 52.8734C40.9356 53.0235 40.9866 53.1701 41.0837 53.2846C41.1809 53.3992 41.3172 53.4734 41.4661 53.4928L43.0341 53.6888C46.4053 54.0965 53.3124 54.0181 59.1141 53.4693C64.4653 52.773 69.6929 51.3322 74.6452 49.1886C80.7997 44.759 84.7119 43.042 87.3305 43.63C87.9667 43.786 88.5588 44.0853 89.0616 44.5052C89.5643 44.9251 89.9644 45.4544 90.2313 46.0526L90.2862 46.1388C91.8542 48.9612 90.6468 50.1843 90.0588 50.5763C89.3001 51.1021 88.5151 51.5888 87.7068 52.0346C82.8435 55.7221 77.7816 59.1403 72.5441 62.2737L71.2035 63.0577C68.8985 64.5238 65.1117 66.5857 62.0776 68.2086C60.1019 69.2827 58.4006 70.2078 57.4833 70.7488C55.1313 72.1521 51.9091 72.0032 48.5221 71.8385C47.7381 71.8385 46.9541 71.768 46.1701 71.7445H44.8295C39.8746 71.5955 29.5727 71.3054 25.4488 71.9797C21.6464 72.7088 16.0408 75.3979 9.17288 79.7413C8.90968 79.8968 8.60824 79.9756 8.30263 79.9687Z" fill="#17262F"></path><path d="M80.8546 14.7079C80.7497 14.3511 80.5281 14.0397 80.2254 13.8237C79.9226 13.6077 79.5562 13.4994 79.1846 13.5162C68.9925 13.9553 63.8573 10.7017 57.9302 6.93059C54.6471 4.7294 51.1792 2.8171 47.5657 1.21518C43.7711 -0.352832 40.2509 -0.407712 37.0913 1.17598C30.9134 4.26497 27.8479 12.7479 26.5229 17.8832C17.1149 16.6052 11.5327 14.0494 11.4308 14.0023C11.0337 13.8152 10.5784 13.7935 10.1653 13.942C9.75213 14.0905 9.41489 14.397 9.22776 14.7942C9.04062 15.1913 9.01891 15.6465 9.16741 16.0597C9.31591 16.4728 9.62245 16.8101 10.0196 16.9972C10.443 17.2011 16.5347 20.0078 26.6876 21.2936C26.9228 22.4069 27.2991 23.9749 27.8401 25.7624C27.8401 25.7624 27.8401 25.8251 27.8401 25.8643C29.9961 31.6111 33.3673 35.1705 37.8675 36.4484C39.1428 36.8085 40.4624 36.988 41.7875 36.9815C47.5265 36.9815 54.3787 33.9161 62.2266 27.84L62.5794 27.5656C65.0882 25.6448 68.3183 23.3634 80.0392 16.5895C80.3669 16.4133 80.6257 16.1317 80.7736 15.7903C80.9216 15.4489 80.9501 15.0676 80.8546 14.7079ZM60.6272 24.9L60.2509 25.1901C49.2199 33.7671 42.501 34.3159 38.8083 33.2654C35.3822 32.2932 32.7558 29.4316 30.9682 24.751C30.6233 23.5986 30.3489 22.5402 30.145 21.6542C32.254 21.8267 34.512 21.9365 36.9032 21.9365H37.499C38.581 23.7554 41.6935 27.7303 48.8436 28.7652C48.9218 28.7729 49.0006 28.7729 49.0788 28.7652C49.4926 28.7568 49.8884 28.5943 50.1888 28.3096C50.4891 28.0248 50.6724 27.6382 50.7028 27.2255C50.7332 26.8127 50.6085 26.4034 50.3531 26.0777C50.0977 25.7521 49.73 25.5334 49.3218 25.4645C45.245 24.8765 42.8538 23.1752 41.5288 21.7875C45.9444 21.5456 50.3362 20.9796 54.6688 20.0941C55.0992 20.0067 55.4773 19.752 55.7199 19.3859C55.9625 19.0198 56.0497 18.5723 55.9624 18.1419C55.875 17.7115 55.6203 17.3334 55.2542 17.0908C54.8881 16.8482 54.4406 16.7609 54.0102 16.8483C49.7997 17.7085 45.5305 18.251 41.2387 18.4712C42.9327 15.9206 44.9515 13.6013 47.2442 11.5719C47.4156 11.432 47.5572 11.2592 47.6606 11.0636C47.764 10.868 47.8272 10.6537 47.8463 10.4332C47.8654 10.2128 47.8401 9.99083 47.7719 9.78036C47.7037 9.5699 47.594 9.37525 47.4492 9.20794C47.3045 9.04063 47.1276 8.90406 46.9292 8.8063C46.7307 8.70855 46.5146 8.6516 46.2938 8.63882C46.0729 8.62605 45.8517 8.65771 45.6433 8.73193C45.4349 8.80615 45.2434 8.92142 45.0804 9.07092C43.1203 10.7644 38.9573 15.1156 37.4285 18.5731C34.7158 18.5731 32.1756 18.4555 29.8236 18.2438C30.9134 14.2218 33.5711 6.60914 38.5496 4.13168C40.831 2.99487 43.3477 3.03408 46.2485 4.26497C49.6987 5.80057 53.0069 7.63701 56.1348 9.75301C61.0898 12.889 65.8252 15.9075 73.383 16.6915C65.5194 21.3328 62.8146 23.2614 60.6272 24.9314V24.9Z" fill="#17262F"></path></g><defs><clipPath id="clip0_5678_33721"><rect width="91.0545" height="80" fill="white"></rect></clipPath></defs></svg>