<svg xmlns="http://www.w3.org/2000/svg" width="95" height="88" viewBox="0 0 95 88" fill="none"><g clip-path="url(#clip0_5678_33009)"><path d="M93.0282 39.6955C92.5793 39.6974 92.1435 39.544 91.7948 39.2612L48.6422 4.34305C48.3074 4.07742 47.8926 3.93284 47.4652 3.93284C47.0379 3.93284 46.6231 4.07742 46.2883 4.34305L3.20516 39.2612C2.79971 39.5895 2.28046 39.7433 1.76164 39.6887C1.24281 39.6341 0.766915 39.3757 0.438638 38.9702C0.110361 38.5648 -0.0434065 38.0455 0.0111637 37.5267C0.0657339 37.0079 0.324171 36.532 0.729622 36.2037L43.8388 1.28554C44.8768 0.45528 46.1664 0.00296021 47.4956 0.00296021C48.8249 0.00296021 50.1145 0.45528 51.1525 1.28554L94.2704 36.2037C94.4706 36.3662 94.6369 36.5666 94.7597 36.7934C94.8825 37.0201 94.9594 37.2689 94.986 37.5254C95.0126 37.7819 94.9884 38.0412 94.9148 38.2883C94.8412 38.5355 94.7196 38.7657 94.557 38.9659C94.3745 39.1959 94.142 39.3811 93.877 39.5076C93.6121 39.634 93.3218 39.6983 93.0282 39.6955Z" fill="#17262F"></path><path d="M90.1097 41.1288L48.7117 8.68613C48.3654 8.41636 47.939 8.26987 47.5 8.26987C47.061 8.26987 46.6346 8.41636 46.2883 8.68613L4.89028 41.1288C4.65467 41.3117 4.46408 41.5462 4.33309 41.8142C4.2021 42.0822 4.1342 42.3766 4.13458 42.6749V82.9611C4.13458 84.2765 4.65713 85.538 5.58727 86.4682C6.5174 87.3983 7.77894 87.9208 9.09435 87.9208H85.9056C87.221 87.9208 88.4826 87.3983 89.4127 86.4682C90.3428 85.538 90.8654 84.2765 90.8654 82.9611V42.6749C90.8658 42.3766 90.7979 42.0822 90.6669 41.8142C90.5359 41.5462 90.3453 41.3117 90.1097 41.1288ZM27.6653 83.986V51.6303C27.6653 51.3999 27.7568 51.179 27.9197 51.0161C28.0826 50.8532 28.3035 50.7617 28.5339 50.7617H66.4748C66.7052 50.7617 66.9261 50.8532 67.089 51.0161C67.2519 51.179 67.3434 51.3999 67.3434 51.6303V83.986H27.6653ZM86.9306 82.9611C86.9306 83.0957 86.9041 83.2289 86.8526 83.3533C86.8011 83.4777 86.7256 83.5906 86.6304 83.6858C86.5352 83.781 86.4222 83.8565 86.2979 83.908C86.1735 83.9595 86.0402 83.986 85.9056 83.986H71.2782V51.6303C71.2759 50.3578 70.7688 49.1383 69.8683 48.2393C68.9677 47.3404 67.7472 46.8355 66.4748 46.8355H28.5252C27.2527 46.8355 26.0323 47.3404 25.1317 48.2393C24.2312 49.1383 23.7241 50.3578 23.7218 51.6303V83.986H9.09435C8.95975 83.986 8.82647 83.9595 8.70212 83.908C8.57776 83.8565 8.46477 83.781 8.3696 83.6858C8.27442 83.5906 8.19892 83.4777 8.14741 83.3533C8.0959 83.2289 8.06939 83.0957 8.06939 82.9611V43.6304L47.4956 12.7339L86.9306 43.6304V82.9611Z" fill="#17262F"></path><path d="M61.5932 60.8028H32.3297C31.8305 60.7696 31.3626 60.5479 31.0208 60.1826C30.679 59.8173 30.4888 59.3357 30.4888 58.8354C30.4888 58.3351 30.679 57.8535 31.0208 57.4882C31.3626 57.1229 31.8305 56.9012 32.3297 56.868H61.5932C62.0924 56.9012 62.5603 57.1229 62.9022 57.4882C63.244 57.8535 63.4342 58.3351 63.4342 58.8354C63.4342 59.3357 63.244 59.8173 62.9022 60.1826C62.5603 60.5479 62.0924 60.7696 61.5932 60.8028Z" fill="#17262F"></path><path d="M61.5932 69.3499H32.3297C31.8068 69.3499 31.3053 69.1422 30.9355 68.7724C30.5657 68.4026 30.358 67.9011 30.358 67.3782C30.358 66.8552 30.5657 66.3537 30.9355 65.9839C31.3053 65.6142 31.8068 65.4064 32.3297 65.4064H61.5932C62.1162 65.4064 62.6177 65.6142 62.9875 65.9839C63.3572 66.3537 63.565 66.8552 63.565 67.3782C63.565 67.9011 63.3572 68.4026 62.9875 68.7724C62.6177 69.1422 62.1162 69.3499 61.5932 69.3499Z" fill="#17262F"></path><path d="M61.5932 77.871H32.3297C31.8305 77.8378 31.3626 77.6161 31.0208 77.2508C30.679 76.8855 30.4888 76.4039 30.4888 75.9036C30.4888 75.4033 30.679 74.9217 31.0208 74.5564C31.3626 74.1911 31.8305 73.9694 32.3297 73.9362H61.5932C62.0924 73.9694 62.5603 74.1911 62.9022 74.5564C63.244 74.9217 63.4342 75.4033 63.4342 75.9036C63.4342 76.4039 63.244 76.8855 62.9022 77.2508C62.5603 77.6161 62.0924 77.8378 61.5932 77.871Z" fill="#17262F"></path></g><defs><clipPath id="clip0_5678_33009"><rect width="95" height="87.9208" fill="white"></rect></clipPath></defs></svg>