<svg xmlns="http://www.w3.org/2000/svg" width="105" height="81" viewBox="0 0 105 81" fill="none"><g clip-path="url(#clip0_5678_33213)"><path d="M103.182 80.8044C102.837 80.8024 102.5 80.7028 102.209 80.5171C101.919 80.3315 101.687 80.0673 101.54 79.7552L65.2426 2.58705C65.0713 2.15691 65.0706 1.67763 65.2406 1.24698C65.4106 0.816333 65.7384 0.466762 66.1573 0.269575C66.5762 0.0723876 67.0546 0.0424421 67.4948 0.185847C67.935 0.329251 68.3039 0.635201 68.5263 1.04129L104.824 78.2175C105.026 78.652 105.048 79.1489 104.884 79.5993C104.72 80.0497 104.385 80.4169 103.951 80.6202C103.712 80.7388 103.449 80.8018 103.182 80.8044Z" fill="#17262F"></path><path d="M1.81007 80.8044C1.53298 80.8092 1.25865 80.7489 1.00915 80.6282C0.79426 80.5276 0.601348 80.3856 0.441486 80.2103C0.281625 80.035 0.157962 79.8298 0.0775938 79.6065C-0.00277409 79.3833 -0.0382645 79.1464 -0.0268406 78.9094C-0.0154168 78.6724 0.0426964 78.44 0.144164 78.2255L36.4657 1.04129C36.688 0.635201 37.057 0.329251 37.4972 0.185847C37.9374 0.0424421 38.4157 0.0723876 38.8346 0.269575C39.2535 0.466762 39.5814 0.816333 39.7514 1.24698C39.9214 1.67763 39.9207 2.15691 39.7494 2.58705L3.45995 79.7552C3.31268 80.0685 3.07938 80.3335 2.78726 80.5193C2.49515 80.705 2.15625 80.8039 1.81007 80.8044Z" fill="#17262F"></path><path d="M10.0995 80.8044C9.85743 80.8029 9.61797 80.754 9.39473 80.6603C9.17282 80.5668 8.9716 80.4303 8.80265 80.2587C8.63369 80.0871 8.50034 79.8838 8.41027 79.6605C8.3202 79.4372 8.27518 79.1983 8.27782 78.9575C8.28045 78.7167 8.33069 78.4788 8.42562 78.2575L40.8947 1.11335C40.9798 0.882919 41.1106 0.672108 41.2794 0.493647C41.4482 0.315185 41.6514 0.172775 41.8767 0.0750118C42.1021 -0.0227513 42.3449 -0.0738394 42.5905 -0.0751687C42.8361 -0.076498 43.0795 -0.0280408 43.3059 0.0672777C43.5322 0.162596 43.737 0.302799 43.9077 0.479423C44.0784 0.656047 44.2115 0.86543 44.299 1.09493C44.3866 1.32443 44.4267 1.56929 44.417 1.81473C44.4073 2.06017 44.3479 2.30109 44.2426 2.52296L11.7734 79.6912C11.6366 80.022 11.4043 80.3046 11.1062 80.5029C10.808 80.7012 10.4576 80.8061 10.0995 80.8044Z" fill="#17262F"></path><path d="M94.9004 80.8044C94.5424 80.8061 94.192 80.7011 93.8938 80.5029C93.5957 80.3046 93.3634 80.022 93.2265 79.6911L60.7574 2.52292C60.6247 2.30001 60.5411 2.05126 60.5125 1.7934C60.4838 1.53554 60.5107 1.27452 60.5913 1.02791C60.6719 0.781288 60.8043 0.554774 60.9797 0.363585C61.1551 0.172395 61.3694 0.02096 61.6082 -0.0805465C61.8469 -0.182053 62.1047 -0.231279 62.364 -0.224917C62.6234 -0.218555 62.8784 -0.156753 63.1119 -0.0436624C63.3454 0.0694281 63.552 0.231187 63.7178 0.430745C63.8836 0.630303 64.0048 0.863037 64.0732 1.11331L96.5343 78.2815C96.6315 78.5025 96.6834 78.7407 96.6872 78.9821C96.6909 79.2235 96.6463 79.4632 96.556 79.687C96.4657 79.9109 96.3315 80.1145 96.1614 80.2858C95.9912 80.457 95.7885 80.5925 95.5652 80.6842C95.3533 80.7664 95.1277 80.8072 94.9004 80.8044Z" fill="#17262F"></path><path d="M52.5 6.66361C52.0178 6.66361 51.5554 6.47207 51.2144 6.13111C50.8735 5.79016 50.6819 5.32772 50.6819 4.84554V1.81808C50.6654 1.56971 50.7001 1.3206 50.7838 1.08618C50.8675 0.851759 50.9984 0.637021 51.1685 0.455269C51.3385 0.273517 51.5441 0.128623 51.7725 0.029565C52.0008 -0.0694931 52.2471 -0.120605 52.496 -0.120605C52.7449 -0.120605 52.9912 -0.0694931 53.2195 0.029565C53.4479 0.128623 53.6535 0.273517 53.8235 0.455269C53.9936 0.637021 54.1245 0.851759 54.2082 1.08618C54.2919 1.3206 54.3266 1.56971 54.3101 1.81808V4.84554C54.3101 5.32634 54.1196 5.78756 53.7804 6.12829C53.4412 6.46901 52.9808 6.6615 52.5 6.66361Z" fill="#17262F"></path><path d="M52.5 15.0332C52.0178 15.0332 51.5554 14.8417 51.2144 14.5007C50.8735 14.1598 50.6819 13.6973 50.6819 13.2152V9.61104C50.6654 9.36268 50.7001 9.11357 50.7838 8.87915C50.8675 8.64473 50.9984 8.42999 51.1685 8.24824C51.3385 8.06649 51.5441 7.92159 51.7725 7.82253C52.0008 7.72348 52.2471 7.67236 52.496 7.67236C52.7449 7.67236 52.9912 7.72348 53.2195 7.82253C53.4479 7.92159 53.6535 8.06649 53.8235 8.24824C53.9936 8.42999 54.1245 8.64473 54.2082 8.87915C54.2919 9.11357 54.3266 9.36268 54.3101 9.61104V13.2152C54.3101 13.696 54.1196 14.1572 53.7804 14.4979C53.4412 14.8386 52.9808 15.0311 52.5 15.0332Z" fill="#17262F"></path><path d="M52.5 27.3273C52.0192 27.3273 51.558 27.1368 51.2172 26.7976C50.8765 26.4584 50.684 25.998 50.6819 25.5172V18.7094C50.6654 18.4611 50.7001 18.212 50.7838 17.9775C50.8675 17.7431 50.9984 17.5284 51.1685 17.3466C51.3385 17.1649 51.5441 17.02 51.7725 16.9209C52.0008 16.8219 52.2471 16.7708 52.496 16.7708C52.7449 16.7708 52.9912 16.8219 53.2195 16.9209C53.4479 17.02 53.6535 17.1649 53.8235 17.3466C53.9936 17.5284 54.1245 17.7431 54.2082 17.9775C54.2919 18.212 54.3266 18.4611 54.3101 18.7094V25.5172C54.3101 25.9973 54.1194 26.4577 53.7799 26.7971C53.4405 27.1366 52.9801 27.3273 52.5 27.3273Z" fill="#17262F"></path><path d="M52.5 46.4531C52.0178 46.4531 51.5554 46.2616 51.2144 45.9206C50.8735 45.5797 50.6819 45.1172 50.6819 44.635V31.9646C50.7125 31.5043 50.9169 31.0728 51.2538 30.7576C51.5906 30.4424 52.0347 30.2671 52.496 30.2671C52.9573 30.2671 53.4014 30.4424 53.7382 30.7576C54.075 31.0728 54.2795 31.5043 54.3101 31.9646V44.6671C54.3037 45.143 54.1103 45.5972 53.7715 45.9315C53.4327 46.2658 52.9759 46.4532 52.5 46.4531Z" fill="#17262F"></path><path d="M52.5 80.8044C52.0178 80.8044 51.5554 80.6129 51.2144 80.2719C50.8735 79.9309 50.6819 79.4685 50.6819 78.9863V52.5561C50.6654 52.3078 50.7001 52.0586 50.7838 51.8242C50.8675 51.5898 50.9984 51.3751 51.1685 51.1933C51.3385 51.0116 51.5441 50.8667 51.7725 50.7676C52.0008 50.6685 52.2471 50.6174 52.496 50.6174C52.7449 50.6174 52.9912 50.6685 53.2195 50.7676C53.4479 50.8667 53.6535 51.0116 53.8235 51.1933C53.9936 51.3751 54.1245 51.5898 54.2082 51.8242C54.2919 52.0586 54.3266 52.3078 54.3101 52.5561V78.9863C54.3101 79.4671 54.1196 79.9283 53.7804 80.2691C53.4412 80.6098 52.9808 80.8023 52.5 80.8044Z" fill="#17262F"></path></g><defs><clipPath id="clip0_5678_33213"><rect width="105" height="80.8043" fill="white"></rect></clipPath></defs></svg>