<svg xmlns="http://www.w3.org/2000/svg" width="137" height="110" viewBox="0 0 137 110" fill="none"><g clip-path="url(#clip0_5678_16245)"><path d="M28.1946 59.4889C28.0956 59.4853 28.0012 59.446 27.9289 59.3782C27.5747 59.0018 27.1873 58.6365 26.822 58.2712L20.7336 52.8027C19.8055 51.9313 19.0619 50.8823 18.5468 49.7181C18.0318 48.5538 17.7557 47.298 17.7351 46.0251C17.7144 44.7522 17.9496 43.488 18.4266 42.3077C18.9037 41.1274 19.6129 40.0549 20.5122 39.1537C21.4124 38.2548 22.484 37.5458 23.6634 37.0688C24.8428 36.5919 26.106 36.3568 27.3781 36.3775C28.6501 36.3981 29.905 36.6741 31.0683 37.1891C32.2316 37.704 33.2796 38.4474 34.1501 39.3751L43.7033 49.9578C44.6301 50.9863 45.4602 52.098 46.183 53.2787C46.209 53.3176 46.2269 53.3613 46.2355 53.4073C46.244 53.4533 46.2431 53.5006 46.2327 53.5462C46.2224 53.5918 46.2028 53.6348 46.1752 53.6726C46.1476 53.7103 46.1126 53.7421 46.0723 53.7658C45.9912 53.816 45.8937 53.8325 45.8007 53.8119C45.7076 53.7912 45.6263 53.7349 45.5741 53.6551C44.8744 52.5131 44.0702 51.4384 43.172 50.4449L33.6188 39.8511C32.8165 38.9923 31.8489 38.3045 30.7741 37.8289C29.6994 37.3533 28.5396 37.0999 27.3644 37.0837C25.5934 37.0565 23.8556 37.5657 22.3793 38.5443C20.903 39.523 19.7573 40.9253 19.0927 42.5671C18.4281 44.2088 18.2757 46.0133 18.6555 47.7433C19.0353 49.4733 19.9295 51.0479 21.2207 52.2603L27.2869 57.7952C27.6854 58.1494 28.0729 58.5184 28.4492 58.9022C28.4834 58.9352 28.5105 58.9748 28.5291 59.0185C28.5476 59.0622 28.5572 59.1093 28.5572 59.1568C28.5572 59.2043 28.5476 59.2513 28.5291 59.295C28.5105 59.3388 28.4834 59.3783 28.4492 59.4114C28.4141 59.4406 28.3735 59.4625 28.3297 59.4758C28.286 59.4891 28.2401 59.4936 28.1946 59.4889Z" fill="#17262F"></path><path d="M53.5222 68.8205H28.0618C27.975 68.8212 27.891 68.79 27.8258 68.7329C27.7605 68.6758 27.7184 68.5967 27.7076 68.5106C27.6154 67.9172 27.5673 67.3178 27.5637 66.7173C27.4348 64.8983 27.6818 63.0723 28.2893 61.3529C28.8969 59.6336 29.8519 58.0578 31.0949 56.7235C32.338 55.3893 33.8424 54.3253 35.5145 53.5978C37.1866 52.8703 38.9906 52.4949 40.8141 52.4949C42.6377 52.4949 44.4417 52.8703 46.1138 53.5978C47.7859 54.3253 49.2903 55.3893 50.5333 56.7235C51.7764 58.0578 52.7314 59.6336 53.3389 61.3529C53.9464 63.0723 54.1935 64.8983 54.0646 66.7173C54.0597 67.3173 54.0153 67.9164 53.9318 68.5106C53.9264 68.5583 53.9114 68.6045 53.8876 68.6462C53.8638 68.688 53.8318 68.7245 53.7935 68.7535C53.7552 68.7825 53.7114 68.8034 53.6647 68.8149C53.6181 68.8264 53.5696 68.8283 53.5222 68.8205ZM28.3164 68.101H53.2012C53.2558 67.6417 53.2854 67.1798 53.2897 66.7173C53.2897 63.3939 51.9695 60.2066 49.6195 57.8566C47.2695 55.5066 44.0822 54.1863 40.7588 54.1863C37.4354 54.1863 34.2481 55.5066 31.8981 57.8566C29.5481 60.2066 28.2278 63.3939 28.2278 66.7173C28.2322 67.1798 28.2618 67.6417 28.3164 68.101Z" fill="#17262F"></path><path d="M50.1348 67.5254C50.0513 67.5155 49.9737 67.477 49.9152 67.4165C49.8567 67.356 49.8209 67.2772 49.8138 67.1933C49.8138 64.8035 48.8645 62.5116 47.1746 60.8217C45.4848 59.1319 43.1929 58.1825 40.8031 58.1825C38.4133 58.1825 36.1213 59.1319 34.4315 60.8217C32.7416 62.5116 31.7923 64.8035 31.7923 67.1933C31.8015 67.2458 31.7992 67.2998 31.7854 67.3513C31.7715 67.4028 31.7466 67.4506 31.7123 67.4915C31.678 67.5324 31.6352 67.5652 31.5869 67.5877C31.5385 67.6103 31.4859 67.622 31.4325 67.622C31.3792 67.622 31.3265 67.6103 31.2782 67.5877C31.2298 67.5652 31.187 67.5324 31.1527 67.4915C31.1184 67.4506 31.0935 67.4028 31.0797 67.3513C31.0659 67.2998 31.0635 67.2458 31.0728 67.1933C31.1579 64.668 32.221 62.2746 34.0375 60.5183C35.854 58.762 38.2819 57.7803 40.8086 57.7803C43.3353 57.7803 45.7632 58.762 47.5797 60.5183C49.3962 62.2746 50.4593 64.668 50.5444 67.1933C50.5403 67.2424 50.5264 67.2901 50.5033 67.3337C50.4803 67.3772 50.4487 67.4157 50.4105 67.4467C50.3722 67.4777 50.3281 67.5007 50.2807 67.5142C50.2333 67.5277 50.1837 67.5315 50.1348 67.5254Z" fill="#17262F"></path><path d="M55.88 71.3888H25.6486C25.5536 71.3888 25.4623 71.3519 25.3941 71.2857C25.3259 71.2196 25.2862 71.1295 25.2833 71.0346V70.5032C25.2862 69.8689 25.5387 69.2613 25.9861 68.8117C26.4336 68.3622 27.0401 68.1069 27.6743 68.1011H53.8321C54.4692 68.1011 55.0802 68.3542 55.5307 68.8046C55.9812 69.2551 56.2343 69.8661 56.2343 70.5032V71.0346C56.2315 71.1276 56.1933 71.2161 56.1274 71.282C56.0616 71.3478 55.9731 71.386 55.88 71.3888ZM25.9917 70.6693H55.5147V70.5032C55.5147 70.2822 55.4712 70.0634 55.3867 69.8593C55.3021 69.6552 55.1782 69.4697 55.0219 69.3134C54.8657 69.1572 54.6802 69.0332 54.476 68.9487C54.2719 68.8641 54.0531 68.8206 53.8321 68.8206H27.6743C27.2281 68.8206 26.8001 68.9979 26.4846 69.3134C26.169 69.629 25.9917 70.057 25.9917 70.5032V70.6693Z" fill="#17262F"></path><path d="M58.7803 75.0862C58.7329 75.0877 58.6856 75.0796 58.6414 75.0625C58.5971 75.0453 58.5567 75.0195 58.5227 74.9864C58.4886 74.9534 58.4615 74.9138 58.443 74.8701C58.4245 74.8264 58.415 74.7794 58.415 74.7319V72.2745C58.415 72.0396 58.3217 71.8143 58.1556 71.6483C57.9896 71.4822 57.7643 71.3889 57.5294 71.3889C57.4769 71.3981 57.423 71.3958 57.3715 71.382C57.32 71.3681 57.2721 71.3432 57.2312 71.3089C57.1904 71.2746 57.1575 71.2318 57.135 71.1835C57.1125 71.1351 57.1008 71.0825 57.1008 71.0291C57.1008 70.9758 57.1125 70.9231 57.135 70.8748C57.1575 70.8264 57.1904 70.7836 57.2312 70.7493C57.2721 70.715 57.32 70.6901 57.3715 70.6763C57.423 70.6625 57.4769 70.6601 57.5294 70.6694C57.9551 70.6694 58.3634 70.8385 58.6644 71.1395C58.9654 71.4405 59.1345 71.8488 59.1345 72.2745V74.7319C59.1345 74.8259 59.0972 74.916 59.0308 74.9824C58.9644 75.0489 58.8743 75.0862 58.7803 75.0862Z" fill="#17262F"></path><path d="M22.7483 74.3665C22.6514 74.3665 22.5585 74.328 22.49 74.2595C22.4215 74.191 22.383 74.0981 22.383 74.0012V72.2743C22.3859 71.8476 22.5575 71.4393 22.8603 71.1386C23.1631 70.8379 23.5725 70.6692 23.9992 70.6692C24.0838 70.6841 24.1604 70.7283 24.2157 70.7941C24.2709 70.8599 24.3011 70.9431 24.3011 71.029C24.3011 71.1149 24.2709 71.198 24.2157 71.2638C24.1604 71.3296 24.0838 71.3738 23.9992 71.3887C23.882 71.3873 23.7656 71.4091 23.6569 71.4529C23.5482 71.4968 23.4492 71.5618 23.3658 71.6442C23.2824 71.7265 23.2162 71.8247 23.171 71.9328C23.1258 72.041 23.1025 72.1571 23.1025 72.2743V74.0012C23.104 74.0486 23.096 74.0959 23.0788 74.1401C23.0617 74.1844 23.0358 74.2248 23.0028 74.2588C22.9697 74.2929 22.9302 74.32 22.8865 74.3385C22.8428 74.357 22.7958 74.3665 22.7483 74.3665Z" fill="#17262F"></path><path d="M116.166 63.7063H110.188C110.141 63.7078 110.093 63.6998 110.049 63.6826C110.005 63.6655 109.965 63.6396 109.931 63.6066C109.896 63.5736 109.869 63.534 109.851 63.4903C109.832 63.4466 109.823 63.3996 109.823 63.3521C109.823 63.2552 109.861 63.1623 109.93 63.0938C109.998 63.0253 110.091 62.9868 110.188 62.9868H116.166C116.213 62.9868 116.26 62.9963 116.304 63.0148C116.348 63.0333 116.387 63.0604 116.42 63.0945C116.453 63.1285 116.479 63.1689 116.496 63.2132C116.513 63.2574 116.522 63.3047 116.52 63.3521C116.52 63.4461 116.483 63.5362 116.416 63.6026C116.35 63.669 116.26 63.7063 116.166 63.7063Z" fill="#17262F"></path><path d="M116.166 59.7766H110.188C110.091 59.7766 109.998 59.7381 109.93 59.6696C109.861 59.6011 109.823 59.5082 109.823 59.4113C109.823 59.3638 109.832 59.3168 109.851 59.2731C109.869 59.2294 109.896 59.1899 109.931 59.1568C109.965 59.1238 110.005 59.0979 110.049 59.0808C110.093 59.0636 110.141 59.0556 110.188 59.0571H116.166C116.26 59.0571 116.35 59.0944 116.416 59.1608C116.483 59.2272 116.52 59.3173 116.52 59.4113C116.522 59.4587 116.513 59.506 116.496 59.5503C116.479 59.5945 116.453 59.6349 116.42 59.669C116.387 59.703 116.348 59.7301 116.304 59.7486C116.26 59.7671 116.213 59.7766 116.166 59.7766Z" fill="#17262F"></path><path d="M108.672 65.9758H93.0965C93.0491 65.9773 93.0018 65.9692 92.9575 65.9521C92.9133 65.9349 92.8729 65.9091 92.8388 65.876C92.8048 65.843 92.7777 65.8034 92.7592 65.7597C92.7407 65.716 92.7312 65.669 92.7312 65.6216C92.7445 65.5346 92.7888 65.4553 92.856 65.3983C92.9231 65.3414 93.0085 65.3106 93.0965 65.3116H108.306V57.5628H94.7791C94.7316 57.5628 94.6847 57.5533 94.6409 57.5348C94.5972 57.5163 94.5577 57.4892 94.5246 57.4552C94.4916 57.4211 94.4657 57.3807 94.4486 57.3365C94.4315 57.2922 94.4234 57.2449 94.4249 57.1975C94.4249 57.1035 94.4622 57.0134 94.5286 56.947C94.5951 56.8806 94.6852 56.8433 94.7791 56.8433H108.672C108.766 56.8433 108.856 56.8806 108.922 56.947C108.989 57.0134 109.026 57.1035 109.026 57.1975V65.6991C109.008 65.779 108.963 65.8503 108.898 65.9008C108.834 65.9513 108.754 65.9778 108.672 65.9758Z" fill="#17262F"></path><path d="M85.6466 68.2893C83.8931 68.2915 82.2059 67.6192 80.9344 66.4116C79.6629 65.204 78.9046 63.5537 78.8165 61.8024L76.5251 16.981C76.5221 16.9345 76.5283 16.8878 76.5434 16.8437C76.5585 16.7996 76.5821 16.7589 76.613 16.7239C76.6438 16.6889 76.6813 16.6604 76.7232 16.6399C76.7651 16.6195 76.8106 16.6075 76.8572 16.6047C76.9044 16.5983 76.9524 16.6022 76.9979 16.616C77.0435 16.6298 77.0855 16.6533 77.1212 16.6848C77.1569 16.7163 77.1854 16.7551 77.2048 16.7985C77.2242 16.842 77.234 16.8892 77.2336 16.9368L79.5361 61.7692C79.6935 63.2743 80.4028 64.6677 81.5271 65.6806C82.6515 66.6935 84.1111 67.254 85.6244 67.254C87.1377 67.254 88.5974 66.6935 89.7217 65.6806C90.8461 64.6677 91.5554 63.2743 91.7128 61.7692L94.3695 9.74143C94.409 8.00524 93.9325 6.29636 93.0005 4.83101C92.0685 3.36565 90.7228 2.20967 89.1337 1.5093C87.5445 0.808939 85.7833 0.595672 84.0729 0.896484C82.3626 1.1973 80.7798 1.99867 79.525 3.19921C79.4916 3.23192 79.452 3.25772 79.4086 3.27515C79.3652 3.29257 79.3188 3.30127 79.272 3.30076C79.2253 3.30025 79.179 3.29052 79.136 3.27215C79.093 3.25378 79.054 3.22711 79.0213 3.19368C78.9886 3.16024 78.9628 3.12069 78.9454 3.07729C78.928 3.03388 78.9193 2.98747 78.9198 2.94069C78.9203 2.89392 78.93 2.84771 78.9484 2.8047C78.9668 2.76169 78.9934 2.72271 79.0269 2.69C80.3827 1.36704 82.1035 0.480275 83.9678 0.143916C85.832 -0.192443 87.7542 0.0370103 89.4869 0.802723C91.2196 1.56844 92.6834 2.83534 93.6897 4.44027C94.696 6.0452 95.1988 7.91465 95.1333 9.80785L92.4766 61.8356C92.3803 63.581 91.6184 65.2231 90.3478 66.4237C89.0772 67.6242 87.3946 68.2919 85.6466 68.2893Z" fill="#17262F"></path><path d="M85.6466 66.0975C84.7283 66.0997 83.83 65.8292 83.0656 65.3204C82.3011 64.8116 81.7049 64.0873 81.3525 63.2393C81.0001 62.3914 80.9073 61.4579 81.0859 60.5571C81.2645 59.6564 81.7065 58.8289 82.3558 58.1796C83.0051 57.5302 83.8326 57.0882 84.7334 56.9096C85.6341 56.731 86.5676 56.8238 87.4156 57.1762C88.2636 57.5287 88.9878 58.1249 89.4967 58.8893C90.0055 59.6538 90.2759 60.552 90.2737 61.4703C90.2708 62.6966 89.7824 63.8719 88.9152 64.739C88.0481 65.6061 86.8729 66.0946 85.6466 66.0975ZM85.6466 57.5516C84.8711 57.5494 84.1123 57.7774 83.4665 58.2067C82.8206 58.6359 82.3166 59.2472 82.0183 59.963C81.72 60.6789 81.6408 61.4671 81.7908 62.228C81.9407 62.9889 82.3131 63.6882 82.8607 64.2373C83.4083 64.7865 84.1065 65.1608 84.8669 65.3129C85.6274 65.465 86.4159 65.388 87.1326 65.0918C87.8492 64.7955 88.4619 64.2932 88.893 63.6486C89.3241 63.0039 89.5542 62.2458 89.5542 61.4703C89.5484 60.4358 89.1348 59.4452 88.4033 58.7136C87.6717 57.9821 86.6812 57.5685 85.6466 57.5627V57.5516Z" fill="#17262F"></path><path d="M85.6466 63.308C85.2634 63.308 84.8889 63.1944 84.5703 62.9815C84.2518 62.7687 84.0035 62.4661 83.8568 62.1121C83.7102 61.7582 83.6719 61.3686 83.7466 60.9929C83.8214 60.6171 84.0059 60.2719 84.2768 60.001C84.5477 59.7301 84.8929 59.5456 85.2687 59.4708C85.6444 59.3961 86.0339 59.4344 86.3879 59.5811C86.7419 59.7277 87.0445 59.976 87.2573 60.2945C87.4702 60.6131 87.5838 60.9877 87.5838 61.3708C87.5838 61.6252 87.5337 61.8771 87.4363 62.1121C87.339 62.3472 87.1963 62.5607 87.0164 62.7406C86.8365 62.9205 86.623 63.0632 86.3879 63.1605C86.1529 63.2579 85.901 63.308 85.6466 63.308ZM85.6466 60.1531C85.4058 60.1531 85.1703 60.2245 84.9701 60.3583C84.7698 60.4921 84.6138 60.6823 84.5216 60.9048C84.4294 61.1273 84.4053 61.3721 84.4523 61.6084C84.4993 61.8446 84.6153 62.0615 84.7856 62.2318C84.9559 62.4021 85.1728 62.5181 85.409 62.5651C85.6452 62.6121 85.8901 62.5879 86.1126 62.4958C86.3351 62.4036 86.5252 62.2475 86.659 62.0473C86.7928 61.8471 86.8643 61.6116 86.8643 61.3708C86.8643 61.0479 86.736 60.7381 86.5076 60.5098C86.2793 60.2814 85.9695 60.1531 85.6466 60.1531Z" fill="#17262F"></path><path d="M95.6204 99.6942H13.7043C13.6569 99.6957 13.6096 99.6876 13.5654 99.6705C13.5211 99.6534 13.4807 99.6275 13.4467 99.5945C13.4126 99.5614 13.3855 99.5219 13.367 99.4781C13.3485 99.4344 13.339 99.3874 13.339 99.34V81.4402C13.3437 80.0441 13.8508 78.6964 14.7675 77.6435C15.6842 76.5906 16.9494 75.9029 18.3315 75.7061L44.6443 72.0088C45.4862 71.8861 46.345 71.9542 47.1571 72.208L91.8788 86.0009C93.0639 86.3624 94.101 87.0958 94.8367 88.0927C95.5724 89.0896 95.9675 90.2969 95.9636 91.5358V99.2846C95.9715 99.3346 95.9686 99.3858 95.9551 99.4346C95.9416 99.4834 95.9177 99.5287 95.8852 99.5675C95.8527 99.6063 95.8122 99.6377 95.7665 99.6596C95.7209 99.6814 95.671 99.6932 95.6204 99.6942ZM14.0475 98.9747H95.2662V91.5358C95.2705 90.4507 94.925 89.393 94.281 88.5197C93.637 87.6463 92.7286 87.0038 91.6906 86.6873L46.9357 72.8944C46.2197 72.6735 45.4638 72.613 44.7217 72.7173L18.42 76.3813C17.2 76.5442 16.0799 77.1425 15.2662 78.0661C14.4525 78.9896 14 80.1761 13.9921 81.407L14.0475 98.9747Z" fill="#17262F"></path><path d="M34.6372 93.9048H21.741C21.591 93.9123 21.4411 93.8892 21.3003 93.8369C21.1596 93.7847 21.0309 93.7043 20.9222 93.6008C20.8135 93.4972 20.7269 93.3726 20.6679 93.2346C20.6088 93.0966 20.5785 92.9479 20.5786 92.7978V88.0378C20.5785 87.8877 20.6088 87.739 20.6679 87.601C20.7269 87.463 20.8135 87.3384 20.9222 87.2348C21.0309 87.1313 21.1596 87.0509 21.3003 86.9987C21.4411 86.9464 21.591 86.9233 21.741 86.9308H34.6372C34.7872 86.9233 34.9371 86.9464 35.0779 86.9987C35.2186 87.0509 35.3473 87.1313 35.456 87.2348C35.5647 87.3384 35.6512 87.463 35.7103 87.601C35.7694 87.739 35.7997 87.8877 35.7995 88.0378V92.7424C35.8075 92.8972 35.7829 93.0519 35.7273 93.1965C35.6717 93.3411 35.5863 93.4724 35.4768 93.582C35.3672 93.6916 35.2359 93.7769 35.0913 93.8325C34.9466 93.8881 34.792 93.9127 34.6372 93.9048ZM21.741 87.595C21.6235 87.595 21.5109 87.6417 21.4279 87.7247C21.3448 87.8077 21.2982 87.9204 21.2982 88.0378V92.7424C21.2982 92.8599 21.3448 92.9725 21.4279 93.0555C21.5109 93.1386 21.6235 93.1852 21.741 93.1852H34.6372C34.7547 93.1852 34.8673 93.1386 34.9503 93.0555C35.0334 92.9725 35.08 92.8599 35.08 92.7424V88.0378C35.08 87.9204 35.0334 87.8077 34.9503 87.7247C34.8673 87.6417 34.7547 87.595 34.6372 87.595H21.741Z" fill="#17262F"></path><path d="M89.3881 95.7976C88.7734 95.7954 88.1731 95.6111 87.663 95.268C87.1529 94.9249 86.756 94.4383 86.5222 93.8697C86.2885 93.3011 86.2285 92.6761 86.3497 92.0734C86.471 91.4707 86.7681 90.9175 87.2036 90.4836C87.6391 90.0497 88.1933 89.7545 88.7964 89.6354C89.3995 89.5163 90.0244 89.5785 90.5921 89.8143C91.1599 90.05 91.645 90.4487 91.9863 90.96C92.3276 91.4713 92.5098 92.0723 92.5098 92.687C92.5098 93.0964 92.429 93.5018 92.272 93.8799C92.115 94.258 91.8848 94.6014 91.5948 94.8904C91.3048 95.1794 90.9606 95.4083 90.5819 95.564C90.2032 95.7197 89.7976 95.799 89.3881 95.7976ZM89.3881 90.2627C88.9157 90.2649 88.4545 90.407 88.0628 90.6711C87.671 90.9351 87.3663 91.3093 87.187 91.7464C87.0077 92.1835 86.9619 92.6639 87.0554 93.127C87.1489 93.5901 87.3775 94.0151 87.7124 94.3484C88.0472 94.6817 88.4733 94.9083 88.9368 94.9997C89.4003 95.091 89.8805 95.0431 90.3168 94.8618C90.753 94.6805 91.1258 94.374 91.3881 93.981C91.6503 93.5881 91.7903 93.1262 91.7903 92.6538C91.7815 92.0235 91.5242 91.4221 91.0744 90.9806C90.6245 90.539 90.0185 90.293 89.3881 90.2959V90.2627Z" fill="#17262F"></path><path d="M102.439 103.712H6.8743C6.82684 103.712 6.77985 103.703 6.73614 103.684C6.69242 103.666 6.65287 103.639 6.61983 103.605C6.58678 103.571 6.56093 103.53 6.54379 103.486C6.52665 103.442 6.51859 103.395 6.52007 103.347V99.3399C6.51859 99.2925 6.52665 99.2452 6.54379 99.2009C6.56093 99.1567 6.58678 99.1163 6.61983 99.0822C6.65287 99.0482 6.69242 99.0211 6.73614 99.0026C6.77985 98.9841 6.82684 98.9746 6.8743 98.9746H11.7561C11.8035 98.9746 11.8505 98.9841 11.8942 99.0026C11.9379 99.0211 11.9775 99.0482 12.0105 99.0822C12.0436 99.1163 12.0694 99.1567 12.0866 99.2009C12.1037 99.2452 12.1118 99.2925 12.1103 99.3399C12.1103 99.4339 12.073 99.524 12.0065 99.5904C11.9401 99.6568 11.85 99.6941 11.7561 99.6941H7.2396V103.015H102.074V99.6941H97.5576C97.4637 99.6941 97.3736 99.6568 97.3071 99.5904C97.2407 99.524 97.2034 99.4339 97.2034 99.3399C97.2019 99.2925 97.21 99.2452 97.2271 99.2009C97.2442 99.1567 97.2701 99.1163 97.3031 99.0822C97.3362 99.0482 97.3757 99.0211 97.4194 99.0026C97.4632 98.9841 97.5101 98.9746 97.5576 98.9746H102.439C102.487 98.9746 102.534 98.9841 102.578 99.0026C102.621 99.0211 102.661 99.0482 102.694 99.0822C102.727 99.1163 102.753 99.1567 102.77 99.2009C102.787 99.2452 102.795 99.2925 102.794 99.3399V103.347C102.795 103.395 102.787 103.442 102.77 103.486C102.753 103.53 102.727 103.571 102.694 103.605C102.661 103.639 102.621 103.666 102.578 103.684C102.534 103.703 102.487 103.712 102.439 103.712Z" fill="#17262F"></path><path d="M102.439 110H6.8743C6.82274 110.001 6.77166 109.99 6.72463 109.969C6.6776 109.948 6.63575 109.916 6.60202 109.877C6.56829 109.838 6.54348 109.793 6.52932 109.743C6.51517 109.693 6.51201 109.641 6.52007 109.59V107.177C6.52007 107.083 6.55739 106.993 6.62382 106.927C6.69026 106.86 6.78036 106.823 6.8743 106.823C6.92174 106.821 6.969 106.83 7.01326 106.847C7.05753 106.864 7.0979 106.89 7.13197 106.923C7.16604 106.956 7.19313 106.995 7.21162 107.039C7.23011 107.083 7.23963 107.13 7.2396 107.177V109.28H102.074V107.177C102.074 107.13 102.084 107.083 102.102 107.039C102.121 106.995 102.148 106.956 102.182 106.923C102.216 106.89 102.256 106.864 102.3 106.847C102.345 106.83 102.392 106.821 102.439 106.823C102.533 106.823 102.623 106.86 102.69 106.927C102.756 106.993 102.794 107.083 102.794 107.177V109.59C102.802 109.641 102.799 109.693 102.784 109.743C102.77 109.793 102.745 109.838 102.712 109.877C102.678 109.916 102.636 109.948 102.589 109.969C102.542 109.99 102.491 110.001 102.439 110Z" fill="#17262F"></path><path d="M108.959 105.982H0.365299C0.317857 105.983 0.270602 105.975 0.226338 105.958C0.182075 105.941 0.141707 105.915 0.107632 105.882C0.0735573 105.849 0.0464704 105.809 0.0279804 105.766C0.00949036 105.722 -2.5671e-05 105.675 -2.48896e-06 105.627V103.347C-0.00647333 103.296 -0.00174762 103.244 0.013846 103.195C0.0294396 103.146 0.0555267 103.101 0.0902931 103.063C0.125059 103.025 0.167671 102.995 0.215163 102.975C0.262655 102.956 0.313888 102.946 0.365299 102.949H4.9371C5.03105 102.949 5.12115 102.986 5.18758 103.052C5.25401 103.119 5.29133 103.209 5.29133 103.303C5.29282 103.35 5.28475 103.397 5.26761 103.442C5.25048 103.486 5.22462 103.526 5.19158 103.56C5.15853 103.594 5.11898 103.622 5.07527 103.64C5.03155 103.659 4.98457 103.668 4.9371 103.668H0.719531V105.218H108.594V103.668H104.377C104.329 103.668 104.282 103.659 104.238 103.64C104.195 103.622 104.155 103.594 104.122 103.56C104.089 103.526 104.063 103.486 104.046 103.442C104.029 103.397 104.021 103.35 104.022 103.303C104.022 103.209 104.06 103.119 104.126 103.052C104.193 102.986 104.283 102.949 104.377 102.949H108.959C109.053 102.949 109.143 102.986 109.21 103.052C109.276 103.119 109.314 103.209 109.314 103.303V105.583C109.32 105.633 109.316 105.684 109.301 105.732C109.286 105.781 109.261 105.825 109.227 105.863C109.193 105.9 109.152 105.931 109.106 105.951C109.06 105.972 109.01 105.982 108.959 105.982Z" fill="#17262F"></path><path d="M40.958 45.0981C40.9129 45.0983 40.8681 45.0896 40.8263 45.0725C40.7845 45.0554 40.7465 45.0303 40.7145 44.9985C40.6482 44.9303 40.6111 44.8389 40.6111 44.7439C40.6111 44.6488 40.6482 44.5574 40.7145 44.4893L65.7653 16.6821C65.7943 16.6377 65.8326 16.6001 65.8775 16.572C65.9225 16.5439 65.973 16.5259 66.0256 16.5192C66.0782 16.5126 66.1316 16.5175 66.1821 16.5336C66.2326 16.5497 66.279 16.5766 66.3181 16.6124C66.3572 16.6482 66.388 16.6921 66.4084 16.741C66.4288 16.79 66.4383 16.8427 66.4363 16.8957C66.4343 16.9487 66.4207 17.0006 66.3966 17.0478C66.3725 17.095 66.3384 17.1364 66.2967 17.1691L41.2016 44.9763C41.1384 45.0459 41.0516 45.0893 40.958 45.0981Z" fill="#17262F"></path><path d="M26.1578 35.3569C26.1074 35.3567 26.0576 35.3457 26.0118 35.3247C25.966 35.3037 25.9252 35.2732 25.8921 35.2351C25.8258 35.1669 25.7888 35.0756 25.7888 34.9805C25.7888 34.8854 25.8258 34.7941 25.8921 34.7259L56.832 6.81911C56.9045 6.77182 56.9915 6.75181 57.0773 6.76264C57.1632 6.77346 57.2424 6.81442 57.3009 6.87822C57.3594 6.94203 57.3933 7.02452 57.3967 7.111C57.4 7.19749 57.3725 7.28235 57.3191 7.35046L26.4013 35.2573C26.3693 35.2891 26.3313 35.3143 26.2895 35.3314C26.2477 35.3484 26.2029 35.3571 26.1578 35.3569Z" fill="#17262F"></path><path d="M27.3423 51.884C26.0233 51.8848 24.7448 51.4283 23.7247 50.5921C22.7046 49.756 22.006 48.592 21.748 47.2985C21.4899 46.005 21.6883 44.6621 22.3095 43.4985C22.9306 42.3349 23.936 41.4227 25.1543 40.9173C26.3726 40.4119 27.7284 40.3446 28.9908 40.7268C30.2532 41.1091 31.344 41.9172 32.0773 43.0135C32.8106 44.1099 33.1411 45.4266 33.0124 46.7393C32.8838 48.0519 32.3039 49.2794 31.3716 50.2125C30.8445 50.7444 30.2167 51.1662 29.5249 51.4532C28.8331 51.7401 28.0912 51.8866 27.3423 51.884ZM27.3423 41.2239C26.3584 41.2207 25.3959 41.5102 24.5771 42.0556C23.7583 42.601 23.1202 43.3777 22.744 44.2867C22.3678 45.1958 22.2704 46.1962 22.4644 47.1607C22.6583 48.1252 23.1348 49.0103 23.8331 49.7033C24.4108 50.2827 25.1225 50.7105 25.9052 50.9489C26.6878 51.1872 27.5173 51.2287 28.3198 51.0696C29.1223 50.9104 29.8732 50.5557 30.5057 50.0367C31.1382 49.5178 31.6328 48.8507 31.9457 48.0947C32.2585 47.3388 32.3799 46.5172 32.2991 45.7031C32.2183 44.8889 31.9377 44.1073 31.4823 43.4276C31.0269 42.7479 30.4108 42.1911 29.6886 41.8067C28.9664 41.4223 28.1604 41.2221 27.3423 41.2239Z" fill="#17262F"></path><path d="M27.3423 48.7069C26.8385 48.7063 26.3462 48.5563 25.9277 48.2758C25.5092 47.9953 25.1833 47.597 24.9913 47.1312C24.7993 46.6654 24.7498 46.1531 24.8491 45.6592C24.9484 45.1653 25.1919 44.7119 25.549 44.3565C25.7846 44.1192 26.0648 43.9309 26.3735 43.8024C26.6823 43.6738 27.0134 43.6077 27.3478 43.6077C27.6822 43.6077 28.0133 43.6738 28.322 43.8024C28.6308 43.9309 28.911 44.1192 29.1466 44.3565C29.499 44.7146 29.738 45.1686 29.8339 45.6618C29.9298 46.155 29.8783 46.6655 29.6858 47.1295C29.4933 47.5936 29.1684 47.9907 28.7516 48.2712C28.3348 48.5518 27.8446 48.7033 27.3423 48.7069ZM26.0582 44.8657C25.8853 45.034 25.7481 45.2355 25.6549 45.458C25.5617 45.6805 25.5144 45.9196 25.5157 46.1609C25.5146 46.4005 25.5621 46.6378 25.6553 46.8585C25.7486 47.0792 25.8856 47.2787 26.0582 47.445C26.4033 47.781 26.866 47.9691 27.3478 47.9691C27.8295 47.9691 28.2923 47.781 28.6374 47.445C28.808 47.2772 28.9437 47.0774 29.0368 46.857C29.1299 46.6367 29.1785 46.4001 29.1798 46.1609C29.1761 45.8009 29.0667 45.45 28.8652 45.1516C28.6637 44.8533 28.3791 44.6207 28.0465 44.4828C27.714 44.3448 27.3483 44.3076 26.9949 44.3757C26.6414 44.4437 26.3157 44.6141 26.0582 44.8657Z" fill="#17262F"></path><path d="M85.6909 15.6526H63.4185C61.9283 15.5874 60.5208 14.9495 59.4893 13.8719C58.4579 12.7944 57.8822 11.3603 57.8822 9.86866C57.8822 8.37701 58.4579 6.94292 59.4893 5.86536C60.5208 4.7878 61.9283 4.14993 63.4185 4.08472H85.6909C87.1811 4.14993 88.5886 4.7878 89.6201 5.86536C90.6515 6.94292 91.2272 8.37701 91.2272 9.86866C91.2272 11.3603 90.6515 12.7944 89.6201 13.8719C88.5886 14.9495 87.1811 15.5874 85.6909 15.6526ZM63.4185 4.80425C62.1163 4.86515 60.8876 5.42531 59.9876 6.3684C59.0876 7.31149 58.5854 8.56503 58.5854 9.86866C58.5854 11.1723 59.0876 12.4258 59.9876 13.3689C60.8876 14.312 62.1163 14.8722 63.4185 14.9331H85.6909C86.9931 14.8722 88.2218 14.312 89.1218 13.3689C90.0218 12.4258 90.5239 11.1723 90.5239 9.86866C90.5239 8.56503 90.0218 7.31149 89.1218 6.3684C88.2218 5.42531 86.9931 4.86515 85.6909 4.80425H63.4185Z" fill="#17262F"></path><path d="M63.6731 13.9812C62.8578 13.9834 62.0601 13.7435 61.3812 13.2919C60.7023 12.8402 60.1728 12.1972 59.8597 11.4443C59.5467 10.6914 59.4642 9.86248 59.6227 9.06265C59.7813 8.26281 60.1737 7.52805 60.7503 6.95148C61.3268 6.37491 62.0616 5.98249 62.8614 5.82395C63.6613 5.66541 64.4902 5.74789 65.2431 6.06094C65.996 6.37399 66.639 6.90351 67.0906 7.5824C67.5423 8.26128 67.7822 9.05897 67.78 9.87436C67.7771 10.9627 67.3435 12.0056 66.5739 12.7751C65.8044 13.5447 64.7615 13.9783 63.6731 13.9812ZM63.6731 6.47595C63.0005 6.47376 62.3424 6.67121 61.7821 7.0433C61.2218 7.41539 60.7845 7.94538 60.5255 8.56616C60.2666 9.18694 60.1977 9.87059 60.3276 10.5305C60.4575 11.1905 60.7803 11.7971 61.2551 12.2735C61.7299 12.7498 62.3355 13.0746 62.995 13.2066C63.6545 13.3387 64.3384 13.272 64.96 13.0151C65.5816 12.7582 66.1131 12.3227 66.487 11.7636C66.8609 11.2045 67.0605 10.547 67.0605 9.87436C67.0576 8.97585 66.7001 8.11481 66.0658 7.47843C65.4315 6.84205 64.5716 6.48178 63.6731 6.47595Z" fill="#17262F"></path><path d="M63.6731 11.413C63.3662 11.413 63.0661 11.3218 62.811 11.151C62.5559 10.9802 62.3573 10.7376 62.2403 10.4537C62.1233 10.1699 62.0933 9.85773 62.154 9.5568C62.2147 9.25588 62.3634 8.97976 62.5813 8.76347C62.7991 8.54718 63.0763 8.40046 63.3776 8.34192C63.679 8.28338 63.9909 8.31565 64.2739 8.43465C64.5569 8.55364 64.7982 8.754 64.9671 9.01031C65.1361 9.26662 65.2251 9.56733 65.2229 9.87431C65.2229 10.0773 65.1827 10.2783 65.1047 10.4657C65.0267 10.6531 64.9124 10.8232 64.7683 10.9663C64.6243 11.1093 64.4533 11.2224 64.2654 11.2991C64.0774 11.3757 63.8761 11.4145 63.6731 11.413ZM63.6731 9.04408C63.5089 9.04408 63.3484 9.09277 63.2119 9.184C63.0754 9.27523 62.9689 9.40489 62.9061 9.55659C62.8433 9.7083 62.8268 9.87523 62.8589 10.0363C62.8909 10.1973 62.97 10.3453 63.0861 10.4614C63.2022 10.5775 63.3501 10.6566 63.5112 10.6886C63.6722 10.7206 63.8391 10.7042 63.9909 10.6413C64.1426 10.5785 64.2722 10.4721 64.3634 10.3356C64.4547 10.199 64.5034 10.0385 64.5034 9.87431C64.5049 9.76487 64.4844 9.65624 64.4432 9.55484C64.402 9.45344 64.3409 9.36132 64.2635 9.28393C64.1861 9.20654 64.094 9.14544 63.9926 9.10424C63.8912 9.06305 63.7826 9.04259 63.6731 9.04408Z" fill="#17262F"></path><path d="M85.4362 13.9812C84.6213 13.9812 83.8247 13.7395 83.1473 13.2865C82.4699 12.8335 81.9421 12.1897 81.6307 11.4366C81.3194 10.6835 81.2385 9.85496 81.3983 9.05586C81.558 8.25675 81.9513 7.52303 82.5284 6.94756C83.1054 6.3721 83.8401 5.98078 84.6397 5.82314C85.4392 5.6655 86.2675 5.74863 87.0198 6.06201C87.7721 6.37538 88.4144 6.90491 88.8656 7.58356C89.3167 8.26221 89.5564 9.05946 89.5542 9.87438C89.5513 10.9646 89.1161 12.0092 88.3442 12.779C87.5722 13.5489 86.5265 13.9813 85.4362 13.9812ZM85.4362 6.47597C84.7641 6.47597 84.1071 6.67528 83.5482 7.0487C82.9893 7.42212 82.5537 7.95288 82.2965 8.57386C82.0393 9.19484 81.972 9.87815 82.1031 10.5374C82.2343 11.1966 82.5579 11.8021 83.0332 12.2774C83.5085 12.7527 84.114 13.0764 84.7732 13.2075C85.4325 13.3386 86.1158 13.2713 86.7368 13.0141C87.3577 12.7569 87.8885 12.3213 88.2619 11.7624C88.6353 11.2036 88.8347 10.5465 88.8347 9.87438C88.8347 8.97306 88.4766 8.10866 87.8393 7.47134C87.202 6.83401 86.3376 6.47597 85.4362 6.47597Z" fill="#17262F"></path><path d="M85.4363 11.413C85.1293 11.413 84.8292 11.3218 84.5741 11.151C84.319 10.9802 84.1204 10.7376 84.0034 10.4537C83.8865 10.1699 83.8564 9.85773 83.9171 9.5568C83.9778 9.25588 84.1265 8.97976 84.3444 8.76347C84.5622 8.54718 84.8394 8.40046 85.1408 8.34192C85.4421 8.28338 85.7541 8.31565 86.037 8.43465C86.32 8.55364 86.5613 8.754 86.7302 9.01031C86.8992 9.26662 86.9882 9.56733 86.986 9.87431C86.9831 10.2834 86.8185 10.6748 86.5282 10.963C86.2379 11.2513 85.8454 11.413 85.4363 11.413ZM85.4363 9.04408C85.2721 9.04408 85.1115 9.09277 84.975 9.184C84.8385 9.27523 84.7321 9.40489 84.6692 9.55659C84.6064 9.7083 84.5899 9.87523 84.622 10.0363C84.654 10.1973 84.7331 10.3453 84.8492 10.4614C84.9653 10.5775 85.1132 10.6566 85.2743 10.6886C85.4353 10.7206 85.6023 10.7042 85.754 10.6413C85.9057 10.5785 86.0353 10.4721 86.1266 10.3356C86.2178 10.199 86.2665 10.0385 86.2665 9.87431C86.268 9.76487 86.2475 9.65624 86.2063 9.55484C86.1651 9.45344 86.104 9.36132 86.0266 9.28393C85.9492 9.20654 85.8571 9.14544 85.7557 9.10424C85.6543 9.06305 85.5457 9.04259 85.4363 9.04408Z" fill="#17262F"></path><path d="M78.6726 13.9812H70.4367C70.1981 13.9873 69.9608 13.9448 69.7391 13.8563C69.5174 13.7678 69.3161 13.6351 69.1473 13.4663C68.9785 13.2975 68.8459 13.0962 68.7573 12.8745C68.6688 12.6528 68.6263 12.4155 68.6324 12.1769V7.51651C68.6323 7.28159 68.6793 7.04904 68.7705 6.83256C68.8617 6.61608 68.9953 6.42005 69.1634 6.25601C69.3316 6.09198 69.5309 5.96327 69.7496 5.87747C69.9683 5.79167 70.2019 5.75051 70.4367 5.75642H78.6726C79.1394 5.75642 79.5871 5.94185 79.9172 6.27193C80.2473 6.60202 80.4327 7.0497 80.4327 7.51651V12.1769C80.4386 12.4117 80.3975 12.6453 80.3117 12.864C80.2259 13.0827 80.0971 13.282 79.9331 13.4502C79.7691 13.6183 79.5731 13.7519 79.3566 13.8431C79.1401 13.9344 78.9075 13.9813 78.6726 13.9812ZM70.4367 6.47595C70.1608 6.47595 69.8961 6.58558 69.701 6.78072C69.5058 6.97586 69.3962 7.24053 69.3962 7.51651V12.1769C69.3962 12.4528 69.5058 12.7175 69.701 12.9126C69.8961 13.1078 70.1608 13.2174 70.4367 13.2174H78.6726C78.9467 13.2145 79.2085 13.1036 79.4013 12.9088C79.594 12.7139 79.7021 12.4509 79.7021 12.1769V7.51651C79.7021 7.24053 79.5925 6.97586 79.3973 6.78072C79.2022 6.58558 78.9375 6.47595 78.6616 6.47595H70.4367Z" fill="#17262F"></path><path d="M129.66 73.647H124.501C124.453 73.6488 124.406 73.6398 124.361 73.6206C124.317 73.6015 124.278 73.5727 124.247 73.5363L121.701 71.0014C121.657 70.9706 121.621 70.9308 121.595 70.8846C121.568 70.8385 121.552 70.7871 121.548 70.7341C121.543 70.6811 121.55 70.6278 121.569 70.5778C121.587 70.5278 121.616 70.4825 121.653 70.4449C121.691 70.4072 121.736 70.3783 121.786 70.3601C121.836 70.3418 121.89 70.3347 121.943 70.3392C121.996 70.3437 122.047 70.3597 122.093 70.3861C122.139 70.4125 122.179 70.4487 122.21 70.4921L124.656 72.9275H129.516L134.785 67.6694V64.6141C134.784 64.5672 134.792 64.5205 134.809 64.4768C134.827 64.4331 134.852 64.3932 134.885 64.3595L135.837 63.4075L135.759 63.3411H133.711L132.106 64.9462V66.4185C132.107 66.4654 132.099 66.5121 132.082 66.5558C132.065 66.5995 132.039 66.6394 132.007 66.6731L128.774 69.9165C128.706 69.9814 128.614 70.0171 128.52 70.0161H126.306C126.212 70.0161 126.122 69.9788 126.055 69.9124C125.989 69.846 125.951 69.7559 125.951 69.6619C125.95 69.6145 125.958 69.5672 125.975 69.523C125.992 69.4787 126.018 69.4383 126.051 69.4042C126.084 69.3702 126.124 69.3431 126.168 69.3246C126.211 69.3061 126.258 69.2966 126.306 69.2966H128.409L131.431 66.2746V64.7912C131.433 64.6951 131.473 64.6036 131.542 64.5366L133.346 62.7323C133.379 62.6976 133.418 62.6699 133.462 62.6509C133.506 62.6319 133.553 62.6219 133.601 62.6216H135.959C136.007 62.6198 136.054 62.6288 136.098 62.648C136.142 62.6671 136.182 62.6959 136.213 62.7323L136.645 63.1529C136.709 63.2224 136.744 63.3132 136.744 63.4075C136.744 63.5018 136.709 63.5927 136.645 63.6621L135.538 64.7691V67.8243C135.536 67.9205 135.496 68.0119 135.427 68.0789L129.959 73.5474C129.922 73.5883 129.875 73.6189 129.822 73.6364C129.77 73.6538 129.714 73.6575 129.66 73.647Z" fill="#17262F"></path><path d="M135.903 60.3079H133.545C133.451 60.3068 133.361 60.2713 133.291 60.2083L131.486 58.3929C131.417 58.3259 131.378 58.2344 131.376 58.1383V56.6217L128.409 53.5997H126.317C126.223 53.5997 126.133 53.5623 126.066 53.4959C126 53.4295 125.963 53.3394 125.963 53.2454C125.961 53.198 125.969 53.1507 125.986 53.1065C126.003 53.0622 126.029 53.0218 126.062 52.9878C126.095 52.9537 126.135 52.9266 126.179 52.9081C126.222 52.8896 126.269 52.8801 126.317 52.8801H128.531C128.627 52.8832 128.718 52.9228 128.785 52.9908L132.018 56.2232C132.05 56.2569 132.076 56.2968 132.093 56.3405C132.11 56.3842 132.118 56.4309 132.117 56.4778V57.9944L133.722 59.5884H135.77L135.848 59.522L134.896 58.581C134.831 58.5123 134.795 58.421 134.796 58.3264V55.2712L129.516 50.002H124.667L122.221 52.4484C122.152 52.5122 122.061 52.5476 121.966 52.5476C121.872 52.5476 121.781 52.5122 121.712 52.4484C121.678 52.4154 121.65 52.3758 121.632 52.3321C121.613 52.2883 121.604 52.2413 121.604 52.1938C121.604 52.1463 121.613 52.0993 121.632 52.0555C121.65 52.0118 121.678 51.9722 121.712 51.9392L124.258 49.3932C124.325 49.3242 124.416 49.2844 124.512 49.2825H129.671C129.767 49.2844 129.859 49.3242 129.926 49.3932L135.394 54.8616C135.462 54.9293 135.502 55.0203 135.505 55.1162V58.1715L136.612 59.2784C136.675 59.3479 136.711 59.4388 136.711 59.533C136.711 59.6273 136.675 59.7182 136.612 59.7877L136.18 60.2194C136.143 60.2529 136.099 60.2781 136.051 60.2933C136.003 60.3086 135.953 60.3136 135.903 60.3079Z" fill="#17262F"></path><path d="M121.955 71.101H119.93C119.836 71.101 119.746 71.0637 119.679 70.9973C119.613 70.9308 119.575 70.8407 119.575 70.7468V56.5775C119.574 56.5301 119.582 56.4828 119.599 56.4386C119.616 56.3943 119.642 56.3539 119.675 56.3199C119.708 56.2858 119.748 56.2587 119.791 56.2402C119.835 56.2217 119.882 56.2122 119.93 56.2122C120.026 56.2122 120.119 56.2507 120.188 56.3192C120.256 56.3877 120.295 56.4806 120.295 56.5775V70.3815H121.889L124.302 69.4406V53.4891L121.889 52.5481H119.93C119.836 52.5481 119.746 52.5108 119.679 52.4444C119.613 52.378 119.575 52.2879 119.575 52.1939C119.574 52.1465 119.582 52.0992 119.599 52.055C119.616 52.0107 119.642 51.9703 119.675 51.9362C119.708 51.9022 119.748 51.8751 119.791 51.8566C119.835 51.8381 119.882 51.8286 119.93 51.8286H121.955H122.088L124.8 52.8802C124.867 52.9089 124.924 52.9569 124.963 53.018C125.003 53.0791 125.023 53.1507 125.022 53.2234V69.7395C125.021 69.8103 125 69.8794 124.96 69.9384C124.921 69.9974 124.865 70.0436 124.8 70.0715L122.088 71.1232L121.955 71.101Z" fill="#17262F"></path><path d="M119.93 71.1009C119.875 71.1114 119.818 71.1114 119.764 71.1009L117.55 69.994C117.49 69.9637 117.44 69.9178 117.405 69.8612C117.37 69.8046 117.351 69.7395 117.35 69.6729V53.2786C117.351 53.2121 117.37 53.147 117.405 53.0904C117.44 53.0338 117.49 52.9879 117.55 52.9576L119.764 51.8507C119.806 51.82 119.855 51.799 119.906 51.7888C119.958 51.7787 120.011 51.7798 120.062 51.792C120.113 51.8043 120.161 51.8273 120.202 51.8597C120.243 51.892 120.277 51.9329 120.301 51.9795C120.325 52.026 120.339 52.0773 120.342 52.1297C120.344 52.1821 120.335 52.2344 120.316 52.2831C120.296 52.3318 120.267 52.3757 120.229 52.4119C120.191 52.4481 120.145 52.4756 120.096 52.4927L118.125 53.4779V69.4294L120.096 70.4257C120.17 70.4602 120.23 70.5196 120.266 70.5937C120.302 70.6677 120.31 70.7519 120.291 70.8317C120.271 70.9115 120.224 70.982 120.158 71.0311C120.093 71.0802 120.012 71.1049 119.93 71.1009Z" fill="#17262F"></path><path d="M31.9805 34.5045C31.9328 34.5042 31.8856 34.4942 31.8419 34.4752C31.7981 34.4561 31.7587 34.4285 31.7259 34.3938C31.6596 34.3256 31.6225 34.2343 31.6225 34.1392C31.6225 34.0441 31.6596 33.9528 31.7259 33.8846L54.4078 11.8116C54.4408 11.7774 54.4804 11.7503 54.5241 11.7317C54.5678 11.7132 54.6149 11.7036 54.6624 11.7036C54.7099 11.7036 54.7569 11.7132 54.8006 11.7317C54.8444 11.7503 54.8839 11.7774 54.917 11.8116C54.9832 11.8797 55.0203 11.9711 55.0203 12.0662C55.0203 12.1612 54.9832 12.2526 54.917 12.3208L32.2351 34.4049C32.2014 34.4375 32.1615 34.4632 32.1178 34.4803C32.0741 34.4974 32.0274 34.5056 31.9805 34.5045Z" fill="#17262F"></path><path d="M108.672 59.2563H97.8011C97.7513 59.2593 97.7014 59.2521 97.6545 59.2351C97.6076 59.2181 97.5647 59.1917 97.5284 59.1575C97.4921 59.1233 97.4632 59.082 97.4435 59.0361C97.4237 58.9903 97.4136 58.9409 97.4137 58.891C97.4137 58.8436 97.4232 58.7966 97.4417 58.7529C97.4602 58.7091 97.4873 58.6696 97.5213 58.6365C97.5554 58.6035 97.5958 58.5776 97.64 58.5605C97.6843 58.5434 97.7316 58.5353 97.779 58.5368H108.649C108.743 58.5368 108.834 58.5741 108.9 58.6405C108.966 58.707 109.004 58.7971 109.004 58.891C109.007 58.9832 108.974 59.0728 108.912 59.1411C108.85 59.2093 108.764 59.2506 108.672 59.2563Z" fill="#17262F"></path></g><defs><clipPath id="clip0_5678_16245"><rect width="136.689" height="110" fill="white"></rect></clipPath></defs></svg>