<svg xmlns="http://www.w3.org/2000/svg" width="91" height="90" viewBox="0 0 91 90" fill="none"><g clip-path="url(#clip0_5678_33315)"><path d="M89.0958 9.79659L88.4477 9.14851C88.1449 8.84479 87.7383 8.66707 87.3098 8.65115L85.1545 8.52304L85.0415 6.35273C85.0204 5.9298 84.8432 5.52971 84.5441 5.2299L79.8343 0.497419C79.5138 0.178974 79.0803 0.000244141 78.6285 0.000244141C78.1767 0.000244141 77.7433 0.178974 77.4228 0.497419L70.0227 7.89757C69.9555 7.96915 69.8926 8.04464 69.8343 8.12364L67.5735 11.364L47.7695 31.3188L45.6971 32.3512C45.534 32.434 45.3841 32.5407 45.2525 32.6677L40.731 37.1892C37.7962 34.3171 33.8464 32.7194 29.7401 32.7434C25.6338 32.7674 21.7029 34.4111 18.8019 37.3173L0.497419 55.6293C0.178974 55.9498 0.000244141 56.3832 0.000244141 56.835C0.000244141 57.2868 0.178974 57.7203 0.497419 58.0407L31.9518 89.4951C32.1105 89.6555 32.2995 89.7827 32.5078 89.8693C32.7161 89.956 32.9395 90.0004 33.1651 90C33.3896 90.0007 33.612 89.9564 33.8191 89.8696C34.0261 89.7829 34.2138 89.6556 34.3708 89.4951L52.6451 71.2208C55.3983 68.4664 57.0216 64.7818 57.196 60.8912C57.3703 57.0006 56.083 53.1856 53.5871 50.196L68.1086 35.6745L74.5517 31.349C74.7401 31.2297 74.8996 31.0701 75.0189 30.8817L79.2917 24.5065L85.682 20.2186C85.8664 20.0944 86.0251 19.9358 86.1493 19.7514L89.5705 14.6496C90.0608 13.9092 90.2813 13.0226 90.1948 12.1388C90.1083 11.255 89.7202 10.4279 89.0958 9.79659ZM47.4756 35.2826L49.5479 34.2502C49.7163 34.1694 49.8693 34.0597 50.0001 33.9262L70.0829 13.6625C70.1495 13.595 70.21 13.5219 70.2638 13.4439L72.5245 10.2111L78.6135 4.12214L79.9774 5.48612L44.4612 40.9948L43.0973 39.6308L47.4756 35.2826ZM50.2337 68.8094L33.1576 85.9081L4.12214 56.835L21.1907 39.7664C23.4779 37.4844 26.577 36.2028 29.8079 36.2028C33.0388 36.2028 36.1379 37.4844 38.4251 39.7664L39.465 40.8064V40.8441L50.0151 51.3942L50.2111 51.5901C52.4972 53.8767 53.7815 56.9777 53.7815 60.2111C53.7815 63.4445 52.4972 66.5454 50.2111 68.832L50.2337 68.8094ZM86.7446 12.7431L83.5042 17.5735L77.2043 21.8011C77.1149 21.8606 77.0316 21.9287 76.9556 22.0046L76.8124 22.1478C76.7317 22.2261 76.6585 22.3119 76.5939 22.404L72.3437 28.7039L66.0362 32.9239C65.9456 32.9905 65.86 33.0635 65.78 33.1425L51.2435 47.7318L46.9255 43.4138L81.7785 8.55318L81.8689 10.2563C81.891 10.6814 82.0709 11.083 82.3733 11.3826C82.6757 11.6822 83.0789 11.8583 83.5042 11.8765L86.5185 11.997L86.6918 12.1704C86.7659 12.2451 86.8111 12.3436 86.8194 12.4484C86.8277 12.5533 86.7985 12.6577 86.7371 12.7431H86.7446Z" fill="#17262F"></path><path d="M24.9209 52.2682C24.2848 51.6628 23.4403 51.3252 22.5622 51.3252C21.684 51.3252 20.8395 51.6628 20.2034 52.2682L14.8229 57.6488C14.6632 57.8071 14.5364 57.9955 14.4499 58.2031C14.3634 58.4107 14.3188 58.6334 14.3188 58.8583C14.3188 59.0832 14.3634 59.3059 14.4499 59.5135C14.5364 59.7211 14.6632 59.9095 14.8229 60.0678L29.8945 75.1771C30.215 75.4955 30.6484 75.6742 31.1002 75.6742C31.552 75.6742 31.9855 75.4955 32.3059 75.1771L37.694 69.789C38.3167 69.1634 38.6662 68.3167 38.6662 67.434C38.6662 66.5514 38.3167 65.7047 37.694 65.0791L24.9209 52.2682ZM31.1379 71.59L18.4401 58.8545L22.5622 54.74L35.26 67.4378L31.1379 71.59Z" fill="#17262F"></path></g><defs><clipPath id="clip0_5678_33315"><rect width="90.2261" height="90" fill="white"></rect></clipPath></defs></svg>