<svg xmlns="http://www.w3.org/2000/svg" width="85" height="90" viewBox="0 0 85 90" fill="none"><g clip-path="url(#clip0_5678_33141)"><path d="M84.4091 81.429C84.2592 79.2594 83.4113 77.1966 81.992 75.5488C80.5727 73.901 78.6583 72.7568 76.5348 72.2871L73.9409 66.4108L67.7371 52.5007L62.3141 40.2948L56.1524 26.4434L45.3316 2.01476C45.0645 1.42851 44.6344 0.931469 44.0926 0.582932C43.5508 0.234394 42.9201 0.0490723 42.2759 0.0490723C41.6317 0.0490723 41.001 0.234394 40.4592 0.582932C39.9174 0.931469 39.4873 1.42851 39.2202 2.01476L28.3071 26.6029L22.1789 40.3703L16.7223 52.4504L10.5354 66.3688L7.94981 72.1948C5.81982 72.6891 3.90393 73.8521 2.48253 75.5137C1.06113 77.1753 0.208833 79.2481 0.0503604 81.429C-0.0201772 81.824 -0.00810844 82.2293 0.0858056 82.6194C0.17972 83.0095 0.353442 83.3759 0.596018 83.6956C3.46702 87.8929 17.4694 90.0252 42.2255 90.0252C66.9816 90.0252 80.9924 87.8929 83.8634 83.6956C84.106 83.3759 84.2797 83.0095 84.3736 82.6194C84.4676 82.2293 84.4796 81.824 84.4091 81.429ZM42.2255 86.4658C8.70534 86.4658 4.07983 82.4615 3.52578 81.7648C3.61763 80.1923 4.25457 78.701 5.32704 77.5473C6.39951 76.3936 7.84048 75.6497 9.4021 75.4435C9.70305 75.4077 9.9896 75.2946 10.2338 75.1151C10.478 74.9356 10.6716 74.6959 10.7956 74.4194L13.7506 67.7875L19.9375 53.8775L25.3269 41.7722L31.4551 27.9965L42.2339 3.74407L51.9382 25.5704L50.167 25.6711L49.1008 25.7299C48.6567 25.7701 48.2446 25.9779 47.9482 26.3111C47.6519 26.6443 47.4935 27.0778 47.5052 27.5235C47.517 27.9693 47.698 28.3938 48.0116 28.7109C48.3251 29.0279 48.7476 29.2137 49.1932 29.2305H49.2939H49.6717C49.8111 29.2475 49.952 29.2475 50.0914 29.2305C51.5101 29.1466 52.3664 29.0878 53.4493 28.9787L58.1336 39.5141L57.378 39.6064C56.6813 39.6903 55.9425 39.7659 55.1282 39.8415C54.992 39.8626 54.8547 39.8766 54.7169 39.8834L51.2835 40.2948C51.0553 40.3179 50.8339 40.3858 50.6319 40.4945C50.4299 40.6032 50.2513 40.7507 50.1063 40.9284C49.9613 41.1061 49.8528 41.3107 49.7868 41.5304C49.7209 41.75 49.6989 41.9806 49.722 42.2088C49.7452 42.437 49.8131 42.6584 49.9218 42.8603C50.0305 43.0623 50.1779 43.2409 50.3557 43.3859C50.5334 43.5309 50.7379 43.6394 50.9576 43.7054C51.1773 43.7713 51.4078 43.7933 51.636 43.7702L55.0359 43.426L55.5564 43.3756L57.781 43.1406L59.376 42.9475H59.6362L63.6069 51.8879L62.3981 52.0558L61.0801 52.2321L60.1651 52.3664H60.0308H59.6782C58.5281 52.4755 55.0191 52.8113 54.0117 52.8113C53.5685 52.842 53.1534 53.0398 52.8503 53.3647C52.5471 53.6895 52.3785 54.1173 52.3785 54.5616C52.3785 55.006 52.5471 55.4337 52.8503 55.7586C53.1534 56.0835 53.5685 56.2812 54.0117 56.3119C55.0527 56.3119 57.7642 56.0685 60.0056 55.8586H60.4421H60.568L61.5586 55.7243L63.2376 55.4892L63.6321 55.4389L64.9921 55.2374H65.0928L69.8274 65.8819C68.613 66.0834 67.253 66.2933 65.7476 66.5115C65.618 66.5293 65.4911 66.5632 65.3698 66.6123C62.4126 66.9849 59.4352 67.1756 56.4546 67.1831C56.2146 67.1665 55.9737 67.1994 55.7469 67.2798C55.5201 67.3603 55.3123 67.4865 55.1364 67.6506C54.9604 67.8148 54.8201 68.0134 54.7242 68.2341C54.6283 68.4548 54.5788 68.6928 54.5788 68.9334C54.5788 69.174 54.6283 69.4121 54.7242 69.6328C54.8201 69.8535 54.9604 70.052 55.1364 70.2162C55.3123 70.3804 55.5201 70.5066 55.7469 70.587C55.9737 70.6674 56.2146 70.7004 56.4546 70.6837C61.4429 70.6594 66.4179 70.1648 71.3133 69.2063L73.7226 74.6293C73.8617 74.8871 74.0625 75.1064 74.3072 75.2676C74.5519 75.4287 74.8327 75.5267 75.1245 75.5527C76.6699 75.7333 78.1013 76.4555 79.1647 77.5911C80.2282 78.7268 80.8549 80.2025 80.9337 81.7564C80.3796 82.4615 75.7541 86.4658 42.2255 86.4658Z" fill="#17262F"></path></g><defs><clipPath id="clip0_5678_33141"><rect width="84.4595" height="90" fill="white"></rect></clipPath></defs></svg>