<svg xmlns="http://www.w3.org/2000/svg" width="104" height="70" viewBox="0 0 104 70" fill="none"><g clip-path="url(#clip0_5678_6357)"><path d="M68.6148 43.9729L66.2321 42.5571C67.166 41.0743 67.8549 39.4582 68.2734 37.7677C68.3521 37.4777 68.5274 37.2213 68.772 37.0387C69.0166 36.856 69.3166 36.7574 69.6251 36.7583H73.2062V30.9325H69.6251C69.3129 30.9319 69.01 30.8294 68.765 30.6414C68.5199 30.4535 68.3468 30.191 68.2734 29.896C67.8567 28.2028 67.1677 26.5842 66.2321 25.0998C66.0692 24.8396 66.0012 24.5337 66.0391 24.2313C66.077 23.929 66.2186 23.6478 66.4411 23.4334L68.9632 20.9811L64.7271 16.8555L62.1981 19.3214C61.9771 19.535 61.6889 19.6704 61.3795 19.706C61.07 19.7416 60.7573 19.6754 60.4911 19.5178C58.963 18.6109 57.2988 17.9412 55.5584 17.533C55.255 17.4617 54.985 17.2934 54.7917 17.0551C54.5984 16.8168 54.493 16.5223 54.4924 16.2188V12.7097H48.5006V16.1917C48.5 16.4952 48.3946 16.7897 48.2013 17.028C48.008 17.2663 47.7381 17.4346 47.4347 17.5059C45.696 17.9128 44.0339 18.5826 42.5089 19.4907C42.242 19.65 41.9278 19.7172 41.6169 19.6815C41.3059 19.6459 41.0164 19.5095 40.795 19.2943L38.2659 16.8285L34.0299 20.954L36.5589 23.4063C36.7803 23.6216 36.9206 23.9031 36.9572 24.2054C36.9939 24.5077 36.9248 24.8133 36.761 25.0727C35.8287 26.5556 35.1422 28.1718 34.7266 29.8621C34.653 30.1652 34.4743 30.4345 34.2205 30.6245C33.9667 30.8145 33.6533 30.9137 33.3331 30.9054H29.7869V36.7583H33.368C33.6872 36.7497 33.9999 36.8479 34.2535 37.0366C34.5072 37.2252 34.6865 37.4929 34.7614 37.7948C35.1758 39.4855 35.8624 41.1019 36.7958 42.5842L34.42 44C33.5305 42.5815 32.8304 41.0586 32.3368 39.468H28.3934C28.0239 39.468 27.6694 39.3253 27.4081 39.0712C27.1468 38.8171 27 38.4725 27 38.1132V29.5505C27 29.1912 27.1468 28.8466 27.4081 28.5925C27.6694 28.3384 28.0239 28.1957 28.3934 28.1957H32.3368C32.7067 26.9386 33.2087 25.7218 33.8348 24.5647L31.0479 21.855C30.9184 21.7291 30.8156 21.5797 30.7455 21.4152C30.6753 21.2507 30.6392 21.0744 30.6392 20.8964C30.6392 20.7183 30.6753 20.542 30.7455 20.3776C30.8156 20.2131 30.9184 20.0637 31.0479 19.9378L37.2557 13.902C37.5167 13.6496 37.8699 13.508 38.238 13.508C38.6061 13.508 38.9593 13.6496 39.2204 13.902L42.0073 16.6117C43.1852 15.9941 44.4248 15.4948 45.7068 15.1213V11.3549C45.7068 10.9955 45.8536 10.6509 46.1149 10.3968C46.3763 10.1427 46.7307 10 47.1002 10H55.8858C56.2554 10 56.6098 10.1427 56.8711 10.3968C57.1324 10.6509 57.2793 10.9955 57.2793 11.3549V15.1552C58.5639 15.5274 59.8059 16.0268 60.9858 16.6455L63.7726 13.9358C64.0339 13.6839 64.387 13.5427 64.755 13.5429C64.9384 13.5419 65.1202 13.5761 65.29 13.6435C65.4597 13.7109 65.6141 13.8103 65.7444 13.9358L71.9521 19.9717C72.0816 20.0975 72.1844 20.247 72.2545 20.4114C72.3247 20.5759 72.3608 20.7522 72.3608 20.9303C72.3608 21.1083 72.3247 21.2846 72.2545 21.4491C72.1844 21.6136 72.0816 21.763 71.9521 21.8888L69.1652 24.5985C69.8004 25.7462 70.3139 26.9537 70.698 28.2024H74.6066C74.9761 28.2024 75.3306 28.3452 75.5919 28.5993C75.8532 28.8533 76 29.198 76 29.5573V38.1132C76 38.4725 75.8532 38.8171 75.5919 39.0712C75.3306 39.3253 74.9761 39.468 74.6066 39.468H70.691C70.2019 41.0505 69.504 42.5647 68.6148 43.9729Z" fill="#17262F"></path><path d="M51.5 44C49.4239 44 47.3944 43.3846 45.668 42.2314C43.9416 41.0783 42.5958 39.4393 41.8007 37.5216C41.0055 35.6038 40.7967 33.4933 41.2007 31.4569C41.6046 29.4205 42.6032 27.5496 44.0702 26.0806C45.5372 24.6115 47.4067 23.6103 49.4426 23.2036C51.4784 22.7968 53.5891 23.0026 55.508 23.7951C57.4269 24.5875 59.0678 25.9311 60.2233 27.6559C61.3788 29.3806 61.9971 31.4093 62 33.4853C62 36.2715 60.8942 38.9437 58.9255 40.9151C56.9568 42.8866 54.2861 43.9961 51.5 44ZM51.5 25.933C50.0028 25.933 48.5392 26.3771 47.2945 27.2093C46.0497 28.0414 45.0799 29.2241 44.5076 30.6076C43.9353 31.9912 43.7863 33.5134 44.0794 34.9817C44.3726 36.4499 45.0948 37.7982 46.1545 38.8559C47.2142 39.9136 48.5639 40.6331 50.0328 40.9234C51.5016 41.2137 53.0235 41.0618 54.406 40.4868C55.7884 39.9118 56.9692 38.9397 57.7989 37.6933C58.6286 36.447 59.0699 34.9826 59.067 33.4853C59.0651 31.479 58.2672 29.5555 56.8486 28.1368C55.4299 26.7181 53.5063 25.9202 51.5 25.9183V25.933Z" fill="#17262F"></path><path d="M88.1971 46.0651H85.2918V5.61154C85.2918 4.93395 85.0227 4.28409 84.5437 3.80494C84.0648 3.32579 83.4151 3.0566 82.7378 3.0566H20.6344C19.957 3.0566 19.3074 3.32579 18.8284 3.80494C18.3494 4.28409 18.0804 4.93395 18.0804 5.61154V46.0651H15.175V5.61154C15.175 4.16303 15.7502 2.77386 16.774 1.74963C17.7979 0.725397 19.1865 0.15 20.6344 0.15H82.7378C84.1856 0.15 85.5742 0.725397 86.5981 1.74963C87.6219 2.77386 88.1971 4.16303 88.1971 5.61154V46.0651Z" fill="#17262F" stroke="white" stroke-width="0.3"></path><path d="M101.772 69.8501H101.769L1.60267 69.8501L1.59984 69.8501C1.31821 69.8554 1.04111 69.7787 0.802266 69.6293C0.563424 69.4799 0.373145 69.2643 0.254606 69.0086C0.136066 68.753 0.094382 68.4684 0.134633 68.1894C0.174884 67.9105 0.295332 67.6493 0.481303 67.4376L0.48135 67.4377L0.48412 67.4343L15.5091 49.301L15.5095 49.3005C15.6454 49.1352 15.8161 49.0019 16.0095 48.9102C16.2028 48.8185 16.414 48.7707 16.6279 48.7701H86.7442C86.9581 48.7707 87.1693 48.8185 87.3626 48.9102C87.556 49.0019 87.7267 49.1352 87.8626 49.3005L87.863 49.301L102.888 67.4343L102.888 67.4344L102.891 67.4376C103.077 67.6493 103.197 67.9105 103.237 68.1894C103.278 68.4684 103.236 68.753 103.117 69.0086C102.999 69.2643 102.809 69.4799 102.57 69.6293C102.331 69.7787 102.054 69.8554 101.772 69.8501ZM4.89273 66.6979L4.68972 66.9435H5.00834H98.3638H98.6824L98.4794 66.6979L86.1068 51.7311L86.0618 51.6767H85.9911H17.3809H17.3103L17.2653 51.7311L4.89273 66.6979Z" fill="#17262F" stroke="white" stroke-width="0.3"></path><path d="M87.7221 45.9149H85.1167V5.61135C85.1167 4.89399 84.8319 4.20599 84.3248 3.6987C83.8177 3.19141 83.1299 2.9064 82.4127 2.9064H20.3093C19.5922 2.9064 18.9044 3.19141 18.3973 3.6987C17.8902 4.20599 17.6053 4.89399 17.6053 5.61135V45.9149H15V5.61135C15 4.2026 15.5594 2.85158 16.5551 1.85548C17.5508 0.859383 18.9013 0.299805 20.3093 0.299805H82.4127C83.8208 0.299805 85.1712 0.859383 86.167 1.85548C87.1627 2.85158 87.7221 4.2026 87.7221 5.61135V45.9149Z" fill="#17262F"></path><path fill-rule="evenodd" clip-rule="evenodd" d="M101.769 69.6999H1.60266L1.59699 69.7C1.34446 69.7047 1.09598 69.6359 0.881801 69.502C0.667623 69.368 0.496984 69.1746 0.390676 68.9453C0.284368 68.7161 0.246984 68.4608 0.283083 68.2107C0.319181 67.9605 0.427297 67.7263 0.594071 67.5365L15.6246 49.3965L15.6254 49.3956C15.7473 49.2473 15.9004 49.1277 16.0738 49.0455C16.247 48.9633 16.4363 48.9205 16.6281 48.9199H86.744C86.9358 48.9205 87.125 48.9633 87.2983 49.0455C87.4717 49.1277 87.6248 49.2473 87.7467 49.3956L87.7474 49.3965L102.772 67.5299L102.778 67.5364C102.945 67.7263 103.053 67.9605 103.089 68.2107C103.125 68.4608 103.088 68.7161 102.981 68.9453C102.875 69.1746 102.704 69.368 102.49 69.502C102.276 69.6359 102.028 69.7047 101.775 69.7L101.769 69.9999V69.6999ZM17.2397 51.5265L4.37109 67.0933H99.001L86.1324 51.5265H17.2397Z" fill="#17262F"></path></g><defs><clipPath id="clip0_5678_6357"><rect width="103.372" height="70" fill="white"></rect></clipPath></defs></svg>