<svg xmlns="http://www.w3.org/2000/svg" width="93" height="90" viewBox="0 0 93 90" fill="none"><g clip-path="url(#clip0_5678_33349)"><path d="M90.6367 37.1953C89.0207 28.0338 84.6055 19.5982 77.9987 13.0489C71.3918 6.49959 62.9179 2.1584 53.7427 0.622547C44.5674 -0.913308 35.1417 0.431636 26.7622 4.47236C18.3827 8.51308 11.4611 15.051 6.94963 23.1868L3.76588 12.1073C3.62596 11.6176 3.29721 11.2035 2.85197 10.9562C2.40673 10.7088 1.88146 10.6484 1.39172 10.7884C0.901976 10.9283 0.487878 11.257 0.240521 11.7023C-0.00683606 12.1475 -0.06719 12.6728 0.0727362 13.1625L4.63914 29.1086C4.69981 29.298 4.78547 29.4785 4.89384 29.6452C5.00499 29.7989 5.13658 29.9366 5.28499 30.0546C5.40994 30.1444 5.54411 30.2206 5.68523 30.282H5.7671H5.86716C6.04048 30.3391 6.2214 30.3697 6.40385 30.373H6.45842H6.67674L21.231 28.4445C21.7332 28.396 22.1963 28.1526 22.5211 27.7666C22.8459 27.3806 23.0065 26.8827 22.9684 26.3796C22.936 26.1295 22.8543 25.8884 22.7282 25.67C22.602 25.4516 22.4339 25.2604 22.2335 25.1073C22.0331 24.9542 21.8043 24.8424 21.5604 24.7782C21.3166 24.7139 21.0624 24.6987 20.8126 24.7332L9.68765 26.2068C13.6265 18.5386 19.873 12.3003 27.5463 8.37154C35.2197 4.44278 43.9327 3.0218 52.4567 4.30899C60.9807 5.59618 68.8856 9.52659 75.0567 15.546C81.2278 21.5654 85.3537 29.37 86.8526 37.8593C86.9298 38.3051 87.162 38.7093 87.5081 39.0005C87.8543 39.2918 88.2923 39.4514 88.7447 39.4512H89.0721C89.3238 39.4074 89.5642 39.314 89.7794 39.1766C89.9947 39.0391 90.1805 38.8602 90.326 38.6503C90.4716 38.4405 90.574 38.2038 90.6274 37.954C90.6807 37.7042 90.6839 37.4463 90.6367 37.1953Z" fill="#17262F"></path><path d="M91.9557 77.183L87.4075 61.2551C87.2823 60.811 87.0005 60.4272 86.6142 60.1747C86.2279 59.9222 85.7633 59.8181 85.3063 59.8816L70.7156 61.8555C70.4653 61.8884 70.224 61.9702 70.0054 62.0963C69.7867 62.2224 69.5951 62.3904 69.4413 62.5906C69.2876 62.7907 69.1748 63.0193 69.1094 63.263C69.044 63.5068 69.0272 63.7611 69.06 64.0114C69.0929 64.2616 69.1747 64.503 69.3008 64.7216C69.4269 64.9402 69.5949 65.1319 69.7951 65.2856C69.9953 65.4394 70.2238 65.5522 70.4676 65.6176C70.7114 65.683 70.9656 65.6998 71.2159 65.6669L82.7775 64.0841C78.7764 71.7245 72.4765 77.915 64.7673 81.7817C57.0581 85.6484 48.329 86.9958 39.8127 85.6337C31.2964 84.2716 23.4231 80.2688 17.3044 74.1906C11.1858 68.1123 7.13098 60.2656 5.71256 51.7585C5.62933 51.2555 5.34968 50.8061 4.93515 50.5093C4.52061 50.2125 4.00514 50.0925 3.50213 50.1757C2.99912 50.2589 2.54977 50.5386 2.25295 50.9531C1.95612 51.3676 1.83612 51.8831 1.91935 52.3861C3.44037 61.5216 7.74244 69.9654 14.2388 76.5659C20.7351 83.1665 29.1094 87.6024 38.2194 89.2686C47.3295 90.9349 56.7318 89.7503 65.1438 85.8765C73.5559 82.0027 80.5683 75.6283 85.2244 67.6226L88.2353 78.2291C88.35 78.625 88.5885 78.9738 88.9159 79.2243C89.2433 79.4748 89.6424 79.6137 90.0546 79.6208C90.2328 79.6189 90.4101 79.5945 90.5822 79.548C91.0774 79.4157 91.5 79.0925 91.7575 78.6492C92.0149 78.206 92.0862 77.6787 91.9557 77.183Z" fill="#17262F"></path><path d="M39.3147 74.9453C39.0649 74.9453 38.8176 74.8958 38.587 74.7997C38.1863 74.6349 37.8531 74.3393 37.6417 73.9611C37.4303 73.5829 37.3531 73.1443 37.4227 72.7166L41.4524 47.4286L34.5664 43.6627C33.6688 43.1716 32.9786 42.373 32.6226 41.4138C32.2666 40.4545 32.2689 39.3991 32.6288 38.4413L39.7513 19.2388C39.926 18.77 40.2761 18.3874 40.7275 18.1718C41.179 17.9563 41.6966 17.9246 42.171 18.0835L56.8071 23.0229C57.0656 23.1124 57.3021 23.2557 57.5012 23.4432C57.7003 23.6308 57.8574 23.8584 57.9622 24.111C58.0671 24.3636 58.1172 24.6356 58.1094 24.909C58.1016 25.1824 58.036 25.451 57.9169 25.6972L53.1777 35.2667L59.8362 37.5681C60.4955 37.7953 61.0927 38.1731 61.5804 38.6715C62.0681 39.1699 62.4328 39.7752 62.6457 40.4392C62.8585 41.1033 62.9135 41.8078 62.8064 42.4969C62.6992 43.1859 62.4329 43.8405 62.0285 44.4086L40.8793 74.1357C40.7026 74.3863 40.4682 74.5907 40.1959 74.7316C39.9236 74.8725 39.6213 74.9458 39.3147 74.9453ZM42.7532 22.3225L36.231 39.733C36.1964 39.8281 36.1965 39.9323 36.2315 40.0273C36.2665 40.1222 36.334 40.2017 36.4221 40.2515L44.4906 44.7178C44.8407 44.9052 45.124 45.1966 45.3016 45.5517C45.4792 45.9069 45.5422 46.3084 45.4821 46.7009L42.5076 65.2303L58.8811 42.1799C58.9405 42.1002 58.9798 42.0073 58.9956 41.9091C59.0114 41.8109 59.0034 41.7104 58.9721 41.616C58.9416 41.5189 58.8887 41.4304 58.8175 41.3577C58.7464 41.285 58.6591 41.2301 58.5627 41.1975L49.8666 38.2048C49.6075 38.1154 49.3705 37.9718 49.1713 37.7836C48.9721 37.5954 48.8153 37.3668 48.7113 37.1132C48.6089 36.8616 48.5616 36.591 48.5725 36.3195C48.5835 36.048 48.6526 35.7821 48.775 35.5396L53.496 25.9792L42.7532 22.3225Z" fill="#17262F"></path></g><defs><clipPath id="clip0_5678_33349"><rect width="92.0285" height="90" fill="white"></rect></clipPath></defs></svg>