<svg xmlns="http://www.w3.org/2000/svg" width="67" height="95" viewBox="0 0 67 95" fill="none"><g clip-path="url(#clip0_5678_33102)"><path d="M66.9491 33.5456C66.9459 33.5179 66.9459 33.4898 66.9491 33.462C66.94 33.3749 66.926 33.2883 66.9073 33.2027C66.9073 33.1609 66.9073 33.1275 66.9073 33.094C66.8789 33.0193 66.8454 32.9466 66.8069 32.8766C66.7848 32.8384 66.7596 32.802 66.7317 32.7679C66.6955 32.7055 66.6535 32.6467 66.6062 32.5922L66.5309 32.5253L66.3804 32.3831L66.255 32.2995L66.0793 32.1991L65.9371 32.1406L65.7531 32.0821H65.5859H65.4939H64.323C63.9885 21.2598 61.3874 9.19975 46.5926 4.95114V2.36685C46.5926 1.73912 46.3432 1.1371 45.8993 0.693233C45.4555 0.249363 44.8534 0 44.2257 0H22.7318C22.104 0 21.502 0.249363 21.0581 0.693233C20.6143 1.1371 20.3649 1.73912 20.3649 2.36685V4.96787C5.85439 9.12448 3.28682 20.6994 3.06101 31.9817H1.56395H1.47196H1.30469C1.24088 31.9923 1.17892 32.012 1.12069 32.0402L0.978516 32.0988L0.836338 32.266L0.710887 32.3497L0.560346 32.4919C0.531474 32.5095 0.505984 32.5322 0.485075 32.5588C0.437825 32.6132 0.395821 32.672 0.359624 32.7344C0.329149 32.7686 0.301197 32.8049 0.27599 32.8431C0.27599 32.91 0.217446 32.9853 0.183992 33.0606C0.150538 33.1358 0.183992 33.1275 0.183992 33.1693C0.115925 33.2595 0.0544348 33.3546 -3.00352e-06 33.4537C-3.00352e-06 33.4537 -3.00352e-06 33.5122 -3.00352e-06 33.5373C-0.00838116 33.657 -0.00838116 33.7772 -3.00352e-06 33.8969L0.677433 40.3618C0.673321 40.4119 0.673321 40.4623 0.677433 40.5124L6.79945 91.663C6.89104 92.5827 7.32234 93.4353 8.00906 94.0539C8.69577 94.6726 9.58852 95.0129 10.5128 95.0084H56.4363C57.3597 95.0127 58.2514 94.6721 58.9368 94.0533C59.6221 93.4345 60.0517 92.582 60.1413 91.663L66.2466 40.5709V40.3786L66.924 33.8802V33.7882C66.9491 33.7213 66.9575 33.6376 66.9491 33.5456ZM3.90571 35.4692H62.8343C62.0398 36.9746 60.3253 38.8146 56.4196 39.124C54.1545 39.325 52.016 40.2567 50.3265 41.7787C48.637 43.3008 47.4879 45.3308 47.0526 47.5627C46.4222 50.7389 46.0946 53.9677 46.074 57.2057C46.074 58.7112 44.3261 59.3802 43.013 59.3802C42.3401 59.4046 41.6781 59.2045 41.1313 58.8115C40.8982 58.6157 40.7151 58.3671 40.5973 58.0864C40.4795 57.8057 40.4303 57.5009 40.4538 57.1974C40.4538 45.8399 36.6736 41.3069 33.83 38.8564C32.8194 38.032 31.645 37.4319 30.3848 37.096C29.1245 36.76 27.8073 36.6959 26.5204 36.9077C24.9588 37.096 23.4506 37.5948 22.0847 38.3747C20.7187 39.1546 19.5226 40.1999 18.5668 41.4491C18.014 42.2939 17.5275 43.1803 17.1115 44.1003C16.0076 46.3918 15.5727 46.9689 14.3851 46.902C13.5487 46.8518 12.6538 46.5591 11.7673 43.6319C10.8808 40.7047 9.44229 39.8182 7.71106 39.1408C6.68727 38.7917 5.75335 38.2205 4.97623 37.4681C4.46856 36.8943 4.10197 36.2098 3.90571 35.4692ZM23.8524 3.48754H43.0883V8.63104H23.8524V3.48754ZM20.3649 8.61432V9.7601C20.3671 10.3864 20.6175 10.9862 21.0611 11.4283C21.5047 11.8704 22.1055 12.1186 22.7318 12.1186H44.2257C44.852 12.1186 45.4528 11.8704 45.8964 11.4283C46.34 10.9862 46.5904 10.3864 46.5926 9.7601V8.58922C56.1938 11.6502 60.3838 18.6253 60.7184 32.0068H6.56528C6.89145 18.6588 10.9812 11.6586 20.3649 8.61432ZM56.6705 91.3034C56.6662 91.3618 56.6394 91.4163 56.5957 91.4553C56.552 91.4943 56.4948 91.5148 56.4363 91.5125H10.5128C10.4806 91.5136 10.4486 91.5082 10.4186 91.4964C10.3887 91.4846 10.3615 91.4668 10.3387 91.444C10.3159 91.4213 10.2981 91.3941 10.2863 91.3641C10.2746 91.3342 10.2691 91.3021 10.2703 91.2699L4.32388 41.3738C4.99266 41.785 5.70164 42.1269 6.43982 42.3941C7.57725 42.8458 7.92015 42.9796 8.43032 44.6523C9.19975 47.2198 10.563 50.1805 14.2178 50.3896C17.8726 50.5986 19.2358 47.7216 20.2813 45.6224C20.6218 44.8633 21.0187 44.1309 21.4689 43.4312C22.8386 41.7221 24.8291 40.6246 27.0055 40.3786C27.8064 40.2358 28.6285 40.2634 29.4181 40.4593C30.2078 40.6553 30.9473 41.0153 31.5886 41.516C33.0689 42.7789 36.9914 46.1409 36.9914 57.2057C36.9693 58.0324 37.1363 58.8533 37.4799 59.6055C37.8234 60.3578 38.3343 61.0216 38.9735 61.5463C40.1401 62.4343 41.5722 62.9029 43.0381 62.8761C46.258 62.8761 49.5867 60.7518 49.5867 57.2057C49.6108 54.2037 49.916 51.2104 50.4983 48.2653C50.7779 46.7772 51.5335 45.4204 52.6513 44.3992C53.769 43.3779 55.1884 42.7476 56.6956 42.6032C58.8472 42.4965 60.9303 41.8117 62.7256 40.6211L56.6705 91.3034Z" fill="#17262F"></path><path d="M44.1672 64.875C43.8418 64.6885 43.4649 64.6123 43.0926 64.6575C42.7204 64.7027 42.3727 64.867 42.1014 65.1259C40.4287 66.7065 37.7441 70.9803 38.6975 74.3256C38.9277 75.1037 39.3763 75.7993 39.99 76.33C40.6037 76.8607 41.3568 77.2042 42.1599 77.3197C42.5983 77.403 43.0435 77.445 43.4897 77.4452C44.2303 77.4778 44.9665 77.3148 45.6242 76.9728C46.2819 76.6307 46.838 76.1216 47.2365 75.4965C48.4827 73.5227 48.0729 70.5955 47.178 68.7138C45.89 65.9538 44.4432 65.0339 44.1672 64.875ZM44.3261 73.6398C44.2592 73.7485 44.1253 73.9576 43.5315 73.9576C43.3038 73.9547 43.0769 73.9295 42.8541 73.8823C42.185 73.7569 42.1181 73.506 42.068 73.3387C41.7836 72.3769 42.4861 70.4952 43.4145 69.0399C43.6578 69.4283 43.873 69.8335 44.0584 70.2526C44.6104 71.3733 44.7359 72.9791 44.3261 73.6398Z" fill="#17262F"></path></g><defs><clipPath id="clip0_5678_33102"><rect width="66.9491" height="95" fill="white"></rect></clipPath></defs></svg>