<svg xmlns="http://www.w3.org/2000/svg" width="91" height="75" viewBox="0 0 91 75" fill="none"><g clip-path="url(#clip0_5678_33640)"><path d="M90.5483 56.6285V37.6432C90.5564 37.5479 90.5564 37.4521 90.5483 37.3568C90.5483 37.2668 90.5483 37.1768 90.5483 37.0786V20.3682C90.5483 20.3191 90.5483 20.2782 90.5483 20.2291C90.5483 20.18 90.5483 20.1391 90.5483 20.09V1.71031C90.5612 1.59611 90.5612 1.48081 90.5483 1.36661C90.4705 0.987149 90.2663 0.645313 89.969 0.397049C89.6716 0.148785 89.2989 0.00879858 88.9116 0L72.0131 0C71.4119 0 70.8353 0.23882 70.4102 0.663923C69.9851 1.08903 69.7463 1.66559 69.7463 2.26678V18.1015H54.5499C54.3595 18.1048 54.1701 18.1295 53.9853 18.1751C53.8032 18.1294 53.6165 18.1047 53.4288 18.1015H19.6972C19.096 18.1015 18.5195 18.3403 18.0944 18.7654C17.6693 19.1905 17.4304 19.7671 17.4304 20.3682V36.0065H2.26678C1.67047 36.0086 1.09881 36.2448 0.674867 36.6641C0.25092 37.0835 0.00857641 37.6525 0 38.2488V54.9263C0.0021563 55.5269 0.241669 56.1022 0.666305 56.5268C1.09094 56.9515 1.66625 57.191 2.26678 57.1931H17.4223V72.7414C17.4244 73.3419 17.6639 73.9172 18.0886 74.3419C18.5132 74.7665 19.0885 75.006 19.689 75.0082H53.4288C53.6171 75.0057 53.8042 74.9781 53.9853 74.9263C54.1663 74.9781 54.3534 75.0057 54.5417 75.0082H88.2733C88.8745 75.0082 89.4511 74.7694 89.8762 74.3443C90.3013 73.9192 90.5401 73.3426 90.5401 72.7414L90.5483 56.6285ZM73.126 53.7643V39.2799H87.1358V53.7561L73.126 53.7643ZM54.5417 53.7643H38.2651V39.4026H69.7136V53.7643H54.5417ZM55.6956 21.4975H87.1358V35.892H55.6956V21.4975ZM73.1178 3.41244H87.1358V17.7905H73.1178V3.41244ZM20.8429 21.5139H52.2831V35.892H20.8429V21.5139ZM3.41244 39.4026H34.8527V53.7807H3.41244V39.4026ZM20.8347 57.2095H52.275V71.5712H20.8347V57.2095ZM55.7038 71.563V57.1931H70.8592H70.9574H87.1358V71.5466L55.7038 71.563Z" fill="#17262F"></path></g><defs><clipPath id="clip0_5678_33640"><rect width="90.5565" height="75" fill="white"></rect></clipPath></defs></svg>