<svg xmlns="http://www.w3.org/2000/svg" width="90" height="90" viewBox="0 0 90 90" fill="none"><g clip-path="url(#clip0_5678_33080)"><path d="M87.9426 61.773L79.9972 52.3891C79.8215 52.1807 79.6026 52.0129 79.3557 51.8974C79.1088 51.7818 78.8397 51.7213 78.567 51.7201C78.2933 51.7218 78.0231 51.7824 77.7749 51.8979C77.5267 52.0134 77.3062 52.1809 77.1285 52.3891L70.6551 60.0752L64.1483 52.3891C63.9765 52.1826 63.7618 52.0158 63.5193 51.9003C63.2767 51.7848 63.0119 51.7233 62.7432 51.7201C62.4755 51.7189 62.2105 51.7742 61.9655 51.8823C61.7206 51.9904 61.5011 52.1488 61.3214 52.3473L54.4215 60.0752L48.3412 52.431C48.1725 52.2163 47.9581 52.042 47.7137 51.9204C47.4692 51.7989 47.2008 51.7333 46.9278 51.7284C46.6537 51.7106 46.3793 51.7573 46.1266 51.8648C45.8738 51.9723 45.6498 52.1376 45.4725 52.3473L39.4173 59.1385L37.2596 43.758C37.1987 43.3094 36.9767 42.8983 36.6351 42.6013C36.2935 42.3043 35.8555 42.1417 35.4029 42.1438H8.05409C7.60143 42.1417 7.16346 42.3043 6.82184 42.6013C6.48022 42.8983 6.25828 43.3094 6.19738 43.758L4.74043e-06 87.8589C-0.0384026 88.125 -0.0190886 88.3962 0.0566345 88.6542C0.132358 88.9122 0.262716 89.1508 0.438854 89.3539C0.614992 89.557 0.832784 89.7199 1.07743 89.8313C1.32208 89.9428 1.58786 90.0003 1.85671 90H41.6086C42.1062 90 42.5836 89.8029 42.9363 89.4518C43.2889 89.1007 43.4882 88.6242 43.4904 88.1265C43.4884 87.934 43.4603 87.7427 43.4068 87.5578V87.332H86.5459C86.7926 87.3331 87.0371 87.2854 87.2654 87.1918C87.4936 87.0981 87.7011 86.9603 87.876 86.7862C88.0508 86.6122 88.1896 86.4053 88.2843 86.1774C88.3789 85.9496 88.4277 85.7053 88.4277 85.4586V62.9857C88.4159 62.5366 88.2439 62.1064 87.9426 61.773ZM4.03123 86.2447L9.68498 45.899H33.772L39.4257 86.2447H4.03123ZM84.6306 83.5851H42.8129L40.0948 64.0061L46.7856 56.4789L52.4561 63.6047V78.659C52.4561 79.1559 52.6535 79.6324 53.0048 79.9837C53.3561 80.3351 53.8327 80.5324 54.3295 80.5324C54.8264 80.5324 55.3029 80.3351 55.6542 79.9837C56.0056 79.6324 56.203 79.1559 56.203 78.659V63.6047L62.7265 56.4622L68.8235 63.6716V78.7259C68.8064 78.983 68.8422 79.2409 68.9288 79.4836C69.0154 79.7263 69.1509 79.9487 69.3269 80.1368C69.5029 80.325 69.7157 80.475 69.9521 80.5776C70.1885 80.6802 70.4435 80.7331 70.7011 80.7331C70.9588 80.7331 71.2138 80.6802 71.4501 80.5776C71.6865 80.475 71.8994 80.325 72.0754 80.1368C72.2514 79.9487 72.3869 79.7263 72.4735 79.4836C72.5601 79.2409 72.5959 78.983 72.5788 78.7259V63.6716L78.6089 56.504L84.6724 63.6716L84.6306 83.5851Z" fill="#17262F"></path><path d="M88.7204 25.1826C76.1584 8.23808 62.7934 0 47.8645 0C44.3599 0.0168059 40.8678 0.420705 37.4519 1.20435C22.7154 4.47449 22.1383 23.167 22.3306 29.1051C20.7107 31.4268 19.4162 33.9594 18.4834 36.6323C18.4096 36.8673 18.3828 37.1146 18.4046 37.36C18.4264 37.6054 18.4965 37.8441 18.6107 38.0624C18.7249 38.2807 18.881 38.4743 19.0701 38.6322C19.2593 38.7901 19.4777 38.9091 19.7129 38.9824C20.1875 39.1293 20.7011 39.0825 21.1414 38.8521C21.5816 38.6218 21.913 38.2267 22.063 37.753C22.6815 36.0167 23.4833 34.3513 24.455 32.7851C33.0226 35.513 41.9679 36.8679 50.959 36.7996C63.8705 36.9023 76.6128 33.8596 88.0848 27.9342C88.3252 27.8078 88.5356 27.6311 88.7016 27.416C88.8675 27.201 88.9852 26.9527 89.0466 26.688C89.1053 26.4285 89.1066 26.1593 89.0503 25.8992C88.9939 25.6391 88.8813 25.3945 88.7204 25.1826ZM50.959 33.0694C42.7456 33.0799 34.5746 31.8909 26.7048 29.54C29.3971 26.0576 32.85 23.2369 36.7996 21.2936C45.8991 16.8609 57.4491 17.2372 71.1402 22.4059C71.606 22.5811 72.1224 22.5642 72.5757 22.3587C73.029 22.1532 73.3821 21.7761 73.5573 21.3103C73.7325 20.8445 73.7155 20.3281 73.5101 19.8748C73.3046 19.4216 72.9275 19.0685 72.4617 18.8932C57.7084 13.3817 45.1631 13.022 35.1269 17.9231C31.7976 19.5482 28.7754 21.7385 26.1946 24.3964C26.688 17.4714 28.9797 6.92501 38.2548 4.86758C41.4072 4.14331 44.63 3.77025 47.8645 3.75523C61.1876 3.75523 72.8297 10.7137 84.363 25.6342C73.9371 30.6163 62.5137 33.1589 50.959 33.0694Z" fill="#17262F"></path></g><defs><clipPath id="clip0_5678_33080"><rect width="89.0967" height="90" fill="white"></rect></clipPath></defs></svg>