<svg xmlns="http://www.w3.org/2000/svg" width="71" height="100" viewBox="0 0 71 100" fill="none"><g clip-path="url(#clip0_5678_33001)"><path d="M37.859 61.1958L42.988 60.6682C43.1051 60.6527 43.2205 60.6257 43.3324 60.5876C43.4552 60.5409 43.573 60.482 43.6841 60.4118L43.7573 60.3605H43.794C43.844 60.3178 43.8905 60.2713 43.9332 60.2213C43.9668 60.1914 43.9986 60.1596 44.0284 60.126V60.0821V60.0308C44.058 59.9885 44.0849 59.9444 44.109 59.8989C44.1354 59.8521 44.1575 59.8031 44.175 59.7523V59.6937L45.7283 55.3341C45.801 55.1311 45.8329 54.9157 45.8223 54.7004C45.8118 54.485 45.7589 54.2738 45.6667 54.0789C45.5745 53.884 45.4448 53.7091 45.285 53.5643C45.1253 53.4195 44.9385 53.3075 44.7355 53.2349C44.5325 53.1623 44.3171 53.1303 44.1018 53.1409C43.8864 53.1515 43.6752 53.2044 43.4803 53.2965C43.2854 53.3887 43.1105 53.5184 42.9657 53.6782C42.8209 53.838 42.7089 54.0247 42.6363 54.2277L42.0941 55.7444L40.299 52.9968L40.1671 52.8429C38.8335 51.502 37.3461 50.2564 35.4558 50.2564H35.3752C34.6152 50.31 33.8747 50.5214 33.201 50.8772C32.5274 51.2329 31.9352 51.7252 31.4625 52.3227C31.4104 52.3766 31.3638 52.4355 31.3233 52.4985L27.9235 57.393C27.7067 57.7519 27.6347 58.1798 27.7223 58.5899C27.8098 58.9999 28.0503 59.3611 28.3948 59.6001C28.7393 59.8391 29.1619 59.9379 29.5766 59.8763C29.9913 59.8148 30.367 59.5975 30.6272 59.2688L33.961 54.4622C34.326 53.992 34.8447 53.6651 35.4264 53.539C36.0566 53.539 37.0091 54.345 37.7418 55.085L39.7568 57.7008L37.5586 57.9279C37.1373 57.9677 36.7477 58.1686 36.471 58.4888C36.1944 58.809 36.052 59.2236 36.0738 59.6462C36.0955 60.0688 36.2797 60.4667 36.5877 60.7568C36.8958 61.0469 37.304 61.2068 37.7272 61.2031L37.859 61.1958Z" fill="#17262F"></path><path d="M50.3004 67.9367L46.7468 62.478C46.5097 62.1088 46.1357 61.8489 45.7069 61.7555C45.2782 61.662 44.83 61.7427 44.4607 61.9798C44.0915 62.2169 43.8316 62.5909 43.7382 63.0196C43.6447 63.4483 43.7254 63.8966 43.9625 64.2658L47.626 69.8051L47.7433 69.959C47.9256 70.1882 48.0423 70.4626 48.081 70.7529C48.1197 71.0432 48.079 71.3386 47.9631 71.6076C47.8601 71.8141 47.6955 71.9836 47.4921 72.0925C47.2886 72.2015 47.0564 72.2445 46.8274 72.2157H41.7644L42.8781 70.7503C43.1463 70.4073 43.2672 69.9718 43.2143 69.5397C43.1614 69.1075 42.939 68.7141 42.596 68.4459C42.253 68.1778 41.8175 68.0568 41.3854 68.1097C40.9532 68.1626 40.5598 68.385 40.2916 68.728L37.1043 72.8092C37.1022 72.8238 37.1022 72.8386 37.1043 72.8532C37.0724 72.8979 37.0431 72.9444 37.0164 72.9924L36.9578 73.0876C36.9578 73.0876 36.9578 73.0876 36.9578 73.1316C36.9375 73.1768 36.9204 73.2233 36.9065 73.2708C36.8899 73.3091 36.8752 73.3482 36.8626 73.3881C36.8585 73.4049 36.8585 73.4225 36.8626 73.4393C36.8585 73.4857 36.8585 73.5322 36.8626 73.5786C36.8584 73.62 36.8584 73.6617 36.8626 73.7031V73.8057C36.8626 73.8057 36.8626 73.8716 36.8626 73.9009V74.0109C36.8653 74.0352 36.8653 74.0598 36.8626 74.0841C36.8722 74.1336 36.8844 74.1825 36.8992 74.2307C36.8966 74.2624 36.8966 74.2942 36.8992 74.3259V74.3845C36.9142 74.4327 36.9339 74.4793 36.9578 74.5237C36.9694 74.5568 36.9841 74.5887 37.0018 74.619L37.0384 74.6703L37.1263 74.7949C37.1441 74.8271 37.1663 74.8567 37.1923 74.8828L40.5334 78.6635C40.6873 78.8384 40.8767 78.9785 41.0889 79.0745C41.3012 79.1705 41.5314 79.2203 41.7644 79.2204C42.1658 79.2192 42.5533 79.0736 42.8561 78.8101C43.1801 78.519 43.3764 78.1121 43.4024 77.6773C43.4285 77.2426 43.2822 76.8151 42.9953 76.4874L42.0648 75.4396H46.8494C47.704 75.4669 48.548 75.2444 49.2781 74.7993C50.0082 74.3543 50.5926 73.7059 50.9599 72.9338C51.3104 72.1187 51.4341 71.2241 51.318 70.3445C51.202 69.4648 50.8504 68.6329 50.3004 67.9367Z" fill="#17262F"></path><path d="M31.9168 72.4868L24.9121 72.5381C24.6127 72.5347 24.3195 72.4523 24.0621 72.2992C23.8048 72.1461 23.5925 71.9277 23.4467 71.6662C23.3527 71.456 23.3248 71.2223 23.3666 70.9959C23.4085 70.7695 23.5182 70.5612 23.6811 70.3986C23.7311 70.3464 23.7731 70.2872 23.8057 70.2227L26.2456 66.2221L27.1102 67.9587C27.2451 68.2325 27.4537 68.4633 27.7126 68.6251C27.9715 68.7869 28.2704 68.8733 28.5756 68.8746C28.8299 68.8786 29.0814 68.8208 29.3083 68.706C29.5012 68.6103 29.6732 68.4773 29.8145 68.3148C29.9558 68.1524 30.0636 67.9636 30.1317 67.7593C30.1998 67.555 30.2268 67.3393 30.2113 67.1246C30.1957 66.9098 30.1379 66.7002 30.041 66.5079L27.8429 62.1117V61.9944C27.8429 61.9505 27.7916 61.9065 27.7623 61.8699V61.8259L27.6744 61.7233C27.6471 61.6898 27.6177 61.658 27.5865 61.6281L27.5498 61.5841L27.4399 61.5035L27.33 61.4229L27.1102 61.3423L26.9783 61.2764H26.9197H26.8318H26.6852H26.5021H26.2822H26.1577H26.0698L20.3033 62.4047C19.9017 62.4817 19.5432 62.7058 19.2981 63.0332C19.053 63.3607 18.939 63.7678 18.9784 64.1749C19.0179 64.582 19.2079 64.9597 19.5112 65.234C19.8146 65.5084 20.2094 65.6595 20.6184 65.658C20.7256 65.6688 20.8336 65.6688 20.9408 65.658L23.0437 65.2476L21.0361 68.5375C20.5354 69.1772 20.2218 69.943 20.13 70.7501C20.0381 71.5571 20.1717 72.3738 20.5158 73.1096C20.9211 73.9155 21.54 74.5945 22.305 75.0726C23.0699 75.5507 23.9515 75.8094 24.8535 75.8206H24.9121H31.9241C32.3414 75.7928 32.7325 75.6073 33.0182 75.3019C33.3039 74.9965 33.4628 74.5939 33.4628 74.1757C33.4628 73.7575 33.3039 73.3549 33.0182 73.0495C32.7325 72.7441 32.3414 72.5586 31.9241 72.5308L31.9168 72.4868Z" fill="#17262F"></path><path d="M45.0249 25.0513C45.0089 24.913 44.9744 24.7774 44.9223 24.6483C44.6633 23.6442 44.2845 22.675 43.794 21.7614C41.8083 18.0612 39.3977 13.7969 37.7271 10.8734C37.4168 10.3275 36.9557 9.88256 36.3991 9.59186C35.8425 9.30115 35.2139 9.17697 34.5886 9.23417C33.9633 9.29137 33.3676 9.52753 32.873 9.91439C32.3784 10.3013 32.0057 10.8224 31.7995 11.4156C29.7773 17.226 27.3593 24.7509 27.352 27.6231C27.352 29.5941 28.5097 32.0193 30.3268 33.8804C31.1127 34.7207 32.0575 35.3968 33.1064 35.8697C34.1552 36.3426 35.2875 36.6028 36.4376 36.6354C37.1313 36.6345 37.8216 36.5384 38.4892 36.3496C39.8334 35.963 41.0749 35.2825 42.1241 34.3575C43.1733 33.4325 44.0039 32.286 44.556 31.0009C45.3346 29.1165 45.4987 27.0344 45.0249 25.0513ZM37.859 17.7901C36.5898 16.9135 35.2603 16.1276 33.8804 15.4381C34.1955 14.493 34.5252 13.5185 34.8769 12.5073C35.7268 14.002 36.7746 15.8485 37.859 17.7901ZM41.5226 29.7113C41.1649 30.5434 40.6271 31.2858 39.948 31.8851C39.2689 32.4844 38.4654 32.9256 37.5953 33.177C37.2161 33.2839 36.8241 33.3382 36.4302 33.3382C34.9876 33.2543 33.6331 32.6164 32.6495 31.5577C31.5405 30.5256 30.8255 29.1396 30.6272 27.6377C30.6272 26.3335 31.4405 23.1023 32.8253 18.6108C36.3126 20.3902 39.3839 22.8872 41.8376 25.9379C42.1238 27.1975 42.0164 28.5147 41.5299 29.7113H41.5226Z" fill="#17262F"></path><path d="M69.4388 60.4631C64.6175 37.8371 40.4895 5.64918 38.284 2.74766C38.2866 2.72821 38.2866 2.7085 38.284 2.68904C36.8626 0.674097 35.2799 -0.241788 33.602 0.0439678C32.7325 0.209308 31.9332 0.633226 31.3086 1.26026C30.7659 0.843443 30.142 0.54469 29.4771 0.383178C28.8121 0.221666 28.1207 0.200963 27.4473 0.322397C24.9267 0.84262 23.051 3.45106 21.7468 8.31624C20.9154 11.6426 20.4026 15.0406 20.2154 18.4642C19.8784 22.4575 19.5633 26.2236 17.8048 30.3121C14.6542 36.1298 10.7195 42.9514 5.68582 50.7694C3.04829 54.8056 1.27801 59.3458 0.487176 64.1021C-0.303653 68.8584 -0.0977824 73.7272 1.09174 78.3998C3.66354 88.24 11.7233 100 35.17 100C35.3065 100 35.4422 99.9804 35.573 99.9414C48.41 99.7216 57.862 96.1386 63.665 89.2585C71.4024 80.0777 70.6111 67.3139 69.4388 60.4631ZM23.4906 18.7353C23.6643 15.5222 24.1427 12.3328 24.9194 9.21015C26.2383 4.33031 27.689 3.67087 28.0994 3.58295C28.3296 3.56337 28.5614 3.58954 28.7815 3.65996C29.0016 3.73038 29.2055 3.84366 29.3816 3.99326C29.0462 4.67205 28.7621 5.37497 28.5317 6.09614C28.5317 6.17673 27.352 10.5803 23.4686 19.0284L23.4906 18.7353ZM61.1518 87.141C55.8104 93.4716 46.7761 96.6662 34.2981 96.6662H34.1955C17.6216 96.4244 7.53957 89.9912 4.26437 77.5205C3.19679 73.2917 3.01739 68.8875 3.73748 64.5858C4.45758 60.2841 6.06153 56.1785 8.44813 52.5279C27.4473 23.0364 31.5504 7.51759 31.6896 6.96806C32.2025 5.3561 33.3602 3.39977 34.0783 3.30452C34.2541 3.30452 34.7597 3.50235 35.4777 4.47685L35.5364 4.5721C35.7928 4.90915 61.4303 38.6723 66.2075 61.0932C67.27 67.3066 68.032 78.9786 61.1518 87.141Z" fill="#17262F"></path></g><defs><clipPath id="clip0_5678_33001"><rect width="70.1788" height="100" fill="white"></rect></clipPath></defs></svg>