<svg xmlns="http://www.w3.org/2000/svg" width="74" height="85" viewBox="0 0 74 85" fill="none"><g clip-path="url(#clip0_5678_33085)"><path d="M65.2804 4.16387e-05H7.93928C5.83435 0.00231111 3.81628 0.839497 2.32787 2.32791C0.839456 3.81632 0.00226947 5.83439 0 7.93932L0 10.4343C0.0028982 12.3052 0.6657 14.1151 1.87173 15.5454C3.07775 16.9756 4.74969 17.9346 6.5932 18.2535L15.6042 80.3531C15.7966 81.6409 16.4436 82.8173 17.428 83.6696C18.4124 84.5219 19.6693 84.9939 20.9714 85H54.0145C55.3166 84.9939 56.5735 84.5219 57.5579 83.6696C58.5423 82.8173 59.1893 81.6409 59.3817 80.3531L68.4698 17.7648C69.89 17.1474 71.0991 16.129 71.9489 14.8345C72.7987 13.54 73.2522 12.0257 73.254 10.4771V7.93932C73.2529 6.89415 73.0456 5.85946 72.6441 4.89449C72.2426 3.92952 71.6546 3.05323 70.914 2.31577C70.1734 1.57832 69.2945 0.994187 68.3279 0.596821C67.3612 0.199455 66.3256 -0.0033414 65.2804 4.16387e-05ZM55.575 79.8044C55.5203 80.1819 55.3334 80.5278 55.0477 80.7805C54.762 81.0333 54.3959 81.1765 54.0145 81.1847H20.9714C20.5835 81.1832 20.209 81.0433 19.9151 80.7902C19.6212 80.5372 19.4273 80.1876 19.3681 79.8044L12.209 30.4197H62.7426L55.575 79.8044ZM69.4473 10.4343C69.4484 10.9806 69.3412 11.5217 69.1319 12.0263C68.9226 12.531 68.6153 12.9891 68.2278 13.3742C67.8403 13.7593 67.3803 14.0637 66.8744 14.2699C66.3685 14.4761 65.8267 14.5799 65.2804 14.5754H60.925C60.4202 14.5754 59.936 14.7759 59.5791 15.1329C59.2221 15.4898 59.0216 15.974 59.0216 16.4788C59.0216 16.9836 59.2221 17.4677 59.5791 17.8246C59.936 18.1816 60.4202 18.3821 60.925 18.3821H64.4916L63.2913 26.5786H11.6517L10.46 18.3736H18.7679C19.2727 18.3736 19.7568 18.173 20.1138 17.8161C20.4707 17.4591 20.6713 16.975 20.6713 16.4702C20.6713 15.9654 20.4707 15.4812 20.1138 15.1243C19.7568 14.7673 19.2727 14.5668 18.7679 14.5668H7.93928C6.84326 14.5668 5.79213 14.1314 5.01713 13.3564C4.24213 12.5814 3.80674 11.5303 3.80674 10.4343V7.93932C3.80674 6.8433 4.24213 5.79217 5.01713 5.01717C5.79213 4.24217 6.84326 3.80678 7.93928 3.80678H65.2804C65.826 3.80225 66.3671 3.9058 66.8724 4.11145C67.3778 4.3171 67.8374 4.62079 68.2248 5.00498C68.6121 5.38917 68.9196 5.84627 69.1294 6.3499C69.3393 6.85353 69.4473 7.39373 69.4473 7.93932V10.4343Z" fill="#17262F"></path><path d="M55.8064 40.1509H42.5514C42.0466 40.1509 41.5625 39.9503 41.2056 39.5934C40.8486 39.2364 40.6481 38.7523 40.6481 38.2475C40.6481 37.7427 40.8486 37.2586 41.2056 36.9016C41.5625 36.5446 42.0466 36.3441 42.5514 36.3441H55.8064C56.3112 36.3441 56.7954 36.5446 57.1523 36.9016C57.5093 37.2586 57.7098 37.7427 57.7098 38.2475C57.7098 38.7523 57.5093 39.2364 57.1523 39.5934C56.7954 39.9503 56.3112 40.1509 55.8064 40.1509Z" fill="#17262F"></path><path d="M51.4424 46.1096H45.4408C44.936 46.1096 44.4518 45.9091 44.0949 45.5521C43.7379 45.1952 43.5374 44.711 43.5374 44.2062C43.5374 43.7014 43.7379 43.2173 44.0949 42.8603C44.4518 42.5034 44.936 42.3029 45.4408 42.3029H51.4424C51.9472 42.3029 52.4313 42.5034 52.7883 42.8603C53.1452 43.2173 53.3458 43.7014 53.3458 44.2062C53.3458 44.711 53.1452 45.1952 52.7883 45.5521C52.4313 45.9091 51.9472 46.1096 51.4424 46.1096Z" fill="#17262F"></path><path d="M50.585 57.5641H44.5834C44.0786 57.5641 43.5945 57.3635 43.2375 57.0066C42.8806 56.6496 42.6801 56.1655 42.6801 55.6607C42.6801 55.1559 42.8806 54.6718 43.2375 54.3148C43.5945 53.9579 44.0786 53.7573 44.5834 53.7573H50.585C51.0898 53.7573 51.574 53.9579 51.9309 54.3148C52.2879 54.6718 52.4884 55.1559 52.4884 55.6607C52.4884 56.1655 52.2879 56.6496 51.9309 57.0066C51.574 57.3635 51.0898 57.5641 50.585 57.5641Z" fill="#17262F"></path><path d="M49.1789 69.5759H43.1773C42.6725 69.5759 42.1884 69.3754 41.8314 69.0184C41.4745 68.6615 41.274 68.1773 41.274 67.6725C41.274 67.1677 41.4745 66.6836 41.8314 66.3266C42.1884 65.9697 42.6725 65.7692 43.1773 65.7692H49.1789C49.6837 65.7692 50.1679 65.9697 50.5248 66.3266C50.8818 66.6836 51.0823 67.1677 51.0823 67.6725C51.0823 68.1773 50.8818 68.6615 50.5248 69.0184C50.1679 69.3754 49.6837 69.5759 49.1789 69.5759Z" fill="#17262F"></path><path d="M54.5804 51.8882H41.3254C40.8416 51.8557 40.3881 51.6406 40.0569 51.2865C39.7257 50.9323 39.5414 50.4655 39.5414 49.9805C39.5414 49.4956 39.7257 49.0288 40.0569 48.6746C40.3881 48.3204 40.8416 48.1053 41.3254 48.0729H54.5804C55.0642 48.1053 55.5177 48.3204 55.8489 48.6746C56.1801 49.0288 56.3644 49.4956 56.3644 49.9805C56.3644 50.4655 56.1801 50.9323 55.8489 51.2865C55.5177 51.6406 55.0642 51.8557 54.5804 51.8882Z" fill="#17262F"></path><path d="M53.3629 63.6172H40.1079C39.6031 63.6172 39.119 63.4166 38.762 63.0597C38.4051 62.7027 38.2046 62.2186 38.2046 61.7138C38.2046 61.209 38.4051 60.7249 38.762 60.3679C39.119 60.011 39.6031 59.8104 40.1079 59.8104H53.3629C53.8677 59.8104 54.3519 60.011 54.7088 60.3679C55.0658 60.7249 55.2663 61.209 55.2663 61.7138C55.2663 62.2186 55.0658 62.7027 54.7088 63.0597C54.3519 63.4166 53.8677 63.6172 53.3629 63.6172Z" fill="#17262F"></path><path d="M52.1369 75.3459H38.8819C38.6319 75.3459 38.3844 75.2967 38.1535 75.201C37.9226 75.1054 37.7127 74.9652 37.536 74.7884C37.3593 74.6117 37.2191 74.4019 37.1234 74.1709C37.0277 73.94 36.9785 73.6925 36.9785 73.4426C36.9785 73.1926 37.0277 72.9451 37.1234 72.7142C37.2191 72.4832 37.3593 72.2734 37.536 72.0967C37.7127 71.9199 37.9226 71.7797 38.1535 71.6841C38.3844 71.5884 38.6319 71.5392 38.8819 71.5392H52.1369C52.6417 71.5392 53.1258 71.7397 53.4828 72.0967C53.8397 72.4536 54.0402 72.9377 54.0402 73.4426C54.0402 73.9474 53.8397 74.4315 53.4828 74.7884C53.1258 75.1454 52.6417 75.3459 52.1369 75.3459Z" fill="#17262F"></path><path d="M23.0033 65.0918C22.5461 65.0907 22.1044 64.9258 21.7583 64.6269C21.4123 64.328 21.1848 63.9151 21.1171 63.4628L18.5021 45.5009C18.4661 45.2532 18.4792 45.0008 18.5407 44.7582C18.6022 44.5155 18.7109 44.2874 18.8606 44.0867C19.0103 43.8861 19.198 43.7169 19.413 43.5889C19.6281 43.4608 19.8663 43.3763 20.114 43.3403C20.3617 43.3043 20.6141 43.3174 20.8567 43.3789C21.0993 43.4404 21.3275 43.5491 21.5281 43.6987C21.7287 43.8484 21.8979 44.0361 22.026 44.2512C22.1541 44.4663 22.2385 44.7044 22.2746 44.9521L24.8638 62.9141C24.9349 63.4131 24.8051 63.92 24.5029 64.3234C24.2007 64.7269 23.7508 64.994 23.252 65.0661L23.0033 65.0918Z" fill="#17262F"></path></g><defs><clipPath id="clip0_5678_33085"><rect width="73.2197" height="85" fill="white"></rect></clipPath></defs></svg>