<svg xmlns="http://www.w3.org/2000/svg" width="87" height="90" viewBox="0 0 87 90" fill="none"><g clip-path="url(#clip0_5678_33613)"><path d="M46.5298 31.7007C47.7928 31.7021 49.0278 31.3288 50.0785 30.6281C51.1292 29.9273 51.9484 28.9306 52.4324 27.764C52.9164 26.5974 53.0434 25.3135 52.7974 24.0747C52.5513 22.836 51.9433 21.698 51.0503 20.805C50.1572 19.9119 49.0193 19.3039 47.7805 19.0578C46.5417 18.8118 45.2578 18.9388 44.0912 19.4228C42.9247 19.9068 41.9279 20.726 41.2271 21.7767C40.5264 22.8274 40.1531 24.0625 40.1545 25.3254C40.1584 27.0151 40.8313 28.6344 42.0261 29.8291C43.2208 31.0239 44.8402 31.6968 46.5298 31.7007ZM46.5298 22.0317C47.1815 22.0302 47.8191 22.2222 48.3617 22.5832C48.9043 22.9443 49.3276 23.4582 49.578 24.0599C49.8285 24.6616 49.8947 25.3241 49.7685 25.9635C49.6422 26.6029 49.3291 27.1905 48.8687 27.6519C48.4084 28.1132 47.8215 28.4277 47.1824 28.5553C46.5433 28.683 45.8806 28.6182 45.2783 28.3692C44.6761 28.1201 44.1612 27.6979 43.799 27.1561C43.4367 26.6143 43.2434 25.9772 43.2434 25.3254C43.2453 24.4537 43.5919 23.6182 44.2076 23.0011C44.8233 22.384 45.6581 22.0355 46.5298 22.0317Z" fill="#17262F"></path><path d="M85.2204 76.3419C85.2827 76.2763 85.339 76.2052 85.3887 76.1296C89.5535 69.7837 81.6558 60.5392 76.6054 55.5986C75.4981 54.5188 74.0128 53.9145 72.4662 53.9145C70.9197 53.9145 69.4344 54.5188 68.3271 55.5986C63.2547 60.5392 55.357 69.7837 59.5438 76.1296C59.5958 76.2035 59.652 76.2744 59.7121 76.3419C62.9985 79.8552 65.9702 81.2533 70.9401 81.4655V86.9039H39.913V72.6602C55.5473 69.4836 67.4195 54.5519 67.4195 36.6485C67.4195 16.4395 52.2975 0 33.7061 0C15.1147 0 0 16.4395 0 36.6485C0 54.5519 11.8722 69.4836 27.5065 72.6602V86.9112H17.9034C17.4938 86.9112 17.101 87.0739 16.8113 87.3635C16.5217 87.6532 16.359 88.046 16.359 88.4556C16.359 88.8652 16.5217 89.258 16.8113 89.5477C17.101 89.8373 17.4938 90 17.9034 90H83.7126C84.1222 90 84.515 89.8373 84.8046 89.5477C85.0943 89.258 85.257 88.8652 85.257 88.4556C85.257 88.046 85.0943 87.6532 84.8046 87.3635C84.515 87.0739 84.1222 86.9112 83.7126 86.9112H73.9923V81.4728C78.9623 81.2459 81.934 79.8552 85.2204 76.3419ZM3.08881 36.6485C3.08881 18.1449 16.8347 3.08881 33.7061 3.08881C50.5774 3.08881 64.3307 18.1449 64.3307 36.6485C64.3307 55.1521 50.5921 70.2009 33.7061 70.2009C16.8201 70.2009 3.08881 55.1521 3.08881 36.6485ZM30.6026 73.136C31.6274 73.2384 32.6594 73.297 33.7061 73.297C34.7528 73.297 35.7921 73.2384 36.8168 73.136V86.9112H30.6026V73.136ZM62.025 74.329C59.6828 70.4937 64.8284 63.2986 70.4644 57.8237C71.0045 57.3278 71.7111 57.0527 72.4443 57.0527C73.1775 57.0527 73.8841 57.3278 74.4242 57.8237C80.0602 63.3133 85.2058 70.5083 82.8708 74.3437C79.9431 77.4691 77.5716 78.406 72.6236 78.4353C72.5531 78.4277 72.4819 78.4277 72.4114 78.4353C72.3384 78.4277 72.2648 78.4277 72.1918 78.4353C67.339 78.3913 64.9748 77.4545 62.025 74.329Z" fill="#17262F"></path></g><defs><clipPath id="clip0_5678_33613"><rect width="86.5599" height="90" fill="white"></rect></clipPath></defs></svg>