<svg xmlns="http://www.w3.org/2000/svg" width="154" height="110" viewBox="0 0 154 110" fill="none"><g clip-path="url(#clip0_5678_18108)"><path d="M106.155 65.896L87.7045 55.2519V0.335815L106.155 10.9799V65.896Z" fill="#8A4508"></path><path d="M106.155 65.8959L128.165 53.1868V10.644L106.155 10.9798V65.8959Z" fill="#EB9500"></path><path d="M87.7045 0.335775L106.155 10.9799L128.182 10.6441L109.715 0L87.7045 0.335775Z" fill="#F0BE3A"></path><path d="M9.95574 99.7253L8.69658 99.0034V81.7949L9.95574 82.5336V99.7253Z" fill="#0091B5"></path><path d="M9.95574 99.7252L12.3565 98.3485V84.2124L9.95574 85.5891V99.7252Z" fill="#72BDF4"></path><path d="M28.5913 88.9805L27.0467 88.0907V71.6377L28.5913 72.5275V88.9805Z" fill="#0091B5"></path><path d="M28.5913 88.9804L30.9753 87.6037V73.4508L28.5913 74.8275V88.9804Z" fill="#72BDF4"></path><path d="M47.2268 78.2189L45.3968 77.1612V61.4973L47.2268 62.5382V78.2189Z" fill="#0091B5"></path><path d="M47.2268 78.2189L49.6108 76.8422V62.7061L47.2268 64.0827V78.2189Z" fill="#72BDF4"></path><path d="M65.8623 67.4573L63.7469 66.2485V51.3401L65.8623 52.5489V67.4573Z" fill="#0091B5"></path><path d="M65.8623 67.4573L68.2463 66.0806V51.9445L65.8623 53.3211V67.4573Z" fill="#72BDF4"></path><path d="M84.4811 56.6957L82.0971 55.319V41.1829L84.4811 42.5595V56.6957Z" fill="#0091B5"></path><path d="M84.4811 56.6957L86.8651 55.319V41.1829L84.4811 42.5595V56.6957Z" fill="#72BDF4"></path><path d="M142.386 74.072L117.169 59.5329V37.4893L142.386 52.0283V74.072Z" fill="#AC5200"></path><path d="M142.386 74.072L153.399 67.7091V45.6654L142.386 52.0283V74.072Z" fill="#EB9500"></path><path d="M117.169 37.4893L142.386 52.0284L153.399 45.6655L128.165 31.1432L117.169 37.4893Z" fill="#676F70"></path><path d="M139.431 54.597L114.214 40.0076V36.7338L139.431 51.3232V54.597Z" fill="#C76414"></path><path d="M139.431 54.597L153.399 46.5384V39.0842L139.431 51.3232V54.597Z" fill="#EB9500"></path><path d="M114.214 36.7339L139.431 51.3233L153.399 39.0843L128.165 24.4949L114.214 36.7339Z" fill="#F0BE3A"></path><path d="M120.04 37.0025L119.821 36.1798L147.993 40.4442L139.246 48.1166L120.04 37.0025Z" fill="#545454"></path><path d="M119.821 36.1798L128.568 28.5242L147.775 39.6383L139.028 47.294L119.821 36.1798Z" fill="#E0E0E0"></path><path d="M127.007 33.3593L129.324 31.3446L142.537 38.9835L140.203 40.9814L127.007 33.3593Z" fill="#7898C8"></path><path d="M103.402 54.0935L83.2219 42.4253V38.7485L103.402 50.4167V54.0935Z" fill="#2197CB"></path><path d="M9.95574 82.5336L85.7402 38.7485L84.4811 38.0266L8.69658 81.7949L9.95574 82.5336Z" fill="#60B8EF"></path><path d="M102.126 49.678L84.4811 39.4872V38.0266L104.661 49.678H102.126Z" fill="#98D7FE"></path><path d="M9.95574 85.5891L85.7402 42.4252L84.4811 39.4872L9.95574 82.5336V85.5891Z" fill="#006082"></path><path d="M2.07099e-06 90.4747C-0.00113232 88.7053 0.463777 86.9669 1.34795 85.4344C2.23212 83.9018 3.50435 82.6292 5.03663 81.7445L78.3364 39.2857C78.9706 38.9213 79.6927 38.7381 80.4239 38.7558C81.1551 38.7736 81.8674 38.9917 82.4832 39.3864L99.272 49.3254L17.5107 102.848L2.51832 94.185C2.16186 94.0445 1.82809 93.8521 1.52778 93.6142C1.05213 93.2406 0.66748 92.7639 0.402834 92.2201C0.138189 91.6763 0.000450438 91.0795 2.07099e-06 90.4747Z" fill="#676F70"></path><path fill-rule="evenodd" clip-rule="evenodd" d="M28.2387 95.1923L5.03663 81.7781C3.50928 82.6599 2.2402 83.9272 1.35633 85.4534C0.472452 86.9796 0.00475152 88.711 0 90.4747C0.000448367 91.0795 0.138187 91.6763 0.402832 92.2201C0.667478 92.7639 1.05212 93.2406 1.52778 93.6142C1.82808 93.8521 2.16186 94.0445 2.51832 94.185L17.5107 102.848L28.2387 95.1923Z" fill="#555A5C"></path><path fill-rule="evenodd" clip-rule="evenodd" d="M21.7079 99.8428L0.436508 87.5702C0.154239 88.5128 0.00726861 89.4907 0 90.4746C0.000448367 91.0795 0.138187 91.6763 0.402832 92.2201C0.667478 92.7639 1.05212 93.2406 1.52778 93.6141C1.82808 93.8521 2.16186 94.0444 2.51831 94.185L17.5107 102.848L21.7079 99.8428Z" fill="#3C3E40"></path><path d="M21.3721 91.2974L94.6719 48.8386C95.2829 48.4758 95.9793 48.2818 96.6899 48.2765C97.4004 48.2711 98.0997 48.4545 98.7161 48.808C99.3326 49.1615 99.8441 49.6723 100.198 50.2883C100.553 50.9043 100.737 51.6033 100.733 52.3138C100.731 54.0803 100.264 55.8153 99.3805 57.3446C98.4964 58.874 97.2258 60.144 95.696 61.0272L22.3459 103.486C21.7373 103.837 21.0469 104.022 20.3443 104.021C19.6416 104.021 18.9515 103.835 18.3437 103.482C17.7358 103.13 17.2316 102.623 16.882 102.014C16.5324 101.404 16.3496 100.713 16.3523 100.011C16.3524 98.2459 16.8161 96.5121 17.6971 94.9828C18.5781 93.4536 19.8454 92.1827 21.3721 91.2974Z" fill="#424547"></path><path d="M20.348 102.092C20.665 102.09 20.9765 102.01 21.2546 101.857L94.5376 59.3986C95.7346 58.7075 96.729 57.7141 97.4214 56.5179C98.1138 55.3217 98.4799 53.9645 98.4829 52.5824C98.4829 52.1015 98.2919 51.6403 97.9518 51.3002C97.6118 50.9602 97.1506 50.7692 96.6697 50.7692C96.3554 50.7682 96.0471 50.8554 95.7799 51.021L22.4802 93.463C21.285 94.1589 20.2932 95.1562 19.6038 96.3552C18.9145 97.5542 18.5517 98.913 18.5516 100.296C18.5428 100.537 18.5863 100.778 18.679 101.001C18.7718 101.224 18.9115 101.425 19.0888 101.589C19.4304 101.909 19.8799 102.089 20.348 102.092Z" fill="black"></path><path d="M89.4002 58.0555C90.4076 57.4636 91.2726 56.6575 91.9341 55.6943C92.5956 54.7312 93.0373 53.6344 93.228 52.4816L95.7799 51.021C96.0471 50.8554 96.3554 50.7682 96.6697 50.7692C97.1506 50.7692 97.6118 50.9602 97.9518 51.3002C98.2919 51.6403 98.4829 52.1015 98.4829 52.5824C98.4799 53.9645 98.1138 55.3217 97.4214 56.5179C96.729 57.7141 95.7346 58.7075 94.5376 59.3986L21.2546 101.857C20.9765 102.01 20.665 102.09 20.348 102.092C19.8799 102.089 19.4304 101.909 19.0888 101.589C18.9115 101.425 18.7718 101.224 18.679 101.001C18.5863 100.778 18.5428 100.537 18.5516 100.296C18.5511 99.8743 18.5848 99.4532 18.6523 99.0369L89.4002 58.0555Z" fill="url(#paint0_linear_5678_18108)"></path><path d="M19.4582 100.179C19.5825 100.177 19.7042 100.142 19.8107 100.078L93.0937 57.6191C94.121 57.026 94.9729 56.1714 95.5627 55.1422C96.1525 54.113 96.4591 52.946 96.4515 51.7598C96.4504 51.6365 96.417 51.5157 96.3547 51.4094C96.2923 51.3031 96.2032 51.215 96.0962 51.1538C95.9892 51.0927 95.868 51.0606 95.7448 51.0609C95.6215 51.0612 95.5005 51.0938 95.3938 51.1554L22.1444 93.6142C21.1171 94.2073 20.2652 95.0619 19.6754 96.0911C19.0856 97.1202 18.779 98.2873 18.7866 99.4735C18.7823 99.5669 18.798 99.6603 18.8327 99.7472C18.8675 99.834 18.9205 99.9125 18.9881 99.9771C19.1158 100.098 19.2825 100.17 19.4582 100.179Z" fill="#A85D00"></path><path d="M23.8904 92.9258L24.4612 93.2616L91.5827 54.4628L91.0119 54.1438L23.8904 92.9258Z" fill="#E58919"></path><path d="M24.4612 93.2616V96.0485L91.5827 57.2497V54.4628L24.4612 93.2616Z" fill="#CC7A16"></path><path d="M23.8904 92.9258L24.4612 93.2616V96.0485L23.8904 95.7127V92.9258Z" fill="#AB6613"></path><path d="M95.2821 54.6588C95.985 53.4802 95.9995 52.1936 95.3147 51.7852C94.6298 51.3768 93.5048 52.0012 92.8019 53.1798C92.0991 54.3584 92.0845 55.6449 92.7693 56.0534C93.4542 56.4618 94.5792 55.8374 95.2821 54.6588Z" fill="#E0B350"></path><path d="M95.5281 53.0693C95.4962 53.5839 95.3426 54.0836 95.0799 54.5272C94.8172 54.9709 94.4529 55.3458 94.0171 55.6212C93.1944 56.0913 92.5229 55.722 92.5229 54.7818C92.5529 54.2687 92.704 53.77 92.9637 53.3265C93.2234 52.883 93.5843 52.5072 94.0171 52.2299C94.8565 51.7598 95.5281 52.1292 95.5281 53.0693Z" fill="#A85D00"></path><path d="M94.7808 54.3726C95.2178 53.64 95.2298 52.842 94.8077 52.5903C94.3857 52.3386 93.6893 52.7285 93.2524 53.4611C92.8155 54.1938 92.8034 54.9918 93.2255 55.2435C93.6476 55.4952 94.3439 55.1053 94.7808 54.3726Z" fill="#CD8B19"></path><path d="M94.3193 52.5657C94.2112 52.5825 94.1081 52.6226 94.0171 52.6832C93.6988 52.8888 93.4329 53.1658 93.2405 53.4922C93.0482 53.8187 92.9347 54.1855 92.909 54.5635C92.9107 54.72 92.945 54.8744 93.0098 55.0168L94.0171 54.8154C94.4032 54.4796 94.4536 54.0935 94.6887 53.5898L94.3193 52.5657Z" fill="#B86A0B"></path><path d="M94.3529 54.3788C94.3529 54.2445 94.4704 54.0934 94.5376 53.9423C94.1197 53.7782 93.7292 53.5518 93.3791 53.2708C93.1984 53.5258 93.0622 53.8096 92.9762 54.1102C93.4469 54.1216 93.9124 54.2124 94.3529 54.3788Z" fill="#DE9B16"></path><path d="M95.1084 53.724C95.097 53.9934 95.0208 54.2562 94.8864 54.49C94.752 54.7237 94.5632 54.9217 94.3361 55.0671C93.8996 55.3189 93.547 55.0671 93.547 54.6306C93.5602 54.3596 93.6389 54.0959 93.7763 53.862C93.9138 53.6281 94.1058 53.431 94.3361 53.2875C94.7558 53.1028 95.1084 53.3043 95.1084 53.724Z" fill="#B86A0B"></path><path d="M94.8733 54.0935C94.8663 54.2386 94.8246 54.38 94.7515 54.5056C94.6785 54.6313 94.5763 54.7375 94.4536 54.8154C94.2186 54.9497 94.0339 54.8154 94.0339 54.5803C94.0408 54.4352 94.0826 54.2938 94.1557 54.1682C94.2287 54.0425 94.3309 53.9363 94.4536 53.8584C94.6886 53.7241 94.8733 53.8248 94.8733 54.0935Z" fill="#E0981B"></path><path d="M23.7561 94.7726C23.7235 95.3824 23.5467 95.9758 23.2403 96.504C22.9338 97.0323 22.5065 97.4803 21.9933 97.8113C21.0027 98.3821 20.2137 97.9288 20.2137 96.8208C20.2495 96.2098 20.4294 95.6159 20.7387 95.0878C21.048 94.5596 21.4779 94.1122 21.9933 93.782C22.967 93.228 23.7561 93.6645 23.7561 94.7726Z" fill="#E0B350"></path><path d="M23.5043 94.9404C23.4774 95.4523 23.3295 95.9506 23.0727 96.3942C22.8158 96.8378 22.4574 97.2142 22.0269 97.4923C21.1874 97.9624 20.5327 97.5931 20.5327 96.6529C20.5627 96.1398 20.7138 95.6411 20.9735 95.1976C21.2331 94.7541 21.5941 94.3783 22.0269 94.101C22.8159 93.6309 23.5043 94.0171 23.5043 94.9404Z" fill="#A85D00"></path><path d="M22.7269 96.2577C23.1638 95.525 23.1758 94.727 22.7538 94.4753C22.3317 94.2236 21.6353 94.6135 21.1984 95.3461C20.7615 96.0788 20.7495 96.8768 21.1715 97.1285C21.5936 97.3802 22.29 96.9903 22.7269 96.2577Z" fill="#CD8B19"></path><path d="M22.2787 94.4368C22.1706 94.4536 22.0675 94.4937 21.9765 94.5543C21.6554 94.7568 21.3874 95.0332 21.1947 95.3602C21.0019 95.6873 20.8901 96.0556 20.8684 96.4346C20.8621 96.5919 20.8968 96.7481 20.9692 96.8879L21.9765 96.6865C22.2918 96.3377 22.5167 95.9169 22.6313 95.4609L22.2787 94.4368Z" fill="#B86A0B"></path><path d="M22.2955 96.25C22.3758 96.111 22.4432 95.9649 22.4969 95.8135C22.0759 95.6561 21.6843 95.4291 21.3385 95.142C21.1543 95.4011 21.0178 95.6911 20.9356 95.9982C21.4001 96.0025 21.8603 96.0877 22.2955 96.25Z" fill="#DE9B16"></path><path d="M23.0678 95.696C23.0545 95.9669 22.9758 96.2307 22.8384 96.4646C22.701 96.6985 22.5089 96.8956 22.2787 97.0391C21.859 97.2909 21.5064 97.0391 21.5064 96.6026C21.5178 96.3331 21.5939 96.0704 21.7284 95.8366C21.8628 95.6028 22.0516 95.4049 22.2787 95.2595C22.7152 94.9909 23.0678 95.1755 23.0678 95.696Z" fill="#B86A0B"></path><path d="M22.8327 95.9646C22.8257 96.1097 22.784 96.2511 22.7109 96.3767C22.6379 96.5024 22.5357 96.6086 22.413 96.6865C22.178 96.8208 21.9933 96.6865 21.9933 96.4514C22.0003 96.3063 22.042 96.1649 22.1151 96.0393C22.1881 95.9136 22.2903 95.8074 22.413 95.7295C22.648 95.5952 22.8327 95.6959 22.8327 95.9646Z" fill="#E0981B"></path><g style="mix-blend-mode:multiply"><path d="M95.7799 52.6832C95.657 52.6792 95.5353 52.7081 95.4274 52.7671L22.1444 95.2259C21.2982 95.7222 20.5681 96.3941 20.0034 97.1963C19.4387 97.9985 19.0524 98.9124 18.8706 99.8764C18.7924 99.7567 18.7515 99.6165 18.7531 99.4735C18.7454 98.2873 19.0521 97.1202 19.6418 96.0911C20.2316 95.0619 21.0835 94.2073 22.1108 93.6142L95.4274 51.1554C95.5341 51.0938 95.6551 51.0612 95.7784 51.0609C95.9016 51.0606 96.0228 51.0927 96.1298 51.1538C96.2368 51.215 96.3259 51.3031 96.3882 51.4094C96.4506 51.5157 96.484 51.6365 96.485 51.7598C96.48 52.1709 96.4407 52.5808 96.3675 52.9854C96.2965 52.8963 96.2074 52.8234 96.1061 52.7713C96.0048 52.7192 95.8937 52.6892 95.7799 52.6832Z" fill="#8C7900"></path></g><path d="M23.2189 90.2396L22.5305 90.6258L6.09432 81.1401L6.76587 80.7372L23.2189 90.2396Z" fill="#5E6566"></path><path d="M41.0485 79.9146L40.3602 80.3007L23.924 70.815L24.5955 70.4121L41.0485 79.9146Z" fill="#5E6566"></path><path d="M58.8614 69.5895L58.1731 69.9924L41.7369 60.49L42.4252 60.087L58.8614 69.5895Z" fill="#5E6566"></path><path d="M76.6911 59.2644L76.0027 59.6673L59.5665 50.1649L60.2549 49.762L76.6911 59.2644Z" fill="#5E6566"></path><path d="M94.5208 48.9224L93.8156 49.3421L77.3962 39.8397L78.0678 39.4368L94.5208 48.9224Z" fill="#5E6566"></path><path d="M27.7518 110L26.4927 109.261V93.3792L27.7518 94.1011V110Z" fill="#0091B5"></path><path d="M27.7518 110L30.1358 108.623V94.4872L27.7518 95.8639V110Z" fill="#72BDF4"></path><path d="M46.3874 99.2384L44.8428 98.3486V82.903L46.3874 83.7928V99.2384Z" fill="#0091B5"></path><path d="M46.3874 99.2384L48.7714 97.8617V83.7256L46.3874 85.1023V99.2384Z" fill="#72BDF4"></path><path d="M65.0061 88.4768L63.1929 87.4359V72.4099L65.0061 73.4676V88.4768Z" fill="#0091B5"></path><path d="M65.0061 88.4768L67.3901 87.1001V72.964L65.0061 74.3407V88.4768Z" fill="#72BDF4"></path><path d="M83.6416 77.7319L81.543 76.5064V61.9337L83.6416 63.1425V77.7319Z" fill="#0091B5"></path><path d="M83.6416 77.732L86.0256 76.3385V62.2024L83.6416 63.5791V77.732Z" fill="#72BDF4"></path><path d="M102.277 66.9704L99.8932 65.5937V51.4408L102.277 52.8175V66.9704Z" fill="#0091B5"></path><path d="M102.277 66.9704L104.661 65.5937V51.4408L102.277 52.8175V66.9704Z" fill="#72BDF4"></path><path d="M27.7518 94.1011L104.661 49.678L103.402 48.9561L26.4927 93.3791L27.7518 94.1011Z" fill="#98D7FE"></path><path d="M27.7518 97.7778L104.661 53.3547V49.678L27.7518 94.1011V97.7778Z" fill="#5BBBF8"></path><path d="M99.1713 47.1596L79.2262 36.079V5.32202L99.1713 32.5366V47.1596Z" fill="#C76414"></path><path d="M106.155 34.9375L99.1712 38.9668L80.7204 28.3227L97.996 18.3669L106.155 34.9375Z" fill="#838383"></path><path d="M80.7204 4.36511L79.2262 5.32207L80.7204 28.3227H81.3248L88.779 33.5776L89.9878 34.4338L97.6771 39.9069L99.1713 38.95V15.0092L80.7204 4.36511ZM97.5092 35.9616L96.015 35.0886L95.696 34.8871L94.0171 33.863L92.6068 33.0235L90.6593 31.8987L89.4002 31.1432L88.7286 30.7403L87.7213 30.2198L85.6227 28.8599L84.649 28.2723L83.9438 27.8358L82.9701 27.2314H82.8694V7.15205L97.5931 15.9829L97.5092 35.9616Z" fill="#0E0E0E"></path><path d="M79.2262 5.32202V29.2796L88.779 34.5848L89.2659 34.887L97.6603 39.9237V15.9661L79.2262 5.32202ZM81.2744 8.10896L81.8956 8.47831L82.7518 8.99876L83.6249 9.50242L84.2964 9.92214L85.9753 10.9463L86.5293 11.282L89.0644 12.793L90.7433 13.8339L91.4316 14.2369L92.8419 15.1099L93.2448 15.3617L93.9332 15.7646L95.696 16.7887L96.015 16.9902V36.9353L90.9783 33.9301L88.7958 32.6206L81.3416 28.1547L80.9387 28.3394L81.2744 8.10896Z" fill="#393939"></path><path d="M99.1713 15.0092L97.6771 15.9662L79.2262 5.32207L80.7204 4.36511L99.1713 15.0092Z" fill="#838383"></path><path d="M82.7518 27.1475L81.2744 28.1044L95.9814 36.9353V35.0718L82.7518 27.1475Z" fill="#838383"></path><path d="M106.155 43.1304L99.1712 47.1597V15.0092L106.155 10.9799V43.1304Z" fill="#EB9500"></path><path d="M106.155 10.9799L99.1712 15.0092L80.7204 4.36512L87.7045 0.335815L106.155 10.9799Z" fill="#FFC83D"></path><path d="M82.7518 8.99878V27.1474L95.9814 19.5253V16.9231L82.7518 8.99878Z" fill="#0E0E0E"></path><path d="M88.7958 35.1557L81.3248 30.841V24.0248L88.7958 28.3395V35.1557Z" fill="#E8AC51"></path><path d="M88.7958 28.3395L81.3248 24.0248L86.3614 21.1035L93.8156 25.4182L88.7958 28.3395Z" fill="#A3632E"></path><path d="M93.8156 25.4182L88.7958 28.3395V35.1557L93.8156 32.2512V25.4182Z" fill="#8F491E"></path><path d="M91.0623 27.03L83.5577 22.6985L84.2964 22.2955L91.7842 26.627V28.2388L91.0455 28.6753L91.0623 27.03Z" fill="#BF926D"></path><path fill-rule="evenodd" clip-rule="evenodd" d="M95.6624 16.7216L93.9332 15.6807V33.8629L95.6624 34.9038V16.7216Z" fill="#D4D4D4"></path><path fill-rule="evenodd" clip-rule="evenodd" d="M93.2448 15.2777L91.5659 14.2368V23.0341C91.5658 23.9763 91.5154 24.9178 91.4148 25.8546L90.6593 32.3183L92.3382 33.376L93.0937 26.862C93.1942 25.9364 93.2447 25.0061 93.2448 24.075V15.2777Z" fill="#D4D4D4"></path><path fill-rule="evenodd" clip-rule="evenodd" d="M83.6249 9.50245L81.946 8.46155V17.2589C81.9316 18.2244 81.8643 19.1884 81.7445 20.1465L81.0394 26.6102L82.7183 27.6511L83.4234 21.0867C83.5239 20.1611 83.5744 19.2308 83.5745 18.2998L83.6249 9.50245Z" fill="#D4D4D4"></path><path fill-rule="evenodd" clip-rule="evenodd" d="M86.0256 10.9463L84.3468 9.9054V19.4078C84.3481 20.8276 84.179 22.2424 83.8431 23.6218L82.8022 27.8526L84.4811 28.8935L85.6227 24.5788C85.9438 23.2084 86.1071 21.8058 86.1096 20.3984L86.0256 10.9463Z" fill="#D4D4D4"></path><path fill-rule="evenodd" clip-rule="evenodd" d="M90.844 13.834L89.1651 12.7931V22.2955C89.1654 23.7208 88.9963 25.141 88.6615 26.5263L87.6206 30.7403L89.2995 31.7812L90.3404 27.4665C90.6751 26.0982 90.8442 24.6947 90.844 23.2861V13.834Z" fill="#D4D4D4"></path><path fill-rule="evenodd" clip-rule="evenodd" d="M88.3089 12.3565L86.63 11.2988V17.091C86.6312 20.2151 85.9733 23.3043 84.6993 26.1569L83.692 28.4402L85.3709 29.4811L86.4957 26.862C87.6907 24.083 88.3076 21.0898 88.3089 18.0647V12.3565Z" fill="#D4D4D4"></path><path d="M90.7601 6.51404V5.85928H91.1798L91.2973 5.75855C91.7012 5.55618 92.1467 5.45081 92.5984 5.45081C93.0502 5.45081 93.4957 5.55618 93.8996 5.75855L94.0339 5.85928H94.42V6.51404C94.4006 6.67497 94.3392 6.82795 94.242 6.95762C94.1447 7.08729 94.015 7.18908 93.866 7.25275C93.4651 7.45494 93.0223 7.56027 92.5733 7.56027C92.1242 7.56027 91.6815 7.45494 91.2805 7.25275C91.1377 7.18453 91.0149 7.08076 90.9238 6.95141C90.8326 6.82205 90.7763 6.67145 90.7601 6.51404Z" fill="#1D1D1D"></path><path d="M90.7601 5.85923L91.0623 2.68616H94.101L94.42 5.82566C94.4006 5.98658 94.3392 6.13957 94.242 6.26924C94.1447 6.39891 94.015 6.50069 93.866 6.56436C93.4651 6.76656 93.0223 6.87189 92.5733 6.87189C92.1242 6.87189 91.6815 6.76656 91.2805 6.56436C91.1421 6.49914 91.0222 6.40056 90.9313 6.27748C90.8405 6.1544 90.7816 6.01068 90.7601 5.85923Z" fill="#C97735"></path><path d="M93.6813 5.22134C93.3456 5.05166 92.9746 4.96326 92.5984 4.96326C92.2223 4.96326 91.8513 5.05166 91.5156 5.22134C90.9112 5.57391 90.8944 6.12794 91.5156 6.4805C91.8513 6.65018 92.2223 6.73859 92.5984 6.73859C92.9746 6.73859 93.3456 6.65018 93.6813 6.4805C94.2689 6.12794 94.2689 5.57391 93.6813 5.22134Z" fill="#BC5705"></path><path d="M91.801 3.576C92.1871 2.90445 92.8251 2.92124 93.2112 3.576C93.4016 3.9535 93.5008 4.37039 93.5008 4.79319C93.5008 5.21598 93.4016 5.63287 93.2112 6.01037C92.8251 6.68192 92.1871 6.66513 91.801 6.01037C91.6106 5.63287 91.5114 5.21598 91.5114 4.79319C91.5114 4.37039 91.6106 3.9535 91.801 3.576Z" fill="#BD4D00"></path><path d="M93.6813 6.39652C93.3766 6.56713 93.0388 6.6702 92.6908 6.69872C92.6908 6.69872 92.5733 6.54762 92.5229 6.44689C92.2706 5.9471 92.1391 5.39505 92.1391 4.83517C92.1391 4.27529 92.2706 3.72323 92.5229 3.22345C92.6219 3.02995 92.7658 2.86299 92.9426 2.73657H93.9332L94.2186 5.59066C94.2144 5.76204 94.1617 5.92871 94.0666 6.07135C93.9715 6.21398 93.8379 6.32673 93.6813 6.39652Z" fill="#E07705"></path><path d="M92.7244 3.91179C92.7589 3.80307 92.8271 3.70815 92.9192 3.64078C93.0112 3.57342 93.1223 3.53711 93.2364 3.53711C93.3505 3.53711 93.4616 3.57342 93.5537 3.64078C93.6457 3.70815 93.714 3.80307 93.7485 3.91179C93.8886 4.18749 93.9616 4.49236 93.9616 4.8016C93.9616 5.11084 93.8886 5.41571 93.7485 5.6914C93.4799 6.17828 93.0098 6.17828 92.7244 5.6914C92.5802 5.41695 92.5049 5.11159 92.5049 4.8016C92.5049 4.4916 92.5802 4.18625 92.7244 3.91179Z" fill="#E09C05"></path><path d="M93.6645 2.06503C93.3317 1.8955 92.9635 1.80713 92.5901 1.80713C92.2166 1.80713 91.8484 1.8955 91.5156 2.06503C90.928 2.4176 90.9112 2.97163 91.5156 3.3074C91.8495 3.47309 92.2173 3.5593 92.5901 3.5593C92.9628 3.5593 93.3306 3.47309 93.6645 3.3074C94.2521 2.95484 94.2521 2.40081 93.6645 2.06503Z" fill="#EDA94D"></path><path d="M65.0901 61.1112L57.619 56.7965V49.9802L65.0901 54.2949V61.1112Z" fill="#E8AC51"></path><path d="M65.0901 54.2949L57.619 49.9802L62.6557 47.059L70.1267 51.3737L65.0901 54.2949Z" fill="#A3632E"></path><path d="M70.1267 51.3737L65.0901 54.2949V61.1111L70.1267 58.2067V51.3737Z" fill="#8F491E"></path><path d="M67.3565 52.9686L59.8687 48.6539L60.5907 48.251L68.0785 52.5657V54.1774L67.3397 54.6307L67.3565 52.9686Z" fill="#BF926D"></path><path d="M26.0058 83.457L18.5348 79.1423V72.326L26.0058 76.6408V83.457Z" fill="#E8AC51"></path><path d="M26.0058 76.6407L18.5348 72.326L23.5714 69.4048L31.0424 73.7195L26.0058 76.6407Z" fill="#A3632E"></path><path d="M31.0424 73.7195L26.0058 76.6407V83.457L31.0424 80.5525V73.7195Z" fill="#8F491E"></path><path d="M28.2723 75.3312L20.7845 70.9997L21.5064 70.5968L29.011 74.9115V76.54L28.2723 76.9765V75.3312Z" fill="#BF926D"></path><path d="M139.028 47.294L139.246 48.1166L147.993 40.4442L147.775 39.6383L139.028 47.294Z" fill="#8B8B8B"></path><path d="M128.35 35.8105V36.5492C128.35 36.8682 128.082 37.1872 127.611 37.3719H127.46H127.309H127.175H126.302H126.151H126.05H125.916C125.908 37.3331 125.908 37.2931 125.916 37.2543V36.4988C125.929 36.3405 125.987 36.1891 126.082 36.0616C126.177 35.9341 126.305 35.8355 126.453 35.7769H126.587C126.778 35.6914 126.983 35.6403 127.192 35.6258C127.308 35.4842 127.443 35.3599 127.595 35.2565C127.998 35.2565 128.333 35.4915 128.35 35.8105Z" fill="#C72828"></path><path d="M127.595 35.2565L127.746 37.439C128.216 37.2543 128.518 36.9353 128.484 36.6164V35.8777C128.333 35.4915 127.998 35.2565 127.595 35.2565Z" fill="#D92B2B"></path><path d="M126.671 35.2565C126.54 35.2801 126.411 35.3138 126.285 35.3572H126.151C126.003 35.4158 125.875 35.5144 125.78 35.6419C125.685 35.7694 125.627 35.9208 125.614 36.0791V36.8346C125.605 36.8734 125.605 36.9134 125.614 36.9521H125.748H125.849H126H126.487L126.671 35.2565Z" fill="#B52424"></path><path d="M125.916 35.5586C125.808 35.6167 125.716 35.7009 125.648 35.8035C125.581 35.9061 125.54 36.0239 125.53 36.1462V36.9017C125.521 36.9404 125.521 36.9805 125.53 37.0192H125.664L125.916 35.5586Z" fill="#A62121"></path><path d="M128.35 35.8105C128.35 36.1126 128.082 36.4316 127.611 36.6163C127.418 36.6941 127.214 36.7449 127.007 36.7674C126.801 36.8012 126.592 36.8012 126.386 36.7674C125.899 36.7674 125.563 36.4652 125.546 36.1462C125.56 35.9879 125.618 35.8365 125.713 35.709C125.807 35.5815 125.936 35.4829 126.084 35.4243H126.218C126.409 35.3388 126.614 35.2876 126.822 35.2732C127.076 35.2156 127.339 35.2099 127.595 35.2564C127.998 35.2564 128.333 35.4915 128.35 35.8105Z" fill="#F23030"></path><path d="M132.631 38.312V39.0674C132.631 39.3864 132.363 39.6886 131.893 39.8733H131.741H131.574H131.439H130.583H130.432H130.314L130.163 39.7894C130.155 39.7562 130.155 39.7217 130.163 39.6886V38.9331C130.163 38.6645 130.365 38.3959 130.701 38.2112H130.835C131.031 38.1413 131.233 38.0906 131.439 38.0601C131.646 38.0348 131.854 38.0348 132.06 38.0601C132.295 37.7747 132.631 37.993 132.631 38.312Z" fill="#C72828"></path><path d="M131.809 37.6908L131.96 39.8901C132.43 39.7054 132.732 39.4033 132.698 39.0843V38.3288C132.631 37.993 132.295 37.7747 131.809 37.6908Z" fill="#D92B2B"></path><path d="M130.952 37.7412L130.566 37.8419H130.432C130.096 38.0266 129.861 38.2952 129.895 38.5639V39.3194C129.887 39.3525 129.887 39.387 129.895 39.4201L130.046 39.504H130.163H130.314H130.801L130.952 37.7412Z" fill="#B52424"></path><path d="M130.23 38.0602C129.995 38.2449 129.828 38.4463 129.844 38.6646V39.4201C129.836 39.4532 129.836 39.4877 129.844 39.5208L129.995 39.6047L130.23 38.0602Z" fill="#A62121"></path><path d="M132.631 38.312C132.631 38.631 132.346 38.9332 131.893 39.1179C131.7 39.2014 131.496 39.2579 131.288 39.2858C131.076 39.3025 130.863 39.3025 130.65 39.2858C130.18 39.2858 129.844 38.9668 129.828 38.6646C129.811 38.3624 130.029 38.1273 130.365 37.9427H130.499C130.695 37.8727 130.898 37.8221 131.103 37.7916C131.31 37.7663 131.518 37.7663 131.725 37.7916C132.295 37.7748 132.631 37.993 132.631 38.312Z" fill="#F23030"></path><path d="M136.845 40.7127V41.4682C136.845 41.7704 136.56 42.0894 136.107 42.2741H135.939H135.788H135.653H134.78H134.629H134.528H134.394C134.394 42.2741 134.394 42.2741 134.394 42.1566V41.4011C134.394 41.1324 134.596 40.8806 134.948 40.6791H135.066C135.259 40.6014 135.463 40.5506 135.67 40.528C135.881 40.4944 136.097 40.4944 136.308 40.528C136.476 40.1587 136.812 40.3937 136.845 40.7127Z" fill="#277A19"></path><path d="M135.989 40.0916L136.14 42.2741C136.593 42.0894 136.896 41.7704 136.879 41.4682V40.7127C136.812 40.3938 136.476 40.1587 135.989 40.0916Z" fill="#2D8C1C"></path><path d="M135.166 40.142C135.029 40.1636 134.894 40.1973 134.763 40.2427H134.646C134.293 40.4442 134.075 40.696 134.092 40.9646V41.7201C134.092 41.7201 134.092 41.8041 134.092 41.8376H134.226H134.327H134.478H134.965L135.166 40.142Z" fill="#216815"></path><path d="M134.411 40.4609C134.303 40.5191 134.211 40.6033 134.143 40.7059C134.076 40.8084 134.035 40.9262 134.025 41.0485V41.804C134.025 41.804 134.025 41.888 134.025 41.9216H134.159L134.411 40.4609Z" fill="#1C5912"></path><path d="M136.845 40.7127C136.845 41.0149 136.56 41.3339 136.09 41.5186C135.899 41.6062 135.694 41.6575 135.485 41.6697C135.28 41.7032 135.07 41.7032 134.864 41.6697C134.377 41.6697 134.042 41.3675 134.025 41.0485C134.008 40.7295 134.226 40.528 134.579 40.3266H134.696C134.89 40.2488 135.093 40.198 135.301 40.1755C135.512 40.1419 135.727 40.1419 135.939 40.1755C136.476 40.1587 136.812 40.3937 136.845 40.7127Z" fill="#35A521"></path></g><defs><linearGradient id="paint0_linear_5678_18108" x1="60.0198" y1="78.9743" x2="57.4512" y2="74.6428" gradientUnits="userSpaceOnUse"><stop stop-color="#676F70"></stop><stop offset="0.02" stop-color="#656D6E"></stop><stop offset="0.45" stop-color="#424546"></stop><stop offset="0.79" stop-color="#2C2D2D"></stop><stop offset="1" stop-color="#242424"></stop></linearGradient><clipPath id="clip0_5678_18108"><rect width="153.399" height="110" fill="white"></rect></clipPath></defs></svg>