<svg xmlns="http://www.w3.org/2000/svg" width="150" height="92" viewBox="0 0 150 92" fill="none"><g clip-path="url(#clip0_5678_23653)"><path style="mix-blend-mode:multiply" d="M144.745 50.2696C144.87 27.1926 112.567 8.3096 72.5937 8.09332C32.6205 7.87705 0.114611 26.4094 -0.0102489 49.4864C-0.135109 72.5635 32.1683 91.4464 72.1415 91.6627C112.115 91.879 144.621 73.3467 144.745 50.2696Z" fill="url(#paint0_linear_5678_23653)"></path><path d="M150 43.9487H149.21C146.991 35.3504 140.14 27.071 128.643 20.3726C100.296 4.06339 54.4749 3.98018 26.3499 20.2477C14.7698 26.9045 7.98817 35.2672 5.93566 43.9487H5.28385V48.6778C4.85393 59.7725 11.9684 70.8672 26.6134 79.3408C54.9741 95.6915 100.795 95.7886 128.976 79.521C142.996 71.4358 150 60.8265 150.014 50.1756L150 43.9487Z" fill="url(#paint1_linear_5678_23653)"></path><path d="M150.002 45.5567C150.127 22.4796 117.824 3.59665 77.8505 3.38037C37.8774 3.16409 5.37148 21.6964 5.24662 44.7735C5.12176 67.8505 37.4252 86.7335 77.3984 86.9498C117.372 87.166 149.877 68.6337 150.002 45.5567Z" fill="#EDE5E2"></path><path d="M147.215 45.5416C147.335 23.353 116.275 5.19702 77.8418 4.98907C39.4081 4.78112 8.15417 22.5999 8.03412 44.7885C7.91406 66.9771 38.9734 85.1331 77.4071 85.3411C115.841 85.549 147.095 67.7302 147.215 45.5416Z" fill="url(#paint2_linear_5678_23653)"></path><path d="M126.687 44.559C99.4221 28.8184 55.3624 28.7491 28.2221 44.3787C21.8387 47.8388 16.3789 52.7803 12.3012 58.7879C16.4618 64.9343 22.0479 69.9828 28.5826 73.5022C55.8478 89.2428 99.8937 89.326 127.048 73.6825C133.445 70.226 138.919 65.2845 143.01 59.2733C139.571 53.9062 134.135 48.872 126.687 44.559Z" fill="url(#paint3_linear_5678_23653)"></path><g style="mix-blend-mode:multiply"><path d="M126.687 16.8501C99.4221 1.10953 55.3624 1.04019 28.2775 16.6421C1.19267 32.244 1.38682 57.7478 28.5826 73.5023C55.7785 89.2567 99.8937 89.326 127.048 73.6826C154.202 58.0391 153.939 32.5907 126.687 16.8501ZM123.983 73.0862C97.6331 88.272 54.877 88.2027 28.4024 72.9059C1.92769 57.6091 1.78901 32.9235 28.1111 17.7238C54.4332 2.5241 97.2032 2.62118 123.678 17.9041C150.153 33.187 150.291 57.8865 123.983 73.0862Z" fill="#C0B8C8"></path></g><g style="mix-blend-mode:multiply"><path d="M81.948 60.6324L95.22 52.9632L73.5022 40.3985L70.1183 42.3539L29.9001 19.1106C29.2345 19.4712 25.1017 21.8843 23.7981 22.8412L63.7944 45.9736L60.1886 48.0538L81.948 60.6324Z" fill="#C0B8C8"></path></g><path d="M28.2776 21.4405C55.3624 5.81089 99.4222 5.88024 126.743 21.6208C139.363 28.9156 146.158 38.2628 147.143 47.8042C148.28 36.7096 141.471 25.3653 126.743 16.8501C99.4222 1.10953 55.3624 1.04019 28.2776 16.6421C13.7297 25.074 7.04513 36.2796 8.16846 47.305C9.13925 37.8745 15.8377 28.6243 28.2776 21.4405Z" fill="url(#paint4_linear_5678_23653)"></path><g style="mix-blend-mode:multiply"><path d="M31.1483 15.8792V19.8733C30.1775 20.3725 29.2206 20.8995 28.2914 21.4265C27.1126 22.1061 25.9893 22.8134 24.9214 23.5207V18.7638L22.8134 17.696C23.9136 16.9933 25.0924 16.2721 26.3498 15.5325L27.9863 14.6172L30.3578 15.5464L31.1483 15.8792Z" fill="#897998"></path></g><path d="M87.2041 39.6357C84.2272 38.1283 80.9372 37.3429 77.6003 37.3429C74.2635 37.3429 70.9735 38.1283 67.9965 39.6357C62.6988 42.6867 62.7265 47.6516 67.9965 50.7304C70.9749 52.2411 74.2676 53.0284 77.6072 53.0284C80.9469 53.0284 84.2396 52.2411 87.218 50.7304C92.5573 47.6793 92.5296 42.7145 87.2041 39.6357Z" fill="#705D55"></path><path d="M87.2041 38.4154C84.2272 36.908 80.9372 36.1226 77.6003 36.1226C74.2635 36.1226 70.9735 36.908 67.9965 38.4154C62.6988 41.4664 62.7265 46.4313 67.9965 49.51C70.974 51.024 74.267 51.8131 77.6072 51.8131C80.9475 51.8131 84.2405 51.024 87.218 49.51C92.5573 46.459 92.5296 41.4941 87.2041 38.4154Z" fill="#5E4E47"></path><path d="M82.5721 41.0919C81.0357 40.3122 79.3371 39.9059 77.6142 39.9059C75.8913 39.9059 74.1926 40.3122 72.6562 41.0919C69.8826 42.6729 69.8826 45.2524 72.6562 46.8195C74.1926 47.5992 75.8913 48.0055 77.6142 48.0055C79.3371 48.0055 81.0357 47.5992 82.5721 46.8195C85.3319 45.2524 85.318 42.6867 82.5721 41.0919Z" fill="#6C5E62"></path><path d="M82.5721 38.9284C81.0357 38.1488 79.3371 37.7424 77.6142 37.7424C75.8913 37.7424 74.1926 38.1488 72.6562 38.9284C69.8826 40.4956 69.8826 43.0889 72.6562 44.6561C74.1926 45.4357 75.8913 45.8421 77.6142 45.8421C79.3371 45.8421 81.0357 45.4357 82.5721 44.6561C85.3319 43.0751 85.318 40.5094 82.5721 38.9284Z" fill="#6C5E62"></path><path d="M99.1864 44.9889L74.0153 35.3504L21.7317 5.15906L15.4493 8.79256L67.733 38.9839L64.1272 41.0642L85.9005 53.6289L99.1864 45.9597V44.9889Z" fill="#A88B7E"></path><path d="M15.4493 7.80786V8.79251L67.733 38.9839V37.9992L15.4493 7.80786Z" fill="#70564B"></path><path d="M77.4131 32.4103L74.0153 34.3657L21.7317 4.18823L15.4493 7.80787L67.733 37.9993L64.1272 40.0795L85.9005 52.6442L99.1864 44.9889L77.4131 32.4103Z" fill="#EDE5E2"></path><g style="mix-blend-mode:multiply"><path d="M74.154 38.1102C72.8939 37.8783 71.5924 38.0684 70.4512 38.6511C68.9673 39.5109 68.9811 40.8839 70.4512 41.7437C71.2292 42.1687 72.1027 42.3882 72.9891 42.3817H77.7321L78.051 38.2212L74.154 38.1102Z" fill="#C4C4C4"></path></g><path d="M81.421 38.346H79.4517C78.335 37.9973 77.1422 37.9733 76.0124 38.2766H73.8489V40.2182C73.8813 40.5499 74.0011 40.8672 74.196 41.1376C74.3908 41.408 74.6539 41.6219 74.9584 41.7576C75.788 42.1779 76.7049 42.397 77.635 42.397C78.565 42.397 79.4819 42.1779 80.3116 41.7576C80.6197 41.6232 80.8856 41.4078 81.081 41.1343C81.2763 40.8608 81.3939 40.5394 81.421 40.2043V38.346Z" fill="#A88B7E"></path><path d="M80.2977 36.8065C79.4681 36.3862 78.5511 36.1671 77.6211 36.1671C76.6911 36.1671 75.7741 36.3862 74.9445 36.8065C74.6231 36.9179 74.3443 37.1266 74.147 37.4038C73.9497 37.6809 73.8437 38.0127 73.8437 38.3529C73.8437 38.693 73.9497 39.0248 74.147 39.3019C74.3443 39.5791 74.6231 39.7878 74.9445 39.8992C75.7731 40.3228 76.6905 40.5437 77.6211 40.5437C78.5517 40.5437 79.4691 40.3228 80.2977 39.8992C81.8232 39.0532 81.8232 37.6664 80.2977 36.8065Z" fill="#C1ACA3"></path><g style="mix-blend-mode:multiply"><path d="M85.9005 52.2282C85.6039 52.2303 85.312 52.1538 85.0546 52.0063L65.833 40.9117C65.7036 40.8358 65.5962 40.7275 65.5216 40.5973C65.447 40.4672 65.4077 40.3197 65.4077 40.1697C65.4077 40.0197 65.447 39.8723 65.5216 39.7421C65.5962 39.6119 65.7036 39.5036 65.833 39.4278L67.4556 38.4847C67.5253 38.4461 67.5837 38.39 67.6251 38.3219C67.6664 38.2538 67.6893 38.176 67.6914 38.0964C67.6903 38.0147 67.668 37.9346 67.6267 37.8641C67.5854 37.7936 67.5264 37.7351 67.4556 37.6942L16.1428 8.0853L16.3508 7.72473L67.6637 37.3475C67.7931 37.4233 67.9005 37.5317 67.9751 37.6619C68.0497 37.792 68.089 37.9394 68.089 38.0895C68.089 38.2395 68.0497 38.3869 67.9751 38.5171C67.9005 38.6472 67.7931 38.7556 67.6637 38.8314L66.0272 39.7745C65.959 39.817 65.9028 39.8763 65.864 39.9467C65.8251 40.0171 65.8049 40.0963 65.8053 40.1766C65.8046 40.2552 65.8248 40.3326 65.8637 40.4008C65.9027 40.469 65.9591 40.5257 66.0272 40.565L85.2487 51.6596C85.4595 51.7813 85.6987 51.8454 85.9421 51.8454C86.1856 51.8454 86.4247 51.7813 86.6355 51.6596L97.3558 45.4743C97.4229 45.434 97.4785 45.3771 97.5174 45.3091C97.5562 45.2412 97.577 45.1643 97.5777 45.086C97.578 45.0056 97.5578 44.9265 97.519 44.8561C97.4802 44.7857 97.424 44.7264 97.3558 44.6839L78.1342 33.5892C77.9319 33.4799 77.7055 33.4227 77.4755 33.4227C77.2455 33.4227 77.0191 33.4799 76.8168 33.5892L74.8891 34.6709C74.6297 34.8206 74.3356 34.8995 74.0362 34.8995C73.7367 34.8995 73.4426 34.8206 73.1833 34.6709L21.6346 4.90945L21.8426 4.56274L73.3635 34.3103C73.5744 34.4321 73.8135 34.4961 74.057 34.4961C74.3004 34.4961 74.5396 34.4321 74.7504 34.3103L76.5533 33.2841C76.8147 33.1408 77.108 33.0658 77.4062 33.0658C77.7043 33.0658 77.9976 33.1408 78.2591 33.2841L97.4806 44.3787C97.61 44.4546 97.7174 44.5629 97.792 44.6931C97.8666 44.8233 97.9059 44.9707 97.9059 45.1207C97.9059 45.2707 97.8666 45.4182 97.792 45.5483C97.7174 45.6785 97.61 45.7868 97.4806 45.8627L86.7604 52.0063C86.4986 52.1555 86.2018 52.2321 85.9005 52.2282Z" fill="#C4C4C4"></path></g><path d="M17.488 8.32102V5.93567H17.0442V8.32102C17.0442 8.32102 17.0442 8.32102 17.1135 8.40423C17.1599 8.43101 17.2125 8.44511 17.2661 8.44511C17.3196 8.44511 17.3723 8.43101 17.4186 8.40423L17.488 8.32102Z" fill="url(#paint5_linear_5678_23653)"></path><path d="M24.2557 12.2596V9.84656H23.8119V12.2596C23.8054 12.287 23.8054 12.3155 23.8119 12.3429C23.8609 12.3696 23.9157 12.3836 23.9714 12.3836C24.0272 12.3836 24.082 12.3696 24.1309 12.3429C24.1446 12.347 24.1591 12.3481 24.1733 12.346C24.1875 12.3439 24.201 12.3387 24.213 12.3307C24.2249 12.3228 24.2349 12.3123 24.2423 12.3C24.2497 12.2877 24.2543 12.2739 24.2557 12.2596Z" fill="url(#paint6_linear_5678_23653)"></path><path d="M31.0374 16.1567V13.7574H30.5936V16.1567C30.5936 16.1567 30.5936 16.1567 30.6629 16.2537C30.7093 16.2805 30.7619 16.2946 30.8155 16.2946C30.869 16.2946 30.9216 16.2805 30.968 16.2537C30.968 16.2537 31.0374 16.1983 31.0374 16.1567Z" fill="url(#paint7_linear_5678_23653)"></path><path d="M37.8051 20.0674V17.6682H37.4445V20.0674C37.4372 20.0826 37.4333 20.0992 37.4333 20.116C37.4333 20.1328 37.4372 20.1494 37.4445 20.1645C37.4941 20.189 37.5487 20.2017 37.604 20.2017C37.6593 20.2017 37.7139 20.189 37.7635 20.1645C37.778 20.1531 37.7893 20.1382 37.7966 20.1212C37.8039 20.1043 37.8068 20.0858 37.8051 20.0674Z" fill="url(#paint8_linear_5678_23653)"></path><path d="M44.5867 23.9784V21.5653H44.1429V23.9784C44.1429 23.9784 44.1429 24.0477 44.2123 24.0755C44.2605 24.0961 44.3124 24.1067 44.3648 24.1067C44.4173 24.1067 44.4692 24.0961 44.5174 24.0755C44.5174 24.0755 44.5867 24.02 44.5867 23.9784Z" fill="url(#paint9_linear_5678_23653)"></path><path d="M51.3129 27.8893V25.4762H50.8691V27.8893C50.8617 27.9044 50.8579 27.921 50.8579 27.9378C50.8579 27.9546 50.8617 27.9712 50.8691 27.9864C50.9196 28.0073 50.9738 28.0181 51.0286 28.0181C51.0833 28.0181 51.1375 28.0073 51.1881 27.9864C51.1881 27.9864 51.3129 27.9309 51.3129 27.8893Z" fill="url(#paint10_linear_5678_23653)"></path><path d="M58.1361 31.8001V29.387H57.6923V31.8001C57.6923 31.8001 57.6923 31.8694 57.6923 31.8971C57.7405 31.9177 57.7924 31.9284 57.8448 31.9284C57.8973 31.9284 57.9492 31.9177 57.9974 31.8971C57.9974 31.8971 58.1361 31.8971 58.1361 31.8001Z" fill="url(#paint11_linear_5678_23653)"></path><path d="M64.9177 35.711V33.2841H64.4739V35.6971C64.4739 35.6971 64.4739 35.7665 64.4739 35.7942C64.5222 35.8148 64.574 35.8254 64.6265 35.8254C64.6789 35.8254 64.7308 35.8148 64.779 35.7942C64.779 35.7942 64.9177 35.7526 64.9177 35.711Z" fill="url(#paint12_linear_5678_23653)"></path><path d="M22.5361 4.8816V2.46851H22.1062V4.8816C22.0988 4.89672 22.095 4.91332 22.095 4.93014C22.095 4.94695 22.0988 4.96355 22.1062 4.97868C22.1567 4.99966 22.2109 5.01046 22.2656 5.01046C22.3204 5.01046 22.3746 4.99966 22.4251 4.97868C22.4523 4.97889 22.4786 4.96912 22.4991 4.95123C22.5195 4.93333 22.5327 4.90856 22.5361 4.8816Z" fill="url(#paint13_linear_5678_23653)"></path><path d="M29.3177 8.79249V6.37939H28.8739V8.79249C28.8739 8.79249 28.8739 8.79249 28.9432 8.88956C28.9915 8.91016 29.0434 8.92079 29.0958 8.92079C29.1482 8.92079 29.2001 8.91016 29.2483 8.88956C29.2483 8.88956 29.3177 8.83409 29.3177 8.79249Z" fill="url(#paint14_linear_5678_23653)"></path><path d="M36.0577 12.7034V10.2903H35.6278V12.7034C35.6204 12.7185 35.6166 12.7351 35.6166 12.7519C35.6166 12.7687 35.6204 12.7853 35.6278 12.8005C35.6783 12.8214 35.7325 12.8322 35.7872 12.8322C35.842 12.8322 35.8962 12.8214 35.9467 12.8005C35.9739 12.8007 36.0002 12.7909 36.0207 12.773C36.0411 12.7551 36.0543 12.7303 36.0577 12.7034Z" fill="url(#paint15_linear_5678_23653)"></path><path d="M42.867 16.642V14.2012H42.4232V16.642C42.4232 16.642 42.4232 16.642 42.4926 16.7391C42.5408 16.7597 42.5927 16.7703 42.6451 16.7703C42.6976 16.7703 42.7495 16.7597 42.7977 16.7391L42.867 16.642Z" fill="url(#paint16_linear_5678_23653)"></path><path d="M49.6487 20.5252V18.1121H49.2049V20.5252C49.1975 20.5403 49.1937 20.5569 49.1937 20.5737C49.1937 20.5905 49.1975 20.6071 49.2049 20.6222C49.2554 20.6432 49.3096 20.654 49.3644 20.654C49.4191 20.654 49.4733 20.6432 49.5238 20.6222C49.5238 20.6222 49.6487 20.5668 49.6487 20.5252Z" fill="url(#paint17_linear_5678_23653)"></path><path d="M56.4164 24.436V22.0229H55.9726V24.436C55.9726 24.436 55.9726 24.5054 55.9726 24.5331C56.0232 24.5541 56.0774 24.5649 56.1321 24.5649C56.1868 24.5649 56.241 24.5541 56.2916 24.5331C56.3062 24.5351 56.321 24.5341 56.3352 24.5302C56.3494 24.5264 56.3627 24.5197 56.3743 24.5107C56.3859 24.5017 56.3957 24.4904 56.4029 24.4776C56.4101 24.4648 56.4147 24.4507 56.4164 24.436Z" fill="url(#paint18_linear_5678_23653)"></path><path d="M63.198 28.3469V25.9338H62.7542V28.3469C62.7542 28.3469 62.7542 28.3469 62.7542 28.444C62.8025 28.4646 62.8544 28.4752 62.9068 28.4752C62.9592 28.4752 63.0111 28.4646 63.0593 28.444C63.0593 28.444 63.198 28.3885 63.198 28.3469Z" fill="url(#paint19_linear_5678_23653)"></path><path d="M69.9658 32.2578V29.8447H69.522V32.2578C69.5155 32.2732 69.5122 32.2897 69.5122 32.3064C69.5122 32.323 69.5155 32.3395 69.522 32.3549C69.5726 32.3759 69.6267 32.3867 69.6815 32.3867C69.7362 32.3867 69.7904 32.3759 69.841 32.3549C69.8698 32.3556 69.898 32.3463 69.9207 32.3286C69.9435 32.3109 69.9594 32.2859 69.9658 32.2578Z" fill="url(#paint20_linear_5678_23653)"></path><path d="M68.0797 37.9716V35.5585H67.6359V37.9716C67.6242 38.0029 67.6242 38.0373 67.6359 38.0686C67.6865 38.0896 67.7407 38.1004 67.7954 38.1004C67.8501 38.1004 67.9043 38.0896 67.9549 38.0686C67.9837 38.0694 68.0119 38.0601 68.0346 38.0424C68.0574 38.0247 68.0733 37.9997 68.0797 37.9716Z" fill="url(#paint21_linear_5678_23653)"></path><path d="M65.8191 39.9963V37.5833H65.3754V39.9963C65.3692 40.0093 65.366 40.0236 65.366 40.0379C65.366 40.0523 65.3692 40.0665 65.3754 40.0796C65.4243 40.1063 65.4791 40.1203 65.5348 40.1203C65.5906 40.1203 65.6454 40.1063 65.6943 40.0796C65.7078 40.0875 65.7233 40.0916 65.739 40.0911C65.7546 40.0907 65.7699 40.0859 65.7829 40.0772C65.796 40.0685 65.8063 40.0563 65.8127 40.042C65.8191 40.0277 65.8213 40.0119 65.8191 39.9963Z" fill="url(#paint22_linear_5678_23653)"></path><path d="M67.8578 41.6051V39.1504H67.414V41.6051C67.4075 41.6324 67.4075 41.6609 67.414 41.6883C67.4629 41.715 67.5178 41.729 67.5735 41.729C67.6292 41.729 67.6841 41.715 67.733 41.6883C67.7467 41.6925 67.7612 41.6935 67.7754 41.6915C67.7896 41.6894 67.8031 41.6841 67.8151 41.6762C67.827 41.6682 67.837 41.6577 67.8444 41.6454C67.8518 41.6331 67.8564 41.6194 67.8578 41.6051Z" fill="url(#paint23_linear_5678_23653)"></path><path d="M72.7672 44.3787V42.0211H72.3234V44.3787C72.3234 44.3787 72.3234 44.3787 72.3928 44.4619C72.4391 44.4887 72.4918 44.5028 72.5453 44.5028C72.5989 44.5028 72.6515 44.4887 72.6979 44.4619C72.6979 44.4619 72.7672 44.4619 72.7672 44.3787Z" fill="url(#paint24_linear_5678_23653)"></path><path d="M77.6627 47.2356V44.8225H77.2189V47.2356C77.2116 47.2483 77.2078 47.2626 77.2078 47.2772C77.2078 47.2918 77.2116 47.3062 77.2189 47.3188C77.2679 47.3455 77.3227 47.3595 77.3784 47.3595C77.4342 47.3595 77.489 47.3455 77.5379 47.3188C77.5516 47.323 77.5661 47.3241 77.5803 47.322C77.5945 47.3199 77.608 47.3147 77.62 47.3067C77.6319 47.2987 77.6419 47.2882 77.6493 47.2759C77.6567 47.2637 77.6613 47.2499 77.6627 47.2356Z" fill="url(#paint25_linear_5678_23653)"></path><path d="M82.5721 50.0508V47.6377H82.1283V50.0508C82.1319 50.0711 82.14 50.0904 82.152 50.1072C82.164 50.124 82.1796 50.1379 82.1977 50.1479C82.2482 50.1688 82.3024 50.1797 82.3572 50.1797C82.4119 50.1797 82.4661 50.1688 82.5166 50.1479C82.5328 50.1371 82.5462 50.1227 82.5559 50.1059C82.5655 50.089 82.5711 50.0702 82.5721 50.0508Z" fill="url(#paint26_linear_5678_23653)"></path><path d="M86.0808 51.8954V49.4823H85.637V51.8954C85.637 51.8954 85.637 51.8954 85.637 51.9925C85.6876 52.0135 85.7418 52.0243 85.7965 52.0243C85.8512 52.0243 85.9054 52.0135 85.956 51.9925C85.9706 51.9944 85.9854 51.9934 85.9996 51.9896C86.0138 51.9857 86.0271 51.9791 86.0387 51.9701C86.0503 51.961 86.06 51.9498 86.0673 51.937C86.0745 51.9241 86.0791 51.91 86.0808 51.8954Z" fill="url(#paint27_linear_5678_23653)"></path><path d="M74.4869 34.6709V32.1885H74.0431V34.6709C74.0431 34.6709 74.0431 34.6709 74.0431 34.7541C74.0895 34.7809 74.1421 34.795 74.1956 34.795C74.2492 34.795 74.3018 34.7809 74.3482 34.7541L74.4869 34.6709Z" fill="url(#paint28_linear_5678_23653)"></path><path d="M77.6627 33.0761V30.663H77.2189V33.0761C77.2116 33.0887 77.2078 33.1031 77.2078 33.1177C77.2078 33.1323 77.2116 33.1466 77.2189 33.1593C77.2679 33.186 77.3227 33.2 77.3784 33.2C77.4342 33.2 77.489 33.186 77.5379 33.1593C77.5516 33.1634 77.5661 33.1645 77.5803 33.1624C77.5945 33.1603 77.608 33.1551 77.62 33.1472C77.6319 33.1392 77.6419 33.1287 77.6493 33.1164C77.6567 33.1041 77.6613 33.0903 77.6627 33.0761Z" fill="url(#paint29_linear_5678_23653)"></path><path d="M80.4364 34.5044V32.0913H79.9926V34.5044C79.9849 34.5363 79.9849 34.5696 79.9926 34.6015C80.0431 34.6225 80.0973 34.6333 80.1521 34.6333C80.2068 34.6333 80.261 34.6225 80.3116 34.6015C80.3404 34.6022 80.3686 34.5929 80.3913 34.5752C80.4141 34.5575 80.43 34.5325 80.4364 34.5044Z" fill="url(#paint30_linear_5678_23653)"></path><path d="M85.2765 37.4445V34.962H84.8327V37.4445C84.8265 37.4575 84.8233 37.4717 84.8233 37.4861C84.8233 37.5005 84.8265 37.5147 84.8327 37.5277C84.879 37.5545 84.9317 37.5686 84.9852 37.5686C85.0388 37.5686 85.0914 37.5545 85.1378 37.5277C85.1522 37.5346 85.1682 37.5378 85.1842 37.537C85.2001 37.5362 85.2157 37.5315 85.2294 37.5233C85.2432 37.515 85.2546 37.5035 85.2628 37.4898C85.271 37.476 85.2757 37.4605 85.2765 37.4445Z" fill="url(#paint31_linear_5678_23653)"></path><path d="M90.1442 40.2182V37.7635H89.7005V40.2182C89.6931 40.2334 89.6893 40.25 89.6893 40.2668C89.6893 40.2836 89.6931 40.3002 89.7005 40.3153C89.7759 40.3439 89.858 40.3499 89.9368 40.3327C90.0156 40.3155 90.0876 40.2757 90.1442 40.2182Z" fill="url(#paint32_linear_5678_23653)"></path><path d="M95.0814 42.9918V40.5787H94.6376V42.9918C94.6376 42.9918 94.6376 43.0612 94.7069 43.0889C94.7575 43.1099 94.8117 43.1207 94.8664 43.1207C94.9211 43.1207 94.9753 43.1099 95.0259 43.0889C95.0429 43.0791 95.057 43.0649 95.0667 43.0479C95.0765 43.0308 95.0815 43.0115 95.0814 42.9918Z" fill="url(#paint33_linear_5678_23653)"></path><path d="M97.9382 45.0444V42.6313H97.4944V45.0444C97.4944 45.0444 97.4944 45.1138 97.4944 45.1415C97.5427 45.1621 97.5946 45.1727 97.647 45.1727C97.6994 45.1727 97.7513 45.1621 97.7995 45.1415C97.7995 45.1415 97.9382 45.086 97.9382 45.0444Z" fill="url(#paint34_linear_5678_23653)"></path><path d="M94.9843 47.0553V44.6422H94.5405V47.0553C94.5343 47.0683 94.5311 47.0825 94.5311 47.0969C94.5311 47.1113 94.5343 47.1255 94.5405 47.1385C94.5869 47.1653 94.6395 47.1794 94.693 47.1794C94.7466 47.1794 94.7992 47.1653 94.8456 47.1385C94.8601 47.1454 94.876 47.1486 94.892 47.1478C94.908 47.147 94.9235 47.1423 94.9372 47.1341C94.951 47.1259 94.9625 47.1144 94.9707 47.1006C94.9789 47.0869 94.9835 47.0713 94.9843 47.0553Z" fill="url(#paint35_linear_5678_23653)"></path><path d="M90.5187 49.6625V47.2494H90.1442V49.6625C90.1442 49.6625 90.1442 49.6625 90.1442 49.7596C90.1924 49.7802 90.2443 49.7908 90.2968 49.7908C90.3492 49.7908 90.4011 49.7802 90.4493 49.7596C90.4493 49.7596 90.5187 49.7041 90.5187 49.6625Z" fill="url(#paint36_linear_5678_23653)"></path><path d="M85.9005 50.0925C85.5851 50.0899 85.2753 50.0089 84.9991 49.8567L65.7775 38.8314C65.6303 38.748 65.5078 38.6271 65.4225 38.4809C65.3372 38.3347 65.2923 38.1685 65.2921 37.9993C65.2893 37.8295 65.333 37.6621 65.4186 37.5154C65.5042 37.3687 65.6283 37.2483 65.7775 37.1672L67.414 36.2241C67.4652 36.1914 67.5073 36.1463 67.5364 36.093C67.5655 36.0396 67.5806 35.9798 67.5804 35.919C67.583 35.856 67.569 35.7933 67.5398 35.7373C67.5106 35.6813 67.4672 35.634 67.414 35.6001L16.1011 5.99116L16.4062 5.46416L67.7191 35.0869C67.8673 35.1692 67.9906 35.2899 68.0761 35.4363C68.1615 35.5828 68.2059 35.7495 68.2045 35.919C68.2044 36.0883 68.1594 36.2544 68.0741 36.4006C67.9889 36.5468 67.8664 36.6678 67.7191 36.7511L66.0965 37.6803C66.0397 37.7113 65.9927 37.7577 65.9608 37.814C65.9289 37.8704 65.9135 37.9346 65.9162 37.9993C65.916 38.0617 65.9327 38.1229 65.9644 38.1766C65.9962 38.2303 66.0418 38.2745 66.0965 38.3044L85.318 49.3991C85.5027 49.5011 85.7103 49.5545 85.9213 49.5545C86.1323 49.5545 86.3399 49.5011 86.5246 49.3991L97.2448 43.1999C97.3017 43.1726 97.3491 43.129 97.3812 43.0747C97.4133 43.0204 97.4286 42.9578 97.4251 42.8948C97.4253 42.8324 97.4086 42.7712 97.3769 42.7175C97.3451 42.6638 97.2995 42.6196 97.2448 42.5897L78.0233 31.495C77.8386 31.3931 77.631 31.3396 77.42 31.3396C77.209 31.3396 77.0015 31.3931 76.8167 31.495L74.889 32.5074C74.612 32.6642 74.299 32.7466 73.9807 32.7466C73.6623 32.7466 73.3494 32.6642 73.0723 32.5074L21.5791 2.7737L21.8842 2.2467L73.419 31.9804C73.6015 32.0891 73.8099 32.1465 74.0223 32.1465C74.2346 32.1465 74.4431 32.0891 74.6255 31.9804L76.4978 30.8987C76.7748 30.7419 77.0878 30.6595 77.4061 30.6595C77.7245 30.6595 78.0374 30.7419 78.3145 30.8987L97.536 41.9934C97.6833 42.0768 97.8058 42.1977 97.8911 42.3439C97.9763 42.4901 98.0213 42.6562 98.0214 42.8255C98.0228 42.995 97.9784 43.1617 97.893 43.3082C97.8076 43.4546 97.6843 43.5753 97.536 43.6576L86.8158 49.9261C86.529 50.056 86.2146 50.1131 85.9005 50.0925Z" fill="#F5AA2C"></path><path d="M17.488 6.10206V3.68896H17.0442V6.10206C17.0442 6.10206 17.0442 6.10206 17.1135 6.19913C17.1607 6.22346 17.213 6.23615 17.2661 6.23615C17.3192 6.23615 17.3715 6.22346 17.4186 6.19913C17.4186 6.19913 17.488 6.14366 17.488 6.10206Z" fill="url(#paint37_linear_5678_23653)"></path><path d="M24.2557 10.0129V7.59985H23.8119V10.0129C23.8023 10.0446 23.8023 10.0784 23.8119 10.11C23.8625 10.131 23.9167 10.1418 23.9714 10.1418C24.0261 10.1418 24.0803 10.131 24.1309 10.11C24.1455 10.112 24.1603 10.111 24.1745 10.1071C24.1887 10.1033 24.202 10.0967 24.2136 10.0876C24.2252 10.0786 24.235 10.0673 24.2422 10.0545C24.2494 10.0417 24.254 10.0276 24.2557 10.0129Z" fill="url(#paint38_linear_5678_23653)"></path><path d="M31.0374 13.8684V11.5107H30.5936V13.8684C30.5936 13.8684 30.5936 13.9377 30.6629 13.9654C30.7111 13.986 30.763 13.9967 30.8155 13.9967C30.8679 13.9967 30.9198 13.986 30.968 13.9654C30.968 13.9654 31.0374 13.9654 31.0374 13.8684Z" fill="url(#paint39_linear_5678_23653)"></path><path d="M37.8051 17.8347V15.4216H37.4445V17.8347C37.4372 17.8498 37.4333 17.8664 37.4333 17.8833C37.4333 17.9001 37.4372 17.9167 37.4445 17.9318C37.4951 17.9528 37.5493 17.9636 37.604 17.9636C37.6588 17.9636 37.7129 17.9528 37.7635 17.9318C37.778 17.9204 37.7893 17.9055 37.7966 17.8885C37.8039 17.8716 37.8068 17.8531 37.8051 17.8347Z" fill="url(#paint40_linear_5678_23653)"></path><path d="M44.5867 21.7456V19.3325H44.1429V21.7456C44.1429 21.7456 44.1429 21.815 44.2123 21.8427C44.2605 21.8633 44.3124 21.8739 44.3648 21.8739C44.4173 21.8739 44.4692 21.8633 44.5174 21.8427C44.5174 21.8427 44.5867 21.7872 44.5867 21.7456Z" fill="url(#paint41_linear_5678_23653)"></path><path d="M51.3129 25.6564V23.2433H50.8691V25.6564C50.8617 25.6715 50.8579 25.6881 50.8579 25.7049C50.8579 25.7217 50.8617 25.7383 50.8691 25.7535C50.9196 25.7744 50.9738 25.7852 51.0286 25.7852C51.0833 25.7852 51.1375 25.7744 51.1881 25.7535C51.1881 25.7535 51.3129 25.698 51.3129 25.6564Z" fill="url(#paint42_linear_5678_23653)"></path><path d="M58.1361 29.5673V27.1542H57.6923V29.5673C57.6923 29.5673 57.6923 29.6366 57.6923 29.6643C57.7405 29.6849 57.7924 29.6956 57.8448 29.6956C57.8973 29.6956 57.9492 29.6849 57.9974 29.6643C57.9974 29.6643 58.1361 29.6089 58.1361 29.5673Z" fill="url(#paint43_linear_5678_23653)"></path><path d="M64.9177 33.4782V31.0651H64.4739V33.4782C64.4666 33.4933 64.4627 33.5099 64.4627 33.5267C64.4627 33.5435 64.4666 33.5601 64.4739 33.5752C64.5221 33.5958 64.574 33.6065 64.6265 33.6065C64.6789 33.6065 64.7308 33.5958 64.779 33.5752C64.779 33.5752 64.9177 33.5198 64.9177 33.4782Z" fill="url(#paint44_linear_5678_23653)"></path><path d="M22.5361 2.64881V0.235718H22.1061V2.64881C22.1019 2.67625 22.1081 2.7043 22.1235 2.72741C22.1389 2.75052 22.1624 2.76701 22.1894 2.77362C22.2399 2.79461 22.2941 2.80541 22.3488 2.80541C22.4036 2.80541 22.4578 2.79461 22.5083 2.77362C22.5253 2.75822 22.537 2.73796 22.542 2.71561C22.547 2.69327 22.5449 2.66993 22.5361 2.64881Z" fill="url(#paint45_linear_5678_23653)"></path><path d="M29.3177 6.55975V4.16052H28.8739V6.55975C28.8739 6.55975 28.8739 6.55975 28.9432 6.65682C28.9915 6.67742 29.0434 6.68804 29.0958 6.68804C29.1482 6.68804 29.2001 6.67742 29.2483 6.65682C29.2483 6.65682 29.3177 6.60135 29.3177 6.55975Z" fill="url(#paint46_linear_5678_23653)"></path><path d="M36.0577 10.4706V8.0575H35.6278V10.4706C35.6204 10.4857 35.6166 10.5023 35.6166 10.5191C35.6166 10.5359 35.6204 10.5525 35.6278 10.5677C35.6783 10.5886 35.7325 10.5994 35.7872 10.5994C35.842 10.5994 35.8962 10.5886 35.9467 10.5677C35.9739 10.5679 36.0002 10.5581 36.0207 10.5402C36.0411 10.5223 36.0543 10.4975 36.0577 10.4706Z" fill="url(#paint47_linear_5678_23653)"></path><path d="M42.867 14.3815V11.9684H42.4232V14.3815C42.4232 14.3815 42.4232 14.4508 42.4926 14.4786C42.5408 14.4992 42.5927 14.5098 42.6451 14.5098C42.6976 14.5098 42.7495 14.4992 42.7977 14.4786C42.7977 14.4786 42.867 14.4231 42.867 14.3815Z" fill="url(#paint48_linear_5678_23653)"></path><path d="M49.6487 18.2924V15.8793H49.2049V18.2924C49.1984 18.3077 49.1951 18.3242 49.1951 18.3409C49.1951 18.3576 49.1984 18.3741 49.2049 18.3894C49.2554 18.4104 49.3096 18.4212 49.3644 18.4212C49.4191 18.4212 49.4733 18.4104 49.5239 18.3894C49.5521 18.3879 49.5792 18.3778 49.6015 18.3604C49.6238 18.3431 49.6402 18.3193 49.6487 18.2924Z" fill="url(#paint49_linear_5678_23653)"></path><path d="M56.4164 22.1894V19.7902H55.9726V22.1894C55.9609 22.2207 55.9609 22.2552 55.9726 22.2865C56.0232 22.3074 56.0774 22.3182 56.1321 22.3182C56.1869 22.3182 56.2411 22.3074 56.2916 22.2865C56.3204 22.2872 56.3486 22.2779 56.3714 22.2602C56.3941 22.2425 56.41 22.2175 56.4164 22.1894Z" fill="url(#paint50_linear_5678_23653)"></path><path d="M63.198 26.1141V23.701H62.7543V26.1141C62.7426 26.1454 62.7426 26.1799 62.7543 26.2112C62.8025 26.2318 62.8544 26.2424 62.9068 26.2424C62.9592 26.2424 63.0111 26.2318 63.0594 26.2112C63.09 26.2126 63.1201 26.2039 63.1452 26.1863C63.1703 26.1687 63.1889 26.1434 63.198 26.1141Z" fill="url(#paint51_linear_5678_23653)"></path><path d="M69.9658 30.0249V27.6118H69.522V30.0249C69.5147 30.0376 69.5109 30.0519 69.5109 30.0665C69.5109 30.0811 69.5147 30.0955 69.522 30.1081C69.5716 30.1326 69.6262 30.1453 69.6815 30.1453C69.7368 30.1453 69.7914 30.1326 69.841 30.1081C69.868 30.1096 69.8948 30.1024 69.9173 30.0874C69.9398 30.0723 69.9568 30.0504 69.9658 30.0249Z" fill="url(#paint52_linear_5678_23653)"></path><path d="M68.0797 35.7388V33.2841H67.6359V35.6971C67.6297 35.7102 67.6265 35.7244 67.6265 35.7388C67.6265 35.7531 67.6297 35.7674 67.6359 35.7804C67.6855 35.8048 67.7401 35.8175 67.7954 35.8175C67.8507 35.8175 67.9053 35.8048 67.9549 35.7804C67.9775 35.7857 68.0011 35.7847 68.0232 35.7773C68.0453 35.77 68.0648 35.7566 68.0797 35.7388Z" fill="url(#paint53_linear_5678_23653)"></path><path d="M65.8191 37.7636V35.3505H65.3754V37.7636C65.3692 37.7766 65.366 37.7908 65.366 37.8052C65.366 37.8196 65.3692 37.8338 65.3754 37.8468C65.4243 37.8735 65.4791 37.8875 65.5348 37.8875C65.5906 37.8875 65.6454 37.8735 65.6943 37.8468C65.7078 37.8548 65.7233 37.8588 65.739 37.8584C65.7546 37.8579 65.7699 37.8531 65.7829 37.8444C65.796 37.8357 65.8063 37.8235 65.8127 37.8092C65.8191 37.7949 65.8213 37.7791 65.8191 37.7636Z" fill="url(#paint54_linear_5678_23653)"></path><path d="M67.8578 39.3306V36.9175H67.414V39.3306C67.4075 39.3579 67.4075 39.3864 67.414 39.4138C67.4629 39.4405 67.5178 39.4545 67.5735 39.4545C67.6292 39.4545 67.6841 39.4405 67.733 39.4138C67.7467 39.418 67.7612 39.419 67.7754 39.4169C67.7896 39.4148 67.8031 39.4096 67.8151 39.4017C67.827 39.3937 67.837 39.3832 67.8444 39.3709C67.8518 39.3586 67.8564 39.3448 67.8578 39.3306Z" fill="url(#paint55_linear_5678_23653)"></path><path d="M72.7672 42.1876V39.7883H72.3234V42.1876C72.3234 42.1876 72.3234 42.1876 72.3928 42.2846C72.4391 42.3114 72.4918 42.3255 72.5453 42.3255C72.5989 42.3255 72.6515 42.3114 72.6979 42.2846C72.6979 42.2846 72.7672 42.2292 72.7672 42.1876Z" fill="url(#paint56_linear_5678_23653)"></path><path d="M77.6627 45.0028V42.5897H77.2189V45.0028C77.2128 45.0158 77.2096 45.03 77.2096 45.0444C77.2096 45.0588 77.2128 45.073 77.2189 45.086C77.2678 45.1127 77.3227 45.1267 77.3784 45.1267C77.4341 45.1267 77.489 45.1127 77.5379 45.086C77.5379 45.086 77.6627 45.0306 77.6627 45.0028Z" fill="url(#paint57_linear_5678_23653)"></path><path d="M82.5721 47.818V45.4049H82.1283V47.818C82.1303 47.8372 82.138 47.8553 82.1503 47.8702C82.1627 47.885 82.1791 47.8958 82.1977 47.9012C82.2466 47.9279 82.3014 47.9419 82.3572 47.9419C82.4129 47.9419 82.4677 47.9279 82.5166 47.9012C82.5337 47.8952 82.5483 47.8839 82.5583 47.8689C82.5683 47.8539 82.5731 47.836 82.5721 47.818Z" fill="url(#paint58_linear_5678_23653)"></path><path d="M86.0808 49.6625V47.2494H85.637V49.6625C85.637 49.6625 85.637 49.6625 85.637 49.7596C85.6876 49.7805 85.7418 49.7913 85.7965 49.7913C85.8512 49.7913 85.9054 49.7805 85.956 49.7596C85.9706 49.7615 85.9854 49.7605 85.9996 49.7567C86.0138 49.7528 86.0271 49.7462 86.0387 49.7372C86.0503 49.7281 86.06 49.7169 86.0673 49.704C86.0745 49.6912 86.0791 49.6771 86.0808 49.6625Z" fill="url(#paint59_linear_5678_23653)"></path><path d="M74.4869 32.3548V29.9556H74.0431V32.3548C74.0431 32.3548 74.0431 32.4241 74.0431 32.4519C74.0895 32.4786 74.1421 32.4927 74.1956 32.4927C74.2492 32.4927 74.3018 32.4786 74.3482 32.4519C74.3482 32.4519 74.4869 32.3964 74.4869 32.3548Z" fill="url(#paint60_linear_5678_23653)"></path><path d="M77.6627 30.8431V28.4301H77.2189V30.8431C77.2128 30.8561 77.2096 30.8704 77.2096 30.8848C77.2096 30.8991 77.2128 30.9134 77.2189 30.9264C77.2678 30.9531 77.3227 30.9671 77.3784 30.9671C77.4341 30.9671 77.489 30.9531 77.5379 30.9264C77.5379 30.9264 77.6627 30.8709 77.6627 30.8431Z" fill="url(#paint61_linear_5678_23653)"></path><path d="M80.4364 32.2716V29.8585H79.9926V32.2716C79.9926 32.2716 79.9926 32.341 79.9926 32.3548C80.0415 32.3815 80.0963 32.3955 80.1521 32.3955C80.2078 32.3955 80.2626 32.3815 80.3116 32.3548C80.325 32.3628 80.3405 32.3668 80.3562 32.3664C80.3719 32.366 80.3871 32.3612 80.4001 32.3525C80.4132 32.3438 80.4235 32.3316 80.4299 32.3173C80.4363 32.303 80.4386 32.2871 80.4364 32.2716Z" fill="url(#paint62_linear_5678_23653)"></path><path d="M85.2764 35.1423V32.7292H84.8326V35.1423C84.8326 35.1423 84.8326 35.1423 84.8326 35.2255C84.879 35.2523 84.9316 35.2664 84.9852 35.2664C85.0388 35.2664 85.0914 35.2523 85.1377 35.2255C85.1377 35.2255 85.2764 35.1701 85.2764 35.1423Z" fill="url(#paint63_linear_5678_23653)"></path><path d="M90.1442 37.9437V35.5306H89.7004V37.9437C89.694 37.9591 89.6906 37.9756 89.6906 37.9923C89.6906 38.0089 89.694 38.0254 89.7004 38.0408C89.751 38.0618 89.8052 38.0726 89.8599 38.0726C89.9147 38.0726 89.9689 38.0618 90.0194 38.0408C90.0476 38.0393 90.0747 38.0291 90.097 38.0118C90.1193 37.9944 90.1358 37.9707 90.1442 37.9437Z" fill="url(#paint64_linear_5678_23653)"></path><path d="M95.0814 40.759V38.3459H94.6376V40.759C94.6376 40.759 94.6376 40.8284 94.7069 40.8561C94.7575 40.8771 94.8117 40.8879 94.8664 40.8879C94.9211 40.8879 94.9753 40.8771 95.0259 40.8561C95.0429 40.8463 95.057 40.8321 95.0667 40.8151C95.0765 40.798 95.0815 40.7787 95.0814 40.759Z" fill="url(#paint65_linear_5678_23653)"></path><path d="M97.9382 42.8115V40.3984H97.4945V42.8115C97.4871 42.8267 97.4833 42.8433 97.4833 42.8601C97.4833 42.8769 97.4871 42.8935 97.4945 42.9086C97.5427 42.9292 97.5946 42.9398 97.647 42.9398C97.6994 42.9398 97.7513 42.9292 97.7996 42.9086C97.8301 42.91 97.8603 42.9012 97.8854 42.8837C97.9105 42.8661 97.9291 42.8408 97.9382 42.8115Z" fill="url(#paint66_linear_5678_23653)"></path><path d="M94.9843 44.8225V42.4094H94.5405V44.8225C94.5405 44.8225 94.5405 44.8225 94.5405 44.9057C94.5869 44.9325 94.6395 44.9466 94.693 44.9466C94.7466 44.9466 94.7992 44.9325 94.8456 44.9057C94.8456 44.9057 94.9843 44.8503 94.9843 44.8225Z" fill="url(#paint67_linear_5678_23653)"></path><path d="M90.5187 47.4297V45.0166H90.1442V47.4297C90.1325 47.461 90.1325 47.4955 90.1442 47.5268C90.1925 47.5474 90.2444 47.558 90.2968 47.558C90.3492 47.558 90.4011 47.5474 90.4493 47.5268C90.4674 47.5168 90.483 47.5029 90.495 47.4861C90.507 47.4693 90.5151 47.45 90.5187 47.4297Z" fill="url(#paint68_linear_5678_23653)"></path><path d="M85.9005 47.8596C85.5851 47.8571 85.2753 47.7761 84.9991 47.6239L65.7775 36.5292C65.6294 36.4504 65.5058 36.3324 65.4202 36.1881C65.3346 36.0438 65.2903 35.8788 65.2921 35.711C65.2898 35.5394 65.3336 35.3703 65.419 35.2215C65.5044 35.0727 65.6282 34.9495 65.7775 34.865L67.414 33.922C67.4672 33.8914 67.5108 33.8467 67.5402 33.7929C67.5696 33.739 67.5835 33.6781 67.5804 33.6169C67.5806 33.5561 67.5655 33.4963 67.5364 33.4429C67.5073 33.3896 67.4652 33.3445 67.414 33.3118L16.1011 3.70285L16.4062 3.17585L67.7191 32.7848C67.8684 32.8693 67.9923 32.9924 68.0777 33.1413C68.1631 33.2901 68.2069 33.4592 68.2045 33.6307C68.2064 33.7985 68.1621 33.9636 68.0765 34.1079C67.9909 34.2522 67.8672 34.3702 67.7191 34.449L66.0965 35.392C66.0418 35.4219 65.9962 35.4661 65.9644 35.5198C65.9327 35.5735 65.916 35.6347 65.9162 35.6971C65.9127 35.7601 65.928 35.8227 65.9601 35.877C65.9922 35.9313 66.0397 35.9749 66.0965 36.0022L85.318 47.0969C85.5027 47.1989 85.7103 47.2524 85.9213 47.2524C86.1323 47.2524 86.3399 47.1989 86.5246 47.0969L97.2448 40.8977C97.3017 40.8704 97.3491 40.8268 97.3812 40.7725C97.4133 40.7182 97.4286 40.6556 97.4251 40.5926C97.4253 40.5303 97.4086 40.469 97.3769 40.4153C97.3451 40.3616 97.2995 40.3175 97.2448 40.2875L78.0233 29.1929C77.8386 29.0909 77.631 29.0374 77.42 29.0374C77.209 29.0374 77.0015 29.0909 76.8167 29.1929L74.889 30.2746C74.612 30.4314 74.299 30.5138 73.9807 30.5138C73.6623 30.5138 73.3494 30.4314 73.0723 30.2746L21.5791 0.526997L21.8842 0L73.419 29.7476C73.6024 29.8535 73.8105 29.9092 74.0223 29.9092C74.2341 29.9092 74.4421 29.8535 74.6255 29.7476L76.4978 28.6659C76.7748 28.5091 77.0878 28.4267 77.4061 28.4267C77.7245 28.4267 78.0374 28.5091 78.3145 28.6659L97.536 39.7605C97.6833 39.8439 97.8058 39.9649 97.8911 40.111C97.9763 40.2572 98.0213 40.4234 98.0214 40.5926C98.0228 40.7622 97.9784 40.9289 97.893 41.0753C97.8076 41.2218 97.6843 41.3425 97.536 41.4247L86.8158 47.6239C86.5352 47.7778 86.2205 47.8588 85.9005 47.8596Z" fill="#F5AA2C"></path><path d="M64.1272 40.0795V41.0641L85.9005 53.6288V52.6442L64.1272 40.0795Z" fill="#70564B"></path></g><defs><linearGradient id="paint0_linear_5678_23653" x1="46.8551" y1="94.0724" x2="97.8767" y2="5.71723" gradientUnits="userSpaceOnUse"><stop offset="0.11" stop-color="#AEACBA"></stop><stop offset="0.99" stop-color="#7B738C"></stop></linearGradient><linearGradient id="paint1_linear_5678_23653" x1="5.25611" y1="49.8844" x2="150" y2="49.8844" gradientUnits="userSpaceOnUse"><stop stop-color="#917D80"></stop><stop offset="0.03" stop-color="#968385"></stop><stop offset="0.22" stop-color="#B3A19F"></stop><stop offset="0.41" stop-color="#C8B7B3"></stop><stop offset="0.59" stop-color="#D5C4BE"></stop><stop offset="0.75" stop-color="#D9C9C2"></stop></linearGradient><linearGradient id="paint2_linear_5678_23653" x1="110.222" y1="110.522" x2="59.2425" y2="8.31227" gradientUnits="userSpaceOnUse"><stop stop-color="#2C434B"></stop><stop offset="0.64" stop-color="#668073"></stop><stop offset="0.96" stop-color="#829E87"></stop></linearGradient><linearGradient id="paint3_linear_5678_23653" x1="101.738" y1="107.369" x2="64.0301" y2="31.7585" gradientUnits="userSpaceOnUse"><stop stop-color="#2C434B"></stop><stop offset="0.64" stop-color="#668073"></stop><stop offset="0.96" stop-color="#829E87"></stop></linearGradient><linearGradient id="paint4_linear_5678_23653" x1="8.05752" y1="26.4054" x2="147.212" y2="26.4054" gradientUnits="userSpaceOnUse"><stop offset="0.25" stop-color="#D9C9C2"></stop><stop offset="0.41" stop-color="#D5C4BE"></stop><stop offset="0.59" stop-color="#C8B7B3"></stop><stop offset="0.78" stop-color="#B3A19F"></stop><stop offset="0.97" stop-color="#968385"></stop><stop offset="1" stop-color="#917D80"></stop></linearGradient><linearGradient id="paint5_linear_5678_23653" x1="17.0442" y1="7.19769" x2="17.488" y2="7.19769" gradientUnits="userSpaceOnUse"><stop stop-color="#E08D10"></stop><stop offset="0.1" stop-color="#E89B21"></stop><stop offset="0.32" stop-color="#F9B642"></stop><stop offset="0.43" stop-color="#FFC04F"></stop></linearGradient><linearGradient id="paint6_linear_5678_23653" x1="23.8119" y1="11.1086" x2="24.2557" y2="11.1086" gradientUnits="userSpaceOnUse"><stop stop-color="#E08D10"></stop><stop offset="0.1" stop-color="#E89B21"></stop><stop offset="0.32" stop-color="#F9B642"></stop><stop offset="0.43" stop-color="#FFC04F"></stop></linearGradient><linearGradient id="paint7_linear_5678_23653" x1="30.5936" y1="15.0195" x2="31.0374" y2="15.0195" gradientUnits="userSpaceOnUse"><stop stop-color="#E08D10"></stop><stop offset="0.1" stop-color="#E89B21"></stop><stop offset="0.32" stop-color="#F9B642"></stop><stop offset="0.43" stop-color="#FFC04F"></stop></linearGradient><linearGradient id="paint8_linear_5678_23653" x1="37.3752" y1="18.9302" x2="37.8051" y2="18.9302" gradientUnits="userSpaceOnUse"><stop stop-color="#E08D10"></stop><stop offset="0.1" stop-color="#E89B21"></stop><stop offset="0.32" stop-color="#F9B642"></stop><stop offset="0.43" stop-color="#FFC04F"></stop></linearGradient><linearGradient id="paint9_linear_5678_23653" x1="44.1429" y1="22.8412" x2="44.5867" y2="22.8412" gradientUnits="userSpaceOnUse"><stop stop-color="#E08D10"></stop><stop offset="0.1" stop-color="#E89B21"></stop><stop offset="0.32" stop-color="#F9B642"></stop><stop offset="0.43" stop-color="#FFC04F"></stop></linearGradient><linearGradient id="paint10_linear_5678_23653" x1="50.9246" y1="26.7521" x2="51.3684" y2="26.7521" gradientUnits="userSpaceOnUse"><stop stop-color="#E08D10"></stop><stop offset="0.1" stop-color="#E89B21"></stop><stop offset="0.32" stop-color="#F9B642"></stop><stop offset="0.43" stop-color="#FFC04F"></stop></linearGradient><linearGradient id="paint11_linear_5678_23653" x1="57.6923" y1="30.6629" x2="58.1361" y2="30.6629" gradientUnits="userSpaceOnUse"><stop stop-color="#E08D10"></stop><stop offset="0.1" stop-color="#E89B21"></stop><stop offset="0.32" stop-color="#F9B642"></stop><stop offset="0.43" stop-color="#FFC04F"></stop></linearGradient><linearGradient id="paint12_linear_5678_23653" x1="64.4739" y1="34.5738" x2="64.9177" y2="34.5738" gradientUnits="userSpaceOnUse"><stop stop-color="#E08D10"></stop><stop offset="0.1" stop-color="#E89B21"></stop><stop offset="0.32" stop-color="#F9B642"></stop><stop offset="0.43" stop-color="#FFC04F"></stop></linearGradient><linearGradient id="paint13_linear_5678_23653" x1="22.1062" y1="3.74439" x2="22.5361" y2="3.74439" gradientUnits="userSpaceOnUse"><stop stop-color="#E08D10"></stop><stop offset="0.1" stop-color="#E89B21"></stop><stop offset="0.32" stop-color="#F9B642"></stop><stop offset="0.43" stop-color="#FFC04F"></stop></linearGradient><linearGradient id="paint14_linear_5678_23653" x1="28.8739" y1="7.65528" x2="29.3177" y2="7.65528" gradientUnits="userSpaceOnUse"><stop stop-color="#E08D10"></stop><stop offset="0.1" stop-color="#E89B21"></stop><stop offset="0.32" stop-color="#F9B642"></stop><stop offset="0.43" stop-color="#FFC04F"></stop></linearGradient><linearGradient id="paint15_linear_5678_23653" x1="35.6555" y1="11.5662" x2="36.0854" y2="11.5662" gradientUnits="userSpaceOnUse"><stop stop-color="#E08D10"></stop><stop offset="0.1" stop-color="#E89B21"></stop><stop offset="0.32" stop-color="#F9B642"></stop><stop offset="0.43" stop-color="#FFC04F"></stop></linearGradient><linearGradient id="paint16_linear_5678_23653" x1="42.4232" y1="15.4771" x2="42.867" y2="15.4771" gradientUnits="userSpaceOnUse"><stop stop-color="#E08D10"></stop><stop offset="0.1" stop-color="#E89B21"></stop><stop offset="0.32" stop-color="#F9B642"></stop><stop offset="0.43" stop-color="#FFC04F"></stop></linearGradient><linearGradient id="paint17_linear_5678_23653" x1="49.2049" y1="19.3879" x2="49.6487" y2="19.3879" gradientUnits="userSpaceOnUse"><stop stop-color="#E08D10"></stop><stop offset="0.1" stop-color="#E89B21"></stop><stop offset="0.32" stop-color="#F9B642"></stop><stop offset="0.43" stop-color="#FFC04F"></stop></linearGradient><linearGradient id="paint18_linear_5678_23653" x1="55.9726" y1="23.2988" x2="56.4164" y2="23.2988" gradientUnits="userSpaceOnUse"><stop stop-color="#E08D10"></stop><stop offset="0.1" stop-color="#E89B21"></stop><stop offset="0.32" stop-color="#F9B642"></stop><stop offset="0.43" stop-color="#FFC04F"></stop></linearGradient><linearGradient id="paint19_linear_5678_23653" x1="62.7542" y1="27.2097" x2="63.198" y2="27.2097" gradientUnits="userSpaceOnUse"><stop stop-color="#E08D10"></stop><stop offset="0.1" stop-color="#E89B21"></stop><stop offset="0.32" stop-color="#F9B642"></stop><stop offset="0.43" stop-color="#FFC04F"></stop></linearGradient><linearGradient id="paint20_linear_5678_23653" x1="69.522" y1="31.1206" x2="69.9658" y2="31.1206" gradientUnits="userSpaceOnUse"><stop stop-color="#E08D10"></stop><stop offset="0.1" stop-color="#E89B21"></stop><stop offset="0.32" stop-color="#F9B642"></stop><stop offset="0.43" stop-color="#FFC04F"></stop></linearGradient><linearGradient id="paint21_linear_5678_23653" x1="67.6359" y1="36.8344" x2="68.0797" y2="36.8344" gradientUnits="userSpaceOnUse"><stop stop-color="#E08D10"></stop><stop offset="0.1" stop-color="#E89B21"></stop><stop offset="0.32" stop-color="#F9B642"></stop><stop offset="0.43" stop-color="#FFC04F"></stop></linearGradient><linearGradient id="paint22_linear_5678_23653" x1="65.3754" y1="38.8591" x2="65.8191" y2="38.8591" gradientUnits="userSpaceOnUse"><stop stop-color="#E08D10"></stop><stop offset="0.1" stop-color="#E89B21"></stop><stop offset="0.32" stop-color="#F9B642"></stop><stop offset="0.43" stop-color="#FFC04F"></stop></linearGradient><linearGradient id="paint23_linear_5678_23653" x1="67.414" y1="40.4124" x2="67.8578" y2="40.4124" gradientUnits="userSpaceOnUse"><stop stop-color="#E08D10"></stop><stop offset="0.1" stop-color="#E89B21"></stop><stop offset="0.32" stop-color="#F9B642"></stop><stop offset="0.43" stop-color="#FFC04F"></stop></linearGradient><linearGradient id="paint24_linear_5678_23653" x1="72.3234" y1="43.2831" x2="72.7672" y2="43.2831" gradientUnits="userSpaceOnUse"><stop stop-color="#E08D10"></stop><stop offset="0.1" stop-color="#E89B21"></stop><stop offset="0.32" stop-color="#F9B642"></stop><stop offset="0.43" stop-color="#FFC04F"></stop></linearGradient><linearGradient id="paint25_linear_5678_23653" x1="77.2328" y1="46.0845" x2="77.6766" y2="46.0845" gradientUnits="userSpaceOnUse"><stop stop-color="#E08D10"></stop><stop offset="0.1" stop-color="#E89B21"></stop><stop offset="0.32" stop-color="#F9B642"></stop><stop offset="0.43" stop-color="#FFC04F"></stop></linearGradient><linearGradient id="paint26_linear_5678_23653" x1="82.1283" y1="48.9136" x2="82.5721" y2="48.9136" gradientUnits="userSpaceOnUse"><stop stop-color="#E08D10"></stop><stop offset="0.1" stop-color="#E89B21"></stop><stop offset="0.32" stop-color="#F9B642"></stop><stop offset="0.43" stop-color="#FFC04F"></stop></linearGradient><linearGradient id="paint27_linear_5678_23653" x1="85.637" y1="50.7582" x2="86.0808" y2="50.7582" gradientUnits="userSpaceOnUse"><stop stop-color="#E08D10"></stop><stop offset="0.1" stop-color="#E89B21"></stop><stop offset="0.32" stop-color="#F9B642"></stop><stop offset="0.43" stop-color="#FFC04F"></stop></linearGradient><linearGradient id="paint28_linear_5678_23653" x1="74.0431" y1="33.4505" x2="74.4869" y2="33.4505" gradientUnits="userSpaceOnUse"><stop stop-color="#E08D10"></stop><stop offset="0.1" stop-color="#E89B21"></stop><stop offset="0.32" stop-color="#F9B642"></stop><stop offset="0.43" stop-color="#FFC04F"></stop></linearGradient><linearGradient id="paint29_linear_5678_23653" x1="77.2328" y1="31.925" x2="77.6766" y2="31.925" gradientUnits="userSpaceOnUse"><stop stop-color="#E08D10"></stop><stop offset="0.1" stop-color="#E89B21"></stop><stop offset="0.32" stop-color="#F9B642"></stop><stop offset="0.43" stop-color="#FFC04F"></stop></linearGradient><linearGradient id="paint30_linear_5678_23653" x1="79.9232" y1="33.3672" x2="80.367" y2="33.3672" gradientUnits="userSpaceOnUse"><stop stop-color="#E08D10"></stop><stop offset="0.1" stop-color="#E89B21"></stop><stop offset="0.32" stop-color="#F9B642"></stop><stop offset="0.43" stop-color="#FFC04F"></stop></linearGradient><linearGradient id="paint31_linear_5678_23653" x1="84.8327" y1="36.2379" x2="85.2765" y2="36.2379" gradientUnits="userSpaceOnUse"><stop stop-color="#E08D10"></stop><stop offset="0.1" stop-color="#E89B21"></stop><stop offset="0.32" stop-color="#F9B642"></stop><stop offset="0.43" stop-color="#FFC04F"></stop></linearGradient><linearGradient id="paint32_linear_5678_23653" x1="89.7421" y1="39.0394" x2="90.1858" y2="39.0394" gradientUnits="userSpaceOnUse"><stop stop-color="#E08D10"></stop><stop offset="0.1" stop-color="#E89B21"></stop><stop offset="0.32" stop-color="#F9B642"></stop><stop offset="0.43" stop-color="#FFC04F"></stop></linearGradient><linearGradient id="paint33_linear_5678_23653" x1="94.6376" y1="41.8546" x2="95.0814" y2="41.8546" gradientUnits="userSpaceOnUse"><stop stop-color="#E08D10"></stop><stop offset="0.1" stop-color="#E89B21"></stop><stop offset="0.32" stop-color="#F9B642"></stop><stop offset="0.43" stop-color="#FFC04F"></stop></linearGradient><linearGradient id="paint34_linear_5678_23653" x1="97.4944" y1="43.9072" x2="97.9382" y2="43.9072" gradientUnits="userSpaceOnUse"><stop stop-color="#E08D10"></stop><stop offset="0.1" stop-color="#E89B21"></stop><stop offset="0.32" stop-color="#F9B642"></stop><stop offset="0.43" stop-color="#FFC04F"></stop></linearGradient><linearGradient id="paint35_linear_5678_23653" x1="94.5405" y1="45.9181" x2="94.9843" y2="45.9181" gradientUnits="userSpaceOnUse"><stop stop-color="#E08D10"></stop><stop offset="0.1" stop-color="#E89B21"></stop><stop offset="0.32" stop-color="#F9B642"></stop><stop offset="0.43" stop-color="#FFC04F"></stop></linearGradient><linearGradient id="paint36_linear_5678_23653" x1="90.0749" y1="48.5253" x2="90.5187" y2="48.5253" gradientUnits="userSpaceOnUse"><stop stop-color="#E08D10"></stop><stop offset="0.1" stop-color="#E89B21"></stop><stop offset="0.32" stop-color="#F9B642"></stop><stop offset="0.43" stop-color="#FFC04F"></stop></linearGradient><linearGradient id="paint37_linear_5678_23653" x1="17.0442" y1="4.96485" x2="17.488" y2="4.96485" gradientUnits="userSpaceOnUse"><stop stop-color="#E08D10"></stop><stop offset="0.1" stop-color="#E89B21"></stop><stop offset="0.32" stop-color="#F9B642"></stop><stop offset="0.43" stop-color="#FFC04F"></stop></linearGradient><linearGradient id="paint38_linear_5678_23653" x1="23.8119" y1="8.87574" x2="24.2557" y2="8.87574" gradientUnits="userSpaceOnUse"><stop stop-color="#E08D10"></stop><stop offset="0.1" stop-color="#E89B21"></stop><stop offset="0.32" stop-color="#F9B642"></stop><stop offset="0.43" stop-color="#FFC04F"></stop></linearGradient><linearGradient id="paint39_linear_5678_23653" x1="30.5936" y1="12.7866" x2="31.0374" y2="12.7866" gradientUnits="userSpaceOnUse"><stop stop-color="#E08D10"></stop><stop offset="0.1" stop-color="#E89B21"></stop><stop offset="0.32" stop-color="#F9B642"></stop><stop offset="0.43" stop-color="#FFC04F"></stop></linearGradient><linearGradient id="paint40_linear_5678_23653" x1="37.3752" y1="16.6975" x2="37.8051" y2="16.6975" gradientUnits="userSpaceOnUse"><stop stop-color="#E08D10"></stop><stop offset="0.1" stop-color="#E89B21"></stop><stop offset="0.32" stop-color="#F9B642"></stop><stop offset="0.43" stop-color="#FFC04F"></stop></linearGradient><linearGradient id="paint41_linear_5678_23653" x1="44.1429" y1="20.6084" x2="44.5867" y2="20.6084" gradientUnits="userSpaceOnUse"><stop stop-color="#E08D10"></stop><stop offset="0.1" stop-color="#E89B21"></stop><stop offset="0.32" stop-color="#F9B642"></stop><stop offset="0.43" stop-color="#FFC04F"></stop></linearGradient><linearGradient id="paint42_linear_5678_23653" x1="50.9246" y1="24.5192" x2="51.3684" y2="24.5192" gradientUnits="userSpaceOnUse"><stop stop-color="#E08D10"></stop><stop offset="0.1" stop-color="#E89B21"></stop><stop offset="0.32" stop-color="#F9B642"></stop><stop offset="0.43" stop-color="#FFC04F"></stop></linearGradient><linearGradient id="paint43_linear_5678_23653" x1="57.6923" y1="28.4301" x2="58.1361" y2="28.4301" gradientUnits="userSpaceOnUse"><stop stop-color="#E08D10"></stop><stop offset="0.1" stop-color="#E89B21"></stop><stop offset="0.32" stop-color="#F9B642"></stop><stop offset="0.43" stop-color="#FFC04F"></stop></linearGradient><linearGradient id="paint44_linear_5678_23653" x1="64.4739" y1="32.341" x2="64.9177" y2="32.341" gradientUnits="userSpaceOnUse"><stop stop-color="#E08D10"></stop><stop offset="0.1" stop-color="#E89B21"></stop><stop offset="0.32" stop-color="#F9B642"></stop><stop offset="0.43" stop-color="#FFC04F"></stop></linearGradient><linearGradient id="paint45_linear_5678_23653" x1="22.1061" y1="1.51161" x2="22.5361" y2="1.51161" gradientUnits="userSpaceOnUse"><stop stop-color="#E08D10"></stop><stop offset="0.1" stop-color="#E89B21"></stop><stop offset="0.32" stop-color="#F9B642"></stop><stop offset="0.43" stop-color="#FFC04F"></stop></linearGradient><linearGradient id="paint46_linear_5678_23653" x1="28.8739" y1="5.42254" x2="29.3177" y2="5.42254" gradientUnits="userSpaceOnUse"><stop stop-color="#E08D10"></stop><stop offset="0.1" stop-color="#E89B21"></stop><stop offset="0.32" stop-color="#F9B642"></stop><stop offset="0.43" stop-color="#FFC04F"></stop></linearGradient><linearGradient id="paint47_linear_5678_23653" x1="35.6555" y1="9.33338" x2="36.0854" y2="9.33338" gradientUnits="userSpaceOnUse"><stop stop-color="#E08D10"></stop><stop offset="0.1" stop-color="#E89B21"></stop><stop offset="0.32" stop-color="#F9B642"></stop><stop offset="0.43" stop-color="#FFC04F"></stop></linearGradient><linearGradient id="paint48_linear_5678_23653" x1="42.4232" y1="13.2443" x2="42.867" y2="13.2443" gradientUnits="userSpaceOnUse"><stop stop-color="#E08D10"></stop><stop offset="0.1" stop-color="#E89B21"></stop><stop offset="0.32" stop-color="#F9B642"></stop><stop offset="0.43" stop-color="#FFC04F"></stop></linearGradient><linearGradient id="paint49_linear_5678_23653" x1="49.2049" y1="17.1552" x2="49.6487" y2="17.1552" gradientUnits="userSpaceOnUse"><stop stop-color="#E08D10"></stop><stop offset="0.1" stop-color="#E89B21"></stop><stop offset="0.32" stop-color="#F9B642"></stop><stop offset="0.43" stop-color="#FFC04F"></stop></linearGradient><linearGradient id="paint50_linear_5678_23653" x1="55.9726" y1="21.066" x2="56.4164" y2="21.066" gradientUnits="userSpaceOnUse"><stop stop-color="#E08D10"></stop><stop offset="0.1" stop-color="#E89B21"></stop><stop offset="0.32" stop-color="#F9B642"></stop><stop offset="0.43" stop-color="#FFC04F"></stop></linearGradient><linearGradient id="paint51_linear_5678_23653" x1="62.7543" y1="24.9769" x2="63.198" y2="24.9769" gradientUnits="userSpaceOnUse"><stop stop-color="#E08D10"></stop><stop offset="0.1" stop-color="#E89B21"></stop><stop offset="0.32" stop-color="#F9B642"></stop><stop offset="0.43" stop-color="#FFC04F"></stop></linearGradient><linearGradient id="paint52_linear_5678_23653" x1="69.522" y1="28.8877" x2="69.9658" y2="28.8877" gradientUnits="userSpaceOnUse"><stop stop-color="#E08D10"></stop><stop offset="0.1" stop-color="#E89B21"></stop><stop offset="0.32" stop-color="#F9B642"></stop><stop offset="0.43" stop-color="#FFC04F"></stop></linearGradient><linearGradient id="paint53_linear_5678_23653" x1="67.6359" y1="34.6015" x2="68.0797" y2="34.6015" gradientUnits="userSpaceOnUse"><stop stop-color="#E08D10"></stop><stop offset="0.1" stop-color="#E89B21"></stop><stop offset="0.32" stop-color="#F9B642"></stop><stop offset="0.43" stop-color="#FFC04F"></stop></linearGradient><linearGradient id="paint54_linear_5678_23653" x1="65.3754" y1="36.6125" x2="65.8191" y2="36.6125" gradientUnits="userSpaceOnUse"><stop stop-color="#E08D10"></stop><stop offset="0.1" stop-color="#E89B21"></stop><stop offset="0.32" stop-color="#F9B642"></stop><stop offset="0.43" stop-color="#FFC04F"></stop></linearGradient><linearGradient id="paint55_linear_5678_23653" x1="67.414" y1="38.1795" x2="67.8578" y2="38.1795" gradientUnits="userSpaceOnUse"><stop stop-color="#E08D10"></stop><stop offset="0.1" stop-color="#E89B21"></stop><stop offset="0.32" stop-color="#F9B642"></stop><stop offset="0.43" stop-color="#FFC04F"></stop></linearGradient><linearGradient id="paint56_linear_5678_23653" x1="72.3234" y1="41.0503" x2="72.7672" y2="41.0503" gradientUnits="userSpaceOnUse"><stop stop-color="#E08D10"></stop><stop offset="0.1" stop-color="#E89B21"></stop><stop offset="0.32" stop-color="#F9B642"></stop><stop offset="0.43" stop-color="#FFC04F"></stop></linearGradient><linearGradient id="paint57_linear_5678_23653" x1="77.2328" y1="43.8517" x2="77.6766" y2="43.8517" gradientUnits="userSpaceOnUse"><stop stop-color="#E08D10"></stop><stop offset="0.1" stop-color="#E89B21"></stop><stop offset="0.32" stop-color="#F9B642"></stop><stop offset="0.43" stop-color="#FFC04F"></stop></linearGradient><linearGradient id="paint58_linear_5678_23653" x1="82.1283" y1="46.6808" x2="82.5721" y2="46.6808" gradientUnits="userSpaceOnUse"><stop stop-color="#E08D10"></stop><stop offset="0.1" stop-color="#E89B21"></stop><stop offset="0.32" stop-color="#F9B642"></stop><stop offset="0.43" stop-color="#FFC04F"></stop></linearGradient><linearGradient id="paint59_linear_5678_23653" x1="85.637" y1="48.5253" x2="86.0808" y2="48.5253" gradientUnits="userSpaceOnUse"><stop stop-color="#E08D10"></stop><stop offset="0.1" stop-color="#E89B21"></stop><stop offset="0.32" stop-color="#F9B642"></stop><stop offset="0.43" stop-color="#FFC04F"></stop></linearGradient><linearGradient id="paint60_linear_5678_23653" x1="74.0431" y1="31.2176" x2="74.4869" y2="31.2176" gradientUnits="userSpaceOnUse"><stop stop-color="#E08D10"></stop><stop offset="0.1" stop-color="#E89B21"></stop><stop offset="0.32" stop-color="#F9B642"></stop><stop offset="0.43" stop-color="#FFC04F"></stop></linearGradient><linearGradient id="paint61_linear_5678_23653" x1="77.2328" y1="29.6921" x2="77.6766" y2="29.6921" gradientUnits="userSpaceOnUse"><stop stop-color="#E08D10"></stop><stop offset="0.1" stop-color="#E89B21"></stop><stop offset="0.32" stop-color="#F9B642"></stop><stop offset="0.43" stop-color="#FFC04F"></stop></linearGradient><linearGradient id="paint62_linear_5678_23653" x1="79.9232" y1="31.1344" x2="80.367" y2="31.1344" gradientUnits="userSpaceOnUse"><stop stop-color="#E08D10"></stop><stop offset="0.1" stop-color="#E89B21"></stop><stop offset="0.32" stop-color="#F9B642"></stop><stop offset="0.43" stop-color="#FFC04F"></stop></linearGradient><linearGradient id="paint63_linear_5678_23653" x1="84.8326" y1="33.9913" x2="85.2764" y2="33.9913" gradientUnits="userSpaceOnUse"><stop stop-color="#E08D10"></stop><stop offset="0.1" stop-color="#E89B21"></stop><stop offset="0.32" stop-color="#F9B642"></stop><stop offset="0.43" stop-color="#FFC04F"></stop></linearGradient><linearGradient id="paint64_linear_5678_23653" x1="89.742" y1="36.8065" x2="90.1858" y2="36.8065" gradientUnits="userSpaceOnUse"><stop stop-color="#E08D10"></stop><stop offset="0.1" stop-color="#E89B21"></stop><stop offset="0.32" stop-color="#F9B642"></stop><stop offset="0.43" stop-color="#FFC04F"></stop></linearGradient><linearGradient id="paint65_linear_5678_23653" x1="94.6376" y1="39.6218" x2="95.0814" y2="39.6218" gradientUnits="userSpaceOnUse"><stop stop-color="#E08D10"></stop><stop offset="0.1" stop-color="#E89B21"></stop><stop offset="0.32" stop-color="#F9B642"></stop><stop offset="0.43" stop-color="#FFC04F"></stop></linearGradient><linearGradient id="paint66_linear_5678_23653" x1="97.4945" y1="41.6743" x2="97.9382" y2="41.6743" gradientUnits="userSpaceOnUse"><stop stop-color="#E08D10"></stop><stop offset="0.1" stop-color="#E89B21"></stop><stop offset="0.32" stop-color="#F9B642"></stop><stop offset="0.43" stop-color="#FFC04F"></stop></linearGradient><linearGradient id="paint67_linear_5678_23653" x1="94.5405" y1="43.6714" x2="94.9843" y2="43.6714" gradientUnits="userSpaceOnUse"><stop stop-color="#E08D10"></stop><stop offset="0.1" stop-color="#E89B21"></stop><stop offset="0.32" stop-color="#F9B642"></stop><stop offset="0.43" stop-color="#FFC04F"></stop></linearGradient><linearGradient id="paint68_linear_5678_23653" x1="90.0749" y1="46.2925" x2="90.5187" y2="46.2925" gradientUnits="userSpaceOnUse"><stop stop-color="#E08D10"></stop><stop offset="0.1" stop-color="#E89B21"></stop><stop offset="0.32" stop-color="#F9B642"></stop><stop offset="0.43" stop-color="#FFC04F"></stop></linearGradient><clipPath id="clip0_5678_23653"><rect width="150" height="91.6697" fill="white"></rect></clipPath></defs></svg>