<svg xmlns="http://www.w3.org/2000/svg" width="135" height="104" viewBox="0 0 135 104" fill="none"><g clip-path="url(#clip0_5678_15792)"><path d="M57.14 95.8199H28.38C28.3371 95.8213 28.2945 95.814 28.2545 95.7985C28.2145 95.783 28.178 95.7597 28.1472 95.7298C28.1165 95.7 28.092 95.6642 28.0753 95.6247C28.0586 95.5852 28.05 95.5428 28.05 95.4999C28.05 95.4124 28.0848 95.3285 28.1467 95.2666C28.2085 95.2047 28.2925 95.1699 28.38 95.1699H57.14C57.2275 95.1699 57.3115 95.2047 57.3733 95.2666C57.4352 95.3285 57.47 95.4124 57.47 95.4999C57.47 95.5428 57.4614 95.5852 57.4447 95.6247C57.428 95.6642 57.4036 95.7 57.3728 95.7298C57.342 95.7597 57.3055 95.783 57.2655 95.7985C57.2256 95.814 57.1829 95.8213 57.14 95.8199Z" fill="#17262F"></path><path d="M71.85 103.58C68.394 103.579 65.0668 102.268 62.54 99.9101C62.5092 99.8802 62.4846 99.8445 62.4679 99.805C62.4511 99.7654 62.4425 99.723 62.4425 99.6801C62.4425 99.6371 62.4511 99.5947 62.4679 99.5551C62.4846 99.5156 62.5092 99.4799 62.54 99.4501C62.569 99.4195 62.6039 99.3952 62.6425 99.3785C62.6812 99.3619 62.7229 99.3533 62.765 99.3533C62.8071 99.3533 62.8488 99.3619 62.8875 99.3785C62.9261 99.3952 62.961 99.4195 62.99 99.4501C65.3972 101.697 68.5673 102.946 71.86 102.946C75.1527 102.946 78.3228 101.697 80.73 99.4501C80.7598 99.4192 80.7956 99.3947 80.8351 99.3779C80.8746 99.3612 80.9171 99.3525 80.96 99.3525C81.0029 99.3525 81.0454 99.3612 81.0849 99.3779C81.1244 99.3947 81.1602 99.4192 81.19 99.4501C81.2499 99.5116 81.2834 99.5942 81.2834 99.6801C81.2834 99.7659 81.2499 99.8485 81.19 99.9101C78.6578 102.278 75.3172 103.591 71.85 103.58Z" fill="#17262F"></path><path d="M13.67 103.58C10.2124 103.588 6.88246 102.275 4.36 99.9104C4.32914 99.8815 4.30427 99.8468 4.28682 99.8083C4.26936 99.7698 4.25966 99.7282 4.25827 99.686C4.25688 99.6437 4.26382 99.6016 4.2787 99.562C4.29358 99.5225 4.31611 99.4862 4.345 99.4554C4.37389 99.4245 4.40858 99.3996 4.44708 99.3822C4.48558 99.3647 4.52715 99.355 4.5694 99.3536C4.61165 99.3522 4.65376 99.3592 4.69333 99.374C4.73289 99.3889 4.76914 99.4115 4.8 99.4404C7.20721 101.687 10.3773 102.937 13.67 102.937C16.9627 102.937 20.1328 101.687 22.54 99.4404C22.5696 99.4027 22.607 99.3719 22.6496 99.3501C22.6923 99.3283 22.7391 99.3161 22.787 99.3142C22.8349 99.3124 22.8825 99.321 22.9267 99.3394C22.9709 99.3578 23.0106 99.3857 23.043 99.421C23.0753 99.4563 23.0996 99.4982 23.1141 99.5438C23.1287 99.5895 23.1331 99.6377 23.1271 99.6852C23.1211 99.7328 23.1049 99.7784 23.0795 99.819C23.0541 99.8596 23.0201 99.8942 22.98 99.9203C20.4522 102.275 17.1249 103.583 13.67 103.58Z" fill="#17262F"></path><path d="M13.67 101.22C11.864 101.236 10.0807 100.817 8.47 100C8.39375 99.9597 8.3364 99.891 8.31023 99.8088C8.28406 99.7265 8.29115 99.6373 8.33 99.5602C8.34991 99.5223 8.37721 99.4889 8.41028 99.4617C8.44335 99.4346 8.48152 99.4144 8.52254 99.4023C8.56356 99.3902 8.60659 99.3864 8.6491 99.3912C8.6916 99.396 8.73271 99.4092 8.77 99.4302C10.2869 100.206 11.9663 100.61 13.67 100.61C15.3755 100.615 17.0569 100.207 18.57 99.4202C18.6449 99.3944 18.7266 99.3964 18.8001 99.4259C18.8736 99.4553 18.9341 99.5103 18.9705 99.5806C19.0069 99.651 19.0168 99.7321 18.9983 99.8091C18.9799 99.8861 18.9343 99.954 18.87 100C17.2589 100.816 15.4759 101.235 13.67 101.22Z" fill="#17262F"></path><path d="M71.85 101.22C70.0473 101.234 68.2675 100.816 66.66 100C66.6213 99.9811 66.5868 99.9545 66.5587 99.9218C66.5305 99.8891 66.5093 99.8511 66.4962 99.81C66.4831 99.7689 66.4785 99.7256 66.4826 99.6826C66.4867 99.6397 66.4994 99.598 66.52 99.5601C66.5389 99.5226 66.5652 99.4893 66.5974 99.4623C66.6296 99.4353 66.6669 99.4151 66.7071 99.4029C66.7473 99.3908 66.7896 99.3869 66.8314 99.3916C66.8731 99.3963 66.9135 99.4094 66.95 99.4301C68.4673 100.204 70.1465 100.608 71.85 100.608C73.5535 100.608 75.2327 100.204 76.75 99.4301C76.8271 99.3913 76.9163 99.3842 76.9986 99.4104C77.0808 99.4365 77.1495 99.4939 77.19 99.5701C77.2284 99.6457 77.2352 99.7335 77.209 99.8141C77.1827 99.8947 77.1255 99.9616 77.05 100C75.4393 100.817 73.656 101.236 71.85 101.22Z" fill="#17262F"></path><path d="M120.51 2.48023H101.35C101.307 2.48026 101.265 2.47166 101.225 2.45496C101.186 2.43825 101.15 2.41378 101.12 2.383C101.09 2.35222 101.067 2.31575 101.051 2.27577C101.036 2.23578 101.029 2.19309 101.03 2.15023C101.03 2.06537 101.064 1.98397 101.124 1.92396C101.184 1.86395 101.265 1.83023 101.35 1.83023H120.51C120.553 1.82889 120.596 1.83618 120.636 1.85166C120.676 1.86714 120.712 1.8905 120.743 1.92035C120.774 1.9502 120.798 1.98593 120.815 2.02542C120.831 2.06491 120.84 2.10736 120.84 2.15023C120.84 2.23776 120.805 2.32169 120.743 2.38358C120.681 2.44547 120.598 2.48023 120.51 2.48023Z" fill="#17262F"></path><path d="M119.85 6.72031H103.49C103.447 6.72165 103.404 6.71437 103.364 6.69888C103.324 6.6834 103.288 6.66005 103.257 6.6302C103.226 6.60035 103.202 6.56462 103.185 6.52513C103.169 6.48563 103.16 6.44319 103.16 6.40031C103.16 6.31279 103.195 6.22885 103.257 6.16697C103.319 6.10508 103.402 6.07031 103.49 6.07031H119.85C119.938 6.07031 120.021 6.10508 120.083 6.16697C120.145 6.22885 120.18 6.31279 120.18 6.40031C120.18 6.44319 120.171 6.48563 120.155 6.52513C120.138 6.56462 120.114 6.60035 120.083 6.6302C120.052 6.66005 120.016 6.6834 119.976 6.69888C119.936 6.71437 119.893 6.72165 119.85 6.72031Z" fill="#17262F"></path><path d="M42.38 23.0001C42.3366 23.0017 42.2934 22.9935 42.2536 22.9762C42.2138 22.9589 42.1784 22.9329 42.15 22.9001C42.1192 22.8702 42.0946 22.8345 42.0779 22.795C42.0611 22.7555 42.0525 22.713 42.0525 22.6701C42.0525 22.6272 42.0611 22.5847 42.0779 22.5452C42.0946 22.5057 42.1192 22.4699 42.15 22.4401L48 16.6101C48.0278 16.5709 48.0637 16.5382 48.1054 16.5143C48.1471 16.4904 48.1936 16.476 48.2414 16.4719C48.2893 16.4678 48.3375 16.4743 48.3826 16.4907C48.4278 16.5072 48.4687 16.5334 48.5027 16.5674C48.5367 16.6013 48.5628 16.6423 48.5793 16.6874C48.5958 16.7326 48.6023 16.7808 48.5982 16.8286C48.5941 16.8765 48.5796 16.9229 48.5558 16.9646C48.5319 17.0063 48.4992 17.0423 48.46 17.0701L42.61 22.9201C42.5469 22.976 42.4642 23.0048 42.38 23.0001Z" fill="#17262F"></path><path d="M31.66 15.1503C31.5749 15.1492 31.4932 15.1172 31.43 15.0603C31.3724 14.9975 31.3404 14.9154 31.3404 14.8303C31.3404 14.7451 31.3724 14.663 31.43 14.6003L40.76 5.27026C40.8227 5.21264 40.9048 5.18066 40.99 5.18066C41.0752 5.18066 41.1573 5.21264 41.22 5.27026C41.2508 5.3001 41.2754 5.33584 41.2921 5.37536C41.3089 5.41487 41.3175 5.45735 41.3175 5.50026C41.3175 5.54318 41.3089 5.58566 41.2921 5.62517C41.2754 5.66469 41.2508 5.70043 41.22 5.73026L31.89 15.0603C31.8595 15.0898 31.8235 15.1129 31.784 15.1283C31.7446 15.1438 31.7024 15.1512 31.66 15.1503Z" fill="#17262F"></path><path d="M42.22 37.07C42.1351 37.07 42.0537 37.0363 41.9937 36.9763C41.9337 36.9163 41.9 36.8349 41.9 36.75V27.84C42.0202 26.2605 41.8137 24.6732 41.2932 23.1771C40.7728 21.6809 39.9497 20.3081 38.8752 19.1441C37.8007 17.9802 36.4979 17.0502 35.0481 16.412C33.5982 15.7739 32.0324 15.4413 30.4484 15.4351C28.8643 15.4289 27.296 15.7492 25.8412 16.376C24.3864 17.0028 23.0763 17.9226 21.9928 19.0781C20.9092 20.2336 20.0753 21.5999 19.5432 23.092C19.0111 24.584 18.7922 26.1696 18.9 27.75L18.85 36.65C18.85 36.7349 18.8163 36.8163 18.7563 36.8763C18.6963 36.9363 18.6149 36.97 18.53 36.97C18.4871 36.9714 18.4445 36.9641 18.4045 36.9486C18.3645 36.9331 18.328 36.9098 18.2972 36.8799C18.2664 36.8501 18.242 36.8143 18.2253 36.7749C18.2086 36.7354 18.2 36.6929 18.2 36.65V27.74C18.2132 24.5141 19.5068 21.4254 21.7963 19.1527C24.0858 16.88 27.184 15.6094 30.41 15.62H30.47C33.6978 15.6386 36.7865 16.9365 39.0585 19.2292C41.3306 21.5219 42.6006 24.6222 42.59 27.85L42.54 36.75C42.54 36.8349 42.5063 36.9163 42.4463 36.9763C42.3863 37.0363 42.3049 37.07 42.22 37.07Z" fill="#17262F"></path><path d="M30.42 34.83C28.6725 34.827 26.9802 34.218 25.6316 33.1067C24.2829 31.9955 23.3615 30.4508 23.0245 28.7361C22.6875 27.0214 22.9557 25.2429 23.7834 23.7039C24.6111 22.1649 25.947 20.9606 27.5634 20.2965C29.1797 19.6324 30.9764 19.5495 32.6471 20.062C34.3177 20.5745 35.7588 21.6507 36.7247 23.107C37.6906 24.5633 38.1214 26.3095 37.9436 28.0479C37.7659 29.7863 36.9906 31.4093 35.75 32.64C35.0469 33.3429 34.2108 33.8986 33.2905 34.2746C32.3702 34.6507 31.3841 34.8395 30.39 34.83H30.42ZM30.42 20.41C28.5953 20.41 26.8454 21.1348 25.5551 22.4251C24.2649 23.7153 23.54 25.4653 23.54 27.29C23.54 29.1147 24.2649 30.8646 25.5551 32.1549C26.8454 33.4451 28.5953 34.17 30.42 34.17C31.3244 34.1804 32.2217 34.0087 33.0584 33.6651C33.895 33.3215 34.654 32.813 35.29 32.17C36.2527 31.2105 36.9101 29.9878 37.1795 28.6557C37.449 27.3235 37.3184 25.9414 36.8043 24.6833C36.2901 23.4252 35.4153 22.3472 34.29 21.585C33.1647 20.8229 31.8391 20.4106 30.48 20.4L30.42 20.41Z" fill="#17262F"></path><path d="M44.05 40.2602C43.9642 40.2576 43.8828 40.2217 43.8231 40.1601C43.7634 40.0985 43.73 40.016 43.73 39.9302V38.2202L17 38.1102V39.8202C17 39.9051 16.9663 39.9865 16.9063 40.0465C16.8463 40.1065 16.7649 40.1402 16.68 40.1402C16.5925 40.1402 16.5085 40.1055 16.4467 40.0436C16.3848 39.9817 16.35 39.8978 16.35 39.8102V37.8102C16.3492 37.7684 16.3577 37.727 16.375 37.6889C16.3923 37.6508 16.418 37.6171 16.45 37.5902C16.51 37.5202 16.58 37.5202 16.68 37.4902L44.05 37.6102C44.0929 37.6089 44.1355 37.6162 44.1755 37.6317C44.2155 37.6471 44.252 37.6705 44.2828 37.7003C44.3135 37.7302 44.338 37.7659 44.3547 37.8054C44.3714 37.8449 44.38 37.8874 44.38 37.9302V39.9302C44.38 39.9736 44.3715 40.0165 44.3549 40.0565C44.3383 40.0966 44.314 40.1329 44.2833 40.1636C44.2527 40.1942 44.2163 40.2185 44.1763 40.2351C44.1362 40.2517 44.0933 40.2602 44.05 40.2602Z" fill="#17262F"></path><path d="M16.67 42.17C16.6253 42.1704 16.581 42.1618 16.5397 42.1446C16.4985 42.1274 16.4611 42.102 16.43 42.07C16.3701 42.0084 16.3366 41.9259 16.3366 41.84C16.3366 41.7541 16.3701 41.6716 16.43 41.61L17.24 40.83L16.44 40.05C16.4003 40.023 16.3669 39.9878 16.3422 39.9466C16.3174 39.9054 16.302 39.8594 16.297 39.8116C16.2919 39.7639 16.2973 39.7156 16.3128 39.6702C16.3283 39.6247 16.3535 39.5832 16.3867 39.5486C16.4199 39.5139 16.4603 39.4869 16.505 39.4694C16.5498 39.4519 16.5977 39.4444 16.6457 39.4474C16.6936 39.4504 16.7403 39.4638 16.7825 39.4867C16.8247 39.5096 16.8614 39.5414 16.89 39.58L17.94 40.58C18.0013 40.6452 18.0368 40.7305 18.04 40.82C18.0345 40.9059 17.9991 40.9873 17.94 41.05L16.88 42.05C16.8548 42.083 16.8233 42.1107 16.7872 42.1313C16.7511 42.1519 16.7113 42.1651 16.67 42.17Z" fill="#17262F"></path><path d="M44.05 42.2903C44.0066 42.2919 43.9634 42.2838 43.9236 42.2665C43.8838 42.2492 43.8484 42.2231 43.82 42.1903L42.82 41.1903C42.7905 41.1599 42.7674 41.1238 42.7519 41.0844C42.7365 41.0449 42.729 41.0027 42.73 40.9603C42.7284 40.9169 42.7365 40.8738 42.7538 40.834C42.7712 40.7942 42.7972 40.7587 42.83 40.7303L43.83 39.7303C43.8598 39.6995 43.8956 39.675 43.9351 39.6582C43.9746 39.6414 44.0171 39.6328 44.06 39.6328C44.1029 39.6328 44.1454 39.6414 44.1849 39.6582C44.2244 39.675 44.2602 39.6995 44.29 39.7303C44.3499 39.7919 44.3834 39.8744 44.3834 39.9603C44.3834 40.0462 44.3499 40.1287 44.29 40.1903L43.48 40.9603L44.28 41.7503C44.3399 41.8119 44.3734 41.8944 44.3734 41.9803C44.3734 42.0662 44.3399 42.1487 44.28 42.2103C44.2146 42.2622 44.1335 42.2904 44.05 42.2903Z" fill="#17262F"></path><path d="M30.42 31.5103C29.8658 31.5077 29.3176 31.3959 28.8066 31.1814C28.2956 30.9669 27.8319 30.6539 27.4419 30.2602C27.0518 29.8665 26.7432 29.3998 26.5336 28.8868C26.3239 28.3738 26.2174 27.8245 26.22 27.2703C26.2279 26.1554 26.6757 25.0887 27.4659 24.3021C28.2562 23.5156 29.3251 23.0729 30.44 23.0703C31.5592 23.0703 32.6326 23.5149 33.424 24.3063C34.2154 25.0977 34.66 26.1711 34.66 27.2903C34.66 28.4095 34.2154 29.4829 33.424 30.2743C32.6326 31.0657 31.5592 31.5103 30.44 31.5103H30.42ZM30.42 23.7203C29.4765 23.7255 28.573 24.102 27.9049 24.7682C27.2368 25.4344 26.8579 26.3368 26.85 27.2803C26.848 27.9864 27.0555 28.6772 27.4461 29.2654C27.8367 29.8535 28.393 30.3127 29.0446 30.5847C29.6962 30.8567 30.4138 30.9294 31.1067 30.7936C31.7995 30.6578 32.4366 30.3196 32.9373 29.8217C33.4379 29.3239 33.7797 28.6887 33.9194 27.9966C34.0591 27.3045 33.9904 26.5865 33.7221 25.9334C33.4537 25.2803 32.9977 24.7214 32.4117 24.3275C31.8257 23.9336 31.1361 23.7223 30.43 23.7203H30.42Z" fill="#17262F"></path><path d="M65.63 30.2802C65.548 30.2785 65.4696 30.2465 65.41 30.1902L44.41 11.1902C43.7763 10.5976 43.2683 9.88359 42.9162 9.09068C42.5641 8.29777 42.375 7.44214 42.3602 6.57469C42.3455 5.70723 42.5053 4.84566 42.8303 4.04124C43.1553 3.23681 43.6387 2.50596 44.2518 1.89215C44.865 1.27834 45.5953 0.794115 46.3994 0.468276C47.2034 0.142436 48.0648 -0.0183609 48.9323 -0.00455136C49.7998 0.00925815 50.6556 0.197392 51.4489 0.548661C52.2422 0.899929 52.9567 1.40716 53.55 2.04017L71.55 22.0402C71.5927 22.1057 71.6108 22.1842 71.601 22.2617C71.5912 22.3393 71.5542 22.4109 71.4966 22.4637C71.439 22.5166 71.3645 22.5472 71.2863 22.5502C71.2082 22.5532 71.1315 22.5284 71.07 22.4802L53.07 2.48017C52.5373 1.9069 51.8945 1.44694 51.18 1.1278C50.4654 0.808666 49.6939 0.636904 48.9115 0.622791C48.129 0.608677 47.3518 0.752501 46.6262 1.04566C45.9006 1.33882 45.2416 1.7753 44.6886 2.32899C44.1356 2.88267 43.6999 3.5422 43.4077 4.26813C43.1154 4.99406 42.9725 5.77147 42.9876 6.55388C43.0026 7.3363 43.1753 8.10764 43.4953 8.82177C43.8153 9.53591 44.2761 10.1782 44.85 10.7102L65.85 29.7102C65.9099 29.7718 65.9434 29.8543 65.9434 29.9402C65.9434 30.0261 65.9099 30.1086 65.85 30.1702C65.8224 30.2021 65.7888 30.2283 65.751 30.2472C65.7132 30.266 65.6721 30.2773 65.63 30.2802Z" fill="#17262F"></path><path d="M49 11.68C48.1728 11.6866 47.3569 11.4879 46.6253 11.1017C45.8938 10.7154 45.2696 10.1537 44.8085 9.46685C44.3475 8.78 44.064 7.98949 43.9836 7.16617C43.9032 6.34285 44.0283 5.51245 44.3478 4.74938C44.6672 3.98631 45.171 3.31442 45.814 2.79393C46.457 2.27344 47.219 1.92061 48.0319 1.76706C48.8447 1.61352 49.683 1.66405 50.4715 1.91414C51.2601 2.16423 51.9742 2.60605 52.55 3.20002C53.2313 3.90286 53.6914 4.79024 53.8731 5.75211C54.0548 6.71398 53.9501 7.70802 53.5721 8.61097C53.1941 9.51392 52.5594 10.2861 51.7466 10.8316C50.9339 11.3772 49.9788 11.6722 49 11.68ZM49 2.39002C47.8712 2.39916 46.7922 2.85594 46 3.66002C45.2954 4.36829 44.8588 5.29934 44.7647 6.29395C44.6707 7.28856 44.9251 8.28494 45.4844 9.11273C46.0438 9.94051 46.8733 10.5483 47.8312 10.8321C48.7891 11.1159 49.8158 11.0581 50.7358 10.6687C51.6558 10.2792 52.4119 9.58222 52.8749 8.69692C53.3379 7.81161 53.4789 6.79298 53.2739 5.8152C53.0689 4.83742 52.5305 3.96122 51.751 3.33645C50.9714 2.71168 49.999 2.37713 49 2.39002Z" fill="#17262F"></path><path d="M49 8.85031C48.5047 8.84947 48.0249 8.67682 47.6426 8.36179C47.2604 8.04675 46.9992 7.60886 46.9037 7.12279C46.8083 6.63672 46.8844 6.13258 47.1191 5.69636C47.3538 5.26013 47.7326 4.91884 48.1908 4.73069C48.649 4.54254 49.1583 4.51919 49.6319 4.66461C50.1054 4.81004 50.5138 5.11524 50.7875 5.52815C51.0611 5.94107 51.183 6.43613 51.1324 6.9289C51.0818 7.42166 50.8618 7.88162 50.51 8.23031C50.3114 8.42786 50.0759 8.58431 49.8168 8.6907C49.5577 8.79709 49.2801 8.85133 49 8.85031ZM49 5.22031C48.6507 5.20571 48.3073 5.31359 48.0291 5.52529C47.7509 5.73699 47.5553 6.03922 47.4763 6.37976C47.3972 6.72031 47.4396 7.07777 47.596 7.3904C47.7525 7.70303 48.0133 7.95118 48.3333 8.09197C48.6533 8.23277 49.0124 8.25738 49.3486 8.16153C49.6848 8.06569 49.977 7.85542 50.1746 7.56705C50.3723 7.27869 50.463 6.93034 50.4311 6.58219C50.3992 6.23405 50.2468 5.90797 50 5.66031C49.7344 5.39232 49.377 5.23507 49 5.22031Z" fill="#17262F"></path><path d="M73.1 37.7C71.8023 37.698 70.5352 37.3065 69.4626 36.5761C68.39 35.8457 67.5614 34.8101 67.0841 33.6034C66.6068 32.3967 66.5028 31.0744 66.7855 29.808C67.0683 28.5415 67.7248 27.3891 68.67 26.5L94.67 2.99995C95.5559 2.16875 96.7303 1.71459 97.945 1.73348C99.1596 1.75236 100.319 2.24281 101.179 3.10115C102.039 3.95949 102.531 5.11846 102.552 6.33308C102.572 7.5477 102.12 8.72279 101.29 9.60995L77.82 35.61C77.2318 36.2533 76.5189 36.7703 75.7247 37.1296C74.9305 37.4889 74.0715 37.6829 73.2 37.7H73.1ZM97.81 2.47995C96.8171 2.46659 95.8547 2.82303 95.11 3.47995L69.11 27C68.547 27.5356 68.0968 28.1784 67.7858 28.8905C67.4748 29.6027 67.3093 30.3698 67.2991 31.1468C67.2888 31.9238 67.434 32.695 67.7261 33.4151C68.0182 34.1352 68.4514 34.7896 69 35.34C69.5514 35.8932 70.2086 36.3298 70.9323 36.6237C71.6561 36.9176 72.4315 37.0629 73.2126 37.0507C73.9936 37.0386 74.7642 36.8694 75.4785 36.5531C76.1927 36.2369 76.836 35.7801 77.37 35.2099L100.83 9.20995C101.367 8.63552 101.722 7.91568 101.852 7.14037C101.982 6.36506 101.881 5.56864 101.561 4.85063C101.241 4.13261 100.716 3.52482 100.053 3.10319C99.389 2.68156 98.616 2.46479 97.83 2.47995H97.81Z" fill="#17262F"></path><path d="M73.34 36.0003C72.5112 36.0135 71.6922 35.8205 70.9565 35.4386C70.2209 35.0566 69.5917 34.4978 69.1257 33.8124C68.6596 33.1269 68.3713 32.3364 68.2866 31.5118C68.2019 30.6873 68.3235 29.8546 68.6405 29.0887C68.9575 28.3229 69.46 27.6478 70.1026 27.1243C70.7453 26.6008 71.508 26.2453 72.3221 26.0898C73.1363 25.9343 73.9764 25.9836 74.7667 26.2333C75.5571 26.483 76.273 26.9253 76.85 27.5203C77.5291 28.2207 77.9885 29.1045 78.1716 30.0627C78.3547 31.021 78.2534 32.0118 77.8803 32.9132C77.5072 33.8146 76.8785 34.5872 76.0718 35.1357C75.265 35.6843 74.3154 35.9848 73.34 36.0003ZM73.34 26.7103C72.3357 26.6955 71.3575 27.0302 70.5729 27.6572C69.7883 28.2842 69.246 29.1645 69.039 30.1473C68.8319 31.1301 68.973 32.1543 69.438 33.0446C69.903 33.9348 70.6631 34.6357 71.588 35.0273C72.5129 35.4188 73.5452 35.4767 74.508 35.1909C75.4709 34.9051 76.3045 34.2935 76.866 33.4608C77.4275 32.628 77.6821 31.626 77.5862 30.6262C77.4902 29.6264 77.0497 28.6911 76.34 27.9803C75.5535 27.1615 74.475 26.687 73.34 26.6603V26.7103Z" fill="#17262F"></path><path d="M97.82 9.70017C97.1879 9.69909 96.5703 9.51083 96.045 9.15913C95.5198 8.80744 95.1105 8.30807 94.8688 7.72402C94.627 7.13997 94.5636 6.49741 94.6867 5.87739C94.8097 5.25737 95.1136 4.68768 95.56 4.24017C96.1685 3.65826 96.978 3.3335 97.82 3.3335C98.662 3.3335 99.4715 3.65826 100.08 4.24017C100.526 4.68768 100.83 5.25737 100.953 5.87739C101.076 6.49741 101.013 7.13997 100.771 7.72402C100.53 8.30807 100.12 8.80744 99.595 9.15913C99.0697 9.51083 98.4521 9.69909 97.82 9.70017ZM97.82 3.95017C97.4819 3.94723 97.1467 4.01209 96.8341 4.14091C96.5215 4.26973 96.2379 4.45989 96 4.70017C95.7626 4.93703 95.5743 5.21838 95.4459 5.5281C95.3174 5.83783 95.2512 6.16985 95.2512 6.50517C95.2512 6.84049 95.3174 7.17252 95.4459 7.48224C95.5743 7.79197 95.7626 8.07331 96 8.31017C96.4853 8.77237 97.1298 9.03017 97.8 9.03017C98.4702 9.03017 99.1147 8.77237 99.6 8.31017C99.8374 8.07331 100.026 7.79197 100.154 7.48224C100.283 7.17252 100.349 6.84049 100.349 6.50517C100.349 6.16985 100.283 5.83783 100.154 5.5281C100.026 5.21838 99.8374 4.93703 99.6 4.70017C99.1211 4.24291 98.4821 3.99159 97.82 4.00017V3.95017Z" fill="#17262F"></path><path d="M73.34 33.0803C72.9239 33.0832 72.5165 32.9619 72.1698 32.7318C71.8232 32.5017 71.5531 32.1734 71.3941 31.7889C71.2351 31.4044 71.1946 30.9812 71.2776 30.5735C71.3606 30.1658 71.5634 29.7921 71.86 29.5003C72.1039 29.2548 72.4047 29.0734 72.7356 28.9722C73.0665 28.871 73.4173 28.8531 73.7568 28.9202C74.0963 28.9873 74.414 29.1372 74.6815 29.3566C74.9491 29.5761 75.1583 29.8583 75.2905 30.1781C75.4227 30.4979 75.4739 30.8454 75.4394 31.1897C75.4049 31.5341 75.2858 31.8645 75.0928 32.1517C74.8997 32.439 74.6387 32.674 74.3329 32.836C74.0272 32.998 73.6861 33.082 73.34 33.0803ZM73.34 29.5403C73.0543 29.5416 72.7755 29.6278 72.5389 29.788C72.3023 29.9482 72.1188 30.1751 72.0116 30.4399C71.9044 30.7048 71.8783 30.9955 71.9368 31.2751C71.9953 31.5548 72.1357 31.8107 72.34 32.0103C72.614 32.2584 72.9704 32.3958 73.34 32.3958C73.7096 32.3958 74.066 32.2584 74.34 32.0103C74.5945 31.7396 74.7362 31.382 74.7362 31.0103C74.7362 30.6387 74.5945 30.2811 74.34 30.0103C74.2125 29.87 74.0585 29.7563 73.8869 29.6756C73.7153 29.595 73.5294 29.549 73.34 29.5403Z" fill="#17262F"></path><path d="M97.82 7.85024C97.5996 7.84347 97.3842 7.78282 97.1927 7.67359C97.0012 7.56437 96.8393 7.40989 96.7213 7.22366C96.6032 7.03743 96.5326 6.82513 96.5155 6.6053C96.4985 6.38547 96.5355 6.1648 96.6234 5.9626C96.7113 5.76039 96.8474 5.5828 97.0198 5.44534C97.1922 5.30788 97.3957 5.21474 97.6124 5.17406C97.8291 5.13337 98.0525 5.14639 98.263 5.21197C98.4735 5.27755 98.6647 5.39369 98.82 5.55024C99.0102 5.74199 99.1385 5.98637 99.1883 6.2518C99.2381 6.51722 99.2072 6.79149 99.0995 7.03916C98.9918 7.28682 98.8123 7.4965 98.5843 7.64109C98.3562 7.78568 98.0899 7.85854 97.82 7.85024ZM97.82 5.85024C97.7275 5.84836 97.6356 5.86509 97.5497 5.89945C97.4638 5.93381 97.3857 5.98509 97.32 6.05024C97.2235 6.1487 97.1583 6.27344 97.1324 6.40884C97.1066 6.54423 97.1213 6.68424 97.1747 6.81132C97.2281 6.93839 97.3178 7.04687 97.4326 7.12316C97.5474 7.19945 97.6822 7.24014 97.82 7.24014C97.9578 7.24014 98.0926 7.19945 98.2074 7.12316C98.3222 7.04687 98.412 6.93839 98.4653 6.81132C98.5187 6.68424 98.5334 6.54423 98.5076 6.40884C98.4817 6.27344 98.4165 6.1487 98.32 6.05024C98.2591 5.97636 98.1828 5.91662 98.0964 5.87517C98.0101 5.83373 97.9158 5.81157 97.82 5.81024V5.85024Z" fill="#17262F"></path><path d="M51.92 65.2504C51.834 65.238 51.7564 65.1922 51.704 65.1229C51.6516 65.0536 51.6286 64.9665 51.64 64.8804C52.084 61.7688 51.8542 58.5982 50.9663 55.5831C50.0784 52.568 48.553 49.7789 46.4935 47.4047C44.4339 45.0304 41.8883 43.1263 39.0289 41.8214C36.1695 40.5165 33.0631 39.8411 29.92 39.8411C26.7769 39.8411 23.6705 40.5165 20.8111 41.8214C17.9517 43.1263 15.4061 45.0304 13.3465 47.4047C11.287 49.7789 9.7616 52.568 8.87368 55.5831C7.98576 58.5982 7.75601 61.7688 8.2 64.8804C8.20591 64.9224 8.20349 64.9652 8.19286 65.0063C8.18224 65.0473 8.16363 65.0859 8.1381 65.1198C8.11256 65.1537 8.0806 65.1823 8.04403 65.2038C8.00747 65.2253 7.96703 65.2395 7.925 65.2454C7.88298 65.2513 7.8402 65.2489 7.79912 65.2382C7.75803 65.2276 7.71944 65.209 7.68555 65.1835C7.65165 65.1579 7.62312 65.126 7.60158 65.0894C7.58004 65.0528 7.56591 65.0124 7.56 64.9704C7.41421 63.9769 7.33736 62.9745 7.33 61.9704C7.33 55.9791 9.71001 50.2333 13.9465 45.9968C18.1829 41.7604 23.9288 39.3804 29.92 39.3804C35.9112 39.3804 41.6571 41.7604 45.8935 45.9968C50.13 50.2333 52.51 55.9791 52.51 61.9704C52.5015 62.9741 52.428 63.9762 52.29 64.9704C52.2753 65.0552 52.2289 65.1313 52.1602 65.1833C52.0915 65.2353 52.0057 65.2592 51.92 65.2504Z" fill="#17262F"></path><path d="M46.08 63.0704C45.9925 63.0704 45.9085 63.0356 45.8467 62.9737C45.7848 62.9119 45.75 62.8279 45.75 62.7404C45.7924 58.5301 44.1606 54.4754 41.2135 51.4682C38.2663 48.4611 34.2453 46.7478 30.035 46.7054C25.8247 46.663 21.77 48.2948 18.7628 51.2419C15.7557 54.1891 14.0424 58.2101 14 62.4204H23.6C23.6849 62.4204 23.7663 62.4541 23.8263 62.5141C23.8863 62.5741 23.92 62.6555 23.92 62.7404C23.9213 62.7833 23.9141 62.8259 23.8986 62.8659C23.8831 62.9059 23.8597 62.9424 23.8299 62.9732C23.8 63.0039 23.7643 63.0284 23.7248 63.0451C23.6853 63.0618 23.6429 63.0704 23.6 63.0704H13.69C13.6025 63.0704 13.5185 63.0356 13.4567 62.9737C13.3948 62.9119 13.36 62.8279 13.36 62.7404C13.5686 58.5048 15.398 54.5117 18.4695 51.5878C21.541 48.6638 25.6193 47.033 29.86 47.033C34.1007 47.033 38.179 48.6638 41.2505 51.5878C44.322 54.5117 46.1514 58.5048 46.36 62.7404C46.3631 62.8205 46.3361 62.8988 46.2842 62.9599C46.2324 63.021 46.1595 63.0604 46.08 63.0704Z" fill="#17262F"></path><path d="M56 69.6901H23.8C23.7571 69.6914 23.7145 69.6842 23.6745 69.6687C23.6345 69.6532 23.598 69.6298 23.5672 69.6C23.5364 69.5701 23.512 69.5344 23.4953 69.4949C23.4786 69.4554 23.47 69.413 23.47 69.3701C23.4643 69.3235 23.4686 69.2763 23.4826 69.2315C23.4967 69.1867 23.5201 69.1455 23.5513 69.1104C23.5825 69.0754 23.6209 69.0475 23.6637 69.0284C23.7066 69.0094 23.7531 68.9998 23.8 69.0001H55.67V68.4201C55.67 67.5688 55.3318 66.7523 54.7298 66.1503C54.1278 65.5483 53.3113 65.2101 52.46 65.2101H7.31C6.88507 65.2101 6.46436 65.2944 6.07227 65.4582C5.68019 65.622 5.32453 65.8621 5.02592 66.1644C4.72732 66.4667 4.49171 66.8253 4.33277 67.2194C4.17382 67.6135 4.0947 68.0352 4.1 68.4601V69.0001H13.18C13.2229 69.0001 13.2653 69.0087 13.3048 69.0254C13.3443 69.0421 13.38 69.0666 13.4099 69.0973C13.4397 69.1281 13.4631 69.1646 13.4786 69.2046C13.4941 69.2446 13.5013 69.2872 13.5 69.3301C13.5 69.415 13.4663 69.4964 13.4063 69.5564C13.3463 69.6164 13.2649 69.6501 13.18 69.6501H3.77C3.68513 69.6501 3.60373 69.6164 3.54372 69.5564C3.48371 69.4964 3.45 69.415 3.45 69.3301V68.4201C3.46053 67.4033 3.87186 66.4318 4.59461 65.7165C5.31736 65.0012 6.29315 64.6 7.31 64.6001H52.46C53.4837 64.6001 54.4655 65.0068 55.1894 65.7307C55.9133 66.4546 56.32 67.4364 56.32 68.4601V69.3701C56.32 69.4121 56.3117 69.4537 56.2956 69.4926C56.2796 69.5314 56.256 69.5667 56.2263 69.5964C56.1966 69.6261 56.1613 69.6497 56.1225 69.6657C56.0836 69.6818 56.042 69.6901 56 69.6901Z" fill="#17262F"></path><path d="M0.330001 72.83C0.287144 72.8314 0.244454 72.8241 0.204469 72.8086C0.164483 72.7931 0.128016 72.7697 0.0972339 72.7399C0.0664518 72.71 0.0419825 72.6743 0.0252793 72.6348C0.00857605 72.5953 -2.03801e-05 72.5529 5.61588e-07 72.51V69.37C-0.00568783 69.3234 -0.0013797 69.2762 0.0126376 69.2314C0.0266548 69.1866 0.050059 69.1454 0.0812888 69.1103C0.112519 69.0753 0.150856 69.0474 0.193744 69.0284C0.236631 69.0093 0.283083 68.9997 0.330001 69H2.23C2.27288 69 2.31532 69.0086 2.35481 69.0253C2.3943 69.042 2.43004 69.0665 2.45988 69.0972C2.48973 69.128 2.51309 69.1645 2.52857 69.2045C2.54405 69.2445 2.55134 69.2872 2.55 69.33C2.55 69.4149 2.51629 69.4963 2.45627 69.5563C2.39626 69.6163 2.31487 69.65 2.23 69.65H0.650001V72.47C0.655703 72.5153 0.651666 72.5612 0.638159 72.6048C0.624651 72.6484 0.601986 72.6885 0.571683 72.7226C0.541379 72.7567 0.504138 72.7839 0.462455 72.8024C0.420773 72.821 0.375612 72.8304 0.330001 72.83Z" fill="#17262F"></path><path d="M56.76 77.86H28.76C28.6751 77.86 28.5937 77.8262 28.5337 77.7662C28.4737 77.7062 28.44 77.6248 28.44 77.54C28.4387 77.4971 28.4459 77.4544 28.4614 77.4144C28.4769 77.3744 28.5003 77.338 28.5301 77.3072C28.56 77.2764 28.5957 77.2519 28.6352 77.2352C28.6747 77.2185 28.7171 77.2099 28.76 77.21H56.76C56.8029 77.2099 56.8453 77.2185 56.8848 77.2352C56.9243 77.2519 56.96 77.2764 56.9899 77.3072C57.0197 77.338 57.0431 77.3744 57.0586 77.4144C57.074 77.4544 57.0813 77.4971 57.08 77.54C57.08 77.6248 57.0463 77.7062 56.9863 77.7662C56.9263 77.8262 56.8449 77.86 56.76 77.86Z" fill="#17262F"></path><path d="M85.2 72.8304C85.1571 72.8317 85.1145 72.8244 85.0745 72.8089C85.0345 72.7934 84.998 72.7701 84.9672 72.7402C84.9365 72.7104 84.912 72.6747 84.8953 72.6352C84.8786 72.5957 84.87 72.5532 84.87 72.5104V71.0004L57.51 69.7604C57.4671 69.7591 57.4249 69.7492 57.3859 69.7313C57.3468 69.7134 57.3118 69.6878 57.2829 69.6561C57.254 69.6244 57.2317 69.5871 57.2175 69.5466C57.2033 69.5061 57.1973 69.4632 57.2 69.4203C57.2097 69.3363 57.2494 69.2586 57.3119 69.2016C57.3744 69.1446 57.4554 69.1122 57.54 69.1104L85.21 70.3704C85.294 70.3755 85.3729 70.4125 85.4305 70.4738C85.4881 70.5351 85.5202 70.6162 85.52 70.7003V72.5104C85.52 72.5952 85.4863 72.6766 85.4263 72.7366C85.3663 72.7966 85.2849 72.8304 85.2 72.8304Z" fill="#17262F"></path><path d="M127.11 6.72025C127.025 6.72025 126.944 6.68654 126.884 6.62653C126.824 6.56652 126.79 6.48512 126.79 6.40025V4.34025C126.79 3.69578 126.534 3.0777 126.078 2.62198C125.623 2.16627 125.004 1.91025 124.36 1.91025C123.716 1.91025 123.097 2.16627 122.642 2.62198C122.186 3.0777 121.93 3.69578 121.93 4.34025V6.40025C121.917 6.47668 121.877 6.54591 121.817 6.5958C121.758 6.64568 121.683 6.67303 121.605 6.67303C121.527 6.67303 121.452 6.64568 121.393 6.5958C121.333 6.54591 121.293 6.47668 121.28 6.40025V4.34025C121.28 3.52339 121.605 2.73998 122.182 2.16236C122.76 1.58475 123.543 1.26025 124.36 1.26025C125.177 1.26025 125.96 1.58475 126.538 2.16236C127.115 2.73998 127.44 3.52339 127.44 4.34025V6.40025C127.44 6.44313 127.431 6.48558 127.415 6.52507C127.398 6.56456 127.374 6.60029 127.343 6.63014C127.312 6.65999 127.276 6.68335 127.236 6.69883C127.196 6.71431 127.153 6.72159 127.11 6.72025Z" fill="#17262F"></path><path d="M124.36 6.07035C124.018 6.07035 123.683 5.96889 123.399 5.77879C123.114 5.5887 122.893 5.31851 122.762 5.00239C122.631 4.68628 122.596 4.33843 122.663 4.00285C122.73 3.66726 122.895 3.359 123.137 3.11706C123.379 2.87511 123.687 2.71035 124.022 2.64359C124.358 2.57684 124.706 2.6111 125.022 2.74204C125.338 2.87298 125.608 3.09472 125.798 3.37922C125.989 3.66371 126.09 3.99819 126.09 4.34035C126.087 4.79837 125.904 5.23688 125.58 5.56075C125.257 5.88462 124.818 6.06773 124.36 6.07035ZM124.36 3.26035C124.218 3.26035 124.078 3.28829 123.947 3.34256C123.816 3.39684 123.697 3.47639 123.596 3.57668C123.496 3.67696 123.416 3.79602 123.362 3.92705C123.308 4.05809 123.28 4.19852 123.28 4.34035C123.28 4.48218 123.308 4.62262 123.362 4.75365C123.416 4.88468 123.496 5.00374 123.596 5.10403C123.697 5.20431 123.816 5.28387 123.947 5.33814C124.078 5.39242 124.218 5.42035 124.36 5.42035C124.646 5.42035 124.921 5.30657 125.124 5.10403C125.326 4.90149 125.44 4.62679 125.44 4.34035C125.44 4.05392 125.326 3.77922 125.124 3.57668C124.921 3.37414 124.646 3.26035 124.36 3.26035Z" fill="#17262F"></path><path d="M118.42 30.4403H117.83C117.745 30.4403 117.664 30.4066 117.604 30.3466C117.544 30.2866 117.51 30.2052 117.51 30.1203V28.6103L114.66 25.7603C114.598 25.6998 114.562 25.6172 114.56 25.5303V18.0003C114.562 17.9135 114.598 17.8308 114.66 17.7703L118.19 14.2403C118.254 14.1953 118.331 14.1743 118.409 14.1809C118.486 14.1875 118.559 14.2213 118.614 14.2763C118.669 14.3314 118.703 14.4042 118.709 14.4817C118.716 14.5593 118.695 14.6368 118.65 14.7003L115.21 18.1303V25.4003L118.06 28.2503C118.122 28.3108 118.158 28.3935 118.16 28.4803V29.7903H118.29L119.71 28.3703V26.1603L117.91 24.3703C117.851 24.3082 117.819 24.2257 117.82 24.1403V19.7003C117.821 19.6153 117.853 19.5335 117.91 19.4703L121.68 15.7103C121.744 15.6653 121.821 15.6443 121.899 15.6509C121.976 15.6575 122.049 15.6913 122.104 15.7463C122.159 15.8014 122.193 15.8742 122.199 15.9517C122.206 16.0293 122.185 16.1068 122.14 16.1703L118.47 19.8403V24.0003L120.26 25.8003C120.322 25.8608 120.358 25.9435 120.36 26.0303V28.5103C120.357 28.5969 120.321 28.6792 120.26 28.7403L118.65 30.3503C118.62 30.3798 118.584 30.403 118.544 30.4184C118.505 30.4338 118.462 30.4413 118.42 30.4403Z" fill="#17262F"></path><path d="M130.86 30.4404H130.27C130.185 30.4413 130.102 30.409 130.04 30.3504L128.43 28.7404C128.369 28.6792 128.333 28.597 128.33 28.5104V26.0004C128.332 25.9135 128.368 25.8309 128.43 25.7704L130.22 23.9704V19.8404L126.55 16.1704C126.492 16.1076 126.46 16.0255 126.46 15.9404C126.46 15.8552 126.492 15.7731 126.55 15.7104C126.58 15.6795 126.616 15.655 126.655 15.6382C126.695 15.6215 126.737 15.6129 126.78 15.6129C126.823 15.6129 126.865 15.6215 126.905 15.6382C126.944 15.655 126.98 15.6795 127.01 15.7104L130.78 19.4704C130.839 19.5331 130.874 19.6144 130.88 19.7004V24.1404C130.877 24.227 130.841 24.3092 130.78 24.3704L129 26.1604V28.3704L130.43 29.7904H130.56V28.4804C130.559 28.438 130.566 28.3958 130.582 28.3563C130.597 28.3168 130.621 28.2808 130.65 28.2504L133.5 25.4004V18.1604L130 14.7304C129.942 14.6676 129.91 14.5855 129.91 14.5004C129.91 14.4152 129.942 14.3331 130 14.2704C130.03 14.2395 130.066 14.215 130.105 14.1982C130.145 14.1815 130.187 14.1729 130.23 14.1729C130.273 14.1729 130.315 14.1815 130.355 14.1982C130.394 14.215 130.43 14.2395 130.46 14.2704L134 17.8004C134.033 17.8288 134.059 17.8642 134.076 17.904C134.093 17.9438 134.102 17.987 134.1 18.0304V25.5304C134.102 25.5737 134.093 25.6169 134.076 25.6567C134.059 25.6965 134.033 25.732 134 25.7604L131.16 28.6104V30.1204C131.16 30.2019 131.129 30.2804 131.073 30.3399C131.018 30.3993 130.941 30.4353 130.86 30.4404Z" fill="#17262F"></path><path d="M130.29 14.8201H118.42C118.335 14.8201 118.254 14.7864 118.194 14.7264C118.134 14.6663 118.1 14.5849 118.1 14.5001V9.91008C118.099 9.86722 118.106 9.82453 118.121 9.78455C118.137 9.74456 118.16 9.70809 118.19 9.67731C118.22 9.64653 118.256 9.62206 118.295 9.60536C118.335 9.58865 118.377 9.58006 118.42 9.58008C118.508 9.58008 118.591 9.61485 118.653 9.67673C118.715 9.73862 118.75 9.82256 118.75 9.91008V14.1701H130V9.91008C129.999 9.86722 130.006 9.82453 130.021 9.78455C130.037 9.74456 130.06 9.70809 130.09 9.67731C130.12 9.64653 130.156 9.62206 130.195 9.60536C130.235 9.58865 130.277 9.58006 130.32 9.58008C130.408 9.58008 130.491 9.61485 130.553 9.67673C130.615 9.73862 130.65 9.82256 130.65 9.91008V14.5001C130.65 14.5457 130.641 14.5909 130.622 14.6325C130.604 14.6742 130.577 14.7115 130.543 14.7418C130.509 14.7721 130.468 14.7947 130.425 14.8082C130.381 14.8217 130.335 14.8258 130.29 14.8201Z" fill="#17262F"></path><path d="M130.29 10.2304C130.205 10.2293 130.123 10.1974 130.06 10.1404L127.65 7.7204H121.07L119.21 9.5804H124.36C124.403 9.58038 124.445 9.58897 124.485 9.60568C124.524 9.62238 124.56 9.64685 124.59 9.67763C124.62 9.70841 124.643 9.74488 124.659 9.78487C124.674 9.82485 124.681 9.86754 124.68 9.9104C124.68 9.99527 124.646 10.0767 124.586 10.1367C124.526 10.1967 124.445 10.2304 124.36 10.2304H118.42C118.356 10.2298 118.294 10.2105 118.24 10.175C118.187 10.1395 118.145 10.0892 118.12 10.0304C118.096 9.9717 118.089 9.90707 118.102 9.84473C118.114 9.7824 118.145 9.72519 118.19 9.6804L120.71 7.1604C120.74 7.13091 120.776 7.10776 120.816 7.09231C120.855 7.07686 120.898 7.06941 120.94 7.0704H127.78C127.822 7.06941 127.865 7.07686 127.904 7.09231C127.944 7.10776 127.98 7.13091 128.01 7.1604L130.52 9.6804C130.551 9.71024 130.575 9.74598 130.592 9.78549C130.609 9.825 130.618 9.86748 130.618 9.9104C130.618 9.95332 130.609 9.9958 130.592 10.0353C130.575 10.0748 130.551 10.1106 130.52 10.1404C130.49 10.1699 130.454 10.193 130.414 10.2085C130.375 10.2239 130.332 10.2314 130.29 10.2304Z" fill="#17262F"></path><path d="M24.16 98.6101H3.16C2.3209 98.6022 1.5187 98.264 0.92721 97.6688C0.335723 97.0736 0.0025935 96.2692 3.817e-08 95.4301V74.2601C-2.09036e-05 74.2172 0.00857553 74.1748 0.0252788 74.1353C0.041982 74.0958 0.0664513 74.0601 0.0972333 74.0302C0.128015 74.0004 0.164482 73.977 0.204468 73.9615C0.244454 73.946 0.287143 73.9388 0.33 73.9401H27C27.0429 73.9388 27.0855 73.946 27.1255 73.9615C27.1655 73.977 27.202 74.0004 27.2328 74.0302C27.2635 74.0601 27.288 74.0958 27.3047 74.1353C27.3214 74.1748 27.33 74.2172 27.33 74.2601V95.4301C27.3274 96.2709 26.9929 97.0768 26.3992 97.6723C25.8056 98.2678 25.0008 98.6048 24.16 98.6101ZM0.65 74.5901V95.4301C0.646038 95.7653 0.70848 96.098 0.833726 96.409C0.958973 96.72 1.14454 97.0031 1.37974 97.242C1.61494 97.4809 1.8951 97.6709 2.20408 97.801C2.51306 97.9311 2.84475 97.9988 3.18 98.0001H24.18C24.8493 97.9974 25.4902 97.7297 25.9625 97.2556C26.4348 96.7814 26.7 96.1394 26.7 95.4701V74.5901H0.65Z" fill="#17262F"></path><path d="M82.34 98.6099H61.34C60.4966 98.6099 59.6878 98.2749 59.0914 97.6785C58.495 97.0822 58.16 96.2733 58.16 95.4299V74.2599C58.16 74.1751 58.1937 74.0937 58.2537 74.0337C58.3137 73.9737 58.3951 73.9399 58.48 73.9399H85.2C85.2849 73.9399 85.3663 73.9737 85.4263 74.0337C85.4863 74.0937 85.52 74.1751 85.52 74.2599V95.4299C85.52 96.2733 85.185 97.0822 84.5886 97.6785C83.9922 98.2749 83.1834 98.6099 82.34 98.6099ZM58.84 74.6099V95.4299C58.8347 95.7655 58.8962 96.0988 59.021 96.4104C59.1458 96.722 59.3313 97.0056 59.5667 97.2448C59.8022 97.484 60.0829 97.674 60.3925 97.8036C60.7021 97.9332 61.0344 98 61.37 97.9999H82.37C82.7023 97.9999 83.0312 97.9345 83.3382 97.8074C83.6451 97.6802 83.9241 97.4939 84.159 97.2589C84.3939 97.024 84.5803 96.7451 84.7074 96.4381C84.8346 96.1312 84.9 95.8022 84.9 95.4699V74.5899L58.84 74.6099Z" fill="#17262F"></path><path d="M27 81.64H0.33C0.287143 81.6413 0.244454 81.6341 0.204468 81.6186C0.164482 81.6031 0.128015 81.5797 0.0972333 81.5499C0.0664513 81.52 0.041982 81.4843 0.0252788 81.4448C0.00857553 81.4053 -2.09036e-05 81.3629 3.817e-08 81.32C0.00260052 81.2342 0.038513 81.1528 0.10012 81.0931C0.161728 81.0334 0.244184 81 0.33 81H27C27.0875 81 27.1715 81.0348 27.2333 81.0967C27.2952 81.1585 27.33 81.2425 27.33 81.33C27.3287 81.372 27.3191 81.4134 27.3019 81.4517C27.2846 81.4901 27.2599 81.5246 27.2292 81.5534C27.1986 81.5822 27.1626 81.6047 27.1232 81.6195C27.0839 81.6344 27.042 81.6413 27 81.64Z" fill="#17262F"></path><path d="M27 87.6H0.33C0.287143 87.6014 0.244454 87.5941 0.204468 87.5786C0.164482 87.5631 0.128015 87.5398 0.0972333 87.5099C0.0664513 87.4801 0.041982 87.4443 0.0252788 87.4048C0.00857553 87.3653 -2.09036e-05 87.3229 3.817e-08 87.28C0.0120425 87.2014 0.0520597 87.1298 0.112691 87.0784C0.173322 87.0269 0.25049 86.9991 0.33 87H27C27.0875 87 27.1715 87.0348 27.2333 87.0967C27.2952 87.1586 27.33 87.2425 27.33 87.33C27.3178 87.4077 27.2774 87.4782 27.2165 87.528C27.1556 87.5778 27.0786 87.6034 27 87.6Z" fill="#17262F"></path><path d="M85.2 81.6402H58.51C58.4251 81.6402 58.3437 81.6065 58.2837 81.5465C58.2237 81.4865 58.19 81.4051 58.19 81.3202C58.1887 81.2774 58.196 81.2347 58.2114 81.1947C58.2269 81.1547 58.2503 81.1183 58.2801 81.0875C58.31 81.0567 58.3457 81.0322 58.3852 81.0155C58.4247 80.9988 58.4671 80.9902 58.51 80.9902H85.2C85.2429 80.9902 85.2853 80.9988 85.3248 81.0155C85.3643 81.0322 85.4 81.0567 85.4299 81.0875C85.4597 81.1183 85.4831 81.1547 85.4986 81.1947C85.5141 81.2347 85.5213 81.2774 85.52 81.3202C85.52 81.4051 85.4863 81.4865 85.4263 81.5465C85.3663 81.6065 85.2849 81.6402 85.2 81.6402Z" fill="#17262F"></path><path d="M85.2 87.6002H58.51C58.4251 87.6002 58.3437 87.5665 58.2837 87.5065C58.2237 87.4465 58.19 87.3651 58.19 87.2802C58.1887 87.2373 58.196 87.1946 58.2114 87.1547C58.2269 87.1147 58.2503 87.0782 58.2801 87.0474C58.31 87.0166 58.3457 86.9922 58.3852 86.9755C58.4247 86.9588 58.4671 86.9502 58.51 86.9502H85.2C85.2429 86.9502 85.2853 86.9588 85.3248 86.9755C85.3643 86.9922 85.4 87.0166 85.4299 87.0474C85.4597 87.0782 85.4831 87.1147 85.4986 87.1547C85.5141 87.1946 85.5213 87.2373 85.52 87.2802C85.52 87.3651 85.4863 87.4465 85.4263 87.5065C85.3663 87.5665 85.2849 87.6002 85.2 87.6002Z" fill="#17262F"></path><path d="M0.819997 87.6002C0.734941 87.5991 0.65318 87.5671 0.589997 87.5102C0.532373 87.4474 0.500397 87.3653 0.500397 87.2802C0.500397 87.195 0.532373 87.1129 0.589997 87.0502L6.59 81.0502C6.61984 81.0193 6.65558 80.9948 6.69509 80.978C6.7346 80.9613 6.77708 80.9526 6.82 80.9526C6.86291 80.9526 6.90539 80.9613 6.94491 80.978C6.98442 80.9948 7.02016 81.0193 7.05 81.0502C7.10762 81.1129 7.1396 81.195 7.1396 81.2802C7.1396 81.3653 7.10762 81.4474 7.05 81.5102L1.05 87.5102C1.01953 87.5396 0.983514 87.5628 0.94403 87.5782C0.904546 87.5937 0.862385 87.6011 0.819997 87.6002Z" fill="#17262F"></path><path d="M11.43 87.6C11.3876 87.601 11.3455 87.5936 11.306 87.5781C11.2665 87.5627 11.2305 87.5395 11.2 87.51C11.1692 87.4802 11.1446 87.4444 11.1279 87.4049C11.1111 87.3654 11.1025 87.3229 11.1025 87.28C11.1025 87.2371 11.1111 87.1946 11.1279 87.1551C11.1446 87.1156 11.1692 87.0799 11.2 87.05L17.2 81.05C17.2278 81.0108 17.2637 80.9781 17.3054 80.9542C17.3471 80.9304 17.3936 80.9159 17.4414 80.9118C17.4893 80.9078 17.5375 80.9142 17.5826 80.9307C17.6278 80.9472 17.6687 80.9733 17.7027 81.0073C17.7367 81.0413 17.7628 81.0823 17.7793 81.1274C17.7958 81.1725 17.8023 81.2207 17.7982 81.2686C17.7941 81.3165 17.7796 81.3629 17.7558 81.4046C17.7319 81.4463 17.6992 81.4823 17.66 81.51L11.66 87.51C11.5968 87.567 11.5151 87.599 11.43 87.6Z" fill="#17262F"></path><path d="M5.8 87.6C5.71458 87.6009 5.63213 87.5687 5.57 87.51C5.53916 87.4802 5.51463 87.4444 5.49787 87.4049C5.48112 87.3654 5.47249 87.3229 5.47249 87.28C5.47249 87.2371 5.48112 87.1946 5.49787 87.1551C5.51463 87.1156 5.53916 87.0799 5.57 87.05L11.57 81.05C11.5978 81.0108 11.6337 80.9781 11.6754 80.9542C11.7171 80.9304 11.7636 80.9159 11.8114 80.9118C11.8593 80.9078 11.9075 80.9142 11.9526 80.9307C11.9978 80.9472 12.0387 80.9733 12.0727 81.0073C12.1067 81.0413 12.1328 81.0823 12.1493 81.1274C12.1658 81.1725 12.1723 81.2207 12.1682 81.2686C12.1641 81.3165 12.1496 81.3629 12.1258 81.4046C12.1019 81.4463 12.0692 81.4823 12.03 81.51L6.03 87.51C5.96788 87.5687 5.88543 87.6009 5.8 87.6Z" fill="#17262F"></path><path d="M16.4 87.6002C16.3149 87.5991 16.2332 87.5671 16.17 87.5102C16.1124 87.4474 16.0804 87.3653 16.0804 87.2802C16.0804 87.195 16.1124 87.1129 16.17 87.0502L22.17 81.0502C22.1998 81.0193 22.2356 80.9948 22.2751 80.978C22.3146 80.9613 22.3571 80.9526 22.4 80.9526C22.4429 80.9526 22.4854 80.9613 22.5249 80.978C22.5644 80.9948 22.6002 81.0193 22.63 81.0502C22.6876 81.1129 22.7196 81.195 22.7196 81.2802C22.7196 81.3653 22.6876 81.4474 22.63 81.5102L16.63 87.5102C16.5995 87.5396 16.5635 87.5628 16.524 87.5782C16.4845 87.5937 16.4424 87.6011 16.4 87.6002Z" fill="#17262F"></path><path d="M22 87.6004C21.9146 87.6013 21.8321 87.569 21.77 87.5104C21.7392 87.4805 21.7146 87.4448 21.6979 87.4053C21.6811 87.3658 21.6725 87.3233 21.6725 87.2804C21.6725 87.2375 21.6811 87.195 21.6979 87.1555C21.7146 87.116 21.7392 87.0802 21.77 87.0504L26.77 82.0504C26.8336 82.0054 26.911 81.9843 26.9886 81.9909C27.0662 81.9975 27.1389 82.0313 27.194 82.0864C27.249 82.1415 27.2829 82.2142 27.2894 82.2918C27.296 82.3694 27.275 82.4468 27.23 82.5104L22.23 87.5104C22.1679 87.569 22.0854 87.6013 22 87.6004Z" fill="#17262F"></path><path d="M59 87.6C58.9146 87.6009 58.8321 87.5687 58.77 87.51C58.7392 87.4802 58.7146 87.4444 58.6979 87.4049C58.6811 87.3654 58.6725 87.3229 58.6725 87.28C58.6725 87.2371 58.6811 87.1946 58.6979 87.1551C58.7146 87.1156 58.7392 87.0799 58.77 87.05L64.77 81.05C64.7978 81.0108 64.8337 80.9781 64.8754 80.9542C64.9171 80.9304 64.9636 80.9159 65.0114 80.9118C65.0593 80.9078 65.1075 80.9142 65.1526 80.9307C65.1978 80.9472 65.2387 80.9733 65.2727 81.0073C65.3067 81.0413 65.3328 81.0823 65.3493 81.1274C65.3658 81.1725 65.3723 81.2207 65.3682 81.2686C65.3641 81.3165 65.3496 81.3629 65.3258 81.4046C65.3019 81.4463 65.2692 81.4823 65.23 81.51L59.23 87.51C59.1679 87.5687 59.0854 87.6009 59 87.6Z" fill="#17262F"></path><path d="M69.61 87.6002C69.525 87.5991 69.4432 87.5671 69.38 87.5102C69.3224 87.4474 69.2904 87.3653 69.2904 87.2802C69.2904 87.195 69.3224 87.1129 69.38 87.0502L75.38 81.0502C75.4098 81.0193 75.4456 80.9948 75.4851 80.978C75.5246 80.9613 75.5671 80.9526 75.61 80.9526C75.6529 80.9526 75.6954 80.9613 75.7349 80.978C75.7744 80.9948 75.8102 81.0193 75.84 81.0502C75.8976 81.1129 75.9296 81.195 75.9296 81.2802C75.9296 81.3653 75.8976 81.4474 75.84 81.5102L69.84 87.5102C69.8095 87.5396 69.7735 87.5628 69.734 87.5782C69.6946 87.5937 69.6524 87.6011 69.61 87.6002Z" fill="#17262F"></path><path d="M64 87.6C63.9576 87.601 63.9155 87.5936 63.876 87.5781C63.8365 87.5627 63.8005 87.5395 63.77 87.51C63.7392 87.4802 63.7146 87.4444 63.6979 87.4049C63.6811 87.3654 63.6725 87.3229 63.6725 87.28C63.6725 87.2371 63.6811 87.1946 63.6979 87.1551C63.7146 87.1156 63.7392 87.0799 63.77 87.05L69.77 81.05C69.7978 81.0108 69.8337 80.9781 69.8754 80.9542C69.9171 80.9304 69.9636 80.9159 70.0114 80.9118C70.0593 80.9078 70.1075 80.9142 70.1526 80.9307C70.1978 80.9472 70.2387 80.9733 70.2727 81.0073C70.3067 81.0413 70.3328 81.0823 70.3493 81.1274C70.3658 81.1725 70.3723 81.2207 70.3682 81.2686C70.3641 81.3165 70.3496 81.3629 70.3258 81.4046C70.3019 81.4463 70.2692 81.4823 70.23 81.51L64.23 87.51C64.1668 87.567 64.0851 87.599 64 87.6Z" fill="#17262F"></path><path d="M80.22 87.6002C80.1776 87.6011 80.1355 87.5937 80.096 87.5782C80.0565 87.5628 80.0205 87.5396 79.99 87.5102C79.9592 87.4803 79.9346 87.4446 79.9179 87.4051C79.9011 87.3655 79.8925 87.3231 79.8925 87.2802C79.8925 87.2372 79.9011 87.1948 79.9179 87.1552C79.9346 87.1157 79.9592 87.08 79.99 87.0502L84.99 82.0502C85.0198 82.0193 85.0556 81.9948 85.0951 81.978C85.1346 81.9613 85.1771 81.9526 85.22 81.9526C85.2629 81.9526 85.3054 81.9613 85.3449 81.978C85.3844 81.9948 85.4202 82.0193 85.45 82.0502C85.5076 82.1129 85.5396 82.195 85.5396 82.2802C85.5396 82.3653 85.5076 82.4474 85.45 82.5102L80.45 87.5102C80.3868 87.5671 80.3051 87.5991 80.22 87.6002Z" fill="#17262F"></path><path d="M74.59 87.6C74.5046 87.6009 74.4221 87.5687 74.36 87.51C74.3291 87.4802 74.3046 87.4444 74.2879 87.4049C74.2711 87.3654 74.2625 87.3229 74.2625 87.28C74.2625 87.2371 74.2711 87.1946 74.2879 87.1551C74.3046 87.1156 74.3291 87.0799 74.36 87.05L80.36 81.05C80.3877 81.0108 80.4237 80.9781 80.4654 80.9542C80.5071 80.9304 80.5535 80.9159 80.6014 80.9118C80.6493 80.9078 80.6975 80.9142 80.7426 80.9307C80.7877 80.9472 80.8287 80.9733 80.8627 81.0073C80.8967 81.0413 80.9228 81.0823 80.9393 81.1274C80.9558 81.1725 80.9622 81.2207 80.9582 81.2686C80.9541 81.3165 80.9396 81.3629 80.9158 81.4046C80.8919 81.4463 80.8592 81.4823 80.82 81.51L74.82 87.51C74.7579 87.5687 74.6754 87.6009 74.59 87.6Z" fill="#17262F"></path><path d="M74.88 24.7099C74.8338 24.7106 74.7879 24.7021 74.745 24.6849C74.7021 24.6678 74.663 24.6423 74.63 24.6099C74.5992 24.5801 74.5746 24.5444 74.5579 24.5048C74.5411 24.4653 74.5325 24.4229 74.5325 24.3799C74.5325 24.337 74.5411 24.2945 74.5579 24.255C74.5746 24.2155 74.5992 24.1798 74.63 24.1499L92.82 7.75994C92.8799 7.7007 92.9608 7.66748 93.045 7.66748C93.1292 7.66748 93.2101 7.7007 93.27 7.75994C93.3299 7.82153 93.3634 7.90404 93.3634 7.98994C93.3634 8.07583 93.3299 8.15834 93.27 8.21994L75.09 24.6299C75.0621 24.6566 75.0291 24.6774 74.9931 24.6911C74.957 24.7048 74.9186 24.7112 74.88 24.7099Z" fill="#17262F"></path><path d="M35.29 14.8702C35.2482 14.871 35.2067 14.8624 35.1687 14.8451C35.1306 14.8278 35.0969 14.8022 35.07 14.7702C35.0101 14.7086 34.9766 14.6261 34.9766 14.5402C34.9766 14.4543 35.0101 14.3718 35.07 14.3102L40.49 8.77019C40.5526 8.7237 40.6296 8.70086 40.7074 8.70572C40.7852 8.71058 40.8587 8.74281 40.915 8.79672C40.9713 8.85062 41.0067 8.92272 41.015 9.00023C41.0232 9.07774 41.0037 9.15566 40.96 9.22019L35.54 14.7702C35.4722 14.8337 35.3829 14.8694 35.29 14.8702Z" fill="#17262F"></path></g><defs><clipPath id="clip0_5678_15792"><rect width="134.13" height="103.58" fill="white"></rect></clipPath></defs></svg>