<svg xmlns="http://www.w3.org/2000/svg" width="101" height="110" viewBox="0 0 101 110" fill="none"><g clip-path="url(#clip0_5678_17243)"><path d="M51.6392 110.018L17.3326 90.1939V84.1714L51.6392 103.977V110.018Z" fill="#3C3E40"></path><path d="M51.6392 110.018L85.9459 90.1939V84.1714L51.6392 103.977V110.018Z" fill="#555A5C"></path><path d="M17.3326 84.1713L51.6392 103.977L85.9459 84.1713L51.6392 64.3652L17.3326 84.1713Z" fill="#858B8C"></path><path d="M85.9459 84.1713L51.6392 64.4907V33.1594L85.9459 52.8221V84.1713Z" fill="#AC5200"></path><path d="M85.9459 84.1715L99.8191 76.1773V44.8281L85.9459 52.8223V84.1715Z" fill="#EB9500"></path><path d="M51.6392 33.1596L85.9459 52.8223L99.8191 44.8281L65.5304 25.1833L51.6392 33.1596Z" fill="#F3BF65"></path><path d="M87.8638 51.6931L99.8191 44.8282L95.7504 23.8032L87.6308 28.4814L87.8638 51.6931Z" fill="#F0AE3C"></path><path d="M53.5571 32.0302L87.8638 51.6929L87.6308 28.4813L57.3929 11.1487L53.5571 32.0302Z" fill="#AC5200"></path><path d="M60.3324 92.0759L35.3642 77.6291V62.4653L60.3324 76.9121V92.0759Z" fill="#5C5C5C"></path><path d="M60.3324 92.0759L66.5879 88.4553V73.2915L60.3324 76.9122V92.0759Z" fill="#7E7E7E"></path><path d="M35.3642 62.4654L60.3324 76.9122L66.6058 73.2915L41.6376 58.8447L35.3642 62.4654Z" fill="#A3A3A3"></path><path d="M53.1269 98.4031V99.5502C53.1269 99.9625 52.7147 100.303 52.1232 100.464H51.9081H50.7251H50.528H50.4204L50.1874 100.375H50.044C49.9837 100.342 49.9292 100.3 49.8827 100.249V100.16C49.874 100.106 49.874 100.052 49.8827 99.9983V98.4031C49.8827 98.0446 50.1695 97.7578 50.6355 97.5606H50.8147C51.0709 97.4861 51.3366 97.4499 51.6034 97.4531C51.876 97.4511 52.1474 97.4873 52.41 97.5606C52.7147 97.6502 53.1269 97.9908 53.1269 98.4031Z" fill="#594D4D"></path><path d="M52.1232 97.489V100.5C52.7147 100.339 53.1269 99.9984 53.1269 99.5861V98.4031C53.1269 97.9909 52.7147 97.6503 52.1232 97.489Z" fill="#6B5C5C"></path><path d="M51.0477 97.4173C50.875 97.3987 50.7007 97.3987 50.5279 97.4173H50.3487C49.8827 97.6145 49.5959 97.9013 49.5959 98.2598V99.4069C49.5872 99.4603 49.5872 99.5148 49.5959 99.5682V99.6578C49.6424 99.7082 49.6969 99.7506 49.7572 99.7833L50.1874 100.375H50.3666H50.4742H50.6713H50.994L51.0477 97.4173Z" fill="#473D3D"></path><path d="M50.0798 97.7041C49.7572 97.8833 49.5242 98.1164 49.5242 98.4031V99.5503C49.5155 99.6037 49.5155 99.6582 49.5242 99.7116V99.8012C49.5707 99.8516 49.6252 99.894 49.6855 99.9267L50.0798 97.7041Z" fill="#383030"></path><path d="M53.1269 98.4031C53.1269 98.7974 52.7147 99.1379 52.1232 99.3172C51.8583 99.3755 51.5879 99.4055 51.3166 99.4068C51.0512 99.4062 50.7867 99.3762 50.528 99.3172C49.9365 99.1379 49.5242 98.7974 49.5242 98.4031C49.5242 98.0087 49.811 97.7578 50.277 97.5606H50.4563C50.7124 97.4861 50.9782 97.4499 51.2449 97.4531C51.5175 97.4511 51.789 97.4873 52.0515 97.5606C52.7147 97.6502 53.1269 97.9908 53.1269 98.4031Z" fill="#847271"></path><path d="M52.4279 97.7399V98.3314C52.4279 98.5823 52.177 98.7974 51.8185 98.905H50.7789H50.6534H50.5638V98.3135C50.5638 98.1163 50.761 97.9192 51.0477 97.8116C51.2085 97.7929 51.3709 97.7929 51.5317 97.8116C51.6985 97.793 51.8668 97.793 52.0336 97.8116C52.177 97.2918 52.4279 97.489 52.4279 97.7399Z" fill="#C2C2C2"></path><path d="M51.8185 97.1843V98.9767C52.177 98.8692 52.4279 98.6541 52.4279 98.4032V97.8117C52.4279 97.489 52.177 97.2919 51.8185 97.1843Z" fill="#D4D4D4"></path><path d="M51.1553 97.1483C51.0486 97.1296 50.9394 97.1296 50.8327 97.1483C50.5459 97.2559 50.3487 97.4531 50.3487 97.6502V98.2417C50.3842 98.249 50.4208 98.249 50.4563 98.2417H50.5817H50.9581L51.1553 97.1483Z" fill="#B0B0B0"></path><path d="M50.5459 97.3098C50.3487 97.4353 50.2053 97.5787 50.2053 97.74V98.3315C50.2408 98.3387 50.2774 98.3387 50.3129 98.3315L50.5459 97.3098Z" fill="#A1A1A1"></path><path d="M52.4279 97.74C52.4279 97.9909 52.177 98.206 51.8185 98.3136C51.6517 98.3321 51.4834 98.3321 51.3166 98.3136C51.1558 98.3321 50.9935 98.3321 50.8327 98.3136C50.4742 98.206 50.2053 97.9909 50.2053 97.74C50.2053 97.4891 50.4025 97.3457 50.6893 97.2381C50.85 97.2195 51.0124 97.2195 51.1732 97.2381C51.34 97.2195 51.5083 97.2195 51.6751 97.2381C52.177 97.2919 52.4279 97.4891 52.4279 97.74Z" fill="#EDEDED"></path><path d="M25.0937 82.4508V83.6159C25.0937 84.0102 24.6814 84.3687 24.0899 84.53H23.8749H22.7636H22.5664H22.4589H22.2796H22.1362C22.0724 84.5031 22.0167 84.4598 21.9749 84.4045C21.9672 84.357 21.9672 84.3086 21.9749 84.2611V82.4508C21.9749 82.1102 22.2617 81.8055 22.7277 81.6263H22.907C23.1631 81.5518 23.4289 81.5155 23.6956 81.5188C23.9682 81.5168 24.2397 81.553 24.5022 81.6263C24.7531 81.6084 25.0937 81.9669 25.0937 82.4508Z" fill="#594D4D"></path><path d="M24.1616 81.447V84.4403C24.7531 84.279 25.1654 83.9205 25.1654 83.5262V82.4508C25.0937 81.9668 24.7531 81.6083 24.1616 81.447Z" fill="#6B5C5C"></path><path d="M23.0862 81.3752H22.5664H22.3872C21.9211 81.5545 21.6343 81.8592 21.6343 82.1997V83.3648C21.6266 83.4123 21.6266 83.4607 21.6343 83.5082C21.6762 83.5635 21.7318 83.6068 21.7957 83.6337H21.9391H22.1183H22.2258H22.423H22.7456L23.0862 81.3752Z" fill="#473D3D"></path><path d="M22.1183 81.6621C21.7957 81.8414 21.5627 82.0744 21.5627 82.3611V83.5262C21.555 83.5737 21.555 83.6221 21.5627 83.6696C21.6045 83.7249 21.6601 83.7682 21.724 83.7951L22.1183 81.6621Z" fill="#383030"></path><path d="M25.0937 82.4508C25.0937 82.8451 24.6814 83.2036 24.0899 83.3649C23.8274 83.4382 23.5559 83.4744 23.2834 83.4725C23.0166 83.4757 22.7508 83.4394 22.4947 83.3649C21.9032 83.2036 21.491 82.8451 21.491 82.4508C21.491 82.0565 21.7777 81.8055 22.2438 81.6263H22.423C22.6792 81.5518 22.9449 81.5155 23.2117 81.5188C23.4842 81.5168 23.7557 81.553 24.0182 81.6263C24.7531 81.6084 25.0937 81.9669 25.0937 82.4508Z" fill="#847271"></path><path d="M24.4664 81.7158V82.3072C24.4664 82.5582 24.2154 82.7554 23.8569 82.8629H23.7315H22.9966H22.8711H22.7456C22.7162 82.8705 22.6854 82.8705 22.656 82.8629V82.2714C22.656 82.0563 22.8532 81.8592 23.14 81.7516H23.2296C23.3904 81.7331 23.5528 81.7331 23.7135 81.7516C23.8803 81.7331 24.0486 81.7331 24.2154 81.7516C24.2154 81.2497 24.4664 81.4648 24.4664 81.7158Z" fill="#C2C2C2"></path><path d="M23.8569 81.1423V82.9347C24.2154 82.8272 24.4664 82.63 24.4664 82.3791V81.7876C24.4664 81.465 24.2154 81.2499 23.8569 81.1423Z" fill="#D4D4D4"></path><path d="M23.1937 81.1064H22.8711H22.7815C22.4947 81.214 22.2975 81.4112 22.2975 81.6262V82.2177C22.3323 82.23 22.3703 82.23 22.4051 82.2177H22.5306H22.656H22.8532L23.1937 81.1064Z" fill="#B0B0B0"></path><path d="M22.5843 81.2856C22.3872 81.3932 22.2438 81.5366 22.2438 81.7158V82.3073C22.2786 82.3196 22.3165 82.3196 22.3513 82.3073L22.5843 81.2856Z" fill="#A1A1A1"></path><path d="M24.4664 81.7158C24.4664 81.9488 24.2154 82.1639 23.8569 82.2715C23.6902 82.2901 23.5218 82.2901 23.3551 82.2715C23.1943 82.2901 23.0319 82.2901 22.8711 82.2715C22.5126 82.1639 22.2438 81.9488 22.2438 81.7158C22.2438 81.4828 22.4409 81.3036 22.7277 81.196H22.8173C22.9781 81.1775 23.1405 81.1775 23.3013 81.196C23.4681 81.1775 23.6364 81.1775 23.8032 81.196C24.2154 81.2498 24.4664 81.4649 24.4664 81.7158Z" fill="#EDEDED"></path><path d="M3.26218 53.826L0 51.9798V45.563L3.26218 47.4092V53.826Z" fill="#002BAC"></path><path d="M3.26218 53.8261L26.2946 40.5264V34.1096L3.26218 47.4093V53.8261Z" fill="#0055EB"></path><path d="M0 45.581L3.26218 47.4093L26.2946 34.1096L23.0324 32.2634L0 45.581Z" fill="#3E94FA"></path><path d="M85.9459 85.6771L15.0204 44.7207V41.9783L85.9459 82.9348V85.6771Z" fill="#828282"></path><path d="M95.123 77.6291L85.9459 82.9346L15.0204 41.9781L24.1975 36.6726L95.123 77.6291Z" fill="#D4CCC3"></path><path d="M74.7434 92.1296L3.81783 51.1552V48.4128L74.7434 89.3873V92.1296Z" fill="#828282"></path><path d="M74.7434 92.1297L83.9205 86.8242V84.0818L74.7434 89.3873V92.1297Z" fill="#B3B3B3"></path><path d="M85.9459 85.6771L95.123 80.3715V77.6292L85.9459 82.9347V85.6771Z" fill="#B3B3B3"></path><path d="M83.9205 84.0817L74.7434 89.3873L3.81783 48.4128L12.9949 43.1252L83.9205 84.0817Z" fill="#D4CCC3"></path><path d="M77.0018 96.4495L73.7396 94.6033V88.1865L77.0018 90.0327V96.4495Z" fill="#002BAC"></path><path d="M77.0018 96.4494L100.016 83.1497V76.7329L77.0018 90.0326V96.4494Z" fill="#0055EB"></path><path d="M73.7396 88.2043L77.0018 90.0326L100.034 76.7329L96.772 74.8867L73.7396 88.2043Z" fill="#3E94FA"></path><path d="M45.6168 57.6975V61.121C45.6168 61.4436 45.2762 61.7304 44.7923 61.8738H44.6309H43.663H43.4838H43.3225H43.197H43.0536C43.0536 61.8738 43.0536 61.7842 43.0536 61.7484V57.6975C43.0536 57.4107 43.3046 57.1598 43.681 57.0164H43.8244C44.0445 56.9881 44.2674 56.9881 44.4875 57.0164C44.7017 56.988 44.9187 56.988 45.1328 57.0164C45.2762 57.0881 45.6168 57.357 45.6168 57.6975Z" fill="#F2F2F4"></path><path d="M47.3375 50.1873V57.6437C47.3375 58.3427 46.6205 58.9701 45.5451 59.2569L45.1866 59.3465H44.8102H44.4875H43.7527H43.4479H43.0178L42.6593 59.2569H42.48C42.3675 59.2291 42.2591 59.187 42.1574 59.1314H42.0499L41.7989 59.0059H41.6914C41.589 58.9506 41.4929 58.8845 41.4046 58.8088L41.2254 58.3786V58.2352V58.1097V57.9843C41.208 57.8955 41.208 57.8042 41.2254 57.7154V50.1873C41.2254 49.5779 41.7631 49.0401 42.5697 48.7175C42.665 48.666 42.7678 48.6297 42.8744 48.61H43.0178C43.9406 48.3709 44.9091 48.3709 45.8318 48.61C46.6026 48.8251 47.3375 49.4345 47.3375 50.1873Z" fill="#414141"></path><path d="M40.9386 57.59C40.9212 57.6788 40.9212 57.7701 40.9386 57.8588V57.9843V58.1098L41.0461 58.2532L41.2074 58.4145C41.2957 58.4903 41.3919 58.5563 41.4942 58.6117H41.6018L41.8527 58.7371H41.9602L42.1933 58.8267V54.041H40.6697L40.9386 57.59Z" fill="#333333"></path><path d="M49.3629 41.6913V53.7721C49.3629 54.9372 48.1799 55.9409 46.4413 56.4249L45.8498 56.5683H45.6168H45.4375H45.2583H44.7564H43.5376H43.0357H42.8385H42.6593H42.4263L41.8348 56.4249L41.548 56.3353L41.0103 56.1381H40.849L40.4367 55.923L40.2754 55.8334C40.1037 55.7285 39.9418 55.6085 39.7914 55.4749L39.666 55.3674C39.5792 55.2926 39.5011 55.2085 39.433 55.1164L39.2358 54.8834L39.1282 54.6862C39.1212 54.6147 39.1212 54.5427 39.1282 54.4712C39.1282 54.4712 39.1282 54.4712 39.1282 54.3636C39.111 54.2207 39.111 54.0763 39.1282 53.9334V41.6913C39.1282 40.6875 40.0065 39.8093 41.3329 39.2895L41.8169 39.1102H42.0499C43.5585 38.7038 45.1478 38.7038 46.6564 39.1102C48.1799 39.5225 49.3629 40.5262 49.3629 41.6913Z" fill="#4E4D4C"></path><path d="M38.9131 53.7722C38.8959 53.9151 38.8959 54.0595 38.9131 54.2024C38.9131 54.2024 38.9131 54.2024 38.9131 54.3099C38.9061 54.3814 38.9061 54.4535 38.9131 54.525L39.0207 54.7222L39.2179 54.9552C39.286 55.0472 39.3641 55.1314 39.4509 55.2061L39.5763 55.3137C39.7267 55.4473 39.8886 55.5673 40.0603 55.6721L40.2216 55.7618L40.6339 55.9769H40.7952L41.3329 56.174L41.6197 56.2636L42.2112 56.407H42.4442H42.6234H42.8206H43.1074V45.6526H38.9131V53.7722Z" fill="#302F2D"></path><path d="M41.5301 51.6213L30.3813 45.1686V37.2283L41.5301 43.663V51.6213Z" fill="#7D7D7D"></path><path d="M41.5301 51.6213L55.2778 43.663V35.7227L41.5301 43.663V51.6213Z" fill="#A6A6A6"></path><path d="M95.7504 17.3146L57.3929 11.1487L42.247 30.4708L54.1128 37.2641L87.6308 28.4813L95.7504 23.8031V17.3146Z" fill="#D68800"></path><path d="M19.6806 36.9414V43.4299L31.5464 50.2231V43.7526L19.6806 36.9414Z" fill="#AC5200"></path><path d="M65.5304 0L57.3929 4.67818L42.247 23.9824L54.1128 30.7935L87.6308 21.9928L95.7504 17.3146L65.5304 0Z" fill="#F3BF65"></path><path d="M43.8244 23.0684L19.6806 36.9416L31.5464 43.7527L55.6901 29.8795L43.8244 23.0684Z" fill="#F3BF65"></path><path d="M54.1128 30.7935V37.264L31.5464 50.2231V43.7526L54.1128 30.7935Z" fill="#EB9500"></path><path d="M87.6308 21.9929V28.4814L95.7504 23.8032V17.3147L87.6308 21.9929Z" fill="#EB9500"></path><path d="M88.509 47.8931L98.5645 35.5255L96.9513 34.5576L88.509 39.433V47.8931Z" fill="#A1A4A8"></path><path d="M90.1222 48.8609L98.5644 43.9856V35.5254L90.1222 40.4007V48.8609Z" fill="#383E47"></path><path d="M88.509 39.4329L90.1222 40.4008V48.8609L88.509 47.893V39.4329Z" fill="#73777D"></path><path d="M96.9334 38.8772L93.241 43.878L93.2231 44.7204L96.9334 42.5875V38.8772Z" fill="#339F48"></path><path d="M96.2164 39.2358L93.241 40.9566V43.8782L96.2164 42.1575V39.2358Z" fill="#17CF77"></path><path d="M96.9334 42.5875L96.2164 42.1573V39.2357L96.9334 38.8772V42.5875Z" fill="#2A8D34"></path><path d="M27.4955 41.6017C25.4701 38.1065 22.2617 36.2244 20.3259 37.3357C18.3901 38.447 18.408 42.2111 20.3259 45.7063C22.2438 49.2015 25.5776 51.0835 27.4955 49.9543C29.4134 48.8251 29.4851 45.0789 27.4955 41.6017ZM27.2267 49.3807C26.9377 49.5449 26.6088 49.6256 26.2767 49.6137C24.5918 49.6137 22.3872 47.8213 20.8995 45.3657C20.0136 43.9409 19.5133 42.3102 19.4476 40.6338C19.3771 40.122 19.4427 39.6008 19.6378 39.1225C19.8329 38.6442 20.1506 38.2257 20.5589 37.9093C20.8441 37.7325 21.1733 37.6394 21.5089 37.6404C23.3013 37.6404 25.4163 39.4328 26.8861 41.9064C27.745 43.3422 28.2374 44.9673 28.32 46.6383C28.3903 47.1509 28.3266 47.673 28.135 48.1537C27.9433 48.6343 27.6304 49.0571 27.2267 49.3807Z" fill="#CA1212"></path><path d="M21.6702 43.6272H20.1108L19.5372 43.9678L20.9353 46.6026L22.8173 45.3838L21.6702 43.6272Z" fill="#800000"></path><path d="M22.1004 43.6451L21.7598 44.0932L19.5372 43.9678L20.1108 43.6272L22.1004 43.6451Z" fill="#CA1212"></path><path d="M25.3984 43.0177C24.7531 41.9244 23.7315 41.315 23.1041 41.6734L22.1721 42.2112L24.4843 46.2262L25.488 45.6347C26.0437 45.33 26.0437 44.129 25.3984 43.0177Z" fill="#B10000"></path><path d="M24.8786 45.2942L25.8824 44.7744L28.3559 46.6564L27.4238 49.363L26.671 49.7035L24.4126 46.28L24.8786 45.2942Z" fill="#800000"></path><path d="M24.8786 45.2942L28.0153 47.696L28.3559 46.6564L25.8823 44.7744L24.8786 45.2942Z" fill="#CA1212"></path><path d="M22.5305 38.3755L23.0862 42.3009L23.6239 42.6593L24.7173 42.1575L25.1833 39.2538L22.5305 38.3755Z" fill="#800000"></path><path d="M24.1258 39.4688L23.6239 42.6592L24.7173 42.1574L25.1833 39.8093L24.1258 39.4688Z" fill="#CA1212"></path><path d="M24.4126 46.2799C23.7852 46.6384 22.7636 46.029 22.1183 44.9177C21.473 43.8064 21.473 42.6234 22.1183 42.2649C22.7636 41.9065 23.7673 42.498 24.4126 43.6093C25.0579 44.7205 25.0937 45.9035 24.4126 46.2799Z" fill="#800000"></path><path d="M27.6748 49.8826L27.0116 50.2949L26.671 49.7034C27.0817 49.3874 27.4033 48.9702 27.6044 48.4926C27.8054 48.0151 27.8791 47.4935 27.8182 46.9789C27.7287 45.3066 27.2301 43.6818 26.3663 42.247C24.9324 39.7376 22.7815 37.999 20.9891 37.999C20.6523 37.9971 20.3202 38.0771 20.0212 38.232L19.7165 37.6405L20.1287 37.3896L20.3617 37.2282C22.3334 36.099 25.5597 37.981 27.5314 41.4583C29.503 44.9356 29.6285 48.7534 27.6748 49.8826Z" fill="#CA1212"></path><path d="M26.8861 41.9244C24.8786 38.4292 21.6523 36.5472 19.7165 37.6585C17.7807 38.7698 17.7807 42.5338 19.8061 46.029C21.8315 49.5242 25.0399 51.4062 26.9757 50.2949C28.9115 49.1837 28.9474 45.4017 26.8861 41.9244ZM26.6172 49.7035C26.3283 49.8677 25.9994 49.9484 25.6673 49.9365C23.9824 49.9365 21.7957 48.1441 20.29 45.6885C19.4119 44.2678 18.9178 42.6434 18.8561 40.9744C18.7803 40.4615 18.8415 39.9377 19.0335 39.456C19.2256 38.9744 19.5416 38.5521 19.9495 38.232C20.2485 38.0771 20.5806 37.9972 20.9174 37.999C22.6202 37.999 24.8248 39.7914 26.2946 42.247C27.1584 43.6818 27.6569 45.3066 27.7465 46.979C27.8156 47.4872 27.7531 48.0047 27.5647 48.4818C27.3764 48.9588 27.0687 49.3795 26.671 49.7035H26.6172Z" fill="#990E0E"></path><path d="M90.9288 71.033C92.7212 72.0546 95.5891 70.3339 97.3815 67.2151C99.1739 64.0964 99.1739 60.7266 97.3815 59.705C95.5891 58.6833 92.7391 60.404 90.9288 63.5228C89.1185 66.6416 89.1543 69.9934 90.9288 71.033ZM90.2118 68.1114C90.2886 66.6168 90.7318 65.1641 91.5024 63.8813C91.9497 62.9143 92.6172 62.0654 93.4513 61.4025C94.2854 60.7395 95.263 60.281 96.306 60.0634C96.6063 60.0619 96.9021 60.1359 97.1664 60.2785C97.5312 60.5658 97.8143 60.9437 97.9873 61.3746C98.1603 61.8056 98.2172 62.2743 98.1522 62.7341C98.068 64.2208 97.5985 65.66 96.79 66.9104C96.3498 67.874 95.6887 68.7201 94.8603 69.3804C94.0319 70.0406 93.0596 70.4962 92.0222 70.7103C91.7228 70.724 91.4254 70.6559 91.1618 70.5132C90.8146 70.2248 90.5455 69.8536 90.3795 69.4338C90.2135 69.0141 90.1558 68.5593 90.2118 68.1114Z" fill="#9C9C9C"></path><path d="M96.2164 65.3511H97.6145L98.1343 65.6558L96.8796 68.0218L95.1947 66.9284L96.2164 65.3511Z" fill="#525151"></path><path d="M95.8221 65.369L96.1268 65.7813L98.1343 65.6558L97.6145 65.3511L95.8221 65.369Z" fill="#9C9C9C"></path><path d="M92.8646 64.8133C93.4382 63.8096 94.3702 63.2719 94.9259 63.5945L95.7504 64.0785L93.6712 67.6633L92.775 67.1435C92.291 66.8746 92.291 65.7992 92.8646 64.8133Z" fill="#838181"></path><path d="M93.3306 66.8388L92.4344 66.3728L90.2118 68.0756L91.0543 70.4953L91.7175 70.8L93.7429 67.7171L93.3306 66.8388Z" fill="#525151"></path><path d="M93.3306 66.8388L90.5345 68.9897L90.2118 68.0756L92.4344 66.3728L93.3306 66.8388Z" fill="#9C9C9C"></path><path d="M95.4457 60.6372L94.9438 64.1682L94.4598 64.4909L93.4919 64.0249L93.0618 61.4259L95.4457 60.6372Z" fill="#525151"></path><path d="M94.0117 61.623L94.4598 64.4909L93.4919 64.0249L93.0618 61.9278L94.0117 61.623Z" fill="#9C9C9C"></path><path d="M93.7429 67.717C94.3164 68.0576 95.2306 67.502 95.8041 66.5161C96.3777 65.5303 96.3956 64.4549 95.8041 64.1322C95.2127 63.8096 94.3344 64.3473 93.7608 65.3331C93.1872 66.319 93.2052 67.3944 93.7429 67.717Z" fill="#525151"></path><path d="M90.8212 70.9614L91.4307 71.3199L91.7174 70.8001C91.3562 70.513 91.0744 70.1384 90.8987 69.7117C90.723 69.2851 90.6594 68.8206 90.7137 68.3624C90.7808 66.8606 91.2246 65.3998 92.0042 64.1144C92.4487 63.1487 93.113 62.3005 93.944 61.6375C94.775 60.9746 95.7497 60.5153 96.79 60.2966C97.0902 60.2951 97.3861 60.369 97.6503 60.5117L97.955 60.0098L97.5786 59.7768L97.3815 59.6513C95.5891 58.6296 92.7212 60.3145 90.9109 63.4512C89.1005 66.5879 89.0826 69.9039 90.8212 70.9614Z" fill="#9C9C9C"></path><path d="M91.4127 71.32C93.2052 72.3416 96.0551 70.6209 97.8475 67.5021C99.6399 64.3833 99.6399 61.0136 97.8475 60.0099C96.0551 59.0061 93.1872 60.691 91.3769 63.8277C89.5666 66.9644 89.6203 70.2804 91.4127 71.32ZM90.6958 68.3625C90.7629 66.8607 91.2067 65.3998 91.9863 64.1145C92.4325 63.1467 93.0996 62.2971 93.9339 61.634C94.7682 60.9709 95.7464 60.5129 96.79 60.2967C97.0902 60.2952 97.3861 60.3691 97.6503 60.5117C98.0083 60.8026 98.2831 61.1829 98.4467 61.6141C98.6104 62.0454 98.6572 62.5122 98.5824 62.9673C98.5219 64.4672 98.0709 65.9254 97.2739 67.1974C96.8338 68.1609 96.1727 69.0071 95.3443 69.6673C94.5159 70.3276 93.5435 70.7832 92.5061 70.9973C92.2074 71.0044 91.9116 70.9366 91.6458 70.8002C91.2975 70.5053 91.0295 70.1273 90.8665 69.7011C90.7036 69.2749 90.651 68.8144 90.7137 68.3625H90.6958Z" fill="#6B6B6B"></path><path d="M87.6845 90.642C88.9751 91.3768 91.0901 90.1222 92.3986 87.8458C93.707 85.5694 93.7429 83.1138 92.3986 82.4686C91.0543 81.8233 89.0109 82.9705 87.6845 85.2468C86.3582 87.5232 86.394 89.8891 87.6845 90.642ZM87.1647 88.4731C87.2264 87.378 87.5524 86.3141 88.1147 85.3723C88.4498 84.6586 88.9495 84.0346 89.5727 83.5517C90.1959 83.0687 90.9248 82.7405 91.6995 82.5941C91.9194 82.5903 92.1361 82.646 92.3269 82.7554C92.605 82.9546 92.8202 83.2292 92.9473 83.5468C93.0743 83.8644 93.1078 84.2117 93.0438 84.5478C93.009 85.645 92.6877 86.714 92.1118 87.6486C91.7791 88.364 91.2801 88.9895 90.6565 89.4728C90.0329 89.9561 89.3027 90.2832 88.527 90.4269C88.3151 90.4306 88.1056 90.3813 87.9176 90.2835C87.6464 90.0724 87.4346 89.7947 87.3027 89.4775C87.1707 89.1602 87.1232 88.8142 87.1647 88.4731Z" fill="#F04B22"></path><path d="M91.5561 86.4836H92.5778L92.9363 86.7167L92.0222 88.4374L90.8033 87.6487L91.5561 86.4836Z" fill="#A63216"></path><path d="M91.2693 86.5016L91.4844 86.8063L92.9363 86.7167L92.5778 86.4836L91.2693 86.5016Z" fill="#F04B22"></path><path d="M89.1005 86.0356C89.5307 85.3007 90.1939 84.9064 90.6062 85.1394L91.2156 85.4979L89.692 88.1148L89.0826 87.828C88.6883 87.6129 88.6883 86.8242 89.1005 86.0356Z" fill="#D7411B"></path><path d="M89.4411 87.5769L88.7779 87.2363L87.1647 88.4731L87.7742 90.2476L88.2581 90.4806L89.7458 88.2222L89.4411 87.5769Z" fill="#A63216"></path><path d="M89.4411 87.5769L87.3977 89.1542L87.1647 88.4731L88.7779 87.2363L89.4411 87.5769Z" fill="#F04B22"></path><path d="M90.9826 83.0601L90.6062 85.6232L90.2656 85.8562L89.5486 85.5336L89.2439 83.6336L90.9826 83.0601Z" fill="#A63216"></path><path d="M89.943 83.7593L90.2656 85.8564L89.5486 85.5338L89.2439 83.9923L89.943 83.7593Z" fill="#F04B22"></path><path d="M89.7458 88.2223C90.1581 88.4553 90.8212 88.0609 91.2514 87.344C91.6816 86.627 91.6816 85.8384 91.2514 85.5516C90.8212 85.2648 90.1581 85.695 89.7458 86.4299C89.3336 87.1647 89.3336 87.9892 89.7458 88.2223Z" fill="#A63216"></path><path d="M87.6128 90.5883L88.043 90.8571L88.276 90.4807C88.0077 90.2713 87.7976 89.9966 87.6658 89.6827C87.534 89.3689 87.4849 89.0265 87.5232 88.6883C87.582 87.5927 87.9082 86.5281 88.4732 85.5875C88.8083 84.8738 89.308 84.2498 89.9312 83.7669C90.5544 83.2839 91.2833 82.9557 92.058 82.8092C92.2779 82.8054 92.4946 82.8612 92.6854 82.9706L92.9005 82.5941L92.542 82.4508L92.3986 82.3432C91.108 81.6083 88.993 82.8272 87.6666 85.1214C86.3402 87.4157 86.3402 89.8534 87.6128 90.5883Z" fill="#F04B22"></path><path d="M88.043 90.8572C89.3336 91.5921 91.4486 90.3374 92.7571 88.0611C94.0655 85.7847 94.1014 83.3291 92.7571 82.5942C91.4127 81.8593 89.3694 83.0961 88.043 85.3725C86.7166 87.6488 86.7525 90.1044 88.043 90.8572ZM87.5232 88.6884C87.582 87.5927 87.9082 86.5281 88.4732 85.5875C88.8083 84.8739 89.308 84.2499 89.9312 83.7669C90.5544 83.284 91.2833 82.9558 92.058 82.8093C92.2778 82.8055 92.4946 82.8613 92.6854 82.9706C92.9634 83.1698 93.1787 83.4445 93.3058 83.7621C93.4328 84.0797 93.4663 84.427 93.4023 84.763C93.3344 85.8562 92.9822 86.9127 92.3806 87.8281C92.0566 88.5327 91.5714 89.1513 90.9643 89.6339C90.3572 90.1165 89.645 90.4496 88.8855 90.6063C88.6735 90.61 88.4641 90.5607 88.276 90.4629C88.0105 90.2551 87.8021 89.9833 87.6704 89.6729C87.5387 89.3625 87.4881 89.0237 87.5232 88.6884Z" fill="#BF3C1B"></path></g><defs><clipPath id="clip0_5678_17243"><rect width="100.034" height="110" fill="white"></rect></clipPath></defs></svg>