<svg xmlns="http://www.w3.org/2000/svg" width="89" height="100" viewBox="0 0 89 100" fill="none"><g clip-path="url(#clip0_5678_32957)"><path d="M41.8824 55.7722C41.8542 55.6431 41.8108 55.5178 41.753 55.399L31.2215 33.2623C31.0833 32.9701 30.865 32.7233 30.5921 32.5504C30.3191 32.3775 30.0026 32.2857 29.6794 32.2857C29.3563 32.2857 29.0398 32.3775 28.7668 32.5504C28.4938 32.7233 28.2755 32.9701 28.1374 33.2623L17.5145 55.399C17.4579 55.5157 17.4145 55.6383 17.385 55.7645C16.8291 58.2927 16.6235 59.9223 16.6235 59.9909C16.6235 60.0594 16.6235 60.1432 16.6235 60.2193C16.7058 63.6234 18.1158 66.8603 20.5525 69.2388C22.9891 71.6172 26.2592 72.9486 29.6642 72.9486C33.0692 72.9486 36.3393 71.6172 38.7759 69.2388C41.2126 66.8603 42.6226 63.6234 42.7049 60.2193C42.7049 60.1432 42.7049 60.067 42.7049 59.9909C42.7049 59.9147 42.4383 58.2927 41.8824 55.7722ZM29.6452 69.837C27.1139 69.8353 24.6851 68.8373 22.8839 67.0589C21.0827 65.2805 20.0538 62.8645 20.0198 60.3335C20.0731 59.9528 20.2787 58.6049 20.6976 56.6936L29.6452 37.9607L38.5852 56.6936C39.004 58.6049 39.2096 59.9528 39.2629 60.3335C39.2309 62.8638 38.2037 65.2798 36.4037 67.0584C34.6037 68.837 32.1757 69.8352 29.6452 69.837Z" fill="#17262F"></path><path d="M61.5138 43.4054C61.5179 43.3319 61.5179 43.2581 61.5138 43.1846C61.5138 43.1313 61.3539 41.9738 60.958 40.1843C60.9275 40.0583 60.8841 39.9358 60.8285 39.8188L53.4191 24.368C53.2789 24.0837 53.062 23.8444 52.7928 23.677C52.5237 23.5096 52.2131 23.4209 51.8961 23.4209C51.5792 23.4209 51.2686 23.5096 50.9994 23.677C50.7303 23.8444 50.5133 24.0837 50.3731 24.368L42.9485 39.8264C42.8921 39.9424 42.8512 40.0653 42.8267 40.1919C42.4307 41.9814 42.2708 43.1389 42.2632 43.1922C42.2591 43.2658 42.2591 43.3395 42.2632 43.413C42.2632 45.9679 43.2781 48.418 45.0846 50.2246C46.8911 52.0311 49.3413 53.046 51.8961 53.046C54.4509 53.046 56.9011 52.0311 58.7077 50.2246C60.5142 48.418 61.5291 45.9679 61.5291 43.413L61.5138 43.4054ZM45.6899 43.5273C45.7356 43.2303 45.8727 42.3469 46.1392 41.1209L51.9037 29.0436L57.6454 41.1209C57.912 42.3469 58.049 43.2303 58.0947 43.5273C58.0947 45.1753 57.4401 46.7558 56.2747 47.9211C55.1094 49.0864 53.5289 49.7411 51.8809 49.7411C50.2329 49.7411 48.6524 49.0864 47.4871 47.9211C46.3217 46.7558 45.6671 45.1753 45.6671 43.5273H45.6899Z" fill="#17262F"></path><path d="M57.4398 54.9802C57.1208 54.982 56.8087 55.0737 56.5393 55.2448C56.2699 55.4158 56.0542 55.6593 55.9168 55.9473L50.7158 66.8139C50.6581 66.9301 50.6146 67.0528 50.5864 67.1794C50.3046 68.4587 50.1904 69.2964 50.1904 69.3268C50.1828 69.4028 50.1828 69.4793 50.1904 69.5553C50.2515 71.4423 51.044 73.2316 52.4005 74.5448C53.7569 75.8581 55.5709 76.5923 57.4589 76.5923C59.3469 76.5923 61.1609 75.8581 62.5173 74.5448C63.8737 73.2316 64.6663 71.4423 64.7274 69.5553C64.7274 69.4791 64.7274 69.403 64.7274 69.3268C64.7274 69.2507 64.6132 68.4587 64.3314 67.1794C64.2997 67.0538 64.2564 66.9314 64.2019 66.8139L58.9857 55.9473C58.8452 55.6569 58.6256 55.4121 58.3521 55.241C58.0786 55.0699 57.7624 54.9795 57.4398 54.9802ZM61.0037 68.1084C61.1712 68.8699 61.2549 69.4334 61.293 69.6314C61.2489 70.6227 60.8241 71.5588 60.107 72.2447C59.39 72.9306 58.4359 73.3134 57.4436 73.3134C56.4514 73.3134 55.4973 72.9306 54.7803 72.2447C54.0632 71.5588 53.6384 70.6227 53.5943 69.6314C53.5943 69.403 53.7161 68.8699 53.8836 68.1084L57.4398 60.6457L61.0037 68.1084Z" fill="#17262F"></path><path d="M48.8501 6.93725L54.2492 3.12976C54.436 2.99926 54.595 2.83279 54.7167 2.6401C54.8384 2.44741 54.9205 2.23237 54.9581 2.00757C54.9957 1.78277 54.988 1.55273 54.9356 1.33092C54.8832 1.10911 54.787 0.899992 54.6528 0.715807C54.3883 0.348745 53.9899 0.100595 53.5438 0.0250614C53.0977 -0.0504721 52.6399 0.0526869 52.2693 0.312213L43.2912 6.69357L43.2151 6.76211L43.1389 6.81541L43.0932 6.85349L42.9714 6.99056C42.9342 7.03036 42.901 7.07372 42.8724 7.12001L42.781 7.2647L42.7125 7.40938C42.6835 7.47573 42.6606 7.54454 42.6439 7.61498L42.5982 7.7749V7.93481C42.5944 7.99059 42.5944 8.04657 42.5982 8.10234C42.5946 8.14542 42.5946 8.18873 42.5982 8.2318C42.5941 8.30281 42.5941 8.37401 42.5982 8.44502C42.5994 8.80119 42.7125 9.14798 42.9216 9.43633C43.1307 9.72467 43.4252 9.93998 43.7633 10.0518L50.6168 17.6668C50.7779 17.844 50.9742 17.9857 51.1932 18.0827C51.4122 18.1798 51.649 18.23 51.8885 18.2303C52.3112 18.2317 52.719 18.0741 53.0308 17.7886C53.3671 17.4851 53.5695 17.0607 53.5938 16.6084C53.6181 16.156 53.4622 15.7124 53.1602 15.3747L48.6293 10.3488C58.8102 11.4504 68.2062 16.3353 74.9563 24.036C81.7065 31.7366 85.3186 41.6915 85.0772 51.929C84.8358 62.1665 80.7587 71.94 73.6531 79.314C66.5476 86.688 56.9318 91.1247 46.7103 91.7454C46.2579 91.7585 45.8293 91.9508 45.5187 92.28C45.2081 92.6091 45.0409 93.0482 45.0541 93.5006C45.0672 93.953 45.2595 94.3817 45.5887 94.6923C45.9178 95.0029 46.3569 95.17 46.8093 95.1569H46.9083C58.0084 94.5004 68.4548 89.6904 76.1703 81.6835C83.8859 73.6765 88.3054 63.059 88.5501 51.9423C88.7948 40.8255 84.8467 30.0239 77.491 21.6852C70.1352 13.3464 59.9105 8.0815 48.8501 6.93725Z" fill="#17262F"></path><path d="M39.7198 92.8114C39.7232 92.7557 39.7232 92.6997 39.7198 92.6439C39.7198 92.5906 39.7198 92.5373 39.7198 92.484C39.7055 92.4296 39.6877 92.3762 39.6665 92.3241C39.6498 92.2683 39.6268 92.2147 39.5979 92.1642C39.6008 92.1414 39.6008 92.1184 39.5979 92.0956L39.5446 92.0119C39.5251 91.9851 39.5073 91.9571 39.4913 91.9281L32.7444 82.7216C32.6134 82.5396 32.4479 82.3852 32.2572 82.2672C32.0665 82.1491 31.8545 82.0698 31.6331 82.0338C31.4118 81.9977 31.1855 82.0056 30.9673 82.057C30.749 82.1084 30.543 82.2022 30.361 82.3332C30.179 82.4642 30.0245 82.6298 29.9065 82.8205C29.7885 83.0112 29.7092 83.2232 29.6731 83.4445C29.6371 83.6659 29.645 83.8921 29.6963 84.1104C29.7477 84.3287 29.8416 84.5347 29.9726 84.7167L34.1913 90.565C25.2833 88.2987 17.3996 83.0951 11.8141 75.7951C6.22852 68.4951 3.26739 59.5251 3.40914 50.3344C3.55089 41.1437 6.78723 32.2693 12.5952 25.145C18.4033 18.0207 26.4437 13.0627 35.4173 11.0722C35.8596 10.9712 36.2437 10.6987 36.485 10.3145C36.7264 9.93035 36.8052 9.46606 36.7042 9.02376C36.6033 8.58146 36.3307 8.1974 35.9466 7.95605C35.5624 7.7147 35.0981 7.63585 34.6558 7.73683C24.9586 9.88326 16.2647 15.228 9.97174 22.9118C3.67874 30.5956 0.152131 40.1722 -0.0411973 50.1023C-0.234526 60.0323 2.91665 69.739 8.90581 77.6619C14.895 85.5849 23.3742 91.2639 32.9805 93.7862L27.551 96.8322C27.2401 97.0907 27.0307 97.4508 26.9597 97.8488C26.8887 98.2468 26.9608 98.6571 27.1631 99.0072C27.3655 99.3572 27.6851 99.6244 28.0655 99.7615C28.4458 99.8986 28.8624 99.8967 29.2416 99.7563L38.8364 94.4258L38.943 94.3497H38.9963L39.0573 94.304C39.104 94.2674 39.1473 94.2266 39.1867 94.1821L39.3009 94.0679L39.3999 93.9308L39.4913 93.7938L39.5599 93.6491C39.5835 93.5971 39.6038 93.5437 39.6208 93.4892C39.6251 93.4385 39.6251 93.3876 39.6208 93.3369C39.6244 93.2836 39.6244 93.2302 39.6208 93.177C39.6208 93.1237 39.6208 93.0704 39.6208 93.0094C39.6602 92.9468 39.6934 92.8805 39.7198 92.8114Z" fill="#17262F"></path></g><defs><clipPath id="clip0_5678_32957"><rect width="88.5394" height="100" fill="white"></rect></clipPath></defs></svg>