<svg xmlns="http://www.w3.org/2000/svg" width="94" height="85" viewBox="0 0 94 85" fill="none"><g clip-path="url(#clip0_5678_33726)"><path d="M91.0665 45.703L89.7609 43.8057L82.8415 34.4144L82.7458 34.3012C82.2888 33.7818 81.6486 33.4591 80.9592 33.4007C80.2698 33.3423 79.5845 33.5527 79.0467 33.9879L66.7571 43.1268L66.644 43.2138C66.1256 43.6891 65.8133 44.3481 65.7736 45.0503C65.7298 45.7167 65.9379 46.3753 66.3568 46.8955L73.781 57.3398H63.0929V52.1177C63.0939 51.7552 62.9877 51.4006 62.7876 51.0984C62.5875 50.7962 62.3025 50.56 61.9684 50.4195C61.6344 50.279 61.2662 50.2405 60.9103 50.3088C60.5543 50.3771 60.2266 50.5492 59.9683 50.8034L44.6498 65.852C44.4117 66.0869 44.2225 66.3667 44.0935 66.6752C43.9644 66.9838 43.8979 67.3149 43.8979 67.6493C43.8979 67.9838 43.9644 68.3149 44.0935 68.6235C44.2225 68.932 44.4117 69.2118 44.6498 69.4467L59.9683 84.4692C60.1373 84.6384 60.3381 84.7724 60.5592 84.8635C60.7803 84.9546 61.0173 85.0011 61.2564 85.0001C61.7429 84.9933 62.2073 84.7964 62.5505 84.4516C62.8937 84.1068 63.0884 83.6414 63.0929 83.1549V77.9327H77.2363C79.9171 77.9327 82.2845 76.2964 83.9469 73.2763L84.0165 73.137C84.2455 72.7037 84.4461 72.256 84.617 71.7966V71.7183L89.8392 59.8987L92.1457 54.6765C92.1457 54.6765 92.1457 54.633 92.1457 54.6069C92.8015 53.1669 93.0478 51.5741 92.8574 50.0033C92.667 48.4325 92.0473 46.9446 91.0665 45.703ZM69.8034 45.4419L80.5263 37.4694L86.7669 45.938L88.0811 47.8703V47.9225V47.966C88.6742 48.649 89.0688 49.4814 89.2223 50.3729C89.3757 51.2644 89.2821 52.1808 88.9515 53.0228V53.0751L87.0367 57.3224H78.2547L69.8034 45.4419ZM77.2363 74.2946H61.2564C60.767 74.2946 60.2977 74.489 59.9517 74.835C59.6056 75.1811 59.4112 75.6504 59.4112 76.1398V78.7509L48.0965 67.6189L59.4112 56.4782V59.0893C59.4112 59.3312 59.459 59.5707 59.5518 59.7941C59.6447 60.0175 59.7807 60.2203 59.9522 60.391C60.1236 60.5616 60.3271 60.6967 60.5509 60.7885C60.7748 60.8803 61.0145 60.9269 61.2564 60.9258H85.4352L81.301 70.2822C81.296 70.3198 81.296 70.3578 81.301 70.3953L80.77 71.5704C80.0737 72.815 78.89 74.2946 77.2363 74.2946Z" fill="#17262F"></path><path d="M37.5476 57.2527L22.0986 57.1308L27.0771 49.724L30.7501 52.9966C31.0884 53.2972 31.5247 53.4642 31.9773 53.4666C32.2517 53.4662 32.5225 53.4037 32.7693 53.2838C33.0945 53.1276 33.3668 52.8794 33.5524 52.57C33.7381 52.2606 33.8289 51.9036 33.8137 51.5431L32.7867 30.0973C32.7636 29.7641 32.6748 29.4387 32.5254 29.14C32.376 28.8412 32.169 28.575 31.9163 28.3565C31.6683 28.1305 31.3767 27.9576 31.0594 27.8483C30.7421 27.7391 30.4058 27.6958 30.0712 27.7212L8.70367 29.1486C8.34246 29.174 7.99671 29.3051 7.7095 29.5256C7.42229 29.7462 7.20631 30.0463 7.08847 30.3887C6.97062 30.7311 6.95613 31.1006 7.04679 31.4512C7.13745 31.8017 7.32925 32.1179 7.5983 32.3602L11.4627 35.7895L1.47092 46.7561C-1.10536 49.6109 0.496114 54.9723 0.496114 54.981C0.686793 55.4997 0.91065 56.0056 1.1663 56.4955C1.2507 56.6487 1.35617 56.7893 1.47963 56.9133C2.17592 57.8707 4.14295 60.4818 10.0353 68.2802L14.3872 73.5895C15.2916 74.8198 16.4327 75.8569 17.7435 76.6401C19.0543 77.4233 20.5083 77.9367 22.0203 78.1502H22.1421H22.6905H23.0125H37.4954C38.1826 78.1752 38.8519 77.9281 39.358 77.4626C39.6147 77.2179 39.8189 76.9235 39.958 76.5972C40.0972 76.271 40.1684 75.9199 40.1674 75.5652V59.9595C40.1732 59.6098 40.11 59.2623 39.9814 58.937C39.8529 58.6116 39.6615 58.3148 39.4182 58.0634C39.1749 57.8121 38.8845 57.6111 38.5636 57.472C38.2426 57.3329 37.8974 57.2584 37.5476 57.2527ZM4.35184 54.6416C4.20952 54.3593 4.08454 54.0687 3.97758 53.7712C3.67295 52.5614 3.42925 50.0548 4.19517 49.2018L15.4229 36.8948L15.5448 36.7382L15.6666 36.5554C15.6666 36.4945 15.7275 36.4335 15.7536 36.3813C15.7797 36.3291 15.8059 36.2769 15.8233 36.2246C15.8407 36.1724 15.8233 36.1028 15.8668 36.0419C15.8717 35.9869 15.8717 35.9315 15.8668 35.8765C15.8711 35.8156 15.8711 35.7546 15.8668 35.6937C15.8754 35.6389 15.8754 35.5831 15.8668 35.5284C15.8716 35.4704 15.8716 35.4122 15.8668 35.3543C15.8716 35.2964 15.8716 35.2381 15.8668 35.1802C15.8546 35.1236 15.8371 35.0682 15.8146 35.0148C15.8146 34.9539 15.8146 34.9017 15.7536 34.8408C15.7278 34.8007 15.6987 34.7629 15.6666 34.7276C15.6432 34.6707 15.6108 34.6178 15.5709 34.5709C15.5329 34.5195 15.4922 34.4701 15.449 34.423C15.4135 34.3804 15.3757 34.3397 15.3359 34.3011L13.3601 32.5604L29.2269 31.4899L29.9841 47.374L28.0084 45.6333L27.8517 45.5115C27.8187 45.4803 27.7839 45.4513 27.7473 45.4244H27.6951L27.5297 45.3287L27.373 45.259L27.199 45.2068H27.0336C26.973 45.1983 26.9114 45.1983 26.8508 45.2068H26.6767H26.494C26.4418 45.2027 26.3894 45.2027 26.3373 45.2068C26.2753 45.2202 26.2142 45.2376 26.1545 45.259L25.9979 45.3113L25.8325 45.3983L25.6845 45.4853L25.5453 45.5985L25.406 45.729H25.3625C25.3336 45.7617 25.3074 45.7966 25.2842 45.8335L25.2058 45.9205L16.9112 58.2536L12.0633 64.8684C9.4957 61.4653 4.94369 55.4423 4.35184 54.6416ZM36.4858 74.5295H22.9429H22.3249C20.2764 74.1863 18.4481 73.0436 17.242 71.3526L14.4307 67.8886L19.6529 60.8125L36.5554 60.9256L36.4858 74.5295Z" fill="#17262F"></path><path d="M79.2904 12.5507C79.0279 12.2994 78.6975 12.1309 78.34 12.0659C77.9826 12.0009 77.6139 12.0423 77.2798 12.1851L72.2926 14.4481L65.4167 4.00367C64.2679 1.74072 61.9005 0.330724 58.6105 0.0522064H58.4625H58.3146C57.8305 0.0219859 57.3451 0.0219859 56.861 0.0522064H56.774H38.1482H38.0437C34.5622 0.0522064 31.4376 2.92442 30.4193 4.86533V4.92626C30.28 5.19607 30.1843 5.40496 30.1234 5.55292L22.3771 17.6423C22.3314 17.7149 22.2906 17.7905 22.2553 17.8686C21.9601 18.515 21.9337 19.2521 22.1817 19.918C22.4298 20.5839 22.9321 21.124 23.5782 21.4197L37.7739 27.8517C38.3944 28.1383 39.1011 28.1762 39.7487 27.9576C40.3962 27.7391 40.9354 27.2807 41.2554 26.6767L48.4359 15.214L53.4231 22.8993L48.9668 24.8925C48.6366 25.0402 48.3574 25.2821 48.1641 25.5879C47.9709 25.8937 47.8723 26.2497 47.8807 26.6114C47.889 26.973 48.004 27.3241 48.2112 27.6206C48.4183 27.9172 48.7085 28.1459 49.0451 28.2782L69.0636 36.1115C69.3567 36.2294 69.6702 36.2886 69.9862 36.2856C70.3401 36.2874 70.6904 36.2132 71.0132 36.068C71.3207 35.9317 71.5978 35.7352 71.828 35.4901C72.0582 35.2449 72.2369 34.956 72.3536 34.6406L79.7517 14.5351C79.8793 14.1957 79.9035 13.8262 79.8214 13.4731C79.7394 13.1199 79.5546 12.799 79.2904 12.5507ZM38.4963 24.1353L26.111 18.5475L33.2828 7.3981C33.3423 7.30794 33.3919 7.21165 33.4308 7.11088L33.6571 6.62347C34.101 5.83144 35.9897 3.86441 37.9306 3.81219H40.9507L46.1729 11.8979L38.4963 24.1353ZM69.2638 32.2732L54.4675 26.4504L56.8871 25.3712L57.0699 25.258C57.0699 25.258 57.0699 25.258 57.1309 25.258C57.1916 25.2222 57.2472 25.1782 57.2962 25.1275C57.3361 25.095 57.3739 25.0602 57.4094 25.023C57.457 24.98 57.4981 24.9301 57.5312 24.8751C57.5686 24.8337 57.6035 24.7901 57.6357 24.7445C57.668 24.6942 57.697 24.6419 57.7227 24.5878L57.801 24.4312L57.8533 24.2571C57.8583 24.2021 57.8583 24.1467 57.8533 24.0917C57.8575 24.0309 57.8575 23.9698 57.8533 23.909C57.8533 23.8567 57.8533 23.7958 57.8533 23.7436C57.8533 23.6914 57.8533 23.6217 57.8533 23.5695V23.3867C57.8571 23.3346 57.8571 23.2822 57.8533 23.2301C57.837 23.1622 57.8166 23.0953 57.7923 23.0299C57.7724 22.9875 57.7492 22.9467 57.7227 22.908C57.7064 22.8612 57.6829 22.8171 57.6531 22.7775L45.3635 3.71645H56.8697H58.3146C59.7332 3.8296 61.5436 4.27348 62.2138 5.77922V5.83144C62.2433 5.90358 62.2782 5.97341 62.3182 6.04033L70.0645 17.7816C70.1449 17.8966 70.2351 18.0043 70.3343 18.1036L70.4126 18.1558C70.4924 18.2265 70.58 18.2878 70.6738 18.3386L70.7956 18.3995C70.8797 18.439 70.967 18.4711 71.0567 18.4953L71.1873 18.5388C71.2974 18.5474 71.4079 18.5474 71.518 18.5388H71.5876C71.7439 18.5376 71.8993 18.5142 72.0489 18.4692H72.1621L72.3274 18.4169L74.7471 17.329L69.2638 32.2732Z" fill="#17262F"></path></g><defs><clipPath id="clip0_5678_33726"><rect width="93.0509" height="85" fill="white"></rect></clipPath></defs></svg>