<svg xmlns="http://www.w3.org/2000/svg" width="123" height="110" viewBox="0 0 123 110" fill="none"><g clip-path="url(#clip0_5678_18383)"><path d="M120.917 46.6804C119.592 44.4066 117.484 43.1719 116.204 43.9097L116.053 44.0151L114.141 45.1294L118.96 53.3211L121.023 52.1164C122.242 51.3786 122.227 48.9391 120.917 46.6804Z" fill="#6E6E6E"></path><path d="M118.96 53.321C117.68 54.0588 115.572 52.8241 114.261 50.5503C112.951 48.2765 112.921 45.822 114.261 45.0842C115.602 44.3463 117.665 45.5811 118.975 47.8549C120.285 50.1286 120.194 52.5831 118.96 53.321Z" fill="#3D3D3D"></path><path d="M65.8494 92.9993L68.59 91.5386L71.9179 88.6926L65.8494 92.0657V92.9993Z" fill="#373C3F"></path><path d="M65.8494 92.0657L71.9179 88.6926L71.1951 88.271L65.0363 91.8699L65.8494 92.0657Z" fill="#505453"></path><path d="M65.0363 92.7885L65.8494 92.9994V92.0658L65.0363 91.87V92.7885Z" fill="#1C2225"></path><path d="M63.4552 91.8699L69.629 88.2861V87.3676L63.4552 90.9514V91.8699Z" fill="#373C3F"></path><path d="M63.4552 90.9514L69.629 87.3676L68.9062 86.9459L62.7474 90.5448L63.4552 90.9514Z" fill="#505453"></path><path d="M62.7474 91.4633L63.4552 91.8699V90.9514L62.7474 90.5448V91.4633Z" fill="#1C2225"></path><path d="M61.1663 90.5448L67.3402 86.9609V86.0273L61.1663 89.6262V90.5448Z" fill="#373C3F"></path><path d="M61.1663 89.6263L67.3402 86.0274L66.6174 85.6208L60.4435 89.2198L61.1663 89.6263Z" fill="#505453"></path><path d="M60.4435 90.1383L61.1663 90.5448V89.6263L60.4435 89.2197V90.1383Z" fill="#1C2225"></path><path d="M58.8775 89.2197L65.0513 85.6358V84.7173L58.8775 88.3011V89.2197Z" fill="#373C3F"></path><path d="M58.8775 88.3011L65.0513 84.7173L64.3285 84.2957L58.1547 87.8946L58.8775 88.3011Z" fill="#505453"></path><path d="M58.1547 88.8132L58.8775 89.2198V88.3012L58.1547 87.8947V88.8132Z" fill="#1C2225"></path><path d="M56.5886 87.8946L62.7625 84.3108V83.3922L56.5886 86.9761V87.8946Z" fill="#373C3F"></path><path d="M56.5886 86.9761L62.7625 83.3922L62.0397 82.9706L55.8658 86.5695L56.5886 86.9761Z" fill="#505453"></path><path d="M55.8658 87.488L56.5886 87.8946V86.976L55.8658 86.5695V87.488Z" fill="#1C2225"></path><path d="M54.2998 86.5695L60.4736 82.9857V82.0671L54.2998 85.651V86.5695Z" fill="#373C3F"></path><path d="M54.2998 85.651L60.4736 82.0671L59.7508 81.6455L53.577 85.2444L54.2998 85.651Z" fill="#505453"></path><path d="M53.577 86.1629L54.2998 86.5695V85.651L53.577 85.2444V86.1629Z" fill="#1C2225"></path><path d="M52.011 85.2443L58.1848 81.6605V80.7419L52.011 84.3258V85.2443Z" fill="#373C3F"></path><path d="M52.011 84.3258L58.1848 80.7419L57.462 80.3203L51.2882 83.9192L52.011 84.3258Z" fill="#505453"></path><path d="M51.2882 84.8377L52.011 85.2443V84.3258L51.2882 83.9192V84.8377Z" fill="#1C2225"></path><path d="M49.7221 83.9193L55.8809 80.3354V79.4169L49.7221 83.0007V83.9193Z" fill="#373C3F"></path><path d="M49.7221 83.0007L55.8809 79.4169L55.1732 78.9952L48.9993 82.5941L49.7221 83.0007Z" fill="#505453"></path><path d="M48.9993 83.5127L49.7221 83.9192V83.0007L48.9993 82.5941V83.5127Z" fill="#1C2225"></path><path d="M47.4333 82.5941L53.5921 79.0102V78.0917L47.4333 81.6755V82.5941Z" fill="#373C3F"></path><path d="M47.4333 81.6755L53.5921 78.0917L52.8843 77.67L46.7105 81.2689L47.4333 81.6755Z" fill="#505453"></path><path d="M46.7105 82.1876L47.4333 82.5942V81.6756L46.7105 81.269V82.1876Z" fill="#1C2225"></path><path d="M45.1294 81.269L51.3032 77.6852V76.7666L45.1294 80.3504V81.269Z" fill="#373C3F"></path><path d="M45.1294 80.3504L51.3032 76.7666L50.5804 76.345L44.4216 79.9439L45.1294 80.3504Z" fill="#505453"></path><path d="M44.4216 80.8624L45.1294 81.269V80.3504L44.4216 79.9438V80.8624Z" fill="#1C2225"></path><path d="M42.8405 79.9439L49.0144 76.3601V75.4415L42.8405 79.0254V79.9439Z" fill="#373C3F"></path><path d="M42.8405 79.0254L49.0144 75.4415L48.2916 75.0199L42.1328 78.6188L42.8405 79.0254Z" fill="#505453"></path><path d="M42.1328 79.5373L42.8405 79.9439V79.0253L42.1328 78.6188V79.5373Z" fill="#1C2225"></path><path d="M40.5517 78.6187L46.7255 75.0349V74.1163L40.5517 77.7002V78.6187Z" fill="#373C3F"></path><path d="M40.5517 77.7002L46.7255 74.1163L46.0027 73.6947L39.8289 77.2936L40.5517 77.7002Z" fill="#505453"></path><path d="M39.8289 78.2122L40.5517 78.6188V77.7003L39.8289 77.2937V78.2122Z" fill="#1C2225"></path><path d="M38.2628 77.2937L44.4367 73.7098V72.7913L38.2628 76.3751V77.2937Z" fill="#373C3F"></path><path d="M38.2628 76.3751L44.4367 72.7913L43.7139 72.3696L37.54 75.9685L38.2628 76.3751Z" fill="#505453"></path><path d="M37.54 76.8871L38.2628 77.2936V76.3751L37.54 75.9685V76.8871Z" fill="#1C2225"></path><path d="M35.974 75.9685L42.1478 72.3846V71.4661L35.974 75.0499V75.9685Z" fill="#373C3F"></path><path d="M35.974 75.0499L42.1478 71.4661L41.425 71.0444L35.2512 74.6433L35.974 75.0499Z" fill="#505453"></path><path d="M35.2512 75.562L35.974 75.9686V75.05L35.2512 74.6434V75.562Z" fill="#1C2225"></path><path d="M72.4901 87.1266C72.4922 85.6614 72.1076 84.2215 71.3753 82.9525C70.6429 81.6834 69.5886 80.63 68.319 79.8987L38.2026 62.4463C37.6786 62.1423 37.081 61.9885 36.4754 62.0018C35.8698 62.0151 35.2795 62.1949 34.7693 62.5216L31.4716 64.5394L68.7255 91.1622L70.397 90.1985C70.6938 90.0765 70.9724 89.9144 71.2252 89.7166C71.62 89.4104 71.9394 89.0176 72.1586 88.5686C72.3779 88.1196 72.4913 87.6263 72.4901 87.1266Z" fill="#3B3F40"></path><path d="M33.5195 74.4175L39.6934 70.8337L39.9042 70.0958L33.7454 73.6947L33.5195 74.4175Z" fill="#373C3F"></path><path d="M33.7454 73.6947L39.9042 70.0958L39.1964 69.6892L33.1431 73.1827L33.7454 73.6947Z" fill="#505453"></path><path d="M32.9172 73.9055L33.5195 74.4175L33.7454 73.6947L33.143 73.1827L32.9172 73.9055Z" fill="#1C2225"></path><path d="M31.6071 72.6256L37.7659 69.0267V68.1082L32.0287 71.8125L31.6071 72.6256Z" fill="#373C3F"></path><path d="M32.0287 71.8124L37.7659 68.1081L37.0582 67.7015L31.4264 71.0294L32.0287 71.8124Z" fill="#505453"></path><path d="M31.0048 71.8426L31.6071 72.6256L32.0287 71.8124L31.4264 71.0294L31.0048 71.8426Z" fill="#1C2225"></path><path d="M30.6584 69.358L36.8172 65.7741V64.8556L30.6584 68.4394V69.358Z" fill="#373C3F"></path><path d="M30.6585 68.4394L36.0643 65.2922L35.7782 65.1266L29.6044 68.7104L30.6585 68.4394Z" fill="#505453"></path><path d="M29.8152 69.5236L30.794 69.3279L30.6585 68.4395L29.6044 68.7105L29.8152 69.5236Z" fill="#1C2225"></path><path d="M30.4175 67.3101L36.3655 63.6359L33.0376 64.6297L30.4175 66.3915V67.3101Z" fill="#373C3F"></path><path d="M30.4175 66.3915L33.0376 64.6297L32.3149 64.2231L29.4689 65.8946L30.4175 66.3915Z" fill="#505453"></path><path d="M29.4689 66.8132L30.4175 67.3101V66.3916L29.4689 65.8947V66.8132Z" fill="#1C2225"></path><path d="M31.2156 64.9459L34.0465 63.2744L34.6489 62.6721L31.8029 64.3436L31.2156 64.9459Z" fill="#373C3F"></path><path d="M31.8029 64.3436L34.6489 62.6721L34.1369 62.13L31.306 63.7864L31.8029 64.3436Z" fill="#505453"></path><path d="M30.7036 64.3888L31.2156 64.946L31.8029 64.3437L31.306 63.7865L30.7036 64.3888Z" fill="#1C2225"></path><path d="M33.5797 63.6811L36.4257 62.0247V61.0911L33.5797 62.7625V63.6811Z" fill="#373C3F"></path><path d="M33.5797 62.7625L36.4257 61.0911L35.6578 61.2416L32.8118 62.9131L33.5797 62.7625Z" fill="#505453"></path><path d="M32.8118 63.8316L33.5797 63.681V62.7625L32.8118 62.913V63.8316Z" fill="#1C2225"></path><path d="M65.5332 81.6003L35.3416 64.1328C34.8374 63.8417 34.2655 63.6887 33.6834 63.689C33.1012 63.6893 32.5295 63.843 32.0257 64.1346C31.5218 64.4262 31.1037 64.8454 30.8135 65.35C30.5233 65.8546 30.3711 66.4268 30.3724 67.0089C30.3729 68.4716 30.7587 69.9083 31.4909 71.1745C32.2231 72.4408 33.276 73.4918 34.5435 74.2218L64.7502 91.6893C65.2524 91.9707 65.819 92.117 66.3947 92.1139C66.9704 92.1109 67.5354 91.9585 68.0346 91.6717C68.5338 91.385 68.9501 90.9736 69.2427 90.4778C69.5354 89.9821 69.6944 89.4189 69.7043 88.8433C69.7076 87.3758 69.3236 85.9334 68.5913 84.6617C67.8589 83.39 66.8041 82.334 65.5332 81.6003Z" fill="#1C2225"></path><path d="M66.3764 90.5297C66.1178 90.529 65.8636 90.4615 65.6386 90.334L35.447 72.8665C34.4582 72.2921 33.6374 71.4683 33.0666 70.4774C32.4959 69.4865 32.1951 68.3632 32.1944 67.2197C32.1944 66.8203 32.353 66.4373 32.6354 66.1549C32.9178 65.8725 33.3008 65.7139 33.7002 65.7139C33.9654 65.7166 34.2251 65.7893 34.4531 65.9247L64.5695 83.3771C65.5611 83.9496 66.3848 84.7726 66.9583 85.7636C67.5318 86.7546 67.8348 87.8789 67.8371 89.0239C67.8363 89.2232 67.7959 89.4202 67.7184 89.6038C67.6408 89.7873 67.5276 89.9536 67.3853 90.0931C67.1025 90.3657 66.7242 90.517 66.3313 90.5147L66.3764 90.5297Z" fill="black"></path><path d="M39.7084 71.7673C38.8734 71.2809 38.1567 70.6153 37.6099 69.8185C37.0631 69.0217 36.6998 68.1136 36.5462 67.1595L34.438 65.9398C34.21 65.8045 33.9503 65.7318 33.6851 65.729C33.2858 65.729 32.9028 65.8877 32.6204 66.17C32.338 66.4524 32.1793 66.8355 32.1793 67.2348C32.18 68.3783 32.4808 69.5017 33.0516 70.4926C33.6223 71.4834 34.4431 72.3072 35.4319 72.8816L65.6386 90.3491C65.8636 90.4767 66.1178 90.5441 66.3764 90.5449C66.7694 90.5472 67.1476 90.3959 67.4305 90.1232C67.5728 89.9838 67.686 89.8175 67.7635 89.634C67.8411 89.4504 67.8814 89.2533 67.8823 89.0541C67.8822 88.7058 67.852 88.3582 67.7919 88.0151L39.7084 71.7673Z" fill="url(#paint0_linear_5678_18383)"></path><path d="M67.1143 88.9486C67.0198 88.9673 66.9227 88.9673 66.8282 88.9486L36.6365 71.4058C35.7884 70.9109 35.084 70.2034 34.5928 69.3531C34.1016 68.5028 33.8407 67.5391 33.8357 66.5571C33.8357 66.4014 33.8976 66.252 34.0077 66.1418C34.1179 66.0317 34.2672 65.9698 34.423 65.9698C34.5162 65.9409 34.6159 65.9409 34.7091 65.9698L64.9007 83.5126C65.7642 83.9952 66.484 84.6983 66.9867 85.5502C67.4894 86.4021 67.7569 87.3722 67.7618 88.3614C67.7661 88.4372 67.7534 88.513 67.7248 88.5833C67.6961 88.6536 67.6522 88.7167 67.5962 88.7679C67.5355 88.8336 67.4604 88.8841 67.3767 88.9155C67.293 88.9469 67.2032 88.9582 67.1143 88.9486Z" fill="#A85D00"></path><path d="M63.4552 82.9555L62.9884 83.2266L37.9014 68.8008L38.3682 68.5298L63.4552 82.9555Z" fill="#E58919"></path><path d="M62.9884 83.2265V85.5304L37.9014 71.0896V68.8008L62.9884 83.2265Z" fill="#CC7A16"></path><path d="M63.4552 82.9556L62.9884 83.2266V85.5305L63.4552 85.2444V82.9556Z" fill="#AB6613"></path><path d="M65.744 81.7207L68.59 80.0643V79.1307L65.744 80.8022V81.7207Z" fill="#373C3F"></path><path d="M65.744 80.8022L68.59 79.1307L67.8672 78.7241L65.0363 80.3956L65.744 80.8022Z" fill="#505453"></path><path d="M65.0363 81.3594L65.744 81.781V80.8022L65.0363 80.3956V81.3594Z" fill="#1C2225"></path><path d="M63.4552 80.3957L66.3012 78.7393V77.8057L63.4552 79.4771V80.3957Z" fill="#373C3F"></path><path d="M63.4552 79.4771L66.3012 77.8056L65.5784 77.399L62.7474 79.0705L63.4552 79.4771Z" fill="#505453"></path><path d="M62.7474 80.0493L63.4552 80.4559V79.4771L62.7474 79.0706V80.0493Z" fill="#1C2225"></path><path d="M61.1663 79.0706L64.0123 77.4142V76.4956L61.1663 78.152V79.0706Z" fill="#373C3F"></path><path d="M61.1663 78.152L64.0123 76.4956L63.2895 76.074L60.4435 77.7454L61.1663 78.152Z" fill="#505453"></path><path d="M60.4435 78.7091L61.1663 79.1307V78.1519L60.4435 77.7454V78.7091Z" fill="#1C2225"></path><path d="M58.8775 77.7454L61.7235 76.089V75.1554L58.8775 76.8269V77.7454Z" fill="#373C3F"></path><path d="M58.8775 76.8268L61.7235 75.1554L61.0007 74.7488L58.1547 76.4202L58.8775 76.8268Z" fill="#505453"></path><path d="M58.1547 77.3991L58.8775 77.8056V76.8269L58.1547 76.4203V77.3991Z" fill="#1C2225"></path><path d="M56.5886 76.4202L59.4346 74.7638V73.8302L56.5886 75.5017V76.4202Z" fill="#373C3F"></path><path d="M56.5886 75.5017L59.4346 73.8303L58.7118 73.4237L55.8658 75.0952L56.5886 75.5017Z" fill="#505453"></path><path d="M55.8658 76.0739L56.5886 76.4804V75.5017L55.8658 75.0951V76.0739Z" fill="#1C2225"></path><path d="M54.2998 75.0951L57.1458 73.4387V72.5201L54.2998 74.1765V75.0951Z" fill="#373C3F"></path><path d="M54.2998 74.1767L57.1458 72.5203L56.423 72.0986L53.577 73.7701L54.2998 74.1767Z" fill="#505453"></path><path d="M53.577 74.7337L54.2998 75.1554V74.1766L53.577 73.77V74.7337Z" fill="#1C2225"></path><path d="M52.011 73.7701L54.8419 72.1137V71.1801L52.011 72.8515V73.7701Z" fill="#373C3F"></path><path d="M52.011 72.8515L54.8419 71.18L54.1342 70.7734L51.2882 72.4449L52.011 72.8515Z" fill="#505453"></path><path d="M51.2882 73.4237L52.011 73.8303V72.8515L51.2882 72.4449V73.4237Z" fill="#1C2225"></path><path d="M49.7221 72.4449L52.553 70.7885V69.87L49.7221 71.5264V72.4449Z" fill="#373C3F"></path><path d="M49.7221 71.5264L52.553 69.87L51.8453 69.4484L48.9993 71.1198L49.7221 71.5264Z" fill="#505453"></path><path d="M48.9993 72.0985L49.7221 72.5051V71.5263L48.9993 71.1198V72.0985Z" fill="#1C2225"></path><path d="M47.4333 71.1197L50.2642 69.4633V68.5448L47.4333 70.2012V71.1197Z" fill="#373C3F"></path><path d="M47.4333 70.2012L50.2642 68.5448L49.5565 68.1232L46.7105 69.7946L47.4333 70.2012Z" fill="#505453"></path><path d="M46.7105 70.7735L47.4333 71.18V70.2012L46.7105 69.7947V70.7735Z" fill="#1C2225"></path><path d="M45.1294 69.7947L47.9754 68.1383V67.2047L45.1294 68.8762V69.7947Z" fill="#373C3F"></path><path d="M45.1294 68.8761L47.9754 67.2047L47.2526 66.7981L44.4216 68.4696L45.1294 68.8761Z" fill="#505453"></path><path d="M44.4216 69.4484L45.1294 69.855V68.8762L44.4216 68.4696V69.4484Z" fill="#1C2225"></path><path d="M42.8405 68.4696L45.6865 66.8132V65.8947L42.8405 67.5511V68.4696Z" fill="#373C3F"></path><path d="M42.8405 67.5511L45.6865 65.8946L44.9637 65.473L42.1328 67.1445L42.8405 67.5511Z" fill="#505453"></path><path d="M42.1328 68.1232L42.8405 68.5298V67.551L42.1328 67.1444V68.1232Z" fill="#1C2225"></path><path d="M40.5517 67.1444L43.3977 65.488V64.5695L40.5517 66.2259V67.1444Z" fill="#373C3F"></path><path d="M40.5517 66.2259L43.3977 64.5695L42.6749 64.1478L39.8289 65.8193L40.5517 66.2259Z" fill="#505453"></path><path d="M39.8289 66.7981L40.5517 67.2047V66.2259L39.8289 65.8193V66.7981Z" fill="#1C2225"></path><path d="M38.2628 65.8193L41.1088 64.1629V63.2292L38.2628 64.9007V65.8193Z" fill="#373C3F"></path><path d="M38.2628 64.9008L41.1088 63.2293L40.386 62.8228L37.54 64.4942L38.2628 64.9008Z" fill="#505453"></path><path d="M37.54 65.4729L38.2628 65.8795V64.9007L37.54 64.4941V65.4729Z" fill="#1C2225"></path><path d="M35.974 64.5092L38.82 62.8377V61.9192L35.974 63.5756V64.5092Z" fill="#373C3F"></path><path d="M35.974 63.5756L38.82 61.9192L38.0972 61.4976L35.2512 63.169L35.974 63.5756Z" fill="#505453"></path><path d="M35.2512 64.1478L35.974 64.5544V63.5756L35.2512 63.1691V64.1478Z" fill="#1C2225"></path><path d="M68.7556 84.9733L71.6016 83.3019L72.1739 83.3922L69.3279 85.0486L68.7556 84.9733Z" fill="#373C3F"></path><path d="M69.5236 85.666L72.3696 84.0096L72.1738 83.3922L69.3279 85.0486L69.5236 85.666Z" fill="#505453"></path><path d="M68.7556 84.9733L69.0267 85.5756L69.5236 85.6659L69.3279 85.0486L68.7556 84.9733Z" fill="#1C2225"></path><path d="M67.6865 83.4374L70.5325 81.766L70.8939 81.2239L68.0479 82.8953L67.6865 83.4374Z" fill="#373C3F"></path><path d="M68.0479 82.8953L70.8939 81.2239L70.2464 80.5463L67.4155 82.2027L68.0479 82.8953Z" fill="#505453"></path><path d="M67.039 82.7447L67.6865 83.4374L68.0479 82.8953L67.4155 82.2026L67.039 82.7447Z" fill="#1C2225"></path><path d="M69.5085 86.961L72.3545 85.3046L72.987 85.5003L70.141 87.1718L69.5085 86.961Z" fill="#373C3F"></path><path d="M70.2313 87.8946L73.0623 86.2382L72.987 85.5004L70.141 87.1718L70.2313 87.8946Z" fill="#505453"></path><path d="M69.5085 86.9609L69.629 87.6687L70.2313 87.8945L70.141 87.1718L69.5085 86.9609Z" fill="#1C2225"></path><path d="M67.6413 91.87L70.8337 90.0931L71.7673 90.7557L68.5749 92.638L67.6413 91.87Z" fill="#373C3F"></path><path d="M67.6413 91.87L66.8433 92.0959L67.8371 92.9542L68.575 92.638L67.6413 91.87Z" fill="#1C2225"></path><path d="M69.5537 89.6714L72.3847 88.015L73.0171 88.2108L70.1862 89.8822L69.5537 89.6714Z" fill="#373C3F"></path><path d="M69.7796 90.8611L72.6256 89.1896L73.0171 88.2108L70.1862 89.8823L69.7796 90.8611Z" fill="#505453"></path><path d="M69.5537 89.6715L69.1773 90.6202L69.7796 90.8611L70.1862 89.8823L69.5537 89.6715Z" fill="#1C2225"></path><path d="M34.4079 67.5058C34.4446 68.0136 34.6 68.5057 34.8615 68.9424C35.1231 69.3792 35.4835 69.7485 35.9138 70.0205C36.7269 70.4873 37.4196 70.1109 37.4196 69.1923C37.3853 68.684 37.2309 68.191 36.9691 67.7539C36.7074 67.3167 36.3457 66.9479 35.9138 66.6776C35.0705 66.256 34.4079 66.5722 34.4079 67.5058Z" fill="#E0B350"></path><path d="M34.6338 67.6263C34.6579 68.0525 34.7823 68.4669 34.9969 68.8358C35.2115 69.2048 35.5101 69.5178 35.8686 69.7495C36.5613 70.1411 37.1034 69.7495 37.1034 69.0569C37.0805 68.6325 36.9565 68.2197 36.7418 67.853C36.527 67.4863 36.2276 67.1762 35.8686 66.9487C35.191 66.5421 34.6338 66.8584 34.6338 67.6263Z" fill="#A85D00"></path><path d="M34.9801 67.7618C35.0054 68.0652 35.0999 68.3588 35.2566 68.6199C35.4132 68.881 35.6278 69.1026 35.8836 69.2676C36.3956 69.5537 36.8022 69.2676 36.8022 68.7557C36.7764 68.4506 36.68 68.1557 36.5206 67.8944C36.3612 67.633 36.1431 67.4123 35.8836 67.2498C35.3867 67.024 34.9801 67.2498 34.9801 67.7618Z" fill="#CD8B19"></path><path d="M35.6277 67.2197C35.7172 67.2363 35.8035 67.2668 35.8836 67.3101C36.1431 67.4726 36.3612 67.6932 36.5206 67.9546C36.68 68.216 36.7764 68.5108 36.8022 68.8159C36.8081 68.9522 36.7769 69.0875 36.7118 69.2074L35.8836 69.0267C35.6246 68.7446 35.4385 68.4034 35.3416 68.0329L35.6277 67.2197Z" fill="#B86A0B"></path><path d="M35.6126 68.7256L35.447 68.3642C35.7953 68.2298 36.1204 68.0418 36.4107 67.807C36.5629 68.0155 36.6752 68.2503 36.742 68.4997C36.355 68.5062 35.9723 68.5827 35.6126 68.7256Z" fill="#DE9B16"></path><path d="M34.9801 68.2286C34.9989 68.4507 35.0667 68.6659 35.1787 68.8586C35.2906 69.0513 35.444 69.2167 35.6277 69.3429C35.989 69.5538 36.2752 69.3429 36.2752 68.9815C36.2564 68.7595 36.1886 68.5443 36.0766 68.3516C35.9647 68.1589 35.8113 67.9935 35.6277 67.8672C35.2663 67.6715 34.9801 67.8371 34.9801 68.2286Z" fill="#B86A0B"></path><path d="M35.1759 68.4846C35.1834 68.6049 35.2185 68.7219 35.2786 68.8263C35.3387 68.9308 35.4221 69.02 35.5222 69.087C35.718 69.1924 35.8686 69.087 35.8686 68.8912C35.8647 68.7701 35.8311 68.6518 35.7707 68.5467C35.7103 68.4417 35.625 68.3531 35.5222 68.2889C35.3265 68.1684 35.1759 68.2588 35.1759 68.4846Z" fill="#E0981B"></path><path d="M63.5606 84.4764C63.5949 84.9848 63.7493 85.4778 64.011 85.9149C64.2728 86.352 64.6345 86.7209 65.0664 86.9911C65.8795 87.458 66.5722 87.0966 66.5722 86.1629C66.5391 85.6543 66.3852 85.1608 66.1234 84.7235C65.8615 84.2862 65.4992 83.9176 65.0664 83.6482C64.2231 83.1814 63.5606 83.5579 63.5606 84.4764Z" fill="#E0B350"></path><path d="M63.8015 84.6119C63.8243 85.0363 63.9483 85.4491 64.1631 85.8158C64.3779 86.1825 64.6773 86.4926 65.0363 86.7201C65.7139 87.1116 66.271 86.8104 66.271 86.0274C66.2446 85.6039 66.1191 85.1925 65.9047 84.8263C65.6902 84.4601 65.3927 84.1494 65.0363 83.9192C64.3436 83.5277 63.8015 83.8289 63.8015 84.6119Z" fill="#A85D00"></path><path d="M64.1328 84.7926C64.1597 85.0974 64.2566 85.3918 64.4159 85.653C64.5752 85.9142 64.7927 86.1351 65.0513 86.2984C65.5483 86.5845 65.9548 86.2984 65.9548 85.7865C65.9296 85.483 65.835 85.1894 65.6784 84.9284C65.5217 84.6673 65.3072 84.4457 65.0513 84.2806C64.5394 83.9945 64.1328 84.2355 64.1328 84.7926Z" fill="#CD8B19"></path><path d="M64.7502 84.1903C64.8416 84.2082 64.9286 84.2441 65.0062 84.2957C65.262 84.4607 65.4766 84.6824 65.6332 84.9434C65.7899 85.2045 65.8844 85.4981 65.9097 85.8015C65.9159 85.9331 65.8846 86.0636 65.8193 86.178L64.9911 86.0123C64.7352 85.7222 64.5497 85.377 64.449 85.0035L64.7502 84.1903Z" fill="#B86A0B"></path><path d="M64.7502 85.6961C64.6883 85.5809 64.6378 85.4598 64.5996 85.3347C64.9444 85.2027 65.265 85.0144 65.5482 84.7776C65.7034 84.9899 65.8159 85.2302 65.8795 85.4853C65.4934 85.4867 65.1108 85.5581 64.7502 85.6961Z" fill="#DE9B16"></path><path d="M64.1328 85.2143C64.1435 85.4363 64.208 85.6523 64.3208 85.8438C64.4336 86.0354 64.5913 86.1965 64.7803 86.3135C65.1417 86.5243 65.4278 86.3135 65.4278 85.9521C65.4146 85.7307 65.3491 85.5156 65.2365 85.3245C65.1239 85.1334 64.9676 84.9717 64.7803 84.8529C64.4189 84.6421 64.1328 84.8077 64.1328 85.2143Z" fill="#B86A0B"></path><path d="M64.3285 85.4552C64.336 85.5755 64.3712 85.6924 64.4312 85.7969C64.4913 85.9013 64.5747 85.9905 64.6749 86.0575C64.8706 86.1629 65.0363 86.0575 65.0363 85.8618C65.0249 85.7407 64.9865 85.6238 64.924 85.5196C64.8614 85.4153 64.7763 85.3264 64.6749 85.2594C64.642 85.2307 64.601 85.2128 64.5576 85.2084C64.5141 85.2039 64.4704 85.2131 64.4323 85.2346C64.3943 85.2561 64.3639 85.2888 64.3453 85.3283C64.3267 85.3679 64.3209 85.4122 64.3285 85.4552Z" fill="#E0981B"></path><g style="mix-blend-mode:multiply"><path d="M34.423 67.31C34.517 67.2876 34.615 67.2876 34.7091 67.31L64.9007 84.8528C65.6018 85.2607 66.2068 85.8147 66.6745 86.4773C67.1422 87.1399 67.4617 87.8955 67.6112 88.6927C67.6721 88.593 67.7034 88.4781 67.7016 88.3614C67.7027 87.3782 67.4443 86.4121 66.9525 85.5608C66.4607 84.7094 65.753 84.0029 64.9007 83.5126L34.7844 66.0452C34.6912 66.0162 34.5914 66.0162 34.4983 66.0452C34.3425 66.0452 34.1932 66.107 34.083 66.2172C33.9729 66.3273 33.911 66.4767 33.911 66.6324C33.9163 66.9712 33.9516 67.3088 34.0164 67.6413C34.0581 67.5613 34.1156 67.4907 34.1855 67.4337C34.2554 67.3768 34.3362 67.3347 34.423 67.31Z" fill="#8C7900"></path></g><path d="M115.948 84.7022V101.974C115.948 102.501 113.614 109.925 113.614 109.925C113.614 109.925 111.295 102.576 111.295 101.974V84.7022C111.295 84.2655 111.671 83.874 112.274 83.6331L112.485 83.5428H112.59C112.925 83.4578 113.269 83.4123 113.614 83.4072C113.959 83.4113 114.303 83.4568 114.638 83.5428C115.376 83.7385 115.948 84.1903 115.948 84.7022Z" fill="#A8A8A8"></path><path d="M117.65 78.438V87.9096C117.65 88.8131 116.716 89.5961 115.361 89.9726L114.909 90.078H114.728H114.593H114.442H114.051H113.102H112.71H112.56H112.409H112.229L111.777 89.9726H111.551C111.411 89.9341 111.275 89.8837 111.144 89.822C111.1 89.8329 111.053 89.8329 111.009 89.822L110.693 89.6714L110.557 89.5961L110.181 89.3251L110.09 89.2347L109.925 88.8432C109.871 88.7842 109.826 88.7184 109.789 88.6475C109.75 88.603 109.72 88.552 109.699 88.4969C109.691 88.442 109.691 88.3862 109.699 88.3312C109.699 88.3312 109.699 88.3312 109.699 88.2409C109.691 88.1306 109.691 88.0199 109.699 87.9096V78.438C109.699 77.655 110.376 76.9322 111.415 76.5557L111.792 76.4202H111.973C113.148 76.1194 114.381 76.1194 115.556 76.4202C116.716 76.7967 117.65 77.5195 117.65 78.438Z" fill="#6C6C6C"></path><path d="M109.503 87.9097C109.496 88.02 109.496 88.1306 109.503 88.2409C109.503 88.2409 109.503 88.2409 109.503 88.3313C109.495 88.3862 109.495 88.442 109.503 88.4969C109.524 88.5521 109.555 88.6031 109.593 88.6475C109.689 88.7358 109.802 88.8025 109.925 88.8433L110.12 89.039L110.211 89.1294C110.328 89.2267 110.454 89.3124 110.587 89.3854L110.723 89.4757L111.039 89.6263C111.084 89.6371 111.13 89.6371 111.175 89.6263L111.476 89.7467V83.2717H109.503V87.9097Z" fill="#5E5E5E"></path><path d="M113.9 88.0301L108.057 84.6571V81.0732L113.9 84.4463V88.0301Z" fill="#A34200"></path><path d="M113.9 88.0301L119.728 84.6571V81.0732L113.9 84.4463V88.0301Z" fill="#EB9500"></path><path d="M108.057 81.0732L113.9 84.4463L119.743 81.0732L113.9 77.7002L108.057 81.0732Z" fill="#F4C26C"></path><path d="M118.493 55.7152V81.3894L114.051 83.9493L111.385 79.7029L107.064 56.1971L106.431 55.0828L110.873 52.538L118.493 55.7152Z" fill="#EEA12C"></path><path d="M114.066 83.9494V58.2752L106.431 55.0829L109.036 81.0582L114.066 83.9494Z" fill="#C24800"></path><path d="M112.274 66.2259V80.8624L110.723 79.9589L109.157 64.434L112.274 66.2259Z" fill="#584E59"></path><path d="M112.47 62.2505L102.637 56.5736V54.8419L112.47 60.5189V62.2505Z" fill="#A34200"></path><path d="M112.47 62.2505L122.287 56.5736V54.8419L112.47 60.5189V62.2505Z" fill="#EB9500"></path><path d="M102.637 54.857L112.47 60.5189L122.287 54.8419L112.47 49.1801L102.637 54.857Z" fill="#F4C26C"></path><path d="M36.9226 102.938L8.76385 86.6748V81.7207L36.9226 97.9835V102.938Z" fill="#3C3E40"></path><path d="M36.9227 102.938L65.0814 86.6748V81.7207L36.9227 97.9835V102.938Z" fill="#555A5C"></path><path d="M8.74881 81.7207L36.9227 97.9836L65.0965 81.7207L36.9227 65.4579L8.74881 81.7207Z" fill="#858B8C"></path><path d="M55.128 79.5222L54.0438 78.0164C51.514 74.0561 44.8131 71.2101 36.9227 71.2101C29.0322 71.2101 22.3313 74.0561 19.8015 78.0164L18.7173 79.5222V81.3141C18.7173 81.3141 18.7173 81.4647 18.7173 81.54C18.7173 87.2169 26.8638 91.8247 36.9227 91.8247C46.9815 91.8247 55.128 87.2169 55.128 81.54C55.128 81.54 55.128 81.3894 55.128 81.3141V79.5222Z" fill="#3C3E40"></path><path d="M55.128 80.0191C55.128 85.696 46.9815 90.2888 36.9227 90.2888C26.8638 90.2888 18.7173 85.696 18.7173 80.0191C18.7173 74.3422 26.8638 69.7344 36.9227 69.7344C46.9815 69.7344 55.128 74.3271 55.128 80.0191Z" fill="#939899"></path><path d="M36.9227 71.3607C44.9336 71.3607 51.4387 74.5982 51.4387 78.5886C51.4468 78.7441 51.4468 78.9 51.4387 79.0554V80.8775H22.4066V78.5886C22.3915 74.5982 28.8966 71.3607 36.9227 71.3607Z" fill="#616161"></path><path d="M51.4538 80.8775C51.4538 84.0849 47.2375 86.8104 41.4401 87.759C38.4462 88.2208 35.3991 88.2208 32.4052 87.759C26.5927 86.7953 22.4066 84.0849 22.4066 80.8775C22.4066 76.887 28.9117 73.6495 36.9377 73.6495C44.9637 73.6495 51.4538 76.887 51.4538 80.8775Z" fill="#2E2E2E"></path><path d="M41.4401 87.3374C41.4401 87.3374 41.4401 87.4428 41.4401 87.503C41.4401 87.5633 41.4401 87.6536 41.4401 87.744C38.4462 88.2058 35.3991 88.2058 32.4052 87.744C32.3982 87.6638 32.3982 87.5832 32.4052 87.503V82.9856H41.4401V87.3374Z" fill="#9E4810"></path><path d="M36.9226 85.5456C39.4259 85.5456 41.4552 84.3995 41.4552 82.9857C41.4552 81.5719 39.4259 80.4258 36.9226 80.4258C34.4194 80.4258 32.3901 81.5719 32.3901 82.9857C32.3901 84.3995 34.4194 85.5456 36.9226 85.5456Z" fill="#6B2500"></path><path d="M36.9227 86.0424C45.2649 86.0424 51.9808 82.2176 51.9808 77.5044C51.9963 77.319 51.9963 77.1327 51.9808 76.9473V74.7939H21.8193V77.5044C21.8042 82.2176 28.6105 86.0424 36.9227 86.0424Z" fill="#FF951A"></path><path d="M21.8193 74.794C21.8193 70.0808 28.5804 66.256 36.8775 66.256C45.1745 66.256 51.9357 70.0808 51.9357 74.794C51.9357 79.5072 45.1745 83.332 36.8775 83.332C28.5804 83.332 21.8193 79.5072 21.8193 74.794Z" fill="#CC6500"></path><path d="M33.384 54.2696L38.1273 81.2539L48.0507 75.5468L49.9781 69.6742L46.8159 62.0246L37.5099 50.6858L33.384 54.2696Z" fill="#8D3D06"></path><path d="M24.2286 65.3976L25.4333 73.9055L29.1526 76.0739L38.1875 81.2539L40.115 75.3812L36.8925 67.7618L27.5866 56.423C26.3246 57.5216 25.3566 58.9177 24.7703 60.4848C24.1839 62.0519 23.9977 63.7405 24.2286 65.3976Z" fill="#AC5200"></path><path d="M63.5606 48.7434C62.4889 46.8394 61.0807 45.1455 59.4045 43.7441L59.1937 43.6688C58.3295 42.9629 57.3587 42.3987 56.3176 41.9973L45.3703 35.7482C41.0335 33.2485 38.7296 35.5825 34.4079 38.0972L4.27652 55.7153L26.3518 83.1664L40.0548 75.3813L49.9781 69.6742L63.681 61.9042C66.783 60.1123 66.7228 54.2095 63.5606 48.7434Z" fill="#FF951A"></path><path d="M59.4045 43.7441L59.1937 43.6688C58.3295 42.9629 57.3587 42.3987 56.3176 41.9973L45.3703 35.7482C41.0335 33.2485 38.7296 35.5825 34.4079 38.0972L3.37303 56.167L16.037 70.9994L60.8049 45.0692C60.3683 44.5966 59.9005 44.1539 59.4045 43.7441Z" fill="#F4AE36"></path><path d="M24.8159 81.3141L26.3217 83.1512L40.0246 75.3661L49.948 69.6591L63.6509 61.8891C64.3532 61.4095 64.9267 60.7644 65.3206 60.0106C65.7146 59.2569 65.9168 58.4178 65.9096 57.5674L24.8159 81.3141Z" fill="#D97707"></path><path d="M50.204 62.6119C50.3073 63.3929 50.2047 64.1873 49.9062 64.9164C49.6077 65.6454 49.1238 66.2837 48.5024 66.768L45.3251 68.6051L42.4791 70.2464C42.5906 69.6455 42.646 69.0355 42.6448 68.4244V68.319C42.6331 67.6835 42.5778 67.0495 42.4791 66.4216C42.4038 65.9247 42.2984 65.4278 42.178 64.9158C41.9417 63.9687 41.6294 63.0421 41.2443 62.1451C41.2134 62.0461 41.1731 61.9503 41.1239 61.859C41.041 61.6476 40.9455 61.4415 40.8378 61.2416C40.6034 60.7263 40.342 60.2237 40.0547 59.7358L39.8138 59.3593C39.6331 59.0431 39.4374 58.742 39.2265 58.4408C38.2391 56.9653 37.0477 55.637 35.6879 54.4956C35.3867 54.2396 35.0855 54.0137 34.7994 53.8029L33.9712 53.2758C33.4002 52.9336 32.8007 52.6414 32.1793 52.4025L34.9199 50.8966L35.206 50.731L36.8474 49.692L37.9466 49.0596L38.2026 48.8939C38.6311 48.6582 39.114 48.5388 39.603 48.5476C40.0897 48.5503 40.5728 48.6317 41.0335 48.7885C42.6148 49.3838 44.0334 50.3433 45.1745 51.5893C45.5585 51.9699 45.9205 52.3722 46.2587 52.794C46.4712 53.042 46.6674 53.3035 46.846 53.577C46.9292 53.6621 47.0002 53.7584 47.0568 53.8631C47.3429 54.2998 47.629 54.7365 47.9001 55.2033C48.0356 55.4292 48.1711 55.655 48.2916 55.896C48.412 56.1369 48.5476 56.3929 48.653 56.6489C48.8957 57.1348 49.1021 57.6382 49.2704 58.1547C49.8269 59.5783 50.1424 61.0846 50.204 62.6119Z" fill="#7E1F00"></path><path d="M16.1424 59.6002L31.3059 50.8364L31.321 50.4298L8.13141 54.9924L16.1424 59.6002Z" fill="#D45613"></path><path d="M16.1424 59.6003V59.1937L8.31212 54.6763L8.50788 55.2033L16.1424 59.6003Z" fill="#8F3700"></path><path d="M16.1424 59.1938L31.321 50.4299L23.4456 45.8823L8.14647 54.5709L16.1424 59.1938Z" fill="#F27900"></path><path d="M30.3272 50.4298L23.4456 46.4545L21.3073 47.6742L20.976 47.8549L20.3587 48.2163L17.0609 50.0835L16.7296 50.2642L16.0972 50.6256L12.7995 52.4928L12.4832 52.6735L12.1821 52.8542L9.14032 54.5708L15.1485 58.0342L17.8289 56.4832L18.4463 56.1218L18.7324 56.2875L18.115 56.6489L15.4346 58.1998L16.1424 58.6215L18.8378 57.0705L19.4552 56.7091L19.7714 56.5133L23.0541 54.6311L23.6715 54.2697L23.9877 54.089L27.2553 52.1916L27.8727 51.8302L28.204 51.6495L30.3272 50.4298Z" fill="#4F2E11"></path><path d="M27.3306 48.6981L27.0445 48.5325L24.9363 49.7672L24.6051 49.9479L23.9877 50.3093L20.7351 52.2067L20.4038 52.3874L19.7865 52.7488L16.5339 54.6461L16.2177 54.8268L15.6003 55.1882L12.9049 56.7542L13.191 56.9199L15.8713 55.3538L16.5038 54.9924L16.82 54.8117L20.0876 52.9144L20.6899 52.553L21.0212 52.3723L24.2738 50.475L24.8912 50.1136L25.2225 49.9329L27.3306 48.6981Z" fill="#F27900"></path><path d="M15.3744 54.345L15.0883 54.1793L14.4709 54.5407L11.7906 56.1068L12.0616 56.2574L14.742 54.7064L15.3744 54.345Z" fill="#F27900"></path><path d="M26.2163 48.0507L25.9302 47.885L23.807 49.1198L23.4908 49.3005L22.8734 49.6619L19.6208 51.5592L19.2895 51.7399L18.6721 52.1013L15.4045 53.9986L15.0883 54.1793L15.3744 54.345L15.6906 54.1643L18.9583 52.2669L19.5756 51.9055L19.8919 51.7098L23.1595 49.8275L23.7769 49.4661L24.0931 49.2854L26.2163 48.0507Z" fill="#F27900"></path><path d="M14.245 53.6975L13.9589 53.5319L13.3415 53.8933L10.6461 55.4442L10.9322 55.6099L13.6277 54.0589L14.245 53.6975Z" fill="#F27900"></path><path d="M13.1157 53.0349L12.8296 52.8693L12.2122 53.2457L9.53183 54.7967L9.81794 54.9623L12.4983 53.4114L13.1157 53.0349Z" fill="#F27900"></path><path d="M23.9576 46.7405L23.6715 46.59L21.5483 47.8097L21.232 48.0054L20.6147 48.3668L17.3621 50.2491L17.0308 50.4449L16.4134 50.8063L13.1458 52.6885L12.8296 52.8692L13.1157 53.0349L13.4319 52.8542L16.6995 50.9568L17.3169 50.5954L17.6482 50.4147L20.9008 48.5174L21.5181 48.156L21.8344 47.9753L23.9576 46.7405Z" fill="#F27900"></path><path d="M27.2854 49.0595L27.3306 48.6981L25.2224 49.9329L24.8912 50.1136L24.2738 50.475L21.0212 52.3723L20.6899 52.553L20.0876 52.9144L16.82 54.8117L16.5038 54.9924L15.8713 55.3538L13.191 56.9199L13.4771 57.0705L16.1574 55.5195L16.7748 55.1581L17.091 54.9774L20.3737 53.08L20.9911 52.7187L21.3073 52.538L24.5599 50.6406L25.1773 50.2792L25.4935 50.0985L27.2854 49.0595Z" fill="#D45613"></path><path d="M26.141 48.4121L26.2163 48.0507L24.0931 49.2854L23.7769 49.4661L23.1595 49.8275L19.8919 51.7098L19.5756 51.9056L18.9582 52.2669L15.6906 54.1643L15.3744 54.345L14.742 54.7064L12.0616 56.2574L12.3477 56.423L15.0281 54.872L15.6605 54.5106L15.9767 54.3299L19.2293 52.4326L19.8467 52.0712L20.178 51.8754L23.4305 49.9932L24.0479 49.6318L24.3792 49.4511L26.141 48.4121Z" fill="#D45613"></path><path d="M25.0267 47.7646L25.0869 47.4032L22.9637 48.6229L22.6324 48.8187L22.0151 49.1801L18.7625 51.0623L18.4463 51.2581L17.8289 51.6044L14.5613 53.5018L14.245 53.6975L13.6276 54.0589L10.9322 55.6099L11.2183 55.7755L13.9138 54.2246L14.5311 53.8632L14.8474 53.6825L18.115 51.7701L18.7324 51.4237L19.0486 51.228L22.3012 49.3457L22.9185 48.9843L23.2498 48.7886L25.0267 47.7646Z" fill="#D45613"></path><path d="M18.7324 56.2875L18.4463 56.1218L17.8289 56.4832L15.1485 58.0342L15.4346 58.1999L18.115 56.6489L18.7324 56.2875Z" fill="#F27900"></path><path d="M29.5743 49.9932L29.2882 49.8275L27.165 51.0623L26.8487 51.243L26.2314 51.6044L22.9788 53.5017L22.6475 53.6824L22.0301 54.0438L18.7625 55.9411L18.4463 56.1218L18.7324 56.2875L19.0486 56.1068L22.3162 54.2094L22.9336 53.848L23.2649 53.6673L26.5175 51.77L27.1348 51.4086L27.4511 51.2279L29.5743 49.9932Z" fill="#E17815"></path><path d="M28.4449 49.3457L28.1739 49.1801L26.0506 50.4148L25.7194 50.5955L25.102 50.9569L21.8494 52.8392L21.5332 53.0349L20.9158 53.3963L17.6331 55.2937L17.332 55.4744L16.6995 55.8358L14.0192 57.3868L14.3053 57.5524L16.9856 56.0014L17.6181 55.64L17.9192 55.4593L21.1869 53.562L21.8042 53.2006L22.1355 53.0048L25.3881 51.1226L26.0055 50.7612L26.3368 50.5805L28.4449 49.3457Z" fill="#F27900"></path><path d="M29.514 50.3546L29.5743 49.9932L27.4511 51.2279L27.1348 51.4086L26.5175 51.77L23.2649 53.6674L22.9336 53.8481L22.3162 54.2095L19.0486 56.1068L18.7324 56.2875L18.115 56.6489L15.4346 58.1999L15.7207 58.3655L18.4011 56.8145L19.0185 56.4531L19.3347 56.2724L22.6023 54.3751L23.2197 54.0137L23.551 53.833L26.8036 51.9357L27.4209 51.5743L27.7372 51.3936L29.514 50.3546Z" fill="#D45613"></path><path d="M28.3847 49.7071L28.4449 49.3457L26.3368 50.5805L26.0055 50.7612L25.3881 51.1226L22.1355 53.0048L21.8042 53.2006L21.1869 53.562L17.9192 55.4593L17.6181 55.64L16.9856 56.0014L14.3053 57.5524L14.5914 57.7181L17.2717 56.1671L17.8891 55.7906L18.2053 55.6099L21.473 53.7276L22.0903 53.3662L22.4066 53.1705L25.6742 51.2882L26.2916 50.9268L26.6078 50.7311L28.3847 49.7071Z" fill="#D45613"></path><path d="M23.8973 47.1171L23.9576 46.7406L21.8344 47.9754L21.5181 48.1561L20.9008 48.5175L17.6482 50.4148L17.3169 50.5955L16.6995 50.9569L13.4319 52.8542L13.1157 53.0349L12.4983 53.4114L9.81793 54.9624L10.089 55.128L12.7693 53.577L13.4018 53.2006L13.718 53.0199L16.9856 51.1225L17.603 50.7762L17.9192 50.5804L21.1869 48.6831L21.8042 48.3217L22.1205 48.141L23.8973 47.1171Z" fill="#D45613"></path><path d="M28.204 51.6496L21.3073 47.6742L20.976 47.8549L27.8727 51.8302L28.204 51.6496Z" fill="#F27900"></path><path d="M27.8727 51.8303L27.1348 51.4087L26.8036 51.9357L27.2553 52.1917L27.8727 51.8303Z" fill="#8F3700"></path><path d="M26.8487 51.243L26.0055 50.7611L25.6742 51.2731L26.2313 51.6044L26.8487 51.243Z" fill="#8F3700"></path><path d="M25.7194 50.5955L24.8912 50.1136L24.5599 50.6407L25.102 50.9569L25.7194 50.5955Z" fill="#8F3700"></path><path d="M24.6051 49.9479L23.7769 49.4661L23.4305 49.9931L23.9877 50.3093L24.6051 49.9479Z" fill="#8F3700"></path><path d="M25.0869 47.4032L24.8008 47.2375L22.6776 48.4573L22.3614 48.653L21.744 49.0144L18.4764 50.8967L18.1602 51.0924L17.5428 51.4538L14.2752 53.3361L13.9589 53.5319L14.245 53.6975L14.5613 53.5017L17.8289 51.6044L18.4463 51.2581L18.7625 51.0623L22.0151 49.1801L22.6324 48.8187L22.9637 48.6229L25.0869 47.4032Z" fill="#F27900"></path><path d="M23.4908 49.3005L22.6324 48.8186L22.3012 49.3306L22.8734 49.6619L23.4908 49.3005Z" fill="#8F3700"></path><path d="M22.3614 48.6529L21.5181 48.156L21.1718 48.683L21.744 49.0143L22.3614 48.6529Z" fill="#8F3700"></path><path d="M21.232 48.0054L20.976 47.8549L20.3587 48.2163L20.6146 48.3668L21.232 48.0054Z" fill="#8F3700"></path><path d="M23.9877 54.089L17.0609 50.0835L16.7296 50.2642L23.6715 54.2697L23.9877 54.089Z" fill="#F27900"></path><path d="M23.6715 54.2697L22.9336 53.848L22.6023 54.3751L23.0541 54.631L23.6715 54.2697Z" fill="#8F3700"></path><path d="M22.6475 53.6824L21.8042 53.2006L21.473 53.7125L22.0301 54.0438L22.6475 53.6824Z" fill="#8F3700"></path><path d="M21.5332 53.035L20.6899 52.5531L20.3587 53.0801L20.9158 53.3964L21.5332 53.035Z" fill="#8F3700"></path><path d="M20.4038 52.3874L19.5756 51.9055L19.2293 52.4326L19.7864 52.7488L20.4038 52.3874Z" fill="#8F3700"></path><path d="M19.2895 51.7399L18.4463 51.2581L18.0999 51.77L18.6721 52.1013L19.2895 51.7399Z" fill="#8F3700"></path><path d="M18.1602 51.0924L17.3169 50.5955L16.9856 51.1225L17.5428 51.4538L18.1602 51.0924Z" fill="#8F3700"></path><path d="M17.0308 50.4449L16.7296 50.2642L16.0972 50.6256L16.4134 50.8063L17.0308 50.4449Z" fill="#8F3700"></path><path d="M19.7714 56.5133L12.7995 52.4928L12.4832 52.6735L19.4552 56.7091L19.7714 56.5133Z" fill="#F27900"></path><path d="M19.4552 56.7091L18.7324 56.2875L18.4011 56.8145L18.8378 57.0705L19.4552 56.7091Z" fill="#8F3700"></path><path d="M18.4463 56.1219L17.6181 55.64L17.2717 56.167L17.8289 56.4833L18.4463 56.1219Z" fill="#8F3700"></path><path d="M17.332 55.4743L16.5038 54.9924L16.1574 55.5195L16.6995 55.8357L17.332 55.4743Z" fill="#8F3700"></path><path d="M16.2177 54.8268L15.3744 54.345L15.0281 54.872L15.6003 55.1882L16.2177 54.8268Z" fill="#8F3700"></path><path d="M15.0883 54.1794L14.245 53.6975L13.8987 54.2245L14.4709 54.5408L15.0883 54.1794Z" fill="#8F3700"></path><path d="M13.9589 53.5318L13.1157 53.0349L12.7693 53.577L13.3415 53.8932L13.9589 53.5318Z" fill="#8F3700"></path><path d="M12.2122 53.2457L12.8296 52.8692L12.4832 52.6735L12.1821 52.8542L12.0164 53.1252L12.2122 53.2457Z" fill="#8F3700"></path><path d="M26.2313 70.0055C25.1544 68.0964 23.7414 66.3976 22.0602 64.9911L21.8645 64.8857C20.9982 64.1905 20.0276 63.6365 18.9884 63.2443L6.94182 56.2875C6.37195 55.9442 5.72128 55.758 5.05607 55.748C4.39086 55.738 3.73487 55.9044 3.1549 56.2303C2.57493 56.5563 2.0917 57.0301 1.75441 57.6035C1.41712 58.177 1.23782 58.8296 1.23477 59.4949V67.5962C1.23648 68.6812 1.52412 69.7466 2.06869 70.6851C2.61327 71.6236 3.39557 72.4019 4.33676 72.9418L19.3949 81.6003C21.8795 83.5578 24.4997 84.2505 26.3819 83.1061C29.4538 81.3142 29.3936 75.4866 26.2313 70.0055Z" fill="#CC6500"></path><path d="M47.9452 55.2033C47.6893 54.7817 47.4333 54.3751 47.1622 53.9685C46.68 53.2668 46.1518 52.5977 45.5811 51.9658H45.5058C45.2649 51.6947 45.0089 51.4387 44.7529 51.1978L44.5572 51.0322L43.8946 50.46L43.6687 50.219L43.0212 49.7673L42.7953 49.6167C42.5573 49.4718 42.3109 49.341 42.0575 49.2252H41.937C41.6529 49.0929 41.3613 48.9772 41.0637 48.8788C40.579 48.7138 40.0698 48.6323 39.5578 48.6379C39.0618 48.6266 38.5722 48.7516 38.1424 48.9993L36.1396 50.1588C38.3984 51.1075 41.7262 54.7666 43.5031 57.8234C44.8704 60.0622 45.6476 62.6112 45.7618 65.232C45.7618 65.9247 45.7618 67.0992 45.7618 68.3792L48.5325 66.783C49.1563 66.2974 49.6417 65.6566 49.9403 64.9247C50.2389 64.1927 50.3402 63.3953 50.2341 62.6119C50.1062 59.9892 49.319 57.4411 47.9452 55.2033Z" fill="#BA5C00"></path><path d="M66.0452 15.0581L48.3217 55.8959L45.4908 63.0184L42.1629 64.9308C41.8881 63.9017 41.5358 62.895 41.1088 61.9192C40.798 61.1846 40.4409 60.4704 40.0397 59.7809L39.7988 59.4045C39.6181 59.0882 39.4223 58.7871 39.2115 58.4859C38.2241 57.0104 37.0327 55.6821 35.6728 54.5407L38.2177 48.9692L54.2998 16.564L53.4114 15.0581L59.6454 11.4592L62.4011 12.965L63.1691 13.4168L66.0452 15.0581Z" fill="#7E1F00"></path><path d="M72.0383 3.77961C70.3819 0.903502 67.7618 -0.662549 66.0904 0.271058L65.8946 0.406582L63.4853 1.80699L69.5086 12.2273L72.1136 10.7214C73.7851 9.75771 73.6947 6.67078 72.0383 3.77961Z" fill="#6E6E6E"></path><path d="M69.4935 12.2122C67.8672 13.1609 65.2019 11.5797 63.5455 8.70364C61.8891 5.82753 61.859 2.68037 63.5455 1.79193C65.232 0.903501 67.8371 2.42438 69.5688 5.30049C71.3005 8.1766 71.1198 11.2786 69.4935 12.2122Z" fill="#3D3D3D"></path><path d="M52.5229 19.6962L53.8631 10.1794L63.7865 4.51752C64.599 4.2236 65.487 4.21237 66.3068 4.48562C67.1265 4.75888 67.8302 5.30065 68.3039 6.02334C70.3368 9.03497 68.7406 10.4203 68.7406 10.4203L52.5229 19.6962Z" fill="#566B6F"></path><path d="M59.8111 18.627L45.1745 51.5894L41.0938 61.8741C40.7829 61.1395 40.4258 60.4253 40.0246 59.7358L39.7837 59.3594C39.603 59.0432 39.4073 58.742 39.1964 58.4408C38.003 56.6481 36.5047 55.0784 34.7693 53.8029L33.9411 53.2759L35.1759 50.6708L53.4114 15.0582L59.8111 18.627Z" fill="#C24800"></path><path d="M113.177 45.8974L66.1205 4.20129L59.8713 7.81526L63.1088 16.4285L104.157 53.4867L105.061 55.0377L111.295 51.4388L113.177 45.8974Z" fill="#EEA12C"></path><path d="M118.146 37.3142C117.768 36.9845 117.296 36.7812 116.797 36.7326C116.298 36.684 115.795 36.7926 115.361 37.0431C113.402 38.3172 111.94 40.2257 111.22 42.449L109.112 42.9911L106.1 48.2615L106.461 54.7064L112.485 51.258C112.785 51.0744 113.035 50.8183 113.212 50.5132C113.388 50.208 113.485 49.8636 113.493 49.5113V49.0445C113.124 48.0548 112.98 46.995 113.072 45.9425C113.313 42.6749 115.451 39.9192 117.845 39.9192C118.056 39.9037 118.267 39.9037 118.478 39.9192L118.658 39.332C118.772 38.9815 118.783 38.6063 118.693 38.2494C118.602 37.8924 118.413 37.5683 118.146 37.3142Z" fill="#D97707"></path><path d="M105.483 59.2238L101.552 54.601L114.442 47.1773C115.08 46.9539 115.773 46.9513 116.412 47.1698C117.052 47.3882 117.599 47.8152 117.966 48.382C119.562 50.7762 118.297 51.8604 118.297 51.8604L105.483 59.2238Z" fill="#566B6F"></path><path d="M114.337 58.0795L117.138 56.4532V39.588L114.337 41.1992V58.0795Z" fill="#EB9500"></path><path d="M114.337 58.0795L111.536 56.4532V39.588L114.337 41.1992V58.0795Z" fill="#C24800"></path><path d="M59.8864 7.80017L106.943 49.4963L105.061 55.0377L59.8111 18.3409L59.8864 7.80017Z" fill="#C24800"></path><path d="M55.2334 48.9542L50.1136 56.7995L49.2854 58.0794L42.6297 68.4093V68.3039C42.6181 67.6684 42.5627 67.0345 42.4641 66.4066C42.3888 65.9097 42.2834 65.4128 42.1629 64.9008C41.9266 63.9536 41.6144 63.0271 41.2293 62.1301C41.1984 62.0311 41.158 61.9353 41.1088 61.844C41.026 61.6326 40.9304 61.4264 40.8227 61.2266L44.1656 56.0466L44.8433 55.0226L46.2738 52.7639L50.7912 45.6564C50.9401 45.4674 51.1388 45.3236 51.3649 45.2411C51.5909 45.1587 51.8355 45.1408 52.0712 45.1896C52.2823 45.2058 52.4901 45.2515 52.6886 45.3252L66.0452 23.3402L66.4517 23.6715L67.4908 24.5298L68.0479 24.9816L54.9021 46.831C55.0622 47.0304 55.1986 47.2477 55.3087 47.4785C55.4461 47.7035 55.5124 47.9647 55.499 48.2279C55.4855 48.4912 55.393 48.7443 55.2334 48.9542Z" fill="#C24800"></path><path d="M66.1506 4.81865C65.689 4.70612 65.2032 4.74832 64.7679 4.93876C64.3326 5.1292 63.9719 5.45734 63.7413 5.87273C62.9884 6.91174 64.0424 8.10134 64.0424 8.10134L97.8782 34.0767C97.6928 33.7142 97.6224 33.3039 97.6762 32.9003C97.73 32.4968 97.9055 32.1192 98.1793 31.818C99.1129 30.4778 99.9863 30.8241 99.9863 30.8241L66.1506 4.81865Z" fill="#545454"></path><path d="M100.423 31.8029C100.352 32.2742 100.171 32.7219 99.8932 33.1093C99.6157 33.4968 99.2502 33.8128 98.8268 34.0315C98.0287 34.408 97.4415 34.0315 97.5168 33.1431C97.5853 32.6691 97.7658 32.2183 98.0434 31.8281C98.321 31.4379 98.6877 31.1195 99.1129 30.8994C99.9261 30.5229 100.513 30.9295 100.423 31.8029Z" fill="#636363"></path><path d="M112.244 41.5154L111.656 43.3826L98.8569 33.5647C98.757 33.4905 98.6741 33.3958 98.6138 33.2869C98.5535 33.1781 98.5171 33.0576 98.5071 32.9335C98.4971 32.8095 98.5138 32.6847 98.5559 32.5677C98.5981 32.4506 98.6648 32.3438 98.7515 32.2546C99.2936 31.6523 99.7755 31.9384 99.7755 31.9384L112.244 41.5154Z" fill="#B2B1AD"></path><path d="M115.737 36.8172L109.081 40.5517L112.319 43.5633L118.568 40.0096L118.824 38.8049C118.811 38.4732 118.716 38.1498 118.548 37.8635C118.38 37.5771 118.144 37.3367 117.86 37.1636C117.551 36.9597 117.202 36.8235 116.836 36.7639C116.47 36.7042 116.096 36.7224 115.737 36.8172Z" fill="#FAB03E"></path><path d="M107.335 53.0048V52.5531C106.965 51.5634 106.821 50.5036 106.913 49.4511C107.154 46.1684 109.292 43.4278 111.687 43.4278C111.897 43.4056 112.109 43.4056 112.319 43.4278L112.5 42.8255C112.605 42.4646 112.604 42.0809 112.498 41.7204C112.391 41.3599 112.182 41.0378 111.897 40.7926C111.523 40.4565 111.052 40.2477 110.551 40.1963C110.05 40.1449 109.546 40.2535 109.112 40.5065C107.656 41.5144 106.454 42.8473 105.602 44.3997C104.75 45.9522 104.271 47.6815 104.203 49.4511C104.041 51.3431 104.346 53.2458 105.091 54.9925C105.371 55.0172 105.652 54.9847 105.919 54.8968C106.185 54.809 106.431 54.6678 106.641 54.4817C106.851 54.2957 107.021 54.0687 107.14 53.8148C107.259 53.5608 107.326 53.2852 107.335 53.0048Z" fill="#C24800"></path><path d="M115.948 101.974C115.948 102.501 113.614 109.925 113.614 109.925C113.614 109.925 111.295 102.576 111.295 101.974C111.945 102.525 112.769 102.827 113.621 102.827C114.474 102.827 115.298 102.525 115.948 101.974Z" fill="#878787"></path><path d="M36.3806 110L39.1211 108.539L42.449 105.693L36.3806 109.081V110Z" fill="#373C3F"></path><path d="M36.3806 109.081L42.449 105.693L41.7262 105.287L35.5674 108.871L36.3806 109.081Z" fill="#505453"></path><path d="M35.5674 109.789L36.3806 110V109.081L35.5674 108.871V109.789Z" fill="#1C2225"></path><path d="M33.9863 108.886L40.1602 105.287V104.368L33.9863 107.952V108.886Z" fill="#373C3F"></path><path d="M33.9863 107.952L40.1602 104.368L39.4374 103.962L33.2635 107.546L33.9863 107.952Z" fill="#505453"></path><path d="M33.2635 108.464L33.9863 108.886V107.952L33.2635 107.546V108.464Z" fill="#1C2225"></path><path d="M31.6975 107.545L37.8713 103.962V103.043L31.6975 106.627V107.545Z" fill="#373C3F"></path><path d="M31.6975 106.627L37.8713 103.043L37.1485 102.637L30.9747 106.22L31.6975 106.627Z" fill="#505453"></path><path d="M30.9747 107.139L31.6975 107.546V106.627L30.9747 106.22V107.139Z" fill="#1C2225"></path><path d="M29.4086 106.235L35.5825 102.637V101.718L29.4086 105.302V106.235Z" fill="#373C3F"></path><path d="M29.4086 105.302L35.5825 101.718L34.8597 101.311L28.6858 104.895L29.4086 105.302Z" fill="#505453"></path><path d="M28.6858 105.814L29.4086 106.235V105.302L28.6858 104.895V105.814Z" fill="#1C2225"></path><path d="M27.1198 104.91L33.2936 101.311V100.393L27.1198 103.977V104.91Z" fill="#373C3F"></path><path d="M27.1198 103.977L33.2936 100.393L32.5708 99.9863L26.397 103.57L27.1198 103.977Z" fill="#505453"></path><path d="M26.397 104.489L27.1198 104.91V103.977L26.397 103.57V104.489Z" fill="#1C2225"></path><path d="M24.8309 103.57L31.0048 99.9863V99.0677L24.8309 102.652V103.57Z" fill="#373C3F"></path><path d="M24.8309 102.652L31.0048 99.0677L30.282 98.6611L24.1081 102.245L24.8309 102.652Z" fill="#505453"></path><path d="M24.1081 103.164L24.8309 103.57V102.652L24.1081 102.245V103.164Z" fill="#1C2225"></path><path d="M22.5421 102.26L28.716 98.6612V97.7427L22.5421 101.327V102.26Z" fill="#373C3F"></path><path d="M22.5421 101.326L28.716 97.7426L27.9932 97.3361L21.8193 100.92L22.5421 101.326Z" fill="#505453"></path><path d="M21.8193 101.838L22.5421 102.26V101.326L21.8193 100.92V101.838Z" fill="#1C2225"></path><path d="M20.2533 100.935L26.412 97.336V96.4175L20.2533 100.001V100.935Z" fill="#373C3F"></path><path d="M20.2532 100.001L26.412 96.4176L25.7043 96.011L19.5305 99.5948L20.2532 100.001Z" fill="#505453"></path><path d="M19.5305 100.513L20.2532 100.935V100.001L19.5305 99.5948V100.513Z" fill="#1C2225"></path><path d="M17.9493 99.5948L24.1232 96.011V95.0924L17.9493 98.6762V99.5948Z" fill="#373C3F"></path><path d="M17.9493 98.6762L24.1232 95.0924L23.4004 94.6858L17.2416 98.2696L17.9493 98.6762Z" fill="#505453"></path><path d="M17.2416 99.1882L17.9493 99.5948V98.6762L17.2416 98.2697V99.1882Z" fill="#1C2225"></path><path d="M15.6605 98.2848L21.8344 94.6859V93.7673L15.6605 97.3512V98.2848Z" fill="#373C3F"></path><path d="M15.6605 97.3511L21.8344 93.7673L21.1116 93.3607L14.9528 96.9446L15.6605 97.3511Z" fill="#505453"></path><path d="M14.9528 97.8631L15.6605 98.2848V97.3512L14.9528 96.9446V97.8631Z" fill="#1C2225"></path><path d="M13.3717 96.9596L19.5455 93.3607V92.4421L13.3717 96.026V96.9596Z" fill="#373C3F"></path><path d="M13.3717 96.0261L19.5455 92.4422L18.8227 92.0356L12.6489 95.6195L13.3717 96.0261Z" fill="#505453"></path><path d="M12.6489 96.5379L13.3717 96.9596V96.026L12.6489 95.6194V96.5379Z" fill="#1C2225"></path><path d="M11.0828 95.6345L17.2567 92.0356V91.1171L11.0828 94.7009V95.6345Z" fill="#373C3F"></path><path d="M11.0828 94.7009L17.2567 91.117L16.5339 90.7104L10.36 94.2943L11.0828 94.7009Z" fill="#505453"></path><path d="M10.36 95.2129L11.0828 95.6345V94.7009L10.36 94.2943V95.2129Z" fill="#1C2225"></path><path d="M8.79398 94.3094L14.9678 90.7105V89.792L8.79398 93.3758V94.3094Z" fill="#373C3F"></path><path d="M8.79397 93.3758L14.9678 89.7919L14.245 89.3854L8.07118 92.9692L8.79397 93.3758Z" fill="#505453"></path><path d="M8.07118 93.8878L8.79397 94.3094V93.3758L8.07118 92.9692V93.8878Z" fill="#1C2225"></path><path d="M6.50513 92.9843L12.679 89.3853V88.4668L6.50513 92.0506V92.9843Z" fill="#373C3F"></path><path d="M6.50513 92.0506L12.679 88.4668L11.9562 88.0602L5.78233 91.644L6.50513 92.0506Z" fill="#505453"></path><path d="M5.78233 92.5626L6.50513 92.9842V92.0506L5.78233 91.644V92.5626Z" fill="#1C2225"></path><path d="M43.0212 104.127C43.0238 102.664 42.6393 101.226 41.9067 99.9594C41.1742 98.6926 40.1196 97.6422 38.8501 96.9145L8.73374 79.447C8.20976 79.143 7.61217 78.9892 7.00653 79.0025C6.4009 79.0158 5.81062 79.1956 5.30047 79.5223L2.00273 81.5401L39.2567 108.163L40.9281 107.199C41.2244 107.083 41.5031 106.926 41.7563 106.732C42.1515 106.423 42.4708 106.028 42.69 105.576C42.9092 105.125 43.0225 104.629 43.0212 104.127Z" fill="#3B3F40"></path><path d="M4.05064 91.4182L10.2245 87.8344L10.4353 87.1116L4.26146 90.6954L4.05064 91.4182Z" fill="#373C3F"></path><path d="M4.26146 90.6954L10.4353 87.1115L9.72758 86.705L3.67419 90.1834L4.26146 90.6954Z" fill="#505453"></path><path d="M3.44832 90.9063L4.05065 91.4182L4.26146 90.6955L3.67419 90.1835L3.44832 90.9063Z" fill="#1C2225"></path><path d="M2.13826 89.6263L8.29706 86.0425V85.1089L2.55989 88.8132L2.13826 89.6263Z" fill="#373C3F"></path><path d="M2.55989 88.8132L8.29706 85.1088L7.58932 84.7023L1.95757 88.0452L2.55989 88.8132Z" fill="#505453"></path><path d="M1.53593 88.8432L2.13826 89.6263L2.55989 88.8131L1.95756 88.0452L1.53593 88.8432Z" fill="#1C2225"></path><path d="M1.18959 86.3738L7.34839 82.7899V81.8563L1.18959 85.4402V86.3738Z" fill="#373C3F"></path><path d="M1.1896 85.4401L6.58043 82.308L6.30938 82.1273L0.135529 85.7112L1.1896 85.4401Z" fill="#505453"></path><path d="M0.346343 86.5393L1.32512 86.3436L1.1896 85.4401L0.135529 85.7111L0.346343 86.5393Z" fill="#1C2225"></path><path d="M0.948669 84.3108L6.89665 80.6366L3.56879 81.6455L0.948669 83.3922V84.3108Z" fill="#373C3F"></path><path d="M0.948665 83.3923L3.56879 81.6455L2.846 81.2239L0 82.8953L0.948665 83.3923Z" fill="#505453"></path><path d="M0 83.8138L0.948665 84.3107V83.3922L0 82.8953V83.8138Z" fill="#1C2225"></path><path d="M1.74675 81.9466L4.57769 80.2752L5.18002 79.6729L2.33402 81.3443L1.74675 81.9466Z" fill="#373C3F"></path><path d="M2.33401 81.3443L5.18001 79.6728L4.66803 79.1307L1.82204 80.8022L2.33401 81.3443Z" fill="#505453"></path><path d="M1.23477 81.4046L1.74675 81.9467L2.33402 81.3443L1.82204 80.8022L1.23477 81.4046Z" fill="#1C2225"></path><path d="M4.11089 80.6817L6.95688 79.0253V78.0917L4.11089 79.7631V80.6817Z" fill="#373C3F"></path><path d="M4.11088 79.7631L6.95687 78.0917L6.17385 78.2573L3.34291 79.9137L4.11088 79.7631Z" fill="#505453"></path><path d="M3.34291 80.8323L4.11088 80.6817V79.7632L3.34291 79.9138V80.8323Z" fill="#1C2225"></path><path d="M36.1396 98.601L6.02327 81.1335C5.51622 80.8031 4.92835 80.618 4.32348 80.5981C3.71862 80.5782 3.11987 80.7244 2.59224 81.0209C2.0646 81.3173 1.62824 81.7525 1.33053 82.2794C1.03282 82.8063 0.885126 83.4047 0.903488 84.0096C0.900947 85.4729 1.28545 86.9109 2.01799 88.1776C2.75053 89.4444 3.80505 90.4948 5.0746 91.2225L35.2662 108.69C35.7704 108.981 36.3423 109.134 36.9244 109.134C37.5066 109.134 38.0783 108.98 38.5821 108.688C39.086 108.397 39.5041 107.977 39.7943 107.473C40.0845 106.968 40.2367 106.396 40.2354 105.814C40.2396 104.359 39.8639 102.928 39.1455 101.663C38.4272 100.398 37.3911 99.3428 36.1396 98.601Z" fill="#1C2225"></path><path d="M36.9076 107.545C36.6476 107.54 36.3934 107.467 36.1697 107.335L6.02327 89.8672C5.03566 89.2952 4.21548 88.4741 3.6447 87.4858C3.07392 86.4975 2.77255 85.3767 2.77071 84.2354C2.77071 83.8361 2.92935 83.4531 3.21175 83.1707C3.49415 82.8883 3.87716 82.7296 4.27652 82.7296C4.53655 82.735 4.79076 82.8076 5.01437 82.9404L35.1458 100.393C36.1364 100.967 36.9593 101.79 37.5326 102.781C38.106 103.771 38.4096 104.895 38.4134 106.04C38.4126 106.239 38.3722 106.436 38.2947 106.62C38.2171 106.803 38.1039 106.969 37.9617 107.109C37.6812 107.387 37.3026 107.544 36.9076 107.545Z" fill="black"></path><path d="M10.2396 88.8433C9.40449 88.3552 8.68699 87.6894 8.13791 86.8931C7.58883 86.0968 7.22162 85.1895 7.06229 84.2355L4.95415 83.0157C4.73053 82.8829 4.47633 82.8103 4.2163 82.8049C3.81693 82.8049 3.43392 82.9636 3.15152 83.246C2.86913 83.5284 2.71048 83.9114 2.71048 84.3107C2.73152 85.4451 3.04818 86.5543 3.62918 87.5288C4.21017 88.5033 5.03539 89.3093 6.02328 89.8672L36.1396 107.335C36.3633 107.468 36.6175 107.54 36.8775 107.546C37.2725 107.544 37.6511 107.387 37.9316 107.109C38.0738 106.969 38.187 106.803 38.2646 106.62C38.3421 106.436 38.3825 106.239 38.3833 106.04C38.3833 105.691 38.3531 105.344 38.293 105.001L10.2396 88.8433Z" fill="url(#paint1_linear_5678_18383)"></path><path d="M37.6454 105.949C37.5518 105.975 37.453 105.975 37.3593 105.949L7.24298 88.4818C6.36662 87.9938 5.63739 87.2794 5.13146 86.4132C4.62554 85.547 4.36148 84.5609 4.36687 83.5578C4.37069 83.4033 4.43379 83.2561 4.54311 83.1468C4.65242 83.0375 4.79959 82.9744 4.95414 82.9705C5.04819 82.9481 5.14619 82.9481 5.24025 82.9705L35.4319 100.438C36.301 100.94 37.0195 101.665 37.5122 102.539C38.0049 103.414 38.2537 104.404 38.2327 105.407C38.2362 105.485 38.2232 105.563 38.1947 105.636C38.1661 105.708 38.1227 105.774 38.0671 105.829C37.946 105.919 37.796 105.962 37.6454 105.949Z" fill="#A85D00"></path><path d="M33.9863 99.9563L33.5195 100.227L8.43259 85.8016L8.89939 85.5305L33.9863 99.9563Z" fill="#E58919"></path><path d="M33.5195 100.227V102.531L8.43259 88.1054V85.8015L33.5195 100.227Z" fill="#CC7A16"></path><path d="M33.9863 99.9562L33.5195 100.227V102.531L33.9863 102.26V99.9562Z" fill="#AB6613"></path><path d="M36.2751 98.7365L39.1211 97.065V96.1465L36.2751 97.8029V98.7365Z" fill="#373C3F"></path><path d="M36.2751 97.8028L39.1211 96.1464L38.3983 95.7399L35.5674 97.3963L36.2751 97.8028Z" fill="#505453"></path><path d="M35.5674 98.3751L36.2751 98.7817V97.8029L35.5674 97.3964V98.3751Z" fill="#1C2225"></path><path d="M33.9863 97.4114L36.8323 95.74V94.8214L33.9863 96.4778V97.4114Z" fill="#373C3F"></path><path d="M33.9863 96.4778L36.8323 94.8214L36.1095 94.4148L33.2635 96.0712L33.9863 96.4778Z" fill="#505453"></path><path d="M33.2635 97.0499L33.9863 97.4565V96.4777L33.2635 96.0712V97.0499Z" fill="#1C2225"></path><path d="M31.6975 96.0862L34.5435 94.4148V93.4962L31.6975 95.1526V96.0862Z" fill="#373C3F"></path><path d="M31.6975 95.1526L34.5435 93.4962L33.8207 93.0746L30.9747 94.746L31.6975 95.1526Z" fill="#505453"></path><path d="M30.9747 95.7249L31.6975 96.1314V95.1527L30.9747 94.7461V95.7249Z" fill="#1C2225"></path><path d="M29.4086 94.7612L32.2546 93.0897V92.1711L29.4086 93.8275V94.7612Z" fill="#373C3F"></path><path d="M29.4086 93.8275L32.2546 92.1711L31.5318 91.7645L28.6858 93.4209L29.4086 93.8275Z" fill="#505453"></path><path d="M28.6858 94.3997L29.4086 94.8062V93.8275L28.6858 93.4209V94.3997Z" fill="#1C2225"></path><path d="M27.1198 93.436L29.9658 91.7645V90.8459L27.1198 92.5023V93.436Z" fill="#373C3F"></path><path d="M27.1198 92.5024L29.9658 90.846L29.243 90.4395L26.397 92.0959L27.1198 92.5024Z" fill="#505453"></path><path d="M26.397 93.0746L27.1198 93.4812V92.5024L26.397 92.0958V93.0746Z" fill="#1C2225"></path><path d="M24.8309 92.1109L27.6769 90.4394V89.5209L24.8309 91.1773V92.1109Z" fill="#373C3F"></path><path d="M24.8309 91.1772L27.6769 89.5208L26.9541 89.1143L24.1081 90.7707L24.8309 91.1772Z" fill="#505453"></path><path d="M24.1081 91.7495L24.8309 92.1561V91.1773L24.1081 90.7708V91.7495Z" fill="#1C2225"></path><path d="M22.5421 90.7858L25.373 89.1144V88.1958L22.5421 89.8522V90.7858Z" fill="#373C3F"></path><path d="M22.5421 89.8522L25.373 88.1958L24.6653 87.7892L21.8193 89.4456L22.5421 89.8522Z" fill="#505453"></path><path d="M21.8193 90.4243L22.5421 90.8309V89.8521L21.8193 89.4456V90.4243Z" fill="#1C2225"></path><path d="M20.2533 89.4606L23.0842 87.7892V86.8706L20.2533 88.527V89.4606Z" fill="#373C3F"></path><path d="M20.2532 88.5271L23.0842 86.8707L22.3765 86.4641L19.5305 88.1205L20.2532 88.5271Z" fill="#505453"></path><path d="M19.5305 89.0993L20.2532 89.5058V88.5271L19.5305 88.1205V89.0993Z" fill="#1C2225"></path><path d="M17.9493 88.1355L20.7953 86.4641V85.5455L17.9493 87.2019V88.1355Z" fill="#373C3F"></path><path d="M17.9493 87.2019L20.7953 85.5455L20.0876 85.1389L17.2416 86.7953L17.9493 87.2019Z" fill="#505453"></path><path d="M17.2416 87.7742L17.9493 88.1808V87.202L17.2416 86.7954V87.7742Z" fill="#1C2225"></path><path d="M15.6605 86.8105L18.5065 85.139V84.2205L15.6605 85.8769V86.8105Z" fill="#373C3F"></path><path d="M15.6605 85.8768L18.5065 84.2204L17.7837 83.8138L14.9528 85.4702L15.6605 85.8768Z" fill="#505453"></path><path d="M14.9528 86.449L15.6605 86.8556V85.8768L14.9528 85.4702V86.449Z" fill="#1C2225"></path><path d="M13.3717 85.4853L16.2177 83.8138V82.8953L13.3717 84.5517V85.4853Z" fill="#373C3F"></path><path d="M13.3717 84.5517L16.2177 82.8953L15.4949 82.4888L12.6489 84.1452L13.3717 84.5517Z" fill="#505453"></path><path d="M12.6489 85.1239L13.3717 85.5305V84.5517L12.6489 84.1451V85.1239Z" fill="#1C2225"></path><path d="M11.0828 84.1602L13.9288 82.4887V81.5702L11.0828 83.2266V84.1602Z" fill="#373C3F"></path><path d="M11.0828 83.2265L13.9288 81.5701L13.206 81.1636L10.36 82.82L11.0828 83.2265Z" fill="#505453"></path><path d="M10.36 83.7987L11.0828 84.2053V83.2265L10.36 82.8199V83.7987Z" fill="#1C2225"></path><path d="M8.79398 82.835L11.64 81.1635V80.245L8.79398 81.9014V82.835Z" fill="#373C3F"></path><path d="M8.79397 81.9015L11.64 80.2451L10.9172 79.8385L8.07118 81.4949L8.79397 81.9015Z" fill="#505453"></path><path d="M8.07118 82.4737L8.79397 82.8802V81.9014L8.07118 81.4949V82.4737Z" fill="#1C2225"></path><path d="M6.50513 81.5099L9.35112 79.8385V78.9199L6.50513 80.5763V81.5099Z" fill="#373C3F"></path><path d="M6.50513 80.5763L9.35112 78.9199L8.62833 78.5133L5.78233 80.1697L6.50513 80.5763Z" fill="#505453"></path><path d="M5.78233 81.1486L6.50513 81.5551V80.5764L5.78233 80.1698V81.1486Z" fill="#1C2225"></path><path d="M39.2868 101.974L42.1328 100.318L42.705 100.393L39.859 102.064L39.2868 101.974Z" fill="#373C3F"></path><path d="M40.0548 102.682L42.9007 101.01L42.705 100.393L39.859 102.064L40.0548 102.682Z" fill="#505453"></path><path d="M39.2868 101.974L39.5578 102.591L40.0548 102.682L39.859 102.064L39.2868 101.974Z" fill="#1C2225"></path><path d="M38.2177 100.438L41.0636 98.7816L41.425 98.2245L38.5791 99.8959L38.2177 100.438Z" fill="#373C3F"></path><path d="M38.5791 99.8959L41.425 98.2245L40.7775 97.5469L37.9466 99.2183L38.5791 99.8959Z" fill="#505453"></path><path d="M37.5702 99.7605L38.2177 100.438L38.5791 99.896L37.9466 99.2184L37.5702 99.7605Z" fill="#1C2225"></path><path d="M40.0397 103.977L42.8857 102.305L43.5181 102.516L40.6721 104.173L40.0397 103.977Z" fill="#373C3F"></path><path d="M40.7625 104.91L43.5934 103.239L43.5181 102.516L40.6721 104.173L40.7625 104.91Z" fill="#505453"></path><path d="M40.0397 103.977L40.1602 104.669L40.7625 104.91L40.6721 104.173L40.0397 103.977Z" fill="#1C2225"></path><path d="M38.1725 108.871L41.3648 107.109L42.2984 107.771L39.1061 109.639L38.1725 108.871Z" fill="#373C3F"></path><path d="M38.1725 108.871L37.3744 109.096L38.3682 109.955L39.1061 109.639L38.1725 108.871Z" fill="#1C2225"></path><path d="M40.0849 106.672L42.9158 105.016L43.5482 105.227L40.7173 106.883L40.0849 106.672Z" fill="#373C3F"></path><path d="M40.3107 107.862L43.1567 106.205L43.5483 105.227L40.7173 106.883L40.3107 107.862Z" fill="#505453"></path><path d="M40.0849 106.672L39.7084 107.636L40.3107 107.862L40.7173 106.883L40.0849 106.672Z" fill="#1C2225"></path><path d="M4.93909 84.5065C4.9722 85.0151 5.12606 85.5086 5.38794 85.9459C5.64981 86.3832 6.01214 86.7518 6.44491 87.0212C7.25805 87.488 7.95072 87.1115 7.95072 86.193C7.91641 85.6846 7.76204 85.1916 7.50028 84.7545C7.23852 84.3174 6.87683 83.9485 6.44491 83.6783C5.58659 83.2115 4.93909 83.5879 4.93909 84.5065Z" fill="#E0B350"></path><path d="M5.16496 84.6421C5.19139 85.0656 5.31689 85.477 5.53135 85.8431C5.74582 86.2093 6.04326 86.52 6.39973 86.7502C7.09241 87.1417 7.6345 86.8406 7.6345 86.0575C7.61168 85.6331 7.48769 85.2204 7.2729 84.8536C7.0581 84.4869 6.75872 84.1769 6.39973 83.9494C5.72212 83.5579 5.16496 83.859 5.16496 84.6421Z" fill="#A85D00"></path><path d="M5.51129 84.8227C5.53975 85.1253 5.63569 85.4176 5.79205 85.6782C5.94841 85.9388 6.16121 86.161 6.41478 86.3285C6.92676 86.6146 7.33333 86.3285 7.33333 85.8166C7.30532 85.5121 7.20798 85.2181 7.04876 84.9571C6.88954 84.6961 6.67267 84.475 6.41478 84.3107C5.91786 84.0246 5.51129 84.3258 5.51129 84.8227Z" fill="#CD8B19"></path><path d="M6.1588 84.2205C6.24832 84.237 6.33469 84.2675 6.41479 84.3108C6.67268 84.475 6.88955 84.6961 7.04876 84.9571C7.20798 85.2182 7.30533 85.5122 7.33334 85.8166C7.33031 85.9471 7.29951 86.0754 7.24299 86.1931L6.41479 86.0274C6.15966 85.7344 5.96974 85.3905 5.85764 85.0185L6.1588 84.2205Z" fill="#B86A0B"></path><path d="M6.14374 85.7262C6.14374 85.6208 6.03834 85.5003 5.9781 85.3648C6.32763 85.233 6.65319 85.0447 6.94183 84.8076C7.09402 85.0161 7.20634 85.2509 7.27311 85.5003C6.88678 85.5129 6.50519 85.5892 6.14374 85.7262Z" fill="#DE9B16"></path><path d="M5.51129 85.2443C5.52198 85.4663 5.58651 85.6824 5.69931 85.8739C5.81212 86.0654 5.96981 86.2266 6.15879 86.3436C6.50513 86.5544 6.80629 86.3435 6.80629 85.9822C6.79194 85.761 6.72587 85.5464 6.61341 85.3554C6.50095 85.1645 6.34523 85.0027 6.15879 84.8829C5.7974 84.6721 5.51129 84.8377 5.51129 85.2443Z" fill="#B86A0B"></path><path d="M5.70705 85.4853C5.71088 85.6064 5.74448 85.7247 5.80488 85.8298C5.86529 85.9348 5.95063 86.0234 6.05338 86.0876C6.24914 86.193 6.39972 86.0876 6.39972 85.8919C6.3934 85.7713 6.35874 85.6539 6.29857 85.5493C6.23839 85.4446 6.15439 85.3556 6.05338 85.2895C5.85763 85.1841 5.70705 85.2745 5.70705 85.4853Z" fill="#E0981B"></path><path d="M34.0917 101.477C34.1236 101.986 34.277 102.48 34.539 102.917C34.8009 103.355 35.1639 103.723 35.5975 103.992C36.3956 104.459 37.1034 104.097 37.1034 103.179C37.069 102.67 36.9147 102.177 36.6529 101.74C36.3912 101.303 36.0295 100.934 35.5975 100.664C34.7543 100.197 34.0917 100.559 34.0917 101.477Z" fill="#E0B350"></path><path d="M34.3326 101.613C34.3543 102.039 34.4777 102.455 34.6925 102.824C34.9073 103.193 35.2073 103.506 35.5674 103.736C36.245 104.127 36.8022 103.736 36.8022 103.043C36.7828 102.612 36.6606 102.191 36.4458 101.817C36.231 101.442 35.9299 101.124 35.5674 100.89C34.8747 100.528 34.3326 100.89 34.3326 101.613Z" fill="#A85D00"></path><path d="M34.6338 101.808C34.659 102.112 34.7536 102.405 34.9103 102.666C35.0669 102.928 35.2814 103.149 35.5373 103.314C36.0493 103.6 36.4559 103.314 36.4559 102.802C36.4313 102.497 36.3353 102.202 36.1758 101.94C36.0163 101.678 35.7976 101.458 35.5373 101.296C35.0705 101.01 34.6338 101.236 34.6338 101.808Z" fill="#CD8B19"></path><path d="M35.3265 101.191L35.5674 101.296C35.8277 101.458 36.0464 101.678 36.2059 101.94C36.3654 102.201 36.4614 102.497 36.486 102.802C36.4897 102.938 36.4586 103.073 36.3956 103.194L35.5674 103.013C35.3083 102.725 35.1223 102.379 35.0253 102.004L35.3265 101.191Z" fill="#B86A0B"></path><path d="M35.2964 102.712C35.2371 102.59 35.1868 102.464 35.1458 102.335C35.4935 102.209 35.8151 102.021 36.0944 101.778C36.2441 101.994 36.3561 102.233 36.4257 102.486C36.0387 102.492 35.6561 102.569 35.2964 102.712Z" fill="#DE9B16"></path><path d="M34.6338 102.215C34.6526 102.437 34.7204 102.652 34.8323 102.845C34.9443 103.038 35.0977 103.203 35.2813 103.329C35.6427 103.525 35.9288 103.329 35.9288 102.968C35.9101 102.746 35.8423 102.531 35.7303 102.338C35.6183 102.145 35.465 101.98 35.2813 101.854C34.95 101.658 34.6338 101.808 34.6338 102.215Z" fill="#B86A0B"></path><path d="M34.8597 102.471C34.8694 102.589 34.9056 102.703 34.9656 102.804C35.0256 102.906 35.1077 102.993 35.206 103.058C35.4018 103.179 35.5674 103.058 35.5674 102.862C35.5583 102.743 35.5208 102.627 35.4579 102.525C35.395 102.423 35.3087 102.337 35.206 102.275C35.0253 102.155 34.8597 102.245 34.8597 102.471Z" fill="#E0981B"></path><g style="mix-blend-mode:multiply"><path d="M4.95415 84.3258C5.05655 84.3257 5.15647 84.3573 5.24025 84.4161L35.4319 101.854C36.1314 102.261 36.7345 102.816 37.1997 103.479C37.665 104.141 37.9814 104.897 38.1273 105.693C38.1989 105.598 38.2361 105.481 38.2327 105.362C38.2323 104.379 37.9733 103.414 37.4816 102.563C36.99 101.712 36.2831 101.005 35.4319 100.513L5.31554 83.0459C5.22149 83.0235 5.12349 83.0235 5.02944 83.0459C4.87489 83.0497 4.72772 83.1128 4.6184 83.2221C4.50909 83.3314 4.44599 83.4786 4.44217 83.6331C4.44664 83.9719 4.48192 84.3096 4.54758 84.642C4.5908 84.5648 4.64905 84.4971 4.71888 84.4428C4.7887 84.3885 4.8687 84.3487 4.95415 84.3258Z" fill="#8C7900"></path></g><path d="M108.871 53.6372C107.561 51.3634 105.452 50.1286 104.172 50.8665L104.022 50.9719L102.11 52.0862L106.913 60.308L108.976 59.1033C110.211 58.3655 110.196 55.911 108.871 53.6372Z" fill="#6E6E6E"></path><path d="M106.913 60.308C105.633 61.0459 103.525 59.8111 102.2 57.5373C100.875 55.2635 100.875 52.8091 102.2 52.0712C103.525 51.3334 105.588 52.5681 106.913 54.8419C108.238 57.1157 108.148 59.5702 106.913 60.308Z" fill="#3D3D3D"></path><path d="M103.901 54.6311C104.383 54.4353 105.046 54.9774 105.407 55.8357C105.769 56.694 105.633 57.5373 105.151 57.733C104.669 57.9288 104.007 57.3867 103.645 56.5434C103.284 55.7002 103.389 54.8268 103.901 54.6311Z" fill="#5A5A5A"></path><path d="M103.901 54.631C103.991 54.6162 104.083 54.6162 104.172 54.631C103.98 54.8918 103.868 55.2029 103.849 55.5264C103.83 55.8499 103.906 56.1718 104.067 56.4531C104.151 56.7418 104.305 57.0054 104.515 57.2207C104.726 57.4359 104.985 57.5964 105.272 57.6879C105.234 57.7249 105.187 57.751 105.136 57.7631C104.654 57.9589 103.992 57.4168 103.63 56.5735C103.269 55.7303 103.389 54.8268 103.901 54.631Z" fill="#4C4C4C"></path><path d="M110.527 40.8829C110.858 40.7474 111.31 41.1088 111.551 41.6961C111.792 42.2834 111.702 42.8706 111.37 43.0061C111.039 43.1417 110.587 42.7652 110.346 42.1779C110.105 41.5907 110.196 41.0034 110.527 40.8829Z" fill="#5A5A5A"></path><path d="M110.527 40.8829C110.591 40.867 110.659 40.867 110.723 40.8829C110.588 41.0599 110.507 41.2724 110.491 41.4944C110.475 41.7164 110.524 41.9382 110.632 42.1328C110.694 42.3312 110.803 42.5117 110.95 42.6586C111.097 42.8055 111.277 42.9145 111.476 42.976H111.37C111.039 43.0965 110.587 42.7351 110.346 42.1478C110.105 41.5605 110.196 41.0034 110.527 40.8829Z" fill="#4C4C4C"></path><path d="M108.133 41.6961C108.464 41.5606 108.916 41.937 109.157 42.5243C109.398 43.1116 109.307 43.6838 108.976 43.8193C108.645 43.9548 108.193 43.5784 107.952 42.9911C107.711 42.4038 107.801 41.8316 108.133 41.6961Z" fill="#5A5A5A"></path><path d="M108.133 41.6962C108.191 41.6742 108.255 41.6742 108.313 41.6962C108.184 41.8731 108.108 42.0836 108.095 42.3025C108.081 42.5214 108.131 42.7395 108.238 42.9309C108.434 43.4128 108.765 43.7441 109.066 43.7742H108.976C108.645 43.9097 108.193 43.5333 107.952 42.946C107.711 42.3587 107.801 41.8317 108.133 41.6962Z" fill="#4C4C4C"></path><path d="M55.2485 48.9693L50.1287 56.8146L49.3005 58.0945L42.6448 68.4244V68.319C42.6331 67.6835 42.5778 67.0496 42.4791 66.4217C42.4038 65.9248 42.2984 65.4278 42.178 64.9159C41.9417 63.9687 41.6295 63.0422 41.2444 62.1452C41.2134 62.0462 41.1731 61.9504 41.1239 61.8591C41.041 61.6477 40.9455 61.4415 40.8378 61.2417L44.1807 56.0617L44.8583 55.0377L46.2888 52.779L50.8063 45.6715L51.6797 46.3491L52.2368 46.7557L52.4025 46.8912L53.4867 47.7044L53.6523 47.8248L54.0438 48.1109L55.1581 48.9391L55.2485 48.9693Z" fill="#4A4644"></path><path d="M54.1191 48.1862L53.4415 49.2553L48.6831 56.7091L42.4791 66.4818C42.4038 65.9849 42.2984 65.488 42.178 64.976C41.9417 64.0289 41.6295 63.1023 41.2444 62.2053L46.8761 53.6222L51.0021 47.3128L51.5743 46.4545H51.7399L52.2971 46.861L52.4627 46.9966L53.5469 47.8097L53.7125 47.9302L54.1191 48.1862Z" fill="#363331"></path><path d="M55.2334 48.9542C55.0775 49.1084 54.8861 49.222 54.6761 49.285C54.4661 49.348 54.2438 49.3585 54.0287 49.3156C53.8294 49.2958 53.6326 49.2554 53.4415 49.1951C52.416 48.8801 51.5457 48.1925 51.002 47.2677C50.9581 47.2076 50.9226 47.1417 50.8966 47.0719C50.7736 46.8618 50.7087 46.6227 50.7087 46.3793C50.7087 46.1358 50.7736 45.8967 50.8966 45.6866C51.0455 45.4975 51.2442 45.3537 51.4703 45.2713C51.6964 45.1888 51.9409 45.171 52.1766 45.2198C52.3877 45.236 52.5955 45.2816 52.794 45.3553C52.9769 45.4058 53.1537 45.4765 53.321 45.5661C53.7331 45.7527 54.114 46.0016 54.4504 46.304C54.616 46.4696 54.7817 46.6503 54.9322 46.831C55.0923 47.0304 55.2287 47.2477 55.3388 47.4785C55.472 47.7065 55.5332 47.9693 55.5143 48.2327C55.4955 48.496 55.3976 48.7475 55.2334 48.9542Z" fill="#595959"></path><path d="M68.1232 25.0117L54.9021 46.831L54.3901 47.6592C54.1908 47.7809 53.9611 47.8435 53.7276 47.8399H53.5168C53.2646 47.7808 53.0283 47.6678 52.8241 47.5086C52.6647 47.3857 52.5316 47.2321 52.4326 47.0569C52.3806 46.983 52.34 46.9018 52.3121 46.8159C52.2586 46.6085 52.2586 46.3909 52.3121 46.1835L52.794 45.4005L66.1506 23.4155L66.5571 23.7468L67.5962 24.6051L68.1232 25.0117Z" fill="#B2B1AD"></path><path d="M67.566 24.5599L54.4203 46.304L53.5619 47.7194C53.3098 47.6603 53.0735 47.5473 52.8693 47.3881C52.7099 47.2652 52.5768 47.1116 52.4778 46.9364V46.831L53.2909 45.4908L66.527 23.6263L67.566 24.5599Z" fill="#807F7C"></path><path d="M52.9596 12.6941L51.9055 12.2875C51.9055 12.167 53.0048 9.53184 58.5161 5.64683C62.3559 2.93636 64.3888 5.64683 66.1656 8.17661C66.8924 9.35465 67.8442 10.378 68.9665 11.1882L68.3942 12.167C67.1366 11.2815 66.067 10.1556 65.2471 8.85423C63.3046 6.15881 61.9644 4.60782 59.2238 6.58044C53.9986 10.2245 52.9596 12.6639 52.9596 12.6941Z" fill="black"></path><path d="M52.1766 12.438L51.0773 12.2423C51.0773 12.0616 51.8604 7.93561 57.4319 4.00543C59.4346 2.58996 61.0157 2.1081 62.4011 2.49961C64.7502 3.13205 66.256 6.14369 68.2135 10.6762L67.1745 11.143C65.3525 7.03212 63.922 4.08072 62.0999 3.61392C61.076 3.32781 59.796 3.74944 58.0794 4.96915C52.9295 8.56806 52.1916 12.3928 52.1766 12.438Z" fill="black"></path><path d="M60.2327 10.7064C58.5161 7.83025 55.8659 6.24914 54.2095 7.19781C54.1391 7.22901 54.0732 7.26952 54.0137 7.31827L51.5893 8.70363L57.6126 19.1389L60.2177 17.6331C61.8741 16.6694 61.8439 13.5524 60.2327 10.7064Z" fill="#6E6E6E"></path><path d="M57.6427 19.139C56.0164 20.0726 53.3511 18.5066 51.6194 15.6154C49.8877 12.7242 49.9329 9.59212 51.6194 8.70369C53.306 7.81526 55.911 9.33613 57.6427 12.2273C59.3744 15.1185 59.269 18.1903 57.6427 19.139Z" fill="#3D3D3D"></path><path d="M35.8987 54.2848L34.7693 54.1041C35.4119 50.78 36.422 47.5376 37.781 44.4367C39.8719 40.0572 42.4697 35.9382 45.5209 32.1643C45.5209 32.1643 45.9124 31.2608 47.3429 26.0206C49.9932 16.3833 56.1068 13.974 56.3778 13.8837L56.7693 14.9377C56.7693 14.9377 50.9117 17.2718 48.4422 26.3217C47.931 28.5352 47.2617 30.7091 46.4394 32.8269C43.4354 36.5323 40.8733 40.5751 38.8049 44.8734C37.486 47.8915 36.5112 51.0485 35.8987 54.2848Z" fill="black"></path><path d="M37.0732 55.1732L35.9589 54.9925C36.5958 51.6719 37.6061 48.4339 38.9706 45.3402C41.0335 40.8373 43.3564 36.458 45.9274 32.2245L46.1533 31.8481L46.4244 31.9384C46.6502 31.7728 47.4483 30.9145 48.5325 26.9241C51.1978 17.3019 56.9651 14.5764 57.2211 14.4709L57.6879 15.4949C57.6879 15.4949 52.0862 18.1602 49.6016 27.2252C48.6831 30.5531 47.7645 32.4805 46.8761 32.9624L46.7255 33.0377C44.226 37.1517 41.9734 41.4106 39.9795 45.792C38.6654 48.8014 37.6907 51.9479 37.0732 55.1732Z" fill="black"></path><path d="M93.6468 40.3107L74.7488 23.566L72.9569 26.4873L92.5325 42.3737L93.6468 40.3107Z" fill="#584E59"></path><path d="M39.8138 59.3594L24.7556 68.1082L21.9096 66.7228C20.8859 66.2335 19.7753 65.952 18.642 65.8946C17.1381 65.6357 15.5917 65.9471 14.3053 66.768L12.6639 67.9727C11.9125 69.4041 11.5588 71.011 11.64 72.6256L11.4442 77.0226L20.9008 82.4737C20.9008 82.4737 22.783 85.154 27.8426 82.2779L42.1629 74.1917C43.1444 71.9528 43.585 69.5143 43.449 67.0735C43.3129 64.6328 42.6041 62.2583 41.3799 60.1424C41.1841 59.8262 40.0096 59.6756 39.8138 59.3594Z" fill="#858B8C"></path><path d="M41.3498 60.1423L24.7858 69.8097L20.1478 67.3401C19.1379 66.8352 18.0244 66.5723 16.8953 66.5723C15.7662 66.5723 14.6526 66.8352 13.6427 67.3401C12.556 67.8943 11.6361 68.7273 10.9772 69.754C10.3184 70.7806 9.94427 71.9639 9.89322 73.1827L9.69746 77.5797L20.9459 84.115C20.9459 84.115 22.8282 86.7803 27.8877 83.9192C32.9473 81.0581 44.0602 74.6735 44.0602 74.6735C44.0602 74.6735 46.2437 68.2286 41.3498 60.1423Z" fill="#555A5C"></path><path d="M13.6879 67.4004C12.6012 67.9546 11.6813 68.7876 11.0224 69.8143C10.3636 70.8409 9.98945 72.0242 9.9384 73.243L9.74265 77.64L20.0876 83.9193C20.8155 84.5302 21.6817 84.9538 22.6108 85.1533C23.5399 85.3528 24.5037 85.322 25.4182 85.0637C27.7522 80.6968 24.846 69.8097 24.846 69.8097L20.2081 67.3402C19.1915 66.8421 18.0728 66.5882 16.9409 66.5987C15.8089 66.6092 14.695 66.8837 13.6879 67.4004Z" fill="#3D4142"></path><path d="M34.1068 72.6407V74.267C34.1066 74.4178 34.066 74.5658 33.9892 74.6956C33.9124 74.8253 33.8022 74.9321 33.6701 75.0048L29.1526 77.7003C29.1001 77.7289 29.0411 77.7434 28.9813 77.7424C28.9215 77.7414 28.8629 77.725 28.8114 77.6946C28.7598 77.6643 28.717 77.6211 28.6871 77.5693C28.6572 77.5176 28.6412 77.4589 28.6407 77.3991V77.2033L32.7365 74.779C32.8686 74.7063 32.9788 74.5995 33.0556 74.4697C33.1324 74.3399 33.173 74.1919 33.1732 74.0411V72.5353L33.5797 72.2793C33.6371 72.2422 33.7041 72.223 33.7724 72.2239C33.8407 72.2248 33.9072 72.246 33.9635 72.2846C34.0199 72.3232 34.0635 72.3776 34.089 72.441C34.1145 72.5044 34.1207 72.5738 34.1068 72.6407Z" fill="#111111"></path><path d="M33.128 72.6106V74.1164C33.1278 74.2672 33.0872 74.4152 33.0104 74.545C32.9336 74.6748 32.8234 74.7816 32.6913 74.8543L28.6105 77.2033V75.7879C28.6122 75.6392 28.6518 75.4933 28.7256 75.3642C28.7993 75.2351 28.9049 75.1269 29.0322 75.05L33.128 72.6106Z" fill="#FFF2D1"></path><path d="M64.0575 54.0137V55.625C64.0569 55.7777 64.0162 55.9276 63.9396 56.0597C63.863 56.1918 63.7531 56.3015 63.6208 56.3779L59.1033 59.0733C59.0504 59.1057 58.9898 59.1232 58.9278 59.1242C58.8658 59.1251 58.8046 59.1093 58.7508 59.0786C58.6969 59.0478 58.6523 59.0031 58.6216 58.9492C58.5909 58.8953 58.5753 58.8341 58.5763 58.7721V58.5764L62.6872 56.152C62.8173 56.0769 62.9258 55.9696 63.0023 55.8404C63.0788 55.7111 63.1207 55.5643 63.1239 55.4142V53.9836L63.5907 53.7126C63.6413 53.6967 63.6947 53.6922 63.7473 53.6993C63.7998 53.7064 63.8501 53.725 63.8947 53.7538C63.9392 53.7825 63.9769 53.8207 64.005 53.8656C64.0332 53.9105 64.0511 53.9611 64.0575 54.0137Z" fill="#111111"></path><path d="M63.0637 53.9835V55.414C63.0605 55.5642 63.0186 55.711 62.9421 55.8402C62.8656 55.9695 62.7571 56.0768 62.627 56.1519L58.5161 58.5763V57.221C58.5146 57.0699 58.5545 56.9213 58.6315 56.7912C58.7085 56.6611 58.8196 56.5546 58.9528 56.4832L63.0637 53.9835Z" fill="#FFF2D1"></path></g><defs><linearGradient id="paint0_linear_5678_18383" x1="47.3881" y1="82.5942" x2="52.0561" y2="74.7338" gradientUnits="userSpaceOnUse"><stop stop-color="#7C7C7C"></stop><stop offset="0.14" stop-color="#575757"></stop><stop offset="0.29" stop-color="#383838"></stop><stop offset="0.45" stop-color="#1F1F1F"></stop><stop offset="0.61" stop-color="#0E0E0E"></stop><stop offset="0.79" stop-color="#030303"></stop><stop offset="1"></stop></linearGradient><linearGradient id="paint1_linear_5678_18383" x1="17.9192" y1="99.6099" x2="22.5873" y2="91.7344" gradientUnits="userSpaceOnUse"><stop stop-color="#7C7C7C"></stop><stop offset="0.14" stop-color="#575757"></stop><stop offset="0.29" stop-color="#383838"></stop><stop offset="0.45" stop-color="#1F1F1F"></stop><stop offset="0.61" stop-color="#0E0E0E"></stop><stop offset="0.79" stop-color="#030303"></stop><stop offset="1"></stop></linearGradient><clipPath id="clip0_5678_18383"><rect width="122.287" height="110" fill="white"></rect></clipPath></defs></svg>