<svg xmlns="http://www.w3.org/2000/svg" width="111" height="60" viewBox="0 0 111 60" fill="none"><g clip-path="url(#clip0_5678_32997)"><path d="M105.933 13.3649H98.1816V5.95573C98.2383 4.44377 97.6966 2.97042 96.6738 1.85541C95.6511 0.740404 94.2299 0.0737059 92.7187 1.09742e-10L77.6832 1.09742e-10C77.2164 0.00219658 76.7694 0.188593 76.4393 0.51865C76.1093 0.848707 75.9229 1.29573 75.9207 1.76249V36.8453H34.1972V23.1547H68.854C69.3016 23.1239 69.7207 22.9244 70.0269 22.5964C70.333 22.2685 70.5033 21.8366 70.5033 21.388C70.5033 20.9394 70.333 20.5075 70.0269 20.1796C69.7207 19.8516 69.3016 19.6521 68.854 19.6213H34.1972V1.76249C34.195 1.29429 34.0074 0.846007 33.6756 0.515713C33.3437 0.185419 32.8945 -5.20878e-06 32.4263 1.09742e-10L16.7059 1.09742e-10C15.3978 0.0522024 14.1636 0.620104 13.273 1.57958C12.3824 2.53906 11.9078 3.81209 11.953 5.12042V13.3649H4.335C3.15182 13.4106 2.03407 13.9198 1.223 14.7824C0.411922 15.6451 -0.0274306 16.792 -0.000234516 17.9758V42.0242C-0.0386217 43.2151 0.39573 44.3728 1.20798 45.2445C2.02023 46.1162 3.14439 46.6312 4.335 46.6769C4.80244 46.6769 5.25074 46.4912 5.58127 46.1607C5.9118 45.8301 6.0975 45.3818 6.0975 44.9144C6.0975 44.4469 5.9118 43.9986 5.58127 43.6681C5.25074 43.3376 4.80244 43.1519 4.335 43.1519C3.909 43.1519 3.4997 42.6256 3.4997 42.0242V17.9758C3.4997 17.3827 3.88394 16.8565 4.335 16.8565H11.9196V54.8796C11.8973 55.5302 12.0034 56.1787 12.2319 56.7883C12.4605 57.3978 12.8069 57.9563 13.2514 58.4319C13.6959 58.9074 14.2298 59.2907 14.8226 59.5598C15.4153 59.8288 16.0553 59.9784 16.7059 60H32.4263C32.6585 60.0011 32.8886 59.9563 33.1034 59.8682C33.3182 59.7802 33.5135 59.6505 33.678 59.4867C33.8425 59.323 33.9731 59.1283 34.0622 58.9139C34.1513 58.6995 34.1972 58.4697 34.1972 58.2375V40.3787H75.904V58.2375C75.904 58.4704 75.9501 58.7009 76.0397 58.9159C76.1293 59.1308 76.2607 59.3258 76.4261 59.4897C76.5915 59.6536 76.7878 59.7831 77.0036 59.8707C77.2193 59.9582 77.4503 60.0022 77.6832 60H92.7187C94.2358 59.9348 95.6655 59.2719 96.6954 58.1559C97.7252 57.04 98.2716 55.5618 98.215 54.0443V46.6769H105.967C107.249 46.6268 108.459 46.0719 109.334 45.133C110.209 44.1942 110.677 42.9476 110.636 41.665V18.3767C110.677 17.0886 110.204 15.8371 109.322 14.8973C108.44 13.9575 107.221 13.4063 105.933 13.3649ZM30.6638 56.475H16.7059C16.3357 56.4171 16.002 56.2193 15.7735 55.9224C15.545 55.6255 15.4392 55.2522 15.478 54.8796V5.12042C15.4413 4.74819 15.5479 4.37596 15.776 4.07955C16.0041 3.78313 16.3367 3.58482 16.7059 3.52499H30.6638V56.475ZM94.6482 54.0443C94.7031 54.6203 94.5328 55.1951 94.173 55.6483C93.8133 56.1014 93.2921 56.3977 92.7187 56.475H79.4373V3.52499H92.7187C93.2982 3.59433 93.8277 3.88723 94.1943 4.34128C94.561 4.79534 94.7359 5.37463 94.6816 5.95573V54.0443H94.6482ZM107.078 41.6483C107.078 42.4836 106.551 43.1519 105.933 43.1519H98.1816V16.8565H105.933C106.283 16.9142 106.597 17.1043 106.81 17.3874C107.023 17.6705 107.119 18.0248 107.078 18.3767V41.6483Z" fill="#17262F"></path></g><defs><clipPath id="clip0_5678_32997"><rect width="110.603" height="60" fill="white"></rect></clipPath></defs></svg>