<svg xmlns="http://www.w3.org/2000/svg" width="74" height="95" viewBox="0 0 74 95" fill="none"><g clip-path="url(#clip0_5678_33310)"><path d="M73.1378 17.9962C72.9474 17.8596 72.7275 17.7697 72.4959 17.7338C72.2643 17.6979 72.0275 17.717 71.8047 17.7896C71.8047 17.7896 68.732 18.8294 65.806 19.8758C52.5221 25.5613 53.142 31.6667 53.5086 35.3259C53.6013 35.9279 53.6214 36.5388 53.5686 37.1455C53.5686 37.1922 53.5686 37.2322 53.5686 37.2788C53.082 37.8387 52.6221 38.3853 52.2355 38.8918L50.5692 37.3788C50.6226 35.0548 50.3875 32.7331 49.8693 30.4669C51.3757 25.9279 55.1282 13.8038 47.3232 6.47197C41.2111 0.733179 34.6592 0 29.5936 0C26.8142 0 23.9948 0.246615 21.0154 0.499895C19.3424 0.646531 17.6294 0.793166 15.8832 0.899811C15.5991 0.918274 15.3261 1.01721 15.0962 1.18505C14.8663 1.35289 14.6889 1.5827 14.5847 1.84763C14.4806 2.11256 14.454 2.40166 14.508 2.68115C14.5621 2.96064 14.6946 3.21897 14.89 3.42595C18.7292 7.4251 20.6888 11.6709 22.5751 15.7633C25.2412 21.5288 27.7606 26.9743 35.1191 29.5271C38.9735 30.9235 43.0202 31.7171 47.1166 31.88C47.4891 33.8228 47.6367 35.8021 47.5565 37.7787C47.5565 37.7787 47.5565 37.8187 47.5565 37.8454C47.5565 37.8454 47.5565 37.8454 47.5565 37.8787C47.5592 38.0352 47.5862 38.1904 47.6365 38.3386C47.6904 38.4721 47.7621 38.5976 47.8498 38.7119V38.7652L48.2563 39.2651C48.3039 39.3237 48.3551 39.3794 48.4096 39.4317L60.5537 50.496C60.6256 50.586 60.6861 50.6845 60.7337 50.7893C60.5337 50.9226 59.8739 51.2359 58.1542 51.3492C57.9199 50.2585 57.3193 49.2809 56.4523 48.5788C55.5853 47.8767 54.5042 47.4925 53.3886 47.49H10.7309C9.50124 47.4954 8.3191 47.9656 7.42162 48.8062C6.52414 49.6468 5.9777 50.7957 5.89192 52.0224C3.50576 51.8691 3.01253 51.3559 2.9792 51.4025C3.10012 51.0475 3.30875 50.7289 3.58574 50.476L25.8477 26.7277C26.1217 26.4378 26.2693 26.0509 26.2581 25.6522C26.2468 25.2534 26.0776 24.8755 25.7877 24.6015C25.4978 24.3275 25.1109 24.1799 24.7122 24.1911C24.3135 24.2024 23.9355 24.3716 23.6615 24.6615L1.47285 48.4298C1.25956 48.6564 -0.60671 50.4894 0.199787 52.5089C0.966292 54.4152 3.53242 54.9418 5.87193 55.0684V90.1277C5.87369 91.4194 6.38759 92.6576 7.30094 93.571C8.21429 94.4843 9.45256 94.9982 10.7442 95H53.4352C54.7269 94.9982 55.9652 94.4843 56.8785 93.571C57.7919 92.6576 58.3058 91.4194 58.3076 90.1277V54.4019C60.4671 54.2752 62.8066 53.7753 63.5731 52.0224C63.7888 51.4184 63.8281 50.7654 63.6864 50.1399C63.5448 49.5143 63.2281 48.942 62.7733 48.4898L62.6866 48.4031L54.455 40.9047C54.7816 40.4448 55.1882 39.9383 55.6614 39.3917C57.697 40.3379 59.9031 40.8616 62.1467 40.9314C63.4756 40.9746 64.7958 40.7016 65.9986 40.135C67.2013 39.5683 68.2524 38.7242 69.0653 37.6721C73.6577 31.7267 73.731 19.6759 73.731 19.1826C73.7307 18.9524 73.677 18.7255 73.5741 18.5196C73.4711 18.3137 73.3218 18.1345 73.1378 17.9962ZM19.1091 91.9806V66.2994H26.081V91.9806H19.1091ZM55.3215 90.1277C55.3128 90.6222 55.1102 91.0934 54.7574 91.44C54.4046 91.7866 53.9298 91.9807 53.4352 91.9806H29.0737V64.8064C29.0702 64.4121 28.9116 64.035 28.6321 63.7569C28.3527 63.4787 27.975 63.3217 27.5807 63.32H17.5828C17.3862 63.32 17.1915 63.3588 17.0099 63.4343C16.8283 63.5097 16.6634 63.6203 16.5247 63.7597C16.386 63.899 16.2761 64.0644 16.2015 64.2463C16.1269 64.4282 16.0889 64.6231 16.0898 64.8197V91.9806H10.7442C10.2463 91.9789 9.76921 91.7803 9.41709 91.4282C9.06498 91.0761 8.86639 90.599 8.86463 90.101V52.4223C8.86463 51.9232 9.06244 51.4444 9.41475 51.0909C9.76705 50.7373 10.2451 50.5378 10.7442 50.536H53.4352C53.9355 50.536 54.4153 50.7348 54.769 51.0885C55.1228 51.4422 55.3215 51.922 55.3215 52.4223V90.1277ZM25.2878 14.5036C23.7215 11.111 21.9952 7.33179 19.0625 3.66589L21.2687 3.47927C24.1881 3.22599 26.9408 2.9927 29.5936 2.9927C36.3588 2.9927 41.0512 4.66568 45.277 8.66484C50.3292 13.3305 49.3628 21.0222 48.0564 26.0745C42.9308 16.1433 33.3928 9.76461 32.9129 9.46467C32.577 9.24636 32.1682 9.17041 31.7763 9.25353C31.3845 9.33666 31.0417 9.57204 30.8233 9.90791C30.605 10.2438 30.5291 10.6526 30.6122 11.0445C30.6953 11.4364 30.9307 11.7792 31.2666 11.9975C31.3799 12.0641 41.5377 18.8494 46.0768 28.8673C42.6756 28.6041 39.3246 27.8891 36.1122 26.741C29.9402 24.5682 27.8873 20.1291 25.2878 14.5036ZM66.6991 35.8325C66.1671 36.5245 65.4746 37.0767 64.6815 37.4413C63.8884 37.806 63.0184 37.9721 62.1467 37.9254C60.6762 37.8902 59.2233 37.5969 57.8543 37.0589C60.707 34.1995 64.2463 31.0601 65.9926 29.6338C66.144 29.5082 66.2692 29.354 66.3611 29.18C66.4529 29.006 66.5096 28.8156 66.5278 28.6197C66.5461 28.4238 66.5256 28.2262 66.4675 28.0383C66.4094 27.8503 66.3148 27.6756 66.1892 27.5242C66.0636 27.3728 65.9094 27.2476 65.7354 27.1557C65.5614 27.0639 65.3711 27.0072 65.1752 26.989C64.9793 26.9707 64.7817 26.9912 64.5937 27.0493C64.4058 27.1074 64.2311 27.202 64.0797 27.3276C63.4131 27.8741 59.7339 30.9868 56.4146 34.2595C56.1613 31.1401 56.5546 27.061 66.8724 22.6086C68.2055 22.1353 69.5918 21.6554 70.6783 21.2755C70.445 24.8681 69.6252 32.0533 66.6991 35.8458V35.8325Z" fill="#17262F"></path><path d="M46.5169 63.3201H36.519C36.1224 63.3218 35.7426 63.4806 35.4628 63.7617C35.183 64.0427 35.026 64.4232 35.026 64.8198V74.8176C35.026 75.2136 35.1833 75.5934 35.4633 75.8734C35.7432 76.1534 36.123 76.3107 36.519 76.3107H46.5169C46.7152 76.3081 46.9111 76.266 47.093 76.1869C47.275 76.1078 47.4393 75.9932 47.5764 75.8499C47.7136 75.7065 47.8208 75.5373 47.8918 75.3521C47.9627 75.1668 47.9961 74.9693 47.9899 74.771V64.7731C47.9796 64.3875 47.8205 64.0209 47.5459 63.75C47.2713 63.4792 46.9025 63.3251 46.5169 63.3201ZM45.0172 73.318H38.0453V66.2994H45.0172V73.318Z" fill="#17262F"></path></g><defs><clipPath id="clip0_5678_33310"><rect width="73.7578" height="95" fill="white"></rect></clipPath></defs></svg>