<svg xmlns="http://www.w3.org/2000/svg" width="92" height="90" viewBox="0 0 92 90" fill="none"><g clip-path="url(#clip0_5678_33664)"><path d="M45.8052 16.4433C45.3868 16.4433 44.9855 16.2775 44.689 15.9824C44.3924 15.6872 44.2249 15.2865 44.2231 14.8682L44.1595 1.58923C44.1595 1.16896 44.3259 0.765802 44.6225 0.467965C44.919 0.170129 45.3214 0.00186787 45.7417 0V0C46.1595 0.00184057 46.5598 0.168157 46.8559 0.462949C47.152 0.75774 47.3201 1.15729 47.3238 1.57511L47.3945 14.8328C47.3954 15.0412 47.3551 15.2477 47.2761 15.4405C47.197 15.6333 47.0806 15.8085 46.9336 15.9562C46.7865 16.1038 46.6118 16.221 46.4194 16.301C46.227 16.3809 46.0207 16.4221 45.8123 16.4221L45.8052 16.4433Z" fill="#17262F"></path><path d="M89.8517 47.126H75.6263C75.2066 47.126 74.8042 46.9593 74.5075 46.6626C74.2108 46.3659 74.0441 45.9635 74.0441 45.5438C74.0441 45.1242 74.2108 44.7218 74.5075 44.4251C74.8042 44.1284 75.2066 43.9617 75.6263 43.9617H89.8517C90.2713 43.9617 90.6737 44.1284 90.9704 44.4251C91.2671 44.7218 91.4338 45.1242 91.4338 45.5438C91.4338 45.9635 91.2671 46.3659 90.9704 46.6626C90.6737 46.9593 90.2713 47.126 89.8517 47.126Z" fill="#17262F"></path><path d="M15.9841 47.126H1.58217C1.16255 47.126 0.760121 46.9593 0.463407 46.6626C0.166692 46.3659 0 45.9635 0 45.5438C0 45.1242 0.166692 44.7218 0.463407 44.4251C0.760121 44.1284 1.16255 43.9617 1.58217 43.9617H15.9841C16.4038 43.9617 16.8062 44.1284 17.1029 44.4251C17.3996 44.7218 17.5663 45.1242 17.5663 45.5438C17.5663 45.9635 17.3996 46.3659 17.1029 46.6626C16.8062 46.9593 16.4038 47.126 15.9841 47.126Z" fill="#17262F"></path><path d="M22.44 27.2146C22.2294 27.2161 22.0207 27.1749 21.8265 27.0935C21.6323 27.0122 21.4566 26.8924 21.3098 26.7414L11.1882 16.3867C10.9438 16.082 10.8207 15.6977 10.8427 15.3077C10.8646 14.9177 11.03 14.5496 11.3071 14.2743C11.5842 13.999 11.9533 13.8359 12.3434 13.8164C12.7335 13.7969 13.1171 13.9225 13.4202 14.1688L23.5701 24.5235C23.7922 24.7447 23.9432 25.027 24.0039 25.3345C24.0646 25.642 24.0322 25.9606 23.9109 26.2495C23.7896 26.5385 23.5848 26.7847 23.3227 26.9566C23.0607 27.1285 22.7533 27.2184 22.44 27.2146Z" fill="#17262F"></path><path d="M69.1775 27.2147C68.8689 27.2152 68.5668 27.1255 68.3085 26.9565C68.0503 26.7875 67.847 26.5467 67.7239 26.2637C67.6008 25.9806 67.5632 25.6678 67.6156 25.3636C67.6681 25.0595 67.8084 24.7773 68.0192 24.5519L77.6958 14.1971C77.8377 14.045 78.0082 13.9223 78.1976 13.8361C78.3869 13.7499 78.5913 13.7018 78.7993 13.6946C79.0072 13.6873 79.2145 13.7211 79.4093 13.794C79.6042 13.8669 79.7828 13.9775 79.9349 14.1194C80.087 14.2613 80.2097 14.4318 80.2959 14.6212C80.3821 14.8105 80.4302 15.015 80.4375 15.2229C80.4447 15.4308 80.4109 15.6381 80.338 15.8329C80.2651 16.0278 80.1545 16.2064 80.0126 16.3585L70.3359 26.7132C70.1881 26.8725 70.0088 26.9993 69.8094 27.0857C69.61 27.172 69.3948 27.2159 69.1775 27.2147Z" fill="#17262F"></path><path d="M33.1973 47.1261C32.9895 47.1224 32.7845 47.0778 32.5939 46.9949C32.4034 46.912 32.231 46.7923 32.0867 46.6428C31.9424 46.4932 31.829 46.3167 31.7529 46.1233C31.6769 45.9299 31.6396 45.7234 31.6434 45.5156C31.8058 36.3829 38.5654 33.1055 42.1111 32.6464C42.3192 32.6143 42.5316 32.6241 42.7359 32.6752C42.9401 32.7262 43.1321 32.8176 43.3007 32.9438C43.4692 33.07 43.6108 33.2286 43.7172 33.4102C43.8237 33.5919 43.8928 33.793 43.9205 34.0017C43.9483 34.2104 43.9341 34.4225 43.8788 34.6257C43.8235 34.8289 43.7282 35.0189 43.5985 35.1848C43.4687 35.3506 43.3072 35.4889 43.1234 35.5916C42.9396 35.6942 42.7371 35.7591 42.5279 35.7825C42.21 35.8319 34.9702 36.9479 34.8148 45.5722C34.8121 45.7808 34.7679 45.9869 34.6848 46.1783C34.6018 46.3698 34.4815 46.5428 34.331 46.6874C34.1805 46.832 34.0028 46.9452 33.8082 47.0205C33.6136 47.0958 33.4059 47.1317 33.1973 47.1261Z" fill="#17262F"></path><path d="M65.1232 37.294C63.1102 31.9754 58.1306 25.6326 45.9111 25.6326H45.6357C33.5434 25.6326 28.5709 31.8129 26.5649 36.9903C22.8637 46.3915 26.3036 58.8864 30.4285 62.7358C36.4252 68.3229 36.5947 71.5861 36.2133 72.2924C36.0302 72.4799 35.9028 72.7146 35.8454 72.9703C35.788 73.226 35.8029 73.4927 35.8884 73.7404V83.5301C35.8899 83.7488 35.9355 83.9651 36.0226 84.1658C36.9241 85.9738 38.3259 87.4849 40.0614 88.5192C41.797 89.5535 43.793 90.0675 45.8123 90C47.8301 90.0652 49.8244 89.5502 51.5583 88.5161C53.2923 87.482 54.6932 85.9722 55.5949 84.1658C55.682 83.9651 55.7276 83.7488 55.7291 83.5301V73.9029C55.7291 73.9029 55.7291 73.8605 55.7715 73.8252C55.8882 73.5335 55.9043 73.2112 55.8173 72.9093C55.7303 72.6074 55.5452 72.3431 55.2912 72.1582C54.7402 71.4519 54.7261 68.4571 61.1466 62.7641C65.215 59.1053 68.7325 46.8011 65.1232 37.294ZM52.4941 78.494H38.9962V74.8281H52.4941V78.494ZM45.7487 86.8286C44.3964 86.8832 43.0546 86.5705 41.8657 85.9238C40.6768 85.2772 39.6852 84.3206 38.9962 83.1557V81.6583H52.4941V83.1557C51.8051 84.319 50.8145 85.2744 49.6271 85.921C48.4397 86.5675 47.0997 86.8811 45.7487 86.8286ZM58.9852 60.3908C54.2882 64.5511 51.8867 68.2028 51.8513 71.2541C51.8513 71.3954 51.8513 71.5296 51.8513 71.6638H39.3918C39.3918 69.4177 38.1839 65.6883 32.5263 60.4191C29.482 57.5938 26.1693 46.4974 29.4538 38.1557C31.8906 31.9471 37.3293 28.7969 45.6074 28.7969H45.9111C54.2952 28.7969 59.7693 32.0319 62.192 38.4171C65.3563 46.8435 62.0083 57.7068 58.9852 60.3908Z" fill="#17262F"></path></g><defs><clipPath id="clip0_5678_33664"><rect width="91.4409" height="90" fill="white"></rect></clipPath></defs></svg>