<svg xmlns="http://www.w3.org/2000/svg" width="92" height="105" viewBox="0 0 92 105" fill="none"><g clip-path="url(#clip0_5678_16873)"><path d="M83.8148 72.6305C83.6374 72.5163 83.5114 72.3375 83.4634 72.1321C83.4154 71.9267 83.4492 71.7106 83.5576 71.5296C83.604 71.4408 83.6688 71.3629 83.7475 71.301C83.8262 71.239 83.9171 71.1945 84.0143 71.1702C84.1115 71.1459 84.2127 71.1424 84.3113 71.16C84.4099 71.1776 84.5037 71.2159 84.5865 71.2724L85.1832 71.5296C85.3498 71.6533 85.4643 71.8346 85.5043 72.0382C85.5442 72.2419 85.5068 72.453 85.3993 72.6305C85.293 72.8161 85.1202 72.9544 84.9158 73.0174C84.7114 73.0805 84.4907 73.0635 84.2984 72.9701L83.8148 72.6305ZM86.953 74.4105C86.8582 74.3607 86.7742 74.2927 86.7058 74.2103C86.6375 74.128 86.586 74.0329 86.5545 73.9306C86.5229 73.8283 86.5119 73.7208 86.522 73.6142C86.5321 73.5076 86.5632 73.4041 86.6134 73.3096C86.7294 73.1342 86.908 73.0099 87.1127 72.9621C87.3175 72.9142 87.5327 72.9465 87.7144 73.0524L89.7722 74.1533C89.9458 74.2708 90.068 74.4502 90.1139 74.6548C90.1598 74.8594 90.1259 75.0738 90.0191 75.2542L85.0186 83.8971C84.9721 83.9858 84.9074 84.0637 84.8287 84.1256C84.75 84.1876 84.659 84.2322 84.5619 84.2565C84.4647 84.2808 84.3635 84.2842 84.2648 84.2666C84.1662 84.249 84.0725 84.2107 83.9897 84.1543C83.8021 84.0499 83.6627 83.8764 83.6012 83.6708C83.5397 83.4651 83.5609 83.2436 83.6605 83.0533L88.2288 75.1719L86.953 74.4105ZM81.8702 86.1915C81.9239 86.1005 81.9955 86.0214 82.0806 85.9588C82.1658 85.8963 82.2627 85.8516 82.3656 85.8276C82.4685 85.8035 82.5752 85.8006 82.6793 85.8189C82.7833 85.8373 82.8826 85.8765 82.9711 85.9343C83.059 85.9817 83.1359 86.0471 83.1968 86.1262C83.2577 86.2053 83.3013 86.2964 83.3246 86.3935C83.3479 86.4906 83.3504 86.5916 83.3321 86.6897C83.3137 86.7879 83.2748 86.8811 83.218 86.9632L82.3126 88.6506C82.1985 88.8284 82.0189 88.954 81.8128 89.0002C81.6067 89.0464 81.3907 89.0095 81.2117 88.8975L72.3116 83.8147C69.7834 86.4116 66.9015 88.6389 63.7511 90.4306C60.5861 92.1682 57.1914 93.4499 53.6678 94.2376V104.239C53.6678 104.44 53.5876 104.634 53.4448 104.777C53.302 104.92 53.1083 105 52.9064 105H37.4728C37.3659 105.01 37.2582 104.998 37.1562 104.964C37.0543 104.931 36.9603 104.876 36.8802 104.805C36.8001 104.734 36.7355 104.646 36.6906 104.549C36.6456 104.452 36.6212 104.346 36.6188 104.239V93.9495C33.097 93.0888 29.7253 91.7013 26.6178 89.8338C23.5331 87.9573 20.7129 85.677 18.2322 83.0533L9.58941 88.0538C9.39749 88.1499 9.17591 88.1682 8.97083 88.1049C8.76575 88.0417 8.59297 87.9018 8.48848 87.7143L0.761387 74.4105C0.711149 74.316 0.680079 74.2125 0.66996 74.1059C0.659841 73.9993 0.670873 73.8918 0.702422 73.7895C0.733972 73.6872 0.785416 73.5922 0.853803 73.5098C0.92219 73.4274 1.00617 73.3594 1.10093 73.3096L9.91866 68.1651C9.4877 66.6321 9.14418 65.076 8.88976 63.5041C8.64859 61.6794 8.53514 59.84 8.55022 57.9994V57.2072C8.55022 57.0053 8.63043 56.8116 8.77322 56.6688C8.91601 56.526 9.10967 56.4458 9.31161 56.4458H81.9525C82.1544 56.4458 82.3481 56.526 82.4909 56.6688C82.6336 56.8116 82.7139 57.0053 82.7139 57.2072L82.7962 57.9686C82.799 61.7674 82.1982 65.5426 81.0162 69.1528L81.9525 69.6673C82.1251 69.783 82.2476 69.9598 82.2953 70.1621C82.343 70.3644 82.3124 70.5772 82.2097 70.7579C82.1051 70.948 81.9305 71.0898 81.723 71.1533C81.5155 71.2167 81.2915 71.1966 81.0985 71.0974L79.658 70.2537C79.5069 70.159 79.3922 70.016 79.3324 69.8479C79.2727 69.6799 79.2714 69.4966 79.3288 69.3277C79.9366 67.5037 80.3875 65.6312 80.6766 63.7305C81.0203 61.8568 81.1925 59.9558 81.1911 58.0509H10.0833C10.1025 59.7735 10.2435 61.4927 10.5051 63.1954C10.7624 64.8828 11.1842 66.5805 11.6164 68.2782C11.6542 68.362 11.6752 68.4524 11.6781 68.5443C11.6811 68.6362 11.6658 68.7277 11.6333 68.8137C11.6009 68.8997 11.5517 68.9785 11.4888 69.0455C11.4259 69.1125 11.3503 69.1665 11.2665 69.2043L2.5414 74.2356L9.49681 86.2738L18.047 81.3556C18.1849 81.2472 18.3593 81.1963 18.5338 81.2135C18.7083 81.2308 18.8694 81.3149 18.9833 81.4483C21.4256 84.2214 24.2862 86.5959 27.4615 88.486C30.5793 90.3915 33.9842 91.7812 37.5448 92.6016C37.7408 92.6405 37.9166 92.7477 38.041 92.9041C38.1653 93.0605 38.2302 93.2559 38.2239 93.4556V103.539H52.0318V93.5585C52.0392 93.3725 52.1109 93.1949 52.2348 93.056C52.3587 92.9171 52.527 92.8256 52.7109 92.7971C56.3136 92.0566 59.7829 90.7729 63 88.9901C66.1707 87.2177 69.048 84.9652 71.5296 82.3125C71.5831 82.2303 71.653 82.1601 71.735 82.1063C71.8169 82.0524 71.9091 82.0162 72.0058 81.9997C72.1024 81.9833 72.2015 81.9871 72.2966 82.0108C72.3917 82.0345 72.4809 82.0777 72.5585 82.1376L81.2837 87.1175L81.8702 86.1915Z" fill="#17262F"></path><path d="M27.7085 61.7345C27.739 61.8373 27.7481 61.9453 27.7351 62.0518C27.7221 62.1582 27.6874 62.2609 27.633 62.3534C27.5787 62.4458 27.5059 62.5261 27.4192 62.5893C27.3325 62.6524 27.2337 62.697 27.129 62.7204C27.0243 62.7437 26.916 62.7453 26.8107 62.725C26.7054 62.7046 26.6054 62.6629 26.5169 62.6022C26.4284 62.5416 26.3533 62.4634 26.2964 62.3726C26.2394 62.2817 26.2017 62.1801 26.1857 62.074C26.0322 61.3954 25.9188 60.7082 25.8461 60.0162C25.7759 59.3671 25.7484 58.714 25.7638 58.0613V57.2073C25.782 56.9972 25.8792 56.8018 26.0358 56.6605C26.1923 56.5192 26.3966 56.4425 26.6075 56.4459H64.8211C65.032 56.4425 65.2363 56.5192 65.3929 56.6605C65.5495 56.8018 65.6466 56.9972 65.6648 57.2073V58.051C65.672 60.6796 65.1593 63.2837 64.1563 65.7134C63.1533 68.1431 61.6799 70.3506 59.8206 72.2088C56.0474 75.9335 50.9649 78.0315 45.6629 78.053C43.786 78.0119 41.9235 77.7142 40.1274 77.1681C38.3041 76.6403 36.57 75.8427 34.9828 74.8016C34.8183 74.6768 34.7033 74.4978 34.6581 74.2963C34.6129 74.0948 34.6404 73.8838 34.7359 73.7007C34.8652 73.5422 35.0434 73.4311 35.2425 73.3846C35.4417 73.338 35.6507 73.3587 35.8368 73.4435C37.2947 74.418 38.8948 75.1607 40.5801 75.6453C42.2477 76.1527 43.9815 76.4093 45.7246 76.4067C50.6 76.3696 55.2676 74.4272 58.73 70.9947C60.4307 69.2924 61.778 67.2706 62.6945 65.0457C63.6109 62.8208 64.0784 60.4367 64.07 58.0304H27.3792C27.3633 58.6524 27.3908 59.2746 27.4615 59.8927L27.7085 61.7345ZM33.5629 71.9104C33.7198 72.0468 33.8161 72.24 33.8306 72.4474C33.8451 72.6549 33.7765 72.8596 33.6401 73.0165C33.5037 73.1734 33.3105 73.2697 33.103 73.2841C32.8956 73.2986 32.6909 73.2301 32.534 73.0936C31.7595 72.4014 31.0244 71.6663 30.3322 70.8918L28.5522 68.3504C28.4587 68.158 28.4417 67.9373 28.5048 67.7329C28.5678 67.5285 28.7061 67.3557 28.8917 67.2494C29.0764 67.1618 29.2852 67.1385 29.4847 67.1832C29.6842 67.228 29.863 67.3382 29.9926 67.4964C30.4484 68.3394 30.986 69.1355 31.5977 69.8732C32.1945 70.5522 32.8736 71.2313 33.5526 71.931L33.5629 71.9104ZM28.6448 64.7903C28.7047 64.9981 28.6865 65.2206 28.5936 65.4158C28.5008 65.6111 28.3396 65.7656 28.1406 65.8501C27.936 65.8969 27.7216 65.8711 27.5339 65.7773C27.3463 65.6835 27.197 65.5274 27.1117 65.3357L27.0191 65.171C26.9659 64.9663 26.9888 64.7493 27.0833 64.5601C27.1779 64.3709 27.3379 64.2224 27.5335 64.1421C27.7267 64.0711 27.9395 64.0749 28.13 64.153C28.3205 64.2311 28.4748 64.3778 28.5624 64.564L28.6448 64.7903Z" fill="#17262F"></path><path d="M26.6075 14.3223C26.4156 14.4184 26.194 14.4367 25.989 14.3734C25.7839 14.3102 25.6111 14.1703 25.5066 13.9828C25.4376 13.7872 25.4334 13.5745 25.4946 13.3763C25.5557 13.178 25.679 13.0047 25.8461 12.8819C26.6899 12.46 27.6262 12.0382 28.5625 11.606C29.5009 11.1604 30.4626 10.7654 31.4434 10.4228C31.5439 10.3858 31.6509 10.3696 31.7578 10.3751C31.8648 10.3806 31.9695 10.4077 32.0657 10.4548C32.1618 10.502 32.2475 10.5681 32.3174 10.6492C32.3872 10.7304 32.44 10.8249 32.4723 10.927V11.1019L35.1783 34.1494H54.1514C54.2587 34.1518 54.3643 34.1762 54.4618 34.2212C54.5593 34.2661 54.6464 34.3307 54.7178 34.4108C54.7892 34.4909 54.8434 34.5849 54.877 34.6868C54.9105 34.7888 54.9227 34.8965 54.9128 35.0034C54.9128 35.2053 54.8326 35.399 54.6898 35.5418C54.547 35.6846 54.3533 35.7648 54.1514 35.7648H34.489C34.2939 35.7576 34.1064 35.6877 33.9544 35.5653C33.8024 35.4429 33.6939 35.2747 33.6453 35.0857L31.0215 12.2851L29.2415 13.0465C28.3875 13.386 27.4615 13.9005 26.6075 14.3223ZM61.0142 13.7256C60.9604 13.9274 60.8393 14.1048 60.6709 14.2283C60.5024 14.3518 60.2968 14.414 60.0882 14.4047C59.9806 14.3911 59.8769 14.3557 59.7836 14.3005C59.6903 14.2453 59.6093 14.1715 59.5457 14.0837C59.482 13.996 59.437 13.8961 59.4135 13.7902C59.3901 13.6844 59.3885 13.5748 59.4091 13.4684L59.6663 11.1019C59.7042 10.8915 59.8214 10.7038 59.9937 10.5774C60.1661 10.451 60.3804 10.3957 60.5923 10.4228H60.7673C69.0061 13.4181 76.1243 18.8749 81.1564 26.0532C86.1886 33.2315 88.8911 41.7838 88.8976 50.5502C88.8976 50.7749 88.809 50.9906 88.6511 51.1504C88.4932 51.3103 88.2786 51.4015 88.0539 51.4042H46.1053C45.8788 51.4042 45.6616 51.3142 45.5015 51.154C45.3413 50.9939 45.2513 50.7767 45.2513 50.5502C45.2696 50.3383 45.3683 50.1413 45.527 49.9998C45.6858 49.8582 45.8927 49.7827 46.1053 49.7888H87.2616C87.0731 41.6694 84.5008 33.7848 79.8649 27.1164C75.229 20.4479 68.7343 15.2902 61.1891 12.2851L61.0142 13.7256ZM4.91817 50.5913C4.92521 50.701 4.90967 50.8109 4.87251 50.9143C4.83534 51.0177 4.77734 51.1123 4.7021 51.1924C4.62687 51.2724 4.53599 51.3362 4.43511 51.3797C4.33423 51.4232 4.22549 51.4456 4.11562 51.4453C4.00832 51.443 3.90266 51.4185 3.80521 51.3736C3.70776 51.3286 3.62061 51.264 3.54919 51.1839C3.47776 51.1038 3.42359 51.0099 3.39005 50.9079C3.35652 50.806 3.34432 50.6982 3.35423 50.5913C3.34675 46.3531 3.9497 42.1359 5.14453 38.0695C6.42747 33.9863 8.28436 30.1063 10.6595 26.5458C10.8004 26.3758 10.9992 26.264 11.2176 26.2317C11.436 26.1994 11.6586 26.249 11.8427 26.3709C12.0074 26.4993 12.1171 26.6856 12.1496 26.8919C12.1821 27.0983 12.1349 27.3092 12.0176 27.4821C7.33548 34.274 4.85682 42.3422 4.91817 50.5913ZM14.4047 24.241C14.2781 24.4055 14.0927 24.5145 13.8874 24.5452C13.6821 24.5759 13.4729 24.5259 13.3038 24.4056C13.148 24.2524 13.0537 24.0476 13.0385 23.8296C13.0233 23.6117 13.0884 23.3957 13.2215 23.2224C14.2504 22.0392 15.2793 20.9279 16.3082 19.9093C17.3371 18.8907 18.5203 17.8515 19.7036 16.9461C19.8617 16.8139 20.0652 16.7485 20.2707 16.7639C20.4763 16.7793 20.6678 16.8741 20.8045 17.0284C20.9373 17.1882 21.003 17.3933 20.9876 17.6006C20.9723 17.8079 20.8771 18.0011 20.7222 18.1396C19.5287 19.1685 18.5203 20.0842 17.4091 21.1028C16.2979 22.1215 15.3513 23.1607 14.4459 24.1896L14.4047 24.241ZM22.636 16.6888C22.5625 16.7642 22.4735 16.8226 22.375 16.8599C22.2766 16.8972 22.1712 16.9124 22.0663 16.9046C21.9613 16.8967 21.8594 16.866 21.7676 16.8145C21.6758 16.763 21.5964 16.692 21.535 16.6065C21.4035 16.4352 21.3384 16.2221 21.3516 16.0066C21.3648 15.791 21.4556 15.5875 21.607 15.4336L22.2861 14.9294C22.3786 14.8636 22.4837 14.8175 22.5948 14.7943C22.7059 14.771 22.8206 14.7709 22.9317 14.7941C23.0429 14.8173 23.148 14.8633 23.2405 14.929C23.333 14.9948 23.411 15.079 23.4694 15.1763C23.5787 15.3561 23.6141 15.5713 23.568 15.7766C23.522 15.982 23.3981 16.1614 23.2224 16.2773L22.636 16.6888Z" fill="#17262F"></path><path d="M58.4728 35.0857C58.4685 35.1882 58.4423 35.2885 58.3961 35.38C58.3499 35.4715 58.2847 35.5521 58.2048 35.6164C58.1249 35.6807 58.0323 35.7272 57.933 35.7528C57.8337 35.7784 57.7301 35.7825 57.6291 35.7648C57.4233 35.7319 57.2351 35.6289 57.0964 35.4733C56.9577 35.3177 56.8769 35.1191 56.8677 34.9108L58.0509 24.7452C58.0861 24.5254 58.201 24.3262 58.3738 24.1858C58.5465 24.0453 58.7649 23.9734 58.9873 23.9838C59.1984 24.024 59.3863 24.1433 59.5125 24.3173C59.6387 24.4913 59.6937 24.7069 59.6663 24.9201L58.4728 35.0857ZM59.9133 22.8006C59.9092 22.9027 59.8831 23.0028 59.8368 23.0939C59.7905 23.1851 59.725 23.2651 59.6449 23.3286C59.5648 23.3921 59.4719 23.4376 59.3726 23.4619C59.2733 23.4862 59.1699 23.4887 59.0696 23.4694C58.8595 23.4512 58.6641 23.354 58.5228 23.1974C58.3815 23.0409 58.3048 22.8365 58.3082 22.6257L58.4728 21.1029C58.4769 20.9994 58.5033 20.898 58.5501 20.8057C58.5969 20.7133 58.6631 20.6321 58.7442 20.5677C58.8253 20.5032 58.9193 20.457 59.0198 20.4322C59.1203 20.4074 59.225 20.4045 59.3268 20.4238C59.5369 20.442 59.7323 20.5392 59.8736 20.6958C60.0149 20.8523 60.0916 21.0566 60.0882 21.2675L59.9133 22.8006ZM60.4277 18.3043C60.4234 18.4067 60.3973 18.507 60.351 18.5986C60.3048 18.6901 60.2396 18.7707 60.1597 18.835C60.0799 18.8992 59.9872 18.9457 59.8879 18.9713C59.7886 18.9969 59.685 19.001 59.584 18.9833C59.481 18.9807 59.3798 18.9557 59.2874 18.91C59.195 18.8643 59.1137 18.7991 59.0491 18.7188C58.9845 18.6385 58.9381 18.5451 58.9132 18.4451C58.8883 18.3451 58.8855 18.2408 58.9049 18.1396C59.4914 12.6247 60.1705 7.12004 60.7673 1.61538H31.3611L35.168 34.1494H52.6595C52.8807 34.152 53.0922 34.2404 53.2496 34.3958C53.4069 34.5513 53.4979 34.7617 53.5032 34.9829C53.485 35.193 53.3878 35.3884 53.2312 35.5297C53.0747 35.671 52.8703 35.7476 52.6595 35.7442H34.489C34.2939 35.7371 34.1064 35.6671 33.9544 35.5448C33.8023 35.4224 33.6939 35.2542 33.6453 35.0652L29.6634 0.843704C29.6634 0.61994 29.7523 0.40534 29.9105 0.247115C30.0687 0.08889 30.2833 0 30.5071 0L61.7344 0C61.946 0.0354584 62.1353 0.152078 62.2621 0.325032C62.389 0.497987 62.4433 0.713616 62.4135 0.926017C61.7344 6.69819 61.148 12.5424 60.3557 18.3043H60.4277Z" fill="#17262F"></path><path d="M50.0872 15.1662C50.5452 15.1635 50.9991 15.2532 51.4216 15.43C51.8441 15.6068 52.2266 15.867 52.5463 16.1951C53.1584 16.8143 53.5022 17.6497 53.5032 18.5204C53.5073 19.4261 53.1776 20.3015 52.5771 20.9795C51.925 21.6317 51.0404 21.9981 50.1181 21.9981C49.1957 21.9981 48.3112 21.6317 47.659 20.9795C47.015 20.321 46.6469 19.4413 46.6301 18.5204C46.6516 17.6124 47.0274 16.7488 47.6773 16.1143C48.3272 15.4798 49.1995 15.1247 50.1078 15.125L50.0872 15.1662ZM51.3528 17.2857C51.1873 17.1198 50.9897 16.9895 50.7721 16.9028C50.5544 16.8161 50.3214 16.7749 50.0872 16.7815C49.8506 16.7668 49.6136 16.8043 49.3931 16.8915C49.1726 16.9786 48.974 17.1132 48.8113 17.2857C48.4603 17.6035 48.2494 18.0475 48.2249 18.5204C48.2302 19.0127 48.4282 19.4832 48.7763 19.8313C49.1244 20.1794 49.5949 20.3774 50.0872 20.3827C50.5541 20.3548 50.9988 20.1741 51.3528 19.8683C51.7181 19.5128 51.932 19.0299 51.9495 18.5204C51.9409 18.2785 51.8836 18.0409 51.7811 17.8217C51.6785 17.6025 51.5329 17.4062 51.3528 17.2445V17.2857Z" fill="#17262F"></path><path d="M37.6271 15.3411C37.6091 15.4417 37.5686 15.537 37.5086 15.6197C37.4486 15.7025 37.3707 15.7707 37.2807 15.8191C37.1907 15.8676 37.0909 15.8951 36.9887 15.8997C36.8866 15.9042 36.7848 15.8856 36.6908 15.8452C36.479 15.7828 36.2996 15.6408 36.1903 15.449C36.0809 15.2571 36.0501 15.0304 36.1044 14.8163L36.269 14.3122L36.5262 13.7977C36.8444 12.964 37.3038 12.1913 37.8844 11.5135C38.4146 10.8084 39.0416 10.1815 39.7467 9.65123C39.9159 9.53097 40.1251 9.48094 40.3303 9.51164C40.5356 9.54234 40.721 9.65137 40.8476 9.81585C40.9798 9.97401 41.0452 10.1775 41.0298 10.383C41.0144 10.5886 40.9196 10.78 40.7653 10.9168C40.1265 11.3446 39.5777 11.8934 39.1499 12.5322C38.6588 13.1201 38.2598 13.7793 37.9667 14.4871L37.8021 14.9089L37.6271 15.3411ZM42.4527 9.91874C42.3521 9.96266 42.2437 9.98631 42.1339 9.98836C42.0241 9.99041 41.915 9.97081 41.8128 9.93068C41.7105 9.89055 41.6172 9.83068 41.5381 9.75449C41.459 9.67829 41.3957 9.58726 41.3518 9.4866C41.3079 9.38594 41.2842 9.27761 41.2822 9.16781C41.2801 9.058 41.2997 8.94887 41.3399 8.84664C41.38 8.74441 41.4399 8.65108 41.516 8.57199C41.5922 8.49289 41.6833 8.42958 41.7839 8.38567L42.0309 8.30336C42.1254 8.25834 42.2283 8.23359 42.333 8.2307C42.4377 8.22781 42.5418 8.24683 42.6387 8.28656C42.7356 8.32628 42.8231 8.38582 42.8956 8.46137C42.9681 8.53691 43.024 8.62678 43.0598 8.72521C43.1497 8.90693 43.1645 9.11674 43.101 9.30927C43.0374 9.50181 42.9007 9.66161 42.7202 9.75412L42.4527 9.91874ZM44.6649 9.26024C44.4621 9.28065 44.2594 9.22109 44.0999 9.09425C43.9404 8.96742 43.8367 8.78332 43.8109 8.58116C43.7678 8.37803 43.8062 8.16609 43.9178 7.99098C44.0294 7.81587 44.2053 7.69158 44.4076 7.64486C44.7472 7.64486 45.0044 7.56254 45.2514 7.56254H46.1053C48.8619 7.5348 51.5189 8.59168 53.5032 10.5052C55.4221 12.4801 56.4897 15.1289 56.4767 17.8825C56.4941 19.2462 56.2401 20.5998 55.7297 21.8645C55.2192 23.1293 54.4624 24.2799 53.5032 25.2495C51.5472 27.2045 48.9016 28.313 46.1362 28.3362C44.7619 28.3416 43.4001 28.0749 42.1293 27.5515C40.8586 27.0281 39.704 26.2583 38.7322 25.2865C37.7604 24.3147 36.9906 23.1601 36.4672 21.8894C35.9437 20.6186 35.6771 19.2568 35.6825 17.8825C35.6811 17.7821 35.6999 17.6825 35.7377 17.5895C35.7754 17.4965 35.8315 17.412 35.9024 17.341C35.9734 17.27 36.0579 17.214 36.1509 17.1762C36.2439 17.1385 36.3435 17.1197 36.4439 17.1211C36.55 17.1127 36.6566 17.126 36.7573 17.1602C36.8581 17.1944 36.9508 17.2488 37.0297 17.3201C37.1087 17.3913 37.1723 17.478 37.2167 17.5747C37.261 17.6714 37.2851 17.7761 37.2876 17.8825C37.3001 20.2197 38.2099 22.4629 39.829 24.1485C41.494 25.7768 43.7302 26.6886 46.059 26.6886C48.3879 26.6886 50.6241 25.7768 52.2891 24.1485C53.5095 22.9131 54.3399 21.3463 54.6771 19.6428C55.0142 17.9393 54.8433 16.1743 54.1856 14.5671C53.5278 12.96 52.4122 11.5816 50.9774 10.6033C49.5426 9.62503 47.852 9.09001 46.1156 9.06475L45.4366 9.15735C45.18 9.14345 44.9228 9.17125 44.6752 9.23966L44.6649 9.26024Z" fill="#17262F"></path><path d="M23.3048 51.4453C23.0938 51.4247 22.8983 51.3254 22.7572 51.1671C22.6161 51.0089 22.5398 50.8033 22.5434 50.5913C22.5434 50.4914 22.5631 50.3924 22.6013 50.3C22.6396 50.2076 22.6957 50.1237 22.7664 50.053C22.8371 49.9823 22.921 49.9262 23.0134 49.8879C23.1058 49.8496 23.2048 49.83 23.3048 49.83H23.9838C24.0899 49.8215 24.1965 49.8348 24.2973 49.869C24.398 49.9033 24.4907 49.9577 24.5697 50.0289C24.6486 50.1002 24.7122 50.1868 24.7566 50.2836C24.8009 50.3803 24.8251 50.485 24.8275 50.5913C24.8275 50.8161 24.739 51.0317 24.5811 51.1916C24.4231 51.3515 24.2085 51.4426 23.9838 51.4453H23.3048ZM26.6899 51.4453C26.5826 51.443 26.4769 51.4185 26.3794 51.3736C26.282 51.3286 26.1948 51.2641 26.1234 51.1839C26.052 51.1038 25.9978 51.0099 25.9643 50.9079C25.9307 50.806 25.9186 50.6982 25.9285 50.5913C25.9285 50.4914 25.9482 50.3924 25.9864 50.3C26.0247 50.2076 26.0808 50.1237 26.1515 50.053C26.2222 49.9823 26.3061 49.9262 26.3985 49.8879C26.4909 49.8496 26.5899 49.83 26.6899 49.83H34.3243C34.4243 49.83 34.5233 49.8496 34.6157 49.8879C34.7081 49.9262 34.792 49.9823 34.8627 50.053C34.9334 50.1237 34.9895 50.2076 35.0278 50.3C35.066 50.3924 35.0857 50.4914 35.0857 50.5913C35.0956 50.6982 35.0835 50.806 35.0499 50.9079C35.0164 51.0099 34.9622 51.1038 34.8908 51.1839C34.8194 51.2641 34.7322 51.3286 34.6348 51.3736C34.5373 51.4185 34.4316 51.443 34.3243 51.4453H26.6899ZM37.0407 51.4453C36.9325 51.4444 36.8257 51.421 36.727 51.3766C36.6284 51.3323 36.54 51.2679 36.4674 51.1877C36.3949 51.1074 36.3398 51.013 36.3057 50.9103C36.2715 50.8077 36.259 50.6991 36.269 50.5913C36.269 50.4905 36.289 50.3906 36.3279 50.2976C36.3668 50.2045 36.4238 50.1201 36.4956 50.0493C36.5674 49.9785 36.6526 49.9226 36.7461 49.8849C36.8397 49.8473 36.9398 49.8286 37.0407 49.83H87.8893C88.6906 49.8125 89.4717 50.0826 90.0911 50.5913C90.3824 50.8492 90.6155 51.166 90.7752 51.5208C90.9348 51.8755 91.0173 52.2601 91.0171 52.6492V55.1906C91.0173 55.5796 90.9348 55.9642 90.7752 56.3189C90.6155 56.6737 90.3824 56.9905 90.0911 57.2484C89.4806 57.782 88.7001 58.0811 87.8893 58.0921H3.13817C2.31867 58.0713 1.5338 57.7573 0.926017 57.2072C0.634766 56.9493 0.401606 56.6325 0.241968 56.2778C0.0823298 55.923 -0.000145518 55.5384 1.92736e-07 55.1494V52.6286C-0.000145518 52.2396 0.0823298 51.855 0.241968 51.5002C0.401606 51.1455 0.634766 50.8287 0.926017 50.5708C1.54813 50.0597 2.3333 49.7895 3.13817 49.8094H20.3415C20.5524 49.806 20.7567 49.8827 20.9133 50.024C21.0698 50.1653 21.167 50.3607 21.1852 50.5708C21.171 50.7909 21.0778 50.9984 20.9228 51.1553C20.7678 51.3122 20.5614 51.4079 20.3415 51.4248H3.13817C2.74531 51.4027 2.35886 51.5315 2.05781 51.7849C1.81404 52.0027 1.66001 52.3035 1.62567 52.6286V55.17C1.61871 55.3292 1.64639 55.488 1.70679 55.6354C1.76718 55.7828 1.85887 55.9154 1.9755 56.024H2.05781C2.35961 56.2965 2.75209 56.4469 3.15875 56.4458H87.8893C88.2956 56.445 88.6874 56.2948 88.9902 56.024C89.114 55.917 89.2151 55.7864 89.2876 55.6397C89.36 55.493 89.4024 55.3333 89.412 55.17V52.6286C89.3776 52.3057 89.2278 52.0061 88.9902 51.7849C88.663 51.5692 88.2811 51.4514 87.8893 51.4453H37.0407Z" fill="#17262F"></path><path d="M53.3077 44.4076C53.1058 44.4076 52.9121 44.3274 52.7693 44.1846C52.6265 44.0418 52.5463 43.8482 52.5463 43.6462C52.5427 43.4343 52.6191 43.2287 52.7602 43.0705C52.9012 42.9122 53.0967 42.8129 53.3077 42.7922H81.8702C82.0901 42.8091 82.2965 42.9048 82.4515 43.0617C82.6065 43.2186 82.6997 43.4261 82.7139 43.6462C82.6957 43.8563 82.5985 44.0517 82.4419 44.193C82.2854 44.3343 82.0811 44.411 81.8702 44.4076H53.3077Z" fill="#17262F"></path><path d="M69.4924 38.8927C69.2808 38.8986 69.0752 38.8227 68.918 38.681C68.7609 38.5392 68.6645 38.3423 68.6487 38.1313C68.6632 37.9123 68.7567 37.706 68.9119 37.5508C69.0671 37.3956 69.2734 37.3021 69.4924 37.2876H75.9333C76.1435 37.3058 76.3389 37.403 76.4802 37.5595C76.6214 37.7161 76.6981 37.9204 76.6947 38.1313C76.6961 38.2317 76.6774 38.3313 76.6396 38.4243C76.6018 38.5173 76.5458 38.6018 76.4748 38.6728C76.4038 38.7437 76.3193 38.7998 76.2263 38.8376C76.1333 38.8753 76.0337 38.8941 75.9333 38.8927H69.4924Z" fill="#17262F"></path><path d="M11.781 41.8663C11.7708 41.9675 11.7405 42.0657 11.6918 42.1549C11.643 42.2442 11.5769 42.3228 11.4973 42.3861C11.4177 42.4494 11.3262 42.4961 11.2283 42.5235C11.1303 42.5508 11.0279 42.5583 10.927 42.5454C10.703 42.5195 10.4981 42.4071 10.3558 42.2322C10.2136 42.0572 10.1453 41.8337 10.1656 41.6091C10.6125 38.474 11.5866 35.437 13.0466 32.6268C14.5633 29.8559 16.5756 27.3868 18.9834 25.3421C19.1415 25.2099 19.345 25.1446 19.5505 25.1599C19.7561 25.1753 19.9475 25.2702 20.0843 25.4244C20.2173 25.5977 20.2824 25.8137 20.2672 26.0316C20.2521 26.2496 20.1577 26.4544 20.002 26.6077C17.7478 28.4952 15.8758 30.7968 14.487 33.3882C13.0329 36.0073 12.1131 38.8891 11.781 41.8663Z" fill="#17262F"></path><path d="M15.5056 42.031C15.4823 42.2323 15.3808 42.4163 15.2229 42.5434C15.065 42.6704 14.8635 42.7303 14.6619 42.7101C14.5554 42.6964 14.4527 42.6612 14.3602 42.6067C14.2677 42.5521 14.1872 42.4793 14.1237 42.3927C14.0602 42.3061 14.015 42.2075 13.9907 42.1029C13.9665 41.9982 13.9638 41.8897 13.9828 41.784C14.2235 39.4987 14.8242 37.2657 15.7628 35.1682C16.6339 33.3273 17.8736 31.6849 19.4052 30.3426C19.5633 30.2104 19.7668 30.145 19.9723 30.1604C20.1779 30.1758 20.3694 30.2707 20.5061 30.4249C20.5815 30.4983 20.6399 30.5874 20.6772 30.6858C20.7144 30.7842 20.7297 30.8896 20.7218 30.9946C20.714 31.0995 20.6832 31.2015 20.6317 31.2933C20.5803 31.385 20.5093 31.4644 20.4238 31.5258C19.0724 32.7367 17.9774 34.2061 17.2033 35.8472C16.363 37.8196 15.792 39.896 15.5056 42.0207V42.031Z" fill="#17262F"></path><path d="M4.66097 54.7481C4.4403 54.7334 4.23267 54.6384 4.07724 54.481C3.92181 54.3237 3.82933 54.115 3.81726 53.8941C3.83546 53.684 3.93264 53.4886 4.08921 53.3473C4.24578 53.206 4.45009 53.1293 4.66097 53.1327H42.4527C42.5596 53.1228 42.6674 53.135 42.7693 53.1686C42.8713 53.2021 42.9652 53.2563 43.0453 53.3277C43.1254 53.3991 43.19 53.4863 43.235 53.5837C43.2799 53.6812 43.3044 53.7868 43.3067 53.8941C43.3067 54.1206 43.2168 54.3378 43.0566 54.498C42.8964 54.6581 42.6792 54.7481 42.4527 54.7481H4.66097Z" fill="#17262F"></path><path d="M28.902 87.2925C28.7416 87.1721 28.632 86.9959 28.595 86.7987C28.558 86.6015 28.5962 86.3976 28.7021 86.2272C28.8079 86.0568 28.9738 85.9322 29.167 85.878C29.3602 85.8238 29.5666 85.8439 29.7457 85.9344C31.4349 86.8695 33.1845 87.691 34.9829 88.3935C36.8244 89.0968 38.7252 89.634 40.6624 89.9986C40.8503 90.0511 41.0166 90.1623 41.1369 90.3159C41.2572 90.4695 41.3253 90.6575 41.3312 90.8526V101.862C41.3155 102.074 41.2194 102.272 41.0626 102.415C40.9057 102.559 40.7 102.637 40.4875 102.634C40.3867 102.634 40.2868 102.614 40.1937 102.575C40.1007 102.536 40.0163 102.479 39.9455 102.407C39.8746 102.335 39.8188 102.25 39.7811 102.156C39.7434 102.063 39.7248 101.963 39.7261 101.862V91.4391C37.9356 91.073 36.1774 90.5637 34.4684 89.9163C32.5442 89.1799 30.6769 88.303 28.8814 87.2925H28.902Z" fill="#17262F"></path><path d="M74.6575 57.2071C74.6595 57.0655 74.6208 56.9262 74.5461 56.8058C74.4713 56.6855 74.3636 56.5891 74.2357 56.5281C74.1164 56.4568 73.9803 56.4185 73.8414 56.4173C73.7024 56.416 73.5656 56.4518 73.4451 56.521C73.3246 56.5902 73.2247 56.6902 73.1557 56.8108C73.0867 56.9314 73.051 57.0682 73.0524 57.2071C73.0614 62.4238 71.5916 67.5361 68.8133 71.9514C68.2166 72.8877 69.6673 73.6491 70.1715 72.7951C73.0815 68.1148 74.6346 62.7183 74.6575 57.2071ZM18.3866 57.7936C18.3866 57.5808 18.302 57.3766 18.1515 57.2261C18.001 57.0756 17.7969 56.9911 17.584 56.9911C17.3712 56.9911 17.1671 57.0756 17.0166 57.2261C16.866 57.3766 16.7815 57.5808 16.7815 57.7936C16.858 63.2975 18.5347 68.6601 21.6071 73.2272V73.3198C21.6997 73.4022 21.8643 73.5668 21.9466 73.5668C22.1072 73.6441 22.2887 73.6665 22.4632 73.6305C22.6377 73.5945 22.7956 73.5022 22.9125 73.3678C23.0295 73.2333 23.099 73.0641 23.1104 72.8863C23.1217 72.7085 23.0744 72.5318 22.9755 72.3835C20.0897 68.0599 18.501 63.0011 18.3969 57.8039L18.3866 57.7936ZM28.1406 78.1351C28.0569 78.0676 27.9606 78.0172 27.8573 77.9868C27.7541 77.9565 27.6459 77.9467 27.5389 77.9582C27.4319 77.9697 27.3282 78.0021 27.2337 78.0536C27.1392 78.1052 27.0558 78.1748 26.9883 78.2586C26.9207 78.3424 26.8703 78.4386 26.8399 78.5419C26.8096 78.6451 26.7999 78.7533 26.8113 78.8604C26.8228 78.9674 26.8552 79.0711 26.9068 79.1655C26.9583 79.26 27.028 79.3434 27.1117 79.411C31.3344 82.9488 36.477 85.2114 41.9383 85.9342C42.0575 85.9464 42.1774 85.9174 42.2778 85.8519C42.4243 85.7809 42.5453 85.6665 42.6244 85.5243C42.7035 85.382 42.7369 85.2189 42.7201 85.057C42.7032 84.8951 42.6369 84.7424 42.5302 84.6195C42.4234 84.4966 42.2814 84.4096 42.1235 84.3703C36.9639 83.7069 32.1071 81.5627 28.1406 78.1969V78.1351ZM49.83 84.2366C49.6352 84.2907 49.4671 84.4146 49.3578 84.5848C49.2485 84.7549 49.2057 84.9594 49.2375 85.1591C49.2693 85.3588 49.3735 85.5398 49.5302 85.6676C49.6869 85.7954 49.8852 85.861 50.0872 85.8519C53.1609 85.3662 56.1375 84.3937 58.905 82.971C61.0426 81.9079 63.0316 80.5692 64.8212 78.9891C64.9675 78.8403 65.0511 78.6409 65.0544 78.4322C65.0577 78.2235 64.9807 78.0215 64.8391 77.868C64.6976 77.7146 64.5025 77.6215 64.2942 77.608C64.0859 77.5945 63.8804 77.6617 63.7202 77.7956C62.4388 78.994 61.0151 80.0306 59.4811 80.8823C56.5185 82.6433 53.2336 83.7942 49.8197 84.2674L49.83 84.2366Z" fill="#17262F"></path></g><defs><clipPath id="clip0_5678_16873"><rect width="91.0171" height="105" fill="white"></rect></clipPath></defs></svg>