<svg xmlns="http://www.w3.org/2000/svg" width="100" height="73" viewBox="0 0 100 73" fill="none"><g clip-path="url(#clip0_5678_33332)"><path d="M99.5112 33.598L91.9082 25.995L95.8886 22.0146C96.066 21.8435 96.2051 21.6369 96.2969 21.4082C96.3887 21.1795 96.431 20.934 96.4211 20.6878C96.4169 20.4426 96.363 20.2009 96.2624 19.9773C96.1619 19.7537 96.0169 19.5529 95.8363 19.3871C95.5307 19.1078 88.3031 12.5697 80.412 12.5697C77.5207 12.5483 74.7089 13.5153 72.4424 15.3107L62.5 5.42065C59.0255 1.9516 54.3163 0.00317383 49.4064 0.00317383C44.4966 0.00317383 39.7874 1.9516 36.3129 5.42065L36.0772 5.65633C32.9831 8.78329 31.0948 12.904 30.7465 17.2892C30.3983 21.6744 31.6125 26.0414 34.1742 29.6176C34.1714 29.6378 34.1714 29.6584 34.1742 29.6787C34.7327 30.4403 35.3484 31.1581 36.0161 31.826L49.6159 45.391C51.6611 48.2608 52.6283 51.7601 52.3473 55.2729C52.0663 58.7857 50.555 62.0867 48.0796 64.5949L47.8439 64.8306C45.0503 67.6194 41.2641 69.1858 37.3167 69.1858C33.3693 69.1858 29.5831 67.6194 26.7895 64.8306L3.10755 41.1923C2.9356 41.0232 2.73203 40.8897 2.50847 40.7992C2.28491 40.7088 2.04572 40.6633 1.80458 40.6654C1.56344 40.6674 1.32505 40.7169 1.10304 40.8111C0.881028 40.9052 0.679735 41.0422 0.510653 41.2141C0.341572 41.3861 0.208013 41.5896 0.117604 41.8132C0.0271941 42.0368 -0.0182961 42.2759 -0.0162697 42.5171C-0.0142433 42.7582 0.0352601 42.9966 0.129414 43.2186C0.223568 43.4406 0.360528 43.6419 0.532476 43.811L24.2144 67.4493C27.6889 70.9183 32.3981 72.8668 37.308 72.8668C42.2178 72.8668 46.927 70.9183 50.4015 67.4493L50.6285 67.2136C53.7641 64.1103 55.681 59.9842 56.0302 55.5864C56.3795 51.1886 55.1379 46.8117 52.5314 43.2523V43.2C51.9545 42.4271 51.3183 41.7004 50.6285 41.0264L37.1072 27.4615C35.0587 24.5929 34.0894 21.0929 34.3705 17.5792C34.6516 14.0654 36.165 10.764 38.6435 8.25759L38.8792 8.0219C41.6728 5.23302 45.459 3.66664 49.4064 3.66664C53.3539 3.66664 57.14 5.23302 59.9337 8.0219L69.8324 17.8857C63.5649 25.9426 69.588 36.5572 73.9089 41.2796C74.0747 41.4602 74.2755 41.6052 74.4991 41.7057C74.7226 41.8063 74.9644 41.8603 75.2095 41.8644C75.6909 41.8641 76.1525 41.6725 76.4927 41.332L80.4731 37.3515L88.0761 44.9545C88.2481 45.1265 88.4522 45.2629 88.6769 45.3559C88.9015 45.449 89.1423 45.4969 89.3855 45.4969C89.6287 45.4969 89.8694 45.449 90.0941 45.3559C90.3188 45.2629 90.5229 45.1265 90.6948 44.9545C90.8668 44.7826 91.0032 44.5784 91.0962 44.3538C91.1893 44.1291 91.2372 43.8883 91.2372 43.6452C91.2372 43.402 91.1893 43.1612 91.0962 42.9365C91.0032 42.7119 90.8668 42.5077 90.6948 42.3358L83.0918 34.7328L89.2982 28.5264L96.8925 36.1731C97.0601 36.3429 97.2599 36.4775 97.4803 36.5689C97.7006 36.6604 97.9371 36.7068 98.1756 36.7056C98.5389 36.7134 98.8963 36.6125 99.2019 36.4159C99.5075 36.2192 99.7474 35.9358 99.8909 35.602C100.034 35.2681 100.075 34.899 100.007 34.542C99.9396 34.1849 99.7669 33.8563 99.5112 33.598ZM79.2685 33.4933L75.4277 37.3341C72.809 33.8948 67.493 25.2356 73.6819 19.0816C74.5533 18.1635 75.6044 17.4347 76.7698 16.9406C77.9352 16.4465 79.1899 16.1977 80.4557 16.2098C85.0559 16.2098 89.6474 19.1514 91.9344 20.8711L79.2685 33.4933Z" fill="#17262F"></path></g><defs><clipPath id="clip0_5678_33332"><rect width="100" height="72.8701" fill="white"></rect></clipPath></defs></svg>