<svg xmlns="http://www.w3.org/2000/svg" width="106" height="110" viewBox="0 0 106 110" fill="none"><g clip-path="url(#clip0_5678_16014)"><path d="M39.9355 92.9808C39.8949 92.9808 39.8547 92.9727 39.8173 92.9569C39.7799 92.9411 39.7461 92.9179 39.7179 92.8888C39.6896 92.8596 39.6675 92.8251 39.6528 92.7873C39.6382 92.7494 39.6313 92.709 39.6326 92.6684V86.0425H23.8534C23.8128 86.0438 23.7724 86.0369 23.7345 86.0222C23.6967 86.0076 23.6622 85.9855 23.633 85.9572C23.6039 85.929 23.5807 85.8951 23.5649 85.8578C23.5491 85.8204 23.541 85.7802 23.541 85.7396C23.541 85.6568 23.5739 85.5773 23.6325 85.5187C23.6911 85.4602 23.7705 85.4272 23.8534 85.4272H39.9449C40.0278 85.4272 40.1072 85.4602 40.1658 85.5187C40.2244 85.5773 40.2573 85.6568 40.2573 85.7396V92.6495C40.2599 92.6929 40.2535 92.7364 40.2384 92.7771C40.2233 92.8179 40.1999 92.8551 40.1696 92.8863C40.1393 92.9174 40.1028 92.942 40.0625 92.9582C40.0222 92.9745 39.9789 92.9822 39.9355 92.9808Z" fill="#17262F"></path><path d="M71.8725 59.3211C71.8352 59.3303 71.7962 59.3303 71.7589 59.3211C71.7207 59.3079 71.6857 59.2868 71.6563 59.259C71.6269 59.2313 71.6038 59.1976 71.5885 59.1602L69.7995 54.9669C69.7682 54.8903 69.7686 54.8045 69.8005 54.7282C69.8325 54.6518 69.8934 54.5913 69.9699 54.5599L74.0306 52.8371C74.0671 52.8202 74.1067 52.8109 74.1469 52.8099C74.1871 52.8089 74.2271 52.8162 74.2644 52.8313C74.3016 52.8463 74.3354 52.8689 74.3636 52.8976C74.3918 52.9263 74.4138 52.9605 74.4282 52.998L75.848 56.311L76.2172 57.1819C76.249 57.2572 76.25 57.3421 76.2199 57.4183C76.1899 57.4944 76.1311 57.5556 76.0563 57.5889L71.9955 59.3211C71.955 59.3301 71.913 59.3301 71.8725 59.3211ZM70.4905 54.9858L72.0334 58.6112L75.5262 57.1251L73.9833 53.4997L70.4905 54.9858Z" fill="#17262F"></path><path d="M67.8401 57.4278C67.7803 57.4292 67.7214 57.4129 67.6709 57.3809C67.6204 57.3489 67.5804 57.3026 67.5561 57.248C67.5391 57.2108 67.5297 57.1706 67.5286 57.1297C67.5275 57.0888 67.5346 57.0481 67.5497 57.0101C67.5647 56.9721 67.5873 56.9375 67.6161 56.9084C67.6448 56.8793 67.6792 56.8564 67.7171 56.8409L70.4432 55.6672C70.4796 55.6503 70.5192 55.641 70.5594 55.64C70.5996 55.639 70.6396 55.6462 70.6769 55.6613C70.7142 55.6764 70.7479 55.699 70.7761 55.7277C70.8043 55.7564 70.8263 55.7906 70.8407 55.8281C70.8579 55.864 70.8676 55.903 70.8693 55.9428C70.8709 55.9825 70.8645 56.0222 70.8503 56.0594C70.8361 56.0966 70.8146 56.1305 70.7869 56.1591C70.7592 56.1877 70.726 56.2103 70.6893 56.2257L67.9632 57.4089L67.8401 57.4278Z" fill="#17262F"></path><path d="M69.809 58.8856C69.7486 58.8838 69.69 58.8651 69.6398 58.8316C69.5896 58.7982 69.5498 58.7512 69.525 58.6962C69.4931 58.6208 69.4922 58.536 69.5222 58.4598C69.5523 58.3837 69.6111 58.3225 69.6859 58.2892L71.2761 57.6172C71.3128 57.6016 71.3522 57.5934 71.392 57.593C71.4319 57.5927 71.4714 57.6002 71.5083 57.6151C71.5452 57.6301 71.5788 57.6522 71.6072 57.6801C71.6356 57.7081 71.6582 57.7414 71.6737 57.7781C71.7055 57.8535 71.7065 57.9384 71.6764 58.0145C71.6463 58.0906 71.5876 58.1519 71.5128 58.1851L69.932 58.8572C69.8935 58.8754 69.8516 58.8851 69.809 58.8856Z" fill="#17262F"></path><path d="M72.289 66.7041C72.5222 66.7154 72.7431 66.8125 72.909 66.9767C73.075 67.141 73.1745 67.3608 73.1882 67.5939C73.1885 67.837 73.0953 68.0708 72.9279 68.247C72.7605 68.4232 72.5317 68.5283 72.289 68.5405C72.0996 68.4782 71.9347 68.3578 71.8178 68.1963C71.7009 68.0348 71.638 67.8406 71.638 67.6412C71.638 67.4419 71.7009 67.2476 71.8178 67.0862C71.9347 66.9247 72.0996 66.8042 72.289 66.742V66.7041ZM72.289 66.0889C71.9903 66.0945 71.7 66.1883 71.4545 66.3585C71.209 66.5287 71.0193 66.7677 70.9093 67.0454C70.7993 67.3231 70.7739 67.6272 70.8363 67.9193C70.8986 68.2115 71.046 68.4786 71.2599 68.6872C71.4737 68.8958 71.7444 69.0365 72.038 69.0916C72.3316 69.1467 72.635 69.1138 72.9099 68.9969C73.1848 68.88 73.419 68.6845 73.5831 68.4348C73.7471 68.1852 73.8337 67.8926 73.8319 67.5939C73.8294 67.1939 73.6687 66.8111 73.3849 66.5291C73.1012 66.2471 72.7174 66.0889 72.3174 66.0889H72.289Z" fill="#17262F"></path><path d="M72.3079 71.5032C72.4294 71.4955 72.5513 71.5127 72.6659 71.5539C72.7805 71.5952 72.8854 71.6595 72.9741 71.7429C73.0628 71.8263 73.1335 71.927 73.1817 72.0389C73.2299 72.1507 73.2547 72.2712 73.2545 72.393C73.2549 72.6345 73.163 72.867 72.9976 73.043C72.8322 73.219 72.6058 73.3251 72.3647 73.3396C72.1753 73.2773 72.0104 73.1569 71.8935 72.9954C71.7766 72.8339 71.7137 72.6397 71.7137 72.4403C71.7137 72.241 71.7766 72.0467 71.8935 71.8853C72.0104 71.7238 72.1753 71.6033 72.3647 71.5411L72.3079 71.5032ZM72.3079 70.888C72.0084 70.8898 71.7161 70.9805 71.4681 71.1485C71.2201 71.3164 71.0275 71.5542 70.9146 71.8316C70.8017 72.1091 70.7736 72.4138 70.8339 72.7072C70.8941 73.0006 71.0401 73.2695 71.2532 73.48C71.4663 73.6905 71.7371 73.8331 72.0312 73.8897C72.3253 73.9463 72.6297 73.9144 72.9057 73.798C73.1817 73.6817 73.417 73.4861 73.5819 73.236C73.7467 72.9859 73.8337 72.6925 73.8319 72.393C73.8319 72.1946 73.7926 71.9981 73.7164 71.8149C73.6402 71.6316 73.5285 71.4653 73.3877 71.3254C73.2469 71.1855 73.0799 71.0749 72.8962 70.9998C72.7125 70.9247 72.5158 70.8867 72.3174 70.888H72.3079Z" fill="#17262F"></path><path d="M61.6212 66.7515C61.8106 66.8138 61.9755 66.9342 62.0924 67.0957C62.2093 67.2572 62.2722 67.4514 62.2722 67.6508C62.2722 67.8501 62.2093 68.0444 62.0924 68.2058C61.9755 68.3673 61.8106 68.4877 61.6212 68.55C61.3852 68.55 61.1589 68.4563 60.992 68.2894C60.8252 68.1225 60.7314 67.8962 60.7314 67.6602C60.731 67.4187 60.8229 67.1862 60.9883 67.0102C61.1537 66.8342 61.3801 66.7282 61.6212 66.7137V66.7515ZM61.6212 66.1363C61.4233 66.1386 61.2278 66.1799 61.0459 66.2578C60.864 66.3358 60.6992 66.4489 60.5611 66.5906C60.4194 66.7298 60.3078 66.8965 60.2329 67.0805C60.158 67.2644 60.1215 67.4617 60.1256 67.6602C60.1275 67.9598 60.2182 68.252 60.3861 68.5C60.5541 68.748 60.7918 68.9407 61.0693 69.0535C61.3467 69.1664 61.6514 69.1945 61.9449 69.1342C62.2383 69.074 62.5072 68.9281 62.7177 68.7149C62.9282 68.5018 63.0707 68.2311 63.1273 67.9369C63.1839 67.6428 63.152 67.3385 63.0357 67.0624C62.9193 66.7864 62.7237 66.5511 62.4736 66.3862C62.2236 66.2214 61.9302 66.1344 61.6307 66.1363H61.6212Z" fill="#17262F"></path><path d="M61.6496 71.5506C61.839 71.6128 62.0039 71.7333 62.1208 71.8947C62.2377 72.0562 62.3006 72.2505 62.3006 72.4498C62.3006 72.6491 62.2377 72.8434 62.1208 73.0049C62.0039 73.1663 61.839 73.2868 61.6496 73.349C61.4602 73.2868 61.2953 73.1663 61.1784 73.0049C61.0615 72.8434 60.9986 72.6491 60.9986 72.4498C60.9986 72.2505 61.0615 72.0562 61.1784 71.8947C61.2953 71.7333 61.4602 71.6128 61.6496 71.5506ZM61.6496 70.9353C61.2479 70.9353 60.8627 71.0949 60.5787 71.3789C60.2947 71.6629 60.1351 72.0481 60.1351 72.4498C60.1351 72.8515 60.2947 73.2367 60.5787 73.5207C60.8627 73.8047 61.2479 73.9643 61.6496 73.9643C62.0513 73.9643 62.4365 73.8047 62.7205 73.5207C63.0045 73.2367 63.1641 72.8515 63.1641 72.4498C63.1641 72.0481 63.0045 71.6629 62.7205 71.3789C62.4365 71.0949 62.0513 70.9353 61.6496 70.9353Z" fill="#17262F"></path><path d="M67.0261 67.6223C67.2154 67.6846 67.3803 67.805 67.4972 67.9665C67.6141 68.128 67.6771 68.3222 67.6771 68.5216C67.6771 68.7209 67.6141 68.9152 67.4972 69.0767C67.3803 69.2381 67.2154 69.3586 67.0261 69.4208C66.7901 69.4208 66.5638 69.3271 66.3969 69.1602C66.23 68.9933 66.1363 68.767 66.1363 68.531C66.1359 68.2895 66.2278 68.057 66.3932 67.881C66.5586 67.7051 66.785 67.599 67.0261 67.5845V67.6223ZM67.0261 67.0071C66.7261 67.0071 66.4329 67.0962 66.1837 67.263C65.9344 67.4298 65.7403 67.6669 65.626 67.9442C65.5116 68.2215 65.4822 68.5265 65.5414 68.8205C65.6006 69.1146 65.7458 69.3844 65.9585 69.5958C66.1713 69.8073 66.442 69.9508 66.7364 70.0081C67.0308 70.0655 67.3357 70.0341 67.6122 69.9181C67.8888 69.802 68.1247 69.6064 68.2899 69.3561C68.4552 69.1058 68.5424 68.812 68.5406 68.5121C68.5381 68.1121 68.3774 67.7293 68.0936 67.4473C67.8099 67.1653 67.4261 67.0071 67.0261 67.0071Z" fill="#17262F"></path><path d="M67.045 72.2605C67.1872 72.2138 67.3384 72.2014 67.4863 72.2245C67.6341 72.2475 67.7744 72.3053 67.8956 72.393C68.0169 72.4808 68.1155 72.596 68.1836 72.7293C68.2516 72.8626 68.2871 73.0101 68.2871 73.1598C68.2871 73.3094 68.2516 73.4569 68.1836 73.5902C68.1155 73.7235 68.0169 73.8387 67.8956 73.9265C67.7744 74.0142 67.6341 74.072 67.4863 74.095C67.3384 74.1181 67.1872 74.1057 67.045 74.059C66.8556 73.9967 66.6907 73.8763 66.5738 73.7148C66.4569 73.5534 66.394 73.3591 66.394 73.1598C66.394 72.9604 66.4569 72.7662 66.5738 72.6047C66.6907 72.4432 66.8556 72.3228 67.045 72.2605ZM67.045 71.6453C66.8462 71.6451 66.6493 71.6843 66.4657 71.7607C66.2821 71.837 66.1155 71.949 65.9754 72.0901C65.6941 72.3787 65.5377 72.7663 65.54 73.1692C65.5418 73.4684 65.6323 73.7602 65.7998 74.008C65.9673 74.2559 66.2045 74.4485 66.4814 74.5617C66.7583 74.6749 67.0625 74.7035 67.3557 74.644C67.6489 74.5845 67.9178 74.4395 68.1287 74.2273C68.3396 74.0152 68.4829 73.7453 68.5405 73.4518C68.5982 73.1582 68.5677 72.8542 68.4528 72.578C68.3379 72.3018 68.1437 72.0659 67.8949 71.8999C67.646 71.7339 67.3536 71.6453 67.0545 71.6453H67.045Z" fill="#17262F"></path><path d="M67.0072 65.9092C66.254 65.9092 65.5317 65.6101 64.9992 65.0775C64.4666 64.545 64.1675 63.8227 64.1675 63.0696V60.5328C64.1666 60.4519 64.1971 60.3739 64.2527 60.3151C64.312 60.2591 64.389 60.2257 64.4704 60.2204H69.5345C69.5749 60.217 69.6155 60.2229 69.6532 60.2377C69.691 60.2525 69.7248 60.2757 69.7522 60.3056C69.7801 60.3344 69.802 60.3685 69.8166 60.4059C69.8313 60.4433 69.8383 60.4832 69.8374 60.5233V63.0506C69.8374 63.8038 69.5382 64.5261 69.0057 65.0586C68.4731 65.5911 67.7508 65.8903 66.9977 65.8903L67.0072 65.9092ZM64.7638 60.8641V63.0885C64.7717 63.6758 65.0096 64.2365 65.4264 64.6503C65.8518 65.0588 66.4174 65.2891 67.0072 65.294C67.5955 65.2841 68.1565 65.0433 68.569 64.6237C68.9816 64.204 69.2127 63.6391 69.2126 63.0506V60.8262L64.7638 60.8641Z" fill="#17262F"></path><path d="M67.0071 64.9057C66.7796 64.8998 66.5555 64.8491 66.3477 64.7565C66.1398 64.6639 65.9521 64.5313 65.7955 64.3662C65.4895 64.0517 65.3165 63.6312 65.3128 63.1924C65.3103 62.9662 65.3524 62.7417 65.4367 62.5317C65.5209 62.3217 65.6457 62.1304 65.804 61.9687C65.9622 61.8069 66.1507 61.678 66.3588 61.5891C66.5668 61.5002 66.7904 61.4532 67.0166 61.4507C67.241 61.4489 67.4636 61.4915 67.6715 61.576C67.8794 61.6604 68.0686 61.7852 68.2282 61.943C68.4705 62.183 68.6366 62.4892 68.7056 62.8232C68.7746 63.1572 68.7435 63.5042 68.6161 63.8205C68.4888 64.1369 68.2708 64.4087 67.9897 64.6017C67.7085 64.7948 67.3766 64.9005 67.0355 64.9057H67.0071ZM67.0071 62.066C66.8617 62.0672 66.7179 62.0971 66.584 62.1539C66.4501 62.2107 66.3287 62.2933 66.2268 62.3971C66.1248 62.5008 66.0443 62.6236 65.9898 62.7584C65.9353 62.8933 65.9079 63.0375 65.9091 63.1829C65.9075 63.3296 65.9361 63.4751 65.9931 63.6102C66.0501 63.7454 66.1343 63.8674 66.2404 63.9686C66.4519 64.1717 66.7328 64.2868 67.0261 64.2904C67.1743 64.2917 67.3214 64.2634 67.4586 64.2073C67.5958 64.1511 67.7205 64.0682 67.8254 63.9633C67.9302 63.8585 68.0131 63.7338 68.0693 63.5966C68.1255 63.4593 68.1537 63.3123 68.1525 63.164C68.1475 62.8711 68.0276 62.5918 67.8187 62.3864C67.6098 62.181 67.3285 62.066 67.0355 62.066H67.0071Z" fill="#17262F"></path><path d="M64.0539 59.5009C64.0137 59.5018 63.9738 59.4948 63.9365 59.4801C63.8991 59.4655 63.865 59.4436 63.8362 59.4157C63.778 59.3578 63.7442 59.28 63.7415 59.198C63.7352 58.8845 63.7915 58.5729 63.9071 58.2815C64.0228 57.99 64.1954 57.7246 64.4149 57.5007C64.6344 57.2768 64.8963 57.0989 65.1854 56.9775C65.4745 56.8561 65.7849 56.7936 66.0984 56.7937H67.8496C68.4699 56.794 69.0651 57.0389 69.5061 57.4752C69.7291 57.6933 69.906 57.954 70.0264 58.2418C70.1467 58.5296 70.2079 58.8387 70.2065 59.1506C70.2065 59.231 70.1746 59.308 70.1178 59.3648C70.061 59.4216 69.984 59.4535 69.9036 59.4535H64.0539V59.5009ZM66.0984 57.4374C65.6858 57.4375 65.2862 57.5825 64.9696 57.8473C64.653 58.112 64.4395 58.4795 64.3662 58.8856H69.5439C69.488 58.5267 69.3189 58.195 69.0612 57.939C68.9003 57.7764 68.7086 57.6474 68.4973 57.5597C68.2861 57.4719 68.0594 57.4271 67.8307 57.4279H66.0984V57.4374Z" fill="#17262F"></path><path d="M75.9332 57.5887C75.8734 57.5901 75.8145 57.5738 75.764 57.5418C75.7135 57.5098 75.6735 57.4636 75.6493 57.4089C75.6174 57.3335 75.6164 57.2486 75.6465 57.1725C75.6766 57.0964 75.7354 57.0351 75.8102 57.0019L80.3253 55.1087C80.3624 55.0917 80.4027 55.0823 80.4436 55.0812C80.4844 55.0801 80.5251 55.0872 80.5632 55.1023C80.6012 55.1173 80.6358 55.1399 80.6649 55.1687C80.6939 55.1974 80.7169 55.2318 80.7323 55.2697C80.7617 55.3453 80.7615 55.4293 80.7317 55.5047C80.7018 55.5802 80.6446 55.6416 80.5714 55.6767L76.0563 57.5698C76.0172 57.5851 75.9751 57.5916 75.9332 57.5887Z" fill="#17262F"></path><path d="M74.1537 53.4051C74.0931 53.4045 74.034 53.3863 73.9836 53.3526C73.9331 53.319 73.8936 53.2715 73.8697 53.2158C73.8541 53.1791 73.8459 53.1397 73.8456 53.0999C73.8452 53.0601 73.8528 53.0205 73.8677 52.9836C73.8827 52.9467 73.9047 52.9131 73.9327 52.8847C73.9607 52.8563 73.9939 52.8337 74.0306 52.8182L77.5045 51.3321C77.5772 51.3118 77.6549 51.3184 77.723 51.3509C77.7912 51.3834 77.8453 51.4394 77.8753 51.5087C77.9054 51.578 77.9093 51.6558 77.8864 51.7278C77.8634 51.7997 77.8152 51.8609 77.7506 51.9001L74.2673 53.3767L74.1537 53.4051Z" fill="#17262F"></path><path d="M41.0808 27.6869C40.9999 27.6878 40.9219 27.6572 40.8631 27.6017C40.8339 27.5735 40.8107 27.5397 40.7948 27.5023C40.779 27.4649 40.7708 27.4247 40.7708 27.384C40.7708 27.3434 40.779 27.3032 40.7948 27.2658C40.8107 27.2284 40.8339 27.1946 40.8631 27.1663L48.0191 20.0292L45.6527 17.6628L35.6949 27.6017C35.6347 27.6443 35.5614 27.6642 35.488 27.658C35.4145 27.6518 35.3457 27.6198 35.2935 27.5676C35.2414 27.5155 35.2094 27.4467 35.2032 27.3732C35.1969 27.2998 35.2169 27.2265 35.2594 27.1663L45.435 17.0381C45.4632 17.0089 45.4971 16.9857 45.5345 16.9698C45.5719 16.954 45.6121 16.9458 45.6527 16.9458C45.6933 16.9458 45.7335 16.954 45.7709 16.9698C45.8083 16.9857 45.8422 17.0089 45.8704 17.0381L48.7101 19.8778C48.7691 19.9351 48.8031 20.0133 48.8048 20.0955C48.7995 20.1769 48.766 20.2539 48.7101 20.3132L41.3364 27.6585C41.2978 27.6801 41.2553 27.6937 41.2115 27.6985C41.1676 27.7034 41.1231 27.6995 41.0808 27.6869Z" fill="#17262F"></path><path d="M47.7067 19.5937C47.6658 19.5946 47.6251 19.5866 47.5875 19.5703C47.5499 19.5539 47.5163 19.5296 47.489 19.4991C47.4601 19.4717 47.4371 19.4386 47.4213 19.402C47.4056 19.3654 47.3974 19.326 47.3974 19.2861C47.3974 19.2463 47.4056 19.2068 47.4213 19.1702C47.4371 19.1336 47.4601 19.1006 47.489 19.0731L56.0081 10.6014C56.0344 10.5643 56.0684 10.5333 56.1079 10.5107C56.1474 10.4882 56.1913 10.4745 56.2366 10.4706C56.2819 10.4668 56.3275 10.4728 56.3703 10.4885C56.413 10.5041 56.4518 10.5288 56.4839 10.561C56.5161 10.5931 56.5408 10.6319 56.5565 10.6746C56.5721 10.7174 56.5782 10.763 56.5743 10.8083C56.5705 10.8536 56.5568 10.8975 56.5342 10.937C56.5116 10.9765 56.4806 11.0106 56.4435 11.0368L47.9244 19.5559C47.8589 19.5946 47.7815 19.6081 47.7067 19.5937Z" fill="#17262F"></path><path d="M46.3815 18.2876C46.3408 18.2873 46.3004 18.2787 46.263 18.2624C46.2256 18.2462 46.1919 18.2225 46.1638 18.1929C46.1099 18.1351 46.08 18.059 46.08 17.9799C46.08 17.9009 46.1099 17.8248 46.1638 17.7669L55.0994 8.85033C55.1577 8.79366 55.2358 8.76196 55.3171 8.76196C55.3984 8.76196 55.4765 8.79366 55.5348 8.85033C55.564 8.87858 55.5872 8.91241 55.6031 8.94981C55.6189 8.98721 55.6271 9.02742 55.6271 9.06804C55.6271 9.10866 55.6189 9.14887 55.6031 9.18627C55.5872 9.22368 55.564 9.25751 55.5348 9.28575L46.5993 18.2024C46.5404 18.2579 46.4624 18.2884 46.3815 18.2876Z" fill="#17262F"></path><path d="M81.4044 103.705H23.8534C23.8128 103.707 23.7724 103.7 23.7345 103.685C23.6967 103.67 23.6622 103.648 23.633 103.62C23.6039 103.592 23.5807 103.558 23.5649 103.521C23.5491 103.483 23.541 103.443 23.541 103.402V93.7569C23.541 93.6741 23.5739 93.5947 23.6325 93.5361C23.6911 93.4775 23.7705 93.4446 23.8534 93.4446H81.4044C81.4449 93.4446 81.4851 93.4527 81.5225 93.4685C81.5599 93.4843 81.5937 93.5075 81.622 93.5366C81.6502 93.5658 81.6723 93.6003 81.687 93.6381C81.7016 93.676 81.7085 93.7164 81.7073 93.7569V103.402C81.7073 103.483 81.6753 103.56 81.6185 103.617C81.5617 103.673 81.4847 103.705 81.4044 103.705ZM24.1847 103.09H81.0636V94.0693H24.1563L24.1847 103.09Z" fill="#17262F"></path><path d="M80.2306 98.84H47.8393C47.7987 98.84 47.7585 98.8319 47.7211 98.8161C47.6837 98.8003 47.6499 98.7771 47.6217 98.748C47.5934 98.7189 47.5713 98.6843 47.5566 98.6465C47.542 98.6086 47.5351 98.5682 47.5364 98.5277C47.5364 98.4473 47.5683 98.3703 47.6251 98.3135C47.6819 98.2567 47.7589 98.2248 47.8393 98.2248H80.2306C80.2712 98.2235 80.3116 98.2304 80.3494 98.245C80.3873 98.2597 80.4218 98.2818 80.4509 98.3101C80.4801 98.3383 80.5032 98.3721 80.5191 98.4095C80.5349 98.4469 80.543 98.4871 80.543 98.5277C80.543 98.6105 80.5101 98.69 80.4515 98.7485C80.3929 98.8071 80.3135 98.84 80.2306 98.84Z" fill="#17262F"></path><path d="M39.7556 98.84H24.9892C24.9064 98.84 24.8269 98.8071 24.7684 98.7485C24.7098 98.69 24.6769 98.6105 24.6769 98.5277C24.6769 98.4871 24.685 98.4469 24.7008 98.4095C24.7166 98.3721 24.7398 98.3383 24.7689 98.3101C24.7981 98.2818 24.8326 98.2597 24.8704 98.245C24.9083 98.2304 24.9487 98.2235 24.9892 98.2248H39.7556C39.836 98.2248 39.913 98.2567 39.9698 98.3135C40.0266 98.3703 40.0585 98.4473 40.0585 98.5277C40.0598 98.5682 40.0529 98.6086 40.0382 98.6465C40.0236 98.6843 40.0015 98.7189 39.9732 98.748C39.945 98.7771 39.9111 98.8003 39.8738 98.8161C39.8364 98.8319 39.7962 98.84 39.7556 98.84Z" fill="#17262F"></path><path d="M34.3886 65.3602C34.348 65.3602 34.3078 65.3521 34.2705 65.3363C34.2331 65.3205 34.1993 65.2973 34.171 65.2682C34.1428 65.239 34.1206 65.2045 34.106 65.1667C34.0913 65.1288 34.0844 65.0884 34.0857 65.0478V57.3617H18.6283V65.0478C18.6363 65.0928 18.6342 65.1389 18.6224 65.1829C18.6106 65.227 18.5893 65.2679 18.56 65.3028C18.5307 65.3378 18.494 65.3658 18.4527 65.3851C18.4114 65.4044 18.3663 65.4144 18.3207 65.4144C18.2751 65.4144 18.2301 65.4044 18.1887 65.3851C18.1474 65.3658 18.1108 65.3378 18.0814 65.3028C18.0521 65.2679 18.0308 65.227 18.019 65.1829C18.0072 65.1389 18.0052 65.0928 18.0131 65.0478V57.0494C18.0131 57.0096 18.0209 56.9702 18.0361 56.9335C18.0514 56.8967 18.0737 56.8633 18.1018 56.8352C18.1299 56.8071 18.1633 56.7848 18.2001 56.7695C18.2368 56.7543 18.2762 56.7465 18.316 56.7465H34.4075C34.4481 56.7452 34.4885 56.7521 34.5264 56.7668C34.5642 56.7814 34.5987 56.8035 34.6279 56.8318C34.657 56.86 34.6802 56.8939 34.696 56.9312C34.7118 56.9686 34.7199 57.0088 34.7199 57.0494V65.0478C34.72 65.0905 34.7113 65.1327 34.6945 65.1719C34.6776 65.2111 34.6529 65.2464 34.6218 65.2757C34.5908 65.3049 34.5541 65.3275 34.514 65.3421C34.4739 65.3566 34.4312 65.3628 34.3886 65.3602Z" fill="#17262F"></path><path d="M30.1007 57.3616C30.0601 57.3616 30.0199 57.3534 29.9825 57.3376C29.9452 57.3218 29.9113 57.2987 29.8831 57.2695C29.8548 57.2404 29.8327 57.2059 29.8181 57.168C29.8034 57.1302 29.7965 57.0898 29.7978 57.0492V35.8841H22.9163V57.0492C22.9175 57.0898 22.9106 57.1302 22.896 57.168C22.8813 57.2059 22.8592 57.2404 22.831 57.2695C22.8027 57.2987 22.7689 57.3218 22.7315 57.3376C22.6941 57.3534 22.654 57.3616 22.6134 57.3616C22.5305 57.3616 22.4511 57.3287 22.3925 57.2701C22.3339 57.2115 22.301 57.132 22.301 57.0492V35.5812C22.301 35.4983 22.3339 35.4189 22.3925 35.3603C22.4511 35.3017 22.5305 35.2688 22.6134 35.2688H30.1007C30.1417 35.2688 30.1823 35.2769 30.2202 35.2926C30.2581 35.3083 30.2926 35.3313 30.3216 35.3603C30.3506 35.3893 30.3736 35.4237 30.3893 35.4616C30.405 35.4995 30.4131 35.5401 30.4131 35.5812V57.0492C30.4131 57.132 30.3801 57.2115 30.3216 57.2701C30.263 57.3287 30.1835 57.3616 30.1007 57.3616Z" fill="#17262F"></path><path d="M48.2084 33.7545H30.7443C30.7038 33.7558 30.6634 33.7489 30.6255 33.7342C30.5877 33.7196 30.5531 33.6975 30.524 33.6692C30.4949 33.641 30.4717 33.6072 30.4559 33.5698C30.4401 33.5324 30.432 33.4922 30.432 33.4516C30.432 33.3688 30.4649 33.2893 30.5235 33.2308C30.582 33.1722 30.6615 33.1393 30.7443 33.1393H47.896V28.7661H29.457C29.3767 28.7661 29.2996 28.7342 29.2428 28.6774C29.186 28.6206 29.1541 28.5436 29.1541 28.4632C29.1528 28.4227 29.1597 28.3823 29.1744 28.3444C29.189 28.3066 29.2112 28.2721 29.2394 28.2429C29.2677 28.2138 29.3015 28.1906 29.3389 28.1748C29.3762 28.159 29.4164 28.1509 29.457 28.1509H48.2084C48.249 28.1509 48.2892 28.159 48.3266 28.1748C48.3639 28.1906 48.3978 28.2138 48.426 28.2429C48.4543 28.2721 48.4764 28.3066 48.491 28.3444C48.5057 28.3823 48.5126 28.4227 48.5113 28.4632V33.4516C48.5113 33.532 48.4794 33.609 48.4226 33.6658C48.3658 33.7226 48.2887 33.7545 48.2084 33.7545Z" fill="#17262F"></path><path d="M66.6191 32.4292H48.2084C48.1256 32.4292 48.0461 32.3963 47.9875 32.3377C47.929 32.2791 47.8961 32.1997 47.8961 32.1168C47.8961 32.034 47.929 31.9545 47.9875 31.8959C48.0461 31.8374 48.1256 31.8044 48.2084 31.8044H66.6191C66.7019 31.8044 66.7814 31.8374 66.8399 31.8959C66.8985 31.9545 66.9314 32.034 66.9314 32.1168C66.9314 32.1997 66.8985 32.2791 66.8399 32.3377C66.7814 32.3963 66.7019 32.4292 66.6191 32.4292Z" fill="#17262F"></path><path d="M65.4737 30.1007H48.2084C48.1635 30.1086 48.1174 30.1066 48.0734 30.0948C48.0293 30.083 47.9884 30.0617 47.9534 30.0323C47.9185 30.003 47.8904 29.9664 47.8711 29.9251C47.8519 29.8837 47.8419 29.8387 47.8419 29.7931C47.8419 29.7475 47.8519 29.7024 47.8711 29.6611C47.8904 29.6197 47.9185 29.5831 47.9534 29.5538C47.9884 29.5245 48.0293 29.5032 48.0734 29.4914C48.1174 29.4796 48.1635 29.4775 48.2084 29.4854H65.4737C65.5461 29.4982 65.6116 29.536 65.6588 29.5923C65.706 29.6485 65.7319 29.7196 65.7319 29.7931C65.7319 29.8665 65.706 29.9376 65.6588 29.9939C65.6116 30.0502 65.5461 30.088 65.4737 30.1007Z" fill="#17262F"></path><path d="M39.9355 84.5469C39.8551 84.5469 39.7781 84.515 39.7213 84.4582C39.6645 84.4014 39.6326 84.3243 39.6326 84.244V77.3341C39.633 74.0296 38.3791 70.8482 36.1244 68.4325C33.8697 66.0168 30.7822 64.5469 27.4855 64.3198C24.1889 64.0926 20.9289 65.1252 18.3642 67.2088C15.7995 69.2924 14.1212 72.2718 13.6684 75.5451C13.667 75.5889 13.6565 75.632 13.6374 75.6714C13.6184 75.7109 13.5912 75.746 13.5577 75.7742C13.5242 75.8025 13.4852 75.8235 13.443 75.8357C13.4009 75.8479 13.3567 75.8511 13.3133 75.845C13.2699 75.839 13.2282 75.8239 13.191 75.8008C13.1538 75.7776 13.1218 75.7468 13.0973 75.7105C13.0728 75.6742 13.0561 75.6331 13.0485 75.5899C13.0409 75.5467 13.0425 75.5024 13.0531 75.4599C13.5175 72.0215 15.273 68.8888 17.9631 66.6976C20.6533 64.5065 24.0764 63.4212 27.5376 63.6621C30.9988 63.9031 34.2386 65.4522 36.5992 67.9949C38.9598 70.5377 40.2643 73.8835 40.2478 77.353V84.244C40.2478 84.2846 40.2397 84.3248 40.2239 84.3621C40.2081 84.3995 40.1849 84.4333 40.1558 84.4616C40.1267 84.4898 40.0921 84.512 40.0543 84.5266C40.0164 84.5413 39.976 84.5482 39.9355 84.5469Z" fill="#17262F"></path><path d="M26.5889 81.4044C25.0341 81.4044 23.5428 80.7874 22.4425 79.6889C21.3422 78.5903 20.7228 77.1 20.7202 75.5452C20.7202 74.7745 20.872 74.0114 21.167 73.2994C21.4619 72.5873 21.8942 71.9404 22.4391 71.3954C22.9841 70.8505 23.6311 70.4182 24.3431 70.1232C25.0551 69.8283 25.8182 69.6765 26.5889 69.6765C27.3596 69.6765 28.1228 69.8283 28.8348 70.1232C29.5468 70.4182 30.1938 70.8505 30.7387 71.3954C31.2837 71.9404 31.716 72.5873 32.0109 73.2994C32.3058 74.0114 32.4576 74.7745 32.4576 75.5452C32.4526 77.0993 31.8324 78.5881 30.7326 79.6861C29.6328 80.7841 28.143 81.4019 26.5889 81.4044ZM21.3355 75.5357C21.3355 76.929 21.889 78.2653 22.8742 79.2505C23.8594 80.2357 25.1956 80.7892 26.5889 80.7892C27.9822 80.7892 29.3185 80.2357 30.3037 79.2505C31.2889 78.2653 31.8424 76.929 31.8424 75.5357C31.8373 75.5254 31.8347 75.5141 31.8347 75.5026C31.8347 75.4911 31.8373 75.4798 31.8424 75.4695C31.8424 74.0762 31.2889 72.74 30.3037 71.7547C29.3185 70.7695 27.9822 70.2161 26.5889 70.2161C25.1956 70.2161 23.8594 70.7695 22.8742 71.7547C21.889 72.74 21.3355 74.0762 21.3355 75.4695V75.5357Z" fill="#17262F"></path><path d="M26.5889 78.1482C26.0643 78.1482 25.5515 77.9925 25.1155 77.7008C24.6794 77.4092 24.3397 76.9947 24.1394 76.5098C23.9391 76.025 23.8872 75.4916 23.9902 74.9772C24.0932 74.4629 24.3466 73.9906 24.7182 73.6203C25.0898 73.2501 25.5629 72.9984 26.0777 72.8972C26.5924 72.796 27.1256 72.8498 27.6098 73.0519C28.0939 73.2539 28.5072 73.5951 28.7972 74.0322C29.0873 74.4693 29.2412 74.9827 29.2393 75.5072C29.2393 75.8549 29.1707 76.199 29.0374 76.5201C28.9041 76.8411 28.7087 77.1327 28.4625 77.378C28.2162 77.6234 27.924 77.8177 27.6025 77.9499C27.281 78.082 26.9365 78.1494 26.5889 78.1482ZM26.5889 73.4721C26.1876 73.4722 25.7953 73.5909 25.4613 73.8132C25.1273 74.0356 24.8664 74.3518 24.7116 74.722C24.5568 75.0923 24.5148 75.5 24.5911 75.894C24.6673 76.2879 24.8584 76.6506 25.1402 76.9363C25.4219 77.222 25.7819 77.418 26.1748 77.4997C26.5677 77.5814 26.9759 77.5452 27.3483 77.3955C27.7206 77.2458 28.0403 76.9894 28.2673 76.6585C28.4943 76.3275 28.6184 75.9369 28.624 75.5357C28.6278 75.266 28.5779 74.9983 28.4774 74.7481C28.3768 74.4979 28.2275 74.2702 28.0381 74.0782C27.8487 73.8862 27.6231 73.7338 27.3743 73.6297C27.1256 73.5257 26.8586 73.4721 26.5889 73.4721Z" fill="#17262F"></path><path d="M29.3434 34.2749H23.3138C23.2737 34.2762 23.2337 34.2693 23.1964 34.2545C23.159 34.2398 23.1251 34.2175 23.0967 34.1891C23.0683 34.1607 23.0461 34.1268 23.0313 34.0895C23.0165 34.0521 23.0096 34.0121 23.0109 33.972V30.9241C23.0159 30.0453 23.3679 29.2041 23.9901 28.5836C24.6124 27.9631 25.4546 27.6136 26.3334 27.6111C27.2095 27.6076 28.0522 27.9474 28.6808 28.5577C28.9867 28.8683 29.2279 29.2367 29.3904 29.6412C29.5529 30.0458 29.6335 30.4787 29.6274 30.9146V33.9341C29.6222 34.0155 29.5887 34.0925 29.5327 34.1519C29.4879 34.2157 29.42 34.2598 29.3434 34.2749ZM23.6641 33.6312H29.0784V30.9525C29.0768 30.2424 28.7944 29.5619 28.2927 29.0594C27.791 28.5542 27.1115 28.2655 26.3996 28.2548C25.6928 28.2718 25.0177 28.552 24.5065 29.0404C24.2534 29.2868 24.0519 29.581 23.9138 29.9061C23.7757 30.2311 23.7036 30.5804 23.7019 30.9335L23.6641 33.6312Z" fill="#17262F"></path><path d="M26.3712 32.808C25.8415 32.808 25.3335 32.5975 24.959 32.223C24.5844 31.8484 24.374 31.3404 24.374 30.8107C24.374 30.281 24.5844 29.773 24.959 29.3985C25.3335 29.0239 25.8415 28.8135 26.3712 28.8135C26.6334 28.8135 26.893 28.8653 27.135 28.966C27.3771 29.0667 27.5968 29.2143 27.7816 29.4003C27.9692 29.5854 28.1172 29.8067 28.2164 30.0508C28.3157 30.2949 28.3642 30.5567 28.359 30.8202C28.359 31.0824 28.3072 31.3419 28.2065 31.584C28.1057 31.8261 27.9581 32.0458 27.7721 32.2306C27.398 32.5979 26.8955 32.805 26.3712 32.808ZM26.3712 32.1927C26.5477 32.1938 26.7225 32.1591 26.8852 32.0908C27.0479 32.0225 27.195 31.9219 27.3178 31.7951C27.5721 31.545 27.7182 31.2052 27.7248 30.8486C27.7159 30.4943 27.574 30.1564 27.3273 29.902C27.0771 29.6477 26.7373 29.5016 26.3807 29.495C26.0283 29.5125 25.6933 29.6532 25.4341 29.8926C25.1798 30.1427 25.0337 30.4825 25.0271 30.8391C25.036 31.1934 25.1779 31.5313 25.4247 31.7857C25.6748 32.04 26.0146 32.1861 26.3712 32.1927Z" fill="#17262F"></path><path d="M29.8451 34.3318H22.8689C22.7886 34.3318 22.7116 34.2999 22.6548 34.2431C22.598 34.1863 22.566 34.1093 22.566 34.0289C22.566 33.9461 22.599 33.8666 22.6575 33.808C22.7161 33.7495 22.7956 33.7166 22.8784 33.7166H29.8451C29.8857 33.7165 29.9259 33.7247 29.9632 33.7405C30.0006 33.7563 30.0344 33.7795 30.0627 33.8086C30.091 33.8377 30.1131 33.8722 30.1277 33.9101C30.1424 33.9479 30.1493 33.9884 30.148 34.0289C30.148 34.1093 30.1161 34.1863 30.0593 34.2431C30.0025 34.2999 29.9254 34.3318 29.8451 34.3318Z" fill="#17262F"></path><path d="M73.7656 43.5419C73.7283 43.5511 73.6893 43.5511 73.652 43.5419C73.6138 43.5287 73.5788 43.5075 73.5494 43.4798C73.5201 43.452 73.4969 43.4183 73.4816 43.3809L70.2349 35.8084C70.2189 35.7368 70.2286 35.6617 70.2623 35.5965C70.2961 35.5313 70.3518 35.48 70.4196 35.4518C70.4874 35.4235 70.563 35.4201 70.6331 35.442C70.7032 35.464 70.7633 35.5099 70.8029 35.5718L73.9265 42.8319L77.9399 41.0997L74.7784 33.868C74.7624 33.7963 74.7721 33.7213 74.8058 33.656C74.8396 33.5908 74.8953 33.5396 74.9631 33.5113C75.0309 33.4831 75.1065 33.4796 75.1766 33.5016C75.2467 33.5235 75.3068 33.5695 75.3464 33.6313L78.5836 41.2038C78.6155 41.2792 78.6164 41.3641 78.5863 41.4403C78.5563 41.5164 78.4975 41.5776 78.4227 41.6109L73.8886 43.5419H73.7656Z" fill="#17262F"></path><path d="M80.4578 55.6769C80.3966 55.6789 80.3364 55.6617 80.2855 55.6278C80.2345 55.5938 80.1955 55.5448 80.1738 55.4876L74.7027 42.8604C74.6708 42.785 74.6699 42.7001 74.6999 42.624C74.73 42.5479 74.7888 42.4866 74.8636 42.4534L76.9934 41.5068C77.0307 41.4904 77.071 41.4819 77.1117 41.4819C77.1524 41.4819 77.1927 41.4904 77.23 41.5068C77.3062 41.5402 77.367 41.6011 77.4004 41.6772L82.8621 54.3044C82.8785 54.3417 82.887 54.3819 82.887 54.4227C82.887 54.4634 82.8785 54.5037 82.8621 54.541C82.8489 54.5792 82.8277 54.6142 82.8 54.6436C82.7722 54.673 82.7386 54.6961 82.7011 54.7114L80.5714 55.658C80.5351 55.6717 80.4965 55.6781 80.4578 55.6769ZM75.4032 42.8983L80.6187 54.967L82.1805 54.2854L76.9555 42.2168L75.4032 42.8983Z" fill="#17262F"></path><path d="M71.191 34.7956C70.4813 34.797 69.7856 34.599 69.1831 34.2241C68.5806 33.8492 68.0956 33.3126 67.7833 32.6753L55.3266 7.4873C55.0236 6.85192 54.8522 6.16188 54.8226 5.4586C54.793 4.75532 54.9057 4.05331 55.1542 3.3947C55.4026 2.73609 55.7815 2.13447 56.2682 1.62594C56.7549 1.11741 57.3393 0.712465 57.9864 0.435409C58.6307 0.156862 59.3244 0.0107448 60.0264 0.00574788C60.7283 0.000750974 61.424 0.136977 62.0722 0.406322C62.7204 0.675667 63.3078 1.07263 63.7995 1.5736C64.2911 2.07456 64.677 2.6693 64.9342 3.32242L74.7784 29.6653C75.1229 30.5783 75.1016 31.589 74.7189 32.4867C74.3362 33.3844 73.6217 34.0996 72.7244 34.4833C72.2398 34.6907 71.718 34.797 71.191 34.7956ZM58.2231 1.00335C57.652 1.24617 57.1357 1.60155 56.7051 2.04829C56.2744 2.49503 55.9382 3.02396 55.7164 3.60351C55.4947 4.18306 55.392 4.80134 55.4144 5.42146C55.4369 6.04158 55.5841 6.65081 55.8472 7.21279L68.3323 32.4008C68.6933 33.1363 69.3234 33.7048 70.0921 33.9883C70.8607 34.2718 71.709 34.2488 72.4612 33.9238C73.2133 33.5989 73.8115 32.997 74.1319 32.2429C74.4523 31.4889 74.4703 30.6404 74.1821 29.8735L64.3662 3.54013C64.1373 2.96408 63.7949 2.43988 63.3595 1.99865C62.9241 1.55742 62.4045 1.20814 61.8316 0.97154C61.2586 0.73494 60.6439 0.615838 60.0241 0.621301C59.4042 0.626765 58.7918 0.756683 58.2231 1.00335Z" fill="#17262F"></path><path d="M60.173 9.53176C59.1746 9.532 58.2116 9.16186 57.4705 8.49298C56.7293 7.8241 56.2626 6.90405 56.1607 5.9109C56.0588 4.91774 56.329 3.9221 56.9189 3.11667C57.5089 2.31125 58.3766 1.75331 59.3543 1.55084C60.3319 1.34837 61.3499 1.51578 62.2112 2.02065C63.0725 2.52552 63.7159 3.33196 64.0168 4.28389C64.3178 5.23582 64.2549 6.26555 63.8403 7.17378C63.4257 8.08201 62.689 8.80416 61.7727 9.20046C61.2681 9.42044 60.7234 9.53326 60.173 9.53176ZM60.173 2.07285C59.4384 2.07596 58.7243 2.31572 58.1367 2.75657C57.5491 3.19743 57.1192 3.81591 56.9108 4.52031C56.7024 5.22472 56.7265 5.97754 56.9795 6.66716C57.2326 7.35679 57.7012 7.9465 58.3158 8.34885C58.9304 8.75121 59.6583 8.94479 60.3916 8.90089C61.1249 8.857 61.8245 8.57797 62.3867 8.10517C62.949 7.63236 63.3439 6.99097 63.5129 6.27608C63.6819 5.56119 63.616 4.81086 63.325 4.13636C63.057 3.52132 62.6149 2.99818 62.0531 2.63149C61.4912 2.2648 60.8344 2.0706 60.1635 2.07285H60.173Z" fill="#17262F"></path><path d="M71.2004 33.6123C70.5509 33.6159 69.9232 33.3783 69.4389 32.9455C68.9546 32.5127 68.6481 31.9155 68.579 31.2697C68.5098 30.6239 68.6827 29.9754 69.0644 29.4498C69.446 28.9242 70.0091 28.559 70.6447 28.4249C71.2802 28.2908 71.9429 28.3974 72.5043 28.7239C73.0658 29.0505 73.486 29.5738 73.6837 30.1926C73.8813 30.8113 73.8423 31.4813 73.5741 32.0729C73.3059 32.6645 72.8277 33.1355 72.2322 33.3946C71.9074 33.5389 71.5558 33.6131 71.2004 33.6123ZM71.2004 29.0026C70.9301 28.9995 70.6622 29.0544 70.4148 29.1635C70.0517 29.3196 69.7431 29.58 69.5281 29.9116C69.3131 30.2432 69.2013 30.6312 69.2069 31.0264C69.2124 31.4215 69.3351 31.8062 69.5594 32.1316C69.7837 32.457 70.0994 32.7086 70.4668 32.8545C70.8341 33.0003 71.2364 33.0339 71.6229 32.951C72.0093 32.8681 72.3624 32.6724 72.6376 32.3887C72.9127 32.105 73.0976 31.7461 73.1686 31.3573C73.2397 30.9685 73.1938 30.5674 73.0368 30.2047C72.8819 29.8447 72.624 29.5385 72.2956 29.3246C71.9672 29.1107 71.5829 28.9987 71.191 29.0026H71.2004Z" fill="#17262F"></path><path d="M60.173 7.3927C59.9334 7.39089 59.6962 7.346 59.4725 7.26018C59.1313 7.11898 58.8389 6.88108 58.6312 6.57577C58.4235 6.27047 58.3096 5.91109 58.3036 5.54188C58.2975 5.17268 58.3996 4.80977 58.5972 4.49784C58.7948 4.18591 59.0793 3.93858 59.4157 3.7863C59.8794 3.59435 60.4003 3.59435 60.864 3.7863C61.3198 3.95632 61.6926 4.29528 61.9052 4.73286C62.1071 5.18884 62.1209 5.70606 61.9437 6.17219C61.7665 6.63831 61.4125 7.01568 60.9586 7.22232C60.7119 7.3347 60.444 7.3928 60.173 7.3927ZM60.173 4.21225C59.9964 4.2127 59.822 4.25146 59.6618 4.32584C59.5078 4.39174 59.3684 4.4875 59.2516 4.60758C59.1348 4.72766 59.043 4.86969 58.9814 5.02546C58.9198 5.18123 58.8896 5.34766 58.8927 5.51514C58.8958 5.68262 58.932 5.84784 58.9992 6.00125C59.0637 6.15638 59.1591 6.29678 59.2795 6.41393C59.3999 6.53109 59.5429 6.62255 59.6997 6.68278C59.9347 6.77675 60.1924 6.7988 60.44 6.74613C60.6876 6.69346 60.9139 6.56844 61.0904 6.38693C61.2668 6.20542 61.3854 5.97561 61.431 5.72662C61.4766 5.47764 61.4473 5.22071 61.3467 4.98843C61.211 4.6786 60.9597 4.43404 60.6462 4.30691C60.4951 4.24821 60.335 4.21618 60.173 4.21225Z" fill="#17262F"></path><path d="M71.172 31.9749C71.0423 31.9727 70.914 31.947 70.7934 31.8992C70.5446 31.7981 70.3445 31.6048 70.2349 31.3597C70.1573 31.1738 70.1358 30.9692 70.1731 30.7712C70.2104 30.5733 70.3048 30.3906 70.4447 30.2456C70.5846 30.1007 70.7639 29.9999 70.9604 29.9556C71.1569 29.9114 71.3621 29.9256 71.5506 29.9966C71.676 30.0455 71.7902 30.1194 71.8862 30.2138C71.9822 30.3082 72.0581 30.4211 72.1091 30.5456C72.1609 30.6701 72.1876 30.8036 72.1876 30.9384C72.1876 31.0733 72.1609 31.2068 72.1091 31.3313C72.0049 31.5812 71.8082 31.7813 71.5601 31.8897C71.4376 31.9435 71.3057 31.9724 71.172 31.9749ZM71.172 30.5456C71.1188 30.5366 71.0644 30.5366 71.0111 30.5456C70.9618 30.5672 70.9173 30.5983 70.8801 30.6371C70.843 30.676 70.8138 30.7218 70.7945 30.772C70.7751 30.8221 70.7659 30.8756 70.7673 30.9294C70.7688 30.9832 70.7808 31.0361 70.8029 31.0852C70.8234 31.1341 70.8536 31.1784 70.8916 31.2155C70.9295 31.2526 70.9746 31.2817 71.024 31.3011C71.0734 31.3205 71.1262 31.3298 71.1792 31.3285C71.2323 31.3272 71.2846 31.3152 71.3329 31.2934C71.4318 31.2516 71.5101 31.1724 71.5509 31.0732C71.5916 30.9739 71.5916 30.8625 71.5506 30.7633C71.5179 30.6902 71.4647 30.6282 71.3976 30.5845C71.3304 30.5409 71.2521 30.5175 71.172 30.5172V30.5456Z" fill="#17262F"></path><path d="M78.7918 90.709H55.2982C55.2153 90.709 55.1359 90.6761 55.0773 90.6175C55.0187 90.5589 54.9858 90.4795 54.9858 90.3966V87.8788C54.9858 87.7959 55.0187 87.7165 55.0773 87.6579C55.1359 87.5993 55.2153 87.5664 55.2982 87.5664H78.7918C78.8324 87.5664 78.8726 87.5745 78.91 87.5903C78.9474 87.6061 78.9812 87.6293 79.0095 87.6584C79.0377 87.6876 79.0598 87.7221 79.0745 87.7599C79.0891 87.7978 79.096 87.8382 79.0947 87.8788V90.3966C79.096 90.4372 79.0891 90.4776 79.0745 90.5155C79.0598 90.5533 79.0377 90.5878 79.0095 90.617C78.9812 90.6461 78.9474 90.6692 78.91 90.6851C78.8726 90.7009 78.8324 90.709 78.7918 90.709ZM55.6105 90.0843H78.4795V88.1911H55.6105V90.0843Z" fill="#17262F"></path><path d="M51.3699 92.9807C51.2871 92.9807 51.2076 92.9478 51.1491 92.8892C51.0905 92.8306 51.0576 92.7512 51.0576 92.6683V90.3966C51.0576 90.3138 51.0905 90.2343 51.1491 90.1757C51.2076 90.1171 51.2871 90.0842 51.3699 90.0842H81.4044C81.4872 90.0842 81.5667 90.1171 81.6252 90.1757C81.6838 90.2343 81.7167 90.3138 81.7167 90.3966C81.7167 90.4794 81.6838 90.5589 81.6252 90.6175C81.5667 90.6761 81.4872 90.709 81.4044 90.709H51.6728V92.6683C51.6741 92.7089 51.6672 92.7493 51.6526 92.7872C51.6379 92.825 51.6158 92.8595 51.5875 92.8887C51.5593 92.9178 51.5255 92.941 51.4881 92.9568C51.4507 92.9726 51.4105 92.9807 51.3699 92.9807Z" fill="#17262F"></path><path d="M11.3587 110C8.49626 109.996 5.74104 108.91 3.64427 106.962C3.5986 106.903 3.5751 106.831 3.57795 106.757C3.5808 106.683 3.60982 106.612 3.65982 106.558C3.70983 106.503 3.77759 106.468 3.85102 106.459C3.92444 106.45 3.99877 106.467 4.06075 106.507C6.04021 108.328 8.63147 109.338 11.3209 109.338C14.0103 109.338 16.6016 108.328 18.581 106.507C18.643 106.467 18.7173 106.45 18.7908 106.459C18.8642 106.468 18.9319 106.503 18.9819 106.558C19.032 106.612 19.061 106.683 19.0638 106.757C19.0667 106.831 19.0432 106.903 18.9975 106.962C16.9199 108.893 14.1951 109.977 11.3587 110Z" fill="#17262F"></path><path d="M11.3587 108.05C9.88551 108.058 8.43171 107.714 7.11815 107.047C7.07574 107.032 7.03696 107.009 7.00447 106.978C6.97197 106.947 6.94652 106.909 6.92984 106.867C6.91316 106.826 6.90565 106.781 6.90781 106.736C6.90997 106.691 6.92176 106.648 6.94236 106.608C6.96297 106.568 6.99192 106.533 7.02724 106.505C7.06256 106.478 7.10342 106.458 7.14704 106.448C7.19066 106.437 7.23603 106.436 7.28004 106.445C7.32406 106.453 7.36569 106.472 7.40212 106.498C8.63004 107.114 9.9849 107.435 11.3587 107.435C12.7326 107.435 14.0875 107.114 15.3154 106.498C15.3518 106.472 15.3934 106.453 15.4375 106.445C15.4815 106.436 15.5268 106.437 15.5705 106.448C15.6141 106.458 15.6549 106.478 15.6903 106.505C15.7256 106.533 15.7545 106.568 15.7751 106.608C15.7957 106.648 15.8075 106.691 15.8097 106.736C15.8118 106.781 15.8043 106.826 15.7877 106.867C15.771 106.909 15.7455 106.947 15.713 106.978C15.6805 107.009 15.6418 107.032 15.5993 107.047C14.2858 107.714 12.832 108.058 11.3587 108.05Z" fill="#17262F"></path><path d="M19.9819 105.892H2.65984C1.95441 105.892 1.27787 105.612 0.779049 105.113C0.280232 104.614 0 103.937 0 103.232L0 88.0302C-4.52077e-06 87.3364 0.274939 86.6709 0.76461 86.1795C1.25428 85.688 1.91876 85.4107 2.61251 85.4082H22.3389C22.3795 85.4082 22.4196 85.4163 22.457 85.4321C22.4944 85.4479 22.5282 85.4711 22.5565 85.5002C22.5847 85.5294 22.6068 85.5639 22.6215 85.6017C22.6361 85.6396 22.643 85.68 22.6418 85.7206V103.194C22.6468 103.547 22.5817 103.897 22.4503 104.224C22.3189 104.551 22.1237 104.848 21.8762 105.099C21.6287 105.35 21.3338 105.55 21.0086 105.686C20.6834 105.822 20.3344 105.892 19.9819 105.892ZM2.61251 86.014C2.34899 86.0152 2.08828 86.0684 1.84529 86.1704C1.6023 86.2724 1.38178 86.4212 1.19632 86.6084C1.01086 86.7957 0.864086 87.0176 0.764389 87.2615C0.664692 87.5055 0.614019 87.7667 0.615265 88.0302V103.175C0.615265 103.717 0.830675 104.237 1.21411 104.621C1.59754 105.004 2.11758 105.22 2.65984 105.22H19.9819C20.5242 105.22 21.0442 105.004 21.4277 104.621C21.8111 104.237 22.0265 103.717 22.0265 103.175V86.0613L2.61251 86.014Z" fill="#17262F"></path><path d="M93.7097 110C90.8672 110.001 88.129 108.93 86.0425 106.999C86.0133 106.971 85.9901 106.937 85.9742 106.9C85.9584 106.862 85.9502 106.822 85.9502 106.782C85.9502 106.741 85.9584 106.701 85.9742 106.663C85.9901 106.626 86.0133 106.592 86.0425 106.564C86.1008 106.507 86.1789 106.476 86.2602 106.476C86.3415 106.476 86.4196 106.507 86.4779 106.564C88.4558 108.384 91.0455 109.394 93.7333 109.394C96.4212 109.394 99.0108 108.384 100.989 106.564C101.047 106.507 101.125 106.476 101.206 106.476C101.288 106.476 101.366 106.507 101.424 106.564C101.453 106.592 101.477 106.626 101.492 106.663C101.508 106.701 101.516 106.741 101.516 106.782C101.516 106.822 101.508 106.862 101.492 106.9C101.477 106.937 101.453 106.971 101.424 106.999C99.3251 108.94 96.5682 110.012 93.7097 110Z" fill="#17262F"></path><path d="M93.7097 108.05C92.2394 108.058 90.7887 107.714 89.4785 107.047C89.4057 107.01 89.3504 106.946 89.3246 106.869C89.2989 106.792 89.3049 106.708 89.3413 106.635C89.3777 106.562 89.4415 106.507 89.5187 106.481C89.5959 106.455 89.6802 106.461 89.753 106.498C90.9826 107.114 92.339 107.435 93.7144 107.435C95.0898 107.435 96.4462 107.114 97.6758 106.498C97.7473 106.461 97.8304 106.455 97.9067 106.48C97.983 106.505 98.0463 106.559 98.0828 106.63C98.1195 106.703 98.1263 106.788 98.1015 106.865C98.0767 106.943 98.0224 107.008 97.9503 107.047C96.6367 107.714 95.1829 108.058 93.7097 108.05Z" fill="#17262F"></path><path d="M102.39 105.892H85.077C84.3707 105.892 83.6932 105.612 83.1929 105.113C82.6926 104.615 82.4102 103.938 82.4077 103.232V88.2479C82.4077 87.4948 82.7069 86.7725 83.2394 86.2399C83.772 85.7074 84.4943 85.4082 85.2474 85.4082H102.475C103.166 85.4132 103.827 85.692 104.313 86.1834C104.799 86.6748 105.071 87.3389 105.068 88.0302V103.175C105.076 103.531 105.012 103.884 104.881 104.215C104.749 104.545 104.553 104.846 104.303 105.1C104.053 105.353 103.755 105.554 103.427 105.69C103.098 105.826 102.745 105.894 102.39 105.892ZM85.1906 86.0613C84.6115 86.0638 84.0568 86.295 83.6472 86.7045C83.2377 87.114 83.0065 87.6687 83.0041 88.2479V103.232C83.0066 103.775 83.2241 104.295 83.609 104.678C83.9939 105.061 84.515 105.277 85.0581 105.277H102.371C102.913 105.277 103.433 105.061 103.816 104.678C104.2 104.294 104.415 103.774 104.415 103.232V88.0302C104.417 87.7671 104.366 87.5064 104.266 87.263C104.166 87.0195 104.019 86.7983 103.834 86.6118C103.648 86.4253 103.427 86.2774 103.185 86.1764C102.942 86.0754 102.681 86.0235 102.418 86.0235L85.1906 86.0613Z" fill="#17262F"></path><path d="M98.0165 84.5469H89.4975C89.4569 84.5482 89.4165 84.5413 89.3786 84.5266C89.3408 84.512 89.3063 84.4899 89.2771 84.4616C89.248 84.4334 89.2248 84.3995 89.209 84.3622C89.1932 84.3248 89.1851 84.2846 89.1851 84.244C89.1851 84.1612 89.218 84.0817 89.2766 84.0231C89.3352 83.9646 89.4146 83.9316 89.4975 83.9316H98.0165C98.0571 83.9316 98.0973 83.9398 98.1347 83.9556C98.172 83.9714 98.2059 83.9945 98.2341 84.0237C98.2624 84.0528 98.2845 84.0873 98.2991 84.1252C98.3138 84.163 98.3207 84.2034 98.3194 84.244C98.3194 84.3243 98.2875 84.4014 98.2307 84.4582C98.1739 84.515 98.0969 84.5469 98.0165 84.5469Z" fill="#17262F"></path><path d="M96.7103 84.547H90.7564C90.7158 84.5482 90.6754 84.5413 90.6376 84.5267C90.5997 84.512 90.5652 84.4899 90.5361 84.4617C90.5069 84.4334 90.4838 84.3996 90.468 84.3622C90.4521 84.3248 90.444 84.2847 90.444 84.2441V79.4071C90.444 78.536 90.7901 77.7006 91.4061 77.0846C92.022 76.4686 92.8575 76.1226 93.7286 76.1226C94.5997 76.1226 95.4352 76.4686 96.0511 77.0846C96.6671 77.7006 97.0132 78.536 97.0132 79.4071V84.2441C97.0132 84.3244 96.9813 84.4014 96.9244 84.4582C96.8676 84.5151 96.7906 84.547 96.7103 84.547ZM91.0309 83.9317H96.3695V79.4071C96.3695 78.6992 96.0883 78.0202 95.5877 77.5196C95.0871 77.0191 94.4081 76.7378 93.7002 76.7378C92.9923 76.7378 92.3133 77.0191 91.8127 77.5196C91.3121 78.0202 91.0309 78.6992 91.0309 79.4071V83.9317Z" fill="#17262F"></path><path d="M15.6088 84.5469H7.03296C6.95263 84.5469 6.87558 84.515 6.81878 84.4582C6.76197 84.4014 6.73006 84.3243 6.73006 84.244C6.72879 84.2034 6.73569 84.163 6.75034 84.1252C6.765 84.0873 6.78711 84.0528 6.81536 84.0237C6.84361 83.9945 6.87744 83.9714 6.91482 83.9556C6.9522 83.9398 6.99237 83.9316 7.03296 83.9316H15.6088C15.6494 83.9316 15.6896 83.9398 15.727 83.9556C15.7643 83.9714 15.7982 83.9945 15.8264 84.0237C15.8547 84.0528 15.8768 84.0873 15.8914 84.1252C15.9061 84.163 15.913 84.2034 15.9117 84.244C15.9117 84.2838 15.9039 84.3232 15.8887 84.3599C15.8734 84.3967 15.8511 84.4301 15.823 84.4582C15.7949 84.4863 15.7615 84.5086 15.7247 84.5238C15.688 84.5391 15.6486 84.5469 15.6088 84.5469Z" fill="#17262F"></path><path d="M14.3026 84.547H8.33922C8.25888 84.547 8.18184 84.5151 8.12503 84.4582C8.06823 84.4014 8.03632 84.3244 8.03632 84.2441V79.4071C8.03632 78.536 8.38237 77.7006 8.99834 77.0846C9.61432 76.4686 10.4498 76.1226 11.3209 76.1226C12.192 76.1226 13.0275 76.4686 13.6434 77.0846C14.2594 77.7006 14.6055 78.536 14.6055 79.4071V84.2441C14.6055 84.3244 14.5735 84.4014 14.5167 84.4582C14.4599 84.5151 14.3829 84.547 14.3026 84.547ZM8.62318 83.9317H13.9618V79.4071C13.9618 78.6992 13.6806 78.0202 13.18 77.5196C12.6794 77.0191 12.0004 76.7378 11.2925 76.7378C10.5845 76.7378 9.9056 77.0191 9.40501 77.5196C8.90441 78.0202 8.62318 78.6992 8.62318 79.4071V83.9317Z" fill="#17262F"></path><path d="M24.6769 54.5787C24.6363 54.5787 24.5961 54.5706 24.5587 54.5547C24.5213 54.5389 24.4875 54.5158 24.4593 54.4866C24.431 54.4575 24.4089 54.423 24.3943 54.3851C24.3796 54.3473 24.3727 54.3069 24.374 54.2663V35.5812C24.3727 35.5406 24.3796 35.5002 24.3943 35.4623C24.4089 35.4245 24.431 35.39 24.4593 35.3608C24.4875 35.3317 24.5213 35.3085 24.5587 35.2927C24.5961 35.2769 24.6363 35.2688 24.6769 35.2688C24.7597 35.2688 24.8392 35.3017 24.8977 35.3603C24.9563 35.4189 24.9892 35.4983 24.9892 35.5812V54.2663C24.9892 54.3492 24.9563 54.4286 24.8977 54.4872C24.8392 54.5458 24.7597 54.5787 24.6769 54.5787Z" fill="#17262F"></path><path d="M61.6212 71.4182C61.5409 71.4182 61.4638 71.3863 61.407 71.3295C61.3502 71.2727 61.3183 71.1956 61.3183 71.1153V68.8814C61.3183 68.8011 61.3502 68.724 61.407 68.6672C61.4638 68.6104 61.5409 68.5785 61.6212 68.5785C61.6618 68.5772 61.7022 68.5841 61.74 68.5988C61.7779 68.6135 61.8124 68.6356 61.8415 68.6638C61.8707 68.6921 61.8938 68.7259 61.9096 68.7633C61.9255 68.8007 61.9336 68.8408 61.9336 68.8814V71.1153C61.9336 71.1559 61.9255 71.1961 61.9096 71.2335C61.8938 71.2708 61.8707 71.3047 61.8415 71.3329C61.8124 71.3612 61.7779 71.3833 61.74 71.3979C61.7022 71.4126 61.6618 71.4195 61.6212 71.4182Z" fill="#17262F"></path><path d="M72.289 71.418C72.2484 71.4193 72.208 71.4124 72.1701 71.3977C72.1323 71.3831 72.0978 71.361 72.0686 71.3327C72.0395 71.3044 72.0163 71.2706 72.0005 71.2332C71.9847 71.1959 71.9766 71.1557 71.9766 71.1151V68.8812C71.9766 68.7984 72.0095 68.7189 72.0681 68.6603C72.1267 68.6018 72.2061 68.5688 72.289 68.5688C72.3718 68.5688 72.4513 68.6018 72.5098 68.6603C72.5684 68.7189 72.6013 68.7984 72.6013 68.8812V71.1151C72.6013 71.1557 72.5932 71.1959 72.5774 71.2332C72.5616 71.2706 72.5384 71.3044 72.5093 71.3327C72.4801 71.361 72.4456 71.3831 72.4078 71.3977C72.3699 71.4124 72.3295 71.4193 72.289 71.418Z" fill="#17262F"></path><path d="M62.6246 67.1301C62.5801 67.1301 62.5361 67.1208 62.4953 67.1029C62.4546 67.085 62.418 67.0588 62.3879 67.026C62.3587 66.9978 62.3355 66.9639 62.3197 66.9265C62.3038 66.8891 62.2956 66.8489 62.2956 66.8083C62.2956 66.7677 62.3038 66.7275 62.3197 66.6901C62.3355 66.6527 62.3587 66.6188 62.3879 66.5906L64.849 64.5555C64.9137 64.5161 64.9906 64.5016 65.0653 64.5147C65.1399 64.5278 65.2073 64.5676 65.2548 64.6267C65.3022 64.6857 65.3266 64.7601 65.3234 64.8358C65.3201 64.9115 65.2895 64.9835 65.2371 65.0382L62.7855 67.0639C62.7392 67.1008 62.6834 67.1237 62.6246 67.1301Z" fill="#17262F"></path><path d="M71.3803 67.0639C71.3113 67.0647 71.2443 67.0413 71.1909 66.9976L68.7583 64.9909C68.6955 64.9395 68.6558 64.8652 68.6478 64.7844C68.6398 64.7036 68.6642 64.623 68.7157 64.5602C68.7672 64.4975 68.8414 64.4577 68.9222 64.4497C69.003 64.4417 69.0836 64.4662 69.1464 64.5176L71.579 66.5243C71.6082 66.5526 71.6315 66.5864 71.6473 66.6238C71.6632 66.6612 71.6713 66.7014 71.6713 66.7421C71.6713 66.7827 71.6632 66.8229 71.6473 66.8603C71.6315 66.8977 71.6082 66.9315 71.579 66.9598C71.528 67.0179 71.4571 67.055 71.3803 67.0639Z" fill="#17262F"></path><path d="M67.0261 67.6413C66.9855 67.6413 66.9453 67.6332 66.9079 67.6174C66.8705 67.6016 66.8367 67.5784 66.8085 67.5493C66.7802 67.5201 66.7581 67.4856 66.7435 67.4478C66.7288 67.4099 66.7219 67.3695 66.7232 67.329V65.5967C66.7232 65.5164 66.7551 65.4394 66.8119 65.3826C66.8687 65.3258 66.9457 65.2938 67.0261 65.2938C67.0666 65.2926 67.107 65.2995 67.1449 65.3141C67.1827 65.3288 67.2173 65.3509 67.2464 65.3791C67.2755 65.4074 67.2987 65.4412 67.3145 65.4786C67.3303 65.516 67.3385 65.5562 67.3384 65.5967V67.329C67.3384 67.4118 67.3055 67.4912 67.2469 67.5498C67.1884 67.6084 67.1089 67.6413 67.0261 67.6413Z" fill="#17262F"></path><path d="M67.0261 72.0335C66.9457 72.0335 66.8687 72.0016 66.8119 71.9448C66.7551 71.888 66.7232 71.8109 66.7232 71.7306V70.0457C66.7232 69.9654 66.7551 69.8883 66.8119 69.8315C66.8687 69.7747 66.9457 69.7428 67.0261 69.7428C67.0666 69.7416 67.1071 69.7484 67.1449 69.7631C67.1827 69.7778 67.2173 69.7999 67.2464 69.8281C67.2755 69.8564 67.2987 69.8902 67.3145 69.9276C67.3303 69.965 67.3385 70.0051 67.3384 70.0457V71.7779C67.3269 71.8515 67.2886 71.9182 67.231 71.9653C67.1734 72.0125 67.1004 72.0367 67.0261 72.0335Z" fill="#17262F"></path><path d="M22.3389 88.1911H3.85251C3.76967 88.1911 3.69022 88.1582 3.63164 88.0996C3.57306 88.0411 3.54015 87.9616 3.54015 87.8788C3.54015 87.7959 3.57306 87.7165 3.63164 87.6579C3.69022 87.5993 3.76967 87.5664 3.85251 87.5664H22.3389C22.4217 87.5664 22.5012 87.5993 22.5597 87.6579C22.6183 87.7165 22.6512 87.7959 22.6512 87.8788C22.6512 87.9616 22.6183 88.0411 22.5597 88.0996C22.5012 88.1582 22.4217 88.1911 22.3389 88.1911Z" fill="#17262F"></path><path d="M101.471 88.1818H82.9946C82.9117 88.1818 82.8323 88.1489 82.7737 88.0903C82.7151 88.0317 82.6822 87.9523 82.6822 87.8695C82.6822 87.8289 82.6903 87.7887 82.7062 87.7513C82.722 87.7139 82.7451 87.6801 82.7743 87.6518C82.8034 87.6236 82.8379 87.6015 82.8758 87.5868C82.9136 87.5722 82.954 87.5653 82.9946 87.5666H101.471C101.552 87.5666 101.629 87.5985 101.686 87.6553C101.742 87.7121 101.774 87.7891 101.774 87.8695C101.776 87.91 101.769 87.9504 101.754 87.9883C101.739 88.0261 101.717 88.0606 101.689 88.0898C101.661 88.1189 101.627 88.1421 101.59 88.1579C101.552 88.1737 101.512 88.1818 101.471 88.1818Z" fill="#17262F"></path></g><defs><clipPath id="clip0_5678_16014"><rect width="105.049" height="110" fill="white"></rect></clipPath></defs></svg>