<svg xmlns="http://www.w3.org/2000/svg" width="59" height="90" viewBox="0 0 59 90" fill="none"><g clip-path="url(#clip0_5678_33618)"><path d="M17.8617 21.4629C23.0584 21.4629 27.6169 16.0003 27.6169 9.77797C27.6635 8.48331 27.4432 7.19291 26.9698 5.98702C26.4963 4.78114 25.7798 3.68556 24.8648 2.76843C23.9498 1.85131 22.8559 1.13225 21.6512 0.655981C20.4464 0.179711 19.1565 -0.0435833 17.8617 -1.35042e-05C16.5663 -0.0446496 15.2756 0.177855 14.0699 0.653648C12.8643 1.12944 11.7694 1.84834 10.8536 2.76557C9.93781 3.68281 9.22062 4.77876 8.7467 5.98517C8.27279 7.19159 8.05229 8.48265 8.09894 9.77797C8.09894 16.0003 12.6574 21.4629 17.8617 21.4629ZM17.8617 3.22892C18.7335 3.19094 19.6036 3.33517 20.4164 3.6524C21.2293 3.96963 21.9671 4.4529 22.5827 5.07133C23.1982 5.68977 23.6781 6.42978 23.9915 7.24411C24.305 8.05844 24.4452 8.9292 24.4032 9.80076C24.4032 14.1313 21.2274 18.234 17.8617 18.234C14.496 18.234 11.3127 14.1161 11.3127 9.76278C11.2728 8.89179 11.4148 8.02203 11.7297 7.20898C12.0446 6.39592 12.5254 5.6574 13.1416 5.04051C13.7578 4.42363 14.4957 3.94191 15.3084 3.62607C16.1211 3.31024 16.9907 3.16722 17.8617 3.20613V3.22892Z" fill="#17262F"></path><path d="M42.546 23.0205H9.51207C6.98993 23.0225 4.57167 24.0253 2.78824 25.8088C1.00482 27.5922 0.00201347 30.0104 1.3934e-06 32.5326V48.8216C-0.0134206 50.1151 0.414239 51.3745 1.2125 52.3924C2.01075 53.4102 3.13197 54.1257 4.39136 54.421C4.77334 54.5031 5.16306 54.5439 5.55377 54.5425C6.40104 54.5406 7.23706 54.3485 8.00017 53.9803L8.12173 83.7625C7.82604 85.0131 8.02025 86.3294 8.6645 87.4413C9.30875 88.5532 10.3542 89.3764 11.5862 89.7418L11.7229 89.7874C13.0362 90.1448 14.4339 90.0236 15.666 89.4455C16.4915 89.0648 17.2056 88.4788 17.7402 87.7436C18.2397 88.4836 18.9218 89.0822 19.7203 89.4815C20.5189 89.8807 21.4069 90.0672 22.2987 90.0229C22.8741 90.024 23.447 89.9448 24.0005 89.7874C25.2433 89.4279 26.3015 88.6068 26.9583 87.4923C27.6152 86.3778 27.8209 85.0542 27.5333 83.7929L27.8372 54.4362V49.8777C27.8341 49.7359 27.811 49.5952 27.7689 49.4598C27.811 49.3244 27.8341 49.1837 27.8372 49.042V33.9837H42.546C43.9645 33.9309 45.3073 33.3302 46.2922 32.308C47.277 31.2858 47.8273 29.9216 47.8273 28.5021C47.8273 27.0826 47.277 25.7184 46.2922 24.6962C45.3073 23.674 43.9645 23.0733 42.546 23.0205ZM42.546 30.7776H26.2038C25.7786 30.7776 25.3709 30.9465 25.0702 31.2471C24.7696 31.5477 24.6007 31.9555 24.6007 32.3806V48.9888C24.6055 49.1299 24.6259 49.27 24.6615 49.4066C24.6253 49.5431 24.6049 49.6833 24.6007 49.8245V54.383L24.312 83.9449C24.309 84.099 24.3295 84.2527 24.3728 84.4007C24.5048 84.8691 24.4474 85.3707 24.2129 85.7971C23.9783 86.2236 23.5855 86.5407 23.1192 86.68C22.8494 86.7534 22.5707 86.7892 22.2911 86.7863C21.9351 86.8193 21.5766 86.7596 21.2505 86.6132C20.9244 86.4668 20.6416 86.2385 20.4297 85.9506L19.556 56.4495C19.531 56.0403 19.3515 55.6558 19.054 55.3737C18.7564 55.0917 18.3629 54.9331 17.9529 54.93C17.5389 54.9217 17.1381 55.0763 16.8369 55.3605C16.5357 55.6447 16.3581 56.0357 16.3422 56.4495L15.2482 85.6847C15.0512 86.0748 14.7191 86.3799 14.3137 86.5432C13.8047 86.7927 13.2263 86.8623 12.6726 86.7407L12.5283 86.6952C12.0594 86.5592 11.6635 86.243 11.4272 85.8159C11.1908 85.3887 11.1333 84.8854 11.2671 84.4159C11.3096 84.273 11.3301 84.1244 11.3279 83.9753L11.1911 54.4286V48.9888V34.1888C11.1911 33.7637 11.0222 33.3559 10.7216 33.0553C10.421 32.7547 10.0132 32.5858 9.58805 32.5858C9.37725 32.5848 9.16834 32.6255 8.97339 32.7057C8.77844 32.7859 8.60132 32.904 8.45226 33.053C8.3032 33.2021 8.18516 33.3792 8.10495 33.5742C8.02475 33.7691 7.98397 33.978 7.98497 34.1888V48.9888C7.9821 49.1493 7.96686 49.3093 7.93939 49.4674C7.83281 49.9094 7.60371 50.3123 7.27841 50.6298C6.9889 50.9122 6.63465 51.1194 6.24661 51.2333C5.85856 51.3472 5.44853 51.3643 5.05234 51.2832C4.51212 51.1412 4.03576 50.8207 3.70062 50.3739C3.36547 49.927 3.19122 49.38 3.20615 48.8216V32.5326C3.20816 30.8608 3.87318 29.258 5.05533 28.0758C6.23749 26.8937 7.84025 26.2287 9.51207 26.2267H42.546C43.1505 26.2267 43.7302 26.4668 44.1577 26.8942C44.5851 27.3217 44.8253 27.9014 44.8253 28.5059C44.8253 29.1104 44.5851 29.6901 44.1577 30.1176C43.7302 30.545 43.1505 30.7852 42.546 30.7852V30.7776Z" fill="#17262F"></path><path d="M56.7077 62.8542C56.2888 62.7811 55.858 62.8767 55.5093 63.1201C55.1606 63.3635 54.9223 63.7349 54.8464 64.1533L51.2148 84.7653H39.9097L36.2781 64.1533C36.2411 63.9458 36.1637 63.7476 36.0502 63.57C35.9367 63.3924 35.7893 63.2389 35.6164 63.1182C35.4436 62.9976 35.2487 62.9122 35.0428 62.8669C34.837 62.8216 34.6242 62.8172 34.4167 62.8542C34.2092 62.8911 34.0109 62.9685 33.8333 63.082C33.6557 63.1955 33.5022 63.3429 33.3816 63.5158C33.2609 63.6886 33.1755 63.8835 33.1302 64.0894C33.0849 64.2952 33.0806 64.508 33.1175 64.7155L36.9846 86.6115C37.0491 86.9839 37.243 87.3214 37.5321 87.5647C37.8213 87.808 38.1871 87.9413 38.5649 87.9411H52.5595C52.937 87.9398 53.302 87.8059 53.5908 87.5629C53.8796 87.3199 54.0739 86.9832 54.1398 86.6115L58.0069 64.6852C58.0712 64.2709 57.9715 63.8479 57.7289 63.506C57.4863 63.1641 57.12 62.9303 56.7077 62.8542Z" fill="#17262F"></path><path d="M45.1064 47.6972C44.5012 47.6959 43.9033 47.565 43.3529 47.3134C42.8025 47.0618 42.3124 46.6953 41.9154 46.2384C41.3304 45.5794 40.9108 44.7904 40.6915 43.9369C40.4722 43.0834 40.4594 42.1899 40.6542 41.3305C40.758 40.9461 40.9998 40.6135 41.3334 40.3963C41.667 40.179 42.069 40.0924 42.4624 40.1528C43.1654 39.6004 43.7914 38.9565 44.3238 38.2383C44.4525 38.0626 44.6157 37.9149 44.8034 37.8044C44.991 37.6938 45.1992 37.6227 45.4153 37.5953C45.6314 37.5679 45.8508 37.5848 46.0601 37.645C46.2694 37.7052 46.4643 37.8074 46.6328 37.9454C46.8013 38.0834 46.9399 38.2543 47.0402 38.4477C47.1404 38.641 47.2002 38.8528 47.2159 39.07C47.2317 39.2873 47.2029 39.5054 47.1315 39.7112C47.0601 39.9169 46.9475 40.106 46.8006 40.2668C45.9761 41.387 44.9445 42.3386 43.7616 43.0703C43.8542 43.4408 44.0369 43.7827 44.2934 44.0656C44.414 44.2158 44.5731 44.3305 44.7537 44.3974C44.9343 44.4643 45.1298 44.4809 45.3191 44.4454C45.7402 44.381 46.1697 44.4864 46.5131 44.7386C46.8565 44.9908 47.0856 45.3691 47.1501 45.7902C47.2146 46.2113 47.1091 46.6408 46.8569 46.9842C46.6047 47.3276 46.2265 47.5567 45.8053 47.6212C45.5742 47.6614 45.3407 47.6867 45.1064 47.6972Z" fill="#17262F"></path><path d="M52.795 56.7457C52.5655 56.751 52.3375 56.707 52.1265 56.6165C51.9154 56.5261 51.7263 56.3914 51.5718 56.2215C50.9011 55.5031 50.3451 54.6856 49.9232 53.7979C49.8063 53.8254 49.6955 53.8744 49.5965 53.9423C49.5241 53.9731 49.4628 54.0252 49.4207 54.0917C49.3786 54.1582 49.3578 54.2359 49.361 54.3145C49.356 54.5251 49.3096 54.7325 49.2244 54.9251C49.1392 55.1177 49.017 55.2916 48.8646 55.437C48.7122 55.5823 48.5327 55.6962 48.3363 55.7721C48.1399 55.8481 47.9304 55.8846 47.7199 55.8796C47.5094 55.8746 47.3019 55.8282 47.1093 55.7431C46.9167 55.6579 46.7428 55.5356 46.5975 55.3832C46.4522 55.2308 46.3383 55.0513 46.2623 54.8549C46.1864 54.6585 46.1498 54.4491 46.1548 54.2386C46.1637 53.6261 46.3281 53.026 46.6324 52.4944C46.9367 51.9629 47.371 51.5173 47.8947 51.1996C48.5161 50.8185 49.2199 50.592 49.947 50.5391C50.6741 50.4862 51.4032 50.6085 52.0733 50.8957C52.2893 50.9953 52.4805 51.1417 52.633 51.3244C52.7854 51.507 52.8953 51.7213 52.9546 51.9517C53.0126 52.2016 53.0126 52.4615 52.9546 52.7115C53.2582 53.2191 53.612 53.6951 54.0106 54.1322C54.2065 54.3664 54.3318 54.6515 54.3719 54.9542C54.4119 55.2569 54.3651 55.5647 54.2369 55.8418C54.1087 56.1189 53.9044 56.3539 53.6478 56.5193C53.3911 56.6847 53.0928 56.7738 52.7874 56.7761L52.795 56.7457Z" fill="#17262F"></path><path d="M38.8992 59.3364C38.5915 59.3365 38.2905 59.2467 38.0331 59.0781C37.8561 58.9647 37.7032 58.8175 37.5833 58.6449C37.4633 58.4722 37.3787 58.2776 37.3342 58.0722C37.2898 57.8667 37.2863 57.6545 37.3241 57.4477C37.3619 57.2409 37.4402 57.0437 37.5544 56.8672C38.0431 56.0172 38.6608 55.2483 39.3854 54.588C39.3218 54.4849 39.2452 54.3904 39.1575 54.3069C39.1036 54.2487 39.0342 54.2072 38.9575 54.187C38.8809 54.1668 38.8 54.1689 38.7245 54.1929C38.3144 54.3057 37.8763 54.2511 37.5066 54.0409C37.1369 53.8308 36.8657 53.4823 36.7529 53.0723C36.6401 52.6622 36.6947 52.2241 36.9049 51.8544C37.1151 51.4847 37.4635 51.2136 37.8735 51.1007C38.4578 50.9315 39.0754 50.9124 39.669 51.0452C40.2626 51.178 40.8131 51.4584 41.2696 51.8605C41.8179 52.3432 42.2421 52.9506 42.5065 53.6315C42.7709 54.3125 42.8679 55.047 42.7891 55.7732C42.7546 56.0085 42.6686 56.2333 42.5373 56.4316C42.4059 56.6299 42.2325 56.7968 42.0294 56.9204C41.8008 57.0623 41.5386 57.141 41.2696 57.1483C40.8927 57.6012 40.5571 58.0868 40.2668 58.5995C40.1205 58.8286 39.9181 59.0166 39.6787 59.1456C39.4394 59.2746 39.1711 59.3403 38.8992 59.3364Z" fill="#17262F"></path><path d="M45.3495 68.2862C44.7226 68.289 44.1002 68.181 43.5109 67.9671C43.164 67.8217 42.8782 67.5605 42.7022 67.2281C42.5263 66.8956 42.4711 66.5124 42.546 66.1437C42.1048 65.526 41.595 64.9602 41.0265 64.4571C40.8526 64.3167 40.7099 64.1415 40.6076 63.9427C40.5054 63.744 40.4459 63.526 40.4329 63.3029C40.4198 63.0797 40.4536 62.8563 40.5321 62.647C40.6105 62.4377 40.7318 62.2471 40.8883 62.0875C41.0447 61.9278 41.2328 61.8027 41.4405 61.72C41.6482 61.6374 41.8709 61.5991 42.0942 61.6076C42.3176 61.6161 42.5367 61.6712 42.7375 61.7694C42.9383 61.8676 43.1163 62.0067 43.2602 62.1778C44.207 62.9881 44.9953 63.967 45.585 65.0649C45.9762 65.045 46.3556 64.9246 46.6866 64.7154C46.7759 64.6693 46.8495 64.5977 46.8981 64.5099C46.9468 64.422 46.9684 64.3217 46.9602 64.2216C46.9436 63.8001 47.0938 63.3891 47.3783 63.0776C47.6627 62.7662 48.0584 62.5794 48.4797 62.5577C48.8996 62.547 49.3073 62.6992 49.6175 62.9825C49.9277 63.2657 50.1162 63.658 50.1435 64.0772C50.1694 64.7074 50.0344 65.3337 49.7513 65.8973C49.4682 66.4609 49.0462 66.9431 48.5252 67.2985C47.5922 67.944 46.484 68.2886 45.3495 68.2862Z" fill="#17262F"></path></g><defs><clipPath id="clip0_5678_33618"><rect width="58.0297" height="90" fill="white"></rect></clipPath></defs></svg>