<svg xmlns="http://www.w3.org/2000/svg" width="101" height="70" viewBox="0 0 101 70" fill="none"><g clip-path="url(#clip0_5678_6347)"><path d="M1.7184 23.8773C2.72251 22.8675 4.08418 22.3003 5.50383 22.3003H20.8088V25.2952H5.50383C4.87293 25.2952 4.26805 25.5473 3.82221 25.9957C3.37639 26.444 3.12609 27.052 3.12609 27.6857V57.2162C3.12609 57.8499 3.37639 58.4579 3.82221 58.9062C4.26805 59.3547 4.87293 59.6067 5.50383 59.6067H12.2746V62.6016H5.50383C4.80087 62.6016 4.10478 62.4624 3.45529 62.1918C2.80579 61.9212 2.21559 61.5246 1.7184 61.0246C1.22121 60.5245 0.826776 59.9308 0.557653 59.2774C0.288529 58.6239 0.150002 57.9235 0.150002 57.2162V27.6857C0.150002 26.2571 0.714271 24.8872 1.7184 23.8773Z" fill="#17262F"></path><path d="M27.3825 62.6013V59.6064H41.2516V62.6013H27.3825Z" fill="#17262F"></path><path d="M28.5741 1.72695C29.5782 0.717083 30.9399 0.149902 32.3595 0.149902H55.8573C58.3752 0.149902 60.3113 1.8554 61.159 4.90723L61.1592 4.90824L67.665 29.6733V29.7667L67.6676 29.7803C68.1599 32.4158 68.433 35.088 68.484 37.7691V57.2157C68.484 57.9231 68.3455 58.6235 68.0764 59.2769C67.8072 59.9304 67.4128 60.524 66.9156 61.0241C66.4184 61.5241 65.8282 61.9207 65.1787 62.1913C64.5292 62.4619 63.8332 62.6011 63.1302 62.6011H56.3676V59.6063H63.1302C63.7611 59.6063 64.366 59.3542 64.8118 58.9058C65.2576 58.4574 65.5079 57.8495 65.5079 57.2157L65.508 37.7841L65.5079 37.7814C65.4633 35.3223 65.2219 32.8709 64.7853 30.4509L58.2956 5.72788L58.2952 5.7264C58.0666 4.89022 57.7529 4.2469 57.3484 3.8106C56.9398 3.36992 56.442 3.1448 55.8655 3.1448H32.3595C31.7287 3.1448 31.1238 3.39686 30.6779 3.84527C30.2321 4.29364 29.9818 4.90159 29.9818 5.53532V27.6852C29.9818 28.319 30.2321 28.9269 30.6779 29.3753C31.1238 29.8237 31.7287 30.0758 32.3595 30.0758H57.8367V33.0707H32.3598C30.9407 33.0685 29.5802 32.5007 28.5765 31.4912C27.5728 30.4818 27.0079 29.1131 27.0057 27.6851V5.53532C27.0057 4.10674 27.57 2.73685 28.5741 1.72695Z" fill="#17262F"></path><path d="M71.4049 56.0136V1.79785H74.381V54.5161H100.501L100.523 57.511H72.8929C72.4985 57.511 72.1201 57.3535 71.841 57.0727C71.5619 56.792 71.4049 56.411 71.4049 56.0136Z" fill="#17262F"></path><path fill-rule="evenodd" clip-rule="evenodd" d="M18.1003 52.2156C19.8187 51.8719 21.5998 52.0483 23.2185 52.7226C24.8372 53.397 26.2209 54.539 27.1945 56.0044C28.1681 57.4698 28.6878 59.1928 28.6878 60.9554C28.6878 63.319 27.7542 65.5856 26.0926 67.2567C24.4311 68.9277 22.1779 69.8663 19.8285 69.8663C18.0765 69.8663 16.3638 69.3438 14.9069 68.3648C13.45 67.3858 12.3144 65.9941 11.6438 64.3658C10.9731 62.7374 10.7976 60.9455 11.1395 59.2168C11.4814 57.4881 12.3253 55.9003 13.5644 54.6541C14.8034 53.4079 16.382 52.5594 18.1003 52.2156ZM19.8296 54.957L19.6785 54.9559V54.9754C18.5672 55.0038 17.4856 55.3485 16.5597 55.9707C15.5922 56.6209 14.8383 57.5449 14.3931 58.6258C13.9479 59.7067 13.8314 60.8961 14.0584 62.0435C14.2853 63.1909 14.8455 64.2451 15.6682 65.0725C16.4909 65.8999 17.5392 66.4635 18.6806 66.6919C19.822 66.9202 21.0051 66.803 22.0802 66.3551C23.1553 65.9072 24.0741 65.1488 24.7204 64.176C25.3667 63.2031 25.7117 62.0594 25.7117 60.8895C25.7051 59.3215 25.084 57.8186 23.9829 56.708C22.8817 55.5974 21.3894 54.9681 19.8296 54.957Z" fill="#17262F"></path><path fill-rule="evenodd" clip-rule="evenodd" d="M47.0773 52.2156C48.7957 51.8719 50.5768 52.0483 52.1955 52.7226C53.8142 53.397 55.1979 54.539 56.1715 56.0044C57.1451 57.4698 57.6648 59.1928 57.6648 60.9554C57.6648 63.319 56.7312 65.5856 55.0696 67.2567C53.4081 68.9277 51.1549 69.8663 48.8055 69.8663C47.0535 69.8663 45.3408 69.3438 43.8839 68.3648C42.427 67.3858 41.2914 65.9941 40.6208 64.3658C39.9501 62.7374 39.7746 60.9455 40.1165 59.2168C40.4584 57.4881 41.3023 55.9003 42.5414 54.6541C43.7804 53.4079 45.359 52.5594 47.0773 52.2156ZM48.8066 54.957L48.6555 54.9559V54.9754C47.5442 55.0038 46.4626 55.3485 45.5367 55.9707C44.5692 56.6209 43.8153 57.5449 43.3701 58.6258C42.9249 59.7067 42.8084 60.8961 43.0354 62.0435C43.2623 63.1909 43.8225 64.2451 44.6452 65.0725C45.4679 65.8999 46.5162 66.4635 47.6576 66.6919C48.799 66.9202 49.9821 66.803 51.0572 66.3551C52.1323 65.9072 53.0511 65.1488 53.6974 64.176C54.3437 63.2031 54.6887 62.0594 54.6887 60.8895C54.6821 59.3215 54.061 57.8186 52.9599 56.708C51.8587 55.5974 50.3664 54.9681 48.8066 54.957Z" fill="#17262F"></path><path d="M32.829 19.0596V10.4058H35.8051V19.0596H32.829Z" fill="#17262F"></path></g><defs><clipPath id="clip0_5678_6347"><rect width="100.674" height="70" fill="white"></rect></clipPath></defs></svg>