<svg xmlns="http://www.w3.org/2000/svg" width="93" height="90" viewBox="0 0 93 90" fill="none"><g clip-path="url(#clip0_5678_33295)"><path d="M40.9677 90H28.3849C28.1164 89.9995 27.8514 89.9399 27.6085 89.8256C27.3657 89.7112 27.1509 89.5448 26.9795 89.3382C26.8061 89.1342 26.6803 88.8942 26.611 88.6356C26.5418 88.377 26.5309 88.1062 26.5792 87.8429C26.5792 87.7367 28.4339 76.3141 18.9478 63.3799C18.7245 63.0764 18.6003 62.7114 18.5922 62.3346C18.5841 61.9579 18.6924 61.5879 18.9025 61.275C19.1125 60.9622 19.414 60.7218 19.7658 60.5867C20.1175 60.4516 20.5024 60.4284 20.8679 60.5202C24.0284 61.1056 26.9115 62.7064 29.0794 65.0794C30.1007 57.3581 33.4997 47.6269 39.6441 40.6899C39.9518 40.3129 40.3967 40.0735 40.8809 40.0245C41.3651 39.9754 41.849 40.1208 42.226 40.4285C42.6031 40.7362 42.8425 41.1811 42.8915 41.6653C42.9405 42.1495 42.7952 42.6334 42.4875 43.0104C39.0149 47.6023 38.4021 59.1638 38.5329 66.3295C41.8082 63.3854 45.366 60.7718 49.1548 58.5265C49.5548 58.2816 50.0336 58.1996 50.4923 58.2975C50.9511 58.3953 51.3547 58.6656 51.62 59.0524C51.8852 59.4393 51.9918 59.9132 51.9177 60.3764C51.8437 60.8396 51.5946 61.2567 51.2219 61.5415C38.2306 72.1062 42.6836 87.4834 42.7326 87.6387C42.8139 87.9125 42.8302 88.2015 42.7803 88.4827C42.7304 88.764 42.6156 89.0297 42.4451 89.2589C42.2746 89.4881 42.0531 89.6744 41.7981 89.803C41.543 89.9316 41.2615 89.9991 40.9759 90H40.9677ZM30.3949 86.3313H38.7126C37.769 80.5706 38.4684 74.6605 40.7308 69.2791C39.1457 70.7008 38.1897 71.6813 38.1652 71.7303C37.9176 71.9827 37.6025 72.1584 37.2576 72.2362C36.9127 72.314 36.5527 72.2907 36.2207 72.1691C35.8887 72.0476 35.5988 71.8328 35.3857 71.5507C35.1727 71.2685 35.0455 70.9309 35.0195 70.5783C34.7296 65.5048 34.817 60.4168 35.2809 55.3563C33.5257 59.941 32.5561 64.7888 32.413 69.6959C32.4071 70.0738 32.2842 70.4407 32.0613 70.7461C31.8385 71.0514 31.5265 71.2803 31.1683 71.4011C30.8101 71.522 30.4233 71.529 30.0609 71.4212C29.6986 71.3134 29.3786 71.096 29.1448 70.7989C28.0207 69.2715 26.742 67.8641 25.3291 66.5992C30.1334 75.3336 30.542 82.8016 30.3949 86.3313Z" fill="#17262F"></path><path d="M17.9755 74.6718C9.43712 74.6718 3.3418 67.1957 1.13572 59.5724C-0.727196 53.5915 -0.310492 48.4603 2.4512 44.3668C7.14116 37.2992 17.2483 35.6323 21.3827 35.2483C21.6234 35.223 21.8667 35.2457 22.0986 35.315C22.3305 35.3844 22.5463 35.499 22.7336 35.6523C22.9208 35.8057 23.0759 35.9946 23.1896 36.2082C23.3034 36.4219 23.3736 36.656 23.3963 36.8969C23.419 37.1379 23.3937 37.381 23.3218 37.6121C23.2499 37.8432 23.1329 38.0577 22.9776 38.2433C22.8222 38.4289 22.6316 38.5819 22.4167 38.6933C22.2018 38.8047 21.967 38.8724 21.7258 38.8924C18.9069 39.1621 9.46981 40.4776 5.49886 46.3931C3.42351 49.5225 3.16205 53.5997 4.68179 58.5102C6.20154 63.4208 11.2183 72.4004 20.1162 70.7663C20.5813 70.7108 21.05 70.8349 21.4267 71.1133C21.8034 71.3917 22.0596 71.8034 22.143 72.2643C22.2264 72.7252 22.1307 73.2006 21.8756 73.5933C21.6204 73.9861 21.2249 74.2666 20.7698 74.3777C19.8493 74.561 18.914 74.6595 17.9755 74.6718Z" fill="#17262F"></path><path d="M52.1943 74.9495C50.194 74.9433 48.2446 74.3182 46.6137 73.1601C46.2345 72.8567 45.9913 72.4151 45.9377 71.9324C45.884 71.4498 46.0243 70.9655 46.3277 70.5863C46.6311 70.2071 47.0727 69.9639 47.5554 69.9103C48.038 69.8567 48.5222 69.997 48.9015 70.3004C49.3509 70.6353 53.5424 73.5686 58.5429 67.4896C62.2687 62.9386 63.9355 59.0493 63.5106 55.9281C63.192 53.575 61.6804 51.4751 58.9024 49.5223C58.5953 49.3073 58.3616 49.0031 58.233 48.6509C58.1044 48.2987 58.0871 47.9155 58.1834 47.5532L58.3468 46.9731C59.3239 43.5641 60.0315 40.0835 60.463 36.5636C60.7339 34.0395 60.2983 31.4896 59.2048 29.1986C58.1112 26.9075 56.4026 24.9653 54.2696 23.5886C52.2561 22.2299 49.9008 21.4656 47.4732 21.3832C45.0455 21.3008 42.6438 21.9037 40.5429 23.1229C39.7304 23.5823 38.9714 24.1304 38.2796 24.757C38.041 24.9831 37.7456 25.1405 37.4249 25.2124C37.1041 25.2843 36.7698 25.2681 36.4575 25.1655C31.3672 23.5314 27.4698 23.7193 25.2392 25.7375C23.0086 27.7556 22.2569 31.7674 23.2946 36.6617C23.3964 37.1373 23.3051 37.634 23.0408 38.0423C22.7765 38.4507 22.3608 38.7373 21.8851 38.8392C21.4095 38.941 20.9128 38.8497 20.5045 38.5854C20.0961 38.3211 19.8095 37.9054 19.7076 37.4297C18.3922 31.22 19.5115 25.9908 22.788 23.0167C24.9696 21.0475 29.1203 19.2173 36.5883 21.3825C37.2609 20.8439 37.9738 20.3577 38.7208 19.9281C41.4046 18.3644 44.4751 17.5893 47.5796 17.6919C50.6841 17.7945 53.6967 18.7707 56.2714 20.5083C58.973 22.2508 61.1367 24.7104 62.5204 27.6122C63.9042 30.5139 64.4536 33.7434 64.1071 36.9395C63.6898 40.4363 62.9986 43.8949 62.0399 47.2836C65.0059 49.6531 66.7217 52.3821 67.1302 55.4542C67.7104 59.6866 65.8229 64.393 61.4108 69.8346C58.0771 73.8301 54.817 74.9495 52.1943 74.9495Z" fill="#17262F"></path><path d="M91.6586 64.4911L78.6428 41.9972H81.3799C82.0696 41.996 82.7459 41.807 83.3364 41.4506C83.9268 41.0943 84.4091 40.5839 84.7316 39.9742C85.054 39.3646 85.2044 38.6787 85.1667 37.9901C85.129 37.3014 84.9046 36.6361 84.5175 36.0653L72.6537 18.58H73.4707C74.1604 18.5788 74.8367 18.3899 75.4271 18.0335C76.0176 17.6771 76.4999 17.1667 76.8223 16.5571C77.1448 15.9475 77.2952 15.2615 77.2575 14.5729C77.2198 13.8843 76.9954 13.2189 76.6083 12.6481L69.9492 2.84333C69.344 1.95098 68.5247 1.22465 67.5663 0.730826C66.6078 0.237003 65.5408 -0.00854563 64.463 0.0166539C63.3851 0.0418535 62.3307 0.336996 61.3964 0.87507C60.4621 1.41314 59.6776 2.17696 59.1148 3.09662L52.6764 13.5714C52.3636 14.0685 52.1905 14.6407 52.1754 15.2279C52.1603 15.815 52.3037 16.3953 52.5904 16.9079C52.8772 17.4204 53.2968 17.8462 53.8051 18.1405C54.3134 18.4347 54.8916 18.5866 55.4789 18.58H58.5266C58.7777 18.5968 59.0297 18.5618 59.2668 18.4772C59.5039 18.3926 59.7211 18.2603 59.9049 18.0883C60.0888 17.9163 60.2353 17.7084 60.3355 17.4775C60.4357 17.2465 60.4874 16.9975 60.4874 16.7457C60.4874 16.494 60.4357 16.2449 60.3355 16.014C60.2353 15.7831 60.0888 15.5752 59.9049 15.4032C59.7211 15.2312 59.5039 15.0988 59.2668 15.0142C59.0297 14.9296 58.7777 14.8946 58.5266 14.9114H56.1489L62.2115 4.99221C62.4539 4.58883 62.7964 4.25496 63.2058 4.02304C63.6153 3.79111 64.0778 3.669 64.5483 3.66856C65.0113 3.65478 65.4698 3.76119 65.8794 3.97741C66.2889 4.19364 66.6354 4.51231 66.8852 4.90234L73.5361 14.7071C73.5491 14.728 73.5561 14.752 73.5561 14.7766C73.5561 14.8012 73.5491 14.8252 73.5361 14.846C73.5252 14.8667 73.5087 14.8838 73.4884 14.8954C73.4682 14.907 73.445 14.9125 73.4217 14.9114H69.1729C68.8404 14.9117 68.5141 15.0026 68.2293 15.1744C67.9445 15.3462 67.7119 15.5923 67.5565 15.8864C67.4011 16.1804 67.3287 16.5112 67.3472 16.8433C67.3657 17.1754 67.4743 17.4962 67.6614 17.7712L81.4698 38.1243C81.4829 38.1451 81.4898 38.1692 81.4898 38.1938C81.4898 38.2183 81.4829 38.2424 81.4698 38.2632C81.4598 38.2846 81.4434 38.3023 81.423 38.314C81.4025 38.3257 81.3789 38.3308 81.3554 38.3286H75.4644C75.1429 38.3302 74.8274 38.4161 74.5495 38.5778C74.2715 38.7394 74.0408 38.9711 73.8804 39.2498C73.72 39.5284 73.6355 39.8442 73.6353 40.1658C73.6351 40.4873 73.7192 40.8032 73.8793 41.0821L88.4803 66.3295C88.4915 66.3488 88.4975 66.3708 88.4979 66.3931C88.4982 66.4155 88.4928 66.4376 88.4821 66.4573C88.4714 66.477 88.4559 66.4936 88.437 66.5055C88.4181 66.5175 88.3964 66.5244 88.374 66.5256H70.1943V63.4861C70.1632 63.0207 69.9564 62.5846 69.6159 62.266C69.2753 61.9474 68.8263 61.7702 68.36 61.7702C67.8936 61.7702 67.4447 61.9474 67.1041 62.266C66.7635 62.5846 66.5567 63.0207 66.5256 63.4861V76.9922H62.4403V75.3009C62.4092 74.8355 62.2025 74.3994 61.8619 74.0808C61.5213 73.7622 61.0724 73.585 60.606 73.585C60.1396 73.585 59.6907 73.7622 59.3501 74.0808C59.0095 74.3994 58.8027 74.8355 58.7717 75.3009V77.3844C58.7717 78.2512 59.116 79.0825 59.7289 79.6954C60.3418 80.3083 61.1731 80.6527 62.0399 80.6527H66.9424C67.8092 80.6527 68.6405 80.3083 69.2534 79.6954C69.8663 79.0825 70.2106 78.2512 70.2106 77.3844V70.1942H88.3904C89.0575 70.1899 89.7117 70.0105 90.2876 69.6738C90.8635 69.3371 91.3409 68.855 91.6719 68.2758C92.0028 67.6966 92.1758 67.0406 92.1735 66.3735C92.1712 65.7064 91.9936 65.0516 91.6586 64.4747V64.4911Z" fill="#17262F"></path></g><defs><clipPath id="clip0_5678_33295"><rect width="92.1734" height="90" fill="white"></rect></clipPath></defs></svg>