<svg xmlns="http://www.w3.org/2000/svg" width="80" height="75" viewBox="0 0 80 75" fill="none"><g clip-path="url(#clip0_5678_6220)"><path d="M14.0465 74.7844C13.7181 74.783 13.4036 74.6514 13.1721 74.4185L0.365908 61.6123C0.21127 61.4591 0.0996708 61.2679 0.0423234 61.0579C-0.0150241 60.848 -0.0161001 60.6266 0.0392034 60.4161C0.0945069 60.2055 0.204242 60.0133 0.357384 59.8586C0.510526 59.7039 0.701681 59.5922 0.911645 59.5348L5.9349 58.1643L21.2217 42.8774C21.3369 42.7621 21.4737 42.6706 21.6243 42.6082C21.7748 42.5458 21.9362 42.5137 22.0992 42.5137C22.2622 42.5137 22.4236 42.5458 22.5742 42.6082C22.7248 42.6706 22.8616 42.7621 22.9768 42.8774L31.9008 51.8077C32.0165 51.9275 32.1069 52.0695 32.1666 52.225C32.2263 52.3806 32.254 52.5466 32.2481 52.7131C32.2482 52.8768 32.2159 53.0388 32.1531 53.19C32.0903 53.3411 31.9983 53.4783 31.8822 53.5937L16.614 68.8371L15.2434 73.8542C15.1864 74.0644 15.0749 74.2559 14.9203 74.4094C14.7658 74.5629 14.5735 74.673 14.3628 74.7286C14.2599 74.7594 14.1538 74.7781 14.0465 74.7844ZM3.62792 61.3953L13.414 71.1751L14.307 67.9069C14.3626 67.6985 14.4717 67.5083 14.6233 67.355L29.2713 52.7131L22.0961 45.5131L7.44188 60.155C7.28923 60.3088 7.09893 60.42 6.88994 60.4774L3.62792 61.3953Z" fill="#17262F"></path><path d="M31.0077 53.9535C30.8445 53.9544 30.6827 53.9232 30.5316 53.8614C30.3805 53.7997 30.243 53.7088 30.1271 53.5938L21.2217 44.6512C21.0881 44.5164 20.9872 44.3528 20.9267 44.1729C20.8663 43.993 20.848 43.8016 20.8731 43.6135C20.8983 43.4254 20.9663 43.2456 21.0719 43.0879C21.1775 42.9302 21.3178 42.7988 21.4822 42.7039L26.6667 39.6899L27.907 41.8357L24.124 44.031L30.7535 50.6667L32.924 46.8961L35.076 48.1365L32.0992 53.3334C32.0054 53.5 31.8742 53.6427 31.7161 53.7503C31.558 53.8579 31.3771 53.9274 31.1876 53.9535C31.1279 53.9609 31.0675 53.9609 31.0077 53.9535Z" fill="#17262F"></path><path d="M50.6481 32.6137L48.893 30.8587L52.8124 26.9393L47.8512 21.9781L43.6155 26.2137L41.8605 24.4649L46.9768 19.3486C47.0919 19.2333 47.2287 19.1418 47.3793 19.0794C47.5299 19.017 47.6913 18.9849 47.8543 18.9849C48.0173 18.9849 48.1787 19.017 48.3292 19.0794C48.4798 19.1418 48.6166 19.2333 48.7318 19.3486L55.4419 26.0463C55.5606 26.1626 55.6547 26.3016 55.7186 26.455C55.7825 26.6084 55.8149 26.7731 55.814 26.9393C55.8126 27.2677 55.681 27.5822 55.4481 27.8137L50.6481 32.6137Z" fill="#17262F"></path><path d="M68.7008 36.682C68.4818 36.6778 68.2678 36.6158 68.0806 36.5021C67.3538 36.0238 66.6857 35.4618 66.0899 34.8277C63.4046 32.1425 63.6093 28.2913 63.6093 28.1239C63.6505 27.3235 63.3968 26.5357 62.8961 25.9099C62.659 25.7062 62.38 25.5572 62.0788 25.4736C61.7776 25.39 61.4617 25.3738 61.1535 25.4262C61.1535 25.4262 57.4822 25.7797 55.4419 27.8138L53.693 26.0463C56.3721 23.3797 60.7752 22.9456 60.9612 22.9456C61.6267 22.8694 62.3009 22.9411 62.9355 23.1555C63.5701 23.3699 64.1496 23.7217 64.6326 24.1859C65.6326 25.3141 66.1454 26.7923 66.0589 28.2975C66.0589 28.2975 65.9411 31.2122 67.8326 33.1037C68.124 33.3952 68.3845 33.6308 68.5953 33.8169L77.1163 25.2959C76.9364 25.0975 76.7008 24.8494 76.3907 24.5394C74.4992 22.6479 71.6031 22.7719 71.5783 22.7657C70.0771 22.8502 68.6035 22.3375 67.4791 21.3394C67.0181 20.8606 66.6681 20.2863 66.4538 19.6572C66.2394 19.0282 66.166 18.3596 66.2388 17.699C66.4237 15.8123 65.9623 13.9187 64.9302 12.3285L60.3287 7.72695C53.8667 1.24013 44.0868 2.41223 41.0605 2.97657V4.6944C45.4512 4.88044 48.955 8.41533 49.1225 8.61378C53.1907 12.682 50.7101 18.468 48.831 20.9611L46.8527 19.4665L47.8388 20.2107L46.8527 19.4665C47.0201 19.2432 50.9271 13.9285 47.3488 10.3502C47.3054 10.3006 43.7581 6.7161 39.9814 7.21222C39.8063 7.23523 39.6283 7.22057 39.4593 7.16923C39.2903 7.1179 39.1343 7.03107 39.0015 6.91455C38.8692 6.79832 38.7632 6.65525 38.6905 6.49486C38.6178 6.33446 38.5801 6.16042 38.5798 5.98432V1.97192C38.5804 1.69845 38.6713 1.43283 38.8384 1.21637C39.0055 0.999913 39.2394 0.844748 39.5039 0.775016C40.0682 0.626179 53.3891 -2.77227 62.1085 5.94711L66.7659 10.6045L66.8403 10.6913C66.9333 10.7967 69.0295 13.3828 68.738 17.8355C68.6901 18.1412 68.7091 18.4536 68.7937 18.7513C68.8783 19.0489 69.0264 19.3247 69.2279 19.5595C69.8571 20.0579 70.6466 20.3093 71.4481 20.2665C71.6031 20.2665 75.4543 20.0742 78.1457 22.7471C79.5597 24.1549 79.845 24.7006 79.938 24.9859C80.0046 25.2007 80.0115 25.4297 79.9579 25.6481C79.9044 25.8666 79.7925 26.0664 79.6341 26.2262L69.5814 36.3161C69.466 36.4322 69.3288 36.5243 69.1776 36.5871C69.0265 36.6499 68.8644 36.6821 68.7008 36.682Z" fill="#17262F"></path><path d="M68.614 73.9037C67.6428 73.9059 66.6808 73.7158 65.7835 73.3443C64.8863 72.9728 64.0714 72.4274 63.386 71.7393L28.4279 36.7874C25.3205 37.7568 21.9992 37.8079 18.8635 36.9344C15.7278 36.0609 12.9112 34.3 10.7525 31.8636C8.59391 29.4272 7.18516 26.419 6.69574 23.2009C6.20632 19.9828 6.65708 16.6918 7.9938 13.7238C8.07635 13.5406 8.20218 13.3803 8.36045 13.2565C8.51872 13.1327 8.70469 13.0492 8.90236 13.0132C9.10003 12.9772 9.3035 12.9898 9.49524 13.0498C9.68698 13.1099 9.86126 13.2156 10.0031 13.3579L18.0155 21.3703L24.0868 15.299L16.0744 7.28661C15.9321 7.14477 15.8264 6.97049 15.7663 6.77875C15.7063 6.587 15.6937 6.38354 15.7297 6.18587C15.7657 5.98819 15.8492 5.80222 15.973 5.64396C16.0967 5.48569 16.2571 5.35986 16.4403 5.2773C19.4106 3.9344 22.7062 3.48025 25.9291 3.9697C29.1519 4.45915 32.1641 5.87126 34.6017 8.03547C37.0394 10.1997 38.7984 13.0234 39.6661 16.1656C40.5338 19.3078 40.4731 22.634 39.4915 25.7424L74.4558 60.7068C75.8392 62.0937 76.6161 63.9726 76.6161 65.9316C76.6161 67.8905 75.8392 69.7694 74.4558 71.1564L73.8357 71.7765C72.446 73.1499 70.5677 73.915 68.614 73.9037ZM28.7628 34.1083C29.0912 34.1097 29.4057 34.2413 29.6372 34.4742L65.1163 69.9905C66.039 70.9084 67.2876 71.4238 68.5891 71.4238C69.8907 71.4238 71.1393 70.9084 72.062 69.9905L72.6822 69.3703C73.138 68.9148 73.4996 68.3739 73.7463 67.7785C73.9931 67.1831 74.12 66.545 74.12 65.9006C74.12 65.2561 73.9931 64.618 73.7463 64.0226C73.4996 63.4272 73.138 62.8863 72.6822 62.4308L37.2093 26.9207C37.0416 26.754 36.9251 26.5428 36.8735 26.3121C36.8218 26.0814 36.8372 25.8407 36.9178 25.6184C37.8367 23.1035 38.0366 20.3824 37.4951 17.7602C36.9535 15.1381 35.6919 12.7188 33.8519 10.7738C32.0118 8.82874 29.6661 7.43499 27.0781 6.74891C24.49 6.06284 21.7619 6.1116 19.2 6.88971L26.7225 14.4246C26.9531 14.6571 27.0824 14.9715 27.0822 15.299C27.0831 15.4622 27.0518 15.6241 26.9901 15.7752C26.9284 15.9263 26.8374 16.0637 26.7225 16.1796L18.8899 24.006C18.6575 24.237 18.3432 24.3667 18.0155 24.3667C17.6878 24.3667 17.3735 24.237 17.1411 24.006L9.6062 16.4711C8.82502 19.0338 8.77392 21.7635 9.45865 24.3536C10.1434 26.9438 11.5368 29.2916 13.4823 31.1335C15.4279 32.9753 17.8485 34.2381 20.4722 34.7801C23.0959 35.322 25.8188 35.1216 28.3349 34.2013C28.4703 34.1434 28.6155 34.1119 28.7628 34.1083Z" fill="#17262F"></path><path d="M61.3877 56.9232L59.6337 58.6772L67.584 66.6275L69.338 64.8735L61.3877 56.9232Z" fill="#17262F"></path></g><defs><clipPath id="clip0_5678_6220"><rect width="80" height="74.7845" fill="white"></rect></clipPath></defs></svg>