<svg xmlns="http://www.w3.org/2000/svg" width="73" height="85" viewBox="0 0 73 85" fill="none"><g clip-path="url(#clip0_5678_6407)"><path d="M11.0672 53.1688L8.02856 53.1242L8.07325 50.1451L10.665 50.1898L16.7349 46.25C16.8346 46.1846 16.9422 46.132 17.0551 46.0936C17.3828 45.9744 25.0837 43.338 30.9822 45.3488C37.6106 47.6501 36.769 52.3794 36.7318 52.573L33.8049 52.007C33.8049 51.791 34.0358 49.5642 30.0066 48.164C25.4933 46.6 19.2671 48.4768 18.2021 48.8194L11.9013 52.9007C11.6565 53.0717 11.3658 53.1651 11.0672 53.1688Z" fill="#17262F"></path><path d="M32.4011 56.9276L32.3517 59.9062L37.8696 59.9977L37.919 57.0191L32.4011 56.9276Z" fill="#17262F"></path><path d="M39.4725 66.1648H39.3906L39.4427 63.1857C39.8916 63.1932 40.3263 63.0279 40.6567 62.724C40.8176 62.5868 40.9474 62.4171 41.0376 62.2259C41.1278 62.0347 41.1762 61.8266 41.1797 61.6152C41.1833 61.4039 41.1418 61.1942 41.058 61.0001C40.9742 60.8061 40.8501 60.6321 40.6939 60.4897C40.3645 60.1785 39.9256 60.0099 39.4725 60.0205L32.6207 59.9087L32.6654 56.9297L39.5247 57.0414C40.7466 57.0569 41.9143 57.5486 42.7793 58.4118C43.2132 58.8364 43.5561 59.3449 43.787 59.9064C44.0179 60.4679 44.132 61.0706 44.1222 61.6776C44.1124 62.2847 43.9791 62.8834 43.7303 63.4372C43.4815 63.991 43.1224 64.4882 42.675 64.8987C41.8062 65.7107 40.6618 66.1631 39.4725 66.1648Z" fill="#17262F"></path><path d="M31.7594 63.0594L31.71 66.0381L39.3576 66.1649L39.407 63.1863L31.7594 63.0594Z" fill="#17262F"></path><path d="M37.983 72.2795H37.9011L37.9532 69.3004C38.4029 69.3127 38.8393 69.1467 39.1672 68.8387C39.328 68.7016 39.4579 68.5318 39.548 68.3406C39.6382 68.1494 39.6867 67.9413 39.6902 67.7299C39.6937 67.5186 39.6522 67.3089 39.5685 67.1149C39.4847 66.9208 39.3606 66.7468 39.2044 66.6044C39.0411 66.451 38.8492 66.3312 38.6397 66.252C38.4301 66.1728 38.2069 66.1356 37.983 66.1426L38.0277 63.1636C39.2525 63.1756 40.4238 63.6676 41.2898 64.5339C41.7225 64.9584 42.0644 65.4665 42.2946 66.0273C42.5248 66.5881 42.6385 67.1899 42.6287 67.7961C42.619 68.4022 42.486 69 42.2379 69.5531C41.9898 70.1062 41.6317 70.6031 41.1855 71.0134C40.3166 71.8254 39.1722 72.2779 37.983 72.2795Z" fill="#17262F"></path><path d="M31.6558 69.2049L31.6064 72.1836L37.8616 72.2873L37.911 69.3087L31.6558 69.2049Z" fill="#17262F"></path><path d="M36.0541 78.394H35.9796L36.0243 75.4149C36.4577 75.4352 36.8815 75.2827 37.2026 74.9909C37.5237 74.699 37.716 74.2918 37.7372 73.8584C37.739 73.6525 37.6998 73.4483 37.6218 73.2578C37.5438 73.0673 37.4286 72.8942 37.2829 72.7487C36.9614 72.4302 36.5289 72.2487 36.0764 72.2422L36.1285 69.2632C37.3505 69.2787 38.5181 69.7704 39.3832 70.6335C39.8158 71.0594 40.1571 71.5689 40.3863 72.1311C40.6155 72.6932 40.7278 73.2961 40.7163 73.9031C40.6831 75.1134 40.1759 76.2623 39.3039 77.1023C38.4319 77.9423 37.2648 78.4062 36.0541 78.394Z" fill="#17262F"></path><path d="M35.9796 78.3942L14.94 78.0441C14.7009 78.0377 14.4665 77.9766 14.2548 77.8654L9.68194 75.4002L7.22421 75.3555L7.27635 72.3765L10.099 72.4211C10.3357 72.4276 10.5676 72.4888 10.7767 72.5999L15.357 75.0725L36.0317 75.4151L35.9796 78.3942Z" fill="#17262F"></path><path d="M7.58171 79.6152L0 79.4885L0.0521335 76.5095L6.11452 76.6138L6.56138 49.6756L0.498992 49.5713L0.543678 46.5923L8.10304 46.7189C8.49809 46.7189 8.87696 46.8758 9.1563 47.1552C9.43564 47.4345 9.59257 47.8134 9.59257 48.2084L9.09358 78.1256C9.09081 78.322 9.04924 78.5158 8.97128 78.696C8.89331 78.8763 8.78048 79.0393 8.63927 79.1757C8.5007 79.3151 8.33592 79.4257 8.15441 79.5011C7.9729 79.5766 7.77826 79.6153 7.58171 79.6152Z" fill="#17262F"></path><path d="M1.69681 66.7654L1.57542 74.0854L4.55407 74.1348L4.67546 66.8148L1.69681 66.7654Z" fill="#17262F"></path><path d="M3.22483 65.6435C2.83042 65.6419 2.45277 65.4838 2.17471 65.2041C2.03622 65.0658 1.92636 64.9015 1.8514 64.7207C1.77644 64.5398 1.73785 64.346 1.73785 64.1503C1.73785 63.9545 1.77644 63.7607 1.8514 63.5799C1.92636 63.399 2.03622 63.2348 2.17471 63.0964C2.24226 63.0265 2.31717 62.9641 2.39814 62.9102C2.48106 62.8582 2.56827 62.8134 2.65881 62.7762C2.74796 62.7386 2.84015 62.7087 2.93437 62.6868C3.12614 62.6487 3.32353 62.6487 3.51529 62.6868C3.61194 62.7087 3.7066 62.7386 3.7983 62.7762C3.88718 62.8118 3.97206 62.8568 4.05152 62.9102C4.13346 62.9658 4.21068 63.0281 4.2824 63.0964C4.34964 63.1611 4.41188 63.2308 4.46859 63.305C4.52061 63.3879 4.56546 63.4751 4.60265 63.5656C4.64015 63.6541 4.66763 63.7466 4.68457 63.8412C4.69596 63.9402 4.69596 64.0401 4.68457 64.1391C4.68293 64.3331 4.64504 64.525 4.57286 64.7051C4.53567 64.7957 4.49082 64.8829 4.4388 64.9658C4.3827 65.045 4.32045 65.1197 4.25261 65.1892C4.18089 65.2575 4.10367 65.3198 4.02173 65.3754C3.95301 65.4375 3.87815 65.4924 3.7983 65.5392C3.7066 65.5768 3.61194 65.6067 3.51529 65.6286C3.41902 65.6413 3.32189 65.6463 3.22483 65.6435Z" fill="#17262F"></path><path d="M37.983 59.9982H37.9011L37.9458 57.0192C38.3959 57.0212 38.8309 56.8567 39.1672 56.5574C39.3206 56.419 39.4435 56.2502 39.5281 56.0617C39.6127 55.8732 39.6572 55.6692 39.6587 55.4626C39.6547 55.2571 39.6098 55.0545 39.5267 54.8666C39.4436 54.6786 39.3239 54.5091 39.1746 54.3678C38.8579 54.0501 38.4314 53.8662 37.983 53.8539L28.4872 53.6975H28.3085L25.2028 53.273L25.605 50.2939L28.5841 50.711L37.983 50.8674C39.2069 50.8841 40.3764 51.3755 41.2451 52.2378C41.6786 52.6629 42.0209 53.1718 42.2511 53.7336C42.4814 54.2954 42.5947 54.8982 42.5843 55.5053C42.5738 56.1123 42.4398 56.7109 42.1903 57.2644C41.9409 57.8179 41.5812 58.3148 41.1334 58.7247C40.2804 59.5298 39.1558 59.9844 37.983 59.9982Z" fill="#17262F"></path><path d="M59.5812 18.7532H8.45308C8.05803 18.7532 7.67916 18.5962 7.39982 18.3169C7.12048 18.0376 6.96355 17.6587 6.96355 17.2636V1.48953C6.96355 1.09448 7.12048 0.715614 7.39982 0.436273C7.67916 0.156932 8.05803 0 8.45308 0L59.5812 0C59.9762 0 60.3551 0.156932 60.6344 0.436273C60.9138 0.715614 61.0707 1.09448 61.0707 1.48953V17.2636C61.0707 17.6587 60.9138 18.0376 60.6344 18.3169C60.3551 18.5962 59.9762 18.7532 59.5812 18.7532ZM9.9575 15.7741H58.0917V2.97906H9.94261L9.9575 15.7741Z" fill="#17262F"></path><path d="M35.5029 42.6901H32.5239V27.2362C32.5237 26.9045 32.6343 26.5823 32.838 26.3206C33.0417 26.0589 33.3269 25.8726 33.6485 25.7914L69.062 16.9882V10.8663H59.5812V7.88721H70.5516C70.9466 7.88721 71.3255 8.04414 71.6048 8.32348C71.8842 8.60282 72.0411 8.98169 72.0411 9.37674V18.1575C72.0408 18.4902 71.9292 18.8132 71.7241 19.075C71.5189 19.3369 71.232 19.5225 70.9091 19.6024L35.5029 28.4055V42.6901Z" fill="#17262F"></path><path d="M39.2863 49.2064H36.3073V44.1793H31.7195V44.3208H28.7405V42.6897C28.7405 42.2947 28.8974 41.9158 29.1768 41.6365C29.4561 41.3571 29.835 41.2002 30.23 41.2002H37.7968C38.1919 41.2002 38.5707 41.3571 38.8501 41.6365C39.1294 41.9158 39.2863 42.2947 39.2863 42.6897V49.2064Z" fill="#17262F"></path><path d="M37.6181 84.9999H30.4683C30.0733 84.9999 29.6944 84.843 29.4151 84.5636C29.1357 84.2843 28.9788 83.9054 28.9788 83.5104V79.4067H31.9578V82.0209H36.1285V79.4067H39.1076V83.5104C39.1076 83.9054 38.9507 84.2843 38.6713 84.5636C38.392 84.843 38.0131 84.9999 37.6181 84.9999Z" fill="#17262F"></path></g><defs><clipPath id="clip0_5678_6407"><rect width="72.0411" height="85" fill="white"></rect></clipPath></defs></svg>