<svg xmlns="http://www.w3.org/2000/svg" width="80" height="95" viewBox="0 0 80 95" fill="none"><g clip-path="url(#clip0_5678_33176)"><path d="M39.9659 31.511C37.823 31.511 35.7283 30.8756 33.9466 29.6851C32.1649 28.4946 30.7763 26.8025 29.9562 24.8228C29.1362 22.8431 28.9217 20.6646 29.3397 18.563C29.7577 16.4613 30.7896 14.5308 32.3048 13.0156C33.82 11.5004 35.7505 10.4685 37.8522 10.0505C39.9539 9.63242 42.1323 9.84698 44.112 10.667C46.0917 11.487 47.7838 12.8757 48.9743 14.6574C50.1648 16.4391 50.8002 18.5338 50.8002 20.6766C50.7968 23.549 49.6542 26.3028 47.6231 28.3339C45.592 30.365 42.8383 31.5076 39.9659 31.511ZM39.9659 12.76C38.3985 12.76 36.8664 13.2248 35.5633 14.0957C34.2602 14.9666 33.2447 16.2044 32.6452 17.6526C32.0457 19.1007 31.8892 20.6941 32.1954 22.2312C32.5017 23.7684 33.2569 25.1801 34.3657 26.2879C35.4744 27.3958 36.8868 28.1498 38.4241 28.4548C39.9615 28.7598 41.5548 28.602 43.0024 28.0013C44.4501 27.4006 45.6871 26.3841 46.5569 25.0803C47.4267 23.7765 47.8903 22.244 47.889 20.6766C47.8856 18.5769 47.0495 16.5643 45.5642 15.0802C44.0789 13.5961 42.0656 12.7617 39.9659 12.76Z" fill="#17262F"></path><path d="M39.9659 9.48574C39.7746 9.48574 39.5852 9.44796 39.4086 9.37456C39.2319 9.30117 39.0716 9.19361 38.9366 9.05806C38.8017 8.92251 38.6948 8.76163 38.6222 8.58468C38.5496 8.40772 38.5127 8.21816 38.5135 8.02689V1.45236C38.5135 1.06717 38.6665 0.697757 38.9389 0.425387C39.2113 0.153016 39.5807 0 39.9659 0C40.3511 0 40.7205 0.153016 40.9929 0.425387C41.2652 0.697757 41.4182 1.06717 41.4182 1.45236V8.02689C41.4191 8.21816 41.3822 8.40772 41.3096 8.58468C41.2369 8.76163 41.1301 8.92251 40.9952 9.05806C40.8602 9.19361 40.6998 9.30117 40.5232 9.37456C40.3465 9.44796 40.1572 9.48574 39.9659 9.48574Z" fill="#17262F"></path><path d="M39.9659 41.3599C39.7752 41.3599 39.5863 41.3223 39.4101 41.2493C39.2339 41.1763 39.0738 41.0694 38.9389 40.9345C38.804 40.7996 38.6971 40.6395 38.6241 40.4633C38.5511 40.2871 38.5135 40.0982 38.5135 39.9075V33.3265C38.5135 32.9413 38.6665 32.5719 38.9389 32.2995C39.2113 32.0272 39.5807 31.8741 39.9659 31.8741C40.3511 31.8741 40.7205 32.0272 40.9929 32.2995C41.2652 32.5719 41.4182 32.9413 41.4182 33.3265V39.9075C41.4182 40.2927 41.2652 40.6621 40.9929 40.9345C40.7205 41.2069 40.3511 41.3599 39.9659 41.3599Z" fill="#17262F"></path><path d="M48.9135 13.1879C48.6264 13.1864 48.3462 13.1003 48.1079 12.9403C47.8697 12.7803 47.6839 12.5535 47.5738 12.2885C47.4638 12.0234 47.4343 11.7317 47.4893 11.45C47.5442 11.1683 47.681 10.909 47.8825 10.7047L52.5184 6.0558C52.791 5.78325 53.1606 5.63013 53.5461 5.63013C53.9316 5.63013 54.3012 5.78325 54.5738 6.0558C54.8463 6.32836 54.9995 6.69803 54.9995 7.08348C54.9995 7.46893 54.8463 7.8386 54.5738 8.11115L49.9249 12.76C49.6572 13.0301 49.2938 13.1839 48.9135 13.1879Z" fill="#17262F"></path><path d="M26.3694 35.7255C25.986 35.7245 25.6182 35.5732 25.345 35.3041C25.2091 35.1696 25.1013 35.0096 25.0277 34.8332C24.9541 34.6568 24.9162 34.4675 24.9162 34.2764C24.9162 34.0853 24.9541 33.896 25.0277 33.7196C25.1013 33.5432 25.2091 33.3832 25.345 33.2487L29.9939 28.5934C30.1257 28.4433 30.2869 28.3219 30.4675 28.2367C30.6481 28.1515 30.8443 28.1043 31.0439 28.098C31.2435 28.0917 31.4423 28.1265 31.6279 28.2001C31.8136 28.2738 31.9821 28.3848 32.1231 28.5262C32.2641 28.6676 32.3745 28.8365 32.4476 29.0224C32.5207 29.2083 32.5548 29.4071 32.5479 29.6067C32.5409 29.8063 32.4931 30.0024 32.4073 30.1827C32.3216 30.3631 32.1997 30.5239 32.0492 30.6552L27.4003 35.3041C27.1256 35.5748 26.7551 35.7262 26.3694 35.7255Z" fill="#17262F"></path><path d="M59.1902 22.1355H52.6157C52.2464 22.1109 51.9003 21.9468 51.6475 21.6765C51.3947 21.4062 51.254 21.05 51.254 20.6799C51.254 20.3098 51.3947 19.9536 51.6475 19.6833C51.9003 19.413 52.2464 19.249 52.6157 19.2243H59.1902C59.3895 19.211 59.5895 19.2388 59.7776 19.3059C59.9658 19.373 60.1381 19.4781 60.284 19.6145C60.4299 19.751 60.5462 19.916 60.6257 20.0993C60.7052 20.2825 60.7463 20.4801 60.7463 20.6799C60.7463 20.8797 60.7052 21.0773 60.6257 21.2606C60.5462 21.4438 60.4299 21.6088 60.284 21.7453C60.1381 21.8818 59.9658 21.9868 59.7776 22.0539C59.5895 22.1211 59.3895 22.1488 59.1902 22.1355Z" fill="#17262F"></path><path d="M27.3161 22.1355H20.748C20.3788 22.1109 20.0327 21.9468 19.7799 21.6765C19.527 21.4062 19.3864 21.05 19.3864 20.6799C19.3864 20.3098 19.527 19.9536 19.7799 19.6833C20.0327 19.413 20.3788 19.249 20.748 19.2243H27.3161C27.5154 19.211 27.7153 19.2388 27.9035 19.3059C28.0916 19.373 28.264 19.4781 28.4099 19.6145C28.5558 19.751 28.6721 19.916 28.7516 20.0993C28.8311 20.2825 28.8721 20.4801 28.8721 20.6799C28.8721 20.8797 28.8311 21.0773 28.7516 21.2606C28.6721 21.4438 28.5558 21.6088 28.4099 21.7453C28.264 21.8818 28.0916 21.9868 27.9035 22.0539C27.7153 22.1211 27.5154 22.1488 27.3161 22.1355Z" fill="#17262F"></path><path d="M53.5623 35.7255C53.3691 35.7276 53.1774 35.6914 52.9983 35.6191C52.8191 35.5467 52.6561 35.4397 52.5184 35.3041L47.8696 30.6552C47.6253 30.3771 47.4958 30.0165 47.5075 29.6465C47.5192 29.2765 47.6711 28.9247 47.9325 28.6626C48.1938 28.4004 48.5451 28.2474 48.915 28.2345C49.285 28.2217 49.646 28.35 49.9249 28.5934L54.5738 33.2487C54.7759 33.4518 54.9134 33.7102 54.969 33.9912C55.0246 34.2723 54.9959 34.5635 54.8864 34.8283C54.7769 35.0931 54.5915 35.3195 54.3536 35.4792C54.1157 35.6388 53.8359 35.7245 53.5493 35.7255H53.5623Z" fill="#17262F"></path><path d="M31.0248 13.1879C30.8332 13.1885 30.6433 13.1509 30.4664 13.0775C30.2894 13.004 30.1288 12.8961 29.9939 12.76L25.345 8.11115C25.21 7.9762 25.103 7.81598 25.03 7.63965C24.9569 7.46332 24.9193 7.27434 24.9193 7.08348C24.9193 6.89262 24.9569 6.70363 25.03 6.52731C25.103 6.35098 25.21 6.19076 25.345 6.0558C25.48 5.92085 25.6402 5.81379 25.8165 5.74076C25.9928 5.66772 26.1818 5.63013 26.3727 5.63013C26.5635 5.63013 26.7525 5.66772 26.9289 5.74076C27.1052 5.81379 27.2654 5.92085 27.4004 6.0558L32.0492 10.7047C32.2504 10.9086 32.3871 11.1673 32.4422 11.4484C32.4973 11.7295 32.4685 12.0207 32.3592 12.2855C32.25 12.5503 32.0652 12.7771 31.8279 12.9376C31.5906 13.0981 31.3112 13.1852 31.0248 13.1879Z" fill="#17262F"></path><path d="M79.5881 75.5163L72.6959 64.9413C72.6586 64.8762 72.6175 64.8134 72.5727 64.7532L60.2989 45.9244C60.1655 45.7237 59.9842 45.5593 59.7714 45.4461C59.5586 45.3329 59.321 45.2745 59.08 45.276H20.8258C20.5848 45.2745 20.3472 45.3329 20.1344 45.4461C19.9216 45.5593 19.7403 45.7237 19.6069 45.9244L7.33962 64.7273C7.29484 64.7875 7.2537 64.8503 7.21643 64.9153L0.23342 75.6913C0.0910127 75.9106 0.0104445 76.1643 0.000218719 76.4256C-0.0100071 76.6868 0.0504887 76.946 0.175321 77.1757C0.300154 77.4055 0.484693 77.5973 0.709464 77.7309C0.934234 77.8644 1.1909 77.9349 1.45237 77.9347H31.8547V92.0693H24.3984C24.0132 92.0693 23.6438 92.2223 23.3714 92.4947C23.099 92.7671 22.946 93.1365 22.946 93.5217C22.946 93.9069 23.099 94.2763 23.3714 94.5486C23.6438 94.821 24.0132 94.974 24.3984 94.974H55.5204C55.9056 94.974 56.275 94.821 56.5474 94.5486C56.8198 94.2763 56.9728 93.9069 56.9728 93.5217C56.9728 93.1365 56.8198 92.7671 56.5474 92.4947C56.275 92.2223 55.9056 92.0693 55.5204 92.0693H48.0771V77.9347H78.4988C78.7782 77.9329 79.0511 77.8509 79.2852 77.6985C79.5193 77.5461 79.7048 77.3297 79.8195 77.075C79.9342 76.8203 79.9734 76.538 79.9324 76.2617C79.8913 75.9854 79.7719 75.7267 79.5881 75.5163ZM34.7659 92.0693V78.2978H45.1723V92.0693H34.7659ZM30.143 75.0041L31.6537 67.0679H48.2845L49.7888 75.0041H30.143ZM32.2048 64.1891L33.5664 57.057H46.3718L47.7269 64.1891H32.2048ZM15.8593 57.057H30.6033L29.2417 64.1891H11.2039L15.8593 57.057ZM44.6861 48.1743L45.8207 54.1264H34.1175L35.2457 48.1743H44.6861ZM49.3284 57.057H64.0725L68.7278 64.1891H50.69L49.3284 57.057ZM62.1792 54.1264H48.7773L47.6491 48.1743H58.3019L62.1792 54.1264ZM21.6363 48.1743H32.2891L31.1545 54.1264H17.759L21.6363 48.1743ZM9.31716 67.0939H28.6906L27.1864 75.03H4.13664L9.31716 67.0939ZM52.7583 75.03L51.2217 67.0939H70.6081L75.7951 75.03H52.7583Z" fill="#17262F"></path></g><defs><clipPath id="clip0_5678_33176"><rect width="79.9512" height="95" fill="white"></rect></clipPath></defs></svg>