<svg xmlns="http://www.w3.org/2000/svg" width="114" height="110" viewBox="0 0 114 110" fill="none"><g clip-path="url(#clip0_5678_8098)"><path d="M89.2109 5.64603L88.9023 5.81988L88.8676 0.265119L89.1761 0.0869141L89.2109 5.64603Z" fill="#FF9A0A"></path><path d="M89.1761 0.086929L88.8675 0.265134L88.7328 0.178205L89.037 0L89.1761 0.086929Z" fill="#FFC523"></path><path d="M88.5981 4.67245L88.9023 5.81992L88.8676 0.265152L88.7328 0.178223L88.5981 4.67245Z" fill="#D45100"></path><path d="M44.3207 58.7208L52.8528 63.6453L57.0471 61.2243L48.5151 56.2998L44.3207 58.7208Z" fill="#A2AEA1"></path><path d="M44.3207 59.8638L52.8528 64.7927V63.6452L44.3207 58.7207V59.8638Z" fill="#3D423C"></path><path d="M57.0472 62.3716L52.8528 64.7926V63.6451L57.0472 61.2241V62.3716Z" fill="#7A8B79"></path><g style="mix-blend-mode:multiply"><path d="M93.1532 86.3553L92.9445 86.4161L49.0454 86.7508L49.9146 86.1727H49.6234L47.259 86.8551L39.9569 86.9116L42.7647 85.06H43.96L50.3797 83.2085L51.249 82.6173H49.5887L49.7278 82.5782L50.3363 82.174H50.2406L50.4188 82.1479L51.0273 81.7394H50.9317L51.0969 81.6915L51.7228 81.2786H51.6272L51.7967 81.2308L52.4052 80.8266L48.7889 80.8527L49.5104 80.392H48.2804H48.2152C48.1445 80.3651 48.069 80.3532 47.9935 80.3572C47.836 80.3622 47.6797 80.387 47.5285 80.4311H47.4937L45.1031 81.1178L45.0032 81.1482C44.8658 81.1889 44.7343 81.2474 44.612 81.3221C44.5077 81.3916 44.4642 81.4568 44.4772 81.5003L42.9908 81.9349H42.7995L42.1606 82.1479L42.0128 82.2435L40.422 82.713L39.8135 83.1172H39.9135L39.744 83.165L39.1355 83.5692H39.2311L39.0659 83.617L38.4574 84.0256H38.553L38.3835 84.0778L38.1184 84.2516L37.1752 84.5254L36.3059 85.1122H37.6098L34.4847 87.1159L19.7329 87.5506L17.4901 87.8418L16.7556 88.0243L15.3125 88.459L14.7736 88.8154L14.6128 88.9936L15.6298 89.2153L28.9387 90.3323L26.6046 91.2842L23.4708 93.314L19.559 95.9218L15.6472 98.5297L11.7354 101.138L7.82361 103.745L3.91181 106.353L0 108.961L0.795401 109.987H1.11704L1.60384 109.848L7.5324 108.135L8.0192 107.992L9.56219 106.997L11.5051 106.436L11.5876 106.41L11.7441 106.366L11.8267 106.34L11.9832 106.297L12.0658 106.271L12.2266 106.227H12.2526C12.4687 106.169 12.6752 106.08 12.8655 105.962C12.9078 105.934 12.9471 105.902 12.9829 105.867V105.84C13.001 105.82 13.0157 105.796 13.0263 105.771C13.0524 105.675 12.9568 105.61 12.7438 105.597L12.8264 105.571L12.9829 105.523L13.0654 105.497L13.2219 105.454L13.3045 105.428L13.4653 105.384H13.4914C13.7075 105.326 13.9139 105.237 14.1042 105.119C14.1465 105.091 14.1859 105.059 14.2216 105.023V104.997C14.2422 104.978 14.2572 104.954 14.2651 104.928C14.2955 104.823 14.1694 104.749 13.8956 104.754C13.6764 104.76 13.4588 104.793 13.248 104.854L12.4004 105.097L33.0243 91.4754L34.0458 91.5406L34.8585 91.5623L35.9799 91.4798H36.3146L39.8352 90.4627L83.4562 90.1324L86.2423 91.797H89.6803L89.1023 89.4282L89.4413 89.45L89.5152 89.0936H89.0023L88.8719 88.6285L89.3978 88.4764H89.4456L89.3674 88.5242H90.0281L91.0234 88.2373L91.458 87.9548H90.7974L90.5844 88.0113H90.4975L92.1013 86.929H92.4012L93.3966 86.6422L93.8312 86.3596L93.1532 86.3553ZM18.9983 87.9852L33.9023 87.4419L32.4115 88.3981L18.5767 88.259L18.9983 87.9852ZM16.1731 89.0066L16.573 88.8936L18.0073 88.459L31.7291 88.8415L31.6378 88.9023H32.568L32.4376 88.9892H32.242L31.7552 89.1283L29.5559 90.0237L16.1731 89.0066ZM30.9511 89.9759L30.599 90.0802H30.3078L29.9384 90.0541L32.255 89.1022L30.9511 89.9759ZM31.9986 90.7496L31.8725 90.793L31.9986 90.7496ZM31.8638 90.7887L31.7291 90.8408L31.8638 90.7887ZM26.2526 93.7182L25.8875 93.8225L28.4953 92.0839L28.8648 91.9753L26.2526 93.7182ZM28.0129 93.3748H27.9868L27.713 93.4704L27.7608 93.4357L28.0129 93.3748ZM27.5782 93.6573L27.0784 93.992L27.0393 93.9442L27.3348 93.7356L27.5782 93.6573ZM25.1312 94.318L25.4919 94.2137L22.6015 96.1348L22.2451 96.2391L25.1312 94.318ZM24.6965 94.2093L24.3923 94.2963L24.6965 94.2093ZM26.283 94.4832V94.5136L24.7748 95.5611L26.283 94.4832ZM26.4003 94.6309L26.4351 94.6787L25.2094 95.4915H25.1703L26.4003 94.6309ZM30.047 90.6757L29.0473 91.3363L28.6388 90.8061L30.2383 90.3453H30.386L29.8862 90.6757H30.047ZM29.7645 91.3885L29.2994 91.6971L28.93 91.8014L29.3994 91.4928L29.7645 91.3885ZM28.6475 91.5884L28.4301 91.6493L28.6475 91.5884ZM27.8825 92.1056L24.6748 93.0314L28.3519 91.7927L27.8825 92.1056ZM30.1731 91.8492L30.2078 91.8927L28.4432 93.0793L28.2128 93.1445L30.1731 91.8492ZM30.2383 91.9318L30.36 92.0883L29.1821 92.8663L28.7474 92.9967L30.2383 91.9318ZM30.2383 91.0886L29.8688 91.1929L31.0424 90.4062L31.3075 90.328H31.3683L30.2383 91.0886ZM31.3118 91.0886L31.464 91.0364L31.0076 91.345L30.9815 91.3059L31.3118 91.0886ZM29.282 90.2975L29.6385 90.328L28.5301 90.6496L28.4997 90.6105L29.282 90.2975ZM28.2911 90.7017L28.1302 90.7669L28.2911 90.7017ZM27.1697 91.2146L27.6826 91.0668L28.178 91.7058L24.6531 92.8924L27.1697 91.2146ZM27.4478 92.3795L25.1399 93.9051L24.5966 93.2053L27.4478 92.3795ZM23.6708 93.5487L24.2662 94.318L22.9275 94.7526L21.0151 95.3046L23.6708 93.5487ZM22.1669 95.1873L24.1054 94.6266L21.2281 96.526L20.5978 95.7132L22.1669 95.1873ZM19.7764 96.187L20.2632 96.8172L17.7422 97.5431L19.7764 96.187ZM17.2989 97.8386L20.3675 96.9693L20.7413 96.8607L20.3805 96.965L16.8555 98.1516L17.2989 97.8386ZM20.3936 97.078L17.8205 98.7601L17.1554 98.9513L16.6643 98.3211L20.3936 97.078ZM18.7723 98.6644L18.2986 98.9774L17.9422 99.0817L18.4159 98.7688L18.7723 98.6644ZM17.3684 99.073L17.2815 99.1295V99.1034L17.3684 99.073ZM15.8428 98.8079L16.1818 99.2425L14.4433 99.7467L15.8428 98.8079ZM13.9825 100.047L16.2905 99.3816L16.4383 99.5729L16.7382 99.4903L16.447 99.5729L12.922 100.755L13.9825 100.047ZM16.3731 99.7293L14.465 100.99L13.0959 101.385L12.7568 100.951L16.3731 99.7293ZM12.5047 102.802L12.1527 102.907L13.5175 102.003L13.8695 101.903L12.5047 102.802ZM14.4824 102.229V102.255L12.4656 103.611L12.2961 103.659L14.4824 102.229ZM13.3566 101.707L13.2045 101.507L14.013 101.277L13.3566 101.707ZM11.931 101.403L12.1223 101.65L11.1313 101.937L11.931 101.403ZM10.6879 102.233L12.2309 101.798L12.5265 102.181L12.7525 102.116L12.5352 102.176L9.01454 103.363L10.6879 102.233ZM12.3787 102.355L11.1052 103.193L9.04062 103.789L8.84503 103.541L12.3787 102.355ZM10.6401 103.493L9.4318 104.315L9.14493 103.945L10.6401 103.493ZM9.56219 104.615L9.90556 104.51L9.12755 105.01L8.78418 105.11L9.56219 104.615ZM8.03659 104.015L8.08005 104.071L7.85404 104.137L8.03659 104.015ZM7.40635 104.45L8.18437 104.228L8.61901 104.797L8.76679 104.758L8.62771 104.797L5.10273 105.98L7.40635 104.45ZM5.51999 106.91L5.08535 106.366L7.29335 105.727L5.51999 106.91ZM5.93291 107.153L5.79382 107.244L5.45045 107.344L5.58954 107.253L5.93291 107.153ZM8.35823 105.414L8.7016 105.315L6.38494 106.844L6.04157 106.944L8.35823 105.414ZM8.39734 105.002L7.76276 105.436L4.99407 106.236L4.95061 106.175L8.39734 105.002ZM4.11174 106.64L4.70286 107.405L4.7811 107.357H4.7159L1.67338 108.387L1.26916 108.505L4.11174 106.64ZM1.59949 109.491L1.04315 108.774L3.95092 107.935L1.59949 109.491ZM2.06891 109.57L4.99842 107.636L5.34179 107.536L2.92951 109.126H3.21637L4.67678 108.692L6.64572 107.388L6.82828 107.627L5.86771 108.261H6.15458L7.10645 107.983L7.17599 108.079L2.06891 109.57ZM7.45851 106.918L8.42342 106.592L7.61498 107.123L7.45851 106.918ZM8.01486 107.64L7.97574 107.583L8.41038 107.288H8.56251L8.01486 107.64ZM8.82764 106.336L7.71495 106.705L7.8975 106.588L8.87111 106.306L8.82764 106.336ZM8.67117 106.184H8.6929L8.34953 106.284L10.5662 104.819L10.6097 104.876L8.67117 106.184ZM11.3964 104.354L11.366 104.315L11.5398 104.258L11.3964 104.354ZM10.3619 104.232L9.99684 104.315L11.6963 103.189L12.044 103.089L10.3619 104.232ZM11.718 104.067L11.8745 103.963L12.0571 103.911L11.931 103.998L11.718 104.067ZM11.9397 105.054L11.9006 105.002L14.5737 103.237L14.8127 103.159L11.9397 105.054ZM15.1995 102.902L15.0561 102.946L15.2082 102.902H15.1995ZM15.2995 101.733V101.711H15.3299L15.4125 101.681L15.2995 101.733ZM14.3433 101.59L13.9956 101.69L15.0822 100.972L15.4342 100.872L14.3433 101.59ZM17.5119 99.3686L17.8683 99.2643L15.8863 100.568L15.5342 100.668L17.5119 99.3686ZM17.6683 100.129L16.3644 100.998H16.3209L17.6683 100.129ZM15.7255 101.411L15.8602 101.32H15.9167L15.795 101.403L15.7255 101.411ZM15.8732 102.446L15.8341 102.394L18.5854 100.581L18.8201 100.503L15.8732 102.446ZM19.1896 100.273L18.9896 100.329L19.1896 100.273ZM18.8897 98.4732L21.4975 96.7607L21.8583 96.6564L19.2504 98.3732L18.8897 98.4732ZM19.7981 99.8728L19.759 99.8206L22.5842 97.956L22.8145 97.8777L19.7981 99.8728ZM23.1753 97.6387L22.9753 97.6995L23.1753 97.6387ZM23.7229 97.2823L23.6838 97.2301L26.5872 95.3177L26.8089 95.2394L23.7229 97.2823ZM27.161 95.0091L26.9654 95.0656L27.161 95.0091ZM27.2001 94.1137L28.0129 93.54L28.4475 93.4009L27.2653 94.1789L27.2001 94.1137ZM27.6347 94.6874L27.5956 94.6396L30.5729 92.675L30.7946 92.6011L27.6347 94.6874ZM31.1119 92.3795L30.9207 92.4316L31.1119 92.3795ZM31.0032 91.4102L31.5031 91.0582L32.3985 90.7582L31.1423 91.5884L31.0032 91.4102ZM31.5379 92.097L31.4987 92.0491L32.4376 91.4319H32.5375L31.5379 92.097ZM32.1811 90.5409L32.4723 90.3497H32.8592L32.1811 90.5409ZM33.4677 90.0585H32.8983L33.3808 89.7368L34.2805 89.4804L33.4677 90.0585ZM34.5847 88.233L34.2109 88.3416L35.6409 87.3637H35.8626L34.5847 88.233ZM35.8887 89.237L35.7018 89.2935L36.1973 88.9632L36.3537 88.9284L35.8887 89.237ZM36.3624 87.0638H36.1407L36.5015 86.8247H36.6797L36.3624 87.0638ZM37.0665 88.8936L36.9318 88.9327L37.1057 88.8197H37.1796L37.0665 88.8936ZM90.2106 86.8943L88.7458 87.1333L88.4199 86.9116L90.2106 86.8943ZM88.4286 87.681L87.9505 87.82L87.7679 87.7592L88.3547 87.6288L88.4286 87.681ZM79.3271 88.9154L79.4227 88.6589L79.9139 88.5502H80.1225L79.5748 88.9154H79.3271ZM79.4053 88.9501H79.3054H79.4053ZM79.8878 88.0808H78.7012L78.8924 87.9548L80.9396 87.6245L80.8484 87.8592L79.8878 88.0808ZM80.5528 88.0808L80.7918 88.0287L80.7701 88.0808H80.5528ZM80.7223 88.5155H80.9179L81.1309 88.6415L80.3442 88.7676L80.7223 88.5155ZM87.6766 87.129L87.8548 87.2463L87.6158 87.2854L87.6766 87.129ZM88.0548 87.3854L88.2112 87.4941L87.5288 87.6418H87.4854L87.5462 87.481L88.0548 87.3854ZM87.0855 86.929L86.8856 87.4376H86.8117L85.9424 87.1507L86.2858 86.9203L87.0855 86.929ZM83.2954 86.9595L82.8608 87.1811L82.5435 86.9638L83.2954 86.9595ZM81.7698 87.2115L81.9437 87.3332L81.7133 87.3637L81.7698 87.2115ZM81.6394 87.5506L82.1436 87.468L82.1957 87.5071L81.8611 87.6766L81.5655 87.7375L81.6394 87.5506ZM81.2048 86.9725L81.0092 87.4854L79.2271 87.7722L80.4137 86.9812L81.2048 86.9725ZM78.4491 87.8983L78.0362 87.9635L77.6015 87.6723L79.6705 87.0768L78.4491 87.8983ZM77.4407 87.5549L77.6581 87.5071L77.4407 87.5549ZM77.2669 87.4376L77.1712 87.368L78.649 87.129L77.2669 87.4376ZM78.4361 87.0029L76.9713 87.242L76.6453 87.016L78.4361 87.0029ZM73.9983 88.1678H72.8161L73.0073 88.0417L75.0545 87.7114L74.9633 87.9461L73.9983 88.1678ZM74.233 88.6024L73.6767 88.9762L73.4203 89.0197L73.5376 88.7154L74.0288 88.6068L74.233 88.6024ZM74.9024 88.0982V88.1504H74.6807L74.9024 88.0982ZM74.8329 88.5981H76.0759L74.4547 88.8588L74.8329 88.5981ZM75.9803 88.1634L76.8235 87.92L77.1321 88.133L76.9757 88.1547L75.9803 88.1634ZM75.8891 87.2941L76.0673 87.4158L75.8282 87.4549L75.8891 87.2941ZM75.7587 87.6331L76.2672 87.5549L76.4237 87.6592L75.6891 87.8244L75.7587 87.6331ZM75.6283 87.9765L76.5801 87.7679L76.654 87.82L75.5674 88.133L75.6283 87.9765ZM75.3197 87.0594L75.1241 87.568L73.342 87.8548L74.5286 87.0638L75.3197 87.0594ZM72.5597 87.9809L72.1511 88.0461L71.7165 87.7548L73.7854 87.1594L72.5597 87.9809ZM71.5513 87.6375L71.7643 87.5897L71.5513 87.6375ZM71.3818 87.5201L71.2818 87.4506L72.764 87.2159L71.3818 87.5201ZM72.551 87.0855L71.0819 87.3202L70.7602 87.0985L72.551 87.0855ZM68.1133 88.246H66.931L67.1179 88.12L69.1651 87.7896L69.0738 88.0243L68.1133 88.246ZM68.348 88.6806L67.7873 89.0501L67.5352 89.0936L67.6482 88.7893L68.1393 88.6806H68.348ZM69.0173 88.1765L68.9956 88.2243H68.7783L69.0173 88.1765ZM68.9478 88.6763H70.1908L68.5696 88.9371L68.9478 88.6763ZM70.0952 88.2156L70.9384 87.9722L71.2427 88.1851L71.0862 88.2112L70.0952 88.2156ZM70.004 87.3463L70.1778 87.4636L69.9431 87.5028L70.004 87.3463ZM69.8736 87.6853L70.3777 87.6027L70.5342 87.7114L69.7997 87.8722L69.8736 87.6853ZM69.7432 88.0287L70.6907 87.8157L70.7646 87.8679L69.6823 88.1808L69.7432 88.0287ZM69.4302 87.1072L69.2346 87.6158L67.4526 87.9026L68.6392 87.1116L69.4302 87.1072ZM66.6746 88.0287L66.2617 88.0982L65.827 87.807L67.8959 87.2072L66.6746 88.0287ZM65.6662 87.6853L65.8835 87.6375L65.6662 87.6853ZM65.4923 87.568L65.3967 87.5028L66.8745 87.2637L65.4923 87.568ZM66.6615 87.1333L65.1968 87.368L64.8708 87.1463L66.6615 87.1333ZM62.2195 88.233H61.0329L61.2241 88.1069L63.2713 87.7766L63.18 88.0113L62.2195 88.233ZM62.4542 88.6676L61.8935 89.0414L61.637 89.0805L61.7544 88.7763L62.2455 88.6676H62.4542ZM63.1192 88.1634V88.2156H62.9019L63.1192 88.1634ZM63.0496 88.6633H64.2927L62.6758 88.924L63.0496 88.6633ZM64.1971 88.233L65.0664 87.9896L65.3706 88.1982L65.2142 88.2243L64.1971 88.233ZM64.1102 87.3637L64.284 87.4854L64.0493 87.5245L64.1102 87.3637ZM63.9798 87.7027L64.484 87.6201L64.6404 87.7288L63.9059 87.8896L63.9798 87.7027ZM63.845 88.0461L64.7969 87.8374L64.8708 87.8852L63.7885 88.1982L63.845 88.0461ZM63.5364 87.1246L63.3408 87.6375L61.5588 87.9244L62.7454 87.1333L63.5364 87.1246ZM60.7764 88.0504L60.3679 88.1156L59.9332 87.8244L62.0021 87.2289L60.7764 88.0504ZM59.7681 87.707L59.9854 87.6592L59.7681 87.707ZM59.5985 87.5897L59.5029 87.5201L60.9807 87.2811L59.5985 87.5897ZM60.7677 87.155L59.303 87.3941L58.977 87.1681L60.7677 87.155ZM56.33 88.3199H55.1478L55.3347 88.1938L57.3819 87.8635L57.2949 88.0982L56.33 88.3199ZM56.5647 88.7545L56.0084 89.1283L55.7519 89.1718L55.8693 88.8675L56.3561 88.7589L56.5647 88.7545ZM57.2341 88.2503L57.2123 88.3025H56.995L57.2341 88.2503ZM57.1645 88.7502H58.4076L56.7864 89.011L57.1645 88.7502ZM58.312 88.3155L59.1552 88.0721L59.4638 88.2851L59.303 88.3068L58.312 88.3155ZM58.2207 87.4463L58.3989 87.568L58.1599 87.6071L58.2207 87.4463ZM58.0903 87.7853L58.5989 87.707L58.7553 87.8114L58.0164 87.9765L58.0903 87.7853ZM57.9599 88.133L58.9118 87.92L58.9813 87.9722L57.8991 88.2851L57.9599 88.133ZM57.6513 87.2115L57.4514 87.7201L55.6694 88.0069L56.8559 87.2159L57.6513 87.2115ZM54.8913 88.133L54.4567 88.1982L54.022 87.907L56.0866 87.3115L54.8913 88.133ZM53.896 87.7114L54.1133 87.6636L53.896 87.7114ZM53.7265 87.594L53.6265 87.5245L55.1043 87.2898L53.7265 87.594ZM54.8913 87.1594L53.4266 87.3941L53.1049 87.1724L54.8913 87.1594ZM50.458 88.3199H49.2714L49.4626 88.1938L51.5098 87.8635L51.4185 88.0982L50.458 88.3199ZM50.6927 88.7545L50.132 89.124L49.8755 89.1674L49.9929 88.8632L50.484 88.7545H50.6927ZM51.362 88.2503V88.2982H51.1447L51.362 88.2503ZM51.2881 88.7502H52.5312L50.9143 89.0153L51.2881 88.7502ZM52.4356 88.2895L53.3049 88.0461L53.6091 88.259L53.4527 88.2851L52.4356 88.2895ZM52.3487 87.4202L52.5225 87.5375L52.2878 87.5766L52.3487 87.4202ZM52.2183 87.7592L52.7225 87.6766L52.8789 87.7853L52.1444 87.9461L52.2183 87.7592ZM52.0835 88.1026L53.0354 87.8939L53.1093 87.9417L52.027 88.2547L52.0835 88.1026ZM51.7749 87.1811L51.5793 87.6897L49.7973 87.9765L50.9839 87.1855L51.7749 87.1811ZM49.0149 88.1026L48.6064 88.1721L48.1717 87.8809L50.2406 87.2811L49.0149 88.1026ZM48.0109 87.7592L48.2282 87.7114L48.0109 87.7592ZM48.3847 87.2072H49.0062L48.1978 87.3376L48.3847 87.2072ZM47.8631 87.5549L49.2192 87.3376L47.837 87.6418L47.7849 87.6071L47.8631 87.5549ZM46.7852 88.2895L47.4111 88.1113L47.7197 88.3199L47.5632 88.346H46.6939L46.7852 88.2895ZM43.169 87.1637L45.9681 87.142L42.9951 87.6245L43.169 87.1637ZM46.6461 88.8023L45.0249 89.0631L45.403 88.811L46.6461 88.8023ZM41.5564 87.8418L39.2745 88.2069L42.3171 87.3376L41.5564 87.8418ZM42.2388 87.8896L42.091 88.2721H42.0345L41.4217 88.2938L41.9693 87.9287L42.2388 87.8896ZM41.2131 85.7164L39.4745 86.8508H39.4223L41.2131 85.7164ZM39.3441 85.1035H39.657L39.0789 85.273L39.3441 85.1035ZM39.5527 87.2029H41.7259L38.9094 87.6375L39.5527 87.2029ZM37.8141 88.4372H37.675L37.8619 88.3155L37.8141 88.4372ZM37.5968 86.9725L38.5661 86.3336L38.7617 86.2771L38.3748 86.5248L37.5968 86.9725ZM38.6834 87.7983L41.9128 87.2767L38.5052 88.259L38.6834 87.7983ZM40.8566 88.3068L39.1181 88.3764L41.2609 88.033L40.8566 88.3068ZM41.3391 89.9715L42.1432 89.7368L42.4692 89.9628L41.3391 89.9715ZM42.8995 87.7983L45.5073 87.3637L42.743 88.1634L42.8995 87.7983ZM44.3729 89.1022L44.2338 89.1979L43.9774 89.237V89.2153L44.3729 89.1022ZM43.1472 89.6716L42.9951 89.5673L43.1994 89.5326L43.1472 89.6716ZM44.6772 89.2935L46.9113 88.9327L46.9721 88.9762L43.7731 89.8977L44.6772 89.2935ZM44.1556 89.9585L47.146 89.0892L47.4546 89.3022L44.7685 89.8803H45.3074L45.0553 89.9368L44.1556 89.9585ZM47.6328 89.4152L47.8023 89.5282L45.2292 89.9628L47.6328 89.4152ZM46.2984 89.9411L48.0022 89.6673L48.376 89.9237L46.2984 89.9411ZM49.0541 89.6238L48.9063 89.5195L49.1106 89.4891L49.0541 89.6238ZM49.1801 89.3065L48.7063 89.3848L48.476 89.2283L49.2757 89.0501L49.1801 89.3065ZM49.3366 88.8719L48.3195 89.0979L47.9544 88.8458L48.1935 88.7763H49.3757L49.3366 88.8719ZM50.5884 89.2283L52.8224 88.8675L52.8833 88.911L49.6799 89.8324L50.5884 89.2283ZM50.0624 89.889L53.0528 89.0197L53.3614 89.2283L50.6753 89.8238H51.2142L50.9621 89.8803L50.0624 89.889ZM53.5396 89.3456L53.7091 89.463L51.136 89.8759L53.5396 89.3456ZM52.1574 89.8803L53.8612 89.6064L54.2394 89.8629L52.1574 89.8803ZM54.9174 89.563L54.7653 89.4587L54.9696 89.4239L54.9174 89.563ZM55.0391 89.2457L54.5654 89.3196L54.335 89.1631L55.1391 88.9849L55.0391 89.2457ZM55.1999 88.811L54.1785 89.0371L53.8134 88.785L54.0525 88.7154H55.2391L55.1999 88.811ZM56.4474 89.1674L58.6814 88.8067L58.7423 88.8458L55.5433 89.7716L56.4474 89.1674ZM55.9258 89.8281L58.9162 88.9588L59.2248 89.1718L56.5343 89.7673H57.0776L56.8255 89.8238L55.9258 89.8281ZM59.3769 89.2848L59.5464 89.4022L56.9733 89.8151L59.3769 89.2848ZM58.0425 89.8107L59.7463 89.5369L60.1245 89.7977L58.0425 89.8107ZM60.8025 89.4978L60.6504 89.3935L60.8547 89.3587L60.8025 89.4978ZM60.9242 89.1761L60.4505 89.2544L60.2244 89.0979L61.0242 88.9197L60.9242 89.1761ZM61.085 88.7632L60.068 88.9892L59.7029 88.7371L59.9419 88.6676H61.1242L61.085 88.7632ZM62.3368 89.1196L64.5709 88.7589L64.6274 88.8023L61.4284 89.7238L62.3368 89.1196ZM61.8109 89.7846L64.8012 88.9154L65.1098 89.1283L62.4237 89.7194H62.9627L62.7106 89.776L61.8109 89.7846ZM65.2663 89.237L65.4358 89.3543L62.8627 89.789L65.2663 89.237ZM63.932 89.7673L65.6314 89.5369L66.0052 89.7933L63.932 89.7673ZM66.692 89.45L66.5398 89.3456L66.7441 89.3152L66.692 89.45ZM66.8137 89.1327L66.3399 89.2109L66.1095 89.0544L66.9136 88.8762L66.8137 89.1327ZM66.9701 88.698L65.9531 88.924L65.588 88.6719L65.827 88.6024H67.0136L66.9701 88.698ZM68.2393 89.1022L70.4734 88.7415L70.5342 88.785L67.3309 89.7064L68.2393 89.1022ZM67.7177 89.7629L70.7081 88.8936L71.0123 89.1022L68.3262 89.6977H68.8652L68.6174 89.7542L67.7177 89.7629ZM71.1688 89.2196L71.3383 89.337L68.7652 89.7499L71.1688 89.2196ZM69.8344 89.7499L71.5382 89.476L71.9164 89.7325L69.8344 89.7499ZM72.5944 89.4326L72.4423 89.3283L72.6466 89.2935L72.5944 89.4326ZM72.7161 89.1153L72.2424 89.1892L72.0164 89.0327L72.8161 88.8545L72.7161 89.1153ZM72.877 88.6806L71.8599 88.9067L71.4904 88.6546L71.7338 88.585H72.9161L72.877 88.6806ZM74.1244 89.0371L76.3585 88.6763L76.4193 88.7154L73.2203 89.6412L74.1244 89.0371ZM73.6028 89.6977L76.5932 88.8284L76.9018 89.0414L74.2157 89.6369H74.759L74.5069 89.689L73.6028 89.6977ZM77.0582 89.1544L77.2278 89.2718L74.6547 89.6847L77.0582 89.1544ZM75.7239 89.6803L77.4277 89.4065L77.8015 89.6673L75.7239 89.6803ZM78.4839 89.3674L78.3318 89.2631L78.536 89.2283L78.4839 89.3674ZM78.6056 89.0457L78.1318 89.124L77.9015 88.9675L78.2057 88.898H78.6404L78.6056 89.0457ZM78.6664 88.8893H78.2318L78.7012 88.785L78.6664 88.8893ZM78.7621 88.6328L77.745 88.8588L77.3799 88.6068L77.6189 88.5372H78.8012L78.7621 88.6328ZM80.0138 88.9892L80.3702 88.9327H80.392L81.3569 88.7763L81.5525 88.8936L81.3482 88.9545H80.4789L81.2308 88.9979L79.1054 89.6108L80.0138 88.9892ZM79.4879 89.6543L81.7394 89.0023L82.0175 89.1718L80.0964 89.6064H80.6354L80.3876 89.6629L79.4879 89.6543ZM82.1957 89.2761L82.3261 89.35L80.5397 89.6412L82.1957 89.2761ZM81.609 89.6369L82.5478 89.4847L82.7869 89.6282L81.609 89.6369ZM88.6068 88.0069L88.2243 87.8809L88.6024 87.7679L88.9458 88.0026L88.6068 88.0069ZM88.9501 87.2376L90.4279 87.0029L89.0458 87.3072L88.9501 87.2376ZM89.2022 87.4158L89.4195 87.368L89.2153 87.4245L89.2022 87.4158ZM89.9672 87.9417L89.3891 87.5419L91.458 86.9464L89.9672 87.9417Z" fill="#BBBBBB"></path></g><path d="M12.7568 88.9936C12.7915 88.9982 12.8265 88.9982 12.8612 88.9936C13.0199 88.9902 13.1776 88.9669 13.3306 88.9241L13.4132 88.9023L15.243 88.3764H15.3039L15.4169 88.3416H15.4777L15.5907 88.3112H15.6516L15.7689 88.2808C15.9222 88.2401 16.0686 88.1771 16.2036 88.0939L16.2862 88.0243C16.2979 88.0079 16.3081 87.9905 16.3166 87.9722C16.3166 87.8939 16.2427 87.8418 16.0471 87.8418C15.8884 87.8492 15.731 87.874 15.5777 87.9157L13.1524 88.6155L13.0524 88.6415C12.9148 88.6836 12.7832 88.7435 12.6612 88.8197C12.5569 88.8893 12.5134 88.9501 12.5265 88.9979C12.5395 89.0458 12.6569 88.9849 12.7568 88.9936Z" fill="#BBBBBB"></path><path d="M113.66 2.31242L113.255 3.04262L113.195 3.15129L112.76 3.81629L111.247 2.947L111.191 2.91658C111.134 2.87128 111.09 2.81256 111.062 2.74576C111.034 2.67896 111.023 2.6062 111.03 2.53409C111.026 2.48347 111.026 2.43258 111.03 2.38196C111.06 2.20359 111.127 2.03337 111.226 1.88212C111.324 1.70612 111.465 1.55691 111.634 1.44748C111.69 1.40639 111.756 1.37941 111.825 1.36882C111.893 1.35823 111.964 1.36434 112.03 1.38663L112.095 1.42574L113.66 2.31242Z" fill="#4F1F26"></path><path d="M113.321 3.04269L113.195 3.11223L112.786 3.34694L111.047 2.32553C111.077 2.14715 111.144 1.97693 111.243 1.82568L113.255 3.04269H113.321Z" fill="#4F1F26"></path><path d="M112.851 2.14294C112.917 2.0951 112.996 2.06687 113.077 2.06149C113.159 2.05611 113.24 2.07379 113.312 2.11252C113.241 2.08258 113.163 2.07204 113.087 2.08197C113.011 2.0919 112.938 2.12194 112.877 2.16902C112.698 2.28483 112.549 2.44122 112.442 2.62549C112.335 2.80975 112.272 3.01671 112.26 3.22955C112.253 3.30166 112.264 3.37442 112.292 3.44123C112.32 3.50803 112.364 3.56675 112.421 3.61204L112.382 3.58596C112.319 3.54193 112.269 3.48217 112.237 3.41272C112.205 3.34327 112.192 3.2666 112.199 3.19044C112.218 2.97681 112.286 2.77057 112.4 2.58853C112.513 2.40649 112.668 2.25381 112.851 2.14294Z" fill="#481018"></path><path d="M112.964 2.20808C113.032 2.15604 113.113 2.125 113.198 2.11882C113.283 2.11264 113.368 2.13159 113.442 2.17331C113.371 2.14337 113.294 2.13283 113.217 2.14276C113.141 2.15269 113.069 2.18273 113.008 2.22981C112.829 2.34562 112.68 2.50201 112.572 2.68628C112.465 2.87054 112.403 3.0775 112.391 3.29034C112.384 3.36138 112.394 3.43303 112.422 3.49898C112.449 3.56493 112.492 3.62315 112.547 3.66849L112.508 3.64675C112.446 3.60221 112.397 3.54223 112.366 3.47281C112.335 3.4034 112.322 3.32699 112.33 3.25123C112.346 3.03958 112.411 2.83469 112.522 2.65337C112.632 2.47205 112.784 2.31945 112.964 2.20808Z" fill="#481018"></path><path d="M113.073 2.27331C113.139 2.22547 113.217 2.19724 113.299 2.19186C113.38 2.18648 113.462 2.20417 113.534 2.24289H113.555C113.485 2.21235 113.407 2.20109 113.331 2.21025C113.255 2.21941 113.182 2.24867 113.121 2.29504C112.941 2.41154 112.792 2.56868 112.685 2.7537C112.578 2.93872 112.515 3.14641 112.504 3.35993C112.497 3.43096 112.507 3.50261 112.534 3.56856C112.562 3.63451 112.605 3.69273 112.66 3.73807L112.621 3.71633C112.559 3.67179 112.51 3.61181 112.479 3.54239C112.448 3.47298 112.435 3.39657 112.443 3.32081C112.458 3.10897 112.523 2.90374 112.633 2.72174C112.742 2.53975 112.893 2.38612 113.073 2.27331Z" fill="#481018"></path><path d="M113.816 2.69457C113.804 2.908 113.742 3.11557 113.634 3.30053C113.527 3.4855 113.378 3.64269 113.199 3.75945C112.86 3.95504 112.582 3.79857 112.582 3.40739C112.594 3.19403 112.657 2.98659 112.764 2.80168C112.871 2.61677 113.02 2.45951 113.199 2.3425C113.538 2.14691 113.816 2.30339 113.816 2.69457Z" fill="#67383F"></path><path d="M113.799 2.72068C113.787 2.92976 113.726 3.13314 113.621 3.31436C113.516 3.49558 113.37 3.64955 113.195 3.76382C112.86 3.95507 112.59 3.7986 112.59 3.41611C112.6 3.2072 112.661 3.00376 112.766 2.82296C112.871 2.64216 113.018 2.48931 113.195 2.37731C113.529 2.17302 113.799 2.33819 113.799 2.72068Z" fill="#5C2930"></path><path d="M113.216 3.73364C112.877 3.92923 112.604 3.77276 112.604 3.38158C112.615 3.10052 112.713 2.82999 112.886 2.60791C112.704 2.83159 112.598 3.1069 112.582 3.39462C112.582 3.7858 112.86 3.94227 113.199 3.74668C113.324 3.67745 113.436 3.58616 113.529 3.4772C113.442 3.58137 113.336 3.66834 113.216 3.73364Z" fill="#4F1F26"></path><path d="M113.694 2.76425C113.688 2.93825 113.639 3.10804 113.553 3.25933C113.467 3.41061 113.345 3.53895 113.199 3.63354C112.925 3.79002 112.703 3.66397 112.703 3.35103C112.711 3.17727 112.761 3.00787 112.847 2.85676C112.933 2.70564 113.054 2.57712 113.199 2.48174C113.473 2.32526 113.694 2.45131 113.694 2.76425Z" fill="#67383F"></path><path d="M113.199 2.78585C113.132 2.82987 113.076 2.88897 113.036 2.95841C112.996 3.02786 112.973 3.10571 112.969 3.18572C112.969 3.32916 113.073 3.39001 113.199 3.31612C113.265 3.27253 113.321 3.21411 113.361 3.14548C113.401 3.07684 113.424 2.99985 113.429 2.92059C113.442 2.77281 113.325 2.71196 113.199 2.78585Z" fill="#E79D00"></path><path d="M113.355 2.93374C113.352 2.99381 113.334 3.05219 113.304 3.10426C113.274 3.15632 113.232 3.20062 113.182 3.23364C113.086 3.29015 113.008 3.23364 113.008 3.13368C113.011 3.07361 113.029 3.01522 113.059 2.96316C113.089 2.91109 113.131 2.86679 113.182 2.83377C113.277 2.77727 113.355 2.82073 113.355 2.93374Z" fill="#BE5900"></path><path d="M53.2701 40.7612L52.7138 41.7261L52.6312 41.8783L52.0183 42.7954L49.9277 41.5697L49.8538 41.5262C49.7769 41.4622 49.7166 41.3806 49.678 41.2882C49.6394 41.1959 49.6237 41.0956 49.6321 40.9959C49.6278 40.9265 49.6278 40.8568 49.6321 40.7873C49.679 40.5417 49.7719 40.3073 49.906 40.0962C50.0511 39.8719 50.2478 39.6856 50.4797 39.5529C50.5594 39.4981 50.6503 39.4619 50.7458 39.4468C50.8414 39.4318 50.939 39.4383 51.0317 39.466L51.1186 39.5225C51.349 39.6485 53.2701 40.7612 53.2701 40.7612Z" fill="#4F1F26"></path><path d="M52.805 41.791L52.6312 41.8909L52.0705 42.2126L49.6451 40.8C49.692 40.5544 49.7849 40.3199 49.919 40.1089L52.7137 41.7258L52.805 41.791Z" fill="#4F1F26"></path><path d="M52.1574 40.5218C52.2483 40.455 52.3564 40.4158 52.469 40.4088C52.5815 40.4019 52.6937 40.4275 52.792 40.4827H52.8181C52.7226 40.4482 52.6201 40.4372 52.5195 40.4509C52.4188 40.4645 52.323 40.5022 52.24 40.5609C51.9892 40.7185 51.7795 40.9335 51.6284 41.1882C51.4772 41.4429 51.3889 41.73 51.3707 42.0257C51.3617 42.1244 51.3768 42.2238 51.4147 42.3154C51.4525 42.407 51.512 42.488 51.5881 42.5516L51.5316 42.5211C51.4454 42.46 51.377 42.3771 51.3335 42.2809C51.29 42.1846 51.2728 42.0786 51.2838 41.9735C51.3061 41.6802 51.3968 41.3961 51.5485 41.144C51.7002 40.892 51.9087 40.6789 52.1574 40.5218Z" fill="#481018"></path><path d="M52.3096 40.6132C52.4004 40.5445 52.5094 40.5041 52.6231 40.4972C52.7368 40.4902 52.85 40.517 52.9485 40.5741H52.9746C52.8794 40.5386 52.7771 40.5268 52.6764 40.5397C52.5757 40.5526 52.4796 40.5897 52.3965 40.648C52.1463 40.8073 51.9372 41.0234 51.7862 41.2786C51.6351 41.5339 51.5464 41.8211 51.5272 42.1171C51.5186 42.2158 51.5338 42.3151 51.5716 42.4066C51.6094 42.4982 51.6687 42.5792 51.7445 42.643L51.6924 42.6083C51.6055 42.5488 51.5366 42.4668 51.4929 42.3711C51.4492 42.2753 51.4325 42.1695 51.4446 42.065C51.465 41.7721 51.5538 41.4882 51.7041 41.236C51.8543 40.9839 52.0617 40.7705 52.3096 40.6132Z" fill="#481018"></path><path d="M52.466 40.7044C52.5559 40.6355 52.6643 40.595 52.7774 40.588C52.8904 40.581 53.003 40.6079 53.1006 40.6653H53.1267C53.0318 40.6286 52.9292 40.6162 52.8283 40.6291C52.7274 40.642 52.6313 40.6798 52.5486 40.7391C52.2978 40.8967 52.0881 41.1117 51.937 41.3665C51.7858 41.6212 51.6975 41.9083 51.6793 42.2039C51.6703 42.3026 51.6854 42.402 51.7233 42.4936C51.7611 42.5852 51.8206 42.6663 51.8967 42.7298L51.8402 42.6994C51.754 42.6383 51.6856 42.5554 51.6421 42.4591C51.5986 42.3629 51.5814 42.2568 51.5924 42.1517C51.614 41.8588 51.7044 41.5751 51.8562 41.3236C52.008 41.0722 52.2169 40.86 52.466 40.7044Z" fill="#481018"></path><path d="M53.4874 41.2911C53.4696 41.5874 53.3815 41.8752 53.2303 42.1307C53.0791 42.3862 52.8693 42.602 52.6181 42.7602C52.1487 43.0297 51.7706 42.8167 51.7706 42.2734C51.7863 41.9797 51.8713 41.6939 52.0186 41.4394C52.1659 41.1848 52.3713 40.9687 52.6181 40.8087C53.1049 40.5305 53.4874 40.7478 53.4874 41.2911Z" fill="#67383F"></path><path d="M53.4613 41.3216C53.4454 41.6102 53.3615 41.8909 53.2165 42.141C53.0715 42.391 52.8694 42.6032 52.6268 42.7603C52.1661 43.0254 51.7923 42.8124 51.7923 42.2865C51.81 41.999 51.8952 41.7198 52.0409 41.4713C52.1867 41.2229 52.3889 41.0123 52.6312 40.8565C53.0919 40.5827 53.4613 40.7957 53.4613 41.3216Z" fill="#5C2930"></path><path d="M52.6616 42.7213C52.1922 42.9951 51.7923 42.7778 51.7923 42.2389C51.8099 41.856 51.9467 41.4883 52.1835 41.187C51.9263 41.4919 51.774 41.8713 51.7488 42.2693C51.7488 42.8126 52.127 43.0256 52.5964 42.7561C52.7763 42.6435 52.9315 42.4956 53.0528 42.3214C52.9481 42.4777 52.8155 42.6133 52.6616 42.7213Z" fill="#4F1F26"></path><path d="M53.3223 41.3871C53.3083 41.6236 53.2389 41.8534 53.1196 42.0581C53.0003 42.2627 52.8344 42.4364 52.6355 42.565C52.2574 42.7823 51.9531 42.6084 51.9531 42.1738C51.9662 41.9376 52.0348 41.7079 52.1534 41.5032C52.272 41.2986 52.4372 41.1247 52.6355 40.9959C53.0267 40.7786 53.3223 40.9524 53.3223 41.3871Z" fill="#67383F"></path><path d="M52.6355 41.4131C52.5435 41.4742 52.4669 41.5559 52.4118 41.6517C52.3568 41.7475 52.3247 41.8548 52.3182 41.9651C52.3182 42.165 52.4617 42.2476 52.6355 42.1477C52.7289 42.0875 52.8067 42.0062 52.8626 41.9102C52.9185 41.8143 52.9509 41.7065 52.9572 41.5957C52.9572 41.3957 52.8137 41.3131 52.6355 41.4131Z" fill="#E79D00"></path><path d="M52.8529 41.6175C52.8504 41.7037 52.8274 41.7881 52.7859 41.8637C52.7443 41.9392 52.6853 42.0038 52.6138 42.0521C52.4791 42.126 52.3704 42.0521 52.3704 41.913C52.3727 41.8263 52.396 41.7413 52.4384 41.6656C52.4808 41.5899 52.541 41.5256 52.6138 41.4784C52.7442 41.4001 52.8529 41.461 52.8529 41.6175Z" fill="#BE5900"></path><path d="M50.145 40.5089L49.9973 40.4871L50.2189 38.9702L50.2493 38.9485L85.2557 18.5332L85.3296 18.6593L50.358 39.0615L50.145 40.5089Z" fill="#380009"></path><path d="M50.4623 40.7437L50.3145 40.722L50.5362 39.2051L50.5666 39.1877L85.5773 18.7681L85.6512 18.8985L50.6753 39.2964L50.4623 40.7437Z" fill="#380009"></path><path d="M51.3403 41.8779L50.7883 42.8559L50.7013 43.0036L50.0928 43.9251L47.9978 42.6994L47.9239 42.6559C47.8476 42.5926 47.7879 42.5116 47.75 42.4199C47.7121 42.3283 47.6972 42.2287 47.7066 42.13C47.7002 42.0606 47.7002 41.9908 47.7066 41.9214C47.7484 41.6751 47.8401 41.4399 47.9761 41.2303C48.1143 40.998 48.3067 40.8026 48.5368 40.6609C48.6166 40.6064 48.7075 40.5703 48.803 40.5553C48.8985 40.5403 48.9961 40.5466 49.0888 40.574L49.1757 40.6261C49.4191 40.7609 51.3403 41.8779 51.3403 41.8779Z" fill="#4F1F26"></path><path d="M50.8752 42.9038L50.7013 43.0038L50.1406 43.3298L47.7197 41.9172C47.7615 41.6709 47.8532 41.4357 47.9891 41.2261L50.7883 42.856L50.8752 42.9038Z" fill="#4F1F26"></path><path d="M50.2276 41.639C50.3184 41.5722 50.4266 41.533 50.5391 41.526C50.6516 41.5191 50.7638 41.5447 50.8622 41.5999H50.8882C50.7938 41.5644 50.6922 41.5525 50.5922 41.5654C50.4922 41.5783 50.3968 41.6155 50.3145 41.6737C50.0643 41.833 49.8552 42.0491 49.7042 42.3043C49.5531 42.5596 49.4644 42.8469 49.4452 43.1428C49.4362 43.2415 49.4513 43.341 49.4891 43.4326C49.527 43.5242 49.5865 43.6052 49.6625 43.6688L49.6104 43.6383C49.5231 43.5781 49.4536 43.4954 49.4093 43.3991C49.3649 43.3027 49.3473 43.1962 49.3583 43.0907C49.3801 42.7977 49.4701 42.5139 49.621 42.2619C49.7719 42.0099 49.9796 41.7965 50.2276 41.639Z" fill="#481018"></path><path d="M50.3797 41.726C50.4705 41.6573 50.5796 41.6169 50.6933 41.61C50.8069 41.603 50.9201 41.6298 51.0186 41.6869H51.0447C50.9498 41.6503 50.8473 41.6379 50.7463 41.6508C50.6454 41.6637 50.5493 41.7015 50.4666 41.7608C50.2155 41.9191 50.0056 42.1348 49.8545 42.3903C49.7033 42.6458 49.6152 42.9336 49.5974 43.2299C49.5887 43.3279 49.604 43.4266 49.6418 43.5174C49.6797 43.6083 49.739 43.6886 49.8147 43.7515L49.7625 43.7211C49.6764 43.6599 49.608 43.577 49.5645 43.4808C49.5209 43.3845 49.5038 43.2785 49.5148 43.1734C49.5351 42.8812 49.624 42.5978 49.7743 42.3464C49.9246 42.0949 50.132 41.8824 50.3797 41.726Z" fill="#481018"></path><path d="M50.5362 41.8172C50.6271 41.7504 50.7352 41.7112 50.8478 41.7042C50.9603 41.6973 51.0725 41.7229 51.1708 41.7781H51.1969C51.1023 41.7437 51.0009 41.7325 50.901 41.7453C50.8012 41.7582 50.7059 41.7947 50.6231 41.852C50.3722 42.0105 50.1626 42.2263 50.0114 42.4817C49.8603 42.7372 49.772 43.0248 49.7539 43.3211C49.7449 43.4198 49.7599 43.5192 49.7978 43.6108C49.8356 43.7024 49.8951 43.7834 49.9712 43.847L49.9147 43.8166C49.8285 43.7555 49.7602 43.6725 49.7166 43.5763C49.6731 43.4801 49.6559 43.374 49.6669 43.2689C49.6888 42.976 49.7788 42.6922 49.9297 42.4401C50.0806 42.1881 50.2883 41.9748 50.5362 41.8172Z" fill="#481018"></path><path d="M51.3026 43.2415C51.637 42.6695 51.6409 42.0497 51.3114 41.8571C50.9819 41.6645 50.4438 41.972 50.1094 42.544C49.775 43.1159 49.7711 43.7357 50.1006 43.9284C50.4301 44.121 50.9683 43.8135 51.3026 43.2415Z" fill="#67383F"></path><path d="M51.5359 42.4388C51.5193 42.7272 51.4351 43.0077 51.2901 43.2576C51.1452 43.5075 50.9435 43.7198 50.7013 43.8774C50.2406 44.1426 49.8668 43.9296 49.8668 43.3993C49.8838 43.111 49.9681 42.8306 50.113 42.5807C50.2579 42.3309 50.4594 42.1185 50.7013 41.9606C51.1621 41.6955 51.5359 41.9085 51.5359 42.4388Z" fill="#5C2930"></path><path d="M50.7318 43.8384C50.2624 44.1123 49.8625 43.895 49.8625 43.356C49.8804 42.9712 50.0188 42.6017 50.258 42.2998C50 42.6058 49.8476 42.9869 49.8234 43.3864C49.8234 43.9254 50.2015 44.1427 50.6927 43.8732C50.8637 43.7571 51.0112 43.6096 51.1273 43.4386C51.0221 43.5958 50.8879 43.7315 50.7318 43.8384Z" fill="#4F1F26"></path><path d="M51.3924 42.4995C51.379 42.7362 51.3103 42.9664 51.1917 43.1718C51.0732 43.3771 50.9083 43.5517 50.7101 43.6818C50.3319 43.8991 50.0233 43.7252 50.0233 43.2906C50.0369 43.054 50.1062 42.8241 50.2255 42.6194C50.3449 42.4147 50.5109 42.2411 50.7101 42.1127C51.0839 41.8954 51.3924 42.0692 51.3924 42.4995Z" fill="#67383F"></path><path d="M50.7101 42.5301C50.6168 42.5893 50.539 42.6698 50.4831 42.7651C50.4271 42.8603 50.3947 42.9675 50.3884 43.0778C50.3884 43.282 50.5319 43.3646 50.7101 43.2603C50.802 43.2001 50.8786 43.1192 50.9337 43.0241C50.9888 42.929 51.0209 42.8224 51.0274 42.7127C51.0274 42.5084 50.8839 42.4301 50.7101 42.5301Z" fill="#E79D00"></path><path d="M50.923 42.7298C50.9228 42.8165 50.9008 42.9017 50.859 42.9777C50.8172 43.0536 50.757 43.1179 50.684 43.1645C50.5492 43.2427 50.4406 43.1645 50.4406 43.0297C50.4416 42.9427 50.4645 42.8574 50.507 42.7815C50.5495 42.7056 50.6103 42.6415 50.684 42.5951C50.8187 42.5169 50.923 42.5951 50.923 42.7298Z" fill="#BE5900"></path><path d="M93.3313 83.7039L85.5599 88.1895L83.4649 86.9811L91.2407 82.4956L93.3313 83.7039Z" fill="#A2AEA1"></path><path d="M93.3314 84.8472L85.5599 89.3371V88.1896L93.3314 83.7041V84.8472Z" fill="#7A8B79"></path><path d="M83.4649 88.1284L85.5599 89.3367V88.1893L83.4649 86.981V88.1284Z" fill="#3D423C"></path><path d="M93.3313 82.4261L85.5599 86.9116L83.4649 85.7033L91.2407 81.2178L93.3313 82.4261Z" fill="#A2AEA1"></path><path d="M93.3314 83.5694L85.5599 88.0593V86.9118L93.3314 82.4263V83.5694Z" fill="#7A8B79"></path><path d="M83.4649 86.8506L85.5599 88.0589V86.9114L83.4649 85.7031V86.8506Z" fill="#3D423C"></path><path d="M91.2451 84.9037L95.422 87.3246L97.5126 86.1163L93.3357 83.6997L91.2451 84.9037Z" fill="#A2AEA1"></path><path d="M91.2451 86.0513L95.422 88.4722V87.3248L91.2451 84.9038V86.0513Z" fill="#3D423C"></path><path d="M97.5126 87.2637L95.422 88.472V87.3245L97.5126 86.1162V87.2637Z" fill="#7A8B79"></path><path d="M91.2451 83.6258L95.422 86.0468L97.5126 84.8385L93.3357 82.4219L91.2451 83.6258Z" fill="#A2AEA1"></path><path d="M91.2451 84.773L95.422 87.1939V86.0465L91.2451 83.6255V84.773Z" fill="#3D423C"></path><path d="M97.5126 85.9858L95.422 87.1942V86.0467L97.5126 84.8384V85.9858Z" fill="#7A8B79"></path><path d="M97.5126 86.1161L89.7412 90.606L87.6505 89.3976L95.422 84.9121L97.5126 86.1161Z" fill="#A2AEA1"></path><path d="M97.5127 87.2637L89.7412 91.7536V90.6061L97.5127 86.1162V87.2637Z" fill="#7A8B79"></path><path d="M87.6505 90.5454L89.7412 91.7537V90.6063L87.6505 89.3979V90.5454Z" fill="#3D423C"></path><path d="M97.5126 84.8382L89.7412 89.3281L87.6505 88.1198L95.422 83.6343L97.5126 84.8382Z" fill="#A2AEA1"></path><path d="M97.5127 85.9858L89.7412 90.4757V89.3283L97.5127 84.8384V85.9858Z" fill="#7A8B79"></path><path d="M87.6505 89.2676L89.7412 90.4759V89.3284L87.6505 88.1201V89.2676Z" fill="#3D423C"></path><path d="M103.971 6.01985L41.9432 41.8303V41.4174L103.971 5.60693V6.01985Z" fill="#E26600"></path><path d="M103.971 5.60687L41.9433 41.4173L41.6303 41.2347L103.659 5.42432L103.971 5.60687Z" fill="#FFE636"></path><path d="M41.6303 41.2349L41.9433 41.4174V41.8303L41.6303 41.6521V41.2349Z" fill="#D45100"></path><path d="M44.0035 36.8057L44.3164 36.9839V37.4011L44.0035 37.2186V36.8057Z" fill="#D45100"></path><path d="M84.1951 13.5999L84.5081 13.7825L89.2761 13.6782L88.9632 13.4956L84.1951 13.5999Z" fill="#FFC523"></path><path d="M84.5081 13.7825V14.1955L89.2761 14.0911V13.6782L84.5081 13.7825Z" fill="#E26600"></path><path d="M44.0035 36.8057L44.3164 36.9839L41.9433 41.4172L41.6303 41.2347L44.0035 36.8057Z" fill="#D45100"></path><path d="M44.3164 36.9839L44.6293 37.1664L42.2562 41.5998L41.9432 41.4173L44.3164 36.9839Z" fill="#E26600"></path><path d="M49.919 33.3896L50.2319 33.5722L47.8631 38.0012L47.5458 37.823L49.919 33.3896Z" fill="#D45100"></path><path d="M50.232 33.5718L50.5449 33.75L48.1761 38.1834L47.8632 38.0008L50.232 33.5718Z" fill="#E26600"></path><path d="M55.8345 29.9731L56.1475 30.1557L53.7786 34.5847L53.4657 34.4065L55.8345 29.9731Z" fill="#D45100"></path><path d="M56.1474 30.1558L56.4647 30.334L54.0916 34.7673L53.7786 34.5848L56.1474 30.1558Z" fill="#E26600"></path><path d="M61.75 26.5566L62.0673 26.7392L59.6942 31.1682L59.3812 30.99L61.75 26.5566Z" fill="#D45100"></path><path d="M62.0673 26.7393L62.3803 26.9218L60.0071 31.3508L59.6942 31.1683L62.0673 26.7393Z" fill="#E26600"></path><path d="M67.6699 23.1406L67.9829 23.3232L65.6097 27.7522L65.2968 27.574L67.6699 23.1406Z" fill="#D45100"></path><path d="M67.9828 23.3232L68.2958 23.5058L65.9226 27.9348L65.6097 27.7523L67.9828 23.3232Z" fill="#E26600"></path><path d="M73.5854 19.7241L73.8984 19.9067L71.5252 24.3401L71.2123 24.1575L73.5854 19.7241Z" fill="#D45100"></path><path d="M73.8984 19.9067L74.2113 20.0893L71.8425 24.5183L71.5252 24.3401L73.8984 19.9067Z" fill="#E26600"></path><path d="M79.501 16.3081L79.8139 16.4907L77.4451 20.924L77.1321 20.7415L79.501 16.3081Z" fill="#D45100"></path><path d="M79.8139 16.4902L80.1268 16.6728L77.758 21.1018L77.4451 20.9236L79.8139 16.4902Z" fill="#E26600"></path><path d="M84.7254 14.1913L85.1383 14.1826L83.3606 17.5077L83.0477 17.3251L84.7254 14.1913Z" fill="#D45100"></path><path d="M85.1383 14.1825L85.5556 14.1738L83.6735 17.6858L83.3606 17.5076L85.1383 14.1825Z" fill="#E26600"></path><path d="M44.0035 36.8057L44.3164 36.9839L47.8675 38.0053L47.5545 37.8227L44.0035 36.8057Z" fill="#D45100"></path><path d="M44.3164 36.9839L44.2903 37.4055L47.8414 38.4226L47.8675 38.0053L44.3164 36.9839Z" fill="#E26600"></path><path d="M49.919 33.3896L50.232 33.5722L53.783 34.5893L53.4701 34.4067L49.919 33.3896Z" fill="#D45100"></path><path d="M50.2319 33.5718L50.2102 33.989L53.7613 35.0105L53.783 34.5888L50.2319 33.5718Z" fill="#E26600"></path><path d="M55.8345 29.9731L56.1475 30.1557L59.6985 31.1728L59.3856 30.9946L55.8345 29.9731Z" fill="#D45100"></path><path d="M56.1475 30.1558L56.1257 30.573L59.6768 31.5944L59.6985 31.1728L56.1475 30.1558Z" fill="#E26600"></path><path d="M61.7501 26.5566L62.0674 26.7392L65.6184 27.7563L65.3055 27.5781L61.7501 26.5566Z" fill="#D45100"></path><path d="M62.0673 26.7393L62.0413 27.1565L65.5923 28.1779L65.6184 27.7563L62.0673 26.7393Z" fill="#E26600"></path><path d="M67.6699 23.1406L67.9829 23.3232L71.5339 24.3402L71.221 24.162L67.6699 23.1406Z" fill="#D45100"></path><path d="M67.9829 23.3232L67.9568 23.7405L71.5078 24.7619L71.5339 24.3403L67.9829 23.3232Z" fill="#E26600"></path><path d="M73.5854 19.7241L73.8984 19.9067L77.4494 20.9281L77.1365 20.7455L73.5854 19.7241Z" fill="#D45100"></path><path d="M73.8984 19.9067L73.8723 20.324L77.4234 21.3454L77.4494 20.9282L73.8984 19.9067Z" fill="#E26600"></path><path d="M79.501 16.3081L79.8139 16.4907L83.365 17.5121L83.052 17.3295L79.501 16.3081Z" fill="#D45100"></path><path d="M79.8139 16.4902L79.7878 16.9118L83.3432 17.9289L83.365 17.5117L79.8139 16.4902Z" fill="#E26600"></path><path d="M84.508 14.1956L44.3164 37.4013V36.9841L84.508 13.7827V14.1956Z" fill="#E26600"></path><path d="M84.5081 13.7826L44.3164 36.984L44.0035 36.8058L84.1951 13.6001L84.5081 13.7826Z" fill="#FFE636"></path><path d="M89.8889 12.8527L110.248 1.0955L109.83 0.856445L89.4717 12.6093L89.8889 12.8527Z" fill="#FFC523"></path><path d="M89.889 14.4432L110.248 2.69036V1.09521L89.889 12.8524V14.4432Z" fill="#F06909"></path><path d="M89.8889 12.8523V14.4431L89.4717 14.204V12.6089L89.8889 12.8523Z" fill="#D45100"></path><path d="M88.6372 75.424L87.2898 74.8894L88.1069 73.8115L88.6372 73.3682V75.424Z" fill="#3B3B3B"></path><path d="M90.6235 82.9087L89.9846 83.2781V84.1387L90.6235 83.7693V82.9087Z" fill="#2A2A2A"></path><path d="M89.3456 82.9087L89.9846 83.2781V84.1387L89.3456 83.7693V82.9087Z" fill="#202020"></path><path d="M89.3456 82.9085L89.9846 83.278L90.6235 82.9085L89.9846 82.5391L89.3456 82.9085Z" fill="#3B3B3B"></path><path d="M89.463 82.9043L89.9759 83.1999V25.9962L89.463 25.7007V82.9043Z" fill="#D45100"></path><path d="M90.4888 82.9043L89.9759 83.1999V25.9962L90.4888 25.7007V82.9043Z" fill="#FF9A0A"></path><path d="M90.0933 77.5581L93.6095 85.46V84.7515L90.0933 76.854V77.5581Z" fill="#B53C00"></path><path d="M90.0933 76.8538L93.6095 84.7513L93.8616 84.6035L90.3497 76.7017L90.0933 76.8538Z" fill="#F5830A"></path><path d="M90.0933 71.6816L93.6095 79.5791V78.8707L90.0933 70.9731V71.6816Z" fill="#B53C00"></path><path d="M90.0933 70.973L93.6095 78.8705L93.8616 78.7227L90.3497 70.8252L90.0933 70.973Z" fill="#F5830A"></path><path d="M90.0933 65.8008L93.6095 73.6983V72.9941L90.0933 65.0923V65.8008Z" fill="#B53C00"></path><path d="M90.0933 65.0926L93.6095 72.9945L93.8616 72.8423L90.3497 64.9448L90.0933 65.0926Z" fill="#F5830A"></path><path d="M90.0933 59.9199L93.6095 67.8218V67.1133L90.0933 59.2158V59.9199Z" fill="#B53C00"></path><path d="M90.0933 59.2161L93.6095 67.1136L93.8616 66.9659L90.3497 59.0684L90.0933 59.2161Z" fill="#F5830A"></path><path d="M90.0933 54.0439L93.6095 61.9414V61.233L90.0933 53.3354V54.0439Z" fill="#B53C00"></path><path d="M90.0933 53.3353L93.6095 61.2328L93.8616 61.085L90.3497 53.1875L90.0933 53.3353Z" fill="#F5830A"></path><path d="M90.0933 48.1631L93.6095 56.0606V55.3565L90.0933 47.459V48.1631Z" fill="#B53C00"></path><path d="M90.0933 47.4588L93.6095 55.3563L93.8616 55.2085L90.3497 47.3066L90.0933 47.4588Z" fill="#F5830A"></path><path d="M90.0933 42.2822L93.6095 50.1841V49.4756L90.0933 41.5781V42.2822Z" fill="#B53C00"></path><path d="M90.0933 41.578L93.6095 49.4755L93.8616 49.3277L90.3497 41.4302L90.0933 41.578Z" fill="#F5830A"></path><path d="M90.0933 36.4057L93.6095 44.3032V43.5991L90.0933 35.6973V36.4057Z" fill="#B53C00"></path><path d="M90.0933 35.6976L93.6095 43.5994L93.8616 43.4473L90.3497 35.5498L90.0933 35.6976Z" fill="#F5830A"></path><path d="M90.0933 30.5249L93.6095 38.4268V37.7183L90.0933 29.8208V30.5249Z" fill="#B53C00"></path><path d="M90.0933 29.8211L93.6095 37.7186L93.8616 37.5708L90.3497 29.6689L90.0933 29.8211Z" fill="#F5830A"></path><path d="M90.0933 24.6489L93.6095 32.5464V31.8379L90.0933 23.9404V24.6489Z" fill="#B53C00"></path><path d="M90.0933 23.9403L93.6095 31.8378L93.8616 31.69L90.3497 23.7925L90.0933 23.9403Z" fill="#F5830A"></path><path d="M90.0933 83.1346L93.6095 85.1644V84.7515L90.0933 82.7217V83.1346Z" fill="#B53C00"></path><path d="M90.0933 82.7216L93.6095 84.7514L93.9225 84.5689L90.4062 82.5391L90.0933 82.7216Z" fill="#FF850A"></path><path d="M90.0933 77.2537L93.6095 79.2835V78.8706L90.0933 76.8408V77.2537Z" fill="#B53C00"></path><path d="M90.0933 76.8408L93.6095 78.8706L93.9225 78.6924L90.4062 76.6626L90.0933 76.8408Z" fill="#FF850A"></path><path d="M90.0933 71.3773L93.6095 73.4071V72.9941L90.0933 70.9644V71.3773Z" fill="#B53C00"></path><path d="M90.0933 70.9643L93.6095 72.9941L93.9225 72.8115L90.4062 70.7817L90.0933 70.9643Z" fill="#FF850A"></path><path d="M90.0933 65.4969L93.6095 67.5267V67.1138L90.0933 65.084V65.4969Z" fill="#B53C00"></path><path d="M90.0933 65.0839L93.6095 67.1137L93.9225 66.9312L90.4062 64.9014L90.0933 65.0839Z" fill="#FF850A"></path><path d="M90.0933 59.6204L93.6095 61.6502V61.2329L90.0933 59.2031V59.6204Z" fill="#B53C00"></path><path d="M90.0933 59.2031L93.6095 61.2329L93.9225 61.0547L90.4062 59.0249L90.0933 59.2031Z" fill="#FF850A"></path><path d="M90.0933 53.7396L93.6095 55.7694V55.3565L90.0933 53.3267V53.7396Z" fill="#B53C00"></path><path d="M90.0933 53.3266L93.6095 55.3564L93.9225 55.1738L90.4062 53.144L90.0933 53.3266Z" fill="#FF850A"></path><path d="M90.0933 47.8587L93.6095 49.8885V49.4756L90.0933 47.4458V47.8587Z" fill="#B53C00"></path><path d="M90.0933 47.4458L93.6095 49.4756L93.9225 49.2974L90.4062 47.2676L90.0933 47.4458Z" fill="#FF850A"></path><path d="M90.0933 41.9822L93.6095 44.012V43.5991L90.0933 41.5693V41.9822Z" fill="#B53C00"></path><path d="M90.0933 41.5693L93.6095 43.5991L93.9225 43.4165L90.4062 41.3867L90.0933 41.5693Z" fill="#FF850A"></path><path d="M90.0933 36.1014L93.6095 38.1312V37.7183L90.0933 35.6885V36.1014Z" fill="#B53C00"></path><path d="M90.0933 35.6889L93.6095 37.7187L93.9225 37.5361L90.4062 35.5063L90.0933 35.6889Z" fill="#FF850A"></path><path d="M90.0933 30.221L93.6095 32.2508V31.8379L90.0933 29.8081V30.221Z" fill="#B53C00"></path><path d="M90.0933 29.8081L93.6095 31.8379L93.9225 31.6597L90.4062 29.6299L90.0933 29.8081Z" fill="#FF850A"></path><path d="M93.2271 79.3271L90.0933 83.1346V82.4261L93.2271 78.6187V79.3271Z" fill="#B53C00"></path><path d="M93.4487 79.0491L90.3149 82.8566L90.5714 82.7088L93.7052 78.897L93.4487 79.0491Z" fill="#B53C00"></path><path d="M93.2271 73.4463L90.0933 77.2538V76.5496L93.2271 72.7378V73.4463Z" fill="#B53C00"></path><path d="M93.4487 73.1683L90.3149 76.9758L90.5714 76.828L93.7052 73.0205L93.4487 73.1683Z" fill="#B53C00"></path><path d="M93.2271 67.5655L90.0933 71.3773V70.6688L93.2271 66.8613V67.5655Z" fill="#B53C00"></path><path d="M93.4487 67.2874L90.3149 71.0993L90.5714 70.9515L93.7052 67.1396L93.4487 67.2874Z" fill="#B53C00"></path><path d="M93.2271 61.6894L90.0933 65.4969V64.7928L93.2271 60.981V61.6894Z" fill="#B53C00"></path><path d="M93.4487 61.411L90.3149 65.2185L90.5714 65.0707L93.7052 61.2632L93.4487 61.411Z" fill="#B53C00"></path><path d="M93.2271 55.8086L90.0933 59.6205V58.912L93.2271 55.1045V55.8086Z" fill="#B53C00"></path><path d="M93.4487 55.5301L90.3149 59.3419L90.5714 59.1898L93.7052 55.3823L93.4487 55.5301Z" fill="#B53C00"></path><path d="M93.2271 49.9321L90.0933 53.7396V53.0311L93.2271 49.2236V49.9321Z" fill="#B53C00"></path><path d="M93.4487 49.6541L90.3149 53.4616L90.5714 53.3138L93.7052 49.502L93.4487 49.6541Z" fill="#B53C00"></path><path d="M93.2271 44.0512L90.0933 47.8587V47.1546L93.2271 43.3428V44.0512Z" fill="#B53C00"></path><path d="M93.4487 43.7733L90.3149 47.5808L90.5714 47.433L93.7052 43.6255L93.4487 43.7733Z" fill="#B53C00"></path><path d="M93.2271 38.1704L90.0933 41.9823V41.2738L93.2271 37.4663V38.1704Z" fill="#B53C00"></path><path d="M93.4487 37.8924L90.3149 41.7042L90.5714 41.5565L93.7052 37.7446L93.4487 37.8924Z" fill="#B53C00"></path><path d="M93.2271 32.2939L90.0933 36.1014V35.3973L93.2271 31.5854V32.2939Z" fill="#B53C00"></path><path d="M93.4487 32.0159L90.3149 35.8234L90.5714 35.6756L93.7052 31.8638L93.4487 32.0159Z" fill="#B53C00"></path><path d="M93.2271 26.4136L90.0933 30.2211V29.517L93.2271 25.7095V26.4136Z" fill="#B53C00"></path><path d="M93.4487 26.1351L90.3149 29.9426L90.5714 29.7948L93.7052 25.9873L93.4487 26.1351Z" fill="#B53C00"></path><path d="M90.1324 77.3887L86.6161 85.2905V84.5821L90.1324 76.6846V77.3887Z" fill="#B84000"></path><path d="M90.1323 76.6844L86.6161 84.5819L86.3596 84.4341L89.8759 76.5366L90.1323 76.6844Z" fill="#DE6F00"></path><path d="M90.1324 71.5122L86.6161 79.4097V78.7012L90.1324 70.8037V71.5122Z" fill="#B84000"></path><path d="M90.1323 70.8035L86.6161 78.701L86.3596 78.5533L89.8759 70.6558L90.1323 70.8035Z" fill="#DE6F00"></path><path d="M90.1324 65.6314L86.6161 73.5289V72.8247L90.1324 64.9272V65.6314Z" fill="#B84000"></path><path d="M90.1323 64.9275L86.6161 72.825L86.3596 72.6772L89.8759 64.7754L90.1323 64.9275Z" fill="#DE6F00"></path><path d="M90.1324 59.7549L86.6161 67.6524V66.9439L90.1324 59.0464V59.7549Z" fill="#B84000"></path><path d="M90.1323 59.0467L86.6161 66.9442L86.3596 66.7964L89.8759 58.8989L90.1323 59.0467Z" fill="#DE6F00"></path><path d="M90.1324 53.8745L86.6161 61.772V61.0679L90.1324 53.166V53.8745Z" fill="#B84000"></path><path d="M90.1323 53.1658L86.6161 61.0677L86.3596 60.9156L89.8759 53.0181L90.1323 53.1658Z" fill="#DE6F00"></path><path d="M90.1324 47.9937L86.6161 55.8955V55.1871L90.1324 47.2896V47.9937Z" fill="#B84000"></path><path d="M90.1323 47.2893L86.6161 55.1868L86.3596 55.0391L89.8759 47.1372L90.1323 47.2893Z" fill="#DE6F00"></path><path d="M90.1324 42.1172L86.6161 50.0147V49.3062L90.1324 41.4087V42.1172Z" fill="#B84000"></path><path d="M90.1323 41.4085L86.6161 49.306L86.3596 49.1582L89.8759 41.2607L90.1323 41.4085Z" fill="#DE6F00"></path><path d="M90.1324 36.2364L86.6161 44.1339V43.4297L90.1324 35.5322V36.2364Z" fill="#B84000"></path><path d="M90.1323 35.532L86.6161 43.4295L86.3596 43.2774L89.8759 35.3799L90.1323 35.532Z" fill="#DE6F00"></path><path d="M90.1324 30.3555L86.6161 38.2573V37.5489L90.1324 29.6514V30.3555Z" fill="#B84000"></path><path d="M90.1323 29.6517L86.6161 37.5492L86.3596 37.4014L89.8759 29.5039L90.1323 29.6517Z" fill="#DE6F00"></path><path d="M90.1324 24.479L86.6161 32.3765V31.668L90.1324 23.7705V24.479Z" fill="#B84000"></path><path d="M90.1323 23.7708L86.6161 31.6683L86.3596 31.5205L89.8759 23.623L90.1323 23.7708Z" fill="#DE6F00"></path><path d="M90.1324 82.9652L86.6161 84.995V84.582L90.1324 82.5522V82.9652Z" fill="#B84000"></path><path d="M90.1324 82.5522L86.6161 84.582L86.3032 84.3994L89.8194 82.3696L90.1324 82.5522Z" fill="#DE6F00"></path><path d="M90.1324 77.0886L86.6161 79.1184V78.7012L90.1324 76.6714V77.0886Z" fill="#B84000"></path><path d="M90.1324 76.6714L86.6161 78.7012L86.3032 78.523L89.8194 76.4932L90.1324 76.6714Z" fill="#DE6F00"></path><path d="M90.1324 71.2078L86.6161 73.2376V72.8247L90.1324 70.7949V71.2078Z" fill="#B84000"></path><path d="M90.1324 70.7949L86.6161 72.8246L86.3032 72.6421L89.8194 70.6123L90.1324 70.7949Z" fill="#DE6F00"></path><path d="M90.1324 65.327L86.6161 67.3568V66.9439L90.1324 64.9141V65.327Z" fill="#B84000"></path><path d="M90.1324 64.914L86.6161 66.9438L86.3032 66.7613L89.8194 64.7358L90.1324 64.914Z" fill="#DE6F00"></path><path d="M90.1324 59.451L86.6161 61.4808V61.0679L90.1324 59.0381V59.451Z" fill="#B84000"></path><path d="M90.1324 59.038L86.6161 61.0678L86.3032 60.8853L89.8194 58.8555L90.1324 59.038Z" fill="#DE6F00"></path><path d="M90.1324 53.5701L86.6161 55.5999V55.187L90.1324 53.1572V53.5701Z" fill="#B84000"></path><path d="M90.1324 53.1572L86.6161 55.187L86.3032 55.0044L89.8194 52.9746L90.1324 53.1572Z" fill="#DE6F00"></path><path d="M90.1324 47.6893L86.6161 49.7191V49.3062L90.1324 47.2764V47.6893Z" fill="#B84000"></path><path d="M90.1324 47.2763L86.6161 49.3061L86.3032 49.1279L89.8194 47.0981L90.1324 47.2763Z" fill="#DE6F00"></path><path d="M90.1324 41.8128L86.6161 43.8426V43.4297L90.1324 41.3999V41.8128Z" fill="#B84000"></path><path d="M90.1324 41.3998L86.6161 43.4296L86.3032 43.2471L89.8194 41.2173L90.1324 41.3998Z" fill="#DE6F00"></path><path d="M90.1324 35.932L86.6161 37.9617V37.5488L90.1324 35.519V35.932Z" fill="#B84000"></path><path d="M90.1324 35.519L86.6161 37.5488L86.3032 37.3663L89.8194 35.3408L90.1324 35.519Z" fill="#DE6F00"></path><path d="M90.1324 30.0559L86.6161 32.0857V31.6685L90.1324 29.6387V30.0559Z" fill="#B84000"></path><path d="M90.1324 29.6387L86.6161 31.6684L86.3032 31.4902L89.8194 29.4604L90.1324 29.6387Z" fill="#DE6F00"></path><path d="M86.9986 79.1577L90.1324 82.9652V82.2611L86.9986 78.4492V79.1577Z" fill="#B84000"></path><path d="M86.7769 78.8792L89.9063 82.6867L89.6499 82.5389L86.5204 78.7314L86.7769 78.8792Z" fill="#D45100"></path><path d="M86.9986 73.2769L90.1324 77.0887V76.3802L86.9986 72.5728V73.2769Z" fill="#B84000"></path><path d="M86.7769 72.9989L89.9063 76.8107L89.6499 76.6586L86.5204 72.8511L86.7769 72.9989Z" fill="#D45100"></path><path d="M86.9986 67.4004L90.1324 71.2079V70.4994L86.9986 66.6919V67.4004Z" fill="#B84000"></path><path d="M86.7769 67.1223L89.9063 70.9298L89.6499 70.7821L86.5204 66.9702L86.7769 67.1223Z" fill="#D45100"></path><path d="M86.9986 61.5195L90.1324 65.327V64.6229L86.9986 60.811V61.5195Z" fill="#B84000"></path><path d="M86.7769 61.2415L89.9063 65.049L89.6499 64.9012L86.5204 61.0938L86.7769 61.2415Z" fill="#D45100"></path><path d="M86.9986 55.6387L90.1324 59.4505V58.7421L86.9986 54.9346V55.6387Z" fill="#B84000"></path><path d="M86.7769 55.3607L89.9063 59.1725L89.6499 59.0204L86.5204 55.2129L86.7769 55.3607Z" fill="#D45100"></path><path d="M86.9986 49.7627L90.1324 53.5702V52.866L86.9986 49.0542V49.7627Z" fill="#B84000"></path><path d="M86.7769 49.4842L89.9063 53.2916L89.6499 53.1439L86.5204 49.332L86.7769 49.4842Z" fill="#D45100"></path><path d="M86.9986 43.8818L90.1324 47.6893V46.9852L86.9986 43.1733V43.8818Z" fill="#B84000"></path><path d="M86.7769 43.6038L89.9063 47.4157L89.6499 47.2635L86.5204 43.4561L86.7769 43.6038Z" fill="#D45100"></path><path d="M86.9986 38.0053L90.1324 41.8128V41.1044L86.9986 37.2969V38.0053Z" fill="#B84000"></path><path d="M86.7769 37.7273L89.9063 41.5348L89.6499 41.387L86.5204 37.5752L86.7769 37.7273Z" fill="#D45100"></path><path d="M86.9986 32.1245L90.1324 35.932V35.2279L86.9986 31.416V32.1245Z" fill="#B84000"></path><path d="M86.7769 31.8465L89.9063 35.654L89.6499 35.5062L86.5204 31.6987L86.7769 31.8465Z" fill="#D45100"></path><path d="M86.9986 26.2437L90.1324 30.0555V29.347L86.9986 25.5396V26.2437Z" fill="#B84000"></path><path d="M86.7769 25.9657L89.9063 29.7775L89.6499 29.6254L86.5204 25.8179L86.7769 25.9657Z" fill="#D45100"></path><path d="M87.0116 84.9946L86.3683 85.3641V86.2247L87.0116 85.8552V84.9946Z" fill="#2A2A2A"></path><path d="M85.7294 84.9946L86.3684 85.3641V86.2247L85.7294 85.8552V84.9946Z" fill="#202020"></path><path d="M85.7294 84.9949L86.3684 85.3644L87.0116 84.9949L86.3684 84.6255L85.7294 84.9949Z" fill="#3B3B3B"></path><path d="M85.8467 84.9908L86.3596 85.2863V28.087L85.8467 27.7871V84.9908Z" fill="#D45100"></path><path d="M86.8768 84.9908L86.3596 85.2863V28.087L86.8768 27.7871V84.9908Z" fill="#FF9A0A"></path><path d="M86.4596 79.6446L89.9759 87.5421V86.8379L86.4596 78.9404V79.6446Z" fill="#D45100"></path><path d="M86.4596 78.9402L89.9759 86.8377L90.228 86.6899L86.716 78.7881L86.4596 78.9402Z" fill="#FF9A0A"></path><path d="M86.4596 73.768L89.9759 81.6655V80.9571L86.4596 73.0596V73.768Z" fill="#D45100"></path><path d="M86.4596 73.0594L89.9759 80.9569L90.228 80.8091L86.716 72.9116L86.4596 73.0594Z" fill="#FF9A0A"></path><path d="M86.4596 67.8872L89.9759 75.7847V75.0806L86.4596 67.1787V67.8872Z" fill="#D45100"></path><path d="M86.4596 67.1785L89.9759 75.0804L90.228 74.9283L86.716 67.0308L86.4596 67.1785Z" fill="#FF9A0A"></path><path d="M86.4596 62.0064L89.9759 69.9082V69.1998L86.4596 61.3022V62.0064Z" fill="#D45100"></path><path d="M86.4596 61.3025L89.9759 69.2L90.228 69.0522L86.716 61.1504L86.4596 61.3025Z" fill="#FF9A0A"></path><path d="M86.4596 56.1299L89.9759 64.0274V63.3189L86.4596 55.4214V56.1299Z" fill="#D45100"></path><path d="M86.4596 55.4217L89.9759 63.3192L90.228 63.1714L86.716 55.2739L86.4596 55.4217Z" fill="#FF9A0A"></path><path d="M86.4596 50.2495L89.9759 58.147V57.4429L86.4596 49.541V50.2495Z" fill="#D45100"></path><path d="M86.4596 49.5408L89.9759 57.4427L90.228 57.2906L86.716 49.3931L86.4596 49.5408Z" fill="#FF9A0A"></path><path d="M86.4596 44.3687L89.9759 52.2705V51.5621L86.4596 43.6646V44.3687Z" fill="#D45100"></path><path d="M86.4596 43.6644L89.9759 51.5619L90.228 51.4141L86.716 43.5166L86.4596 43.6644Z" fill="#FF9A0A"></path><path d="M86.4596 38.4922L89.9759 46.3897V45.6855L86.4596 37.7837V38.4922Z" fill="#D45100"></path><path d="M86.4596 37.7835L89.9759 45.6854L90.228 45.5332L86.716 37.6357L86.4596 37.7835Z" fill="#FF9A0A"></path><path d="M86.4596 32.6113L89.9759 40.5132V39.8047L86.4596 31.9072V32.6113Z" fill="#D45100"></path><path d="M86.4596 31.9075L89.9759 39.805L90.228 39.6572L86.716 31.7554L86.4596 31.9075Z" fill="#FF9A0A"></path><path d="M86.4596 26.7348L89.9759 34.6323V33.9239L86.4596 26.0264V26.7348Z" fill="#D45100"></path><path d="M86.4596 26.0267L89.9759 33.9242L90.228 33.7764L86.716 25.8789L86.4596 26.0267Z" fill="#FF9A0A"></path><path d="M86.4596 85.221L89.9759 87.2508V86.8379L86.4596 84.8081V85.221Z" fill="#D45100"></path><path d="M86.4596 84.808L89.9759 86.8378L90.2888 86.6553L86.7725 84.6255L86.4596 84.808Z" fill="#FFE636"></path><path d="M86.4596 79.3402L89.9759 81.37V80.957L86.4596 78.9272V79.3402Z" fill="#D45100"></path><path d="M86.4596 78.9272L89.9759 80.957L90.2888 80.7788L86.7725 78.749L86.4596 78.9272Z" fill="#FFE636"></path><path d="M86.4596 73.4637L89.9759 75.4935V75.0806L86.4596 73.0508V73.4637Z" fill="#D45100"></path><path d="M86.4596 73.0507L89.9759 75.0805L90.2888 74.898L86.7725 72.8682L86.4596 73.0507Z" fill="#FFE636"></path><path d="M86.4596 67.5828L89.9759 69.6126V69.1997L86.4596 67.1699V67.5828Z" fill="#D45100"></path><path d="M86.4596 67.1699L89.9759 69.1997L90.2888 69.0171L86.7725 66.9873L86.4596 67.1699Z" fill="#FFE636"></path><path d="M86.4596 61.7068L89.9759 63.7366V63.3193L86.4596 61.2896V61.7068Z" fill="#D45100"></path><path d="M86.4596 61.2895L89.9759 63.3193L90.2888 63.1411L86.7725 61.1113L86.4596 61.2895Z" fill="#FFE636"></path><path d="M86.4596 55.826L89.9759 57.8558V57.4429L86.4596 55.4131V55.826Z" fill="#D45100"></path><path d="M86.4596 55.413L89.9759 57.4428L90.2888 57.2603L86.7725 55.2305L86.4596 55.413Z" fill="#FFE636"></path><path d="M86.4596 49.9451L89.9759 51.9749V51.562L86.4596 49.5322V49.9451Z" fill="#D45100"></path><path d="M86.4596 49.5322L89.9759 51.562L90.2888 51.3838L86.7725 49.354L86.4596 49.5322Z" fill="#FFE636"></path><path d="M86.4596 44.0687L89.9759 46.0985V45.6856L86.4596 43.6558V44.0687Z" fill="#D45100"></path><path d="M86.4596 43.6557L89.9759 45.6855L90.2888 45.5029L86.7725 43.4731L86.4596 43.6557Z" fill="#FFE636"></path><path d="M86.4596 38.1878L89.9759 40.2176V39.8047L86.4596 37.7749V38.1878Z" fill="#D45100"></path><path d="M86.4596 37.7748L89.9759 39.8046L90.2888 39.6221L86.7725 37.5923L86.4596 37.7748Z" fill="#FFE636"></path><path d="M86.4596 32.307L89.9759 34.3368V33.9238L86.4596 31.894V32.307Z" fill="#D45100"></path><path d="M86.4596 31.894L89.9759 33.9238L90.2888 33.7456L86.7725 31.7158L86.4596 31.894Z" fill="#FFE636"></path><path d="M89.5934 81.4136L86.4596 85.221V84.5126L89.5934 80.7051V81.4136Z" fill="#D45100"></path><path d="M89.8151 81.135L86.6813 84.9425L86.9377 84.7947L90.0715 80.9829L89.8151 81.135Z" fill="#D45100"></path><path d="M89.5934 75.5327L86.4596 79.3402V78.6361L89.5934 74.8242V75.5327Z" fill="#D45100"></path><path d="M89.8151 75.2542L86.6813 79.0661L86.9377 78.9139L90.0715 75.1064L89.8151 75.2542Z" fill="#D45100"></path><path d="M89.5934 69.6519L86.4596 73.4637V72.7552L89.5934 68.9478V69.6519Z" fill="#D45100"></path><path d="M89.8151 69.3782L86.6813 73.1857L86.9377 73.0379L90.0715 69.2261L89.8151 69.3782Z" fill="#D45100"></path><path d="M89.5934 63.7754L86.4596 67.5829V66.8787L89.5934 63.0669V63.7754Z" fill="#D45100"></path><path d="M89.8151 63.4974L86.6813 67.3049L86.9377 67.1571L90.0715 63.3496L89.8151 63.4974Z" fill="#D45100"></path><path d="M89.5934 57.8946L86.4596 61.7064V60.9979L89.5934 57.1904V57.8946Z" fill="#D45100"></path><path d="M89.8151 57.6165L86.6813 61.4284L86.9377 61.2762L90.0715 57.4688L89.8151 57.6165Z" fill="#D45100"></path><path d="M89.5934 52.0185L86.4596 55.826V55.1175L89.5934 51.3101V52.0185Z" fill="#D45100"></path><path d="M89.8151 51.74L86.6813 55.5475L86.9377 55.3997L90.0715 51.5879L89.8151 51.74Z" fill="#D45100"></path><path d="M89.5934 46.1377L86.4596 49.9452V49.241L89.5934 45.4292V46.1377Z" fill="#D45100"></path><path d="M89.8151 45.8592L86.6813 49.6667L86.9377 49.5189L90.0715 45.7114L89.8151 45.8592Z" fill="#D45100"></path><path d="M89.5934 40.2569L86.4596 44.0687V43.3602L89.5934 39.5527V40.2569Z" fill="#D45100"></path><path d="M89.8151 39.9788L86.6813 43.7907L86.9377 43.6429L90.0715 39.8311L89.8151 39.9788Z" fill="#D45100"></path><path d="M89.5934 34.3803L86.4596 38.1878V37.4794L89.5934 33.6719V34.3803Z" fill="#D45100"></path><path d="M89.8151 34.1023L86.6813 37.9098L86.9377 37.762L90.0715 33.9502L89.8151 34.1023Z" fill="#D45100"></path><path d="M89.5934 28.4995L86.4596 32.307V31.6029L89.5934 27.7954V28.4995Z" fill="#D45100"></path><path d="M89.8151 28.2215L86.6813 32.029L86.9377 31.8812L90.0715 28.0737L89.8151 28.2215Z" fill="#D45100"></path><path d="M94.2398 84.9946L93.6008 85.3641V86.2247L94.2398 85.8552V84.9946Z" fill="#2A2A2A"></path><path d="M92.9619 84.9946L93.6008 85.3641V86.2247L92.9619 85.8552V84.9946Z" fill="#202020"></path><path d="M92.9619 84.9949L93.6008 85.3644L94.2398 84.9949L93.6008 84.6255L92.9619 84.9949Z" fill="#3B3B3B"></path><path d="M93.0793 84.9908L93.5922 85.2863V28.087L93.0793 27.7871V84.9908Z" fill="#D45100"></path><path d="M94.105 84.9908L93.5922 85.2863V28.087L94.105 27.7871V84.9908Z" fill="#FF9A0A"></path><path d="M93.4965 79.5835L89.9802 87.481V86.7725L93.4965 78.875V79.5835Z" fill="#FF9A0A"></path><path d="M93.4965 78.8748L89.9803 86.7723L89.7238 86.6246L93.2401 78.7271L93.4965 78.8748Z" fill="#FFE636"></path><path d="M93.4965 73.7026L89.9802 81.6001V80.896L93.4965 72.9941V73.7026Z" fill="#FF9A0A"></path><path d="M93.4965 72.9945L89.9803 80.8963L89.7238 80.7442L93.2401 72.8467L93.4965 72.9945Z" fill="#FFE636"></path><path d="M93.4965 67.8218L89.9802 75.7237V75.0152L93.4965 67.1177V67.8218Z" fill="#FF9A0A"></path><path d="M93.4965 67.1179L89.9803 75.0154L89.7238 74.8677L93.2401 66.9658L93.4965 67.1179Z" fill="#FFE636"></path><path d="M93.4965 61.9458L89.9802 69.8433V69.1348L93.4965 61.2373V61.9458Z" fill="#FF9A0A"></path><path d="M93.4965 61.2371L89.9803 69.1346L89.7238 68.9869L93.2401 61.0894L93.4965 61.2371Z" fill="#FFE636"></path><path d="M93.4965 56.0649L89.9802 63.9624V63.2583L93.4965 55.3564V56.0649Z" fill="#FF9A0A"></path><path d="M93.4965 55.3563L89.9803 63.2581L89.7238 63.106L93.2401 55.2085L93.4965 55.3563Z" fill="#FFE636"></path><path d="M93.4965 50.1885L89.9802 58.086V57.3775L93.4965 49.48V50.1885Z" fill="#FF9A0A"></path><path d="M93.4965 49.4798L89.9803 57.3773L89.7238 57.2295L93.2401 49.332L93.4965 49.4798Z" fill="#FFE636"></path><path d="M93.4965 44.3076L89.9802 52.2051V51.4966L93.4965 43.5991V44.3076Z" fill="#FF9A0A"></path><path d="M93.4965 43.5994L89.9803 51.4969L89.7238 51.3492L93.2401 43.4517L93.4965 43.5994Z" fill="#FFE636"></path><path d="M93.4965 38.4268L89.9802 46.3286V45.6202L93.4965 37.7227V38.4268Z" fill="#FF9A0A"></path><path d="M93.4965 37.7229L89.9803 45.6204L89.7238 45.4727L93.2401 37.5708L93.4965 37.7229Z" fill="#FFE636"></path><path d="M93.4965 32.5508L89.9802 40.4483V39.7398L93.4965 31.8423V32.5508Z" fill="#FF9A0A"></path><path d="M93.4965 31.8421L89.9803 39.7396L89.7238 39.5918L93.2401 31.6943L93.4965 31.8421Z" fill="#FFE636"></path><path d="M93.4965 26.6699L89.9802 34.5674V33.8633L93.4965 25.9614V26.6699Z" fill="#FF9A0A"></path><path d="M93.4965 25.9613L89.9803 33.8631L89.7238 33.711L93.2401 25.8135L93.4965 25.9613Z" fill="#FFE636"></path><path d="M93.4965 85.1556L89.9802 87.1854V86.7725L93.4965 84.7427V85.1556Z" fill="#FF9A0A"></path><path d="M93.4965 84.7427L89.9802 86.7725L89.6673 86.5942L93.1792 84.5645L93.4965 84.7427Z" fill="#FFE636"></path><path d="M93.4965 79.2791L89.9802 81.3089V80.896L93.4965 78.8662V79.2791Z" fill="#FF9A0A"></path><path d="M93.4965 78.8661L89.9802 80.8959L89.6673 80.7134L93.1792 78.6836L93.4965 78.8661Z" fill="#FFE636"></path><path d="M93.4965 73.3988L89.9802 75.4285V75.0156L93.4965 72.9858V73.3988Z" fill="#FF9A0A"></path><path d="M93.4965 72.9858L89.9802 75.0156L89.6673 74.833L93.1792 72.8032L93.4965 72.9858Z" fill="#FFE636"></path><path d="M93.4965 67.5222L89.9802 69.552V69.1348L93.4965 67.105V67.5222Z" fill="#FF9A0A"></path><path d="M93.4965 67.105L89.9802 69.1348L89.6673 68.9565L93.1792 66.9268L93.4965 67.105Z" fill="#FFE636"></path><path d="M93.4965 61.6414L89.9802 63.6712V63.2583L93.4965 61.2285V61.6414Z" fill="#FF9A0A"></path><path d="M93.4965 61.2284L89.9802 63.2582L89.6673 63.0757L93.1792 61.0459L93.4965 61.2284Z" fill="#FFE636"></path><path d="M93.4965 55.7606L89.9802 57.7904V57.3774L93.4965 55.3477V55.7606Z" fill="#FF9A0A"></path><path d="M93.4965 55.3476L89.9802 57.3774L89.6673 57.1948L93.1792 55.165L93.4965 55.3476Z" fill="#FFE636"></path><path d="M93.4965 49.8841L89.9802 51.9139V51.4966L93.4965 49.4668V49.8841Z" fill="#FF9A0A"></path><path d="M93.4965 49.4668L89.9802 51.4966L89.6673 51.3184L93.1792 49.2886L93.4965 49.4668Z" fill="#FFE636"></path><path d="M93.4965 44.0032L89.9802 46.033V45.6201L93.4965 43.5903V44.0032Z" fill="#FF9A0A"></path><path d="M93.4965 43.5908L89.9802 45.6205L89.6673 45.438L93.1792 43.4082L93.4965 43.5908Z" fill="#FFE636"></path><path d="M93.4965 38.1272L89.9802 40.157V39.7398L93.4965 37.71V38.1272Z" fill="#FF9A0A"></path><path d="M93.4965 37.7099L89.9802 39.7397L89.6673 39.5615L93.1792 37.5317L93.4965 37.7099Z" fill="#FFE636"></path><path d="M93.4965 32.2464L89.9802 34.2762V33.8633L93.4965 31.8335V32.2464Z" fill="#FF9A0A"></path><path d="M93.4965 31.8334L89.9802 33.8632L89.6673 33.6807L93.1792 31.6509L93.4965 31.8334Z" fill="#FFE636"></path><path d="M90.3627 81.3481L93.4965 85.1556V84.4515L90.3627 80.6396V81.3481Z" fill="#FF9A0A"></path><path d="M90.1367 81.0701L93.2705 84.8776L93.014 84.7299L89.8802 80.9224L90.1367 81.0701Z" fill="#D45100"></path><path d="M90.3627 75.4673L93.4965 79.2791V78.5707L90.3627 74.7632V75.4673Z" fill="#FF9A0A"></path><path d="M90.1367 75.1936L93.2705 79.0011L93.014 78.8533L89.8802 75.0415L90.1367 75.1936Z" fill="#D45100"></path><path d="M90.3627 69.5908L93.4965 73.3983V72.6942L90.3627 68.8823V69.5908Z" fill="#FF9A0A"></path><path d="M90.1367 69.3128L93.2705 73.1203L93.014 72.9725L89.8802 69.165L90.1367 69.3128Z" fill="#D45100"></path><path d="M90.3627 63.7105L93.4965 67.5223V66.8138L90.3627 63.0063V63.7105Z" fill="#FF9A0A"></path><path d="M90.1367 63.432L93.2705 67.2438L93.014 67.0917L89.8802 63.2842L90.1367 63.432Z" fill="#D45100"></path><path d="M90.3627 57.834L93.4965 61.6415V60.933L90.3627 57.1255V57.834Z" fill="#FF9A0A"></path><path d="M90.1367 57.5559L93.2705 61.3634L93.014 61.2156L89.8802 57.4038L90.1367 57.5559Z" fill="#D45100"></path><path d="M90.3627 51.9531L93.4965 55.7606V55.0565L90.3627 51.2446V51.9531Z" fill="#FF9A0A"></path><path d="M90.1367 51.6751L93.2705 55.4826L93.014 55.3348L89.8802 51.5273L90.1367 51.6751Z" fill="#D45100"></path><path d="M90.3627 46.0723L93.4965 49.8841V49.1757L90.3627 45.3682V46.0723Z" fill="#FF9A0A"></path><path d="M90.1367 45.7943L93.2705 49.6061L93.014 49.454L89.8802 45.6465L90.1367 45.7943Z" fill="#D45100"></path><path d="M90.3627 40.1958L93.4965 44.0033V43.2948L90.3627 39.4873V40.1958Z" fill="#FF9A0A"></path><path d="M90.1367 39.9178L93.2705 43.7253L93.014 43.5775L89.8802 39.77L90.1367 39.9178Z" fill="#D45100"></path><path d="M90.3627 34.3155L93.4965 38.1273V37.4188L90.3627 33.6113V34.3155Z" fill="#FF9A0A"></path><path d="M90.1367 34.0369L93.2705 37.8488L93.014 37.6967L89.8802 33.8892L90.1367 34.0369Z" fill="#D45100"></path><path d="M90.3627 28.4346L93.4965 32.2464V31.538L90.3627 27.7305V28.4346Z" fill="#FF9A0A"></path><path d="M90.1367 28.1561L93.2705 31.9679L93.014 31.8201L89.8802 28.0083L90.1367 28.1561Z" fill="#D45100"></path><path d="M90.6235 87.0811L89.9846 87.4548V88.3111L90.6235 87.9417V87.0811Z" fill="#2A2A2A"></path><path d="M89.3456 87.0811L89.9846 87.4548V88.3111L89.3456 87.9417V87.0811Z" fill="#202020"></path><path d="M89.3456 87.0814L89.9846 87.4552L90.6235 87.0814L89.9846 86.7119L89.3456 87.0814Z" fill="#3B3B3B"></path><path d="M89.463 87.0767L89.9759 87.3767V30.173L89.463 29.8774V87.0767Z" fill="#D45100"></path><path d="M90.4888 87.0767L89.9759 87.3767V30.173L90.4888 29.8774V87.0767Z" fill="#FF9A0A"></path><path d="M95.4133 27.7737L90.1671 30.8032V30.4294L95.4133 27.3999V27.7737Z" fill="#FF850A"></path><path d="M84.9166 27.7737L90.1671 30.8032V30.4294L84.9166 27.3999V27.7737Z" fill="#BC3C00"></path><path d="M90.1671 24.3706L95.4133 27.4001L90.1671 30.4296L84.9166 27.4001L90.1671 24.3706Z" fill="#FF9A0A"></path><path d="M90.9452 27.1394L87.7071 29.0128L84.3125 27.0482L87.5463 25.1792L90.9452 27.1394Z" fill="#E26600"></path><path d="M90.2106 25.418L89.902 25.5919V12.9306L90.2106 12.7524V25.418Z" fill="#FF9A0A"></path><path d="M89.5978 25.418L89.902 25.5919V12.9306L89.5978 12.7524V25.418Z" fill="#D45100"></path><path d="M90.2106 12.7523L90.2062 4.5332L90.002 4.64621L89.902 12.9305L90.2106 12.7523Z" fill="#FF9A0A"></path><path d="M89.5978 12.7523L89.7977 4.5332L90.002 4.64621L89.902 12.9305L89.5978 12.7523Z" fill="#D45100"></path><path d="M90.3019 20.3325L93.5791 27.6954V27.0348L90.3019 19.6719V20.3325Z" fill="#B53C00"></path><path d="M90.3019 19.6718L93.5791 27.0347L93.8182 26.8956L90.5409 19.5327L90.3019 19.6718Z" fill="#F5830A"></path><path d="M90.3019 14.8521L93.5791 22.215V21.5543L90.3019 14.1914V14.8521Z" fill="#B53C00"></path><path d="M90.3019 14.1913L93.5791 21.5542L93.8182 21.4151L90.5409 14.0522L90.3019 14.1913Z" fill="#F5830A"></path><path d="M90.3019 25.5309L93.5791 27.4216V27.0348L90.3019 25.144V25.5309Z" fill="#B53C00"></path><path d="M90.3019 25.1441L93.5791 27.0348L93.8703 26.8697L90.5931 24.9746L90.3019 25.1441Z" fill="#FF850A"></path><path d="M90.3019 20.0504L93.5791 21.9411V21.5543L90.3019 19.6636V20.0504Z" fill="#B53C00"></path><path d="M90.3019 19.6632L93.5791 21.5539L93.8703 21.3887L90.5931 19.4937L90.3019 19.6632Z" fill="#FF850A"></path><path d="M90.3019 14.5695L93.5791 16.4602V16.0733L90.3019 14.1826V14.5695Z" fill="#B53C00"></path><path d="M93.8703 15.9039L93.7573 15.9734L93.5791 16.0777L93.0749 15.7865L92.9967 15.7387L92.1883 15.2737L91.9101 15.1128L91.2407 14.726L90.2975 14.1827L90.4801 14.0784L90.5931 14.0132L91.5363 14.5565L92.0535 14.8564L92.4838 15.1041L92.9967 15.3997L93.3705 15.6127L93.8703 15.9039Z" fill="#FF850A"></path><path d="M93.2227 21.98L90.3019 25.531V24.8704L93.2227 21.3193V21.98Z" fill="#B53C00"></path><path d="M93.4313 21.7192L90.5105 25.2702L90.7452 25.1311L93.666 21.5801L93.4313 21.7192Z" fill="#B53C00"></path><path d="M93.2227 16.499L90.3019 20.0501V19.3894L93.2227 15.8384V16.499Z" fill="#B53C00"></path><path d="M93.4313 16.2382L90.5105 19.7893L90.7452 19.6502L93.666 16.0991L93.4313 16.2382Z" fill="#B53C00"></path><path d="M90.3367 20.1763L87.0594 27.5392V26.8785L90.3367 19.5156V20.1763Z" fill="#B84000"></path><path d="M90.3367 19.5156L87.0594 26.8784L86.8204 26.7394L90.0976 19.3765L90.3367 19.5156Z" fill="#DE6F00"></path><path d="M90.3367 14.6953L87.0594 22.0582V21.3976L90.3367 14.0347V14.6953Z" fill="#B84000"></path><path d="M90.3367 14.0346L87.0594 21.3975L86.8204 21.2584L90.0976 13.8955L90.3367 14.0346Z" fill="#DE6F00"></path><path d="M90.3367 25.3746L87.0594 27.2653V26.8785L90.3367 24.9878V25.3746Z" fill="#B84000"></path><path d="M90.3366 24.9879L87.0594 26.8786L86.7682 26.7091L90.0454 24.8184L90.3366 24.9879Z" fill="#DE6F00"></path><path d="M90.3367 19.8937L87.0594 21.7844V21.3975L90.3367 19.5068V19.8937Z" fill="#B84000"></path><path d="M90.3366 19.5069L87.0594 21.3976L86.7682 21.2281L90.0454 19.3374L90.3366 19.5069Z" fill="#DE6F00"></path><path d="M90.3367 14.4127L87.0594 16.3034V15.9166L90.3367 14.0259V14.4127Z" fill="#B84000"></path><path d="M90.3366 14.026L87.0594 15.9167L86.7682 15.7472L90.0454 13.8564L90.3366 14.026Z" fill="#DE6F00"></path><path d="M87.4158 21.8237L90.3366 25.3748V24.7141L87.4158 21.1631V21.8237Z" fill="#B84000"></path><path d="M87.2072 21.5629L90.128 25.114L89.889 24.9749L86.9681 21.4238L87.2072 21.5629Z" fill="#D45100"></path><path d="M87.4158 16.3428L90.3366 19.8938V19.2332L87.4158 15.6821V16.3428Z" fill="#B84000"></path><path d="M87.2072 16.082L90.128 19.633L89.889 19.4939L86.9681 15.9429L87.2072 16.082Z" fill="#D45100"></path><path d="M86.7943 27.3911L86.4857 27.565V14.9038L86.7943 14.7256V27.3911Z" fill="#FF9A0A"></path><path d="M86.1815 27.3911L86.4857 27.565V14.9038L86.1815 14.7256V27.3911Z" fill="#D45100"></path><path d="M87.4028 18.5679L83.9517 20.489L83.7735 20.7411L83.704 20.9454L83.8039 21.0106L83.4258 24.4747L83.3649 25.6178L83.4779 26.4393L83.5301 26.8305L83.5866 27.1869L86.5509 28.9124L87.7679 22.5449L87.5114 18.5766L87.4028 18.5679Z" fill="#380009"></path><path d="M87.5114 18.5766L90.4757 20.3065L90.3671 20.2978L87.381 18.5679L87.5114 18.5766Z" fill="#959595"></path><path d="M86.603 22.7797L86.2119 26.4438L85.0166 25.7527L84.708 25.5745L83.8952 25.1094L83.8344 25.0703L83.5258 24.8877L83.9169 21.228L84.156 21.3671L84.2168 21.4062L85.6338 22.2234L86.1945 22.545L86.603 22.7797Z" fill="#4F2F32"></path><path d="M86.1945 22.545L86.1684 23.4882L85.8685 23.8055L83.8691 24.8704L84.2169 21.4062L85.6338 22.2234L86.1945 22.545Z" fill="#664A4C"></path><path d="M86.1901 24.6226L86.0119 25.1963L85.0166 25.7527L84.708 25.5745L83.8952 25.1094L86.1858 23.8315L86.1901 24.6226Z" fill="#664A4C"></path><path d="M83.5258 24.8921L83.843 25.3832L84.1647 25.8831L84.2299 25.9874L85.6859 26.8263L86.2119 26.4394L84.708 25.5701L83.8344 25.0703L83.5258 24.8921Z" fill="#4F2F32"></path><path d="M83.3649 25.6182L84.1038 26.5613L85.6555 27.4654L86.3292 27.3437L86.5509 28.9128L83.5866 27.1872L83.3649 25.6182Z" fill="#8A8480"></path><path d="M86.4987 28.5607L83.5301 26.8308L83.3649 25.6182L84.1038 26.5613L85.6555 27.4654L86.3292 27.3437L86.4987 28.5607Z" fill="#8A8480"></path><path d="M87.3811 18.5679L90.3671 20.2978L86.916 22.2145L83.9517 20.489L87.3811 18.5679Z" fill="#D7D7D7"></path><path d="M90.3671 20.2979L86.916 22.2146L86.7421 22.4667L86.6726 22.671L86.7682 22.7362L86.3901 26.2003L86.3292 27.3434L86.4422 28.1649L86.4987 28.5605L86.5509 28.9125L90.7322 26.5002V24.2705L90.4757 20.3065L90.3671 20.2979Z" fill="#B7B7B7"></path><path d="M86.7682 22.7362L86.6726 22.671L86.7421 22.4667L86.916 22.2146L90.3671 20.2979L90.4757 20.3065L90.7322 24.2705L90.4497 25.7918L89.9324 26.6437L86.4987 28.5605L86.3292 27.3434L86.3901 26.2003L86.7682 22.7362Z" fill="#B7B7B7"></path><path d="M87.0073 22.4407L86.5726 26.2047V27.4696L86.7595 28.165L89.124 26.8002L90.1324 25.2616L90.3019 24.5053L90.1802 20.7891L87.0073 22.4407Z" fill="#380009"></path><path d="M86.7986 26.2702L88.798 25.2096L89.1023 24.8923L89.1935 21.4717L87.7853 22.2367L87.1724 22.58L86.7986 26.2702Z" fill="#67383F"></path><path d="M89.1153 25.2354L89.1196 26.0264L88.9458 26.6001L86.9421 27.7172L86.8117 27.3173L86.7986 26.5262L89.1153 25.2354Z" fill="#4F2F32"></path><path d="M89.3239 21.4109L89.2413 23.0842V24.8924L89.7499 24.6359L90.0454 24.2752L89.9933 21.0327L89.8107 21.137L89.3239 21.4109Z" fill="#67383F"></path><path d="M86.6726 22.6712L83.704 20.9456L83.7735 20.7414L83.9517 20.4893L86.916 22.2148L86.7422 22.4669L86.6726 22.6712Z" fill="#8A8480"></path><path d="M89.8498 19.9761L86.364 21.832L86.351 21.8494L86.4335 21.9016L89.8672 20.0108L89.8498 19.9761Z" fill="#A5AAAB"></path><path d="M89.7847 19.937L86.364 21.8321L86.4162 21.8668L89.8499 19.9761L89.7847 19.937Z" fill="#E1E1E1"></path><path d="M89.3631 19.6982L85.8772 21.5542L85.8685 21.5716L85.9511 21.6237L89.3805 19.733L89.3631 19.6982Z" fill="#A5AAAB"></path><path d="M89.2979 19.6592L85.8772 21.5542L85.9337 21.589L89.3631 19.6983L89.2979 19.6592Z" fill="#E1E1E1"></path><path d="M88.8806 19.4199L85.3948 21.2759L85.3817 21.2932L85.4643 21.3454L88.898 19.4547L88.8806 19.4199Z" fill="#A5AAAB"></path><path d="M88.8154 19.3809L85.3947 21.2759L85.4469 21.3107L88.8806 19.42L88.8154 19.3809Z" fill="#E1E1E1"></path><path d="M88.3938 19.1416L84.9079 20.9975L84.8992 21.0149L84.9818 21.0671L88.4112 19.1764L88.3938 19.1416Z" fill="#A5AAAB"></path><path d="M88.3286 19.1025L84.908 20.9976L84.9645 21.0324L88.3938 19.1417L88.3286 19.1025Z" fill="#E1E1E1"></path><path d="M87.9113 18.8638L84.4255 20.7197L84.4124 20.7371L84.495 20.7892L87.9287 18.8985L87.9113 18.8638Z" fill="#A5AAAB"></path><path d="M87.8461 18.8247L84.4255 20.7198L84.4776 20.7545L87.9113 18.8638L87.8461 18.8247Z" fill="#E1E1E1"></path><path d="M89.8107 21.1367L89.3239 21.4105L89.2413 23.0839L89.6673 23.3404L89.8107 21.1367Z" fill="#7E7E7E"></path><path d="M87.7853 22.2367L89.1109 23.0147L89.1935 21.4717L87.7853 22.2367Z" fill="#7E7E7E"></path><g style="mix-blend-mode:multiply"><path d="M83.5692 27.087L83.5866 27.187L86.5509 28.9125L90.7322 26.5002V26.3872L86.5335 28.7908L83.5692 27.087Z" fill="#BFA89A"></path></g><path d="M112.725 2.77292L111.804 3.30319L107.67 0.916986L108.587 0.386719L112.725 2.77292Z" fill="#CAD1CA"></path><path d="M111.804 10.5053V3.30319L107.67 0.916992V8.11472L111.804 10.5053Z" fill="#545B53"></path><path d="M112.725 9.97502L111.804 10.5053V3.30322L112.725 2.77295V9.97502Z" fill="#7A8B79"></path><path d="M111.695 3.36423L110.778 3.8945L106.64 1.50829L107.562 0.978027L111.695 3.36423Z" fill="#CAD1CA"></path><path d="M110.778 11.0966V3.8945L106.64 1.5083V8.71037L110.778 11.0966Z" fill="#545B53"></path><path d="M111.695 10.5663L110.778 11.0966V3.89453L111.695 3.36426V10.5663Z" fill="#7A8B79"></path><path d="M110.669 3.95944L109.748 4.48971L105.614 2.10351L106.532 1.57324L110.669 3.95944Z" fill="#CAD1CA"></path><path d="M109.748 11.6918V4.48972L105.614 2.10352V9.30559L109.748 11.6918Z" fill="#545B53"></path><path d="M110.669 11.1615L109.748 11.6918V4.48974L110.669 3.95947V11.1615Z" fill="#7A8B79"></path><path d="M109.639 4.55075L108.722 5.08537L104.584 2.69482L105.506 2.16455L109.639 4.55075Z" fill="#CAD1CA"></path><path d="M108.722 12.2831V5.08537L104.584 2.69482V9.89689L108.722 12.2831Z" fill="#545B53"></path><path d="M109.639 11.7529L108.722 12.2831V5.08539L109.639 4.55078V11.7529Z" fill="#7A8B79"></path><path d="M108.631 4.43352L107.296 5.20284L103.163 2.81664L104.497 2.04297L108.631 4.43352Z" fill="#CAD1CA"></path><path d="M107.296 15.156V5.20261L103.163 2.81641V12.7698L107.296 15.156Z" fill="#545B53"></path><path d="M108.631 14.3826L107.297 15.1563V5.20292L108.631 4.43359V14.3826Z" fill="#7A8B79"></path><path d="M94.0789 16.4644L89.7499 18.9636V18.655L94.0789 16.1558V16.4644Z" fill="#FF9A0A"></path><path d="M85.4252 16.4644L89.7499 18.9636V18.655L85.4252 16.1558V16.4644Z" fill="#BC3C00"></path><path d="M89.7499 13.6567L94.079 16.1559L89.7499 18.6552L85.4252 16.1559L89.7499 13.6567Z" fill="#FF9A0A"></path><path d="M93.8877 27.5391L93.5834 27.7173V15.0561L93.8877 14.8779V27.5391Z" fill="#FF9A0A"></path><path d="M93.2748 27.5391L93.5834 27.7173V15.0561L93.2748 14.8779V27.5391Z" fill="#D45100"></path><path d="M93.4748 27.4176L90.1932 29.3083V28.9215L93.4748 27.0308V27.4176Z" fill="#FF9A0A"></path><path d="M93.4748 27.0304L90.1932 28.9211L89.902 28.7515L93.1792 26.8608L93.4748 27.0304Z" fill="#FFE636"></path><path d="M93.4748 21.9366L90.1932 23.8273V23.4405L93.4748 21.5498V21.9366Z" fill="#FF9A0A"></path><path d="M93.4748 21.5499L90.1932 23.4406L89.902 23.2754L93.1792 21.3804L93.4748 21.5499Z" fill="#FFE636"></path><path d="M90.4714 29.5123L90.1671 29.6905V17.0293L90.4714 16.8511V29.5123Z" fill="#FF9A0A"></path><path d="M89.8585 29.5123L90.1671 29.6905V17.0293L89.8585 16.8511V29.5123Z" fill="#D45100"></path><path d="M41.9432 41.8304L45.7681 44.0384V43.6255L41.9432 41.4175V41.8304Z" fill="#D45100"></path><path d="M41.9432 41.4174L45.7681 43.6254L46.0811 43.4429L42.2562 41.2349L41.9432 41.4174Z" fill="#FFA90A"></path><path d="M47.8414 38.4271L51.6619 40.6307V40.2178L47.8414 38.0142V38.4271Z" fill="#D45100"></path><path d="M47.8414 38.0141L51.6619 40.2177L51.9748 40.0395L48.1543 37.8315L47.8414 38.0141Z" fill="#FFA90A"></path><path d="M53.7395 35.0237L57.56 37.2274V36.8144L53.7395 34.6064V35.0237Z" fill="#D45100"></path><path d="M53.7395 34.6064L57.56 36.8144L57.873 36.6319L54.0524 34.4282L53.7395 34.6064Z" fill="#FFA90A"></path><path d="M59.6377 31.616L63.4582 33.824V33.4111L59.6377 31.2031V31.616Z" fill="#D45100"></path><path d="M59.6377 31.2031L63.4582 33.4111L63.7712 33.2285L59.9506 31.0205L59.6377 31.2031Z" fill="#FFA90A"></path><path d="M65.5358 28.2127L69.3563 30.4164V30.0035L65.5358 27.7998V28.2127Z" fill="#D45100"></path><path d="M65.5358 27.7997L69.3563 30.0034L69.6692 29.8208L65.8487 27.6172L65.5358 27.7997Z" fill="#FFA90A"></path><path d="M71.4296 24.805L75.2544 27.013V26.6001L71.4296 24.3921V24.805Z" fill="#D45100"></path><path d="M71.4296 24.3921L75.2544 26.6001L75.5674 26.4175L71.7469 24.2139L71.4296 24.3921Z" fill="#FFA90A"></path><path d="M77.3277 21.4022L81.1526 23.6102V23.1929L77.3277 20.9893V21.4022Z" fill="#D45100"></path><path d="M77.3277 20.9892L81.1526 23.1928L81.4655 23.0146L77.6406 20.8066L77.3277 20.9892Z" fill="#FFA90A"></path><path d="M83.2258 17.9988L87.0464 20.2025V19.7895L83.2258 17.5815V17.9988Z" fill="#D45100"></path><path d="M83.2258 17.5815L87.0464 19.7895L87.3637 19.607L83.5388 17.4033L83.2258 17.5815Z" fill="#FFA90A"></path><path d="M105.562 8.94513L46.3984 43.1082V42.7344L105.562 8.57568V8.94513Z" fill="#B84000"></path><path d="M45.5117 42.595L46.3984 43.1079V42.7341L45.5117 42.2256V42.595Z" fill="#B53C00"></path><path d="M105.567 8.57538L93.3705 15.6123L93.2531 15.6818L93.0749 15.7861L92.9967 15.834L91.9622 16.4294L88.9284 18.181L46.394 42.7341L45.5117 42.2256L88.0417 17.6682L91.7362 15.5384L92.1883 15.2733L92.3665 15.1689L92.4838 15.1038L92.9967 14.8038L104.68 8.0625L105.567 8.57538Z" fill="#FF850A"></path><path d="M103.728 7.88893L44.5598 42.0477V41.6739L103.728 7.51514V7.88893Z" fill="#B84000"></path><path d="M43.621 41.5042L44.5598 42.0475V41.6737L43.621 41.1304V41.5042Z" fill="#B53C00"></path><path d="M103.728 7.51499L100.068 9.62736L91.5363 14.5562L91.4189 14.6214L91.2407 14.7257L87.0898 17.1206L44.5598 41.6737L43.621 41.1304L86.151 16.5773L90.2975 14.1824L90.4801 14.0781L90.5931 14.0129L99.1817 9.05363L102.789 6.97168L103.728 7.51499Z" fill="#FF850A"></path><g style="mix-blend-mode:multiply"><path d="M92.4838 15.1041L92.9967 14.8042V16.3559L92.4229 16.6862L91.9622 16.4298L91.4754 16.1559L91.7362 15.5387L91.91 15.1128L91.9839 14.9476L92.01 14.8824L92.0535 14.8564L92.4838 15.1041Z" fill="#BAA58A"></path></g><g style="mix-blend-mode:multiply"><path d="M103.728 7.51484L100.068 9.62721L99.1773 9.07956L99.1817 9.05348L99.4685 7.31925L99.7119 6.69771L103.163 4.70703V6.78029L102.789 6.97153L103.728 7.51484Z" fill="#BAA58A"></path></g><path d="M93.4096 14.8868L113.768 3.12968L113.355 2.89062L92.9967 14.6478L93.4096 14.8868Z" fill="#FFC523"></path><path d="M93.4096 16.4773L113.768 4.72454V3.12939L93.4096 14.8865V16.4773Z" fill="#F06909"></path><path d="M93.4096 14.8865V16.4773L92.9967 16.2383V14.6475L93.4096 14.8865Z" fill="#D45100"></path><path d="M90.4714 16.8511L90.141 7.31494L89.9411 7.4323L90.1671 17.0293L90.4714 16.8511Z" fill="#FF9A0A"></path><path d="M89.8585 16.8511L89.7368 7.31494L89.9411 7.4323L90.1671 17.0293L89.8585 16.8511Z" fill="#D45100"></path><path d="M86.7943 14.7259L88.4938 6.36328L88.2895 6.48064L86.4857 14.9041L86.7943 14.7259Z" fill="#FF9A0A"></path><path d="M86.1815 14.7259L88.0852 6.36328L88.2895 6.48064L86.4857 14.9041L86.1815 14.7259Z" fill="#D45100"></path><path d="M93.4096 14.8867L91.1277 4.42918L90.6105 4.25098L92.9967 14.6477L93.4096 14.8867Z" fill="#D45100"></path><path d="M91.1538 6.73289L89.9411 7.43267L89.9455 5.0682V4.46405L90.7582 3.99463L91.1625 4.36408L91.8014 6.3591L91.1538 6.73289Z" fill="#FF9A0A"></path><path d="M88.7241 6.73266L89.9411 7.43244L89.9455 5.06797V4.46381L89.0197 3.9292L88.6111 4.29865L88.0852 6.36321L88.7241 6.73266Z" fill="#D45100"></path><path d="M89.8281 3.45996L90.7582 3.99457L89.9454 4.46399L89.0197 3.92938L89.8281 3.45996Z" fill="#FFE636"></path><path d="M44.3164 37.4011L48.1369 39.6048V39.1919L44.3164 36.9839V37.4011Z" fill="#D45100"></path><path d="M44.3164 36.9839L48.1369 39.1919L48.4499 39.0093L44.6294 36.8057L44.3164 36.9839Z" fill="#FFE636"></path><path d="M49.3018 34.5237L53.1224 36.7274V36.3144L49.3018 34.1064V34.5237Z" fill="#D45100"></path><path d="M49.3018 34.1064L53.1223 36.3144L53.4353 36.1319L49.6148 33.9282L49.3018 34.1064Z" fill="#FFE636"></path><path d="M54.2872 31.6468L58.1077 33.8504V33.4375L54.2872 31.2295V31.6468Z" fill="#D45100"></path><path d="M54.2872 31.2295L58.1077 33.4375L58.4206 33.2549L54.6001 31.0513L54.2872 31.2295Z" fill="#FFE636"></path><path d="M59.2682 28.765L63.0931 30.973V30.56L59.2682 28.3521V28.765Z" fill="#D45100"></path><path d="M59.2682 28.352L63.0931 30.56L63.406 30.3774L59.5855 28.1694L59.2682 28.352Z" fill="#FFE636"></path><path d="M64.2536 25.8875L68.0785 28.0955V27.6826L64.2536 25.4746V25.8875Z" fill="#D45100"></path><path d="M64.2536 25.4745L68.0785 27.6825L68.3914 27.5L64.5665 25.292L64.2536 25.4745Z" fill="#FFE636"></path><path d="M69.239 23.0101L73.0595 25.2181V24.8008L69.239 22.5972V23.0101Z" fill="#D45100"></path><path d="M69.239 22.5971L73.0595 24.8008L73.3724 24.6225L69.5519 22.4146L69.239 22.5971Z" fill="#FFE636"></path><path d="M74.2244 20.1326L78.0449 22.3406V21.9234L74.2244 19.7197V20.1326Z" fill="#D45100"></path><path d="M74.2244 19.7197L78.0449 21.9233L78.3578 21.7451L74.5373 19.5371L74.2244 19.7197Z" fill="#FFE636"></path><path d="M79.2097 17.2552L83.0302 19.4588V19.0459L79.2097 16.8423V17.2552Z" fill="#D45100"></path><path d="M79.2097 16.8427L83.0302 19.0464L83.3432 18.8682L79.5227 16.6602L79.2097 16.8427Z" fill="#FFE636"></path><path d="M84.1951 14.3782L88.0157 16.5819V16.169L84.1951 13.9653V14.3782Z" fill="#D45100"></path><path d="M84.1951 13.9653L88.0157 16.1689L88.3286 15.9864L84.5081 13.7827L84.1951 13.9653Z" fill="#FFE636"></path><path d="M108.109 8.40608L46.0811 44.2165V43.8036L108.109 7.99316V8.40608Z" fill="#E26600"></path><path d="M108.109 7.9931L46.0811 43.8035L45.7681 43.6253L107.792 7.81055L108.109 7.9931Z" fill="#FFE636"></path><path d="M45.7681 43.6255L46.0811 43.8037V44.2166L45.7681 44.0384V43.6255Z" fill="#D45100"></path><path d="M48.137 39.1919L48.4499 39.3744V39.7874L48.137 39.6048V39.1919Z" fill="#D45100"></path><path d="M88.3286 15.9861L88.6416 16.1687L93.4096 16.0644L93.0967 15.8818L88.3286 15.9861Z" fill="#FFC523"></path><path d="M88.6415 16.1688V16.5817L93.4096 16.4774V16.0645L88.6415 16.1688Z" fill="#E26600"></path><path d="M48.1369 39.1919L48.4499 39.3744L46.0811 43.8035L45.7681 43.6253L48.1369 39.1919Z" fill="#D45100"></path><path d="M48.4499 39.3745L48.7628 39.5527L46.394 43.9861L46.0811 43.8035L48.4499 39.3745Z" fill="#E26600"></path><path d="M54.0525 35.7759L54.3654 35.9584L51.9966 40.3875L51.6837 40.2093L54.0525 35.7759Z" fill="#D45100"></path><path d="M54.3654 35.958L54.6827 36.1362L52.3095 40.5696L51.9966 40.387L54.3654 35.958Z" fill="#E26600"></path><path d="M59.9723 32.3594L60.2853 32.5419L57.9121 36.971L57.5992 36.7928L59.9723 32.3594Z" fill="#D45100"></path><path d="M60.2853 32.542L60.5982 32.7245L58.2251 37.1536L57.9121 36.971L60.2853 32.542Z" fill="#E26600"></path><path d="M65.8879 28.9429L66.2008 29.1254L63.8277 33.5588L63.5147 33.3763L65.8879 28.9429Z" fill="#D45100"></path><path d="M66.2008 29.1255L66.5137 29.308L64.1406 33.7371L63.8276 33.5589L66.2008 29.1255Z" fill="#E26600"></path><path d="M71.8034 25.5269L72.1163 25.7094L69.7475 30.1428L69.4302 29.9602L71.8034 25.5269Z" fill="#D45100"></path><path d="M72.1163 25.7095L72.4293 25.892L70.0604 30.3211L69.7475 30.1429L72.1163 25.7095Z" fill="#E26600"></path><path d="M77.7189 22.1147L78.0319 22.293L75.663 26.7263L75.3501 26.5438L77.7189 22.1147Z" fill="#D45100"></path><path d="M78.0318 22.293L78.3448 22.4755L75.976 26.9089L75.663 26.7263L78.0318 22.293Z" fill="#E26600"></path><path d="M83.6344 18.6982L83.9517 18.8764L81.5786 23.3098L81.2656 23.1273L83.6344 18.6982Z" fill="#D45100"></path><path d="M83.9517 18.8765L84.2647 19.059L81.8915 23.4924L81.5786 23.3098L83.9517 18.8765Z" fill="#E26600"></path><path d="M88.8589 16.5775L89.2761 16.5688L87.4941 19.8939L87.1812 19.7113L88.8589 16.5775Z" fill="#D45100"></path><path d="M89.2761 16.5688L89.689 16.5601L87.807 20.0763L87.4941 19.8938L89.2761 16.5688Z" fill="#E26600"></path><path d="M48.137 39.1919L48.4499 39.3744L52.001 40.3915L51.688 40.2133L48.137 39.1919Z" fill="#FF9A0A"></path><path d="M48.4499 39.3745L48.4282 39.7918L51.9792 40.8132L52.0009 40.3916L48.4499 39.3745Z" fill="#E26600"></path><path d="M54.0525 35.7759L54.3654 35.9584L57.9208 36.9755L57.6035 36.7973L54.0525 35.7759Z" fill="#FF9A0A"></path><path d="M54.3654 35.958L54.3437 36.3753L57.8947 37.3967L57.9208 36.9751L54.3654 35.958Z" fill="#E26600"></path><path d="M59.9724 32.3594L60.2853 32.5419L63.8363 33.5633L63.5234 33.3808L59.9724 32.3594Z" fill="#FF9A0A"></path><path d="M60.2853 32.542L60.2592 32.9593L63.8103 33.9807L63.8363 33.5634L60.2853 32.542Z" fill="#E26600"></path><path d="M65.8879 28.9429L66.2008 29.1254L69.7519 30.1468L69.4389 29.9643L65.8879 28.9429Z" fill="#FF9A0A"></path><path d="M66.2008 29.1255L66.1747 29.5427L69.7258 30.5642L69.7519 30.1469L66.2008 29.1255Z" fill="#E26600"></path><path d="M71.8034 25.5269L72.1164 25.7094L75.6674 26.7308L75.3545 26.5483L71.8034 25.5269Z" fill="#FF9A0A"></path><path d="M72.1163 25.7095L72.0946 26.1311L75.6413 27.1481L75.6674 26.7309L72.1163 25.7095Z" fill="#E26600"></path><path d="M77.7189 22.1147L78.0318 22.293L81.5829 23.3144L81.2699 23.1318L77.7189 22.1147Z" fill="#FF9A0A"></path><path d="M78.0319 22.293L78.0101 22.7146L81.5612 23.7316L81.5829 23.3144L78.0319 22.293Z" fill="#E26600"></path><path d="M83.6344 18.6982L83.9517 18.8764L87.5027 19.8979L87.1854 19.7153L83.6344 18.6982Z" fill="#FF9A0A"></path><path d="M83.9517 18.8765L83.9257 19.2981L87.4767 20.3151L87.5028 19.8979L83.9517 18.8765Z" fill="#E26600"></path><path d="M88.6415 16.5819L48.4499 39.7876V39.3746L88.6415 16.1689V16.5819Z" fill="#E26600"></path><path d="M88.6415 16.1689L48.4499 39.3746L48.137 39.192L88.3286 15.9863L88.6415 16.1689Z" fill="#FFE636"></path><path d="M93.4096 14.8868L91.1277 4.4292L91.8014 6.35902L93.7182 14.7086L93.4096 14.8868Z" fill="#FF9A0A"></path><path d="M51.2447 52.5484L51.0013 52.4658L51.0317 51.7139L50.5971 51.9833L50.6449 52.8526C50.6449 52.8526 51.1882 53.0135 51.2534 53.1221C51.3186 53.2308 51.1099 53.8784 51.1099 53.8784L50.6753 54.0609L50.3884 53.8349L50.4449 54.2696L50.8274 54.4L51.3794 54.0305L51.5707 53.1612L51.2447 52.5484Z" fill="#301010"></path><path d="M50.9752 48.8281L51.6793 49.2193L51.136 51.3143L50.4449 52.6269L49.7452 52.2314L49.467 50.3885L49.8538 49.3323L50.9752 48.8281Z" fill="#E82D24"></path><path d="M51.6793 49.2192L51.9488 50.0016L51.6793 51.9184L50.4449 52.6269L50.1667 50.784L50.5579 49.7278L51.6793 49.2192Z" fill="#9E0000"></path><path d="M89.8542 2.13403V1.9819L113.056 1.89062V2.0384L89.8542 2.13403Z" fill="#380009"></path><path d="M89.3935 1.80834V1.65622L112.369 1.56494V1.71707L89.3935 1.80834Z" fill="#380009"></path><path d="M90.9756 2.31213L90.5757 3.04234L90.5105 3.151L90.0759 3.816L88.559 2.94671L88.5068 2.91629C88.4503 2.87099 88.4059 2.81228 88.3778 2.74547C88.3497 2.67867 88.3388 2.60591 88.346 2.5338C88.3417 2.48318 88.3417 2.43229 88.346 2.38168C88.3798 2.20372 88.4477 2.03399 88.5459 1.88183C88.6417 1.70505 88.7808 1.55549 88.9502 1.44719C89.0079 1.40759 89.0739 1.38155 89.1431 1.37102C89.2124 1.36048 89.2831 1.36572 89.35 1.38634L89.4109 1.42546L90.9756 2.31213Z" fill="#4F1F26"></path><path d="M90.6365 3.04269L90.5105 3.11223L90.1063 3.34694L88.3677 2.32553C88.4015 2.14757 88.4693 1.97784 88.5676 1.82568L90.5757 3.04269H90.6365Z" fill="#4F1F26"></path><path d="M90.1672 2.14294C90.2333 2.0951 90.3117 2.06687 90.3932 2.06149C90.4746 2.05611 90.556 2.07379 90.6279 2.11252H90.6496C90.5787 2.08258 90.501 2.07204 90.4247 2.08197C90.3483 2.0919 90.2759 2.12194 90.215 2.16902C90.0352 2.28405 89.8855 2.44025 89.7782 2.62468C89.6708 2.80911 89.609 3.01646 89.5978 3.22955C89.5901 3.30129 89.6003 3.37381 89.6276 3.44058C89.655 3.50736 89.6985 3.56628 89.7542 3.61204L89.7151 3.58596C89.6534 3.54142 89.6044 3.48144 89.5732 3.41202C89.5419 3.34261 89.5294 3.2662 89.5369 3.19044C89.5526 2.97869 89.6179 2.77358 89.7273 2.59164C89.8368 2.4097 89.9874 2.25601 90.1672 2.14294Z" fill="#481018"></path><path d="M90.2802 2.20795C90.3459 2.15943 90.424 2.13043 90.5055 2.12428C90.587 2.11813 90.6686 2.13508 90.7409 2.17318C90.6699 2.14325 90.5923 2.13271 90.5159 2.14264C90.4396 2.15256 90.3672 2.18261 90.3062 2.22969C90.1278 2.34573 89.9793 2.50226 89.8728 2.68655C89.7663 2.87085 89.7048 3.07768 89.6934 3.29022C89.6864 3.36125 89.6971 3.43291 89.7243 3.49886C89.7516 3.56481 89.7947 3.62302 89.8499 3.66836L89.8108 3.64663C89.7482 3.60259 89.6984 3.54283 89.6663 3.47339C89.6343 3.40394 89.6211 3.32726 89.6282 3.2511C89.647 3.03814 89.7158 2.83264 89.8291 2.65135C89.9424 2.47006 90.097 2.31813 90.2802 2.20795Z" fill="#481018"></path><path d="M90.4062 2.2734C90.4695 2.23053 90.5431 2.20513 90.6194 2.19979C90.6957 2.19445 90.7721 2.20935 90.8408 2.24298C90.7702 2.21244 90.6928 2.20118 90.6164 2.21034C90.5401 2.2195 90.4675 2.24876 90.4062 2.29513C90.2273 2.41214 90.0783 2.56939 89.9712 2.75431C89.864 2.93922 89.8016 3.14666 89.789 3.36001C89.7825 3.43142 89.7938 3.50331 89.8219 3.56929C89.8499 3.63527 89.8939 3.69328 89.9498 3.73815L89.9715 3.72946C89.909 3.68543 89.8592 3.62567 89.8271 3.55622C89.7951 3.48677 89.7819 3.4101 89.789 3.33393C89.8002 3.12084 89.862 2.91349 89.9694 2.72906C90.0767 2.54463 90.2264 2.38843 90.4062 2.2734Z" fill="#481018"></path><path d="M91.132 2.69457C91.1208 2.90825 91.059 3.1162 90.9517 3.30133C90.8444 3.48646 90.6946 3.64347 90.5148 3.75945C90.1758 3.95504 89.902 3.79857 89.902 3.40739C89.9138 3.19434 89.9754 2.98702 90.0818 2.80208C90.1882 2.61714 90.3365 2.45974 90.5148 2.3425C90.8408 2.14691 91.132 2.30339 91.132 2.69457Z" fill="#67383F"></path><path d="M91.1147 2.72068C91.1029 2.92976 91.0421 3.13314 90.9371 3.31436C90.8322 3.49558 90.686 3.64955 90.5105 3.76382C90.1759 3.95507 89.9064 3.7986 89.9064 3.41611C89.9164 3.2072 89.9765 3.00376 90.0816 2.82296C90.1868 2.64216 90.3339 2.48931 90.5105 2.37731C90.8409 2.17302 91.1147 2.33819 91.1147 2.72068Z" fill="#5C2930"></path><path d="M90.5366 3.73364C90.1932 3.92923 89.9194 3.77276 89.9194 3.38158C89.9287 3.09944 90.0294 2.82795 90.2062 2.60791C90.023 2.83067 89.9163 3.10651 89.902 3.39462C89.902 3.7858 90.1758 3.94227 90.5148 3.74668C90.6387 3.67702 90.7491 3.58576 90.8408 3.4772C90.7552 3.57987 90.6522 3.66668 90.5366 3.73364Z" fill="#4F1F26"></path><path d="M91.0103 2.76425C91.0034 2.93825 90.9548 3.10804 90.8686 3.25933C90.7824 3.41061 90.661 3.53895 90.5148 3.63354C90.2454 3.79002 90.0237 3.66397 90.0237 3.35103C90.0318 3.17781 90.0805 3.00892 90.1658 2.85794C90.2511 2.70696 90.3707 2.57811 90.5148 2.48174C90.7887 2.32526 91.0103 2.45131 91.0103 2.76425Z" fill="#67383F"></path><path d="M90.5148 2.78585C90.4479 2.82987 90.3922 2.88897 90.3522 2.95841C90.3121 3.02786 90.289 3.10571 90.2845 3.18572C90.2845 3.32916 90.3888 3.39001 90.5148 3.31612C90.5825 3.27353 90.6391 3.21545 90.6799 3.14668C90.7207 3.0779 90.7446 3.00041 90.7496 2.92059C90.7496 2.77281 90.6452 2.71196 90.5148 2.78585Z" fill="#E79D00"></path><path d="M90.6757 2.93374C90.6719 2.99428 90.6537 3.05304 90.6228 3.10519C90.5918 3.15734 90.5488 3.20137 90.4975 3.23364C90.4018 3.29015 90.3236 3.23364 90.3236 3.13368C90.3273 3.07361 90.3449 3.01522 90.3751 2.96316C90.4052 2.91109 90.4472 2.86679 90.4975 2.83377C90.5974 2.77727 90.6757 2.82073 90.6757 2.93374Z" fill="#BE5900"></path><path d="M50.6188 42.4302H50.471V49.3715H50.6188V42.4302Z" fill="#380009"></path><path d="M88.7881 2.13969L84.5308 18.6582L84.6741 18.6951L88.9315 2.17663L88.7881 2.13969Z" fill="#380009"></path><path d="M89.316 2.41642L85.214 19.1548L85.3575 19.19L89.4596 2.45159L89.316 2.41642Z" fill="#380009"></path><path d="M52.7311 63.406L50.7883 53.5352L56.6169 61.1806L56.4995 61.2718L51.0621 54.135L52.8789 63.3755L52.7311 63.406Z" fill="#380009"></path><path d="M45.0466 58.8336L44.951 58.7163L51.4185 53.3267L48.8106 56.656L48.6933 56.5648L50.4319 54.3437L45.0466 58.8336Z" fill="#380009"></path><path d="M90.9756 6.79355L90.6714 6.97176L90.4975 1.32571L90.8061 1.15186L90.9756 6.79355Z" fill="#FF9A0A"></path><path d="M90.8061 1.15182L90.4975 1.32568L90.3627 1.23875L90.6713 1.06055L90.8061 1.15182Z" fill="#FFC523"></path><path d="M90.3627 4.84632L90.6713 6.97174L90.4975 1.3257L90.3627 1.23877V4.84632Z" fill="#D45100"></path></g><defs><clipPath id="clip0_5678_8098"><rect width="113.816" height="110" fill="white"></rect></clipPath></defs></svg>