<svg xmlns="http://www.w3.org/2000/svg" width="146" height="110" viewBox="0 0 146 110" fill="none"><g clip-path="url(#clip0_5678_9234)"><g style="mix-blend-mode:multiply"><path d="M112.646 110H106.355L98.7666 109.613L83.7638 106.168L75.6258 102.374L76.125 99.7025L78.1595 99.0784H63.3939L52.9343 97.5432L46.2567 93.8986L27.0226 95.1093L0 74.8143L4.1314 67.0632L12.4192 61.6337L8.17542 54.0075L14.903 48.0663L30.6797 40.3027L97.3063 66.8885L114.656 74.5147L109.264 76.6615L99.9149 78.7459L118.013 76.6615L112.646 110Z" fill="#BBBBBB"></path></g><path d="M100.801 56.0797V56.4167C100.799 56.9422 100.828 57.4674 100.888 57.9894L101.225 58.2016C101.225 58.4263 101.225 58.6384 101.313 58.8631H101.013C101.138 59.5371 101.3 60.2236 101.5 60.9101L101.825 61.0224L102.049 61.7089L101.8 61.8088C102.049 62.4952 102.336 63.1942 102.661 63.8682H102.96C103.06 64.0929 103.185 64.3175 103.297 64.5422L103.11 64.7419C103.46 65.4034 103.859 66.065 104.271 66.689L104.533 66.5892C104.67 66.8014 104.82 67.0136 104.97 67.2133L104.845 67.5003C105.285 68.0948 105.756 68.6656 106.256 69.2103L106.443 69.0106L106.955 69.5473V69.8968C107.447 70.3805 107.968 70.8347 108.515 71.2573L108.627 70.9702L109.176 71.3696V71.769C109.451 71.9438 109.713 72.1185 109.988 72.2683C110.262 72.4181 110.524 72.5679 110.786 72.6927V72.3432L111.336 72.5803L111.46 73.0047C111.83 73.1478 112.21 73.2646 112.596 73.3542L111.086 74.9893L111.772 75.3512L113.333 74.515L113.52 74.5899L118.824 72.3931C119.074 72.2808 120.509 70.6332 120.734 70.471V70.3961L121.221 70.109C121.556 69.7961 121.843 69.4342 122.07 69.0356L121.895 68.761L122.369 68.4739C122.593 68.0012 122.757 67.5021 122.856 66.9886L122.556 66.6641C122.562 66.6143 122.562 66.564 122.556 66.5143L122.956 66.2896C123.022 65.8056 123.055 65.3178 123.056 64.8293C123.056 64.7045 123.056 64.5921 123.056 64.4798L122.731 64.2177C122.731 64.0929 122.731 63.9681 122.731 63.8433L123.031 63.6685C122.964 62.9926 122.856 62.3215 122.706 61.659L122.319 61.4718C122.319 61.2845 122.232 61.1098 122.182 60.9226L122.432 60.7728C122.249 60.0569 122.024 59.3525 121.758 58.6634H121.446C121.358 58.4387 121.271 58.2265 121.171 58.0144L121.396 57.8646C121.081 57.169 120.731 56.49 120.347 55.8301H120.073L119.711 55.231L119.86 54.9938C119.467 54.3501 119.038 53.7292 118.575 53.1341L118.338 53.2714C118.2 53.0966 118.063 52.9219 117.913 52.7596L118.001 52.4351C117.525 51.8848 117.017 51.3638 116.478 50.8749L116.216 51.0247L115.841 50.7002V50.3132C115.326 49.8919 114.784 49.5042 114.219 49.1525L113.907 49.3272L113.657 49.2024L113.582 48.7655C113.055 48.4921 112.509 48.2585 111.947 48.0666L111.51 48.3162L111.348 47.8918C110.849 47.7703 110.338 47.7075 109.825 47.7046H109.251C108.067 48.1716 106.909 48.7007 105.781 49.2897L105.319 49.5519L100.327 52.4601L99.3532 55.0812L101.275 53.833C101.141 54.3108 101.049 54.7995 101.001 55.2934L101.313 55.5929L101.101 56.1671L100.801 56.0797ZM101.288 53.7581L101.6 53.5709L101.488 53.8954L101.288 53.7581Z" fill="#481018"></path><path d="M107.866 48.241L105.157 50.0384L100.664 52.1977L101.987 51.8607L106.393 49.9635L109.164 47.7168L107.866 48.241Z" fill="#4F1F26"></path><path d="M120.347 55.7925L118.076 59.1625L113.17 59.9364L114.219 61.9833L119.149 61.1845L121.396 57.827L120.896 56.791L120.347 55.7925Z" fill="#4F1F26"></path><path d="M121.758 58.6885L119.112 62.0585L114.581 62.8324L115.28 64.9168L119.835 64.1304L122.457 60.7729L122.17 59.8243L121.758 58.6885Z" fill="#4F1F26"></path><path d="M122.669 61.6338L120.172 64.9913L115.492 65.7777L115.804 67.7872L120.509 66.9884L122.993 63.6433L122.893 62.7446L122.669 61.6338Z" fill="#4F1F26"></path><path d="M123.031 64.4546L120.622 67.7372L115.854 68.5985L115.766 70.4083L120.559 69.5346L122.943 66.2644L123.043 65.4781L123.031 64.4546Z" fill="#4F1F26"></path><path d="M122.819 66.9634L120.697 69.8841L115.642 71.1073L115.155 72.605L120.347 71.0698L122.332 68.4487L122.594 67.8371L122.819 66.9634Z" fill="#4F1F26"></path><path d="M122.032 69.0107L119.661 71.3198L114.855 73.1546L113.994 74.228L118.824 72.3683L121.183 70.0842L121.633 69.6348L122.032 69.0107Z" fill="#4F1F26"></path><path d="M118.537 53.1338L116.253 56.5038L111.361 57.2777L112.684 59.1374L117.614 58.3511L119.86 54.9935L119.199 54.0075L118.537 53.1338Z" fill="#4F1F26"></path><path d="M116.441 50.875L114.156 54.2325L109.264 55.0189L110.786 56.5791L115.704 55.7927L117.963 52.4352L117.277 51.6489L116.441 50.875Z" fill="#4F1F26"></path><path d="M114.181 49.1523L111.897 52.5224L107.004 53.2962L108.627 54.457L113.557 53.6707L115.804 50.3131L115.105 49.7515L114.181 49.1523Z" fill="#4F1F26"></path><path d="M111.897 48.0664L109.85 50.8748L104.72 52.2103L106.343 52.9217L111.498 51.5612L113.52 48.7779L112.808 48.3909L111.897 48.0664Z" fill="#4F1F26"></path><path d="M109.738 47.6919L107.516 49.9635L102.561 51.8358L104.084 52.0355L108.914 50.4878L111.261 47.8791L110.424 47.7293L109.738 47.6919Z" fill="#4F1F26"></path><path d="M102.074 51.9355L98.7666 53.7079L99.6403 55.0435L102.074 53.6705V51.9355Z" fill="#481018"></path><path d="M101.163 53.6831L97.8554 55.5928L98.7291 56.9408L101.163 55.5678V53.6831Z" fill="#481018"></path><path d="M100.801 56.0923L97.4935 58.002L98.3672 59.35L100.801 57.9645V56.0923Z" fill="#481018"></path><path d="M101.013 58.8506L97.7057 60.7603L98.5794 62.1083L101.013 60.7228V58.8506Z" fill="#481018"></path><path d="M101.8 61.7964L98.492 63.7061L99.3657 65.0541L101.8 63.6811V61.7964Z" fill="#481018"></path><path d="M115.766 70.4086C115.832 69.9246 115.866 69.4367 115.866 68.9482C115.866 68.8234 115.866 68.7111 115.866 68.5987L115.542 68.3366C115.554 68.1329 115.554 67.9287 115.542 67.725L115.854 67.7874C115.798 67.111 115.693 66.4395 115.542 65.7779L115.217 65.6156C115.217 65.4035 115.117 65.1788 115.055 64.9666H115.33C115.138 64.2586 114.905 63.5626 114.631 62.8822L114.319 62.8198C114.231 62.5951 114.131 62.3829 114.044 62.1707L114.269 62.0334C113.943 61.3059 113.576 60.5975 113.17 59.9116H112.896L112.521 59.3125L112.684 59.0753C112.278 58.4307 111.837 57.8097 111.36 57.2156L111.086 57.4153C110.936 57.228 110.799 57.0533 110.649 56.891L110.736 56.5665C110.258 56.0192 109.749 55.4984 109.214 55.0063L109.051 55.2435L108.59 54.8441V54.4696C108.077 54.0403 107.535 53.6482 106.967 53.2963L106.88 53.6084L106.63 53.4711L106.393 53.3338L106.305 52.9219C105.787 52.6371 105.244 52.3991 104.683 52.2104V52.5849L104.246 52.4226L104.084 52.0107C103.587 51.8794 103.075 51.8123 102.561 51.811L102.648 52.2229H102.212L101.987 51.811C101.531 51.8566 101.085 51.9702 100.664 52.148L100.826 52.5724L100.452 52.7472L100.177 52.4226C99.7848 52.6432 99.4308 52.9255 99.1286 53.2589L99.3532 53.6583C99.2551 53.7607 99.1634 53.8691 99.0786 53.9828L98.7666 53.6708C98.4818 54.0556 98.2469 54.475 98.0676 54.9189L98.3422 55.2809C98.2798 55.4307 98.2299 55.5805 98.18 55.7427L97.8554 55.5305C97.6983 56.069 97.5897 56.6203 97.5309 57.1781L97.8554 57.4777C97.8426 57.6688 97.8426 57.8606 97.8554 58.0518L97.5309 57.9395C97.5309 58.0518 97.5309 58.1642 97.5309 58.2765C97.5148 58.822 97.5315 59.368 97.5808 59.9116L97.9054 60.1238C97.9054 60.3359 97.9054 60.5481 98.0052 60.7728H97.7057C97.8305 61.4468 97.9927 62.1333 98.1924 62.8198L98.517 62.9321L98.7416 63.6311L98.492 63.7184C98.7383 64.4195 99.0216 65.1069 99.3407 65.7779H99.6403C99.7526 66.0026 99.865 66.2397 99.9898 66.4644L99.8525 66.6516C100.188 67.3363 100.558 68.0029 100.963 68.6487L101.213 68.5488L101.65 69.1854L101.537 69.46C101.974 70.0458 102.44 70.6082 102.935 71.145L103.135 70.9453C103.297 71.1325 103.472 71.3072 103.647 71.482V71.8315C104.136 72.315 104.652 72.7693 105.195 73.192L105.319 72.9049L105.869 73.3043V73.7037C106.131 73.8784 106.405 74.0532 106.667 74.203C106.93 74.3527 107.217 74.5025 107.479 74.6273V74.2778L108.028 74.515L108.153 74.9394C108.654 75.1319 109.172 75.2781 109.7 75.3762V74.9768L110.212 75.0392L110.399 75.4511C110.871 75.4902 111.345 75.465 111.81 75.3762L111.685 74.9519L112.134 74.827L112.384 75.214C112.804 75.0777 113.2 74.8755 113.557 74.6148L113.358 74.203C113.482 74.118 113.599 74.022 113.707 73.9159L113.994 74.2529C114.329 73.9366 114.619 73.5753 114.855 73.1795L114.606 72.7925L114.83 72.3931L115.155 72.6552C115.365 72.1729 115.528 71.6713 115.642 71.1575L115.342 70.8329C115.342 70.6582 115.417 70.471 115.442 70.2838L115.766 70.4086Z" fill="#67383F"></path><path d="M114.656 68.4613C114.656 73.6287 111.011 75.7006 106.505 73.1045C104.138 71.5671 102.166 69.4934 100.75 67.0516C99.3339 64.6097 98.5133 61.8685 98.3547 59.0502C98.3547 53.8828 102.012 51.7984 106.505 54.3946C108.873 55.9339 110.846 58.0098 112.262 60.4538C113.678 62.8978 114.498 65.6411 114.656 68.4613Z" fill="#5C2930"></path><path d="M112.334 67.1258C112.334 70.8703 109.713 72.3182 106.48 70.4584C104.783 69.3541 103.37 67.8656 102.355 66.1135C101.34 64.3614 100.752 62.3949 100.639 60.3733C100.639 56.6288 103.26 55.181 106.48 57.0407C108.18 58.1436 109.595 59.6315 110.612 61.3837C111.629 63.1359 112.219 65.1031 112.334 67.1258Z" fill="#67383F"></path><path d="M101.388 60.7979C101.488 62.569 102.003 64.2918 102.892 65.8269C103.781 67.362 105.019 68.6665 106.505 69.6348C109.338 71.2699 111.635 69.9594 111.635 66.7141C111.54 64.9405 111.025 63.2148 110.133 61.6786C109.241 60.1425 107.998 58.8397 106.505 57.8772C103.684 56.2421 101.388 57.5402 101.388 60.7979Z" fill="#E49A00"></path><path d="M110.974 66.3272C110.974 69.1605 108.977 70.3088 106.505 68.8235C105.213 67.9839 104.136 66.8534 103.36 65.5225C102.584 64.1917 102.131 62.6975 102.037 61.1598C102.037 58.4014 103.946 57.2406 106.343 58.5262L106.505 58.6136C107.771 59.4377 108.832 60.5414 109.604 61.8398C110.377 63.1382 110.841 64.5965 110.961 66.1025C110.971 66.177 110.975 66.2521 110.974 66.3272Z" fill="#AA4400"></path><path d="M110.961 66.1523L109.451 67.1508L105.619 64.5172L104.658 59.8116L106.343 58.5635L106.505 58.6509C107.773 59.4763 108.834 60.582 109.607 61.8826C110.379 63.1833 110.843 64.6441 110.961 66.1523Z" fill="#BE5900"></path><path d="M109.126 67.4006C107.828 66.5589 106.747 65.4228 105.971 64.0847C105.194 62.7465 104.745 61.2441 104.658 59.6995C104.647 59.1185 104.753 58.5413 104.97 58.002C103.26 57.7399 102.037 58.9132 102.037 61.1224C102.124 62.6668 102.575 64.1688 103.351 65.5068C104.127 66.8448 105.208 67.981 106.505 68.8235C108.402 69.9219 110.012 69.4975 110.662 67.9748C110.119 67.8792 109.599 67.6845 109.126 67.4006Z" fill="#BB5900"></path><path d="M104.046 61.5715C104.107 62.6456 104.42 63.6902 104.96 64.6206C105.5 65.551 106.252 66.3409 107.154 66.9261C108.877 67.9246 110.262 67.1258 110.262 65.1537C110.203 64.0795 109.89 63.0345 109.35 62.1039C108.81 61.1734 108.058 60.3837 107.154 59.7992C105.444 58.8006 104.046 59.5995 104.046 61.5715Z" fill="#DA7200"></path><path d="M105.22 62.495C105.252 63.0683 105.42 63.6258 105.708 64.1224C105.997 64.619 106.398 65.0407 106.88 65.3533C107.791 65.8775 108.527 65.4531 108.527 64.4047C108.496 63.8342 108.33 63.2791 108.044 62.7847C107.758 62.2902 107.359 61.8702 106.88 61.5589C105.968 61.0222 105.22 61.4466 105.22 62.495Z" fill="#BE5900"></path><path d="M105.082 62.907C105.108 63.3728 105.243 63.826 105.478 64.2295C105.712 64.6329 106.038 64.9753 106.43 65.2285C107.179 65.6654 107.778 65.3159 107.778 64.4547C107.752 63.989 107.616 63.5362 107.381 63.1329C107.147 62.7296 106.821 62.3871 106.43 62.1331C105.681 61.7087 105.082 62.0457 105.082 62.907Z" fill="#DA7200"></path><path d="M103.847 52.772L69.7969 33.1135L74.8145 30.2178L108.864 49.8887L103.847 52.772Z" fill="#D7D7D7"></path><path d="M103.847 54.7942L69.7969 35.1358V33.1138L103.847 52.7722V54.7942Z" fill="#A59992"></path><path d="M103.847 54.7939L108.864 51.8233V49.8887L103.847 52.7719V54.7939Z" fill="#B7B7B7"></path><path d="M67.4004 25.9868C67.3941 26.0834 67.4087 26.1802 67.4431 26.2707C67.4776 26.3611 67.5311 26.4431 67.6001 26.511C67.7624 26.6483 85.6235 37.6071 85.6235 37.6071L86.8717 35.3854C86.8717 35.3854 69.0979 24.4765 68.9731 24.3767C68.8712 24.3035 68.749 24.2642 68.6236 24.2642C68.4982 24.2642 68.376 24.3035 68.2741 24.3767C68.0099 24.5551 67.7925 24.7946 67.6404 25.0749C67.4883 25.3551 67.406 25.6679 67.4004 25.9868Z" fill="#897970"></path><path d="M85.3864 37.0329C85.3864 37.5946 85.8107 37.8193 86.2975 37.5197C86.5574 37.3457 86.7722 37.1123 86.9241 36.8388C87.0761 36.5654 87.1607 36.2597 87.1712 35.9471C87.1712 35.3854 86.7468 35.1607 86.2601 35.4603C86.0015 35.6358 85.7878 35.8695 85.6361 36.1427C85.4843 36.4158 85.3988 36.7207 85.3864 37.0329Z" fill="#ADA49A"></path><path d="M98.6044 44.809L99.1411 43.5608L86.9091 35.997C86.8294 35.9478 86.7401 35.9161 86.6472 35.904C86.5543 35.8919 86.4598 35.8997 86.3702 35.9268C86.2805 35.9539 86.1976 35.9998 86.127 36.0614C86.0563 36.123 85.9996 36.1989 85.9605 36.2841C85.8978 36.4267 85.8885 36.5872 85.9343 36.7362C85.9802 36.8851 86.0781 37.0126 86.2102 37.0954L98.6044 44.809Z" fill="#828689"></path><path d="M67.675 4.97998L109.95 45.8571L107.678 52.3475L105.07 53.8578L65.0664 6.49025L67.675 4.97998Z" fill="#E1E1E1"></path><path d="M65.0664 6.49023L107.341 47.3673L105.07 53.8578L98.4296 48.628L63.3939 9.09888L65.0664 6.49023Z" fill="#B8AFAB"></path><path d="M61.971 0L59.7118 1.29808L64.7419 39.3918L66.9885 38.0937L72.0436 31.8155L73.9158 26.9602L72.4555 23.041L72.0436 7.91331L67.8747 2.65857L61.971 0Z" fill="#D7D7D7"></path><path d="M67.8747 2.65869L65.6156 3.95677L69.7969 9.21151L72.0436 7.91343L67.8747 2.65869Z" fill="#E1E1E1"></path><path d="M59.7118 1.29785L55.7052 34.1743L64.7418 39.3916L69.7969 33.1134L71.6691 28.258L70.2088 24.3513L69.7969 9.21116L65.6156 3.95642L59.7118 1.29785Z" fill="#8A8480"></path><path d="M119.711 77.8724C120.498 77.5218 121.254 77.1042 121.97 76.6243L123.081 68.349L119.885 53.8579L111.385 46.0195L103.709 41.0269L101.463 42.275L107.341 51.6611L113.707 55.5055L116.59 59.2499L119.873 67.987L119.711 77.8724Z" fill="#D7D7D7"></path><path d="M111.385 46.0195L109.126 47.3176L117.626 55.156L119.885 53.858L111.385 46.0195Z" fill="#E1E1E1"></path><path d="M119.885 53.8579L117.626 55.156L120.834 69.5972L123.081 68.2991L119.885 53.8579Z" fill="#B7B7B7"></path><path d="M117.189 75.3015C117.339 75.3889 119.686 77.8727 119.686 77.8727L120.809 69.5974L117.626 55.1562L109.126 47.3178L101.463 42.3252L102.349 49.1651L103.235 53.0843L111.385 58.002L114.281 60.4984L117.551 69.2354L117.189 75.3015Z" fill="#8A8480"></path><path d="M74.3027 40.6026V40.9396C74.3027 41.4514 74.3027 41.9756 74.3901 42.5123L74.7271 42.7245C74.7271 42.9367 74.7271 43.1488 74.8145 43.3735H74.5274C74.6437 44.066 74.8063 44.7498 75.0142 45.4205L75.3262 45.5453C75.4011 45.77 75.476 45.9946 75.5634 46.2318L75.3013 46.3192C75.5509 47.0181 75.838 47.7046 76.1625 48.3911H76.4621L76.7991 49.0776L76.6118 49.2648C76.9656 49.9209 77.3531 50.5583 77.7726 51.1745L78.0347 51.0871C78.172 51.2993 78.3218 51.499 78.4716 51.7112L78.3468 51.9858C78.7871 52.5717 79.2579 53.1342 79.7572 53.6708L79.9444 53.4836L80.4562 54.0078V54.3573C80.9459 54.8444 81.4671 55.2989 82.0164 55.7178L82.1287 55.4307L82.6779 55.8301V56.2295C82.94 56.4043 83.2021 56.579 83.4767 56.7413L84.2755 57.1532V56.8037C84.4528 56.8954 84.6363 56.9747 84.8247 57.0408L84.937 57.4652C85.3069 57.6083 85.6865 57.7251 86.0729 57.8147L84.625 59.4997L85.3115 59.8617L86.8717 59.0379L87.0589 59.1128L92.3636 56.891C92.6132 56.7787 94.0486 55.1311 94.2732 54.9689V54.8815L94.76 54.5944C95.0955 54.2815 95.3817 53.9196 95.6088 53.521L95.434 53.2464L95.9083 52.9718C96.1281 52.4975 96.2914 51.9989 96.3951 51.4865L96.0207 51.1745C96.0267 51.1247 96.0267 51.0745 96.0207 51.0247L96.4201 50.8C96.4861 50.3161 96.5195 49.8282 96.5199 49.3397C96.5262 49.2233 96.5262 49.1066 96.5199 48.9902L96.1954 48.7406C96.1954 48.6158 96.1954 48.4785 96.1954 48.3537L96.495 48.1914C96.427 47.5157 96.3187 46.8446 96.1704 46.1819L95.8459 46.0196C95.8459 45.8449 95.7586 45.6576 95.7086 45.4704L95.9707 45.3331C95.771 44.6342 95.5339 43.9352 95.2593 43.2362H94.9473C94.8599 43.024 94.7725 42.7994 94.6727 42.5872L94.8973 42.4499C94.5854 41.749 94.2354 41.0656 93.8489 40.4029H93.5743C93.4495 40.1907 93.3371 39.991 93.2123 39.8038L93.3621 39.5542C92.9502 38.9176 92.5133 38.306 92.039 37.6944L91.8019 37.8317C91.6646 37.657 91.5273 37.4822 91.3775 37.32L91.4649 36.9954C90.9781 36.4462 90.4664 35.922 89.9421 35.4352L89.68 35.585L89.3056 35.2605V34.8861C88.7903 34.4608 88.2483 34.0689 87.683 33.7128L87.3709 33.8875L87.1213 33.7502L87.0464 33.3383C86.5233 33.0537 85.9762 32.8156 85.4113 32.6269L84.9745 32.8765L84.7748 32.4521C84.2763 32.3284 83.7655 32.2614 83.252 32.2524H82.6654C81.4819 32.7151 80.3236 33.2401 79.1955 33.8251L78.7337 34.0872L73.6412 36.9455L72.6677 39.5666L74.5898 38.3809C74.4555 38.8586 74.3636 39.3473 74.3152 39.8412L74.6273 40.1408V40.7149L74.3027 40.6026ZM74.7895 38.281L75.114 38.0813C75.0656 38.1854 75.0279 38.2941 75.0017 38.4059L74.7895 38.281Z" fill="#481018"></path><path d="M81.3673 32.7515L78.6588 34.5488L74.1654 36.7081L75.4885 36.3836L79.8945 34.4739L82.6654 32.2397L81.3673 32.7515Z" fill="#4F1F26"></path><path d="M93.8489 40.3027L91.5772 43.6728L86.672 44.4466L87.7204 46.4936L92.6506 45.6948L94.8973 42.3497L94.398 41.3013L93.8489 40.3027Z" fill="#4F1F26"></path><path d="M95.2593 43.1987L92.6132 46.5812L88.0824 47.3426L88.7814 49.4395L93.3371 48.6532L95.9707 45.2956L95.6837 44.3346L95.2593 43.1987Z" fill="#4F1F26"></path><path d="M96.1704 46.1445L93.6741 49.5021L88.9935 50.3009L89.318 52.3104L94.0236 51.4991L96.4949 48.1665L96.3951 47.2679L96.1704 46.1445Z" fill="#4F1F26"></path><path d="M96.5324 48.9653L94.1235 52.2605L89.3555 53.1092L89.2681 54.919L94.0611 54.0453L96.445 50.7752L96.5449 49.9888L96.5324 48.9653Z" fill="#4F1F26"></path><path d="M96.3202 51.4863L94.2108 54.3945L89.1433 55.6302L88.6565 57.1155L93.8489 55.5928L95.8334 52.9716L96.108 52.36L96.3202 51.4863Z" fill="#4F1F26"></path><path d="M95.5339 53.521L93.1624 55.8301L88.357 57.6649L87.5082 58.7383L92.3261 56.891L94.6851 54.5944L95.1345 54.1451L95.5339 53.521Z" fill="#4F1F26"></path><path d="M92.039 37.6445L89.7674 41.0146L84.8621 41.7884L86.1852 43.6606L91.1154 42.8618L93.3621 39.5043L92.713 38.5307L92.039 37.6445Z" fill="#4F1F26"></path><path d="M89.9421 35.3853L87.658 38.7553L82.7652 39.5291L84.288 41.1018L89.2057 40.303L91.4649 36.9579L90.7784 36.1716L89.9421 35.3853Z" fill="#4F1F26"></path><path d="M87.683 33.6626L85.3988 37.0326L80.5061 37.8065L82.1287 38.9797L87.0589 38.1809L89.3056 34.8359L88.6191 34.2742L87.683 33.6626Z" fill="#4F1F26"></path><path d="M85.3989 32.5767L83.3519 35.385L78.222 36.7205L79.8446 37.432L85.0119 36.0715L87.0339 33.2881L86.3225 32.9137L85.3989 32.5767Z" fill="#4F1F26"></path><path d="M83.252 32.2026L81.0178 34.4743L76.0626 36.359L77.5854 36.5462L82.4157 35.011L84.7748 32.4023L83.9385 32.2526L83.252 32.2026Z" fill="#4F1F26"></path><path d="M75.5883 36.4463L72.2682 38.2187L73.142 39.5667L75.5883 38.1812V36.4463Z" fill="#481018"></path><path d="M74.6647 38.1934L71.3571 40.1155L72.2308 41.4635L74.6647 40.0781V38.1934Z" fill="#481018"></path><path d="M74.3027 40.6025L70.9951 42.5122L71.8688 43.8602L74.3027 42.4873V40.6025Z" fill="#481018"></path><path d="M74.5149 43.3608L71.2073 45.2705L72.081 46.6185L74.5149 45.2456V43.3608Z" fill="#481018"></path><path d="M75.3013 46.3066L71.9937 48.2163L72.8674 49.5643L75.3013 48.1914V46.3066Z" fill="#481018"></path><path d="M89.2681 54.9187C89.3341 54.4347 89.3675 53.9468 89.368 53.4584C89.368 53.346 89.368 53.2337 89.368 53.1089L89.0434 52.8592C89.0562 52.6556 89.0562 52.4513 89.0434 52.2476H89.3555C89.2994 51.5712 89.1951 50.8997 89.0434 50.2381L88.6191 50.1258C88.6191 49.9136 88.5192 49.7014 88.4568 49.4767H88.7314C88.5379 48.7652 88.3046 48.0651 88.0324 47.3798H87.7204L87.4458 46.7308L87.6705 46.5935C87.356 45.8938 87.006 45.2106 86.622 44.5465H86.3474L85.973 43.9474L86.1353 43.7103C85.7489 43.048 85.3281 42.4064 84.8746 41.7881L84.6499 41.9379L84.2131 41.4136L84.3005 41.1016C83.8216 40.5503 83.3133 40.0253 82.7777 39.5289L82.6155 39.7661L82.1411 39.3542V38.9797C81.6259 38.5544 81.0839 38.1626 80.5185 37.8065L80.4312 38.131L80.194 37.9812L79.9444 37.8439L79.882 37.4445C79.3633 37.1597 78.8203 36.9217 78.2594 36.7331V37.12L77.7851 36.9827L77.6228 36.5583C77.1243 36.4368 76.6132 36.374 76.1001 36.3711L76.1874 36.783H75.7506L75.5259 36.3836C75.0721 36.4308 74.627 36.54 74.2029 36.7081L74.3651 37.1325L73.9907 37.3072L73.6412 36.9452C73.2518 37.1698 72.8983 37.4517 72.5928 37.7815L72.8174 38.1809C72.7301 38.2933 72.6302 38.3931 72.5428 38.5179L72.2308 38.2184C71.946 38.6032 71.7112 39.0226 71.5318 39.4665L71.8064 39.8285C71.744 39.9783 71.6941 40.1405 71.6442 40.3028L71.3196 40.0906C71.1585 40.6274 71.0539 41.1796 71.0076 41.7382L71.3196 42.0252C71.3072 42.2164 71.3072 42.4082 71.3196 42.5994L70.9951 42.4871C70.9951 42.5994 70.9951 42.7117 70.9951 42.8241C71.0137 43.3591 71.0637 43.8926 71.1449 44.4217L71.4694 44.6339C71.4694 44.8461 71.4694 45.0707 71.5693 45.2829H71.2697C71.3964 45.9773 71.5589 46.6647 71.7565 47.3424L72.081 47.4547L72.3057 48.1412L72.056 48.2286C72.3057 48.9275 72.5928 49.614 72.9173 50.3005H73.2044C73.3167 50.5252 73.429 50.7499 73.5538 50.9745L73.3541 51.1617C73.711 51.8308 74.1026 52.4807 74.5274 53.1089L74.777 53.0215L75.2264 53.6456L75.1015 53.9327C75.5375 54.5261 76.0084 55.0929 76.512 55.6301L76.6992 55.4429C76.8615 55.6177 77.0362 55.8049 77.2109 55.9671V56.3166C77.6563 56.7995 78.1315 57.2539 78.6338 57.6771L78.7586 57.4025C78.9334 57.5398 79.1206 57.6646 79.3078 57.7895V58.1889C79.57 58.3761 79.8445 58.5383 80.1191 58.7006C80.3937 58.8629 80.6558 58.9877 80.918 59.1125V58.763L81.4671 59.0126L81.592 59.4245C82.0916 59.6228 82.6102 59.7691 83.1397 59.8614V59.462C83.3101 59.4735 83.481 59.4735 83.6514 59.462L83.8511 59.8864C84.3348 59.9574 84.8256 59.9658 85.3115 59.9113L85.1991 59.4869C85.3489 59.4869 85.4862 59.4121 85.636 59.3746L85.8856 59.7615C86.3015 59.6145 86.696 59.4131 87.0589 59.1624L86.8592 58.6632L87.2087 58.3886L87.5082 58.7256C87.8374 58.4022 88.1227 58.0372 88.357 57.6397L88.1073 57.2527C88.1822 57.1279 88.2571 56.9782 88.332 56.8284L88.6565 57.0905C88.8652 56.6118 89.0282 56.1145 89.1433 55.6052L88.8438 55.2682C88.8438 55.0934 88.9186 54.9187 88.9436 54.7315L89.2681 54.9187Z" fill="#67383F"></path><path d="M85.8132 58.1959C88.9733 56.3485 88.9375 50.4078 85.7334 44.9268C82.5293 39.4459 77.3702 36.5002 74.2102 38.3475C71.0501 40.1948 71.0858 46.1356 74.2899 51.6165C77.494 57.0975 82.6532 60.0432 85.8132 58.1959Z" fill="#5C2930"></path><path d="M85.8607 51.6361C85.8607 55.3805 83.2395 56.8409 80.0068 54.9687C78.3162 53.8693 76.907 52.3887 75.8925 50.6459C74.878 48.903 74.2865 46.9465 74.1654 44.9335C74.1654 41.189 76.7866 39.7287 80.0068 41.6009C81.7011 42.6974 83.1138 44.177 84.1307 45.9203C85.1476 47.6635 85.7402 49.6215 85.8607 51.6361Z" fill="#67383F"></path><path d="M74.8894 45.3079C74.9894 47.079 75.5048 48.8018 76.3938 50.3369C77.2828 51.872 78.5205 53.1765 80.0068 54.1448C82.8401 55.7799 85.1367 54.4693 85.1367 51.2241C85.0335 49.4591 84.5151 47.7434 83.6237 46.2165C82.7323 44.6896 81.4931 43.3947 80.0068 42.4371C77.186 40.7521 74.8894 42.0627 74.8894 45.3079Z" fill="#E49A00"></path><path d="M84.4752 50.8499C84.4752 53.6707 82.4782 54.819 80.0193 53.3462C78.7194 52.5024 77.6364 51.3644 76.858 50.0244C76.0795 48.6843 75.6275 47.1798 75.5384 45.6326C75.5384 42.8742 77.4481 41.7134 79.8446 43.0115C79.9074 43.0304 79.9665 43.06 80.0193 43.0989C81.2865 43.9208 82.3467 45.0243 83.1174 46.3233C83.8882 47.6223 84.3486 49.0817 84.4627 50.5878C84.4738 50.6747 84.4779 50.7623 84.4752 50.8499Z" fill="#AA4400"></path><path d="M84.4627 50.6L82.9525 51.611L79.1206 48.9649L78.1595 44.2594L79.8446 43.0112C79.9074 43.0302 79.9665 43.0597 80.0193 43.0986C81.2881 43.9218 82.3493 45.0273 83.1201 46.3286C83.8909 47.6299 84.3504 49.0918 84.4627 50.6Z" fill="#BE5900"></path><path d="M82.6279 51.9607C81.3293 51.1197 80.2476 49.9838 79.4711 48.6455C78.6946 47.3072 78.2452 45.8045 78.1595 44.2596C78.1475 43.6825 78.2537 43.1091 78.4716 42.5746C76.7616 42.3125 75.5384 43.4733 75.5384 45.6825C75.6261 47.2286 76.0762 48.7324 76.8525 50.0723C77.6287 51.4123 78.7093 52.5509 80.0068 53.3961C81.904 54.482 83.5141 54.0701 84.1757 52.5349C83.6285 52.4416 83.1036 52.2468 82.6279 51.9607Z" fill="#BB5900"></path><path d="M82.8624 51.6665C84.0704 50.9603 84.0599 48.6944 82.8388 46.6056C81.6177 44.5167 79.6484 43.3959 78.4403 44.1021C77.2323 44.8083 77.2428 47.0742 78.4639 49.163C79.685 51.2519 81.6543 52.3727 82.8624 51.6665Z" fill="#DA7200"></path><path d="M78.7212 47.018C78.7453 47.6002 78.9086 48.1681 79.1975 48.6741C79.4863 49.1801 79.8923 49.6095 80.3813 49.9262C81.2924 50.4505 82.0288 50.0386 82.0288 48.9901C81.9983 48.4177 81.8333 47.8605 81.547 47.3639C81.2607 46.8672 80.8613 46.4451 80.3813 46.1318C79.4701 45.5452 78.7212 45.9696 78.7212 47.018Z" fill="#BE5900"></path><path d="M78.6339 47.4299C78.6483 47.8853 78.7686 48.331 78.9852 48.7318C79.2019 49.1327 79.5089 49.4775 79.882 49.739C80.6309 50.1758 81.23 49.8264 81.23 48.9776C81.2053 48.5098 81.0702 48.0545 80.836 47.6489C80.6017 47.2433 80.2748 46.8988 79.882 46.6436C79.183 46.1817 78.6339 46.5687 78.6339 47.4299Z" fill="#DA7200"></path><path d="M105.606 48.5159L107.554 50.6753L110.387 56.4043V69.1105L89.2806 81.305L67.363 36.8457L71.5069 28.8325L105.606 48.5159Z" fill="#B7B7B7"></path><path d="M110.387 56.4043L89.2806 68.5988L86.4348 62.8573L107.554 50.6753L110.387 56.4043Z" fill="#D7D7D7"></path><path d="M99.9149 78.7461L119.998 66.8511L119.161 62.9194L98.517 75.1514C99.0287 76.3371 99.4781 77.5478 99.9149 78.7461Z" fill="#A59992"></path><path d="M98.517 75.1514L119.161 62.9194L116.49 62.7197L97.8804 73.7534C98.1051 74.2152 98.3173 74.6771 98.517 75.1514Z" fill="#E1E1E1"></path><path d="M71.5069 14.5659L60.3733 9.26123L39.2545 21.4557L71.9312 45.4078L69.7844 39.1546L71.5069 33.4879L80.5685 37.17L81.7542 34.7486L71.5069 28.8323V14.5659Z" fill="#C0C0C0"></path><path d="M104.196 16.1636L104.396 18.3354L102.212 22.8163L105.606 44.1099V48.5158L71.5069 28.8324V14.566L74.6148 11.7951L79.0457 1.19824L80.3563 1.39795L95.5963 10.1974L104.196 16.1636Z" fill="#A59992"></path><path d="M80.5934 3.71973L78.0722 12.2821L77.7227 17.5992L84.4877 60.7105L105.606 48.5161V44.1101L102.212 22.8165L104.396 18.3356L95.459 12.2322L80.5934 3.71973Z" fill="#380009"></path><path d="M79.0457 1.19824L57.9269 13.3802L75.6632 25.3251L83.0773 28.3581L104.196 16.1636L95.5963 10.1974L80.3563 1.39795L79.0457 1.19824Z" fill="#D7D7D7"></path><path d="M84.4877 60.7103L86.4348 62.8571L89.2806 68.5986V81.3049L50.8125 57.5899L46.2567 49.04L50.4006 41.0269L84.4877 60.7103Z" fill="#1A0808"></path><path d="M50.4006 26.7602L39.2545 21.4556L36.4961 44.2095L50.8124 57.5897L48.6781 51.3364L50.4006 45.6823L59.4622 49.3643L60.6479 46.9429L50.4006 41.0267V26.7602Z" fill="#ADA49A"></path><path d="M34.2619 40.2404L36.4961 44.2095L39.2545 21.4557L36.4961 21.3184L34.2619 40.2404Z" fill="#B03102"></path><path d="M36.4961 21.3187L39.2545 21.456L60.3733 9.26153L57.6024 9.13672L36.4961 21.3187Z" fill="#FFC523"></path><path d="M71.7066 72.8797C71.7066 72.9921 71.7066 73.1044 71.7066 73.2167C71.7088 73.7425 71.7421 74.2676 71.8064 74.7894L72.131 75.0016C72.131 75.2263 72.131 75.4385 72.2308 75.6631H71.9313C72.0561 76.3371 72.2183 77.0236 72.418 77.7101L72.7426 77.8224L72.9672 78.5089L72.7176 78.6088C72.9672 79.2953 73.2543 79.9942 73.5788 80.6682H73.8659C73.9782 80.8929 74.0906 81.1176 74.2154 81.3422L74.0157 81.5419C74.3776 82.2035 74.7646 82.7901 75.1889 83.4891L75.4386 83.3892L75.8879 84.0133L75.7631 84.3004C76.1991 84.8977 76.67 85.4687 77.1735 86.0103L77.3607 85.8106C77.523 85.9979 77.6977 86.1726 77.8725 86.3473V86.6968C78.3612 87.1804 78.878 87.6347 79.4202 88.0573L79.545 87.7702L80.0942 88.1697V88.5691C80.3563 88.7438 80.6309 88.9185 80.9055 89.0683C81.1638 89.2243 81.4305 89.3659 81.7043 89.4927V89.1432L82.2535 89.3804L82.3783 89.7923C82.748 89.9393 83.1276 90.0603 83.5142 90.1542L81.9914 91.7893L82.6904 92.1513L84.2506 91.315L84.4253 91.3899L89.705 89.1682C89.9546 89.0558 91.39 87.4083 91.6147 87.246V87.1586L92.1015 86.8841C92.4367 86.5677 92.7265 86.2065 92.9627 85.8106L92.7755 85.536L93.2622 85.249C93.4746 84.7717 93.6377 84.274 93.749 83.7637L93.4495 83.4391C93.4495 83.4391 93.4495 83.3393 93.4495 83.2894L93.8489 83.0647C93.9153 82.5766 93.9487 82.0845 93.9487 81.5919C93.9487 81.4795 93.9487 81.3672 93.9487 81.2549L93.6117 80.9928C93.6117 80.8679 93.6117 80.7431 93.6117 80.6183L93.9113 80.4436C93.8593 79.7674 93.7592 79.0959 93.6117 78.434L93.2872 78.2718C93.2872 78.0845 93.1998 77.9098 93.1499 77.7226L93.3995 77.5728C93.2079 76.8648 92.9745 76.1688 92.7006 75.4884H92.3885C92.3012 75.2637 92.2013 75.0515 92.1139 74.8393L92.3386 74.6896C92.0239 73.994 91.674 73.315 91.2902 72.6551H91.0156L90.6411 72.056L90.8034 71.8188C90.3881 71.1519 89.9338 70.51 89.4429 69.8966L89.2057 70.0339C89.0684 69.8592 88.9311 69.6845 88.7814 69.5222L88.8687 69.1977C88.4 68.661 87.8998 68.1525 87.3709 67.6749L87.1088 67.8247L86.7344 67.5002V67.1133C86.219 66.6919 85.677 66.3042 85.1118 65.9525L84.7998 66.1272L84.5626 66.0024L84.4752 65.578C83.9537 65.3025 83.4111 65.0688 82.8526 64.8791L82.4158 65.1287L82.2535 64.7043C81.7549 64.5828 81.2439 64.52 80.7308 64.5171H80.1566C78.9371 64.9949 77.7453 65.5408 76.5869 66.1522L76.1251 66.4143L71.1324 69.3225L70.1589 71.9436L72.0686 70.6955C71.9385 71.1736 71.8508 71.6623 71.8064 72.1558L72.1185 72.4554C72.1057 72.6465 72.1057 72.8383 72.1185 73.0295L71.7066 72.8797ZM72.1934 70.5582L72.5054 70.3709L72.3931 70.6955L72.1934 70.5582Z" fill="#481018"></path><path d="M78.7711 65.0413L76.0502 66.8387L71.5693 68.998L72.8923 68.661L77.2983 66.7638L80.0692 64.5171L78.7711 65.0413Z" fill="#4F1F26"></path><path d="M91.2527 72.5928L88.9686 75.9628L84.0758 76.7367L85.1118 78.7836L90.042 77.9848L92.3012 74.6273L91.8019 73.5913L91.2527 72.5928Z" fill="#4F1F26"></path><path d="M92.6631 75.4883L90.0046 78.8583L85.4738 79.6322L86.1852 81.7166L90.741 80.9302L93.3621 77.5727L93.075 76.6241L92.6631 75.4883Z" fill="#4F1F26"></path><path d="M93.5743 78.4341L91.078 81.7916L86.3974 82.578L86.7094 84.5875L91.415 83.7887L93.8863 80.4436L93.7989 79.5449L93.5743 78.4341Z" fill="#4F1F26"></path><path d="M93.9362 81.2549L91.5273 84.5375L86.7593 85.3988L86.672 87.2086L91.4649 86.3349L93.8489 83.0647L93.9487 82.2784L93.9362 81.2549Z" fill="#4F1F26"></path><path d="M93.724 83.7637L91.6022 86.6844L86.5471 87.9075L86.0479 89.4053L91.2527 87.8701L93.2373 85.249L93.4994 84.6374L93.724 83.7637Z" fill="#4F1F26"></path><path d="M92.9377 85.8105L90.5538 88.1196L85.7608 89.9544L84.8996 91.0278L89.73 89.1681L92.0765 86.884L92.5383 86.4346L92.9377 85.8105Z" fill="#4F1F26"></path><path d="M89.4429 69.9341L87.1588 73.3041L82.266 74.078L83.589 75.9377L88.5192 75.1389L90.7659 71.7938L90.1044 70.8078L89.4429 69.9341Z" fill="#4F1F26"></path><path d="M87.346 67.6748L85.0618 71.0323L80.1566 71.8187L81.6793 73.3789L86.6096 72.5925L88.8687 69.235L88.1822 68.4487L87.346 67.6748Z" fill="#4F1F26"></path><path d="M85.0868 65.9526L82.8027 69.3102L77.8974 70.0965L79.5325 71.2573L84.4503 70.471L86.7094 67.1134L86.0105 66.5518L85.0868 65.9526Z" fill="#4F1F26"></path><path d="M82.8027 64.8667L80.7557 67.6751L75.6258 69.0106L77.2484 69.722L82.4033 68.3615L84.4253 65.5657L83.7138 65.1912L82.8027 64.8667Z" fill="#4F1F26"></path><path d="M80.6434 64.4922L78.4217 66.7638L73.4665 68.6361L74.9892 68.8358L79.8196 67.2881L82.1661 64.6794L81.3299 64.5296L80.6434 64.4922Z" fill="#4F1F26"></path><path d="M72.9797 68.7358L69.6721 70.4957L70.5458 71.8438L72.9797 70.4708V68.7358Z" fill="#481018"></path><path d="M72.0685 70.4834L68.7609 72.3931L69.6346 73.7411L72.0685 72.3681V70.4834Z" fill="#481018"></path><path d="M71.7066 72.8799L68.399 74.802L69.2727 76.1501L71.7066 74.7646V72.8799Z" fill="#481018"></path><path d="M71.9188 75.6509L68.6111 77.5606L69.4849 78.9086L71.9188 77.5231V75.6509Z" fill="#481018"></path><path d="M72.7051 78.5962L69.385 80.5059L70.2712 81.8539L72.7051 80.4684V78.5962Z" fill="#481018"></path><path d="M86.672 87.2085C86.7337 86.7243 86.7629 86.2364 86.7594 85.7482V85.3987L86.4348 85.1366V84.525H86.7469C86.6847 83.8493 86.5805 83.1782 86.4348 82.5155L86.1228 82.3782C86.1228 82.166 86.0105 81.9413 85.9605 81.7291H86.2351C86.0449 81.0192 85.8072 80.3228 85.5237 79.6447H85.2116L84.8746 78.9208L85.0868 78.771C84.7765 78.0756 84.4307 77.3965 84.0508 76.7365H83.7638C83.6514 76.5368 83.5266 76.3371 83.4018 76.1374L83.5641 75.9002C83.1547 75.2584 82.7131 74.6377 82.241 74.0405L82.0164 74.1903C81.8666 74.003 81.7293 73.8283 81.5795 73.666L81.6544 73.3415C81.1854 72.7852 80.6764 72.2637 80.1316 71.7813L79.9819 72.0185C79.8196 71.8812 79.6573 71.7314 79.4951 71.6066V71.2197C78.9754 70.7982 78.4293 70.4105 77.86 70.0589L77.7851 70.3709L77.5355 70.2211L77.2983 70.0963L77.211 69.6844C76.691 69.4022 76.1482 69.1642 75.5884 68.973V69.3474L75.1141 69.2101L74.9518 68.7858C74.4635 68.6839 73.9652 68.6379 73.4665 68.6485L73.5539 69.0604H73.117L72.8923 68.6485C72.437 68.6941 71.991 68.8077 71.5693 68.9855L71.7191 69.4098L71.3571 69.5846L71.1449 69.2351C70.7527 69.4556 70.3987 69.738 70.0965 70.0714L70.3211 70.4708C70.223 70.5732 70.1313 70.6815 70.0465 70.7953L69.7345 70.5082C69.4475 70.8938 69.2086 71.313 69.0231 71.7564L69.3101 72.1183C69.3101 72.2681 69.1978 72.4179 69.1479 72.5802L68.7485 72.3929C68.6004 72.9329 68.4961 73.4838 68.4364 74.0405L68.7485 74.3401V74.9142L68.4364 74.8019C68.43 74.9141 68.43 75.0266 68.4364 75.1389C68.4394 75.6646 68.4727 76.1897 68.5363 76.7115L68.8608 76.9113C68.8608 77.1359 68.8608 77.3481 68.9606 77.5728H68.6486C68.7648 78.2652 68.9275 78.9491 69.1354 79.6198L69.4599 79.7321C69.5216 79.965 69.5966 80.1942 69.6846 80.4186L69.4349 80.5184C69.6759 81.2215 69.9593 81.9092 70.2837 82.5779H70.5832C70.6956 82.8026 70.8079 83.0397 70.9327 83.2644L70.733 83.4516C71.0899 84.1206 71.4815 84.7706 71.9063 85.3987L72.1559 85.2989L72.5928 85.9354L72.468 86.21C72.9173 86.8091 73.3916 87.3833 73.8784 87.92L74.0781 87.7203C74.2403 87.9075 74.4151 88.0823 74.5898 88.257V88.6065C75.0828 89.0901 75.6038 89.5444 76.15 89.967L76.2748 89.6799L76.824 90.0793V90.4787C77.0861 90.6535 77.3483 90.8282 77.6228 90.978C77.8854 91.134 78.1562 91.2757 78.4342 91.4023V91.0529L78.9833 91.29L79.0957 91.7144C79.6014 91.9069 80.1237 92.0532 80.6559 92.1512V91.7518H81.1676L81.3548 92.1637C81.8262 92.2025 82.3006 92.1773 82.7653 92.0888L82.6404 91.6645L83.0773 91.5396L83.3394 91.9266C83.7558 91.7901 84.1477 91.5878 84.5002 91.3275L84.313 90.9156L84.65 90.6285L84.9495 90.9655C85.2848 90.6492 85.5746 90.2879 85.8108 89.8921L85.5486 89.5051C85.635 89.3679 85.7142 89.2263 85.7858 89.0808L86.0978 89.3429C86.3181 88.8632 86.4855 88.361 86.5971 87.8451L86.2975 87.5206C86.2975 87.3458 86.3599 87.1586 86.3849 86.9714L86.672 87.2085Z" fill="#67383F"></path><path d="M85.5611 85.2615C85.5611 90.4164 81.9165 92.5008 77.4107 89.9046C75.0426 88.368 73.0704 86.2945 71.6542 83.8525C70.238 81.4105 69.4178 78.6689 69.2602 75.8504C69.2602 70.683 72.9048 68.6485 77.3857 71.1448C79.7652 72.6863 81.7463 74.7688 83.1672 77.2222C84.5881 79.6757 85.4084 82.4304 85.5611 85.2615Z" fill="#5C2930"></path><path d="M83.252 83.9261C83.252 87.6706 80.6434 89.1185 77.4106 87.2587C75.7114 86.1566 74.2966 84.6687 73.2815 82.9161C72.2664 81.1635 71.6797 79.1959 71.5693 77.1736C71.5693 73.4291 74.1779 71.9813 77.4106 73.841C79.1085 74.9446 80.5223 76.4329 81.5372 78.1851C82.5521 79.9374 83.1396 81.9043 83.252 83.9261Z" fill="#67383F"></path><path d="M81.0632 86.792C83.0509 85.63 83.0293 81.8948 81.015 78.4491C79.0007 75.0034 75.7564 73.1521 73.7688 74.314C71.7811 75.476 71.8027 79.2113 73.817 82.6569C75.8313 86.1026 79.0755 87.954 81.0632 86.792Z" fill="#E49A00"></path><path d="M81.8791 83.1272C81.8791 85.9605 79.882 87.1088 77.4107 85.6859C76.1124 84.8414 75.0313 83.703 74.255 82.3629C73.4787 81.0228 73.029 79.5186 72.9423 77.9723C72.9423 75.2139 74.8519 74.0531 77.2484 75.3387L77.4107 75.4261C78.6769 76.2502 79.7371 77.3539 80.5096 78.6523C81.2821 79.9507 81.7464 81.409 81.8666 82.915C81.8754 82.9854 81.8796 83.0562 81.8791 83.1272Z" fill="#AA4400"></path><path d="M81.8666 82.8901L80.3563 83.8886L76.5245 81.255L75.5634 76.5494L77.2484 75.3013L77.4107 75.3886C78.6785 76.214 79.7396 77.3198 80.5122 78.6204C81.2848 79.9211 81.7482 81.3819 81.8666 82.8901Z" fill="#BE5900"></path><path d="M80.0318 84.2504C78.7328 83.4067 77.6512 82.2684 76.8748 80.9281C76.0984 79.5879 75.6491 78.0833 75.5634 76.5368C75.5597 75.9737 75.6613 75.415 75.8629 74.8892C74.1655 74.6271 72.9423 75.8004 72.9423 78.0096C73.0309 79.5458 73.4792 81.0396 74.251 82.3708C75.0228 83.702 76.0966 84.8332 77.3857 85.6733C79.2829 86.7717 80.893 86.3473 81.5421 84.8246C81.0081 84.726 80.4964 84.5315 80.0318 84.2504Z" fill="#BB5900"></path><path d="M74.9518 78.3718C75.0103 79.4463 75.3224 80.4917 75.8626 81.4224C76.4028 82.3531 77.1557 83.1427 78.0597 83.7264C79.7697 84.7249 81.1676 83.9261 81.1676 81.954C81.1071 80.88 80.7942 79.8354 80.2542 78.905C79.7142 77.9746 78.9623 77.1847 78.0597 76.5994C76.3372 75.6009 74.9518 76.3997 74.9518 78.3718Z" fill="#DA7200"></path><path d="M76.1375 79.2953C76.1694 79.8688 76.3364 80.4267 76.6249 80.9235C76.9134 81.4202 77.3152 81.8417 77.7976 82.1536C78.7087 82.6778 79.4451 82.2534 79.4451 81.205C79.4137 80.6345 79.2481 80.0794 78.9618 79.585C78.6756 79.0905 78.2767 78.6705 77.7976 78.3592C76.8614 77.8225 76.1375 78.2469 76.1375 79.2953Z" fill="#BE5900"></path><path d="M75.9877 79.7072C76.0189 80.1776 76.162 80.6337 76.4052 81.0375C76.6484 81.4414 76.9845 81.7812 77.3857 82.0288C78.1221 82.4532 78.7337 82.1162 78.7337 81.255C78.7041 80.79 78.5669 80.3383 78.333 79.9355C78.0991 79.5326 77.7748 79.1895 77.3857 78.9334C76.5868 78.509 75.9877 78.846 75.9877 79.7072Z" fill="#DA7200"></path><path d="M45.2082 57.4152V57.7522C45.2069 58.2777 45.2361 58.8028 45.2956 59.3249L45.6201 59.5371C45.6201 59.7493 45.6825 59.9615 45.72 60.1861H45.4204C45.5452 60.8601 45.7075 61.5466 45.9072 62.2331L46.2317 62.3454L46.4564 63.0444L46.2067 63.1318C46.4573 63.833 46.7448 64.5204 47.068 65.1912H47.355C47.4674 65.4284 47.5922 65.6531 47.7045 65.8777L47.5048 66.065C47.8621 66.7297 48.2537 67.3755 48.6781 67.9996L48.9277 67.9122L49.3771 68.5363L49.2522 68.8109C49.6882 69.4082 50.1592 69.9792 50.6627 70.5209L50.8499 70.3212L51.3616 70.8579V71.2074C51.8503 71.6909 52.3671 72.1452 52.9093 72.5678L53.0341 72.2808L53.5833 72.6802V73.0796C53.8454 73.2543 54.12 73.4291 54.3946 73.5789C54.653 73.7348 54.9196 73.8765 55.1935 74.0032V73.6537C55.3807 73.7411 55.5679 73.8285 55.7426 73.8909L55.8675 74.3153C56.2374 74.4584 56.6169 74.5752 57.0033 74.6647L55.493 76.2998L56.1795 76.6618L57.7397 75.838L57.9144 75.9129L63.2316 73.6413C63.4812 73.5164 64.9166 71.8814 65.1413 71.7191V71.6317L65.628 71.3447C65.9563 71.0252 66.2416 70.6643 66.4768 70.2712L66.2896 69.9966L66.7763 69.722C66.985 69.2434 67.148 68.7461 67.2631 68.2367L66.9636 67.8997C66.9636 67.8997 66.9636 67.7999 66.9636 67.75L67.363 67.5253C67.4044 67.0689 67.4169 66.6103 67.4004 66.1523C67.4004 66.04 67.4004 65.9152 67.4004 65.8028L67.0759 65.5532C67.0759 65.4284 67.0759 65.2911 67.0759 65.1663L67.4004 64.9042C67.3434 64.2279 67.2391 63.5564 67.0884 62.8946L66.7639 62.7324C66.7639 62.5576 66.6765 62.3704 66.6266 62.1832L66.8762 62.0459C66.6728 61.3507 66.4311 60.6674 66.1523 59.9989H65.8402L65.5656 59.3499L65.7903 59.2126C65.4783 58.5117 65.1283 57.8283 64.7419 57.1656H64.4673L64.0928 56.554L64.2551 56.3168C63.8432 55.6803 63.4063 55.0687 62.932 54.4571L62.6949 54.5944C62.5576 54.4197 62.4203 54.2449 62.2705 54.0827L62.3579 53.7581C61.8711 53.2089 61.3594 52.6847 60.8351 52.1979L60.573 52.3477L60.1986 52.0232V51.6487C59.6833 51.2235 59.1413 50.8316 58.576 50.4755L58.2639 50.6502L58.0143 50.5129L57.9269 50.101C57.4082 49.8163 56.8652 49.5782 56.3043 49.3896L55.8675 49.6392L55.7052 49.2148C55.2082 49.0835 54.6965 49.0164 54.1825 49.0151H53.6083C52.4175 49.4702 51.2547 49.9953 50.1259 50.5878L49.6641 50.8499L44.6715 53.7456L43.6979 56.3668L45.6076 55.181C45.4836 55.6605 45.396 56.1487 45.3455 56.6414L45.6575 56.9409C45.6575 57.1281 45.6575 57.3154 45.6575 57.5151L45.2082 57.4152ZM45.695 55.0937L46.007 54.894L45.8947 55.2185L45.695 55.0937Z" fill="#481018"></path><path d="M52.2728 49.5518L49.5518 51.3491L45.0709 53.5084L46.394 53.1839L50.8 51.2742L53.5709 49.04L52.2728 49.5518Z" fill="#4F1F26"></path><path d="M64.7544 57.103L62.4702 60.4731L57.5775 61.2469L58.6259 63.2939L63.5436 62.4951L65.8028 59.15L65.3035 58.1016L64.7544 57.103Z" fill="#4F1F26"></path><path d="M66.1648 59.999L63.5062 63.3815L58.9879 64.1429L59.6868 66.2398L64.2426 65.4535L66.8637 62.0959L66.5766 61.1348L66.1648 59.999Z" fill="#4F1F26"></path><path d="M67.0759 62.9443L64.5796 66.3019L59.899 67.1007L60.2111 69.1102L64.9166 68.2989L67.388 64.9663L67.3006 64.0677L67.0759 62.9443Z" fill="#4F1F26"></path><path d="M67.4379 65.7651L65.0289 69.0603L60.261 69.909L60.1736 71.7188L64.9665 70.8451L67.3505 67.575L67.4504 66.7886L67.4379 65.7651Z" fill="#4F1F26"></path><path d="M67.2257 68.2739L65.1038 71.1946L60.0488 72.4303L59.562 73.9156L64.7543 72.3928L66.7389 69.7717L67.001 69.1601L67.2257 68.2739Z" fill="#4F1F26"></path><path d="M66.4394 70.3213L64.0554 72.6304L59.2625 74.4652L58.4012 75.5386L63.2316 73.6913L65.5906 71.3947L66.04 70.9454L66.4394 70.3213Z" fill="#4F1F26"></path><path d="M62.9445 54.4443L60.6604 57.8144L55.7676 58.5882L57.0907 60.4604L62.0209 59.6616L64.2676 56.3041L63.606 55.3305L62.9445 54.4443Z" fill="#4F1F26"></path><path d="M60.8476 52.1855L58.5635 55.5556L53.6582 56.3294L55.1935 57.9021L60.1112 57.1033L62.3704 53.7457L61.6839 52.9719L60.8476 52.1855Z" fill="#4F1F26"></path><path d="M58.5885 50.4629L56.3043 53.8329L51.3991 54.6068L53.0342 55.78L57.9519 54.9812L60.2111 51.6362L59.5121 51.0745L58.5885 50.4629Z" fill="#4F1F26"></path><path d="M56.3043 49.377L54.2574 52.1853L49.1274 53.5208L50.75 54.2323L55.9049 52.8718L57.9269 50.0884L57.2155 49.714L56.3043 49.377Z" fill="#4F1F26"></path><path d="M54.145 49.0024L51.9233 51.2741L46.9681 53.1588L48.4909 53.346L53.3212 51.8108L55.6678 49.2021L54.8315 49.0524L54.145 49.0024Z" fill="#4F1F26"></path><path d="M46.4813 53.2466L43.1737 55.019L44.0474 56.367L46.4813 54.9815V53.2466Z" fill="#481018"></path><path d="M45.5702 54.9937L42.2626 56.9033L43.1363 58.2513L45.5702 56.8784V54.9937Z" fill="#481018"></path><path d="M45.2082 57.4028L41.9006 59.3125L42.7743 60.6605L45.2082 59.2875V57.4028Z" fill="#481018"></path><path d="M45.4204 60.1611L42.1128 62.0708L42.9865 63.4188L45.4204 62.0458V60.1611Z" fill="#481018"></path><path d="M46.2068 63.1069L42.8991 65.0166L43.7728 66.3646L46.2068 64.9916V63.1069Z" fill="#481018"></path><path d="M60.1736 71.719C60.2353 71.2348 60.2645 70.7469 60.261 70.2587V69.8967L59.9365 69.6471C59.9365 69.4349 59.9365 69.2352 59.9365 69.023L60.2485 69.0979C60.1836 68.4251 60.071 67.7577 59.9115 67.1009L59.587 66.9261C59.587 66.7139 59.4871 66.4893 59.4247 66.2771H59.6993C59.5058 65.5656 59.2725 64.8655 59.0003 64.1802H58.6883C58.6009 63.968 58.5011 63.7558 58.4137 63.5311L58.6384 63.3938C58.3264 62.6929 57.9764 62.0096 57.5899 61.3469H57.3029C57.1905 61.1472 57.0657 60.9475 56.9409 60.7478L57.1031 60.5106C56.6913 59.8616 56.2419 59.2624 55.7801 58.6384L55.5554 58.7881L55.1186 58.2639L55.1935 57.9519C54.723 57.3774 54.2142 56.8353 53.6707 56.3293L53.5209 56.5664L53.0342 56.167V55.7926C52.5146 55.3671 51.9685 54.9753 51.3991 54.6193L51.3242 54.9438L51.0745 54.7941L50.8374 54.6568L50.75 54.2449C50.2313 53.9601 49.6883 53.722 49.1274 53.5334V53.9203L48.6781 53.7706L48.5158 53.3462C48.0165 53.227 47.5062 53.1601 46.9931 53.1465L47.0805 53.5709H46.6436L46.4189 53.1714C45.9652 53.2187 45.52 53.3279 45.0959 53.496L45.2457 53.9203L44.8837 54.0951L44.6091 53.7331C44.2196 53.9577 43.8662 54.2396 43.5607 54.5694L43.7853 54.9688C43.6871 55.0755 43.5954 55.188 43.5107 55.3058L43.1987 55.0062C42.9139 55.3911 42.679 55.8105 42.4997 56.2544L42.7743 56.6164C42.7743 56.7661 42.662 56.9284 42.6121 57.0907L42.2875 56.8785C42.128 57.4163 42.0194 57.9679 41.963 58.526L42.275 58.8131C42.275 59.0003 42.275 59.2 42.275 59.3873L41.9505 59.2749C41.9505 59.3873 41.9505 59.4996 41.9505 59.6119C41.9535 60.1376 41.9868 60.6627 42.0504 61.1846L42.3749 61.3968C42.3749 61.609 42.4373 61.8336 42.4748 62.0458H42.1752C42.2886 62.7389 42.4512 63.4229 42.662 64.0928L42.9865 64.2176C42.9865 64.4423 43.1363 64.667 43.2112 64.9041L42.9615 64.9915C43.2046 65.6978 43.488 66.3896 43.8103 67.0634H44.1098C44.2222 67.2881 44.3345 67.5128 44.4593 67.7374L44.2596 67.9246C44.5954 68.6008 44.9662 69.2591 45.3705 69.8967L45.6201 69.8094C45.7699 70.0216 45.9072 70.2337 46.057 70.4334L45.9446 70.7205C46.3808 71.3023 46.8474 71.8606 47.3426 72.3931L47.5423 72.2058L48.054 72.7301V73.0795C48.5438 73.5666 49.065 74.0211 49.6142 74.44L49.739 74.1654C49.9138 74.3027 50.101 74.4275 50.2882 74.5524V74.9518L51.087 75.4635C51.3616 75.6133 51.6237 75.7506 51.8983 75.8754V75.5259L52.4475 75.7756L52.5599 76.1874C53.0637 76.3857 53.5865 76.5321 54.1201 76.6243V76.2249C54.2904 76.2371 54.4614 76.2371 54.6318 76.2249L54.819 76.6368C55.2654 76.7034 55.7185 76.7118 56.167 76.6617L56.0422 76.2374C56.192 76.2374 56.3418 76.1625 56.4915 76.125L56.7412 76.512C57.1544 76.368 57.5452 76.1663 57.902 75.9129L57.7147 75.4885C57.8325 75.4038 57.9451 75.3121 58.0517 75.2139L58.3513 75.5384C58.6866 75.2221 58.9764 74.8608 59.2125 74.465L58.9629 74.0781L59.1876 73.6537L59.5121 73.9158C59.7401 73.4269 59.9199 72.9169 60.0488 72.3931L59.7492 72.056C59.7492 71.8813 59.8116 71.7066 59.8491 71.5193L60.1736 71.719Z" fill="#67383F"></path><path d="M59.0628 69.7718C59.0628 74.9392 55.4181 77.0236 50.9123 74.415C48.5449 72.8776 46.5733 70.8039 45.1572 68.3621C43.7411 65.9202 42.9204 63.179 42.7618 60.3607C42.7618 55.1934 46.4189 53.1089 50.9123 55.7176C53.2811 57.2535 55.2538 59.3268 56.6701 61.769C58.0863 64.2111 58.9061 66.9531 59.0628 69.7718Z" fill="#5C2930"></path><path d="M56.7537 68.4362C56.7537 72.1807 54.145 73.641 50.9123 71.7688C49.2168 70.6657 47.8046 69.1792 46.7898 67.4294C45.7751 65.6796 45.1862 63.7156 45.0709 61.6962C45.0709 57.9517 47.6921 56.4914 50.9123 58.3636C52.6099 59.4644 54.0237 60.9504 55.0387 62.7007C56.0537 64.4509 56.6413 66.4161 56.7537 68.4362Z" fill="#67383F"></path><path d="M45.7949 62.1081C45.889 63.8806 46.4019 65.6056 47.2914 67.1417C48.1809 68.6778 49.4218 69.9812 50.9123 70.9451C53.7456 72.5801 56.0422 71.2696 56.0422 68.0244C55.9467 66.2507 55.4319 64.525 54.5402 62.9889C53.6484 61.4527 52.4051 60.1499 50.9123 59.1874C48.079 57.5523 45.7949 58.8629 45.7949 62.1081Z" fill="#E49A00"></path><path d="M55.3807 67.6502C55.3807 70.471 53.3836 71.6193 50.9123 70.1465C49.614 69.302 48.5329 68.1636 47.7566 66.8235C46.9803 65.4834 46.5306 63.9792 46.4439 62.4329C46.4439 59.6745 48.3536 58.5137 50.75 59.8118C50.81 59.8283 50.8655 59.8581 50.9123 59.8991C52.1811 60.7205 53.2433 61.8235 54.0161 63.1225C54.789 64.4214 55.2517 65.8811 55.3682 67.3881C55.3792 67.475 55.3834 67.5626 55.3807 67.6502Z" fill="#AA4400"></path><path d="M55.3682 67.4003L53.858 68.4113L50.0261 65.7652L49.065 61.0597L50.75 59.8115C50.81 59.828 50.8655 59.8579 50.9123 59.8989C52.1827 60.7215 53.2459 61.8265 54.0188 63.1277C54.7918 64.429 55.2536 65.8912 55.3682 67.4003Z" fill="#BE5900"></path><path d="M53.5334 68.761C52.2347 67.92 51.1531 66.784 50.3766 65.4458C49.6001 64.1075 49.1507 62.6047 49.065 61.0599C49.053 60.4828 49.1592 59.9094 49.377 59.3749C47.6671 59.1003 46.4439 60.2735 46.4439 62.4828C46.5296 64.0293 46.9789 65.5338 47.7553 66.8741C48.5317 68.2144 49.6133 69.3526 50.9123 70.1964C52.8095 71.2823 54.4196 70.8704 55.0686 69.3352C54.526 69.2395 54.0056 69.0449 53.5334 68.761Z" fill="#BB5900"></path><path d="M48.4534 62.8821C48.5159 63.9574 48.8296 65.0031 49.3693 65.9352C49.9091 66.8672 50.6598 67.6598 51.5613 68.2492C53.2838 69.2353 54.6692 68.4364 54.6692 66.4768C54.6021 65.4095 54.286 64.3727 53.7463 63.4494C53.2066 62.5261 52.4584 61.742 51.5613 61.1597C49.8514 60.1237 48.4534 60.9101 48.4534 62.8821Z" fill="#DA7200"></path><path d="M49.6267 63.8183C49.6605 64.3897 49.8284 64.945 50.1168 65.4395C50.4052 65.9339 50.806 66.3534 51.2867 66.6641C52.1979 67.1883 52.9343 66.7639 52.9343 65.7279C52.9038 65.1555 52.7387 64.5984 52.4524 64.1017C52.1662 63.6051 51.7668 63.183 51.2867 62.8697C50.3756 62.4079 49.6267 62.7698 49.6267 63.8183Z" fill="#BE5900"></path><path d="M51.7963 66.6252C52.32 66.3191 52.3158 65.3376 51.787 64.433C51.2582 63.5285 50.405 63.0433 49.8813 63.3495C49.3576 63.6556 49.3618 64.6371 49.8905 65.5417C50.4193 66.4462 51.2726 66.9314 51.7963 66.6252Z" fill="#DA7200"></path><path d="M82.6155 65.0413L48.5533 45.3703L53.5709 42.4746L87.6331 62.1456L82.6155 65.0413Z" fill="#8A8480"></path><path d="M82.6155 67.0636L48.5533 47.3926V45.3706L82.6155 65.0415V67.0636Z" fill="#A59992"></path><path d="M82.6155 67.0632L87.6331 64.0801V62.1455L82.6155 65.0412V67.0632Z" fill="#B7B7B7"></path><path d="M83.0773 28.3582L83.277 30.53L81.0927 35.0109L84.4877 56.3045V60.7104L50.4005 41.027V26.7606L53.5084 23.9772L57.9269 13.3804L59.2375 13.5801L74.49 22.3921L83.0773 28.3582Z" fill="#A59992"></path><path d="M59.4871 15.9141L56.9534 24.4639L56.6164 29.7936L61.6215 45.4454L84.4877 58.6509V56.3044L81.0927 35.0109L83.277 30.53L74.3402 24.414L59.4871 15.9141Z" fill="#290007"></path><path d="M85.3739 54.8687L85.3115 58.426L104.508 47.3424L104.571 43.7851L101.587 24.2515L82.3908 35.3351L85.3739 54.8687Z" fill="#67383F"></path><path d="M104.571 43.7854L99.5904 41.6885L94.5978 41.4639L88.5567 44.9961L87.2961 48.2663L84.9246 51.9484L85.3739 54.8691L85.3115 58.4263L104.508 47.3427L104.571 43.7854Z" fill="#784A51"></path><path d="M90.5038 30.6547L93.1624 35.0232L103.023 40.7148L100.826 24.6885L90.5038 30.6547Z" fill="#7E7E7E"></path><path d="M101.85 38.9177L102.861 39.5667L102.748 38.693L101.737 38.0564L101.101 33.2261L102.037 33.8252L101.924 32.964L101.101 32.3773L100.489 27.547L101.35 28.0962L101.238 27.2349L100.389 26.6857L100.19 25.1006L99.5654 25.4501L99.6653 26.2239L98.9788 25.7871L98.3298 26.1615L99.7651 27.0852L100.377 31.9155L98.2174 30.5425L97.7182 26.5235L97.0941 26.8854L97.4935 30.0807L95.2718 28.7078L95.1719 27.9464L93.9238 28.6578L94.6103 29.0947L95.2219 33.9375L93.0625 32.5646L92.6631 29.3818L92.0391 29.7437L92.3636 32.1027L90.741 31.0668L91.5273 32.3149L92.4634 32.914L92.6132 34.1622L93.1499 35.0359L93.412 35.1857L93.1874 33.4258L95.3467 34.7988L95.5464 36.4214L96.2703 36.8457L96.108 35.2481L98.2674 36.6211L98.4421 38.0689L99.166 38.4808L98.9913 37.0829L101.101 38.4559L101.25 39.704L101.974 40.1159L101.85 38.9177ZM95.9832 34.3993L95.3716 29.5565L97.5309 30.9295L98.1301 35.7723L95.9832 34.3993ZM98.8665 36.1967L98.2549 31.3538L100.414 32.7268L101.013 37.5697L98.8665 36.1967Z" fill="#4F2F32"></path><g style="mix-blend-mode:multiply"><path d="M85.3115 58.426L104.508 47.3424L104.571 43.7852L85.3739 54.8688L85.3115 58.426Z" fill="#BCBCBC"></path></g><path d="M78.222 29.0698L81.3798 52.1108L71.5194 46.4192L68.1244 40.8399L62.982 36.4214L61.4592 26.6858L63.5436 19.6587L74.2279 26.0118L78.222 29.0698Z" fill="#4F2F32"></path><path d="M80.219 57.3902L76.3747 26.5483L77.0237 26.4609L80.8681 57.3029L80.219 57.3902Z" fill="#290007"></path><path d="M77.3607 55.8177L73.5164 24.9758L74.1779 24.9009L78.0223 55.7428L77.3607 55.8177Z" fill="#290007"></path><path d="M74.5149 54.2574L70.6706 23.4155L71.3321 23.3281L75.1764 54.1701L74.5149 54.2574Z" fill="#290007"></path><path d="M71.6691 52.6847L67.8248 21.8427L68.4863 21.7554L72.3306 52.6098L71.6691 52.6847Z" fill="#290007"></path><path d="M68.8233 51.1246L64.979 20.2827L65.6405 20.1953L69.4724 51.0373L68.8233 51.1246Z" fill="#290007"></path><path d="M65.9775 49.5519L62.1332 18.7099L62.7823 18.6226L66.6266 49.4645L65.9775 49.5519Z" fill="#290007"></path><path d="M60.8389 18.5846L60.4836 19.1426L79.6445 31.3448L79.9999 30.7868L60.8389 18.5846Z" fill="#290007"></path><path d="M61.4012 24.1852L61.0459 24.7432L80.2069 36.9454L80.5622 36.3874L61.4012 24.1852Z" fill="#290007"></path><path d="M61.9444 29.7833L61.5891 30.3413L80.75 42.5435L81.1054 41.9855L61.9444 29.7833Z" fill="#290007"></path><path d="M62.5067 35.3712L62.1514 35.9292L81.3124 48.1314L81.6677 47.5734L62.5067 35.3712Z" fill="#290007"></path><path d="M63.0691 40.9591L62.7137 41.5171L81.8747 53.7193L82.23 53.1613L63.0691 40.9591Z" fill="#290007"></path><path d="M46.1818 38.2433C46.1728 38.3402 46.1862 38.4378 46.2208 38.5286C46.2554 38.6195 46.3104 38.7012 46.3815 38.7676C46.5562 38.9173 64.4049 49.8637 64.4049 49.8637L65.653 47.6419C65.653 47.6419 47.8918 36.7455 47.7545 36.6457C47.6526 36.5725 47.5304 36.5332 47.405 36.5332C47.2796 36.5332 47.1573 36.5725 47.0555 36.6457C46.7944 36.8244 46.5791 37.0622 46.4273 37.3399C46.2755 37.6175 46.1914 37.9271 46.1818 38.2433Z" fill="#B03102"></path><path d="M64.1552 49.2899C64.1552 49.8641 64.5671 50.0763 65.0664 49.7892C65.3219 49.6116 65.5327 49.3771 65.6821 49.1042C65.8316 48.8313 65.9156 48.5274 65.9276 48.2165C65.9276 47.6424 65.5157 47.4177 65.0164 47.7173C64.7595 47.8934 64.5477 48.1276 64.3981 48.4008C64.2485 48.674 64.1653 48.9786 64.1552 49.2899Z" fill="#DA7200"></path><path d="M77.3857 57.0659L77.9349 55.8802L65.6406 48.3038C65.5605 48.2572 65.4715 48.2279 65.3794 48.2178C65.2873 48.2077 65.1941 48.2171 65.1058 48.2453C65.0176 48.2736 64.9363 48.32 64.8671 48.3817C64.798 48.4434 64.7425 48.5189 64.7044 48.6034C64.6397 48.7438 64.6294 48.9033 64.6755 49.0509C64.7216 49.1984 64.8209 49.3237 64.9541 49.4022L77.3857 57.0659Z" fill="#828689"></path><path d="M46.4314 17.2495L88.7065 58.1141L86.4348 64.617L83.8386 66.1148L43.8352 18.7598L46.4314 17.2495Z" fill="#E1E1E1"></path><path d="M43.8352 18.7598L86.0978 59.6244L83.8387 66.1148L77.186 60.885L42.1502 21.3684L43.8352 18.7598Z" fill="#8A8480"></path><path d="M61.7588 3.05778C61.577 2.95485 61.3632 2.92368 61.1596 2.97041C60.935 3.07026 40.1407 15.1899 40.1407 15.1899L41.7134 17.6862C41.7134 17.6862 62.4078 5.59154 62.5326 5.51665C62.6583 5.44407 62.7582 5.33418 62.8186 5.20222C62.879 5.07026 62.8968 4.92278 62.8696 4.78024C62.8295 4.42699 62.7084 4.08777 62.5158 3.789C62.3231 3.49024 62.064 3.24 61.7588 3.05778Z" fill="#E1E1E1"></path><path d="M40.8272 15.215C40.2405 14.9279 39.7912 15.215 39.8287 15.8765C39.8672 16.2317 39.9891 16.5729 40.1843 16.8721C40.3794 17.1714 40.6425 17.4205 40.952 17.599C41.5386 17.8985 41.9755 17.599 41.938 16.9499C41.9047 16.5931 41.7864 16.2495 41.5932 15.9476C41.3999 15.6458 41.1373 15.3946 40.8272 15.215Z" fill="#E1E1E1"></path><path d="M40.7273 12.2568L38.4807 13.5674L43.5107 51.6611L45.7574 50.3506L50.8124 44.0723L52.6722 39.217L51.2243 35.3103L50.8124 20.1701L46.6311 14.9154L40.7273 12.2568Z" fill="#D7D7D7"></path><path d="M46.6311 14.9155L44.3844 16.2136L48.5533 21.4683L50.8124 20.1703L46.6311 14.9155Z" fill="#E1E1E1"></path><path d="M43.5107 51.6611L48.5533 45.3703L50.8125 44.0723L45.7574 50.3505L43.5107 51.6611Z" fill="#8A8480"></path><path d="M50.8124 20.1704L48.5533 21.4685L48.9652 36.6086L51.2243 35.3105L50.8124 20.1704Z" fill="#B7B7B7"></path><path d="M52.6722 39.2173L50.4255 40.5279L48.5533 45.3707L50.8124 44.0726L52.6722 39.2173Z" fill="#B7B7B7"></path><path d="M38.4806 13.5674L34.4741 46.4438L43.5107 51.6611L48.5533 45.3704L50.4255 40.5276L48.9652 36.6083L48.5533 21.4682L44.3844 16.2135L38.4806 13.5674Z" fill="#A19A96"></path><path d="M98.4795 90.1294C99.2628 89.7785 100.014 89.3609 100.726 88.8813L101.85 80.6185L98.6043 66.1523L90.1044 58.3139L82.4282 53.3213L80.1815 54.5694L86.1228 63.9306L92.4884 67.7625L95.3841 71.5069L98.6043 80.3064L98.4795 90.1294Z" fill="#D7D7D7"></path><path d="M90.1418 58.2764L87.8951 59.5745L96.3951 67.4129L98.6418 66.1148L90.1418 58.2764Z" fill="#E1E1E1"></path><path d="M98.6418 66.1147L96.3951 67.4128L99.5904 81.8665L101.85 80.5684L98.6418 66.1147Z" fill="#B7B7B7"></path><path d="M95.9582 87.5581C96.0955 87.6455 98.4546 90.1293 98.4546 90.1293L99.5654 81.8665L96.3951 67.4004L87.8952 59.562L80.219 54.5693L81.1302 61.4217L82.0163 65.3409L90.1668 70.2587L93.05 72.755L96.3327 81.567L95.9582 87.5581Z" fill="#A19A96"></path><path d="M104.396 18.3354L83.277 30.5299L83.0773 28.3581L104.196 16.1636L104.396 18.3354Z" fill="#B7B7B7"></path><path d="M104.196 16.1635L83.0773 28.3579L74.49 22.3918L95.5963 10.1973L104.196 16.1635Z" fill="#E1E1E1"></path><path d="M102.212 22.8163L81.0927 35.0108L83.277 30.5299L104.396 18.3354L102.212 22.8163Z" fill="#240009"></path><path d="M145.248 91.3774L113.07 109.95L101.787 99.5778L100.115 83.6139L132.292 65.0288L133.965 76.2872L139.619 86.2599L145.248 91.3774Z" fill="#262021"></path><path d="M129.983 80.2314L98.3922 98.467L113.657 109.613L144.249 91.7644L129.983 80.2314Z" fill="#362E2F"></path><path d="M112.022 107.678L143.039 89.7798L144.674 91.7144L113.657 109.613L112.022 107.678Z" fill="#5C4E4F"></path><path d="M100.689 83.2646L105.132 86.073L105.344 86.8843L103.971 89.2558L110.262 104.046L111.336 105.12L112.022 107.679L113.657 109.613L113.07 109.95L98.9788 98.1302L94.061 91.7396L100.689 83.2646Z" fill="#4A3F40"></path><path d="M132.292 65.0288L136.723 67.8372L136.935 68.6485L135.562 71.02L141.865 85.8106L142.939 86.8715L143.625 89.4428L145.248 91.3774L144.674 91.7144L130.57 79.8819L125.664 73.5038L132.292 65.0288Z" fill="#4A3F40"></path><path d="M131.705 65.3657L136.136 68.1741L136.349 68.9854L134.976 71.3569L141.279 86.1475L142.352 87.2209L143.039 89.7797L144.674 91.7143L144.249 91.7642L129.983 80.2313L125.078 73.8407L131.705 65.3657Z" fill="#2E2728"></path><path d="M100.115 83.6138L104.546 86.4096L104.758 87.2334L103.385 89.5924L109.675 104.383L110.749 105.457L111.448 108.028L113.07 109.95L112.646 110L98.3922 98.4668L93.4869 92.0763L100.115 83.6138Z" fill="#2E2728"></path><path d="M104.546 86.4097L104.758 87.2335L136.935 68.6485L136.723 67.8372L132.292 65.0288L100.115 83.6139L104.546 86.4097Z" fill="#5C4E4F"></path><g style="mix-blend-mode:multiply"><path d="M144.249 91.7642L136.948 91.1152L129.247 85.5484L125.664 84.4999L107.092 95.1093L103.971 89.2554L105.344 86.8839L136.349 68.9854L134.976 71.3568L141.279 86.1475L142.352 87.2209L143.039 89.7796L144.674 91.7143L144.249 91.7642Z" fill="#AFABA6"></path></g><path d="M87.5831 29.8683C87.4091 30.4671 87.0173 30.9792 86.4847 31.3036L83.8387 32.9512C83.4018 33.2508 83.0274 33.101 83.1522 32.6766V32.6142L83.3519 31.8903C83.5019 31.4179 83.8163 31.0149 84.2381 30.7545L86.1477 29.5063L87.2212 28.8448C87.5332 28.6326 87.7953 28.7449 87.7329 29.0445L87.5831 29.8683Z" fill="#CDCDCD"></path><path d="M84.8746 31.6532L83.1272 32.6143L83.3269 31.8903C83.4769 31.4179 83.7913 31.0149 84.2131 30.7545L86.1228 29.5063L85.973 30.1804C85.8074 30.7931 85.4147 31.3197 84.8746 31.6532Z" fill="#E3E7EB"></path><path d="M102.124 21.4431C101.947 22.044 101.551 22.5563 101.013 22.8785L98.3672 24.5385C97.9303 24.8381 97.5683 24.6758 97.6932 24.2514V24.189L97.9054 23.4776C98.0422 22.9988 98.3541 22.5889 98.7791 22.3293L100.701 21.0811L101.762 20.4071C102.087 20.2074 102.349 20.3073 102.286 20.6068L102.124 21.4431Z" fill="#CDCDCD"></path><path d="M99.4531 23.2284L97.7057 24.1895L97.9178 23.478C98.0547 22.9992 98.3666 22.5893 98.7916 22.3297L100.714 21.0815L100.564 21.7431C100.398 22.3625 100 22.8943 99.4531 23.2284Z" fill="#E3E7EB"></path></g><defs><clipPath id="clip0_5678_9234"><rect width="145.248" height="110" fill="white"></rect></clipPath></defs></svg>