<svg xmlns="http://www.w3.org/2000/svg" width="89" height="100" viewBox="0 0 89 100" fill="none"><g clip-path="url(#clip0_5678_16942)"><path d="M2.50053 21.0468C2.54484 21.2556 2.50483 21.4734 2.38922 21.6528C2.27362 21.8322 2.09179 21.9586 1.88338 22.0045C1.77384 22.0433 1.6572 22.0582 1.54141 22.0479C1.42563 22.0376 1.31342 22.0025 1.21243 21.9449C1.11145 21.8874 1.02406 21.8087 0.95622 21.7143C0.888381 21.6199 0.841688 21.512 0.819323 21.398C0.196232 18.818 -0.0793143 16.1663 1.85333e-07 13.5133C0.223452 11.2256 1.06406 9.57629 2.31964 8.86337C2.50915 8.78084 2.72242 8.77103 2.91871 8.8358C3.11499 8.90057 3.28053 9.0354 3.3837 9.21451L23.6008 49.2656C23.6625 49.3609 23.7027 49.4687 23.7183 49.5812C23.7339 49.6937 23.7246 49.8083 23.6911 49.9169C23.6577 50.0254 23.6008 50.1253 23.5245 50.2095C23.4482 50.2937 23.3544 50.3601 23.2496 50.4041C21.2279 51.3724 18.4295 50.1488 15.4501 47.3396C11.9542 43.8596 9.00523 39.8702 6.70355 35.5073C6.63224 35.305 6.62787 35.0851 6.6911 34.8801C6.75433 34.6751 6.8818 34.4958 7.05469 34.3688C7.25599 34.2881 7.47887 34.279 7.6861 34.3429C7.89333 34.4068 8.07235 34.5399 8.19323 34.7199C10.4165 38.916 13.2532 42.757 16.6099 46.116C18.621 48.0419 20.3767 49.0953 21.6961 49.0953L2.40477 10.9702C1.97266 11.7804 1.73583 12.6804 1.71313 13.5984C1.57579 16.1073 1.84164 18.6221 2.50053 21.0468ZM7.05469 32.528C7.13537 32.7293 7.14452 32.9522 7.08061 33.1594C7.01669 33.3666 6.8836 33.5456 6.70355 33.6665C6.50281 33.7514 6.27855 33.7627 6.07029 33.6985C5.86202 33.6342 5.68309 33.4986 5.56501 33.3154C5.04363 32.2513 4.50096 31.1873 4.07534 30.2509C3.64971 29.3145 3.20281 28.1228 2.85167 27.0587C2.80512 26.961 2.77952 26.8545 2.77653 26.7463C2.77354 26.638 2.79321 26.5303 2.8343 26.4301C2.87538 26.3299 2.93695 26.2394 3.01508 26.1645C3.0932 26.0895 3.18614 26.0316 3.28793 25.9947C3.48916 25.9244 3.70929 25.9312 3.9058 26.0137C4.10232 26.0963 4.26128 26.2487 4.35199 26.4416C4.70313 27.5056 5.13939 28.4526 5.57565 29.5061C6.01192 30.5595 6.54395 31.5171 7.06533 32.4854L7.05469 32.528ZM3.46882 24.0155C3.5238 24.2272 3.50019 24.4517 3.40237 24.6473C3.30455 24.843 3.13915 24.9965 2.9368 25.0796C2.72509 25.1346 2.50062 25.111 2.30499 25.0131C2.10935 24.9153 1.95578 24.7499 1.87274 24.5476L1.60672 23.8453C1.56607 23.6235 1.60589 23.3945 1.71902 23.1994C1.83216 23.0044 2.01117 22.8561 2.22388 22.7812C2.4214 22.7246 2.63322 22.7475 2.81413 22.8449C2.99504 22.9423 3.13071 23.1066 3.19217 23.3026L3.46882 24.0155Z" fill="#17262F"></path><path d="M55.1713 45.7542C55.2146 45.8524 55.2377 45.9584 55.2391 46.0658C55.2405 46.1731 55.2203 46.2797 55.1795 46.379C55.1388 46.4784 55.0785 46.5685 55.0021 46.644C54.9257 46.7194 54.8349 46.7787 54.735 46.8183C54.6451 46.8779 54.5428 46.9163 54.4359 46.9306C54.329 46.9449 54.2202 46.9348 54.1178 46.901C54.0153 46.8672 53.9219 46.8106 53.8445 46.7354C53.7671 46.6603 53.7078 46.5685 53.671 46.4671L43.5199 25.335C43.4483 25.1974 43.4202 25.0414 43.4392 24.8875C43.4582 24.7336 43.5234 24.5891 43.6263 24.4731L45.9885 21.7597C46.0654 21.6726 46.1606 21.6036 46.2673 21.5576C46.374 21.5116 46.4895 21.4898 46.6057 21.4937L50.9896 21.1426C51.1573 21.1434 51.3212 21.1932 51.461 21.2858C51.6009 21.3784 51.7107 21.5099 51.777 21.664L86.9866 88.093C88.0524 90.1801 88.5929 92.4958 88.5614 94.8391C88.6059 95.7739 88.4031 96.7039 87.9735 97.5352C87.5438 98.3666 86.9024 99.0699 86.1141 99.5742C85.2403 99.9435 84.2819 100.065 83.3435 99.9265C82.4052 99.7876 81.5231 99.3933 80.7938 98.7868C78.8471 97.4305 77.2794 95.5991 76.2396 93.4665L63.9711 67.9291C63.9093 67.8338 63.8692 67.726 63.8536 67.6135C63.8379 67.501 63.8472 67.3864 63.8807 67.2778C63.9142 67.1693 63.9711 67.0694 64.0473 66.9852C64.1236 66.901 64.2174 66.8346 64.3222 66.7906C64.524 66.7138 64.7456 66.7067 64.9519 66.7703C65.1581 66.8339 65.3373 66.9647 65.4607 67.1417L77.7825 92.7429C78.6688 94.6087 80.0302 96.2087 81.7301 97.3822C83.0389 98.2547 84.3584 98.6165 85.3267 98.0845C85.8465 97.7051 86.263 97.2015 86.538 96.6197C86.8131 96.0379 86.9381 95.3965 86.9015 94.754C86.9425 92.7083 86.4589 90.6862 85.4969 88.8804L50.5214 22.9089L47.0206 23.0792L45.1798 25.2073L55.1713 45.7542ZM64.1094 64.3326C64.1901 64.5339 64.1992 64.7568 64.1353 64.964C64.0714 65.1713 63.9383 65.3503 63.7582 65.4712C63.5491 65.5615 63.3129 65.5664 63.1001 65.4849C62.8874 65.4034 62.715 65.2419 62.6197 65.0349L56.7461 52.9472C56.6565 52.7367 56.6531 52.4995 56.7367 52.2865C56.8203 52.0736 56.9841 51.902 57.193 51.8087C57.3822 51.7237 57.5963 51.7126 57.7932 51.7776C57.9902 51.8426 58.1556 51.9789 58.2571 52.1598L64.1094 64.3326ZM57.0973 49.7976C57.1474 49.8948 57.1758 50.0017 57.1805 50.111C57.1853 50.2202 57.1662 50.3292 57.1247 50.4303C57.0833 50.5315 57.0203 50.6225 56.9402 50.6969C56.8602 50.7714 56.7649 50.8276 56.661 50.8617C56.5717 50.9234 56.4692 50.9636 56.3618 50.9791C56.2543 50.9946 56.1447 50.9849 56.0416 50.9509C55.9385 50.9168 55.8447 50.8594 55.7675 50.783C55.6903 50.7066 55.632 50.6133 55.5969 50.5105L55.1607 49.7231C55.0703 49.514 55.0654 49.2778 55.1469 49.065C55.2285 48.8523 55.39 48.6798 55.5969 48.5846C55.6947 48.538 55.8011 48.5124 55.9094 48.5094C56.0176 48.5065 56.1253 48.5261 56.2255 48.5672C56.3257 48.6083 56.4162 48.6699 56.4912 48.748C56.5662 48.8261 56.624 48.9191 56.661 49.0208L57.0973 49.7976Z" fill="#17262F"></path><path d="M13.1092 9.12949C13.004 9.14946 12.8957 9.14651 12.7917 9.12083C12.6877 9.09516 12.5905 9.04736 12.5067 8.9807C12.4229 8.91405 12.3544 8.8301 12.306 8.73458C12.2575 8.63906 12.2303 8.53422 12.226 8.42721C12.2078 8.32221 12.2121 8.21454 12.2385 8.1113C12.2649 8.00805 12.3128 7.91155 12.3791 7.82814C12.4454 7.74473 12.5287 7.6763 12.6233 7.62733C12.718 7.57837 12.8219 7.54999 12.9283 7.54404L13.6306 7.44828C13.7341 7.43647 13.8389 7.44533 13.939 7.47433C14.039 7.50333 14.1323 7.55189 14.2135 7.61721C14.2946 7.68253 14.362 7.76331 14.4117 7.85486C14.4615 7.94641 14.4925 8.04692 14.5031 8.15055C14.5214 8.255 14.5171 8.36214 14.4907 8.46481C14.4642 8.56749 14.4161 8.66333 14.3496 8.74593C14.2832 8.82852 14.1998 8.89598 14.1052 8.94377C14.0105 8.99157 13.9068 9.01861 13.8008 9.02308L13.1092 9.12949ZM16.1737 8.77835C15.9532 8.80667 15.7302 8.74976 15.5502 8.61924C15.3703 8.48873 15.2469 8.29445 15.2054 8.07607C15.1978 7.85172 15.2694 7.63186 15.4075 7.45487C15.5455 7.27789 15.7414 7.15504 15.9609 7.10778L23.1539 6.23525C23.3624 6.2143 23.5708 6.27621 23.734 6.40761C23.8973 6.53901 24.0023 6.72936 24.0264 6.93753C24.0461 7.04685 24.0433 7.15903 24.0182 7.26724C23.9932 7.37546 23.9464 7.47745 23.8807 7.56702C23.815 7.65659 23.7318 7.73187 23.6361 7.78828C23.5404 7.8447 23.4343 7.88107 23.3241 7.89518L16.1737 8.77835ZM26.3354 7.54404C26.1067 7.55447 25.8822 7.47976 25.7053 7.33433C25.5284 7.1889 25.4117 6.98309 25.3778 6.75664C25.3717 6.53787 25.4501 6.32516 25.5967 6.16268C25.7433 6.00021 25.9469 5.90044 26.1652 5.88411L38.1677 4.39444L43.1688 0.191414C43.3323 0.0547034 43.5427 -0.0128791 43.7553 0.00301453C43.9679 0.0189081 44.1659 0.117026 44.3073 0.276539C44.3924 0.361663 44.3924 0.446788 44.4776 0.446788L55.1181 21.3981C55.2005 21.6081 55.2014 21.8412 55.1207 22.0519C55.04 22.2625 54.8835 22.4354 54.6819 22.5366C54.5861 22.5366 54.501 22.6217 54.4158 22.6217L47.0526 23.058L23.5369 50.234C23.3955 50.3935 23.1975 50.4916 22.9849 50.5075C22.7724 50.5234 22.562 50.4558 22.3984 50.3191C22.3026 50.234 22.2175 50.1489 22.2175 50.0531L1.88339 10.002C1.79306 9.79285 1.78813 9.55665 1.86966 9.3439C1.95118 9.13114 2.11268 8.95872 2.31965 8.86347C2.40478 8.86347 2.50054 8.77835 2.58567 8.77835L10.1192 7.81006C10.3391 7.80381 10.553 7.88188 10.7172 8.02827C10.8814 8.17466 10.9834 8.37829 11.0024 8.59746C11.0206 8.7019 11.0164 8.80904 10.9899 8.91172C10.9635 9.01439 10.9154 9.11023 10.8489 9.19283C10.7824 9.27543 10.6991 9.34288 10.6044 9.39068C10.5098 9.43847 10.406 9.46551 10.3001 9.46998L3.91574 10.268L23.0687 48.2123L45.9672 21.7492C46.1383 21.5796 46.3512 21.4585 46.5844 21.3981L52.9687 21.0469L43.4241 2.128L39.0509 5.79899C38.9292 5.90398 38.7752 5.96408 38.6146 5.96924L26.3354 7.54404Z" fill="#17262F"></path><path d="M10.215 14.386C9.99447 14.4144 9.77149 14.3574 9.59153 14.2269C9.41158 14.0964 9.28823 13.9021 9.24667 13.6838C9.22138 13.5763 9.2203 13.4646 9.2435 13.3566C9.2667 13.2487 9.31361 13.1473 9.38082 13.0597C9.44803 12.9721 9.53387 12.9006 9.63213 12.8502C9.73038 12.7999 9.8386 12.772 9.94895 12.7687L37.0292 9.1296C37.1329 9.1163 37.2383 9.12409 37.3389 9.1525C37.4396 9.18091 37.5335 9.22936 37.615 9.29495C37.6965 9.36053 37.7639 9.44189 37.8131 9.53415C37.8624 9.62642 37.8925 9.72768 37.9017 9.83187C37.9327 10.05 37.878 10.2716 37.749 10.4502C37.6201 10.6288 37.4269 10.7504 37.2101 10.7895L10.215 14.386Z" fill="#17262F"></path><path d="M11.96 18.4188C11.8505 18.44 11.7378 18.4384 11.629 18.414C11.5201 18.3896 11.4175 18.343 11.3276 18.2771C11.2376 18.2111 11.1623 18.1273 11.1064 18.0308C11.0504 17.9343 11.015 17.8273 11.0023 17.7165C10.9917 17.5102 11.0574 17.3072 11.187 17.1462C11.3165 16.9853 11.5008 16.8777 11.7046 16.844L24.0583 15.1734C24.1681 15.1552 24.2804 15.159 24.3887 15.1846C24.497 15.2101 24.5991 15.2569 24.6892 15.3222C24.7792 15.3876 24.8554 15.4701 24.9134 15.5651C24.9713 15.6601 25.0098 15.7657 25.0266 15.8757C25.0449 15.9801 25.0406 16.0873 25.0142 16.1899C24.9877 16.2926 24.9396 16.3885 24.8731 16.4711C24.8067 16.5537 24.7233 16.6211 24.6287 16.6689C24.534 16.7167 24.4303 16.7437 24.3243 16.7482L11.96 18.4188Z" fill="#17262F"></path><path d="M48.0741 26.3885C48.0184 26.2955 47.9826 26.192 47.9688 26.0845C47.9551 25.977 47.9636 25.8678 47.994 25.7637C48.0244 25.6597 48.0759 25.563 48.1454 25.4798C48.2149 25.3966 48.3008 25.3286 48.3977 25.2801C48.4947 25.2317 48.6006 25.2037 48.7088 25.1981C48.8171 25.1924 48.9253 25.2092 49.0268 25.2473C49.1283 25.2855 49.2208 25.3441 49.2985 25.4197C49.3763 25.4952 49.4376 25.5859 49.4786 25.6863L82.4644 89.7531C82.5227 89.8502 82.56 89.9585 82.5738 90.0709C82.5876 90.1834 82.5776 90.2975 82.5445 90.4058C82.5114 90.5142 82.4559 90.6143 82.3816 90.6999C82.3073 90.7854 82.2159 90.8543 82.1132 90.9023C81.9225 90.9839 81.7083 90.9921 81.5119 90.9253C81.3154 90.8586 81.1506 90.7215 81.0492 90.5405L48.0741 26.3885Z" fill="#17262F"></path></g><defs><clipPath id="clip0_5678_16942"><rect width="88.572" height="100" fill="white"></rect></clipPath></defs></svg>