<svg xmlns="http://www.w3.org/2000/svg" width="66" height="110" viewBox="0 0 66 110" fill="none"><g clip-path="url(#clip0_5678_17573)"><path d="M31.7523 18.4158L20.0568 2.42245L21.6588 1.35449L28.9261 5.62634L33.3543 15.3943V17.3479L31.7523 18.4158Z" fill="#FF951A"></path><path d="M1.13309 26.7251L24.4589 71.879L28.6396 72.7126L5.30074 27.5586L1.13309 26.7251Z" fill="#A34200"></path><path d="M28.6396 72.7125L5.30074 27.5586L8.51764 25.7483L31.8565 70.9022L28.6396 72.7125Z" fill="#CC6500"></path><path d="M31.0751 110L0 92.053V86.583L31.0751 104.53V110Z" fill="#3C3E40"></path><path d="M31.0751 110L62.1501 92.053V86.583L31.0751 104.53V110Z" fill="#555A5C"></path><path d="M0 86.596L31.0751 104.53L62.1632 86.583L31.0751 68.649L0 86.596Z" fill="#858B8C"></path><path d="M51.171 84.1606L49.9728 82.5586C47.1856 78.1826 39.7881 75.0438 31.0751 75.0438C22.3621 75.0438 14.9775 78.1435 12.1904 82.5586L11.0052 84.1606V86.1402C11.0052 86.2183 11.0052 86.2965 11.0052 86.3877C11.0052 92.6522 20.0047 97.7315 31.0881 97.7315C42.1714 97.7315 51.184 92.6522 51.184 86.3877C51.184 86.2965 51.184 86.2183 51.184 86.1402L51.171 84.1606Z" fill="#3C3E40"></path><path d="M31.0751 96.0514C42.1665 96.0514 51.1579 90.9726 51.1579 84.7076C51.1579 78.4426 42.1665 73.3638 31.0751 73.3638C19.9836 73.3638 10.9922 78.4426 10.9922 84.7076C10.9922 90.9726 19.9836 96.0514 31.0751 96.0514Z" fill="#939899"></path><path d="M32.5598 99.4376V100.74C32.5598 101.183 32.104 101.561 31.4528 101.743H31.2313H29.929H29.7076H29.5903L29.3299 101.587H29.2647L29.1085 101.508H29.0433L28.861 101.378L28.7698 101.274L28.6526 101.105V101.027V100.948C28.6462 100.896 28.6462 100.844 28.6526 100.792V99.4897C28.6526 99.112 28.9782 98.7734 29.4861 98.578L29.6685 98.5129H29.7596C30.3309 98.3567 30.9336 98.3567 31.5049 98.5129C32.0388 98.6171 32.5598 98.9818 32.5598 99.4376Z" fill="#594D4D"></path><path d="M31.3876 98.4348V101.743C32.0388 101.561 32.4947 101.183 32.4947 100.74V99.4377C32.5598 98.9818 32.0388 98.6171 31.3876 98.4348Z" fill="#6B5C5C"></path><path d="M30.2025 98.3566C30.0135 98.3622 29.8257 98.3884 29.6424 98.4347H29.5513L29.3689 98.4998C28.861 98.6952 28.5354 99.0338 28.5354 99.4115V100.714C28.529 100.766 28.529 100.818 28.5354 100.87V100.948V101.026L28.6136 101.118L28.7047 101.222L28.8871 101.352H28.9522L29.1085 101.43H29.1736L29.3689 101.508H29.4862H29.7076H30.0462L30.2025 98.3566Z" fill="#473D3D"></path><path d="M29.1345 98.6692C28.7829 98.8776 28.5354 99.125 28.5354 99.4376V100.74C28.529 100.792 28.529 100.844 28.5354 100.896V100.974V101.053L28.6136 101.144L28.7047 101.248L28.8871 101.378H28.9522L29.1345 98.6692Z" fill="#383030"></path><path d="M32.5598 99.4376C32.5598 99.8804 32.104 100.258 31.4528 100.44C30.8815 100.597 30.2788 100.597 29.7076 100.44C29.0433 100.258 28.6005 99.8804 28.6005 99.4376C28.6005 98.9948 28.9261 98.7213 29.4341 98.5259L29.6164 98.4608H29.7076C30.2788 98.3046 30.8815 98.3046 31.4528 98.4608C32.0388 98.6171 32.5598 98.9817 32.5598 99.4376Z" fill="#847271"></path><path d="M31.7393 98.7213V99.3725C31.7393 99.646 31.4528 99.8804 31.049 99.9976H30.9188H30.1113H29.9811H29.9029H29.7857H29.6945C29.6541 99.9744 29.6187 99.9435 29.5903 99.9065H29.5252C29.5189 99.872 29.5189 99.8367 29.5252 99.8023V99.1511C29.5252 98.9166 29.7336 98.7083 30.0462 98.591H30.1634C30.5141 98.5044 30.8806 98.5044 31.2314 98.591C31.4528 98.2134 31.7393 98.4478 31.7393 98.7213Z" fill="#C2C2C2"></path><path d="M31.049 98.0962V99.9977C31.4528 99.8805 31.7393 99.646 31.7393 99.3725V98.7213C31.7393 98.4478 31.4528 98.2134 31.049 98.0962Z" fill="#D4D4D4"></path><path d="M30.3197 98.0571C30.2069 98.05 30.0938 98.05 29.9811 98.0571H29.8638C29.5513 98.1743 29.3429 98.3827 29.3429 98.6171V99.2683C29.3365 99.3028 29.3365 99.3381 29.3429 99.3725H29.408C29.4384 99.4127 29.4788 99.4441 29.5252 99.4637H29.6164H29.7336H29.8117H29.942H30.1504L30.3197 98.0571Z" fill="#B0B0B0"></path><path d="M29.6685 98.2524C29.4471 98.3697 29.2908 98.5259 29.2908 98.7213V99.3725C29.2844 99.4069 29.2844 99.4422 29.2908 99.4767H29.3559C29.3863 99.5168 29.4267 99.5483 29.4731 99.5678L29.6685 98.2524Z" fill="#A1A1A1"></path><path d="M31.7393 98.7213C31.7393 98.9948 31.4528 99.2292 31.049 99.3334C30.7007 99.4377 30.3294 99.4377 29.9811 99.3334C29.5773 99.2292 29.2908 98.9948 29.2908 98.7213C29.2908 98.4478 29.4992 98.2785 29.8117 98.1613H29.929C30.2797 98.0747 30.6462 98.0747 30.9969 98.1613C31.4528 98.2134 31.7393 98.4478 31.7393 98.7213Z" fill="#EDEDED"></path><path d="M57.709 84.8117V86.1141C57.709 86.557 57.2531 86.9346 56.6019 87.117H56.3805H55.0782H54.8567H54.7395L54.5311 87.0388L54.3879 86.9607H54.3228L54.1404 86.8304L54.0493 86.7263V86.6351C54.053 86.6092 54.053 86.5829 54.0493 86.5569C54.0493 86.5569 54.0493 86.557 54.0493 86.4788C54.043 86.4269 54.043 86.3744 54.0493 86.3225V85.0201C54.0493 84.6424 54.3879 84.3038 54.8958 84.1085H55.0782H55.1693C55.4529 84.0268 55.7469 83.9873 56.0419 83.9912C56.3368 83.9891 56.6306 84.0286 56.9145 84.1085C57.3052 83.9912 57.709 84.3689 57.709 84.8117Z" fill="#594D4D"></path><path d="M56.6019 83.809V87.117C57.2531 86.9347 57.709 86.557 57.709 86.1142V84.8118C57.709 84.369 57.3052 83.9913 56.6019 83.809Z" fill="#6B5C5C"></path><path d="M55.4168 83.7307C55.2278 83.7357 55.0399 83.7619 54.8567 83.8089H54.7656H54.5832C54.0753 84.0042 53.7367 84.3428 53.7367 84.7205V86.0229C53.7304 86.0748 53.7304 86.1273 53.7367 86.1792C53.7367 86.1792 53.7367 86.1792 53.7367 86.2574V86.3355V86.4267L53.8279 86.5309L54.0102 86.6611H54.0753L54.2186 86.7392L54.427 86.8174H54.5442H54.7656H55.1042L55.4168 83.7307Z" fill="#473D3D"></path><path d="M54.3488 84.0433C53.9972 84.2517 53.7367 84.4992 53.7367 84.8118V86.1141C53.7304 86.166 53.7304 86.2185 53.7367 86.2704C53.7367 86.2704 53.7367 86.2704 53.7367 86.3486V86.4267V86.5179L53.8279 86.6221L54.0102 86.7523H54.0753L54.3488 84.0433Z" fill="#383030"></path><path d="M57.709 84.8118C57.709 85.2546 57.2531 85.6323 56.6019 85.8146C56.318 85.8945 56.0243 85.9339 55.7293 85.9318C55.4343 85.9357 55.1403 85.8962 54.8567 85.8146C54.1925 85.6323 53.7367 85.2546 53.7367 84.8118C53.7367 84.3689 54.0753 84.0954 54.5832 83.9001H54.7656H54.8567C55.1403 83.8184 55.4343 83.7789 55.7293 83.7829C56.0243 83.7807 56.318 83.8202 56.6019 83.9001C57.3052 83.9912 57.709 84.3689 57.709 84.8118Z" fill="#847271"></path><path d="M56.9406 84.0954V84.7466C56.9406 85.0201 56.6671 85.2545 56.2633 85.3717H56.1201H55.3256H55.1823H55.0651H54.974L54.7005 85.1243C54.6941 85.0898 54.6941 85.0545 54.7005 85.0201V84.3689C54.7005 84.1345 54.8958 83.9261 55.2214 83.8089H55.3256C55.5074 83.7882 55.6909 83.7882 55.8726 83.8089C56.05 83.789 56.2292 83.789 56.4066 83.8089C56.6671 83.5875 56.9406 83.8219 56.9406 84.0954Z" fill="#C2C2C2"></path><path d="M56.2633 83.4702V85.3717C56.6671 85.2545 56.9406 85.0201 56.9406 84.7466V84.0954C56.9406 83.8219 56.6671 83.5874 56.2633 83.4702Z" fill="#D4D4D4"></path><path d="M55.534 83.4312C55.4169 83.4241 55.2994 83.4241 55.1823 83.4312H55.0781C54.7526 83.5484 54.5572 83.7568 54.5572 83.9913V84.6425C54.5508 84.6769 54.5508 84.7122 54.5572 84.7466L54.6744 84.8378H54.7656H54.8828H55.0261H55.2344L55.534 83.4312Z" fill="#B0B0B0"></path><path d="M54.8828 83.6266C54.6614 83.7438 54.5051 83.9001 54.5051 84.0954V84.7466C54.4987 84.7811 54.4987 84.8164 54.5051 84.8508L54.6223 84.942L54.8828 83.6266Z" fill="#A1A1A1"></path><path d="M56.9406 84.0954C56.9406 84.3689 56.6671 84.6033 56.2633 84.7075C56.0902 84.7599 55.9102 84.7863 55.7293 84.7857C55.5441 84.7872 55.3597 84.7608 55.1823 84.7075C54.7786 84.6033 54.5051 84.3689 54.5051 84.0954C54.5051 83.8219 54.7005 83.6526 55.0261 83.5354H55.1302C55.312 83.5147 55.4955 83.5147 55.6773 83.5354C55.8547 83.5155 56.0338 83.5155 56.2112 83.5354C56.6671 83.5875 56.9406 83.8219 56.9406 84.0954Z" fill="#EDEDED"></path><path d="M7.97064 85.3066V86.609C7.97064 87.0518 7.5148 87.4295 6.86361 87.6119H6.6422H6.55103H6.40777H6.22543H5.75657H5.57424H5.43097H5.33981H5.1184H5.00118L4.80583 87.5337L4.64954 87.4556L4.33696 87.2602L4.2458 87.156L4.16765 87.0649V86.9867C4.1612 86.9305 4.1612 86.8737 4.16765 86.8174V85.515C4.16765 85.1373 4.49325 84.7987 5.00118 84.6033H5.18352H5.27469C5.55842 84.5226 5.8523 84.4831 6.14729 84.4861C6.44227 84.4831 6.73616 84.5226 7.01989 84.6033C7.5148 84.4861 7.97064 84.8638 7.97064 85.3066Z" fill="#594D4D"></path><path d="M6.8636 84.3038V87.5989C7.5148 87.4165 7.97063 87.0388 7.97063 86.596V85.2936C7.97063 84.8639 7.5148 84.4862 6.8636 84.3038Z" fill="#6B5C5C"></path><path d="M5.67844 84.2257C5.49012 84.2382 5.30295 84.2643 5.11841 84.3039H5.02724H4.8449C4.33697 84.4992 4.01137 84.8378 4.01137 85.2155V86.5179C4.00492 86.5742 4.00492 86.631 4.01137 86.6872V86.7654L4.08952 86.8565L4.18068 86.9607L4.36302 87.091L4.51931 87.1691L4.71466 87.2473H4.83188H5.05329H5.14445H5.39191L5.67844 84.2257Z" fill="#473D3D"></path><path d="M4.6235 84.5382C4.25883 84.7466 4.01137 85.0071 4.01137 85.3066V86.609C4.00492 86.6653 4.00492 86.7221 4.01137 86.7783V86.8565L4.08952 86.9476L4.18068 87.0518L4.36302 87.1821L4.6235 84.5382Z" fill="#383030"></path><path d="M7.97064 85.3066C7.97064 85.7495 7.5148 86.1271 6.86361 86.3095C6.57987 86.3902 6.28599 86.4297 5.991 86.4267C5.69602 86.4297 5.40214 86.3902 5.1184 86.3095C4.45418 86.1271 4.01137 85.7495 4.01137 85.3066C4.01137 84.8638 4.33697 84.5903 4.8449 84.395H5.02723H5.1184C5.40214 84.3142 5.69602 84.2747 5.991 84.2777C6.28599 84.2747 6.57987 84.3142 6.86361 84.395C7.5148 84.4861 7.97064 84.8638 7.97064 85.3066Z" fill="#847271"></path><path d="M7.21525 84.6554V85.3066C7.21525 85.5801 6.92873 85.8146 6.52499 85.9318H6.39475H5.58726H5.45703H5.37888H5.26167H5.1705L5.05328 85.8536C5.05328 85.8536 5.05328 85.8536 5.05328 85.7494V84.6554C5.05328 84.421 5.26167 84.2126 5.57424 84.0954H5.69146C6.03981 83.9911 6.41106 83.9911 6.75942 84.0954C6.92873 84.0824 7.21525 84.3168 7.21525 84.6554Z" fill="#C2C2C2"></path><path d="M6.51196 83.9783V85.8798C6.9157 85.7625 7.20223 85.5281 7.20223 85.2546V84.6555C7.21525 84.3169 6.92873 84.0825 6.51196 83.9783Z" fill="#D4D4D4"></path><path d="M5.80867 83.9261C5.69189 83.9117 5.57379 83.9117 5.45702 83.9261H5.3398C5.02723 84.0433 4.81885 84.2517 4.81885 84.4861V85.1373C4.81885 85.1373 4.81885 85.1373 4.81885 85.2415L4.93606 85.3197H5.02723H5.14445H5.22259H5.35283H5.57424L5.80867 83.9261Z" fill="#B0B0B0"></path><path d="M5.20957 84.1215C5.11084 84.1593 5.02389 84.2227 4.95755 84.305C4.89121 84.3874 4.84785 84.4858 4.83188 84.5903V85.2415C4.83188 85.2415 4.83188 85.2415 4.83188 85.3457L4.94909 85.4239H5.20957V84.1215Z" fill="#A1A1A1"></path><path d="M7.21525 84.6554C7.21525 84.9289 6.92872 85.1634 6.52498 85.2806C6.17426 85.3672 5.80774 85.3672 5.45702 85.2806C5.05328 85.1634 4.76675 84.9289 4.76675 84.6554C4.76675 84.3819 4.97514 84.2126 5.28771 84.0954H5.40493C5.75328 83.9911 6.12453 83.9911 6.47289 84.0954C6.92872 84.0824 7.21525 84.3168 7.21525 84.6554Z" fill="#EDEDED"></path><path d="M33.1849 70.6808V71.9832C33.1849 72.426 32.7291 72.8037 32.0779 72.986H31.8565H31.7653H31.6221H31.4267H30.9709H30.7755H30.6323H30.5541H30.3327H30.2155L30.0201 72.9079H29.942L29.7987 72.8297H29.7336L29.5513 72.6995L29.4601 72.5953V72.5041V72.426C29.4601 72.426 29.4601 72.426 29.4601 72.3609C29.4539 72.3046 29.4539 72.2478 29.4601 72.1915V70.8892C29.4601 70.5115 29.7987 70.1728 30.3067 69.9775H30.489H30.5802C30.8639 69.8967 31.1578 69.8573 31.4528 69.8603C31.7477 69.8581 32.0415 69.8976 32.3254 69.9775C32.7291 69.8603 33.1849 70.238 33.1849 70.6808Z" fill="#594D4D"></path><path d="M32.0779 69.678V72.934C32.7291 72.7516 33.1849 72.3739 33.1849 71.9311V70.6287C33.1849 70.238 32.7291 69.8603 32.0779 69.678Z" fill="#6B5C5C"></path><path d="M30.8927 69.5999C30.7043 69.6113 30.5171 69.6374 30.3327 69.678H30.2415H30.0592C29.5513 69.8734 29.2127 70.212 29.2127 70.5897V71.8921C29.2064 71.9483 29.2064 72.0051 29.2127 72.0614C29.2127 72.0614 29.2127 72.0614 29.2127 72.1265V72.2046V72.2958L29.3038 72.4L29.4862 72.5302H29.5513L29.6945 72.6084H29.7727L29.968 72.6865H30.0853H30.3067H30.3848H30.6453L30.8927 69.5999Z" fill="#473D3D"></path><path d="M29.8248 69.9124C29.4731 70.1207 29.2127 70.3812 29.2127 70.6808V71.9832C29.2064 72.0394 29.2064 72.0962 29.2127 72.1525C29.2127 72.1525 29.2127 72.1525 29.2127 72.2176V72.2957V72.3869L29.3038 72.4911L29.4862 72.6213H29.5513L29.8248 69.9124Z" fill="#383030"></path><path d="M33.1849 70.6808C33.1849 71.1236 32.7291 71.5013 32.0779 71.6836C31.794 71.7635 31.5002 71.803 31.2053 71.8008C30.9103 71.8038 30.6164 71.7644 30.3327 71.6836C29.6685 71.5013 29.2126 71.1236 29.2126 70.6808C29.2126 70.238 29.5513 69.9645 30.0592 69.7691H30.2415H30.3327C30.6164 69.6884 30.9103 69.6489 31.2053 69.6519C31.5002 69.6498 31.794 69.6892 32.0779 69.7691C32.7291 69.8603 33.1849 70.238 33.1849 70.6808Z" fill="#847271"></path><path d="M32.4165 69.9645V70.6157C32.4165 70.8892 32.143 71.1236 31.7393 71.2408H31.596H30.8016H30.6583H30.5932H30.476H30.3848L30.2806 71.1627C30.2742 71.1282 30.2742 71.0929 30.2806 71.0585V70.4073C30.2806 70.1729 30.489 69.9645 30.8016 69.8473H30.9058C31.0831 69.794 31.2675 69.7676 31.4528 69.7691C31.6336 69.7685 31.8136 69.7949 31.9867 69.8473C32.143 69.4565 32.4165 69.691 32.4165 69.9645Z" fill="#C2C2C2"></path><path d="M31.7393 69.3524V71.2409C32.143 71.1237 32.4165 70.8892 32.4165 70.6157V69.9645C32.4165 69.691 32.143 69.4566 31.7393 69.3524Z" fill="#D4D4D4"></path><path d="M31.01 69.3002C30.8931 69.2866 30.7751 69.2866 30.6583 69.3002H30.5541C30.2415 69.4174 30.0332 69.6258 30.0332 69.8602V70.5114C30.0268 70.5459 30.0268 70.5812 30.0332 70.6156L30.1373 70.6938H30.2285H30.3457H30.4109H30.5541H30.7625L31.01 69.3002Z" fill="#B0B0B0"></path><path d="M30.3588 69.4956C30.26 69.5335 30.1731 69.5968 30.1067 69.6791C30.0404 69.7615 29.997 69.8599 29.9811 69.9645V70.6157C29.9747 70.6501 29.9747 70.6854 29.9811 70.7199L30.0853 70.798L30.3588 69.4956Z" fill="#A1A1A1"></path><path d="M32.4165 69.9645C32.4165 70.238 32.143 70.4725 31.7393 70.5897C31.5619 70.6096 31.3827 70.6096 31.2053 70.5897C31.0236 70.6103 30.8401 70.6103 30.6583 70.5897C30.2546 70.4725 29.9811 70.238 29.9811 69.9645C29.9811 69.691 30.1894 69.5217 30.502 69.4045H30.6062C30.7836 69.3512 30.968 69.3249 31.1532 69.3264C31.3341 69.3258 31.5141 69.3521 31.6872 69.4045C32.143 69.4566 32.4165 69.691 32.4165 69.9645Z" fill="#EDEDED"></path><path d="M31.0751 75.161C39.9183 75.161 47.0945 78.7296 47.0945 83.1317C47.1073 83.3051 47.1073 83.4792 47.0945 83.6526V85.6583H15.0687V83.1317C15.0426 78.7296 22.2188 75.161 31.0751 75.161Z" fill="#616161"></path><path d="M47.1205 85.6453C47.1205 89.2009 42.471 92.1573 36.0502 93.2383C34.4109 93.5153 32.7507 93.6504 31.0881 93.642C29.4 93.6407 27.7146 93.5057 26.0478 93.2383C19.6401 92.1963 15.0166 89.2009 15.0166 85.6453C15.0166 81.2563 22.1797 77.6747 31.036 77.6747C39.8923 77.6747 47.1205 81.2563 47.1205 85.6453Z" fill="#2E2E2E"></path><path d="M36.0632 92.7954C36.0632 92.7954 36.0632 92.9126 36.0632 92.9777C36.0696 93.0645 36.0696 93.1515 36.0632 93.2382C34.4239 93.5153 32.7637 93.6504 31.1011 93.642C29.4087 93.6413 27.7189 93.5063 26.0478 93.2382C26.0414 93.1515 26.0414 93.0645 26.0478 92.9777V87.9766H36.0763L36.0632 92.7954Z" fill="#9E4810"></path><path d="M26.0478 87.9766C26.0478 86.4137 28.288 85.1504 31.062 85.1504C33.8361 85.1504 36.0632 86.4528 36.0632 87.9766C36.0632 89.5004 33.8622 90.8028 31.0881 90.8028C28.314 90.8028 26.0478 89.5395 26.0478 87.9766Z" fill="#6B2500"></path><path d="M31.0751 91.3497C40.283 91.3497 47.7457 87.1299 47.7457 81.9334C47.7586 81.7252 47.7586 81.5164 47.7457 81.3083V78.9509H14.4045V81.9334C14.3914 87.1299 21.8672 91.3497 31.0751 91.3497Z" fill="#FF951A"></path><path d="M14.4044 78.951C14.4044 73.7415 21.8802 69.5217 31.0881 69.5217C40.296 69.5217 47.7717 73.7415 47.7717 78.951C47.7717 84.1606 40.296 88.3673 31.0881 88.3673C21.8802 88.3673 14.4044 84.1476 14.4044 78.951Z" fill="#CC6500"></path><path d="M27.1809 56.3024L32.4165 86.0751L43.3566 79.7715L45.4925 73.2856L41.9891 64.8591L31.7263 52.3431L27.1809 56.3024Z" fill="#8D3D06"></path><path d="M45.3493 58.777C43.7805 55.8962 41.4574 53.4966 38.6289 51.8352L22.2579 42.458L11.3048 48.7616L23.0263 67.9588L30.3327 72.2046L34.6046 79.6022L45.5577 73.2986C48.9048 71.319 48.8397 64.8201 45.3493 58.777Z" fill="#FF951A"></path><path d="M45.727 66.969C45.727 68.8444 45.193 70.1859 44.1771 70.772L41.2858 72.4391L38.681 73.9368C38.7836 73.3565 38.8316 72.7678 38.8243 72.1786C38.7333 69.9132 38.1606 67.6932 37.1442 65.6666C36.9358 65.2368 36.7014 64.807 36.467 64.3642C36.4018 64.247 36.3237 64.1298 36.2456 64.0126C36.0859 63.7234 35.9075 63.445 35.7116 63.179C35.2084 62.4317 34.6512 61.7222 34.0445 61.0561C33.3335 60.2775 32.5435 59.5747 31.6872 58.9593C30.9532 58.43 30.1572 57.9926 29.3168 57.6569L31.7914 56.2243L33.5496 55.2345V55.3387L33.9794 55.0391L34.4873 54.6614L34.7087 54.5051C35.107 54.2847 35.556 54.1724 36.0111 54.1795C36.4538 54.1887 36.8927 54.2634 37.3135 54.4009C38.9245 54.9968 40.3552 55.9969 41.4681 57.3053C41.9902 57.8455 42.4652 58.4293 42.8878 59.0505C43.1482 59.4542 43.4217 59.8579 43.6692 60.2747C44.9024 62.2997 45.6098 64.6009 45.727 66.969Z" fill="#7E1F00"></path><path d="M43.6692 60.2226C42.3159 57.6138 40.1029 55.5527 37.4047 54.3879C36.9844 54.2482 36.5452 54.1735 36.1023 54.1665C35.6472 54.1593 35.1981 54.2716 34.7999 54.4921C34.7166 54.536 34.6381 54.5884 34.5655 54.6483L33.9533 55.1042C33.8405 55.6859 33.6972 56.272 33.5236 56.8624C36.1173 58.0565 38.2423 60.0762 39.5667 62.606C40.827 64.6411 41.5528 66.9617 41.6765 69.3523C41.7653 70.0533 41.6744 70.7652 41.4124 71.4213C41.1504 72.0775 40.7259 72.6562 40.1788 73.1032L44.2292 70.7719C44.7959 70.3275 45.2369 69.743 45.5087 69.0761C45.7805 68.4092 45.8737 67.6829 45.7791 66.969C45.6553 64.5783 44.9295 62.2577 43.6692 60.2226Z" fill="#6E3C00"></path><path d="M17.7386 65.6927L12.0081 74.2624L22.5053 80.3576L32.4165 86.0751L34.5394 79.6022L31.049 71.1627L27.6758 58.1128L11.3048 48.7616L17.7386 65.6927Z" fill="#AC5200"></path><path d="M34.5482 79.6051C37.9619 77.6343 37.8982 71.1332 34.406 65.0846C30.9139 59.036 25.3156 55.7304 21.902 57.7012C18.4884 59.6721 18.5521 66.1731 22.0442 72.2217C25.5364 78.2703 31.1346 81.576 34.5482 79.6051Z" fill="#CC6500"></path><path d="M34.0575 55.0261V61.0431C33.3465 60.2644 32.5565 59.5617 31.7002 58.9463C30.9662 58.417 30.1702 57.9796 29.3299 57.6439L22.6356 32.8984L26.3474 31.7523L34.0575 55.0261Z" fill="#A34200"></path><path d="M22.6225 32.9766L30.0462 28.7568L33.771 27.6107L26.3474 31.8305L22.6225 32.9766Z" fill="#8D3D06"></path><path d="M27.9102 34.7999L29.421 33.9403L33.1328 32.7942L29.0043 35.1385L27.9102 34.7999Z" fill="#8D3D06"></path><path d="M29.421 33.9403L28.7308 30.9058L32.9114 31.583L33.1328 32.7942L29.421 33.9403Z" fill="#A34200"></path><path d="M15.785 20.0438V25.9958L29.2908 33.6408V27.6889L15.785 20.0438Z" fill="#A34200"></path><path d="M15.785 20.0438L19.9266 17.6995L33.4194 25.3445L29.2908 27.6888L15.785 20.0438Z" fill="#CC6500"></path><path d="M1.30239 24.3547C1.30302 24.8578 1.41321 25.3547 1.6253 25.8109C1.83738 26.2671 2.14628 26.6716 2.5305 26.9963C2.91473 27.321 3.36506 27.5582 3.85021 27.6913C4.33535 27.8244 4.84366 27.8502 5.3398 27.767L15.7589 25.9958V20.0438L3.08667 22.1407C2.57426 22.2367 2.11295 22.5124 1.78583 22.9183C1.45871 23.3243 1.28727 23.8336 1.30239 24.3547Z" fill="#A34200"></path><path d="M2.69595 22.2839L5.67843 20.5908C6.44016 20.1524 7.27356 19.8526 8.13995 19.7051L19.9266 17.6995L15.785 20.0438L2.69595 22.2839Z" fill="#C44F00"></path><path d="M29.2908 33.6407V27.6888L33.4324 25.3445L33.4194 31.2964L29.2908 33.6407Z" fill="#FF7C00"></path><path d="M30.6062 28.4572L32.117 27.5977V30.528L30.6062 31.3876V28.4572Z" fill="#361C00"></path><path d="M33.784 27.6107L33.4324 27.8061V31.2574L32.9114 31.5439L33.1329 32.7552L29.0043 35.1646L28.1577 30.8146L26.3344 31.8565L34.0445 61.0561C34.6513 61.7222 35.2084 62.4317 35.7116 63.179C35.9075 63.445 36.0859 63.7234 36.2456 64.0126C36.3237 64.1298 36.4019 64.247 36.467 64.3642C36.7014 64.781 36.9358 65.2108 37.1442 65.6666L41.4551 63.2051V57.3052L33.784 27.6107Z" fill="#FF951A"></path><path d="M7.52782 3.803C9.19489 0.911694 11.8778 -0.6642 13.5058 0.273522C13.5716 0.309383 13.6329 0.353117 13.6881 0.403761L26.7121 7.95763L20.669 18.3768L7.4627 10.7448C5.83472 9.80703 5.86076 6.69431 7.52782 3.803Z" fill="#5C5C5C"></path><path d="M13.6881 0.390721C13.6329 0.340077 13.5716 0.296343 13.5058 0.260482C12.2034 -0.481882 10.3149 0.338625 8.75208 2.10988L19.7312 8.50462L21.7239 5.04026L13.6881 0.390721Z" fill="#727272"></path><path d="M20.6559 18.4158C22.2839 19.3666 24.9668 17.7907 26.6339 14.8994C28.301 12.0081 28.34 8.89536 26.699 7.94461C25.058 6.99387 22.3881 8.58278 20.721 11.4741C19.054 14.3654 19.0279 17.4781 20.6559 18.4158Z" fill="#2B2B2B"></path><path d="M11.4089 5.75656C13.7142 1.7452 17.413 -0.44282 19.6791 0.872596L19.9396 1.04191L37.9517 11.461L29.5773 26.0478L11.3438 15.4203C9.11674 14.0528 9.11674 9.75491 11.4089 5.75656Z" fill="#4C4C4C"></path><path d="M12.1253 4.63654L34.4222 17.6605L37.9517 11.5522L19.9396 1.04194L19.6791 0.872628C17.6344 -0.312548 14.4305 1.30242 12.1253 4.63654Z" fill="#878787"></path><path d="M29.5773 26.0478C31.8435 27.3502 35.5423 25.1622 37.8605 21.1639C40.1788 17.1655 40.2048 12.8546 37.9517 11.5522C35.6986 10.2498 31.9737 12.4378 29.6685 16.4362C27.3632 20.4345 27.3502 24.7454 29.5773 26.0478Z" fill="#6E6E6E"></path><path d="M25.9567 77.1797L30.8537 74.3535C31.9867 73.7023 32.2993 71.9701 31.7914 69.9905C31.7914 69.7821 31.6611 69.5737 31.596 69.3523C31.5309 69.1309 31.5309 69.183 31.5049 69.0918C31.4844 69.0288 31.4582 68.9678 31.4267 68.9095L31.3486 68.7011C31.2704 68.5318 31.1923 68.3495 31.1011 68.1802C31.0718 68.1039 31.0369 68.0299 30.9969 67.9587C30.9318 67.8285 30.8537 67.6983 30.7755 67.568L30.5541 67.1903L30.4239 66.995L30.0983 66.5261L29.955 66.3438L29.8248 66.1875C29.8248 66.1875 29.7076 66.0573 29.6555 65.9791C29.5092 65.809 29.3526 65.6481 29.1866 65.4972C29.1085 65.4061 29.0173 65.3279 28.9391 65.2498L28.4442 64.846L28.2749 64.7158L27.8451 64.4423L27.6498 64.3381C27.4535 64.2267 27.2489 64.1309 27.0377 64.0516H26.8683L26.4906 63.9604C26.3738 63.9476 26.2559 63.9476 26.139 63.9604H25.8785H25.6311H25.5139H25.4357C25.2804 64.0065 25.1316 64.0722 24.9929 64.1558L20.0568 66.9559C19.5428 67.3649 19.1628 67.9182 18.9655 68.5448C18.7683 69.1714 18.7628 69.8426 18.9498 70.4724C18.973 70.6653 19.0078 70.8567 19.054 71.0454C19.054 71.1366 19.054 71.2277 19.054 71.3189C19.2852 72.1632 19.6267 72.9734 20.0699 73.7283C20.5034 74.4913 21.0378 75.1922 21.6588 75.8122C23.1565 77.2448 24.8236 77.8439 25.9567 77.1797Z" fill="#B24700"></path><path d="M21.7109 75.8123L21.6458 75.7341L31.7653 69.8994C31.7597 69.9295 31.7597 69.9605 31.7653 69.9906C32.2733 71.9702 31.9607 73.7024 30.8276 74.3536L25.9306 77.1798C24.8236 77.844 23.1565 77.2449 21.7109 75.8123Z" fill="#A34100"></path><path d="M19.7703 72.934C19.502 72.4342 19.2797 71.9111 19.1061 71.3711C19.1061 71.2799 19.1061 71.1888 19.1061 71.0976C19.0599 70.9088 19.0251 70.7175 19.0019 70.5245C18.8149 69.8948 18.8204 69.2236 19.0176 68.597C19.2149 67.9704 19.5949 67.4171 20.1089 67.0081L24.9929 64.1819C25.1316 64.0983 25.2804 64.0327 25.4357 63.9865H25.579H25.8395H26.0999C26.2168 63.9737 26.3347 63.9737 26.4516 63.9865L26.8293 64.0777H26.9986C27.2087 64.1596 27.4132 64.2553 27.6107 64.3642L27.8061 64.4684L28.2359 64.7419L28.4052 64.8722L28.9001 65.2759L29.1475 65.5234C29.3135 65.6742 29.4701 65.8352 29.6164 66.0052C29.6164 66.0834 29.7336 66.1485 29.7857 66.2136L29.9159 66.3699L30.0592 66.5522L30.2546 66.8388L19.7703 72.934Z" fill="#D65601"></path><path d="M18.9758 69.6649C18.9064 69.1585 18.9696 68.6427 19.159 68.1679C19.3485 67.6931 19.6578 67.2755 20.0568 66.956L24.9408 64.1298C25.0795 64.0462 25.2283 63.9805 25.3836 63.9344H25.5269H25.7874H26.0478C26.1647 63.9216 26.2826 63.9216 26.3995 63.9344L26.7772 64.0256H26.9465C27.1566 64.1075 27.3611 64.2032 27.5586 64.3121L27.754 64.4163H27.8321L18.9758 69.6649Z" fill="#C44F00"></path><path d="M25.9567 77.1798C27.1028 76.5286 27.4153 74.7834 26.8944 72.8168C26.6764 71.9659 26.3387 71.1503 25.8915 70.3943C25.458 69.6314 24.9236 68.9305 24.3026 68.3105C22.857 66.8909 21.1899 66.2918 20.0568 67.0081C19.5428 67.4171 19.1628 67.9705 18.9655 68.597C18.7683 69.2236 18.7628 69.8949 18.9498 70.5246C18.973 70.7175 19.0078 70.9089 19.054 71.0976C19.054 71.1888 19.054 71.28 19.054 71.3711C19.2852 72.2155 19.6267 73.0256 20.0699 73.7806C20.5034 74.5435 21.0378 75.2444 21.6588 75.8644C23.1565 77.2449 24.8236 77.844 25.9567 77.1798Z" fill="#FF761A"></path><path d="M23.8598 75.2131L24.5761 74.7833C25.1883 74.4447 25.3576 73.4809 25.0841 72.465C25.0553 72.3504 25.0205 72.2374 24.9799 72.1264C24.9799 72.1264 24.9799 72.0353 24.9799 71.9832V71.879V71.7748L24.7454 71.5013L24.6803 71.3841C24.6509 71.3121 24.616 71.2424 24.5761 71.1757L24.4459 70.9803L24.3808 70.8631L24.1984 70.6157V70.5245L24.1203 70.4333L23.951 70.3291L23.6905 70.0686C23.6504 70.022 23.6069 69.9785 23.5603 69.9384L23.2998 69.73L23.2086 69.6519L22.9872 69.5086H22.87L22.5444 69.3654H22.4532H22.2579H22.0755H21.6718L21.4374 69.4696L20.708 69.8863C20.4586 70.0946 20.2718 70.368 20.1683 70.6761C20.0649 70.9842 20.0488 71.3149 20.122 71.6315C20.1157 71.7356 20.1157 71.84 20.122 71.9441V72.0874C20.3735 72.9894 20.8483 73.8136 21.5025 74.4838C22.3621 75.2391 23.2477 75.5387 23.8598 75.2131Z" fill="#B24700"></path><path d="M21.5937 74.4838L25.1101 72.4651C25.3836 73.52 25.2143 74.4447 24.6022 74.7833L23.8859 75.2131C23.2477 75.5387 22.3621 75.2392 21.5937 74.4838Z" fill="#A34100"></path><path d="M20.5517 72.9339C20.4156 72.6661 20.3023 72.3873 20.2131 72.1004V71.9571C20.2069 71.853 20.2069 71.7487 20.2131 71.6446C20.113 71.3091 20.1153 70.9515 20.2197 70.6173C20.3241 70.2832 20.5259 69.9879 20.7992 69.7691L21.5285 69.3524L21.763 69.2482H22.1407H22.323H22.5184H22.6095C22.7271 69.2894 22.8405 69.3418 22.9481 69.4045H23.0523L23.2737 69.5477L23.3649 69.6259L23.6254 69.8342C23.672 69.8743 23.7155 69.9179 23.7556 69.9645L24.0161 70.225L24.0942 70.3292L24.1724 70.4203V70.5115L24.2896 70.6678L20.5517 72.9339Z" fill="#D65601"></path><path d="M20.135 71.2017C20.0986 70.9318 20.1322 70.6571 20.2326 70.404C20.3329 70.1508 20.4966 69.9277 20.708 69.7561L21.4374 69.3393L21.6718 69.2351H22.1407H22.323H22.5184H22.6095C22.7271 69.2764 22.8405 69.3287 22.9481 69.3914H23.0523L20.135 71.2017Z" fill="#C44F00"></path><path d="M23.8598 75.2131C24.4589 74.8615 24.6282 73.9107 24.3547 72.8818C24.2376 72.4252 24.0579 71.9869 23.8208 71.5794C23.592 71.1724 23.3071 70.7997 22.9742 70.4724C22.2058 69.717 21.3202 69.3914 20.708 69.7431C20.4322 69.9628 20.2289 70.2603 20.1244 70.5971C20.0199 70.9339 20.019 71.2943 20.122 71.6315C20.1157 71.7356 20.1157 71.84 20.122 71.9441V72.0874C20.3735 72.9894 20.8483 73.8136 21.5025 74.4838C22.3621 75.2391 23.2477 75.5387 23.8598 75.2131Z" fill="#FF8330"></path><path d="M4.24579 28.4703L4.96211 28.0536C5.57423 27.7019 5.74354 26.7512 5.47004 25.7223C5.47004 25.6181 5.47004 25.5009 5.36585 25.3837C5.37104 25.3404 5.37104 25.2967 5.36585 25.2534V25.1492V25.032C5.32778 24.9384 5.28429 24.8471 5.23561 24.7585C5.23991 24.7196 5.23991 24.6802 5.23561 24.6413C5.20616 24.5693 5.17133 24.4997 5.13142 24.4329L5.00118 24.2376C5.00548 24.1986 5.00548 24.1593 5.00118 24.1203L4.83187 23.8859L4.75373 23.7817L4.42813 23.7036L4.33696 23.5864L4.08951 23.3259L3.90717 23.1956L3.64669 22.9873H3.55553L3.33412 22.831H3.22993L2.90433 22.6747H2.81316H2.60478H2.05778C1.97564 22.6936 1.89667 22.7243 1.82334 22.7658L1.09401 23.1826C0.821016 23.4045 0.619729 23.7022 0.51545 24.0382C0.411171 24.3743 0.408554 24.7336 0.507929 25.0711C0.502776 25.1709 0.502776 25.2708 0.507929 25.3706V25.5139C0.625093 25.9705 0.804786 26.4088 1.04191 26.8163C1.27061 27.2233 1.55561 27.596 1.88846 27.9233C2.74804 28.4964 3.63367 28.822 4.24579 28.4703Z" fill="#B24700"></path><path d="M1.97963 27.741L5.48306 25.7092C5.75657 26.7642 5.58725 27.6889 4.97513 28.0405L4.25882 28.4573C3.63367 28.8219 2.74804 28.4963 1.97963 27.741Z" fill="#A34100"></path><path d="M0.950746 26.1781C0.806182 25.9126 0.688386 25.6334 0.5991 25.3446V25.2013C0.593948 25.1015 0.593948 25.0016 0.5991 24.9018C0.499726 24.5643 0.502342 24.2049 0.606621 23.8689C0.7109 23.5329 0.912187 23.2352 1.18518 23.0133L1.91452 22.5965C1.98785 22.555 2.06681 22.5243 2.14895 22.5054H2.60478H2.81317H2.90433L3.22993 22.6617H3.33412L3.55553 22.8179H3.6467L3.90717 23.0263L4.05044 23.1566L4.29789 23.417L4.38906 23.5343L4.45418 23.6124L4.53232 23.7166L4.63651 23.8599L0.950746 26.1781Z" fill="#D65601"></path><path d="M0.520961 24.459C0.485854 24.1892 0.520042 23.9149 0.620302 23.6619C0.720562 23.409 0.88359 23.1858 1.09401 23.0133L1.82335 22.5965C1.89668 22.555 1.97565 22.5243 2.05778 22.5054H2.60479H2.81317H2.90434L3.22994 22.6617H3.33413L0.520961 24.459Z" fill="#C44F00"></path><path d="M4.24579 28.4702C4.85792 28.1186 5.0142 27.1678 4.7407 26.139C4.62354 25.6823 4.44385 25.244 4.20672 24.8366C3.97461 24.4318 3.68996 24.0596 3.36017 23.7295C2.60478 22.9872 1.70613 22.6616 1.09401 23.0132C0.821016 23.2351 0.619729 23.5328 0.51545 23.8688C0.411171 24.2049 0.408554 24.5642 0.507929 24.9017C0.502776 25.0015 0.502776 25.1014 0.507929 25.2012V25.3445C0.625093 25.8011 0.804786 26.2394 1.04191 26.6469C1.27061 27.0539 1.55561 27.4266 1.88846 27.7539C2.74804 28.4963 3.63367 28.8219 4.24579 28.4702Z" fill="#FF8330"></path><path d="M23.0002 24.1334L11.3178 8.13998L12.9067 7.07202L20.174 11.3439L24.6022 21.0988V23.0654L23.0002 24.1334Z" fill="#FF951A"></path><path d="M15.785 20.0438L11.3178 15.3682V8.13989L18.5851 12.4117L23.0002 22.1667V24.1333L15.785 20.0438Z" fill="#A34200"></path><path d="M37.6131 31.9346C35.2391 31.7963 32.9033 31.2729 30.6974 30.3848L31.1793 29.1735C33.784 30.2024 38.3945 31.3485 39.736 30.0852C41.2988 28.6005 41.377 24.55 41.2858 23.1174L42.5882 23.0262C42.5882 23.2607 42.9659 28.8089 40.6346 31.0229C39.7753 31.691 38.6985 32.0159 37.6131 31.9346Z" fill="black"></path><path d="M30.8927 17.0874C32.5598 14.3263 35.1646 12.7113 36.7405 13.636L36.9098 13.7663L53.3981 23.3388L47.4982 33.5626L30.8276 23.8728C29.2387 22.9481 29.2647 19.9135 30.8927 17.0874Z" fill="#313131"></path><path d="M31.0751 16.8008L50.611 28.1707L53.3981 23.3388L36.9228 13.7532L36.7535 13.623C35.1646 12.7504 32.7161 14.17 31.0751 16.8008Z" fill="#4C4C4C"></path><path d="M47.4722 33.5626C49.0741 34.4873 51.6789 32.9375 53.3199 30.1113C54.9609 27.2851 54.9739 24.2505 53.3199 23.3389C51.6659 22.4272 49.1132 23.951 47.4852 26.7772C45.8572 29.6034 45.8833 32.6379 47.4722 33.5626Z" fill="black"></path><path d="M49.6211 28.5223C50.8323 25.4878 53.2027 23.5863 54.9219 24.2765L55.1042 24.3677L60.9519 26.686L56.5629 37.6521L50.5328 35.2427C48.8267 34.5524 48.4099 31.5439 49.6211 28.5223Z" fill="#A34200"></path><path d="M49.7644 28.2098L58.8811 31.8695L60.965 26.6599L55.1172 24.3417L54.9349 24.2505C53.2678 23.6123 51.0147 25.3706 49.7644 28.2098Z" fill="#BA5A00"></path><path d="M56.5759 37.6522C58.282 38.3425 60.6524 36.441 61.8636 33.4064C63.0748 30.3718 62.6711 27.3763 60.965 26.6861C59.2588 25.9958 56.8755 27.9103 55.6642 30.9319C54.453 33.9534 54.8698 36.975 56.5759 37.6522Z" fill="#CC6500"></path><path d="M55.3777 30.9579C56.7973 27.4023 59.5844 25.1752 61.5901 25.9697L61.8115 26.0869L63.9735 26.9986L58.7639 39.8662L56.3675 38.8504C54.4269 38.0429 53.9581 34.5134 55.3777 30.9579Z" fill="#4C4C4C"></path><path d="M55.547 30.5932L61.5641 33.0808L63.9865 26.9986L61.8245 26.0479L61.6031 25.9307C59.6495 25.2013 57.0057 27.2591 55.547 30.5932Z" fill="#878787"></path><path d="M58.8421 39.8662C60.8477 40.6737 63.6349 38.4466 65.0545 34.8911C66.4741 31.3356 66.0052 27.8061 63.9865 26.9986C61.9678 26.1911 59.2067 28.4312 57.7871 31.9868C56.3675 35.5423 56.8364 39.0718 58.8421 39.8662Z" fill="#6E6E6E"></path><path d="M52.9422 33.4975V30.0982C52.9397 29.3792 52.7483 28.6735 52.3872 28.0517C52.026 27.43 51.5078 26.9141 50.8844 26.5557L48.0713 24.9668C47.7068 24.7577 47.2874 24.6644 46.8687 24.6993C46.45 24.7342 46.0518 24.8956 45.727 25.1622L44.7762 25.7613L45.0367 26.165C44.9685 26.3754 44.9333 26.5951 44.9325 26.8162V28.4833C44.9315 29.3352 45.1564 30.1721 45.5843 30.9088C46.0121 31.6455 46.6276 32.2556 47.368 32.677L50.4677 34.4352L51.1189 35.425L52.2389 34.7087L52.3561 34.6306H52.4473C52.6172 34.4975 52.7514 34.3243 52.8378 34.1265C52.9242 33.9287 52.9601 33.7126 52.9422 33.4975Z" fill="#FF951A"></path><path d="M52.9422 33.4975V30.0983C52.9347 29.5152 52.7968 28.9411 52.5385 28.4182L48.0062 31.3225L48.2927 33.198L51.2361 35.3339C51.2361 35.3339 52.9422 34.7088 52.9422 33.4975Z" fill="#D07216"></path><path d="M43.8125 27.5065V29.1736C43.8151 30.023 44.0416 30.8567 44.4692 31.5907C44.8968 32.3247 45.5103 32.933 46.2479 33.3542L49.8165 35.386C50.0199 35.5247 50.2584 35.603 50.5045 35.6117C50.7505 35.6203 50.994 35.5591 51.2067 35.435C51.4193 35.311 51.5925 35.1292 51.706 34.9107C51.8196 34.6923 51.8689 34.4461 51.8482 34.2008V30.8016C51.8471 30.0807 51.6548 29.3731 51.291 28.7508C50.9273 28.1284 50.405 27.6137 49.7774 27.2591L46.9773 25.6701C46.6559 25.4846 46.2912 25.3871 45.92 25.3875C45.5489 25.3879 45.1844 25.4861 44.8634 25.6724C44.5424 25.8587 44.2762 26.1263 44.0917 26.4484C43.9072 26.7704 43.8108 27.1354 43.8125 27.5065Z" fill="#C05F0B"></path><path d="M49.4909 34.0836L50.3765 33.5756C51.1059 33.1589 51.3012 32.0388 50.9756 30.7755C50.9756 30.6452 50.8975 30.502 50.8454 30.3587V30.2024C50.8527 30.1593 50.8527 30.1153 50.8454 30.0722V29.942C50.8454 29.8378 50.7412 29.7206 50.6891 29.6033L50.624 29.4601L50.4807 29.2126C50.4377 29.1317 50.3899 29.0534 50.3374 28.9782C50.3147 28.9299 50.2839 28.8859 50.2463 28.8479C50.1844 28.7431 50.1147 28.6429 50.0379 28.5484L49.9467 28.4312L49.8686 28.327L49.7644 28.1968L49.4648 27.8842L49.2955 27.7279L48.983 27.4674L48.6834 27.3502L48.4229 27.1679L48.2927 27.1027C48.1644 27.0289 48.0292 26.9678 47.889 26.9204H47.7848H47.5373H47.3159H47.1466H46.9903H46.8861C46.7856 26.9459 46.6891 26.9853 46.5996 27.0376L45.727 27.5456C45.3988 27.8114 45.1569 28.1686 45.0317 28.572C44.9065 28.9754 44.9037 29.4068 45.0237 29.8117C45.0112 29.933 45.0112 30.0552 45.0237 30.1764V30.3457C45.1651 30.893 45.3797 31.4187 45.6619 31.9086C45.9429 32.3882 46.2891 32.8266 46.6907 33.211C47.6675 34.1226 48.7355 34.5003 49.4909 34.0836Z" fill="#B24700"></path><path d="M46.7428 33.1979L50.9756 30.7625C50.9756 30.7625 50.9756 30.7625 50.9756 30.8276C51.3012 32.13 51.1059 33.2109 50.3765 33.6277L49.4909 34.1356C48.7355 34.5003 47.6675 34.1226 46.7428 33.1979Z" fill="#A34100"></path><path d="M45.4925 31.3225C45.3228 30.9974 45.1832 30.6573 45.0758 30.3066V30.1373C45.0633 30.0161 45.0633 29.8939 45.0758 29.7727C44.9558 29.3677 44.9586 28.9363 45.0838 28.5329C45.209 28.1296 45.4509 27.7724 45.7791 27.5065L46.6517 26.9986C46.7412 26.9463 46.8377 26.9068 46.9382 26.8813H47.0294H47.1987H47.368H47.5894H47.8369H47.941C48.0825 26.9256 48.2181 26.9868 48.3448 27.0637L48.475 27.1288L48.7355 27.3111L48.8527 27.3893L49.1653 27.6498L49.3346 27.806L49.6342 28.1186L49.7383 28.2489L49.8165 28.3531L49.9077 28.4703L50.0379 28.6526L45.4925 31.3225Z" fill="#D65601"></path><path d="M44.9846 29.2517C44.9402 28.926 44.9803 28.5944 45.1012 28.2887C45.2221 27.9831 45.4197 27.7137 45.6749 27.5065L46.5475 26.9986C46.637 26.9463 46.7335 26.9068 46.834 26.8813H46.9252H47.0945H47.2638H47.4852H47.7327H47.8369C47.9783 26.9256 48.1139 26.9868 48.2406 27.0637L48.3708 27.1288L44.9846 29.2517Z" fill="#C44F00"></path><path d="M49.4909 34.0836C50.2332 33.6538 50.4286 32.5468 50.103 31.2834C49.8079 30.1912 49.2334 29.1947 48.4359 28.3921C47.4982 27.4674 46.4303 27.0897 45.7009 27.5065C45.3728 27.7724 45.1308 28.1296 45.0056 28.5329C44.8805 28.9363 44.8777 29.3677 44.9976 29.7727C44.9852 29.8939 44.9852 30.0161 44.9976 30.1373V30.3066C45.139 30.854 45.3537 31.3797 45.6358 31.8695C45.9168 32.3492 46.2631 32.7875 46.6647 33.1719C47.6675 34.1227 48.7355 34.5003 49.4909 34.0836Z" fill="#A34200"></path><path d="M62.8534 30.7104C61.8897 30.3327 60.5352 31.4137 59.8579 33.1198C59.1807 34.826 59.4021 36.5451 60.3659 36.9358C61.3296 37.3265 62.6841 36.2456 63.3614 34.5264C64.0386 32.8072 63.8172 31.1011 62.8534 30.7104Z" fill="#5A5A5A"></path><path d="M62.8534 30.7104C62.669 30.6698 62.4779 30.6698 62.2934 30.7104C63.0227 31.2965 63.1399 32.8203 62.5278 34.3571C62.3577 34.9371 62.046 35.4657 61.6209 35.8954C61.1958 36.325 60.6705 36.6423 60.0924 36.8186C60.1734 36.89 60.2658 36.9472 60.3659 36.9879C61.3426 37.3786 62.6841 36.2976 63.3614 34.5785C64.0386 32.8593 63.8172 31.1011 62.8534 30.7104Z" fill="#4C4C4C"></path><path d="M64.807 28.3791L64.3512 28.1968C64.1558 28.1186 63.9084 28.1968 63.726 28.5093V28.5875V28.6526V28.7307V28.7959V28.9001C63.7204 28.9302 63.7204 28.9611 63.726 28.9912V29.0954C63.7197 29.1299 63.7197 29.1652 63.726 29.1996V29.3298C63.7314 29.36 63.7314 29.3909 63.726 29.421C63.7305 29.4556 63.7305 29.4906 63.726 29.5252L64.1819 29.7075C64.3512 29.7727 64.5465 29.7075 64.7289 29.4992V29.434C64.8087 29.3233 64.8785 29.2056 64.9373 29.0824C64.9847 28.9522 65.0153 28.8166 65.0284 28.6786C65.1196 28.6526 65.0024 28.4442 64.807 28.3791Z" fill="#999999"></path><path d="M65.1196 29.0304L63.8172 28.5094C63.9995 28.2489 64.247 28.1187 64.4423 28.1968L64.8982 28.3792C65.0024 28.4443 65.1196 28.6527 65.1196 29.0304Z" fill="#ABABAB"></path><path d="M64.8852 29.5512C64.8499 29.6336 64.8063 29.7122 64.7549 29.7857V29.8508C64.5726 30.0331 64.3772 30.1243 64.2079 30.0592L63.6739 29.955C63.6784 29.9204 63.6784 29.8854 63.6739 29.8508C63.6793 29.8206 63.6793 29.7898 63.6739 29.7596V29.6294C63.6676 29.5949 63.6676 29.5596 63.6739 29.5252V29.3689L64.8852 29.5512Z" fill="#878787"></path><path d="M64.5726 29.955C64.5163 30.0131 64.4459 30.0556 64.3683 30.0784C64.2907 30.1012 64.2085 30.1036 64.1298 30.0853L63.6739 29.955C63.6784 29.9204 63.6784 29.8854 63.6739 29.8508L64.5726 29.955Z" fill="#787878"></path><path d="M64.807 28.3791C64.6116 28.301 64.3772 28.3791 64.1819 28.6917C64.0989 28.7981 64.033 28.9167 63.9865 29.0434C63.9351 29.1731 63.9001 29.3087 63.8823 29.4471C63.8823 29.7597 63.8823 30.0201 64.1298 30.0983C64.3772 30.1764 64.4944 30.0983 64.6768 29.8899V29.8248C64.7566 29.7141 64.8264 29.5964 64.8852 29.4731C64.9326 29.343 64.9632 29.2073 64.9763 29.0694C65.1196 28.6526 65.0024 28.4443 64.807 28.3791Z" fill="#C4C4C4"></path><path d="M65.4582 31.531L64.9894 31.3486C64.807 31.2705 64.5596 31.3486 64.3642 31.6612V31.7393V31.8045C64.3605 31.8304 64.3605 31.8567 64.3642 31.8826V31.9477C64.3642 31.9477 64.3642 32.0128 64.3642 32.0389C64.3578 32.0733 64.3578 32.1086 64.3642 32.1431V32.5598C64.357 32.5898 64.357 32.621 64.3642 32.651C64.3642 32.651 64.3642 32.7292 64.3642 32.7552H64.4423L64.8982 32.9375C65.0675 32.9375 65.2629 32.9375 65.4452 32.7292V32.664C65.5256 32.556 65.5913 32.4377 65.6406 32.3124C65.6919 32.1827 65.7269 32.047 65.7447 31.9086C65.7447 31.8696 65.6536 31.5961 65.4582 31.531Z" fill="#999999"></path><path d="M65.7057 32.1821L64.4033 31.6611C64.5986 31.4007 64.8461 31.2704 65.0284 31.3486L65.4973 31.5309C65.6536 31.596 65.7447 31.8695 65.7057 32.1821Z" fill="#ABABAB"></path><path d="M65.2238 33.1198C65.1668 33.1768 65.0963 33.2186 65.019 33.2414C64.9416 33.2641 64.8598 33.2671 64.781 33.25L64.3251 33.0677H64.247C64.247 33.0677 64.247 33.0026 64.247 32.9635L65.2238 33.1198Z" fill="#787878"></path><path d="M65.4582 31.5309C65.2628 31.4527 65.0154 31.5309 64.8331 31.8434C64.7501 31.9498 64.6842 32.0685 64.6377 32.1951C64.5815 32.3232 64.5463 32.4595 64.5335 32.5988C64.5335 32.9114 64.5335 33.1719 64.781 33.25C65.0284 33.3282 65.1456 33.25 65.328 33.0416V32.9765C65.4083 32.8685 65.474 32.7502 65.5233 32.6249C65.5747 32.4951 65.6097 32.3595 65.6275 32.2211C65.7447 31.8695 65.6536 31.596 65.4582 31.5309Z" fill="#C4C4C4"></path><path d="M64.4814 34.7739L64.0126 34.5916C63.8302 34.5134 63.5828 34.6567 63.3874 34.9041V34.9953V35.0735V35.1386C63.3874 35.1386 63.3874 35.1386 63.3874 35.2167V35.3209C63.3937 35.3597 63.3937 35.3993 63.3874 35.4381V35.6205C63.3813 35.6462 63.3813 35.6729 63.3874 35.6986C63.3874 35.6986 63.3874 35.7637 63.3874 35.8028H63.4525L63.8172 36.467C63.9168 36.4883 64.0205 36.4799 64.1154 36.4429C64.2103 36.4058 64.2923 36.3418 64.3512 36.2586L64.4163 36.1805C64.4967 36.0677 64.5623 35.9452 64.6116 35.8158C64.6646 35.6866 64.6996 35.5508 64.7158 35.4121C64.7549 35.1646 64.6768 34.852 64.4814 34.7739Z" fill="#999999"></path><path d="M64.7289 35.4251L63.4265 34.8911C63.6218 34.6436 63.8693 34.5004 64.0516 34.5785L64.5205 34.7608C64.6768 34.852 64.7549 35.1646 64.7289 35.4251Z" fill="#ABABAB"></path><path d="M64.5596 35.9591C64.5243 36.0415 64.4807 36.12 64.4293 36.1935L64.3642 36.2716C64.3027 36.3548 64.2179 36.4178 64.1204 36.4526C64.023 36.4874 63.9175 36.4924 63.8172 36.467L63.3483 36.2847H63.2832C63.2832 36.2847 63.2832 36.2065 63.2832 36.1805C63.2771 36.1548 63.2771 36.128 63.2832 36.1023V35.92C63.2895 35.8812 63.2895 35.8416 63.2832 35.8028V35.6465L64.5596 35.9591Z" fill="#878787"></path><path d="M64.234 36.3628C64.1784 36.413 64.1113 36.4489 64.0386 36.467C63.9659 36.4852 63.8899 36.4852 63.8172 36.4669L63.3483 36.2846H63.2832C63.2832 36.2846 63.2832 36.2065 63.2832 36.1804L64.234 36.3628Z" fill="#787878"></path><path d="M64.4814 34.7739C64.2861 34.6958 64.0386 34.7739 63.8563 35.0865C63.7689 35.1969 63.6987 35.3199 63.6479 35.4512C63.6006 35.5768 63.5699 35.7082 63.5567 35.8419C63.5567 36.1675 63.5567 36.4279 63.8042 36.5061C63.9038 36.5274 64.0075 36.519 64.1024 36.4819C64.1973 36.4449 64.2793 36.3809 64.3382 36.2977L64.4033 36.2196C64.4836 36.1068 64.5493 35.9843 64.5986 35.8549C64.6515 35.7257 64.6866 35.5898 64.7028 35.4512C64.7549 35.1646 64.6768 34.8521 64.4814 34.7739Z" fill="#C4C4C4"></path><path d="M62.3455 37.3265L61.8897 37.1442C61.6943 37.066 61.4599 37.1442 61.2645 37.4567V37.5479V37.626V37.6912V37.7563C61.2662 37.7866 61.2662 37.8171 61.2645 37.8474V37.9516C61.2645 37.9516 61.2645 38.0298 61.2645 38.0558C61.2645 38.0558 61.2645 38.134 61.2645 38.16V38.3033C61.2571 38.3376 61.2571 38.3731 61.2645 38.4075L61.7334 38.5768C61.833 38.6018 61.9379 38.5951 62.0336 38.5578C62.1293 38.5204 62.211 38.4542 62.2674 38.3684V38.3033C62.3503 38.1969 62.4162 38.0783 62.4627 37.9516C62.5082 37.8201 62.543 37.685 62.5669 37.5479C62.632 37.6651 62.5148 37.4046 62.3455 37.3265Z" fill="#999999"></path><path d="M62.606 37.9778L61.3036 37.4568C61.4989 37.1963 61.7334 37.0661 61.9287 37.1442L62.3846 37.3266C62.5148 37.4047 62.632 37.6652 62.606 37.9778Z" fill="#ABABAB"></path><path d="M62.4367 38.4987L62.3064 38.7331V38.7983C62.25 38.8841 62.1683 38.9503 62.0727 38.9876C61.977 39.025 61.8721 39.0316 61.7724 39.0066L61.2124 38.8764C61.205 38.8421 61.205 38.8066 61.2124 38.7722V38.629C61.2124 38.629 61.2124 38.5638 61.2124 38.5248C61.2124 38.5248 61.2124 38.4596 61.2124 38.4206V38.2643L62.4367 38.4987Z" fill="#878787"></path><path d="M62.1111 38.9155C62.0568 38.9724 61.9886 39.0144 61.9133 39.0372C61.838 39.06 61.7581 39.063 61.6813 39.0457L61.2124 38.8764C61.205 38.8421 61.205 38.8066 61.2124 38.7722L62.1111 38.9155Z" fill="#787878"></path><path d="M62.3455 37.3265C62.1632 37.2484 61.9157 37.3265 61.7203 37.6391C61.6373 37.7502 61.5714 37.8731 61.525 38.0038C61.4721 38.1285 61.437 38.26 61.4208 38.3945C61.4208 38.7071 61.4859 38.9806 61.6813 39.0457C61.7809 39.0706 61.8858 39.064 61.9815 39.0267C62.0772 38.9893 62.1589 38.9231 62.2153 38.8373V38.7722C62.2982 38.6658 62.3641 38.5472 62.4106 38.4205C62.4561 38.289 62.4909 38.1539 62.5148 38.0168C62.632 37.6651 62.5148 37.4047 62.3455 37.3265Z" fill="#C4C4C4"></path><path d="M59.6105 37.3265L59.1546 37.1442C58.9593 37.066 58.7248 37.1442 58.5295 37.4567V37.5479V37.626V37.6912V37.7563C58.5312 37.7866 58.5312 37.8171 58.5295 37.8474V37.9516C58.5295 37.9516 58.5295 38.0298 58.5295 38.0558C58.5295 38.0558 58.5295 38.134 58.5295 38.16V38.3033C58.5221 38.3376 58.5221 38.3731 58.5295 38.4075L58.9983 38.5768C59.098 38.6018 59.2029 38.5951 59.2986 38.5578C59.3943 38.5204 59.4759 38.4542 59.5323 38.3684V38.3033C59.6153 38.1969 59.6812 38.0783 59.7277 37.9516C59.7732 37.8201 59.808 37.685 59.8319 37.5479C59.91 37.6651 59.8058 37.4046 59.6105 37.3265Z" fill="#999999"></path><path d="M59.91 37.9778L58.6076 37.4568C58.803 37.1963 59.0374 37.0661 59.2328 37.1442L59.6886 37.3266C59.8058 37.4047 59.91 37.6652 59.91 37.9778Z" fill="#ABABAB"></path><path d="M59.7016 38.4987L59.5714 38.7332V38.7983C59.515 38.8841 59.4333 38.9503 59.3377 38.9876C59.242 39.025 59.1371 39.0316 59.0374 39.0067L58.5686 38.8373C58.5612 38.803 58.5612 38.7675 58.5686 38.7332V38.5899C58.5686 38.5899 58.5686 38.5248 58.5686 38.4857C58.5686 38.4857 58.5686 38.4206 58.5686 38.3815V38.2252L59.7016 38.4987Z" fill="#878787"></path><path d="M59.376 38.9155C59.3217 38.9724 59.2536 39.0144 59.1783 39.0372C59.103 39.06 59.023 39.063 58.9463 39.0457L58.4774 38.8764C58.47 38.8421 58.47 38.8066 58.4774 38.7722L59.376 38.9155Z" fill="#787878"></path><path d="M59.6105 37.3265C59.4281 37.2484 59.1807 37.3265 58.9853 37.6391C58.9023 37.7502 58.8364 37.8731 58.79 38.0038C58.7371 38.1285 58.702 38.26 58.6858 38.3945C58.6858 38.7071 58.6858 38.9806 58.9463 39.0457C59.0459 39.0706 59.1508 39.064 59.2465 39.0267C59.3422 38.9893 59.4238 38.9231 59.4802 38.8373V38.7722C59.5632 38.6658 59.6291 38.5472 59.6756 38.4205C59.7211 38.289 59.7559 38.1539 59.7798 38.0168C59.91 37.6651 59.8058 37.4047 59.6105 37.3265Z" fill="#C4C4C4"></path><path d="M58.79 34.6306L58.3341 34.4482C58.1388 34.3701 57.8913 34.4482 57.709 34.7608C57.6802 34.7855 57.6579 34.8168 57.6439 34.852V34.9301V35.1645C57.6396 35.1948 57.6396 35.2255 57.6439 35.2557V35.3599C57.6383 35.3944 57.6383 35.4296 57.6439 35.4641C57.6439 35.4641 57.6439 35.4641 57.6439 35.5292V35.6595C57.65 35.6851 57.65 35.7119 57.6439 35.7376C57.6495 35.7677 57.6495 35.7986 57.6439 35.8288H57.709L58.1648 35.9981C58.2664 36.0221 58.3728 36.0151 58.4704 35.978C58.5679 35.9408 58.652 35.8752 58.7118 35.7897V35.7246C58.7964 35.6123 58.8664 35.4898 58.9202 35.3599C58.9676 35.2297 58.9983 35.0941 59.0114 34.9562C59.0765 34.9692 58.9853 34.7087 58.79 34.6306Z" fill="#999999"></path><path d="M59.0374 35.2818L57.735 34.7609C57.9174 34.5004 58.1648 34.3702 58.3602 34.4483L58.816 34.6306C58.9853 34.7088 59.0765 34.9693 59.0374 35.2818Z" fill="#ABABAB"></path><path d="M58.8681 35.8028C58.8326 35.8892 58.789 35.972 58.7379 36.0502V36.1153C58.6781 36.2009 58.5939 36.2665 58.4964 36.3036C58.3989 36.3408 58.2924 36.3478 58.1909 36.3237L57.735 36.1544H57.6699C57.6744 36.1198 57.6744 36.0848 57.6699 36.0502C57.676 36.0245 57.676 35.9978 57.6699 35.9721V35.8418C57.6699 35.8418 57.6699 35.8418 57.6699 35.7767C57.6643 35.7422 57.6643 35.707 57.6699 35.6725V35.5162L58.8681 35.8028Z" fill="#878787"></path><path d="M58.6076 36.2196C58.5513 36.2776 58.481 36.3201 58.4034 36.3429C58.3258 36.3658 58.2436 36.3681 58.1648 36.3498L57.709 36.1805H57.6439C57.6484 36.1459 57.6484 36.1109 57.6439 36.0763L58.6076 36.2196Z" fill="#787878"></path><path d="M58.79 34.6306C58.5946 34.5525 58.3602 34.6306 58.1648 34.9432C58.0817 35.0542 58.0159 35.1772 57.9695 35.3078C57.9166 35.4326 57.8815 35.5641 57.8653 35.6986C57.8653 36.0242 57.8653 36.2846 58.1127 36.3498C58.2143 36.3738 58.3207 36.3668 58.4183 36.3297C58.5158 36.2925 58.5999 36.2269 58.6597 36.1414V36.0763C58.7443 35.964 58.8143 35.8414 58.8681 35.7116C58.9156 35.5814 58.9462 35.4458 58.9593 35.3078C59.0765 34.9692 58.9853 34.7087 58.79 34.6306Z" fill="#C4C4C4"></path><path d="M59.91 30.6974L59.4542 30.515C59.2588 30.4369 59.0244 30.5802 58.829 30.8276L58.7639 30.9188V30.9969V31.062L58.6076 31.2574C58.6076 31.2574 58.6076 31.2574 58.6076 31.3355V31.4397C58.6076 31.4397 58.6076 31.5179 58.6076 31.5439V31.609C58.6076 31.609 58.6076 31.6742 58.6076 31.7002V31.8565C58.602 31.8866 58.602 31.9175 58.6076 31.9477L59.0765 32.13C59.1774 32.1482 59.2813 32.1371 59.376 32.0978C59.4707 32.0585 59.5521 31.9929 59.6105 31.9086C59.6105 31.9086 59.6105 31.9086 59.6105 31.8435C59.6908 31.7307 59.7565 31.6082 59.8058 31.4788C59.8513 31.3472 59.8861 31.2122 59.91 31.0751C60.2356 31.036 60.1445 30.7755 59.91 30.6974Z" fill="#999999"></path><path d="M60.2096 31.3486L58.9072 30.8276C59.1025 30.5802 59.337 30.4369 59.5323 30.515L59.9882 30.6974C60.1445 30.7755 60.2356 31.036 60.2096 31.3486Z" fill="#ABABAB"></path><path d="M60.0403 31.8826C60.0403 31.9607 59.9491 32.0519 59.91 32.117C59.91 32.117 59.91 32.117 59.91 32.1822C59.8517 32.2664 59.7703 32.3321 59.6756 32.3714C59.5809 32.4106 59.4769 32.4218 59.376 32.4036L58.9072 32.2212C58.9015 32.1911 58.9015 32.1602 58.9072 32.1301V31.9738C58.9072 31.9738 58.9072 31.9087 58.9072 31.8826V31.8175C58.9072 31.8175 58.9072 31.7524 58.9072 31.7133V31.557L60.0403 31.8826Z" fill="#878787"></path><path d="M59.7147 32.2862C59.6617 32.3455 59.5942 32.3899 59.5188 32.415C59.4434 32.4402 59.3628 32.4452 59.2849 32.4295L58.816 32.2472C58.8104 32.217 58.8104 32.1861 58.816 32.156L59.7147 32.2862Z" fill="#787878"></path><path d="M59.91 30.6974C59.7277 30.6192 59.4802 30.6974 59.2849 31.0099C59.2018 31.121 59.1359 31.2439 59.0895 31.3746C59.0383 31.4999 59.0033 31.6312 58.9853 31.7653C58.9853 32.0909 58.9853 32.3514 59.2458 32.4296C59.3467 32.4478 59.4507 32.4366 59.5453 32.3974C59.64 32.3581 59.7214 32.2924 59.7798 32.2081C59.7798 32.2081 59.7798 32.2081 59.7798 32.143C59.8601 32.0303 59.9258 31.9077 59.9751 31.7784C60.0206 31.6468 60.0554 31.5118 60.0793 31.3746C60.2356 31.036 60.1444 30.7755 59.91 30.6974Z" fill="#C4C4C4"></path><path d="M62.2673 28.1447L61.7985 27.9624C61.6162 27.9624 61.3687 28.0275 61.1733 28.275C61.1793 28.3051 61.1793 28.336 61.1733 28.3661V28.4573V28.5224C61.1733 28.5224 61.1733 28.5224 61.1733 28.6006V28.7178C61.1789 28.7523 61.1789 28.7875 61.1733 28.822V29.0043C61.1672 29.03 61.1672 29.0568 61.1733 29.0825C61.1675 29.1169 61.1675 29.1522 61.1733 29.1867L61.6422 29.369C61.7418 29.3903 61.8455 29.3819 61.9404 29.3448C62.0353 29.3078 62.1173 29.2437 62.1762 29.1606C62.1762 29.1606 62.1762 29.1606 62.1762 29.0955C62.2592 28.9844 62.3251 28.8615 62.3715 28.7308C62.4228 28.6055 62.4578 28.4742 62.4757 28.3401C62.5148 28.4834 62.5148 28.2229 62.2673 28.1447Z" fill="#999999"></path><path d="M62.5148 28.8089L61.2124 28.2749C61.4078 28.0275 61.6552 27.8972 61.8376 27.9623L62.3064 28.1447C62.5148 28.2228 62.5148 28.4833 62.5148 28.8089Z" fill="#ABABAB"></path><path d="M62.3455 29.3298C62.3103 29.4123 62.2666 29.4908 62.2153 29.5643C62.2153 29.5643 62.2153 29.5643 62.2153 29.6294C62.1564 29.7125 62.0744 29.7766 61.9795 29.8136C61.8846 29.8507 61.7809 29.8591 61.6813 29.8378L61.2124 29.6554C61.2066 29.6209 61.2066 29.5857 61.2124 29.5512C61.2063 29.5255 61.2063 29.4988 61.2124 29.4731V29.0433C61.218 29.0088 61.218 28.9736 61.2124 28.9391V28.8219L62.3455 29.3298Z" fill="#878787"></path><path d="M62.0199 29.7466C61.9656 29.8036 61.8975 29.8455 61.8222 29.8683C61.7468 29.8912 61.6669 29.8941 61.5901 29.8769L61.1212 29.6945C61.1154 29.66 61.1154 29.6248 61.1212 29.5903L62.0199 29.7466Z" fill="#787878"></path><path d="M62.2674 28.1446C62.1437 28.1267 62.0175 28.1471 61.9058 28.2029C61.794 28.2588 61.7021 28.3475 61.6422 28.4572C61.5576 28.5695 61.4876 28.692 61.4338 28.8219C61.3851 28.9516 61.3544 29.0875 61.3427 29.2256C61.3427 29.5382 61.3427 29.7987 61.5901 29.8768C61.6897 29.8981 61.7934 29.8897 61.8883 29.8527C61.9832 29.8156 62.0652 29.7516 62.1241 29.6684C62.1241 29.6684 62.1241 29.6684 62.1241 29.6033C62.2072 29.4923 62.273 29.3693 62.3194 29.2386C62.3707 29.1134 62.4057 28.9821 62.4236 28.8479C62.5148 28.4833 62.5148 28.2228 62.2674 28.1446Z" fill="#C4C4C4"></path></g><defs><clipPath id="clip0_5678_17573"><rect width="65.875" height="110" fill="white"></rect></clipPath></defs></svg>