<svg xmlns="http://www.w3.org/2000/svg" width="146" height="110" viewBox="0 0 146 110" fill="none"><g clip-path="url(#clip0_5678_8674)"><path d="M102.476 45.7861L125.895 64.5041L141.361 74.9256L145.021 81.3974L143.572 82.1702L143.175 87.2468L102.68 64.9978L96.3372 47.8898L99.7932 46.1296L102.476 45.7861Z" fill="#FFC523"></path><path d="M99.0204 47.5352L139.923 75.7086L143.572 82.1698L143.175 87.2463L140.932 88.0728L101.371 65.6842L95.7254 60.3608L96.3372 47.8893L99.0204 47.5352Z" fill="#E26600"></path><path d="M145.021 81.397L143.572 82.1697L143.175 87.2463L144.624 86.377L145.021 81.397Z" fill="#FF9A0A"></path><g style="mix-blend-mode:multiply"><path d="M0 53.5137L19.8878 40.7847L46.3118 44.2835L137.465 74.9148L124.672 81.3545L130.038 85.7334L132.957 85.5188L141.973 90.6276L110.708 109.367L99.5892 107.575C99.5892 107.575 92.2158 111.149 84.7995 109.614C82.0723 108.947 79.4188 108.009 76.8787 106.813L68.3569 108.401L47.428 98.8381L34.8815 102.391L5.55957 85.2183L20.9396 78.5532L17.9774 76.997L8.72573 80.9896L5.5059 79.2079L18.3852 73.1869C18.3852 73.1869 3.28422 66.7472 1.78164 65.2876C0.279052 63.8279 0 53.5137 0 53.5137Z" fill="#BBBBBB"></path></g><path d="M51.324 32.1984C51.324 32.338 51.324 32.4775 51.324 32.6278C51.3265 33.3091 51.3659 33.9899 51.4421 34.667L51.8607 34.9353C51.8607 35.2143 51.9358 35.4934 51.9787 35.7832H51.6031C51.757 36.6812 51.9613 37.5698 52.2149 38.4449L52.6227 38.5844C52.7086 38.8849 52.8052 39.1855 52.9125 39.4752L52.5905 39.604C52.9002 40.5134 53.2584 41.4055 53.6638 42.2765H54.0287C54.1682 42.5663 54.3185 42.8668 54.4687 43.1566L54.2219 43.4034C54.6727 44.2621 55.1664 45.1099 55.6923 45.9256L56.0142 45.7968C56.1967 46.0759 56.3792 46.3442 56.5724 46.6125L56.4114 46.9774C56.9659 47.7247 57.5607 48.4413 58.193 49.124L58.4291 48.8771L59.0731 49.564V50.0148C59.6848 50.6439 60.3373 51.2319 61.0264 51.775L61.1767 51.4101C61.4128 51.5925 61.6382 51.7643 61.8743 51.9252V52.4404C62.207 52.6658 62.5398 52.8912 62.8832 53.0951C63.2267 53.299 63.5594 53.4708 63.8921 53.6425L63.9458 53.181C64.1819 53.299 64.4073 53.3956 64.6434 53.4922L64.7936 54.0396C65.2569 54.2271 65.7342 54.3779 66.2211 54.4904L64.3107 56.6369L65.1908 57.0984L67.1441 56.0252L67.3802 56.1218L74.056 53.2132C74.378 53.0629 76.2026 50.9378 76.4601 50.7232V50.6158L77.0826 50.2509C77.5026 49.8412 77.8638 49.3753 78.1559 48.8664L77.9305 48.5015L78.5316 48.1473C78.8027 47.5266 79.0077 46.8791 79.1433 46.2154L78.7677 45.7861V45.6037L79.2721 45.3031C79.3511 44.6766 79.3906 44.0457 79.3902 43.4142C79.3902 43.2639 79.3902 43.1137 79.3902 42.9634L78.9823 42.6307C78.9823 42.4697 78.9823 42.3087 78.9823 42.1477L79.358 41.9223C79.2827 41.0488 79.15 40.1811 78.9609 39.325L78.553 39.1103C78.4994 38.8742 78.435 38.6381 78.3813 38.402L78.6926 38.2088C78.4495 37.2916 78.1557 36.3887 77.8125 35.5041L77.3402 35.4183C77.2329 35.1392 77.1148 34.8602 76.9968 34.5811L77.2758 34.3987C76.8751 33.4971 76.4351 32.617 75.9557 31.7584L75.6015 31.8121C75.462 31.5545 75.301 31.2969 75.1507 31.0393L75.3439 30.7281C74.8304 29.8931 74.2714 29.087 73.6696 28.3132L73.3799 28.4956C73.2081 28.2703 73.0257 28.0449 72.8432 27.8302L72.9505 27.4224C72.3517 26.7081 71.7101 26.0307 71.0294 25.3939L70.6967 25.5871C70.5464 25.4475 70.3854 25.2973 70.2244 25.1685V24.6855C69.577 24.1341 68.8921 23.6285 68.1745 23.1722L67.7881 23.4083C67.688 23.3447 67.584 23.2874 67.4768 23.2366L67.3802 22.7C66.7278 22.3308 66.0413 22.0253 65.3303 21.7877L64.7829 22.1097H64.7292L64.5253 21.5623C63.9016 21.3992 63.2596 21.3162 62.6149 21.3154H61.8851C60.3864 21.9162 58.9211 22.5969 57.4954 23.3547L56.9158 23.6981L50.5835 27.4546L49.3063 30.8032L51.7211 29.2684C51.554 29.8764 51.4391 30.4976 51.3777 31.1252L51.7748 31.5008C51.7748 31.7477 51.7748 31.9945 51.7748 32.2521L51.324 32.1984ZM51.9358 29.1933L52.3329 28.9357C52.3329 29.0752 52.2363 29.2147 52.1934 29.365L51.9358 29.1933Z" fill="#481018"></path><path d="M60.2215 21.9916L56.7977 24.3206L51.1416 27.1111L52.8159 26.6818L58.3647 24.2133L61.8636 21.3154L60.2215 21.9916Z" fill="#4F1F26"></path><path d="M75.9557 31.7583L73.0793 36.1158L66.908 37.1247L68.2281 39.7649L74.4424 38.7346L77.2758 34.3986L76.6426 33.057L75.9557 31.7583Z" fill="#4F1F26"></path><path d="M77.7266 35.5039L74.3887 39.8721L68.6789 40.8703L69.5697 43.5749L75.3117 42.5553L78.6174 38.2086L78.2525 36.9743L77.7266 35.5039Z" fill="#4F1F26"></path><path d="M78.8858 39.314L75.7303 43.6607L69.838 44.6803L70.2352 47.2884L76.1704 46.2473L79.2829 41.922L79.1648 40.7629L78.8858 39.314Z" fill="#4F1F26"></path><path d="M79.3365 42.9634L76.2992 47.2136L70.2888 48.3298L70.1815 50.6695L76.224 49.5318L79.2292 45.3031L79.3473 44.2835L79.3365 42.9634Z" fill="#4F1F26"></path><path d="M79.0682 46.2153L76.4065 49.9933L70.0205 51.5817L69.4087 53.5029L75.9557 51.5388L78.4564 48.1472L78.7999 47.353L79.0682 46.2153Z" fill="#4F1F26"></path><path d="M78.0808 48.8662L75.0863 51.8499L69.0331 54.2219L67.9491 55.6171L74.0345 53.213L77.0075 50.2507L77.5763 49.6712L78.0808 48.8662Z" fill="#4F1F26"></path><path d="M73.6696 28.313L70.804 32.6705L64.6219 33.6794L66.2962 36.0942L72.5105 35.0639L75.3439 30.7279L74.5175 29.4614L73.6696 28.313Z" fill="#4F1F26"></path><path d="M71.0294 25.3936L68.153 29.7511L61.9817 30.7599L63.8921 32.7884L70.1064 31.7581L72.9505 27.422L72.0812 26.4132L71.0294 25.3936Z" fill="#4F1F26"></path><path d="M68.1745 23.1611L65.3088 27.5186L59.1267 28.5275L61.1767 30.0408L67.391 29.0105L70.2244 24.6745L69.3551 23.9446L68.1745 23.1611Z" fill="#4F1F26"></path><path d="M65.3088 21.7661L62.7222 25.3938L56.2611 27.1218L58.3111 28.0448L64.8044 26.2846L67.3588 22.6784L66.4572 22.1954L65.3088 21.7661Z" fill="#4F1F26"></path><path d="M62.5934 21.2832L59.7815 24.2132L53.535 26.6388L55.4561 26.8964L61.5524 24.9001L64.5039 21.5301L63.4521 21.3369L62.5934 21.2832Z" fill="#4F1F26"></path><path d="M52.934 26.7676L48.7589 29.0537L49.8537 30.8031L52.934 29.0215V26.7676Z" fill="#481018"></path><path d="M51.7748 29.0322L47.5998 31.5115L48.7052 33.2502L51.7748 31.4686V29.0322Z" fill="#481018"></path><path d="M51.324 32.1445L47.149 34.6131L48.2437 36.3625L51.324 34.5809V32.1445Z" fill="#481018"></path><path d="M51.5924 35.708L47.4173 38.1873L48.5228 39.926L51.5924 38.1443V35.708Z" fill="#481018"></path><path d="M52.5798 39.5288L48.4047 41.9973L49.5102 43.7468L52.5798 41.9651V39.5288Z" fill="#481018"></path><path d="M70.1815 50.6693C70.2605 50.0428 70.2999 49.4119 70.2995 48.7804C70.2995 48.6301 70.2995 48.4799 70.2995 48.3296L69.8917 47.9969C69.8917 47.7393 69.8917 47.471 69.8917 47.2027L70.2888 47.2885C70.2075 46.4122 70.0749 45.5413 69.8917 44.6805L69.4731 44.4658C69.4195 44.1868 69.3443 43.9077 69.2692 43.6287H69.6234C69.3645 42.6923 69.0528 41.7714 68.6896 40.8703L68.2925 40.7845C68.1745 40.5054 68.0671 40.2264 67.9383 39.9473L68.2281 39.7649C67.8346 38.8633 67.3945 37.9832 66.908 37.1246H66.5538C66.4036 36.867 66.2533 36.5987 66.0923 36.3518L66.2962 36.0406C65.7827 35.2057 65.2237 34.3995 64.6219 33.6257L64.3429 33.8189C64.1568 33.5828 63.9744 33.3574 63.7955 33.1427L63.8921 32.7242C63.297 32.0133 62.659 31.3395 61.9817 30.7064L61.7777 31.0177C61.5845 30.8245 61.3806 30.6527 61.1767 30.481V30.0517C60.53 29.4995 59.845 28.9937 59.1267 28.5384L59.0301 28.9784C58.9228 28.914 58.8262 28.8389 58.7189 28.7853L58.4076 28.6028L58.3111 28.0769C57.6556 27.7108 56.9697 27.402 56.2611 27.1539V27.6476C56.0572 27.5832 55.8533 27.5188 55.6601 27.4759L55.4561 26.9285C54.8281 26.7674 54.1833 26.6809 53.535 26.6709L53.6423 27.2075C53.46 27.1969 53.2772 27.1969 53.0949 27.2075L52.8159 26.6816C52.239 26.7379 51.6743 26.8827 51.1416 27.1109L51.3455 27.6583C51.1866 27.7226 51.0324 27.7979 50.884 27.8837L50.5298 27.4115C50.0412 27.7049 49.5967 28.0663 49.2097 28.4847L49.4887 28.9999C49.3707 29.1394 49.2526 29.279 49.1453 29.4292L48.7589 29.0428C48.3906 29.5522 48.0911 30.108 47.8681 30.6957L48.2115 31.1679C48.1471 31.3611 48.072 31.565 48.0183 31.769L47.5998 31.4899C47.4045 32.1923 47.2716 32.9106 47.2027 33.6365L47.5998 34.0228C47.5998 34.259 47.5998 34.5165 47.5998 34.7634L47.1919 34.6131C47.1919 34.7634 47.1919 34.9029 47.1919 35.0532C47.1659 35.7294 47.1766 36.4066 47.2241 37.0817L47.632 37.3607C47.632 37.6398 47.7071 37.9188 47.7608 38.1979H47.3851C47.5379 39.0926 47.7422 39.9777 47.9969 40.8489L48.4047 40.9991C48.4906 41.2996 48.5872 41.5894 48.6945 41.8899L48.3725 42.008C48.6802 42.9181 49.0385 43.8104 49.4458 44.6805H49.8107C49.9502 44.981 50.1005 45.2708 50.2508 45.5605L50.0039 45.8074C50.4547 46.6768 50.9484 47.5139 51.4743 48.3296L51.7963 48.2115C51.9787 48.4799 52.1612 48.7589 52.3544 49.0165L52.1934 49.3814C52.749 50.1484 53.3437 50.8864 53.975 51.5924L54.2111 51.3455L54.8551 52.0324V52.4832C55.4696 53.1093 56.122 53.6971 56.8085 54.2433L56.9587 53.8784L57.6564 54.3829L57.71 54.898C58.0427 55.1342 58.3754 55.3488 58.7189 55.5527C59.0623 55.7567 59.3951 55.9391 59.7278 56.1001L59.7814 55.6493L60.4791 55.9606L60.6293 56.4972C61.2592 56.7534 61.9138 56.9441 62.5827 57.0661V56.5509C62.7952 56.5918 63.0104 56.6169 63.2267 56.626L63.4628 57.1627C64.0583 57.2073 64.6572 57.1749 65.2444 57.0661L65.0834 56.5187C65.2726 56.4764 65.4589 56.4227 65.6415 56.3577L65.9635 56.8621C66.4899 56.6804 66.9857 56.4198 67.4339 56.0894L67.187 55.5527C67.3372 55.4396 67.4805 55.3178 67.6164 55.1878L67.992 55.6171C68.4119 55.2034 68.7731 54.7339 69.0653 54.2219L68.7433 53.7282C68.8505 53.5478 68.9472 53.3615 69.0331 53.1701L69.4409 53.5135C69.712 52.8928 69.9171 52.2453 70.0527 51.5816L69.677 51.1523C69.677 50.9269 69.7629 50.6908 69.7951 50.4547L70.1815 50.6693Z" fill="#67383F"></path><path d="M69.1619 48.3724C69.1619 55.295 64.3965 58.0319 58.515 54.6082C52.6334 51.1844 47.8681 42.6733 47.8681 35.7507C47.8681 28.8281 52.5905 26.0268 58.515 29.515C64.4395 33.0031 69.1619 41.4391 69.1619 48.3724Z" fill="#5C2930"></path><path d="M66.7363 46.9345C66.7363 52.3009 63.0549 54.4475 58.515 51.7535C53.975 49.0596 50.283 42.5341 50.283 37.1785C50.283 31.8228 53.9643 29.6655 58.515 32.3702C63.0657 35.0748 66.7363 41.5789 66.7363 46.9345Z" fill="#67383F"></path><path d="M65.8669 46.1509C65.8669 50.7982 62.6471 52.6764 58.7189 50.3367C56.6268 48.9247 54.8918 47.0454 53.6512 44.8474C52.4106 42.6493 51.6984 40.1928 51.5709 37.672C51.5709 33.014 54.7907 31.1465 58.7189 33.4862C60.8122 34.897 62.548 36.776 63.7888 38.9743C65.0295 41.1726 65.741 43.6298 65.8669 46.1509Z" fill="#E49A00"></path><path d="M52.1719 38.037C52.2879 40.3448 52.94 42.5939 54.0764 44.6059C55.2128 46.6179 56.8023 48.3375 58.7189 49.6283C62.3358 51.7749 65.2659 50.0576 65.2659 45.7967C65.1474 43.4895 64.4943 41.2413 63.3581 39.2297C62.2219 37.218 60.6337 35.498 58.7189 34.2054C55.102 32.0695 52.1719 33.7761 52.1719 38.037Z" fill="#BB5900"></path><path d="M52.1719 38.037C52.2879 40.3448 52.94 42.5939 54.0764 44.6059C55.2128 46.6179 56.8023 48.3375 58.7189 49.6283C62.3358 51.7749 65.2659 50.0576 65.2659 45.7967C65.1474 43.4895 64.4943 41.2413 63.3581 39.2297C62.2219 37.218 60.6337 35.498 58.7189 34.2054C55.102 32.0695 52.1719 33.7761 52.1719 38.037ZM52.8481 38.2731C52.8481 34.3127 55.5742 32.7135 58.9443 34.7098C60.7292 35.9124 62.2094 37.5143 63.2675 39.3884C64.3257 41.2626 64.9327 43.3574 65.0405 45.507C65.0405 49.4673 62.3144 51.0665 58.9443 49.0702C57.1594 47.8676 55.6792 46.2657 54.6211 44.3916C53.5629 42.5175 52.9559 40.4226 52.8481 38.2731Z" fill="#E28B00"></path><path d="M54.8658 38.4339C54.9616 40.145 55.4523 41.8106 56.2996 43.3003C57.1468 44.79 58.3276 46.0632 59.7492 47.0201C62.2392 48.4905 64.2892 47.5138 64.5897 44.8736C64.5897 44.6589 64.5897 44.4335 64.5897 44.1974C64.4739 41.8427 63.609 39.5865 62.1212 37.7577C61.4561 36.9028 60.6416 36.1755 59.7171 35.6112C57.0553 33.9798 54.8658 35.257 54.8658 38.4339Z" fill="#DA7200"></path><path d="M63.9994 42.9953C63.9994 43.0811 63.9994 43.167 63.9994 43.2529C63.9907 43.6928 63.8844 44.1254 63.6882 44.5193C63.541 44.827 63.3104 45.0873 63.0227 45.2706L61.9495 45.8931C61.3377 46.1829 61.4343 45.5604 60.5327 45.0345C59.5147 44.348 58.6705 43.4339 58.067 42.3646C57.4634 41.2953 57.117 40.1002 57.0553 38.8739C57.0553 37.8006 56.4436 37.5645 57.0553 37.1889L58.2359 36.5127C58.2642 36.5066 58.2935 36.5066 58.3218 36.5127C58.5993 36.4176 58.8929 36.3781 59.1857 36.3965C59.4785 36.4149 59.7649 36.4909 60.0283 36.62L60.5327 36.8776C62.1047 37.9385 63.2464 39.5255 63.7526 41.3532C63.8562 41.7043 63.9316 42.0632 63.978 42.4264C63.9962 42.6155 64.0034 42.8054 63.9994 42.9953Z" fill="#380009"></path><path d="M63.012 43.5748V43.8216C62.9911 44.2565 62.8854 44.6831 62.7007 45.0773C62.1534 46.1506 60.9513 46.4082 59.5561 45.5818C58.5383 44.8976 57.694 43.9855 57.0904 42.9179C56.4868 41.8504 56.1403 40.6568 56.0786 39.4319C56.0169 38.9666 56.0952 38.4935 56.3036 38.0729C56.5119 37.6524 56.8409 37.3034 57.2485 37.0707H57.3344C57.8972 36.8889 58.5085 36.9312 59.0409 37.1888C59.2177 37.26 59.3898 37.3424 59.5561 37.4356C61.128 38.4965 62.2697 40.0835 62.7759 41.9112C62.8799 42.2617 62.9518 42.6209 62.9905 42.9845C63.0089 43.1807 63.016 43.3777 63.012 43.5748Z" fill="#543A3E"></path><path d="M61.606 42.1474C61.6206 42.331 61.5966 42.5156 61.5356 42.6893C61.4746 42.8631 61.378 43.0221 61.2518 43.1563C60.8299 43.4727 60.389 43.763 59.9317 44.0256L57.5383 39.8184C57.5383 39.8184 58.3862 39.3247 58.6116 39.1315C58.7992 38.987 59.0294 38.9087 59.2663 38.9087C59.5031 38.9087 59.7333 38.987 59.921 39.1315C60.4184 39.4671 60.83 39.9149 61.1227 40.4388C61.4154 40.9626 61.5809 41.5479 61.606 42.1474Z" fill="#380009"></path><path d="M60.4361 42.9309C60.4361 44.0042 59.6741 44.4657 58.7511 43.9184C58.2573 43.5865 57.8479 43.144 57.5553 42.626C57.2628 42.108 57.0953 41.5288 57.0661 40.9347C57.0661 39.8614 57.8174 39.3999 58.7511 39.958C59.2429 40.2893 59.651 40.7303 59.9434 41.2462C60.2358 41.7621 60.4045 42.3388 60.4361 42.9309Z" fill="#63474B"></path><path d="M59.5561 42.3623C59.5605 42.4411 59.5484 42.52 59.5207 42.5939C59.493 42.6678 59.4502 42.7352 59.3951 42.7916C59.2568 42.9004 59.1096 42.9974 58.955 43.0814L57.8817 41.2998C58.0021 41.2381 58.117 41.1663 58.2252 41.0851C58.3055 41.0242 58.4035 40.9912 58.5042 40.9912C58.605 40.9912 58.703 41.0242 58.7833 41.0851C59.0044 41.2212 59.1899 41.408 59.3243 41.6302C59.4587 41.8523 59.5382 42.1033 59.5561 42.3623Z" fill="#380009"></path><path d="M59.1697 42.6092C59.1697 43.0707 58.8477 43.2532 58.4506 43.0278C58.2422 42.8862 58.0697 42.6981 57.9467 42.4783C57.8238 42.2584 57.7537 42.0129 57.7422 41.7613C57.7422 41.2998 58.0535 41.1066 58.4506 41.3427C58.6609 41.4831 58.8355 41.6707 58.9604 41.8906C59.0853 42.1106 59.1569 42.3566 59.1697 42.6092Z" fill="#786266"></path><path d="M57.5061 17.3442L50.1112 21.7339L57.7852 23.6122L64.7829 28.721L69.838 35.6651L71.3728 40.7846L78.7677 36.3949L78.6389 34.7313L77.4261 30.8031L72.3924 23.9771L65.4698 18.6429L57.5061 17.3442Z" fill="#4DC8D7"></path><path d="M50.1112 21.7339V22.5496L57.7422 23.7838L64.5683 28.839L69.4946 35.5684L70.8791 40.2801L71.3728 40.7631L71.244 39.0887L70.042 35.1606L65.0083 28.3345L58.0749 23.0218L50.1112 21.7339Z" fill="#005565"></path><path d="M78.6389 34.71L71.244 39.0889L71.3728 40.7632L78.7677 36.3843L78.6389 34.71Z" fill="#279EBE"></path><path d="M77.4261 30.7817L70.042 35.1607L71.244 39.0889L78.6389 34.7099L77.4261 30.7817Z" fill="#3FBADC"></path><path d="M65.4591 18.6429L58.0749 23.0219L50.1112 21.7339L57.5061 17.3442L65.4591 18.6429Z" fill="#FFB828"></path><path d="M72.3924 23.9556L65.0083 28.3345L70.042 35.1606L77.4261 30.7816L72.3924 23.9556Z" fill="#64D2E1"></path><path d="M105.739 17.5588L104.913 18.6321C103.97 19.9276 103.402 21.4573 103.271 23.054V29.5687C103.271 30.8137 104.784 30.9318 105.256 29.2468L105.75 28.4525C106.561 27.3649 106.994 26.042 106.984 24.6853L107.252 18.6213C107.65 17.3119 106.651 16.3675 105.739 17.5588Z" fill="#1F140B"></path><path d="M105.707 18.0309L105.278 18.6212C104.335 19.9167 103.767 21.4465 103.635 23.0431V29.5579C103.635 30.8029 104.376 30.8458 105.278 29.6438L106.115 28.4417C106.916 27.3543 107.342 26.0358 107.328 24.6852V18.106C107.328 16.861 106.619 16.8288 105.707 18.0309Z" fill="#332D28"></path><path d="M104.934 16.8932V28.6993C105.037 28.7233 105.141 28.7412 105.245 28.7529L105.396 28.6456L105.514 28.4739V16.6678C105.538 16.4096 105.483 16.1502 105.357 15.9236C105.231 15.697 105.039 15.5137 104.807 15.3977C104.575 15.2817 104.314 15.2385 104.057 15.2736C103.8 15.3087 103.559 15.4206 103.367 15.5946L99.5463 18.8144L99.879 19.5872L103.614 16.2922C103.729 16.1906 103.871 16.1245 104.023 16.1018C104.174 16.0792 104.329 16.1009 104.469 16.1645C104.609 16.2281 104.727 16.3307 104.809 16.46C104.892 16.5894 104.935 16.7398 104.934 16.8932Z" fill="#312821"></path><path d="M62.411 36.0945L69.9132 27.9912L51.1953 16.3569L40.1834 13.0298L43.4033 24.8573L42.3837 32.1663L56.5616 54.8339L67.3373 48.4586L62.8403 44.2621L62.411 36.0945Z" fill="#E25000"></path><path d="M46.3762 30.3417L55.6171 33.8835L69.9132 27.9912L51.1952 16.3569L40.1834 13.0298L29.4077 19.4158L42.3836 32.1663L46.3762 30.3417Z" fill="#FF9A0A"></path><path d="M55.7459 41.8684L55.6171 33.8833L40.4303 22.7427L29.4078 19.4155L26.4455 34.9029L27.1539 40.3766L50.9055 54.7048L56.5616 54.8336L57.8281 45.5605L55.7459 41.8684Z" fill="#E25D00"></path><path d="M27.1324 35.5898L30.8567 22.0558L39.2282 23.9018L55.703 35.6005L55.6171 33.8833L40.4303 22.7427L29.4078 19.4155L26.4455 34.9029L27.1539 40.3766L27.1324 35.5898Z" fill="#E26900"></path><path d="M25.2434 31.9727V36.7917L25.6942 38.2621L31.3718 41.4604L32.3378 36.9312L32.0373 36.5448L26.1128 33.325L25.2434 31.9727Z" fill="#E24A00"></path><path d="M27.2719 30.5884L25.2434 31.9729L25.6942 33.5184L32.3378 36.9314L31.6187 35.9977L26.746 33.3252L27.2719 30.5884Z" fill="#FF9A0A"></path><path d="M29.1502 45.2815C29.1502 45.421 29.1502 45.5712 29.1502 45.7108C29.1506 46.3925 29.1937 47.0736 29.279 47.75L29.6868 48.0183C29.6868 48.3081 29.7619 48.5871 29.8049 48.8662H29.4292C29.5867 49.7608 29.7946 50.6459 30.0517 51.5172L30.4596 51.6674L30.7493 52.5583L30.4274 52.6763C30.7397 53.5847 31.098 54.4767 31.5006 55.3488H31.8763C32.0158 55.6493 32.1553 55.9391 32.3056 56.2289L32.0587 56.4757C32.504 57.3522 32.9948 58.2049 33.5291 59.0301L33.8404 58.9013C34.0228 59.1804 34.2053 59.4487 34.3985 59.717L34.2482 60.0819C34.8014 60.8342 35.3924 61.5578 36.0191 62.2499L36.266 61.9923C36.4699 62.2285 36.6846 62.4646 36.9099 62.6792V63.13C37.525 63.7595 38.1812 64.3475 38.874 64.8902L39.0243 64.5253C39.2497 64.7077 39.4751 64.8795 39.7112 65.0405V65.5556C40.0439 65.7917 40.3766 66.0064 40.7201 66.2103C41.0635 66.4142 41.407 66.5967 41.7933 66.7577V66.3069C42.0295 66.4142 42.2656 66.5216 42.491 66.6074L42.6412 67.1548C43.105 67.3408 43.5822 67.4915 44.0687 67.6056L42.169 69.7521L43.0383 70.2136L45.0024 69.1404L45.2278 69.237L51.8821 66.3606C52.1934 66.2103 54.0287 64.0852 54.2755 63.8813V63.7633L54.8873 63.3983C55.3065 62.9879 55.6676 62.5221 55.9606 62.0138L55.7245 61.6489L56.3255 61.2947C56.5818 60.6732 56.769 60.0253 56.8836 59.3628L56.508 58.9335V58.7403L57.0017 58.4398C57.0861 57.8138 57.1255 57.1825 57.1197 56.5508V56.1108L56.7655 55.8103V55.3166L57.1412 55.0912C57.0703 54.2171 56.9376 53.3492 56.7441 52.4939L56.3362 52.2792C56.2826 52.0431 56.2289 51.807 56.1645 51.5708L56.4758 51.3777C56.2311 50.461 55.9374 49.5581 55.5957 48.673L55.1986 48.5979C55.0912 48.3188 54.9732 48.0398 54.8551 47.7607L55.1342 47.5675C54.7431 46.6656 54.3061 45.7844 53.8248 44.9273L53.4706 44.9809L53.0091 44.2082L53.2023 43.8969C52.6851 43.0549 52.1226 42.2416 51.5172 41.4606L51.2167 41.6323C51.045 41.4069 50.8625 41.1815 50.6801 40.9669L50.7874 40.559C50.1858 39.8472 49.5444 39.1699 48.8662 38.5306L48.5443 38.7237L48.072 38.3052V37.8222C47.426 37.269 46.7409 36.7633 46.0221 36.3089L45.6142 36.4913L45.3137 36.3196L45.2064 35.783C44.5517 35.4182 43.8656 35.1129 43.1564 34.8707L42.609 35.1927L42.4158 34.6453C41.7875 34.4874 41.1426 34.4045 40.4947 34.3984H39.7649C38.2441 35.0167 36.7573 35.7153 35.3108 36.4913L34.7205 36.8455L28.3774 40.602L27.1539 43.9828L29.5687 42.448C29.4044 43.0712 29.2895 43.7064 29.2253 44.3477L29.6224 44.7233C29.6224 44.9702 29.6224 45.2171 29.6224 45.4746L29.1502 45.2815ZM29.7619 42.2763L30.159 42.0187C30.159 42.1582 30.0624 42.2977 30.0195 42.448L29.7619 42.2763Z" fill="#481018"></path><path d="M38.0584 35.1283L34.6346 37.4573L28.9677 40.2478L30.642 39.8185L36.1909 37.35L39.6897 34.4521L38.0584 35.1283Z" fill="#4F1F26"></path><path d="M53.7926 44.895L50.9162 49.2525L44.7341 50.2614L46.0543 52.9017L52.2685 51.8713L55.102 47.5353L54.4795 46.1937L53.7926 44.895Z" fill="#4F1F26"></path><path d="M55.5635 48.6406L52.2256 53.0089L46.5158 54.007L47.3958 56.7117L53.1379 55.7028L56.4436 51.3453L56.0894 50.1217L55.5635 48.6406Z" fill="#4F1F26"></path><path d="M56.7119 52.4619L53.5672 56.8087L47.6642 57.8283L48.0613 60.4256L53.9965 59.3845L57.109 55.0592L56.9909 53.9001L56.7119 52.4619Z" fill="#4F1F26"></path><path d="M57.1734 56.1001L54.1253 60.361L48.1149 61.4665L48.0076 63.8062L54.0502 62.6793L57.0553 58.4398L57.1734 57.431V56.1001Z" fill="#4F1F26"></path><path d="M56.9051 59.3628L54.2326 63.13L47.8466 64.7184L47.2348 66.6503L53.7926 64.6755L56.2826 61.284L56.626 60.4897L56.9051 59.3628Z" fill="#4F1F26"></path><path d="M55.9177 62.0029L52.9125 64.9866L46.8592 67.3693L45.7859 68.7538L51.8714 66.3604L54.8336 63.3875L55.4132 62.8079L55.9177 62.0029Z" fill="#4F1F26"></path><path d="M51.5065 41.4604L48.6301 45.8179L42.4588 46.8161L44.1224 49.231L50.3366 48.2006L53.1701 43.8646L52.3437 42.5981L51.5065 41.4604Z" fill="#4F1F26"></path><path d="M48.8555 38.5308L45.9791 42.8883L39.8078 43.8971L41.7289 45.9256L47.9325 44.8953L50.7767 40.5593L49.9073 39.5504L48.8555 38.5308Z" fill="#4F1F26"></path><path d="M46.0113 36.3091L43.1349 40.6558L36.9636 41.6647L39.0028 43.178L45.2171 42.1584L48.0613 37.8117L47.1812 37.0926L46.0113 36.3091Z" fill="#4F1F26"></path><path d="M43.1349 34.9028L40.5484 38.5305L34.0872 40.2692L36.1372 41.1815L42.6412 39.4213L45.1849 35.8151L44.2941 35.3321L43.1349 34.9028Z" fill="#4F1F26"></path><path d="M40.4196 34.4199L37.6076 37.35L31.3718 39.7863L33.293 40.0332L39.3785 38.0369L42.3407 34.6668L41.2782 34.4736L40.4196 34.4199Z" fill="#4F1F26"></path><path d="M30.7601 39.9043L26.585 42.2011L27.6905 43.9398L30.7601 42.1582V39.9043Z" fill="#481018"></path><path d="M29.6009 42.1689L25.4259 44.6482L26.5314 46.3869L29.6009 44.6053V42.1689Z" fill="#481018"></path><path d="M29.1502 45.2812L24.9751 47.7498L26.0806 49.4992L29.1502 47.7176V45.2812Z" fill="#481018"></path><path d="M29.4185 48.8555L25.2434 51.324L26.3489 53.0734L29.4185 51.2811V48.8555Z" fill="#481018"></path><path d="M30.4059 52.6655L26.2309 55.1448L27.3363 56.8835L30.4059 55.1019V52.6655Z" fill="#481018"></path><path d="M48.0076 63.806C48.0866 63.1795 48.126 62.5486 48.1257 61.9171C48.1257 61.7668 48.1257 61.6166 48.1257 61.4663L47.7178 61.1765C47.7178 60.9189 47.7178 60.6506 47.6642 60.3823L48.0613 60.4682C47.9859 59.5946 47.8533 58.727 47.6642 57.8708L47.2563 57.6562C47.1919 57.3771 47.1275 57.0873 47.0524 56.8083H47.3958C47.1528 55.8911 46.859 54.9882 46.5158 54.1036L46.1508 53.9212C46.0435 53.6421 45.9255 53.3631 45.8074 53.084L46.0864 52.9016C45.6929 52 45.2529 51.1199 44.7663 50.2613L44.4229 50.315L43.9614 49.5422L44.1545 49.231C43.6409 48.3986 43.0857 47.5926 42.491 46.8161L42.2012 47.0093L41.6538 46.3331L41.7611 45.9253C41.1623 45.211 40.5207 44.5336 39.84 43.8968L39.6361 44.208L39.035 43.6714V43.1777C38.3893 42.6289 37.7081 42.1234 36.9958 41.6644L36.8885 42.0829L36.545 41.8576C36.4449 41.794 36.341 41.7366 36.2338 41.6858L36.1372 41.1492C35.4825 40.7844 34.7964 40.4791 34.0872 40.2369V40.7843L33.4862 40.6126L33.2715 40.033C32.643 39.8758 31.9982 39.7929 31.3504 39.7861L31.447 40.3228H30.8996L30.6205 39.7969C30.0451 39.861 29.4815 40.0055 28.9462 40.2262L29.1502 40.7735L28.6886 41.0097L28.3345 40.5374C27.843 40.8268 27.398 41.1887 27.0143 41.6107L27.3041 42.1366C27.1813 42.2691 27.0666 42.4088 26.9607 42.5552L26.5636 42.1795C26.2011 42.6926 25.902 43.2475 25.6727 43.8324L26.0269 44.2939C25.9518 44.4871 25.8874 44.691 25.823 44.9057L25.4044 44.6266C25.2095 45.3291 25.0766 46.0474 25.0073 46.7732L25.4044 47.1595C25.4044 47.4064 25.4044 47.6532 25.4044 47.9001L24.9966 47.7498C24.9966 47.9001 24.9966 48.0396 24.9966 48.1899C24.9977 48.8716 25.0407 49.5526 25.1254 50.2291L25.5332 50.4974C25.5332 50.7765 25.6083 51.0555 25.6513 51.3453H25.2756C25.4284 52.24 25.6327 53.1251 25.8874 53.9963L26.2952 54.1466L26.585 55.0374L26.263 55.1662C26.5755 56.071 26.9337 56.9594 27.3363 57.8279H27.712C27.8515 58.1177 27.991 58.4075 28.1413 58.6972L27.8944 58.9548C28.3442 59.8171 28.8386 60.6554 29.3755 61.4663L29.6868 61.3482C29.8693 61.6273 30.0517 61.8956 30.2449 62.1639L30.0946 62.5288C30.6467 63.2922 31.2378 64.0266 31.8655 64.7291L32.1124 64.4822C32.3163 64.7183 32.531 64.9437 32.7564 65.1691L32.7027 65.6199C33.3233 66.2436 33.9791 66.8313 34.6668 67.38L34.817 67.0151C35.0424 67.1976 35.2678 67.3586 35.5039 67.5303V68.0455C35.8367 68.2709 36.1694 68.4963 36.5128 68.7002C36.8563 68.9041 37.189 69.0758 37.5861 69.2368V68.786C37.8222 68.9041 38.0583 69.0007 38.2837 69.0973L38.434 69.6339C39.067 69.8916 39.7253 70.0822 40.3981 70.2028V69.6876C40.6127 69.6876 40.8274 69.752 41.0421 69.7735L41.2889 70.3101C41.8813 70.3562 42.4773 70.3201 43.0598 70.2028L42.8988 69.6554L43.4569 69.5051L43.7789 69.9988C44.3053 69.8171 44.8011 69.5565 45.2493 69.2261L44.9702 68.6894C45.1242 68.5769 45.2712 68.455 45.4103 68.3245L45.7859 68.7538C46.2059 68.3441 46.5671 67.8782 46.8592 67.3693L46.548 66.8649C46.6445 66.6931 46.7411 66.5107 46.827 66.3175L47.2348 66.6502C47.5059 66.0295 47.711 65.382 47.8466 64.7183L47.471 64.289C47.5262 64.0589 47.5692 63.826 47.5998 63.5914L48.0076 63.806Z" fill="#411018"></path><path d="M46.988 61.5096C46.988 68.443 42.2227 71.2335 36.3411 67.7454C30.4596 64.2572 25.6942 55.8105 25.6942 48.8879C25.6942 41.9653 30.4596 39.164 36.3411 42.6522C42.2227 46.1403 46.988 54.587 46.988 61.5096Z" fill="#5C2930"></path><path d="M44.5731 60.1034C44.5731 65.4698 40.8811 67.6163 36.3411 64.9224C31.8012 62.2285 28.1091 55.703 28.1091 50.358C28.1091 45.0131 31.8012 42.8451 36.3411 45.539C40.8811 48.233 44.5731 54.737 44.5731 60.1034Z" fill="#67383F"></path><path d="M43.7038 59.2984C43.7038 63.9564 40.484 65.8239 36.545 63.4841C34.4517 62.0734 32.7159 60.1944 31.4752 57.9961C30.2344 55.7978 29.5229 53.3406 29.397 50.8195C29.397 46.1722 32.6168 44.294 36.545 46.6337C38.6386 48.0451 40.3751 49.924 41.6176 52.122C42.86 54.32 43.5742 56.7769 43.7038 59.2984Z" fill="#E49A00"></path><path d="M30.0517 51.1847C30.1702 53.492 30.8233 55.7402 31.9595 57.7518C33.0957 59.7634 34.6839 61.4834 36.5987 62.7761C40.2156 64.9227 43.1457 63.2054 43.1457 58.9445C43.0297 56.6367 42.3776 54.3876 41.2412 52.3756C40.1048 50.3636 38.5153 48.644 36.5987 47.3531C32.9281 45.2066 30.0517 46.9238 30.0517 51.1847Z" fill="#BB5900"></path><path d="M30.0517 51.1847C30.1702 53.492 30.8233 55.7402 31.9595 57.7518C33.0957 59.7634 34.6839 61.4834 36.5987 62.7761C40.2156 64.9227 43.1457 63.2054 43.1457 58.9445C43.0297 56.6367 42.3776 54.3876 41.2412 52.3756C40.1048 50.3636 38.5153 48.644 36.5987 47.3531C32.9281 45.2066 30.0517 46.9238 30.0517 51.1847ZM30.7279 51.4209C30.7279 47.4497 33.454 45.8506 36.8241 47.8469C38.609 49.0495 40.0892 50.6513 41.1473 52.5255C42.2055 54.3996 42.8125 56.4945 42.9203 58.644C42.9203 62.6151 40.1942 64.2143 36.8241 62.218C35.0298 61.0206 33.5397 59.4212 32.4721 57.5468C31.4045 55.6725 30.7889 53.5749 30.6742 51.4209H30.7279Z" fill="#E28B00"></path><path d="M32.692 51.571C32.7784 53.2904 33.2636 54.9661 34.1093 56.4657C34.955 57.9652 36.138 59.2474 37.5646 60.2109C40.0546 61.692 42.1046 60.7046 42.4051 58.0644C42.4051 57.8497 42.4051 57.6243 42.4051 57.3882C42.2923 55.0329 41.4271 52.7758 39.9366 50.9485C39.2686 50.0963 38.4546 49.3695 37.5324 48.802C34.8815 47.1169 32.692 48.4049 32.692 51.571Z" fill="#DA7200"></path><path d="M38.713 50.7765C38.713 51.2916 38.3589 51.5063 37.9188 51.2487C37.69 51.0893 37.5005 50.8798 37.3647 50.6362C37.229 50.3925 37.1505 50.1212 37.1353 49.8427C37.1353 49.3275 37.4895 49.1129 37.9188 49.3812C38.1512 49.5354 38.3441 49.742 38.482 49.9843C38.6199 50.2266 38.6991 50.498 38.713 50.7765Z" fill="#380009"></path><path d="M36.0621 49.6924C36.3733 50.2505 36.3733 50.8408 36.0621 51.0233C35.7508 51.2057 35.2464 50.9052 34.9888 50.3578C34.7312 49.8105 34.6775 49.2094 34.9888 49.0377C35.3 48.866 35.7508 49.145 36.0621 49.6924Z" fill="#380009"></path><path d="M34.4844 51.3132C34.7152 51.4715 34.9067 51.6805 35.0444 51.9242C35.1821 52.1679 35.2622 52.4398 35.2786 52.7192C35.2786 53.2344 34.9137 53.4383 34.4844 53.1807C34.252 53.0265 34.0591 52.82 33.9212 52.5776C33.7832 52.3353 33.7041 52.064 33.6901 51.7855C33.6901 51.2596 34.0443 51.0556 34.4844 51.3132Z" fill="#380009"></path><path d="M34.8922 54.7368C35.2034 54.5651 35.7079 54.8549 36.0191 55.4023C36.3304 55.9496 36.3304 56.5399 36.0191 56.7224C35.7079 56.9048 35.2034 56.6151 34.8922 56.057C34.5809 55.4988 34.5917 54.8656 34.8922 54.7368Z" fill="#380009"></path><path d="M37.0709 57.8388C37.0709 57.3236 37.4251 57.109 37.8544 57.3773C38.0868 57.5315 38.2797 57.738 38.4176 57.9804C38.5556 58.2227 38.6347 58.494 38.6487 58.7725C38.6487 59.2877 38.2945 59.5024 37.8544 59.2448C37.6256 59.0854 37.4361 58.8759 37.3003 58.6323C37.1646 58.3886 37.0861 58.1173 37.0709 57.8388Z" fill="#380009"></path><path d="M39.7112 58.9229C39.3999 58.3755 39.3999 57.7852 39.7112 57.6027C40.0224 57.4203 40.5161 57.7208 40.7845 58.2682C41.0528 58.8155 41.0957 59.4058 40.7845 59.5883C40.4732 59.7707 40.0332 59.4702 39.7112 58.9229Z" fill="#380009"></path><path d="M41.2996 57.3021C41.0671 57.1456 40.8742 56.937 40.7363 56.693C40.5985 56.4489 40.5194 56.1761 40.5054 55.8961C40.5054 55.3809 40.8596 55.177 41.2996 55.4346C41.5379 55.5953 41.7343 55.8107 41.8725 56.0627C42.0106 56.3148 42.0865 56.5962 42.0939 56.8835C42.0939 57.3557 41.7397 57.5597 41.2996 57.3021Z" fill="#380009"></path><path d="M40.8811 53.932C40.5805 54.1145 40.0761 53.814 39.8078 53.2666C39.5395 52.7192 39.4965 52.1289 39.8078 51.9465C40.119 51.764 40.6235 52.0645 40.8811 52.6119C41.1386 53.1593 41.1923 53.7496 40.8811 53.932Z" fill="#380009"></path><path d="M40.28 55.5098C40.2981 55.7605 40.2635 56.0123 40.1784 56.2489C40.0934 56.4855 39.9598 56.7016 39.7863 56.8836C39.209 57.3207 38.603 57.7187 37.9725 58.0749L34.699 52.3221C35.2092 52.03 35.7036 51.7112 36.1801 51.3669C36.4443 51.1804 36.762 51.0847 37.0853 51.0944C37.4086 51.1041 37.7199 51.2186 37.9725 51.4206C38.647 51.8774 39.2065 52.4845 39.6069 53.194C40.0072 53.9035 40.2377 54.6962 40.28 55.5098Z" fill="#380009"></path><path d="M38.6379 56.5615C38.6379 58.0641 37.5646 58.708 36.3304 57.9138C35.6552 57.4576 35.0954 56.8507 34.6949 56.141C34.2945 55.4314 34.0644 54.6384 34.0228 53.8246C34.0228 52.3328 35.0961 51.6781 36.3304 52.483C37.0047 52.9376 37.5641 53.5426 37.9646 54.2504C38.365 54.9582 38.5955 55.7494 38.6379 56.5615Z" fill="#4F1F26"></path><path d="M38.1335 56.4329C38.1335 57.6564 37.2856 58.1501 36.2552 57.5061C35.7048 57.1409 35.246 56.6536 34.9146 56.0821C34.5833 55.5106 34.3883 54.8704 34.3448 54.2112C34.3448 52.9876 35.1927 52.4939 36.2338 53.1379C36.7823 53.5043 37.239 53.9921 37.5684 54.5635C37.8979 55.135 38.0912 55.7746 38.1335 56.4329Z" fill="#5C2930"></path><path d="M35.3322 30.4917L27.9052 34.8707L35.5791 36.7167L42.609 41.8577L47.6642 48.8018L49.199 53.9428L56.5938 49.5638L56.465 47.8895L55.263 43.9613L50.2293 37.1031L43.2959 31.7367L35.3322 30.4917Z" fill="#FFC523"></path><path d="M27.9481 34.8706V35.6863L35.5683 36.9313L42.4051 41.9864L47.3207 48.7051L48.7052 53.4168L49.1989 53.8998L49.0809 52.2255L47.8681 48.2973L42.8344 41.482L35.9011 36.1585L27.9481 34.8706Z" fill="#E25000"></path><path d="M56.465 47.8467L49.0809 52.2256L49.1989 53.9L56.5938 49.521L56.465 47.8467Z" fill="#FF9A0A"></path><path d="M55.263 43.9185L47.8681 48.2974L49.0809 52.2256L56.465 47.8466L55.263 43.9185Z" fill="#FFB828"></path><path d="M43.2959 31.7796L35.9011 36.1586L27.9481 34.8707L35.3322 30.4917L43.2959 31.7796Z" fill="#FFB828"></path><path d="M50.2293 37.103L42.8344 41.482L47.8681 48.2973L55.263 43.9183L50.2293 37.103Z" fill="#FFD02D"></path><path d="M77.19 34.7851L76.5997 34.4416L75.462 26.3491H75.9128L82.4383 30.2129L86.5382 38.0693L94.8346 42.9849L95.1995 42.3409L97.711 43.8435L98.6662 44.4016L96.8524 46.4408L77.19 34.7851Z" fill="#0BBCD3"></path><path d="M81.9339 66.5111L81.3543 59.1377L83.9087 58.1824L84.1877 57.4848L61.5738 44.0903L62.851 47.7395L63.6667 57.5707L67.8525 63.5273L81.9339 66.5111Z" fill="#0093A6"></path><path d="M58.2681 60.1998L75.6123 70.4818L79.6263 69.43L93.9223 60.3823L95.822 58.0318V52.483L74.5605 52.9767L58.2681 52.0107V60.1998Z" fill="#380009"></path><path d="M58.2681 55.2201L75.6123 64.9332L77.4476 65.4484L93.171 55.7567L95.822 52.4832L80.6674 45.625L74.5605 47.4174L58.2681 52.011V55.2201Z" fill="#2E0008"></path><path d="M56.8729 68.7861L56.2933 68.4427L60.0712 51.0234L60.6508 51.3669L56.8729 68.7861Z" fill="#E26400"></path><path d="M56.8729 68.7865L57.9676 68.2498L61.7348 50.8306L60.6508 51.3672L56.8729 68.7865Z" fill="#953E00"></path><path d="M64.901 64.5467L58.472 60.7366L58.515 59.8994L64.9546 63.7203L64.901 64.5467Z" fill="#2E0008"></path><path d="M64.7185 64.3751L58.7833 60.8548L58.7618 60.6294L64.6971 64.1497L64.7185 64.3751Z" fill="#E68D00"></path><path d="M64.901 64.547L67.6808 62.4541L67.7237 61.896L64.9546 63.7206L64.901 64.547Z" fill="#380009"></path><path d="M64.9546 63.7201L58.515 59.8993L61.2948 58.0854L67.7237 61.8956L64.9546 63.7201Z" fill="#67383F"></path><path d="M62.7544 72.9183L56.3148 69.0974L56.3684 68.271L62.7973 72.0811L62.7544 72.9183Z" fill="#2E0008"></path><path d="M62.5612 72.736L56.626 69.2264L56.6153 69.001L62.5505 72.5213L62.5612 72.736Z" fill="#E68D00"></path><path d="M62.7544 72.9186L65.5235 70.8257L65.5771 70.2568L62.7974 72.0814L62.7544 72.9186Z" fill="#380009"></path><path d="M62.7974 72.081L56.3684 68.2709L59.1375 66.4463L65.5771 70.2564L62.7974 72.081Z" fill="#67383F"></path><path d="M63.9565 72.9828L65.0405 72.4461L68.8184 55.0269L67.7237 55.5635L63.9565 72.9828Z" fill="#953E00"></path><path d="M63.9565 72.9829L63.3769 72.6395L67.1441 55.2202L67.7237 55.5637L63.9565 72.9829Z" fill="#E26400"></path><path d="M104.376 52.7192L69.7415 73.251V78.7354L104.376 58.2037V52.7192Z" fill="#D75800"></path><path d="M100.577 50.251L70.0527 68.3464L69.7415 73.2513L104.376 52.7195L100.577 50.251Z" fill="#FFB828"></path><path d="M56.7011 52.0648L75.0541 62.9478L77.512 63.2913L99.3531 49.8538L99.5678 47.6107L99.5892 44.305L74.1741 42.4482L56.7011 48.2332V52.0648Z" fill="#D75800"></path><path d="M77.512 63.2912L75.0542 62.9478V59.1055L77.512 59.4597V63.2912Z" fill="#E96F00"></path><path d="M56.7012 48.2331L75.0542 59.1054L77.512 59.4595L99.4068 46.3119L99.5892 44.3049L81.2255 33.4219L74.1741 35.504L55.9821 46.709L56.7012 48.2331Z" fill="#FFB828"></path><path d="M79.7873 58.0857L61.5738 44.0901L60.5757 41.0957L98.0866 44.3799L96.3157 48.1686L79.7873 58.0857Z" fill="#E26C00"></path><path d="M75.462 3.18763V0.504439L76.2348 0L83.2969 2.08215L101.478 13.2872L102.949 16.3782L102.358 18.6535L100.48 15.4874L84.7995 5.97814L76.6748 3.00517L76.3743 3.735L75.462 3.18763Z" fill="#0BBCD3"></path><path d="M76.3743 3.7352L75.9128 26.3491L82.4383 30.2129L75.462 36.7706L77.2114 43.2317L79.3473 54.7265L97.711 43.8435L99.8039 36.2125L101.779 18.1278L100.48 15.4876L84.0267 4.87287L76.6748 3.00537L76.3743 3.7352Z" fill="#67383F"></path><path d="M101.586 19.5764L98.1403 18.7178L94.9527 41.0634L97.9793 42.8557L99.7395 36.4376L101.586 19.5764Z" fill="#7E7E7E"></path><path d="M96.3265 22.5063L94.0189 38.0259L90.2625 40.2798L86.5382 38.0688L83.1788 31.275L83.2862 30.2339L96.3265 22.5063Z" fill="#7E7E7E"></path><path d="M97.7217 40.1621L96.7987 37.7365L91.3894 34.5918L83.0608 39.1854L81.6763 46.6447L79.68 53.5136L80.764 52.0111L97.7217 40.1621Z" fill="#784A51"></path><path d="M83.2862 30.234L101.639 19.351L101.779 18.1274L83.4257 29.0105L83.2862 30.234Z" fill="#274F5F"></path><path d="M79.3473 54.7265L98.0867 44.3801L98.6877 41.2354L97.7217 40.1621L82.8891 49.0596L79.68 53.5137L79.3473 54.7265Z" fill="#E26C00"></path><path d="M58.0105 14.6073L57.5598 37.2319L64.0746 41.0957L68.1852 48.9521L76.4816 53.8677L76.8465 53.2237L79.3473 54.7263L81.4509 47.0953L83.4257 29.0106L79.1648 28.1198L62.7115 17.5051L58.3218 13.8774L58.0105 14.6073Z" fill="#380009"></path><path d="M57.8281 45.5605L55.7459 41.8685L55.6171 33.8833L57.5598 37.2319L64.0746 41.0957L68.1852 48.9521L76.4816 53.8677L76.8465 53.2237L79.3473 54.7263L79.0682 56.2826L78.918 57.4202L57.8281 45.5605Z" fill="#E27D00"></path><path d="M65.223 19.9629V40.5376L69.0975 48.2544L75.6552 52.1504L78.4886 28.5706L65.223 19.9629Z" fill="#4F2F32"></path><path d="M83.2862 30.2341L79.8517 29.3755L76.6641 51.7211L79.68 53.5135L81.4509 47.0953L83.2862 30.2341Z" fill="#4F2F32"></path><path d="M63.1623 20.1349L57.9891 15.8311L57.5812 36.073L63.1623 39.3465V20.1349Z" fill="#4F2F32"></path><path d="M55.6171 33.8831L57.6886 30.9316L57.5598 37.2318L55.6171 33.8831Z" fill="#E29200"></path><path d="M57.109 13.7377V11.3873L57.8818 10.8828L61.9817 14.7037L80.1737 25.9194L84.5956 27.2503L83.9945 29.5363L79.1648 28.1196L63.4843 18.6104L59.3414 15.5838L58.0105 14.6071L57.109 13.7377Z" fill="#E25D00"></path><path d="M102.949 16.3782L84.5956 27.2505L80.1737 25.9196L61.9817 14.7039L57.8818 10.883L57.109 11.3875L75.462 0.504439L76.2348 0L83.2969 2.08215L101.478 13.2872L102.949 16.3782Z" fill="#FFC523"></path><path d="M61.9817 14.7039L83.2969 2.08215L76.2348 0L57.8817 10.883L61.9817 14.7039Z" fill="#FFB828"></path><path d="M102.358 18.6538L83.9945 29.5368L84.5956 27.2507L102.949 16.3784L102.358 18.6538Z" fill="#ECBB1F"></path><path d="M63.8814 13.6626L82.492 24.0948L82.5778 24.2129L81.9768 24.5778L63.7633 13.9202L63.8814 13.6626Z" fill="#E29200"></path><path d="M64.3536 13.3838L82.492 24.0951L82.1056 24.3312L63.8814 13.6628L64.3536 13.3838Z" fill="#FFD02D"></path><path d="M67.3588 11.6235L85.9586 22.045L86.0445 22.1631L85.4435 22.5387L67.23 11.8704L67.3588 11.6235Z" fill="#E29200"></path><path d="M67.8203 11.3447L85.9586 22.0453L85.5723 22.2814L67.3588 11.6238L67.8203 11.3447Z" fill="#FFD02D"></path><path d="M70.8254 9.57373L89.436 19.9952L89.5112 20.124L88.9209 20.4889L70.6967 9.83132L70.8254 9.57373Z" fill="#E29200"></path><path d="M71.2977 9.29443L89.436 19.995L89.0497 20.2418L70.8254 9.57349L71.2977 9.29443Z" fill="#FFD02D"></path><path d="M74.2921 7.53418L92.9027 17.9557L92.9778 18.0737L92.3876 18.4494L74.1633 7.78103L74.2921 7.53418Z" fill="#E29200"></path><path d="M74.7644 7.25537L92.9027 17.9559L92.5163 18.192L74.2921 7.53442L74.7644 7.25537Z" fill="#FFD02D"></path><path d="M77.7588 5.48438L96.3694 15.9059L96.4553 16.0347L95.8542 16.3996L77.63 5.73123L77.7588 5.48438Z" fill="#E29200"></path><path d="M78.231 5.20557L96.3694 15.9061L95.983 16.153L77.7588 5.48462L78.231 5.20557Z" fill="#FFD02D"></path><path d="M81.2362 3.44531L99.8361 13.8668L99.9219 13.9849L99.3209 14.3605L81.1074 3.69217L81.2362 3.44531Z" fill="#E29200"></path><path d="M81.6977 3.15527L99.8361 13.8666L99.4497 14.1027L81.2362 3.44506L81.6977 3.15527Z" fill="#FFD02D"></path><path d="M101.478 13.2871L80.1737 25.9196L84.5956 27.2504L102.949 16.3781L101.478 13.2871Z" fill="#FFD02D"></path><path d="M87.3217 27.5725L87.8583 25.9626L98.5374 19.4907L99.396 20.4137L87.3217 27.5725Z" fill="#332D28"></path><path d="M89.4683 25.3613L88.2125 26.1019V26.7244L89.6722 25.4794L89.4683 25.3613Z" fill="#DC6E36"></path><path d="M89.6722 25.4795L88.4164 26.2201V26.8426L89.6722 26.0913V25.4795Z" fill="#FF8936"></path><path d="M88.4164 26.2201L88.2125 26.1021V26.7246L88.4164 26.8426V26.2201Z" fill="#D75716"></path><path d="M94.0404 22.6245L92.7847 23.3651V23.9876L94.2443 22.7426L94.0404 22.6245Z" fill="#DC6E36"></path><path d="M94.2443 22.7427L92.9886 23.4832V24.1057L94.2443 23.3544V22.7427Z" fill="#FF8936"></path><path d="M92.9886 23.4833L92.7847 23.3652V23.9877L92.9886 24.1058V23.4833Z" fill="#D75716"></path><path d="M98.3657 20.0596L97.11 20.8001V21.4226L98.5696 20.1776L98.3657 20.0596Z" fill="#DC6E36"></path><path d="M98.5696 20.1777L97.3139 20.9183V21.5408L98.5696 20.7895V20.1777Z" fill="#FF8936"></path><path d="M97.3139 20.9184L97.11 20.8003V21.4228L97.3139 21.5409V20.9184Z" fill="#D75716"></path><path d="M64.1819 17.8163C64.165 17.9923 64.1984 18.1693 64.2782 18.327C64.358 18.4847 64.4809 18.6165 64.6327 18.7071L66.0923 19.6302C66.1384 19.6714 66.1954 19.6985 66.2564 19.7082C66.3175 19.7179 66.3801 19.7098 66.4367 19.6849C66.4933 19.66 66.5415 19.6193 66.5756 19.5678C66.6097 19.5162 66.6282 19.4559 66.6289 19.394V18.8896C66.6405 18.7504 66.6136 18.6107 66.5511 18.4858C66.4886 18.3609 66.393 18.2555 66.2748 18.1812L65.2015 17.5158L64.6327 17.1724C64.5985 17.1455 64.5578 17.1281 64.5147 17.1221C64.4716 17.116 64.4277 17.1214 64.3874 17.1377C64.3471 17.1541 64.3118 17.1808 64.2852 17.2151C64.2585 17.2495 64.2414 17.2903 64.2355 17.3334L64.1819 17.8163Z" fill="#CDCDCD"></path><path d="M65.6308 18.8358L66.6289 19.3509V18.8894C66.6405 18.7502 66.6136 18.6105 66.5511 18.4856C66.4886 18.3607 66.393 18.2553 66.2748 18.1811L65.2015 17.5156V17.9449C65.1873 18.1182 65.2196 18.2921 65.2951 18.4487C65.3705 18.6053 65.4864 18.7389 65.6308 18.8358Z" fill="#E3E7EB"></path><path d="M86.989 27.1216C86.9737 27.2705 86.9228 27.4136 86.8406 27.5387C86.7584 27.6639 86.6473 27.7675 86.5167 27.8407L85.2073 28.6349C84.9927 28.7852 84.7673 28.6993 84.7888 28.4739V28.109C84.8009 27.9923 84.8403 27.88 84.9036 27.7812C84.967 27.6824 85.0526 27.5999 85.1537 27.5402L86.1089 26.9499L86.6348 26.6279C86.7958 26.5313 86.9568 26.6279 86.946 26.7459L86.989 27.1216Z" fill="#CDCDCD"></path><path d="M85.6796 27.9912L84.7888 28.442V28.0771C84.8009 27.9604 84.8403 27.8481 84.9036 27.7493C84.967 27.6506 85.0526 27.568 85.1537 27.5083L86.1089 26.918V27.2614C86.0991 27.4081 86.0551 27.5504 85.9806 27.6771C85.9061 27.8038 85.803 27.9114 85.6796 27.9912Z" fill="#E3E7EB"></path><path d="M102.09 18.1382C102.077 18.2878 102.028 18.432 101.947 18.5589C101.867 18.6859 101.758 18.7918 101.628 18.868L100.319 19.6622C100.104 19.8018 99.879 19.7159 99.9005 19.5012V19.1363C99.9102 19.0175 99.9484 18.9027 100.012 18.8018C100.075 18.7009 100.162 18.6169 100.265 18.5568L101.221 17.9772L101.747 17.6552C101.897 17.5586 102.058 17.6552 102.058 17.7733L102.09 18.1382Z" fill="#CDCDCD"></path><path d="M100.791 19.0079L99.9005 19.4694V19.1044C99.9102 18.9856 99.9484 18.8709 100.012 18.7699C100.075 18.669 100.162 18.585 100.265 18.5249L101.221 17.9453V18.2458C101.217 18.3982 101.176 18.5474 101.101 18.6802C101.026 18.8131 100.92 18.9255 100.791 19.0079Z" fill="#E3E7EB"></path><path d="M51.1952 16.3569L40.4303 22.7429L29.4077 19.4158L40.1834 13.0298L51.1952 16.3569Z" fill="#F37C00"></path><path d="M83.9516 49.4674L82.8891 49.0596L97.7217 40.1621L98.6877 41.2354L98.634 41.4608L97.872 41.2139L83.9516 49.4674Z" fill="#FFD02D"></path><path d="M57.5812 36.073L62.1749 32.1126V19.3085L57.9891 15.8311L57.5812 36.073Z" fill="#664A4C"></path><path d="M97.872 41.2139L83.9516 49.4674L82.3632 56.5402L96.3157 48.1687L97.872 41.2139Z" fill="#FF9A0A"></path><path d="M75.8806 33.2713L74.8073 33.3894C74.2929 33.5913 73.8563 33.952 73.5609 34.4192C73.2656 34.8863 73.127 35.4354 73.1652 35.9867V43.2099C73.1652 44.4549 73.9057 45.3564 74.8073 45.1203L76.3314 44.852C77.2436 44.6695 77.5763 43.6606 77.5763 42.4156V35.1496C77.5334 33.9046 76.7929 33.0459 75.8806 33.2713Z" fill="#1F140B"></path><path d="M75.8806 33.4324L74.8073 33.5505C74.2937 33.7504 73.8575 34.1092 73.5621 34.5745C73.2667 35.0397 73.1276 35.5872 73.1652 36.137V43.3709C73.1652 44.6159 73.9058 45.5175 74.8073 45.2814L76.3314 45.013C77.2436 44.8306 77.5764 43.8217 77.5764 42.5767V35.3536C77.5334 34.1086 76.7929 33.2714 75.8806 33.4324Z" fill="#332D28"></path><path d="M81.0323 27.2505L76.9109 31.2967C76.409 31.7942 76.0103 32.386 75.7377 33.038C75.4652 33.69 75.324 34.3894 75.3225 35.0961V44.1546C75.3925 44.1809 75.4642 44.2025 75.5371 44.219C75.6092 44.2411 75.6859 44.2438 75.7594 44.2268C75.8329 44.2098 75.9006 44.1738 75.9557 44.1224V35.4718C75.9586 34.076 76.5053 32.7362 77.4798 31.7368L81.3436 27.9052V27.4329L81.0323 27.2505Z" fill="#312821"></path><g style="mix-blend-mode:multiply"><path d="M84.2736 22.6248L84.0482 20.1455L78.1345 20.2636C77.7033 20.2681 77.2783 20.367 76.8895 20.5534C76.1596 20.9397 76.2026 21.5408 76.9968 21.8949C77.3123 22.0324 77.651 22.1089 77.9949 22.1203L84.2736 22.6248Z" fill="#D99824"></path></g><path d="M82.0197 19.8662L86.5275 19.8018V21.4653C86.5275 21.7551 86.3557 22.0342 85.9264 22.2596C85.4175 22.4768 84.8699 22.5889 84.3165 22.5889C83.7632 22.5889 83.2155 22.4768 82.7066 22.2596C82.2558 22.0449 82.009 21.7659 81.9875 21.4868L82.0197 19.8662Z" fill="#B2CDCF"></path><path d="M82.2236 15.6591L86.1089 15.6055L86.5275 19.802C86.5275 20.081 86.3557 20.3601 85.9264 20.5855C85.4218 20.8137 84.8758 20.9362 84.3221 20.9455C83.7683 20.9547 83.2185 20.8504 82.7066 20.6391C82.2558 20.4352 82.009 20.1454 81.9875 19.8664L82.2236 15.6591Z" fill="#D76600"></path><path d="M82.7388 15.026C83.1699 14.8338 83.6352 14.7301 84.1072 14.7209C84.5791 14.7117 85.0481 14.7972 85.4864 14.9723C86.2699 15.3372 86.3235 15.9383 85.5937 16.3246C85.1608 16.508 84.6954 16.6024 84.2253 16.6024C83.7552 16.6024 83.2898 16.508 82.8569 16.3246C82.0626 15.9705 82.009 15.3587 82.7388 15.026Z" fill="#FFA71E"></path><path d="M82.7173 19.0721C83.182 18.864 83.6839 18.752 84.193 18.7428C84.702 18.7336 85.2077 18.8273 85.6796 19.0185C86.5275 19.4048 86.5811 20.0917 85.7976 20.4781C85.3286 20.6747 84.8251 20.776 84.3165 20.776C83.8079 20.776 83.3044 20.6747 82.8354 20.4781C81.9875 20.1347 81.9338 19.4907 82.7173 19.0721Z" fill="#FF9C00"></path><path d="M84.8531 17.4946C85.0869 18.132 85.1132 18.8269 84.9283 19.4801C84.7136 19.9953 83.7691 19.8451 83.5652 19.287C83.4733 19.069 83.4323 18.8329 83.4454 18.5968C83.4584 18.3606 83.5251 18.1305 83.6404 17.9239C83.855 17.398 84.6492 16.9365 84.8531 17.4946Z" fill="#FF9C00"></path><path d="M84.0911 17.9773C84.2695 18.5615 84.2695 19.1855 84.0911 19.7697C83.9087 20.1882 83.6296 20.0595 83.4579 19.4906C83.2796 18.9065 83.2796 18.2824 83.4579 17.6982C83.6404 17.2797 83.9194 17.3977 84.0911 17.9773Z" fill="#FFA71E"></path><path d="M71.3621 58.064L73.895 59.5558V60.8223L70.9543 58.3108L71.3621 58.064Z" fill="#DC6E36"></path><path d="M70.9543 58.311L73.4872 59.7922V61.0586L70.9543 59.5453V58.311Z" fill="#FF8936"></path><path d="M73.4872 59.7923L73.895 59.5562V60.8226L73.4872 61.0587V59.7923Z" fill="#D75716"></path><path d="M135.92 85.261L135.683 85.4005C135.454 85.56 135.214 85.7035 134.964 85.8298L103.743 104.376L99.1063 97.1314L96.4123 92.8383L89.0819 81.3972L87.5793 78.2632L84.0911 70.8362L82.2773 66.9831L113.66 48.4262C116.043 46.7733 119.327 46.6338 123.04 48.351C123.577 48.5979 124.114 48.8984 124.704 49.2204C126.717 50.4477 128.555 51.9425 130.167 53.6637C134.104 57.8872 136.997 62.9746 138.614 68.5179C139.109 70.221 139.44 71.9677 139.601 73.734C139.674 74.4149 139.71 75.0992 139.708 75.784C139.708 80.2917 138.27 83.533 135.92 85.261Z" fill="#392D2D"></path><path d="M139.601 73.7448L99.1062 97.1314L96.4123 92.8383L89.0819 81.3972L87.5793 78.2633L84.0911 70.8362L123.051 48.3511C123.588 48.5979 124.124 48.8984 124.715 49.2204C126.724 50.4486 128.558 51.9433 130.167 53.6638C134.104 57.8872 136.997 62.9746 138.614 68.5179C139.11 70.2245 139.44 71.9748 139.601 73.7448Z" fill="#463738"></path><path d="M138.614 68.5284L96.4123 92.8918L89.0819 81.397L87.5793 78.263L130.167 53.6636C134.106 57.8901 136.999 62.9813 138.614 68.5284Z" fill="#564445"></path><path d="M139.451 78.8965L105.181 99.2136L110.429 100.405L134.964 85.862C135.211 85.7317 135.451 85.5884 135.683 85.4327L135.92 85.2932C137.889 83.7055 139.157 81.4088 139.451 78.8965Z" fill="#1E1616"></path><path d="M143.572 82.1699L108.937 102.702L114.83 104.043L143.175 87.2465L143.572 82.1699Z" fill="#312C2C"></path><path d="M119.692 99.0632L116.472 100.952L116.568 98.9559L119.788 97.0669L119.692 99.0632Z" fill="#F1F1F1"></path><path d="M119.692 99.0632L118.758 98.5802L116.515 99.8896L116.568 98.9559L119.788 97.0669L119.692 99.0632Z" fill="#B9B9B9"></path><path d="M119.788 97.0673L119.692 99.0636L116.472 100.953L116.45 101.199L119.896 99.1924L120.003 96.9385L119.788 97.0673Z" fill="#423D3D"></path><path d="M117.695 99.2138L116.676 99.8041L116.708 99.1386L117.728 98.5376L117.695 99.2138Z" fill="white"></path><path d="M116.472 100.952L116.45 101.199L119.896 99.1923L119.692 99.0635L116.472 100.952Z" fill="#716D6D"></path><path d="M141.876 85.9587L138.656 87.8477L138.753 85.8514L141.973 83.9624L141.876 85.9587Z" fill="#F1F1F1"></path><path d="M141.876 85.9587L140.943 85.4757L138.71 86.7851L138.753 85.8514L141.973 83.9624L141.876 85.9587Z" fill="#B9B9B9"></path><path d="M141.973 83.9623L141.876 85.9586L138.656 87.8475L138.646 88.0944L142.08 86.0766L142.198 83.8335L141.973 83.9623Z" fill="#423D3D"></path><path d="M139.88 86.0981L138.86 86.6991L138.893 86.0337L139.912 85.4434L139.88 86.0981Z" fill="white"></path><path d="M138.656 87.8475L138.646 88.0943L142.08 86.0766L141.876 85.9585L138.656 87.8475Z" fill="#716D6D"></path><path d="M139.773 79.7124L109.249 97.7971L108.937 102.702L143.572 82.1702L139.773 79.7124Z" fill="#423D3D"></path><path d="M103.729 104.39C109.658 101.1 109.78 89.9911 104.001 79.5788C98.2226 69.1664 88.7315 63.3932 82.8023 66.6838C76.8732 69.9745 76.7512 81.0829 82.53 91.4953C88.3088 101.908 97.7999 107.681 103.729 104.39Z" fill="#E68D00"></path><path d="M107.553 94.0081C107.564 95.2979 107.42 96.5844 107.124 97.8397C106.981 98.4336 106.791 99.0151 106.555 99.5784C106.54 99.5295 106.54 99.4772 106.555 99.4282C105.985 101.125 104.813 102.553 103.259 103.441C101.706 104.33 99.8805 104.616 98.1296 104.247C97.8827 104.247 97.6251 104.151 97.3676 104.097C95.905 103.735 94.5075 103.148 93.2247 102.358C91.4268 101.271 89.7811 99.95 88.3306 98.43C87.6613 97.7473 87.0272 97.0308 86.4309 96.2835C86.023 95.779 85.6474 95.2746 85.261 94.7487C81.4616 89.4789 78.9609 82.8783 78.9609 77.0826C78.9415 75.5913 79.1404 74.1052 79.5512 72.6714C79.8329 71.416 80.4216 70.2501 81.2645 69.278C82.1073 68.3059 83.1781 67.5579 84.3809 67.1011C85.2509 66.8067 86.1679 66.6757 87.0856 66.7147H87.2358H87.3646C88.3373 66.7693 89.2979 66.9571 90.2195 67.2729C91.2837 67.6337 92.3057 68.1087 93.2676 68.6896C101.156 73.3905 107.553 84.7136 107.553 94.0081Z" fill="#8E4000"></path><path d="M107.553 94.0083C107.564 95.298 107.42 96.5845 107.124 97.8399C105.718 98.6555 103.528 99.8791 103.367 99.9864C101.135 101.618 102.069 99.2888 98.4301 97.1315C91.7007 93.1711 86.2377 83.5009 86.2377 75.5587C86.2377 72.1671 83.5116 71.5446 85.1644 70.0742C85.5615 69.72 89.6936 67.552 90.2088 67.2944C91.2758 67.6478 92.3014 68.1156 93.2676 68.6897C101.156 73.3906 107.553 84.7137 107.553 94.0083Z" fill="#7D545A"></path><path d="M106.544 92.216C106.544 100.147 101.081 103.346 94.3409 99.3532C87.6007 95.3607 82.1485 85.6904 82.1485 77.7589C82.1485 69.8274 87.6115 66.6291 94.3409 70.6217C101.07 74.6142 106.544 84.2844 106.544 92.216Z" fill="#805E63"></path><path d="M105.181 91.4001C105.181 98.4515 100.33 101.296 94.3409 97.7539C88.352 94.2121 83.5116 85.6152 83.5116 78.5637C83.5116 71.5123 88.3628 68.6896 94.3409 72.2314C94.8595 72.5366 95.3611 72.8698 95.8435 73.2296C100.817 77.2568 104.102 83.0002 105.052 89.3287C105.137 90.0159 105.18 90.7077 105.181 91.4001Z" fill="#6A3B42"></path><path d="M105.052 89.3393L100.244 92.205L90.9601 76.1059L95.8435 73.208C100.824 77.2432 104.11 82.9993 105.052 89.3393Z" fill="#6A3B42"></path><path d="M101.961 88.0837C101.961 92.2909 99.0633 93.9867 95.5215 91.8724C93.6354 90.5917 92.0722 88.891 90.9548 86.9038C89.8374 84.9167 89.1963 82.6974 89.0819 80.4205C89.0819 76.224 91.9797 74.5282 95.5215 76.6426C97.4091 77.9191 98.9737 79.6175 100.091 81.6033C101.209 83.5891 101.849 85.8077 101.961 88.0837Z" fill="#805E63"></path><path d="M72.6715 63.4521L96.0904 82.1701L111.567 92.6023L115.216 99.0742L113.767 99.8469L113.37 104.924L72.8754 82.6638L66.5323 65.5665L69.9883 63.8063L72.6715 63.4521Z" fill="#FFC523"></path><g style="mix-blend-mode:multiply"><path d="M102.509 55.0268V53.8247C101.067 53.2575 99.5535 52.8962 98.0115 52.7515C96.3801 52.7515 75.5586 65.7918 75.5586 65.7918L74.5605 64.9975L71.2226 66.6504L92.6881 81.3972C92.6881 81.3972 104.108 88.8028 106.254 89.0818L96.0689 82.2129L80.0664 69.3336C80.6355 68.482 81.3386 67.7282 82.1485 67.1012L83.2218 66.4679L102.509 55.0268Z" fill="#ECC781"></path></g><path d="M69.2155 65.2124L110.118 93.3859L113.767 99.847L113.37 104.924L111.138 105.75L71.5767 83.3615L65.9206 78.038L66.5323 65.5666L69.2155 65.2124Z" fill="#E26600"></path><path d="M115.216 99.0742L113.767 99.847L113.37 104.924L114.83 104.043L115.216 99.0742Z" fill="#FF9A0A"></path><path d="M77.512 59.4596V63.2912L99.3531 49.8538L99.4068 46.312L77.512 59.4596Z" fill="#FF9A0A"></path><path d="M78.7033 57.4631L82.3632 56.54L79.7873 58.0856L77.9305 58.3109L78.7033 57.4631Z" fill="#FFB828"></path></g><defs><clipPath id="clip0_5678_8674"><rect width="145.021" height="110" fill="white"></rect></clipPath></defs></svg>