<svg xmlns="http://www.w3.org/2000/svg" width="91" height="90" viewBox="0 0 91 90" fill="none"><g clip-path="url(#clip0_5678_32915)"><path d="M37.9899 74.4583C33.5482 74.4583 29.2062 73.1411 25.5131 70.6732C21.82 68.2053 18.9418 64.6977 17.2423 60.5939C15.5429 56.4901 15.0987 51.9745 15.9658 47.6182C16.8329 43.2619 18.9725 39.2606 22.1138 36.1204C25.2552 32.9802 29.2572 30.842 33.6138 29.9765C37.9704 29.1109 42.4859 29.5567 46.5891 31.2576C50.6922 32.9585 54.1989 35.838 56.6654 39.5319C59.132 43.2259 60.4477 47.5683 60.4461 52.0101C60.4398 57.9632 58.0716 63.6705 53.8614 67.8792C49.6512 72.0879 43.943 74.4541 37.9899 74.4583ZM37.9899 33.1625C34.2622 33.1625 30.6182 34.2679 27.5188 36.3389C24.4193 38.4099 22.0036 41.3535 20.577 44.7974C19.1505 48.2414 18.7772 52.031 19.5045 55.6871C20.2317 59.3431 22.0268 62.7015 24.6627 65.3373C27.2985 67.9732 30.6569 69.7683 34.3129 70.4955C37.969 71.2228 41.7586 70.8495 45.2026 69.423C48.6465 67.9965 51.5901 65.5807 53.6611 62.4812C55.7321 59.3818 56.8375 55.7378 56.8375 52.0101C56.8333 47.0127 54.8462 42.2212 51.3125 38.6875C47.7788 35.1538 42.9873 33.1667 37.9899 33.1625Z" fill="#17262F"></path><path d="M37.9899 60.0159C36.4029 60.0159 34.8516 59.5447 33.5327 58.662C32.2139 57.7793 31.1868 56.5249 30.5817 55.0577C29.9765 53.5906 29.8207 51.9769 30.1338 50.421C30.4469 48.8652 31.2149 47.4374 32.3404 46.3186C33.4659 45.1998 34.8983 44.4403 36.456 44.1365C38.0137 43.8327 39.6265 43.9983 41.0899 44.6121C42.5534 45.226 43.8017 46.2606 44.6764 47.5847C45.5512 48.9089 46.0132 50.4629 46.0037 52.0499C45.989 54.1664 45.1385 56.1912 43.6374 57.6834C42.1363 59.1755 40.1064 60.0139 37.9899 60.0159ZM37.9899 47.6049C37.1186 47.6049 36.2669 47.8632 35.5425 48.3473C34.8181 48.8313 34.2535 49.5193 33.92 50.3243C33.5866 51.1292 33.4994 52.015 33.6694 52.8695C33.8393 53.724 34.2589 54.509 34.875 55.125C35.491 55.7411 36.276 56.1607 37.1305 56.3307C37.985 56.5006 38.8708 56.4134 39.6757 56.08C40.4807 55.7465 41.1687 55.1819 41.6527 54.4575C42.1368 53.7331 42.3951 52.8814 42.3951 52.0101C42.3951 51.4316 42.2812 50.8588 42.0598 50.3243C41.8384 49.7898 41.5139 49.3042 41.1049 48.8951C40.6958 48.4861 40.2102 48.1616 39.6757 47.9402C39.1412 47.7188 38.5684 47.6049 37.9899 47.6049Z" fill="#17262F"></path><path d="M25.1567 53.8104H24.4557C24.2086 53.8268 23.9609 53.7924 23.7277 53.7091C23.4945 53.6259 23.281 53.4957 23.1002 53.3265C22.9194 53.1573 22.7753 52.9529 22.6768 52.7257C22.5783 52.4986 22.5274 52.2537 22.5274 52.0061C22.5274 51.7585 22.5783 51.5136 22.6768 51.2865C22.7753 51.0594 22.9194 50.8549 23.1002 50.6857C23.281 50.5166 23.4945 50.3863 23.7277 50.3031C23.9609 50.2199 24.2086 50.1854 24.4557 50.2018H25.1567C25.6145 50.2322 26.0436 50.4356 26.3571 50.7706C26.6706 51.1056 26.845 51.5473 26.845 52.0061C26.845 52.4649 26.6706 52.9066 26.3571 53.2416C26.0436 53.5767 25.6145 53.78 25.1567 53.8104Z" fill="#17262F"></path><path d="M25.1567 53.8104H24.4557C24.2086 53.8268 23.9609 53.7924 23.7277 53.7091C23.4945 53.6259 23.281 53.4957 23.1002 53.3265C22.9194 53.1573 22.7753 52.9529 22.6768 52.7257C22.5783 52.4986 22.5274 52.2537 22.5274 52.0061C22.5274 51.7585 22.5783 51.5136 22.6768 51.2865C22.7753 51.0594 22.9194 50.8549 23.1002 50.6857C23.281 50.5166 23.4945 50.3863 23.7277 50.3031C23.9609 50.2199 24.2086 50.1854 24.4557 50.2018H25.1567C25.6145 50.2322 26.0436 50.4356 26.3571 50.7706C26.6706 51.1056 26.845 51.5473 26.845 52.0061C26.845 52.4649 26.6706 52.9066 26.3571 53.2416C26.0436 53.5767 25.6145 53.78 25.1567 53.8104Z" fill="#17262F"></path><path d="M24.8062 54.1689C24.3266 54.1689 23.8666 53.9784 23.5275 53.6392C23.1884 53.3001 22.9979 52.8402 22.9979 52.3606V51.6676C22.9815 51.4205 23.0159 51.1728 23.0992 50.9396C23.1824 50.7064 23.3126 50.4929 23.4818 50.3121C23.651 50.1313 23.8554 49.9872 24.0826 49.8887C24.3097 49.7902 24.5546 49.7393 24.8022 49.7393C25.0498 49.7393 25.2947 49.7902 25.5218 49.8887C25.7489 49.9872 25.9534 50.1313 26.1226 50.3121C26.2917 50.4929 26.4219 50.7064 26.5052 50.9396C26.5884 51.1728 26.6229 51.4205 26.6065 51.6676V52.3606C26.6065 52.8388 26.4171 53.2975 26.0797 53.6364C25.7423 53.9753 25.2844 54.1668 24.8062 54.1689Z" fill="#17262F"></path><path d="M51.5321 53.8104H50.8311C50.5841 53.8268 50.3363 53.7924 50.1032 53.7091C49.87 53.6259 49.6564 53.4957 49.4757 53.3265C49.2949 53.1573 49.1508 52.9529 49.0523 52.7257C48.9537 52.4986 48.9029 52.2537 48.9029 52.0061C48.9029 51.7585 48.9537 51.5136 49.0523 51.2865C49.1508 51.0594 49.2949 50.8549 49.4757 50.6857C49.6564 50.5166 49.87 50.3863 50.1032 50.3031C50.3363 50.2199 50.5841 50.1854 50.8311 50.2018H51.5321C51.99 50.2322 52.4191 50.4356 52.7326 50.7706C53.0461 51.1056 53.2205 51.5473 53.2205 52.0061C53.2205 52.4649 53.0461 52.9066 52.7326 53.2416C52.4191 53.5767 51.99 53.78 51.5321 53.8104Z" fill="#17262F"></path><path d="M51.5321 53.8104H50.8311C50.5841 53.8268 50.3363 53.7924 50.1032 53.7091C49.87 53.6259 49.6564 53.4957 49.4757 53.3265C49.2949 53.1573 49.1508 52.9529 49.0523 52.7257C48.9537 52.4986 48.9029 52.2537 48.9029 52.0061C48.9029 51.7585 48.9537 51.5136 49.0523 51.2865C49.1508 51.0594 49.2949 50.8549 49.4757 50.6857C49.6564 50.5166 49.87 50.3863 50.1032 50.3031C50.3363 50.2199 50.5841 50.1854 50.8311 50.2018H51.5321C51.99 50.2322 52.4191 50.4356 52.7326 50.7706C53.0461 51.1056 53.2205 51.5473 53.2205 52.0061C53.2205 52.4649 53.0461 52.9066 52.7326 53.2416C52.4191 53.5767 51.99 53.78 51.5321 53.8104Z" fill="#17262F"></path><path d="M51.1816 54.1689C50.7034 54.1647 50.2464 53.9712 49.9104 53.6308C49.5745 53.2904 49.3871 52.8309 49.3893 52.3526V51.6596C49.3728 51.4126 49.4073 51.1648 49.4906 50.9316C49.5738 50.6985 49.704 50.4849 49.8732 50.3041C50.0423 50.1234 50.2468 49.9792 50.4739 49.8807C50.7011 49.7822 50.946 49.7314 51.1936 49.7314C51.4411 49.7314 51.6861 49.7822 51.9132 49.8807C52.1403 49.9792 52.3448 50.1234 52.5139 50.3041C52.6831 50.4849 52.8133 50.6985 52.8966 50.9316C52.9798 51.1648 53.0143 51.4126 52.9979 51.6596V52.3526C52.9989 52.5914 52.9527 52.8281 52.8618 53.0489C52.7709 53.2698 52.6371 53.4704 52.4683 53.6393C52.2994 53.8081 52.0988 53.9419 51.8779 54.0328C51.6571 54.1237 51.4204 54.1699 51.1816 54.1689Z" fill="#17262F"></path><path d="M37.9899 67.3447C37.7535 67.3447 37.5194 67.2981 37.301 67.2076C37.0825 67.1172 36.8841 66.9845 36.7169 66.8174C36.5497 66.6502 36.4171 66.4517 36.3266 66.2333C36.2362 66.0149 36.1896 65.7808 36.1896 65.5444V64.8433C36.22 64.3855 36.4234 63.9564 36.7584 63.6429C37.0934 63.3294 37.5351 63.155 37.9939 63.155C38.4527 63.155 38.8944 63.3294 39.2294 63.6429C39.5644 63.9564 39.7678 64.3855 39.7982 64.8433V65.5444C39.7961 66.0226 39.6046 66.4805 39.2658 66.8179C38.9269 67.1553 38.4681 67.3447 37.9899 67.3447Z" fill="#17262F"></path><path d="M37.9899 67.3447C37.7535 67.3447 37.5194 67.2981 37.301 67.2076C37.0825 67.1172 36.8841 66.9845 36.7169 66.8174C36.5497 66.6502 36.4171 66.4517 36.3266 66.2333C36.2362 66.0149 36.1896 65.7808 36.1896 65.5444V64.8433C36.22 64.3855 36.4234 63.9564 36.7584 63.6429C37.0934 63.3294 37.5351 63.155 37.9939 63.155C38.4527 63.155 38.8944 63.3294 39.2294 63.6429C39.5644 63.9564 39.7678 64.3855 39.7982 64.8433V65.5444C39.7961 66.0226 39.6046 66.4805 39.2658 66.8179C38.9269 67.1553 38.4681 67.3447 37.9899 67.3447Z" fill="#17262F"></path><path d="M38.3404 67.0021H37.6474C37.1678 67.0021 36.7078 66.8116 36.3687 66.4725C36.0296 66.1334 35.8391 65.6734 35.8391 65.1938C35.8391 64.7143 36.0296 64.2543 36.3687 63.9152C36.7078 63.5761 37.1678 63.3856 37.6474 63.3856H38.3404C38.82 63.3856 39.2799 63.5761 39.6191 63.9152C39.9582 64.2543 40.1487 64.7143 40.1487 65.1938C40.1487 65.6734 39.9582 66.1334 39.6191 66.4725C39.2799 66.8116 38.82 67.0021 38.3404 67.0021Z" fill="#17262F"></path><path d="M37.9899 40.9692C37.5124 40.9692 37.0545 40.7795 36.7169 40.4419C36.3793 40.1043 36.1896 39.6464 36.1896 39.1689V38.4679C36.22 38.0101 36.4234 37.5809 36.7584 37.2674C37.0934 36.954 37.5351 36.7795 37.9939 36.7795C38.4527 36.7795 38.8944 36.954 39.2294 37.2674C39.5644 37.5809 39.7678 38.0101 39.7982 38.4679V39.1689C39.7961 39.6471 39.6046 40.105 39.2658 40.4424C38.9269 40.7798 38.4681 40.9692 37.9899 40.9692Z" fill="#17262F"></path><path d="M37.9899 40.9692C37.5124 40.9692 37.0545 40.7795 36.7169 40.4419C36.3793 40.1043 36.1896 39.6464 36.1896 39.1689V38.4679C36.22 38.0101 36.4234 37.5809 36.7584 37.2674C37.0934 36.954 37.5351 36.7795 37.9939 36.7795C38.4527 36.7795 38.8944 36.954 39.2294 37.2674C39.5644 37.5809 39.7678 38.0101 39.7982 38.4679V39.1689C39.7961 39.6471 39.6046 40.105 39.2658 40.4424C38.9269 40.7798 38.4681 40.9692 37.9899 40.9692Z" fill="#17262F"></path><path d="M38.3404 40.6267H37.6474C37.1678 40.6267 36.7078 40.4362 36.3687 40.097C36.0296 39.7579 35.8391 39.298 35.8391 38.8184C35.8391 38.3388 36.0296 37.8789 36.3687 37.5397C36.7078 37.2006 37.1678 37.0101 37.6474 37.0101H38.3404C38.82 37.0101 39.2799 37.2006 39.6191 37.5397C39.9582 37.8789 40.1487 38.3388 40.1487 38.8184C40.1487 39.298 39.9582 39.7579 39.6191 40.097C39.2799 40.4362 38.82 40.6267 38.3404 40.6267Z" fill="#17262F"></path><path d="M55.8417 16.1391C55.3635 16.1391 54.9048 15.9497 54.5659 15.6123C54.227 15.2749 54.0356 14.817 54.0335 14.3388V13.6458C54.0335 13.1662 54.224 12.7062 54.5631 12.3671C54.9022 12.028 55.3622 11.8375 55.8417 11.8375C56.3213 11.8375 56.7813 12.028 57.1204 12.3671C57.4595 12.7062 57.65 13.1662 57.65 13.6458V14.3388C57.6479 14.817 57.4565 15.2749 57.1176 15.6123C56.7787 15.9497 56.32 16.1391 55.8417 16.1391Z" fill="#17262F"></path><path d="M55.8417 16.1391C55.3635 16.1391 54.9048 15.9497 54.5659 15.6123C54.227 15.2749 54.0356 14.817 54.0335 14.3388V13.6458C54.0335 13.1662 54.224 12.7062 54.5631 12.3671C54.9022 12.028 55.3622 11.8375 55.8417 11.8375C56.3213 11.8375 56.7813 12.028 57.1204 12.3671C57.4595 12.7062 57.65 13.1662 57.65 13.6458V14.3388C57.6479 14.817 57.4565 15.2749 57.1176 15.6123C56.7787 15.9497 56.32 16.1391 55.8417 16.1391Z" fill="#17262F"></path><path d="M56.1923 15.7886H55.4913C55.0334 15.7582 54.6043 15.5549 54.2908 15.2199C53.9773 14.8848 53.8029 14.4432 53.8029 13.9843C53.8029 13.5255 53.9773 13.0839 54.2908 12.7488C54.6043 12.4138 55.0334 12.2105 55.4913 12.18H56.1923C56.4393 12.1636 56.6871 12.1981 56.9202 12.2813C57.1534 12.3646 57.367 12.4948 57.5477 12.664C57.7285 12.8331 57.8726 13.0376 57.9711 13.2647C58.0697 13.4918 58.1205 13.7368 58.1205 13.9843C58.1205 14.2319 58.0697 14.4768 57.9711 14.704C57.8726 14.9311 57.7285 15.1356 57.5477 15.3047C57.367 15.4739 57.1534 15.6041 56.9202 15.6873C56.6871 15.7706 56.4393 15.8051 56.1923 15.7886Z" fill="#17262F"></path><path d="M64.445 21.3808C63.9655 21.3808 63.5055 21.1903 63.1664 20.8511C62.8273 20.512 62.6367 20.0521 62.6367 19.5725V18.8715C62.6672 18.4137 62.8705 17.9845 63.2055 17.6711C63.5406 17.3576 63.9822 17.1832 64.4411 17.1832C64.8999 17.1832 65.3415 17.3576 65.6766 17.6711C66.0116 17.9845 66.2149 18.4137 66.2454 18.8715V19.5725C66.2454 20.0507 66.0559 20.5094 65.7185 20.8483C65.3811 21.1872 64.9232 21.3787 64.445 21.3808Z" fill="#17262F"></path><path d="M64.445 21.3808C63.9655 21.3808 63.5055 21.1903 63.1664 20.8511C62.8273 20.512 62.6367 20.0521 62.6367 19.5725V18.8715C62.6672 18.4137 62.8705 17.9845 63.2055 17.6711C63.5406 17.3576 63.9822 17.1832 64.4411 17.1832C64.8999 17.1832 65.3415 17.3576 65.6766 17.6711C66.0116 17.9845 66.2149 18.4137 66.2454 18.8715V19.5725C66.2454 20.0507 66.0559 20.5094 65.7185 20.8483C65.3811 21.1872 64.9232 21.3787 64.445 21.3808Z" fill="#17262F"></path><path d="M64.7876 21.0303H64.0945C63.8475 21.0467 63.5997 21.0122 63.3666 20.929C63.1334 20.8457 62.9198 20.7155 62.7391 20.5464C62.5583 20.3772 62.4142 20.1727 62.3156 19.9456C62.2171 19.7185 62.1663 19.4736 62.1663 19.226C62.1663 18.9784 62.2171 18.7335 62.3156 18.5063C62.4142 18.2792 62.5583 18.0748 62.7391 17.9056C62.9198 17.7364 63.1334 17.6062 63.3666 17.523C63.5997 17.4397 63.8475 17.4053 64.0945 17.4217H64.7876C65.0346 17.4053 65.2824 17.4397 65.5155 17.523C65.7487 17.6062 65.9623 17.7364 66.143 17.9056C66.3238 18.0748 66.4679 18.2792 66.5664 18.5063C66.665 18.7335 66.7158 18.9784 66.7158 19.226C66.7158 19.4736 66.665 19.7185 66.5664 19.9456C66.4679 20.1727 66.3238 20.3772 66.143 20.5464C65.9623 20.7155 65.7487 20.8457 65.5155 20.929C65.2824 21.0122 65.0346 21.0467 64.7876 21.0303Z" fill="#17262F"></path><path d="M72.1721 29.4742C71.6925 29.4742 71.2325 29.2837 70.8934 28.9446C70.5543 28.6055 70.3638 28.1455 70.3638 27.666V26.9729C70.3474 26.7259 70.3818 26.4781 70.4651 26.245C70.5483 26.0118 70.6786 25.7982 70.8477 25.6174C71.0169 25.4367 71.2213 25.2926 71.4485 25.194C71.6756 25.0955 71.9205 25.0447 72.1681 25.0447C72.4157 25.0447 72.6606 25.0955 72.8877 25.194C73.1148 25.2926 73.3193 25.4367 73.4885 25.6174C73.6576 25.7982 73.7879 26.0118 73.8711 26.245C73.9543 26.4781 73.9888 26.7259 73.9724 26.9729V27.666C73.9724 28.1442 73.783 28.6029 73.4456 28.9418C73.1082 29.2807 72.6503 29.4721 72.1721 29.4742Z" fill="#17262F"></path><path d="M72.1721 29.4742C71.6925 29.4742 71.2325 29.2837 70.8934 28.9446C70.5543 28.6055 70.3638 28.1455 70.3638 27.666V26.9729C70.3474 26.7259 70.3818 26.4781 70.4651 26.245C70.5483 26.0118 70.6786 25.7982 70.8477 25.6174C71.0169 25.4367 71.2213 25.2926 71.4485 25.194C71.6756 25.0955 71.9205 25.0447 72.1681 25.0447C72.4157 25.0447 72.6606 25.0955 72.8877 25.194C73.1148 25.2926 73.3193 25.4367 73.4885 25.6174C73.6576 25.7982 73.7879 26.0118 73.8711 26.245C73.9543 26.4781 73.9888 26.7259 73.9724 26.9729V27.666C73.9724 28.1442 73.783 28.6029 73.4456 28.9418C73.1082 29.2807 72.6503 29.4721 72.1721 29.4742Z" fill="#17262F"></path><path d="M72.4907 29.1476H71.7977C71.5506 29.1641 71.3029 29.1296 71.0697 29.0463C70.8366 28.9631 70.623 28.8329 70.4422 28.6637C70.2614 28.4946 70.1173 28.2901 70.0188 28.063C69.9203 27.8358 69.8694 27.5909 69.8694 27.3433C69.8694 27.0958 69.9203 26.8508 70.0188 26.6237C70.1173 26.3966 70.2614 26.1921 70.4422 26.023C70.623 25.8538 70.8366 25.7236 71.0697 25.6403C71.3029 25.5571 71.5506 25.5226 71.7977 25.539H72.4907C72.7377 25.5226 72.9855 25.5571 73.2187 25.6403C73.4518 25.7236 73.6654 25.8538 73.8462 26.023C74.0269 26.1921 74.1711 26.3966 74.2696 26.6237C74.3681 26.8508 74.419 27.0958 74.419 27.3433C74.419 27.5909 74.3681 27.8358 74.2696 28.063C74.1711 28.2901 74.0269 28.4946 73.8462 28.6637C73.6654 28.8329 73.4518 28.9631 73.2187 29.0463C72.9855 29.1296 72.7377 29.1641 72.4907 29.1476Z" fill="#17262F"></path><path d="M76.88 38.667C76.4018 38.6649 75.9439 38.4735 75.6065 38.1346C75.2691 37.7957 75.0796 37.337 75.0797 36.8587V36.1577C75.1101 35.6999 75.3134 35.2708 75.6484 34.9573C75.9835 34.6438 76.4251 34.4694 76.884 34.4694C77.3428 34.4694 77.7844 34.6438 78.1195 34.9573C78.4545 35.2708 78.6578 35.6999 78.6883 36.1577V36.8587C78.6883 37.3383 78.4977 37.7983 78.1586 38.1374C77.8195 38.4765 77.3596 38.667 76.88 38.667Z" fill="#17262F"></path><path d="M76.88 38.667C76.4018 38.6649 75.9439 38.4735 75.6065 38.1346C75.2691 37.7957 75.0796 37.337 75.0797 36.8587V36.1577C75.1101 35.6999 75.3134 35.2708 75.6484 34.9573C75.9835 34.6438 76.4251 34.4694 76.884 34.4694C77.3428 34.4694 77.7844 34.6438 78.1195 34.9573C78.4545 35.2708 78.6578 35.6999 78.6883 36.1577V36.8587C78.6883 37.3383 78.4977 37.7983 78.1586 38.1374C77.8195 38.4765 77.3596 38.667 76.88 38.667Z" fill="#17262F"></path><path d="M77.2703 38.3165H76.5773C76.3303 38.3329 76.0825 38.2985 75.8493 38.2152C75.6162 38.132 75.4026 38.0018 75.2218 37.8326C75.041 37.6634 74.8969 37.459 74.7984 37.2318C74.6999 37.0047 74.649 36.7598 74.649 36.5122C74.649 36.2646 74.6999 36.0197 74.7984 35.7926C74.8969 35.5655 75.041 35.361 75.2218 35.1918C75.4026 35.0227 75.6162 34.8925 75.8493 34.8092C76.0825 34.726 76.3303 34.6915 76.5773 34.7079H77.2703C77.5174 34.6915 77.7651 34.726 77.9983 34.8092C78.2314 34.8925 78.445 35.0227 78.6258 35.1918C78.8066 35.361 78.9507 35.5655 79.0492 35.7926C79.1477 36.0197 79.1986 36.2646 79.1986 36.5122C79.1986 36.7598 79.1477 37.0047 79.0492 37.2318C78.9507 37.459 78.8066 37.6634 78.6258 37.8326C78.445 38.0018 78.2314 38.132 77.9983 38.2152C77.7651 38.2985 77.5174 38.3329 77.2703 38.3165Z" fill="#17262F"></path><path d="M28.4227 63.3856C28.0646 63.3878 27.7139 63.2831 27.4155 63.085C27.1172 62.8868 26.8847 62.6041 26.7478 62.2731C26.611 61.9421 26.576 61.5778 26.6473 61.2268C26.7186 60.8758 26.893 60.5541 27.1482 60.3027L27.6421 59.8088C27.9871 59.5021 28.4365 59.339 28.8979 59.353C29.3594 59.3669 29.798 59.5568 30.124 59.8838C30.4499 60.2107 30.6385 60.65 30.651 61.1115C30.6635 61.573 30.499 62.0218 30.1912 62.3659L29.6973 62.8598C29.5298 63.0269 29.331 63.1593 29.1123 63.2495C28.8936 63.3397 28.6593 63.386 28.4227 63.3856Z" fill="#17262F"></path><path d="M28.4227 63.3856C28.0646 63.3878 27.7139 63.2831 27.4155 63.085C27.1172 62.8868 26.8847 62.6041 26.7478 62.2731C26.611 61.9421 26.576 61.5778 26.6473 61.2268C26.7186 60.8758 26.893 60.5541 27.1482 60.3027L27.6421 59.8088C27.9871 59.5021 28.4365 59.339 28.8979 59.353C29.3594 59.3669 29.798 59.5568 30.124 59.8838C30.4499 60.2107 30.6385 60.65 30.651 61.1115C30.6635 61.573 30.499 62.0218 30.1912 62.3659L29.6973 62.8598C29.5298 63.0269 29.331 63.1593 29.1123 63.2495C28.8936 63.3397 28.6593 63.386 28.4227 63.3856Z" fill="#17262F"></path><path d="M28.9166 63.3856C28.6801 63.386 28.4457 63.3397 28.227 63.2495C28.0083 63.1593 27.8096 63.0269 27.6421 62.8598L27.1482 62.3659C26.9642 62.2024 26.8155 62.003 26.7113 61.7799C26.607 61.5569 26.5494 61.315 26.542 61.0689C26.5346 60.8228 26.5775 60.5778 26.668 60.3489C26.7586 60.12 26.895 59.912 27.0688 59.7377C27.2426 59.5633 27.4502 59.4263 27.6788 59.335C27.9074 59.2437 28.1523 59.2 28.3984 59.2067C28.6445 59.2133 28.8866 59.2702 29.11 59.3737C29.3333 59.4773 29.5332 59.6253 29.6973 59.8088L30.1912 60.3027C30.5278 60.6415 30.7168 61.0997 30.7168 61.5773C30.7168 62.0549 30.5278 62.5131 30.1912 62.8518C30.0252 63.0214 29.8268 63.156 29.6079 63.2477C29.389 63.3394 29.154 63.3862 28.9166 63.3856Z" fill="#17262F"></path><path d="M47.0712 44.7292C46.7146 44.7298 46.366 44.6245 46.0693 44.4267C45.7727 44.229 45.5415 43.9476 45.405 43.6182C45.2684 43.2889 45.2328 42.9264 45.3025 42.5768C45.3722 42.2271 45.5442 41.9061 45.7966 41.6543L46.2905 41.1604C46.4579 40.993 46.6566 40.8602 46.8753 40.7697C47.094 40.6791 47.3283 40.6324 47.5651 40.6324C47.8018 40.6324 48.0361 40.6791 48.2548 40.7697C48.4735 40.8602 48.6722 40.993 48.8396 41.1604C49.007 41.3278 49.1398 41.5265 49.2303 41.7452C49.3209 41.9639 49.3676 42.1982 49.3676 42.4349C49.3676 42.6717 49.3209 42.906 49.2303 43.1247C49.1398 43.3434 49.007 43.5421 48.8396 43.7095L48.3457 44.2034C48.1782 44.3705 47.9795 44.5029 47.7608 44.5931C47.5421 44.6833 47.3077 44.7296 47.0712 44.7292Z" fill="#17262F"></path><path d="M47.0712 44.7292C46.7146 44.7298 46.366 44.6245 46.0693 44.4267C45.7727 44.229 45.5415 43.9476 45.405 43.6182C45.2684 43.2889 45.2328 42.9264 45.3025 42.5768C45.3722 42.2271 45.5442 41.9061 45.7966 41.6543L46.2905 41.1604C46.4579 40.993 46.6566 40.8602 46.8753 40.7697C47.094 40.6791 47.3283 40.6324 47.5651 40.6324C47.8018 40.6324 48.0361 40.6791 48.2548 40.7697C48.4735 40.8602 48.6722 40.993 48.8396 41.1604C49.007 41.3278 49.1398 41.5265 49.2303 41.7452C49.3209 41.9639 49.3676 42.1982 49.3676 42.4349C49.3676 42.6717 49.3209 42.906 49.2303 43.1247C49.1398 43.3434 49.007 43.5421 48.8396 43.7095L48.3457 44.2034C48.1782 44.3705 47.9795 44.5029 47.7608 44.5931C47.5421 44.6833 47.3077 44.7296 47.0712 44.7292Z" fill="#17262F"></path><path d="M47.5651 44.7292C47.3285 44.7296 47.0941 44.6833 46.8755 44.5931C46.6568 44.5029 46.458 44.3705 46.2905 44.2034L45.7966 43.7095C45.4586 43.3715 45.2687 42.913 45.2687 42.4349C45.2687 41.9569 45.4586 41.4984 45.7966 41.1604C46.1346 40.8223 46.5931 40.6324 47.0712 40.6324C47.5492 40.6324 48.0077 40.8223 48.3457 41.1604L48.8396 41.6543C49.092 41.9061 49.264 42.2271 49.3337 42.5768C49.4034 42.9264 49.3678 43.2889 49.2313 43.6182C49.0947 43.9476 48.8635 44.229 48.5669 44.4267C48.2702 44.6245 47.9216 44.7298 47.5651 44.7292Z" fill="#17262F"></path><path d="M47.5651 63.3856C47.3277 63.3863 47.0927 63.3394 46.8738 63.2477C46.6548 63.156 46.4565 63.0214 46.2905 62.8518L45.7966 62.3579C45.4586 62.0199 45.2687 61.5614 45.2687 61.0834C45.2687 60.6053 45.4586 60.1469 45.7966 59.8088C46.1346 59.4708 46.5931 59.2809 47.0712 59.2809C47.5492 59.2809 48.0077 59.4708 48.3457 59.8088L48.8396 60.3027C49.0082 60.4694 49.1421 60.6679 49.2334 60.8867C49.3248 61.1055 49.3718 61.3402 49.3718 61.5773C49.3718 61.8144 49.3248 62.0491 49.2334 62.2679C49.1421 62.4867 49.0082 62.6851 48.8396 62.8518C48.6736 63.0214 48.4753 63.156 48.2564 63.2477C48.0374 63.3394 47.8024 63.3863 47.5651 63.3856Z" fill="#17262F"></path><path d="M47.5651 63.3856C47.3277 63.3863 47.0927 63.3394 46.8738 63.2477C46.6548 63.156 46.4565 63.0214 46.2905 62.8518L45.7966 62.3579C45.4586 62.0199 45.2687 61.5614 45.2687 61.0834C45.2687 60.6053 45.4586 60.1469 45.7966 59.8088C46.1346 59.4708 46.5931 59.2809 47.0712 59.2809C47.5492 59.2809 48.0077 59.4708 48.3457 59.8088L48.8396 60.3027C49.0082 60.4694 49.1421 60.6679 49.2334 60.8867C49.3248 61.1055 49.3718 61.3402 49.3718 61.5773C49.3718 61.8144 49.3248 62.0491 49.2334 62.2679C49.1421 62.4867 49.0082 62.6851 48.8396 62.8518C48.6736 63.0214 48.4753 63.156 48.2564 63.2477C48.0374 63.3394 47.8024 63.3863 47.5651 63.3856Z" fill="#17262F"></path><path d="M47.0712 63.3856C46.8338 63.3863 46.5988 63.3394 46.3799 63.2477C46.161 63.156 45.9626 63.0214 45.7966 62.8518C45.628 62.6851 45.4942 62.4867 45.4028 62.2679C45.3115 62.0491 45.2644 61.8144 45.2644 61.5773C45.2644 61.3402 45.3115 61.1055 45.4028 60.8867C45.4942 60.6679 45.628 60.4694 45.7966 60.3027L46.2905 59.8088C46.6285 59.4708 47.087 59.2809 47.5651 59.2809C48.0431 59.2809 48.5016 59.4708 48.8396 59.8088C49.1777 60.1469 49.3676 60.6053 49.3676 61.0834C49.3676 61.5614 49.1777 62.0199 48.8396 62.3579L48.3457 62.8518C48.1797 63.0214 47.9814 63.156 47.7625 63.2477C47.5436 63.3394 47.3085 63.3863 47.0712 63.3856Z" fill="#17262F"></path><path d="M28.9166 44.7292C28.68 44.7296 28.4457 44.6833 28.227 44.5931C28.0083 44.5029 27.8095 44.3705 27.6421 44.2034L27.1482 43.7095C26.8101 43.3715 26.6202 42.913 26.6202 42.4349C26.6202 41.9569 26.8101 41.4984 27.1482 41.1604C27.4862 40.8223 27.9447 40.6324 28.4227 40.6324C28.9008 40.6324 29.3593 40.8223 29.6973 41.1604L30.1912 41.6463C30.5283 41.9864 30.7174 42.446 30.7174 42.9249C30.7174 43.4038 30.5283 43.8633 30.1912 44.2034C30.0237 44.3705 29.8249 44.5029 29.6062 44.5931C29.3875 44.6833 29.1532 44.7296 28.9166 44.7292Z" fill="#17262F"></path><path d="M28.9166 44.7292C28.68 44.7296 28.4457 44.6833 28.227 44.5931C28.0083 44.5029 27.8095 44.3705 27.6421 44.2034L27.1482 43.7095C26.8101 43.3715 26.6202 42.913 26.6202 42.4349C26.6202 41.9569 26.8101 41.4984 27.1482 41.1604C27.4862 40.8223 27.9447 40.6324 28.4227 40.6324C28.9008 40.6324 29.3593 40.8223 29.6973 41.1604L30.1912 41.6463C30.5283 41.9864 30.7174 42.446 30.7174 42.9249C30.7174 43.4038 30.5283 43.8633 30.1912 44.2034C30.0237 44.3705 29.8249 44.5029 29.6062 44.5931C29.3875 44.6833 29.1532 44.7296 28.9166 44.7292Z" fill="#17262F"></path><path d="M28.4227 44.7292C27.9429 44.7286 27.4824 44.5398 27.1402 44.2034C26.8011 43.8643 26.6107 43.4044 26.6107 42.9249C26.6107 42.4453 26.8011 41.9854 27.1402 41.6463L27.6341 41.1604C27.9721 40.8223 28.4306 40.6324 28.9087 40.6324C29.3867 40.6324 29.8452 40.8223 30.1832 41.1604C30.5213 41.4984 30.7112 41.9569 30.7112 42.4349C30.7112 42.913 30.5213 43.3715 30.1832 43.7095L29.6893 44.2034C29.353 44.5389 28.8978 44.7279 28.4227 44.7292Z" fill="#17262F"></path><path d="M90.94 43.8131C89.3601 33.4092 84.7398 23.7045 77.6601 15.9189C70.5804 8.13337 61.3572 2.6144 51.1498 0.0557694C50.7013 -0.0566125 50.2267 0.00708643 49.8237 0.233773C49.4207 0.46046 49.1199 0.832911 48.983 1.27457L44.8885 14.6415C37.2076 13.2167 29.2741 14.1939 22.1685 17.4401C15.063 20.6862 9.13058 26.0436 5.17926 32.7825C1.22793 39.5215 -0.550305 47.3146 0.0867149 55.1005C0.723734 62.8865 3.74504 70.2869 8.73921 76.294C13.7334 82.3011 20.4577 86.6229 27.9964 88.6709C35.5351 90.7189 43.5219 90.3936 50.8691 87.7392C58.2163 85.0848 64.5668 80.2304 69.0558 73.8371C73.5449 67.4437 75.9543 59.8221 75.9559 52.0101C75.9559 50.7754 75.8763 49.5406 75.7568 48.3139L89.4583 45.8205C89.9168 45.7421 90.3271 45.4893 90.6033 45.1151C90.8795 44.7409 91.0002 44.2743 90.94 43.8131ZM37.9899 86.4312C33.2497 86.3955 28.568 85.3801 24.2389 83.4489C19.9097 81.5176 16.0266 78.7122 12.8333 75.2088C9.64001 71.7054 7.20551 67.5796 5.68267 63.0904C4.15983 58.6013 3.58154 53.8458 3.98409 49.1226C4.38664 44.3993 5.76135 39.8103 8.02191 35.6437C10.2825 31.477 13.38 27.8227 17.1201 24.9102C20.8603 21.9976 25.1621 19.8898 29.7556 18.719C34.3492 17.5483 39.1351 17.3398 43.8131 18.1068L43.128 20.3452C43.1241 20.3689 43.1241 20.3932 43.128 20.4169C43.1246 20.4407 43.1246 20.4648 43.128 20.4886C43.128 20.4886 43.128 20.5603 43.128 20.6001V20.7754V20.9586C43.128 21.0143 43.128 21.0701 43.128 21.1338C43.1375 21.1904 43.1508 21.2463 43.1678 21.3011C43.1763 21.3587 43.1924 21.415 43.2156 21.4684C43.2334 21.5228 43.2547 21.576 43.2793 21.6277C43.3011 21.6806 43.3278 21.7312 43.359 21.7791C43.359 21.8348 43.4227 21.8747 43.4546 21.9225L43.5582 22.0659L43.6776 22.1854L43.8131 22.2969L43.9565 22.4004L44.1158 22.4881L44.2751 22.5518C44.3107 22.5711 44.3481 22.5871 44.3866 22.5996H44.4583H44.522C50.5118 23.9343 55.9502 27.0687 60.1078 31.5823C64.2654 36.0959 66.9435 41.7729 67.7828 47.8518V47.8996C67.8143 48.0062 67.8542 48.1101 67.9023 48.2103C67.9257 48.3008 67.9578 48.3888 67.9979 48.4732C68.0662 48.5801 68.1463 48.679 68.2369 48.7679C68.2836 48.8343 68.337 48.8956 68.3962 48.9511C68.5052 49.0349 68.6227 49.107 68.7467 49.1662C68.8104 49.1662 68.8662 49.2459 68.9299 49.2698C69.1317 49.3428 69.3446 49.3805 69.5592 49.3813C69.6414 49.389 69.724 49.389 69.8062 49.3813H69.8858L72.2199 48.9511C72.3075 49.9708 72.3633 50.9825 72.3633 52.0021C72.3548 61.1174 68.7312 69.8571 62.2872 76.3041C55.8432 82.751 47.1052 86.3787 37.9899 86.3914V86.4312ZM73.5821 45.0876H73.5263L71.0489 45.5337C69.8449 39.4305 66.9749 33.7797 62.7569 29.2074C58.5388 24.635 53.1373 21.3195 47.1508 19.6283L51.9225 3.98301C60.7809 6.53083 68.7579 11.4882 74.9648 18.3027C81.1717 25.1171 85.3646 33.5212 87.0765 42.5783L73.5821 45.0876Z" fill="#17262F"></path></g><defs><clipPath id="clip0_5678_32915"><rect width="90.9639" height="90" fill="white"></rect></clipPath></defs></svg>