<svg xmlns="http://www.w3.org/2000/svg" width="106" height="90" viewBox="0 0 106 90" fill="none"><g clip-path="url(#clip0_5678_33599)"><path d="M35.2232 42.5549C34.8478 42.5549 34.4878 42.7041 34.2224 42.9695C33.957 43.2349 33.8079 43.5949 33.8079 43.9703C33.8079 44.3457 33.957 44.7057 34.2224 44.9711C34.4878 45.2365 34.8478 45.3857 35.2232 45.3857H47.2975C47.6728 45.3857 48.0329 45.2365 48.2983 44.9711C48.5637 44.7057 48.7128 44.3457 48.7128 43.9703C48.7128 43.5949 48.5637 43.2349 48.2983 42.9695C48.0329 42.7041 47.6728 42.5549 47.2975 42.5549H35.2232Z" fill="#17262F"></path><path d="M13.3085 60.3712H18.2589V65.3418C18.2589 65.7171 18.408 66.0771 18.6735 66.3426C18.9389 66.608 19.2989 66.7571 19.6743 66.7571C20.0497 66.7571 20.4097 66.608 20.6751 66.3426C20.9405 66.0771 21.0897 65.7171 21.0897 65.3418V60.3712H40.7438V64.0605C40.7438 64.4359 40.893 64.7959 41.1584 65.0614C41.4238 65.3268 41.7838 65.4759 42.1592 65.4759C42.5346 65.4759 42.8946 65.3268 43.16 65.0614C43.4255 64.7959 43.5746 64.4359 43.5746 64.0605V60.3712H62.9671V63.0544C62.9671 63.4297 63.1163 63.7897 63.3817 64.0552C63.6471 64.3206 64.0071 64.4697 64.3825 64.4697C64.7579 64.4697 65.1179 64.3206 65.3833 64.0552C65.6488 63.7897 65.7979 63.4297 65.7979 63.0544V60.3712H86.4851V65.3418C86.4851 65.7171 86.6342 66.0771 86.8996 66.3426C87.165 66.608 87.525 66.7571 87.9004 66.7571C88.2758 66.7571 88.6358 66.608 88.9012 66.3426C89.1667 66.0771 89.3158 65.7171 89.3158 65.3418V60.3712H91.7709C92.4441 60.372 93.0998 60.1567 93.6416 59.7572C94.1835 59.3576 94.5828 58.7948 94.781 58.1514C94.9792 57.508 94.9658 56.818 94.7427 56.1828C94.5197 55.5476 94.0987 55.0007 93.5418 54.6225L79.4552 45.0369C79.1447 44.8252 78.7629 44.7455 78.3937 44.8153C78.0245 44.8851 77.6981 45.0988 77.4864 45.4092C77.2747 45.7197 77.195 46.1015 77.2648 46.4707C77.3346 46.8399 77.5482 47.1663 77.8587 47.378L91.9453 56.9636C92.0052 56.9964 92.0512 57.0498 92.0746 57.114C92.0981 57.1782 92.0974 57.2487 92.0727 57.3124C92.0571 57.3797 92.0183 57.4395 91.9632 57.4812C91.908 57.5228 91.84 57.5438 91.7709 57.5405H13.2884C13.219 57.5452 13.1503 57.5247 13.0948 57.4828C13.0394 57.4409 13.0009 57.3804 12.9865 57.3124C12.9603 57.2488 12.9589 57.1778 12.9825 57.1132C13.0061 57.0487 13.053 56.9953 13.114 56.9636L27.1603 47.3713C27.4708 47.1596 27.6844 46.8332 27.7542 46.464C27.824 46.0948 27.7443 45.7129 27.5326 45.4025C27.3209 45.0921 26.9945 44.8784 26.6253 44.8086C26.2561 44.7388 25.8743 44.8185 25.5638 45.0302L11.5376 54.6024C10.9715 54.9773 10.542 55.5252 10.313 56.1643C10.084 56.8035 10.0679 57.4996 10.2672 58.1486C10.4664 58.7976 10.8703 59.3648 11.4184 59.7654C11.9666 60.166 12.6296 60.3785 13.3085 60.3712Z" fill="#17262F"></path><path d="M58.0368 42.5549C57.6614 42.5549 57.3014 42.7041 57.036 42.9695C56.7706 43.2349 56.6215 43.5949 56.6215 43.9703C56.6215 44.3457 56.7706 44.7057 57.036 44.9711C57.3014 45.2365 57.6614 45.3857 58.0368 45.3857H69.9702C70.3456 45.3857 70.7056 45.2365 70.971 44.9711C71.2364 44.7057 71.3856 44.3457 71.3856 43.9703C71.3856 43.5949 71.2364 43.2349 70.971 42.9695C70.7056 42.7041 70.3456 42.5549 69.9702 42.5549H58.0368Z" fill="#17262F"></path><path d="M7.94216 75.7122C8.17231 75.8663 8.44329 75.9481 8.72028 75.947C8.95853 75.9436 9.19212 75.8804 9.39958 75.7632C9.60703 75.646 9.78172 75.4785 9.90758 75.2762C9.90758 75.2762 11.437 73.1364 16.0252 73.1364C20.6134 73.1364 22.0623 75.1488 22.1562 75.2963C22.3373 75.5579 24.5912 78.6972 30.6283 78.6972C36.8063 78.6972 39.0266 75.4104 39.1205 75.2695C39.1205 75.2695 40.6499 73.1297 45.2381 73.1297C49.8263 73.1297 51.2752 75.142 51.3692 75.2896C51.5503 75.5512 53.8041 78.6905 59.8412 78.6905C66.0192 78.6905 68.2395 75.4037 68.3335 75.2628C68.3335 75.2628 69.8629 73.123 74.4511 73.123C79.0393 73.123 80.4882 75.1353 80.5821 75.2829C80.7632 75.5445 83.0104 78.6838 89.0542 78.6838C95.2254 78.6838 97.4525 75.3969 97.5397 75.2561C97.6471 75.1007 97.7223 74.9254 97.7609 74.7405C97.7994 74.5556 97.8006 74.3648 97.7644 74.1795C97.7281 73.9941 97.6551 73.8179 97.5496 73.6612C97.4442 73.5045 97.3084 73.3705 97.1504 73.267C96.9923 73.1636 96.8151 73.0929 96.6293 73.059C96.4435 73.0251 96.2528 73.0287 96.0684 73.0697C95.884 73.1106 95.7097 73.1881 95.5557 73.2975C95.4017 73.4068 95.2712 73.5459 95.1718 73.7065C95.1718 73.7065 93.6424 75.8464 89.0542 75.8464C84.466 75.8464 83.0171 73.834 82.9232 73.6864C82.7487 73.4248 80.4949 70.2855 74.4511 70.2855C68.4072 70.2855 66.1668 73.4047 65.979 73.6797C65.9186 73.7669 64.3892 75.8397 59.8479 75.8397C55.3067 75.8397 53.8108 73.8273 53.7169 73.6797C53.5425 73.4181 51.2887 70.2788 45.2448 70.2788C39.0669 70.2788 36.8465 73.559 36.7526 73.6998C36.7526 73.6998 35.2232 75.8397 30.635 75.8397C26.0468 75.8397 24.5979 73.8273 24.504 73.6797C24.3296 73.4181 22.0757 70.2788 16.0319 70.2788C9.85391 70.2788 7.63359 73.559 7.53968 73.6998C7.42914 73.8568 7.35169 74.0346 7.31202 74.2224C7.27236 74.4102 7.27132 74.6042 7.30897 74.7924C7.34662 74.9807 7.42217 75.1593 7.53102 75.3174C7.63987 75.4755 7.77976 75.6099 7.94216 75.7122Z" fill="#17262F"></path><path d="M104.435 84.6137C104.28 84.5111 104.106 84.4403 103.923 84.4053C103.741 84.3704 103.553 84.372 103.371 84.41C103.189 84.4481 103.016 84.5218 102.862 84.627C102.709 84.7322 102.578 84.8667 102.477 85.0228C102.477 85.0228 100.941 87.1627 96.3591 87.1627C91.7776 87.1627 90.322 85.1503 90.2281 85.0027C90.047 84.7277 87.7931 81.6018 81.756 81.6018C75.5847 81.6018 73.3644 84.882 73.2705 85.0228C73.2705 85.0228 71.7277 87.1627 67.1529 87.1627C62.5781 87.1627 61.1157 85.1503 61.0218 85.0027C60.8407 84.7277 58.5869 81.6018 52.5497 81.6018C46.3785 81.6018 44.1582 84.882 44.0642 85.0228C44.0642 85.0228 42.5214 87.1627 37.9466 87.1627C33.3718 87.1627 31.9095 85.1503 31.8156 85.0027C31.6345 84.7411 29.3873 81.6018 23.3368 81.6018C17.1655 81.6018 14.9452 84.882 14.8513 85.0228C14.8513 85.0228 13.3085 87.1627 8.73369 87.1627C4.1589 87.1627 2.69658 85.1503 2.60267 85.0027C2.38995 84.7014 2.06802 84.495 1.70541 84.4275C1.34281 84.36 0.968178 84.4367 0.661289 84.6413C0.354401 84.8459 0.139499 85.1622 0.0623418 85.5229C-0.0148156 85.8836 0.0518667 86.2601 0.248191 86.5724C0.335393 86.7132 2.56242 90.0001 8.73369 90.0001C14.7708 90.0001 17.0113 86.8876 17.2058 86.5992C17.2662 86.5053 18.7956 84.4325 23.3368 84.4325C27.8781 84.4325 29.3739 86.4449 29.4678 86.5925C29.649 86.8541 31.9028 89.9934 37.9399 89.9934C43.977 89.9934 46.2175 86.8809 46.412 86.5925C46.4724 86.4986 48.0018 84.4258 52.543 84.4258C57.0843 84.4258 58.5802 86.4382 58.6741 86.5858C58.8552 86.8474 61.1023 89.9934 67.1529 89.9934C73.2034 89.9934 75.4304 86.8809 75.6249 86.5925C75.6853 86.4986 77.2147 84.4258 81.756 84.4258C86.2972 84.4258 87.7931 86.4382 87.887 86.5858C88.0681 86.8474 90.3153 89.9934 96.3658 89.9934C102.537 89.9934 104.757 86.7065 104.851 86.5657C104.953 86.4103 105.022 86.2365 105.056 86.0542C105.09 85.8718 105.087 85.6847 105.049 85.5033C105.01 85.3219 104.936 85.15 104.831 84.9973C104.726 84.8447 104.591 84.7143 104.435 84.6137Z" fill="#17262F"></path><path d="M25.0138 38.054L25.2419 38.1211C26.8316 38.6376 27.925 38.9328 28.6964 39.1005V42.2934C28.6964 42.4793 28.733 42.6634 28.8042 42.8351C28.8753 43.0068 28.9796 43.1628 29.111 43.2943C29.2424 43.4257 29.3984 43.5299 29.5702 43.6011C29.7419 43.6722 29.9259 43.7088 30.1118 43.7088C30.2977 43.7088 30.4817 43.6722 30.6534 43.6011C30.8252 43.5299 30.9812 43.4257 31.1126 43.2943C31.244 43.1628 31.3483 43.0068 31.4194 42.8351C31.4906 42.6634 31.5272 42.4793 31.5272 42.2934V39.2145C32.6612 39.0239 33.7816 38.7595 34.8811 38.423L35.4312 38.262C37.3483 37.8134 39.1597 36.9954 40.764 35.8539C42.508 37.6046 44.6411 38.4163 47.284 39.2749L47.5457 39.3621C48.7851 39.7812 50.0457 40.1349 51.3222 40.4219V45.6474C51.3469 46.0068 51.5072 46.3434 51.7705 46.5893C52.0338 46.8351 52.3807 46.9719 52.7409 46.9719C53.1012 46.9719 53.448 46.8351 53.7114 46.5893C53.9747 46.3434 54.1349 46.0068 54.1596 45.6474V40.5427C55.4036 40.3373 56.6319 40.0459 57.8356 39.6707L58.4192 39.503C60.5389 38.8858 63.0543 38.1614 65.1271 36.0081C66.5872 36.9015 68.1687 37.5793 69.8226 38.0205L70.0909 38.1077C71.674 38.6242 72.7741 38.9194 73.5321 39.0871V42.28C73.5187 42.4745 73.5455 42.6697 73.6107 42.8535C73.6759 43.0372 73.7783 43.2056 73.9113 43.3481C74.0444 43.4906 74.2053 43.6042 74.3841 43.6819C74.563 43.7596 74.7558 43.7997 74.9508 43.7997C75.1458 43.7997 75.3387 43.7596 75.5175 43.6819C75.6963 43.6042 75.8573 43.4906 75.9903 43.3481C76.1234 43.2056 76.2257 43.0372 76.2909 42.8535C76.3562 42.6697 76.3829 42.4745 76.3695 42.28V39.2145C77.5032 39.0224 78.6235 38.758 79.7235 38.423L80.2668 38.262C84.2111 37.1149 89.6177 35.5788 90.597 23.8869C91.0867 18.1584 85.982 8.51912 81.0718 3.72297C79.4246 2.17407 77.2487 1.31171 74.9877 1.31171C72.7267 1.31171 70.5508 2.17407 68.9036 3.72297C67.2296 5.4067 65.7285 7.25389 64.4227 9.23687C62.9604 6.81578 61.2177 4.57553 59.2308 2.5625C57.4841 0.902398 55.1661 -0.0227317 52.7564 -0.0214831C50.3466 -0.0202345 48.0295 0.907297 46.2846 2.56921C44.1943 4.68013 42.3491 7.02037 40.7841 9.54543C39.4843 7.44346 37.9544 5.49284 36.2227 3.72968C34.5782 2.17823 32.4028 1.31405 30.142 1.31405C27.8811 1.31405 25.7058 2.17823 24.0613 3.72968C19.4798 8.21056 13.4561 18.0108 14.5495 24.0211C16.5082 34.8074 19.6475 36.31 25.0138 38.054ZM70.8892 5.76217C72.0063 4.72299 73.4754 4.14531 75.0011 4.14531C76.5268 4.14531 77.996 4.72299 79.1131 5.76217C83.3793 9.93449 88.2023 18.8493 87.7864 23.6522C86.9747 33.3719 83.1781 34.472 79.4887 35.552L78.932 35.713C77.7849 36.0551 76.9665 36.2429 76.3829 36.3838V28.8978C76.3582 28.5383 76.198 28.2017 75.9347 27.9559C75.6713 27.71 75.3245 27.5733 74.9642 27.5733C74.604 27.5733 74.2571 27.71 73.9938 27.9559C73.7304 28.2017 73.5702 28.5383 73.5455 28.8978V36.2228C72.9351 36.0685 72.1033 35.827 70.9831 35.4648L70.7081 35.3776C69.3635 35.0099 68.0717 34.4711 66.8644 33.7744C68.1255 31.6077 69.078 28.5624 69.447 24.1821C69.7287 20.8617 68.253 16.3271 66.0125 12.0542C67.394 9.77855 69.0301 7.66762 70.8892 5.76217ZM48.2969 4.595C49.5159 3.46056 51.1193 2.82989 52.7845 2.82989C54.4497 2.82989 56.0531 3.46056 57.2721 4.595C61.867 9.08259 67.0724 18.6816 66.6297 23.9071C65.7375 34.4318 61.6188 35.6258 57.6276 36.7795L57.0239 36.9539C56.0807 37.2452 55.1223 37.4848 54.1529 37.6717V30.5747C54.1663 30.3802 54.1396 30.185 54.0743 30.0013C54.0091 29.8176 53.9068 29.6492 53.7737 29.5067C53.6407 29.3642 53.4797 29.2505 53.3009 29.1728C53.1221 29.0951 52.9292 29.055 52.7342 29.055C52.5392 29.055 52.3464 29.0951 52.1675 29.1728C51.9887 29.2505 51.8278 29.3642 51.6947 29.5067C51.5617 29.6492 51.4593 29.8176 51.3941 30.0013C51.3289 30.185 51.3021 30.3802 51.3155 30.5747V37.5174C50.6447 37.3497 49.7123 37.0881 48.4177 36.6655L48.1561 36.585C43.4069 35.0355 40.7841 34.2104 38.9059 23.7729C38.4296 21.13 39.7913 17.065 41.9513 13.1543C42.0209 13.056 42.0794 12.9503 42.1257 12.839C43.7954 9.82129 45.8719 7.04734 48.2969 4.595ZM26.0535 5.75547C27.1695 4.72205 28.6344 4.14794 30.1554 4.14794C31.6764 4.14794 33.1413 4.72205 34.2573 5.75547C36.1763 7.72747 37.8354 9.93661 39.1943 12.3292C36.9673 16.4948 35.5519 20.9288 36.1221 24.276C36.8935 28.6026 37.8594 31.5273 39.0534 33.5933C37.7226 34.5297 36.2206 35.1952 34.6329 35.552L34.0762 35.713C32.9291 36.0551 32.1108 36.2429 31.5272 36.3838V28.8978C31.5272 28.5224 31.378 28.1624 31.1126 27.8969C30.8472 27.6315 30.4872 27.4824 30.1118 27.4824C29.7364 27.4824 29.3764 27.6315 29.111 27.8969C28.8456 28.1624 28.6964 28.5224 28.6964 28.8978V36.2228C28.086 36.0685 27.2475 35.827 26.1206 35.4648L25.8858 35.391C21.5056 33.9689 19.0907 33.1908 17.3467 23.5448C16.5484 19.0908 21.3714 10.337 26.0535 5.75547Z" fill="#17262F"></path></g><defs><clipPath id="clip0_5678_33599"><rect width="105.079" height="90" fill="white"></rect></clipPath></defs></svg>