<svg xmlns="http://www.w3.org/2000/svg" width="179" height="110" viewBox="0 0 179 110" fill="none"><g clip-path="url(#clip0_5678_10382)"><g style="mix-blend-mode:multiply"><path d="M158.588 108.042L169.423 101.551L169.109 98.4106L162.137 94.6627L140.853 87.1458L136.665 87.4494L136.121 87.7635L139.837 87.7006L137.88 88.779H134.121L133.566 89.1035L137.293 89.0302L135.315 90.1609L131.598 90.2342L131.043 90.5483L134.592 90.4854L132.687 91.5952L129.064 91.6894L128.52 92.0035L132.237 91.9407L130.3 93.176H126.541L125.986 93.4901L129.714 93.4273L127.724 94.5684H123.997L123.442 94.893L123.317 94.9663L125.411 97.3323L136.142 104.179L104.556 101.038L97.4265 98.2641L88.9255 78.7285L92.9352 76.4986L91.8045 75.5354L86.5699 73.2113V73.1484L99.3947 65.642L111.246 65.8514L120.26 60.8052L118.166 59.7583L95.3955 48.6191L39.783 33.0409L25.346 30.2456L2.69059 43.2274L0 48.797L21.0222 63.4539L12.1862 69.0968V71.1907L28.9892 80.6863H42.9238L61.1402 78.0061C61.1402 78.0061 72.0177 84.2877 74.6769 84.5075C75.1787 84.5441 75.6826 84.5441 76.1844 84.5075L88.4439 104.19L99.0073 107.498L152.85 110L158.598 108.042H158.588Z" fill="#BBBBBB"></path></g><path d="M116.124 43.2062L65.0243 13.704C62.9304 12.4686 60.9622 12.2592 59.5907 12.9083C59.4442 12.9816 59.3081 13.0654 59.172 13.1491L50.0114 18.4361L50.9955 19.3574L54.3143 23.1053C54.4922 27.293 59.842 27.293 63.8936 29.6486L110.188 56.3765L112.471 64.5425L121.705 59.2136L121.935 59.0775L120.773 59.7476C121.82 59.0461 123.662 57.057 123.662 55.2039C123.662 50.9848 120.291 45.6141 116.124 43.2062Z" fill="#4F1F26"></path><path d="M58.5229 15.0126L65.2546 13.6935C65.2546 13.6935 64.6369 13.0235 64.4171 12.856L57.9994 14.1541L54.7749 18.5931L55.2356 19.483L58.5229 15.0126Z" fill="#5D3138"></path><path d="M62.721 17.3998L69.4632 16.0912C69.1984 15.7947 68.9189 15.5116 68.6257 15.2432L62.1976 16.5518L58.9731 20.9384L59.4442 21.8283L62.721 17.3998Z" fill="#5D3138"></path><path d="M66.9192 19.7973L73.6614 18.4782C73.3986 18.1831 73.1189 17.9034 72.8238 17.6406L66.3957 18.9388L63.1712 23.3778L63.6423 24.2676L66.9192 19.7973Z" fill="#5D3138"></path><path d="M71.1173 22.1845L77.8595 20.8654C77.8595 20.8654 77.2418 20.1953 77.022 20.0278L70.5939 21.326L67.3694 25.765L67.8405 26.6548L71.1173 22.1845Z" fill="#5D3138"></path><path d="M75.3783 24.5712L82.11 23.2626C81.8494 22.9655 81.5734 22.6825 81.283 22.4146L74.8549 23.7232L71.578 28.1621L72.0386 29.0416L75.3783 24.5712Z" fill="#5D3138"></path><path d="M79.566 26.9687L86.2663 25.6495C86.0035 25.3544 85.7239 25.0748 85.4288 24.812L79.0007 26.1102L75.7762 30.5491L76.2473 31.439L79.566 26.9687Z" fill="#5D3138"></path><path d="M83.7537 29.3139L90.4959 27.9948C90.4959 27.9948 89.8782 27.3247 89.6583 27.1572L83.2302 28.4554L80.0057 32.8944L80.4768 33.7842L83.7537 29.3139Z" fill="#5D3138"></path><path d="M87.9414 31.7429L94.6731 30.4342C94.4131 30.1365 94.1333 29.8566 93.8355 29.5967L87.4179 30.8949L84.1934 35.3338L84.654 36.2132L87.9414 31.7429Z" fill="#5D3138"></path><path d="M92.1291 34.1401L98.8712 32.8209C98.6084 32.5258 98.3288 32.2462 98.0337 31.9834L91.6056 33.2816L88.3811 37.6891L88.8522 38.579L92.1291 34.1401Z" fill="#5D3138"></path><path d="M96.3167 36.5273L103.059 35.2081C103.059 35.2081 102.441 34.5381 102.221 34.3706L95.7933 35.6688L92.5688 40.1077L93.0399 40.9976L96.3167 36.5273Z" fill="#5D3138"></path><path d="M100.504 38.9247L107.247 37.6056C106.984 37.3105 106.704 37.0308 106.409 36.7681L99.981 38.0663L96.7774 42.5052L97.2485 43.3846L100.504 38.9247Z" fill="#5D3138"></path><path d="M104.692 41.3114L111.424 39.9923C111.165 39.6967 110.889 39.417 110.597 39.1548L104.169 40.453L100.944 44.8919L101.405 45.7818L104.692 41.3114Z" fill="#5D3138"></path><path d="M108.932 43.6987L115.674 42.39C115.41 42.0935 115.13 41.8105 114.837 41.542L108.409 42.8402L105.184 47.2791L105.655 48.169L108.932 43.6987Z" fill="#5D3138"></path><path d="M113.067 46.1586L119.81 44.8395C119.547 44.5444 119.267 44.2647 118.972 44.002L112.544 45.3001L109.32 49.7391L109.791 50.629L113.067 46.1586Z" fill="#5D3138"></path><path d="M115.988 50.0116L122.731 48.703C122.466 48.4065 122.186 48.1234 121.893 47.855L115.465 49.2055L112.24 53.634L112.712 54.5239L115.988 50.0116Z" fill="#5D3138"></path><path d="M117.349 54.4399L124.081 53.1207C123.818 52.8256 123.539 52.546 123.244 52.2832L116.826 53.5814L113.601 58.0203L114.062 58.9102L117.349 54.4399Z" fill="#5D3138"></path><path d="M117.402 59.2348L124.144 57.9261C123.879 57.6296 123.6 57.3466 123.306 57.0781L116.878 58.3868L113.654 62.8153L114.125 63.7051L117.402 59.2348Z" fill="#5D3138"></path><path d="M55.8009 19.0226L106.901 48.5353C111.089 50.9327 114.439 56.3034 114.439 60.5225C114.439 64.7102 111.068 66.2178 106.901 63.8099L55.8009 34.3076C51.6132 31.9102 48.2526 26.5395 48.2526 22.3099C48.2526 18.0908 51.6341 16.6251 55.8009 19.0226Z" fill="#816065"></path><path d="M112.9 59.6744C112.904 60.0261 112.869 60.3773 112.795 60.7213C112.272 63.1292 109.822 63.7783 106.901 62.0823L55.8009 32.5382C52.4926 30.6328 49.802 26.4451 49.802 23.1996C49.802 20.4043 51.8121 19.2213 54.5027 20.1845C54.9501 20.3539 55.3841 20.5569 55.8009 20.7917L106.901 50.2521C110.209 52.2098 112.9 56.3975 112.9 59.6744Z" fill="#4F1F26"></path><path d="M112.9 59.6746C112.904 60.0264 112.869 60.3776 112.795 60.7216C112.346 60.5527 111.912 60.3461 111.497 60.1039L60.3969 30.5598C57.0886 28.6544 54.4399 24.4667 54.4399 21.2212C54.435 20.8694 54.4701 20.5182 54.5446 20.1743C54.992 20.3438 55.4259 20.5467 55.8428 20.7815L58.4705 22.31L59.6745 23.0324L64.9091 26.0685L72.7296 30.5807L74.4361 31.5648L75.661 32.2663L79.0844 34.2449L84.5389 37.3857L91.3962 41.3535L92.2023 41.8037L92.3699 41.9084L95.1128 43.4892L96.2853 44.1697L99.1225 45.8134L105.268 49.352L106.87 50.2733L107.32 50.556C107.783 50.8699 108.221 51.22 108.629 51.6029C111.12 53.7281 112.9 57.005 112.9 59.6746Z" fill="#380009"></path><path d="M84.4028 43.9708C84.4028 45.3423 83.4396 45.8867 82.2357 45.2062C81.608 44.7963 81.0856 44.2444 80.7109 43.595C80.3363 42.9457 80.1198 42.2173 80.079 41.4687C80.079 40.0972 81.0422 39.5424 82.2357 40.2333C82.8659 40.6414 83.3907 41.1927 83.7673 41.8423C84.1439 42.4918 84.3617 43.2212 84.4028 43.9708Z" fill="#805E63"></path><path d="M84.1515 43.5518C84.1515 44.7244 83.3245 45.1955 82.3089 44.5988C81.7778 44.2547 81.3339 43.7918 81.0123 43.2468C80.6907 42.7017 80.5002 42.0893 80.4559 41.458C80.4559 40.2854 81.283 39.8143 82.3089 40.4111C82.837 40.7575 83.278 41.2212 83.5976 41.7659C83.9172 42.3107 84.1068 42.9218 84.1515 43.5518Z" fill="#92757A"></path><path d="M61.0041 28.0992C61.0041 29.879 59.7373 30.6013 58.1879 29.701C57.3731 29.1694 56.6947 28.4537 56.2073 27.6117C55.72 26.7698 55.4373 25.825 55.3821 24.8538C55.3821 23.074 56.6384 22.3516 58.1879 23.252C59.0052 23.7818 59.6861 24.4968 60.1753 25.339C60.6646 26.1812 60.9486 27.1268 61.0041 28.0992Z" fill="#4F1F26"></path><path d="M60.6063 26.2566L59.2034 26.8638C59.6073 27.6164 59.8126 28.4595 59.8001 29.3136C59.8001 30.7374 59.507 30.6327 59.507 30.6327L58.0518 31.1352L54.4399 24.1523L56.3662 22.9692L58.6276 24.1627L60.6063 26.2566Z" fill="#4F1F26"></path><path d="M59.172 29.2301C59.172 31.0098 57.9157 31.7322 56.3558 30.8319C55.5399 30.3015 54.8605 29.5861 54.373 28.7439C53.8855 27.9016 53.6035 26.9563 53.55 25.9846C53.55 24.2048 54.8063 23.4825 56.3558 24.3828C57.1748 24.9108 57.857 25.6253 58.3466 26.4679C58.8361 27.3105 59.119 28.2571 59.172 29.2301Z" fill="#805E63"></path><path d="M58.4077 28.7903C58.4077 30.0885 57.4969 30.612 56.3139 29.9629C55.7198 29.5746 55.2255 29.0519 54.8708 28.4372C54.5162 27.8225 54.3112 27.1329 54.2724 26.4243C54.2724 25.1261 55.1832 24.6026 56.3139 25.2517C56.9183 25.6335 57.4232 26.1534 57.7873 26.7687C58.1513 27.3839 58.364 28.0768 58.4077 28.7903Z" fill="#92757A"></path><path d="M94.6207 47.1113C94.6207 48.891 93.3644 49.6134 91.8045 48.713C90.9919 48.1857 90.314 47.4755 89.825 46.6393C89.336 45.803 89.0494 44.864 88.9883 43.8972C88.9883 42.1174 90.2446 41.3951 91.794 42.2954C92.6109 42.8191 93.2926 43.5282 93.7838 44.365C94.2749 45.2018 94.5617 46.1427 94.6207 47.1113Z" fill="#4F1F26"></path><path d="M94.2229 45.3005L92.82 45.9077C93.2328 46.6645 93.4387 47.5167 93.4168 48.3785C93.4168 49.8023 93.1341 49.6976 93.1341 49.6976L91.6789 50.2525L88.0461 43.1962L90.0352 42.0132L92.2652 43.2067L94.2229 45.3005Z" fill="#4F1F26"></path><path d="M92.7886 48.2737C92.7886 50.0535 91.5323 50.7759 89.9829 49.8755C89.1625 49.3465 88.4794 48.6303 87.9898 47.7858C87.5002 46.9413 87.2181 45.9926 87.1667 45.0178C87.1667 43.238 88.423 42.5157 89.9829 43.416C90.799 43.9487 91.4783 44.666 91.9657 45.5099C92.4531 46.3538 92.7351 47.3006 92.7886 48.2737Z" fill="#805E63"></path><path d="M92.0244 47.8338C92.0244 49.132 91.1135 49.6554 89.9305 49.0063C89.3262 48.6245 88.8212 48.1046 88.4571 47.4894C88.0931 46.8742 87.8804 46.1813 87.8367 45.4677C87.8367 44.1696 88.7475 43.6461 89.9305 44.2952C90.5343 44.6776 91.0389 45.1977 91.4028 45.8128C91.7668 46.4279 91.9798 47.1205 92.0244 47.8338Z" fill="#92757A"></path><path d="M79.3252 38.422C79.3252 40.2017 78.0584 40.9241 76.509 40.0237C75.6929 39.4927 75.0129 38.7774 74.5237 37.9355C74.0346 37.0935 73.7499 36.1485 73.6928 35.1765C73.6928 33.3967 74.9596 32.6744 76.509 33.5747C77.3263 34.1046 78.0072 34.8196 78.4965 35.6617C78.9858 36.5039 79.2697 37.4495 79.3252 38.422Z" fill="#4F1F26"></path><path d="M78.9274 36.5793L77.5245 37.1865C77.9314 37.9452 78.1334 38.7967 78.1108 39.6573C78.1108 41.0811 77.8281 40.9764 77.8281 40.9764L76.4252 41.4789L72.8029 34.475L74.7292 33.292L76.9696 34.4855L78.9274 36.5793Z" fill="#4F1F26"></path><path d="M77.4722 39.5528C77.4722 41.3326 76.2159 42.055 74.6559 41.1546C73.8412 40.623 73.1628 39.9073 72.6754 39.0654C72.188 38.2234 71.9054 37.2787 71.8502 36.3074C71.8502 34.5276 73.1065 33.8052 74.6559 34.7056C75.475 35.2335 76.1572 35.9481 76.6467 36.7907C77.1363 37.6332 77.4191 38.5798 77.4722 39.5528Z" fill="#805E63"></path><path d="M76.7289 39.1131C76.7289 40.4113 75.8076 40.9347 74.635 40.2856C74.0312 39.9032 73.5267 39.3831 73.1627 38.768C72.7988 38.1529 72.5858 37.4603 72.5412 36.747C72.5412 35.4488 73.452 34.9254 74.635 35.5745C75.2376 35.9582 75.7413 36.4786 76.1051 37.0934C76.4689 37.7082 76.6826 38.4002 76.7289 39.1131Z" fill="#92757A"></path><path d="M96.3167 44.1903L95.1861 45.2268L92.5792 46.5982V46.5877L84.9158 37.8041L84.5703 37.4062L92.2233 41.8243L95.1442 43.5098L96.3167 44.1903Z" fill="#BB5900"></path><path d="M95.1442 43.5098L92.5792 46.5878L73.7137 35.6998L72.761 30.5908L79.1158 34.255L84.5703 37.4063L92.2233 41.8243L95.1442 43.5098Z" fill="#E28B00"></path><path d="M92.2233 41.8246L91.9825 42.1282L84.9158 37.8044L79.1158 34.2554L84.5703 37.4066L92.2233 41.8246Z" fill="#BB5300"></path><path d="M65.3279 32.9464C65.3279 34.3179 64.3647 34.8728 63.1607 34.1818C62.5331 33.7719 62.0107 33.2199 61.636 32.5706C61.2614 31.9213 61.0449 31.1929 61.0041 30.4443C61.0041 29.0728 61.9673 28.518 63.1607 29.2089C63.791 29.617 64.3158 30.1683 64.6924 30.8179C65.069 31.4674 65.2868 32.1967 65.3279 32.9464Z" fill="#805E63"></path><path d="M65.0766 32.507C65.0766 33.6796 64.2495 34.1507 63.234 33.5539C62.6949 33.2059 62.2459 32.7351 61.9238 32.1801C61.6017 31.625 61.4157 31.0016 61.381 30.3608C61.381 29.1883 62.208 28.7172 63.234 29.3139C63.7712 29.6631 64.2182 30.1344 64.5384 30.6894C64.8587 31.2443 65.0431 31.8672 65.0766 32.507Z" fill="#92757A"></path><path d="M70.887 36.3595C70.887 37.731 69.9239 38.2754 68.7199 37.5949C68.0922 37.185 67.5699 36.633 67.1952 35.9837C66.8205 35.3344 66.604 34.6059 66.5632 33.8574C66.5632 32.4859 67.5264 31.931 68.7199 32.622C69.3501 33.0301 69.8749 33.5814 70.2516 34.2309C70.6282 34.8805 70.8459 35.6098 70.887 36.3595Z" fill="#805E63"></path><path d="M70.6358 35.92C70.6358 37.0926 69.8087 37.5637 68.7932 36.9669C68.262 36.6228 67.8181 36.16 67.4965 35.6149C67.1749 35.0698 66.9845 34.4575 66.9401 33.8262C66.9401 32.6536 67.7672 32.1825 68.7932 32.7792C69.3213 33.1257 69.7623 33.5893 70.0819 34.1341C70.4015 34.6788 70.591 35.29 70.6358 35.92Z" fill="#92757A"></path><path d="M98.3164 51.5192C98.3164 52.8906 97.3427 53.4351 96.1492 52.7441C95.5204 52.337 94.9964 51.7874 94.6199 51.1398C94.2433 50.4922 94.0248 49.7649 93.9821 49.017C93.9821 47.6456 94.9557 47.0907 96.1492 47.7817C96.7789 48.1904 97.3032 48.7419 97.6798 49.3913C98.0563 50.0407 98.2744 50.7697 98.3164 51.5192Z" fill="#805E63"></path><path d="M98.0651 51.0792C98.0651 52.2517 97.238 52.7229 96.212 52.1261C95.6803 51.7826 95.236 51.3199 94.9143 50.7747C94.5927 50.2295 94.4025 49.6169 94.359 48.9853C94.359 47.8128 95.1965 47.3417 96.212 47.9384C96.7432 48.2825 97.1871 48.7454 97.5087 49.2904C97.8303 49.8355 98.0208 50.4479 98.0651 51.0792Z" fill="#92757A"></path><path d="M103.865 54.9215C103.865 56.293 102.902 56.8479 101.708 56.1569C101.078 55.7488 100.553 55.1975 100.177 54.548C99.8001 53.8984 99.5824 53.1691 99.5413 52.4194C99.5413 51.0479 100.504 50.5035 101.708 51.1945C102.336 51.6015 102.859 52.1514 103.234 52.7991C103.609 53.4469 103.825 54.1742 103.865 54.9215Z" fill="#805E63"></path><path d="M103.645 54.44C103.645 55.6126 102.818 56.0837 101.803 55.4869C101.27 55.1441 100.826 54.6815 100.504 54.1362C100.182 53.5909 99.9923 52.9779 99.9496 52.3462C99.9496 51.1736 100.777 50.7025 101.803 51.2993C102.332 51.6445 102.774 52.1079 103.093 52.6529C103.413 53.1979 103.602 53.8096 103.645 54.44Z" fill="#92757A"></path><path d="M75.2841 33.2816L75.0747 33.4806L74.9491 33.6062L74.8967 33.6481L72.7401 35.6372L71.3372 36.3701L67.2228 31.6484V31.638L65.8304 30.0467L64.5113 28.5496L62.6687 26.4243L61.7788 25.4088L61.9254 24.7388L64.9091 26.0579L72.7296 30.5701L74.8758 32.8419L75.2841 33.2816Z" fill="#BB5900"></path><path d="M75.9751 33.1666L75.1689 33.7738L74.9491 33.6063L72.1224 31.4497L72.091 31.4916L71.5257 32.1511L71.3791 32.3396L70.573 32.9468L64.5113 28.5497L61.046 26.0162L60.9413 25.6707L60.5853 24.3934L59.6536 23.022L64.9091 26.058L72.7296 30.5703L72.761 30.5912L74.4675 31.5753L75.6924 32.2768L75.9751 33.1666Z" fill="#B7B7B7"></path><path d="M74.0697 33.0931L73.452 33.8259L71.3372 36.3699L61.1925 30.5072L60.6167 27.3978L60.3759 26.1415L60.5225 25.4819L69.5889 29.4707L74.0697 33.0931Z" fill="#E28B00"></path><path d="M74.0697 33.0931L73.452 33.8259L71.7665 33.0826L71.6618 33.1977L71.0231 33.962L60.69 27.6491L60.6167 27.3978L60.3759 26.1415L60.5225 25.4819L69.5889 29.4707L74.0697 33.0931Z" fill="#BB5300"></path><path d="M75.1689 33.7736L74.8967 33.648L73.944 33.2292L71.5257 32.1509L71.3163 32.0671L71.222 32.1823L70.573 32.9466L65.8304 30.0466L60.5016 26.7907L60.2398 26.6336L59.7792 25.0109L57.9471 23.629L58.4287 22.3203L59.6536 23.0217L64.9091 26.0578L72.7296 30.5701L72.761 30.591L74.4675 31.5751L74.8758 32.8419L75.0747 33.4805L75.1689 33.7736Z" fill="#959595"></path><path d="M108.231 52.4823L108.021 52.6812L107.885 52.8069L107.833 52.8488L105.687 54.8379L104.284 55.5707L100.159 50.8387L98.7665 49.2473L97.4579 47.7398L95.6048 45.625L94.7254 44.6095L94.8615 43.9395L99.1539 45.8344L105.299 49.373L107.812 52.0426L108.231 52.4823Z" fill="#B74200"></path><path d="M108.88 52.3461L108.084 52.9533L107.854 52.7858L105.027 50.6291L104.472 51.2887L104.315 51.4771L103.52 52.0843L97.4579 47.7396L93.9821 45.2165L93.8879 44.8606L93.5319 43.5938L92.4013 41.9292L95.1442 43.5101L96.3167 44.1905L99.1539 45.8342L105.299 49.3728L106.901 50.2941L107.351 50.5768C107.814 50.8907 108.252 51.2408 108.66 51.6237L108.88 52.3461Z" fill="#B7B7B7"></path><path d="M107.006 52.2937L106.399 53.0266L104.284 55.5706L94.1391 49.7078L93.5529 46.5985L93.3225 45.3422L93.4691 44.6826L102.535 48.6714L107.006 52.2937Z" fill="#CD4500"></path><path d="M107.006 52.2937L106.399 53.0266L104.703 52.2833L104.608 52.3984L103.959 53.1627L93.6261 46.8497L93.5529 46.5985L93.3225 45.3422L93.4691 44.6826L102.535 48.6714L107.006 52.2937Z" fill="#A33400"></path><path d="M108.116 52.9744L107.833 52.8488L106.891 52.43L104.472 51.3831L104.263 51.2993L104.169 51.4145L103.52 52.1787L98.7665 49.2055L93.4377 45.9496L93.176 45.8344L92.7153 44.2117L90.8832 42.8297L91.4171 41.3745L92.2233 41.8247L92.3908 41.9294L95.1337 43.5102L96.3063 44.1907L99.1434 45.8344L105.289 49.373L106.891 50.2943L107.341 50.5769L107.801 52.0426L108.011 52.6813L108.116 52.9744Z" fill="#959595"></path><path d="M112.251 58.0831C112.251 59.8629 110.984 60.5748 109.435 59.6849C108.617 59.1528 107.936 58.4358 107.447 57.592C106.958 56.7481 106.674 55.801 106.618 54.8272C106.618 53.0474 107.885 52.3355 109.435 53.2254C110.252 53.7575 110.933 54.4744 111.422 55.3183C111.911 56.1622 112.195 57.1093 112.251 58.0831Z" fill="#4F1F26"></path><path d="M111.853 56.23L110.45 56.8477C110.86 57.6056 111.065 58.457 111.047 59.3184C111.047 60.7422 110.754 60.6375 110.754 60.6375L109.299 61.14L105.676 54.1257L107.603 52.9531L109.843 54.1466L111.853 56.23Z" fill="#4F1F26"></path><path d="M110.419 59.2137C110.419 60.9935 109.162 61.7054 107.603 60.8155C106.788 60.2839 106.109 59.5682 105.622 58.7262C105.135 57.8843 104.852 56.9395 104.797 55.9682C104.797 54.178 106.053 53.4661 107.603 54.356C108.422 54.8862 109.104 55.6027 109.593 56.447C110.083 57.2912 110.366 58.2393 110.419 59.2137Z" fill="#805E63"></path><path d="M109.655 58.7742C109.655 60.0724 108.733 60.5958 107.561 59.9363C106.957 59.5568 106.451 59.0388 106.087 58.4253C105.723 57.8117 105.511 57.1203 105.467 56.4082C105.467 55.11 106.378 54.5865 107.561 55.2356C108.164 55.618 108.669 56.1381 109.033 56.7532C109.397 57.3683 109.61 58.0609 109.655 58.7742Z" fill="#92757A"></path><path d="M87.1562 59.9257L36.056 30.4235C33.9621 29.1986 32.0044 28.9788 30.6329 29.6278C30.4845 29.6917 30.344 29.7725 30.2141 29.8686L21.0536 35.1032L22.0272 36.0245L25.346 39.7725C25.5344 43.9602 30.8842 43.9602 34.9253 46.3158L81.1992 73.1065L83.4815 81.2829L92.7049 75.9436L92.9457 75.818L91.815 76.4252C92.8619 75.7238 94.7045 73.7346 94.7045 71.8816C94.7045 67.7044 91.3229 62.3337 87.1562 59.9257Z" fill="#4F1F26"></path><path d="M29.5546 31.7323L36.2967 30.4237C36.0319 30.1272 35.7524 29.8442 35.4592 29.5757L29.0311 30.8843L25.8066 35.3128L26.2777 36.2027L29.5546 31.7323Z" fill="#5D3138"></path><path d="M33.7527 34.1298L40.4949 32.8107C40.2321 32.5156 39.9525 32.2359 39.6574 31.9731L33.2293 33.2713L30.0048 37.6893L30.4759 38.5792L33.7527 34.1298Z" fill="#5D3138"></path><path d="M37.9614 36.5165L44.6931 35.1974C44.4331 34.8997 44.1533 34.6198 43.8555 34.3599L37.4379 35.658L34.2134 40.097L34.674 40.9869L37.9614 36.5165Z" fill="#5D3138"></path><path d="M42.1595 38.9037L48.9017 37.5951C48.6369 37.2986 48.3573 37.0155 48.0641 36.7471L41.636 38.0557L38.4115 42.4842L38.8826 43.3741L42.1595 38.9037Z" fill="#5D3138"></path><path d="M46.3577 41.3012L53.0998 39.9821C52.8371 39.687 52.5574 39.4073 52.2623 39.1445L45.8342 40.4427L42.6097 44.8817L43.0808 45.7715L46.3577 41.3012Z" fill="#5D3138"></path><path d="M50.5558 43.6879L57.298 42.3688C57.298 42.3688 56.6803 41.6988 56.4605 41.5312L50.0324 42.8294L46.8078 47.2684L47.279 48.1583L50.5558 43.6879Z" fill="#5D3138"></path><path d="M54.7644 46.0645L61.4961 44.7559C61.2509 44.4816 60.9924 44.2196 60.7214 43.9707L54.241 45.227L51.0165 49.6555L51.4771 50.5454L54.7644 46.0645Z" fill="#5D3138"></path><path d="M58.9626 48.4725L65.7048 47.1115C65.442 46.8164 65.1623 46.5367 64.8672 46.2739L58.4391 47.5721L55.2146 52.0111L55.6857 52.9009L58.9626 48.4725Z" fill="#5D3138"></path><path d="M63.1608 50.8593L69.9029 49.5402C69.9029 49.5402 69.2852 48.8701 69.0654 48.7026L62.6373 50.0008L59.4128 54.4398L59.8839 55.3296L63.1608 50.8593Z" fill="#5D3138"></path><path d="M67.3694 53.2465L74.1011 51.9379C73.8391 51.6387 73.5594 51.3555 73.2635 51.0898L66.8459 52.3985L63.6214 56.8374L64.082 57.7169L67.3694 53.2465Z" fill="#5D3138"></path><path d="M71.5675 55.644L78.3097 54.3248C78.0469 54.0297 77.7673 53.7501 77.4722 53.4873L71.0441 54.7855L67.8195 59.2244L68.2907 60.1143L71.5675 55.644Z" fill="#5D3138"></path><path d="M75.7657 58.0307L82.5078 56.7116C82.5078 56.7116 81.8902 56.0415 81.6703 55.874L75.2422 57.1722L72.0177 61.6112L72.4888 62.501L75.7657 58.0307Z" fill="#5D3138"></path><path d="M79.9638 60.4177L86.706 59.109C86.4432 58.8139 86.1636 58.5343 85.8685 58.2715L79.4508 59.5697L76.2159 64.0086L76.687 64.888L79.9638 60.4177Z" fill="#5D3138"></path><path d="M84.1096 62.8779L90.8518 61.5587C90.8518 61.5587 90.2341 60.8887 90.0143 60.7212L83.5862 62.0194L80.3617 66.4583L80.8328 67.3482L84.1096 62.8779Z" fill="#5D3138"></path><path d="M87.0201 66.7411L93.7622 65.422C93.4995 65.1269 93.2198 64.8473 92.9247 64.5845L86.4966 65.8827L83.2721 70.3216L83.7537 71.1905L87.0201 66.7411Z" fill="#5D3138"></path><path d="M88.3811 71.1279L95.1233 69.8087C94.8605 69.5136 94.5808 69.234 94.2857 68.9712L87.8576 70.2694L84.6331 74.7083L85.1042 75.5982L88.3811 71.1279Z" fill="#5D3138"></path><path d="M88.4439 75.9648L95.1756 74.6456C94.9171 74.35 94.6409 74.0703 94.3485 73.8081L87.9414 75.1063L84.6959 79.5662L85.1566 80.4561L88.4439 75.9648Z" fill="#5D3138"></path><path d="M26.8326 35.7523L77.9328 65.2546C82.1205 67.6625 85.4811 73.0332 85.4811 77.2523C85.4811 81.44 82.0996 82.937 77.9328 80.5396L26.8326 51.0374C22.6449 48.6294 19.2948 43.2587 19.2948 39.0397C19.2948 34.8206 22.6658 33.3444 26.8326 35.7523Z" fill="#816065"></path><path d="M83.9421 76.3625C83.9425 76.7141 83.9074 77.0649 83.8374 77.4095C83.3035 79.8174 80.8642 80.4665 77.9328 78.7809L26.8326 49.2682C23.5243 47.3524 20.8337 43.1647 20.8337 39.9297C20.8337 37.1239 22.8543 35.9409 25.5344 36.9041C25.9847 37.0709 26.4191 37.2776 26.8326 37.5218L77.9328 67.0031C81.2411 68.9294 83.9421 73.1171 83.9421 76.3625Z" fill="#4F1F26"></path><path d="M83.9421 76.3623C83.9425 76.7139 83.9074 77.0646 83.8374 77.4092C83.3874 77.2461 82.9529 77.0429 82.5393 76.802L31.4076 47.2788C28.0889 45.3734 25.3983 41.1857 25.3983 37.9507C25.3994 37.5992 25.4344 37.2486 25.503 36.9038C25.9533 37.0706 26.3877 37.2773 26.8012 37.5215L29.4394 39.0395L30.6643 39.741L35.8989 42.777L43.709 47.2893L45.4154 48.2734L46.6403 48.9853L50.1475 50.9849L55.602 54.1257L62.4698 58.0935L63.2654 58.5541L63.433 58.6484L66.1759 60.2292L67.3484 60.9097L70.1961 62.5534L76.3415 66.1024L77.9328 67.0237C78.0898 67.1075 78.2364 67.2017 78.383 67.2959C78.8495 67.6098 79.2905 67.9598 79.7021 68.3428C82.1519 70.4576 83.9421 73.724 83.9421 76.3623Z" fill="#380009"></path><path d="M55.4868 60.7213C55.4868 62.0928 54.5132 62.6477 53.3197 61.9567C52.6906 61.5473 52.1667 60.9958 51.7902 60.3465C51.4138 59.6972 51.1953 58.9685 51.1526 58.2192C51.1526 56.8477 52.1262 56.2929 53.3197 56.9838C53.9487 57.3932 54.4727 57.9448 54.8491 58.594C55.2256 59.2433 55.4441 59.972 55.4868 60.7213Z" fill="#805E63"></path><path d="M55.1937 60.2711C55.1937 61.4436 54.3666 61.9147 53.3406 61.318C52.8125 60.9716 52.3715 60.5079 52.0519 59.9632C51.7323 59.4184 51.5428 58.8072 51.498 58.1772C51.498 57.0047 52.3251 56.5336 53.3406 57.1303C53.8735 57.4726 54.3187 57.935 54.6405 58.4804C54.9623 59.0259 55.1518 59.6392 55.1937 60.2711Z" fill="#92757A"></path><path d="M32.0358 44.8189C32.0358 46.5987 30.7795 47.3211 29.23 46.4207C28.411 45.8928 27.7288 45.1782 27.2392 44.3356C26.7497 43.4931 26.4668 42.5465 26.4138 41.5735C26.4138 39.7937 27.6701 39.0713 29.23 39.9717C30.0448 40.5033 30.7232 41.219 31.2106 42.0609C31.6979 42.9029 31.9806 43.8476 32.0358 44.8189Z" fill="#4F1F26"></path><path d="M31.638 42.9762L30.2351 43.5834C30.6497 44.3432 30.8556 45.1993 30.8318 46.0646C30.8318 47.4989 30.5492 47.3837 30.5492 47.3837L29.0939 47.8862L25.4611 40.83L27.3979 39.647L29.6279 40.8405L31.638 42.9762Z" fill="#4F1F26"></path><path d="M30.2037 45.9493C30.2037 47.7291 28.9474 48.4514 27.3979 47.5511C26.5807 47.0213 25.8998 46.3063 25.4105 45.4641C24.9212 44.6219 24.6372 43.6763 24.5817 42.7039C24.5817 40.9241 25.8485 40.2017 27.3979 41.1021C28.2127 41.6337 28.8911 42.3493 29.3785 43.1913C29.8658 44.0333 30.1485 44.978 30.2037 45.9493Z" fill="#805E63"></path><path d="M29.4499 45.5098C29.4499 46.8079 28.5286 47.3314 27.356 46.6823C26.7534 46.2986 26.2498 45.7782 25.886 45.1634C25.5222 44.5486 25.3085 43.8566 25.2622 43.1437C25.2622 41.8455 26.1835 41.3221 27.356 41.9816C27.9596 42.3618 28.4642 42.8799 28.8282 43.4933C29.1923 44.1067 29.4054 44.7978 29.4499 45.5098Z" fill="#92757A"></path><path d="M65.6524 63.8624C65.6524 65.6422 64.3961 66.3645 62.8467 65.4642C62.0276 64.9362 61.3454 64.2217 60.8559 63.3791C60.3664 62.5365 60.0835 61.5899 60.0305 60.6169C60.0305 58.8372 61.2868 58.1148 62.8467 59.0151C63.6614 59.5468 64.3398 60.2624 64.8272 61.1044C65.3146 61.9464 65.5972 62.8911 65.6524 63.8624Z" fill="#4F1F26"></path><path d="M65.2651 62.0198L63.8622 62.627C64.269 63.3856 64.4711 64.2372 64.4485 65.0977C64.4485 66.532 64.1658 66.4273 64.1658 66.4273L62.7106 66.9298L59.0778 59.9154L61.0146 58.7324L63.2445 59.9259L65.2651 62.0198Z" fill="#4F1F26"></path><path d="M63.8622 64.9931C63.8622 66.7833 62.5954 67.4952 61.046 66.6054C60.2288 66.0752 59.5461 65.3622 59.0519 64.5227C58.5577 63.6833 58.2655 62.7404 58.1983 61.7686C58.1983 59.9888 59.4651 59.2769 61.0146 60.1668C61.8338 60.6923 62.5182 61.4028 63.0128 62.241C63.5074 63.0793 63.7983 64.0219 63.8622 64.9931Z" fill="#805E63"></path><path d="M63.0665 64.5532C63.0665 65.8514 62.1452 66.3749 60.9727 65.7258C60.3689 65.3433 59.8644 64.8233 59.5004 64.2082C59.1364 63.5931 58.9234 62.9005 58.8788 62.1872C58.8788 60.889 59.8001 60.3655 60.9727 61.0251C61.5763 61.4052 62.0808 61.9233 62.4449 62.5368C62.8089 63.1502 63.022 63.8413 63.0665 64.5532Z" fill="#92757A"></path><path d="M50.3569 55.1412C50.3569 56.921 49.1006 57.6433 47.5407 56.743C46.7248 56.2126 46.0455 55.4972 45.558 54.655C45.0704 53.8128 44.7885 52.8674 44.7349 51.8957C44.7349 50.116 45.9912 49.3936 47.5407 50.294C48.3597 50.8219 49.042 51.5365 49.5315 52.379C50.021 53.2216 50.3039 54.1682 50.3569 55.1412Z" fill="#4F1F26"></path><path d="M49.9591 53.2986L48.5562 53.9058C48.9872 54.6575 49.2112 55.51 49.2053 56.3765C49.2053 57.8003 48.9226 57.6956 48.9226 57.6956L47.4674 58.1982L43.7822 51.1943L45.719 50.0112L47.949 51.2047L49.9591 53.2986Z" fill="#4F1F26"></path><path d="M48.5248 56.2721C48.5248 58.0518 47.2685 58.7742 45.719 57.8738C44.9039 57.3435 44.2258 56.628 43.7399 55.7855C43.2541 54.9431 42.9745 53.9977 42.9238 53.0266C42.9238 51.2468 44.1801 50.5245 45.74 51.4248C46.5509 51.9587 47.2252 52.6754 47.7088 53.5173C48.1925 54.3591 48.472 55.3026 48.5248 56.2721Z" fill="#805E63"></path><path d="M47.771 55.8323C47.771 57.1305 46.8497 57.654 45.6772 57.0049C45.0745 56.6212 44.5709 56.1008 44.2071 55.486C43.8433 54.8711 43.6296 54.1792 43.5833 53.4663C43.5833 52.1681 44.5046 51.6446 45.6772 52.2937C46.2798 52.6774 46.7835 53.1978 47.1473 53.8126C47.5111 54.4274 47.7248 55.1194 47.771 55.8323Z" fill="#92757A"></path><path d="M67.3484 60.91L66.2282 61.9465L63.6214 63.3179H63.6109L55.9475 54.5238L55.602 54.126L63.2654 58.5545L66.1759 60.2295L67.3484 60.91Z" fill="#B74200"></path><path d="M66.1759 60.2296L63.6214 63.318H63.6109L44.7559 52.4195L43.7927 47.3105L50.1475 50.9852L55.602 54.126L63.2654 58.5545L66.1759 60.2296Z" fill="#CD4500"></path><path d="M63.2654 58.5541L63.0142 58.8472L55.9475 54.5235L50.1475 50.9849L55.602 54.1256L63.2654 58.5541Z" fill="#A33400"></path><path d="M36.37 49.6662C36.37 51.0376 35.3964 51.5925 34.2029 50.9015C33.5733 50.4928 33.0489 49.9413 32.6724 49.2919C32.2958 48.6425 32.0777 47.9135 32.0358 47.164C32.0358 45.7925 33.0094 45.2481 34.2029 45.9391C34.8317 46.3462 35.3557 46.8958 35.7323 47.5434C36.1088 48.191 36.3273 48.9183 36.37 49.6662Z" fill="#805E63"></path><path d="M36.1188 49.2052C36.1188 50.3777 35.2917 50.8488 34.2657 50.2521C33.7423 49.9034 33.3066 49.4386 32.9924 48.8938C32.6783 48.349 32.4942 47.739 32.4546 47.1113C32.4546 45.9388 33.2816 45.4677 34.2971 46.0644C34.8236 46.4107 35.2622 46.8748 35.5784 47.4199C35.8946 47.965 36.0796 48.5762 36.1188 49.2052Z" fill="#92757A"></path><path d="M41.9292 53.0788C41.9292 54.4502 40.9556 55.0051 39.7621 54.3141C39.133 53.9048 38.6091 53.3532 38.2326 52.7039C37.8561 52.0546 37.6377 51.3259 37.5949 50.5766C37.5949 49.2051 38.5686 48.6503 39.7621 49.3412C40.3911 49.7506 40.9151 50.3022 41.2915 50.9515C41.668 51.6007 41.8864 52.3295 41.9292 53.0788Z" fill="#805E63"></path><path d="M41.6779 52.6392C41.6779 53.8118 40.8509 54.2829 39.8249 53.6862C39.2968 53.3397 38.8558 52.8761 38.5362 52.3313C38.2166 51.7866 38.027 51.1754 37.9823 50.5454C37.9823 49.3729 38.8094 48.9017 39.8249 49.4985C40.3577 49.8407 40.8029 50.3032 41.1247 50.8486C41.4465 51.394 41.636 52.0073 41.6779 52.6392Z" fill="#92757A"></path><path d="M69.348 68.2384C69.348 69.6099 68.3744 70.1648 67.1809 69.4738C66.5519 69.0644 66.0279 68.5128 65.6515 67.8636C65.275 67.2143 65.0566 66.4856 65.0138 65.7363C65.0138 64.3648 65.9874 63.8099 67.1809 64.5009C67.81 64.9103 68.3339 65.4619 68.7104 66.1111C69.0868 66.7604 69.3053 67.4891 69.348 68.2384Z" fill="#805E63"></path><path d="M69.0968 67.7984C69.0968 68.971 68.2697 69.4421 67.2437 68.8454C66.7156 68.4989 66.2746 68.0353 65.955 67.4905C65.6354 66.9458 65.4459 66.3346 65.4012 65.7046C65.4012 64.532 66.2282 64.0609 67.2437 64.6577C67.7766 64.9999 68.2218 65.4623 68.5436 66.0078C68.8654 66.5532 69.0549 67.1665 69.0968 67.7984Z" fill="#92757A"></path><path d="M74.9072 71.641C74.9072 73.0125 73.9336 73.5674 72.7401 72.8764C72.1112 72.4693 71.5873 71.9197 71.2107 71.2721C70.8342 70.6245 70.6157 69.8972 70.573 69.1494C70.573 67.7779 71.5466 67.223 72.7401 67.914C73.3689 68.3211 73.8929 68.8707 74.2694 69.5183C74.646 70.1659 74.8645 70.8932 74.9072 71.641Z" fill="#805E63"></path><path d="M74.6559 71.1905C74.6559 72.3631 73.8289 72.8342 72.8029 72.2374C72.2726 71.8934 71.8298 71.4303 71.51 70.8851C71.1901 70.3398 71.0019 69.7275 70.9603 69.0967C70.9603 67.9241 71.7874 67.453 72.8029 68.0498C73.3352 68.3926 73.7799 68.8552 74.1017 69.4005C74.4234 69.9458 74.6132 70.5588 74.6559 71.1905Z" fill="#92757A"></path><path d="M46.3263 50.0116L46.1169 50.2001L45.9808 50.3257L45.9284 50.378L43.7822 52.3567L42.3794 53.0896L38.2545 48.368L36.8621 46.7662L35.5534 45.2691L33.7004 43.1438L32.8105 42.1283L32.9571 41.4688L35.9513 42.7774L43.7613 47.2896L45.9075 49.5719L46.3263 50.0116Z" fill="#B74200"></path><path d="M47.0068 49.8859L46.2006 50.4931L45.9808 50.3256L43.1541 48.1689L43.1227 48.2108L42.5678 48.8808L42.4108 49.0588L41.6046 49.6765L35.5534 45.269L32.0777 42.7354L31.9834 42.3899L31.617 41.1127L30.6957 39.7412L35.9513 42.7773L43.7613 47.2895L43.7927 47.3105L45.5097 48.2946L46.7241 49.0065L47.0068 49.8859Z" fill="#B7B7B7"></path><path d="M45.1014 49.8123L44.4837 50.5451L42.3794 53.0891L32.2347 47.2369L31.6484 44.117L31.4181 42.8712L31.5647 42.2012L40.631 46.2004L45.1014 49.8123Z" fill="#E26600"></path><path d="M45.1014 49.8123L44.4837 50.5451L42.7981 49.8018L42.6934 49.917L42.0548 50.6917L31.7217 44.3683L31.6484 44.117L31.4181 42.8712L31.5647 42.2012L40.631 46.2004L45.1014 49.8123Z" fill="#A33400"></path><path d="M46.2006 50.4929L45.9284 50.3777L44.9862 49.9485L42.5678 48.8806L42.3584 48.7864L42.2537 48.9015L41.6046 49.6763L36.8621 46.7658L31.5333 43.5099L31.2715 43.3529L30.8214 41.7301L28.9892 40.3587L29.4708 39.0396L30.6957 39.741L35.9513 42.7771L43.7613 47.2893L43.7927 47.3102L45.5097 48.2943L45.9075 49.5716L46.1169 50.1997L46.2006 50.4929Z" fill="#959595"></path><path d="M79.2729 69.2118L79.053 69.4003L78.9274 69.5259L78.875 69.5678L76.7184 71.5569L75.326 72.2898H75.3155L71.2011 67.5682V67.5577L69.8087 65.9664L68.4896 64.4588L66.647 62.344L65.7571 61.3285L65.9037 60.6689L70.1961 62.5534L76.3415 66.092L78.8541 68.7616L79.2729 69.2118Z" fill="#B74200"></path><path d="M79.9534 69.0967L79.1472 69.7039L78.9274 69.5364L76.1007 67.3797L75.5354 68.0497L75.3783 68.2591L74.5722 68.8663L68.5105 64.4588L65.0452 61.9357L64.9405 61.5902L64.5846 60.313L63.433 58.6274L66.1759 60.2083L67.3484 60.8888L70.1961 62.5325L76.3415 66.0815L77.9328 67.0028C78.0899 67.0866 78.2364 67.1808 78.383 67.275C78.8495 67.5889 79.2905 67.9389 79.7021 68.3219L79.9534 69.0967Z" fill="#B7B7B7"></path><path d="M78.048 69.013L77.4303 69.7458L75.3155 72.2898L65.1813 66.4375L64.595 63.3177L64.3542 62.0614L64.5008 61.4019L73.5776 65.4011L78.048 69.013Z" fill="#E26600"></path><path d="M78.048 69.013L77.4303 69.7458L75.7447 69.0025L75.6401 69.1177L75.0014 69.8819L64.6683 63.569L64.595 63.3177L64.3542 62.0614L64.5008 61.4019L73.5776 65.4011L78.048 69.013Z" fill="#A33400"></path><path d="M79.1472 69.6936L78.875 69.568L77.9223 69.1492L75.504 68.1023L75.2946 68.0081L75.2003 68.1233L74.5513 68.8875L69.8087 65.9561L64.4799 62.7107L64.2181 62.5536L63.7575 60.9309L61.9254 59.5594L62.4698 58.0938L63.2654 58.5544L63.4329 58.6486L66.1759 60.2295L67.3484 60.91L70.1961 62.5536L76.3415 66.1027L77.9328 67.024C78.0898 67.1077 78.2364 67.202 78.383 67.2962L78.8541 68.7619L79.053 69.4005L79.1472 69.6936Z" fill="#959595"></path><path d="M83.2826 74.8023C83.2826 76.5821 82.0263 77.3045 80.4768 76.4041C79.659 75.8749 78.9776 75.16 78.4883 74.3177C77.9989 73.4754 77.7153 72.5295 77.6606 71.5569C77.6606 69.7771 78.9169 69.0547 80.4768 69.9551C81.2927 70.4855 81.9721 71.2008 82.4596 72.0431C82.9471 72.8853 83.2291 73.8306 83.2826 74.8023Z" fill="#4F1F26"></path><path d="M82.8848 72.9597L81.4819 73.5669C81.8947 74.3236 82.1005 75.1759 82.0786 76.0376C82.0786 77.4615 81.796 77.3568 81.796 77.3568L80.3407 77.8593L76.7079 70.8554L78.6447 69.6724L80.8747 70.8659L82.8848 72.9597Z" fill="#4F1F26"></path><path d="M81.4505 75.9332C81.4505 77.713 80.1942 78.4353 78.6447 77.535C77.8286 77.0039 77.1486 76.2886 76.6594 75.4467C76.1703 74.6048 75.8857 73.6598 75.8285 72.6877C75.8285 70.908 77.0953 70.1856 78.6447 71.0859C79.4606 71.6163 80.1399 72.3317 80.6274 73.1739C81.115 74.0162 81.3969 74.9615 81.4505 75.9332Z" fill="#805E63"></path><path d="M80.6967 75.4934C80.6967 76.7916 79.7754 77.3151 78.6028 76.666C78.0002 76.2823 77.4966 75.7619 77.1328 75.1471C76.7689 74.5323 76.5552 73.8403 76.509 73.1274C76.509 71.8292 77.4303 71.3058 78.6028 71.9549C79.2055 72.3385 79.7091 72.8589 80.0729 73.4737C80.4367 74.0886 80.6504 74.7805 80.6967 75.4934Z" fill="#92757A"></path><path d="M88.3078 60.7215L82.2147 64.2497L64.0192 52.8382C60.5693 52.4617 57.1916 51.5908 53.9897 50.2523C47.8862 47.8863 46.8497 43.4159 46.8497 43.4159L26.7802 31.8475L30.6015 29.6489L90.3388 44.0232L86.0569 59.2663L88.3078 60.7215Z" fill="#380009"></path><path d="M45.4259 36.9565H90.2027V38.2547C90.4226 41.7305 88.2554 45.2691 83.6385 47.9283C74.8653 52.9954 60.69 53.0163 51.9692 47.9911C47.3522 45.3214 45.2165 41.7096 45.5201 38.2547L45.4259 36.9565Z" fill="#2E2728"></path><path d="M51.9273 46.1271C60.6481 51.1523 74.8234 51.1314 83.5966 46.0643C92.3698 40.9972 92.4117 32.8207 83.6909 27.7851C74.97 22.7494 60.8052 22.7808 52.032 27.8479C43.2588 32.915 43.2169 41.0914 51.9273 46.1271Z" fill="#4A3F40"></path><path d="M158.525 29.5024L154.526 26.4768L148.495 24.1841V30.6959L153.678 32.1512L158.944 31.6277L158.525 29.5024Z" fill="#CB5200"></path><path d="M154.526 26.4768L155.468 25.9324L149.438 23.6396L148.495 24.184L154.526 26.4768Z" fill="#FFC523"></path><path d="M148.495 24.184L149.438 23.6396H144.894L146.799 24.3934L148.495 24.184Z" fill="#FFC523"></path><path d="M148.495 30.6959V24.1841L146.799 24.3935V30.8948L148.495 30.6959Z" fill="#CA4D0B"></path><path d="M158.525 29.5021L159.467 28.9577L155.468 25.9321L154.526 26.4765L158.525 29.5021Z" fill="#FFD02D"></path><path d="M158.525 29.5024L159.467 28.958L159.886 31.0833L158.944 31.6277L158.525 29.5024Z" fill="#FF9700"></path><path d="M95.0918 26.5499L102.473 14.8768L105.886 12.8981L113.266 10.9927L150.024 25.6914L154.023 28.7275L154.452 30.8423L151.029 32.821L118.145 22.6344L110.523 23.6709L100.201 30.591L98.4106 35.4802L94.9872 37.4484L95.0918 26.5499Z" fill="#D04200"></path><path d="M113.266 10.9927L109.843 12.9714L143.376 26.3615L146.799 24.3933L113.266 10.9927Z" fill="#FFC523"></path><path d="M139.952 24.3931L134.906 22.2888H134.205L119.223 15.9549L118.784 15.1906L119.747 14.73L136.131 21.6292L136.163 22.0689L140.696 24.0162L139.952 24.3931Z" fill="#CB5200"></path><path d="M96.2016 21.9855L95.6781 21.5667L101.279 14.5733C101.53 14.4581 107.498 11.6 109.655 11.956C111.811 12.3119 119.883 15.2224 120.228 15.348L119.998 15.9761C119.914 15.9761 111.623 12.9401 109.529 12.6155C107.896 12.3538 103.31 14.322 101.593 15.1491L96.2016 21.9855Z" fill="#380009"></path><path d="M97.7406 20.9386L97.2171 20.5198L102.829 13.5369C103.08 13.4112 109.047 10.5531 111.204 10.9091C113.361 11.265 120.888 14.6885 121.213 14.8246L120.93 15.4318C120.857 15.4318 113.141 11.8932 111.099 11.5686C109.466 11.3174 104.881 13.2751 103.153 14.1022L97.7406 20.9386Z" fill="#380009"></path><path d="M147.239 20.5405L150.662 18.5618L152.673 18.499L158.441 26.4556L169.58 71.4942L166.157 73.4729L147.239 20.5405Z" fill="#FF9700"></path><path d="M158.41 29.3138C158.41 29.3138 158.085 28.4448 157.792 28.4343C157.499 28.4239 156.672 28.7275 156.672 29.1986C156.672 29.6697 163.068 56.4185 163.068 56.4185L163.875 56.7745L167.172 70.3845L167.706 70.1856L164.712 56.7326C164.701 56.2601 164.666 55.7884 164.607 55.3193C164.513 54.7749 158.41 29.3138 158.41 29.3138Z" fill="#CB5200"></path><path d="M119.841 15.8189C119.865 15.8988 119.907 15.9723 119.963 16.0339C120.019 16.0955 120.088 16.1437 120.166 16.1748C120.344 16.2481 138.267 19.5982 138.267 19.5982L138.581 17.4206C138.581 17.4206 120.783 14.0705 120.616 14.0286C120.51 14.0031 120.398 14.0127 120.298 14.0562C120.198 14.0996 120.115 14.1745 120.061 14.2694C119.903 14.4914 119.801 14.7479 119.763 15.0174C119.725 15.287 119.751 15.5618 119.841 15.8189Z" fill="#E26600"></path><path d="M137.859 19.2214C138.047 19.6821 138.445 19.7344 138.759 19.347C138.912 19.1231 139.011 18.8663 139.048 18.5972C139.084 18.3281 139.057 18.0543 138.968 17.7976C138.952 17.6987 138.904 17.6077 138.833 17.5377C138.761 17.4677 138.669 17.4224 138.569 17.4084C138.47 17.3944 138.369 17.4124 138.281 17.4598C138.192 17.5072 138.122 17.5815 138.078 17.672C137.923 17.8951 137.822 18.1514 137.784 18.4205C137.746 18.6896 137.771 18.9639 137.859 19.2214Z" fill="#FF9700"></path><path d="M150.997 21.4514L151.071 20.3102L138.769 17.9651C138.69 17.9484 138.607 17.9492 138.528 17.9673C138.448 17.9855 138.373 18.0206 138.309 18.0704C138.244 18.1201 138.191 18.1832 138.153 18.2554C138.115 18.3276 138.093 18.4072 138.089 18.4886C138.081 18.6241 138.122 18.7579 138.205 18.8655C138.288 18.9731 138.406 19.0475 138.539 19.0749L150.997 21.4514Z" fill="#828689"></path><path d="M146.799 28.9471L147.239 20.5404L149.249 20.4775L155.018 28.4341L166.157 73.4727L164.063 73.7658L146.799 28.9471Z" fill="#E26600"></path><path d="M154.232 34.3493L152.704 35.8673L151.343 36.8619L149.961 37.1445L146.799 28.9471L146.894 27.2197L150.516 28.6959L153.29 31.1038L154.232 34.3493Z" fill="#BC3C00"></path><path d="M91.6684 28.5284L102.473 14.8766L109.843 12.9712L143.376 26.3613L143.365 32.6742L114.722 24.613L107.1 25.6494L96.7774 32.5591L94.9871 37.4482L89.7211 32.9046L91.6684 28.5284Z" fill="#BC3C00"></path><path d="M152.871 32.7686L148.862 29.7325L142.842 27.4502V33.962L148.024 35.4173L153.29 34.8938L152.871 32.7686Z" fill="#CB5200"></path><path d="M148.862 29.7324L149.804 29.188L143.784 26.9058L142.842 27.4502L148.862 29.7324Z" fill="#FFC523"></path><path d="M142.842 27.4502L143.784 26.9058L142.444 25.0527L141.491 25.5971L142.842 27.4502Z" fill="#FFC523"></path><path d="M142.842 33.9621V27.4502L141.491 25.5972V32.109L142.842 33.9621Z" fill="#CA4D0B"></path><path d="M152.871 32.7685L153.814 32.2241L149.804 29.188L148.862 29.7324L152.871 32.7685Z" fill="#FFD02D"></path><path d="M152.871 32.7685L153.814 32.2241L154.232 34.3494L153.29 34.8938L152.871 32.7685Z" fill="#FF9700"></path><g style="mix-blend-mode:multiply"><path d="M111.12 16.8866L107.801 25.5551L107.1 25.6494L106.671 25.9425L108.419 20.4252L110.22 16.4155L111.12 16.8866Z" fill="#BEB5AF"></path></g><path d="M172.533 71.4733L174.626 71.9549L176.05 74.0488L178.343 85.8476C178.343 85.8476 177.799 88.6428 177.799 89.093C177.799 89.5432 165.026 96.5994 165.026 96.5994L166.136 83.827L153.384 70.6567L159.666 74.4466L164.513 74.7293L172.533 71.4733Z" fill="#2F2728"></path><path d="M169.957 72.5203L157.436 79.7545L152.002 81.9635L147.155 81.6808L140.853 77.891L141.408 77.5664L145.313 79.922L156.735 73.3159L152.84 70.9708L153.384 70.6567L159.687 74.4466L164.534 74.7293L169.957 72.5203Z" fill="#4A3F40"></path><path d="M143.606 76.2998H143.617L143.062 76.6139L143.606 76.2998Z" fill="#362E2F"></path><path d="M164.094 75.2632L161.896 76.5404L159.519 77.9014L159.373 77.9957H159.362L157.865 78.8541L157.321 79.1787L157.185 79.252L156.714 79.4404L154.515 80.3408L154.473 80.3617L153.28 80.8433L151.919 81.3982L151.584 81.3877L147.417 81.1364H147.323L145.313 79.922L156.735 73.3159L159.132 74.7607L159.519 74.991L164.094 75.2632Z" fill="#362E2F"></path><path d="M161.896 76.5404L159.373 77.9956H159.362L157.865 78.8541L157.321 79.1787L155.981 77.7967L150.631 72.248L152.673 73.4729L156.933 76.0379L157.31 76.2682L161.896 76.5404Z" fill="#2E2728"></path><path d="M159.362 77.9955L157.865 78.854L157.321 79.1785L157.185 79.2518L156.714 79.4402L154.515 80.3406L153.458 79.2518L148.108 73.7031L150.149 74.928L154.41 77.493L154.787 77.7233L155.981 77.7966L159.362 77.9955Z" fill="#2E2728"></path><path d="M156.714 79.4406L154.515 80.3409L154.473 80.3619L153.28 80.8435L151.919 81.3983L151.584 81.3879L145.585 75.1587L147.626 76.3836L151.887 78.9485L152.264 79.1789L153.458 79.2521L156.714 79.4406Z" fill="#2E2728"></path><path d="M153.28 80.8433L151.919 81.3982L147.417 81.1365L143.062 76.6138L145.103 77.8491L149.364 80.4036L149.741 80.6339L153.28 80.8433Z" fill="#2E2728"></path><path d="M164.094 75.263L159.519 74.9908L159.132 74.7605L156.735 73.3157L155.08 74.2789L151.186 71.9233L150.631 72.2479L152.673 73.4728L154.536 74.593L152.557 75.7341L148.663 73.389L148.108 73.7031L150.149 74.928L152.013 76.0482L150.034 77.1894L146.14 74.8443L145.585 75.1583L147.626 76.3832V76.3937L149.49 77.5034L147.511 78.6446L143.606 76.2995L143.062 76.6136L145.103 77.8489L146.967 78.9587L145.313 79.9218L147.323 81.1362H147.417L151.584 81.3875L151.919 81.398L153.28 80.8431L154.473 80.3615L154.515 80.3406L156.714 79.4402L157.185 79.2518L157.865 78.854L159.362 77.9955H159.373L160.242 77.4825L161.896 76.5403L162.765 76.0273L164.094 75.263Z" fill="#362E2F"></path><path d="M164.094 75.2631L160.074 77.5872L159.519 77.9013L152.84 70.9707L154.882 72.2061L159.132 74.7606L159.519 74.9909L164.094 75.2631Z" fill="#2E2728"></path><path d="M176.071 74.08L174.647 71.9547L172.533 71.4731L169.957 72.5201L157.436 79.7543L160.001 78.7074L162.116 79.189L163.55 81.3142L165.811 93.1235L165.267 96.3689L177.799 89.1347L178.343 85.8893L176.071 74.08Z" fill="#3B3334"></path><path d="M176.071 74.0801L163.55 81.3143L165.811 93.1236L178.343 85.8893L176.071 74.0801Z" fill="#4A3F40"></path><path d="M162.116 79.1893L163.55 81.3145L176.071 74.0803L174.647 71.9551L162.116 79.1893Z" fill="#5C4E4F"></path><path d="M174.647 71.9547L162.116 79.189L160.001 78.7074L172.533 71.4731L174.647 71.9547Z" fill="#4A3F40"></path><path d="M160.001 78.7077L162.095 79.1893L163.529 81.2831L165.811 93.1762L165.267 96.4216C165.267 96.8718 162.074 98.0234 160.2 97.0498C158.326 96.0761 153.604 91.1556 153.604 91.1556L140.853 77.8911L147.134 81.681L151.992 81.9636L160.001 78.7077Z" fill="#2E2728"></path><path d="M161.99 96.0447C161.587 96.0594 161.185 95.9805 160.818 95.8144C159.593 95.1862 156.337 92.0245 154.536 90.1819L147.658 83.0524L152.201 83.3141L160.085 80.1001L161.278 80.3723L162.252 81.838L164.45 93.1761L164.032 95.6783C163.378 95.9203 162.687 96.0444 161.99 96.0447Z" fill="#262021"></path><path d="M162.472 95.6047C162.068 95.6246 161.665 95.5456 161.299 95.3744C160.074 94.7463 156.818 91.5846 155.018 89.742L148.663 83.1045H147.7L154.578 90.234C156.347 92.0766 159.603 95.2383 160.859 95.8665C161.227 96.0326 161.629 96.1115 162.032 96.0968C162.748 96.0927 163.458 95.9579 164.126 95.699V95.4163C163.586 95.5555 163.029 95.619 162.472 95.6047Z" fill="#362E2F"></path><path d="M171.433 73.8393L171.119 70.0599L171.842 69.6411L172.156 73.4205L171.433 73.8393Z" fill="#3B3334"></path><path d="M171.119 70.0597L168.952 69.5677L169.685 69.1489L171.842 69.641L171.119 70.0597Z" fill="#3B3334"></path><path d="M166.984 70.3843L168.952 69.5677L169.685 69.1489L167.706 69.9655L166.984 70.3843Z" fill="#3B3334"></path><path d="M171.119 70.0599L168.952 69.5679L166.984 70.3845L167.78 73.9649L169.277 73.3473L171.433 73.8393L171.119 70.0599Z" fill="#2E2728"></path><path d="M172.323 77.315L172.103 76.0901L172.543 75.8389L172.763 77.0638L172.323 77.315Z" fill="#4A3F40"></path><path d="M172.103 76.0901L171.224 75.4619L171.664 75.2002L172.543 75.8388L172.103 76.0901Z" fill="#3B3334"></path><path d="M170.25 75.954L171.224 75.4619L171.664 75.2002L170.69 75.7027L170.25 75.954Z" fill="#3B3334"></path><path d="M172.103 76.0901L171.224 75.4619L170.25 75.954L171.224 77.2521L171.528 78.0164L172.323 77.315L172.103 76.0901Z" fill="#2E2728"></path><path d="M174.333 70.6044L164.712 61.873L165.12 64.0297L172.889 71.1174L172.993 72.6668L170.889 75.9018L171.266 77.713L174.522 72.604L174.333 70.6044Z" fill="#CB5200"></path><path d="M174.522 72.6039L174.333 70.6043L175.056 70.1855L175.244 72.1852L174.522 72.6039Z" fill="#FF9700"></path><path d="M174.522 72.6038L171.266 77.7128L171.999 77.294L175.244 72.1851L174.522 72.6038Z" fill="#E26600"></path><path d="M174.333 70.6042L164.712 61.8729L165.434 61.4541L175.056 70.1854L174.333 70.6042Z" fill="#FF9700"></path><path d="M174.229 71.955C174.233 72.0125 174.226 72.0704 174.206 72.1247C174.186 72.1789 174.154 72.2282 174.113 72.269C174.009 72.3528 173.695 72.5412 173.695 72.5412L172.93 71.1907C173.05 71.1279 173.165 71.058 173.276 70.9813C173.335 70.9379 173.407 70.9146 173.48 70.9146C173.553 70.9146 173.625 70.9379 173.684 70.9813C173.849 71.0849 173.986 71.2284 174.081 71.3985C174.176 71.5687 174.227 71.76 174.229 71.955Z" fill="#380009"></path><path d="M173.852 72.2378C173.852 72.5728 173.611 72.7089 173.318 72.5414C173.161 72.4421 173.031 72.3065 172.938 72.1462C172.845 71.9858 172.792 71.8053 172.784 71.6201C172.784 71.2746 173.014 71.1385 173.318 71.3165C173.474 71.4164 173.604 71.5521 173.696 71.7124C173.789 71.8726 173.843 72.0528 173.852 72.2378Z" fill="#63474B"></path><path d="M166.157 63.8624C166.161 63.9199 166.153 63.9776 166.133 64.0318C166.113 64.0859 166.082 64.1352 166.042 64.1765C165.908 64.2729 165.768 64.3603 165.623 64.4382L164.859 63.14C164.978 63.0727 165.093 62.9993 165.204 62.9201C165.265 62.8759 165.338 62.8521 165.414 62.8521C165.489 62.8521 165.562 62.8759 165.623 62.9201C165.779 63.0246 165.909 63.1642 166.002 63.3278C166.095 63.4915 166.148 63.6745 166.157 63.8624Z" fill="#380009"></path><path d="M165.78 64.0506C165.78 64.3961 165.539 64.5322 165.246 64.3647C165.091 64.2613 164.962 64.1233 164.869 63.9616C164.777 63.7999 164.723 63.6189 164.712 63.4329C164.712 63.0979 164.953 62.9618 165.246 63.1293C165.401 63.2304 165.53 63.3665 165.622 63.5265C165.715 63.6865 165.769 63.866 165.78 64.0506Z" fill="#63474B"></path><path d="M171.454 77.8175L171.234 76.5926L171.664 76.3413L171.894 77.5662L171.454 77.8175Z" fill="#4A3F40"></path><path d="M171.234 76.5928L170.345 75.9646L170.784 75.7134L171.664 76.3415L171.234 76.5928Z" fill="#5C4E4F"></path><path d="M169.371 76.4672L170.345 75.9646L170.784 75.7134L169.811 76.2054L169.371 76.4672Z" fill="#3B3334"></path><path d="M171.234 76.5925L170.345 75.9644L169.371 76.4669L170.345 77.7651L170.648 78.5188L171.454 77.8174L171.234 76.5925Z" fill="#2E2728"></path><path d="M171.224 77.221C171.227 77.2631 171.221 77.3053 171.206 77.345C171.192 77.3846 171.169 77.4209 171.14 77.4513C171.043 77.5206 170.942 77.5835 170.837 77.6398L170.292 76.6975L170.533 76.551C170.577 76.5194 170.63 76.5024 170.685 76.5024C170.739 76.5024 170.792 76.5194 170.837 76.551C170.95 76.6239 171.044 76.7227 171.111 76.8392C171.179 76.9557 171.217 77.0866 171.224 77.221Z" fill="#828689"></path><path d="M170.952 77.3883C170.952 77.6396 170.784 77.7338 170.564 77.6186C170.453 77.5439 170.36 77.4447 170.293 77.3285C170.226 77.2124 170.186 77.0824 170.177 76.9486C170.177 76.6973 170.355 76.6031 170.564 76.7287C170.677 76.8 170.77 76.897 170.838 77.0117C170.905 77.1264 170.944 77.2555 170.952 77.3883Z" fill="#6D6D6D"></path><path d="M165.047 55.1411H165.141C165.382 55.1411 165.56 55.1411 165.602 55.3296L169.402 71.0334C169.418 71.0928 169.42 71.1548 169.409 71.2153C169.399 71.2757 169.375 71.3332 169.341 71.3838C169.306 71.4344 169.261 71.4769 169.208 71.5086C169.156 71.5403 169.097 71.5603 169.036 71.5673C168.895 71.5889 168.751 71.5553 168.634 71.4734C168.517 71.3915 168.436 71.2677 168.408 71.1276L164.618 55.4866C164.576 55.3086 164.796 55.1725 165.047 55.1411Z" fill="#828689"></path><path d="M165.979 55.0996C166.041 55.0422 166.091 54.9727 166.125 54.8952C166.159 54.8178 166.177 54.7341 166.178 54.6495C166.178 54.461 160.001 28.6963 160.001 28.6963L157.907 29.3035C157.907 29.3035 164.032 54.974 164.053 55.1206C164.073 55.2671 164.22 55.4661 164.503 55.5289C164.765 55.5753 165.035 55.5608 165.291 55.4864C165.547 55.4119 165.782 55.2796 165.979 55.0996Z" fill="#E26600"></path><path d="M159.823 29.2197C160.168 28.8637 160.053 28.4764 159.572 28.3612C159.304 28.308 159.028 28.3191 158.766 28.3938C158.504 28.4684 158.263 28.6044 158.064 28.7905C157.719 29.1464 157.834 29.5338 158.326 29.6489C158.592 29.7013 158.866 29.6897 159.126 29.6151C159.387 29.5404 159.625 29.4049 159.823 29.2197Z" fill="#FF9700"></path><path d="M96.2539 52.0321C96.3386 52.0211 96.4203 51.9931 96.494 51.95C96.5677 51.9068 96.6321 51.8493 96.6832 51.7808C96.7774 51.6133 106.87 27.1259 106.87 27.1259L104.776 26.3721C104.776 26.3721 94.715 50.7863 94.6417 50.9014C94.5943 51.0009 94.5809 51.1132 94.6036 51.221C94.6263 51.3289 94.6838 51.4262 94.7673 51.4982C94.9548 51.699 95.1875 51.8522 95.446 51.945C95.7046 52.0379 95.9815 52.0677 96.2539 52.0321Z" fill="#E26600"></path><path d="M106.42 27.4503C106.901 27.3561 107.037 26.9792 106.713 26.5918C106.525 26.3973 106.296 26.2488 106.041 26.158C105.787 26.0672 105.515 26.0365 105.247 26.0684C104.755 26.1626 104.619 26.5395 104.943 26.9164C105.13 27.1149 105.361 27.2667 105.618 27.3595C105.874 27.4523 106.149 27.4834 106.42 27.4503Z" fill="#FF9700"></path><path d="M84.2457 33.3966L58.9102 48.0221L58.5334 31.6587L83.8584 17.0332L84.2457 17.7032V33.3966Z" fill="#B74200"></path><path d="M69.9029 32.046L60.7842 37.2597V31.2294L60.355 30.6118L69.8401 24.5605L69.9029 32.046Z" fill="#BC3C00"></path><path d="M84.2457 24.1841L58.9102 38.8096V40.1496L84.2457 25.5241V24.1841Z" fill="#B7B7B7"></path><path d="M60.3969 30.5596V37.5111L60.7842 37.2599V31.2296L60.3969 30.5596Z" fill="#B74200"></path><path d="M50.849 0L83.8584 17.0334L84.2457 17.7034V33.3968L51.8749 14.7092L51.2049 13.4948L50.7233 11.8302L49.2576 4.16675L50.1685 0.167507L50.849 0Z" fill="#C85700"></path><path d="M50.849 0L28.2041 13.097L33.5434 17.2323L58.5334 31.6589L83.8584 17.0334L58.8998 2.6173L50.849 0Z" fill="#FFC523"></path><path d="M62.2185 19.5146L52.1262 25.2832L52.0948 25.3355L52.3565 25.503L62.2709 19.6298L62.2185 19.5146Z" fill="#E26600"></path><path d="M62.0091 19.3892L52.1262 25.2833L52.3042 25.388L62.2185 19.5148L62.0091 19.3892Z" fill="#FFE636"></path><path d="M61.5904 19.1479L51.4981 24.906L51.4562 24.9688L51.7284 25.1363L61.6427 19.2631L61.5904 19.1479Z" fill="#E26600"></path><path d="M61.381 19.0225L51.498 24.9062L51.676 25.0213L61.5904 19.1481L61.381 19.0225Z" fill="#FFE636"></path><path d="M60.9622 18.7715L50.8699 24.54L50.828 24.5924L51.1002 24.7599L61.0146 18.8866L60.9622 18.7715Z" fill="#E26600"></path><path d="M60.7424 18.6455L50.8699 24.5397L51.0479 24.6444L60.9622 18.7711L60.7424 18.6455Z" fill="#FFE636"></path><path d="M60.3236 18.4048L50.2313 24.1629L50.1999 24.2257L50.4616 24.3932L60.3759 18.5199L60.3236 18.4048Z" fill="#E26600"></path><path d="M60.1142 18.2793L50.2313 24.163L50.4093 24.2782L60.3236 18.4049L60.1142 18.2793Z" fill="#FFE636"></path><path d="M59.6954 18.0278L49.6031 23.7964L49.5612 23.8487L49.8334 24.0162L59.7478 18.143L59.6954 18.0278Z" fill="#E26600"></path><path d="M59.4861 17.9023L49.6031 23.7965L49.7811 23.9012L59.6954 18.028L59.4861 17.9023Z" fill="#FFE636"></path><path d="M59.0673 17.6616L48.975 23.4197L48.9331 23.472L49.2053 23.65L59.1196 17.7768L59.0673 17.6616Z" fill="#E26600"></path><path d="M58.8474 17.5361L48.975 23.4198L49.1529 23.535L59.0673 17.6618L58.8474 17.5361Z" fill="#FFE636"></path><path d="M73.3682 12.8877L63.2759 18.6562L63.234 18.7086L63.5062 18.8761L73.4206 13.0029L73.3682 12.8877Z" fill="#E26600"></path><path d="M73.1588 12.7622L63.2759 18.6564L63.4539 18.7611L73.3682 12.8878L73.1588 12.7622Z" fill="#FFE636"></path><path d="M72.7401 12.521L62.6478 18.2791L62.6059 18.3314L62.8781 18.4989L72.7924 12.6257L72.7401 12.521Z" fill="#E26600"></path><path d="M72.5202 12.3853L62.6478 18.2794L62.8257 18.3946L72.7401 12.5214L72.5202 12.3853Z" fill="#FFE636"></path><path d="M72.1015 12.144L62.0091 17.9021L61.9777 17.9649L62.2395 18.1324L72.1643 12.2592L72.1015 12.144Z" fill="#E26600"></path><path d="M71.8921 12.0186L62.0091 17.9023L62.1871 18.0174L72.1015 12.1442L71.8921 12.0186Z" fill="#FFE636"></path><path d="M71.4733 11.7676L61.381 17.5361L61.3391 17.5885L61.6113 17.756L71.5257 11.8827L71.4733 11.7676Z" fill="#E26600"></path><path d="M71.2639 11.6416L61.381 17.5358L61.559 17.6405L71.4733 11.7672L71.2639 11.6416Z" fill="#FFE636"></path><path d="M70.8451 11.4009L60.7528 17.1589L60.711 17.2218L60.9832 17.3893L70.8975 11.516L70.8451 11.4009Z" fill="#E26600"></path><path d="M70.6253 11.2754L60.7528 17.1591L60.9308 17.2742L70.8452 11.401L70.6253 11.2754Z" fill="#FFE636"></path><path d="M70.2065 11.0239L60.1247 16.7925L60.0828 16.8448L60.355 17.0123L70.2693 11.1391L70.2065 11.0239Z" fill="#E26600"></path><path d="M69.9971 10.8984L60.1247 16.7926L60.2922 16.8973L70.2065 11.0241L69.9971 10.8984Z" fill="#FFE636"></path><path d="M46.2216 18.1115L40.0552 14.7614L33.2502 11.0657V10.5527H34.5065L45.9703 14.8242L47.5302 16.0595V18.8339L46.2216 18.1115Z" fill="#2E2728"></path><path d="M60.1037 11.5683L47.5302 18.8339V16.0596L60.1037 8.79395V11.5683Z" fill="#3B3334"></path><path d="M60.1037 8.79391L58.5438 7.56902L47.0905 3.28711H45.8237L33.2502 10.5527H34.5065L45.9703 14.8242L47.5302 16.0595L60.1037 8.79391Z" fill="#4A3F40"></path><path d="M58.5438 7.56934L45.9703 14.8245L47.5302 16.0599L60.1037 8.79423L58.5438 7.56934Z" fill="#5C4E4F"></path><path d="M47.0905 3.28711L34.5065 10.5527H33.2502L45.8237 3.28711H47.0905Z" fill="#362E2F"></path><path d="M34.5065 10.5527L46.2216 14.6776L47.5302 15.6094L59.4651 8.79391L58.2507 7.73652L47.0905 3.28711L58.5438 7.56902L60.1037 8.79391L47.5302 16.0595L45.9703 14.8242L34.5065 10.5527Z" fill="#705F60"></path><path d="M47.5302 18.834H44.7978L42.7353 17.8394L32.7268 11.0972L33.2502 10.7622V11.0658L47.5302 18.834Z" fill="#E27D00"></path><path d="M46.232 14.4372L45.9703 14.3639L51.5818 11.1289L51.8435 11.2022L46.232 14.4372Z" fill="#1A0004"></path><path d="M52.2414 10.9718L51.9796 10.8986L57.5911 7.66357L57.8529 7.73686L52.2414 10.9718Z" fill="#1A0004"></path><path d="M45.3212 14.0915L45.0595 14.0182L50.671 10.7832L50.9327 10.8565L45.3212 14.0915Z" fill="#1A0004"></path><path d="M51.3305 10.6369L51.0688 10.5636L56.6803 7.32861L56.942 7.4019L51.3305 10.6369Z" fill="#1A0004"></path><path d="M44.4104 13.7565L44.1487 13.6832L49.7602 10.4482L50.0219 10.5215L44.4104 13.7565Z" fill="#1A0004"></path><path d="M50.4197 10.3019L50.158 10.2286L55.7695 6.99365L56.0312 7.06694L50.4197 10.3019Z" fill="#1A0004"></path><path d="M43.4996 13.4216L43.2378 13.3483L48.8493 10.1133L49.1111 10.1866L43.4996 13.4216Z" fill="#1A0004"></path><path d="M49.4984 9.96647L49.2367 9.89319L54.8587 6.6582L55.1204 6.72102L49.4984 9.96647Z" fill="#1A0004"></path><path d="M42.5888 13.0761L42.327 13.0133L47.9385 9.77832L48.2003 9.84114L42.5888 13.0761Z" fill="#1A0004"></path><path d="M48.5876 9.62126L48.3259 9.54797L53.9478 6.31299L54.2096 6.38627L48.5876 9.62126Z" fill="#1A0004"></path><path d="M41.6675 12.7409L41.4162 12.6676L47.0277 9.43262L47.2894 9.5059L41.6675 12.7409Z" fill="#1A0004"></path><path d="M47.6768 9.2863L47.4151 9.21301L53.037 5.97803L53.2987 6.05131L47.6768 9.2863Z" fill="#1A0004"></path><path d="M40.7566 12.4059L40.5054 12.3326L46.1169 9.09766L46.3786 9.17094L40.7566 12.4059Z" fill="#1A0004"></path><path d="M46.766 8.95134L46.5042 8.87805L52.1262 5.64307L52.3879 5.71635L46.766 8.95134Z" fill="#1A0004"></path><path d="M39.8458 12.071L39.5841 11.9977L45.2061 8.7627L45.4678 8.83598L39.8458 12.071Z" fill="#1A0004"></path><path d="M45.8551 8.60591L45.5934 8.53262L51.2154 5.30811L51.4666 5.37092L45.8551 8.60591Z" fill="#1A0004"></path><path d="M38.935 11.7258L38.6733 11.6525L44.2952 8.41748L44.557 8.49076L38.935 11.7258Z" fill="#1A0004"></path><path d="M44.9443 8.27067L44.6826 8.19739L50.3046 4.9624L50.5558 5.03569L44.9443 8.27067Z" fill="#1A0004"></path><path d="M38.0242 11.3903L37.7624 11.317L43.3844 8.08203L43.6461 8.15532L38.0242 11.3903Z" fill="#1A0004"></path><path d="M44.0335 7.93571L43.7718 7.86243L49.3833 4.62744L49.645 4.70073L44.0335 7.93571Z" fill="#1A0004"></path><path d="M37.1134 11.0553L36.8516 10.9821L42.4736 7.74707L42.7249 7.82035L37.1134 11.0553Z" fill="#1A0004"></path><path d="M43.1227 7.59028L42.8609 7.52747L48.4724 4.29248L48.7342 4.36577L43.1227 7.59028Z" fill="#1A0004"></path><path d="M36.2025 10.7099L35.9408 10.6471L41.5628 7.41211L41.814 7.47492L36.2025 10.7099Z" fill="#1A0004"></path><path d="M42.2119 7.25505L41.9501 7.18176L47.5616 3.94678L47.8234 4.02006L42.2119 7.25505Z" fill="#1A0004"></path><path d="M35.2917 10.3752L35.03 10.3019L40.6415 7.06689L40.9032 7.14018L35.2917 10.3752Z" fill="#1A0004"></path><path d="M41.301 6.92009L41.0393 6.8468L46.6508 3.61182L46.9125 3.6851L41.301 6.92009Z" fill="#1A0004"></path><path d="M33.5434 17.2325L28.2041 13.0972L27.534 13.2647L26.6127 17.2639L26.3301 25.9429L26.8116 27.6075L27.4817 28.8219L33.5434 33.5959L58.9102 48.0225V32.3291L58.5334 31.6591L33.5434 17.2325Z" fill="#C85700"></path><path d="M33.5434 24.1841L26.5604 18.7715L26.5185 20.1325L33.5434 25.566L58.9102 40.2124V39.2702V38.8305L33.5434 24.1841Z" fill="#959595"></path><g style="mix-blend-mode:screen"><path d="M28.2041 13.0972L33.669 16.9498L58.5334 31.2194L59.6536 30.5598L52.7648 26.4768L64.6264 19.7032L64.3961 20.792L60.355 30.6122L58.5334 31.6591L33.5434 17.2325L28.2041 13.0972Z" fill="#FF6200"></path></g><path d="M74.457 22.4671L67.6102 18.5098L53.5081 26.6548L60.355 30.6122L74.457 22.4671Z" fill="#C85700"></path><path d="M105.498 26.8956L105.404 26.8013C105.326 26.7237 105.272 26.6241 105.252 26.5156C105.231 26.4072 105.244 26.2951 105.289 26.1941L109.477 16.1855L110.523 17.2325L106.587 26.7385C106.557 26.8522 106.495 26.9546 106.407 27.0328C106.32 27.1111 106.211 27.1618 106.095 27.1786C105.979 27.1954 105.86 27.1774 105.754 27.1271C105.648 27.0767 105.559 26.9962 105.498 26.8956Z" fill="#828689"></path><path d="M103.038 18.8445L102.347 19.7239C101.563 20.7997 101.092 22.0716 100.986 23.3986V28.8217C100.986 29.8686 102.242 29.9523 102.64 28.5495L103.048 27.8899C103.728 26.9838 104.095 25.8817 104.095 24.7491L104.315 19.7134C104.619 18.6351 103.802 17.8499 103.038 18.8445Z" fill="#1F140B"></path><path d="M103.007 19.2318L102.661 19.7239C101.87 20.7968 101.395 22.0697 101.29 23.3986V28.8216C101.29 29.8686 101.897 29.8686 102.661 28.8949L103.352 27.848C104.032 26.9419 104.399 25.8399 104.399 24.7072V19.3051C104.378 18.2687 103.76 18.2373 103.007 19.2318Z" fill="#332D28"></path><path d="M102.368 18.2895V28.1096C102.452 28.1146 102.536 28.1146 102.619 28.1096C102.667 28.0916 102.71 28.063 102.745 28.0259C102.782 27.9788 102.817 27.9299 102.85 27.8793V18.0278C102.864 17.8193 102.816 17.6111 102.711 17.4302C102.607 17.2493 102.45 17.1039 102.262 17.0127C102.074 16.9214 101.863 16.8886 101.656 16.9184C101.449 16.9482 101.256 17.0392 101.101 17.1798L97.9604 19.8389L98.2326 20.4776L101.373 17.7451C101.472 17.6869 101.584 17.6554 101.698 17.6535C101.812 17.6516 101.925 17.6795 102.025 17.7344C102.126 17.7893 102.21 17.8694 102.27 17.9667C102.33 18.064 102.364 18.1752 102.368 18.2895Z" fill="#312821"></path><path d="M82.466 5.51709L98.3059 15.3058L99.2691 16.6877L99.6564 17.7975L99.1225 18.1534L101.185 37.1446L101.52 43.4261L100.892 47.9279L100.599 50.0845L100.316 52.0318L84.0573 61.496L77.3884 26.5811L81.8902 5.56944L82.466 5.51709Z" fill="#380009"></path><path d="M81.8902 5.56944L65.6315 15.0336L66.2073 14.9813L82.6021 5.51709L81.8902 5.56944Z" fill="#959595"></path><path d="M100.63 39.4271L98.934 40.4112L94.1601 43.1646L85.8999 47.9386L83.7746 27.8586L89.0721 24.8016L97.1752 20.1219L98.5048 19.3472L100.63 39.4271Z" fill="#67383F"></path><path d="M100.63 39.4272L98.9026 42.1283L97.1438 44.8817L96.7774 45.4575L88.7998 50.0535L85.8999 47.9387L94.1601 43.1648L98.934 40.4114L100.63 39.4272Z" fill="#67383F"></path><path d="M101.52 43.4263L97.4579 48.5981L88.9464 53.55L85.2613 52.8904L84.0573 61.4961L100.316 52.032L101.52 43.4263Z" fill="#E27D00"></path><path d="M84.34 59.5489L89.1977 56.942L89.9201 54.9424L97.0391 50.7128L98.3059 51.3305L100.599 50.0847L101.52 43.4263L97.4579 48.5981L88.9464 53.55L85.2613 52.8904L84.34 59.5489Z" fill="#B7B7B7"></path><path d="M98.955 37.5424L91.0821 32.9882L88.8208 27.6594L89.0721 24.8013L97.1752 20.1216L98.955 37.5424Z" fill="#7E7E7E"></path><path d="M98.955 38.9351L90.946 34.3496L98.955 38.9351Z" fill="#4F2F32"></path><path d="M82.6021 5.51709L66.2073 14.9813L82.0472 24.77L98.3059 15.3058L82.6021 5.51709Z" fill="#D7D7D7"></path><path d="M98.955 38.9351L98.9341 40.4113L98.9026 42.1282L97.1438 44.8816L94.1601 43.1647L91.8883 41.856L90.9356 38.7048L90.946 34.3496L98.955 38.9351Z" fill="#7E7E7E"></path><path d="M66.2073 14.9814L82.0472 24.7702L83.0104 26.1521L83.3873 27.2618L82.8638 27.6178L84.9158 46.6194L85.2613 52.8905L84.6331 57.3922L84.34 59.5489L84.0573 61.4962L61.1193 48.2631V36.0455L65.6315 15.0338L66.2073 14.9814Z" fill="#E26600"></path><path d="M82.8638 27.6178L83.3873 27.2618L83.0104 26.1521L82.0472 24.7702L66.2073 14.9814L65.6315 15.0338L61.1193 36.0455L62.6687 44.3685L65.5059 49.0483L84.34 59.5489L85.2613 52.8905L84.9158 46.6194L82.8638 27.6178Z" fill="#959595"></path><path d="M81.5447 26.0054L83.9421 46.6402V53.5709L82.8952 57.3816L69.9448 49.9066L64.417 41.4789L63.4853 37.3122L65.6943 24.3094L67.2437 17.6929L81.5447 26.0054Z" fill="#380009"></path><path d="M82.6963 47.0066L74.8235 42.463L72.5621 37.1237L73.4415 27.1256L73.8184 22.917L77.2732 24.8747L80.6339 26.7697L82.6963 47.0066Z" fill="#4F2F32"></path><path d="M74.6873 43.8242L74.6664 48.1794L75.6296 51.3202L81.9006 54.9425L82.623 52.7335L82.6963 48.3993L74.6873 43.8242Z" fill="#4F2F32"></path><path d="M71.5466 21.6085L70.7091 28.7381L69.882 35.6896L66.5109 38.0347L64.8987 36.0456L67.0344 25.0948L68.2593 19.7031L69.2748 20.2894L71.5466 21.6085Z" fill="#4F2F32"></path><path d="M77.5454 31.24L76.6137 31.3342C76.1842 31.5014 75.82 31.8024 75.5749 32.1927C75.3297 32.583 75.2168 33.0418 75.2527 33.5013V39.5106C75.2527 40.5576 75.8599 41.259 76.6137 41.102L77.8805 40.8298C78.6342 40.6727 78.9274 39.8457 78.9274 38.8092V32.8313C78.9064 31.7948 78.2992 31.0829 77.5454 31.24Z" fill="#1F140B"></path><path d="M77.5454 31.4074L76.6137 31.5017C76.186 31.6684 75.8231 31.9678 75.5781 32.3559C75.3332 32.7441 75.2191 33.2006 75.2527 33.6583V39.6677C75.2527 40.7146 75.8599 41.416 76.6137 41.259L77.8805 41.0287C78.6342 40.8716 78.9274 40.0445 78.9274 39.0081V32.9988C78.9064 31.9623 78.2992 31.2504 77.5454 31.4074Z" fill="#332D28"></path><path d="M81.8274 26.2671L78.3935 29.6277C77.9781 30.0389 77.6478 30.5279 77.4214 31.0668C77.1951 31.6058 77.0771 32.184 77.0743 32.7685V40.2958L77.2418 40.3482C77.3032 40.3677 77.3687 40.3703 77.4314 40.3555C77.4941 40.3408 77.5516 40.3093 77.5978 40.2644V33.1035C77.5918 31.9309 78.0468 30.803 78.8646 29.9627L82.0053 26.7591V26.3718L81.8274 26.2671Z" fill="#312821"></path><path d="M50.1685 0.167507L27.534 13.2645L28.2041 13.097L50.849 0L50.1685 0.167507Z" fill="#C85700"></path><path d="M83.3873 27.262L99.6564 17.7978L99.2691 16.6881L98.3059 15.3062L82.0472 24.7703L83.0104 26.1523L83.3873 27.262Z" fill="#E1E1E1"></path><path d="M166.356 76.7709L166.042 72.9915L166.764 72.5728L167.078 76.3521L166.356 76.7709Z" fill="#3B3334"></path><path d="M166.042 72.9914L163.875 72.4993L164.607 72.0806L166.764 72.5726L166.042 72.9914Z" fill="#3B3334"></path><path d="M161.906 73.3159L163.875 72.4993L164.607 72.0806L162.629 72.8972L161.906 73.3159Z" fill="#3B3334"></path><path d="M166.042 72.9916L163.875 72.4995L161.906 73.3161L162.702 76.8966L164.199 76.2789L166.356 76.771L166.042 72.9916Z" fill="#2E2728"></path><path d="M152.673 18.499L149.249 20.4777L155.018 28.4343L158.441 26.4556L152.673 18.499Z" fill="#FFD02D"></path><path d="M150.662 18.5618L147.239 20.5405L149.249 20.4777L152.673 18.499L150.662 18.5618Z" fill="#FFC523"></path><path d="M169.256 79.0843L169.036 77.8594L169.476 77.5977L169.695 78.8226L169.256 79.0843Z" fill="#4A3F40"></path><path d="M169.036 77.8596L168.146 77.221L168.586 76.9697L169.476 77.5979L169.036 77.8596Z" fill="#3B3334"></path><path d="M167.172 77.7235L168.146 77.221L168.586 76.9697L167.612 77.4723L167.172 77.7235Z" fill="#3B3334"></path><path d="M169.036 77.8593L168.146 77.2207L167.172 77.7232L168.146 79.0214L168.45 79.7857L169.256 79.0842L169.036 77.8593Z" fill="#2E2728"></path><path d="M170.7 72.6981L161.09 63.9668L161.498 66.1235L169.266 73.2111L169.371 74.7606L167.267 77.9955L167.643 79.8067L170.899 74.6977L170.7 72.6981Z" fill="#CB5200"></path><path d="M170.899 74.6977L170.7 72.6981L171.433 72.2793L171.622 74.2789L170.899 74.6977Z" fill="#FF9700"></path><path d="M170.899 74.6981L167.643 79.807L168.366 79.3883L171.622 74.2793L170.899 74.6981Z" fill="#E26600"></path><path d="M170.7 72.6984L161.09 63.9671L161.812 63.5483L171.433 72.2797L170.7 72.6984Z" fill="#FF9700"></path><path d="M170.648 74.0486C170.653 74.1061 170.645 74.1641 170.625 74.2183C170.605 74.2725 170.574 74.3218 170.533 74.3626C170.399 74.4615 170.259 74.5524 170.114 74.6348L169.298 73.2843C169.417 73.2215 169.532 73.1516 169.643 73.0749C169.704 73.0307 169.777 73.0068 169.852 73.0068C169.928 73.0068 170.001 73.0307 170.062 73.0749C170.233 73.175 170.377 73.3166 170.48 73.4867C170.582 73.6569 170.64 73.8501 170.648 74.0486Z" fill="#380009"></path><path d="M170.219 74.3315C170.219 74.6665 169.989 74.8026 169.685 74.6351C169.53 74.534 169.401 74.398 169.308 74.238C169.216 74.078 169.162 73.8985 169.151 73.7138C169.151 73.3684 169.392 73.2323 169.685 73.4102C169.842 73.5088 169.973 73.6442 170.066 73.8048C170.159 73.9653 170.212 74.1461 170.219 74.3315Z" fill="#63474B"></path><path d="M162.534 65.9561C162.539 66.0137 162.53 66.0714 162.511 66.1255C162.491 66.1797 162.46 66.229 162.419 66.2702C162.315 66.354 162.001 66.532 162.001 66.532L161.226 65.1919L161.571 64.972C161.631 64.9287 161.702 64.9053 161.775 64.9053C161.849 64.9053 161.92 64.9287 161.98 64.972C162.147 65.0768 162.285 65.2217 162.382 65.3936C162.479 65.5655 162.531 65.7589 162.534 65.9561Z" fill="#380009"></path><path d="M162.158 66.1443C162.158 66.4898 161.917 66.6259 161.624 66.4584C161.467 66.3569 161.337 66.2193 161.244 66.0573C161.151 65.8952 161.098 65.7133 161.09 65.5267C161.09 65.1916 161.32 65.0555 161.624 65.2231C161.779 65.3242 161.907 65.4602 162 65.6202C162.093 65.7802 162.147 65.9597 162.158 66.1443Z" fill="#63474B"></path><path d="M168.376 79.587L168.156 78.3621L168.596 78.1108L168.816 79.3357L168.376 79.587Z" fill="#4A3F40"></path><path d="M168.156 78.3618L167.267 77.7337L167.706 77.4824L168.596 78.1106L168.156 78.3618Z" fill="#5C4E4F"></path><path d="M166.303 78.2257L167.267 77.7337L167.706 77.4824L166.733 77.9745L166.303 78.2257Z" fill="#3B3334"></path><path d="M168.156 78.362L167.267 77.7339L166.303 78.2259L167.267 79.5241L167.57 80.2884L168.376 79.5869L168.156 78.362Z" fill="#2E2728"></path><path d="M69.0654 13.2329L85.0833 22.6761L85.1461 22.7704L84.6854 23.0426L68.9607 13.4214L69.0654 13.2329Z" fill="#A5AAAB"></path><path d="M69.4213 13.0239L85.0833 22.6765L84.7797 22.8545L69.0654 13.2333L69.4213 13.0239Z" fill="#E1E1E1"></path><path d="M71.7141 11.7046L87.732 21.1478L87.7948 21.242L87.3446 21.5142L71.6199 11.893L71.7141 11.7046Z" fill="#A5AAAB"></path><path d="M72.0805 11.4951L87.732 21.1477L87.4388 21.3362L71.7141 11.7045L72.0805 11.4951Z" fill="#E1E1E1"></path><path d="M74.3733 10.1763L90.3912 19.63L90.454 19.7137L90.0038 19.9964L74.2791 10.3647L74.3733 10.1763Z" fill="#A5AAAB"></path><path d="M74.7292 9.9668L90.3912 19.6299L90.098 19.8079L74.3733 10.1762L74.7292 9.9668Z" fill="#E1E1E1"></path><path d="M77.0325 8.6582L93.0503 18.1014L93.1132 18.1957L92.6525 18.4679L76.9278 8.84665L77.0325 8.6582Z" fill="#A5AAAB"></path><path d="M77.3884 8.44873L93.0503 18.1013L92.7467 18.2793L77.0325 8.65812L77.3884 8.44873Z" fill="#E1E1E1"></path><path d="M79.6916 7.12939L95.7095 16.5726L95.7619 16.6668L95.3117 16.939L79.5869 7.31784L79.6916 7.12939Z" fill="#A5AAAB"></path><path d="M80.0476 6.91992L95.7095 16.5725L95.4059 16.7505L79.6916 7.12931L80.0476 6.91992Z" fill="#E1E1E1"></path><path d="M88.2345 56.2928L85.9103 57.6537L86.0569 55.9054L88.9464 54.6177L88.2345 56.2928Z" fill="#F1F1F1"></path><path d="M88.2345 56.2928L87.4074 55.8531L86.0569 55.9054L86.2454 54.2827L88.9464 54.6177L88.2345 56.2928Z" fill="#DFF1F1"></path><path d="M88.9464 54.6177L88.2345 56.2928L85.9103 57.6537L85.8999 57.8317L88.3811 56.3765L89.1034 54.7538L88.9464 54.6177Z" fill="#423D3D"></path><path d="M86.7898 56.3873L86.0569 56.8166L86.0779 56.3455L86.8212 55.9058L86.7898 56.3873Z" fill="white"></path><path d="M85.9103 57.654L85.8999 57.8319L88.3811 56.3767L88.2345 56.293L85.9103 57.654Z" fill="#716D6D"></path><path d="M99.9182 49.0065L98.1803 50.0011L97.4055 49.4462L100.463 45.5098L99.9182 49.0065Z" fill="#F1F1F1"></path><path d="M99.9182 49.0065L99.2377 48.1794L97.6882 49.3729L98.1803 50.0011L97.4055 49.4462L100.463 45.5098L100.431 47.478L99.9182 49.0065Z" fill="#DFF1F1"></path><path d="M100.463 45.5098L100.295 47.3628L99.9182 49.0065L98.1803 50.001L98.4629 50.0115L100.065 49.0902L100.431 47.478L100.62 45.4155L100.463 45.5098Z" fill="#423D3D"></path><path d="M98.7142 48.9855L97.9709 49.4147L98.0023 48.9331L98.7351 48.5039L98.7142 48.9855Z" fill="white"></path><path d="M98.1803 50.0009L98.4629 50.0114L100.065 49.0901L99.9182 49.0063L98.1803 50.0009Z" fill="#716D6D"></path><path d="M162.168 61.5487L160.598 60.2087L157.52 48.2109L159.09 49.551L162.168 61.5487Z" fill="#A3A8B1"></path><path d="M159.561 51.4141L157.991 50.0741L157.75 49.1318L159.32 50.4719L159.561 51.4141Z" fill="#E82D24"></path><path d="M160.085 53.4349L158.514 52.0948L158.274 51.1631L159.844 52.5031L160.085 53.4349Z" fill="#E82D24"></path><path d="M160.608 55.4659L159.038 54.1258L158.797 53.1836L160.357 54.5237L160.608 55.4659Z" fill="#E82D24"></path><path d="M161.121 57.4867L159.561 56.1571L159.32 55.2148L160.88 56.5549L161.121 57.4867Z" fill="#E82D24"></path><path d="M161.645 59.5176L160.085 58.1776L159.833 57.2354L161.404 58.5754L161.645 59.5176Z" fill="#E82D24"></path><path d="M162.168 61.5484L160.598 60.2083L160.357 59.2661L161.927 60.6062L162.168 61.5484Z" fill="#E82D24"></path><path d="M159.09 49.5614L157.52 48.2214L154.442 36.2236L156.002 37.5637L159.09 49.5614Z" fill="#A3A8B1"></path><path d="M156.483 39.4268L154.913 38.0868L154.672 37.1445L156.243 38.4846L156.483 39.4268Z" fill="#E82D24"></path><path d="M157.007 41.4478L155.436 40.1078L155.196 39.1655L156.766 40.5056L157.007 41.4478Z" fill="#E82D24"></path><path d="M157.52 43.4786L155.96 42.1385L155.719 41.1963L157.279 42.5364L157.52 43.4786Z" fill="#E82D24"></path><path d="M158.043 45.4994L156.483 44.1593L156.232 43.2275L157.802 44.5571L158.043 45.4994Z" fill="#E82D24"></path><path d="M158.567 47.5303L156.996 46.1903L156.755 45.248L158.326 46.5881L158.567 47.5303Z" fill="#E82D24"></path><path d="M159.09 49.5506L157.52 48.2106L157.279 47.2788L158.839 48.6189L159.09 49.5506Z" fill="#E82D24"></path><path d="M123.139 26.1519L125.076 25.4609L137.011 28.7797L135.063 29.4602L123.139 26.1519Z" fill="#A3A8B1"></path><path d="M133.221 28.9581L135.158 28.2671L136.1 28.5288L134.152 29.2093L133.221 28.9581Z" fill="#E82D24"></path><path d="M131.2 28.3926L133.147 27.7017L134.079 27.9634L132.142 28.6544L131.2 28.3926Z" fill="#E82D24"></path><path d="M129.19 27.8375L131.127 27.1465L132.059 27.4082L130.122 28.0992L129.19 27.8375Z" fill="#E82D24"></path><path d="M127.17 27.2725L129.106 26.5815L130.049 26.8433L128.101 27.5342L127.17 27.2725Z" fill="#E82D24"></path><path d="M125.149 26.7173L127.096 26.0264L128.028 26.2881L126.091 26.9791L125.149 26.7173Z" fill="#E82D24"></path><path d="M123.139 26.1522L125.076 25.4717L126.007 25.7229L124.071 26.4139L123.139 26.1522Z" fill="#E82D24"></path><path d="M168.083 78.9903C168.086 79.0324 168.08 79.0747 168.066 79.1143C168.051 79.154 168.029 79.1902 167.999 79.2207C167.902 79.2899 167.801 79.3529 167.696 79.4091L167.141 78.4669L167.392 78.3098C167.436 78.2767 167.489 78.2588 167.544 78.2588C167.599 78.2588 167.652 78.2767 167.696 78.3098C167.81 78.3844 167.904 78.485 167.972 78.6033C168.039 78.7217 168.077 78.8543 168.083 78.9903Z" fill="#828689"></path><path d="M167.811 79.1576C167.811 79.4089 167.633 79.5031 167.424 79.388C167.311 79.315 167.216 79.2162 167.149 79.0997C167.082 78.9832 167.043 78.8523 167.036 78.7179C167.036 78.4667 167.204 78.3725 167.424 78.4876C167.535 78.5624 167.628 78.6616 167.695 78.7777C167.762 78.8939 167.802 79.0238 167.811 79.1576Z" fill="#6D6D6D"></path><path d="M165.476 74.7081C165.482 74.7882 165.471 74.8686 165.443 74.9443C165.416 75.0199 165.374 75.0892 165.319 75.1478C165.128 75.288 164.929 75.4173 164.723 75.5352L163.676 73.6926C163.842 73.5974 164.003 73.4925 164.157 73.3785C164.245 73.3177 164.349 73.2852 164.456 73.2852C164.562 73.2852 164.666 73.3177 164.754 73.3785C164.971 73.5273 165.149 73.7254 165.275 73.9565C165.401 74.1876 165.47 74.4452 165.476 74.7081Z" fill="#828689"></path><path d="M164.942 75.0431C164.942 75.5247 164.607 75.7236 164.189 75.4828C163.969 75.3367 163.787 75.1414 163.656 74.9124C163.525 74.6834 163.449 74.4271 163.435 74.1637C163.435 73.6926 163.77 73.4937 164.189 73.7345C164.409 73.8777 164.591 74.071 164.722 74.2984C164.853 74.5258 164.929 74.781 164.942 75.0431Z" fill="#6D6D6D"></path><path d="M111.235 16.573C111.238 16.6304 111.229 16.6877 111.21 16.7417C111.19 16.7956 111.159 16.8451 111.12 16.887C111.016 16.9708 109.958 17.6199 109.958 17.6199L109.204 16.3112C109.204 16.3112 110.251 15.6935 110.251 15.6307C110.31 15.5874 110.382 15.564 110.455 15.564C110.529 15.564 110.6 15.5874 110.66 15.6307C110.825 15.7291 110.964 15.8664 111.064 16.0305C111.164 16.1947 111.223 16.3809 111.235 16.573Z" fill="#380009"></path><path d="M110.126 17.2744C110.126 17.6094 109.885 17.7455 109.581 17.578C109.426 17.4769 109.297 17.3408 109.205 17.1808C109.112 17.0208 109.058 16.8413 109.047 16.6567C109.047 16.3112 109.288 16.1751 109.581 16.3531C109.739 16.4518 109.871 16.587 109.966 16.7474C110.061 16.9077 110.115 17.0885 110.126 17.2744Z" fill="#63474B"></path><path d="M148.495 22.0481C148.502 22.1622 148.464 22.2745 148.391 22.3621C148.286 22.4459 147.229 23.095 147.229 23.095L146.475 21.7968L147.522 21.1058C147.581 21.0624 147.652 21.0391 147.726 21.0391C147.799 21.0391 147.871 21.0624 147.93 21.1058C148.094 21.2048 148.231 21.3424 148.33 21.5066C148.428 21.6709 148.485 21.8568 148.495 22.0481Z" fill="#380009"></path><path d="M147.386 22.7495C147.386 23.0845 147.155 23.2311 146.852 23.0531C146.697 22.952 146.568 22.816 146.475 22.656C146.382 22.496 146.328 22.3164 146.318 22.1318C146.318 21.7968 146.558 21.6503 146.852 21.8282C147.008 21.9275 147.139 22.0631 147.231 22.2235C147.324 22.3839 147.377 22.5643 147.386 22.7495Z" fill="#63474B"></path><path d="M69.2748 20.2896L71.5466 21.6087L70.7091 28.7382L66.9611 30.9367L69.2748 20.2896Z" fill="#664A4C"></path><path d="M77.2733 24.8747L73.4415 27.1256L73.8184 22.917L77.2733 24.8747Z" fill="#664A4C"></path><g style="mix-blend-mode:multiply"><path d="M33.5434 17.2325V33.5959L27.4817 28.8219L26.8116 27.6075L26.3301 25.9429L26.6127 17.2639L27.534 13.2647L28.2041 13.0972L33.5434 17.2325Z" fill="#DFD4CD"></path></g><g style="mix-blend-mode:multiply"><path d="M43.9707 39.4268H43.6357V23.0635L68.9816 8.34375L69.1491 8.63689L43.9707 23.2519V39.4268Z" fill="#E7CE68"></path></g><g style="mix-blend-mode:multiply"><path d="M43.7194 35.0404L33.7109 29.3556V33.5956H33.3758V28.7798L43.8765 34.7472L43.7194 35.0404Z" fill="#E7CE68"></path></g><path d="M62.5535 36.4434L62.0196 36.1398C61.6964 35.9624 61.4399 35.6846 61.2887 35.3483C61.1376 35.0121 61.1002 34.6357 61.1821 34.2763L63.9878 21.4725C64.0633 21.1337 64.2133 20.816 64.427 20.5426C64.6407 20.2691 64.9127 20.0467 65.2232 19.8916H65.2965H65.956V20.5616H65.4849C65.2779 20.6781 65.098 20.8373 64.9572 21.0287C64.8164 21.22 64.718 21.4391 64.6683 21.6714L61.8312 34.4229C61.7749 34.6475 61.7948 34.8845 61.8876 35.0967C61.9804 35.3088 62.141 35.4842 62.3441 35.5954L62.8781 35.899L62.5535 36.4434Z" fill="#380009"></path><path d="M56.2511 44.6091C56.0871 44.6092 55.9247 44.5765 55.7734 44.5131C55.6222 44.4498 55.485 44.3569 55.3701 44.2399C55.2551 44.123 55.1645 43.9843 55.1037 43.832C55.0428 43.6797 55.0129 43.5168 55.0157 43.3528V35.2287C55.013 34.8093 55.1186 34.3962 55.3221 34.0294C55.5257 33.6626 55.8204 33.3545 56.1778 33.1349L56.5337 32.915L56.8897 33.4804L56.5337 33.7002C56.2715 33.8624 56.055 34.0889 55.9047 34.3583C55.7545 34.6276 55.6755 34.9308 55.6753 35.2392V43.3633C55.6781 43.4615 55.7047 43.5575 55.7527 43.6432C55.8008 43.7288 55.869 43.8016 55.9513 43.8551C56.0337 43.9086 56.1278 43.9414 56.2256 43.9505C56.3234 43.9597 56.4219 43.945 56.5128 43.9077L56.8478 44.4835C56.6601 44.5674 56.4567 44.6102 56.2511 44.6091Z" fill="#380009"></path><path d="M158.65 29.1674C158.65 29.1046 155.018 22.6451 153.971 21.2527C153.235 20.2139 152.137 19.489 150.893 19.2217C150.471 19.1907 150.047 19.2482 149.648 19.3907C149.25 19.5331 148.886 19.7572 148.579 20.0487L148.15 19.5462C148.524 19.1944 148.968 18.925 149.454 18.7555C149.939 18.586 150.454 18.5201 150.966 18.5621C152.39 18.8443 153.653 19.6609 154.494 20.8444C155.541 22.2787 159.09 28.5811 159.237 28.8429L158.65 29.1674Z" fill="#380009"></path><path d="M150.233 33.1349C150.24 33.2433 150.225 33.3519 150.189 33.4544C150.153 33.5569 150.097 33.6511 150.024 33.7317C149.764 33.9162 149.495 34.0874 149.218 34.2447L147.783 31.7635C148.007 31.6399 148.224 31.5036 148.432 31.3552C148.546 31.271 148.684 31.2256 148.825 31.2256C148.966 31.2256 149.104 31.271 149.218 31.3552C149.518 31.5477 149.767 31.8102 149.944 32.1202C150.121 32.4301 150.22 32.7783 150.233 33.1349Z" fill="#380009"></path><path d="M149.521 33.5851C149.521 34.2238 149.071 34.4855 148.474 34.1609C148.175 33.9718 147.925 33.715 147.743 33.4114C147.561 33.1077 147.453 32.7656 147.427 32.4126C147.427 31.7635 147.888 31.5122 148.474 31.8368C148.776 32.0227 149.029 32.2787 149.211 32.583C149.394 32.8873 149.5 33.2311 149.521 33.5851Z" fill="#63474B"></path><g style="mix-blend-mode:multiply"><path d="M100.389 51.4874L100.316 52.0318L84.0573 61.496L61.1193 48.2629V47.6348L84.1515 60.826L100.389 51.4874Z" fill="#BFA89A"></path></g><path d="M66.2073 14.9813L82.4032 24.5606L83.4291 25.4819L98.5257 16.5935L97.9395 15.5152L82.6021 5.51709L98.3059 15.3058L99.2691 16.6877L83.0104 26.1519L82.0472 24.77L66.2073 14.9813Z" fill="#F6F6F6"></path><path d="M87.041 25.1261L87.4912 23.8174L95.3117 19.3052L95.9398 19.9543L87.041 25.1261Z" fill="#332D28"></path><path d="M88.6219 23.3882L87.7006 23.9221V24.3618L88.7684 23.4719L88.6219 23.3882Z" fill="#DC6E36"></path><path d="M88.7684 23.4722L87.8472 24.0061V24.4458L88.7684 23.9014V23.4722Z" fill="#FF8936"></path><path d="M87.8472 24.0061L87.7006 23.9224V24.3621L87.8472 24.4458V24.0061Z" fill="#D75716"></path><path d="M91.7626 21.5771L90.8413 22.1111V22.5613L91.9092 21.6609L91.7626 21.5771Z" fill="#DC6E36"></path><path d="M91.9092 21.6606L90.9879 22.1946V22.6343L91.9092 22.0899V21.6606Z" fill="#FF8936"></path><path d="M90.9879 22.1946L90.8413 22.1108V22.561L90.9879 22.6343V22.1946Z" fill="#D75716"></path><path d="M94.9034 19.7764L93.9821 20.2998V20.75L95.0604 19.8497L94.9034 19.7764Z" fill="#DC6E36"></path><path d="M95.0604 19.8496L94.1287 20.3835V20.8337L95.0604 20.2893V19.8496Z" fill="#FF8936"></path><path d="M94.1287 20.3836L93.9821 20.2998V20.75L94.1287 20.8337V20.3836Z" fill="#D75716"></path><path d="M51.676 41.7722C51.5547 41.7708 51.4358 41.7383 51.3305 41.678C51.1252 41.5462 50.9543 41.3672 50.8323 41.156C50.7103 40.9447 50.6406 40.7073 50.6291 40.4636C50.6291 40.1285 50.8071 39.9087 51.0897 39.9087C51.2111 39.9101 51.33 39.9426 51.4352 40.0029C51.6406 40.1347 51.8114 40.3137 51.9335 40.5249C52.0555 40.7362 52.1252 40.9736 52.1367 41.2173C52.1367 41.5524 51.9587 41.7722 51.676 41.7722Z" fill="#DDDDDD"></path><path d="M51.9587 41.2695C51.9587 41.6778 51.6656 41.8453 51.3096 41.6359C51.1233 41.5142 50.9684 41.3503 50.8574 41.1575C50.7464 40.9647 50.6826 40.7483 50.671 40.5262C50.671 40.1179 50.9536 39.9504 51.3096 40.1597C51.4978 40.2802 51.6548 40.4436 51.7676 40.6365C51.8805 40.8294 51.9459 41.0464 51.9587 41.2695Z" fill="#FF9E38"></path><path d="M35.8256 32.6323C35.7063 32.6299 35.5901 32.5936 35.4906 32.5276C35.2849 32.3988 35.1135 32.2219 34.9913 32.0122C34.8691 31.8025 34.7997 31.5661 34.7892 31.3236C34.7892 30.9782 34.9672 30.7583 35.2498 30.7583C35.3728 30.7586 35.4929 30.795 35.5953 30.863C35.7987 30.9944 35.9682 31.1718 36.0901 31.381C36.212 31.5902 36.2828 31.8252 36.2967 32.067C36.2967 32.4543 36.1083 32.6323 35.8256 32.6323Z" fill="#DDDDDD"></path><path d="M36.1188 32.1302C36.1188 32.5385 35.8256 32.6955 35.4697 32.4966C35.2873 32.3758 35.1349 32.2149 35.0242 32.0262C34.9135 31.8375 34.8474 31.626 34.8311 31.4078C34.8311 30.9995 35.1137 30.8425 35.4697 31.0414C35.6541 31.161 35.8085 31.3214 35.921 31.5102C36.0336 31.699 36.1012 31.9111 36.1188 32.1302Z" fill="#FF9E38"></path><path d="M51.6551 33.9203L51.6656 33.5539L39.8039 26.707L39.7935 27.0735L51.6551 33.9203Z" fill="#380009"></path><path d="M51.6551 33.0409L51.6656 32.6745L39.8039 25.8276L39.7935 26.1941L51.6551 33.0409Z" fill="#380009"></path><path d="M51.6551 32.1615L51.6656 31.7951L39.8039 24.9482L39.7935 25.3147L51.6551 32.1615Z" fill="#380009"></path><path d="M51.6551 31.2819L51.6656 30.905L39.8039 24.0581L39.7935 24.435L51.6551 31.2819Z" fill="#380009"></path><path d="M51.6551 30.4025L51.6656 30.0256L39.8039 23.1787L39.7935 23.5556L51.6551 30.4025Z" fill="#380009"></path><path d="M30.277 27.4503V28.4972L29.3347 27.691V26.3196C29.3337 26.2403 29.3501 26.1617 29.3826 26.0893C29.4152 26.017 29.4632 25.9527 29.5232 25.9008C29.7849 25.7647 29.9838 25.9636 30.099 26.1207C30.136 26.1695 30.1676 26.2221 30.1932 26.2777C30.279 26.6622 30.3073 27.0574 30.277 27.4503Z" fill="#902E00"></path><path d="M30.099 26.1728L29.8058 27.492L29.3347 27.7223V26.3194C29.3337 26.2401 29.3501 26.1615 29.3826 26.0892C29.4152 26.0169 29.4632 25.9525 29.5232 25.9006C29.7849 25.7646 29.9838 25.9635 30.099 26.1728Z" fill="#983800"></path><path d="M29.3347 27.6703L29.8058 27.4399L30.2874 27.7959L30.277 28.4764L29.3347 27.6703Z" fill="#C85700"></path><path d="M151.479 30.4549L149.605 30.2979L148.862 29.7325L142.842 27.4502L141.491 25.5972L139.073 24.6445L141.491 23.1265L144.255 23.9431L146.799 24.3932L143.376 26.3615L143.784 26.9059L149.804 29.1881L151.479 30.4549Z" fill="#CB5200"></path><g style="mix-blend-mode:multiply"><path d="M91.3439 16.3318L91.1868 14.6567L87.1667 14.73C86.8693 14.7317 86.576 14.7996 86.3082 14.9289C85.8161 15.1802 85.8475 15.578 86.3815 15.8188C86.5996 15.9017 86.829 15.9511 87.062 15.9654L91.3439 16.3318Z" fill="#D8D8D8"></path></g><path d="M89.8049 14.5H92.8724V15.6202C92.8724 15.8087 92.7572 15.9971 92.4746 16.1437C91.7774 16.4322 90.9942 16.4322 90.297 16.1437C89.9829 15.9971 89.8258 15.8191 89.8049 15.6307V14.5Z" fill="#B2CDCF"></path><path d="M89.9515 11.7046H92.5897L92.8724 14.4789C92.8724 14.6674 92.7572 14.8558 92.4746 15.0024C91.7774 15.2909 90.9942 15.2909 90.297 15.0024C89.9829 14.8663 89.8258 14.6778 89.8049 14.4894L89.9515 11.7046Z" fill="#D76600"></path><path d="M90.2969 11.2651C90.5936 11.1404 90.9122 11.0762 91.2339 11.0762C91.5557 11.0762 91.8743 11.1404 92.1709 11.2651C92.7049 11.5059 92.7363 11.9037 92.2442 12.1549C91.6438 12.401 90.9707 12.401 90.3702 12.1549C89.8363 11.9142 89.8049 11.5163 90.2969 11.2651Z" fill="#FFA71E"></path><path d="M90.2865 13.9765C90.605 13.8441 90.9465 13.7759 91.2915 13.7759C91.6365 13.7759 91.978 13.8441 92.2966 13.9765C92.8724 14.2278 92.9142 14.6675 92.3803 14.9397C91.7333 15.2067 91.0068 15.2067 90.3598 14.9397C89.7839 14.657 89.7525 14.2487 90.2865 13.9765Z" fill="#FF9C00"></path><path d="M91.7312 12.9297C91.8733 13.3579 91.8733 13.8206 91.7312 14.2488C91.5847 14.5838 90.946 14.4896 90.8099 14.1232C90.7413 13.9812 90.7057 13.8255 90.7057 13.6678C90.7057 13.5101 90.7413 13.3544 90.8099 13.2124C91.0821 12.8669 91.5951 12.5633 91.7312 12.9297Z" fill="#FF9C00"></path><path d="M91.2182 13.2542C91.3319 13.6404 91.3319 14.0511 91.2182 14.4372C91.0926 14.7199 90.8937 14.6362 90.7785 14.2593C90.6564 13.8708 90.6564 13.4542 90.7785 13.0658C90.9042 12.7831 91.0821 12.8669 91.2182 13.2542Z" fill="#FFA71E"></path></g><defs><clipPath id="clip0_5678_10382"><rect width="178.343" height="110" fill="white"></rect></clipPath></defs></svg>