<svg xmlns="http://www.w3.org/2000/svg" width="77" height="90" viewBox="0 0 77 90" fill="none"><g clip-path="url(#clip0_5678_33195)"><path d="M75.9904 88.004L68.4867 26.6008C68.4423 26.2168 68.2577 25.8627 67.9683 25.6065C67.6788 25.3503 67.305 25.2101 66.9184 25.2126H60.9079C60.2626 13.2741 50.5903 0 38.2691 0H37.8414C25.4452 0 15.7578 13.2741 15.12 25.2126H9.11703C8.7237 25.2022 8.34058 25.3386 8.04233 25.5952C7.74408 25.8518 7.55207 26.2103 7.50372 26.6008L1.11053 79.2096C1.03936 79.3889 1.00122 79.5795 0.997969 79.7724C0.993829 79.8298 0.993829 79.8875 0.997969 79.945L-2.95732e-05 88.2291C-0.0291427 88.4509 -0.0100211 88.6763 0.0560275 88.89C0.122076 89.1037 0.233494 89.3006 0.382662 89.4672C0.531635 89.6345 0.714253 89.7684 0.918562 89.8602C1.12287 89.952 1.34427 89.9997 1.56825 90H74.4597C74.6682 90.001 74.8749 89.9608 75.0679 89.8816C75.2609 89.8025 75.4363 89.6861 75.5841 89.5389C75.7319 89.3918 75.8492 89.2169 75.9292 89.0243C76.0093 88.8318 76.0505 88.6253 76.0505 88.4167C76.0498 88.277 76.0296 88.1381 75.9904 88.004ZM37.8039 3.16658H38.2691C48.6693 3.16658 57.1185 14.9325 57.7789 25.2126H18.3016C18.9469 14.9325 27.4037 3.16658 37.8039 3.16658ZM10.5052 28.3792H65.5527L71.6083 78.1891H4.42718L10.5052 28.3792ZM3.37666 86.8334L4.03699 81.3557H71.991L72.6588 86.8334H3.37666Z" fill="#17262F"></path><path d="M14.4072 71.9685H14.6398C15.0205 71.9672 15.388 71.8295 15.6758 71.5803C15.9636 71.3311 16.1524 70.9869 16.2081 70.6104L18.2416 56.7959C18.3023 56.38 18.1953 55.957 17.9441 55.62C17.6929 55.2829 17.3181 55.0595 16.9022 54.9988C16.4862 54.9381 16.0632 55.0451 15.7262 55.2963C15.3892 55.5475 15.1657 55.9223 15.105 56.3382L13.0715 70.1676C13.0113 70.5833 13.1179 71.006 13.3681 71.3434C13.6184 71.6808 13.9919 71.9055 14.4072 71.9685Z" fill="#17262F"></path><path d="M24.9274 71.9685H25.1675C25.5473 71.967 25.9139 71.8289 26.2004 71.5796C26.487 71.3303 26.6743 70.9863 26.7283 70.6103L27.7638 63.7219C27.8255 63.3059 27.7195 62.8825 27.469 62.5448C27.2185 62.2071 26.8441 61.9827 26.4282 61.921C26.0122 61.8593 25.5888 61.9653 25.2511 62.2158C24.9133 62.4663 24.689 62.8407 24.6273 63.2566L23.6067 70.1676C23.5462 70.5811 23.6508 71.0018 23.8979 71.3387C24.1451 71.6757 24.5149 71.9019 24.9274 71.9685Z" fill="#17262F"></path></g><defs><clipPath id="clip0_5678_33195"><rect width="76.0505" height="90" fill="white"></rect></clipPath></defs></svg>