<svg xmlns="http://www.w3.org/2000/svg" width="85" height="85" viewBox="0 0 85 85" fill="none"><g clip-path="url(#clip0_5678_33738)"><path d="M38.5147 65.9013C38.2773 65.9018 38.0425 65.8517 37.8259 65.7543C37.4547 65.5928 37.152 65.3058 36.9709 64.9437C36.7898 64.5815 36.7419 64.1672 36.8354 63.7732L40.9136 46.4312L34.6531 45.8431C34.3968 45.8184 34.1495 45.736 33.9297 45.602C33.7098 45.4679 33.5233 45.2858 33.384 45.0692C33.2392 44.8579 33.1432 44.6171 33.1031 44.3641C33.0629 44.1111 33.0796 43.8524 33.1519 43.6066L37.9188 27.2474C38.0253 26.8884 38.2447 26.5734 38.5444 26.3489C38.8441 26.1245 39.2082 26.0027 39.5826 26.0015H48.7527C49.0257 26.0003 49.2951 26.064 49.5388 26.1872C49.7824 26.3104 49.9933 26.4896 50.1542 26.7102C50.3151 26.9307 50.4214 27.1863 50.4643 27.4559C50.5072 27.7256 50.4855 28.0015 50.401 28.2611L47.8319 36.3711L55.2376 37.5087C55.5256 37.5528 55.7978 37.6689 56.0291 37.846C56.2604 38.0232 56.4433 38.2559 56.5609 38.5224C56.6783 38.7867 56.7271 39.0763 56.7027 39.3644C56.6784 39.6526 56.5817 39.9299 56.4216 40.1707L39.9618 65.1197C39.8026 65.3582 39.5876 65.5541 39.3353 65.6904C39.0831 65.8266 38.8013 65.899 38.5147 65.9013ZM37.0598 42.6238L43.2506 43.2042C43.4995 43.2232 43.7412 43.2959 43.9592 43.4173C44.1772 43.5387 44.3663 43.706 44.5134 43.9075C44.6606 44.1091 44.7622 44.3401 44.8114 44.5848C44.8606 44.8294 44.8561 45.0818 44.7983 45.3246L42.4768 55.0983L52.0494 40.5422L45.3014 39.513C45.0542 39.4734 44.8185 39.3811 44.6102 39.2422C44.402 39.1033 44.2262 38.9212 44.0947 38.7082C43.9632 38.4952 43.8792 38.2563 43.8484 38.0079C43.8176 37.7596 43.8407 37.5074 43.9162 37.2688L46.4312 29.4606H40.8904L37.0598 42.6238Z" fill="#17262F"></path><path d="M57.6598 35.9839C57.3178 35.9828 56.9839 35.8804 56.6999 35.6899C56.416 35.4993 56.1947 35.2291 56.064 34.9131C55.9333 34.5971 55.899 34.2495 55.9654 33.914C56.0318 33.5786 56.1959 33.2702 56.4371 33.0278L64.2298 25.2351C64.4721 24.9927 64.781 24.8279 65.1173 24.7618C65.4536 24.6956 65.802 24.7311 66.118 24.8637C68.1564 25.7171 70.4032 25.9425 72.5705 25.5109C74.7378 25.0794 76.7269 24.0106 78.283 22.4415C79.5506 21.1677 80.4934 19.6079 81.0321 17.8935C81.5708 16.1791 81.6896 14.3603 81.3784 12.5904L76.4567 17.5121C76.1318 17.8353 75.6922 18.0168 75.234 18.0168C74.7757 18.0168 74.3361 17.8353 74.0113 17.5121L67.48 10.9808C67.1567 10.6559 66.9753 10.2163 66.9753 9.75807C66.9753 9.29982 67.1567 8.86022 67.48 8.53538L72.4017 3.61368C70.6306 3.3025 68.8107 3.42124 67.095 3.9599C65.3794 4.49857 63.8182 5.4414 62.5428 6.70909C60.9785 8.26833 59.9147 10.2586 59.4874 12.4256C59.06 14.5925 59.2886 16.8377 60.1439 18.8741C60.276 19.1914 60.3113 19.5409 60.2452 19.8783C60.1791 20.2157 60.0146 20.526 59.7724 20.77L54.4328 26.1096C54.1085 26.4339 53.6687 26.616 53.2101 26.616C52.7515 26.616 52.3117 26.4339 51.9874 26.1096C51.6632 25.7853 51.481 25.3455 51.481 24.8869C51.481 24.4283 51.6632 23.9885 51.9874 23.6642L56.5377 19.1062C55.6971 16.5454 55.5849 13.8013 56.2135 11.1803C56.8421 8.55939 58.1868 6.16473 60.0974 4.26372C62.1917 2.18981 64.8608 0.793165 67.7586 0.255001C70.6565 -0.283163 73.6491 0.0619948 76.3483 1.24569C76.605 1.35931 76.83 1.5338 77.0039 1.75404C77.1779 1.97428 77.2955 2.23362 77.3466 2.50959C77.3977 2.78555 77.3807 3.06981 77.2971 3.33772C77.2135 3.60562 77.0658 3.8491 76.8668 4.04704L71.1403 9.77355L75.2262 13.8518L80.9528 8.13298C81.151 7.93129 81.3961 7.78189 81.6662 7.69816C81.9363 7.61443 82.2229 7.59898 82.5005 7.65319C82.7769 7.70474 83.0367 7.82247 83.2577 7.99632C83.4788 8.17017 83.6544 8.39495 83.7696 8.65146C84.9523 11.3514 85.2962 14.3445 84.7567 17.2424C84.2171 20.1402 82.819 22.809 80.7438 24.9024C78.8465 26.8162 76.4532 28.1631 73.8327 28.7919C71.2122 29.4207 68.4682 29.3065 65.9091 28.4621L58.8979 35.4732C58.736 35.6366 58.5431 35.7659 58.3304 35.8536C58.1178 35.9413 57.8898 35.9856 57.6598 35.9839Z" fill="#17262F"></path><path d="M14.5407 85C12.5123 85.0002 10.5062 84.5758 8.65168 83.7541C8.39497 83.6394 8.16999 83.4641 7.99614 83.2432C7.82228 83.0222 7.70478 82.7623 7.65375 82.4859C7.60272 82.2094 7.6197 81.9247 7.70323 81.6562C7.78675 81.3878 7.93432 81.1437 8.1332 80.945L13.852 75.2262L9.76603 71.148L4.04726 76.8668C3.84796 77.0637 3.60387 77.2095 3.33592 77.2915C3.06797 77.3734 2.78413 77.3892 2.50873 77.3375C2.23334 77.2858 1.97458 77.168 1.75465 76.9944C1.53471 76.8208 1.36015 76.5964 1.24591 76.3405C0.101466 73.7615 -0.271294 70.9062 0.172707 68.1198C0.616708 65.3333 1.85845 62.7353 3.74778 60.6396C5.63711 58.544 8.0931 57.0406 10.8188 56.3113C13.5444 55.582 16.423 55.6579 19.1064 56.5299L29.4064 46.2686C29.742 45.9854 30.1727 45.84 30.6113 45.862C31.0499 45.884 31.4638 46.0717 31.7694 46.3871C32.075 46.7025 32.2495 47.1222 32.2576 47.5613C32.2657 48.0004 32.1068 48.4262 31.8131 48.7527L20.7702 59.7646C20.5279 60.007 20.219 60.1718 19.8827 60.238C19.5464 60.3041 19.1981 60.2687 18.882 60.1361C17.0337 59.3634 15.0112 59.1036 13.0276 59.3842C11.044 59.6647 9.1728 60.4752 7.61125 61.7301C6.0497 62.9851 4.8556 64.638 4.15482 66.5148C3.45403 68.3916 3.27251 70.4226 3.62938 72.3939L8.51239 67.4722C8.83722 67.149 9.27683 66.9675 9.73508 66.9675C10.1933 66.9675 10.6329 67.149 10.9578 67.4722L17.4891 74.0035C17.6512 74.164 17.7799 74.355 17.8678 74.5655C17.9556 74.7761 18.0009 75.0019 18.0009 75.2301C18.0009 75.4582 17.9556 75.6841 17.8678 75.8946C17.7799 76.1051 17.6512 76.2962 17.4891 76.4566L12.5751 81.3706C14.345 81.6805 16.1634 81.5611 17.8776 81.0225C19.5918 80.4838 21.1517 79.5417 22.4263 78.2752C23.9943 76.7167 25.0612 74.7254 25.4899 72.5566C25.9187 70.3878 25.69 68.1404 24.8329 66.1025C24.7076 65.7855 24.6788 65.4384 24.7505 65.1052C24.8221 64.7719 24.9908 64.4673 25.2354 64.2298L34.39 55.0751C34.7143 54.7508 35.1541 54.5686 35.6127 54.5686C36.0713 54.5686 36.5111 54.7508 36.8354 55.0751C37.1597 55.3993 37.3419 55.8392 37.3419 56.2978C37.3419 56.7564 37.1597 57.1962 36.8354 57.5204L28.4623 65.8935C29.1774 68.0881 29.3616 70.421 28.9996 72.7005C28.6376 74.9801 27.7399 77.1412 26.3802 79.0063C25.0205 80.8714 23.2376 82.3872 21.178 83.4292C19.1185 84.4711 16.8411 85.0095 14.533 85H14.5407Z" fill="#17262F"></path></g><defs><clipPath id="clip0_5678_33738"><rect width="85" height="85" fill="white"></rect></clipPath></defs></svg>