<svg xmlns="http://www.w3.org/2000/svg" width="125" height="110" viewBox="0 0 125 110" fill="none"><g clip-path="url(#clip0_5678_17805)"><path d="M34.1325 110L0 90.2793V84.278L34.1325 103.999V110Z" fill="#3C3E40"></path><path d="M34.1324 110L68.2649 90.2793V84.278L34.1324 103.999V110Z" fill="#555A5C"></path><path d="M0 84.2924L34.1325 103.999L68.2649 84.278L34.1325 64.5862L0 84.2924Z" fill="#858B8C"></path><path d="M56.2623 81.6235L54.8197 79.8491C51.7613 75.0452 43.6394 71.5973 34.0748 71.5973C24.5102 71.5973 16.4459 75.0163 13.3876 79.8491L12.0892 81.6235V83.7875C12.0821 83.8787 12.0821 83.9703 12.0892 84.0616C12.0892 90.9429 21.9712 96.5258 34.1469 96.5258C46.3226 96.5258 56.2623 90.8852 56.2623 84.0616C56.2623 83.975 56.2623 83.874 56.2623 83.7875V81.6235Z" fill="#3C3E40"></path><path d="M34.1325 94.6793C46.3146 94.6793 56.1902 89.0988 56.1902 82.215C56.1902 75.3312 46.3146 69.7507 34.1325 69.7507C21.9503 69.7507 12.0748 75.3312 12.0748 82.215C12.0748 89.0988 21.9503 94.6793 34.1325 94.6793Z" fill="#939899"></path><path d="M35.6905 98.4012V99.8438C35.6905 100.334 35.2 100.753 34.4643 100.955H34.2334H33.9738H33.7718H33.2525H33.0505H32.7908H32.56H32.4302L32.2138 100.868L32.0407 100.782H31.9685C31.8956 100.742 31.8278 100.693 31.7666 100.637L31.6656 100.536L31.5934 100.435V100.349C31.5872 100.32 31.5872 100.291 31.5934 100.262C31.5865 100.205 31.5865 100.147 31.5934 100.089V98.6465C31.5934 98.2281 31.9541 97.8674 32.5167 97.6366L32.7187 97.5645H32.8197C33.4451 97.4105 34.0985 97.4105 34.7239 97.5645C35.2 97.4924 35.6905 97.9107 35.6905 98.4012Z" fill="#594D4D"></path><path d="M34.4643 97.2904V100.984C35.2 100.782 35.6905 100.363 35.6905 99.8727V98.4301C35.6905 97.9107 35.2 97.4924 34.4643 97.2904Z" fill="#6B5C5C"></path><path d="M33.1803 97.2183C32.9738 97.2025 32.7665 97.2025 32.56 97.2183H32.459L32.257 97.2904C31.6944 97.5212 31.3338 97.8819 31.3338 98.3002V99.7429C31.3268 99.8003 31.3268 99.8585 31.3338 99.916C31.3275 99.9445 31.3275 99.974 31.3338 100.003V100.089L31.4059 100.19L31.5069 100.291C31.5681 100.347 31.6359 100.396 31.7088 100.435H31.781L31.9541 100.522L32.1705 100.608H32.3003H32.5311H33.1803V97.2183Z" fill="#473D3D"></path><path d="M31.9974 97.55C31.6079 97.7809 31.3338 98.055 31.3338 98.4012V99.8438C31.3268 99.9013 31.3268 99.9594 31.3338 100.017C31.3275 100.045 31.3275 100.075 31.3338 100.103V100.19L31.4059 100.291L31.5069 100.392C31.5681 100.448 31.6359 100.497 31.7088 100.536H31.781L31.9974 97.55Z" fill="#383030"></path><path d="M35.6905 98.4012C35.6905 98.8773 35.2 99.2956 34.4643 99.4976C33.8414 99.6711 33.1829 99.6711 32.56 99.4976C31.8387 99.2956 31.3338 98.8773 31.3338 98.4012C31.3338 97.9252 31.6944 97.6222 32.2571 97.3914L32.459 97.3193H32.56C33.1854 97.1652 33.8389 97.1652 34.4643 97.3193C35.2 97.4924 35.6905 97.9107 35.6905 98.4012Z" fill="#847271"></path><path d="M34.8538 97.6078V98.3291C34.8538 98.6321 34.5508 98.8773 34.1036 99.0071H33.9594H33.0649H32.9207H32.8485H32.7043H32.6033L32.4879 98.9206H32.4157C32.4087 98.8873 32.4087 98.8529 32.4157 98.8196V98.0983C32.4157 97.853 32.6466 97.6222 32.9784 97.478H33.1082C33.3047 97.455 33.5032 97.455 33.6997 97.478C33.8961 97.4541 34.0947 97.4541 34.2912 97.478C34.623 97.0596 34.8538 97.3048 34.8538 97.6078Z" fill="#C2C2C2"></path><path d="M34.1036 96.9298V99.0072C34.5508 98.8773 34.8538 98.6321 34.8538 98.3292V97.6078C34.8538 97.3049 34.623 97.0596 34.1036 96.9298Z" fill="#D4D4D4"></path><path d="M33.3102 96.8865C33.1808 96.8716 33.0501 96.8716 32.9207 96.8865H32.7908C32.459 97.0308 32.2282 97.2616 32.2282 97.5069V98.2282C32.2212 98.2615 32.2212 98.2959 32.2282 98.3292H32.3003L32.4158 98.4157H32.5167H32.661H32.7331H32.8774H33.1226L33.3102 96.8865Z" fill="#B0B0B0"></path><path d="M32.5888 97.0885C32.3436 97.2328 32.1705 97.4059 32.1705 97.6078V98.3292C32.1635 98.3625 32.1635 98.3968 32.1705 98.4301H32.2426L32.358 98.5167L32.5888 97.0885Z" fill="#A1A1A1"></path><path d="M34.8538 97.6078C34.8538 97.9108 34.5508 98.1704 34.1036 98.2859C33.9123 98.3459 33.7126 98.3751 33.5121 98.3724C33.3117 98.3742 33.1122 98.345 32.9207 98.2859C32.4735 98.1704 32.1705 97.9108 32.1705 97.6078C32.1705 97.3049 32.4013 97.1318 32.7331 96.9875H32.863C33.0595 96.9646 33.2579 96.9646 33.4544 96.9875C33.6509 96.9636 33.8495 96.9636 34.0459 96.9875C34.623 97.0596 34.8538 97.3049 34.8538 97.6078Z" fill="#EDEDED"></path><path d="M63.3744 82.3305V83.7731C63.3744 84.2636 62.8839 84.682 62.1626 84.8839H61.9174H60.4748H60.2295H60.0997L59.8833 84.8118H59.8112L59.638 84.7252C59.566 84.6841 59.4983 84.6358 59.4361 84.581L59.3351 84.4656C59.3032 84.4382 59.2785 84.4036 59.263 84.3646V84.2925C59.263 84.2925 59.263 84.2925 59.263 84.2059C59.255 84.1436 59.255 84.0806 59.263 84.0184V82.5757C59.263 82.1574 59.6236 81.7967 60.1862 81.5803L60.3882 81.5082H60.4892C60.7985 81.4187 61.1193 81.375 61.4413 81.3784C61.7681 81.375 62.0936 81.4188 62.4079 81.5082C62.8839 81.4361 63.3744 81.8544 63.3744 82.3305Z" fill="#594D4D"></path><path d="M62.1626 81.234V84.8694C62.8839 84.6675 63.3744 84.2491 63.3744 83.7586V82.316C63.3744 81.8543 62.8839 81.436 62.1626 81.234Z" fill="#6B5C5C"></path><path d="M60.8643 81.1475C60.6549 81.153 60.4468 81.182 60.2439 81.234H60.143L59.941 81.3062C59.3784 81.5225 59.0177 81.8832 59.0177 82.3016V83.7442C59.0097 83.8064 59.0097 83.8695 59.0177 83.9317C59.0177 83.9317 59.0177 83.9317 59.0177 84.0183V84.0904C59.0332 84.1294 59.058 84.1641 59.0898 84.1914L59.1908 84.3068C59.2531 84.3616 59.3208 84.4099 59.3928 84.4511L59.5659 84.5376H59.638L59.8544 84.6098H59.9843H60.2295H60.6046L60.8643 81.1475Z" fill="#473D3D"></path><path d="M59.6958 81.4937C59.3062 81.71 59.0177 81.9986 59.0177 82.3304V83.773C59.0097 83.8353 59.0097 83.8983 59.0177 83.9605C59.0177 83.9605 59.0177 83.9605 59.0177 84.0471V84.1192C59.0332 84.1582 59.058 84.1929 59.0898 84.2202L59.1908 84.3356C59.2531 84.3904 59.3208 84.4387 59.3928 84.4799L59.6958 81.4937Z" fill="#383030"></path><path d="M63.3744 82.3304C63.3744 82.8209 62.8839 83.2392 62.1626 83.4412C61.8469 83.5236 61.5223 83.5672 61.1961 83.571C60.8745 83.5672 60.5547 83.5236 60.2439 83.4412C59.5226 83.2392 59.0177 82.8209 59.0177 82.3304C59.0177 81.8399 59.3784 81.5514 59.941 81.335L60.1429 81.2628H60.2439C60.5533 81.1734 60.874 81.1296 61.1961 81.133C61.5228 81.1297 61.8483 81.1734 62.1626 81.2628C62.8839 81.4359 63.3744 81.8543 63.3744 82.3304Z" fill="#847271"></path><path d="M62.5377 81.5514V82.2294C62.5377 82.5324 62.2348 82.792 61.7875 82.9219H61.6433H60.7633H60.6046H60.4748H60.3738L60.2584 82.8353C60.2584 82.8353 60.2584 82.7632 60.2584 82.7199V82.013C60.2584 81.7533 60.4892 81.5225 60.8354 81.3927H60.9508C61.1426 81.3346 61.3419 81.3055 61.5423 81.3061C61.7428 81.3034 61.9425 81.3326 62.1338 81.3927C62.2348 80.9887 62.5377 81.2484 62.5377 81.5514Z" fill="#C2C2C2"></path><path d="M61.7875 80.8734V82.9508C62.2347 82.821 62.5377 82.5613 62.5377 82.2583V81.5514C62.5377 81.2485 62.2347 80.9888 61.7875 80.8734Z" fill="#D4D4D4"></path><path d="M60.9941 80.7868C60.8647 80.7718 60.734 80.7718 60.6046 80.7868H60.4892C60.143 80.9166 59.9121 81.1474 59.9121 81.4071V82.2294C59.9121 82.2294 59.9121 82.316 59.9121 82.3448L60.042 82.4314H60.143H60.2728H60.4315H60.6623L60.9941 80.7868Z" fill="#B0B0B0"></path><path d="M60.2728 81.0321C60.0275 81.1619 59.8544 81.3351 59.8544 81.5514V82.2295C59.8544 82.2295 59.8544 82.316 59.8544 82.3449L59.9843 82.4315L60.2728 81.0321Z" fill="#A1A1A1"></path><path d="M62.5377 81.5514C62.5377 81.8399 62.2348 82.0996 61.7875 82.2294C61.5911 82.2533 61.3925 82.2533 61.1961 82.2294C60.9948 82.2526 60.7915 82.2526 60.5902 82.2294C60.1574 82.0996 59.84 81.8399 59.84 81.5514C59.84 81.2629 60.0708 81.0609 60.417 80.9311H60.5325C60.7242 80.8731 60.9236 80.8439 61.1239 80.8445C61.3244 80.8418 61.5241 80.871 61.7154 80.9311C62.2347 80.9888 62.5377 81.2485 62.5377 81.5514Z" fill="#EDEDED"></path><path d="M8.75673 82.8786V84.3213C8.75673 84.8118 8.26624 85.2301 7.5305 85.4321H7.29968H5.85706H5.62624H5.4964H5.28001H5.20788H5.03476H4.96263L4.76066 85.2878L4.65968 85.1724C4.62783 85.1451 4.60308 85.1104 4.58755 85.0714C4.58341 85.0427 4.58341 85.0136 4.58755 84.9849C4.58064 84.9225 4.58064 84.8596 4.58755 84.7973V83.3547C4.58755 82.9363 4.9482 82.5757 5.51083 82.3593H5.71279H5.81378C6.12313 82.2698 6.4439 82.2261 6.76591 82.2295C7.08792 82.2261 7.40869 82.2698 7.71804 82.3593C8.26624 81.9698 8.75673 82.3881 8.75673 82.8786Z" fill="#594D4D"></path><path d="M7.53049 81.7822V85.4032C8.26622 85.2012 8.75672 84.7829 8.75672 84.2924V82.8498C8.75672 82.3881 8.26622 81.9698 7.53049 81.7822Z" fill="#6B5C5C"></path><path d="M8.75672 82.8786C8.75672 83.3691 8.26622 83.7875 7.53049 83.9894C6.90507 84.1434 6.25163 84.1434 5.62622 83.9894C4.90491 83.7875 4.39999 83.3691 4.39999 82.8786C4.39999 82.3881 4.76065 82.0996 5.32327 81.8832H5.52524H5.62622C5.93558 81.7937 6.25635 81.75 6.57835 81.7534C6.90036 81.75 7.22113 81.7937 7.53049 81.8832C8.26622 81.9697 8.75672 82.3881 8.75672 82.8786Z" fill="#847271"></path><path d="M7.91999 82.0996V82.8065C7.91999 83.1094 7.61704 83.3691 7.16983 83.4845H7.02556H6.13114H5.98687H5.91474H5.77048H5.6695C5.62472 83.4588 5.58549 83.4245 5.55409 83.3835C5.54703 83.3454 5.54703 83.3063 5.55409 83.2681V82.5612C5.55409 82.3016 5.78491 82.0707 6.11671 81.9409H6.24655C6.44304 81.918 6.64153 81.918 6.83802 81.9409C7.03446 81.917 7.23306 81.917 7.4295 81.9409C7.61704 81.537 7.91999 81.7966 7.91999 82.0996Z" fill="#C2C2C2"></path><path d="M7.2131 81.4071V83.4989C7.66032 83.3835 7.96327 83.1238 7.96327 82.8209V82.114C7.91999 81.7966 7.61704 81.5369 7.2131 81.4071Z" fill="#D4D4D4"></path><path d="M6.37638 81.3639C6.24666 81.3561 6.11659 81.3561 5.98687 81.3639H5.85704C5.52523 81.4938 5.29441 81.7246 5.29441 81.9843V82.6911C5.28736 82.7293 5.28736 82.7684 5.29441 82.8066C5.32581 82.8475 5.36504 82.8819 5.40982 82.9075H5.51081H5.77048H5.91474H5.98687H6.13113H6.37638V81.3639Z" fill="#B0B0B0"></path><path d="M5.6551 81.5803C5.40985 81.7102 5.23674 81.8833 5.23674 82.0997V82.8066C5.22968 82.8447 5.22968 82.8838 5.23674 82.922C5.26813 82.9629 5.30736 82.9973 5.35215 83.0229L5.6551 81.5803Z" fill="#A1A1A1"></path><path d="M7.92 82.0997C7.92 82.3882 7.61705 82.6478 7.16984 82.7777C6.9734 82.8015 6.7748 82.8015 6.57836 82.7777C6.38187 82.8006 6.18338 82.8006 5.98689 82.7777C5.53968 82.6478 5.23672 82.3882 5.23672 82.0997C5.23672 81.8111 5.46754 81.6092 5.79935 81.4793H5.92918C6.12568 81.4564 6.32417 81.4564 6.52066 81.4793C6.7171 81.4555 6.9157 81.4555 7.11213 81.4793C7.61705 81.537 7.92 81.7967 7.92 82.0997Z" fill="#EDEDED"></path><path d="M36.4406 66.8223V68.2649C36.4406 68.741 35.9501 69.1738 35.2288 69.3613H34.9836H34.8826H34.7239H34.522H34.017H33.8006H33.642H33.5554H33.3101L33.1803 69.2459H32.9639H32.8918L32.7187 69.1593C32.6435 69.1233 32.5752 69.0745 32.5167 69.0151L32.4157 68.9141L32.3436 68.8131C32.3477 68.7844 32.3477 68.7553 32.3436 68.7265C32.3436 68.7265 32.3436 68.7266 32.3436 68.64C32.3366 68.5825 32.3366 68.5244 32.3436 68.4669V67.0243C32.3436 66.6059 32.7042 66.2308 33.2669 66.0144H33.4688H33.5698C33.8792 65.925 34.1999 65.8812 34.522 65.8846C34.8487 65.8812 35.1742 65.925 35.4885 66.0144C35.9501 65.9134 36.4406 66.3606 36.4406 66.8223Z" fill="#594D4D"></path><path d="M35.2289 65.7114V69.3324C35.9502 69.1449 36.4407 68.7121 36.4407 68.236V66.7934C36.4407 66.3606 35.9502 65.9134 35.2289 65.7114Z" fill="#6B5C5C"></path><path d="M33.9305 65.6249C33.7218 65.6376 33.5144 65.6665 33.3102 65.7114H33.2092H33.0072C32.4446 65.9278 32.0839 66.3029 32.0839 66.7213V68.1639C32.077 68.2214 32.077 68.2795 32.0839 68.337C32.0839 68.337 32.0839 68.337 32.0839 68.4236V68.5101L32.1561 68.6111L32.2571 68.7121C32.3155 68.7715 32.3839 68.8203 32.459 68.8564L32.6321 68.9429H32.7043L33.1803 69.2459H33.3102H33.5554H33.642H33.9305V65.6249Z" fill="#473D3D"></path><path d="M32.762 65.9711C32.3725 66.2019 32.0839 66.476 32.0839 66.8222V68.2648C32.077 68.3223 32.077 68.3805 32.0839 68.438C32.0839 68.438 32.0839 68.438 32.0839 68.5245V68.6111L32.1561 68.7121L32.2571 68.813C32.3155 68.8724 32.3839 68.9212 32.459 68.9573L32.762 65.9711Z" fill="#383030"></path><path d="M36.4406 66.8222C36.4406 67.2983 35.9502 67.7167 35.2288 67.9186C34.9146 68.0081 34.589 68.0518 34.2623 68.0485C33.9403 68.0518 33.6195 68.0081 33.3102 67.9186C32.5888 67.7167 32.0839 67.2983 32.0839 66.8222C32.0839 66.3462 32.4446 66.0288 33.0072 65.8124H33.2092H33.3102C33.6195 65.7229 33.9403 65.6792 34.2623 65.6826C34.589 65.6792 34.9146 65.723 35.2288 65.8124C35.9502 65.9134 36.4406 66.3606 36.4406 66.8222Z" fill="#847271"></path><path d="M35.6039 66.0287V66.7501C35.6039 67.0386 35.301 67.2983 34.8538 67.4281H34.7095H33.8295H33.6708H33.5987H33.4689H33.3679L33.1803 67.1684C33.1803 67.1684 33.1803 67.0963 33.1803 67.0674V66.3461C33.1803 66.0865 33.4111 65.8701 33.7574 65.7258H33.8728C34.0693 65.7038 34.2677 65.7038 34.4643 65.7258C34.6607 65.7019 34.8593 65.7019 35.0557 65.7258C35.301 65.4805 35.6039 65.7258 35.6039 66.0287Z" fill="#C2C2C2"></path><path d="M34.8538 65.3507V67.4281C35.301 67.2983 35.6039 67.0386 35.6039 66.7501V66.0287C35.6039 65.7258 35.301 65.4805 34.8538 65.3507Z" fill="#D4D4D4"></path><path d="M34.0603 65.2931H33.6708H33.5554C33.2092 65.4374 32.9784 65.6537 32.9784 65.9134V66.6347C32.9784 66.6347 32.9784 66.6347 32.9784 66.7357L33.1082 66.8223H33.2092H33.339H33.4111H33.5698H33.8007L34.0603 65.2931Z" fill="#B0B0B0"></path><path d="M33.339 65.5094C33.0938 65.6537 32.9207 65.8268 32.9207 66.0287V66.7501C32.9207 66.7501 32.9207 66.7501 32.9207 66.851L33.0505 66.9376L33.339 65.5094Z" fill="#A1A1A1"></path><path d="M35.6039 66.0288C35.6039 66.3318 35.301 66.5915 34.8538 66.7069C34.6625 66.7669 34.4628 66.7961 34.2623 66.7934C34.0619 66.7941 33.8626 66.7649 33.6708 66.7069C33.238 66.5915 32.9207 66.3318 32.9207 66.0288C32.9207 65.7259 33.1515 65.5528 33.4977 65.4085H33.6131C33.8097 65.3865 34.008 65.3865 34.2046 65.4085C34.401 65.3847 34.5996 65.3847 34.7961 65.4085C35.301 65.4807 35.6039 65.7259 35.6039 66.0288Z" fill="#EDEDED"></path><path d="M34.1325 71.7272C43.8413 71.7272 51.7325 75.6511 51.7325 80.4839C51.7325 80.6859 51.7325 80.8734 51.7325 81.0609V83.2682H16.5469V80.4839C16.5325 75.6511 24.4092 71.7272 34.1325 71.7272Z" fill="#616161"></path><path d="M51.7469 83.2537C51.7469 87.1488 46.64 90.4668 39.6 91.592C37.7974 91.8869 35.9734 92.0316 34.1469 92.0248C32.311 92.025 30.478 91.8803 28.6649 91.592C21.6249 90.4379 16.5469 87.1488 16.5469 83.2537C16.5469 78.4209 24.4236 74.4969 34.1469 74.4969C43.8702 74.4969 51.7469 78.4209 51.7469 83.2537Z" fill="#2E2E2E"></path><path d="M39.6144 91.1016C39.6144 91.1016 39.6144 91.2314 39.6144 91.3035C39.6215 91.3996 39.6215 91.496 39.6144 91.5921C37.8118 91.8869 35.9879 92.0316 34.1613 92.0248C32.3255 92.025 30.4924 91.8803 28.6794 91.5921C28.6723 91.496 28.6723 91.3996 28.6794 91.3035V85.8071H39.6866L39.6144 91.1016Z" fill="#9E4810"></path><path d="M28.6361 85.8072C28.6361 84.0905 31.103 82.7056 34.1325 82.7056C37.162 82.7056 39.6433 84.1482 39.6433 85.8072C39.6433 87.4662 37.1764 88.9088 34.1325 88.9088C31.0885 88.9088 28.6361 87.5239 28.6361 85.8072Z" fill="#6B2500"></path><path d="M34.1325 89.9475C44.2308 89.9475 52.4394 85.3022 52.4394 79.5894C52.4536 79.3685 52.4536 79.1468 52.4394 78.9258V76.3147H15.8689V79.5894C15.8689 85.3022 24.0053 89.9475 34.1325 89.9475Z" fill="#FF951A"></path><path d="M15.8689 76.3147C15.8689 70.5442 24.0774 65.9711 34.1902 65.9711C44.303 65.9711 52.5115 70.6019 52.5115 76.3147C52.5115 82.0275 44.303 86.6583 34.1902 86.6583C24.0774 86.6583 15.8689 82.0275 15.8689 76.3147Z" fill="#CC6500"></path><path d="M29.0111 83.3258L20.9036 78.6517L22.0577 72.0878L29.0111 76.1127V83.3258Z" fill="#AC5200"></path><path d="M29.0111 83.3259L45.4426 73.8623V66.6492L29.0111 76.1128V83.3259Z" fill="#EB9500"></path><path d="M22.0577 72.0878L29.0112 76.1127L45.4426 66.6491L38.4892 62.6241L22.0577 72.0878Z" fill="#C05F0B"></path><path d="M47.4334 59.6668C45.5003 56.3199 42.4131 54.4878 40.5233 55.5842L40.3069 55.7284L37.4216 57.3442L44.4184 69.4622L47.4479 67.7022C49.4098 66.6058 49.3665 63.0137 47.4334 59.6668Z" fill="#6E6E6E"></path><path d="M44.4905 69.4622C42.6007 70.5586 39.499 68.7265 37.5659 65.3796C35.6328 62.0327 35.6039 58.4406 37.4938 57.3442C39.3836 56.2478 42.4708 58.0799 44.4039 61.4268C46.337 64.7737 46.3803 68.3803 44.4905 69.4622Z" fill="#3D3D3D"></path><path d="M31.4924 71.0202L26.5443 65.2497L37.6669 58.8733C38.4609 58.5923 39.3255 58.5814 40.1264 58.8423C40.9272 59.1031 41.6195 59.6212 42.0957 60.316C44.1154 63.331 42.5141 64.6438 42.5141 64.6438L31.4924 71.0202Z" fill="#566B6F"></path><path d="M91.8085 47.0007V42.2977C91.8049 41.3018 91.5356 40.3248 91.0284 39.4677C90.5212 38.6105 89.7945 37.9042 88.9233 37.4216L85.1147 35.2144C84.6091 34.9278 84.0286 34.8007 83.4494 34.8496C82.8702 34.8985 82.3193 35.1212 81.8688 35.4885L80.5561 36.3108L80.9311 36.8734C80.8261 37.1599 80.7724 37.4627 80.7725 37.7679V40.0761C80.7742 41.2489 81.086 42.4004 81.6763 43.4138C82.2666 44.4272 83.1144 45.2665 84.1338 45.8466L88.4616 48.2846L89.3561 49.6407L90.8852 48.6452L91.0584 48.5443L91.1882 48.4577C91.3916 48.2748 91.5525 48.0496 91.6597 47.7979C91.7669 47.5462 91.8176 47.2741 91.8085 47.0007Z" fill="#FF951A"></path><path d="M91.8085 47.0006V42.2976C91.7962 41.4928 91.6092 40.7003 91.2603 39.975L84.9993 43.9855L85.4033 46.5822L89.457 49.4674C89.457 49.4674 91.8085 48.6596 91.8085 47.0006Z" fill="#D07216"></path><path d="M79.2144 38.7199V41.0281C79.2161 42.2009 79.5279 43.3524 80.1183 44.3658C80.7086 45.3793 81.5564 46.2186 82.5757 46.7986L87.4951 49.5973C87.7802 49.7586 88.1026 49.8423 88.4302 49.8403C88.7578 49.8382 89.0792 49.7503 89.3623 49.5854C89.6454 49.4205 89.8803 49.1844 90.0437 48.9005C90.2072 48.6165 90.2934 48.2947 90.2938 47.9671V43.2786C90.2882 42.2811 90.0182 41.303 89.5114 40.4438C89.0045 39.5847 88.2789 38.8754 87.4085 38.3881L83.5279 36.1953C83.0877 35.9446 82.5893 35.8141 82.0828 35.8171C81.5762 35.82 81.0794 35.9563 80.6422 36.2122C80.205 36.468 79.8429 36.8345 79.5923 37.2747C79.3416 37.7149 79.2113 38.2134 79.2144 38.7199Z" fill="#C05F0B"></path><path d="M75.6656 27.4098C74.223 24.8996 71.9003 23.5291 70.4866 24.3514L70.3279 24.4524L68.2216 25.6642L73.4728 34.7527L75.7377 33.4399C77.1515 32.5599 77.1226 29.8622 75.6656 27.4098Z" fill="#6E6E6E"></path><path d="M73.4584 34.6951C72.0158 35.5174 69.722 34.1469 68.2649 31.6367C66.8079 29.1265 66.8223 26.4288 68.2649 25.6065C69.7076 24.7842 72.0158 26.1692 73.4584 28.6793C74.901 31.1895 74.8721 33.8872 73.4584 34.6951Z" fill="#3D3D3D"></path><path d="M58.8735 4.39995C56.9403 1.05307 53.8531 -0.779062 51.9344 0.317332C51.8479 0.317332 51.7902 0.418315 51.718 0.461594L48.9338 2.07733L55.9305 14.1954L58.96 12.4354C60.8498 11.339 60.8066 7.74684 58.8735 4.39995Z" fill="#6E6E6E"></path><path d="M55.9305 14.1954C54.0406 15.2918 50.939 13.4597 49.0492 10.0983C47.1593 6.73704 47.0872 3.15933 49.0492 2.06294C51.0111 0.966544 54.0262 2.79868 55.9593 6.14556C57.8924 9.49245 57.8203 13.1134 55.9305 14.1954Z" fill="#3D3D3D"></path><path d="M37.2774 22.5626L50.838 14.7869L42.918 61.9606L29.5738 69.621L37.2774 22.5626Z" fill="#BD5607"></path><path d="M37.2774 22.5626L32.3292 16.7344L22.6924 65.6393L29.5738 69.6209L37.2774 22.5626Z" fill="#A34200"></path><path d="M42.9324 15.7533L37.9843 9.98286L49.0492 3.54876C49.8432 3.26774 50.7078 3.25682 51.5087 3.51769C52.3095 3.77856 53.0018 4.29662 53.478 4.99138C55.4977 8.00646 53.8964 9.31925 53.8964 9.31925L42.9324 15.7533Z" fill="#566B6F"></path><path d="M56.0603 34.0459L42.9325 15.7678L56.4931 7.97766L69.621 26.2701L56.0603 34.0459Z" fill="#FF951A"></path><path d="M69.621 26.2701L67.3416 29.3718L54.0118 38.518L56.0603 34.0459L69.621 26.2701Z" fill="#A34200"></path><path d="M42.9325 15.7678L38.3305 21.1632L52.9731 38.6622L56.0603 34.0459L42.9325 15.7678Z" fill="#A34200"></path><path d="M73.7469 46.3081L60.4459 38.7632L73.1987 31.4347L86.5141 38.9796L73.7469 46.3081Z" fill="#FAB03E"></path><path d="M73.7469 54.0262V46.3081L86.5141 38.9796V46.7121L73.7469 54.0262Z" fill="#D97400"></path><path d="M60.4459 38.7632L56.118 43.8412L73.7469 54.0261V46.3081L60.4459 38.7632Z" fill="#A34200"></path><path d="M58.6571 41.2157L54.3292 36.1088L68.4813 27.9291C69.1835 27.686 69.9469 27.6846 70.65 27.925C71.3531 28.1655 71.9557 28.6341 72.362 29.2563C74.122 31.8963 72.7371 33.0793 72.7371 33.0793L58.6571 41.2157Z" fill="#566B6F"></path><path d="M42.4131 13.9357C40.48 10.5888 37.3784 8.7567 35.4885 9.8531L35.2721 9.99736L32.459 11.6131L39.4557 23.7311L42.4852 21.9711C44.3751 20.8747 44.3462 17.3115 42.4131 13.9357Z" fill="#6E6E6E"></path><path d="M39.4557 23.7311C37.5659 24.8275 34.4643 22.9954 32.5311 19.6485C30.598 16.3016 30.5692 12.7095 32.459 11.6131C34.3488 10.5167 37.4505 12.3488 39.3836 15.6957C41.3167 19.0426 41.3456 22.6492 39.4557 23.7311Z" fill="#3D3D3D"></path><path d="M59.9121 36.4839C58.4695 33.9737 56.1325 32.6032 54.7187 33.4255L54.56 33.5409L52.4538 34.7671L57.7049 43.8412L59.9843 42.514C61.3836 41.6917 61.3547 38.9507 59.9121 36.4839Z" fill="#6E6E6E"></path><path d="M57.7049 43.8413C56.2623 44.7213 53.9541 43.2787 52.5115 40.7829C51.0688 38.2872 51.0688 35.5751 52.5115 34.7528C53.9541 33.9305 56.2623 35.301 57.7049 37.8111C59.1475 40.3213 59.1475 43.019 57.7049 43.8413Z" fill="#3D3D3D"></path><path d="M76.459 48.2268C78.1325 44.0432 81.4072 41.4176 83.7731 42.3553L84.0328 42.4996L92.1115 45.7166L86.0525 60.8497L77.7574 57.5029C75.3915 56.5652 74.8288 52.4104 76.459 48.2268Z" fill="#BD5607"></path><path d="M76.7043 47.8085L89.2984 52.8577L92.1836 45.6445L84.1049 42.4275L83.8452 42.2832C81.537 41.4465 78.421 43.8701 76.7043 47.8085Z" fill="#EB9216"></path><path d="M84.4512 51.5882C86.4131 46.6833 90.2217 43.5961 93.0203 44.7069L93.3377 44.8656L96.3384 46.1351L89.2407 63.8938L85.9082 62.4511C83.1384 61.3692 82.4892 56.4931 84.4512 51.5882Z" fill="#4C4C4C"></path><path d="M84.682 51.0977L92.9771 54.5311L96.3384 46.1639L93.3377 44.8944L93.0203 44.7213C90.3515 43.6393 86.7016 46.4813 84.682 51.0977Z" fill="#878787"></path><path d="M89.2407 63.8937C92.0105 65.0045 95.8479 61.9317 97.8098 57.0124C99.7718 52.093 99.1226 47.2314 96.3672 46.1206C93.6118 45.0098 89.76 48.097 87.798 53.0019C85.8361 57.9068 86.4564 62.7973 89.2407 63.8937Z" fill="#6E6E6E"></path><path d="M81.0898 55.1081V50.4052C81.0843 49.4077 80.8143 48.4295 80.3075 47.5704C79.8006 46.7113 79.075 46.002 78.2046 45.5147L74.3672 43.2786C73.8615 42.9921 73.2811 42.8649 72.7019 42.9138C72.1227 42.9627 71.5718 43.1854 71.1213 43.5527L69.7941 44.375L70.1692 44.9377C70.0653 45.2295 70.0117 45.5368 70.0105 45.8465V48.1547C70.0122 49.3275 70.324 50.479 70.9143 51.4924C71.5047 52.5059 72.3525 53.3451 73.3718 53.9252L77.6997 56.3488L78.5941 57.7914L80.1377 56.8104C80.2051 56.7806 80.2682 56.7417 80.3252 56.695H80.4407C80.6731 56.506 80.8543 56.2617 80.9677 55.9844C81.0812 55.7072 81.1232 55.4059 81.0898 55.1081Z" fill="#FF951A"></path><path d="M81.0898 55.1081V50.4051C81.0775 49.6004 80.8905 48.8079 80.5416 48.0825L74.2806 52.093L74.6846 54.6753L78.7239 57.7048C78.7239 57.7048 81.0898 56.7671 81.0898 55.1081Z" fill="#D07216"></path><path d="M68.4813 46.8274V49.1212C68.483 50.294 68.7948 51.4455 69.3852 52.4589C69.9755 53.4724 70.8233 54.3116 71.8426 54.8917L76.762 57.7048C77.0471 57.8661 77.3696 57.9499 77.6972 57.9478C78.0248 57.9457 78.3461 57.8579 78.6292 57.693C78.9123 57.5281 79.1472 57.2919 79.3106 57.008C79.4741 56.724 79.5603 56.4022 79.5607 56.0746V51.3717C79.5581 50.3736 79.2894 49.3942 78.7822 48.5346C78.275 47.675 77.5478 46.9661 76.6754 46.4812L72.838 44.2884C72.3958 44.0261 71.8914 43.8867 71.3772 43.8847C70.8629 43.8827 70.3575 44.0182 69.9132 44.2771C69.4689 44.536 69.1019 44.909 68.8502 45.3574C68.5984 45.8058 68.4711 46.3133 68.4813 46.8274Z" fill="#C05F0B"></path><path d="M76.2859 55.9016L77.4977 55.2092C78.5076 54.6321 78.7817 53.0885 78.3344 51.3429L78.1613 50.7659L78.0748 50.4918C78.0829 50.4392 78.0829 50.3857 78.0748 50.3331L77.9017 50.1888C77.9017 50.0302 77.7718 49.8859 77.6997 49.7272C77.6276 49.5685 77.6276 49.5974 77.5987 49.5252L77.4112 49.1934C77.4112 49.078 77.2669 48.9626 77.2092 48.8472L77.0794 48.6741C76.9915 48.5337 76.8951 48.3988 76.7908 48.2702L76.6754 48.097L76.56 47.9672L76.459 47.7797C76.3292 47.621 76.1849 47.4767 76.0551 47.3469L75.8243 47.1305L75.3915 46.7698L75.2328 46.6544L74.8577 46.4092L74.6846 46.3082L74.1364 46.0629H73.9921L73.5738 45.9331H73.2564H73.0256H72.8092H72.6938C72.5532 45.9758 72.4177 46.0339 72.2899 46.1062L71.0925 46.7987C70.6304 47.1591 70.289 47.6517 70.1138 48.2109C69.9385 48.7702 69.9377 49.3695 70.1115 49.9292C70.1115 50.0879 70.1115 50.261 70.198 50.4341C70.2846 50.6072 70.198 50.5928 70.198 50.6649C70.3989 51.4181 70.6997 52.1411 71.0925 52.8144C71.4862 53.4933 71.9717 54.1147 72.5351 54.661C73.8046 55.9593 75.2761 56.4931 76.2859 55.9016Z" fill="#006496"></path><path d="M72.5207 54.6898L78.3633 51.3141C78.3547 51.3472 78.3547 51.382 78.3633 51.4151C78.8105 53.1606 78.5364 54.7043 77.5266 55.2813L76.3148 55.9738C75.2761 56.4931 73.8046 55.9593 72.5207 54.6898Z" fill="#005A87"></path><path d="M70.7895 52.093C70.5519 51.6315 70.3587 51.1484 70.2124 50.6504C70.2124 50.6504 70.2124 50.4917 70.2124 50.4196C70.2124 50.3474 70.2125 50.0733 70.1259 49.9146C69.9521 49.355 69.9529 48.7556 70.1282 48.1964C70.3034 47.6372 70.6448 47.1446 71.1069 46.7842L72.3043 46.0917C72.4321 46.0194 72.5676 45.9613 72.7082 45.9186H72.838H73.0688H73.2997H73.617L73.9488 46.0051H74.0931C74.2825 46.077 74.4658 46.1638 74.6413 46.2648C74.7018 46.2878 74.7598 46.3168 74.8144 46.3514L75.1895 46.5966L75.3482 46.712L75.781 47.0727L76.0118 47.2891C76.1416 47.4189 76.2859 47.5632 76.4157 47.7219L76.5744 47.9094L76.6898 48.0392L76.8052 48.2123C76.8756 48.2877 76.9385 48.3699 76.9928 48.4576L70.7895 52.093Z" fill="#017CBA"></path><path d="M70.0971 49.2367C70.0325 48.787 70.0863 48.3282 70.2533 47.9057C70.4203 47.4832 70.6946 47.1115 71.0492 46.8275L72.2466 46.135C72.3745 46.0627 72.5099 46.0046 72.6505 45.9619H72.7803H73.0112H73.242H73.5594L73.8912 46.0485H74.0354C74.2248 46.1203 74.4081 46.2071 74.5836 46.3081C74.6441 46.3311 74.7021 46.3601 74.7567 46.3947H74.8289L70.0971 49.2367Z" fill="#006EA8"></path><path d="M76.2859 55.9016C77.2957 55.3245 77.5843 53.7809 77.1226 52.0353C76.9281 51.28 76.627 50.5562 76.2282 49.8858C75.8393 49.2037 75.3533 48.5817 74.7856 48.0393C73.5016 46.7697 72.0302 46.236 71.0203 46.8275C70.5582 47.1879 70.2169 47.6805 70.0416 48.2397C69.8664 48.7989 69.8656 49.3983 70.0393 49.9579C70.0393 50.1166 70.0393 50.2897 70.1259 50.4629C70.2125 50.636 70.1259 50.6215 70.1259 50.6937C70.3267 51.4469 70.6275 52.1698 71.0203 52.8432C71.4141 53.5221 71.8995 54.1434 72.463 54.6897C73.8046 55.9593 75.2761 56.493 76.2859 55.9016Z" fill="#005887"></path><path d="M97.0885 64.0668L103.378 73.0255L107.331 75.0884L106.769 76.43L105.802 76.935L103.999 75.954L101.965 74.194L94.6938 65.3507L97.0885 64.0668Z" fill="#52504F"></path><path d="M124.801 64.7737L124.34 65.3941L123.388 66.1154L119.204 61.3836L115.972 60.1573L110.115 57.2144L111.27 55.5842L119.247 59.2341L121.945 61.5423L124.801 64.7737Z" fill="#C7C9CA"></path><path d="M123.864 65.5095L123.388 66.1154L121.642 65.0911L119.896 63.2157L116.968 61.3691L109.192 57.6616L110.519 56.9547L118.05 60.3737L120.906 62.4944L123.864 65.5095Z" fill="#52504F"></path><path d="M107.1 60.2295L116.203 66.4039L120.416 70.1547L122.724 73.516L122.45 73.819L121.166 74.8288L112.914 66.5049L106.09 61.4413L107.1 60.2295Z" fill="#C7C9CA"></path><path d="M101.604 51.1265L97.68 48.5586L88.0289 54.0261L92.0105 56.8825L101.604 51.1265Z" fill="#918C88"></path><path d="M91.7797 63.7783L88.0289 60.8786V54.0261L92.0105 56.8825L91.7797 63.7783Z" fill="#6A635D"></path><path d="M101.604 56.9402L91.7797 63.7783L92.0105 56.8825L101.604 51.1265V56.9402Z" fill="#1F292B"></path><path d="M97.6512 62.7252L103.725 72.2033L105.023 72.6793L107.331 75.0885L106.35 75.5934L104.547 74.6124L102.513 72.8524L95.242 64.0092L97.6512 62.7252Z" fill="#B5B8B9"></path><path d="M106.09 61.4413L114.919 67.4137L119.132 71.179L121.44 74.5259L121.166 74.8288L118.136 72.3475L114.775 68.7987L109.827 65.5239L104.908 61.7731L106.09 61.4413Z" fill="#52504F"></path><path d="M103.09 61.4413L112.207 67.6157L116.405 71.3665L118.713 74.7134L118.439 75.0164L117.155 76.0406L108.904 67.7167L102.08 62.6531L103.09 61.4413Z" fill="#C7C9CA"></path><path d="M102.08 62.6531L110.909 68.6255L115.121 72.3764L117.43 75.7232L117.155 76.0406L114.126 73.5449L110.765 69.996L105.816 66.7213L100.897 62.9705L102.08 62.6531Z" fill="#52504F"></path><path d="M107.75 57.3153L117.242 62.5665L121.685 65.8845L124.239 69.015L123.993 69.3468L122.796 70.5009L113.996 63.0137L106.855 58.6425L107.75 57.3153Z" fill="#C7C9CA"></path><path d="M106.855 58.6426L116.045 63.7062L120.502 67.0386L123.056 70.1691L122.796 70.5009L119.622 68.3226L116.016 65.1055L110.866 62.3501L105.715 59.0898L106.855 58.6426Z" fill="#52504F"></path><path d="M104.691 63.9803L102.325 64.4708L99.541 62.7252L98.3436 62.8695L98.6898 67.356L96.5547 68.1639L95.819 67.6445L93.3233 59.5514L94.2033 58.5849L93.9724 57.099L103.436 51.819L113.073 55.6131L113.145 56.4498L108.557 61.2393L104.691 63.9803Z" fill="#B7BABB"></path><path d="M101.806 64.1246L98.8197 62.2059L97.6223 62.3501L97.9541 66.8223L95.819 67.6446L92.5298 61.9462L92.5876 59.0321L93.4676 58.0655L93.2367 56.5796L103.292 50.7659L111.688 54.4878L113.073 55.6131L107.822 60.72L104.273 63.461L101.806 64.1246Z" fill="#918C88"></path><path d="M97.9541 66.8222L97.6223 62.3501L98.8197 62.2058L101.806 64.1245L104.273 63.4609L93.2367 56.5796L93.4676 58.0655L92.5876 59.032L92.5298 61.9461L95.819 67.6445L97.9541 66.8222Z" fill="#6A635D"></path><path d="M30.9731 69.2459C29.04 65.899 25.9384 64.0669 24.0485 65.1633L23.8321 65.3075L21.019 66.9233L28.0157 79.0413L31.0452 77.2813C32.9351 76.1416 32.9062 72.5495 30.9731 69.2459Z" fill="#6E6E6E"></path><path d="M28.0157 78.998C26.1259 80.0944 23.0243 78.2622 21.0911 74.9154C19.158 71.5685 19.1292 67.9763 21.0911 66.88C23.0531 65.7836 26.0826 67.6157 28.0157 70.9626C29.9488 74.3095 29.9056 77.9016 28.0157 78.998Z" fill="#3D3D3D"></path></g><defs><clipPath id="clip0_5678_17805"><rect width="124.801" height="110" fill="white"></rect></clipPath></defs></svg>