<svg xmlns="http://www.w3.org/2000/svg" width="95" height="95" viewBox="0 0 95 95" fill="none"><g clip-path="url(#clip0_5678_33097)"><path d="M47.4956 95C38.1001 95 28.9157 92.2139 21.1036 86.994C13.2916 81.7742 7.20281 74.355 3.60732 65.6747C0.0118245 56.9944 -0.92892 47.4429 0.904046 38.228C2.73701 29.013 7.26136 20.5485 13.905 13.9049C20.5486 7.26133 29.013 2.73698 38.228 0.904015C47.4429 -0.928951 56.9945 0.011794 65.6748 3.60729C74.355 7.20278 81.7742 13.2915 86.9941 21.1036C92.2139 28.9156 95 38.1001 95 47.4956C94.9861 60.0903 89.9768 72.1652 81.071 81.0709C72.1652 89.9767 60.0903 94.9861 47.4956 95ZM47.4956 3.95211C38.8814 3.95211 30.4607 6.50662 23.2984 11.2926C16.1361 16.0786 10.5539 22.881 7.2578 30.8396C3.96169 38.7983 3.09972 47.5556 4.7809 56.0041C6.46208 64.4527 10.6109 72.2129 16.7026 78.3035C22.7944 84.394 30.5555 88.5413 39.0044 90.2207C47.4532 91.9002 56.2104 91.0365 64.1684 87.7388C72.1264 84.4411 78.9277 78.8576 83.7122 71.6943C88.4967 64.531 91.0496 56.1098 91.0478 47.4956C91.0271 35.952 86.4316 24.8873 78.2682 16.7256C70.1048 8.56381 59.0392 3.97056 47.4956 3.95211Z" fill="#17262F"></path><path d="M69.7952 26.6879C69.6796 26.5347 69.5543 26.3889 69.42 26.2517C68.9642 25.8166 68.3991 25.5131 67.7847 25.3733C67.1702 25.2335 66.5294 25.2627 65.9303 25.4578L19.1937 41.3711C18.4902 41.6123 17.8788 42.0657 17.4438 42.6689C17.0089 43.272 16.7717 43.9953 16.765 44.7389C16.7583 45.4826 16.9824 46.21 17.4064 46.8209C17.8305 47.4318 18.4336 47.8962 19.1326 48.15L38.7363 55.2516C39.1264 55.3922 39.4809 55.6166 39.7748 55.909C40.0688 56.2015 40.295 56.5548 40.4376 56.9441L47.5392 76.5566C47.793 77.2556 48.2574 77.8587 48.8683 78.2827C49.4792 78.7068 50.2066 78.9309 50.9503 78.9242C51.6939 78.9175 52.4171 78.6803 53.0203 78.2453C53.6235 77.8104 54.0769 77.199 54.3181 76.4955L70.2401 29.8025C70.4207 29.2857 70.4745 28.733 70.3971 28.191C70.3196 27.649 70.1132 27.1336 69.7952 26.6879ZM21.4271 44.7823L61.9432 30.9454L41.0047 52.0061C40.6982 51.8231 40.3772 51.6655 40.045 51.535L21.4271 44.7823ZM50.8894 74.2446L44.1367 55.6006C44.0305 55.343 43.9081 55.0924 43.7703 54.8503L64.7089 33.7809L50.8894 74.2446Z" fill="#17262F"></path></g><defs><clipPath id="clip0_5678_33097"><rect width="95" height="95" fill="white"></rect></clipPath></defs></svg>