<svg xmlns="http://www.w3.org/2000/svg" width="120" height="110" viewBox="0 0 120 110" fill="none"><g clip-path="url(#clip0_5678_16347)"><path d="M87.2237 70.542C85.9508 70.5412 84.691 70.2845 83.5192 69.7872C82.3475 69.2898 81.2876 68.562 80.4027 67.647C79.5178 66.732 78.8258 65.6484 78.3679 64.4607C77.9101 63.273 77.6956 62.0053 77.7373 60.733L79.8059 20.3519C79.8055 20.3041 79.8153 20.2567 79.8348 20.213C79.8543 20.1694 79.8829 20.1304 79.9188 20.0987C79.9546 20.0671 79.9969 20.0435 80.0426 20.0296C80.0884 20.0158 80.1366 20.0119 80.184 20.0183C80.2317 20.0197 80.2787 20.0306 80.3221 20.0506C80.3655 20.0705 80.4044 20.0989 80.4366 20.1342C80.4687 20.1695 80.4935 20.2109 80.5093 20.2559C80.5252 20.301 80.5318 20.3487 80.5288 20.3964L78.4602 60.7664C78.4183 61.9443 78.614 63.1185 79.0358 64.219C79.4576 65.3195 80.0968 66.3238 80.9152 67.1719C81.7337 68.02 82.7146 68.6945 83.7994 69.1553C84.8842 69.616 86.0507 69.8534 87.2293 69.8534C88.4079 69.8534 89.5744 69.616 90.6592 69.1553C91.7441 68.6945 92.7249 68.02 93.5434 67.1719C94.3618 66.3238 95.001 65.3195 95.4228 64.219C95.8446 63.1185 96.0403 61.9443 95.9984 60.7664L93.8409 18.6503C93.8363 18.6033 93.8414 18.5558 93.856 18.5107C93.8705 18.4657 93.8942 18.4242 93.9255 18.3888C93.9568 18.3533 93.995 18.3246 94.0379 18.3046C94.0807 18.2845 94.1272 18.2735 94.1745 18.2722C94.223 18.2619 94.2733 18.2629 94.3213 18.2751C94.3694 18.2873 94.414 18.3105 94.4516 18.3428C94.4893 18.3751 94.519 18.4156 94.5385 18.4612C94.5579 18.5068 94.5666 18.5563 94.5638 18.6059L96.7546 60.733C96.7995 62.0061 96.5872 63.2751 96.1304 64.4642C95.6737 65.6533 94.9819 66.7382 94.0963 67.6538C93.2108 68.5695 92.1497 69.2972 90.9765 69.7934C89.8033 70.2897 88.5421 70.5442 87.2682 70.542H87.2237Z" fill="#17262F"></path><path d="M37.1671 19.1507C37.1194 19.1508 37.0722 19.1412 37.0283 19.1226C36.9844 19.104 36.9447 19.0768 36.9115 19.0426C36.8783 19.0084 36.8523 18.9678 36.8351 18.9233C36.8179 18.8789 36.8097 18.8314 36.8112 18.7837V17.4158C36.8097 17.3682 36.8179 17.3207 36.8351 17.2762C36.8523 17.2318 36.8783 17.1912 36.9115 17.157C36.9447 17.1227 36.9844 17.0955 37.0283 17.0769C37.0722 17.0584 37.1194 17.0488 37.1671 17.0488C37.2645 17.0488 37.3578 17.0875 37.4266 17.1563C37.4955 17.2251 37.5341 17.3185 37.5341 17.4158V18.7837C37.5341 18.8811 37.4955 18.9744 37.4266 19.0432C37.3578 19.1121 37.2645 19.1507 37.1671 19.1507Z" fill="#17262F"></path><path d="M34.4758 19.1507C34.4281 19.1508 34.3809 19.1412 34.337 19.1226C34.2931 19.104 34.2533 19.0768 34.2201 19.0426C34.1869 19.0084 34.161 18.9678 34.1437 18.9233C34.1265 18.8789 34.1184 18.8314 34.1199 18.7837V17.4158C34.1184 17.3682 34.1265 17.3207 34.1437 17.2762C34.161 17.2318 34.1869 17.1912 34.2201 17.157C34.2533 17.1227 34.2931 17.0955 34.337 17.0769C34.3809 17.0584 34.4281 17.0488 34.4758 17.0488C34.5731 17.0488 34.6665 17.0875 34.7353 17.1563C34.8041 17.2251 34.8428 17.3185 34.8428 17.4158V18.7837C34.8428 18.8811 34.8041 18.9744 34.7353 19.0432C34.6665 19.1121 34.5731 19.1507 34.4758 19.1507Z" fill="#17262F"></path><path d="M30.3609 56.3623H29.8382C29.7409 56.3623 29.6476 56.3237 29.5787 56.2548C29.5099 56.186 29.4712 56.0927 29.4712 55.9953V54.6719L26.9245 52.1251C26.8593 52.056 26.8234 51.9644 26.8244 51.8694V45.1077C26.8233 45.0605 26.8316 45.0136 26.8488 44.9697C26.8659 44.9258 26.8917 44.8857 26.9245 44.8519L30.1051 41.6712C30.1383 41.6369 30.1781 41.6096 30.222 41.591C30.266 41.5723 30.3132 41.5627 30.3609 41.5627C30.4087 41.5627 30.4559 41.5723 30.4999 41.591C30.5438 41.6096 30.5835 41.6369 30.6167 41.6712C30.6507 41.7034 30.6778 41.7422 30.6963 41.7852C30.7148 41.8283 30.7243 41.8746 30.7243 41.9214C30.7243 41.9682 30.7148 42.0146 30.6963 42.0576C30.6778 42.1006 30.6507 42.1394 30.6167 42.1716L27.5473 45.2522V51.7137L30.094 54.2604C30.1592 54.3295 30.1951 54.4212 30.1941 54.5162V55.6283L31.4286 54.3827V52.4588L29.8382 50.8684C29.7699 50.8005 29.7301 50.709 29.727 50.6127V46.6201C29.729 46.5236 29.769 46.4316 29.8382 46.3643L33.1746 42.9613C33.2444 42.8972 33.3357 42.8616 33.4304 42.8616C33.5251 42.8616 33.6164 42.8972 33.6862 42.9613C33.7205 42.9944 33.7478 43.0342 33.7664 43.0781C33.785 43.1221 33.7946 43.1693 33.7946 43.217C33.7946 43.2648 33.785 43.312 33.7664 43.356C33.7478 43.3999 33.7205 43.4396 33.6862 43.4728L30.3498 46.8092V50.5014L31.9513 52.1029C31.9841 52.1368 32.0098 52.1768 32.027 52.2207C32.0442 52.2647 32.0525 52.3115 32.0514 52.3587V54.5829C32.0524 54.6779 32.0165 54.7696 31.9513 54.8387L30.4944 56.2845C30.4569 56.3209 30.4111 56.3476 30.3609 56.3623Z" fill="#17262F"></path><path d="M41.5711 56.3624H41.0484C41.0002 56.3642 40.9522 56.3551 40.9079 56.3359C40.8636 56.3166 40.8242 56.2877 40.7926 56.2512L39.3358 54.8054C39.2674 54.7375 39.2277 54.646 39.2245 54.5496V52.2698C39.2265 52.1732 39.2665 52.0813 39.3358 52.014L40.9372 50.4126V46.7648L37.6008 43.4284C37.5665 43.3952 37.5393 43.3555 37.5206 43.3115C37.502 43.2676 37.4924 43.2204 37.4924 43.1726C37.4924 43.1249 37.502 43.0777 37.5206 43.0337C37.5393 42.9898 37.5665 42.95 37.6008 42.9168C37.6706 42.8528 37.7619 42.8172 37.8566 42.8172C37.9514 42.8172 38.0427 42.8528 38.1124 42.9168L41.4488 46.3199C41.5181 46.3872 41.558 46.4792 41.56 46.5757V50.5682C41.5569 50.6646 41.5171 50.7561 41.4488 50.824L39.8473 52.4144V54.3495L41.2152 55.6062V54.494C41.2142 54.399 41.2501 54.3073 41.3153 54.2382L43.8621 51.6915V45.2523L40.7926 42.1717C40.7374 42.1034 40.7095 42.017 40.7142 41.9293C40.7188 41.8416 40.7558 41.7586 40.8179 41.6965C40.88 41.6344 40.9629 41.5974 41.0506 41.5928C41.1384 41.5881 41.2247 41.6161 41.2931 41.6713L44.4849 44.8519C44.5177 44.8858 44.5434 44.9259 44.5606 44.9698C44.5778 45.0137 44.5861 45.0606 44.585 45.1077V51.8694C44.586 51.9644 44.5501 52.0561 44.4849 52.1252L41.9381 54.672V55.9954C41.9381 56.0436 41.9286 56.0913 41.9102 56.1358C41.8917 56.1804 41.8647 56.2208 41.8306 56.2549C41.7966 56.289 41.7561 56.316 41.7116 56.3345C41.667 56.3529 41.6193 56.3624 41.5711 56.3624Z" fill="#17262F"></path><path d="M41.0596 42.2607H30.3609C30.2742 42.2555 30.1923 42.2186 30.1309 42.1571C30.0694 42.0957 30.0326 42.0138 30.0273 41.9271V37.8122C30.0258 37.7646 30.0339 37.7171 30.0511 37.6726C30.0683 37.6282 30.0943 37.5876 30.1275 37.5534C30.1607 37.5191 30.2005 37.4919 30.2444 37.4733C30.2883 37.4548 30.3355 37.4452 30.3832 37.4452C30.4805 37.4452 30.5739 37.4839 30.6427 37.5527C30.7115 37.6216 30.7502 37.7149 30.7502 37.8122V41.5823H40.7593V37.8122C40.75 37.7595 40.7524 37.7053 40.7662 37.6535C40.7801 37.6018 40.8052 37.5537 40.8396 37.5127C40.8741 37.4716 40.9171 37.4386 40.9656 37.416C41.0142 37.3933 41.0671 37.3816 41.1207 37.3816C41.1743 37.3816 41.2272 37.3933 41.2758 37.416C41.3244 37.4386 41.3674 37.4716 41.4018 37.5127C41.4363 37.5537 41.4613 37.6018 41.4752 37.6535C41.4891 37.7053 41.4915 37.7595 41.4822 37.8122V41.9271C41.4799 41.9781 41.4666 42.0281 41.4434 42.0735C41.4201 42.119 41.3872 42.1589 41.3472 42.1905C41.3071 42.2222 41.2606 42.2449 41.211 42.257C41.1614 42.2691 41.1097 42.2704 41.0596 42.2607Z" fill="#17262F"></path><path d="M41.0595 38.1458H35.7102C35.6159 38.1458 35.5253 38.1083 35.4586 38.0416C35.3919 37.9748 35.3544 37.8843 35.3544 37.7899C35.3529 37.7423 35.361 37.6948 35.3782 37.6503C35.3954 37.6059 35.4214 37.5653 35.4546 37.5311C35.4878 37.4968 35.5275 37.4696 35.5714 37.451C35.6154 37.4325 35.6626 37.4229 35.7102 37.4229H40.1587L38.6129 35.8882H32.7854L30.6167 38.0457C30.5859 38.0893 30.5458 38.1257 30.4995 38.1522C30.4531 38.1788 30.4015 38.1949 30.3482 38.1994C30.295 38.2039 30.2414 38.1968 30.1912 38.1784C30.141 38.1601 30.0954 38.131 30.0576 38.0932C30.0199 38.0554 29.9908 38.0099 29.9724 37.9597C29.9541 37.9095 29.9469 37.8559 29.9515 37.8026C29.956 37.7494 29.9721 37.6978 29.9986 37.6514C30.0252 37.605 30.0615 37.565 30.1051 37.5341L32.3294 35.3099C32.3633 35.2771 32.4033 35.2514 32.4472 35.2342C32.4911 35.217 32.538 35.2087 32.5852 35.2098H38.7575C38.8525 35.2088 38.9442 35.2447 39.0132 35.3099L41.2375 37.5341C41.292 37.5811 41.3293 37.6448 41.3434 37.7154C41.3575 37.7859 41.3476 37.8591 41.3153 37.9234C41.2946 37.9788 41.2603 38.0282 41.2156 38.067C41.171 38.1058 41.1173 38.1329 41.0595 38.1458Z" fill="#17262F"></path><path d="M41.2708 31.2728L30.1496 31.2172C30.0552 31.2172 29.9647 31.1797 29.898 31.113C29.8312 31.0463 29.7937 30.9557 29.7937 30.8614V25.3007C29.7966 24.522 29.9556 23.7517 30.2612 23.0354C30.5668 22.319 31.0129 21.6713 31.5731 21.1303C32.121 20.5831 32.7713 20.1492 33.4869 19.8535C34.2025 19.5577 34.9693 19.4058 35.7436 19.4065C36.5206 19.4094 37.2893 19.5653 38.0061 19.8654C38.7228 20.1654 39.3734 20.6036 39.9207 21.1551C40.468 21.7066 40.9014 22.3604 41.196 23.0794C41.4906 23.7983 41.6408 24.5683 41.6378 25.3452V30.9058C41.635 31.0023 41.5955 31.094 41.5273 31.1622C41.459 31.2305 41.3673 31.27 41.2708 31.2728ZM30.5277 30.5055H40.915V25.3119C40.9274 24.2756 40.6296 23.2594 40.0598 22.3937C39.49 21.5281 38.6743 20.8528 37.7176 20.4545C36.7608 20.0563 35.7068 19.9534 34.6911 20.159C33.6754 20.3647 32.7445 20.8695 32.018 21.6085C31.5304 22.0847 31.1433 22.6539 30.8797 23.2824C30.6161 23.9108 30.4813 24.5858 30.4833 25.2674L30.5277 30.5055Z" fill="#17262F"></path><path d="M35.7436 28.5703C34.8175 28.5703 33.9292 28.2024 33.2743 27.5475C32.6195 26.8926 32.2515 26.0044 32.2515 25.0783C32.2544 24.2168 32.5798 23.3876 33.1635 22.7539C33.2301 22.6881 33.32 22.6511 33.4137 22.6511C33.5074 22.6511 33.5973 22.6881 33.6639 22.7539C33.6982 22.7871 33.7255 22.8269 33.7442 22.8708C33.7628 22.9148 33.7724 22.962 33.7724 23.0097C33.7724 23.0575 33.7628 23.1047 33.7442 23.1486C33.7255 23.1926 33.6982 23.2323 33.6639 23.2655C33.3221 23.6632 33.1012 24.1505 33.0275 24.6697C32.9537 25.1889 33.0301 25.7184 33.2476 26.1955C33.4652 26.6727 33.8148 27.0776 34.2551 27.3625C34.6954 27.6473 35.2081 27.8002 35.7325 27.803C36.0943 27.809 36.4536 27.7411 36.7882 27.6034C37.1229 27.4657 37.4259 27.2612 37.6787 27.0022C38.0653 26.6185 38.3296 26.1288 38.4383 25.595C38.5469 25.0613 38.4951 24.5073 38.2893 24.0029C38.0835 23.4985 37.733 23.0664 37.2819 22.761C36.8308 22.4556 36.2994 22.2906 35.7547 22.2868C35.6603 22.2868 35.5698 22.2494 35.5031 22.1826C35.4363 22.1159 35.3988 22.0254 35.3988 21.931C35.3974 21.8833 35.4055 21.8358 35.4227 21.7914C35.4399 21.7469 35.4659 21.7063 35.4991 21.6721C35.5323 21.6379 35.572 21.6107 35.6159 21.5921C35.6598 21.5735 35.707 21.5639 35.7547 21.564C36.6783 21.5712 37.5616 21.943 38.2125 22.5982C38.535 22.9209 38.7904 23.3042 38.9641 23.726C39.1377 24.1479 39.2263 24.5999 39.2245 25.056C39.2173 25.9796 38.8455 26.8629 38.1903 27.5138C37.8733 27.844 37.4937 28.1075 37.0735 28.2889C36.6534 28.4703 36.2012 28.566 35.7436 28.5703Z" fill="#17262F"></path><path d="M42.1272 34.231H29.2822C29.2101 34.228 29.1403 34.2044 29.0812 34.163C29.0221 34.1216 28.9761 34.0642 28.9485 33.9975C28.9211 33.9314 28.915 33.8584 28.9309 33.7887C28.9469 33.7189 28.9841 33.6559 29.0375 33.6082L29.2599 33.3858L29.0375 33.1745C28.9675 33.1031 28.9277 33.0075 28.9263 32.9076C28.9283 32.811 28.9682 32.7191 29.0375 32.6518L29.2711 32.4405L29.0486 32.2181C29.0121 32.1865 28.9832 32.1471 28.9639 32.1028C28.9447 32.0585 28.9356 32.0105 28.9374 31.9623C28.9369 31.9126 28.9465 31.8633 28.9656 31.8174C28.9847 31.7715 29.013 31.73 29.0486 31.6954L29.2711 31.4841L29.0486 31.2728C28.998 31.2209 28.9629 31.156 28.9471 31.0853C28.9314 31.0145 28.9358 30.9408 28.9597 30.8724C28.9884 30.8052 29.0366 30.7481 29.0981 30.7085C29.1595 30.6689 29.2313 30.6485 29.3044 30.65L42.1383 30.7056C42.2095 30.7063 42.2789 30.7277 42.3382 30.7672C42.3974 30.8067 42.4439 30.8626 42.4719 30.928C42.4986 30.9952 42.5054 31.0686 42.4916 31.1396C42.4778 31.2105 42.444 31.2761 42.3941 31.3284L42.1605 31.5397L42.383 31.751C42.4176 31.7851 42.4451 31.8258 42.4639 31.8707C42.4827 31.9155 42.4923 31.9637 42.4923 32.0123C42.4923 32.061 42.4827 32.1091 42.4639 32.154C42.4451 32.1988 42.4176 32.2395 42.383 32.2737L42.1605 32.485L42.383 32.7074C42.4529 32.7788 42.4928 32.8744 42.4942 32.9743C42.4911 33.0706 42.4513 33.1621 42.383 33.2301L42.1605 33.4414L42.383 33.6638C42.4331 33.7136 42.4673 33.7773 42.4812 33.8466C42.4951 33.9159 42.488 33.9878 42.4608 34.0531C42.4266 34.1102 42.3775 34.157 42.3187 34.1883C42.2599 34.2197 42.1937 34.2344 42.1272 34.231ZM30.1274 33.4636H41.2486C41.2434 33.4268 41.2434 33.3893 41.2486 33.3524C41.2522 33.2529 41.2917 33.1581 41.3598 33.0855L41.5934 32.8742L41.3598 32.6629C41.2948 32.5892 41.2592 32.4942 41.2597 32.396C41.2579 32.3478 41.267 32.2997 41.2863 32.2555C41.3055 32.2112 41.3344 32.1718 41.3709 32.1402L41.5934 31.9289L41.3709 31.7065C41.3026 31.6385 41.2628 31.547 41.2597 31.4507C41.2545 31.4101 41.2545 31.369 41.2597 31.3284H30.1385C30.1437 31.3653 30.1437 31.4027 30.1385 31.4396C30.1371 31.5395 30.0973 31.6351 30.0273 31.7065L29.8049 31.9178L30.0273 32.1402C30.0631 32.1725 30.0917 32.212 30.1112 32.2561C30.1308 32.3001 30.1409 32.3478 30.1409 32.396C30.1409 32.4442 30.1308 32.4919 30.1112 32.536C30.0917 32.58 30.0631 32.6195 30.0273 32.6518L29.8049 32.8742L30.0273 33.0855C30.0705 33.1373 30.101 33.1984 30.1165 33.2641C30.1319 33.3297 30.1319 33.398 30.1163 33.4636H30.1274Z" fill="#17262F"></path><path d="M87.7019 18.995H87.3906L35.41 16.3259C33.6663 16.2264 32.0268 15.4636 30.8276 14.1939C29.6284 12.9243 28.9603 11.244 28.9603 9.49749C28.9603 7.75102 29.6284 6.07071 30.8276 4.80106C32.0268 3.53141 33.6663 2.76861 35.41 2.66906L87.3794 -3.29548e-05C88.6534 -0.0494852 89.9241 0.161741 91.1136 0.620702C92.303 1.07966 93.3862 1.77669 94.2968 2.66906C95.2113 3.55457 95.9384 4.61488 96.435 5.78696C96.9315 6.95905 97.1874 8.21899 97.1874 9.49193C97.1874 10.7649 96.9315 12.0248 96.435 13.1969C95.9384 14.369 95.2113 15.4293 94.2968 16.3148C92.5351 18.0385 90.1667 19.001 87.7019 18.995ZM87.7019 0.722846H87.4128L35.4545 3.39194C33.8322 3.39194 32.2764 4.03637 31.1293 5.18347C29.9822 6.33057 29.3378 7.88637 29.3378 9.50861C29.3378 11.1309 29.9822 12.6867 31.1293 13.8337C32.2764 14.9808 33.8322 15.6253 35.4545 15.6253L87.4128 18.261C88.5881 18.3014 89.7595 18.1044 90.8571 17.682C91.9546 17.2595 92.9558 16.6202 93.8007 15.8023C94.6457 14.9843 95.3171 14.0044 95.775 12.9212C96.2328 11.8379 96.4677 10.6735 96.4655 9.49749C96.4669 8.34571 96.2413 7.20494 95.8016 6.14042C95.3618 5.0759 94.7165 4.1085 93.9026 3.29355C93.0887 2.47861 92.1221 1.8321 91.0582 1.39099C89.9942 0.949889 88.8537 0.722845 87.7019 0.722846Z" fill="#17262F"></path><path d="M87.1904 16.7597C85.7509 16.7619 84.3432 16.3369 83.1454 15.5386C81.9476 14.7402 81.0136 13.6044 80.4618 12.2749C79.9099 10.9454 79.7649 9.48211 80.0452 8.0702C80.3255 6.65828 81.0184 5.36129 82.0363 4.34343C83.0541 3.32558 84.3511 2.63264 85.763 2.35235C87.175 2.07206 88.6383 2.21704 89.9678 2.76891C91.2972 3.32079 92.433 4.25475 93.2314 5.45253C94.0297 6.65032 94.4547 8.05807 94.4525 9.49753C94.4496 11.4227 93.6835 13.2681 92.3222 14.6294C90.961 15.9907 89.1155 16.7567 87.1904 16.7597ZM87.1904 2.95825C85.897 2.95825 84.6327 3.34177 83.5573 4.06032C82.482 4.77886 81.6438 5.80016 81.1489 6.99506C80.6539 8.18995 80.5244 9.50478 80.7767 10.7733C81.0291 12.0418 81.6519 13.207 82.5664 14.1215C83.4809 15.036 84.6461 15.6588 85.9146 15.9112C87.1831 16.1635 88.4979 16.034 89.6928 15.539C90.8877 15.0441 91.909 14.2059 92.6276 13.1306C93.3461 12.0552 93.7296 10.7909 93.7296 9.49753C93.7296 7.76321 93.0407 6.09991 91.8143 4.87356C90.588 3.64721 88.9247 2.95825 87.1904 2.95825Z" fill="#17262F"></path><path d="M35.7436 14.135C34.8264 14.135 33.9298 13.863 33.1671 13.3534C32.4045 12.8438 31.8101 12.1195 31.4591 11.2721C31.1081 10.4247 31.0162 9.49227 31.1952 8.59267C31.3741 7.69308 31.8158 6.86675 32.4644 6.21817C33.1129 5.5696 33.9393 5.12792 34.8389 4.94897C35.7385 4.77003 36.6709 4.86187 37.5183 5.21288C38.3657 5.56388 39.09 6.15829 39.5996 6.92093C40.1092 7.68357 40.3812 8.58019 40.3812 9.49741C40.3812 10.7274 39.8926 11.9069 39.0228 12.7767C38.1531 13.6464 36.9736 14.135 35.7436 14.135ZM35.7436 5.58274C34.9694 5.58274 34.2125 5.81234 33.5687 6.24249C32.925 6.67263 32.4232 7.28402 32.1269 7.99934C31.8306 8.71465 31.7531 9.50176 31.9041 10.2611C32.0552 11.0205 32.428 11.718 32.9755 12.2655C33.523 12.813 34.2205 13.1858 34.9799 13.3369C35.7393 13.4879 36.5264 13.4104 37.2417 13.1141C37.957 12.8178 38.5684 12.3161 38.9985 11.6723C39.4287 11.0285 39.6583 10.2717 39.6583 9.49741C39.6612 8.98146 39.5621 8.47002 39.3667 7.9925C39.1713 7.51498 38.8834 7.08081 38.5196 6.71494C38.1558 6.34907 37.7232 6.05872 37.2468 5.8606C36.7704 5.66248 36.2596 5.56049 35.7436 5.5605V5.58274Z" fill="#17262F"></path><path d="M87.1904 12.8895C86.5141 12.9028 85.8493 12.7142 85.2807 12.348C84.7121 11.9817 84.2656 11.4543 83.9981 10.8331C83.7305 10.2119 83.6542 9.52504 83.7788 8.86026C83.9034 8.19547 84.2232 7.58289 84.6975 7.1007C85.1718 6.61851 85.779 6.28858 86.4416 6.15303C87.1043 6.01748 87.7923 6.08245 88.4178 6.33966C89.0433 6.59687 89.5781 7.03464 89.9537 7.5971C90.3293 8.15956 90.5288 8.82119 90.5267 9.49755C90.524 10.3867 90.1733 11.2395 89.5498 11.8735C88.9263 12.5074 88.0794 12.8721 87.1904 12.8895ZM87.1904 6.81733C86.6598 6.81513 86.1405 6.97045 85.6983 7.26361C85.2561 7.55678 84.9108 7.9746 84.7063 8.46414C84.5017 8.95369 84.447 9.49294 84.5492 10.0136C84.6513 10.5342 84.9057 11.0128 85.2801 11.3888C85.6545 11.7647 86.1321 12.0211 86.6523 12.1254C87.1725 12.2297 87.7119 12.1773 88.2023 11.9748C88.6927 11.7723 89.112 11.4287 89.407 10.9877C89.702 10.5467 89.8595 10.0281 89.8595 9.49755C89.8595 8.78863 89.5786 8.10859 89.0784 7.60627C88.5781 7.10395 87.8993 6.82027 87.1904 6.81733Z" fill="#17262F"></path><path d="M35.7436 11.1768C35.4088 11.1767 35.0815 11.0773 34.8033 10.8911C34.5251 10.7048 34.3084 10.4402 34.1808 10.1306C34.0532 9.82109 34.0204 9.48064 34.0865 9.15243C34.1527 8.82422 34.3148 8.52304 34.5523 8.28708C34.7898 8.05111 35.0921 7.891 35.4207 7.82704C35.7493 7.76307 36.0896 7.79814 36.3983 7.92779C36.7069 8.05744 36.9702 8.27584 37.1546 8.55529C37.339 8.83473 37.4362 9.16265 37.434 9.49745C37.4311 9.94385 37.2517 10.371 36.935 10.6856C36.6183 11.0002 36.19 11.1768 35.7436 11.1768ZM35.7436 8.5299C35.5522 8.5299 35.3652 8.58665 35.2061 8.69296C35.047 8.79928 34.9229 8.95039 34.8497 9.12718C34.7765 9.30398 34.7573 9.49852 34.7947 9.6862C34.832 9.87389 34.9241 10.0463 35.0595 10.1816C35.1948 10.3169 35.3672 10.4091 35.5549 10.4464C35.7425 10.4837 35.9371 10.4646 36.1139 10.3913C36.2907 10.3181 36.4418 10.1941 36.5481 10.035C36.6544 9.87587 36.7112 9.68881 36.7112 9.49745C36.7112 9.24084 36.6092 8.99474 36.4278 8.81329C36.2463 8.63184 36.0002 8.5299 35.7436 8.5299Z" fill="#17262F"></path><path d="M67.6949 78.7827C67.6477 78.7838 67.6008 78.7755 67.5569 78.7583C67.513 78.7412 67.473 78.7154 67.4391 78.6826C67.4048 78.6494 67.3775 78.6097 67.3589 78.5658C67.3402 78.5218 67.3306 78.4746 67.3306 78.4268C67.3306 78.3791 67.3402 78.3319 67.3589 78.2879C67.3775 78.244 67.4048 78.2042 67.4391 78.1711L78.071 67.528C78.1018 67.4844 78.1419 67.4481 78.1882 67.4215C78.2346 67.395 78.2862 67.3789 78.3395 67.3744C78.3927 67.3698 78.4463 67.377 78.4965 67.3953C78.5467 67.4137 78.5923 67.4428 78.63 67.4805C78.6678 67.5183 78.6969 67.5639 78.7152 67.6141C78.7336 67.6643 78.7407 67.7179 78.7362 67.7711C78.7317 67.8244 78.7156 67.876 78.6891 67.9224C78.6625 67.9687 78.6262 68.0088 78.5825 68.0396L67.9395 78.6826C67.9073 78.7146 67.8692 78.7399 67.8272 78.7571C67.7852 78.7742 67.7402 78.7829 67.6949 78.7827Z" fill="#17262F"></path><path d="M76.3917 88.6249C76.2971 88.6238 76.2061 88.5882 76.1359 88.5248C76.0718 88.4551 76.0362 88.3638 76.0362 88.2691C76.0362 88.1743 76.0718 88.083 76.1359 88.0133L92.017 72.121C92.5868 71.5493 93.0004 70.8409 93.2181 70.0636C93.2308 70.0181 93.2526 69.9756 93.2819 69.9386C93.3113 69.9016 93.3478 69.8708 93.3892 69.848C93.4306 69.8252 93.4761 69.8109 93.5231 69.8059C93.5701 69.801 93.6176 69.8054 93.6629 69.819C93.7084 69.8317 93.7509 69.8534 93.7879 69.8828C93.825 69.9122 93.8557 69.9487 93.8785 69.9901C93.9013 70.0315 93.9156 70.077 93.9206 70.124C93.9256 70.171 93.9212 70.2185 93.9076 70.2638C93.6511 71.1521 93.1771 71.9625 92.5285 72.6215L76.6474 88.5248C76.6136 88.5576 76.5735 88.5834 76.5296 88.6006C76.4857 88.6177 76.4388 88.626 76.3917 88.6249Z" fill="#17262F"></path><path d="M69.3964 100.669C69.3332 100.671 69.2707 100.655 69.2158 100.624C69.1608 100.593 69.1156 100.547 69.085 100.491C69.0613 100.451 69.0459 100.405 69.0398 100.359C69.0336 100.312 69.0369 100.264 69.0493 100.219C69.0617 100.173 69.0831 100.131 69.1121 100.093C69.1412 100.056 69.1773 100.025 69.2185 100.002C71.12 98.9136 72.6476 97.2752 73.6004 95.3023C74.5532 93.3294 74.8867 91.1143 74.557 88.9483C74.2273 86.7823 73.2498 84.7668 71.7531 83.1668C70.2564 81.5668 68.3105 80.4571 66.1713 79.9838C66.125 79.9733 66.0813 79.9538 66.0426 79.9262C66.004 79.8986 65.9713 79.8636 65.9465 79.8231C65.9216 79.7827 65.9051 79.7378 65.8978 79.6909C65.8906 79.644 65.8928 79.5961 65.9044 79.5501C65.9148 79.5038 65.9344 79.46 65.962 79.4214C65.9896 79.3828 66.0246 79.3501 66.065 79.3253C66.1054 79.3004 66.1504 79.2838 66.1973 79.2766C66.2442 79.2694 66.2921 79.2716 66.3381 79.2831C68.6098 79.7964 70.6739 80.9828 72.2607 82.6874C73.8476 84.3921 74.8834 86.5357 75.233 88.8382C75.5825 91.1408 75.2294 93.4952 74.2199 95.594C73.2104 97.6928 71.5914 99.4383 69.5744 100.603C69.5231 100.642 69.4611 100.665 69.3964 100.669Z" fill="#17262F"></path><path d="M63.391 99.1124C63.3433 99.1139 63.2958 99.1058 63.2514 99.0886C63.2069 99.0714 63.1663 99.0454 63.1321 99.0122C63.0979 98.979 63.0707 98.9393 63.0521 98.8953C63.0335 98.8514 63.0239 98.8042 63.024 98.7565C63.024 98.6592 63.0626 98.5659 63.1315 98.497C63.2003 98.4282 63.2936 98.3895 63.391 98.3895C65.4556 98.3895 67.4357 97.5693 68.8957 96.1094C70.3556 94.6495 71.1758 92.6694 71.1758 90.6047C71.1758 88.54 70.3556 86.5599 68.8957 85.1C67.4357 83.64 65.4556 82.8198 63.391 82.8198C63.3433 82.8213 63.2958 82.8132 63.2514 82.796C63.2069 82.7788 63.1663 82.7528 63.1321 82.7196C63.0979 82.6864 63.0707 82.6467 63.0521 82.6028C63.0335 82.5588 63.0239 82.5116 63.024 82.4639C63.0209 82.4139 63.0282 82.3638 63.0452 82.3167C63.0623 82.2695 63.0889 82.2264 63.1233 82.1899C63.1576 82.1535 63.1991 82.1244 63.2452 82.1046C63.2912 82.0848 63.3408 82.0746 63.391 82.0747C65.6503 82.0747 67.8171 82.9722 69.4147 84.5698C71.0123 86.1674 71.9098 88.3342 71.9098 90.5936C71.9098 92.8529 71.0123 95.0197 69.4147 96.6173C67.8171 98.2149 65.6503 99.1124 63.391 99.1124Z" fill="#17262F"></path><path d="M87.3238 67.3611C86.1888 67.3611 85.0794 67.0246 84.1357 66.394C83.192 65.7635 82.4564 64.8672 82.0221 63.8186C81.5878 62.7701 81.4741 61.6162 81.6955 60.5031C81.917 59.3899 82.4635 58.3674 83.2661 57.5648C84.0686 56.7623 85.0911 56.2157 86.2043 55.9943C87.3175 55.7729 88.4713 55.8865 89.5199 56.3209C90.5685 56.7552 91.4647 57.4907 92.0953 58.4344C92.7258 59.3781 93.0624 60.4876 93.0624 61.6226C93.0594 63.1436 92.4539 64.6016 91.3783 65.6771C90.3028 66.7527 88.8449 67.3582 87.3238 67.3611ZM87.3238 56.6069C86.3304 56.6003 85.3574 56.8888 84.5282 57.4359C83.699 57.983 83.051 58.764 82.6662 59.6799C82.2815 60.5958 82.1774 61.6054 82.3671 62.5805C82.5569 63.5556 83.0319 64.4524 83.732 65.1572C84.4321 65.862 85.3258 66.3431 86.2996 66.5393C87.2735 66.7356 88.2837 66.6382 89.2021 66.2596C90.1205 65.8809 90.9058 65.2381 91.4585 64.4126C92.0111 63.5871 92.3061 62.616 92.3061 61.6226C92.3033 60.299 91.7785 59.03 90.8457 58.0909C89.9129 57.1519 88.6474 56.6186 87.3238 56.6069Z" fill="#17262F"></path><path d="M87.3238 64.1026C86.8333 64.1026 86.3538 63.9572 85.946 63.6847C85.5382 63.4122 85.2203 63.0248 85.0326 62.5717C84.8449 62.1185 84.7958 61.6199 84.8915 61.1388C84.9871 60.6577 85.2233 60.2158 85.5702 59.869C85.917 59.5221 86.3589 59.2859 86.84 59.1902C87.3211 59.0945 87.8197 59.1437 88.2729 59.3314C88.7261 59.5191 89.1134 59.8369 89.3859 60.2448C89.6584 60.6526 89.8039 61.1321 89.8039 61.6226C89.8053 61.9487 89.7422 62.2719 89.6181 62.5734C89.494 62.875 89.3113 63.149 89.0808 63.3795C88.8502 63.6101 88.5762 63.7927 88.2746 63.9169C87.9731 64.041 87.6499 64.1041 87.3238 64.1026ZM87.3238 59.8655C86.9763 59.8655 86.6366 59.9685 86.3476 60.1616C86.0586 60.3547 85.8334 60.6291 85.7004 60.9502C85.5674 61.2713 85.5326 61.6246 85.6004 61.9654C85.6682 62.3063 85.8356 62.6194 86.0813 62.8651C86.3271 63.1108 86.6402 63.2782 86.981 63.346C87.3219 63.4138 87.6752 63.379 87.9963 63.246C88.3173 63.113 88.5918 62.8878 88.7849 62.5988C88.9779 62.3099 89.081 61.9701 89.081 61.6226C89.0825 61.3914 89.038 61.1623 88.9502 60.9484C88.8625 60.7346 88.7331 60.5403 88.5696 60.3768C88.4062 60.2134 88.2119 60.084 87.998 59.9962C87.7842 59.9084 87.555 59.864 87.3238 59.8655Z" fill="#17262F"></path><path d="M71.0424 110H0.367C0.269666 110 0.176318 109.961 0.107492 109.892C0.038666 109.824 0 109.73 0 109.633L0 104.773C0.00879533 103.823 0.392304 102.915 1.0671 102.247C1.74189 101.578 2.65338 101.203 3.60328 101.203H7.22879C7.32613 101.203 7.41948 101.242 7.4883 101.311C7.55713 101.379 7.59579 101.473 7.59579 101.57C7.59582 101.618 7.58626 101.665 7.56768 101.709C7.5491 101.753 7.52189 101.793 7.48766 101.826C7.45342 101.859 7.41287 101.885 7.3684 101.902C7.32393 101.919 7.27646 101.927 7.22879 101.926H3.60328C2.84509 101.926 2.11746 102.225 1.57823 102.758C1.039 103.291 0.731661 104.015 0.722879 104.773V109.277H70.6865V104.773C70.6865 104.015 70.3876 103.287 69.8547 102.748C69.3217 102.209 68.5976 101.901 67.8394 101.893H64.1806C64.1329 101.894 64.0854 101.886 64.041 101.869C63.9965 101.852 63.9559 101.826 63.9217 101.792C63.8875 101.759 63.8603 101.719 63.8417 101.675C63.8231 101.632 63.8135 101.584 63.8136 101.537C63.8136 101.439 63.8522 101.346 63.9211 101.277C63.9899 101.208 64.0832 101.17 64.1806 101.17H67.8394C68.7951 101.17 69.7116 101.549 70.3873 102.225C71.0631 102.901 71.4427 103.817 71.4427 104.773V109.633C71.4429 109.684 71.4325 109.735 71.412 109.782C71.3915 109.828 71.3614 109.87 71.3237 109.905C71.286 109.94 71.2415 109.966 71.1931 109.982C71.1446 109.999 71.0933 110.005 71.0424 110Z" fill="#17262F"></path><path d="M62.2788 101.893H9.17501C9.08062 101.893 8.9901 101.855 8.92336 101.788C8.85662 101.722 8.81913 101.631 8.81913 101.537V80.4065C8.80984 80.3537 8.81221 80.2995 8.82609 80.2478C8.83997 80.196 8.86501 80.1479 8.89946 80.1069C8.93391 80.0659 8.97692 80.0328 9.02549 80.0102C9.07405 79.9876 9.12699 79.9758 9.18057 79.9758C9.23415 79.9758 9.28709 79.9876 9.33565 80.0102C9.38421 80.0328 9.42723 80.0659 9.46168 80.1069C9.49613 80.1479 9.52117 80.196 9.53505 80.2478C9.54892 80.2995 9.5513 80.3537 9.54201 80.4065V101.203H61.8674V80.4398C61.8651 80.3871 61.8745 80.3345 61.895 80.2859C61.9156 80.2373 61.9466 80.1938 61.986 80.1587C62.0254 80.1236 62.0721 80.0976 62.1228 80.0828C62.1734 80.0679 62.2267 80.0645 62.2788 80.0728C62.3762 80.0728 62.4695 80.1115 62.5383 80.1803C62.6072 80.2492 62.6458 80.3425 62.6458 80.4398V101.57C62.6374 101.661 62.5947 101.744 62.5264 101.804C62.4582 101.864 62.3696 101.896 62.2788 101.893Z" fill="#17262F"></path><path d="M65.1703 79.072H6.22788C6.18019 79.072 6.13299 79.0624 6.08907 79.0438C6.04515 79.0253 6.00542 78.9981 5.97222 78.9638C5.93902 78.9296 5.91305 78.889 5.89583 78.8446C5.87861 78.8001 5.87051 78.7526 5.872 78.7049V75.1462C5.872 75.0518 5.90949 74.9613 5.97623 74.8945C6.04297 74.8278 6.13349 74.7903 6.22788 74.7903H17.6716C17.766 74.7903 17.8565 74.8278 17.9233 74.8945C17.99 74.9613 18.0275 75.0518 18.0275 75.1462C18.029 75.1938 18.0209 75.2413 18.0037 75.2858C17.9864 75.3302 17.9605 75.3708 17.9273 75.405C17.8941 75.4393 17.8543 75.4665 17.8104 75.485C17.7665 75.5036 17.7193 75.5132 17.6716 75.5132H6.606V78.3491H64.8033V75.5132H31.1394C31.0917 75.5132 31.0445 75.5036 31.0006 75.485C30.9567 75.4665 30.9169 75.4393 30.8838 75.405C30.8506 75.3708 30.8246 75.3302 30.8074 75.2858C30.7901 75.2413 30.782 75.1938 30.7835 75.1462C30.7835 75.0518 30.821 74.9613 30.8878 74.8945C30.9545 74.8278 31.045 74.7903 31.1394 74.7903H65.1703C65.2647 74.7903 65.3553 74.8278 65.422 74.8945C65.4887 74.9613 65.5262 75.0518 65.5262 75.1462V78.7049C65.5277 78.7526 65.5196 78.8001 65.5024 78.8446C65.4852 78.889 65.4592 78.9296 65.426 78.9638C65.3928 78.9981 65.3531 79.0253 65.3092 79.0438C65.2652 79.0624 65.218 79.072 65.1703 79.072Z" fill="#17262F"></path><path d="M61.1667 74.0339C61.0723 74.0339 60.9818 73.9964 60.9151 73.9296C60.8483 73.8629 60.8108 73.7724 60.8108 73.678V69.2295H10.6208V73.678C10.6208 73.7724 10.5833 73.8629 10.5165 73.9296C10.4498 73.9964 10.3593 74.0339 10.2649 74.0339C10.2172 74.0354 10.1698 74.0273 10.1253 74.01C10.0808 73.9928 10.0403 73.9668 10.006 73.9336C9.97179 73.9005 9.94458 73.8607 9.926 73.8168C9.90743 73.7729 9.89786 73.7257 9.89789 73.678V68.9515C9.89789 68.9033 9.90738 68.8556 9.92582 68.811C9.94427 68.7665 9.9713 68.726 10.0054 68.692C10.0395 68.6579 10.0799 68.6309 10.1244 68.6124C10.169 68.594 10.2167 68.5845 10.2649 68.5845H61.1667C61.2641 68.5845 61.3574 68.6231 61.4262 68.692C61.4951 68.7608 61.5337 68.8541 61.5337 68.9515V73.7336C61.5201 73.82 61.4752 73.8984 61.4075 73.9538C61.3398 74.0092 61.2541 74.0377 61.1667 74.0339Z" fill="#17262F"></path><path d="M55.2057 98.7342H16.2036C16.0757 98.7342 15.9529 98.6842 15.8615 98.5948C15.77 98.5054 15.7172 98.3838 15.7143 98.256V90.5934C15.7172 90.4656 15.77 90.344 15.8615 90.2546C15.9529 90.1652 16.0757 90.1152 16.2036 90.1152H55.2057C55.3336 90.1152 55.4564 90.1652 55.5479 90.2546C55.6393 90.344 55.6922 90.4656 55.6951 90.5934V98.256C55.6922 98.3838 55.6393 98.5054 55.5479 98.5948C55.4564 98.6842 55.3336 98.7342 55.2057 98.7342ZM16.4372 98.0113H54.9722V90.8381H16.4372V98.0113Z" fill="#17262F"></path><path d="M21.6085 60.3993H6.82843C6.53348 60.3993 6.25061 60.2821 6.04204 60.0736C5.83348 59.865 5.71631 59.5821 5.71631 59.2872V41.4932C5.71631 41.1983 5.83348 40.9154 6.04204 40.7068C6.25061 40.4983 6.53348 40.3811 6.82843 40.3811H21.6085C21.9035 40.3811 22.1864 40.4983 22.3949 40.7068C22.6035 40.9154 22.7207 41.1983 22.7207 41.4932V59.2872C22.7207 59.5821 22.6035 59.865 22.3949 60.0736C22.1864 60.2821 21.9035 60.3993 21.6085 60.3993ZM6.82843 41.1485C6.737 41.1485 6.6493 41.1848 6.58465 41.2494C6.52 41.3141 6.48367 41.4018 6.48367 41.4932V59.2872C6.48367 59.3786 6.52 59.4663 6.58465 59.531C6.6493 59.5956 6.737 59.6319 6.82843 59.6319H21.6085C21.7 59.6319 21.7877 59.5956 21.8523 59.531C21.917 59.4663 21.9533 59.3786 21.9533 59.2872V41.4932C21.9533 41.4018 21.917 41.3141 21.8523 41.2494C21.7877 41.1848 21.7 41.1485 21.6085 41.1485H6.82843Z" fill="#17262F"></path><path d="M16.5039 67.9173C16.4562 67.9173 16.409 67.9077 16.3651 67.8892C16.3212 67.8706 16.2814 67.8434 16.2482 67.8091C16.215 67.7749 16.1891 67.7343 16.1719 67.6899C16.1546 67.6454 16.1465 67.5979 16.148 67.5503V65.1147H12.289V67.5503C12.289 67.6476 12.2503 67.741 12.1815 67.8098C12.1126 67.8786 12.0193 67.9173 11.922 67.9173C11.8743 67.9173 11.8271 67.9077 11.7831 67.8892C11.7392 67.8706 11.6995 67.8434 11.6663 67.8091C11.6331 67.7749 11.6071 67.7343 11.5899 67.6899C11.5727 67.6454 11.5646 67.5979 11.5661 67.5503V64.7588C11.5646 64.7112 11.5727 64.6637 11.5899 64.6192C11.6071 64.5748 11.6331 64.5342 11.6663 64.5C11.6995 64.4657 11.7392 64.4385 11.7831 64.42C11.8271 64.4014 11.8743 64.3918 11.922 64.3918H16.5039C16.6012 64.3918 16.6946 64.4305 16.7634 64.4993C16.8322 64.5682 16.8709 64.6615 16.8709 64.7588V67.5503C16.8709 67.5985 16.8614 67.6462 16.843 67.6907C16.8245 67.7352 16.7975 67.7757 16.7634 67.8098C16.7293 67.8439 16.6889 67.8709 16.6443 67.8893C16.5998 67.9078 16.5521 67.9173 16.5039 67.9173Z" fill="#17262F"></path><path d="M12.6893 65.1147C12.6416 65.1162 12.5942 65.108 12.5497 65.0908C12.5052 65.0736 12.4647 65.0476 12.4304 65.0144C12.3962 64.9812 12.369 64.9415 12.3504 64.8976C12.3318 64.8537 12.3223 64.8065 12.3223 64.7588V61.4224C12.3223 61.3251 12.361 61.2317 12.4298 61.1629C12.4986 61.0941 12.592 61.0554 12.6893 61.0554C12.7866 61.0554 12.88 61.0941 12.9488 61.1629C13.0176 61.2317 13.0563 61.3251 13.0563 61.4224V64.7588C13.0563 64.8065 13.0468 64.8537 13.0282 64.8976C13.0096 64.9415 12.9824 64.9812 12.9482 65.0144C12.9139 65.0476 12.8734 65.0736 12.8289 65.0908C12.7844 65.108 12.737 65.1162 12.6893 65.1147Z" fill="#17262F"></path><path d="M15.7477 65.1148C15.7 65.1163 15.6525 65.1082 15.608 65.091C15.5636 65.0738 15.523 65.0478 15.4888 65.0146C15.4546 64.9814 15.4273 64.9417 15.4088 64.8978C15.3902 64.8538 15.3806 64.8066 15.3807 64.759V61.4226C15.3714 61.3698 15.3737 61.3156 15.3876 61.2639C15.4015 61.2121 15.4265 61.1641 15.461 61.123C15.4954 61.082 15.5384 61.049 15.587 61.0263C15.6356 61.0037 15.6885 60.9919 15.7421 60.9919C15.7957 60.9919 15.8486 61.0037 15.8972 61.0263C15.9457 61.049 15.9888 61.082 16.0232 61.123C16.0577 61.1641 16.0827 61.2121 16.0966 61.2639C16.1104 61.3156 16.1128 61.3698 16.1035 61.4226V64.759C16.1035 64.8533 16.066 64.9439 15.9993 65.0106C15.9326 65.0773 15.842 65.1148 15.7477 65.1148Z" fill="#17262F"></path><path d="M19.7624 56.7181H8.67455C8.43859 56.7181 8.21229 56.6243 8.04544 56.4575C7.87859 56.2906 7.78485 56.0643 7.78485 55.8284V43.4727C7.78485 43.2367 7.87859 43.0104 8.04544 42.8436C8.21229 42.6767 8.43859 42.583 8.67455 42.583H19.7958C20.0317 42.583 20.258 42.6767 20.4249 42.8436C20.5917 43.0104 20.6855 43.2367 20.6855 43.4727V55.8729C20.6739 56.1069 20.5705 56.327 20.3977 56.4852C20.2249 56.6435 19.9966 56.7272 19.7624 56.7181ZM8.64119 43.2614C8.59694 43.2614 8.55451 43.279 8.52323 43.3103C8.49194 43.3415 8.47437 43.384 8.47437 43.4282V55.8729C8.47437 55.9171 8.49194 55.9595 8.52323 55.9908C8.55451 56.0221 8.59694 56.0397 8.64119 56.0397H19.7624C19.8066 56.0397 19.8491 56.0221 19.8804 55.9908C19.9116 55.9595 19.9292 55.9171 19.9292 55.8729V43.4727C19.9292 43.4285 19.9116 43.386 19.8804 43.3547C19.8491 43.3235 19.8066 43.3059 19.7624 43.3059L8.64119 43.2614Z" fill="#17262F"></path><path d="M116.773 103.538C116.675 103.538 116.582 103.5 116.513 103.431C116.444 103.362 116.406 103.269 116.406 103.171V93.6628C116.406 92.8212 116.072 92.0138 115.478 91.4177C114.884 90.8215 114.078 90.4851 113.236 90.4822H85.4888C85.0702 90.4807 84.6554 90.5619 84.2682 90.7211C83.881 90.8803 83.5291 91.1143 83.2326 91.4098C82.936 91.7053 82.7008 92.0564 82.5402 92.4431C82.3797 92.8297 82.297 93.2442 82.297 93.6628V102.849C82.2985 102.897 82.2904 102.944 82.2732 102.989C82.256 103.033 82.23 103.074 82.1968 103.108C82.1636 103.142 82.1239 103.169 82.08 103.188C82.036 103.206 81.9888 103.216 81.9412 103.216C81.8438 103.216 81.7505 103.177 81.6817 103.108C81.6128 103.04 81.5742 102.946 81.5742 102.849V93.6628C81.5742 93.1502 81.6751 92.6426 81.8713 92.169C82.0675 91.6954 82.355 91.2651 82.7175 90.9026C83.08 90.5401 83.5103 90.2526 83.9839 90.0564C84.4575 89.8602 84.9651 89.7593 85.4777 89.7593H113.181C113.693 89.7593 114.201 89.8602 114.674 90.0564C115.148 90.2526 115.578 90.5401 115.941 90.9026C116.303 91.2651 116.591 91.6954 116.787 92.169C116.983 92.6426 117.084 93.1502 117.084 93.6628V103.171C117.085 103.26 117.054 103.346 116.997 103.413C116.94 103.481 116.86 103.525 116.773 103.538Z" fill="#17262F"></path><path d="M99.3459 103.116C98.9358 103.118 98.5344 102.998 98.1925 102.772C97.8506 102.545 97.5838 102.222 97.4258 101.844C97.2679 101.466 97.226 101.049 97.3054 100.646C97.3849 100.244 97.5821 99.8746 97.8721 99.5846C98.1621 99.2947 98.5317 99.0974 98.9339 99.018C99.3362 98.9385 99.7531 98.9804 100.132 99.1384C100.51 99.2963 100.833 99.5631 101.059 99.905C101.286 100.247 101.405 100.648 101.403 101.058C101.403 101.604 101.187 102.127 100.801 102.513C100.415 102.899 99.8915 103.116 99.3459 103.116ZM99.3459 99.7127C99.0793 99.7105 98.818 99.7876 98.5953 99.9341C98.3725 100.081 98.1983 100.29 98.0947 100.536C97.9912 100.781 97.9629 101.052 98.0136 101.314C98.0643 101.576 98.1915 101.817 98.3793 102.006C98.567 102.195 98.8068 102.325 99.0681 102.377C99.3294 102.43 99.6006 102.404 99.8471 102.303C100.094 102.201 100.304 102.029 100.453 101.807C100.601 101.586 100.68 101.325 100.68 101.058C100.68 100.703 100.54 100.363 100.29 100.111C100.04 99.8587 99.7008 99.7157 99.3459 99.7127Z" fill="#17262F"></path><path d="M110.245 103.116C109.836 103.114 109.436 102.99 109.097 102.761C108.758 102.532 108.495 102.207 108.34 101.829C108.186 101.45 108.147 101.034 108.229 100.633C108.311 100.232 108.51 99.8645 108.801 99.5768C109.092 99.2891 109.461 99.094 109.863 99.0164C110.265 98.9387 110.681 98.9819 111.058 99.1405C111.435 99.2991 111.756 99.5659 111.982 99.9073C112.207 100.249 112.327 100.649 112.324 101.058C112.323 101.33 112.268 101.599 112.163 101.849C112.057 102.1 111.904 102.327 111.711 102.518C111.518 102.709 111.289 102.86 111.037 102.963C110.786 103.065 110.516 103.117 110.245 103.116ZM110.245 99.7127C109.979 99.7127 109.718 99.7917 109.497 99.9395C109.276 100.087 109.103 100.298 109.001 100.543C108.9 100.789 108.873 101.06 108.925 101.321C108.977 101.582 109.105 101.822 109.293 102.01C109.481 102.198 109.721 102.326 109.982 102.378C110.243 102.43 110.514 102.403 110.76 102.302C111.006 102.2 111.216 102.027 111.364 101.806C111.511 101.585 111.59 101.325 111.59 101.058C111.59 100.702 111.449 100.359 111.196 100.107C110.944 99.8545 110.602 99.7127 110.245 99.7127Z" fill="#17262F"></path><path d="M88.4359 103.116C88.0259 103.118 87.6244 102.998 87.2826 102.772C86.9407 102.545 86.6738 102.222 86.5159 101.844C86.358 101.466 86.3161 101.049 86.3955 100.646C86.475 100.244 86.6722 99.8746 86.9622 99.5846C87.2521 99.2947 87.6217 99.0974 88.024 99.018C88.4263 98.9385 88.8432 98.9804 89.2216 99.1384C89.6 99.2963 89.923 99.5631 90.1494 99.905C90.3758 100.247 90.4956 100.648 90.4934 101.058C90.4934 101.604 90.2766 102.127 89.8908 102.513C89.5049 102.899 88.9816 103.116 88.4359 103.116ZM88.4359 99.7127C88.1693 99.7105 87.9081 99.7876 87.6853 99.9341C87.4626 100.081 87.2884 100.29 87.1848 100.536C87.0813 100.781 87.053 101.052 87.1037 101.314C87.1543 101.576 87.2816 101.817 87.4694 102.006C87.6571 102.195 87.8969 102.325 88.1582 102.377C88.4195 102.43 88.6907 102.404 88.9372 102.303C89.1837 102.201 89.3946 102.029 89.5429 101.807C89.6913 101.586 89.7705 101.325 89.7705 101.058C89.7705 100.703 89.6303 100.363 89.3803 100.111C89.1303 99.8587 88.7909 99.7157 88.4359 99.7127Z" fill="#17262F"></path><path d="M99.3459 97.3551C98.9358 97.3573 98.5344 97.2376 98.1925 97.0111C97.8506 96.7847 97.5838 96.4617 97.4258 96.0833C97.2679 95.7049 97.226 95.288 97.3054 94.8857C97.3849 94.4834 97.5821 94.1138 97.8721 93.8239C98.1621 93.5339 98.5317 93.3367 98.9339 93.2572C99.3362 93.1778 99.7531 93.2197 100.132 93.3776C100.51 93.5355 100.833 93.8024 101.059 94.1443C101.286 94.4861 101.405 94.8876 101.403 95.2977C101.403 95.8433 101.187 96.3666 100.801 96.7525C100.415 97.1383 99.8915 97.3551 99.3459 97.3551ZM99.3459 93.952C99.0793 93.9498 98.818 94.0268 98.5953 94.1733C98.3725 94.3199 98.1983 94.5293 98.0947 94.7749C97.9912 95.0206 97.9629 95.2915 98.0136 95.5533C98.0643 95.8151 98.1915 96.0559 98.3793 96.2452C98.567 96.4345 98.8068 96.5638 99.0681 96.6166C99.3294 96.6694 99.6006 96.6434 99.8471 96.5419C100.094 96.4404 100.304 96.2679 100.453 96.0464C100.601 95.8249 100.68 95.5643 100.68 95.2977C100.68 94.9427 100.54 94.6021 100.29 94.35C100.04 94.098 99.7008 93.9549 99.3459 93.952Z" fill="#17262F"></path><path d="M110.245 97.3551C109.836 97.3529 109.436 97.2294 109.097 97.0003C108.758 96.7712 108.495 96.4467 108.34 96.0679C108.186 95.689 108.147 95.2729 108.229 94.8721C108.311 94.4713 108.51 94.1038 108.801 93.816C109.092 93.5283 109.461 93.3333 109.863 93.2556C110.265 93.178 110.681 93.2212 111.058 93.3798C111.435 93.5383 111.756 93.8052 111.982 94.1466C112.207 94.488 112.327 94.8885 112.324 95.2977C112.323 95.5693 112.268 95.838 112.163 96.0884C112.057 96.3388 111.904 96.566 111.711 96.7571C111.518 96.9481 111.289 97.0993 111.037 97.2019C110.786 97.3045 110.516 97.3565 110.245 97.3551ZM110.245 93.952C109.979 93.952 109.718 94.0309 109.497 94.1788C109.276 94.3266 109.103 94.5368 109.001 94.7827C108.9 95.0286 108.873 95.2991 108.925 95.5602C108.977 95.8212 109.105 96.061 109.293 96.2492C109.481 96.4374 109.721 96.5655 109.982 96.6175C110.243 96.6694 110.514 96.6427 110.76 96.5409C111.006 96.439 111.216 96.2666 111.364 96.0453C111.511 95.824 111.59 95.5638 111.59 95.2977C111.59 94.9408 111.449 94.5985 111.196 94.3461C110.944 94.0938 110.602 93.952 110.245 93.952Z" fill="#17262F"></path><path d="M88.4359 97.3551C88.0259 97.3573 87.6244 97.2376 87.2826 97.0111C86.9407 96.7847 86.6738 96.4617 86.5159 96.0833C86.358 95.7049 86.3161 95.288 86.3955 94.8857C86.475 94.4834 86.6722 94.1138 86.9622 93.8239C87.2521 93.5339 87.6217 93.3367 88.024 93.2572C88.4263 93.1778 88.8432 93.2197 89.2216 93.3776C89.6 93.5355 89.923 93.8024 90.1494 94.1443C90.3758 94.4861 90.4956 94.8876 90.4934 95.2977C90.4934 95.8433 90.2766 96.3666 89.8908 96.7525C89.5049 97.1383 88.9816 97.3551 88.4359 97.3551ZM88.4359 93.952C88.1693 93.9498 87.9081 94.0268 87.6853 94.1733C87.4626 94.3199 87.2884 94.5293 87.1848 94.7749C87.0813 95.0206 87.053 95.2915 87.1037 95.5533C87.1543 95.8151 87.2816 96.0559 87.4694 96.2452C87.6571 96.4345 87.8969 96.5638 88.1582 96.6166C88.4195 96.6694 88.6907 96.6434 88.9372 96.5419C89.1837 96.4404 89.3946 96.2679 89.5429 96.0464C89.6913 95.8249 89.7705 95.5643 89.7705 95.2977C89.7705 94.9427 89.6303 94.6021 89.3803 94.35C89.1303 94.098 88.7909 93.9549 88.4359 93.952Z" fill="#17262F"></path><path d="M118.997 110H79.6502C79.5529 110 79.4595 109.961 79.3907 109.893C79.3219 109.824 79.2832 109.73 79.2832 109.633V106.919C79.3001 106.351 79.5343 105.81 79.9377 105.409C80.3411 105.007 80.883 104.776 81.4518 104.762H117.229C117.807 104.762 118.363 104.987 118.778 105.39C119.194 105.792 119.436 106.341 119.453 106.919V109.633C119.455 109.69 119.443 109.746 119.42 109.798C119.396 109.849 119.36 109.894 119.316 109.93C119.272 109.966 119.22 109.99 119.165 110.003C119.11 110.015 119.052 110.014 118.997 110ZM79.9727 109.277H118.641V106.919C118.638 106.538 118.485 106.173 118.214 105.904C117.943 105.636 117.577 105.485 117.195 105.485H81.4518C81.0703 105.485 80.7042 105.636 80.4334 105.904C80.1626 106.173 80.009 106.538 80.0061 106.919L79.9727 109.277Z" fill="#17262F"></path><path d="M40.9817 5.31581C40.8892 5.31585 40.8003 5.27989 40.7339 5.21553C40.6675 5.15118 40.6287 5.06349 40.6258 4.97105C40.6228 4.9234 40.6294 4.87563 40.6453 4.83059C40.6611 4.78555 40.6859 4.74416 40.718 4.70888C40.7502 4.6736 40.7891 4.64515 40.8325 4.62523C40.8759 4.60531 40.9229 4.59432 40.9706 4.59293L80.2619 2.57999C80.3105 2.57128 80.3606 2.57389 80.4081 2.58762C80.4556 2.60134 80.4994 2.62582 80.5359 2.65914C80.5725 2.69247 80.6009 2.73376 80.6189 2.77981C80.637 2.82587 80.6442 2.87546 80.64 2.92474C80.643 2.9715 80.6367 3.01839 80.6216 3.06272C80.6064 3.10706 80.5827 3.14796 80.5517 3.18309C80.5207 3.21822 80.4831 3.24689 80.441 3.26744C80.3989 3.288 80.3531 3.30003 80.3063 3.30286L41.0039 5.31581H40.9817Z" fill="#17262F"></path><path d="M9.57537 48.7331C9.48037 48.7342 9.38868 48.6983 9.31958 48.6331C9.28528 48.5999 9.258 48.5601 9.23937 48.5162C9.22074 48.4722 9.21114 48.425 9.21114 48.3773C9.21114 48.3295 9.22074 48.2823 9.23937 48.2384C9.258 48.1944 9.28528 48.1547 9.31958 48.1215L13.212 44.2291C13.2452 44.1947 13.2849 44.1675 13.3289 44.1488C13.3728 44.1302 13.4201 44.1206 13.4678 44.1206C13.5155 44.1206 13.5628 44.1302 13.6067 44.1488C13.6507 44.1675 13.6904 44.1947 13.7236 44.2291C13.7576 44.2613 13.7846 44.3001 13.8031 44.3431C13.8216 44.3861 13.8312 44.4324 13.8312 44.4793C13.8312 44.5261 13.8216 44.5724 13.8031 44.6155C13.7846 44.6585 13.7576 44.6973 13.7236 44.7295L9.83116 48.6331C9.76089 48.6964 9.66996 48.732 9.57537 48.7331Z" fill="#17262F"></path><path d="M10.0091 54.9721C9.96118 54.9717 9.91382 54.9617 9.86986 54.9426C9.82591 54.9235 9.78627 54.8957 9.75332 54.8609C9.68923 54.7911 9.65367 54.6998 9.65367 54.6051C9.65367 54.5104 9.68923 54.4191 9.75332 54.3493L18.6503 45.4523C18.6825 45.4183 18.7213 45.3913 18.7643 45.3728C18.8074 45.3543 18.8537 45.3447 18.9005 45.3447C18.9474 45.3447 18.9937 45.3543 19.0367 45.3728C19.0797 45.3913 19.1185 45.4183 19.1507 45.4523C19.1851 45.4855 19.2123 45.5253 19.231 45.5692C19.2496 45.6131 19.2592 45.6604 19.2592 45.7081C19.2592 45.7558 19.2496 45.8031 19.231 45.847C19.2123 45.891 19.1851 45.9307 19.1507 45.9639L10.2538 54.8609C10.2234 54.8959 10.1858 54.924 10.1436 54.9432C10.1014 54.9624 10.0555 54.9722 10.0091 54.9721Z" fill="#17262F"></path><path d="M37.9011 87.5685H16.0813C15.9839 87.5685 15.8906 87.5299 15.8218 87.461C15.7529 87.3922 15.7143 87.2989 15.7143 87.2015C15.7143 87.1538 15.7238 87.1066 15.7424 87.0627C15.761 87.0188 15.7882 86.9791 15.8224 86.9459C15.8566 86.9127 15.8972 86.8867 15.9417 86.8695C15.9861 86.8523 16.0336 86.8441 16.0813 86.8456H37.9011C37.9488 86.8441 37.9963 86.8523 38.0407 86.8695C38.0852 86.8867 38.1257 86.9127 38.16 86.9459C38.1942 86.9791 38.2214 87.0188 38.24 87.0627C38.2586 87.1066 38.2681 87.1538 38.2681 87.2015C38.2681 87.2989 38.2295 87.3922 38.1606 87.461C38.0918 87.5299 37.9985 87.5685 37.9011 87.5685Z" fill="#17262F"></path><path d="M70.6309 79.5835C70.5827 79.5845 70.5349 79.5751 70.4908 79.5559C70.4466 79.5367 70.4072 79.5082 70.3751 79.4723C70.3408 79.4391 70.3135 79.3994 70.2949 79.3554C70.2762 79.3115 70.2666 79.2642 70.2666 79.2165C70.2666 79.1688 70.2762 79.1215 70.2949 79.0776C70.3135 79.0337 70.3408 78.9939 70.3751 78.9607L80.0061 69.3742C80.0369 69.3306 80.0769 69.2943 80.1233 69.2677C80.1697 69.2412 80.2213 69.2251 80.2746 69.2206C80.3278 69.216 80.3814 69.2232 80.4316 69.2415C80.4818 69.2599 80.5274 69.2889 80.5651 69.3267C80.6029 69.3645 80.632 69.4101 80.6503 69.4603C80.6687 69.5105 80.6758 69.5641 80.6713 69.6173C80.6668 69.6706 80.6507 69.7222 80.6241 69.7685C80.5976 69.8149 80.5613 69.8549 80.5176 69.8858L70.8867 79.4723C70.8546 79.5082 70.8151 79.5367 70.7709 79.5559C70.7268 79.5751 70.679 79.5845 70.6309 79.5835Z" fill="#17262F"></path></g><defs><clipPath id="clip0_5678_16347"><rect width="119.397" height="110" fill="white"></rect></clipPath></defs></svg>