<svg xmlns="http://www.w3.org/2000/svg" width="54" height="100" viewBox="0 0 54 100" fill="none"><g clip-path="url(#clip0_5678_6515)"><path d="M38.9142 61.2943H14.9741C14.6639 61.294 14.361 61.2003 14.1048 61.0254C13.8486 60.8504 13.651 60.6024 13.5377 60.3136L0.393866 27.2454C-0.0316735 26.1754 -0.111546 24.999 0.165455 23.8813C0.442455 22.7636 1.06243 21.7607 1.93839 21.0132L11.1283 13.0821C12.1318 12.2196 13.4115 11.7455 14.7347 11.7461H39.1691C40.4903 11.7439 41.768 12.2183 42.7678 13.0821L51.9809 21.0132C52.8549 21.7621 53.4735 22.765 53.7504 23.8821C54.0272 24.9993 53.9486 26.175 53.5254 27.2454L40.397 60.3136C40.2809 60.6099 40.0762 60.8631 39.8108 61.0387C39.5454 61.2142 39.2323 61.3035 38.9142 61.2943ZM16.0399 58.2053H37.8408L50.6449 26.1024C50.8304 25.6302 50.8647 25.1121 50.743 24.6196C50.6212 24.127 50.3494 23.6845 49.9653 23.3532L40.7599 15.4452C40.3154 15.0681 39.752 14.8602 39.1691 14.8583H14.7347C14.1463 14.8552 13.5763 15.0635 13.1284 15.4452L3.93854 23.3532C3.55435 23.6845 3.2826 24.127 3.16085 24.6196C3.03911 25.1121 3.07339 25.6302 3.25895 26.1024L16.0399 58.2053Z" fill="#17262F"></path><path d="M26.9365 99.9998C22.8029 99.9931 18.8183 98.4562 15.7509 95.6855C12.6835 92.9147 10.7507 89.1063 10.3251 84.9948C10.2825 84.576 10.3293 84.1528 10.4624 83.7534C10.5956 83.3541 10.812 82.9875 11.0974 82.678C11.3723 82.3728 11.7082 82.1285 12.0833 81.9609C12.4583 81.7933 12.8644 81.7061 13.2752 81.705H16.7581C17.4667 81.7041 18.1515 81.9604 18.6855 82.4262C19.2195 82.8921 19.5664 83.5358 19.6618 84.238C19.9121 86.0914 20.8565 87.7808 22.3043 88.9649C23.7521 90.1489 25.5953 90.7393 27.4616 90.6168C29.2448 90.4847 30.9212 89.7166 32.1855 88.4522C33.4499 87.1879 34.2181 85.5115 34.3502 83.7283C34.4458 82.2665 34.1038 80.8093 33.368 79.5425C32.6322 78.2758 31.5358 77.2569 30.2186 76.6158C27.8297 75.4162 25.8223 73.5749 24.4214 71.2983C23.0205 69.0217 22.2816 66.3998 22.2874 63.7267V58.2051H31.6164V63.7267C31.5952 64.6553 31.8333 65.5714 32.304 66.3721C32.7746 67.1729 33.4591 67.8266 34.2807 68.2599C37.5969 69.8761 40.2852 72.5442 41.9264 75.8482C43.5675 79.1522 44.0692 82.9064 43.3534 86.5254C42.6375 90.1444 40.7443 93.4248 37.9688 95.8552C35.1934 98.2856 31.6917 99.7293 28.0099 99.9612C27.6547 99.9844 27.2917 99.9998 26.9365 99.9998ZM13.4142 84.8249C13.6811 87.1757 14.5557 89.4166 15.9518 91.3267C17.3479 93.2368 19.2175 94.7504 21.3763 95.7184C23.5352 96.6864 25.909 97.0754 28.2639 96.8472C30.6188 96.619 32.8737 95.7814 34.8065 94.4169C36.7394 93.0523 38.2835 91.2079 39.2869 89.0653C40.2902 86.9226 40.7183 84.5556 40.5288 82.1972C40.3394 79.8388 39.5389 77.5705 38.2064 75.6155C36.8738 73.6605 35.0551 72.0862 32.9292 71.0478C31.5881 70.3606 30.4655 69.3126 29.6878 68.0219C28.9101 66.7312 28.5082 65.249 28.5273 63.7422V61.2941H25.3765V63.7267C25.362 65.8241 25.9325 67.8839 27.0238 69.6751C28.1151 71.4662 29.6841 72.9176 31.5546 73.8665C33.4237 74.7743 34.9797 76.2187 36.0238 78.0152C37.0679 79.8118 37.5526 81.8788 37.416 83.9522C37.2304 86.4845 36.1409 88.8656 34.3463 90.6617C32.5516 92.4578 30.1713 93.5491 27.6392 93.7368C25.0179 93.9031 22.4296 93.0798 20.3862 91.4296C18.3427 89.7794 16.9929 87.4224 16.6036 84.8249H13.4142Z" fill="#17262F"></path><path d="M15.2058 30.9755C14.2218 30.977 13.2595 30.6867 12.4407 30.1411C11.6218 29.5956 10.9831 28.8194 10.6055 27.9107C10.2279 27.0021 10.1283 26.0019 10.3194 25.0366C10.5104 24.0714 10.9834 23.1845 11.6787 22.4882C12.3739 21.7919 13.26 21.3175 14.225 21.1249C15.1899 20.9324 16.1903 21.0305 17.0995 21.4066C18.0087 21.7828 18.7859 22.4203 19.3327 23.2383C19.8796 24.0563 20.1714 25.0182 20.1714 26.0022C20.1714 27.3198 19.6485 28.5837 18.7175 29.5161C17.7865 30.4486 16.5235 30.9735 15.2058 30.9755ZM15.2058 24.1256C14.8325 24.124 14.4671 24.2335 14.156 24.4399C13.845 24.6464 13.6023 24.9406 13.4587 25.2852C13.3151 25.6298 13.2772 26.0094 13.3496 26.3756C13.4221 26.7418 13.6017 27.0783 13.8657 27.3423C14.1297 27.6063 14.4661 27.7859 14.8324 27.8584C15.1986 27.9308 15.5781 27.8928 15.9228 27.7493C16.2674 27.6057 16.5616 27.363 16.7681 27.0519C16.9745 26.7409 17.0839 26.3755 17.0824 26.0022C17.0824 25.7557 17.0339 25.5117 16.9396 25.284C16.8453 25.0563 16.707 24.8495 16.5328 24.6752C16.3585 24.501 16.1516 24.3627 15.924 24.2684C15.6963 24.1741 15.4523 24.1256 15.2058 24.1256Z" fill="#17262F"></path><path d="M38.698 30.9755C37.714 30.977 36.7517 30.6867 35.9328 30.1411C35.1139 29.5956 34.4753 28.8194 34.0977 27.9107C33.7201 27.0021 33.6205 26.0019 33.8115 25.0366C34.0025 24.0714 34.4756 23.1845 35.1708 22.4882C35.866 21.7919 36.7522 21.3175 37.7172 21.1249C38.6821 20.9324 39.6825 21.0305 40.5917 21.4066C41.5009 21.7828 42.2781 22.4203 42.8249 23.2383C43.3717 24.0563 43.6636 25.0182 43.6636 26.0022C43.6616 27.3192 43.138 28.5819 42.2074 29.5139C41.2768 30.4459 40.015 30.9714 38.698 30.9755ZM38.698 24.1256C38.3246 24.124 37.9593 24.2335 37.6482 24.4399C37.3372 24.6464 37.0944 24.9406 36.9509 25.2852C36.8073 25.6298 36.7693 26.0094 36.8418 26.3756C36.9142 26.7418 37.0939 27.0783 37.3579 27.3423C37.6218 27.6063 37.9583 27.7859 38.3245 27.8584C38.6908 27.9308 39.0703 27.8928 39.4149 27.7493C39.7595 27.6057 40.0538 27.363 40.2602 27.0519C40.4667 26.7409 40.5761 26.3755 40.5746 26.0022C40.5725 25.5051 40.3742 25.0289 40.0227 24.6775C39.6712 24.326 39.195 24.1276 38.698 24.1256Z" fill="#17262F"></path><path d="M40.2425 13.2906H37.1534C37.1534 10.585 36.0786 7.99017 34.1655 6.07701C32.2523 4.16385 29.6575 3.08904 26.9519 3.08904C24.2463 3.08904 21.6515 4.16385 19.7383 6.07701C17.8251 7.99017 16.7503 10.585 16.7503 13.2906H13.6613C13.6613 9.76571 15.0615 6.3852 17.554 3.89273C20.0465 1.40026 23.427 0 26.9519 0C30.4768 0 33.8573 1.40026 36.3498 3.89273C38.8422 6.3852 40.2425 9.76571 40.2425 13.2906Z" fill="#17262F"></path></g><defs><clipPath id="clip0_5678_6515"><rect width="53.9038" height="100" fill="white"></rect></clipPath></defs></svg>