<svg xmlns="http://www.w3.org/2000/svg" width="95" height="95" viewBox="0 0 95 95" fill="none"><g clip-path="url(#clip0_5678_33061)"><path d="M49.8876 73.2912C46.083 73.2897 42.3434 72.3045 39.032 70.4312C35.7205 68.5579 32.9498 65.8602 30.9887 62.6C29.0275 59.3398 27.9427 55.6278 27.8396 51.8247C27.7365 48.0215 28.6185 44.2562 30.4 40.8945L31.4525 39.1222L47.8444 11.609C48.0558 11.2546 48.3556 10.9612 48.7144 10.7575C49.0733 10.5537 49.4788 10.4466 49.8914 10.4466C50.3041 10.4466 50.7097 10.5537 51.0685 10.7575C51.4273 10.9612 51.7271 11.2546 51.9385 11.609L69.3365 40.8249C71.0691 44.063 71.966 47.6824 71.946 51.3549C71.9259 55.0274 70.9895 58.6368 69.2216 61.8558C67.4538 65.0748 64.9104 67.8017 61.8221 69.7891C58.7338 71.7766 55.1982 72.9617 51.5361 73.2371C50.9633 73.268 50.4216 73.2912 49.8876 73.2912ZM49.8876 14.5576L33.279 42.4965C31.777 45.361 31.0395 48.5644 31.1377 51.7973C31.2359 55.0301 32.1665 58.1829 33.8396 60.9509C35.5127 63.7188 37.8716 66.0083 40.6883 67.598C43.505 69.1876 46.6842 70.0237 49.9185 70.0253C50.3752 70.0253 50.8318 70.0253 51.2961 69.9711C54.4084 69.7366 57.4132 68.7307 60.0392 67.0441C62.6653 65.3574 64.8299 63.0433 66.3376 60.3105C67.8453 57.5778 68.6485 54.5126 68.6749 51.3917C68.7012 48.2707 67.9498 45.1924 66.4884 42.4346L65.5287 40.8249L49.8876 14.5576Z" fill="#17262F"></path><path d="M42.2489 61.9918C41.9356 61.991 41.6292 61.8996 41.3666 61.7287C35.5157 57.9597 36.189 49.6554 36.22 49.2994C36.259 48.8673 36.468 48.4684 36.8011 48.1905C37.1342 47.9125 37.5641 47.7783 37.9961 47.8173C38.4282 47.8563 38.8271 48.0653 39.105 48.3984C39.383 48.7315 39.5172 49.1614 39.4782 49.5935C39.4782 49.7096 38.9752 56.2957 43.1389 58.9812C43.438 59.1716 43.6671 59.4542 43.7914 59.7863C43.9158 60.1183 43.9286 60.4818 43.8281 60.8219C43.7276 61.1619 43.5191 61.46 43.2342 61.671C42.9493 61.8821 42.6035 61.9947 42.2489 61.9918Z" fill="#17262F"></path><path d="M65.2267 2.72446C59.283 0.541516 52.9413 -0.3456 46.6268 0.122584C40.3122 0.590768 34.1707 2.40343 28.6139 5.43907C23.0571 8.4747 18.2135 12.6632 14.4077 17.7237C10.6019 22.7842 7.92187 28.5998 6.54728 34.7807L3.00268 29.3167C2.8858 29.1368 2.73463 28.9817 2.55781 28.8603C2.38098 28.7388 2.18197 28.6533 1.97212 28.6088C1.76227 28.5642 1.5457 28.5614 1.33477 28.6006C1.12384 28.6397 0.922693 28.72 0.7428 28.8369C0.562908 28.9538 0.407799 29.1049 0.286327 29.2818C0.164856 29.4586 0.0794029 29.6576 0.0348459 29.8675C-0.00971112 30.0773 -0.012499 30.2939 0.0266415 30.5048C0.065782 30.7157 0.146084 30.9169 0.262963 31.0968L6.08292 40.0666V40.1131C6.14084 40.1957 6.20555 40.2734 6.27641 40.3452C6.27641 40.3452 6.27641 40.3452 6.33058 40.3994C6.42487 40.4778 6.52587 40.5477 6.63241 40.6084L6.70981 40.6471L6.97294 40.7477H7.09677H7.2206H7.42956C7.54277 40.7595 7.65689 40.7595 7.77009 40.7477H7.8707L8.1261 40.6548H8.18801L17.3436 35.7713C17.7264 35.566 18.012 35.2171 18.1376 34.8013C18.2631 34.3855 18.2183 33.9368 18.0131 33.554C17.8078 33.1712 17.4589 32.8856 17.0431 32.7601C16.6272 32.6345 16.1786 32.6793 15.7958 32.8845L9.55013 36.2124C10.7286 30.3976 13.1511 24.9066 16.6513 20.116C20.1515 15.3254 24.6465 11.3487 29.8281 8.45871C35.0097 5.5687 40.7551 3.83379 46.6703 3.37301C52.5854 2.91223 58.5302 3.73649 64.0968 5.78923C64.5073 5.93907 64.9605 5.91969 65.3568 5.73536C65.753 5.55104 66.0598 5.21686 66.2096 4.80634C66.3594 4.39582 66.3401 3.94259 66.1557 3.54636C65.9714 3.15013 65.6372 2.84335 65.2267 2.69351V2.72446Z" fill="#17262F"></path><path d="M79.1886 11.075L85.9527 11.1911C86.3858 11.1911 86.8012 11.019 87.1074 10.7128C87.4137 10.4065 87.5857 9.99116 87.5857 9.55807C87.5857 9.12497 87.4137 8.70961 87.1074 8.40337C86.8012 8.09712 86.3858 7.92507 85.9527 7.92507L75.3189 7.73933C74.9084 7.72793 74.5091 7.87384 74.2027 8.14719C73.8962 8.42055 73.7058 8.80068 73.6705 9.2098L72.5947 19.5263C72.5722 19.7398 72.592 19.9556 72.6529 20.1614C72.7139 20.3672 72.8148 20.5589 72.95 20.7257C73.0851 20.8925 73.2518 21.0309 73.4405 21.1332C73.6292 21.2355 73.8362 21.2996 74.0497 21.3218H74.2277C74.629 21.3204 75.0157 21.1713 75.314 20.9029C75.6124 20.6345 75.8015 20.2657 75.8452 19.8668L76.5495 13.0949C81.1812 17.0407 84.8792 21.9655 87.3765 27.5139C89.8738 33.0623 91.1081 39.096 90.9903 45.1794C90.8726 51.2628 89.4058 57.2442 86.6957 62.6918C83.9856 68.1395 80.0999 72.9175 75.3189 76.6811C75.0528 76.8925 74.8589 77.1814 74.764 77.5077C74.6691 77.8341 74.6779 78.1819 74.7892 78.5031C74.9005 78.8242 75.1088 79.1029 75.3853 79.3006C75.6618 79.4983 75.9929 79.6052 76.3328 79.6065C76.7014 79.6069 77.0591 79.4813 77.3466 79.2505C82.4628 75.2257 86.6301 70.1238 89.5527 64.3072C92.4753 58.4906 94.0815 52.1019 94.2573 45.5948C94.4331 39.0876 93.1742 32.6215 90.5699 26.6556C87.9657 20.6897 84.0799 15.3702 79.1886 11.075Z" fill="#17262F"></path><path d="M68.6941 82.1605L59.5927 77.1454C59.4036 77.0223 59.191 76.9397 58.9683 76.9028C58.7457 76.866 58.5178 76.8756 58.2991 76.9313C58.0804 76.9869 57.8756 77.0872 57.6976 77.226C57.5197 77.3647 57.3724 77.5388 57.2651 77.7374C57.1577 77.9359 57.0928 78.1545 57.0742 78.3794C57.0556 78.6043 57.0838 78.8306 57.1571 79.0441C57.2304 79.2575 57.3471 79.4535 57.4999 79.6195C57.6526 79.7856 57.8382 79.9182 58.0448 80.009L63.679 83.1047C57.9004 85.1634 51.7342 85.9029 45.6326 85.2688C39.531 84.6348 33.6486 82.6432 28.4167 79.4403C23.1848 76.2373 18.7361 71.9041 15.3965 66.7583C12.057 61.6126 9.91134 55.7846 9.11691 49.7018C9.06149 49.2718 8.83752 48.8814 8.49426 48.6166C8.151 48.3517 7.71658 48.234 7.28657 48.2894C6.85655 48.3448 6.46616 48.5688 6.20128 48.9121C5.9364 49.2553 5.81872 49.6897 5.87414 50.1198C7.28423 60.7997 12.5238 70.6045 20.6192 77.712C28.7145 84.8194 39.1149 88.7461 49.8876 88.7621C55.0451 88.7709 60.164 87.8724 65.0102 86.1075L62.077 92.6937C61.902 93.09 61.8908 93.5395 62.046 93.944C62.2011 94.3486 62.5099 94.6753 62.9051 94.853C63.1133 94.9508 63.3407 95.0011 63.5707 95C63.8874 94.9998 64.1972 94.9075 64.4624 94.7344C64.7276 94.5613 64.9368 94.3147 65.0644 94.0249L69.4139 84.2579C69.578 83.8816 69.5952 83.4575 69.4619 83.0692C69.3287 82.6809 69.0547 82.3567 68.6941 82.1605Z" fill="#17262F"></path></g><defs><clipPath id="clip0_5678_33061"><rect width="94.2725" height="95" fill="white"></rect></clipPath></defs></svg>