<svg xmlns="http://www.w3.org/2000/svg" width="99" height="90" viewBox="0 0 99 90" fill="none"><g clip-path="url(#clip0_5678_33069)"><path d="M91.7046 41.3844C93.91 41.2087 96.2296 40.4618 97.4158 38.4497C98.191 36.8973 98.5253 35.1619 98.3823 33.4326C98.3823 30.7967 97.6179 28.0729 94.815 27.1942C93.3725 26.737 91.8173 26.7846 90.4055 27.3292C88.9937 27.8738 87.8095 28.8829 87.0477 30.1904C86.5498 27.1679 86.0519 24.1336 85.554 21.0876C85.2465 19.2424 84.939 17.3885 84.6754 15.5433C84.4645 14.2781 84.4294 13.0216 83.0675 12.4153C79.5541 11.024 75.8734 10.0993 72.1195 9.66517C68.684 9.13798 65.2221 8.78652 61.7514 8.602C61.5054 8.602 59.2034 8.48778 59.2034 8.43506V7.44219C59.2034 6.56354 59.2473 5.68489 59.2034 4.80624C59.0908 3.48711 58.4861 2.25861 57.5094 1.36489C56.5326 0.471171 55.2554 -0.0223342 53.9315 -0.0175436H44.5299C43.153 0.000749014 41.8379 0.557046 40.8659 1.53238C39.8938 2.50772 39.342 3.82468 39.3283 5.20163V7.67063C39.3283 7.79364 39.4074 8.32084 39.3283 8.43506C38.1597 8.48778 36.9911 8.55807 35.8137 8.63715C32.5188 8.8656 29.2239 9.19948 25.9553 9.74425C22.5697 10.1721 19.2673 11.105 16.1584 12.512C15.5988 12.76 15.0803 13.0919 14.6207 13.4961C13.6015 14.4626 13.6366 17.0107 13.4345 18.2408L11.4224 30.3837C10.6597 28.9657 9.40846 27.8725 7.90091 27.307C6.39336 26.7414 4.73184 26.742 3.22464 27.3084C0.421751 28.3892 0 31.3854 0 34.0565C0 35.9631 0.3251 37.9928 1.70458 39.4162C2.55023 40.2424 3.60885 40.8174 4.76228 41.0769C5.49564 41.3037 6.26211 41.4047 7.02919 41.3756C7.32793 41.4635 9.00615 42.4827 8.92707 42.7287C7.55638 46.6563 5.81666 50.3642 5.62335 54.5729C5.49277 59.2364 6.01927 63.895 7.18735 68.4116C7.26643 69.1058 7.11706 69.8263 7.18735 70.5204C7.18735 71.0564 7.39822 71.1442 7.18735 71.6451C7.00948 72.01 6.87104 72.393 6.77438 72.7873C6.64578 73.432 6.59563 74.0899 6.62501 74.7467C6.62501 77.5232 8.19779 80.0186 11.0622 80.6161C11.7212 80.7479 12.7404 80.37 12.7404 81.1257V84.1658C12.7404 86.4064 13.0567 88.6206 15.4203 89.6222C16.6855 90.1582 18.2671 89.9649 19.6114 89.9649H25.9465C27.1942 89.9649 28.4682 90.0528 29.7159 89.9649C32.3518 89.754 33.7401 87.4783 33.7401 85.0269C33.7401 84.6491 33.7401 80.7391 33.7401 80.7391H63.2627C63.6933 80.7391 64.5016 80.5018 64.5016 81.0027C64.5016 82.6458 64.3786 84.324 64.5016 85.9583C64.6149 87.0929 65.1574 88.1414 66.0181 88.8894C66.8788 89.6374 67.9927 90.0284 69.1321 89.9825H79.957C81.7143 89.9825 83.4716 89.7804 84.6315 88.2252C85.7913 86.67 85.5101 84.3327 85.5101 82.4349C85.4596 81.8825 85.4596 81.3266 85.5101 80.7742C86.4924 80.8317 87.4779 80.7964 88.4536 80.6688C91.3268 80.1065 92.8468 77.5759 92.8468 74.7994C92.8855 74.006 92.7995 73.2114 92.592 72.4446C92.3987 71.8735 92.0912 71.566 92.2054 70.9773C92.236 70.6617 92.236 70.3439 92.2054 70.0283C92.1957 69.0716 92.2929 68.1167 92.4954 67.1815C93.2276 63.9153 93.6599 60.5889 93.787 57.244C94.0089 53.7962 93.3876 50.3461 91.977 47.1923L90.5008 43.8534L89.8682 42.5178C89.631 42.0258 91.2565 41.4107 91.6694 41.3844C98.5668 40.8396 91.5904 41.3932 91.7046 41.3844ZM89.1916 36.9033C90.4657 36.0246 89.7628 34.3201 90.1318 33.0197C90.2438 32.6054 90.4396 32.2186 90.7071 31.8831C90.9746 31.5476 91.3081 31.2705 91.687 31.0691C92.1966 30.8055 93.6464 30.6561 94.0418 31.2887C94.7008 32.3343 94.7359 35.4711 93.9012 36.5606C93.4321 37.0269 92.8048 37.2997 92.1439 37.325C90.8133 37.3941 89.5196 37.7862 88.3745 38.4673C88.2515 37.4568 88.3833 37.5008 89.1916 36.9033ZM11.194 68.5346C11.1229 67.5096 10.9372 66.4958 10.6404 65.5121C10.3593 64.0887 10.1308 62.6565 9.95509 61.2155C9.47788 58.2139 9.44827 55.1581 9.86723 52.1478C9.96585 51.5503 10.1158 50.9623 10.3153 50.3905C10.4823 49.8985 11.809 50.2148 12.3099 50.2587C13.9529 50.4081 15.596 50.5926 17.2391 50.7859C20.9031 51.2165 24.5582 51.6646 28.2222 52.1039C35.6644 52.9826 43.1592 53.8085 50.6717 53.6679C58.1841 53.5273 65.6087 52.675 73.0948 51.814C76.5303 51.3922 79.957 50.9617 83.3926 50.6014C84.939 50.4345 86.4854 50.2763 88.0318 50.1621C88.9896 50.0918 89.1214 50.0127 89.3762 50.9265C89.5725 51.649 89.7077 52.3868 89.7803 53.1319C90.0441 56.1842 89.9201 59.2576 89.4113 62.2787C89.2356 63.5439 89.0159 64.8004 88.7523 66.0569C88.6469 66.5313 88.5414 67.0058 88.4272 67.4803C88.2603 68.148 88.5766 68.5259 87.8649 68.5259H11.194V68.5346ZM86.3448 46.2873C74.0437 47.3856 61.8393 49.591 49.4855 49.6525C36.9033 49.7228 24.4704 47.1747 11.9496 46.1906C12.0902 45.7864 13.0128 42.4827 13.2412 42.4827H85.3959C85.7737 42.4827 87.0389 45.8216 87.2235 46.2082L86.3448 46.2873ZM19.3303 38.4848C20.2441 32.4163 21.1608 26.3478 22.0804 20.2792C22.1771 19.6203 27.0712 19.4621 27.5984 19.4006C33.4765 18.9261 39.3986 18.8646 45.2856 18.8558C54.5289 18.8558 63.8866 18.5659 73.0684 19.6466C73.9534 19.7364 74.8332 19.8713 75.7044 20.0508C76.3282 20.1914 76.1964 21.1403 76.2843 21.7202C76.8701 25.639 77.4558 29.5578 78.0416 33.4766C78.2964 35.1372 78.5424 36.7978 78.7972 38.4673H19.3303V38.4848ZM43.3262 8.2154C43.3262 7.23131 42.9044 5.11377 43.6776 4.34934C44.4508 3.58492 46.1379 3.99788 46.9814 3.99788H52.2532C53.2285 3.99788 55.2319 3.67278 55.2319 5.19284C55.2965 6.20049 55.273 7.21185 55.1616 8.2154H43.3262ZM17.8454 16.1232C19.5193 15.312 21.2914 14.7213 23.1173 14.3659C27.7455 13.3762 32.4476 12.7708 37.1756 12.5559C44.8807 12.1078 52.6054 12.1078 60.3105 12.5559C65.3623 12.754 70.3914 13.3415 75.3529 14.3132C76.504 14.5592 77.6374 14.8316 78.7621 15.1919C79.0784 15.2885 80.5721 15.5873 80.6248 15.9211C80.9939 18.1353 81.3541 20.3583 81.7231 22.5813C82.6018 27.9001 83.4804 33.2188 84.3591 38.5376C84.1746 38.5376 82.8917 38.6166 82.8742 38.5376L82.716 37.5008C82.47 35.884 82.2269 34.2673 81.9867 32.6506C81.4009 28.6791 80.8152 24.7076 80.2294 20.7361C80.1064 19.9278 80.1591 18.5219 79.6934 17.7839C78.9905 16.668 77.1541 16.3868 75.9943 16.1584C71.8987 15.4861 67.7558 15.1423 63.6054 15.1304C58.1666 14.9546 52.7277 14.9722 47.2889 14.9722C41.3756 14.9722 35.4535 14.9722 29.5577 15.3588C26.5703 15.5433 23.4072 15.6663 20.4989 16.5977C17.9508 17.4324 18.2583 19.4182 17.8629 21.7729L16.1496 33.0197C15.9299 34.4782 15.7015 35.9368 15.4818 37.4129C15.3061 38.5727 15.4818 38.4936 14.1638 38.4936L17.8454 16.1232ZM6.83589 37.3778C5.16646 37.2284 4.13844 36.7276 4.02421 34.9439C3.86006 33.8021 3.93183 32.6389 4.23509 31.526C4.5514 30.7264 5.70243 30.8845 6.38778 30.9548C7.11434 31.2991 7.70561 31.8754 8.06835 32.593C8.43109 33.3105 8.54464 34.1283 8.3911 34.9175C8.33642 35.3625 8.41492 35.8137 8.61667 36.2141C8.81843 36.6145 9.13437 36.9461 9.52455 37.1669C10.2538 37.6853 10.245 37.6501 10.1045 38.5376C9.16822 37.8092 8.02186 37.4024 6.83589 37.3778C7.90784 37.3162 4.01543 37.1317 6.83589 37.3778ZM29.6808 85.5804C29.6808 86.38 20.7098 85.967 19.7696 85.967C19.2951 85.967 16.6768 86.3361 16.6768 85.5101V80.7391C16.6768 80.7391 25.516 80.7391 26.2277 80.7391H28.6439C28.8109 80.7391 29.5753 80.6161 29.7071 80.7391C29.8389 80.8621 29.7071 82.3909 29.7071 82.6457V85.5804H29.6808ZM81.4683 85.5804C81.4683 86.38 72.5061 85.967 71.5572 85.967C71.0827 85.967 68.4643 86.3361 68.4643 85.5101V80.7391C68.4643 80.7391 77.3123 80.7391 78.024 80.7391H80.4052C80.5721 80.7391 81.3365 80.6161 81.4683 80.7391C81.6001 80.8621 81.4683 82.3909 81.4683 82.6457V85.5804ZM88.8929 75.2124C88.8929 77.3651 85.2817 76.7149 83.9461 76.7149H13.5312C12.6525 76.7149 11.5279 76.917 10.8952 76.1525C10.636 75.6831 10.5001 75.1556 10.5001 74.6193C10.5001 74.083 10.636 73.5555 10.8952 73.086C11.6157 72.2074 13.5312 72.5237 14.5416 72.5237H87.3201C88.9368 72.5237 88.9193 74.0174 88.9193 75.2124H88.8929Z" fill="#17262F"></path><path d="M37.203 66.2589L37.2031 66.2588L37.1967 66.2536C36.946 66.052 36.7704 65.7482 36.6555 65.3529C36.5403 64.957 36.4918 64.4893 36.4816 63.9871C36.4714 63.4861 36.4995 62.9652 36.5309 62.4646C36.5351 62.397 36.5395 62.3296 36.5437 62.2627C36.5709 61.8394 36.597 61.4318 36.597 61.0837C36.597 60.9804 36.5964 60.8758 36.5957 60.7706C36.5915 60.0504 36.5871 59.2979 36.7786 58.6894C36.8852 58.3509 37.0461 58.0826 37.2827 57.8973C37.517 57.7136 37.8554 57.588 38.3618 57.588H61.2067C61.668 57.588 61.9816 57.7037 62.2027 57.874C62.4263 58.0461 62.5832 58.2954 62.6912 58.61C62.9024 59.2252 62.9018 60.0064 62.9013 60.73C62.9012 60.766 62.9012 60.802 62.9012 60.8377V64.941C62.9012 65.509 62.7222 65.8706 62.458 66.1153C62.1833 66.3696 61.7846 66.5271 61.2973 66.615C60.8123 66.7025 60.2695 66.7159 59.7336 66.7057C59.5058 66.7014 59.2698 66.6923 59.042 66.6835C58.7561 66.6724 58.483 66.6619 58.2544 66.6619H39.917C39.7368 66.6619 39.5592 66.6674 39.3824 66.6729C39.0612 66.6829 38.743 66.6928 38.4187 66.6693C37.9306 66.6338 37.5142 66.5236 37.203 66.2589ZM59.2033 63.264H59.5033V62.964C59.5033 62.8815 59.5177 62.7535 59.5372 62.5794L59.5399 62.5549C59.5596 62.3793 59.582 62.1718 59.5867 61.9751C59.5913 61.7859 59.5813 61.569 59.5139 61.3895C59.4788 61.2961 59.4218 61.1951 59.3264 61.1168C59.2262 61.0345 59.1044 60.9946 58.9749 60.9946H40.6023C40.2802 60.9946 40.0916 61.2261 39.9995 61.4339C39.9069 61.6431 39.8733 61.8984 39.8751 62.1317C39.877 62.3666 39.915 62.6135 39.9931 62.8127C40.0319 62.9117 40.0871 63.0155 40.1669 63.0993C40.2494 63.1859 40.3727 63.264 40.5321 63.264H59.2033Z" fill="#17262F" stroke="white" stroke-width="0.6"></path><path d="M74.6956 54.8531L74.7026 54.8505L74.7094 54.8475C74.8491 54.786 74.9909 54.7229 75.1347 54.6591C75.8711 54.332 76.6582 53.9823 77.4611 53.6969C78.421 53.3556 79.3787 53.1156 80.2646 53.1156C82.5443 53.1156 84.2658 54.8474 84.9486 56.987C85.6307 59.1243 85.2369 61.5455 83.4251 62.8832C81.8363 63.89 80.0376 64.519 78.1674 64.7218L78.1503 64.7236L78.1335 64.7275C76.3307 65.1359 74.4953 65.3833 72.6488 65.4669C70.6435 65.4655 68.5881 64.8245 67.9241 62.9073C67.662 62.025 67.6669 61.0847 67.9381 60.205C68.21 59.3233 68.7372 58.5421 69.4531 57.96L69.4532 57.9601L69.4582 57.9558C71.0153 56.6319 72.7864 55.5827 74.6956 54.8531ZM76.4108 61.5996L76.4108 61.5996L76.4134 61.5992C76.6058 61.5666 76.8611 61.5366 77.1648 61.5009C77.2978 61.4852 77.4402 61.4685 77.5906 61.45C78.0758 61.3902 78.6293 61.3134 79.1696 61.1981C79.7078 61.0831 80.2466 60.9271 80.6977 60.7035C81.1452 60.4817 81.5419 60.1756 81.741 59.7414L81.7467 59.729L81.7512 59.7162C81.9109 59.2639 81.883 58.5858 81.7238 57.9991C81.6426 57.6997 81.5223 57.4047 81.3587 57.1583C81.1961 56.9136 80.9771 56.6972 80.6927 56.5932L80.6916 56.5928C80.357 56.4719 79.9671 56.4865 79.5857 56.5574C79.199 56.6292 78.7869 56.7655 78.3888 56.922C77.9894 57.0789 77.5945 57.26 77.2424 57.425C77.1719 57.4581 77.1034 57.4903 77.0371 57.5215C76.7677 57.6484 76.5342 57.7584 76.3452 57.8367L76.3435 57.8374C76.1683 57.9113 75.9728 57.9906 75.7634 58.0755C75.1207 58.3362 74.3459 58.6505 73.6181 59.027C72.6587 59.5233 71.7126 60.1601 71.2275 60.9944L71.2275 60.9944L71.2242 61.0003C71.1403 61.1524 71.0888 61.3252 71.1267 61.5019C71.1662 61.6858 71.2881 61.8088 71.4152 61.8853C71.6472 62.025 71.9837 62.0639 72.2791 62.0743C72.5917 62.0854 72.9298 62.0653 73.2091 62.0436C73.3157 62.0353 73.4101 62.0271 73.4914 62.0201C73.6364 62.0077 73.74 61.9988 73.7977 61.9988H73.813L73.8282 61.9972C74.447 61.9341 75.0535 61.8298 75.6617 61.7253C75.9108 61.6825 76.1602 61.6397 76.4108 61.5996Z" fill="#17262F" stroke="white" stroke-width="0.6"></path><path d="M19.2877 53.3138L19.6742 53.4301V53.4046C21.3452 53.9142 23.1625 54.508 24.8544 55.3045C26.6785 56.1634 28.3357 57.2487 29.4996 58.6972L29.4996 58.6972L29.5025 58.7007C30.0826 59.4009 30.4262 60.2669 30.4837 61.1744C30.5411 62.0793 30.3112 62.9791 29.8271 63.7455C29.2113 64.6068 28.3061 65.067 27.2799 65.2857C26.2472 65.5057 25.1124 65.476 24.0787 65.3718L24.0785 65.3717C23.8962 65.3535 23.7095 65.3353 23.5191 65.3168C22.0016 65.1689 20.2465 64.9978 18.5928 64.602C16.7277 64.1555 15.047 63.4348 13.9978 62.1907L13.9978 62.1907L13.9959 62.1886C12.4895 60.4359 12.5915 57.8594 13.7185 55.8731C14.842 53.893 16.9224 52.6017 19.2877 53.3138ZM25.5139 62.0689L25.5139 62.0691H25.5247H25.5423C25.7524 62.0691 25.9754 62.0613 26.179 62.0342C26.375 62.0081 26.5871 61.9601 26.7522 61.8591C26.8383 61.8064 26.9243 61.7316 26.9825 61.6257C27.0429 61.5159 27.0617 61.3937 27.044 61.2704C27.0114 61.0438 26.8576 60.8219 26.6453 60.6026L26.6397 60.5968L26.6337 60.5914C26.0179 60.0202 25.3252 59.5377 24.576 59.1581C24.5533 59.1454 24.5289 59.1319 24.5029 59.1174C23.8563 58.757 22.1994 57.8336 20.6009 57.2126C19.7712 56.8902 18.9294 56.638 18.2414 56.6004C17.8971 56.5816 17.5648 56.6148 17.2859 56.742C16.9951 56.8747 16.7768 57.1038 16.6719 57.4345C16.3563 58.4304 16.2871 59.212 16.6383 59.8146C16.9866 60.4123 17.6923 60.7348 18.6366 60.9779C20.8765 61.6182 23.1858 61.9846 25.5139 62.0689Z" fill="#17262F" stroke="white" stroke-width="0.6"></path></g><defs><clipPath id="clip0_5678_33069"><rect width="98.3823" height="90" fill="white"></rect></clipPath></defs></svg>