<svg xmlns="http://www.w3.org/2000/svg" width="62" height="90" viewBox="0 0 62 90" fill="none"><g clip-path="url(#clip0_5678_32881)"><path d="M57.3261 9.95457H44.829V7.08492C44.829 6.6406 44.653 6.21436 44.3395 5.89949C44.0261 5.58461 43.6006 5.40672 43.1563 5.40476H38.7849C37.9151 2.30464 34.5399 0 30.57 0C26.6 0 23.262 2.30464 22.3922 5.40476H17.9911C17.5526 5.4145 17.1355 5.59604 16.8296 5.91029C16.5237 6.22454 16.3535 6.64636 16.3555 7.08492V9.95457H3.82125C2.80779 9.95457 1.83584 10.3572 1.11922 11.0738C0.402594 11.7904 0 12.7624 0 13.7758L0 86.1787C0 87.1922 0.402594 88.1642 1.11922 88.8808C1.83584 89.5974 2.80779 90 3.82125 90H57.3484C58.3613 89.998 59.3321 89.5948 60.0483 88.8786C60.7645 88.1624 61.1677 87.1916 61.1697 86.1787V13.7758C61.1687 13.2724 61.0685 12.7741 60.8747 12.3095C60.6809 11.8449 60.3974 11.423 60.0404 11.0681C59.6834 10.7131 59.2599 10.4321 58.7941 10.241C58.3284 10.05 57.8295 9.95261 57.3261 9.95457ZM19.6638 8.75764H23.7899C24.2335 8.75764 24.659 8.58141 24.9727 8.26771C25.2864 7.95401 25.4626 7.52855 25.4626 7.08492C25.4626 5.06278 27.797 3.36775 30.5551 3.36775C33.3132 3.36775 35.6848 5.06278 35.6848 7.08492C35.6848 7.52855 35.861 7.95401 36.1747 8.26771C36.4884 8.58141 36.9139 8.75764 37.3575 8.75764H41.491V15.6121H19.6638V8.75764ZM57.7945 86.1787C57.7945 86.303 57.7451 86.4221 57.6573 86.5099C57.5695 86.5978 57.4503 86.6471 57.3261 86.6471H3.79894C3.67473 86.6471 3.5556 86.5978 3.46776 86.5099C3.37993 86.4221 3.33058 86.303 3.33058 86.1787V13.7758C3.33058 13.6516 3.37993 13.5325 3.46776 13.4446C3.5556 13.3568 3.67473 13.3075 3.79894 13.3075H16.3555V17.2625C16.3545 17.4828 16.3971 17.7011 16.4807 17.9049C16.5643 18.1087 16.6874 18.294 16.8428 18.4501C16.9982 18.6062 17.183 18.7301 17.3864 18.8146C17.5898 18.8992 17.808 18.9427 18.0283 18.9427H43.1563C43.6006 18.9407 44.0261 18.7628 44.3395 18.4479C44.653 18.1331 44.829 17.7068 44.829 17.2625V13.3075H57.3261C57.4503 13.3075 57.5695 13.3568 57.6573 13.4446C57.7451 13.5325 57.7945 13.6516 57.7945 13.7758V86.1787Z" fill="#17262F"></path><path d="M43.1563 53.661H17.9911C17.5658 53.6327 17.1671 53.4437 16.8759 53.1324C16.5846 52.8212 16.4226 52.4108 16.4226 51.9846C16.4226 51.5583 16.5846 51.1479 16.8759 50.8367C17.1671 50.5254 17.5658 50.3364 17.9911 50.3081H43.1563C43.5816 50.3364 43.9803 50.5254 44.2715 50.8367C44.5627 51.1479 44.7247 51.5583 44.7247 51.9846C44.7247 52.4108 44.5627 52.8212 44.2715 53.1324C43.9803 53.4437 43.5816 53.6327 43.1563 53.661Z" fill="#17262F"></path><path d="M43.1563 59.995H17.9911C17.5658 59.9667 17.1671 59.7778 16.8759 59.4665C16.5846 59.1552 16.4226 58.7449 16.4226 58.3186C16.4226 57.8923 16.5846 57.482 16.8759 57.1707C17.1671 56.8594 17.5658 56.6705 17.9911 56.6422H43.1563C43.5816 56.6705 43.9803 56.8594 44.2715 57.1707C44.5627 57.482 44.7247 57.8923 44.7247 58.3186C44.7247 58.7449 44.5627 59.1552 44.2715 59.4665C43.9803 59.7778 43.5816 59.9667 43.1563 59.995Z" fill="#17262F"></path><path d="M43.1563 66.3291H17.9911C17.5658 66.3008 17.1671 66.1118 16.8759 65.8005C16.5846 65.4893 16.4226 65.0789 16.4226 64.6527C16.4226 64.2264 16.5846 63.8161 16.8759 63.5048C17.1671 63.1935 17.5658 63.0046 17.9911 62.9762H43.1563C43.5816 63.0046 43.9803 63.1935 44.2715 63.5048C44.5627 63.8161 44.7247 64.2264 44.7247 64.6527C44.7247 65.0789 44.5627 65.4893 44.2715 65.8005C43.9803 66.1118 43.5816 66.3008 43.1563 66.3291Z" fill="#17262F"></path><path d="M43.1563 72.6631H17.9911C17.5658 72.6348 17.1671 72.4459 16.8759 72.1346C16.5846 71.8233 16.4226 71.413 16.4226 70.9867C16.4226 70.5604 16.5846 70.1501 16.8759 69.8388C17.1671 69.5275 17.5658 69.3386 17.9911 69.3103H43.1563C43.5816 69.3386 43.9803 69.5275 44.2715 69.8388C44.5627 70.1501 44.7247 70.5604 44.7247 70.9867C44.7247 71.413 44.5627 71.8233 44.2715 72.1346C43.9803 72.4459 43.5816 72.6348 43.1563 72.6631Z" fill="#17262F"></path><path d="M38.77 30.0496H35.0008V26.2804C34.9989 25.5869 34.7225 24.9224 34.2322 24.4321C33.7419 23.9418 33.0774 23.6654 32.3839 23.6635H28.7634C28.07 23.6654 27.4055 23.9418 26.9152 24.4321C26.4248 24.9224 26.1485 25.5869 26.1465 26.2804V30.0496H22.3773C21.6839 30.0515 21.0194 30.3279 20.5291 30.8182C20.0388 31.3085 19.7624 31.973 19.7605 32.6664V36.2944C19.7624 36.9878 20.0388 37.6523 20.5291 38.1426C21.0194 38.633 21.6839 38.9093 22.3773 38.9113H26.1465V42.6805C26.1485 43.3739 26.4248 44.0384 26.9152 44.5287C27.4055 45.0191 28.07 45.2954 28.7634 45.2974H32.3839C33.0774 45.2954 33.7419 45.0191 34.2322 44.5287C34.7225 44.0384 34.9989 43.3739 35.0008 42.6805V38.9113H38.77C39.4635 38.9093 40.1279 38.633 40.6183 38.1426C41.1086 37.6523 41.385 36.9878 41.3869 36.2944V32.6664C41.385 31.973 41.1086 31.3085 40.6183 30.8182C40.1279 30.3279 39.4635 30.0515 38.77 30.0496ZM38.0266 35.5584H33.3207C32.877 35.5584 32.4516 35.7346 32.1379 36.0483C31.8242 36.362 31.6479 36.7875 31.6479 37.2311V41.9445H29.4994V37.2311C29.4994 36.7875 29.3232 36.362 29.0095 36.0483C28.6958 35.7346 28.2703 35.5584 27.8267 35.5584H23.1133V33.4024H27.8267C28.271 33.4005 28.6965 33.2226 29.01 32.9077C29.3234 32.5928 29.4994 32.1666 29.4994 31.7223V27.0164H31.6479V31.7223C31.647 31.9426 31.6895 32.1609 31.7731 32.3647C31.8568 32.5685 31.9798 32.7538 32.1352 32.9099C32.2907 33.066 32.4754 33.1899 32.6788 33.2744C32.8823 33.3589 33.1004 33.4024 33.3207 33.4024H38.034L38.0266 35.5584Z" fill="#17262F"></path></g><defs><clipPath id="clip0_5678_32881"><rect width="61.1474" height="90" fill="white"></rect></clipPath></defs></svg>