<svg xmlns="http://www.w3.org/2000/svg" width="71" height="85" viewBox="0 0 71 85" fill="none"><g clip-path="url(#clip0_5678_6366)"><path d="M28.2176 24.2419H1.36152C1.00043 24.2419 0.654117 24.0985 0.398781 23.8432C0.143446 23.5878 0 23.2415 0 22.8804V19.4766C0.000654776 19.2174 0.0753167 18.9637 0.215207 18.7454C0.355098 18.5271 0.554402 18.3533 0.789684 18.2444L1.83125 17.7543C1.62021 13.9897 2.88643 7.78792 9.15625 5.82052C9.2885 5.77944 9.42624 5.75878 9.56471 5.75925H12.4716V8.4823H9.74852C3.58081 10.5859 4.58153 18.0674 4.62918 18.3806C4.67091 18.6707 4.61793 18.9665 4.47811 19.224C4.33829 19.4816 4.1191 19.6872 3.85312 19.8102L2.72305 20.3412V21.5189H26.8561V20.3412L25.7192 19.817C25.4532 19.6925 25.2346 19.4854 25.096 19.2266C24.9573 18.9677 24.9061 18.6709 24.9499 18.3806C24.9908 18.0606 25.9643 10.5654 19.7966 8.47549H18.1627V5.75244H20.0144C20.1528 5.75279 20.2904 5.77343 20.4229 5.81371C26.6927 7.78111 27.9521 13.9829 27.7411 17.7475L28.7894 18.2376C29.0247 18.3465 29.224 18.5203 29.3639 18.7386C29.5038 18.9569 29.5785 19.2105 29.5791 19.4698V22.8736C29.58 23.053 29.5455 23.2308 29.4775 23.3967C29.4094 23.5627 29.3093 23.7136 29.1828 23.8408C29.0562 23.9679 28.9058 24.0688 28.7402 24.1377C28.5746 24.2065 28.397 24.242 28.2176 24.2419Z" fill="#17262F"></path><path d="M19.5243 10.8924H16.8012V6.16787H12.349V10.8924H9.62598V4.80635C9.62598 4.44525 9.76942 4.09894 10.0248 3.84361C10.2801 3.58827 10.6264 3.44482 10.9875 3.44482H18.1627C18.5238 3.44482 18.8701 3.58827 19.1255 3.84361C19.3808 4.09894 19.5243 4.44525 19.5243 4.80635V10.8924Z" fill="#17262F"></path><path d="M15.0517 37.02C13.2857 37.0124 11.5465 36.5878 9.97568 35.7808C8.4049 34.9737 7.04696 33.8071 6.01248 32.3758C4.978 30.9445 4.29624 29.2891 4.02274 27.5444C3.74923 25.7997 3.89171 24.0151 4.43857 22.3359L7.02547 23.1801C6.63688 24.3433 6.506 25.5772 6.64192 26.7961C6.77784 28.0149 7.1773 29.1897 7.81258 30.2387C8.44787 31.2878 9.30378 32.1861 10.3209 32.8713C11.3381 33.5566 12.4921 34.0123 13.703 34.2069C14.9139 34.4016 16.1527 34.3305 17.3333 33.9985C18.514 33.6666 19.6083 33.0818 20.5403 32.2846C21.4724 31.4875 22.2199 30.4972 22.7309 29.3823C23.242 28.2674 23.5044 27.0547 23.4999 25.8282C23.4993 24.9294 23.3593 24.036 23.0847 23.1801L25.6716 22.3359C26.2186 24.0157 26.361 25.8009 26.0871 27.5461C25.8132 29.2913 25.1309 30.9471 24.0956 32.3785C23.0604 33.8099 21.7016 34.9765 20.1299 35.7831C18.5582 36.5897 16.8182 37.0135 15.0517 37.02Z" fill="#17262F"></path><path d="M27.9112 68.1306H16.2362C16.0305 68.1307 15.8275 68.0842 15.6424 67.9946C15.4573 67.905 15.2949 67.7746 15.1674 67.6132C15.0389 67.4502 14.9494 67.2599 14.9058 67.057C14.8621 66.854 14.8654 66.6438 14.9155 66.4423L18.5235 51.7379C18.5955 51.4403 18.7656 51.1756 19.0065 50.9866C19.2473 50.7977 19.5449 50.6954 19.851 50.6963H31.5397C31.7462 50.6965 31.95 50.7436 32.1356 50.8341C32.3212 50.9247 32.4838 51.0563 32.611 51.2189C32.7383 51.3816 32.8269 51.5711 32.8701 51.773C32.9133 51.975 32.9099 52.1841 32.8604 52.3846L29.2728 67.0959C29.1982 67.3979 29.0224 67.6654 28.7747 67.8537C28.527 68.0419 28.2223 68.1397 27.9112 68.1306ZM17.9585 65.4076H26.8561L28.1835 60.0023L29.8038 53.4057H20.9538L17.9585 65.4076Z" fill="#17262F"></path><path d="M24.7866 66.769H22.0635V82.2155H24.7866V66.769Z" fill="#17262F"></path><path d="M14.4254 60.7714H7.09356C5.22057 60.766 3.42603 60.0187 2.1029 58.693C0.779761 57.3673 0.0358508 55.5713 0.0340576 53.6983V45.8832C0.0340498 44.009 0.777165 42.2113 2.1005 40.8841C3.42383 39.5569 5.21939 38.8086 7.09356 38.8032H23.0098C24.8845 38.8068 26.6811 39.5546 28.0048 40.8821C29.3286 42.2097 30.0711 44.0084 30.0693 45.8832V49.1372H27.3462V45.8832C27.348 45.3122 27.2372 44.7465 27.0202 44.2185C26.8032 43.6904 26.4841 43.2103 26.0814 42.8056C25.6786 42.4009 25.2 42.0797 24.6729 41.8601C24.1459 41.6406 23.5807 41.5272 23.0098 41.5263H7.09356C5.94103 41.5299 4.83704 41.9907 4.02399 42.8076C3.21094 43.6245 2.7553 44.7306 2.75711 45.8832V53.6983C2.7571 54.8497 3.21354 55.9541 4.0264 56.7695C4.83925 57.5849 5.94221 58.0448 7.09356 58.0484H14.4254V60.7714Z" fill="#17262F"></path><path d="M14.4254 54.822H11.5185C10.1385 54.8202 8.81562 54.2707 7.84044 53.2942C6.86525 52.3178 6.3175 50.9942 6.3175 49.6141V46.7686H9.04055V49.6141C9.04055 50.272 9.30141 50.903 9.76592 51.3687C10.2304 51.8345 10.8607 52.0971 11.5185 52.0989H14.4254V54.822Z" fill="#17262F"></path><path d="M24.2964 46.7686H21.5734V49.0083H24.2964V46.7686Z" fill="#17262F"></path><path d="M8.45504 59.4102H5.73199V82.2157H8.45504V59.4102Z" fill="#17262F"></path><path d="M16.4132 72.2085H13.6901V82.2157H16.4132V72.2085Z" fill="#17262F"></path><path d="M57.4291 26.4681C54.8117 26.4681 52.253 25.6919 50.0767 24.2377C47.9003 22.7835 46.2041 20.7167 45.2025 18.2985C44.2008 15.8803 43.9387 13.2193 44.4494 10.6522C44.96 8.08505 46.2204 5.72697 48.0712 3.87616C49.922 2.02535 52.2801 0.764932 54.8473 0.254294C57.4144 -0.256344 60.0753 0.00573404 62.4935 1.00739C64.9117 2.00904 66.9786 3.70528 68.4328 5.8816C69.887 8.05792 70.6631 10.6166 70.6631 13.234C70.6595 16.7428 69.2641 20.1068 66.783 22.5879C64.3019 25.069 60.9379 26.4644 57.4291 26.4681ZM57.4291 2.72306C55.3502 2.72306 53.318 3.33951 51.5895 4.49447C49.861 5.64943 48.5138 7.29102 47.7182 9.21165C46.9227 11.1323 46.7145 13.2457 47.1201 15.2846C47.5257 17.3235 48.5267 19.1964 49.9967 20.6664C51.4667 22.1364 53.3396 23.1375 55.3785 23.543C57.4174 23.9486 59.5308 23.7405 61.4515 22.9449C63.3721 22.1493 65.0137 20.8021 66.1687 19.0736C67.3236 17.3451 67.9401 15.3129 67.9401 13.234C67.9365 10.4475 66.8279 7.77604 64.8575 5.80563C62.8871 3.83522 60.2157 2.72666 57.4291 2.72306Z" fill="#17262F"></path><path d="M54.2976 20.3273L49.2668 15.2897L51.1933 13.3699L54.2976 16.4742L63.6649 7.10693L65.5915 9.03349L54.2976 20.3273Z" fill="#17262F"></path><path d="M57.4291 55.7342C54.8117 55.7342 52.253 54.958 50.0767 53.5038C47.9003 52.0497 46.2041 49.9828 45.2025 47.5646C44.2008 45.1464 43.9387 42.4855 44.4494 39.9183C44.96 37.3512 46.2204 34.9931 48.0712 33.1423C49.922 31.2915 52.2801 30.031 54.8473 29.5204C57.4144 29.0098 60.0753 29.2718 62.4935 30.2735C64.9117 31.2752 66.9786 32.9714 68.4328 35.1477C69.887 37.324 70.6631 39.8827 70.6631 42.5001C70.6595 46.0089 69.2641 49.3729 66.783 51.854C64.3019 54.3351 60.9379 55.7306 57.4291 55.7342ZM57.4291 31.9892C55.3502 31.9892 53.318 32.6056 51.5895 33.7606C49.861 34.9155 48.5138 36.5571 47.7182 38.4778C46.9227 40.3984 46.7145 42.5118 47.1201 44.5507C47.5257 46.5897 48.5267 48.4625 49.9967 49.9325C51.4667 51.4025 53.3396 52.4036 55.3785 52.8091C57.4174 53.2147 59.5308 53.0066 61.4515 52.211C63.3721 51.4155 65.0137 50.0682 66.1687 48.3397C67.3236 46.6112 67.9401 44.579 67.9401 42.5001C67.9347 39.7147 66.8253 37.0451 64.8551 35.0761C62.8849 33.1072 60.2145 31.9996 57.4291 31.996V31.9892Z" fill="#17262F"></path><path d="M54.2976 49.5866L49.2668 44.5558L51.1933 42.6293L54.2976 45.7403L63.6649 36.373L65.5915 38.2996L54.2976 49.5866Z" fill="#17262F"></path><path d="M57.4291 85.0002C54.81 85.0016 52.2494 84.2261 50.071 82.772C47.8927 81.3179 46.1945 79.2505 45.1913 76.8312C44.1881 74.4118 43.9249 71.7493 44.4351 69.1804C44.9452 66.6115 46.2057 64.2516 48.0572 62.3991C49.9087 60.5467 52.268 59.2849 54.8366 58.7735C57.4053 58.262 60.0679 58.5238 62.4878 59.5258C64.9076 60.5278 66.9759 62.2249 68.4312 64.4025C69.8864 66.5801 70.6631 69.1403 70.6631 71.7594C70.6595 75.2688 69.2643 78.6335 66.7834 81.1157C64.3025 83.5979 60.9385 84.9948 57.4291 85.0002ZM57.4291 61.2484C55.3483 61.2471 53.3139 61.863 51.5832 63.0181C49.8525 64.1733 48.5033 65.8159 47.7064 67.7381C46.9095 69.6602 46.7007 71.7756 47.1063 73.8164C47.5119 75.8573 48.5138 77.732 49.9851 79.2034C51.4564 80.6747 53.3312 81.6766 55.372 82.0822C57.4129 82.4878 59.5283 82.279 61.4504 81.4821C63.3726 80.6851 65.0152 79.336 66.1703 77.6053C67.3255 75.8746 67.9414 73.8402 67.9401 71.7594C67.9311 68.9764 66.8201 66.3102 64.8503 64.3442C62.8805 62.3782 60.2122 61.2724 57.4291 61.2688V61.2484Z" fill="#17262F"></path><path d="M54.2976 78.8527L49.2668 73.8219L51.1933 71.8953L54.2976 74.9996L63.6649 65.6323L65.5915 67.5589L54.2976 78.8527Z" fill="#17262F"></path></g><defs><clipPath id="clip0_5678_6366"><rect width="70.6631" height="85" fill="white"></rect></clipPath></defs></svg>