<svg xmlns="http://www.w3.org/2000/svg" width="88" height="85" viewBox="0 0 88 85" fill="none"><g clip-path="url(#clip0_5678_33189)"><path d="M62.927 32.1679C62.6474 32.1688 62.3724 32.0977 62.1284 31.9614C61.8843 31.825 61.6795 31.6281 61.5338 31.3896C59.6469 28.3598 57.0447 25.8398 53.9559 24.0512C50.8671 22.2625 47.3863 21.2599 43.8193 21.1314C40.8995 21.0051 37.985 21.482 35.2578 22.5324L37.3281 26.2839C37.4842 26.5739 37.5494 26.9041 37.5154 27.2317C37.4814 27.5593 37.3497 27.869 37.1374 28.1208C36.925 28.3726 36.6419 28.5547 36.3248 28.6435C36.0077 28.7323 35.6712 28.7237 35.359 28.6188L18.236 22.8281C17.8663 22.7058 17.5518 22.4566 17.3481 22.1248C17.1445 21.7929 17.0647 21.3997 17.123 21.0147L20.2363 1.39329C20.2868 1.0527 20.4431 0.736599 20.683 0.489676C20.923 0.242752 21.2345 0.0774949 21.5735 0.0172656C21.9125 -0.0429637 22.2618 0.00488191 22.5722 0.154039C22.8825 0.303195 23.1381 0.546118 23.3028 0.848465L25.8012 5.39384C31.6692 2.68001 38.0989 1.40208 44.5587 1.6657C51.8266 1.95464 58.8913 4.14695 65.046 8.02334C71.2006 11.8997 76.2295 17.3243 79.6296 23.7543C79.7375 23.959 79.801 24.1841 79.8158 24.415C79.8307 24.6459 79.7965 24.8773 79.7157 25.0941C79.6349 25.3108 79.5092 25.5081 79.3468 25.6729C79.1844 25.8377 78.989 25.9663 78.7735 26.0504L63.5263 32.0512C63.3358 32.128 63.1323 32.1676 62.927 32.1679ZM42.9476 17.8236C43.2822 17.8236 43.6091 17.8236 43.9438 17.8236C47.8138 17.9646 51.5986 19 55.0014 20.8486C58.4043 22.6972 61.3328 25.3088 63.5574 28.4787L75.8081 23.6532C72.5526 18.1654 67.9758 13.5793 62.4947 10.3126C57.0135 7.04592 50.8021 5.20248 44.4264 4.9502C37.9853 4.69054 31.5854 6.0895 25.8401 9.01301C25.4609 9.20526 25.0219 9.24292 24.6154 9.11809C24.209 8.99325 23.8668 8.71564 23.6609 8.34366L22.7269 6.64693L20.6099 20.1741L32.378 24.1668L31.4829 22.5713C31.3661 22.3726 31.2922 22.1516 31.2659 21.9225C31.2397 21.6935 31.2618 21.4615 31.3307 21.2415C31.3996 21.0215 31.5139 20.8184 31.6661 20.6453C31.8184 20.4721 32.0052 20.3328 32.2146 20.2363C35.5647 18.6336 39.2338 17.8087 42.9476 17.8236Z" fill="#17262F"></path><path d="M41.5699 85C40.6204 85 39.6631 85 38.7213 84.9066C38.4916 84.8903 38.2679 84.8262 38.0645 84.7182C37.8612 84.6103 37.6826 84.461 37.5404 84.2799C37.3982 84.0989 37.2955 83.89 37.2388 83.6669C37.1821 83.4437 37.1728 83.2112 37.2114 82.9842L40.0055 66.8886C40.0716 66.5072 40.2702 66.1613 40.5664 65.9121C40.8626 65.6629 41.2373 65.5264 41.6244 65.5265C46.1136 65.5303 50.4929 64.1376 54.1553 61.5415C58.4843 58.4772 61.5563 53.9481 62.8024 48.7927L59.37 49.1897C59.04 49.2285 58.706 49.1662 58.412 49.0112C58.1181 48.8562 57.8781 48.6156 57.7238 48.3213C57.5695 48.027 57.5081 47.6928 57.5477 47.3628C57.5873 47.0329 57.7261 46.7227 57.9457 46.4733L69.7917 32.8683C70.0568 32.5642 70.4242 32.3678 70.8243 32.3162C71.2244 32.2646 71.6296 32.3613 71.9632 32.5881L87.2649 43.0876C87.5421 43.2759 87.7544 43.5451 87.8729 43.8585C87.9913 44.172 88.01 44.5144 87.9265 44.8389C87.846 45.1643 87.6679 45.4572 87.4161 45.6784C87.1643 45.8997 86.8508 46.0385 86.5177 46.0764L82.7896 46.5045C82.0752 56.9551 77.4177 66.7442 69.7593 73.891C62.101 81.0378 52.0138 85.0086 41.5388 85H41.5699ZM40.7916 81.7077C50.7908 81.9161 60.4698 78.1778 67.7329 71.3021C74.9961 64.4265 79.2589 54.9668 79.5985 44.9712C79.6179 44.5815 79.7748 44.2114 80.0412 43.9264C80.3077 43.6414 80.6665 43.4601 81.054 43.4145L81.8323 43.3289L71.3094 36.1295L63.2071 45.4693L64.6392 45.3058C64.8882 45.2747 65.1409 45.3021 65.3774 45.3859C65.6139 45.4696 65.8275 45.6075 66.0013 45.7884C66.1763 45.967 66.308 46.1834 66.3863 46.4208C66.4645 46.6583 66.4873 46.9106 66.4527 47.1582C65.9749 50.5638 64.8044 53.8353 63.0133 56.7709C61.2222 59.7065 58.8486 62.244 56.0388 64.2267C52.2093 66.9429 47.6899 68.5213 43.002 68.7799L40.7916 81.7077Z" fill="#17262F"></path><path d="M14.6713 83.817C14.3708 83.8172 14.076 83.7349 13.819 83.5791C13.562 83.4234 13.3527 83.2001 13.2138 82.9336C13.0749 82.6671 13.0119 82.3676 13.0314 82.0678C13.051 81.7679 13.1525 81.4791 13.3248 81.2329L16.2902 77.0067C7.86886 70.5941 2.22893 61.1948 0.533187 50.7467C-1.16256 40.2985 1.21515 29.5979 7.17611 20.8511C7.30518 20.6602 7.47301 20.4985 7.66867 20.3767C7.86433 20.2549 8.08345 20.1756 8.31176 20.144C8.54008 20.1124 8.77248 20.1293 8.99386 20.1935C9.21523 20.2576 9.42063 20.3677 9.59667 20.5164L22.0497 31.0626C22.3471 31.3114 22.5464 31.6577 22.6119 32.0398C22.6775 32.4219 22.6052 32.8149 22.4078 33.1485C20.1382 37.0183 19.1291 41.4983 19.5202 45.9674C19.7673 48.8815 20.5974 51.7162 21.9611 54.3034C23.3249 56.8905 25.1945 59.1772 27.459 61.0278L29.973 57.4398C30.1645 57.1698 30.4327 56.9636 30.7429 56.848C31.0531 56.7324 31.3909 56.7128 31.7123 56.7917C32.0338 56.8706 32.3241 57.0444 32.5456 57.2904C32.767 57.5365 32.9093 57.8434 32.954 58.1714L35.2889 76.0727C35.3347 76.4503 35.248 76.8322 35.0436 77.153C34.8392 77.4738 34.5298 77.7137 34.1681 77.8317L23.9411 81.124H23.8243L15.1461 83.7469C14.9921 83.7935 14.8321 83.8171 14.6713 83.817ZM8.90397 24.2368C3.83811 32.4959 2.1143 42.3766 4.08421 51.8632C6.05413 61.3497 11.5693 69.7273 19.5047 75.2866C19.8607 75.5374 20.1026 75.9194 20.177 76.3485C20.2515 76.7777 20.1524 77.2188 19.9016 77.5749L18.7263 79.2482L22.9604 77.9951H23.0071L31.8643 75.1465L30.261 62.7946L29.1947 64.3123C29.0711 64.4893 28.9138 64.6401 28.7319 64.7562C28.55 64.8723 28.347 64.9514 28.1345 64.989C27.9219 65.0266 27.7041 65.0219 27.4934 64.9752C27.2827 64.9286 27.0832 64.8409 26.9064 64.7171C21.9312 61.2436 18.3821 56.0861 16.9155 50.1982C15.4489 44.3104 16.1641 38.0906 18.9287 32.6893L8.90397 24.2368Z" fill="#17262F"></path></g><defs><clipPath id="clip0_5678_33189"><rect width="87.981" height="85" fill="white"></rect></clipPath></defs></svg>