<svg xmlns="http://www.w3.org/2000/svg" width="91" height="90" viewBox="0 0 91 90" fill="none"><g clip-path="url(#clip0_5678_33251)"><path d="M17.4503 27.5172C17.5642 29.3225 20.8818 30.2576 22.1747 30.9L32.575 36.0635L38.9501 39.2267C39.2399 39.3717 39.5624 39.439 39.886 39.4219C40.2095 39.4048 40.5231 39.3039 40.796 39.1291C42.1568 38.246 43.7622 37.8162 45.3822 37.9012C46.7746 37.9944 48.1231 38.4271 49.3097 39.1616C49.5852 39.3216 49.8967 39.4093 50.2152 39.4164C50.5337 39.4235 50.8489 39.3499 51.1312 39.2023L68.4351 30.7861C69.785 30.1275 73.1108 29.233 72.6391 27.1595C72.3132 26.3232 71.8239 25.5602 71.1999 24.9151C70.2036 23.6353 69.1166 22.4287 67.9472 21.3047C64.6851 18.1425 60.8053 15.6876 56.5507 14.0937C52.2962 12.4998 47.7585 11.8012 43.2215 12.0416C38.6846 12.2821 34.2461 13.4563 30.1838 15.491C26.1216 17.5256 22.523 20.3768 19.6133 23.8662C18.8815 24.7932 17.3609 26.1674 17.4503 27.5172ZM45.0163 15.6858C49.4498 15.7016 53.8229 16.7156 57.8109 18.6526C61.7989 20.5896 65.2996 23.3999 68.053 26.8749L51.7085 34.8275L50.5701 35.3805C49.9765 35.6651 49.391 35.0796 48.7974 34.8763C47.2619 34.35 45.6333 34.1506 44.0161 34.2908C43.2051 34.3561 42.4036 34.5087 41.6254 34.7462C41.0173 35.0534 40.3833 35.3065 39.7308 35.5024L32.7539 32.0384L22.0772 26.7366C24.8344 23.3003 28.3255 20.5243 32.2947 18.6122C36.2638 16.7001 40.6105 15.7002 45.0163 15.6858Z" fill="#17262F"></path><path d="M77.331 38.3402C76.9163 35.1364 72.6391 37.8523 71.2161 38.4947L60.7346 43.2516L53.6194 46.5043C53.2952 46.6562 53.0153 46.8885 52.8063 47.1792C52.5807 47.6015 52.406 48.0492 52.2859 48.5128C51.8985 49.1203 51.6231 49.7922 51.4727 50.4969C51.4727 51.4076 52.107 51.9443 52.6925 52.5216L66.5974 66.4184C67.2642 67.0852 68.0286 67.7032 69.0369 67.321C70.0452 66.9388 70.7201 65.6947 71.3137 64.9385C73.9608 61.4478 75.8857 57.4647 76.9762 53.2218C78.0666 48.9788 78.3005 44.5611 77.6644 40.2267C77.5669 39.5924 77.4612 38.9663 77.331 38.3402C77.7864 40.5276 77.3067 38.1613 77.331 38.3402ZM68.24 62.8487L55.8394 50.4155C55.2864 49.8626 55.7662 49.5129 56.3191 49.2609L59.9214 47.6345L70.4924 42.8532L74.1028 41.2269C75.0864 48.926 72.9781 56.701 68.24 62.8487Z" fill="#17262F"></path><path d="M45.0163 2.54583e-05C36.7288 -0.00879085 28.6001 2.2724 21.5273 6.59179C14.4544 10.9112 8.71261 17.1008 4.93552 24.4775C1.15843 31.8542 -0.507039 40.1311 0.122954 48.3945C0.752946 56.658 3.6539 64.5867 8.50561 71.3056C14.9864 80.3158 24.5708 86.6104 35.4142 88.9778C46.2576 91.3452 57.5934 89.6182 67.2398 84.129C76.8883 78.6517 84.1728 69.8024 87.6939 59.2811C91.215 48.7598 90.7244 37.3085 86.3164 27.1269C81.9536 17.1579 74.165 9.08089 64.3612 4.35854C58.317 1.48585 51.7084 -0.00311113 45.0163 2.54583e-05ZM45.0163 86.3246C36.7129 86.3378 28.5983 83.8478 21.7315 79.1796C14.8646 74.5114 9.56427 67.8817 6.52215 60.1557C3.48002 52.4296 2.83736 43.966 4.67801 35.8692C6.51867 27.7724 10.7572 20.4185 16.8404 14.7669C24.8566 7.29531 35.5125 3.31412 46.464 3.69917C57.4156 4.08422 67.7656 8.80397 75.2372 16.8201C82.7088 24.8363 86.69 35.4922 86.3049 46.4437C85.9199 57.3952 81.2001 67.7452 73.184 75.2169C65.5277 82.3331 55.469 86.2997 45.0163 86.3246Z" fill="#17262F"></path><path d="M66.4754 69.167C66.4754 68.2074 65.6623 67.5894 65.0117 66.9633C63.9275 65.9062 62.8759 64.8464 61.8567 63.7839C59.1462 61.0734 56.4357 58.3385 53.7252 55.5791L51.2857 53.0746C49.6594 51.4483 48.0331 53.0746 46.1872 53.3267C44.6378 53.5554 43.0554 53.3176 41.6417 52.6437C40.6578 52.172 39.7795 52.0419 38.9664 52.8551L36.9416 54.9042L28.9483 62.987C27.322 64.6133 25.5005 66.1502 24.0694 67.9147C21.9796 70.0289 26.2242 72.1919 27.5578 73.0213C32.9173 76.3508 39.117 78.0785 45.426 78.0007C51.735 77.9229 57.8902 76.0429 63.1659 72.5822C64.2799 71.8423 66.5161 70.7851 66.4754 69.167ZM28.1677 69.0125L40.4707 56.5875C40.8854 56.1727 40.861 56.3516 41.536 56.5875C43.2553 57.1241 45.0756 57.255 46.854 56.9696C47.3256 56.8965 49.082 56.1565 49.3585 56.4248L50.2449 57.3274L57.9048 65.0524L61.8486 69.0369C56.8958 72.4526 51.0207 74.2797 45.0043 74.2754C38.988 74.271 33.1155 72.4353 28.1677 69.0125Z" fill="#17262F"></path><path d="M37.9581 51.6922C38.7712 50.8791 38.4785 49.9683 38.0475 49.1145C37.6166 48.2607 37.5352 46.9109 36.5269 46.3904C35.9902 46.1058 35.421 45.8619 34.9006 45.5773L25.3867 41.1537L16.442 36.9904C15.5313 36.5675 14.5799 35.9902 13.596 36.6732C12.4006 37.4864 12.4331 39.8771 12.2868 41.1618C12.0579 43.1019 12.0035 45.0586 12.1241 47.0084C12.5487 53.7714 15.041 60.2405 19.2636 65.5402C20.1744 66.6868 21.5649 68.3212 23.0448 66.825L24.8825 64.9629L37.9499 51.7085L37.9581 51.6922ZM16.0029 40.9016L32.5262 48.5778L33.7947 49.1633C34.2908 49.3991 34.1932 49.4235 34.4453 50.0252C34.307 50.5457 33.1361 51.3426 32.7783 51.7085C30.122 54.419 27.4657 57.1078 24.8094 59.775L21.7844 62.8406C19.4099 59.7516 17.6737 56.221 16.6769 52.4545C15.6802 48.688 15.4427 44.7608 15.9785 40.9016H16.0029Z" fill="#17262F"></path></g><defs><clipPath id="clip0_5678_33251"><rect width="90.0081" height="90" fill="white"></rect></clipPath></defs></svg>