<svg xmlns="http://www.w3.org/2000/svg" width="132" height="110" viewBox="0 0 132 110" fill="none"><g clip-path="url(#clip0_5678_25869)"><path d="M94.7507 110C84.8698 110 75.5596 107.77 68.5426 103.723C61.5256 99.6753 57.531 94.1483 57.531 88.3149C57.531 82.4815 61.3776 77.1448 68.3735 73.0973C75.3694 69.0499 84.5422 66.9046 94.2963 66.9046C104.05 66.9046 113.477 69.1344 120.504 73.1819C127.532 77.2293 131.516 82.7563 131.516 88.5897C131.516 94.4231 127.659 99.7704 120.663 103.807C113.667 107.844 104.547 110 94.7507 110Z" fill="url(#paint0_linear_5678_25869)"></path><path d="M94.7507 109.176C84.8698 109.176 75.5596 106.946 68.5426 102.898C61.5256 98.851 57.531 93.3241 57.531 87.5012C57.531 81.6784 61.3776 76.3099 68.3735 72.273C75.3694 68.2361 84.5422 66.0803 94.2963 66.0803C104.05 66.0803 113.477 68.3101 120.504 72.3576C127.532 76.405 131.516 81.932 131.516 87.7654C131.516 93.5988 127.659 98.9461 120.663 102.983C113.667 107.02 104.547 109.176 94.7507 109.176Z" fill="#F3EEEC"></path><path d="M131.053 87.8256C131.116 76.1763 114.811 66.6441 94.6352 66.535C74.459 66.4258 58.0518 75.781 57.9888 87.4303C57.9258 99.0796 74.2307 108.612 94.4069 108.721C114.583 108.83 130.99 99.4749 131.053 87.8256Z" fill="#AB8777"></path><path d="M68.7962 73.8265C82.9148 65.6681 105.879 65.7104 120.082 73.911C128.388 78.7088 131.865 85.2397 130.491 91.4641C132.509 84.8909 129.107 77.8633 120.272 72.7591C105.963 64.4634 82.8302 64.4634 68.606 72.664C59.8876 77.6943 56.5482 84.6584 58.5561 91.1999C57.1928 85.0177 60.5956 78.5608 68.7962 73.8265Z" fill="#90604B"></path><path style="mix-blend-mode:multiply" d="M117.366 74.767C116.309 70.3602 111.025 68.7751 103.902 70.0009C102.545 70.0243 101.192 70.1551 99.8549 70.3919L98.8827 70.5716L97.8999 70.7829H97.678C97.2236 70.7195 96.7691 70.6773 96.283 70.6561H92.69C91.6282 70.6838 90.5693 70.7791 89.5197 70.9415L74.6402 72.9176C73.8685 72.9511 73.0993 73.0288 72.3364 73.1501L49.4149 73.7208H49.2458L35.6874 72.9176C35.3378 72.8506 34.9851 72.8012 34.6306 72.7697L33.373 72.6746C33.1807 72.6424 32.9866 72.6213 32.7918 72.6112L27.0007 72.1568L30.9425 72.4632H31.2278L29.4735 72.3258H29.1882H28.924C25.2781 72.1356 20.3641 73.3826 15.1859 76.1302C5.6432 81.1605 -1.05678 89.3717 0.147952 94.4125C0.834857 97.1918 3.79384 98.4283 7.9047 98.1429L9.91258 98.0055H9.79633L5.72774 98.2803L11.8888 97.8576H12.2692L13.9917 97.7413L14.8583 97.6568L30.5092 96.7163L42.1337 98.6502L41.8273 98.5868L30.5092 96.6951H30.8262L43.9197 98.8721C43.5921 98.8721 43.2856 98.8721 42.9792 98.7876L46.4982 99.3371C47.1851 99.4956 67.824 102.877 89.4457 105.097L93.0493 105.266C93.0493 105.266 88.2515 104.367 96.674 99.9077C109.841 92.9964 119.088 81.6889 117.366 74.767ZM66.3445 73.9744C67.0799 73.8618 67.8206 73.7877 68.5637 73.7525H49.7954H49.4149L66.3445 73.9744Z" fill="url(#paint1_linear_5678_25869)"></path><path d="M127.125 86.5889C127.227 76.346 112.927 67.8986 95.1844 67.7212C77.4417 67.5437 62.9753 75.7034 62.8729 85.9464C62.7705 96.1893 77.0707 104.637 94.8135 104.814C112.556 104.991 127.023 96.8318 127.125 86.5889Z" fill="url(#paint2_linear_5678_25869)"></path><path d="M126.689 86.9092C126.745 76.6665 112.406 68.2852 94.664 68.1893C76.9215 68.0933 62.4935 76.3188 62.4381 86.5616C62.3826 96.8044 76.7208 105.186 94.4633 105.282C112.206 105.378 126.634 97.152 126.689 86.9092Z" fill="url(#paint3_linear_5678_25869)"></path><path d="M126.689 84.1892C126.745 73.9464 112.406 65.5652 94.664 65.4692C76.9216 65.3732 62.4935 73.5988 62.4381 83.8416C62.3827 94.0844 76.7209 102.466 94.4633 102.562C112.206 102.658 126.634 94.432 126.689 84.1892Z" fill="#413936"></path><g style="mix-blend-mode:screen"><path d="M117.207 70.952C110.74 67.211 102.212 65.3934 93.7573 65.5202C100.018 65.9928 106.107 67.7941 111.617 70.8041C124.203 78.0747 124.298 89.8261 111.765 97.0333C105.688 100.542 97.7625 102.317 89.7838 102.412C99.5485 103.3 109.863 101.577 117.355 97.2552C129.857 89.9635 129.793 78.2015 117.207 70.952Z" fill="#221916"></path></g><path d="M124.531 77.4618C124.14 76.8695 123.709 76.3045 123.241 75.7709L123.728 79.5965L122.798 79.7127L123.432 88.949L120.261 80.1566L119.765 93.5354L115.886 84.669L113.075 97.8999L108.943 87.4378L106.312 99.6858L101.979 88.949L97.9527 100.975L93.9793 89.8261L89.5091 100.996L85.9055 89.0546L80.6216 99.6224L79.3852 87.3849L73.9745 96.6318L73.0128 83.8764L69.0816 93.1655L68.6377 79.8818L65.7527 87.7125L66.577 79.7761L65.5202 79.6176L65.0553 81.2451L65.7422 75.7498C65.2776 76.3019 64.8504 76.8845 64.4635 77.4935L63.1848 87.7759L63.3116 88.1036L64.1993 88.2515L64.9073 85.7681L64.4635 90.3016C64.789 90.7964 65.1418 91.2727 65.5202 91.7283L67.8134 85.3876L68.1093 94.3174C68.5003 94.6556 68.9231 94.9832 69.3669 95.3108L72.3364 88.2832L72.9177 97.6568C73.3298 97.8787 73.742 98.0795 74.1541 98.2803L78.6137 90.7032L79.6388 100.394L81.2028 100.848L85.6519 91.9397L88.8222 102.275C89.266 102.275 89.7099 102.37 90.1537 102.402L93.9687 92.8379L97.3715 102.507L98.5868 102.433L102.095 92.0031L105.9 101.419C106.312 101.324 106.724 101.239 107.126 101.134L109.239 91.0942L112.547 99.4428C113.022 99.2526 113.498 99.0623 113.963 98.851L116.246 88.1353L119.574 95.7441C119.997 95.4482 120.399 95.1311 120.79 94.8247L121.128 85.7152L123.463 92.2144C123.876 91.722 124.26 91.2069 124.615 90.6715L124.309 86.3387L124.89 88.8327L125.683 88.7165L125.894 88.2092L124.531 77.4618Z" fill="url(#paint4_linear_5678_25869)"></path><path d="M102.296 89.6464L98.3966 102.444L99.5907 102.359L102.391 93.1549L105.445 101.514L106.502 101.282L102.296 89.6464Z" fill="url(#paint5_linear_5678_25869)"></path><path d="M120.737 94.8669L116.732 84.7219L114.047 98.8404C114.47 98.6502 114.882 98.46 115.284 98.2592L117.102 88.7482L119.817 95.6172C120.134 95.3425 120.473 95.11 120.737 94.8669Z" fill="url(#paint6_linear_5678_25869)"></path><path d="M109.535 87.9028L106.967 101.176L108.161 100.88L109.852 92.1088L112.494 99.5062C112.843 99.3794 113.191 99.242 113.551 99.094L109.535 87.9028Z" fill="url(#paint7_linear_5678_25869)"></path><path d="M125.63 88.8539L125.492 86.6346L125.852 88.3466C126.316 87.2008 126.59 85.9874 126.665 84.7536L126.243 81.076C125.884 79.9072 125.365 78.7939 124.7 77.7682L124.827 78.8884L123.854 79.0152L124.52 89.6464L121.244 79.5225L120.716 94.8458C121.117 94.5287 121.508 94.1906 121.868 93.8524L122.132 85.916L123.96 91.5486C124.614 90.7145 125.174 89.8108 125.63 88.8539Z" fill="url(#paint8_linear_5678_25869)"></path><path d="M67.6338 79.2583L64.622 88.2409L65.4674 79.0998L64.4106 78.9096L63.9245 80.7801L64.2627 77.8105C63.5023 79.0406 62.9689 80.3972 62.6881 81.8157L62.4556 83.5911C62.4169 85.0752 62.6756 86.5519 63.2164 87.9345L63.7131 85.9794L63.4806 88.5685C63.8655 89.431 64.3364 90.2524 64.8862 91.0203L66.6721 85.599L66.9046 93.3557C67.2533 93.7045 67.6443 94.0532 68.0459 94.4125L67.6338 79.2583Z" fill="url(#paint9_linear_5678_25869)"></path><path d="M73.0973 97.7414L72.1357 83.8025L68.0776 94.3703C68.3735 94.6239 68.68 94.867 68.9865 95.11L71.3748 88.8856L71.9349 97.0545C72.3153 97.3187 72.6957 97.53 73.0973 97.7414Z" fill="url(#paint10_linear_5678_25869)"></path><path d="M78.7933 87.8394L73.4355 97.9104L74.4923 98.4071L78.0747 91.6649L78.8673 100.119L80.0192 100.478L78.7933 87.8394Z" fill="url(#paint11_linear_5678_25869)"></path><path d="M97.7731 102.507L93.9581 90.6187L89.731 102.338L90.8829 102.433L93.8947 94.0532L96.6212 102.507H97.7731Z" fill="url(#paint12_linear_5678_25869)"></path><path d="M85.599 89.7521L80.6427 100.69L81.6995 100.975L85.3031 92.9964L87.7865 102.085L88.9807 102.222L85.599 89.7521Z" fill="url(#paint13_linear_5678_25869)"></path><path d="M125.397 73.3298H125.059C124.129 69.6522 121.202 66.112 116.298 63.2798C104.219 56.3051 84.7008 56.2734 72.7063 63.1953C67.7712 66.0486 64.8756 69.6311 64.0196 73.3404H63.7448V75.9823C63.8611 80.4631 66.9152 84.9332 72.8226 88.3678C84.9015 95.3425 104.42 95.3742 116.425 88.4523C121.984 85.282 124.953 81.0548 125.334 76.8277L125.397 73.3298Z" fill="url(#paint14_linear_5678_25869)"></path><path d="M124.848 70.3708L115.717 36.7758C115.273 36.4799 106.312 42.4402 105.836 42.1654C93.7573 35.1907 101.112 33.2039 89.1075 40.1575C88.5897 40.4534 73.8899 36.2369 73.4143 36.5539L64.4634 69.7473C62.3499 75.475 65.1186 81.6995 72.8543 86.1696C84.9332 93.1444 104.452 93.1761 116.457 86.2436C123.886 81.9214 126.676 75.9506 124.848 70.3708Z" fill="url(#paint15_linear_5678_25869)"></path><path d="M115.728 36.6067C115.728 36.4694 115.728 36.332 115.728 36.1946L117.355 21.9281L71.6178 21.3469L73.4144 36.5328C73.8159 39.3438 75.8766 42.0808 79.5965 44.2367C87.9133 49.0344 101.366 49.0556 109.63 44.2367C113.255 42.1231 115.284 39.46 115.707 36.723L115.728 36.6067Z" fill="url(#paint16_linear_5678_25869)"></path><path d="M118.486 14.668H116.129C114.769 12.7746 113.003 11.2078 110.962 10.0816C101.884 4.79774 87.1947 4.79774 78.2016 10.0816C76.0865 11.2371 74.2756 12.8777 72.9177 14.8688H70.8041L71.5756 20.5966C72.0194 23.6507 74.2703 26.6413 78.3389 29.0508C87.4167 34.3347 102.106 34.3347 111.099 29.1036C115.094 26.7999 117.313 23.8197 117.757 20.8291L118.486 14.668Z" fill="url(#paint17_linear_5678_25869)"></path><path d="M118.521 13.9545C118.563 6.31472 107.871 0.0634274 94.6395 -0.00815979C81.4086 -0.079747 70.6492 6.05548 70.6079 13.6952C70.5666 21.335 81.2589 27.5863 94.4899 27.6579C107.721 27.7295 118.48 21.5942 118.521 13.9545Z" fill="#EDE5E2"></path><path d="M116.725 13.9448C116.763 6.87698 106.873 1.09372 94.6339 1.0275C82.3951 0.961277 72.4426 6.63718 72.4044 13.705C72.3661 20.7728 82.2567 26.5561 94.4954 26.6223C106.734 26.6885 116.687 21.0126 116.725 13.9448Z" fill="url(#paint18_linear_5678_25869)"></path><g style="mix-blend-mode:multiply"><path d="M118.211 16.8027C117.757 19.8991 115.495 22.9109 111.406 25.2569C102.159 30.5408 87.0996 30.5408 77.8317 25.1935C73.668 22.7946 71.3748 19.73 70.9204 16.5914L70.4025 12.7553L71.1846 18.5675C71.6284 21.6639 73.911 24.6968 78.0325 27.0746C87.2264 32.3585 102.106 32.4219 111.247 27.138C115.294 24.8025 117.588 21.8541 117.989 18.7578L118.814 12.5967L118.211 16.8027Z" fill="#FFCD59"></path></g><g style="mix-blend-mode:multiply"><path d="M120.811 54.9524L112.885 25.8276L119.416 49.6685C120.917 54.2338 118.623 59.1795 112.526 62.6458C102.645 68.2995 86.6558 68.2678 76.7749 62.5612C71.0155 59.243 68.6166 54.7199 69.536 50.4083L68.4792 54.4346C66.6298 59.4015 69.0604 64.8016 75.7604 68.6694C86.2331 74.7142 103.152 74.7459 113.551 68.7328C119.976 65.013 122.407 59.8347 120.811 54.9524Z" fill="#FFCD59"></path></g><path d="M69.8953 49.119L76.236 25.6586L69.7473 49.4783C69.8213 49.3621 69.853 49.2353 69.8953 49.119Z" fill="url(#paint19_linear_5678_25869)"></path></g><defs><linearGradient id="paint0_linear_5678_25869" x1="57.531" y1="88.4523" x2="131.516" y2="88.4523" gradientUnits="userSpaceOnUse"><stop stop-color="#917D80"></stop><stop offset="0.03" stop-color="#968385"></stop><stop offset="0.22" stop-color="#B3A19F"></stop><stop offset="0.41" stop-color="#C8B7B3"></stop><stop offset="0.59" stop-color="#D5C4BE"></stop><stop offset="0.75" stop-color="#D9C9C2"></stop></linearGradient><linearGradient id="paint1_linear_5678_25869" x1="39.4918" y1="118.666" x2="78.8885" y2="50.44" gradientUnits="userSpaceOnUse"><stop offset="0.11" stop-color="#AEACBA"></stop><stop offset="0.99" stop-color="#7B738C"></stop></linearGradient><linearGradient id="paint2_linear_5678_25869" x1="62.8699" y1="86.125" x2="127.114" y2="86.4199" gradientUnits="userSpaceOnUse"><stop stop-color="#9A878A"></stop><stop offset="0.35" stop-color="#917D80"></stop><stop offset="0.53" stop-color="#A59292"></stop><stop offset="0.88" stop-color="#D9C9C2"></stop></linearGradient><linearGradient id="paint3_linear_5678_25869" x1="69.5949" y1="86.7403" x2="133.456" y2="86.7403" gradientUnits="userSpaceOnUse"><stop stop-color="#504648"></stop><stop offset="0.16" stop-color="#473D3E"></stop><stop offset="0.39" stop-color="#695F5E"></stop><stop offset="0.62" stop-color="#857A77"></stop><stop offset="0.75" stop-color="#8F8480"></stop></linearGradient><linearGradient id="paint4_linear_5678_25869" x1="86.1274" y1="96.6" x2="109.937" y2="61.124" gradientUnits="userSpaceOnUse"><stop stop-color="#3D3637"></stop><stop offset="0.16" stop-color="#42393A"></stop><stop offset="0.41" stop-color="#695F5E"></stop><stop offset="0.63" stop-color="#857A77"></stop><stop offset="0.75" stop-color="#8F8480"></stop></linearGradient><linearGradient id="paint5_linear_5678_25869" x1="64.0302" y1="96.0399" x2="149.376" y2="96.0399" gradientUnits="userSpaceOnUse"><stop stop-color="#504648"></stop><stop offset="0.16" stop-color="#473D3E"></stop><stop offset="0.39" stop-color="#695F5E"></stop><stop offset="0.62" stop-color="#857A77"></stop><stop offset="0.75" stop-color="#8F8480"></stop></linearGradient><linearGradient id="paint6_linear_5678_25869" x1="64.0301" y1="91.7811" x2="149.376" y2="91.7811" gradientUnits="userSpaceOnUse"><stop stop-color="#504648"></stop><stop offset="0.16" stop-color="#473D3E"></stop><stop offset="0.39" stop-color="#695F5E"></stop><stop offset="0.62" stop-color="#857A77"></stop><stop offset="0.75" stop-color="#8F8480"></stop></linearGradient><linearGradient id="paint7_linear_5678_25869" x1="64.0302" y1="94.5393" x2="149.376" y2="94.5393" gradientUnits="userSpaceOnUse"><stop stop-color="#504648"></stop><stop offset="0.16" stop-color="#473D3E"></stop><stop offset="0.39" stop-color="#695F5E"></stop><stop offset="0.62" stop-color="#857A77"></stop><stop offset="0.75" stop-color="#8F8480"></stop></linearGradient><linearGradient id="paint8_linear_5678_25869" x1="64.0302" y1="86.307" x2="149.376" y2="86.307" gradientUnits="userSpaceOnUse"><stop stop-color="#504648"></stop><stop offset="0.16" stop-color="#473D3E"></stop><stop offset="0.39" stop-color="#695F5E"></stop><stop offset="0.62" stop-color="#857A77"></stop><stop offset="0.75" stop-color="#8F8480"></stop></linearGradient><linearGradient id="paint9_linear_5678_25869" x1="64.0302" y1="86.0957" x2="149.376" y2="86.0957" gradientUnits="userSpaceOnUse"><stop stop-color="#504648"></stop><stop offset="0.16" stop-color="#473D3E"></stop><stop offset="0.39" stop-color="#695F5E"></stop><stop offset="0.62" stop-color="#857A77"></stop><stop offset="0.75" stop-color="#8F8480"></stop></linearGradient><linearGradient id="paint10_linear_5678_25869" x1="64.0302" y1="90.7667" x2="149.376" y2="90.7667" gradientUnits="userSpaceOnUse"><stop stop-color="#504648"></stop><stop offset="0.16" stop-color="#473D3E"></stop><stop offset="0.39" stop-color="#695F5E"></stop><stop offset="0.62" stop-color="#857A77"></stop><stop offset="0.75" stop-color="#8F8480"></stop></linearGradient><linearGradient id="paint11_linear_5678_25869" x1="64.0302" y1="94.1695" x2="149.376" y2="94.1695" gradientUnits="userSpaceOnUse"><stop stop-color="#504648"></stop><stop offset="0.16" stop-color="#473D3E"></stop><stop offset="0.39" stop-color="#695F5E"></stop><stop offset="0.62" stop-color="#857A77"></stop><stop offset="0.75" stop-color="#8F8480"></stop></linearGradient><linearGradient id="paint12_linear_5678_25869" x1="64.0302" y1="96.5789" x2="149.375" y2="96.5789" gradientUnits="userSpaceOnUse"><stop stop-color="#504648"></stop><stop offset="0.16" stop-color="#473D3E"></stop><stop offset="0.39" stop-color="#695F5E"></stop><stop offset="0.62" stop-color="#857A77"></stop><stop offset="0.75" stop-color="#8F8480"></stop></linearGradient><linearGradient id="paint13_linear_5678_25869" x1="64.0302" y1="96.0083" x2="149.376" y2="96.0083" gradientUnits="userSpaceOnUse"><stop stop-color="#504648"></stop><stop offset="0.16" stop-color="#473D3E"></stop><stop offset="0.39" stop-color="#695F5E"></stop><stop offset="0.62" stop-color="#857A77"></stop><stop offset="0.75" stop-color="#8F8480"></stop></linearGradient><linearGradient id="paint14_linear_5678_25869" x1="69.5994" y1="75.8238" x2="133.46" y2="75.8238" gradientUnits="userSpaceOnUse"><stop stop-color="#504648"></stop><stop offset="0.16" stop-color="#473D3E"></stop><stop offset="0.39" stop-color="#695F5E"></stop><stop offset="0.62" stop-color="#857A77"></stop><stop offset="0.75" stop-color="#8F8480"></stop></linearGradient><linearGradient id="paint15_linear_5678_25869" x1="69.4197" y1="58.5771" x2="116.573" y2="66.2916" gradientUnits="userSpaceOnUse"><stop offset="0.18" stop-color="#917D80"></stop><stop offset="0.19" stop-color="#927E81"></stop><stop offset="0.34" stop-color="#B19F9D"></stop><stop offset="0.49" stop-color="#C7B6B2"></stop><stop offset="0.63" stop-color="#D4C4BE"></stop><stop offset="0.75" stop-color="#D9C9C2"></stop></linearGradient><linearGradient id="paint16_linear_5678_25869" x1="72.0617" y1="32.8763" x2="117.788" y2="35.6239" gradientUnits="userSpaceOnUse"><stop stop-color="#856F72"></stop><stop offset="0.22" stop-color="#917D80"></stop><stop offset="0.75" stop-color="#D9C9C2"></stop></linearGradient><linearGradient id="paint17_linear_5678_25869" x1="70.9521" y1="22.0338" x2="118.486" y2="16.9824" gradientUnits="userSpaceOnUse"><stop stop-color="#9A878A"></stop><stop offset="0.04" stop-color="#978386"></stop><stop offset="0.16" stop-color="#917D80"></stop><stop offset="0.41" stop-color="#B5A3A1"></stop><stop offset="0.63" stop-color="#CFBFB9"></stop><stop offset="0.75" stop-color="#D9C9C2"></stop></linearGradient><linearGradient id="paint18_linear_5678_25869" x1="72.9319" y1="3.82314" x2="113.153" y2="22.433" gradientUnits="userSpaceOnUse"><stop offset="0.25" stop-color="#D9C9C2"></stop><stop offset="0.6" stop-color="#A79494"></stop><stop offset="0.78" stop-color="#917D80"></stop><stop offset="1" stop-color="#856F72"></stop></linearGradient><linearGradient id="paint19_linear_5678_25869" x1="71.9032" y1="37.3888" x2="73.8476" y2="37.7058" gradientUnits="userSpaceOnUse"><stop offset="0.1" stop-color="#824C4C"></stop><stop offset="0.38" stop-color="#8C5252"></stop><stop offset="0.84" stop-color="#D67368"></stop></linearGradient><clipPath id="clip0_5678_25869"><rect width="131.516" height="110" fill="white"></rect></clipPath></defs></svg>