<svg xmlns="http://www.w3.org/2000/svg" width="126" height="110" viewBox="0 0 126 110" fill="none"><g clip-path="url(#clip0_5678_19013)"><path d="M98.0872 57.8814L85.5638 50.6444V22.8131L88.0358 1.23596L95.6153 5.61392L98.0872 30.0501V57.8814Z" fill="#AC5200"></path><path d="M98.0872 57.8814L100.261 56.6603V28.8141L98.0872 30.05V57.8814Z" fill="#EB850C"></path><path d="M95.6152 5.61389L98.0871 30.0501L100.261 28.8141L97.7893 4.39282L95.6152 5.61389Z" fill="#EC9909"></path><path d="M88.0357 1.23595L95.6152 5.61392L97.7595 4.37796L90.18 0L88.0357 1.23595Z" fill="#F4C26C"></path><path d="M71.5663 110L0 68.7966V66.8608L0.536077 66.548V63.6443L0 63.3167V60.1896L71.5663 101.378V110Z" fill="#828282"></path><path d="M71.5663 108.064L0.536077 66.548V63.6443L0 63.3167L71.5663 104.52L72.1023 104.282V107.751L71.5663 108.064Z" fill="#505050"></path><path d="M0 66.8607L71.5663 108.064L72.1023 107.751L0.536077 66.548L0 66.8607Z" fill="#B8BCBD"></path><path d="M71.5663 110L125.71 78.6395V70.0325L71.5663 101.378V104.52L72.1024 104.282V107.751L71.5663 108.064V110Z" fill="#ABABAB"></path><path d="M0 60.1895L71.5663 101.378L125.71 70.0324L54.1587 28.829L0 60.1895Z" fill="#C8BEB2"></path><path d="M74.5445 99.6805L2.97823 58.4771L1.96564 59.0578L73.5319 100.246L74.5445 99.6805Z" fill="#828282"></path><path d="M79.4585 96.8363L7.89223 55.6477L6.87964 56.1987L78.4459 97.4021L79.4585 96.8363Z" fill="#828282"></path><path d="M84.3577 93.9922L12.8063 52.7887L11.7937 53.3694L83.3451 94.558L84.3577 93.9922Z" fill="#828282"></path><path d="M89.2717 91.1479L17.7203 49.9594L16.7077 50.5252L88.2591 91.7138L89.2717 91.1479Z" fill="#828282"></path><path d="M94.1857 88.3038L22.6344 47.1152L21.6218 47.6811L93.1731 88.8697L94.1857 88.3038Z" fill="#828282"></path><path d="M99.0998 85.4596L27.5335 44.271L26.5209 44.8369L98.0872 86.0254L99.0998 85.4596Z" fill="#828282"></path><path d="M104.014 82.6155L32.4475 41.4269L31.4349 41.9927L103.001 83.1813L104.014 82.6155Z" fill="#828282"></path><path d="M108.913 79.7712L37.3616 38.5826L36.349 39.1485L107.9 80.3371L108.913 79.7712Z" fill="#828282"></path><path d="M113.827 76.927L42.2756 35.7384L41.263 36.3043L112.814 77.4928L113.827 76.927Z" fill="#828282"></path><path d="M118.741 74.0829L47.1748 32.8943L46.1622 33.4601L117.728 74.6487L118.741 74.0829Z" fill="#828282"></path><path d="M123.655 71.2386L52.0888 30.05L51.0762 30.6159L122.642 71.8045L123.655 71.2386Z" fill="#828282"></path><path d="M74.5445 101.795V99.6805L73.5319 100.246V102.361L74.5445 101.795Z" fill="#828282"></path><path d="M79.4585 98.9508V96.8363L78.4459 97.4022V99.5167L79.4585 98.9508Z" fill="#828282"></path><path d="M84.3577 96.1067V93.9922L83.3451 94.558V96.6726L84.3577 96.1067Z" fill="#828282"></path><path d="M89.2717 93.2625V91.1479L88.2591 91.7138V93.8283L89.2717 93.2625Z" fill="#828282"></path><path d="M94.1857 90.4182V88.3037L93.1732 88.8696V90.9841L94.1857 90.4182Z" fill="#828282"></path><path d="M99.0997 87.5741V85.4596L98.0872 86.0255V88.14L99.0997 87.5741Z" fill="#828282"></path><path d="M104.014 84.7299V82.6154L103.001 83.1812V85.2957L104.014 84.7299Z" fill="#828282"></path><path d="M108.913 81.8858V79.7712L107.9 80.3371V82.4516L108.913 81.8858Z" fill="#828282"></path><path d="M113.827 79.0415V76.927L112.814 77.4929V79.6074L113.827 79.0415Z" fill="#828282"></path><path d="M118.741 76.1974V74.0829L117.728 74.6487V76.7633L118.741 76.1974Z" fill="#828282"></path><path d="M123.655 73.3532V71.2386L122.642 71.8045V73.919L123.655 73.3532Z" fill="#828282"></path><path d="M122.642 73.9191L123.655 73.3532L122.642 72.7725V73.9191Z" fill="#C8BEB2"></path><path d="M117.728 76.7632L118.741 76.1973L117.728 75.6166V76.7632Z" fill="#C8BEB2"></path><path d="M112.814 79.6074L113.827 79.0416L112.814 78.4608V79.6074Z" fill="#C8BEB2"></path><path d="M107.9 82.4515L108.913 81.8857L107.9 81.3049V82.4515Z" fill="#C8BEB2"></path><path d="M103.001 85.2958L104.014 84.7299L103.001 84.1492V85.2958Z" fill="#C8BEB2"></path><path d="M98.0872 88.14L99.0997 87.5742L98.0872 86.9934V88.14Z" fill="#C8BEB2"></path><path d="M93.1732 90.9841L94.1857 90.4183L93.1732 89.8375V90.9841Z" fill="#C8BEB2"></path><path d="M88.2591 93.8284L89.2717 93.2625L88.2591 92.6669V93.8284Z" fill="#C8BEB2"></path><path d="M83.3451 96.6725L84.3577 96.1066L83.3451 95.511V96.6725Z" fill="#C8BEB2"></path><path d="M78.4459 99.5167L79.4585 98.9509L78.4459 98.3701V99.5167Z" fill="#C8BEB2"></path><path d="M73.5319 102.361L74.5445 101.795L73.5319 101.214V102.361Z" fill="#C8BEB2"></path><g style="mix-blend-mode:multiply"><path d="M80.8285 44.1817L64.1506 34.2643L9.63452 65.7439L26.3125 75.6464L56.4221 58.2686L62.0658 61.5297L70.8217 56.4668L65.178 53.2057L80.8285 44.1817Z" fill="#C4C4C4"></path></g><path d="M37.3169 92.9498L24.7936 85.7127V57.8814L27.2655 36.3043L34.845 40.6823L37.3169 65.1036V92.9498Z" fill="#AC5200"></path><path d="M37.3169 92.9497L39.491 91.7138V63.8824L37.3169 65.1035V92.9497Z" fill="#EB850C"></path><path d="M37.0191 59.7874L95.6153 25.9401V12.6276L94.0666 11.8979L94.0964 9.61958L95.6153 8.74101V5.61389L37.0191 39.4612V59.7874Z" fill="#0077EB"></path><path d="M37.0191 46.4749L94.0666 11.898L94.0964 9.61966L95.6153 8.74109L37.0191 42.5735V46.4749Z" fill="#004FBB"></path><path d="M37.0191 46.4749L95.6152 12.6276L94.0666 11.8979L35.4853 45.7304L37.0191 46.4749Z" fill="#6CB2F4"></path><path d="M34.845 40.6822L37.3169 65.1035L39.491 63.8825L37.0191 39.4612L34.845 40.6822Z" fill="#EC9909"></path><path d="M27.2654 36.3043L34.845 40.6823L95.6152 5.61392L88.0357 1.23596L27.2654 36.3043Z" fill="#6CB2F4"></path><path d="M56.6454 108.049L59.162 106.709L62.2147 104.103L56.6454 107.2V108.049Z" fill="#373C3F"></path><path d="M56.6454 107.2L62.2147 104.103L61.5446 103.716L55.9009 107.007L56.6454 107.2Z" fill="#505453"></path><path d="M55.9009 107.856L56.6454 108.049V107.201L55.9009 107.007V107.856Z" fill="#1C2225"></path><path d="M54.4565 107.022L60.1151 103.731V102.882L54.4565 106.173V107.022Z" fill="#373C3F"></path><path d="M54.4565 106.173L60.1151 102.882L59.4599 102.51L53.8013 105.801L54.4565 106.173Z" fill="#505453"></path><path d="M53.8013 106.635L54.4565 107.022V106.173L53.8013 105.801V106.635Z" fill="#1C2225"></path><path d="M52.3568 105.801L58.0154 102.51V101.676L52.3568 104.952V105.801Z" fill="#373C3F"></path><path d="M52.3569 104.952L58.0155 101.676L57.3602 101.289L51.7017 104.58L52.3569 104.952Z" fill="#505453"></path><path d="M51.7017 105.428L52.3569 105.801V104.952L51.7017 104.58V105.428Z" fill="#1C2225"></path><path d="M50.2572 104.595L55.9158 101.304V100.455L50.2572 103.746V104.595Z" fill="#373C3F"></path><path d="M50.2572 103.746L55.9158 100.455L55.2606 100.083L49.602 103.373L50.2572 103.746Z" fill="#505453"></path><path d="M49.602 104.207L50.2572 104.595V103.746L49.602 103.374V104.207Z" fill="#1C2225"></path><path d="M48.1576 103.373L53.8162 100.097V99.2487L48.1576 102.525V103.373Z" fill="#373C3F"></path><path d="M48.1576 102.525L53.8162 99.2487L53.161 98.8616L47.5024 102.152L48.1576 102.525Z" fill="#505453"></path><path d="M47.5024 103.001L48.1576 103.374V102.525L47.5024 102.152V103.001Z" fill="#1C2225"></path><path d="M46.0728 102.167L51.7165 98.8764V98.0276L46.0728 101.319V102.167Z" fill="#373C3F"></path><path d="M46.0728 101.319L51.7165 98.0277L51.0613 97.6554L45.4176 100.931L46.0728 101.319Z" fill="#505453"></path><path d="M45.4176 101.78L46.0728 102.167V101.319L45.4176 100.931V101.78Z" fill="#1C2225"></path><path d="M43.9732 100.946L49.6169 97.6553V96.8214L43.9732 100.097V100.946Z" fill="#373C3F"></path><path d="M43.9732 100.098L49.6169 96.8215L48.9617 96.4343L43.318 99.7252L43.9732 100.098Z" fill="#505453"></path><path d="M43.318 100.574L43.9732 100.946V100.097L43.318 99.7252V100.574Z" fill="#1C2225"></path><path d="M41.8735 99.7401L47.5172 96.4491V95.6003L41.8735 98.8913V99.7401Z" fill="#373C3F"></path><path d="M41.8736 98.8913L47.5173 95.6004L46.8621 95.2281L41.2184 98.5191L41.8736 98.8913Z" fill="#505453"></path><path d="M41.2184 99.3529L41.8736 99.7401V98.8913L41.2184 98.519V99.3529Z" fill="#1C2225"></path><path d="M39.7739 98.519L45.4325 95.2281V94.3942L39.7739 97.6702V98.519Z" fill="#373C3F"></path><path d="M39.7739 97.6703L45.4325 94.3942L44.7624 94.0071L39.1187 97.298L39.7739 97.6703Z" fill="#505453"></path><path d="M39.1187 98.1468L39.7739 98.519V97.6702L39.1187 97.298V98.1468Z" fill="#1C2225"></path><path d="M37.6743 97.3128L43.3329 94.0219V93.1731L37.6743 96.464V97.3128Z" fill="#373C3F"></path><path d="M37.6743 96.4641L43.3329 93.1732L42.6777 92.8009L37.0191 96.0918L37.6743 96.4641Z" fill="#505453"></path><path d="M37.0191 96.9257L37.6743 97.3129V96.4641L37.0191 96.0918V96.9257Z" fill="#1C2225"></path><path d="M35.5746 96.0917L41.2332 92.8157V91.9669L35.5746 95.2429V96.0917Z" fill="#373C3F"></path><path d="M35.5746 95.243L41.2332 91.967L40.578 91.5798L34.9194 94.8707L35.5746 95.243Z" fill="#505453"></path><path d="M34.9194 95.7195L35.5746 96.0918V95.243L34.9194 94.8707V95.7195Z" fill="#1C2225"></path><path d="M33.475 94.8856L39.1336 91.5946V90.7458L33.475 94.0368V94.8856Z" fill="#373C3F"></path><path d="M33.475 94.0369L39.1336 90.7459L38.4784 90.3737L32.8198 93.6646L33.475 94.0369Z" fill="#505453"></path><path d="M32.8198 94.4984L33.475 94.8856V94.0368L32.8198 93.6646V94.4984Z" fill="#1C2225"></path><path d="M31.3754 93.6646L37.034 90.3886V89.5398L31.3754 92.8158V93.6646Z" fill="#373C3F"></path><path d="M31.3754 92.8158L37.034 89.5398L36.3787 89.1526L30.7202 92.4435L31.3754 92.8158Z" fill="#505453"></path><path d="M30.7202 93.2923L31.3754 93.6645V92.8158L30.7202 92.4435V93.2923Z" fill="#1C2225"></path><path d="M29.2906 92.4583L34.9343 89.1674V88.3186L29.2906 91.6095V92.4583Z" fill="#373C3F"></path><path d="M29.2906 91.6096L34.9343 88.3187L34.2791 87.9464L28.6205 91.2373L29.2906 91.6096Z" fill="#505453"></path><path d="M28.6205 92.0712L29.2906 92.4584V91.6096L28.6205 91.2373V92.0712Z" fill="#1C2225"></path><path d="M62.7359 102.659C62.7364 101.319 62.3826 100.004 61.7105 98.8451C61.0384 97.6866 60.0718 96.7264 58.9089 96.062L31.2712 80.069C30.7995 79.7762 30.2553 79.621 29.7001 79.621C29.145 79.621 28.6008 79.7762 28.1291 80.069L25.1509 81.9155L59.2812 106.352L60.7703 105.488C61.0395 105.368 61.2942 105.218 61.5297 105.041C61.9023 104.765 62.2054 104.406 62.4148 103.993C62.6242 103.579 62.7342 103.122 62.7359 102.659Z" fill="#3B3F40"></path><path d="M27.0421 91.0289L32.6858 87.738L32.8943 87.0828L27.2357 90.3588L27.0421 91.0289Z" fill="#373C3F"></path><path d="M27.2357 90.3587L32.8942 87.0827L32.2242 86.6956L26.6847 89.8971L27.2357 90.3587Z" fill="#505453"></path><path d="M26.4911 90.5523L27.0421 91.0288L27.2357 90.3587L26.6847 89.8971L26.4911 90.5523Z" fill="#1C2225"></path><path d="M25.285 89.3759L30.9287 86.0999V85.2511L25.6721 88.6463L25.285 89.3759Z" fill="#373C3F"></path><path d="M25.6721 88.6462L30.9287 85.2511L30.2734 84.8788L25.1212 87.9314L25.6721 88.6462Z" fill="#505453"></path><path d="M24.734 88.6761L25.285 89.3759L25.6721 88.6463L25.1212 87.9315L24.734 88.6761Z" fill="#1C2225"></path><path d="M24.4064 86.3978L30.065 83.1217V82.2729L24.4064 85.549V86.3978Z" fill="#373C3F"></path><path d="M24.4064 85.5489L29.3651 82.6749L29.112 82.5111L23.4534 85.802L24.4064 85.5489Z" fill="#505453"></path><path d="M23.647 86.5466L24.5404 86.368L24.4064 85.549L23.4534 85.8021L23.647 86.5466Z" fill="#1C2225"></path><path d="M24.1979 84.5215L29.6332 81.1561L26.5954 82.0645L24.1979 83.6727V84.5215Z" fill="#373C3F"></path><path d="M24.1979 83.6726L26.5954 82.0644L25.9253 81.6921L23.3342 83.211L24.1979 83.6726Z" fill="#505453"></path><path d="M23.3342 84.0598L24.1979 84.5215V83.6727L23.3342 83.2111V84.0598Z" fill="#1C2225"></path><path d="M24.9276 82.3473L27.5186 80.8284L28.0696 80.2775L25.4785 81.7964L24.9276 82.3473Z" fill="#373C3F"></path><path d="M25.4785 81.7964L28.0696 80.2775L27.6079 79.7712L25.002 81.2901L25.4785 81.7964Z" fill="#505453"></path><path d="M24.451 81.8559L24.9276 82.3473L25.4785 81.7963L25.002 81.29L24.451 81.8559Z" fill="#1C2225"></path><path d="M27.1017 81.2008L29.6927 79.667V78.8182L27.1017 80.352V81.2008Z" fill="#373C3F"></path><path d="M27.1017 80.352L29.6927 78.8182L28.9928 78.9671L26.3869 80.486L27.1017 80.352Z" fill="#505453"></path><path d="M26.3869 81.3347L27.1017 81.2007V80.3519L26.3869 80.4859V81.3347Z" fill="#1C2225"></path><path d="M56.3625 97.6107L28.7099 81.6177C28.2522 81.3313 27.7252 81.1746 27.1854 81.1646C26.6455 81.1545 26.1131 81.2914 25.645 81.5606C25.177 81.8298 24.7909 82.2212 24.5281 82.6929C24.2654 83.1646 24.1358 83.6989 24.1532 84.2386C24.1573 85.5753 24.5113 86.8876 25.1802 88.0449C25.849 89.2023 26.8092 90.1643 27.9653 90.8353L55.618 106.843C56.0746 107.129 56.6001 107.285 57.1386 107.296C57.6772 107.307 58.2085 107.171 58.676 106.904C59.1436 106.636 59.5299 106.247 59.7938 105.777C60.0577 105.308 60.1893 104.776 60.1746 104.237C60.1788 102.895 59.8285 101.575 59.1591 100.412C58.4897 99.2481 57.525 98.2819 56.3625 97.6107Z" fill="#1C2225"></path><path d="M57.1369 105.726C56.8975 105.723 56.6625 105.661 56.4519 105.548L28.7993 89.6142C27.8925 89.0907 27.1397 88.3373 26.6169 87.4302C26.094 86.523 25.8195 85.4941 25.8211 84.447C25.8211 84.0837 25.9654 83.7352 26.2223 83.4783C26.4792 83.2214 26.8277 83.077 27.191 83.077C27.4304 83.0807 27.6654 83.142 27.876 83.2557L55.5286 99.2487C56.4354 99.7722 57.1882 100.526 57.711 101.433C58.2339 102.34 58.5084 103.369 58.5068 104.416C58.5112 104.6 58.4762 104.783 58.4043 104.952C58.3324 105.122 58.2252 105.274 58.0899 105.399C57.9644 105.523 57.8156 105.621 57.652 105.687C57.4885 105.754 57.3134 105.787 57.1369 105.786V105.726Z" fill="black"></path><path d="M32.7603 88.6016C31.9826 88.1601 31.3123 87.5519 30.7974 86.8207C30.2824 86.0896 29.9357 85.2535 29.7821 84.3725L27.8611 83.2557C27.6505 83.142 27.4155 83.0807 27.1761 83.077C26.8128 83.077 26.4643 83.2214 26.2074 83.4783C25.9505 83.7352 25.8062 84.0837 25.8062 84.447C25.8046 85.4941 26.0791 86.523 26.602 87.4302C27.1248 88.3373 27.8776 89.0907 28.7844 89.6142L56.4519 105.607C56.6625 105.721 56.8975 105.782 57.1369 105.786C57.3134 105.787 57.4885 105.754 57.652 105.687C57.8156 105.621 57.9644 105.523 58.0899 105.399C58.2252 105.274 58.3324 105.122 58.4043 104.952C58.4762 104.783 58.5112 104.6 58.5068 104.416C58.5296 104.104 58.5296 103.79 58.5068 103.478L32.7603 88.6016Z" fill="url(#paint0_linear_5678_19013)"></path><path d="M57.8069 104.341C57.7237 104.361 57.637 104.361 57.5538 104.341L29.9012 88.274C29.1171 87.8213 28.4662 87.1701 28.014 86.3858C27.5617 85.6016 27.3241 84.712 27.325 83.8067C27.3289 83.6631 27.3887 83.5268 27.4916 83.4267C27.5945 83.3265 27.7324 83.2705 27.876 83.2706C27.9594 83.2529 28.0457 83.2529 28.1291 83.2706L55.7818 99.3529C56.5648 99.8067 57.2149 100.458 57.667 101.242C58.1191 102.026 58.3573 102.915 58.3579 103.82C58.3543 103.961 58.2955 104.095 58.1941 104.192C58.0886 104.289 57.9502 104.343 57.8069 104.341Z" fill="#A85D00"></path><path d="M54.4565 98.8466L54.0246 99.0998L31.0478 85.8766L31.4796 85.6383L54.4565 98.8466Z" fill="#E58919"></path><path d="M54.0246 99.0998V101.199L31.0478 87.9911V85.8766L54.0246 99.0998Z" fill="#CC7A16"></path><path d="M54.4565 98.8466L54.0247 99.0997V101.199L54.4565 100.946V98.8466Z" fill="#AB6613"></path><path d="M56.5561 97.7297L59.162 96.196V95.3472L56.5561 96.8809V97.7297Z" fill="#373C3F"></path><path d="M56.5561 96.881L59.162 95.3473L58.5068 94.975L55.9009 96.5087L56.5561 96.881Z" fill="#505453"></path><path d="M55.9009 97.3874L56.5561 97.7745V96.8811L55.9009 96.5088V97.3874Z" fill="#1C2225"></path><path d="M54.4565 96.5088L57.0624 94.9899V94.1411L54.4565 95.66V96.5088Z" fill="#373C3F"></path><path d="M54.4565 95.66L57.0624 94.1411L56.4072 93.7688L53.8013 95.2877L54.4565 95.66Z" fill="#505453"></path><path d="M53.8013 96.1812L54.4565 96.5534V95.66L53.8013 95.2877V96.1812Z" fill="#1C2225"></path><path d="M52.3568 95.3026L54.9627 93.7688V92.92L52.3568 94.4538V95.3026Z" fill="#373C3F"></path><path d="M52.3569 94.4538L54.9628 92.92L54.3076 92.5477L51.7017 94.0666L52.3569 94.4538Z" fill="#505453"></path><path d="M51.7017 94.9601L52.3569 95.3473V94.4538L51.7017 94.0667V94.9601Z" fill="#1C2225"></path><path d="M50.2572 94.0815L52.8631 92.5627V91.7139L50.2572 93.2328V94.0815Z" fill="#373C3F"></path><path d="M50.2572 93.2327L52.8631 91.7138L52.2079 91.3416L49.602 92.8604L50.2572 93.2327Z" fill="#505453"></path><path d="M49.602 93.7539L50.2572 94.1262V93.2327L49.602 92.8605V93.7539Z" fill="#1C2225"></path><path d="M48.1576 92.8754L50.7635 91.3416V90.4928L48.1576 92.0266V92.8754Z" fill="#373C3F"></path><path d="M48.1576 92.0265L50.7635 90.4928L50.1083 90.1205L47.5024 91.6543L48.1576 92.0265Z" fill="#505453"></path><path d="M47.5024 92.5478L48.1576 92.92V92.0266L47.5024 91.6543V92.5478Z" fill="#1C2225"></path><path d="M46.0728 91.6543L48.6787 90.1354V89.2866L46.0728 90.8055V91.6543Z" fill="#373C3F"></path><path d="M46.0728 90.8055L48.6787 89.2866L48.0086 88.9143L45.4176 90.4332L46.0728 90.8055Z" fill="#505453"></path><path d="M45.4176 91.3267L46.0728 91.699V90.8055L45.4176 90.4332V91.3267Z" fill="#1C2225"></path><path d="M43.9732 90.4481L46.5791 88.9143V88.0656L43.9732 89.5993V90.4481Z" fill="#373C3F"></path><path d="M43.9732 89.5993L46.5791 88.0655L45.909 87.6932L43.318 89.2121L43.9732 89.5993Z" fill="#505453"></path><path d="M43.318 90.1205L43.9732 90.4928V89.5993L43.318 89.2122V90.1205Z" fill="#1C2225"></path><path d="M41.8735 89.227L44.4795 87.7082V86.8594L41.8735 88.3783V89.227Z" fill="#373C3F"></path><path d="M41.8736 88.3782L44.4795 86.8593L43.8243 86.4871L41.2184 88.0059L41.8736 88.3782Z" fill="#505453"></path><path d="M41.2184 88.8994L41.8736 89.2717V88.3783L41.2184 88.006V88.8994Z" fill="#1C2225"></path><path d="M39.7739 88.0209L42.3799 86.4871V85.6383L39.7739 87.1721V88.0209Z" fill="#373C3F"></path><path d="M39.7739 87.172L42.3798 85.6383L41.7246 85.266L39.1187 86.7849L39.7739 87.172Z" fill="#505453"></path><path d="M39.1187 87.6784L39.7739 88.0655V87.1721L39.1187 86.7849V87.6784Z" fill="#1C2225"></path><path d="M37.6743 86.7998L40.2802 85.2809V84.4321L37.6743 85.951V86.7998Z" fill="#373C3F"></path><path d="M37.6743 85.951L40.2802 84.4321L39.625 84.0598L37.0191 85.5787L37.6743 85.951Z" fill="#505453"></path><path d="M37.0191 86.4722L37.6743 86.8445V85.951L37.0191 85.5787V86.4722Z" fill="#1C2225"></path><path d="M35.5746 85.5936L38.1806 84.0598V83.2111L35.5746 84.7448V85.5936Z" fill="#373C3F"></path><path d="M35.5746 84.7448L38.1806 83.211L37.5254 82.8387L34.9194 84.3725L35.5746 84.7448Z" fill="#505453"></path><path d="M34.9194 85.266L35.5746 85.6383V84.7448L34.9194 84.3726V85.266Z" fill="#1C2225"></path><path d="M33.475 84.3726L36.081 82.8537V82.0049L33.475 83.5238V84.3726Z" fill="#373C3F"></path><path d="M33.475 83.5237L36.081 82.0048L35.4258 81.6326L32.8198 83.1515L33.475 83.5237Z" fill="#505453"></path><path d="M32.8198 84.0449L33.475 84.4172V83.5238L32.8198 83.1515V84.0449Z" fill="#1C2225"></path><path d="M31.3754 83.1664L33.9813 81.6326V80.7838L31.3754 82.3176V83.1664Z" fill="#373C3F"></path><path d="M31.3754 82.3175L33.9813 80.7838L33.3261 80.4115L30.7202 81.9304L31.3754 82.3175Z" fill="#505453"></path><path d="M30.7202 82.8388L31.3754 83.211V82.3176L30.7202 81.9304V82.8388Z" fill="#1C2225"></path><path d="M29.2906 81.9453L31.8817 80.4264V79.5776L29.2906 81.0965V81.9453Z" fill="#373C3F"></path><path d="M29.2906 81.0965L31.8817 79.5776L31.2265 79.2053L28.6205 80.7242L29.2906 81.0965Z" fill="#505453"></path><path d="M28.6205 81.6177L29.2906 81.99V81.0965L28.6205 80.7242V81.6177Z" fill="#1C2225"></path><path d="M59.311 100.693L61.9169 99.1742L62.4381 99.2487L59.847 100.768L59.311 100.693Z" fill="#373C3F"></path><path d="M60.0108 101.333L62.6168 99.8145L62.4381 99.2487L59.847 100.768L60.0108 101.333Z" fill="#505453"></path><path d="M59.311 100.693L59.5492 101.259L60.0108 101.333L59.847 100.768L59.311 100.693Z" fill="#1C2225"></path><path d="M58.3281 99.2934L60.9341 97.7596L61.2617 97.2682L58.6706 98.7871L58.3281 99.2934Z" fill="#373C3F"></path><path d="M58.6707 98.787L61.2617 97.2681L60.6809 96.6427L58.075 98.1616L58.6707 98.787Z" fill="#505453"></path><path d="M57.7474 98.6679L58.3281 99.2933L58.6706 98.787L58.075 98.1616L57.7474 98.6679Z" fill="#1C2225"></path><path d="M59.9959 102.525L62.6018 100.991L63.1826 101.185L60.5767 102.703L59.9959 102.525Z" fill="#373C3F"></path><path d="M60.6511 103.373L63.257 101.855L63.1826 101.184L60.5767 102.703L60.6511 103.373Z" fill="#505453"></path><path d="M59.9959 102.525L60.115 103.165L60.6511 103.373L60.5767 102.703L59.9959 102.525Z" fill="#1C2225"></path><path d="M58.2834 107.007L61.2021 105.384L62.0658 105.994L59.1471 107.707L58.2834 107.007Z" fill="#373C3F"></path><path d="M58.2835 107.007L57.5538 107.215L58.4771 108.005L59.1472 107.707L58.2835 107.007Z" fill="#1C2225"></path><path d="M60.0406 104.997L62.6316 103.478L63.2124 103.671L60.6213 105.19L60.0406 104.997Z" fill="#373C3F"></path><path d="M60.2491 106.084L62.855 104.565L63.2124 103.671L60.6214 105.19L60.2491 106.084Z" fill="#505453"></path><path d="M60.0406 104.997L59.6981 105.875L60.2491 106.084L60.6214 105.19L60.0406 104.997Z" fill="#1C2225"></path><path d="M27.8462 84.6853C27.8763 85.149 28.0145 85.5993 28.2498 86.0001C28.4851 86.4009 28.811 86.741 29.2013 86.9934C29.9309 87.4252 30.5415 87.0827 30.5415 86.2488C30.513 85.7863 30.3771 85.3369 30.1444 84.9362C29.9117 84.5355 29.5888 84.1947 29.2013 83.9407C28.4567 83.5089 27.8462 83.8514 27.8462 84.6853Z" fill="#E0B350"></path><path d="M28.0696 84.8788C28.0934 85.2675 28.2083 85.6453 28.4049 85.9815C28.6014 86.3177 28.8742 86.6031 29.2013 86.8146C29.8118 87.172 30.3181 86.8891 30.3181 86.1743C30.2936 85.7874 30.1801 85.4114 29.9864 85.0756C29.7927 84.7398 29.524 84.4533 29.2013 84.2385C28.5759 83.8215 28.0696 84.1045 28.0696 84.8788Z" fill="#A85D00"></path><path d="M28.3674 84.9831C28.3787 85.2795 28.4602 85.5691 28.6052 85.8279C28.7502 86.0868 28.9544 86.3076 29.2013 86.4722C29.6629 86.7402 30.0352 86.4722 30.0352 86.0105C30.0275 85.7133 29.9475 85.4224 29.8023 85.1629C29.657 84.9035 29.4507 84.6833 29.2013 84.5214C28.7545 84.2534 28.3674 84.4619 28.3674 84.9831Z" fill="#CD8B19"></path><path d="M28.9779 84.4321C29.057 84.4488 29.1326 84.479 29.2013 84.5215C29.4507 84.6833 29.657 84.9035 29.8023 85.163C29.9476 85.4224 30.0275 85.7133 30.0352 86.0106C30.0369 86.1289 30.0114 86.2461 29.9607 86.3531L29.2013 86.2042C28.9035 85.9361 28.8737 85.6532 28.695 85.2809L28.9779 84.4321Z" fill="#B86A0B"></path><path d="M28.9482 85.8169L28.8141 85.4744C29.1301 85.3589 29.4227 85.1874 29.6778 84.9681C29.823 85.159 29.9292 85.3766 29.9905 85.6085C29.6329 85.61 29.2789 85.6808 28.9482 85.8169Z" fill="#DE9B16"></path><path d="M28.3823 85.3703C28.3919 85.573 28.4496 85.7705 28.5506 85.9466C28.6515 86.1227 28.7929 86.2722 28.963 86.3829C29.2906 86.5616 29.5587 86.3829 29.5587 86.0553C29.5474 85.8512 29.4874 85.6528 29.3838 85.4767C29.2802 85.3005 29.1359 85.1517 28.963 85.0427C28.6354 84.8789 28.3823 84.998 28.3823 85.3703Z" fill="#B86A0B"></path><path d="M28.5461 85.5936C28.5551 85.7043 28.5894 85.8115 28.6461 85.907C28.7029 86.0025 28.7807 86.0838 28.8737 86.1446C29.0524 86.2488 29.2013 86.1446 29.2013 85.9659C29.1945 85.8546 29.1613 85.7466 29.1043 85.6507C29.0473 85.5549 28.9682 85.474 28.8737 85.4149C28.695 85.3107 28.5461 85.3852 28.5461 85.5936Z" fill="#E0981B"></path><path d="M54.5607 100.246C54.5914 100.706 54.7285 101.153 54.961 101.551C55.1936 101.949 55.5153 102.287 55.9009 102.54C56.6455 102.971 57.2411 102.629 57.2411 101.795C57.2127 101.333 57.0767 100.883 56.844 100.482C56.6114 100.082 56.2885 99.7409 55.9009 99.487C55.0968 99.0551 54.5607 99.3976 54.5607 100.246Z" fill="#E0B350"></path><path d="M54.7692 100.365C54.7907 100.755 54.9045 101.133 55.1013 101.47C55.2981 101.807 55.5722 102.092 55.9009 102.301C56.5263 102.659 57.0326 102.301 57.0326 101.661C57.0076 101.273 56.8923 100.895 56.6958 100.559C56.4993 100.223 56.2271 99.9375 55.9009 99.7252C55.2755 99.3678 54.7692 99.6507 54.7692 100.365Z" fill="#A85D00"></path><path d="M55.0968 100.544C55.1019 100.842 55.1807 101.134 55.3263 101.394C55.4718 101.654 55.6795 101.873 55.9307 102.033C56.3923 102.301 56.7646 102.033 56.7646 101.572C56.7569 101.274 56.677 100.983 56.5317 100.724C56.3864 100.465 56.1801 100.244 55.9307 100.083C55.4542 99.7698 55.0968 100.008 55.0968 100.544Z" fill="#CD8B19"></path><path d="M55.6775 99.9783L55.9158 100.068C56.1652 100.229 56.3715 100.45 56.5168 100.709C56.6621 100.969 56.742 101.259 56.7497 101.557C56.7544 101.677 56.7233 101.796 56.6603 101.899L55.9009 101.75C55.6682 101.485 55.5 101.169 55.4095 100.827L55.6775 99.9783Z" fill="#B86A0B"></path><path d="M55.6626 101.363C55.6041 101.258 55.5543 101.149 55.5137 101.036C55.8304 100.906 56.1264 100.73 56.3923 100.514C56.5273 100.709 56.628 100.926 56.6901 101.155C56.3389 101.171 55.9923 101.241 55.6626 101.363Z" fill="#DE9B16"></path><path d="M55.0968 100.916C55.1104 101.12 55.1714 101.317 55.2748 101.493C55.3782 101.669 55.5212 101.818 55.6924 101.929C56.0052 102.123 56.2732 101.929 56.2732 101.601C56.2612 101.399 56.2026 101.203 56.1018 101.027C56.001 100.851 55.8609 100.701 55.6924 100.589C55.35 100.395 55.0968 100.544 55.0968 100.916Z" fill="#B86A0B"></path><path d="M55.2606 101.14C55.2645 101.25 55.295 101.358 55.3495 101.454C55.4039 101.55 55.4807 101.631 55.5733 101.691C55.752 101.795 55.9009 101.691 55.9009 101.512C55.8942 101.401 55.8609 101.293 55.8039 101.197C55.7469 101.101 55.6679 101.02 55.5733 100.961C55.3946 100.857 55.2606 100.946 55.2606 101.14Z" fill="#E0981B"></path><g style="mix-blend-mode:multiply"><path d="M27.876 84.5214C27.9648 84.5275 28.0512 84.5529 28.1291 84.5959L55.7818 100.589C56.423 100.961 56.976 101.469 57.4027 102.075C57.8294 102.682 58.1197 103.374 58.2537 104.103C58.3235 104.02 58.3605 103.914 58.3579 103.805C58.3573 102.9 58.1191 102.011 57.667 101.227C57.2149 100.443 56.5648 99.7918 55.7818 99.338L28.1291 83.3897C28.0457 83.372 27.9594 83.372 27.876 83.3897C27.7324 83.3897 27.5945 83.4457 27.4916 83.5458C27.3886 83.6459 27.3289 83.7823 27.325 83.9258C27.3303 84.2411 27.3652 84.5552 27.4292 84.8639C27.4674 84.7728 27.5286 84.6933 27.607 84.6332C27.6854 84.5731 27.7781 84.5346 27.876 84.5214Z" fill="#8C7900"></path></g><path d="M25.8806 76.0633L18.7329 71.8938V64.0909L25.8806 68.2604V76.0633Z" fill="#524F4D"></path><path d="M25.8806 76.0633L35.7831 70.3451V62.5571L25.8806 68.2604V76.0633Z" fill="#8C8782"></path><path d="M18.7329 64.091L25.8806 68.2604L35.7831 62.5572L28.6354 58.3728L18.7329 64.091Z" fill="#A9AEAF"></path><path d="M21.726 63.8378L24.7638 65.6098L30.9584 62.0508L27.9207 60.2937L21.726 63.8378Z" fill="#FFF81A"></path><path d="M67.6499 56.154V59.2812C67.6499 59.579 67.3521 59.8321 66.9054 59.9512H66.7564H65.8779H65.729C65.6849 59.962 65.639 59.962 65.5949 59.9512H65.4907L65.3567 59.8619C65.3567 59.8619 65.3567 59.7875 65.3567 59.7577V56.6306C65.3567 56.3774 65.5801 56.154 65.9225 56.02H66.0566C66.2494 55.9963 66.4445 55.9963 66.6373 56.02C66.8351 55.9954 67.0352 55.9954 67.233 56.02C67.3521 55.6031 67.6499 55.8562 67.6499 56.154Z" fill="#F2F2F4"></path><path d="M69.2284 49.2893V56.0647C69.2284 56.7199 68.5732 57.2858 67.6052 57.5538L67.2776 57.6283H67.0096H66.7267H66.0566H65.7736H65.4312L65.1036 57.5538H64.9398L64.6419 57.4496H64.5526L64.3292 57.3453H64.225L63.9569 57.1518L63.8229 57.0028L63.5847 56.5859H63.5102V56.4668C63.502 56.3876 63.502 56.3077 63.5102 56.2285V49.2893C63.5102 48.7234 64.0016 48.232 64.7462 47.9342L65.0142 47.8449H65.1482C65.5661 47.7345 65.9967 47.6795 66.4289 47.6811C66.866 47.6795 67.3014 47.7346 67.7244 47.8449C68.5732 48.0682 69.2284 48.6341 69.2284 49.2893Z" fill="#414141"></path><path d="M63.3911 56.0647C63.3829 56.1439 63.3829 56.2238 63.3911 56.303V56.4221L63.4655 56.5263L63.5698 56.6604L63.7038 56.8093L63.9718 57.0029H64.0761L64.2994 57.1071H64.3888L64.6122 57.1816V52.8334H63.2124L63.3911 56.0647Z" fill="#333333"></path><path d="M71.0749 41.5757V52.6546C71.0749 53.7119 69.9878 54.6202 68.4094 55.067L67.8733 55.1861H67.6648H67.501H67.3223H66.8756H65.7588H65.312H65.1185H64.9696H64.7462L64.225 55.0968L63.9421 55.0074C63.7778 54.9635 63.6182 54.9037 63.4656 54.8287H63.3167L62.9444 54.6351L62.7955 54.5458L62.3487 54.2331L62.2445 54.1288L62.0211 53.9055L61.8573 53.6076C61.8171 53.5514 61.7822 53.4916 61.7531 53.429C61.7172 53.3674 61.6873 53.3026 61.6637 53.2354C61.6618 53.2007 61.6618 53.1659 61.6637 53.1311C61.6491 52.9975 61.6491 52.8627 61.6637 52.7291V41.5757C61.6637 40.6673 62.453 39.8632 63.674 39.3867C63.8185 39.3208 63.9679 39.266 64.1208 39.2229H64.3292C65.7011 38.8653 67.1417 38.8653 68.5136 39.2229C69.9878 39.5952 71.0749 40.5184 71.0749 41.5757Z" fill="#4E4D4C"></path><path d="M61.5595 52.6397C61.5449 52.7734 61.5449 52.9082 61.5595 53.0418C61.5576 53.0765 61.5576 53.1113 61.5595 53.146C61.583 53.2133 61.613 53.2781 61.6488 53.3396C61.678 53.4023 61.7129 53.4621 61.7531 53.5183L61.9169 53.7417L62.1402 53.9651L62.2445 54.0693L62.6912 54.382L62.8401 54.4713L63.2124 54.6649H63.3613C63.5139 54.7399 63.6735 54.7998 63.8378 54.8436L64.1208 54.933L64.6419 55.0521H64.8653H65.0142H65.2078H65.4609V45.4474H61.5595V52.6397Z" fill="#302F2D"></path><path d="M53.7864 37.5254L63.9421 43.3775L76.4654 36.1554L66.3097 30.2883L53.7864 37.5254Z" fill="#CCCCCC"></path><path d="M53.7864 28.1887L57.6729 30.4372L70.2112 23.2002L66.3097 20.9666L53.7864 28.1887Z" fill="#F3BF65"></path><path d="M57.673 39.7739L53.7864 37.5254V36.8404L52.1931 36.081V33.8175L53.7864 32.8943V28.1887L57.673 30.4373V39.7739Z" fill="#AC5200"></path><path d="M57.6729 39.7739L70.1963 32.5369V23.2002L57.6729 30.4372V39.7739Z" fill="#EB9500"></path><path d="M46.3558 21.3537L57.673 27.8462L70.2112 20.6241L58.894 14.1167L46.3558 21.3537Z" fill="#F3BF65"></path><path d="M57.673 30.4373L46.3707 23.9299V21.3538L57.673 27.8462V30.4373Z" fill="#AC5200"></path><path d="M57.6729 30.4372L70.1963 23.2002V20.624L57.6729 27.8462V30.4372Z" fill="#EB9500"></path><path d="M27.2654 36.3043L34.845 40.6823L36.9893 39.4463L29.4097 35.0684L27.2654 36.3043Z" fill="#F4C26C"></path><path d="M63.9421 50.6146L53.7864 44.7624V37.5254L63.9421 43.3776V50.6146Z" fill="#7D7D7D"></path><path d="M63.9421 50.6146L76.4654 43.3775V36.1554L63.9421 43.3775V50.6146Z" fill="#A6A6A6"></path><path d="M72.0726 50.019L63.9421 48.2916V44.9561L72.0726 46.6983V50.019Z" fill="#919191"></path><path d="M72.0726 50.0189L78.9224 46.0579V42.7372L72.0726 46.6982V50.0189Z" fill="#B3B3B3"></path><path d="M63.9421 44.956L72.0726 46.6983L78.9225 42.7373L76.4654 37.7637L63.9421 44.956Z" fill="#CCCCCC"></path><path d="M71.0749 30.6011V37.6892C71.0749 38.7465 69.9878 39.6697 68.4094 40.1016C68.2335 40.1567 68.0545 40.2015 67.8733 40.2356H67.6648H67.501H67.3223H66.8756H65.7588H65.312H65.1185H64.9696H64.7462C64.5688 40.2067 64.3943 40.1619 64.225 40.1016L63.9421 40.0271L63.4656 39.8484L63.3167 39.774L62.9444 39.5953L62.7955 39.5059C62.638 39.4089 62.4886 39.2993 62.3487 39.1783L62.2445 39.089L62.0211 38.8656L61.8573 38.7167L61.7531 38.538C61.72 38.4751 61.6902 38.4104 61.6637 38.3444C61.6618 38.3097 61.6618 38.2749 61.6637 38.2402C61.6483 38.1116 61.6483 37.9816 61.6637 37.853V30.6011C61.6637 29.6927 62.453 28.8886 63.674 28.4121C63.7906 28.3652 63.91 28.3254 64.0314 28.293H64.2399C65.6118 27.9354 67.0524 27.9354 68.4243 28.293C69.9878 28.6206 71.0749 29.5289 71.0749 30.6011Z" fill="#6B6967"></path><path d="M61.5595 37.6892C61.5441 37.8178 61.5441 37.9478 61.5595 38.0763C61.5576 38.1111 61.5576 38.1459 61.5595 38.1806C61.5859 38.2466 61.6158 38.3112 61.6489 38.3742L61.7531 38.5529L61.9169 38.7762L62.1403 38.9996L62.2445 39.0889C62.3844 39.2099 62.5338 39.3195 62.6912 39.4165L62.8401 39.5059L63.2124 39.6846L63.3613 39.759L63.8378 39.9377L64.1208 40.0122C64.2901 40.0725 64.4645 40.1173 64.6419 40.1462H64.8653H65.0142H65.2078H65.5205V32.0753L61.5148 30.4373L61.5595 37.6892Z" fill="#4D4A48"></path><path d="M61.6191 30.4372C61.6191 28.9481 63.7187 27.7866 66.3097 27.7866C68.9008 27.7866 71.0153 28.9779 71.0153 30.4372C71.0153 31.8965 68.9008 33.0878 66.3097 33.0878C63.7187 33.0878 61.6191 31.8965 61.6191 30.4372Z" fill="#C2C2C2"></path><path d="M58.2835 24.5552L52.5951 21.2643V14.6974L58.2835 17.9734V24.5552Z" fill="#AC5200"></path><path d="M58.2834 24.5552L63.9718 21.2643V14.6974L58.2834 17.9734V24.5552Z" fill="#EB9500"></path><path d="M52.5802 14.6974L58.2835 17.9734L63.9718 14.6974L58.2835 11.4065L52.5802 14.6974Z" fill="#F3BF65"></path><path d="M65.6843 31.0627L64.5824 30.8989C64.5824 30.5713 65.7439 22.962 58.7302 21.2644C53.0567 19.8945 50.0934 22.0239 50.0785 22.0388L49.3936 21.1453C49.5425 21.056 52.7738 18.6734 58.9983 20.1774C67.0096 22.1281 65.6992 30.9883 65.6843 31.0627Z" fill="black"></path><path d="M68.4987 29.7821L67.3968 29.6034C67.3968 29.2907 68.5732 21.6814 61.5595 19.9838C55.886 18.6138 52.9227 20.7432 52.8929 20.7581L52.2228 19.8647C52.3569 19.7604 55.6031 17.3927 61.8127 18.8967C69.8687 20.8475 68.4987 29.6481 68.4987 29.7821Z" fill="black"></path><path d="M26.4911 79.6372C25.6087 79.6681 24.7314 79.4915 23.9297 79.1217C23.1279 78.7519 22.4242 78.1991 21.8749 77.5078C17.9437 72.5938 21.8749 69.2135 21.9494 69.1837L22.6641 70.0325C22.5301 70.1516 19.5221 72.7725 22.6641 76.8079C25.8061 80.8434 32.4326 76.4356 32.4922 76.391L33.1325 77.3142C31.1779 78.6913 28.8779 79.4958 26.4911 79.6372Z" fill="black"></path><path d="M24.7042 78.8331C23.8213 78.8676 22.9428 78.6926 22.1405 78.3225C21.3382 77.9524 20.6348 77.3977 20.088 76.7037C16.1567 71.8046 20.088 68.4094 20.088 68.3796L20.8027 69.2433C20.6687 69.3476 17.6607 71.9684 20.8772 76.0038C24.0937 80.0393 30.6457 75.6465 30.7053 75.6018L31.3456 76.5101C29.3939 77.8929 27.0922 78.698 24.7042 78.8331Z" fill="black"></path></g><defs><linearGradient id="paint0_linear_5678_19013" x1="39.7442" y1="98.519" x2="44.0179" y2="91.3267" gradientUnits="userSpaceOnUse"><stop stop-color="#7C7C7C"></stop><stop offset="0.14" stop-color="#575757"></stop><stop offset="0.29" stop-color="#383838"></stop><stop offset="0.45" stop-color="#1F1F1F"></stop><stop offset="0.61" stop-color="#0E0E0E"></stop><stop offset="0.79" stop-color="#030303"></stop><stop offset="1"></stop></linearGradient><clipPath id="clip0_5678_19013"><rect width="125.725" height="110" fill="white"></rect></clipPath></defs></svg>