<svg xmlns="http://www.w3.org/2000/svg" width="92" height="110" viewBox="0 0 92 110" fill="none"><g clip-path="url(#clip0_5678_15856)"><path d="M73.0983 76.4378H67.5062C67.4642 76.4379 67.4227 76.4294 67.384 76.4131C67.3453 76.3967 67.3103 76.3728 67.2811 76.3426C67.2519 76.3125 67.229 76.2767 67.2138 76.2376C67.1987 76.1984 67.1915 76.1566 67.1928 76.1146V63.9708C67.1928 63.8877 67.2259 63.8079 67.2846 63.7492C67.3434 63.6904 67.4231 63.6574 67.5062 63.6574C67.5482 63.6561 67.59 63.6632 67.6292 63.6784C67.6683 63.6935 67.704 63.7164 67.7342 63.7456C67.7643 63.7749 67.7883 63.8099 67.8047 63.8485C67.821 63.8872 67.8294 63.9288 67.8294 63.9708V75.8013H72.7849V63.9708C72.7849 63.8877 72.8179 63.8079 72.8767 63.7492C72.9355 63.6904 73.0152 63.6574 73.0983 63.6574C73.1403 63.6561 73.1821 63.6632 73.2212 63.6784C73.2604 63.6935 73.2961 63.7164 73.3262 63.7456C73.3564 63.7749 73.3804 63.8099 73.3967 63.8485C73.4131 63.8872 73.4215 63.9288 73.4215 63.9708V76.1146C73.4215 76.2004 73.3874 76.2826 73.3268 76.3432C73.2662 76.4038 73.184 76.4378 73.0983 76.4378Z" fill="#17262F"></path><path d="M85.2814 76.4382H79.6893C79.6036 76.4382 79.5214 76.4041 79.4608 76.3435C79.4002 76.2829 79.3661 76.2007 79.3661 76.115V63.9711C79.3661 63.8854 79.4002 63.8032 79.4608 63.7426C79.5214 63.682 79.6036 63.6479 79.6893 63.6479C79.775 63.6479 79.8572 63.682 79.9178 63.7426C79.9784 63.8032 80.0125 63.8854 80.0125 63.9711V75.8016H84.968V63.9711C84.968 63.888 85.001 63.8083 85.0598 63.7495C85.1185 63.6908 85.1982 63.6577 85.2814 63.6577C85.3233 63.6564 85.3651 63.6636 85.4043 63.6787C85.4435 63.6939 85.4792 63.7168 85.5093 63.746C85.5395 63.7752 85.5634 63.8102 85.5798 63.8489C85.5961 63.8876 85.6046 63.9291 85.6045 63.9711V76.115C85.6045 76.2007 85.5705 76.2829 85.5099 76.3435C85.4493 76.4041 85.3671 76.4382 85.2814 76.4382Z" fill="#17262F"></path><path d="M85.2813 64.294H67.5062C67.4642 64.294 67.4227 64.2856 67.384 64.2692C67.3453 64.2529 67.3103 64.2289 67.2811 64.1988C67.2519 64.1686 67.229 64.1329 67.2138 64.0937C67.1987 64.0546 67.1915 64.0128 67.1928 63.9708V56.6453C67.1928 55.9821 67.4556 55.3459 67.9237 54.876C68.3918 54.4061 69.0269 54.1408 69.6902 54.1382H83.0974C83.7623 54.1382 84.4 54.4023 84.8702 54.8725C85.3404 55.3427 85.6045 55.9804 85.6045 56.6453V63.9708C85.6045 64.0565 85.5705 64.1387 85.5099 64.1993C85.4493 64.2599 85.3671 64.294 85.2813 64.294ZM67.8294 63.6574H84.9679V56.6453C84.9654 56.1509 84.7671 55.6776 84.4166 55.329C84.0661 54.9803 83.5918 54.7845 83.0974 54.7846H69.6902C69.1967 54.7846 68.7234 54.9806 68.3744 55.3296C68.0255 55.6785 67.8294 56.1518 67.8294 56.6453V63.6574Z" fill="#17262F"></path><path d="M85.2813 60.3965H67.5062C67.4642 60.3965 67.4227 60.3881 67.384 60.3717C67.3453 60.3554 67.3103 60.3314 67.2811 60.3013C67.2519 60.2711 67.229 60.2354 67.2138 60.1962C67.1987 60.1571 67.1915 60.1153 67.1928 60.0733C67.1928 59.9902 67.2259 59.9105 67.2846 59.8517C67.3434 59.7929 67.4231 59.7599 67.5062 59.7599H85.2813C85.3233 59.7586 85.3651 59.7657 85.4043 59.7809C85.4434 59.7961 85.4792 59.8189 85.5093 59.8482C85.5394 59.8774 85.5634 59.9124 85.5798 59.9511C85.5961 59.9897 85.6045 60.0313 85.6045 60.0733C85.6045 60.159 85.5705 60.2412 85.5099 60.3018C85.4493 60.3624 85.3671 60.3965 85.2813 60.3965Z" fill="#17262F"></path><path d="M85.2814 83.9105H80.8841C80.8421 83.9118 80.8003 83.9046 80.7612 83.8895C80.722 83.8743 80.6863 83.8514 80.6561 83.8222C80.626 83.793 80.602 83.758 80.5857 83.7193C80.5693 83.6806 80.5609 83.6391 80.5609 83.5971V83.0976C80.5604 83.0432 80.5735 82.9896 80.5992 82.9417C80.6249 82.8937 80.6622 82.853 80.7078 82.8234L82.3629 81.844V79.239L79.4249 76.3009C79.3947 76.2717 79.3706 76.2367 79.3542 76.198C79.3378 76.1593 79.3294 76.1177 79.3294 76.0757C79.3294 76.0337 79.3378 75.9921 79.3542 75.9534C79.3706 75.9147 79.3947 75.8797 79.4249 75.8504C79.4863 75.794 79.5667 75.7627 79.6501 75.7627C79.7336 75.7627 79.8139 75.794 79.8754 75.8504L82.8624 78.8374C82.9202 78.8988 82.9549 78.9785 82.9603 79.0627V81.942C82.9591 81.9958 82.9441 82.0484 82.9166 82.0947C82.8892 82.141 82.8502 82.1795 82.8036 82.2064L81.1583 83.1857H84.9288V76.1149C84.9288 76.0318 84.9618 75.952 85.0206 75.8933C85.0794 75.8345 85.1591 75.8015 85.2422 75.8015C85.2842 75.8002 85.326 75.8073 85.3651 75.8225C85.4043 75.8376 85.44 75.8605 85.4701 75.8897C85.5003 75.919 85.5242 75.954 85.5406 75.9926C85.557 76.0313 85.5654 76.0729 85.5654 76.1149V83.5971C85.5657 83.6753 85.5368 83.7509 85.4842 83.8089C85.4316 83.8669 85.3593 83.9031 85.2814 83.9105Z" fill="#17262F"></path><path d="M71.9133 83.9104H67.5063C67.4231 83.9104 67.3434 83.8774 67.2847 83.8186C67.2259 83.7598 67.1929 83.6801 67.1929 83.597V76.1148C67.1929 76.0317 67.2259 75.952 67.2847 75.8932C67.3434 75.8344 67.4231 75.8014 67.5063 75.8014C67.5482 75.8001 67.59 75.8072 67.6292 75.8224C67.6684 75.8376 67.7041 75.8604 67.7342 75.8897C67.7644 75.9189 67.7883 75.9539 67.8047 75.9926C67.821 76.0312 67.8295 76.0728 67.8294 76.1148V83.2444H71.5901L69.9448 82.2651C69.9006 82.2363 69.8641 82.1972 69.8385 82.1511C69.8129 82.105 69.799 82.0534 69.7979 82.0007V79.1018C69.799 79.0185 69.8303 78.9384 69.8861 78.8766L72.8241 75.8896C72.8855 75.8331 72.9659 75.8018 73.0493 75.8018C73.1328 75.8018 73.2132 75.8331 73.2746 75.8896C73.3048 75.9188 73.3288 75.9538 73.3452 75.9925C73.3616 76.0312 73.3701 76.0728 73.3701 76.1148C73.3701 76.1568 73.3616 76.1984 73.3452 76.2371C73.3288 76.2758 73.3048 76.3108 73.2746 76.3401L70.3366 79.2781V81.844L71.9819 82.8233C72.0288 82.8515 72.0672 82.8919 72.0931 82.9402C72.119 82.9885 72.1313 83.0428 72.1288 83.0975V83.597C72.1322 83.6656 72.1129 83.7335 72.074 83.7901C72.0351 83.8467 71.9786 83.889 71.9133 83.9104Z" fill="#17262F"></path><path d="M32.4065 17.0898C31.7329 17.0872 31.0878 16.8178 30.6124 16.3406C30.1369 15.8633 29.87 15.2172 29.87 14.5435C29.87 14.4604 29.903 14.3807 29.9618 14.3219C30.0206 14.2632 30.1003 14.2301 30.1834 14.2301C30.2254 14.2288 30.2672 14.236 30.3064 14.2511C30.3455 14.2663 30.3812 14.2892 30.4114 14.3184C30.4415 14.3476 30.4655 14.3826 30.4818 14.4213C30.4982 14.46 30.5066 14.5015 30.5066 14.5435C30.4878 14.8052 30.5232 15.0678 30.6104 15.3152C30.6976 15.5626 30.8348 15.7894 31.0136 15.9814C31.1923 16.1734 31.4086 16.3265 31.6491 16.4312C31.8896 16.5359 32.1491 16.5899 32.4114 16.5899C32.6737 16.5899 32.9332 16.5359 33.1737 16.4312C33.4142 16.3265 33.6306 16.1734 33.8093 15.9814C33.988 15.7894 34.1253 15.5626 34.2125 15.3152C34.2997 15.0678 34.335 14.8052 34.3163 14.5435C34.3162 14.5015 34.3246 14.46 34.341 14.4213C34.3574 14.3826 34.3813 14.3476 34.4115 14.3184C34.4416 14.2892 34.4773 14.2663 34.5165 14.2511C34.5557 14.236 34.5975 14.2288 34.6394 14.2301C34.6806 14.2301 34.7213 14.2382 34.7594 14.254C34.7974 14.2697 34.8319 14.2928 34.861 14.3219C34.8901 14.351 34.9132 14.3856 34.929 14.4236C34.9447 14.4616 34.9528 14.5024 34.9528 14.5435C34.9528 15.2188 34.6846 15.8665 34.207 16.344C33.7295 16.8216 33.0818 17.0898 32.4065 17.0898Z" fill="#17262F"></path><path d="M19.0972 17.0898C18.4227 17.0872 17.7765 16.8181 17.2996 16.3412C16.8226 15.8642 16.5535 15.2181 16.5509 14.5435C16.5509 14.5015 16.5593 14.46 16.5757 14.4213C16.592 14.3826 16.616 14.3476 16.6462 14.3184C16.6763 14.2892 16.712 14.2663 16.7512 14.2511C16.7903 14.236 16.8321 14.2288 16.8741 14.2301C16.9572 14.2301 17.0369 14.2632 17.0957 14.3219C17.1545 14.3807 17.1875 14.4604 17.1875 14.5435C17.1875 15.05 17.3887 15.5358 17.7469 15.8939C18.105 16.252 18.5907 16.4532 19.0972 16.4532C19.6037 16.4532 20.0895 16.252 20.4476 15.8939C20.8058 15.5358 21.007 15.05 21.007 14.5435C21.007 14.4604 21.04 14.3807 21.0987 14.3219C21.1575 14.2632 21.2372 14.2301 21.3203 14.2301C21.3623 14.2288 21.4041 14.236 21.4433 14.2511C21.4824 14.2663 21.5182 14.2892 21.5483 14.3184C21.5784 14.3476 21.6024 14.3826 21.6188 14.4213C21.6351 14.46 21.6435 14.5015 21.6435 14.5435C21.6409 15.2181 21.3718 15.8642 20.8949 16.3412C20.4179 16.8181 19.7718 17.0872 19.0972 17.0898Z" fill="#17262F"></path><path d="M72.3442 17.0898C71.6706 17.0872 71.0254 16.8178 70.55 16.3406C70.0746 15.8633 69.8077 15.2172 69.8077 14.5435C69.8077 14.4604 69.8407 14.3807 69.8995 14.3219C69.9583 14.2632 70.038 14.2301 70.1211 14.2301C70.1631 14.2288 70.2049 14.236 70.244 14.2511C70.2832 14.2663 70.3189 14.2892 70.3491 14.3184C70.3792 14.3476 70.4032 14.3826 70.4195 14.4213C70.4359 14.46 70.4443 14.5015 70.4443 14.5435C70.4255 14.8052 70.4608 15.0678 70.5481 15.3152C70.6353 15.5626 70.7725 15.7894 70.9512 15.9814C71.13 16.1734 71.3463 16.3265 71.5868 16.4312C71.8273 16.5359 72.0868 16.5899 72.3491 16.5899C72.6114 16.5899 72.8709 16.5359 73.1114 16.4312C73.3519 16.3265 73.5683 16.1734 73.747 15.9814C73.9257 15.7894 74.0629 15.5626 74.1502 15.3152C74.2374 15.0678 74.2727 14.8052 74.2539 14.5435C74.2539 14.5015 74.2623 14.46 74.2787 14.4213C74.295 14.3826 74.319 14.3476 74.3492 14.3184C74.3793 14.2892 74.415 14.2663 74.4542 14.2511C74.4933 14.236 74.5351 14.2288 74.5771 14.2301C74.6602 14.2301 74.7399 14.2632 74.7987 14.3219C74.8575 14.3807 74.8905 14.4604 74.8905 14.5435C74.8905 15.2188 74.6222 15.8665 74.1447 16.344C73.6672 16.8216 73.0195 17.0898 72.3442 17.0898Z" fill="#17262F"></path><path d="M59.0349 17.0898C58.3604 17.0872 57.7142 16.8181 57.2373 16.3412C56.7603 15.8642 56.4912 15.2181 56.4886 14.5435C56.4886 14.5015 56.497 14.46 56.5134 14.4213C56.5297 14.3826 56.5537 14.3476 56.5838 14.3184C56.614 14.2892 56.6497 14.2663 56.6889 14.2511C56.728 14.236 56.7698 14.2288 56.8118 14.2301C56.8949 14.2301 56.9746 14.2632 57.0334 14.3219C57.0922 14.3807 57.1252 14.4604 57.1252 14.5435C57.1252 15.05 57.3264 15.5358 57.6845 15.8939C58.0427 16.252 58.5284 16.4532 59.0349 16.4532C59.5414 16.4532 60.0271 16.252 60.3853 15.8939C60.7434 15.5358 60.9446 15.05 60.9446 14.5435C60.9446 14.4604 60.9777 14.3807 61.0364 14.3219C61.0952 14.2632 61.1749 14.2301 61.258 14.2301C61.3 14.2288 61.3418 14.236 61.381 14.2511C61.4201 14.2663 61.4558 14.2892 61.486 14.3184C61.5161 14.3476 61.5401 14.3826 61.5565 14.4213C61.5728 14.46 61.5812 14.5015 61.5812 14.5435C61.5786 15.2181 61.3095 15.8642 60.8326 16.3412C60.3556 16.8181 59.7094 17.0872 59.0349 17.0898Z" fill="#17262F"></path><path d="M83.2443 14.8666H8.20691C8.16492 14.8666 8.12335 14.8582 8.08468 14.8418C8.046 14.8255 8.01101 14.8015 7.98178 14.7714C7.95255 14.7412 7.92967 14.7055 7.91451 14.6663C7.89935 14.6272 7.89221 14.5854 7.89352 14.5434V6.15042C7.90312 6.07426 7.94032 6.00428 7.99809 5.95373C8.05585 5.90319 8.13016 5.8756 8.20691 5.8762H37.0976C37.1578 5.87665 37.2166 5.89444 37.267 5.92744C37.3173 5.96044 37.3571 6.00725 37.3816 6.06228L38.2434 7.83489H53.2078L54.0598 5.98393C54.0962 5.94327 54.1421 5.91218 54.1933 5.8934C54.2445 5.87461 54.2996 5.86871 54.3536 5.8762H83.2443C83.2868 5.8762 83.3288 5.88456 83.368 5.9008C83.4072 5.91704 83.4428 5.94085 83.4728 5.97086C83.5028 6.00087 83.5266 6.0365 83.5429 6.07571C83.5591 6.11492 83.5675 6.15694 83.5675 6.19938V14.5924C83.5557 14.6693 83.5165 14.7395 83.4571 14.7899C83.3978 14.8402 83.3222 14.8675 83.2443 14.8666ZM8.5301 14.23H82.9603V6.46381H54.5593L53.7073 8.31477C53.6821 8.37133 53.6408 8.41918 53.5886 8.4523C53.5363 8.48541 53.4753 8.50231 53.4135 8.50084H38.0378C37.977 8.50304 37.917 8.48632 37.8662 8.45299C37.8153 8.41966 37.776 8.37136 37.7537 8.31477L36.8919 6.46381H8.49092L8.5301 14.23Z" fill="#17262F"></path><path d="M82.9407 48.2428H69.8958C69.8539 48.2442 69.8121 48.237 69.7729 48.2219C69.7337 48.2067 69.698 48.1838 69.6679 48.1546C69.6377 48.1254 69.6138 48.0904 69.5974 48.0517C69.581 48.013 69.5726 47.9714 69.5726 47.9295V30.9378C69.5645 30.8914 69.5666 30.8437 69.5788 30.7981C69.591 30.7525 69.613 30.7102 69.6434 30.674C69.6737 30.6379 69.7116 30.6088 69.7544 30.5889C69.7971 30.5689 69.8437 30.5586 69.8909 30.5586C69.9381 30.5586 69.9847 30.5689 70.0275 30.5889C70.0703 30.6088 70.1081 30.6379 70.1385 30.674C70.1688 30.7102 70.1909 30.7525 70.2031 30.7981C70.2153 30.8437 70.2174 30.8914 70.2092 30.9378V47.5867H82.6273V30.9378C82.626 30.8959 82.6331 30.854 82.6483 30.8149C82.6635 30.7757 82.6863 30.74 82.7156 30.7099C82.7448 30.6797 82.7798 30.6558 82.8185 30.6394C82.8571 30.623 82.8987 30.6146 82.9407 30.6146C83.0264 30.6146 83.1086 30.6487 83.1692 30.7093C83.2298 30.7699 83.2639 30.8521 83.2639 30.9378V47.9295C83.2639 47.9714 83.2555 48.013 83.2391 48.0517C83.2228 48.0904 83.1988 48.1254 83.1687 48.1546C83.1385 48.1838 83.1028 48.2067 83.0636 48.2219C83.0245 48.237 82.9827 48.2442 82.9407 48.2428Z" fill="#17262F"></path><path d="M73.3725 53.0609C73.2894 53.0609 73.2097 53.0279 73.1509 52.9691C73.0921 52.9103 73.0591 52.8306 73.0591 52.7475V47.9291C73.0578 47.8872 73.0649 47.8454 73.0801 47.8062C73.0953 47.767 73.1181 47.7313 73.1474 47.7012C73.1766 47.671 73.2116 47.6471 73.2503 47.6307C73.2889 47.6144 73.3305 47.6059 73.3725 47.606C73.4582 47.606 73.5404 47.64 73.601 47.7006C73.6616 47.7612 73.6957 47.8434 73.6957 47.9291V52.7475C73.6957 52.7895 73.6873 52.8311 73.6709 52.8698C73.6546 52.9084 73.6306 52.9434 73.6005 52.9727C73.5703 53.0019 73.5346 53.0248 73.4954 53.0399C73.4563 53.0551 73.4145 53.0622 73.3725 53.0609Z" fill="#17262F"></path><path d="M79.4543 53.0609C79.3711 53.0609 79.2914 53.0279 79.2327 52.9691C79.1739 52.9103 79.1409 52.8306 79.1409 52.7475V47.9291C79.1396 47.8872 79.1467 47.8454 79.1619 47.8062C79.177 47.767 79.1999 47.7313 79.2291 47.7012C79.2584 47.671 79.2934 47.6471 79.332 47.6307C79.3707 47.6144 79.4123 47.6059 79.4543 47.606C79.54 47.606 79.6222 47.64 79.6828 47.7006C79.7434 47.7612 79.7774 47.8434 79.7774 47.9291V52.7475C79.7775 52.7895 79.769 52.8311 79.7527 52.8698C79.7363 52.9084 79.7124 52.9434 79.6822 52.9727C79.6521 53.0019 79.6164 53.0248 79.5772 53.0399C79.538 53.0551 79.4962 53.0622 79.4543 53.0609Z" fill="#17262F"></path><path d="M21.6729 48.2429H8.61823C8.57708 48.2429 8.53632 48.2348 8.4983 48.2191C8.46028 48.2033 8.42573 48.1803 8.39663 48.1512C8.36753 48.1221 8.34445 48.0875 8.3287 48.0495C8.31295 48.0115 8.30484 47.9707 8.30484 47.9296V30.9379C8.30353 30.896 8.31067 30.8542 8.32583 30.815C8.34099 30.7758 8.36386 30.7401 8.3931 30.71C8.42233 30.6798 8.45732 30.6559 8.496 30.6395C8.53467 30.6231 8.57624 30.6147 8.61823 30.6147C8.70395 30.6147 8.78615 30.6488 8.84676 30.7094C8.90737 30.77 8.94142 30.8522 8.94142 30.9379V47.5868H21.3497V30.9379C21.3497 30.8522 21.3838 30.77 21.4444 30.7094C21.505 30.6488 21.5872 30.6147 21.6729 30.6147C21.7149 30.6147 21.7565 30.6231 21.7951 30.6395C21.8338 30.6559 21.8688 30.6798 21.898 30.71C21.9273 30.7401 21.9501 30.7758 21.9653 30.815C21.9805 30.8542 21.9876 30.896 21.9863 30.9379V47.9296C21.9863 48.0127 21.9533 48.0924 21.8945 48.1512C21.8357 48.2099 21.756 48.2429 21.6729 48.2429Z" fill="#17262F"></path><path d="M12.1047 53.0609C12.0627 53.0622 12.0209 53.0551 11.9818 53.0399C11.9426 53.0248 11.9069 53.0019 11.8768 52.9727C11.8466 52.9434 11.8226 52.9084 11.8063 52.8698C11.7899 52.8311 11.7815 52.7895 11.7815 52.7475V47.9291C11.7815 47.8434 11.8156 47.7612 11.8762 47.7006C11.9368 47.64 12.019 47.606 12.1047 47.606C12.1467 47.6059 12.1883 47.6144 12.2269 47.6307C12.2656 47.6471 12.3006 47.671 12.3298 47.7012C12.3591 47.7313 12.382 47.767 12.3971 47.8062C12.4123 47.8454 12.4194 47.8872 12.4181 47.9291V52.7475C12.4181 52.8306 12.3851 52.9103 12.3263 52.9691C12.2675 53.0279 12.1878 53.0609 12.1047 53.0609Z" fill="#17262F"></path><path d="M18.1864 53.0609C18.1445 53.0622 18.1027 53.0551 18.0635 53.0399C18.0243 53.0248 17.9886 53.0019 17.9585 52.9727C17.9283 52.9434 17.9044 52.9084 17.888 52.8698C17.8716 52.8311 17.8632 52.7895 17.8633 52.7475V47.9291C17.8633 47.8434 17.8973 47.7612 17.9579 47.7006C18.0185 47.64 18.1007 47.606 18.1864 47.606C18.2284 47.6059 18.27 47.6144 18.3087 47.6307C18.3473 47.6471 18.3823 47.671 18.4116 47.7012C18.4408 47.7313 18.4637 47.767 18.4788 47.8062C18.494 47.8454 18.5011 47.8872 18.4998 47.9291V52.7475C18.4998 52.8306 18.4668 52.9103 18.408 52.9691C18.3493 53.0279 18.2696 53.0609 18.1864 53.0609Z" fill="#17262F"></path><path d="M11.997 76.4378H6.40491C6.3192 76.4378 6.23699 76.4038 6.17638 76.3432C6.11578 76.2826 6.08173 76.2004 6.08173 76.1146V63.9708C6.08171 63.9288 6.09012 63.8872 6.10648 63.8485C6.12284 63.8099 6.1468 63.7749 6.17695 63.7456C6.2071 63.7164 6.24281 63.6935 6.28197 63.6784C6.32113 63.6632 6.36294 63.6561 6.40491 63.6574C6.48803 63.6574 6.56774 63.6904 6.62651 63.7492C6.68528 63.8079 6.7183 63.8877 6.7183 63.9708V75.8013H11.6836V63.9708C11.6836 63.8877 11.7166 63.8079 11.7754 63.7492C11.8341 63.6904 11.9139 63.6574 11.997 63.6574C12.0389 63.6561 12.0807 63.6632 12.1199 63.6784C12.1591 63.6935 12.1948 63.7164 12.2249 63.7456C12.2551 63.7749 12.279 63.8099 12.2954 63.8485C12.3118 63.8872 12.3202 63.9288 12.3202 63.9708V76.1146C12.3202 76.2004 12.2861 76.2826 12.2255 76.3432C12.1649 76.4038 12.0827 76.4378 11.997 76.4378Z" fill="#17262F"></path><path d="M24.18 76.4378H18.6075C18.5218 76.4378 18.4396 76.4038 18.379 76.3432C18.3184 76.2826 18.2844 76.2004 18.2844 76.1146V63.9708C18.2843 63.9288 18.2928 63.8872 18.3091 63.8485C18.3255 63.8099 18.3494 63.7749 18.3796 63.7456C18.4097 63.7164 18.4454 63.6935 18.4846 63.6784C18.5238 63.6632 18.5656 63.6561 18.6075 63.6574C18.6907 63.6574 18.7704 63.6904 18.8291 63.7492C18.8879 63.8079 18.9209 63.8877 18.9209 63.9708V75.8013H23.8862V63.9708C23.8862 63.8877 23.9192 63.8079 23.978 63.7492C24.0368 63.6904 24.1165 63.6574 24.1996 63.6574C24.2416 63.6561 24.2834 63.6632 24.3225 63.6784C24.3617 63.6935 24.3974 63.7164 24.4276 63.7456C24.4577 63.7749 24.4817 63.8099 24.498 63.8485C24.5144 63.8872 24.5228 63.9288 24.5228 63.9708V76.1146C24.5229 76.1588 24.5139 76.2025 24.4965 76.243C24.479 76.2836 24.4534 76.3201 24.4213 76.3504C24.3892 76.3807 24.3512 76.404 24.3097 76.4191C24.2682 76.4341 24.2241 76.4405 24.18 76.4378Z" fill="#17262F"></path><path d="M24.18 64.294H6.40491C6.3192 64.294 6.23699 64.2599 6.17638 64.1993C6.11578 64.1387 6.08173 64.0565 6.08173 63.9708V56.6453C6.08173 55.9804 6.34587 55.3427 6.81605 54.8725C7.28622 54.4023 7.92392 54.1382 8.58885 54.1382H21.9961C22.6576 54.1434 23.2903 54.4098 23.7562 54.8794C24.2222 55.349 24.4836 55.9838 24.4836 56.6453V63.9708C24.4838 64.0532 24.4524 64.1326 24.396 64.1927C24.3395 64.2527 24.2623 64.289 24.18 64.294ZM6.7183 63.6574H23.8666V56.6453C23.864 56.1509 23.6658 55.6776 23.3153 55.329C22.9648 54.9803 22.4905 54.7845 21.9961 54.7846H8.58885C8.09444 54.7845 7.62014 54.9803 7.26962 55.329C6.91911 55.6776 6.72089 56.1509 6.7183 56.6453V63.6574Z" fill="#17262F"></path><path d="M24.18 60.3966H6.40492C6.31921 60.3966 6.23701 60.3625 6.1764 60.3019C6.11579 60.2413 6.08174 60.1591 6.08174 60.0734C6.07898 60.0298 6.08538 59.9861 6.10051 59.9451C6.11565 59.9041 6.13919 59.8667 6.16962 59.8354C6.20006 59.804 6.23671 59.7794 6.27723 59.763C6.31776 59.7467 6.36125 59.739 6.40492 59.7404H24.18C24.222 59.7391 24.2638 59.7462 24.303 59.7614C24.3421 59.7766 24.3778 59.7994 24.408 59.8287C24.4381 59.8579 24.4621 59.8929 24.4785 59.9316C24.4948 59.9702 24.5032 60.0118 24.5032 60.0538C24.5059 60.0979 24.4995 60.142 24.4845 60.1835C24.4694 60.225 24.4461 60.263 24.4158 60.2951C24.3855 60.3272 24.3489 60.3528 24.3084 60.3702C24.2679 60.3877 24.2242 60.3966 24.18 60.3966Z" fill="#17262F"></path><path d="M24.18 83.9105H19.773C19.6899 83.9105 19.6101 83.8774 19.5514 83.8187C19.4926 83.7599 19.4596 83.6802 19.4596 83.5971V83.0976C19.459 83.0432 19.4722 82.9896 19.4979 82.9417C19.5235 82.8937 19.5609 82.853 19.6065 82.8234L21.2518 81.844V79.239L18.3627 76.3009C18.3325 76.2717 18.3085 76.2367 18.2921 76.198C18.2757 76.1593 18.2672 76.1177 18.2672 76.0757C18.2672 76.0337 18.2757 75.9921 18.2921 75.9534C18.3085 75.9147 18.3325 75.8797 18.3627 75.8504C18.4242 75.794 18.5045 75.7627 18.588 75.7627C18.6714 75.7627 18.7518 75.794 18.8132 75.8504L21.8002 78.8374C21.856 78.8993 21.8873 78.9794 21.8884 79.0627V81.942C21.8873 81.9947 21.8734 82.0463 21.8477 82.0924C21.8221 82.1385 21.7856 82.1776 21.7415 82.2064L20.0962 83.1857H23.8666V76.1149C23.8666 76.0318 23.8996 75.952 23.9584 75.8933C24.0172 75.8345 24.0969 75.8015 24.18 75.8015C24.222 75.8002 24.2638 75.8073 24.303 75.8225C24.3421 75.8376 24.3778 75.8605 24.408 75.8897C24.4381 75.919 24.4621 75.954 24.4784 75.9926C24.4948 76.0313 24.5032 76.0729 24.5032 76.1149V83.5971C24.5032 83.6391 24.4948 83.6806 24.4784 83.7193C24.4621 83.758 24.4381 83.793 24.408 83.8222C24.3778 83.8514 24.3421 83.8743 24.303 83.8895C24.2638 83.9046 24.222 83.9118 24.18 83.9105Z" fill="#17262F"></path><path d="M10.7728 83.9104H6.40491C6.36294 83.9117 6.32113 83.9046 6.28197 83.8894C6.24281 83.8742 6.2071 83.8514 6.17695 83.8221C6.1468 83.7929 6.12284 83.7579 6.10648 83.7192C6.09012 83.6806 6.08171 83.639 6.08173 83.597V76.1148C6.08171 76.0728 6.09012 76.0312 6.10648 75.9926C6.12284 75.9539 6.1468 75.9189 6.17695 75.8897C6.2071 75.8604 6.24281 75.8376 6.28197 75.8224C6.32113 75.8072 6.36294 75.8001 6.40491 75.8014C6.48803 75.8014 6.56774 75.8344 6.62651 75.8932C6.68528 75.952 6.7183 76.0317 6.7183 76.1148V83.2444H10.4888L8.8141 82.2651C8.76863 82.2377 8.73115 82.1989 8.70537 82.1525C8.67959 82.1061 8.66643 82.0537 8.6672 82.0007V79.1018C8.67523 79.0563 8.69239 79.0129 8.71763 78.9742C8.74288 78.9355 8.77569 78.9023 8.8141 78.8766L11.7521 75.8896C11.8136 75.8331 11.894 75.8018 11.9774 75.8018C12.0608 75.8018 12.1412 75.8331 12.2026 75.8896C12.2328 75.9188 12.2569 75.9538 12.2733 75.9925C12.2897 76.0312 12.2981 76.0728 12.2981 76.1148C12.2981 76.1568 12.2897 76.1984 12.2733 76.2371C12.2569 76.2758 12.2328 76.3108 12.2026 76.3401L9.2646 79.2781V81.844L10.9099 82.8233C10.9555 82.853 10.9928 82.8937 11.0185 82.9416C11.0442 82.9895 11.0574 83.0432 11.0568 83.0975V83.597C11.0571 83.6753 11.0282 83.7508 10.9756 83.8088C10.9231 83.8668 10.8507 83.9031 10.7728 83.9104Z" fill="#17262F"></path><path d="M83.2443 29.5371H36.8625C36.8206 29.5384 36.7788 29.5312 36.7396 29.5161C36.7004 29.5009 36.6647 29.478 36.6346 29.4488C36.6044 29.4196 36.5805 29.3846 36.5641 29.3459C36.5478 29.3072 36.5393 29.2657 36.5394 29.2237C36.5394 29.138 36.5734 29.0558 36.634 28.9951C36.6946 28.9345 36.7768 28.9005 36.8625 28.9005H82.8917V24.3661C82.8917 22.6415 82.2066 20.9874 80.9871 19.7679C79.7676 18.5484 78.1136 17.8633 76.3889 17.8633H15.0329C13.3083 17.8633 11.6543 18.5484 10.4347 19.7679C9.21522 20.9874 8.5301 22.6415 8.5301 24.3661V28.9005H31.1725C31.2583 28.9005 31.3405 28.9345 31.4011 28.9951C31.4617 29.0558 31.4957 29.138 31.4957 29.2237C31.4958 29.2657 31.4873 29.3072 31.471 29.3459C31.4546 29.3846 31.4307 29.4196 31.4005 29.4488C31.3704 29.478 31.3346 29.5009 31.2955 29.5161C31.2563 29.5312 31.2145 29.5384 31.1725 29.5371H8.20691C8.16576 29.5371 8.12501 29.529 8.08699 29.5132C8.04896 29.4975 8.01441 29.4744 7.98531 29.4453C7.95621 29.4162 7.93313 29.3816 7.91738 29.3436C7.90163 29.3056 7.89352 29.2648 7.89352 29.2237V24.327C7.89611 22.4333 8.64881 20.6179 9.98687 19.278C11.3249 17.9381 13.1394 17.1829 15.0329 17.1777H76.3889C78.2825 17.1829 80.0969 17.9381 81.435 19.278C82.773 20.6179 83.5257 22.4333 83.5283 24.327V29.2237C83.5287 29.3019 83.4997 29.3775 83.4471 29.4355C83.3946 29.4935 83.3222 29.5297 83.2443 29.5371Z" fill="#17262F"></path><path d="M8.20691 6.4641C8.16576 6.4641 8.12501 6.45599 8.08699 6.44024C8.04896 6.42449 8.01441 6.40141 7.98531 6.37231C7.95621 6.34321 7.93313 6.30866 7.91738 6.27064C7.90163 6.23261 7.89352 6.19186 7.89352 6.15071V4.29975C7.89221 4.25777 7.89935 4.21597 7.91451 4.17681C7.92967 4.13765 7.95255 4.10193 7.98178 4.07179C8.01101 4.04164 8.046 4.01768 8.08468 4.00132C8.12335 3.98496 8.16492 3.97654 8.20691 3.97656C8.24936 3.97656 8.29138 3.98492 8.33059 4.00116C8.3698 4.0174 8.40543 4.04121 8.43544 4.07122C8.46545 4.10123 8.48926 4.13686 8.5055 4.17607C8.52174 4.21528 8.5301 4.25731 8.5301 4.29975V6.15071C8.53012 6.1927 8.5217 6.23427 8.50534 6.27294C8.48898 6.31162 8.46502 6.34661 8.43487 6.37584C8.40473 6.40508 8.36901 6.42795 8.32985 6.44311C8.29069 6.45827 8.24889 6.46541 8.20691 6.4641Z" fill="#17262F"></path><path d="M3.24165 13.1432C3.16024 13.1407 3.08302 13.1065 3.02635 13.048C2.96968 12.9896 2.93801 12.9113 2.93805 12.8298V4.29975C2.93805 4.25731 2.94641 4.21528 2.96265 4.17607C2.97889 4.13686 3.0027 4.10123 3.03271 4.07122C3.06272 4.04121 3.09835 4.0174 3.13756 4.00116C3.17677 3.98492 3.21879 3.97656 3.26123 3.97656C3.30323 3.97654 3.34479 3.98496 3.38347 4.00132C3.42214 4.01768 3.45714 4.04164 3.48637 4.07179C3.5156 4.10193 3.53848 4.13765 3.55364 4.17681C3.5688 4.21597 3.57594 4.25777 3.57462 4.29975V12.8298C3.57471 12.8727 3.566 12.9151 3.54904 12.9545C3.53208 12.9938 3.50723 13.0293 3.47602 13.0587C3.44481 13.088 3.40791 13.1107 3.3676 13.1252C3.32729 13.1398 3.28442 13.1459 3.24165 13.1432Z" fill="#17262F"></path><path d="M8.20692 2.93823H3.24164C3.19736 2.93588 3.15404 2.92444 3.11438 2.90462C3.07471 2.88481 3.03954 2.85704 3.01106 2.82306C2.98259 2.78907 2.96141 2.74958 2.94885 2.70706C2.93629 2.66453 2.93261 2.61988 2.93805 2.57587V0.323379C2.9379 0.240953 2.96924 0.161584 3.02568 0.101509C3.08211 0.0414327 3.15937 0.00519016 3.24164 0.000194803H5.94464C5.98712 -0.00137935 6.02941 0.00660294 6.06839 0.023553C6.10738 0.040503 6.14206 0.0659883 6.16988 0.0981293L8.43217 2.35062C8.49248 2.39156 8.53717 2.45168 8.559 2.52122C8.58084 2.59076 8.57852 2.66564 8.55243 2.7337C8.52634 2.80176 8.47801 2.859 8.41529 2.89613C8.35257 2.93326 8.27914 2.94809 8.20692 2.93823ZM3.55503 2.26248H7.47241L5.81732 0.636769H3.55503V2.26248Z" fill="#17262F"></path><path d="M8.20693 17.129H5.50394C5.41889 17.1273 5.33796 17.0921 5.27869 17.0311L3.0164 14.7688C2.97056 14.726 2.93859 14.6705 2.92463 14.6094C2.91066 14.5483 2.91534 14.4844 2.93805 14.426C2.96275 14.3684 3.00367 14.3192 3.05584 14.2844C3.10801 14.2496 3.16916 14.2308 3.23186 14.2301H8.20693C8.2489 14.2288 8.29071 14.236 8.32987 14.2511C8.36903 14.2663 8.40474 14.2892 8.43489 14.3184C8.46503 14.3476 8.489 14.3826 8.50535 14.4213C8.52171 14.46 8.53013 14.5015 8.53011 14.5435V16.8058C8.53011 16.8483 8.52175 16.8903 8.50551 16.9295C8.48927 16.9687 8.46546 17.0043 8.43545 17.0343C8.40544 17.0643 8.36982 17.0882 8.33061 17.1044C8.29139 17.1206 8.24937 17.129 8.20693 17.129ZM5.63125 16.4826H7.89354V14.8667H3.97616L5.63125 16.4826Z" fill="#17262F"></path><path d="M88.1998 13.1432C88.1167 13.1432 88.037 13.1102 87.9782 13.0514C87.9194 12.9927 87.8864 12.913 87.8864 12.8298V4.29975C87.8851 4.25777 87.8922 4.21597 87.9074 4.17681C87.9226 4.13765 87.9454 4.10193 87.9747 4.07179C88.0039 4.04164 88.0389 4.01768 88.0776 4.00132C88.1162 3.98496 88.1578 3.97654 88.1998 3.97656C88.2422 3.97656 88.2843 3.98492 88.3235 4.00116C88.3627 4.0174 88.3983 4.04121 88.4283 4.07122C88.4583 4.10123 88.4822 4.13686 88.4984 4.17607C88.5146 4.21528 88.523 4.25731 88.523 4.29975V12.8298C88.523 12.8718 88.5146 12.9134 88.4982 12.9521C88.4819 12.9907 88.4579 13.0257 88.4278 13.055C88.3976 13.0842 88.3619 13.1071 88.3227 13.1222C88.2836 13.1374 88.2418 13.1445 88.1998 13.1432Z" fill="#17262F"></path><path d="M83.2443 6.4641C83.2032 6.4641 83.1624 6.45599 83.1244 6.44024C83.0864 6.42449 83.0518 6.40141 83.0227 6.37231C82.9936 6.34321 82.9705 6.30866 82.9548 6.27064C82.939 6.23261 82.9309 6.19186 82.9309 6.15071V4.29975C82.9296 4.25777 82.9368 4.21597 82.9519 4.17681C82.9671 4.13765 82.99 4.10193 83.0192 4.07179C83.0484 4.04164 83.0834 4.01768 83.1221 4.00132C83.1608 3.98496 83.2023 3.97654 83.2443 3.97656C83.2868 3.97656 83.3288 3.98492 83.368 4.00116C83.4072 4.0174 83.4428 4.04121 83.4729 4.07122C83.5029 4.10123 83.5267 4.13686 83.5429 4.17607C83.5592 4.21528 83.5675 4.25731 83.5675 4.29975V6.15071C83.5675 6.1927 83.5591 6.23427 83.5428 6.27294C83.5264 6.31162 83.5024 6.34661 83.4723 6.37584C83.4421 6.40508 83.4064 6.42795 83.3673 6.44311C83.3281 6.45827 83.2863 6.46541 83.2443 6.4641Z" fill="#17262F"></path><path d="M88.1998 2.9381H83.2443C83.1816 2.93747 83.1205 2.91862 83.0683 2.88384C83.0161 2.84906 82.9752 2.79986 82.9505 2.74223C82.9271 2.68306 82.921 2.6184 82.9332 2.55591C82.9453 2.49343 82.9751 2.43573 83.0191 2.38967L85.2716 0.098C85.2998 0.0663901 85.3346 0.0412702 85.3735 0.0243651C85.4124 0.00746005 85.4544 -0.000829588 85.4968 6.54865e-05H88.1998C88.2855 6.54865e-05 88.3677 0.0341151 88.4283 0.0947238C88.4889 0.155333 88.523 0.237536 88.523 0.323249V2.57574C88.5286 2.62135 88.5243 2.66763 88.5106 2.71148C88.4969 2.75533 88.474 2.79575 88.4434 2.83004C88.4128 2.86433 88.3753 2.89171 88.3333 2.91034C88.2913 2.92898 88.2458 2.93844 88.1998 2.9381ZM84.0082 2.30153H87.9256V0.63664H85.6731L84.0082 2.30153Z" fill="#17262F"></path><path d="M85.9375 17.1289H83.2443C83.2023 17.1289 83.1608 17.1205 83.1221 17.1041C83.0834 17.0877 83.0484 17.0638 83.0192 17.0336C82.99 17.0035 82.9671 16.9678 82.9519 16.9286C82.9368 16.8895 82.9296 16.8476 82.9309 16.8057V14.5434C82.9309 14.4603 82.964 14.3806 83.0227 14.3218C83.0815 14.263 83.1612 14.23 83.2443 14.23H88.2096C88.2726 14.2293 88.3343 14.2477 88.3867 14.2826C88.4391 14.3176 88.4798 14.3675 88.5034 14.4259C88.5287 14.4831 88.5357 14.5468 88.5234 14.6081C88.5111 14.6695 88.4802 14.7255 88.4349 14.7686L86.1824 17.0309C86.1507 17.0635 86.1126 17.0891 86.0704 17.106C86.0282 17.1229 85.9829 17.1307 85.9375 17.1289ZM83.5577 16.4825H85.8102L87.4359 14.8666H83.5185L83.5577 16.4825Z" fill="#17262F"></path><path d="M7.45282 37.2739H5.87607C5.79296 37.2739 5.71325 37.2409 5.65447 37.1821C5.5957 37.1233 5.56268 37.0436 5.56268 36.9605V16.8056C5.56137 16.7636 5.56851 16.7218 5.58367 16.6827C5.59883 16.6435 5.62171 16.6078 5.65094 16.5776C5.68017 16.5475 5.71516 16.5235 5.75384 16.5072C5.79251 16.4908 5.83408 16.4824 5.87607 16.4824H7.45282C7.53853 16.4824 7.62074 16.5165 7.68134 16.5771C7.74195 16.6377 7.776 16.7199 7.776 16.8056V20.1354C7.776 20.2211 7.74195 20.3033 7.68134 20.3639C7.62074 20.4245 7.53853 20.4586 7.45282 20.4586C7.41083 20.4586 7.36926 20.4502 7.33058 20.4338C7.29191 20.4174 7.25692 20.3935 7.22768 20.3633C7.19845 20.3332 7.17557 20.2975 7.16041 20.2583C7.14525 20.2192 7.13812 20.1773 7.13943 20.1354V17.1288H6.23843V36.6373H7.45282C7.53853 36.6373 7.62074 36.6714 7.68134 36.732C7.74195 36.7926 7.776 36.8748 7.776 36.9605C7.77602 37.0025 7.7676 37.0441 7.75125 37.0828C7.73489 37.1214 7.71092 37.1564 7.68078 37.1857C7.65063 37.2149 7.61492 37.2378 7.57576 37.2529C7.5366 37.2681 7.49479 37.2752 7.45282 37.2739Z" fill="#17262F"></path><path d="M85.6437 37.2739H84.0963C84.0132 37.2739 83.9335 37.2409 83.8747 37.1821C83.816 37.1233 83.7829 37.0436 83.7829 36.9605C83.7829 36.8765 83.8156 36.7957 83.8741 36.7354C83.9326 36.6751 84.0123 36.6399 84.0963 36.6373H85.3205V17.1288H84.4195V20.1354C84.4277 20.1818 84.4256 20.2295 84.4134 20.2751C84.4012 20.3207 84.3791 20.363 84.3488 20.3992C84.3184 20.4353 84.2806 20.4644 84.2378 20.4843C84.195 20.5043 84.1484 20.5146 84.1012 20.5146C84.054 20.5146 84.0074 20.5043 83.9647 20.4843C83.9219 20.4644 83.884 20.4353 83.8537 20.3992C83.8233 20.363 83.8013 20.3207 83.7891 20.2751C83.7768 20.2295 83.7748 20.1818 83.7829 20.1354V16.8056C83.7829 16.7216 83.8156 16.6408 83.8741 16.5805C83.9326 16.5201 84.0123 16.485 84.0963 16.4824H85.6437C85.6857 16.4824 85.7273 16.4908 85.7659 16.5072C85.8046 16.5235 85.8396 16.5475 85.8688 16.5776C85.8981 16.6078 85.9209 16.6435 85.9361 16.6827C85.9513 16.7218 85.9584 16.7636 85.9571 16.8056V36.9605C85.9571 37.0436 85.9241 37.1233 85.8653 37.1821C85.8065 37.2409 85.7268 37.2739 85.6437 37.2739Z" fill="#17262F"></path><path d="M24.3661 37.2743H22.8285C22.7866 37.2756 22.7447 37.2685 22.7056 37.2533C22.6664 37.2381 22.6307 37.2153 22.6006 37.186C22.5704 37.1568 22.5465 37.1218 22.5301 37.0831C22.5137 37.0444 22.5053 37.0029 22.5053 36.9609C22.5053 36.8752 22.5394 36.793 22.6 36.7324C22.6606 36.6718 22.7428 36.6377 22.8285 36.6377H24.0527V29.2241C24.0514 29.1821 24.0585 29.1403 24.0737 29.1011C24.0889 29.062 24.1117 29.0262 24.141 28.9961C24.1702 28.966 24.2052 28.942 24.2439 28.9256C24.2825 28.9093 24.3241 28.9009 24.3661 28.9009C24.4518 28.9009 24.534 28.9349 24.5946 28.9955C24.6552 29.0561 24.6893 29.1383 24.6893 29.2241V36.9609C24.6893 37.0029 24.6809 37.0444 24.6645 37.0831C24.6482 37.1218 24.6242 37.1568 24.5941 37.186C24.5639 37.2153 24.5282 37.2381 24.489 37.2533C24.4499 37.2685 24.4081 37.2756 24.3661 37.2743Z" fill="#17262F"></path><path d="M68.7304 37.2743H67.1928C67.1097 37.2743 67.03 37.2413 66.9712 37.1825C66.9125 37.1237 66.8795 37.044 66.8795 36.9609V29.2241C66.8781 29.1821 66.8853 29.1403 66.9004 29.1011C66.9156 29.062 66.9385 29.0262 66.9677 28.9961C66.9969 28.966 67.0319 28.942 67.0706 28.9256C67.1093 28.9093 67.1509 28.9009 67.1928 28.9009C67.2786 28.9009 67.3608 28.9349 67.4214 28.9955C67.482 29.0561 67.516 29.1383 67.516 29.2241V36.6377H68.7304C68.8161 36.6377 68.8983 36.6718 68.9589 36.7324C69.0196 36.793 69.0536 36.8752 69.0536 36.9609C69.0536 37.0029 69.0452 37.0444 69.0288 37.0831C69.0125 37.1218 68.9885 37.1568 68.9584 37.186C68.9282 37.2153 68.8925 37.2381 68.8534 37.2533C68.8142 37.2685 68.7724 37.2756 68.7304 37.2743Z" fill="#17262F"></path><path d="M81.1681 110H10.6553C7.87624 109.916 5.2392 108.753 3.3032 106.757C1.3672 104.762 0.284424 102.091 0.284424 99.3106C0.284424 96.5303 1.3672 93.8593 3.3032 91.8638C5.2392 89.8683 7.87624 88.7052 10.6553 88.6211H81.1681C83.9471 88.7052 86.5842 89.8683 88.5202 91.8638C90.4562 93.8593 91.539 96.5303 91.539 99.3106C91.539 102.091 90.4562 104.762 88.5202 106.757C86.5842 108.753 83.9471 109.916 81.1681 110ZM10.6553 89.2577C8.04337 89.3392 5.56574 90.4341 3.747 92.3105C1.92826 94.1869 0.911217 96.6975 0.911217 99.3106C0.911217 101.924 1.92826 104.434 3.747 106.311C5.56574 108.187 8.04337 109.282 10.6553 109.364H81.1681C83.78 109.282 86.2576 108.187 88.0764 106.311C89.8951 104.434 90.9122 101.924 90.9122 99.3106C90.9122 96.6975 89.8951 94.1869 88.0764 92.3105C86.2576 90.4341 83.78 89.3392 81.1681 89.2577H10.6553Z" fill="#17262F"></path><path d="M11.2625 106.847C9.77018 106.848 8.31087 106.408 7.06926 105.58C5.82766 104.752 4.8596 103.574 4.28763 102.196C3.71566 100.818 3.5655 99.3006 3.85615 97.8368C4.14681 96.3731 4.86522 95.0286 5.92043 93.9733C6.97564 92.9181 8.32021 92.1997 9.78392 91.9091C11.2476 91.6184 12.7647 91.7686 14.143 92.3405C15.5213 92.9125 16.699 93.8806 17.5268 95.1222C18.3547 96.3638 18.7956 97.8231 18.7936 99.3154C18.791 101.312 17.9968 103.226 16.5849 104.638C15.1731 106.05 13.2591 106.844 11.2625 106.847ZM11.2625 92.411C9.9066 92.411 8.58118 92.8131 7.45381 93.5664C6.32645 94.3196 5.44777 95.3903 4.9289 96.643C4.41003 97.8956 4.27427 99.274 4.53879 100.604C4.80331 101.934 5.45622 103.155 6.41497 104.114C7.37371 105.073 8.59523 105.726 9.92505 105.99C11.2549 106.255 12.6333 106.119 13.8859 105.6C15.1386 105.081 16.2093 104.202 16.9625 103.075C17.7158 101.948 18.1179 100.622 18.1179 99.2664C18.1051 97.4522 17.3787 95.716 16.0958 94.4331C14.8129 93.1502 13.0767 92.4238 11.2625 92.411ZM11.2625 103.83C10.3668 103.832 9.49064 103.568 8.74508 103.072C7.99952 102.575 7.41807 101.869 7.07441 101.042C6.73074 100.214 6.64031 99.3039 6.81458 98.4253C6.98885 97.5467 7.41998 96.7396 8.05334 96.1063C8.6867 95.4729 9.4938 95.0418 10.3724 94.8675C11.251 94.6932 12.1615 94.7837 12.9887 95.1273C13.8158 95.471 14.5224 96.0524 15.0188 96.798C15.5152 97.5436 15.7792 98.4197 15.7773 99.3154C15.7695 100.509 15.2907 101.65 14.4452 102.492C13.5996 103.334 12.4557 103.808 11.2625 103.811V103.83ZM11.2625 95.4274C10.4877 95.4274 9.73031 95.6571 9.0861 96.0876C8.44189 96.518 7.93979 97.1298 7.64329 97.8457C7.34679 98.5615 7.26922 99.3491 7.42037 100.109C7.57152 100.869 7.94462 101.567 8.49247 102.115C9.04033 102.663 9.73834 103.036 10.4982 103.187C11.2581 103.338 12.0458 103.26 12.7616 102.964C13.4774 102.667 14.0892 102.165 14.5197 101.521C14.9501 100.877 15.1799 100.12 15.1799 99.3448C15.1799 98.3058 14.7671 97.3094 14.0325 96.5748C13.2978 95.8401 12.3014 95.4274 11.2625 95.4274Z" fill="#17262F"></path><path d="M80.6001 106.847C79.1082 106.847 77.6499 106.404 76.4095 105.575C75.1692 104.746 74.2027 103.568 73.6322 102.189C73.0618 100.811 72.913 99.2939 73.2048 97.8308C73.4965 96.3678 74.2157 95.0241 75.2713 93.9699C76.3269 92.9157 77.6715 92.1982 79.1349 91.9084C80.5984 91.6185 82.1149 91.7692 83.4927 92.3415C84.8704 92.9137 86.0475 93.8818 86.8749 95.1232C87.7024 96.3646 88.143 97.8235 88.141 99.3154C88.1385 101.314 87.3428 103.229 85.9289 104.641C84.515 106.053 82.5984 106.847 80.6001 106.847ZM80.6001 92.411C79.2442 92.411 77.9188 92.8131 76.7914 93.5664C75.6641 94.3196 74.7854 95.3903 74.2665 96.643C73.7476 97.8956 73.6119 99.274 73.8764 100.604C74.1409 101.934 74.7938 103.155 75.7526 104.114C76.7113 105.073 77.9328 105.726 79.2627 105.99C80.5925 106.255 81.9709 106.119 83.2235 105.6C84.4762 105.081 85.5469 104.202 86.3002 103.075C87.0534 101.948 87.4555 100.622 87.4555 99.2664C87.4427 97.4522 86.7163 95.716 85.4334 94.4331C84.1506 93.1502 82.4143 92.4238 80.6001 92.411ZM80.6001 103.83C79.7044 103.832 78.8283 103.568 78.0827 103.072C77.3371 102.575 76.7557 101.869 76.412 101.042C76.0684 100.214 75.9779 99.3039 76.1522 98.4253C76.3265 97.5467 76.7576 96.7396 77.391 96.1063C78.0243 95.4729 78.8314 95.0418 79.71 94.8675C80.5886 94.6932 81.4992 94.7837 82.3263 95.1273C83.1535 95.471 83.86 96.0524 84.3564 96.798C84.8528 97.5436 85.1168 98.4197 85.1149 99.3154C85.1071 100.509 84.6284 101.65 83.7828 102.492C82.9372 103.334 81.7933 103.808 80.6001 103.811V103.83ZM80.6001 95.4274C79.8253 95.4274 79.0679 95.6572 78.4237 96.0876C77.7795 96.518 77.2774 97.1299 76.9809 97.8457C76.6844 98.5615 76.6068 99.3491 76.758 100.109C76.9091 100.869 77.2822 101.567 77.8301 102.115C78.3779 102.663 79.076 103.036 79.8359 103.187C80.5957 103.338 81.3834 103.26 82.0992 102.964C82.815 102.667 83.4268 102.165 83.8573 101.521C84.2877 100.877 84.5175 100.12 84.5175 99.3448C84.5175 98.3058 84.1047 97.3094 83.3701 96.5748C82.6354 95.8401 81.6391 95.4274 80.6001 95.4274Z" fill="#17262F"></path><path d="M66.8893 106.23H24.9733C24.4296 106.23 23.9079 106.014 23.5225 105.631C23.1371 105.247 22.9193 104.727 22.9167 104.183V94.4482C22.9167 93.9028 23.1334 93.3797 23.5191 92.994C23.9048 92.6083 24.4279 92.3916 24.9733 92.3916H66.8893C67.433 92.3942 67.9536 92.612 68.3372 92.9974C68.7208 93.3828 68.9361 93.9045 68.9361 94.4482V104.183C68.9335 104.725 68.717 105.244 68.3337 105.627C67.9505 106.011 67.4313 106.227 66.8893 106.23ZM24.9733 93.038C24.5967 93.038 24.2355 93.1876 23.9692 93.4539C23.7029 93.7202 23.5533 94.0814 23.5533 94.458V104.193C23.5558 104.568 23.7066 104.926 23.9726 105.191C24.2387 105.455 24.5984 105.603 24.9733 105.603H66.8893C67.2625 105.6 67.6197 105.451 67.8836 105.187C68.1476 104.923 68.297 104.566 68.2995 104.193V94.4482C68.297 94.075 68.1476 93.7178 67.8836 93.4539C67.6197 93.1899 67.2625 93.0405 66.8893 93.038H24.9733Z" fill="#17262F"></path><path d="M58.5061 98.1011H23.2496C23.1639 98.1011 23.0817 98.067 23.0211 98.0064C22.9605 97.9458 22.9265 97.8636 22.9265 97.7779C22.9264 97.7359 22.9349 97.6943 22.9512 97.6557C22.9676 97.617 22.9915 97.582 23.0217 97.5528C23.0518 97.5235 23.0875 97.5007 23.1267 97.4855C23.1659 97.4703 23.2077 97.4632 23.2496 97.4645H58.5061C58.5892 97.4645 58.6689 97.4975 58.7276 97.5563C58.7864 97.6151 58.8194 97.6948 58.8194 97.7779C58.8208 97.8199 58.8136 97.8617 58.7985 97.9008C58.7833 97.94 58.7604 97.9757 58.7312 98.0059C58.702 98.036 58.667 98.06 58.6283 98.0763C58.5896 98.0927 58.548 98.1011 58.5061 98.1011Z" fill="#17262F"></path><path d="M19.4498 48.2425C19.3667 48.2425 19.287 48.2095 19.2282 48.1507C19.1694 48.0919 19.1364 48.0122 19.1364 47.9291V34.7079C19.1351 34.666 19.1422 34.6242 19.1574 34.585C19.1726 34.5459 19.1954 34.5101 19.2247 34.48C19.2539 34.4498 19.2889 34.4259 19.3276 34.4095C19.3662 34.3932 19.4078 34.3847 19.4498 34.3848C19.5355 34.3848 19.6177 34.4188 19.6783 34.4794C19.7389 34.54 19.773 34.6222 19.773 34.7079V47.9291C19.773 47.9711 19.7646 48.0127 19.7482 48.0513C19.7319 48.09 19.7079 48.125 19.6778 48.1542C19.6476 48.1835 19.6119 48.2063 19.5727 48.2215C19.5336 48.2367 19.4918 48.2438 19.4498 48.2425Z" fill="#17262F"></path><path d="M69.5335 26.6581H8.20693C8.13208 26.6449 8.06428 26.6058 8.01542 26.5476C7.96657 26.4893 7.93979 26.4158 7.93979 26.3398C7.93979 26.2638 7.96657 26.1902 8.01542 26.132C8.06428 26.0738 8.13208 26.0347 8.20693 26.0215H69.5335C69.58 26.0133 69.6277 26.0154 69.6732 26.0276C69.7188 26.0398 69.7612 26.0619 69.7973 26.0922C69.8335 26.1226 69.8625 26.1605 69.8825 26.2032C69.9024 26.246 69.9127 26.2926 69.9127 26.3398C69.9127 26.387 69.9024 26.4336 69.8825 26.4764C69.8625 26.5191 69.8335 26.557 69.7973 26.5873C69.7612 26.6177 69.7188 26.6397 69.6732 26.6519C69.6277 26.6642 69.58 26.6663 69.5335 26.6581Z" fill="#17262F"></path><path d="M83.2443 26.6581H75.7132C75.6383 26.6449 75.5705 26.6058 75.5217 26.5476C75.4728 26.4893 75.446 26.4158 75.446 26.3398C75.446 26.2638 75.4728 26.1902 75.5217 26.132C75.5705 26.0738 75.6383 26.0347 75.7132 26.0215H83.2443C83.2908 26.0133 83.3385 26.0154 83.3841 26.0276C83.4296 26.0398 83.472 26.0619 83.5081 26.0922C83.5443 26.1226 83.5733 26.1605 83.5933 26.2032C83.6132 26.246 83.6235 26.2926 83.6235 26.3398C83.6235 26.387 83.6132 26.4336 83.5933 26.4764C83.5733 26.5191 83.5443 26.557 83.5081 26.5873C83.472 26.6177 83.4296 26.6397 83.3841 26.6519C83.3385 26.6642 83.2908 26.6663 83.2443 26.6581Z" fill="#17262F"></path></g><defs><clipPath id="clip0_5678_15856"><rect width="91.8527" height="110" fill="white"></rect></clipPath></defs></svg>