<svg xmlns="http://www.w3.org/2000/svg" width="79" height="95" viewBox="0 0 79 95" fill="none"><g clip-path="url(#clip0_5678_33693)"><path d="M77.4717 52.3029C77.2356 52.2421 76.9898 52.2285 76.7485 52.263C76.5071 52.2974 76.2749 52.3793 76.0653 52.5037C75.8556 52.6282 75.6727 52.7929 75.5269 52.9883C75.3811 53.1837 75.2753 53.406 75.2157 53.6424C75.2157 53.8098 70.6507 70.1308 39.4365 70.1308C8.47773 70.1308 3.85111 54.3386 3.66605 53.6336C3.53964 53.1583 3.23097 52.7521 2.80697 52.503C2.38298 52.2539 1.87787 52.182 1.4012 52.3029C1.1648 52.3625 0.942511 52.4683 0.747105 52.6141C0.5517 52.7599 0.38703 52.9428 0.262556 53.1525C0.138083 53.3621 0.0562602 53.5943 0.0217883 53.8357C-0.0126835 54.077 0.000875306 54.3228 0.0616858 54.5589C0.255563 55.3344 5.19063 73.1535 37.577 73.8233V83.808C37.577 83.808 37.577 83.8609 37.577 83.8873C30.9142 84.2087 24.635 87.0988 20.0575 91.9508C19.8973 92.139 19.7763 92.3573 19.7014 92.5929C19.6266 92.8284 19.5994 93.0765 19.6216 93.3227C19.6437 93.5688 19.7147 93.8081 19.8304 94.0265C19.9462 94.2449 20.1042 94.438 20.2955 94.5946C20.6298 94.8714 21.0511 95.0212 21.4852 95.0176C21.7626 95.0149 22.0358 94.9483 22.2833 94.823C22.5309 94.6977 22.7463 94.517 22.9128 94.295C25.0564 92.0956 27.6273 90.3582 30.4675 89.1897C33.3077 88.0212 36.357 87.4463 39.4276 87.5005C50.0645 87.5005 55.6957 94.0042 55.9425 94.3038C56.1177 94.5116 56.3363 94.6785 56.583 94.7927C56.8296 94.9069 57.0983 94.9656 57.3701 94.9647C57.8044 94.9699 58.2263 94.8199 58.5598 94.5417C58.7507 94.3851 58.9086 94.1921 59.0244 93.9741C59.1402 93.756 59.2117 93.5172 59.2346 93.2713C59.2576 93.0255 59.2315 92.7775 59.1581 92.5418C59.0846 92.3061 58.9651 92.0872 58.8066 91.898C54.2291 87.0459 47.9499 84.1559 41.2871 83.8344V73.8233C73.6735 73.1535 78.6173 55.3168 78.8112 54.5589C78.872 54.3228 78.8856 54.077 78.8511 53.8357C78.8166 53.5943 78.7348 53.3621 78.6103 53.1525C78.4859 52.9428 78.3212 52.7599 78.1258 52.6141C77.9304 52.4683 77.7081 52.3625 77.4717 52.3029Z" fill="#17262F"></path><path d="M39.4365 37.5241C39.9296 37.5241 40.4026 37.3282 40.7513 36.9795C41.1 36.6308 41.2959 36.1578 41.2959 35.6647V1.85946C41.2959 1.3663 41.1 0.893341 40.7513 0.544624C40.4026 0.195907 39.9296 0 39.4365 0C38.9433 0 38.4703 0.195907 38.1216 0.544624C37.7729 0.893341 37.577 1.3663 37.577 1.85946V35.6647C37.5793 36.1571 37.776 36.6287 38.1242 36.9769C38.4724 37.3251 38.944 37.5218 39.4365 37.5241Z" fill="#17262F"></path><path d="M2.43228 37.3391C2.6768 37.3403 2.91912 37.293 3.14525 37.2C3.37137 37.1069 3.57682 36.97 3.74972 36.7971C3.92262 36.6242 4.05954 36.4188 4.15258 36.1926C4.24561 35.9665 4.29291 35.7242 4.29174 35.4797V30.6944C4.29174 30.2013 4.09584 29.7283 3.74712 29.3796C3.3984 29.0309 2.92544 28.835 2.43228 28.835C1.93912 28.835 1.46616 29.0309 1.11744 29.3796C0.768728 29.7283 0.572821 30.2013 0.572821 30.6944V35.4797C0.571654 35.7242 0.618953 35.9665 0.711987 36.1926C0.80502 36.4188 0.941942 36.6242 1.11484 36.7971C1.28774 36.97 1.49319 37.1069 1.71932 37.2C1.94545 37.293 2.18777 37.3403 2.43228 37.3391Z" fill="#17262F"></path><path d="M8.03711 23.045C9.73329 21.7134 11.8292 20.993 13.9856 21.0005H14.2236C15.4966 21.0005 16.7571 21.2512 17.9332 21.7384C19.1094 22.2256 20.178 22.9396 21.0782 23.8398C21.9783 24.7399 22.6924 25.8086 23.1795 26.9847C23.6667 28.1608 23.9174 29.4214 23.9174 30.6944V55.2199H13.3423C13.0981 55.2199 12.8563 55.268 12.6307 55.3614C12.4051 55.4549 12.2001 55.5918 12.0275 55.7645C11.8548 55.9372 11.7178 56.1422 11.6244 56.3678C11.5309 56.5934 11.4828 56.8352 11.4828 57.0793C11.4828 57.3235 11.5309 57.5653 11.6244 57.7909C11.7178 58.0165 11.8548 58.2215 12.0275 58.3942C12.2001 58.5669 12.4051 58.7038 12.6307 58.7973C12.8563 58.8907 13.0981 58.9388 13.3423 58.9388H25.2922C25.4497 58.9848 25.6128 59.0085 25.7769 59.0093C25.941 59.0085 26.1041 58.9848 26.2616 58.9388H38.9518C39.1093 58.9848 39.2724 59.0085 39.4365 59.0093C39.6005 59.0085 39.7637 58.9848 39.9212 58.9388H52.6113C52.7688 58.9848 52.932 59.0085 53.096 59.0093C53.2601 59.0094 53.4234 58.9857 53.5807 58.9388H65.5042C65.7484 58.9388 65.9902 58.8907 66.2158 58.7973C66.4414 58.7038 66.6463 58.5669 66.819 58.3942C66.9917 58.2215 67.1286 58.0165 67.2221 57.7909C67.3155 57.5653 67.3636 57.3235 67.3636 57.0793C67.3636 56.8352 67.3155 56.5934 67.2221 56.3678C67.1286 56.1422 66.9917 55.9372 66.819 55.7645C66.6463 55.5918 66.4414 55.4549 66.2158 55.3614C65.9902 55.268 65.7484 55.2199 65.5042 55.2199H54.929V30.6944C54.9357 28.2296 55.8811 25.8599 57.5728 24.0673C57.8869 23.7037 58.0481 23.2326 58.0225 22.7528C57.9969 22.273 57.7866 21.8217 57.4357 21.4935C57.0847 21.1654 56.6204 20.9858 56.1399 20.9925C55.6595 20.9991 55.2003 21.1915 54.8585 21.5293C52.5274 24.0111 51.2318 27.2894 51.2365 30.6944V55.2199H41.2959V47.7204C41.2959 47.2272 41.1 46.7542 40.7513 46.4055C40.4026 46.0568 39.9296 45.8609 39.4365 45.8609C38.9433 45.8609 38.4703 46.0568 38.1216 46.4055C37.7729 46.7542 37.577 47.2272 37.577 47.7204V55.2199H27.6364V30.6944C27.634 27.137 26.2204 23.7258 23.7058 21.2096C21.1912 18.6933 17.781 17.2774 14.2236 17.2728H13.9856C10.9993 17.2638 8.09688 18.2602 5.74583 20.1016C5.5361 20.2459 5.35807 20.4316 5.22269 20.6472C5.0873 20.8628 4.99741 21.1038 4.95853 21.3554C4.91965 21.607 4.9326 21.8639 4.99659 22.1103C5.06058 22.3567 5.17425 22.5874 5.33064 22.7883C5.48702 22.9892 5.68281 23.156 5.906 23.2785C6.12918 23.401 6.37504 23.4766 6.62849 23.5006C6.88194 23.5247 7.13762 23.4967 7.37985 23.4183C7.62208 23.34 7.84574 23.2129 8.03711 23.045Z" fill="#17262F"></path><path d="M74.5812 33.576V35.4795C74.6136 35.9517 74.8241 36.3939 75.1701 36.7169C75.5161 37.0399 75.9717 37.2195 76.445 37.2195C76.9183 37.2195 77.374 37.0399 77.72 36.7169C78.0659 36.3939 78.2764 35.9517 78.3089 35.4795V33.576C78.2764 33.1038 78.0659 32.6615 77.72 32.3386C77.374 32.0156 76.9183 31.8359 76.445 31.8359C75.9717 31.8359 75.5161 32.0156 75.1701 32.3386C74.8241 32.6615 74.6136 33.1038 74.5812 33.576Z" fill="#17262F"></path><path d="M64.6582 21.0004H64.8873C66.4169 20.9999 67.9249 21.3613 69.288 22.0551C70.6512 22.749 71.8308 23.7555 72.7305 24.9926C72.8746 25.1934 73.0568 25.3638 73.2668 25.4942C73.4767 25.6245 73.7103 25.7123 73.9542 25.7524C74.198 25.7925 74.4474 25.7841 74.688 25.7279C74.9287 25.6716 75.1559 25.5685 75.3567 25.4244C75.5575 25.2803 75.7279 25.0981 75.8583 24.8881C75.9886 24.6782 76.0764 24.4446 76.1165 24.2007C76.1566 23.9569 76.1483 23.7075 76.092 23.4669C76.0357 23.2262 75.9326 22.999 75.7885 22.7982C74.5345 21.0843 72.8937 19.6905 70.9994 18.7304C69.1051 17.7702 67.011 17.2708 64.8873 17.2727H64.6582C64.186 17.3052 63.7437 17.5157 63.4207 17.8617C63.0978 18.2076 62.9181 18.6633 62.9181 19.1366C62.9181 19.6099 63.0978 20.0655 63.4207 20.4115C63.7437 20.7575 64.186 20.968 64.6582 21.0004Z" fill="#17262F"></path></g><defs><clipPath id="clip0_5678_33693"><rect width="78.8817" height="95" fill="white"></rect></clipPath></defs></svg>