<svg xmlns="http://www.w3.org/2000/svg" width="80" height="81" viewBox="0 0 80 81" fill="none"><g clip-path="url(#clip0_5678_6232)"><path d="M43.8888 36.1943H29.494V25.6262C29.4922 23.4577 28.63 21.3786 27.0967 19.8453C25.5634 18.312 23.4843 17.4498 21.3158 17.448H7.05231V3.05322H21.3158C27.3003 3.06053 33.0376 5.4411 37.2692 9.67276C41.5009 13.9044 43.8815 19.6417 43.8888 25.6262V36.1943ZM32.2569 33.4314H41.1259V25.6262C41.1204 20.3739 39.0315 15.3383 35.3176 11.6244C31.6037 7.9105 26.5681 5.82162 21.3158 5.81613H9.81522V14.6851H21.3158C24.217 14.6869 26.9989 15.8402 29.0503 17.8917C31.1018 19.9431 32.2551 22.725 32.2569 25.6262V33.4314Z" fill="#17262F"></path><path d="M52.067 80.6149C46.0789 80.6076 40.3385 78.2242 36.1062 73.988C31.874 69.7519 29.4958 64.0093 29.494 58.0212V40.4491H43.8888V58.0212C43.8888 60.1902 44.7504 62.2704 46.2841 63.8041C47.8178 65.3378 49.898 66.1994 52.067 66.1994C54.236 66.1994 56.3161 65.3378 57.8498 63.8041C59.3836 62.2704 60.2452 60.1902 60.2452 58.0212V39.3716H74.6399V58.0212C74.6381 64.0093 72.26 69.7519 68.0277 73.988C63.7954 78.2242 58.055 80.6076 52.067 80.6149ZM32.2569 43.212V58.0212C32.2569 63.2752 34.3441 68.3139 38.0592 72.029C41.7743 75.7441 46.813 77.8313 52.067 77.8313C57.3209 77.8313 62.3597 75.7441 66.0748 72.029C69.7899 68.3139 71.877 63.2752 71.877 58.0212V42.1345H63.0081V58.0212C63.0081 60.923 61.8554 63.7059 59.8035 65.7577C57.7517 67.8096 54.9687 68.9623 52.067 68.9623C49.1652 68.9623 46.3823 67.8096 44.3304 65.7577C42.2786 63.7059 41.1259 60.923 41.1259 58.0212V43.212H32.2569Z" fill="#17262F"></path><path d="M8.39924 20.4939H1.38145C1.01507 20.4939 0.663691 20.3483 0.404619 20.0893C0.145546 19.8302 0 19.4788 0 19.1124V1.38145C0 1.01507 0.145546 0.663691 0.404619 0.404619C0.663691 0.145546 1.01507 0 1.38145 0L8.39924 0C8.76562 0 9.117 0.145546 9.37608 0.404619C9.63515 0.663691 9.78069 1.01507 9.78069 1.38145V19.1124C9.78069 19.4788 9.63515 19.8302 9.37608 20.0893C9.117 20.3483 8.76562 20.4939 8.39924 20.4939ZM2.76291 17.731H7.01779V2.76291H2.76291V17.731Z" fill="#17262F"></path><path d="M45.0008 43.2118H28.3819C28.0156 43.2118 27.6642 43.0663 27.4051 42.8072C27.146 42.5482 27.0005 42.1968 27.0005 41.8304V34.8126C27.0005 34.4462 27.146 34.0948 27.4051 33.8358C27.6642 33.5767 28.0156 33.4312 28.3819 33.4312H45.0008C45.3672 33.4312 45.7186 33.5767 45.9777 33.8358C46.2367 34.0948 46.3823 34.4462 46.3823 34.8126V41.8304C46.3823 42.1968 46.2367 42.5482 45.9777 42.8072C45.7186 43.0663 45.3672 43.2118 45.0008 43.2118ZM29.7634 40.4489H43.6194V36.1941H29.7634V40.4489Z" fill="#17262F"></path><path d="M75.158 42.0584H59.734C59.3677 42.0584 59.0163 41.9128 58.7572 41.6537C58.4981 41.3947 58.3526 41.0433 58.3526 40.6769V27.2284L55.3756 24.6935C55.223 24.563 55.1008 24.4009 55.0173 24.2184C54.9338 24.0359 54.891 23.8374 54.892 23.6367V16.985C54.892 16.6186 55.0376 16.2672 55.2967 16.0081C55.5557 15.7491 55.9071 15.6035 56.2735 15.6035H78.6185C78.9849 15.6035 79.3363 15.7491 79.5954 16.0081C79.8544 16.2672 80 16.6186 80 16.985V23.6367C80.001 23.8374 79.9583 24.0359 79.8748 24.2184C79.7913 24.4009 79.669 24.563 79.5165 24.6935L76.5394 27.2284V40.6769C76.5394 41.0433 76.3939 41.3947 76.1348 41.6537C75.8757 41.9128 75.5244 42.0584 75.158 42.0584ZM61.1155 39.2954H73.7765V26.593C73.7755 26.3923 73.8182 26.1938 73.9017 26.0113C73.9852 25.8287 74.1075 25.6666 74.26 25.5362L77.2371 23.0012V18.3664H57.655V23.0012L60.632 25.5569C60.7845 25.6873 60.9068 25.8495 60.9903 26.032C61.0738 26.2145 61.1165 26.413 61.1155 26.6137V39.2954Z" fill="#17262F"></path></g><defs><clipPath id="clip0_5678_6232"><rect width="80" height="80.6147" fill="white"></rect></clipPath></defs></svg>