<svg xmlns="http://www.w3.org/2000/svg" width="81" height="85" viewBox="0 0 81 85" fill="none"><g clip-path="url(#clip0_5678_33225)"><path d="M80.4211 37.9048C80.3068 37.415 80.1681 36.958 80.0375 36.4846C80.0185 36.3501 79.9829 36.2185 79.9314 36.0928C73.0099 11.6065 48.7032 6.07262 42.0756 5.01155V1.8365C42.0445 1.36954 41.837 0.931857 41.4953 0.612122C41.1535 0.292387 40.703 0.114502 40.235 0.114502C39.767 0.114502 39.3165 0.292387 38.9748 0.612122C38.633 0.931857 38.4256 1.36954 38.3945 1.8365V5.01155C31.7669 6.07262 7.46017 11.5984 0.538717 36.1009C0.489882 36.2213 0.456956 36.3475 0.440772 36.4764C0.310178 36.9498 0.163261 37.415 0.0489916 37.9048C-0.00684413 38.1395 -0.0158733 38.383 0.02242 38.6212C0.0607133 38.8594 0.145578 39.0878 0.272165 39.2932C0.398752 39.4986 0.564579 39.6771 0.760168 39.8184C0.955757 39.9597 1.17728 40.0611 1.41206 40.1167C1.55328 40.1531 1.69888 40.1696 1.84465 40.1657C2.25804 40.1658 2.6594 40.0265 2.98378 39.7703C3.30817 39.514 3.53661 39.1558 3.63215 38.7536C3.70561 38.4435 3.79539 38.1496 3.87701 37.8476C5.35435 36.8437 10.8148 33.9217 19.2462 37.8476C19.2462 37.9374 19.2462 38.019 19.2462 38.1007C19.2167 38.3427 19.2357 38.5882 19.3021 38.8228C19.3685 39.0575 19.481 39.2765 19.6329 39.4672C19.7849 39.6579 19.9733 39.8165 20.1872 39.9336C20.4011 40.0507 20.6361 40.124 20.8786 40.1493H21.099C21.5504 40.1499 21.9861 39.9835 22.3221 39.6821C22.6581 39.3808 22.8708 38.9657 22.9192 38.5169C22.9192 38.2802 22.9845 38.068 23.0171 37.8395C24.9434 36.9498 30.363 35.3256 38.4516 39.2597V76.1931C38.4529 76.4348 38.5019 76.6738 38.5957 76.8965C38.6896 77.1192 38.8264 77.3212 38.9985 77.4909C40.2963 82.0535 43.8957 85 48.5889 85C54.5636 85 58.7263 80.2823 58.7263 73.5731C58.7263 73.086 58.5328 72.6189 58.1884 72.2745C57.844 71.9301 57.3768 71.7366 56.8898 71.7366C56.4027 71.7366 55.9356 71.9301 55.5912 72.2745C55.2468 72.6189 55.0533 73.086 55.0533 73.5731C55.0533 77.1644 53.3556 81.3597 48.5889 81.3597C43.8223 81.3597 42.1327 77.1644 42.1327 73.5731V39.3005C50.2295 35.3582 55.641 36.9825 57.5754 37.8721C57.5754 38.1007 57.6407 38.3129 57.6652 38.5496C57.7172 38.9984 57.932 39.4125 58.269 39.7133C58.606 40.0142 59.0417 40.181 59.4935 40.182H59.7057C60.1938 40.1267 60.6399 39.8798 60.946 39.4956C61.2522 39.1114 61.3932 38.6214 61.3381 38.1333C61.3381 38.0517 61.3381 37.9701 61.3381 37.8803C69.7696 33.9462 75.2137 36.8355 76.7073 37.8803C76.789 38.1904 76.8787 38.4843 76.9604 38.7944C77.0546 39.1973 77.2826 39.5564 77.6073 39.8129C77.932 40.0693 78.3341 40.2081 78.7479 40.2065C78.8909 40.2104 79.0339 40.1939 79.1723 40.1575C79.6344 40.0209 80.0242 39.7082 80.2578 39.2868C80.4914 38.8654 80.5501 38.369 80.4211 37.9048ZM5.46046 33.0075C10.774 19.8257 21.7846 13.647 30.0692 10.7985C26.0371 15.0346 21.8499 22.1356 19.8094 34.0523C13.5899 31.4159 8.70081 31.9464 5.46046 33.032V33.0075ZM23.5885 33.7258C26.7635 16.5038 34.5746 10.8719 38.3945 9.15789V35.2358C31.8322 32.4362 26.7064 32.8769 23.5885 33.7503V33.7258ZM42.0756 35.2113V9.1987C45.8791 10.9699 53.7066 16.6262 56.8816 33.7503C53.7637 32.8769 48.6787 32.4443 42.0756 35.2358V35.2113ZM60.6607 34.0278C58.6201 22.1111 54.4412 15.0101 50.4091 10.7985C58.6773 13.6715 69.7043 19.8502 75.0096 33.032C71.7774 31.9464 66.8802 31.4159 60.6607 34.0523V34.0278Z" fill="#17262F"></path></g><defs><clipPath id="clip0_5678_33225"><rect width="80.47" height="85" fill="white"></rect></clipPath></defs></svg>