<svg xmlns="http://www.w3.org/2000/svg" width="65" height="95" viewBox="0 0 65 95" fill="none"><g clip-path="url(#clip0_5678_6474)"><path d="M32.4495 73.5964C28.7096 73.6001 25.0216 72.7212 21.6853 71.0311C18.349 69.341 15.4587 66.8875 13.2492 63.87C11.0397 60.8525 9.57352 57.3562 8.96976 53.6653C8.366 49.9744 8.64173 46.1931 9.77454 42.6289L12.86 43.6169C11.9765 46.4355 11.7121 49.4117 12.0846 52.3419C12.4571 55.2722 13.4578 58.0875 15.0183 60.5954C16.5788 63.1034 18.6624 65.2449 21.1266 66.8736C23.5909 68.5023 26.3777 69.5798 29.2966 70.0325C32.2156 70.4852 35.1978 70.3024 38.0396 69.4966C40.8814 68.6908 43.5158 67.281 45.7626 65.3635C48.0095 63.4461 49.8159 61.0661 51.0585 58.3863C52.301 55.7066 52.9504 52.7901 52.9623 49.8363C52.9633 47.7265 52.641 45.629 52.0067 43.6169L55.0678 42.6289C56.1969 46.1931 56.4699 49.9732 55.8646 53.6626C55.2593 57.352 53.7928 60.8468 51.5841 63.8633C49.3753 66.8799 46.4865 69.3332 43.1521 71.0243C39.8177 72.7154 36.1316 73.5966 32.3928 73.5964H32.4495Z" fill="#17262F"></path><path d="M3.23928 95.0001H0C0.00429025 91.1598 1.5323 87.4781 4.24857 84.7634C6.96484 82.0486 10.6474 80.5227 14.4877 80.5205H32.4495V83.7598H14.4877C11.5058 83.7598 8.64597 84.9438 6.53672 87.0515C4.42747 89.1592 3.24143 92.0182 3.23928 95.0001Z" fill="#17262F"></path><path d="M64.8909 95.0001H61.6516C61.6473 92.0203 60.4617 89.1638 58.3547 87.0567C56.2476 84.9497 53.3911 83.7641 50.4113 83.7598H32.4495V80.5205H50.4113C54.2502 80.5248 57.9307 82.0517 60.6452 84.7662C63.3597 87.4807 64.8866 91.1612 64.8909 95.0001Z" fill="#17262F"></path><path d="M63.2712 44.7426H1.61964C1.19008 44.7426 0.778123 44.572 0.474382 44.2683C0.17064 43.9645 0 43.5526 0 43.123V35.3001C0.000778907 34.9917 0.0895951 34.69 0.256006 34.4303C0.422417 34.1706 0.659504 33.9639 0.939391 33.8344L4.30824 32.2633C3.98432 27.534 3.96812 10.3982 19.9702 5.39348C20.1249 5.34543 20.2859 5.32086 20.448 5.3206H24.2136V8.55988H20.7071C5.02898 13.6698 7.60421 32.8302 7.62851 33.0245C7.67879 33.3687 7.61695 33.7199 7.45214 34.0262C7.28734 34.3324 7.02832 34.5775 6.71341 34.7252L3.23928 36.3367V41.5034H61.6516V36.3367L58.1775 34.7171C57.8626 34.5694 57.6035 34.3243 57.4387 34.0181C57.2739 33.7118 57.2121 33.3606 57.2624 33.0164C57.3758 32.2066 59.8133 13.6455 44.1838 8.55178H40.6854V5.3125H44.4429C44.6049 5.31276 44.766 5.33733 44.9207 5.38538C60.9228 10.4144 60.9066 27.534 60.5826 32.2633L63.9758 33.8344C64.2557 33.9639 64.4928 34.1706 64.6592 34.4303C64.8256 34.69 64.9144 34.9917 64.9152 35.3001V43.123C64.9152 43.3378 64.8725 43.5504 64.7896 43.7485C64.7067 43.9466 64.5852 44.1262 64.4322 44.2769C64.2793 44.4277 64.0978 44.5464 63.8985 44.6264C63.6992 44.7063 63.486 44.7459 63.2712 44.7426Z" fill="#17262F"></path><path d="M42.305 15.5809H39.0657V3.23928H25.8333V15.5809H22.594V1.61964C22.594 1.19008 22.7646 0.778123 23.0684 0.474382C23.3721 0.17064 23.7841 0 24.2136 0L40.6854 0C41.1149 0 41.5269 0.17064 41.8306 0.474382C42.1344 0.778123 42.305 1.19008 42.305 1.61964V15.5809Z" fill="#17262F"></path></g><defs><clipPath id="clip0_5678_6474"><rect width="64.8909" height="95" fill="white"></rect></clipPath></defs></svg>