<svg xmlns="http://www.w3.org/2000/svg" width="140" height="110" viewBox="0 0 140 110" fill="none"><g clip-path="url(#clip0_5678_8885)"><g style="mix-blend-mode:multiply"><path d="M135.001 84.0411L138.979 86.9983L134.814 93.1835L119.486 102.482L106.231 106.095L83.3643 110L59.8419 96.8487L65.3294 92.2984L67.1621 91.2988L65.3294 90.2471L59.1859 91.7569L61.1852 93.1106L58.6965 94.7662L1.85346 61.2164L0 55.4582L4.63366 50.9286L26.8752 37.944L37.996 31.79L135.001 84.0411Z" fill="#BBBBBB"></path></g><path d="M21.242 40.4326L18.5555 41.9841V43.3065L21.6793 40.6825L21.242 40.4326Z" fill="#FFD02D"></path><path d="M21.6793 40.6826L18.9928 42.2341V43.5669L21.6793 42.0154V40.6826Z" fill="#0C0606"></path><path d="M18.9928 42.2338L18.5555 41.9839V43.3063L18.9928 43.5666V42.2338Z" fill="#E25B00"></path><path d="M17.7537 49.3563L21.7938 46.5345L24.2096 44.0562L21.9708 42.9629L19.274 43.4315L17.8682 45.9722L17.7537 49.3563Z" fill="#260C0C"></path><path d="M20.2944 46.2012L24.6365 53.8442L25.3029 55.0312L30.0824 62.2056L34.6223 59.5607L35.195 59.2275C35.8029 58.7285 36.2786 58.0875 36.5801 57.3611C36.8815 56.6347 36.9995 55.8452 36.9235 55.0624C36.9246 54.5181 36.8793 53.9747 36.7881 53.4381C36.4586 51.5133 35.7508 49.673 34.7056 48.0234C33.6208 46.2087 32.1133 44.6833 30.3114 43.5772C29.6923 43.1554 28.9865 42.8775 28.246 42.764C27.5054 42.6505 26.7489 42.7042 26.0318 42.9212L25.3654 43.3377C23.5015 44.4206 20.2944 46.2012 20.2944 46.2012Z" fill="#4F1F26"></path><path d="M23.9493 54.24L25.3029 55.0314L29.6971 57.5617L36.8194 53.4591C36.4898 51.5343 35.782 49.694 34.7368 48.0444L24.6782 53.8443L23.9493 54.24Z" fill="#4F1F26"></path><path d="M29.0098 44.3374C27.0314 43.2024 25.2613 43.1607 24.0326 44.0354L23.8347 44.1708C24.5761 43.8887 25.3757 43.7944 26.1623 43.8961C26.9489 43.9979 27.6982 44.2925 28.3434 44.7539C30.2736 46.0069 31.8817 47.6967 33.0376 49.6866C34.1935 51.6764 34.8648 53.9105 34.9972 56.2079C35.0847 56.9897 34.9774 57.7811 34.6849 58.5115C34.3924 59.2418 33.9237 59.8885 33.3207 60.3938L33.7476 60.1543C34.9555 59.4671 35.6948 57.9885 35.6948 55.8747C35.5702 53.5605 34.8995 51.3086 33.7376 49.3033C32.5757 47.2981 30.9556 45.5964 29.0098 44.3374Z" fill="#481018"></path><path d="M27.802 45.0452C25.8236 43.8998 24.0534 43.8686 22.8351 44.7328L22.6268 44.8682C23.3687 44.5889 24.1678 44.496 24.9539 44.5977C25.74 44.6994 26.4892 44.9925 27.1356 45.4513C29.0646 46.7056 30.6718 48.3957 31.8276 50.3853C32.9833 52.3749 33.6553 54.6083 33.7893 56.9053C33.8594 57.6754 33.7416 58.4511 33.4459 59.1657C33.1503 59.8802 32.6857 60.5124 32.092 61.0079L32.5085 60.7684C33.7164 60.0812 34.4557 58.6026 34.4557 56.4888C34.3218 54.1932 33.6497 51.9612 32.4939 49.9733C31.338 47.9854 29.7308 46.2972 27.802 45.0452Z" fill="#481018"></path><path d="M26.5941 45.743C24.6157 44.5976 22.8455 44.5663 21.6272 45.4306C21.561 45.4804 21.4914 45.5257 21.419 45.566C22.1613 45.2894 22.9599 45.1979 23.7455 45.2995C24.5311 45.4011 25.2801 45.6927 25.9277 46.1491C27.8567 47.4033 29.4639 49.0934 30.6197 51.083C31.7755 53.0726 32.4474 55.306 32.5814 57.6031C32.6515 58.3732 32.5337 59.1488 32.2381 59.8634C31.9424 60.578 31.4778 61.2102 30.8841 61.7057L31.3006 61.4662C32.5085 60.7789 33.2582 59.3003 33.2582 57.197C33.1239 54.8988 32.4507 52.6645 31.293 50.6747C30.1353 48.6849 28.5256 46.9955 26.5941 45.743Z" fill="#481018"></path><path d="M18.5971 50.3249C18.7311 52.6219 19.4031 54.8553 20.5588 56.8449C21.7146 58.8345 23.3218 60.5246 25.2509 61.7789C28.9265 63.8614 31.9046 62.1954 31.9046 57.9782C31.7723 55.6808 31.101 53.4468 29.945 51.4569C28.7891 49.4671 27.181 47.7773 25.2509 46.5242C21.5752 44.4104 18.5971 46.1077 18.5971 50.3249Z" fill="#67383F"></path><path d="M18.7429 50.5849C18.8705 52.842 19.528 55.0374 20.6623 56.993C21.7966 58.9487 23.3757 60.6095 25.2717 61.841C28.8745 63.9236 31.79 62.2575 31.79 58.1237C31.6707 55.8691 31.0222 53.6744 29.897 51.717C28.7718 49.7597 27.2015 48.0948 25.3133 46.8571C21.7105 44.7746 18.7429 46.451 18.7429 50.5849Z" fill="#5C2930"></path><path d="M25.053 61.5496C28.7287 63.6322 31.7067 61.9662 31.7067 57.749C31.5513 54.7478 30.4588 51.8708 28.5829 49.5229C30.567 51.9224 31.7214 54.8995 31.8733 58.0093C31.8733 62.1744 28.8953 63.9237 25.2196 61.81C23.8344 60.9665 22.6252 59.8634 21.6585 58.5612C22.5946 59.7595 23.7458 60.7729 25.053 61.5496Z" fill="#4F1F26"></path><path d="M19.8987 51.0849C20.0036 52.935 20.5428 54.7343 21.4727 56.3371C22.4026 57.9399 23.6969 59.3012 25.2509 60.3106C28.2081 62.0079 30.603 60.6438 30.603 57.2597C30.4997 55.4092 29.9612 53.6093 29.0312 52.0062C28.1012 50.4031 26.806 49.0422 25.2509 48.034C22.2936 46.3263 19.8987 47.6904 19.8987 51.0849Z" fill="#67383F"></path><path d="M21.1587 51.8032C21.2377 53.2188 21.6495 54.5959 22.3605 55.8225C23.0715 57.0491 24.0618 58.0908 25.2509 58.863C27.5104 60.1646 29.3431 59.1234 29.3431 56.5306C29.2632 55.1152 28.8511 53.7385 28.1401 52.5119C27.4292 51.2854 26.4394 50.2436 25.2509 49.4708C22.9913 48.1692 21.1587 49.2105 21.1587 51.8032Z" fill="#BE5900"></path><path d="M21.1587 51.8032C21.2377 53.2188 21.6495 54.5959 22.3605 55.8225C23.0715 57.0491 24.0618 58.0908 25.2509 58.863C27.5104 60.1646 29.3431 59.1234 29.3431 56.5306C29.2632 55.1152 28.8511 53.7385 28.1401 52.5119C27.4292 51.2854 26.4394 50.2436 25.2509 49.4708C22.9913 48.1692 21.1587 49.2105 21.1587 51.8032ZM21.5856 51.949C21.5856 49.5332 23.2828 48.5649 25.3862 49.7832C26.4862 50.5056 27.4006 51.4768 28.0554 52.6183C28.7103 53.7598 29.0872 55.0394 29.1556 56.3536C29.1556 58.7589 27.4479 59.7377 25.3446 58.5194C24.2436 57.7989 23.329 56.8279 22.6757 55.6858C22.0223 54.5438 21.6487 53.2632 21.5856 51.949Z" fill="#E79D00"></path><path d="M22.304 52.0635C22.3696 53.2265 22.7083 54.3576 23.2926 55.3653C23.877 56.373 24.6905 57.2288 25.6674 57.8633C27.3855 58.9046 28.7912 58.1965 29.0098 56.4056C29.0207 56.253 29.0207 56.0999 29.0098 55.9474C28.9272 54.3549 28.3318 52.8317 27.3126 51.6053C26.8513 51.0214 26.2865 50.5272 25.6465 50.1475C23.8139 49.0958 22.304 49.9809 22.304 52.0635Z" fill="#8F3300"></path><path d="M25.9485 51.0221C25.4297 50.7128 24.8399 50.5426 24.2361 50.528C23.6323 50.5134 23.035 50.6549 22.5019 50.9388C22.9601 49.7101 24.2096 49.3561 25.6257 50.1995C27.1566 51.2041 28.2675 52.7335 28.7495 54.5C28.2027 53.0762 27.223 51.8598 25.9485 51.0221Z" fill="#8F3300"></path><path d="M24.043 52.5531C24.093 53.4385 24.3511 54.2997 24.7961 55.0667C25.2411 55.8338 25.8607 56.4852 26.6045 56.9681C27.7083 57.6033 28.6871 57.343 29.0098 56.4266C29.0207 56.2741 29.0207 56.121 29.0098 55.9685C28.9272 54.3759 28.3318 52.8528 27.3126 51.6264C27.0887 51.4245 26.8445 51.2465 26.5837 51.0953C25.1884 50.2727 24.043 50.9287 24.043 52.5531Z" fill="#6B2600"></path><path d="M28.5517 54.8231C28.5517 54.8752 28.5517 54.9273 28.5517 54.9793C28.5452 55.2467 28.4813 55.5095 28.3643 55.7499C28.0206 56.4059 27.323 56.5621 26.3962 56.0623C25.7657 55.652 25.2409 55.0986 24.8646 54.4473C24.4882 53.7959 24.2709 53.0649 24.2304 52.3137C24.1958 52.0289 24.2466 51.7402 24.3764 51.4844C24.5062 51.2286 24.7091 51.017 24.9593 50.8767H25.0114C25.3554 50.7707 25.7267 50.7966 26.0526 50.9496L26.365 51.1058C27.3448 51.7377 28.0625 52.7032 28.3851 53.8235C28.4442 54.0461 28.4894 54.2722 28.5204 54.5004C28.5413 54.5941 28.5517 54.7086 28.5517 54.8231Z" fill="#8F3300"></path><path d="M28.4059 54.927V55.0832C28.3962 55.3513 28.3287 55.6141 28.2081 55.8537C27.8644 56.5097 27.1147 56.6659 26.2401 56.1661C25.6082 55.7564 25.0818 55.2034 24.7036 54.5521C24.3255 53.9008 24.1063 53.1695 24.0638 52.4175C24.0387 52.1384 24.0952 51.8579 24.2264 51.6102C24.3577 51.3625 24.558 51.1582 24.8031 51.0222H24.8552C25.1992 50.9162 25.5705 50.9422 25.8964 51.0951L26.2088 51.2513C27.188 51.8815 27.9029 52.8482 28.2185 53.969C28.2875 54.1892 28.3329 54.4161 28.3538 54.6459C28.3782 54.7381 28.3956 54.8321 28.4059 54.927Z" fill="#BE5900"></path><path d="M27.146 54.2605L27.6666 55.3018L27.2709 55.5517L25.2613 51.8135L25.6569 51.5532L27.146 54.2605Z" fill="#380009"></path><path d="M26.3754 53.7607L27.2709 55.5516L26.8336 55.7495L24.8656 52.105L25.2613 51.8135L26.3754 53.7607Z" fill="#543A3E"></path><path d="M27.6666 53.8964C27.6768 54.0029 27.6635 54.1104 27.6275 54.2111C27.5915 54.3119 27.5337 54.4035 27.4584 54.4795C27.2621 54.6294 27.053 54.7618 26.8336 54.8752L25.407 52.4386C25.5765 52.3523 25.7399 52.2549 25.8964 52.147C26.0085 52.0657 26.1433 52.022 26.2817 52.022C26.4201 52.022 26.555 52.0657 26.667 52.147C26.9599 52.339 27.2032 52.5976 27.3769 52.9016C27.5506 53.2057 27.6499 53.5466 27.6666 53.8964Z" fill="#380009"></path><path d="M27.1251 54.2294C27.1251 54.8646 26.6774 55.1145 26.0839 54.8021C25.786 54.6169 25.5363 54.3636 25.3553 54.0632C25.1743 53.7627 25.0671 53.4236 25.0426 53.0736C25.0426 52.4385 25.4903 52.1885 26.0839 52.5009C26.3818 52.6862 26.6315 52.9394 26.8125 53.2399C26.9935 53.5404 27.1006 53.8795 27.1251 54.2294Z" fill="#543A3E"></path><path d="M26.6045 53.9066C26.6083 53.9526 26.6019 53.9989 26.5857 54.0421C26.5695 54.0853 26.5439 54.1244 26.5108 54.1565C26.4306 54.2217 26.3433 54.2776 26.2505 54.3231L25.6465 53.2819C25.7193 53.246 25.7889 53.2042 25.8548 53.1569C25.9021 53.1237 25.9584 53.106 26.0162 53.106C26.0739 53.106 26.1303 53.1237 26.1776 53.1569C26.3036 53.2385 26.4081 53.3492 26.4824 53.4797C26.5567 53.6102 26.5986 53.7566 26.6045 53.9066Z" fill="#380009"></path><path d="M26.3754 54.0527C26.3754 54.3234 26.188 54.4275 25.9485 54.2922C25.8272 54.2114 25.7264 54.1035 25.6541 53.977C25.5818 53.8504 25.54 53.7088 25.532 53.5633C25.532 53.2926 25.7194 53.1884 25.9485 53.3238C26.0729 53.4021 26.1767 53.5092 26.251 53.6361C26.3253 53.763 26.368 53.9059 26.3754 54.0527Z" fill="#63474B"></path><path d="M34.9034 54.9062L39.2455 62.5596L39.912 63.7362L44.6914 70.921L49.2313 68.2762L49.804 67.9429C50.412 67.444 50.8877 66.803 51.1891 66.0765C51.4906 65.3501 51.6085 64.5607 51.5326 63.7779C51.5332 63.2335 51.4879 62.6902 51.3972 62.1535C51.0658 60.2292 50.3581 58.3892 49.3146 56.7389C48.227 54.9264 46.72 53.4016 44.9205 52.2926C44.2981 51.865 43.5873 51.5831 42.8411 51.4677C42.0948 51.3524 41.3321 51.4065 40.6096 51.6262L39.9328 52.0531C38.1106 53.1048 34.9034 54.9062 34.9034 54.9062Z" fill="#4F1F26"></path><path d="M38.5271 62.9555L39.8807 63.7364L44.2749 66.2772L51.3972 62.1641C51.0658 60.2399 50.3581 58.3999 49.3146 56.7495L39.256 62.5598L38.5271 62.9555Z" fill="#4F1F26"></path><path d="M43.6189 53.1048C41.6405 51.9594 39.8703 51.9282 38.652 52.7924L38.4438 52.9382C39.1848 52.6574 39.9834 52.5628 40.7695 52.6627C41.5556 52.7625 42.3052 53.0538 42.9525 53.5109C44.8815 54.7652 46.4887 56.4553 47.6445 58.4449C48.8003 60.4345 49.4722 62.6678 49.6062 64.9649C49.6716 65.7325 49.5505 66.5046 49.2532 67.2153C48.9558 67.926 48.4911 68.5543 47.8985 69.0467L48.315 68.8072C49.5229 68.1199 50.2622 66.6413 50.2622 64.538C50.1278 62.2451 49.4566 60.0158 48.3027 58.0299C47.1488 56.044 45.5444 54.3569 43.6189 53.1048Z" fill="#260E08"></path><path d="M42.411 53.7507C40.4326 52.6157 38.6624 52.574 37.4441 53.4383L37.2359 53.5841C37.9772 53.302 38.7768 53.2077 39.5635 53.3094C40.3501 53.4111 41.0994 53.7058 41.7446 54.1672C43.6748 55.4202 45.2829 57.11 46.4388 59.0999C47.5947 61.0897 48.266 63.3237 48.3983 65.6212C48.4727 66.3978 48.357 67.1809 48.0613 67.9029C47.7657 68.6248 47.2988 69.2641 46.7011 69.7654L47.1176 69.5155C48.3254 68.8283 49.0647 67.3497 49.0647 65.2463C48.9372 62.9421 48.2682 60.7004 47.1122 58.703C45.9561 56.7057 44.3455 55.009 42.411 53.7507Z" fill="#481018"></path><path d="M41.2031 54.4586C39.2351 53.3132 37.4546 53.2716 36.2363 54.1462L36.028 54.2816C36.7694 53.9996 37.569 53.9052 38.3556 54.0069C39.1422 54.1087 39.8915 54.4033 40.5367 54.8647C42.4669 56.1178 44.075 57.8076 45.2309 59.7974C46.3868 61.7873 47.0581 64.0213 47.1905 66.3187C47.2606 67.0888 47.1427 67.8645 46.8471 68.5791C46.5515 69.2936 46.0869 69.9258 45.4932 70.4213L45.9097 70.1818C47.1176 69.4946 47.8673 68.016 47.8673 65.9022C47.733 63.6054 47.0597 61.3726 45.9019 59.3845C44.7442 57.3964 43.1344 55.7089 41.2031 54.4586Z" fill="#481018"></path><path d="M33.2062 59.0403C33.3385 61.3377 34.0098 63.5717 35.1657 65.5616C36.3216 67.5514 37.9297 69.2412 39.8599 70.4943C43.5356 72.5768 46.5136 70.9212 46.5136 66.704C46.3797 64.407 45.7077 62.1736 44.5519 60.184C43.3961 58.1944 41.7889 56.5043 39.8599 55.25C36.1842 53.105 33.2062 54.8231 33.2062 59.0403Z" fill="#67383F"></path><path d="M33.3936 59.3527C33.5203 61.6087 34.1776 63.8029 35.312 65.757C36.4465 67.7111 38.0261 69.3699 39.9224 70.5985C43.5252 72.681 46.4407 71.015 46.4407 66.8811C46.316 64.6259 45.6607 62.432 44.528 60.4778C43.3953 58.5237 41.8173 56.8646 39.9224 55.6354C36.3196 53.5008 33.3936 55.1876 33.3936 59.3527Z" fill="#5C2930"></path><path d="M39.6621 70.2547C43.3378 72.3373 46.3158 70.6816 46.3158 66.4645C46.1625 63.4597 45.0699 60.5788 43.192 58.228C45.1749 60.6322 46.3289 63.6122 46.4824 66.7248C46.4824 70.8899 43.5044 72.6392 39.8287 70.515C38.442 69.6735 37.2325 68.5701 36.2675 67.2663C37.2008 68.4673 38.3525 69.4812 39.6621 70.2547Z" fill="#4F1F26"></path><path d="M34.5078 59.7899C34.611 61.6403 35.1496 63.4403 36.0796 65.0433C37.0096 66.6464 38.3048 68.0074 39.8599 69.0155C42.8171 70.7232 45.212 69.3592 45.212 65.9646C45.1071 64.1146 44.5679 62.3153 43.638 60.7124C42.7082 59.1096 41.4139 57.7484 39.8599 56.7389C36.9027 55.0417 34.5078 56.4057 34.5078 59.7899Z" fill="#67383F"></path><path d="M35.7677 60.5185C35.8467 61.9328 36.2585 63.3083 36.9696 64.5333C37.6807 65.7583 38.671 66.798 39.8599 67.568C42.1195 68.88 43.9521 67.8283 43.9521 65.2355C43.8714 63.8217 43.4589 62.4468 42.748 61.222C42.037 59.9973 41.0476 58.9573 39.8599 58.1861C37.6003 56.8845 35.7677 57.9258 35.7677 60.5185Z" fill="#BE5900"></path><path d="M35.7677 60.5185C35.8467 61.9328 36.2585 63.3083 36.9696 64.5333C37.6807 65.7583 38.671 66.798 39.8599 67.568C42.1195 68.88 43.9521 67.8283 43.9521 65.2355C43.8714 63.8217 43.4589 62.4468 42.748 61.222C42.037 59.9973 41.0476 58.9573 39.8599 58.1861C37.6003 56.8845 35.7677 57.9258 35.7677 60.5185ZM36.1946 60.6643C36.1946 58.2486 37.8919 57.2802 40.0057 58.4881C41.1109 59.2076 42.0309 60.1775 42.6912 61.3191C43.3516 62.4606 43.7336 63.7417 43.8063 65.0585C43.8063 67.4742 42.109 68.4426 40.0057 67.2348C38.8951 66.5201 37.9703 65.5516 37.3077 64.4092C36.6451 63.2668 36.2635 61.9832 36.1946 60.6643Z" fill="#E79D00"></path><path d="M36.9131 60.8001C36.9722 61.9703 37.3079 63.1098 37.8925 64.1252C38.4771 65.1406 39.2941 66.003 40.2764 66.6416C41.9945 67.6309 43.4002 66.9749 43.6189 65.1839C43.6295 65.0313 43.6295 64.8782 43.6189 64.7257C43.5474 63.1376 42.9587 61.6165 41.9424 60.394C41.4811 59.8101 40.9164 59.3159 40.2764 58.9362C38.4229 57.8117 36.9131 58.6655 36.9131 60.8001Z" fill="#8F3300"></path><path d="M40.6096 59.6961C40.0872 59.3916 39.4963 59.2242 38.8918 59.2097C38.2873 59.1951 37.689 59.3338 37.1526 59.6128C37.6212 58.3841 38.8603 58.0405 40.2764 58.8839C41.8113 59.8842 42.9236 61.4154 43.4002 63.1844C42.858 61.7582 41.882 60.5381 40.6096 59.6961Z" fill="#8F3300"></path><path d="M38.6624 61.258C38.7113 62.1425 38.9678 63.003 39.411 63.77C39.8541 64.537 40.4717 65.1889 41.2136 65.673C42.3173 66.3082 43.2961 66.0583 43.6189 65.1419C43.6295 64.9894 43.6295 64.8363 43.6189 64.6838C43.5385 63.1101 42.9503 61.605 41.9424 60.3937C41.7188 60.1886 41.4745 60.0072 41.2136 59.8523C39.8078 58.988 38.6624 59.644 38.6624 61.258Z" fill="#6B2600"></path><path d="M43.1607 63.5178C43.1663 63.5662 43.1663 63.6151 43.1607 63.6636C43.1554 63.9344 43.0915 64.2008 42.9733 64.4445C42.6401 65.1005 41.932 65.2567 41.0053 64.7569C40.3759 64.3454 39.852 63.7918 39.4758 63.1406C39.0996 62.4895 38.8816 61.7591 38.8395 61.0083C38.8034 60.7234 38.8536 60.4342 38.9836 60.1781C39.1135 59.9219 39.3172 59.7106 39.5683 59.5714H39.6204C39.9632 59.462 40.3344 59.4843 40.6617 59.6338C40.7698 59.6775 40.8743 59.7297 40.9741 59.79C41.9499 60.4144 42.6701 61.3673 43.0045 62.4765C43.0706 62.6974 43.1159 62.924 43.1399 63.1533C43.1503 63.3095 43.1607 63.4241 43.1607 63.5178Z" fill="#8F3300"></path><path d="M43.0254 63.6428C43.0254 63.6948 43.0254 63.7469 43.0254 63.7886C43.0219 64.0608 42.9541 64.3284 42.8275 64.5695C42.4839 65.2255 41.7863 65.3817 40.8595 64.8819C40.2288 64.4709 39.7033 63.9177 39.3253 63.2666C38.9473 62.6155 38.7274 61.8848 38.6833 61.1333C38.6482 60.8473 38.7 60.5573 38.8318 60.3011C38.9636 60.0448 39.1695 59.8341 39.4226 59.6964C39.7654 59.587 40.1366 59.6093 40.4638 59.7588C40.572 59.8025 40.6764 59.8547 40.7762 59.915C41.7508 60.5501 42.4642 61.5148 42.7859 62.6327C42.8543 62.8572 42.9031 63.0871 42.9317 63.32C43.015 63.4137 43.0254 63.5178 43.0254 63.6428Z" fill="#BE5900"></path><path d="M41.755 62.9763L42.2757 64.0176L41.88 64.2675L39.8703 60.5189L40.2764 60.269L41.755 62.9763Z" fill="#380009"></path><path d="M40.9845 62.4761L41.88 64.2671L41.4426 64.4546L39.4746 60.8101L39.8703 60.5186L40.9845 62.4761Z" fill="#543A3E"></path><path d="M42.2756 62.6117C42.2845 62.7181 42.2704 62.8252 42.2345 62.9258C42.1986 63.0263 42.1416 63.118 42.0674 63.1948C41.8691 63.3387 41.6602 63.4675 41.4426 63.5801L40.0161 61.1539C40.1855 61.0677 40.349 60.9703 40.5055 60.8624C40.6175 60.7811 40.7524 60.7373 40.8908 60.7373C41.0292 60.7373 41.164 60.7811 41.276 60.8624C41.5689 61.0543 41.8122 61.3129 41.9859 61.617C42.1597 61.921 42.259 62.2619 42.2756 62.6117Z" fill="#380009"></path><path d="M41.7342 62.9343C41.7342 63.5695 41.2864 63.8298 40.6929 63.507C40.3939 63.323 40.1433 63.0701 39.9621 62.7694C39.7809 62.4686 39.6745 62.1288 39.6516 61.7785C39.6516 61.1537 40.0994 60.8934 40.6929 61.2162C40.9906 61.3992 41.2403 61.6505 41.4214 61.9493C41.6025 62.2481 41.7097 62.5858 41.7342 62.9343Z" fill="#543A3E"></path><path d="M41.2136 62.6223C41.2168 62.6674 41.2111 62.7126 41.1968 62.7555C41.1825 62.7984 41.1599 62.838 41.1303 62.8722C41.047 62.9347 40.8595 63.0388 40.8595 63.0388L40.2556 61.9975C40.3283 61.9616 40.398 61.9198 40.4638 61.8726C40.5121 61.837 40.5705 61.8179 40.6304 61.8179C40.6904 61.8179 40.7488 61.837 40.797 61.8726C40.9211 61.9553 41.0237 62.0666 41.0961 62.197C41.1685 62.3274 41.2088 62.4732 41.2136 62.6223Z" fill="#380009"></path><path d="M40.9845 62.7573C40.9845 63.0281 40.7971 63.1426 40.568 63.0072C40.4434 62.9266 40.3397 62.8176 40.2654 62.689C40.1912 62.5605 40.1486 62.4162 40.1411 62.2679C40.1411 62.0076 40.3285 61.8931 40.568 62.0285C40.6887 62.1098 40.7891 62.2178 40.8614 62.3443C40.9336 62.4707 40.9757 62.612 40.9845 62.7573Z" fill="#63474B"></path><path d="M19.4406 42.9627L26.1255 39.5474L57.1034 60.1646L56.4786 63.1634L49.7312 67.8283L47.7736 61.1642L45.9305 57.6551L43.1087 54.9374L22.6268 43.4313L19.4406 42.9627Z" fill="#3A1E1C"></path><path d="M22.8872 37.6211L23.5119 41.1406L25.1259 43.0566L58.0301 63.1011L68.9635 65.3086V62.9553L66.8705 61.0394L24.5844 36.6215L23.7931 36.4653L22.8872 37.6211Z" fill="#110C0C"></path><path d="M23.5015 43.2857L30.4156 47.2841L32.7688 48.6378L43.1816 54.6251C43.1816 54.6251 48.9398 57.5511 49.7312 67.8284L48.9398 67.339C48.9398 67.339 48.2109 58.5819 43.192 55.6872L32.7792 49.6999L30.426 48.3462L23.5119 44.3478C18.493 41.453 17.7641 49.3563 17.7641 49.3563L16.9207 48.8773C17.7016 39.5683 23.5015 43.2857 23.5015 43.2857Z" fill="#301010"></path><path d="M137.76 48.6586L137.261 49.2833C136.691 50.0361 136.348 50.9354 136.271 51.8761V55.708C136.271 56.4369 136.927 56.5514 137.479 55.8434L137.76 55.052C138.255 54.4115 138.519 53.6226 138.51 52.8132L138.729 48.9814C138.729 48.2525 138.312 47.9505 137.76 48.6586Z" fill="#1F140B"></path><path d="M137.739 48.9398L137.479 49.2938C136.91 50.0465 136.567 50.9459 136.49 51.8866V55.708C136.49 56.4369 136.927 56.4578 137.479 55.708L137.979 55C138.474 54.3595 138.738 53.5706 138.729 52.7612V48.9398C138.729 48.2525 138.281 48.2317 137.739 48.9398Z" fill="#332D28"></path><path d="M135.553 61.1644L136.834 58.2489C137.346 57.6158 137.622 56.8244 137.615 56.0101V48.1069C137.614 47.96 137.571 47.8163 137.493 47.6924C137.414 47.5685 137.302 47.4693 137.169 47.4062C137.036 47.3431 136.889 47.3188 136.743 47.3359C136.597 47.353 136.459 47.4109 136.344 47.5029L134.043 49.3876L134.241 49.8354L136.48 47.8986C136.549 47.8388 136.634 47.8002 136.725 47.7874C136.816 47.7746 136.909 47.7883 136.992 47.8267C137.076 47.8651 137.146 47.9266 137.196 48.004C137.245 48.0813 137.271 48.1713 137.271 48.2631V55.8539C137.272 56.6739 136.989 57.4688 136.469 58.1031L135.365 60.8104L135.553 61.1644Z" fill="#312821"></path><path d="M111.781 99.577L119.621 97.1196L134.397 88.5291L139.687 83.1978L137.073 82.9375L109.865 97.3695L111.781 99.577Z" fill="#272222"></path><path d="M116.675 62.9035V47.7009L117.112 36.6426L130.378 44.2959L134.491 47.4302L135.011 48.8984V49.3982L133.574 48.5651L135.688 62.06L137.49 63.7573L137.969 66.1106V75.2009L137.615 75.9506L125.026 68.6825L119.038 64.3612L116.675 62.9035Z" fill="#E25D00"></path><path d="M138.708 74.482L138.979 75.6586L139.687 78.3972V83.1974L138.104 84.0409H135.001L134.033 84.5198L135.345 72.0454L136.782 72.868L138.708 74.482Z" fill="#362326"></path><path d="M121.933 42.4004L121.475 53.6461L122.089 65.6208L133.772 72.3682L134.814 71.5977V62.549L132.71 48.6272L121.933 42.4004Z" fill="#E25D00"></path><path d="M132.262 85.6757L90.6427 61.3932L91.4133 52.2612L92.2151 52.7194L120.184 68.8695L135.147 76.9186L132.262 85.6757Z" fill="#E25D00"></path><path d="M128.909 74.6069L129.899 77.9182L130.461 83.7389L130.18 83.5827L128.545 76.273L125.911 71.6185L119.403 67.7658L115.873 69.2131L115.154 71.9309L114.644 76.7311L113.842 76.273L114.561 69.7858L115.363 67.495L118.924 65.1626L126.067 69.286L128.909 74.6069Z" fill="#E25D00"></path><path d="M91.9547 54.3858L94.787 54.0005L98.0566 55.8956L101.337 57.7803L104.169 61.4456L106.012 66.6936V70.64L105.096 70.109L104.991 66.5374L103.575 62.2057L101.139 58.9361L98.0566 57.1555L94.9848 55.3854L92.5483 55.8435L91.1321 58.53L91.028 61.987L90.1117 61.456V57.52L91.9547 54.3858Z" fill="#E25D00"></path><path d="M127.332 89.2245C129.929 87.7066 129.904 82.8338 127.278 78.3407C124.651 73.8477 120.417 71.4358 117.82 72.9537C115.224 74.4716 115.248 79.3445 117.875 83.8375C120.501 88.3306 124.736 90.7424 127.332 89.2245Z" fill="#E25D00"></path><path d="M116.425 77.5333C116.425 83.6977 117.466 85.2179 122.579 88.1439C125.973 90.1015 128.732 88.5292 128.732 84.6348C128.615 82.5066 127.996 80.4363 126.926 78.5925C125.857 76.7487 124.367 75.1835 122.579 74.0242C119.184 72.0562 116.425 73.6286 116.425 77.5333Z" fill="#E25D00"></path><path d="M117.966 78.4184C118.047 80.0226 118.508 81.5848 119.309 82.9767C120.111 84.3686 121.232 85.5506 122.579 86.4258C125.119 87.894 127.181 86.7173 127.181 83.7913C127.091 82.1988 126.628 80.6497 125.828 79.2695C125.029 77.8893 123.915 76.7166 122.579 75.8464C117.966 73.1287 117.966 77.8873 117.966 78.4184Z" fill="#E25D00"></path><path d="M118.799 78.8973C118.877 80.199 119.26 81.4641 119.916 82.5908C120.573 83.7176 121.485 84.6744 122.579 85.3844C124.661 86.5819 126.358 85.6239 126.358 83.229C126.286 81.9201 125.907 80.6466 125.25 79.5122C124.593 78.3777 123.678 77.4143 122.579 76.7002C118.413 74.3365 118.799 78.8869 118.799 78.8973Z" fill="#E25D00"></path><path d="M120.954 80.178C120.986 80.7396 121.15 81.2859 121.432 81.7725C121.714 82.2592 122.107 82.6725 122.579 82.979C123.474 83.4997 124.203 83.0832 124.203 82.0523C124.171 81.4907 124.008 80.9444 123.725 80.4578C123.443 79.9711 123.05 79.5578 122.579 79.2513C121.683 78.6994 120.954 79.1367 120.954 80.178Z" fill="#E25D00"></path><path d="M121.673 80.5631C121.691 80.8763 121.782 81.1808 121.939 81.4521C122.097 81.7235 122.316 81.954 122.579 82.125C123.078 82.4062 123.484 82.125 123.484 81.6044C123.467 81.2912 123.375 80.9867 123.218 80.7153C123.061 80.444 122.842 80.2135 122.579 80.0425C122.079 79.7509 121.673 79.9904 121.673 80.5631Z" fill="#E25D00"></path><path d="M91.3716 63.0697C91.5012 65.3813 92.174 67.6298 93.3355 69.6326C94.497 71.6355 96.1145 73.3361 98.0566 74.5966C101.753 76.6791 104.742 75.0235 104.742 70.7855C104.613 68.4737 103.94 66.2249 102.779 64.2219C101.617 62.219 99.9993 60.5184 98.0566 59.2586C94.3705 57.124 91.3716 58.8317 91.3716 63.0697Z" fill="#E25D00"></path><path d="M91.9131 63.3718C92.0283 65.5009 92.6448 67.5727 93.7124 69.4183C94.78 71.264 96.2685 72.8314 98.0566 73.9928C101.462 75.9504 104.211 74.3781 104.211 70.4837C104.093 68.3555 103.474 66.2852 102.404 64.4414C101.335 62.5976 99.8453 61.0323 98.0566 59.8731C94.662 57.9051 91.9131 59.4775 91.9131 63.3718Z" fill="#E25D00"></path><path d="M101.334 72.5403C103.121 71.4955 103.102 68.1371 101.291 65.0391C99.4801 61.9411 96.563 60.2767 94.7758 61.3216C92.9885 62.3664 93.0077 65.7248 94.8187 68.8228C96.6298 71.9207 99.5468 73.5851 101.334 72.5403Z" fill="#E25D00"></path><path d="M94.2768 64.7464C94.3503 66.0535 94.7308 67.3249 95.3876 68.4574C96.0443 69.5899 96.9587 70.5517 98.0566 71.2648C100.139 72.4727 101.847 71.5043 101.847 69.1094C101.772 67.8013 101.39 66.5294 100.731 65.3968C100.073 64.2642 99.1565 63.3029 98.0566 62.591C95.9741 61.4352 94.2768 62.3515 94.2768 64.7464Z" fill="#E25D00"></path><path d="M96.4322 65.9855C96.464 66.5486 96.6276 67.0963 96.9097 67.5846C97.1919 68.0729 97.5847 68.4882 98.0566 68.797C98.9625 69.3072 99.681 68.8907 99.681 67.8702C99.6525 67.3078 99.4903 66.7603 99.2078 66.2731C98.9253 65.786 98.5306 65.3732 98.0566 65.0692C97.1611 64.559 96.4322 64.9651 96.4322 65.9855Z" fill="#E25D00"></path><path d="M97.1507 66.402C97.1678 66.7154 97.2587 67.0202 97.4162 67.2917C97.5736 67.5632 97.7931 67.7935 98.0566 67.9639C98.5564 68.2555 98.9625 68.0264 98.9625 67.4537C98.9454 67.1403 98.8545 66.8355 98.697 66.564C98.5396 66.2925 98.3201 66.0622 98.0566 65.8918C97.5568 65.6002 97.1507 65.8293 97.1507 66.402Z" fill="#E25D00"></path><path d="M62.1223 46.1805C62.2518 48.4922 62.9246 50.7407 64.0862 52.7435C65.2477 54.7463 66.8652 56.447 68.8073 57.7074C72.5038 59.7899 75.4922 58.1343 75.4922 53.8963C75.3635 51.5845 74.6911 49.3357 73.5295 47.3328C72.3679 45.3298 70.7499 43.6293 68.8073 42.3695C65.1212 40.2349 62.1223 41.9425 62.1223 46.1805Z" fill="#E25D00"></path><path d="M62.6534 46.4822C62.7697 48.6122 63.3878 50.6845 64.4572 52.5303C65.5267 54.376 67.0172 55.9429 68.8073 57.1031C72.2018 59.0607 74.9612 57.4884 74.9612 53.5941C74.8432 51.4658 74.2244 49.3956 73.155 47.5517C72.0856 45.7079 70.596 44.1427 68.8073 42.9835C65.4127 41.0155 62.6534 42.5878 62.6534 46.4822Z" fill="#E25D00"></path><path d="M72.0887 55.6546C73.876 54.6097 73.8568 51.2513 72.0457 48.1534C70.2347 45.0554 67.3177 43.391 65.5304 44.4358C63.7431 45.4806 63.7623 48.839 65.5734 51.937C67.3844 55.035 70.3014 56.6994 72.0887 55.6546Z" fill="#E25D00"></path><path d="M65.0275 47.8988C65.101 49.2058 65.4815 50.4772 66.1382 51.6097C66.7949 52.7423 67.7093 53.7041 68.8073 54.4171C70.8898 55.625 72.5871 54.6566 72.5871 52.2617C72.5136 50.9546 72.133 49.6832 71.4763 48.5507C70.8196 47.4182 69.9052 46.4564 68.8073 45.7433C66.7247 44.4938 65.0275 45.4622 65.0275 47.8988Z" fill="#E25D00"></path><path d="M67.1829 49.1062C67.2163 49.6675 67.3806 50.2131 67.6627 50.6995C67.9447 51.1859 68.3367 51.5995 68.8073 51.9072C69.7028 52.4175 70.4316 52.0114 70.4316 50.9805C70.4007 50.4187 70.2374 49.8721 69.9551 49.3853C69.6728 48.8986 69.2795 48.4854 68.8073 48.1795C67.9118 47.6588 67.1829 48.0754 67.1829 49.1062Z" fill="#E25D00"></path><path d="M67.9014 49.5124C67.9168 49.8261 68.007 50.1316 68.1646 50.4033C68.3222 50.6751 68.5426 50.9051 68.8073 51.0743C69.3071 51.3658 69.7132 51.1367 69.7132 50.564C69.6953 50.2509 69.604 49.9463 69.4466 49.675C69.2892 49.4037 69.0702 49.1732 68.8073 49.0021C68.3075 48.7106 67.9014 48.9397 67.9014 49.5124Z" fill="#E25D00"></path><path d="M45.3995 36.5173C45.5259 38.8286 46.1951 41.0777 47.3529 43.0822C48.5108 45.0867 50.1246 46.7902 52.0636 48.0546C55.7497 50.1371 58.7486 48.4815 58.7486 44.2435C58.6174 41.9308 57.9439 39.6815 56.7826 37.6772C55.6213 35.673 54.0048 33.9701 52.0636 32.7062C48.3879 30.582 45.3995 32.2793 45.3995 36.5173Z" fill="#E25D00"></path><path d="M45.9305 36.83C46.0461 38.9564 46.6618 41.0255 47.7275 42.8691C48.7932 44.7128 50.2788 46.2791 52.0636 47.4406C55.4582 49.3982 58.2071 47.8363 58.2071 43.9315C58.0903 41.8042 57.4731 39.7345 56.4055 37.8908C55.338 36.047 53.8504 34.4813 52.0636 33.3209C48.6795 31.3633 45.9305 32.9253 45.9305 36.83Z" fill="#E25D00"></path><path d="M55.3678 45.9846C57.1551 44.9398 57.1359 41.5814 55.3248 38.4834C53.5138 35.3855 50.5968 33.7211 48.8095 34.7659C47.0222 35.8107 47.0415 39.1691 48.8525 42.2671C50.6635 45.3651 53.5805 47.0295 55.3678 45.9846Z" fill="#E25D00"></path><path d="M54.7793 44.9778C56.2488 44.1187 56.2355 41.3616 54.7495 38.8197C53.2635 36.2778 50.8676 34.9135 49.3981 35.7726C47.9285 36.6317 47.9418 39.3888 49.4278 41.9307C50.9138 44.4726 53.3097 45.8368 54.7793 44.9778Z" fill="#E25D00"></path><path d="M50.4601 39.4434C50.4879 40.0035 50.6476 40.5492 50.9263 41.036C51.2049 41.5227 51.5946 41.9368 52.0636 42.2444C52.9591 42.765 53.688 42.3485 53.688 41.3177C53.6546 40.7578 53.4902 40.2136 53.2081 39.7289C52.9259 39.2442 52.5339 38.8326 52.0636 38.527C51.1785 37.996 50.4601 38.4125 50.4601 39.4434Z" fill="#E25D00"></path><path d="M51.1785 39.8598C51.1964 40.173 51.2877 40.4775 51.4451 40.7489C51.6025 41.0202 51.8215 41.2507 52.0844 41.4217C52.5842 41.7133 52.9903 41.4217 52.9903 40.9011C52.9725 40.5879 52.8811 40.2834 52.7238 40.012C52.5664 39.7407 52.3474 39.5102 52.0844 39.3392C51.5846 39.058 51.1785 39.2871 51.1785 39.8598Z" fill="#E25D00"></path><path d="M76.4502 48.8044L90.1117 56.6973V55.177L76.4502 47.2842V48.8044Z" fill="#E25D00"></path><path d="M76.4502 54.6145L90.1117 62.4969V60.9871L76.4502 53.0942V54.6145Z" fill="#E25D00"></path><path d="M87.8313 50.5435L88.5914 50.9808V60.8625L87.8313 60.4251V50.5435Z" fill="#E25D00"></path><path d="M77.3874 44.5142L78.1475 44.9515V54.8332L77.3874 54.3958V44.5142Z" fill="#E25D00"></path><path d="M112.083 57.655L103.565 52.7402V59.269L112.083 64.1942V57.655Z" fill="#E25D00"></path><path d="M50.3039 27.8125L57.27 31.811L59.6233 33.1647L70.036 39.152C70.036 39.152 75.8046 42.078 76.6272 52.3553L75.7838 51.8659C75.7838 51.8659 74.9716 43.1088 69.9423 40.2141L59.5295 34.2268L57.27 32.8731L50.3559 28.8746C45.3266 25.9799 44.5977 33.8831 44.5977 33.8831L43.7647 33.4042C44.5248 24.0744 50.3039 27.8125 50.3039 27.8125Z" fill="#E25D00"></path><path d="M45.3058 26.9063L45.9305 30.4258L47.7632 33.5184L80.4383 52.3862L91.3716 54.5937V52.2405L89.2891 50.3245L46.9926 25.9067L46.2013 25.7505L45.3058 26.9063Z" fill="#E25D00"></path><path d="M135.011 49.3982L117.018 39.0167L116.799 37.7255L117.112 36.6426L130.378 44.2959L134.491 47.4302L135.011 48.8984V49.3982Z" fill="#E25D00"></path><path d="M66.3811 65.9646L90.3199 52.1157L117.643 67.4016L110.698 91.5487L66.3811 65.9646Z" fill="#3A1E1C"></path><path d="M109.209 97.6919L66.3811 72.9721V65.9644L67.1829 66.4329L95.1515 82.5727L110.698 91.5484L109.209 97.6919Z" fill="#1A0808"></path><path d="M49.7312 61.3936L50.6683 61.9351V53.886L49.7312 53.355V61.3936Z" fill="#5C5C5C"></path><path d="M50.6683 61.9348L51.3139 61.5495V53.5005L50.6683 53.8858V61.9348Z" fill="#5C5C5C"></path><path d="M65.673 64.9128V65.9541L50.8037 56.8742L51.3035 56.541L65.6835 64.7879C65.6835 64.7879 65.673 64.8712 65.673 64.9128Z" fill="#B5B5B5"></path><path d="M65.673 69.1092L50.8037 60.0085L51.3035 59.6753L65.673 67.9118V69.1092Z" fill="#B5B5B5"></path><path d="M65.673 65.4025V66.6416L50.8037 58.1136V56.8745L65.673 65.4025Z" fill="#5C5C5C"></path><path d="M65.7355 71.0981L66.3811 70.7128V61.4663L65.7355 61.8516V71.0981Z" fill="#949494"></path><path d="M64.7984 70.5566L65.7355 71.098V61.8515L64.7984 61.3101V70.5566Z" fill="#5C5C5C"></path><path d="M65.673 68.5363V69.765L50.8037 61.2474V60.0083L65.673 68.5363Z" fill="#5C5C5C"></path><path d="M64.2361 77.4603L68.2762 74.628L70.692 72.1602L68.0575 70.0776L65.4648 70.7753L63.8404 73.7846L64.2361 77.4603Z" fill="#260C0C"></path><path d="M90.851 86.936L95.2035 94.5894L95.8699 95.7972L100.639 102.982L105.168 100.306L105.741 99.9727C106.349 99.4738 106.825 98.8327 107.126 98.1063C107.428 97.3799 107.546 96.5905 107.47 95.8076C107.465 95.2636 107.42 94.7206 107.334 94.1833C106.998 92.2603 106.291 90.4212 105.252 88.7686C104.162 86.9672 102.659 85.4505 100.868 84.3432C100.245 83.9173 99.5346 83.6356 98.789 83.5185C98.0433 83.4015 97.2809 83.452 96.5572 83.6664L95.8803 84.0933C94.0685 85.1658 90.851 86.936 90.851 86.936Z" fill="#4F1F26"></path><path d="M94.5059 94.9846L95.8699 95.7656L100.264 98.3063L107.386 94.1412C107.05 92.2182 106.343 90.3791 105.304 88.7266L95.2452 94.5369L94.5059 94.9846Z" fill="#4F1F26"></path><path d="M99.5768 85.0823C97.5984 83.9369 95.8179 83.9057 94.5996 84.7699L94.4017 84.9157C95.1433 84.6346 95.9427 84.5407 96.7291 84.6425C97.5156 84.7442 98.2648 85.0383 98.9104 85.4988C100.842 86.7507 102.451 88.4402 103.607 90.4303C104.763 92.4204 105.433 94.655 105.564 96.9528C105.635 97.724 105.516 98.5008 105.219 99.2157C104.921 99.9307 104.453 100.562 103.856 101.055L104.283 100.816C105.481 100.129 106.231 98.6501 106.231 96.5467C106.1 94.2475 105.429 92.0114 104.273 90.0196C103.117 88.0278 101.508 86.3364 99.5768 85.0823Z" fill="#481018"></path><path d="M98.369 85.78C96.3906 84.645 94.6204 84.6033 93.3917 85.4676L93.1939 85.6134C93.9352 85.3313 94.7348 85.237 95.5214 85.3387C96.3081 85.4404 97.0574 85.7351 97.7026 86.1965C99.6327 87.4495 101.241 89.1393 102.397 91.1292C103.553 93.119 104.224 95.353 104.356 97.6505C104.435 98.4315 104.32 99.2198 104.022 99.9461C103.724 100.672 103.253 101.314 102.649 101.816L103.076 101.566C104.283 100.878 105.023 99.3998 105.023 97.2964C104.898 94.9886 104.231 92.7427 103.075 90.7415C101.919 88.7404 100.306 87.0404 98.369 85.78Z" fill="#481018"></path><path d="M97.1611 86.4879C95.1827 85.3425 93.4125 85.3009 92.1943 86.1755L91.986 86.3109C92.7278 86.0316 93.5269 85.9387 94.313 86.0404C95.0992 86.1421 95.8483 86.4352 96.4947 86.894C98.4249 88.147 100.033 89.8369 101.189 91.8267C102.345 93.8166 103.016 96.0506 103.148 98.348C103.219 99.1181 103.101 99.8938 102.805 100.608C102.509 101.323 102.045 101.955 101.451 102.451L101.868 102.211C103.076 101.524 103.815 100.045 103.815 97.9315C103.683 95.6355 103.011 93.4029 101.855 91.4147C100.699 89.4266 99.0911 87.7387 97.1611 86.4879Z" fill="#481018"></path><path d="M89.1641 91.0697C89.2965 93.3671 89.9678 95.6011 91.1237 97.591C92.2796 99.5808 93.8877 101.271 95.8179 102.524C99.4936 104.606 102.472 102.951 102.472 98.7335C102.338 96.4364 101.666 94.203 100.51 92.2134C99.3541 90.2238 97.7469 88.5337 95.8179 87.2795C92.1422 85.1553 89.1641 86.8525 89.1641 91.0697Z" fill="#67383F"></path><path d="M89.3516 91.33C89.4763 93.5852 90.1316 95.7792 91.2643 97.7333C92.397 99.6875 93.975 101.347 95.8699 102.576C99.4727 104.658 102.399 102.992 102.399 98.8584C102.272 96.6025 101.615 94.4082 100.48 92.4541C99.3458 90.5001 97.7662 88.8413 95.8699 87.6127C92.2671 85.5301 89.3516 87.1962 89.3516 91.33Z" fill="#5C2930"></path><path d="M95.6096 102.284C99.2853 104.367 102.263 102.711 102.263 98.4938C102.111 95.4888 101.018 92.6077 99.1395 90.2573C101.122 92.6615 102.276 95.6415 102.43 98.7541C102.43 102.919 99.4519 104.669 95.7762 102.544C94.3858 101.704 93.1726 100.6 92.2047 99.2956C93.1462 100.493 94.3005 101.506 95.6096 102.284Z" fill="#4F1F26"></path><path d="M90.4657 91.8192C90.5731 93.6606 91.1115 95.451 92.0375 97.0462C92.9635 98.6414 94.2513 99.9968 95.797 101.003C98.7543 102.711 101.139 101.347 101.139 97.9523C101.03 96.11 100.49 94.3189 99.5624 92.7236C98.6346 91.1284 97.3448 89.7735 95.797 88.7682C92.8607 87.071 90.4657 88.435 90.4657 91.8192Z" fill="#67383F"></path><path d="M91.3196 92.3086C91.4022 93.8629 91.8508 95.3757 92.6289 96.7237C93.407 98.0718 94.4925 99.217 95.7971 100.066C98.2753 101.503 100.295 100.358 100.295 97.5045C100.207 95.9491 99.7539 94.4364 98.9724 93.0887C98.191 91.741 97.1031 90.5962 95.7971 89.747C93.3292 88.3101 91.3196 89.4659 91.3196 92.3086Z" fill="#BB5900"></path><path d="M92.5795 92.6732C92.6523 93.9524 93.0247 95.1966 93.6668 96.3054C94.309 97.4142 95.2027 98.3564 96.276 99.0562C98.3586 100.233 99.9725 99.2853 99.9725 96.9737C99.8998 95.6945 99.5273 94.4503 98.8852 93.3415C98.2431 92.2327 97.3493 91.2905 96.276 90.5907C94.2351 89.3307 92.5795 90.2783 92.5795 92.6732Z" fill="#E49A00"></path><path d="M92.8919 92.7983C92.9558 93.9698 93.2957 95.1095 93.8838 96.1247C94.4719 97.1399 95.2916 98.0017 96.276 98.6398C98.1503 99.6811 99.6602 98.8585 99.6602 96.7135C99.5962 95.542 99.2564 94.4023 98.6683 93.3871C98.0802 92.3719 97.2605 91.5101 96.276 90.8719C94.4017 89.789 92.8919 90.6533 92.8919 92.7983Z" fill="#C85700"></path><path d="M93.9124 93.3919C93.9588 94.2085 94.1971 95.0026 94.6077 95.71C95.0184 96.4173 95.5899 97.018 96.276 97.4632C97.5776 98.2234 98.6397 97.6194 98.6397 96.12C98.5948 95.3016 98.3574 94.5054 97.9466 93.7961C97.5359 93.0868 96.9635 92.4845 96.276 92.0382C94.9744 91.2885 93.9124 91.8924 93.9124 93.3919Z" fill="#AB3B00"></path><path d="M96.755 98.4836C95.7739 97.8484 94.9556 96.9918 94.366 95.9826C93.7764 94.9734 93.432 93.8399 93.3605 92.6733C93.3108 92.2449 93.382 91.8111 93.566 91.4209C93.75 91.0308 94.0395 90.7 94.4017 90.4658C93.475 90.622 92.8711 91.5071 92.8711 92.8295C92.935 94.001 93.2749 95.1407 93.863 96.1559C94.4511 97.1711 95.2708 98.0329 96.2552 98.6711C96.5939 98.9092 96.9877 99.0572 97.3995 99.1009C97.8112 99.1446 98.2273 99.0827 98.6085 98.921C97.9584 98.9979 97.3021 98.843 96.755 98.4836Z" fill="#BB5900"></path><path d="M96.276 90.8717C95.8995 90.5761 95.4374 90.4103 94.9588 90.3991C94.4802 90.3878 94.0108 90.5317 93.6208 90.8092C93.9989 90.6655 94.4065 90.6169 94.8078 90.6678C95.2091 90.7186 95.5917 90.8673 95.922 91.1008C96.9059 91.7396 97.7251 92.6015 98.3131 93.6165C98.9012 94.6316 99.2414 95.771 99.3061 96.9423C99.3349 97.3067 99.2846 97.6731 99.1588 98.0163C99.033 98.3595 98.8347 98.6716 98.5772 98.9311C98.9439 98.6989 99.2366 98.3668 99.4211 97.9739C99.6055 97.581 99.674 97.1437 99.6185 96.7132C99.5592 95.5455 99.2257 94.4081 98.645 93.3932C98.0643 92.3783 97.2527 91.5145 96.276 90.8717Z" fill="#AB3B00"></path><path d="M97.9629 93.4336C97.9692 93.5633 98.0065 93.6897 98.0718 93.802C98.137 93.9143 98.2282 94.0094 98.3377 94.0792C98.546 94.2041 98.7126 94.0792 98.7126 93.8709C98.7063 93.7412 98.669 93.6148 98.6037 93.5025C98.5385 93.3902 98.4473 93.2951 98.3377 93.2253C98.1295 93.1004 97.9629 93.2045 97.9629 93.4336Z" fill="#151B1F"></path><path d="M93.9332 95.7972C93.9395 95.9269 93.9768 96.0533 94.042 96.1656C94.1073 96.2779 94.1985 96.373 94.308 96.4428C94.5163 96.5573 94.6829 96.4428 94.6829 96.2345C94.6766 96.1048 94.6392 95.9784 94.574 95.8661C94.5088 95.7538 94.4176 95.6587 94.308 95.5889C94.0998 95.4848 93.9332 95.5785 93.9332 95.7972Z" fill="#151B1F"></path><path d="M93.173 93.9019C93.1802 94.0315 93.2179 94.1575 93.283 94.2697C93.3482 94.3819 93.4389 94.4771 93.5479 94.5475C93.7562 94.6621 93.9228 94.5475 93.9228 94.3289C93.916 94.2004 93.8795 94.0753 93.8163 93.9633C93.7531 93.8513 93.6648 93.7554 93.5583 93.6833C93.5209 93.654 93.4757 93.6365 93.4284 93.633C93.381 93.6295 93.3337 93.6401 93.2924 93.6635C93.2511 93.687 93.2177 93.7221 93.1965 93.7646C93.1752 93.807 93.1671 93.8548 93.173 93.9019Z" fill="#151B1F"></path><path d="M93.1939 92.0901C93.2029 92.218 93.2403 92.3422 93.3034 92.4539C93.3664 92.5656 93.4535 92.6618 93.5583 92.7356C93.7666 92.8502 93.9332 92.7356 93.9332 92.517C93.926 92.3874 93.8883 92.2614 93.8232 92.1492C93.758 92.037 93.6673 91.9418 93.5583 91.8714C93.3605 91.7568 93.1939 91.8506 93.1939 92.0901Z" fill="#151B1F"></path><path d="M94.4122 90.9551C94.41 91.0874 94.4402 91.2182 94.5 91.3362C94.5599 91.4541 94.6477 91.5557 94.7558 91.632C94.964 91.7569 95.1306 91.632 95.1306 91.4237C95.1235 91.2942 95.0858 91.1682 95.0207 91.056C94.9555 90.9438 94.8647 90.8486 94.7558 90.7781C94.5788 90.5907 94.4122 90.7157 94.4122 90.9551Z" fill="#151B1F"></path><path d="M96.4635 91.6321C96.4714 91.7601 96.5095 91.8843 96.5746 91.9947C96.6398 92.1051 96.7301 92.1985 96.8383 92.2673C97.0466 92.3923 97.2132 92.2673 97.2132 92.0591C97.2044 91.9313 97.166 91.8074 97.1009 91.6971C97.0358 91.5868 96.9459 91.4933 96.8383 91.4239C96.6301 91.3093 96.4635 91.4031 96.4635 91.6321Z" fill="#151B1F"></path><path d="M98.671 95.4849C98.6773 95.6146 98.7146 95.7409 98.7798 95.8533C98.845 95.9656 98.9363 96.0607 99.0458 96.1304C99.2541 96.2554 99.4207 96.1304 99.4207 95.9222C99.4144 95.7924 99.377 95.6661 99.3118 95.5538C99.2466 95.4414 99.1554 95.3464 99.0458 95.2766C98.8376 95.1516 98.671 95.2558 98.671 95.4849Z" fill="#151B1F"></path><path d="M98.4731 97.3899C98.4794 97.5197 98.5167 97.646 98.582 97.7584C98.6472 97.8707 98.7384 97.9657 98.848 98.0355C99.0562 98.1605 99.2228 98.0355 99.2228 97.8273C99.2165 97.6975 99.1792 97.5712 99.114 97.4589C99.0487 97.3465 98.9575 97.2515 98.848 97.1817C98.6397 97.0672 98.4731 97.1609 98.4731 97.3899Z" fill="#151B1F"></path><path d="M97.0257 98.1711C97.032 98.3008 97.0694 98.4272 97.1346 98.5395C97.1998 98.6518 97.291 98.7469 97.4006 98.8167C97.6089 98.9312 97.7755 98.8167 97.7755 98.6084C97.7692 98.4787 97.7318 98.3523 97.6666 98.24C97.6014 98.1277 97.5102 98.0326 97.4006 97.9628C97.1923 97.8795 97.0257 97.9316 97.0257 98.1711Z" fill="#151B1F"></path><path d="M95.2972 97.3899C95.3035 97.5197 95.3409 97.646 95.4061 97.7584C95.4713 97.8707 95.5625 97.9657 95.6721 98.0355C95.8803 98.1605 96.0469 98.0355 96.0469 97.8273C96.0406 97.6975 96.0033 97.5712 95.9381 97.4589C95.8729 97.3465 95.7816 97.2515 95.6721 97.1817C95.4638 97.0672 95.2972 97.1609 95.2972 97.3899Z" fill="#151B1F"></path><path d="M93.7145 93.5063C93.7594 94.3247 93.9969 95.121 94.4076 95.8303C94.8183 96.5395 95.3907 97.1418 96.0782 97.5881C97.3902 98.3378 98.4419 97.7339 98.4419 96.2345C98.3954 95.4179 98.1572 94.6237 97.7465 93.9164C97.3358 93.209 96.7643 92.6084 96.0782 92.1631C94.7558 91.403 93.7145 92.0069 93.7145 93.5063Z" fill="#BB5900"></path><path d="M94.0269 93.7144C94.065 94.4058 94.266 95.0784 94.6134 95.6774C94.9608 96.2763 95.4449 96.7847 96.0261 97.161C97.1299 97.8066 98.0254 97.2964 98.0254 96.026C97.9873 95.3347 97.7863 94.6621 97.4389 94.0631C97.0914 93.4641 96.6074 92.9558 96.0261 92.5794C94.9224 91.9443 94.0269 92.4545 94.0269 93.7144Z" fill="#DA7200"></path><path d="M94.2039 93.9957C94.236 94.5894 94.4085 95.167 94.7071 95.681C95.0058 96.1951 95.4222 96.631 95.922 96.9529C96.8695 97.5048 97.6401 97.0675 97.6401 95.9741C97.6055 95.381 97.432 94.8044 97.1335 94.2907C96.8351 93.777 96.4201 93.3407 95.922 93.0169C94.9744 92.4755 94.2039 92.9128 94.2039 93.9957Z" fill="#DA7200"></path><path d="M97.0049 95.4432C97.0106 95.5446 96.995 95.6461 96.9591 95.7411C96.9232 95.8362 96.8679 95.9227 96.7967 95.9951C96.6913 96.0921 96.5719 96.1728 96.4426 96.2346L95.1098 93.9333C95.1884 93.8981 95.2619 93.8526 95.3285 93.798C95.4347 93.7217 95.5622 93.6807 95.6929 93.6807C95.8237 93.6807 95.9512 93.7217 96.0574 93.798C96.3344 93.9775 96.5648 94.2203 96.7295 94.5063C96.8943 94.7924 96.9887 95.1135 97.0049 95.4432Z" fill="#BB5900"></path><path d="M96.7342 95.6201C96.7342 96.2136 96.3073 96.4531 95.7866 96.1615C95.5143 95.9829 95.2876 95.7429 95.1249 95.4608C94.9621 95.1787 94.8678 94.8623 94.8495 94.5371C94.8495 93.9332 95.266 93.6937 95.7866 93.9957C96.0609 94.1731 96.2896 94.4126 96.4542 94.6948C96.6188 94.977 96.7147 95.294 96.7342 95.6201Z" fill="#E49A00"></path><path d="M91.3196 92.3086C91.4022 93.8629 91.8508 95.3757 92.6289 96.7237C93.407 98.0718 94.4925 99.217 95.7971 100.066C98.2753 101.503 100.295 100.358 100.295 97.5045C100.207 95.9491 99.7539 94.4364 98.9724 93.0887C98.191 91.741 97.1031 90.5962 95.7971 89.747C93.3292 88.3101 91.3196 89.4659 91.3196 92.3086ZM91.7777 92.4752C91.7777 89.8199 93.652 88.7474 95.9428 90.0802C97.1558 90.873 98.165 91.9404 98.8887 93.1959C99.6123 94.4514 100.03 95.8597 100.108 97.3067C100.108 99.9619 98.2336 101.034 95.9428 99.6912C94.73 98.9006 93.7208 97.8352 92.9971 96.5814C92.2734 95.3276 91.8556 93.9207 91.7777 92.4752Z" fill="#E49A00"></path><path d="M96.5155 91.7256C95.9956 91.4203 95.4069 91.2517 94.8043 91.2353C94.2016 91.2189 93.6046 91.3553 93.0689 91.6319C93.5271 90.4032 94.7766 90.0595 96.1927 90.903C97.7249 91.9061 98.8363 93.4361 99.3165 95.2034C98.7697 93.7796 97.7901 92.5633 96.5155 91.7256Z" fill="#AB3B00"></path><path d="M66.1729 72.8892L70.515 80.5425L71.1918 81.7191L76.0129 88.8623L80.5528 86.2174L81.1359 85.8842C81.7405 85.383 82.2132 84.7413 82.5127 84.0153C82.8122 83.2892 82.9294 82.5009 82.854 81.7191C82.8547 81.1748 82.8094 80.6314 82.7187 80.0948C82.3921 78.1692 81.684 76.3283 80.6361 74.6801C79.5514 72.8654 78.0438 71.34 76.242 70.2339C75.6099 69.7929 74.8847 69.5034 74.1227 69.3878C73.3606 69.2722 72.5822 69.3337 71.8478 69.5675L71.171 69.9944C69.38 71.0773 66.1729 72.8892 66.1729 72.8892Z" fill="#4F1F26"></path><path d="M69.8277 80.8964L71.1918 81.6774L75.5859 84.2181L82.6978 80.105C82.3712 78.1795 81.6632 76.3386 80.6153 74.6904L70.5566 80.5007L69.8277 80.8964Z" fill="#4F1F26"></path><path d="M74.8883 70.994C72.9099 69.8486 71.1397 69.8173 69.9214 70.6816L69.7652 70.8065C70.5076 70.5299 71.3061 70.4385 72.0917 70.5401C72.8774 70.6417 73.6264 70.9333 74.2739 71.3896C76.203 72.6439 77.8102 74.334 78.966 76.3236C80.1217 78.3132 80.7937 80.5466 80.9277 82.8436C80.9937 83.6285 80.8648 84.4175 80.5523 85.1406C80.2399 85.8636 79.7536 86.4982 79.1367 86.9879L79.5532 86.7484C80.7611 86.0612 81.5108 84.5826 81.5108 82.4688C81.3843 80.1707 80.719 77.9346 79.5685 75.9413C78.4181 73.9479 76.8148 72.2531 74.8883 70.994Z" fill="#481018"></path><path d="M73.6908 71.6916C71.7124 70.5566 69.9318 70.515 68.7136 71.3792L68.5053 71.525C69.2467 71.2429 70.0462 71.1486 70.8329 71.2503C71.6195 71.3521 72.3688 71.6467 73.014 72.1081C74.9467 73.3594 76.5573 75.0485 77.7151 77.0386C78.873 79.0286 79.5455 81.2635 79.6782 83.5621C79.747 84.3331 79.6276 85.1093 79.3301 85.8239C79.0327 86.5386 78.5661 87.1703 77.9705 87.6647L78.3974 87.4252C79.5949 86.738 80.3446 85.2594 80.3446 83.156C80.2122 80.8572 79.541 78.6217 78.3851 76.6302C77.2293 74.6386 75.6212 72.9469 73.6908 71.6916Z" fill="#481018"></path><path d="M72.483 72.3891C70.5045 71.2541 68.724 71.2125 67.5057 72.0872L67.3078 72.2225C68.0493 71.9414 68.8488 71.8475 69.6352 71.9493C70.4217 72.051 71.1709 72.3451 71.8165 72.8056C73.7467 74.0587 75.3548 75.7485 76.5107 77.7383C77.6667 79.7282 78.3379 81.9622 78.4703 84.2596C78.5487 85.0407 78.434 85.829 78.1362 86.5553C77.8384 87.2816 77.3667 87.9235 76.7626 88.4247L77.1895 88.1748C78.387 87.4668 79.1367 85.9777 79.1367 83.8744C79.0075 81.5719 78.3378 79.3323 77.1818 77.3369C76.0258 75.3415 74.4161 73.6465 72.483 72.3891Z" fill="#481018"></path><path d="M64.4756 76.981C64.6079 79.2784 65.2792 81.5125 66.4351 83.5023C67.591 85.4922 69.1991 87.182 71.1293 88.435C74.805 90.5176 77.7934 88.8619 77.7934 84.6448C77.6591 82.3466 76.9859 80.1123 75.8282 78.1225C74.6705 76.1327 73.0608 74.4433 71.1293 73.1908C67.4536 71.0562 64.4756 72.7639 64.4756 76.981Z" fill="#67383F"></path><path d="M64.6734 77.2414C64.7957 79.5001 65.4499 81.6978 66.5827 83.6557C67.7154 85.6136 69.2947 87.2762 71.1918 88.508C74.7946 90.5905 77.7206 88.9245 77.7206 84.7907C77.5962 82.5299 76.9401 80.3303 75.8057 78.3708C74.6713 76.4114 73.0905 74.7472 71.1918 73.5137C67.589 71.4415 64.6734 73.1076 64.6734 77.2414Z" fill="#5C2930"></path><path d="M70.9315 88.1956C74.6072 90.2782 77.5852 88.6226 77.5852 84.4054C77.4368 81.3996 76.3436 78.5172 74.4614 76.1689C76.4468 78.5725 77.6043 81.5522 77.7622 84.6657C77.7622 88.8308 74.7738 90.5801 71.0981 88.456C69.7128 87.6125 68.5036 86.5094 67.5369 85.2072C68.4757 86.403 69.6264 87.416 70.9315 88.1956Z" fill="#4F1F26"></path><path d="M65.7876 77.731C65.8913 79.5801 66.429 81.3788 67.357 82.9816C68.285 84.5843 69.5773 85.9461 71.1293 86.9566C74.0865 88.6643 76.4814 87.3003 76.4814 83.9057C76.3765 82.0557 75.8373 80.2563 74.9075 78.6535C73.9776 77.0507 72.6833 75.6894 71.1293 74.68C68.1825 72.9724 65.7876 74.3468 65.7876 77.731Z" fill="#67383F"></path><path d="M66.6414 78.2206C66.7297 79.776 67.1828 81.2887 67.9643 82.6364C68.7458 83.9841 69.8336 85.1289 71.1397 85.9781C73.6284 87.415 75.638 86.2696 75.638 83.4165C75.5514 81.8608 75.0989 80.3474 74.3173 78.9994C73.5357 77.6515 72.447 76.507 71.1397 75.6591C68.6511 74.2221 66.6414 75.3675 66.6414 78.2206Z" fill="#5F5F66"></path><path d="M67.8909 78.5328C67.9624 79.8121 68.3354 81.0564 68.9797 82.1639C69.624 83.2715 70.5211 84.2109 71.5979 84.9054C73.6804 86.0924 75.2944 85.1449 75.2944 82.8228C75.2233 81.5433 74.8515 80.2984 74.2092 79.1894C73.567 78.0804 72.6723 77.1384 71.5979 76.4399C69.5466 75.2424 67.8909 76.1795 67.8909 78.5328Z" fill="#A4A8B1"></path><path d="M68.2033 78.7097C68.2701 79.8817 68.6122 81.0215 69.202 82.0364C69.7918 83.0514 70.6127 83.913 71.5979 84.5512C73.4618 85.5925 74.982 84.7699 74.982 82.6249C74.9164 81.4524 74.5759 80.3118 73.988 79.2952C73.4002 78.2786 72.5814 77.4146 71.5979 76.7729C69.7652 75.7004 68.2033 76.5647 68.2033 78.7097Z" fill="#A4A8B1"></path><path d="M69.2342 79.3035C69.2807 80.1201 69.5189 80.9142 69.9296 81.6216C70.3402 82.329 70.9118 82.9296 71.5979 83.3749C72.8891 84.135 73.9303 83.5311 73.9303 82.0316C73.8854 81.2132 73.648 80.417 73.2372 79.7077C72.8265 78.9984 72.2541 78.3961 71.5666 77.9498C70.2859 77.2001 69.2342 77.8041 69.2342 79.3035Z" fill="#7E8080"></path><path d="M72.0664 84.3952C71.092 83.75 70.2822 82.8856 69.7018 81.8712C69.1214 80.8568 68.7865 79.7207 68.724 78.5537C68.6718 78.125 68.7419 77.6903 68.9261 77.2997C69.1104 76.9091 69.4012 76.5786 69.7652 76.3462C68.8385 76.5024 68.2242 77.3875 68.2242 78.7099C68.2909 79.8819 68.633 81.0216 69.2229 82.0366C69.8127 83.0516 70.6335 83.9132 71.6187 84.5514C71.9515 84.7884 72.3384 84.9383 72.744 84.9874C73.1496 85.0365 73.561 84.9833 73.9407 84.8326C73.2839 84.9127 72.6199 84.7578 72.0664 84.3952Z" fill="#5F6161"></path><path d="M71.5979 76.7731C71.2132 76.4897 70.748 76.3369 70.2703 76.3369C69.7925 76.3369 69.3273 76.4897 68.9426 76.7731C69.3204 76.6275 69.7284 76.578 70.13 76.6288C70.5316 76.6797 70.9143 76.8294 71.2438 77.0646C72.226 77.7053 73.0439 78.5676 73.6317 79.5823C74.2195 80.5969 74.5608 81.7355 74.628 82.9061C74.6567 83.2706 74.6065 83.6369 74.4807 83.9801C74.3549 84.3234 74.1565 84.6354 73.8991 84.895C74.2657 84.6627 74.5585 84.3306 74.7429 83.9377C74.9274 83.5449 74.9959 83.1075 74.9404 82.6771C74.8874 81.4993 74.5571 80.3507 73.9763 79.3247C73.3954 78.2988 72.5805 77.4245 71.5979 76.7731Z" fill="#5F6161"></path><path d="M73.2743 79.345C73.2806 79.4748 73.318 79.6011 73.3832 79.7134C73.4484 79.8258 73.5396 79.9208 73.6492 79.9906C73.8574 80.1052 74.024 79.9906 74.024 79.7824C74.0177 79.6526 73.9804 79.5263 73.9152 79.4139C73.8499 79.3016 73.7587 79.2066 73.6492 79.1368C73.4409 79.0118 73.2743 79.1368 73.2743 79.345Z" fill="#151B1F"></path><path d="M69.255 81.7295C69.2622 81.859 69.2998 81.985 69.365 82.0972C69.4301 82.2094 69.5209 82.3046 69.6299 82.375C69.8381 82.4896 70.0047 82.3751 70.0047 82.1564C69.9968 82.0284 69.9587 81.9042 69.8936 81.7938C69.8284 81.6834 69.7381 81.59 69.6299 81.5212C69.4216 81.3963 69.255 81.49 69.255 81.7295Z" fill="#151B1F"></path><path d="M68.4949 79.8137C68.5036 79.9428 68.542 80.0683 68.607 80.1802C68.672 80.2922 68.7619 80.3876 68.8697 80.4593C69.0676 80.5738 69.2342 80.4593 69.2342 80.2406C69.231 80.1125 69.1973 79.9871 69.1357 79.8748C69.0741 79.7624 68.9865 79.6665 68.8802 79.595C68.724 79.4805 68.4949 79.5742 68.4949 79.8137Z" fill="#151B1F"></path><path d="M68.5053 77.9915C68.5116 78.1213 68.5489 78.2476 68.6142 78.3599C68.6794 78.4723 68.7706 78.5673 68.8802 78.6371C69.0884 78.7621 69.255 78.6371 69.255 78.4289C69.2487 78.2991 69.2114 78.1728 69.1462 78.0604C69.0809 77.9481 68.9897 77.8531 68.8802 77.7833C68.724 77.6687 68.5053 77.7624 68.5053 77.9915Z" fill="#151B1F"></path><path d="M69.7652 76.8563C69.7715 76.986 69.8089 77.1123 69.8741 77.2247C69.9393 77.337 70.0305 77.4321 70.1401 77.5018C70.3483 77.6268 70.5149 77.5019 70.5149 77.2936C70.5086 77.1639 70.4713 77.0375 70.4061 76.9252C70.3409 76.8128 70.2496 76.7178 70.1401 76.648C69.9006 76.5335 69.7652 76.6272 69.7652 76.8563Z" fill="#151B1F"></path><path d="M71.7853 77.5435C71.7916 77.6732 71.8289 77.7995 71.8942 77.9119C71.9594 78.0242 72.0506 78.1192 72.1602 78.189C72.3684 78.314 72.535 78.189 72.535 77.9808C72.5287 77.851 72.4914 77.7247 72.4262 77.6124C72.3609 77.5 72.2697 77.405 72.1602 77.3352C71.9519 77.2102 71.7853 77.3144 71.7853 77.5435Z" fill="#151B1F"></path><path d="M73.9928 81.3965C73.9991 81.5262 74.0364 81.6525 74.1017 81.7649C74.1669 81.8772 74.2581 81.9723 74.3677 82.042C74.5759 82.1566 74.7425 82.042 74.7425 81.8338C74.7362 81.704 74.6989 81.5777 74.6337 81.4654C74.5684 81.353 74.4772 81.258 74.3677 81.1882C74.1594 81.0632 73.9928 81.157 73.9928 81.3965Z" fill="#151B1F"></path><path d="M73.795 83.3017C73.8013 83.4315 73.8386 83.5578 73.9038 83.6701C73.9691 83.7825 74.0603 83.8775 74.1698 83.9473C74.3677 84.0723 74.5343 83.9473 74.5343 83.7391C74.5283 83.6104 74.4922 83.485 74.4289 83.3729C74.3656 83.2608 74.2769 83.165 74.1698 83.0935C73.9303 82.9685 73.795 83.0622 73.795 83.3017Z" fill="#151B1F"></path><path d="M72.3372 84.083C72.3443 84.2125 72.382 84.3385 72.4472 84.4507C72.5123 84.5629 72.6031 84.6581 72.712 84.7286C72.9203 84.8431 73.0869 84.7286 73.0869 84.5099C73.079 84.382 73.0409 84.2577 72.9757 84.1473C72.9106 84.0369 72.8202 83.9435 72.712 83.8747C72.5038 83.7498 72.3372 83.8435 72.3372 84.083Z" fill="#151B1F"></path><path d="M70.6191 83.3017C70.6251 83.4303 70.6612 83.5558 70.7245 83.6679C70.7878 83.78 70.8765 83.8757 70.9835 83.9473C71.1918 84.0723 71.3584 83.9473 71.3584 83.7391C71.3521 83.6093 71.3147 83.483 71.2495 83.3706C71.1843 83.2583 71.0931 83.1633 70.9835 83.0935C70.8065 82.9685 70.6191 83.0622 70.6191 83.3017Z" fill="#151B1F"></path><path d="M68.9843 79.418C69.0308 80.2346 69.269 81.0288 69.6797 81.7361C70.0903 82.4435 70.6619 83.0441 71.348 83.4894C72.6496 84.2495 73.7117 83.6456 73.7117 82.1461C73.662 81.3331 73.4222 80.5431 73.0117 79.8397C72.6012 79.1362 72.0313 78.5388 71.348 78.0956C70.0464 77.3146 68.9843 77.9186 68.9843 79.418Z" fill="#A4A8B1"></path><path d="M69.3487 79.6262C69.3868 80.3176 69.5878 80.9901 69.9352 81.5891C70.2827 82.1881 70.7667 82.6964 71.348 83.0728C72.4517 83.708 73.3472 83.1977 73.3472 81.9378C73.3091 81.2464 73.1081 80.5738 72.7607 79.9749C72.4133 79.3759 71.9292 78.8675 71.348 78.4912C70.2442 77.8456 69.3487 78.3558 69.3487 79.6262Z" fill="#C5C8C9"></path><path d="M69.5257 79.9074C69.5595 80.5007 69.7327 81.0777 70.0312 81.5915C70.3297 82.1053 70.7452 82.5415 71.2438 82.8647C72.1914 83.4165 72.9619 82.9792 72.9619 81.8859C72.9274 81.2928 72.7539 80.7161 72.4554 80.2025C72.157 79.6888 71.7419 79.2524 71.2438 78.9287C70.2963 78.3768 69.5257 78.8141 69.5257 79.9074Z" fill="#C5C8C9"></path><path d="M66.6414 78.2206C66.7297 79.776 67.1828 81.2887 67.9643 82.6364C68.7458 83.9841 69.8336 85.1289 71.1397 85.9781C73.6284 87.415 75.638 86.2696 75.638 83.4165C75.5514 81.8608 75.0989 80.3474 74.3173 78.9994C73.5357 77.6515 72.447 76.507 71.1397 75.6591C68.6511 74.2221 66.6414 75.3675 66.6414 78.2206ZM67.11 78.3768C67.11 75.7215 68.9843 74.6594 71.2751 75.9923C72.4875 76.7857 73.4963 77.8532 74.2198 79.1085C74.9434 80.3639 75.3614 81.7719 75.4402 83.2187C75.4402 85.8739 73.5555 86.9465 71.2751 85.6032C70.0601 84.8116 69.0489 83.7447 68.3234 82.4892C67.598 81.2336 67.1787 79.8247 67.0996 78.3768H67.11Z" fill="#A4A8B1"></path><path d="M71.8478 77.6374C71.3254 77.3328 70.7345 77.1655 70.13 77.1509C69.5255 77.1364 68.9272 77.2751 68.3908 77.5541C68.8593 76.3254 70.0984 75.9713 71.5146 76.8148C73.0461 77.8186 74.1573 79.3483 74.6384 81.1152C74.0943 79.6929 73.1185 78.4767 71.8478 77.6374Z" fill="#5F6161"></path><path d="M108.667 89.6742V96.7965L103.659 99.2123L103.096 93.3916L102.107 90.0803L99.2645 85.582L92.0693 81.4586L90.8822 82.5415L88.7789 83.2496L89.9555 82.6769L93.1834 80.813L100.452 85.0093L108.667 89.6742Z" fill="#412826"></path><path d="M102.565 91.4235L104.096 93.6935L107.522 95.5573L107.438 89.4763L104.429 87.7374L99.5456 84.9155L102.597 87.6541L103.523 90.2677L105.45 90.1427L102.565 91.4235Z" fill="#2C0E0E"></path><path d="M88.5394 86.2797L91.3716 84.3012L93.0689 82.5727L92.0068 82.0938L89.1017 83.6973L88.5394 86.2797Z" fill="#260C0C"></path><path d="M102.107 90.0802L103.096 93.3915L103.659 99.2122L102.857 98.754L102.274 93.5789L101.472 90.6321L98.6918 86.2379L92.0068 82.406L89.3203 83.7909L88.5394 86.2796L87.8938 85.8631L88.7789 83.2495L92.1318 81.4585L99.2645 85.5819L102.107 90.0802Z" fill="#301010"></path><path d="M107.678 94.3497L102.565 91.4238L102.597 90.8511L107.709 93.7875L107.678 94.3497Z" fill="#260C0C"></path><path d="M107.678 94.3497L109.615 92.9336L109.646 92.5483L107.709 93.7875L107.678 94.3497Z" fill="#380009"></path><path d="M107.709 93.7875L102.597 90.8511L103.523 90.268L105.45 90.1431L109.646 92.5484L107.709 93.7875Z" fill="#371A18"></path><path d="M107.678 99.7434L103.18 97.1507L103.221 96.5884L107.709 99.1811L107.678 99.7434Z" fill="#260C0C"></path><path d="M107.709 99.181L103.221 96.5882L105.158 95.3491L109.646 97.9419L107.709 99.181Z" fill="#371A18"></path><path d="M82.1043 74.6282L79.272 70.9733L76.0129 69.0782L72.7329 67.1831L69.9006 67.5684L65.1732 69.8592L68.068 70.7755C68.5529 70.704 69.0477 70.7432 69.5153 70.89L74.5551 73.2537L77.3978 76.919L79.2304 82.1254V86.1134L83.9682 83.8226V79.8866L82.1043 74.6282Z" fill="#412826"></path><g style="mix-blend-mode:multiply"><path d="M74.6905 73.4616L79.2721 70.9729L82.1043 74.6278L82.2917 75.1484L92.6212 81.1358L99.6706 79.6988L96.8071 61.4141L90.4553 62.0701L69.1925 64.34L66.3811 65.9644L69.4841 67.7554L65.1524 69.8588L67.9847 69.4735L74.5343 73.2637L74.6905 73.4616Z" fill="#B8B7B7"></path></g><path d="M65.1524 69.8589L67.9847 69.4736L71.2647 71.3687L74.5343 73.2639L77.3769 76.9187L79.2096 82.1667V86.1132L78.2933 85.5821L78.1891 82.0106L76.773 77.6789L74.3364 74.4093L71.2647 72.6287L68.1825 70.8585L65.7459 71.3167L64.3298 74.0032L64.2361 77.4602L63.3094 76.9291V72.9931L65.1524 69.8589Z" fill="#301010"></path><path d="M89.1017 69.2759L83.9994 66.3291V72.8683L89.1017 75.8047V69.2759Z" fill="#BC3C00"></path><path d="M89.1017 69.2758L97.6193 64.3506V70.8898L89.1017 75.8046V69.2758Z" fill="#AB3B00"></path><path d="M83.9994 66.3289L92.5274 61.4141L97.6193 64.3505L89.1017 69.2757L83.9994 66.3289Z" fill="#E26500"></path><path d="M107.376 39.9953C107.561 39.9332 107.741 39.8602 107.917 39.7766C108.359 39.621 108.757 39.365 109.083 39.0289C109.408 38.6928 109.651 38.2858 109.792 37.8398C109.931 37.0335 109.859 36.2048 109.583 35.4345L109.188 36.3508L46.3366 0L44.6393 0.926732L40.9116 8.21564C42.1227 8.15309 43.337 8.2159 44.5352 8.40307C46.031 8.70049 47.476 9.21253 48.8253 9.92332L69.1821 15.1297L108.542 37.8502L107.376 39.9953Z" fill="#FF8800"></path><path d="M113.665 37.7357V40.4014L111.166 38.9332L102.971 53.7193L41.88 18.4514L40.5992 20.2111L39.433 20.4714L37.996 19.6384L36.6632 11.8705L44.6393 0.926758L107.501 37.2776L108.553 34.7889L113.665 37.7357Z" fill="#CD4500"></path><path d="M39.433 20.4714L38.2459 13.3804L40.4014 9.87129L43.0774 10.2566L67.4848 16.0669L106.845 38.7874L99.7226 51.845L102.971 53.7193L111.166 38.9332L113.665 40.4014V37.7357L108.553 34.7889L105.887 36.33L44.6393 0.926758L38.1314 8.39268L36.6632 11.8705L37.996 19.6384L39.433 20.4714Z" fill="#E25D00"></path><path d="M37.996 19.6382L11.0687 34.8096L19.024 32.425L77.6268 65.9228L99.7226 51.8448L41.88 18.4512L37.996 19.6382Z" fill="#E26500"></path><path d="M41.88 18.4512L19.024 32.425L19.5134 30.0509L37.996 19.6382L41.88 18.4512Z" fill="#CB4F00"></path><path d="M86.8629 53.2089V55.8745L84.3639 54.4063L76.1691 69.1924L15.0776 33.9245L13.8073 35.6843L12.6306 35.9446L11.0687 34.8096L9.86085 27.3437L17.837 16.3999L80.6986 52.7507L81.7503 50.2621L86.8629 53.2089Z" fill="#C03E00"></path><path d="M76.9396 69.8797L102.076 55.354L111.166 38.9331L84.3639 54.4064L77.6581 66.5268L76.9396 69.8797Z" fill="#C03E00"></path><path d="M15.0776 33.9248L14.4424 29.01L16.2751 25.73L40.6929 31.5403L80.0426 54.2608L72.9203 67.3184L15.0776 33.9248Z" fill="#BC3C00"></path><path d="M77.4498 59.0191L21.0441 26.4585L40.6929 31.5399L80.0426 54.2605L77.4498 59.0191Z" fill="#E25D00"></path><path d="M14.4424 29.01L74.805 63.8614L77.4498 59.0195L21.0441 26.4589L16.2751 25.73L14.4424 29.01Z" fill="#E26600"></path><path d="M16.2751 25.73L76.6064 60.5605L74.805 63.8614L14.4424 29.01L16.2751 25.73Z" fill="#CD4500"></path><path d="M80.5736 55.4684C80.7611 55.4059 80.9381 55.333 81.1255 55.2497C81.5635 55.0907 81.9591 54.8334 82.2822 54.4977C82.6053 54.162 82.8472 53.7567 82.9894 53.313C83.1289 52.5067 83.0571 51.678 82.7811 50.9076L82.3959 51.824L19.5343 15.4731L17.837 16.3999L14.1092 23.6888C15.3125 23.6522 16.5163 23.7394 17.7016 23.9491C19.1974 24.2465 20.6424 24.7586 21.9917 25.4694L42.3485 30.6757L81.7399 53.3338L80.5736 55.4684Z" fill="#FF8800"></path><path d="M12.6306 35.9446L11.4436 28.8431L13.599 25.3444L16.2751 25.7297L40.6929 31.54L80.0426 54.2606L74.5447 64.3401L73.6908 67.8908L76.9396 69.8796L77.6581 66.5267L84.3639 54.4063L86.8629 55.8745V53.2089L81.7503 50.2621L80.6986 52.7507L17.837 16.3999L11.3499 23.8346L9.86085 27.3437L11.0687 34.8096L12.6306 35.9446Z" fill="#E26600"></path><path d="M86.8629 53.2091V55.8748L113.665 40.4015V37.7358L86.8629 53.2091Z" fill="#E24700"></path><path d="M113.665 37.7359L86.8629 53.2092L81.7503 50.2624L108.553 34.7891L113.665 37.7359Z" fill="#FF8800"></path><g style="mix-blend-mode:multiply"><path d="M80.0426 54.2608L74.5447 64.3404L73.6908 67.8911L70.1193 65.7044L75.4506 55.7082L37.4962 33.6332L37.4337 33.602L36.1113 32.8315L35.6636 32.5607L33.5914 32.2588L17.1914 27.7292L16.0044 29.9055L15.0776 33.9248L14.4424 29.01L16.2855 25.73L34.5806 30.6135L37.2567 31.0196L39.0269 31.28L40.6929 31.5403L80.0426 54.2608Z" fill="#DAA79D"></path></g><path d="M50.2414 37.0591L46.6906 43.0047L45.2016 47.4093L45.8368 53.001L47.9922 54.3442L47.3675 48.8567L48.5858 44.4001L52.4489 38.3294L50.2414 37.0591Z" fill="#E25D00"></path><g style="mix-blend-mode:multiply"><path d="M50.2414 37.0591L49.1168 38.9334L51.2306 40.235L51.9803 42.0572L53.8754 39.152L52.4489 38.3294L50.2414 37.0591Z" fill="#E6C3BC"></path></g><path d="M49.8978 54.0315L47.9922 54.3439L47.3675 48.8564L48.5858 44.3997L52.4489 38.3291L53.8754 39.1517L51.9803 42.0569L50.8349 43.65L50.2934 45.3681L49.2105 49.0854L49.8978 54.0315Z" fill="#AB3B00"></path><path d="M45.2016 47.4092L47.3675 48.8565L47.9922 54.3441L45.8368 53.0008L45.2016 47.4092Z" fill="#CD4500"></path><path d="M37.2567 31.0194L36.7257 31.8628L36.1113 32.8312L34.0808 36.0279L32.8521 40.4845L33.4873 45.972L31.3319 44.6184L30.6863 39.0268L32.1857 34.6222L33.5914 32.2585L34.008 31.5713L34.5807 30.6133L37.2567 31.0194Z" fill="#E25D00"></path><g style="mix-blend-mode:multiply"><path d="M39.0269 31.2797L37.4962 33.633L37.465 33.6746L37.4337 33.6017L36.7257 31.8628L34.0079 31.5713L34.5806 30.6133L37.2567 31.0194L39.0269 31.2797Z" fill="#E6C3BC"></path></g><path d="M39.0269 31.2798L37.4962 33.6331L37.465 33.6748L36.3196 35.2679L35.7885 36.986L34.7056 40.7034L35.3928 45.6494L33.4873 45.9722L32.8521 40.4847L34.0808 36.028L36.1113 32.8313L36.7257 31.863L37.2567 31.0195L39.0269 31.2798Z" fill="#AB3B00"></path><path d="M30.6863 39.0269L32.8521 40.4846L33.4873 45.9721L31.3319 44.6185L30.6863 39.0269Z" fill="#CD4500"></path><path d="M64.8921 45.5142L61.3413 51.4494L59.8419 55.8644L60.4875 61.456L62.6325 62.7993L62.0078 57.3118L63.2365 52.8551L67.0892 46.7845L64.8921 45.5142Z" fill="#E25D00"></path><g style="mix-blend-mode:multiply"><path d="M64.8921 45.5142L63.7675 47.3884L65.8813 48.69L66.6206 50.5123L68.5157 47.6071L67.0892 46.7845L64.8921 45.5142Z" fill="#E6C3BC"></path></g><path d="M64.5485 62.4866L62.6325 62.7989L62.0078 57.3114L63.2365 52.8548L67.0892 46.7842L68.5157 47.6068L66.6206 50.5119L65.4752 52.1051L64.9441 53.8232L63.8612 57.5405L64.5485 62.4866Z" fill="#AB3B00"></path><path d="M59.8419 55.8643L62.0078 57.3116L62.6325 62.7991L60.4875 61.4559L59.8419 55.8643Z" fill="#CD4500"></path><path d="M9.86085 27.3438L11.4436 28.8432L12.6306 35.9447L11.0687 34.8097L9.86085 27.3438Z" fill="#CD4500"></path><path d="M77.6581 66.527L74.5447 64.3403L73.6908 67.8911L76.9396 69.8799L77.6581 66.527Z" fill="#CD4500"></path><path d="M38.2459 13.3802L65.0795 19.6903L99.7226 39.8806L104.231 37.2774L67.4848 16.0667L40.4014 9.87109L38.2459 13.3802Z" fill="#EF6C00"></path><g style="mix-blend-mode:multiply"><path d="M105.887 36.3299L81.7503 50.2621L81.3442 51.22L67.0892 42.994L75.8775 38.0792L84.9262 31.2589L92.6316 30.582L105.887 36.3299Z" fill="#DFC3B9"></path></g><path d="M137.615 75.9503L133.023 80.9068L119.486 88.7059L110.812 91.4236L105.564 64.1943L134.626 49.1792L137.073 63.3717L137.49 63.757L137.969 66.1103V75.2006L137.615 75.9503Z" fill="#FF9A0A"></path><path d="M120.111 78.2622V90.0078L112.041 91.1115L111.166 88.7062V81.5839L120.111 78.2622Z" fill="#F48600"></path><path d="M133.658 70.442V80.0946L137.615 75.9504L137.969 75.2007V66.1104L133.658 70.442Z" fill="#F48600"></path><path d="M137.969 66.1104L133.658 71.8999L120.111 79.7198L111.166 81.5837L111.281 78.6473L109.177 62.7679L133.574 48.5649L135.688 62.0598L137.49 63.7571L137.969 66.1104Z" fill="#42180F"></path><path d="M134.626 49.1792L137.073 63.3717L132.242 68.5573L120.163 75.5234L111.281 78.6472L108.896 77.533L106.772 64.0382L107.824 64.6525L134.626 49.1792Z" fill="#67383F"></path><path d="M135.688 62.0601H133.574L125.14 67.1623L124.776 68.8179L114.54 74.4512L111.166 76.0443L108.896 77.5334L111.281 78.6475L120.163 75.5237L132.242 68.5576L137.073 63.3721L135.688 62.0601Z" fill="#784A51"></path><path d="M132.044 49.0958L133.075 56.8116L133.47 61.1537L129.576 59.0712L122.901 52.6882L122.756 43.7437L132.044 49.0958Z" fill="#7E7E7E"></path><path d="M137.073 63.3718L135.688 62.0598L133.574 48.5649L134.626 49.1793L137.073 63.3718Z" fill="#7E7E7E"></path><path d="M89.8722 77.908V63.174L90.3199 52.1157L103.575 59.7691L107.699 62.9033L108.209 64.3715V64.8713L106.772 64.0383L108.896 77.5332L110.76 79.2721L111.166 81.5837V90.674L110.812 91.4238L98.2232 84.1557L92.2359 79.8344L89.8722 77.908Z" fill="#E26600"></path><path d="M108.521 79.0221L94.0165 71.3479L89.8722 66.329L90.2262 54.4897L106.199 63.705L108.23 76.7313L108.521 79.0221Z" fill="#EC7700"></path><path d="M108.521 86.1132L93.7041 77.2728L89.8722 72.9932V77.908L91.5695 79.4282L92.2359 79.8343L98.2232 84.1556L107.438 89.4765L108.521 87.8417V86.1132Z" fill="#C85700"></path><path d="M110.802 90.8615L111.073 92.0382L111.781 94.7767V99.577L109.636 100.108L108.032 100.087L107.438 99.7436V88.4146L108.875 89.2476L110.802 90.8615Z" fill="#301010"></path><path d="M106.991 88.0186L95.1514 81.2191L94.7558 73.9302L94.964 57.603L106.033 63.986V64.0589L108.115 77.9807V87.1231L106.991 88.0186ZM95.4326 81.0108L106.97 87.6646L107.865 86.9981V78.0224L105.783 64.1943L95.2764 58.1341L95.0682 73.9302L95.4326 81.0108Z" fill="#CD4900"></path><path d="M111.166 81.5837L108.521 79.0222L108.23 76.7314L106.199 63.7051L106.772 64.0383L108.896 77.5332L111.281 78.6473L111.166 81.5837Z" fill="#380009"></path><path d="M108.209 64.8713L90.2262 54.4898L89.9972 53.1986L90.32 52.1157L103.575 59.7691L107.699 62.9033L108.209 64.3715V64.8713Z" fill="#E25D00"></path><path d="M102.565 74.8464L95.7242 68.3177V58.7275L105.585 64.34L106.637 72.2328L107.105 77.2726L102.565 74.8464Z" fill="#380009"></path><path d="M106.449 76.273L102.722 74.2738L96.3177 68.1511V59.7168L97.3485 60.3103L100.524 62.1117L105.085 64.7149L106.064 72.1079L106.449 76.273Z" fill="#4F2F32"></path><path d="M100.524 62.112C99.5112 62.7785 98.429 63.3336 97.2965 63.7676V60.3105L100.524 62.112Z" fill="#664A4C"></path><g style="mix-blend-mode:multiply"><path d="M107.824 64.6524L111.281 78.6471L108.896 77.533L106.772 64.0381L107.824 64.6524Z" fill="#BCBCBC"></path></g><path d="M111.781 99.5769L119.746 96.828L134.689 88.1958L139.687 83.1977V78.3975L134.282 83.7392L119.746 92.4442L111.781 94.7767V99.5769Z" fill="#371A18"></path><path d="M111.781 94.7764L119.746 92.444L134.314 84.0305L139.687 78.3972L138.979 75.6587L133.574 81.0004L119.569 89.4868L111.073 92.0379L111.781 94.7764Z" fill="#3A1E1C"></path><path d="M134.491 47.4302L130.378 44.2959L117.112 36.6426L90.3199 52.1159L103.575 59.7692L107.699 62.9035L108.209 64.3717V64.8715L117.154 61.5498L130.7 53.7299L135.011 49.3982V48.8984L134.491 47.4302Z" fill="#FFC523"></path><path d="M130.378 44.2959L125.963 48.9816L112.312 56.8432L103.575 59.7692L107.699 62.9034L116.425 59.9775L130.076 52.1159L134.491 47.4301L130.378 44.2959Z" fill="#FFD02D"></path><path d="M107.438 88.4143L108.521 87.8415L111.166 90.5489L112.041 91.1111L119.486 88.7058L133.023 80.9067L137.615 75.9502L137.969 75.2005V73.8677L138.708 74.482L138.979 75.6587L133.616 81.3752L119.569 89.4868L111.073 92.0379L110.208 90.9966L108.667 89.4972L107.438 88.4143Z" fill="#412826"></path><path d="M119.486 88.7059V82.0105L133.023 74.0552V80.9067L119.486 88.7059Z" fill="#42180F"></path><path d="M120.215 88.0398V87.5712L132.294 80.4697V81.0841L120.215 88.0398Z" fill="#1A0004"></path><path d="M120.215 86.9983V86.5297L132.294 79.4282V80.0426L120.215 86.9983Z" fill="#1A0004"></path><path d="M121.152 96.0157V95.1514L133.22 88.0396V89.06L121.152 96.0157Z" fill="#260C0C"></path><path d="M121.152 92.1109V91.6944L133.22 84.5825V85.1552L121.152 92.1109Z" fill="#260C0C"></path><path d="M121.152 92.996V92.5795L133.22 85.478V86.0507L121.152 92.996Z" fill="#260C0C"></path><path d="M120.215 85.9573V85.4887L132.294 78.3872V79.0016L120.215 85.9573Z" fill="#1A0004"></path><path d="M120.215 84.9158V84.4472L132.294 77.3457V77.9705L120.215 84.9158Z" fill="#1A0004"></path><path d="M120.215 83.8743V83.4057L132.294 76.3042V76.929L120.215 83.8743Z" fill="#1A0004"></path><path d="M111.52 93.9019L110 93.4749L109.386 93.0376V96.2447L109.771 96.5883L111.781 97.1714L116.685 95.5158L115.467 93.6936L114.103 93.1209L111.52 93.9019Z" fill="#D4D6DB"></path><path d="M139.499 77.6685L139.687 78.3974V80.8652L136.042 84.52L136.552 81.6774L137.188 80.053L139.499 77.6685Z" fill="#D4D6DB"></path><g style="mix-blend-mode:multiply"><path d="M136.042 84.5199L136.563 83.1246L138.979 80.9067L139.312 80.6256L139.687 80.8651L139.333 77.835L137.188 80.0529L136.552 81.6773L136.042 84.5199Z" fill="#C9CFDD"></path></g><path d="M130.159 91.6322C130.345 91.522 130.503 91.371 130.623 91.1906C130.742 91.0102 130.818 90.8052 130.846 90.5909V89.3414C130.846 89.0081 130.544 88.9144 130.169 89.1435L125.13 92.2673C124.944 92.3775 124.785 92.5285 124.666 92.7088C124.547 92.8892 124.471 93.0943 124.442 93.3086V94.5581C124.442 94.8913 124.734 94.985 125.109 94.756L130.159 91.6322Z" fill="#D2D2D2"></path><path d="M125.098 94.5476L130.138 91.4237C130.286 91.3329 130.412 91.2116 130.509 91.0679C130.606 90.9243 130.671 90.7616 130.7 90.5907V89.3412C130.7 89.06 130.451 88.9872 130.149 89.1746L125.109 92.2984C124.958 92.386 124.83 92.5064 124.732 92.6506C124.635 92.7948 124.572 92.9592 124.547 93.1314V94.3809C124.547 94.6621 124.786 94.7558 125.098 94.5476Z" fill="#FFFF3B"></path><path d="M124.567 93.9017C124.567 93.6206 124.349 92.7563 125.109 92.2982L130.149 89.1744C130.867 88.6433 130.711 89.8408 130.711 90.1011L124.567 93.9017Z" fill="#FFFF3B"></path><path d="M134.491 47.4302L130.076 52.1159L116.425 59.9775L107.699 62.9035L108.209 64.3717V64.8715L117.154 61.5498L130.7 53.7299L135.011 49.3982V48.8984L134.491 47.4302Z" fill="#FF9A0A"></path><path d="M92.6732 50.6372L107.116 58.5196L107.178 58.6134L106.72 58.8945L92.5795 50.835L92.6732 50.6372Z" fill="#E27D00"></path><path d="M93.0377 50.4287L107.116 58.5194L106.814 58.7068L92.6732 50.637L93.0377 50.4287Z" fill="#FFE738"></path><path d="M95.3701 49.0962L110.635 57.4472L110.698 57.5409L110.229 57.8116L95.266 49.2836L95.3701 49.0962Z" fill="#E27D00"></path><path d="M95.7346 48.8877L110.635 57.447L110.333 57.624L95.3701 49.096L95.7346 48.8877Z" fill="#FFE738"></path><path d="M98.0566 47.5444L113.509 55.9996L113.572 56.0933L113.113 56.3744L97.9629 47.7423L98.0566 47.5444Z" fill="#E27D00"></path><path d="M98.4211 47.3364L113.509 55.9998L113.207 56.1872L98.0566 47.5447L98.4211 47.3364Z" fill="#FFE738"></path><path d="M100.754 46.0034L116.196 54.4585L116.268 54.5523L115.8 54.8334L100.649 46.1908L100.754 46.0034Z" fill="#E27D00"></path><path d="M101.118 45.7949L116.196 54.4583L115.904 54.6353L100.754 46.0032L101.118 45.7949Z" fill="#FFE738"></path><path d="M103.44 44.4521L118.892 52.9073L118.955 53.001L118.497 53.2821L103.346 44.65L103.44 44.4521Z" fill="#E27D00"></path><path d="M103.804 44.2437L118.892 52.907L118.59 53.0945L103.44 44.4519L103.804 44.2437Z" fill="#FFE738"></path><path d="M106.137 42.9106L121.589 51.3658L121.652 51.4595L121.183 51.7406L106.033 43.0981L106.137 42.9106Z" fill="#E27D00"></path><path d="M106.501 42.7026L121.589 51.366L121.287 51.543L106.137 42.9109L106.501 42.7026Z" fill="#FFE738"></path><path d="M108.823 41.3594L124.276 49.8145L124.338 49.9082L123.88 50.1894L108.73 41.5572L108.823 41.3594Z" fill="#E27D00"></path><path d="M109.188 41.1509L124.276 49.8143L123.974 50.0017L108.823 41.3591L109.188 41.1509Z" fill="#FFE738"></path><path d="M111.52 39.8184L126.785 48.1694L126.848 48.2527L126.379 48.5338L111.416 40.0058L111.52 39.8184Z" fill="#E27D00"></path><path d="M111.885 39.6099L126.785 48.1691L126.483 48.3461L111.52 39.8181L111.885 39.6099Z" fill="#FFE738"></path><path d="M114.217 38.2666L128.649 46.149L128.712 46.2427L128.253 46.5239L114.113 38.4644L114.217 38.2666Z" fill="#E27D00"></path><path d="M114.571 38.0586L128.649 46.1493L128.358 46.3367L114.217 38.2668L114.571 38.0586Z" fill="#FFE738"></path><path d="M106.814 58.707L109.125 59.9774L109.188 60.0711L108.73 60.3522L106.72 58.8945L106.814 58.707Z" fill="#E27D00"></path><path d="M107.116 58.5195L109.125 59.9773L108.823 60.1647L106.814 58.707L107.116 58.5195Z" fill="#FFC523"></path><path d="M110.333 57.624L112.645 58.9048L112.707 58.9985L112.239 59.2692L110.229 57.8115L110.333 57.624Z" fill="#E27D00"></path><path d="M113.207 56.187L115.519 57.4574L115.581 57.5511L115.123 57.8322L113.113 56.3744L113.207 56.187Z" fill="#E27D00"></path><path d="M113.509 55.9995L115.519 57.4573L115.217 57.6447L113.207 56.1869L113.509 55.9995Z" fill="#FFC523"></path><path d="M110.635 57.4468L112.645 58.9046L112.343 59.0816L110.333 57.6238L110.635 57.4468Z" fill="#FFC523"></path><path d="M115.904 54.6357L118.216 55.9165L118.278 56.0102L117.81 56.2914L115.8 54.8336L115.904 54.6357Z" fill="#E27D00"></path><path d="M116.196 54.4585L118.216 55.9163L117.914 56.0933L115.904 54.6355L116.196 54.4585Z" fill="#FFC523"></path><path d="M118.59 53.0942L120.902 54.3646L120.965 54.4583L120.506 54.7394L118.497 53.2817L118.59 53.0942Z" fill="#E27D00"></path><path d="M118.892 52.9072L120.902 54.365L120.6 54.5524L118.59 53.0947L118.892 52.9072Z" fill="#FFC523"></path><path d="M121.287 51.543L123.599 52.8237L123.661 52.9174L123.193 53.1986L121.183 51.7408L121.287 51.543Z" fill="#E27D00"></path><path d="M121.589 51.3657L123.599 52.8235L123.297 53.0005L121.287 51.5427L121.589 51.3657Z" fill="#FFC523"></path><path d="M123.974 50.002L126.056 51.1474L126.129 51.2411L125.661 51.5222L123.88 50.1894L123.974 50.002Z" fill="#E27D00"></path><path d="M124.276 49.8145L126.056 51.1473L125.765 51.3243L123.974 50.0019L124.276 49.8145Z" fill="#FFC523"></path><path d="M126.483 48.3462L128.795 49.627L128.857 49.7103L128.399 49.9914L126.379 48.5336L126.483 48.3462Z" fill="#E27D00"></path><path d="M126.785 48.1694L128.795 49.6272L128.493 49.8042L126.483 48.3465L126.785 48.1694Z" fill="#FFC523"></path><path d="M128.358 46.3364L130.669 47.6068L130.732 47.7005L130.263 47.9816L128.253 46.5239L128.358 46.3364Z" fill="#E27D00"></path><path d="M128.649 46.1494L130.669 47.6072L130.367 47.7946L128.358 46.3368L128.649 46.1494Z" fill="#FFC523"></path><path d="M111.52 93.9019L111.781 94.7765V97.1714L109.771 96.5883L109.386 96.2447V93.0376L110 93.4749L111.52 93.9019Z" fill="#9EA3AE"></path><g style="mix-blend-mode:multiply"><path d="M116.685 95.5158L115.425 95.2034L111.781 96.2968L110.781 96.0573L110.01 96.0989L109.386 96.2447V93.0376L110 93.4749L111.52 93.9019L114.103 93.1209L115.467 93.6936L116.685 95.5158Z" fill="#C9CFDD"></path></g><path d="M115.227 95.2556L115.081 94.0477L113.978 93.1626L111.52 93.9019L111.166 93.7978L111.073 94.5579V96.3489L111.781 96.5155L115.227 95.2556Z" fill="#F4F4F4"></path><path d="M110.781 93.8916L109.99 93.6625L109.792 93.5376L109.511 93.7875V96.0158L109.813 96.297L110.406 96.5156V94.1936L110.781 93.8916Z" fill="#FF9900"></path><path d="M110.781 96.1928L110.406 96.5156V94.1936L110.781 93.8916V96.1928Z" fill="#FF9900"></path><path d="M139.499 77.6685L139.135 78.0433V80.5111L139.687 80.8652V78.3974L139.499 77.6685Z" fill="#9EA3AE"></path><path d="M139.333 77.835L138.979 78.2098V80.9067L139.52 80.4381V78.5638L139.333 77.835Z" fill="#FFB539"></path><path d="M138.979 80.9069L136.563 83.1248V81.6774L137.188 80.053L138.979 78.21V80.9069Z" fill="#F4F4F4"></path><path d="M120.486 55.9893L119.632 56.4787L120.09 56.8535L120.933 56.3641L120.486 55.9893Z" fill="#FFA036"></path><path d="M120.933 56.3643L120.09 56.8537L120.007 57.2077L120.86 56.7183L120.933 56.3643Z" fill="#FF8936"></path><path d="M120.09 56.8534L119.632 56.4785L119.559 56.843L120.007 57.2074L120.09 56.8534Z" fill="#D75716"></path><path d="M122.61 54.75L121.756 55.2394L122.204 55.6143L123.058 55.1249L122.61 54.75Z" fill="#FFA036"></path><path d="M123.058 55.125L122.204 55.6144L122.131 55.9684L122.985 55.479L123.058 55.125Z" fill="#FF8936"></path><path d="M122.204 55.6141L121.756 55.2393L121.683 55.6037L122.131 55.9681L122.204 55.6141Z" fill="#D75716"></path><path d="M124.567 53.5732L123.724 54.0626L124.172 54.4375L125.026 53.9481L124.567 53.5732Z" fill="#FFA036"></path><path d="M125.026 53.9482L124.172 54.4376L124.088 54.7917L124.942 54.3023L125.026 53.9482Z" fill="#FF8936"></path><path d="M124.172 54.4378L123.724 54.063L123.641 54.4274L124.088 54.7919L124.172 54.4378Z" fill="#D75716"></path><g style="mix-blend-mode:multiply"><path d="M134.72 49.6997L134.876 50.6473L130.732 54.854L116.675 63.0384L108.147 65.9644L106.991 65.4437L106.772 64.038L108.209 64.871L117.154 61.5494L130.7 53.7294L134.72 49.6997Z" fill="#C3B8B6"></path></g><g style="mix-blend-mode:multiply"><path d="M125.89 47.128L125.744 45.5869L121.985 45.6598C121.708 45.6608 121.435 45.7212 121.183 45.8368C120.725 46.0763 120.756 46.4512 121.256 46.6698C121.459 46.7515 121.673 46.8007 121.891 46.8156L125.89 47.128Z" fill="#D99824"></path></g><path d="M124.453 45.4097H127.327V46.4509C127.327 46.628 127.212 46.805 126.941 46.9403C126.613 47.0819 126.258 47.1549 125.9 47.1549C125.542 47.1549 125.188 47.0819 124.859 46.9403C124.567 46.8154 124.411 46.6384 124.401 46.4614L124.453 45.4097Z" fill="#B2CDCF"></path><path d="M124.588 42.8066H127.056L127.327 45.3994C127.327 45.5764 127.212 45.7534 126.941 45.8888C126.612 46.0274 126.258 46.0988 125.9 46.0988C125.543 46.0988 125.189 46.0274 124.859 45.8888C124.567 45.7534 124.411 45.5764 124.401 45.3994L124.588 42.8066Z" fill="#D76600"></path><path d="M124.953 42.3798C125.23 42.2635 125.527 42.2036 125.827 42.2036C126.128 42.2036 126.425 42.2635 126.702 42.3798C127.202 42.5984 127.233 42.9733 126.775 43.2128C126.214 43.4419 125.586 43.4419 125.026 43.2128C124.484 42.9941 124.453 42.6193 124.953 42.3798Z" fill="#FFA71E"></path><path d="M124.953 44.9203C125.251 44.7963 125.572 44.7324 125.895 44.7324C126.218 44.7324 126.539 44.7963 126.837 44.9203C127.379 45.1598 127.41 45.5659 126.91 45.8262C126.6 45.9557 126.267 46.0215 125.93 46.0197C125.594 46.018 125.262 45.9486 124.953 45.8158C124.432 45.5867 124.401 45.1806 124.953 44.9203Z" fill="#FF9C00"></path><path d="M126.254 43.9415C126.388 44.3401 126.388 44.7716 126.254 45.1702C126.119 45.493 125.515 45.3993 125.39 45.0557C125.323 44.9233 125.288 44.777 125.288 44.6287C125.288 44.4804 125.323 44.3342 125.39 44.2018C125.619 43.8894 126.129 43.5979 126.254 43.9415Z" fill="#FF9C00"></path><path d="M125.775 44.2437C125.88 44.6077 125.88 44.9939 125.775 45.3579C125.661 45.6182 125.473 45.5349 125.369 45.1808C125.259 44.8177 125.259 44.4299 125.369 44.0667C125.484 43.8064 125.661 43.8897 125.775 44.2437Z" fill="#FFA71E"></path><g style="mix-blend-mode:multiply"><path d="M106.543 57.6446L106.397 56.1035L102.638 56.2285C102.361 56.2295 102.088 56.2899 101.836 56.4055C101.378 56.645 101.41 57.0198 101.909 57.2385C102.112 57.3201 102.326 57.3693 102.544 57.3843L106.543 57.6446Z" fill="#D99824"></path></g><path d="M105.106 55.937H107.98V56.9783C107.98 57.1553 107.865 57.3323 107.595 57.4677C107.275 57.6017 106.931 57.6707 106.585 57.6707C106.238 57.6707 105.894 57.6017 105.575 57.4677C105.273 57.3427 105.127 57.1657 105.106 56.9887V55.937Z" fill="#B2CDCF"></path><path d="M105.241 53.3237H107.709L107.98 55.9269C107.98 56.0935 107.865 56.2705 107.595 56.4163C106.948 56.6825 106.222 56.6825 105.575 56.4163C105.273 56.2809 105.127 56.1039 105.106 55.9373L105.241 53.3237Z" fill="#D76600"></path><path d="M105.564 52.9071C105.841 52.7908 106.138 52.731 106.439 52.731C106.739 52.731 107.037 52.7908 107.314 52.9071C107.813 53.1258 107.845 53.5006 107.386 53.7401C106.826 53.9693 106.198 53.9693 105.637 53.7401C105.168 53.5111 105.106 53.105 105.564 52.9071Z" fill="#FFA71E"></path><path d="M105.554 55.4376C106.158 55.1927 106.834 55.1927 107.438 55.4376C107.98 55.6771 108.011 56.0831 107.511 56.3435C106.907 56.5883 106.231 56.5883 105.627 56.3435C105.085 56.104 105.054 55.6979 105.554 55.4376Z" fill="#FF9C00"></path><path d="M106.907 54.4691C107.042 54.864 107.042 55.2925 106.907 55.6874C106.772 56.0102 106.168 55.9269 106.043 55.5729C105.976 55.4423 105.942 55.2978 105.942 55.1511C105.942 55.0045 105.976 54.86 106.043 54.7294C106.272 54.4066 106.782 54.1463 106.907 54.4691Z" fill="#FF9C00"></path><path d="M106.428 54.7603C106.539 55.1235 106.539 55.5113 106.428 55.8745C106.314 56.1348 106.126 56.0515 106.022 55.6974C105.912 55.3343 105.912 54.9465 106.022 54.5833C106.137 54.323 106.314 54.4063 106.428 54.7603Z" fill="#FFA71E"></path><path d="M108.521 79.022V87.8415L111.166 90.5489V81.5835L108.521 79.022Z" fill="#E26600"></path><path d="M126.952 81.8959L125.546 82.6873V81.5731L126.962 80.7817L126.952 81.8959Z" fill="#D4D6DB"></path><path d="M102.867 68.8699L102.19 68.9323C101.874 69.0368 101.601 69.2421 101.413 69.5167C101.225 69.7914 101.132 70.1202 101.149 70.4526V74.701C101.149 75.4299 101.597 75.9401 102.19 75.8256L103.107 75.6694C103.659 75.5548 103.856 74.9613 103.856 74.2324V69.9944C103.856 69.2551 103.409 68.7241 102.867 68.8699Z" fill="#1F140B"></path><path d="M102.867 68.9843L102.19 69.0468C101.874 69.1532 101.6 69.3605 101.412 69.6369C101.224 69.9133 101.132 70.2436 101.149 70.5775V74.8155C101.149 75.5548 101.597 76.0546 102.19 75.94L103.107 75.7838C103.659 75.6797 103.856 75.0862 103.856 74.3573V70.1089C103.856 69.38 103.409 68.8698 102.867 68.9843Z" fill="#332D28"></path><path d="M102.94 75.3776V70.1712C102.944 69.3466 103.273 68.5568 103.856 67.9741L106.21 65.725V65.4438L106.002 65.3501L103.482 67.6825C103.181 67.9713 102.942 68.3173 102.778 68.6999C102.613 69.0826 102.527 69.4943 102.524 69.9109V75.44C102.523 75.9419 102.647 76.4361 102.885 76.8779C103.123 77.3197 103.468 77.6951 103.888 77.9703L107.865 80.5839L108.147 80.4798L107.98 80.0737L104.127 77.5017C103.769 77.2739 103.473 76.9604 103.265 76.5896C103.058 76.2188 102.946 75.8023 102.94 75.3776Z" fill="#312821"></path><path d="M108.521 86.1133L111.166 88.7061L112.041 91.1114L111.166 90.5491L108.521 87.8418V86.1133Z" fill="#C85700"></path><path d="M72.2747 81.4481C72.2824 81.5497 72.2677 81.6518 72.2318 81.7471C72.1958 81.8424 72.1394 81.9287 72.0664 81.9999C71.961 82.097 71.8417 82.1777 71.7124 82.2394L70.3796 79.9382C70.4609 79.9085 70.5354 79.8624 70.5983 79.8029C70.7045 79.7266 70.8319 79.6855 70.9627 79.6855C71.0935 79.6855 71.2209 79.7266 71.3271 79.8029C71.6042 79.9824 71.8346 80.2252 71.9993 80.5112C72.1641 80.7973 72.2585 81.1184 72.2747 81.4481Z" fill="#7E8080"></path><path d="M72.004 81.6254C72.004 82.2294 71.577 82.4689 71.0564 82.1669C70.7841 81.9883 70.5574 81.7483 70.3947 81.4661C70.2319 81.184 70.1376 80.8677 70.1193 80.5425C70.1193 79.9386 70.5358 79.6991 71.0564 80.001C71.3307 80.1785 71.5594 80.418 71.724 80.7002C71.8886 80.9824 71.9845 81.2993 72.004 81.6254Z" fill="#D5D7D8"></path><path d="M75.6276 83.4893C75.6276 86.4153 73.6179 87.5919 71.1293 86.1133C69.8158 85.2259 68.7266 84.0453 67.9477 82.6646C67.1689 81.284 66.7216 79.7412 66.6414 78.158C66.6414 75.232 68.6615 73.9929 71.1397 75.5236C72.4552 76.4115 73.5456 77.5936 74.3246 78.9763C75.1036 80.359 75.5498 81.9042 75.6276 83.4893Z" fill="#E49A00"></path><path d="M67.0163 78.3766C67.096 79.8317 67.514 81.2482 68.237 82.5135C68.96 83.7788 69.9682 84.858 71.1814 85.6655C73.4618 87.0191 75.3465 85.9362 75.3465 83.2601C75.2667 81.805 74.8488 80.3885 74.1257 79.1232C73.4027 77.8579 72.3946 76.7787 71.1814 75.9712C68.8593 74.6176 67.0163 75.7005 67.0163 78.3766Z" fill="#BB5900"></path><path d="M67.0163 78.3766C67.096 79.8317 67.514 81.2482 68.237 82.5135C68.96 83.7788 69.9682 84.858 71.1814 85.6655C73.4618 87.0191 75.3465 85.9362 75.3465 83.2601C75.2667 81.805 74.8488 80.3885 74.1257 79.1232C73.4027 77.8579 72.3946 76.7787 71.1814 75.9712C68.8593 74.6176 67.0163 75.7005 67.0163 78.3766ZM67.4432 78.5224C67.4432 76.0337 69.1613 75.0237 71.2751 76.2836C72.397 77.0401 73.3273 78.0475 73.9924 79.2258C74.6575 80.4042 75.0391 81.7213 75.107 83.0727C75.107 85.5718 73.3889 86.5714 71.2751 85.3219C70.1535 84.5626 69.2236 83.5532 68.5587 82.3732C67.8937 81.1933 67.5119 79.875 67.4432 78.5224Z" fill="#E28B00"></path><path d="M68.724 78.6266C68.7791 79.7076 69.0842 80.7612 69.6154 81.7043C70.1466 82.6475 70.8894 83.4545 71.7853 84.062C73.3576 84.9887 74.6488 84.364 74.8362 82.6875C74.8362 82.5522 74.8362 82.4168 74.8362 82.2606C74.7662 80.7759 74.2225 79.3528 73.2847 78.1996C72.865 77.6564 72.3498 77.1942 71.7645 76.8356C70.088 75.8255 68.724 76.6273 68.724 78.6266Z" fill="#DA7200"></path><path d="M72.4934 78.0956C72.4934 78.4184 72.2747 78.5538 71.9935 78.3872C71.8497 78.2869 71.7307 78.155 71.6459 78.0016C71.561 77.8481 71.5125 77.6772 71.5042 77.5021C71.5042 77.1793 71.7228 77.0543 71.9935 77.2105C72.1399 77.3091 72.2613 77.4404 72.3481 77.594C72.4348 77.7476 72.4846 77.9194 72.4934 78.0956Z" fill="#380009"></path><path d="M70.8065 77.4497C71.0044 77.7933 71.0044 78.1681 70.8065 78.2723C70.6087 78.3764 70.2963 78.1994 70.0985 77.8558C69.9006 77.5121 69.911 77.1477 70.0985 77.0332C70.2859 76.9186 70.6295 77.106 70.8065 77.4497Z" fill="#380009"></path><path d="M69.8381 78.4601C69.982 78.5603 70.101 78.6922 70.1858 78.8457C70.2707 78.9991 70.3191 79.17 70.3275 79.3451C70.3275 79.6679 70.1089 79.8033 69.8381 79.6367C69.69 79.54 69.5673 79.4091 69.4803 79.2551C69.3933 79.1011 69.3446 78.9284 69.3383 78.7516C69.3383 78.4288 69.557 78.3039 69.8381 78.4601Z" fill="#380009"></path><path d="M70.0985 80.5839C70.2859 80.4694 70.6087 80.6568 70.7961 81.0005C70.9835 81.3441 70.9939 81.7189 70.7961 81.8335C70.5983 81.948 70.2859 81.7606 70.0985 81.417C69.911 81.0733 69.9006 80.6985 70.0985 80.5839Z" fill="#380009"></path><path d="M71.4625 82.5626C71.4625 82.2398 71.6812 82.1149 71.9623 82.2711C72.1076 82.3708 72.2281 82.5023 72.3147 82.6557C72.4014 82.8091 72.4518 82.9803 72.4621 83.1562C72.4621 83.479 72.2331 83.6143 71.9623 83.4477C71.8159 83.3492 71.6946 83.2179 71.6078 83.0643C71.521 82.9106 71.4713 82.7389 71.4625 82.5626Z" fill="#380009"></path><path d="M73.1285 83.3017C72.9307 82.9581 72.9307 82.5833 73.1285 82.4687C73.3264 82.3542 73.6388 82.5416 73.8366 82.8852C74.0345 83.2288 74.024 83.6037 73.8366 83.7182C73.6492 83.8328 73.3264 83.5933 73.1285 83.3017Z" fill="#380009"></path><path d="M74.1282 82.2604C73.9818 82.1619 73.8604 82.0306 73.7736 81.8769C73.6869 81.7233 73.6371 81.5515 73.6284 81.3753C73.6284 81.0525 73.847 80.9172 74.1282 81.0838C74.2721 81.184 74.391 81.3159 74.4758 81.4694C74.5607 81.6228 74.6092 81.7937 74.6176 81.9688C74.6176 82.2604 74.3989 82.3958 74.1282 82.2604Z" fill="#380009"></path><path d="M73.8574 80.1049C73.67 80.2194 73.3472 80.032 73.1598 79.6884C72.9724 79.3447 72.962 78.9699 73.1598 78.8554C73.3576 78.7408 73.67 78.9282 73.8574 79.2823C74.0449 79.6363 74.0553 79.9903 73.8574 80.1049Z" fill="#380009"></path><path d="M73.4826 81.1046C73.4945 81.2641 73.4728 81.4244 73.419 81.575C73.3652 81.7257 73.2804 81.8634 73.1702 81.9793C72.8067 82.2509 72.4277 82.5012 72.0352 82.729L69.9735 79.1366C70.2935 78.9529 70.6029 78.7512 70.9002 78.5326C71.0624 78.411 71.2597 78.3452 71.4625 78.3452C71.6653 78.3452 71.8626 78.411 72.0248 78.5326C72.4504 78.8191 72.8037 79.2006 73.0566 79.6469C73.3096 80.0932 73.4554 80.5923 73.4826 81.1046Z" fill="#380009"></path><path d="M72.4621 81.7605C72.4621 82.7081 71.8165 83.0829 71.0148 82.6143C70.5905 82.3273 70.2388 81.9455 69.9876 81.4991C69.7364 81.0527 69.5925 80.554 69.5674 80.0424C69.5674 79.1053 70.213 78.72 71.0148 79.199C71.4388 79.4838 71.7905 79.8636 72.0418 80.3084C72.293 80.7531 72.437 81.2503 72.4621 81.7605Z" fill="#4F1F26"></path><path d="M72.1289 81.6876C72.1289 82.4478 71.5979 82.7289 70.9419 82.3749C70.5988 82.1416 70.3141 81.8324 70.11 81.4712C69.906 81.11 69.788 80.7066 69.7652 80.2923C69.7652 79.5218 70.2963 79.2511 70.9419 79.6051C71.288 79.836 71.5756 80.1445 71.7816 80.506C71.9877 80.8675 72.1066 81.2721 72.1289 81.6876Z" fill="#5C2930"></path></g><defs><clipPath id="clip0_5678_8885"><rect width="139.687" height="110" fill="white"></rect></clipPath></defs></svg>