<svg xmlns="http://www.w3.org/2000/svg" width="76" height="90" viewBox="0 0 76 90" fill="none"><g clip-path="url(#clip0_5678_33708)"><path d="M54.3935 23.2021H19.4327C18.4567 23.2005 17.4984 22.9415 16.6544 22.4512L0.998666 13.298C0.694088 13.1169 0.44186 12.8597 0.266768 12.5517C0.0916752 12.2436 -0.000258382 11.8953 5.45435e-07 11.541C0.000884888 11.1871 0.0950612 10.8397 0.273032 10.5339C0.451002 10.228 0.706474 9.97454 1.01368 9.79893L16.6694 0.750876C17.5051 0.260454 18.4562 0.00129079 19.4252 0L54.3935 0C55.5007 0 56.5626 0.439851 57.3455 1.22279C58.1285 2.00573 58.5683 3.06763 58.5683 4.17487V19.0272C58.5683 20.1344 58.1285 21.1963 57.3455 21.9793C56.5626 22.7622 55.5007 23.2021 54.3935 23.2021ZM4.76806 11.556L18.3739 19.5228C18.6955 19.7095 19.0608 19.808 19.4327 19.8081H54.3935C54.5926 19.8081 54.7836 19.729 54.9244 19.5882C55.0652 19.4474 55.1443 19.2564 55.1443 19.0572V4.17487C55.1443 3.97573 55.0652 3.78474 54.9244 3.64392C54.7836 3.5031 54.5926 3.42399 54.3935 3.42399H19.4252C19.0555 3.4233 18.6925 3.52184 18.3739 3.70933L4.76806 11.556Z" fill="#17262F"></path><path d="M74.1115 34.0296L58.4557 24.974C57.6194 24.4853 56.6687 24.2262 55.7 24.2231H20.7317C20.1834 24.2231 19.6406 24.3311 19.134 24.5409C18.6275 24.7507 18.1673 25.0583 17.7796 25.4459C17.3919 25.8336 17.0844 26.2938 16.8746 26.8004C16.6648 27.3069 16.5568 27.8498 16.5568 28.398V43.2579C16.5568 44.3651 16.9967 45.427 17.7796 46.2099C18.5626 46.9929 19.6245 47.4327 20.7317 47.4327H35.3513V88.2954C35.3358 88.5282 35.3683 88.7618 35.4467 88.9816C35.5252 89.2013 35.648 89.4027 35.8074 89.5731C35.9668 89.7435 36.1596 89.8793 36.3737 89.9722C36.5877 90.065 36.8186 90.1129 37.052 90.1129C37.2853 90.1129 37.5162 90.065 37.7303 89.9722C37.9444 89.8793 38.1371 89.7435 38.2966 89.5731C38.456 89.4027 38.5788 89.2013 38.6572 88.9816C38.7357 88.7618 38.7682 88.5282 38.7527 88.2954V47.4327H55.685C56.661 47.4311 57.6193 47.1721 58.4632 46.6818L74.119 37.5437C74.4262 37.3664 74.6813 37.1114 74.8587 36.8043C75.036 36.4972 75.1294 36.1488 75.1294 35.7941C75.1294 35.4395 75.036 35.0911 74.8587 34.784C74.6813 34.4768 74.4262 34.2218 74.119 34.0446L74.1115 34.0296ZM56.7437 43.7459C56.4228 43.9344 56.0571 44.0329 55.685 44.0313H20.7317C20.5326 44.0313 20.3416 43.9521 20.2007 43.8113C20.0599 43.6705 19.9808 43.4795 19.9808 43.2804V28.4055C19.9808 28.2064 20.0599 28.0154 20.2007 27.8746C20.3416 27.7338 20.5326 27.6547 20.7317 27.6547H55.7C56.0695 27.655 56.4322 27.7535 56.7512 27.94L70.3571 35.7866L56.7437 43.7459Z" fill="#17262F"></path></g><defs><clipPath id="clip0_5678_33708"><rect width="75.1252" height="90" fill="white"></rect></clipPath></defs></svg>