<svg xmlns="http://www.w3.org/2000/svg" width="91" height="110" viewBox="0 0 91 110" fill="none"><g clip-path="url(#clip0_5678_17995)"><path d="M85.9031 77.6015L78.2031 79.8359L38.4828 56.6843L46.1656 54.45L85.9031 77.6015Z" fill="#F0B041"></path><path d="M44.825 109.192L0 83.0843L2.54375 68.389L47.3859 94.4968L44.825 109.192Z" fill="#AC5200"></path><path d="M85.9031 77.6015L80.7125 75.2468L47.3859 94.4968L44.825 109.192L78.2031 89.9421L80.6781 88.5156L80.7125 88.4984L85.9031 85.4906V77.6015Z" fill="#EB9500"></path><path d="M35.1313 110L3.90157 91.7641V75.4016L35.1313 93.6376V110Z" fill="#AC5200"></path><path d="M23.9937 97.6422L15.0562 92.4344V87.7594L23.9937 92.9672V97.6422Z" fill="#FFBD1A"></path><path d="M35.1313 110L40.5109 106.889V90.5266L35.1313 93.6376V110Z" fill="#EB9500"></path><path d="M80.7125 75.2297L75.3328 78.3406V78.3578L52.7484 91.3859L51.2875 92.2453H51.2703L47.3859 94.4968L8.73125 71.9984L5.32812 70.0219L2.54375 68.4062L6.42812 66.1719L7.88906 65.3125L24.2344 55.8765L30.5078 52.2672L34.1516 50.1531L35.8875 49.139L39.5141 51.2531L55.1031 60.3281L75.3328 72.1015L80.7125 75.2297Z" fill="#C8BEB2"></path><path d="M54.8625 82.2422L38.3109 91.7984L37.4688 92.3312H37.4516L35.1313 93.6547L18.9406 84.1843L15.5719 82.2078L3.90157 75.4015L6.20469 74.0781L7.08125 73.5797L23.65 64.0062L35.2688 70.8125L38.6719 72.789L54.8625 82.2422Z" fill="#C8BEB2"></path><path d="M76.7078 76.8282L36.9875 53.6938V30.2844L76.7078 53.436V76.8282Z" fill="#AC5200"></path><path d="M85.9031 47.0078L78.2031 51.4593L38.4828 28.3078L46.1656 23.8562L85.9031 47.0078Z" fill="#F0B041"></path><path d="M52.1641 91.7641L50.6688 92.5891H50.6516L5.79219 66.5157L7.27032 65.6735L52.1125 91.7469L52.1641 91.7641Z" fill="#828282"></path><path d="M52.1641 94.875V91.7468L50.6687 92.589V95.7343L52.1641 94.875Z" fill="#828282"></path><path d="M50.6687 95.7344L52.1641 94.875L50.6687 94.0156V95.7344Z" fill="#C8BEB2"></path><path d="M59.0391 87.7765L57.5438 88.6187H57.5266L12.6672 62.5453L14.1453 61.6859L59.0047 87.7594L59.0391 87.7765Z" fill="#828282"></path><path d="M59.0391 90.9047V87.7766L57.5437 88.6188V91.7469L59.0391 90.9047Z" fill="#828282"></path><path d="M57.5437 91.7469L59.0391 90.9047L57.5437 90.0453V91.7469Z" fill="#C8BEB2"></path><path d="M65.9141 83.8062L64.4187 84.6484H64.4016L19.5594 58.575L21.0203 57.7156L65.8797 83.789L65.9141 83.8062Z" fill="#828282"></path><path d="M65.9141 86.9344V83.8063L64.4188 84.6485V87.7766L65.9141 86.9344Z" fill="#828282"></path><path d="M64.4188 87.7765L65.9141 86.9343L64.4188 86.075V87.7765Z" fill="#C8BEB2"></path><path d="M72.7891 79.836L71.2937 80.661H71.2766L26.4344 54.6047L27.8953 53.7454L72.7547 79.8188L72.7891 79.836Z" fill="#828282"></path><path d="M72.7891 82.9641V79.8359L71.2938 80.6781V83.8062L72.7891 82.9641Z" fill="#828282"></path><path d="M71.2938 83.8063L72.7891 82.9641L71.2938 82.0875V83.8063Z" fill="#C8BEB2"></path><g style="mix-blend-mode:multiply"><path d="M54.8625 61.7547L54.3984 62.0297L37.2109 71.9297L20.0234 84.8547L14.1109 81.4172L33.825 70.0047L51.5625 59.7782C51.5625 59.7782 51.5625 59.5547 52.5937 60.1047C53.3976 60.5861 54.1569 61.1383 54.8625 61.7547Z" fill="#C4C4C4"></path></g><g style="mix-blend-mode:multiply"><path d="M39.2563 52.7141L38.775 53.0063L7.33907 71.1735L3.90157 69.2141L35.8703 50.7375C35.8703 50.7375 35.8703 50.5313 36.9016 51.0641C37.7295 51.55 38.5169 52.1018 39.2563 52.7141Z" fill="#C4C4C4"></path></g><path d="M75.3328 55.8938V78.3579L49.8094 63.5079L30.5078 52.2844V29.8547L75.3328 55.8938Z" fill="#AC5200"></path><path d="M72.7891 67.5985L27.9641 41.5422V31.2985L72.7891 57.3547V67.5985Z" fill="#BE670E"></path><path d="M59.7609 68.389L22.275 90.0625V90.9562L59.7609 69.3V68.389Z" fill="#9AA3B1"></path><path d="M59.0734 67.5125L21.5875 89.1859L22.275 90.0625L59.7609 68.389L59.0734 67.5125Z" fill="#C5C7CA"></path><path d="M21.5875 83.6859V89.1859L59.0734 67.5125V62.0297L21.5875 83.6859Z" fill="#6C7178"></path><path d="M18.7859 81.5203L56.1 59.7438C56.2375 59.7438 56.5984 59.7438 57.0797 60.0703C57.3031 60.1907 58.7984 61.1188 58.9359 61.2391C59.3828 61.6688 59.3828 61.7032 59.3828 61.7032V62.2532L22 83.9266L19.7141 82.1047L19.8859 81.9672L18.7859 81.5203Z" fill="#9AA3B1"></path><path d="M18.9062 81.4516L18.7 81.3485L56.0828 59.7094C56.0828 59.7094 56.0828 59.5031 57.1313 60.0531C57.9526 60.5584 58.7289 61.1335 59.4516 61.7719L58.9703 62.0469L22 83.3766L19.7141 82.1047L19.8859 81.9672L18.7859 81.5203L18.9062 81.4516Z" fill="#CFD4D9"></path><path d="M19.0094 87.6563V82.1563L18.6141 81.9329V81.3829C18.6141 81.3829 18.6141 81.1766 19.6625 81.7266C20.4912 82.2289 21.2735 82.8041 22 83.4454V83.9954L21.5875 83.7547V89.2547L22.275 90.1313V91.0422L18.3219 88.7219V87.811L19.0094 87.6563Z" fill="#5D6269"></path><path d="M19.0094 87.3469V87.6563L18.3219 87.7422L19.0094 87.3469Z" fill="#3D4045"></path><path d="M44.1375 59.3141L6.66875 80.9875V81.8985L44.1375 60.225V59.3141Z" fill="#9AA3B1"></path><path d="M43.45 58.4375L5.98125 80.1109L6.66875 80.9875L44.1375 59.3141L43.45 58.4375Z" fill="#C5C7CA"></path><path d="M5.98125 74.611V80.111L43.45 58.4375V52.9547L5.98125 74.611Z" fill="#6C7178"></path><path d="M3.16251 72.4453L40.4938 50.6687C40.6313 50.6687 41.0094 50.7546 41.4906 50.9953C41.6969 51.1156 43.2094 52.0437 43.3297 52.164C43.4879 52.3095 43.6371 52.4645 43.7766 52.6281V53.1781L6.37657 74.8515L4.09063 73.0296L4.26251 72.8921L3.16251 72.4453Z" fill="#9AA3B1"></path><path d="M3.26563 72.3765L3.07657 72.2734L40.4594 50.6343C40.4594 50.6343 40.4594 50.4281 41.5078 50.9781C42.3291 51.4834 43.1054 52.0584 43.8281 52.6968L43.3469 52.9718L6.37657 74.3015L4.09063 73.0296L4.26251 72.8921L3.16251 72.4453L3.26563 72.3765Z" fill="#CFD4D9"></path><path d="M3.4375 78.5812V73.0984L3.04218 72.8578V72.3078C3.04218 72.3078 3.04218 72.1015 4.10781 72.6515C4.92911 73.1568 5.70542 73.7319 6.42812 74.3703V74.9203L6.03281 74.6797V80.1797L6.72031 81.0562V81.9672L2.71562 79.5781V78.6672L3.4375 78.5812Z" fill="#5D6269"></path><path d="M3.38594 78.2719V78.5812L2.69844 78.6672L3.38594 78.2719Z" fill="#3D4045"></path><path d="M78.2031 69.025L85.9031 64.5734V47.0078L78.2031 51.4594V69.025Z" fill="#EC7919"></path><path d="M75.35 78.3407L80.7125 75.2297V52.7828L72.7891 57.3547V67.5985L75.35 68.8703V78.3407Z" fill="#EB9500"></path><path d="M80.7125 52.7828L72.7891 57.3547L27.9641 31.2984L35.8875 26.7266L80.7125 52.7828Z" fill="#F3BF65"></path><g style="mix-blend-mode:multiply"><path d="M59.125 55.2579L55.1031 60.4141L54.9141 60.6547L49.8437 63.5938L43.4844 67.1516L41.5937 66.0344C40.3189 67.2411 38.7475 68.089 37.0391 68.4922C34.0416 69.321 30.8755 69.321 27.8781 68.4922C24.4406 67.5641 22.0516 65.5532 22.0516 63.2329C22.0516 61.2391 23.7703 59.5032 26.4516 58.4375C26.7686 58.2975 27.0962 58.1825 27.4312 58.0938L27.8094 57.9735L24.2344 55.8766L30.5078 52.2672V49.5688L30.6797 49.4485L34.1172 50.1532L39.4797 51.2532L59.125 55.2579Z" fill="#C4C4C4"></path></g><path d="M48.8813 54.1235V56.8219C48.8813 59.1251 46.5094 61.136 43.0547 62.0985L41.9031 62.3735L41.4391 62.4594H41.0781H40.6828C40.3523 62.5059 40.0195 62.5345 39.6859 62.5454H39.2563H37.6922H37.2625C36.9346 62.5346 36.6076 62.5059 36.2828 62.4594H35.8703C35.7559 62.469 35.6409 62.469 35.5266 62.4594L35.0625 62.3735C34.6684 62.302 34.2783 62.2102 33.8937 62.0985L33.3094 61.9266C32.9312 61.8063 32.5875 61.6688 32.2609 61.5313L31.9 61.3766C31.625 61.2563 31.3672 61.1188 31.1094 60.9813L30.7656 60.7751C30.4323 60.5639 30.1109 60.3344 29.8031 60.0876L29.5625 59.8641C29.3946 59.7108 29.2394 59.5441 29.0984 59.3657C28.9619 59.2138 28.8356 59.053 28.7203 58.8844L28.4969 58.4376C28.4198 58.3069 28.3564 58.1687 28.3078 58.0251C28.3078 58.0251 28.3078 57.8876 28.3078 57.8016V57.6813C28.2388 57.4059 28.2042 57.123 28.2047 56.8391V54.1235C28.2047 52.1469 29.9234 50.3766 32.6047 49.3282L33.5672 48.9844L34.0312 48.8297C37.0351 48.0502 40.1883 48.0502 43.1922 48.8297C46.5094 49.8438 48.8813 51.8032 48.8813 54.1235Z" fill="#4A7EA1"></path><path d="M43.0547 48.8297H42.9688V62.1672H43.1406C46.5781 61.2047 48.9672 59.1938 48.9672 56.8906V54.1235C48.8812 51.8031 46.5094 49.8438 43.0547 48.8297Z" fill="#528CB3"></path><path d="M48.8812 54.1235C48.8812 56.4438 46.5094 58.4547 43.0547 59.4001C40.0537 60.2022 36.8947 60.2022 33.8937 59.4001C30.4562 58.4547 28.0672 56.4438 28.0672 54.1235C28.0672 52.1469 29.7859 50.3766 32.4672 49.3282L33.4297 48.9844L33.8937 48.8297C36.8976 48.0502 40.0508 48.0502 43.0547 48.8297C46.5094 49.8438 48.8812 51.8032 48.8812 54.1235Z" fill="#65ACDC"></path><path d="M70.7953 60.1562L24.7328 33.3609V30.2328L70.7953 57.0453V60.1562Z" fill="#686868"></path><path d="M60.9125 54.2094L49.5 60.8094L28.8062 48.6922V45.925L60.9125 54.2094Z" fill="#5D6269"></path><path d="M49.5 58.0422V60.8094L59.1078 55.2579L59.0219 52.5422L49.5 58.0422Z" fill="#878787"></path><path d="M60.9125 51.4594L49.5 58.0422L28.8062 45.925L40.2187 39.3422L60.9125 51.4594Z" fill="#C8BEB2"></path><path d="M65.5359 52.2156V59.5375C65.5359 59.9156 65.1578 60.225 64.6078 60.3797H64.4359H63.3531H63.1641H62.9922H62.8719L62.7172 60.2594V60.1734C62.7074 60.1281 62.7074 60.0812 62.7172 60.0359V52.2156C62.7172 51.9062 62.9922 51.6312 63.4047 51.4594H63.5594C63.7992 51.4321 64.0414 51.4321 64.2813 51.4594C64.521 51.431 64.7633 51.431 65.0031 51.4594C65.1578 51.5625 65.5359 51.8547 65.5359 52.2156Z" fill="#C6C6C6"></path><path d="M62.2531 59.5375C62.2434 59.5828 62.2434 59.6297 62.2531 59.675V59.7609L62.4078 59.8812H62.5281H62.7H62.8891H63.5937V52.7312L62.2188 52.1641L62.2531 59.5375Z" fill="#B3B3B3"></path><path d="M70.7953 60.1563L90.6297 48.6922V45.5813L70.7953 57.0454V60.1563Z" fill="#878787"></path><path d="M77.1891 61.3938L86.1094 56.2375V51.3047L70.7953 60.1562L77.1891 61.3938Z" fill="#878787"></path><path d="M90.6297 45.564L81.1938 51.0125L79.75 51.8718H79.7328L70.7953 57.0281L24.75 30.25L33.6703 25.1109V25.1281L35.1313 25.9531V24.2515L44.6016 18.7859L90.6297 45.564Z" fill="#ABABAB"></path><path d="M81.2453 51.0297L79.75 51.8719H79.7328L35.1313 25.9532V24.2688L81.1938 51.0126L81.2453 51.0297Z" fill="#828282"></path><path d="M32.8281 34.9593V42.2812C32.8281 42.6421 32.4672 42.9515 31.9172 43.1062H31.7281H30.6625H30.4734H30.3875H30.2156H30.0953C30.0341 43.0804 29.9807 43.0389 29.9406 42.9859L29.8547 42.9C29.8463 42.8603 29.8463 42.8193 29.8547 42.7796V34.9593C29.8547 34.6328 30.1297 34.3578 30.5422 34.2031H30.6969C31.1713 34.0886 31.6662 34.0886 32.1406 34.2031C32.4672 34.2718 32.8281 34.5812 32.8281 34.9593Z" fill="#C6C6C6"></path><path d="M29.5625 42.2813C29.5542 42.3209 29.5542 42.3619 29.5625 42.4016L29.6484 42.4875C29.6885 42.5405 29.7419 42.582 29.8031 42.6078H29.9234H30.0953H30.1813H30.3703H30.9375V34.8735L29.5625 34.3063V42.2813Z" fill="#B3B3B3"></path><path d="M29.5625 36.2484L53.8141 23.2891L49.5 20.7969L41.0094 21.8453L25.2484 33.7734L29.5625 36.2484Z" fill="#89D9FC"></path><path d="M29.5625 39.8062L53.8141 25.8156V23.2891L45.3234 24.3203L29.5625 36.2484V39.8062Z" fill="#479DFB"></path><path d="M29.5625 39.8063L25.2484 37.3141V33.7734L29.5625 36.2484V39.8063Z" fill="#1F57F9"></path><path d="M41.0094 21.8453L45.3234 24.3203L29.5625 36.2485L25.2484 33.7735L41.0094 21.8453Z" fill="#68C2FF"></path><path d="M32.8281 24.389V31.7109C32.8281 32.0719 32.4672 32.3984 31.9172 32.5531H31.7281H30.6625H30.4734H30.3875H30.2156H30.0953L29.9406 32.45H29.8547V32.364C29.8463 32.3186 29.8463 32.272 29.8547 32.2265V24.389C29.8547 24.0797 30.1297 23.8047 30.5422 23.6328H30.6969C31.1683 23.4953 31.6692 23.4953 32.1406 23.6328C32.4672 23.7187 32.8281 24.0625 32.8281 24.389Z" fill="#C6C6C6"></path><path d="M29.5625 31.711C29.5541 31.7564 29.5541 31.803 29.5625 31.8485V31.9344H29.6484L29.8031 32.0375H29.9234H30.0953H30.1812H30.3703H30.9375V24.9047L29.5625 24.3375V31.711Z" fill="#B3B3B3"></path><path d="M31.1953 25.2484C32.0876 25.2484 32.8109 24.8405 32.8109 24.3375C32.8109 23.8344 32.0876 23.4265 31.1953 23.4265C30.303 23.4265 29.5797 23.8344 29.5797 24.3375C29.5797 24.8405 30.303 25.2484 31.1953 25.2484Z" fill="white"></path><path d="M25.8844 29.2187L29.5625 27.1562C29.7344 27.0531 30.0094 27.1562 30.2328 27.3797L30.3188 27.4656V27.5515V27.6547C30.3188 27.6547 30.3188 27.6547 30.3188 27.7578C30.3268 27.7917 30.3268 27.827 30.3188 27.8609V28.0156C30.3268 28.0495 30.3268 28.0848 30.3188 28.1187L26.8297 30.9375C26.675 31.0406 26.4516 30.9375 26.2453 30.8172C26.1512 30.7089 26.065 30.5941 25.9875 30.4734C25.9211 30.354 25.8692 30.227 25.8328 30.0953C25.6438 29.6656 25.7813 29.3906 25.8844 29.2187Z" fill="#B1B1B1"></path><path d="M30.5078 28.8062C30.5159 28.7723 30.5159 28.737 30.5078 28.7031V28.5484C30.5159 28.5145 30.5159 28.4792 30.5078 28.4453C30.5078 28.4453 30.5078 28.4453 30.5078 28.3421V28.239L26.6406 30.4906L26.7438 31.3328L30.5078 28.8062Z" fill="#9A9A9A"></path><path d="M26.7953 30.9376C26.5375 31.0751 26.125 30.8344 25.8672 30.3876C25.6094 29.9407 25.6094 29.4594 25.8672 29.3047C26.125 29.1501 26.5203 29.4079 26.7781 29.8547C27.0359 30.3016 27.0531 30.7829 26.7953 30.9376Z" fill="#686868"></path><path d="M31.1953 29.4765L30.8 29.2187C30.4563 29.0296 30.3703 28.514 30.525 27.9296V27.7234C30.5315 27.672 30.5315 27.6201 30.525 27.5687C30.5299 27.5345 30.5299 27.4998 30.525 27.4656C30.5217 27.4255 30.5217 27.3853 30.525 27.3453L30.6281 27.2078C30.6648 27.1536 30.7115 27.107 30.7656 27.0703L30.9203 26.95H31.0578H31.2469H31.35H31.6766H31.8141L32.2266 27.1906C32.3759 27.3155 32.4861 27.4808 32.5441 27.6668C32.602 27.8527 32.6051 28.0513 32.5531 28.239C32.5531 28.239 32.5531 28.3421 32.5531 28.3937V28.4796C32.4794 28.7318 32.3755 28.9742 32.2438 29.2015C32.1173 29.4275 31.9613 29.6356 31.7797 29.8203C32.0375 29.4937 31.5391 29.6828 31.1953 29.4765Z" fill="#333333"></path><path d="M32.4672 29.0813L30.5078 27.9641C30.3531 28.5485 30.5078 29.0641 30.7828 29.2532L31.1781 29.4766C31.5391 29.6829 32.0375 29.4938 32.4672 29.0813Z" fill="#242424"></path><path d="M33.0344 28.2047C33.1174 28.0567 33.1864 27.9014 33.2406 27.7406V27.6547C33.2406 27.6547 33.2406 27.5516 33.2406 27.5C33.2926 27.3123 33.2895 27.1137 33.2315 26.9278C33.1736 26.7418 33.0634 26.5765 32.9141 26.4516L32.5016 26.2109H32.3641H32.0375H31.9344H31.7453H31.6078L31.4531 26.3312C31.399 26.3679 31.3523 26.4146 31.3156 26.4687L33.0344 28.2047Z" fill="#575757"></path><path d="M33.275 27.2594C33.2944 27.1096 33.2763 26.9574 33.2223 26.8164C33.1683 26.6754 33.0801 26.55 32.9656 26.4516L32.5531 26.2109H32.4156H32.0891H31.9859H31.7969L33.275 27.2594Z" fill="#454545"></path><path d="M31.1953 29.4766C30.9375 29.2188 30.7656 28.7719 30.9375 28.1875C31.0037 27.9327 31.108 27.6893 31.2469 27.4657C31.3733 27.2397 31.5294 27.0316 31.7109 26.8469C32.1406 26.4344 32.6391 26.2454 32.9828 26.4516C33.1322 26.5766 33.2424 26.7419 33.3003 26.9278C33.3582 27.1137 33.3614 27.3124 33.3094 27.5C33.3094 27.5 33.3094 27.6032 33.3094 27.6547V27.7407C33.2357 27.9929 33.1318 28.2352 33 28.4625C32.8736 28.6886 32.7175 28.8967 32.5359 29.0813C32.0375 29.4938 31.5391 29.6829 31.1953 29.4766Z" fill="#767274"></path><path d="M81.2453 54.175V51.0297L79.7328 51.8719V55.0172L81.2453 54.175Z" fill="#828282"></path><path d="M79.7328 55.0172L81.2453 54.175L79.7328 53.2985V55.0172Z" fill="#C8BEB2"></path><path d="M55.2062 53.0406L40.15 44.3438V19.3531L55.2062 28.05V53.0406Z" fill="#AC5200"></path><path d="M40.15 19.3531L55.2062 28.0499L73.0812 17.7546L64.4016 5.37964L40.15 19.3531Z" fill="#F4C26C"></path><path d="M55.2063 53.0407L79.4578 39.0672V20.6594L70.9672 8.6969L60.3281 14.8156V25.111L55.2063 28.05V53.0407Z" fill="#EB9500"></path><path d="M45.2719 6.11875L60.3281 14.8156L70.9672 8.69687L55.9109 0L45.2719 6.11875Z" fill="#F4C26C"></path><path d="M60.3281 25.111L45.2547 16.4141V6.11877L60.3281 14.8156V25.111Z" fill="#AC5200"></path><path d="M62.2531 53.5219L86.5047 40.5453L82.1906 38.0703L73.7 39.1188L57.9563 51.0297L62.2531 53.5219Z" fill="#89D9FC"></path><path d="M62.2531 57.0625L86.5047 43.089V40.5453L78.0141 41.5937L62.2531 53.5218V57.0625Z" fill="#479DFB"></path><path d="M62.2531 57.0625L57.9563 54.5875V51.0297L62.2531 53.5218V57.0625Z" fill="#1F57F9"></path><path d="M73.7 39.1188L78.0141 41.5938L62.2531 53.5219L57.9563 51.0297L73.7 39.1188Z" fill="#68C2FF"></path><path d="M53.5562 42.5219L41.0437 27.139L43.0547 25.9359L53.5562 32.0031V42.5219Z" fill="#A1A4A8"></path><path d="M51.5453 43.725L41.0437 37.6578V27.139L51.5453 33.2062V43.725Z" fill="#383E47"></path><path d="M53.5563 32.0032L51.5453 33.2063V43.725L53.5563 42.5219V32.0032Z" fill="#73777D"></path><path d="M43.0891 31.2985L47.6781 37.5375L47.7125 38.586L43.0891 35.9219V31.2985Z" fill="#339F48"></path><path d="M43.9828 31.7454L47.6781 33.8938V37.5376L43.9828 35.3891V31.7454Z" fill="#17CF77"></path><path d="M43.0891 35.9219L43.9828 35.3891V31.7453L43.0891 31.2985V35.9219Z" fill="#2A8D34"></path><path d="M57.4578 16.6718V23.5468C56.8836 23.8679 56.2716 24.1161 55.6359 24.2859H55.5156V15.6921L57.4578 16.6718Z" fill="#D63838"></path><path d="M47.5922 11.0687C46.3203 11.7906 45.4094 12.7015 45.4094 13.8015V20.6765C45.3832 20.8704 45.3832 21.067 45.4094 21.2609V21.4328L45.5469 21.725L45.7016 21.9828C45.7763 22.1054 45.8626 22.2205 45.9594 22.3265C46.0625 22.4297 46.1656 22.55 46.2859 22.6531L46.4406 22.8078C46.65 22.9818 46.8743 23.1371 47.1109 23.2719L47.3344 23.4094H47.4375L47.5922 11.0687Z" fill="#A32A2A"></path><path d="M57.4578 16.6718C56.885 16.9959 56.2726 17.2443 55.6359 17.4109H55.5156C54.5351 17.6741 53.523 17.8013 52.5078 17.789C52.1416 17.8147 51.774 17.8147 51.4078 17.789C50.7213 17.7487 50.0412 17.6334 49.3797 17.4453C47.025 16.775 45.4094 15.4687 45.4094 13.75C45.3831 13.5503 45.3831 13.348 45.4094 13.1484C45.4478 13.0198 45.4937 12.8935 45.5469 12.7703C45.6167 12.616 45.6971 12.4667 45.7875 12.3234C45.8976 12.207 46.0252 12.1084 46.1656 12.0312C46.4353 11.7244 46.7479 11.4581 47.0937 11.2406L47.5578 10.9656L51.4078 13.1828L55.5156 15.5546L57.4578 16.6718Z" fill="#FF5C5C"></path><path d="M65.5359 41.6624V48.9843C65.5359 49.3453 65.1578 49.6718 64.6078 49.8093H64.4359H63.3531H63.1641H62.9922H62.8719L62.7172 49.7062V49.6203C62.7088 49.5748 62.7088 49.5282 62.7172 49.4828V41.6624C62.7172 41.3531 62.9922 41.0781 63.4047 40.9062H63.5594C63.7935 40.8359 64.0368 40.8011 64.2813 40.8031C64.5258 40.7998 64.7693 40.8345 65.0031 40.9062C65.1578 40.9749 65.5359 41.2499 65.5359 41.6624Z" fill="#C6C6C6"></path><path d="M62.2531 48.9844C62.2447 49.0298 62.2447 49.0765 62.2531 49.1219V49.2078L62.4078 49.311H62.5281H62.7H62.8891H63.5937V42.1782L62.2188 41.611L62.2531 48.9844Z" fill="#B3B3B3"></path><path d="M62.2703 41.6109C62.2703 41.0953 62.9922 40.7 63.8859 40.7C64.7797 40.7 65.5016 41.0953 65.5016 41.6109C65.5016 42.1265 64.7797 42.5218 63.8859 42.5218C62.9922 42.5218 62.2703 42.1093 62.2703 41.6109Z" fill="white"></path><path d="M58.575 46.5609L62.2531 44.4297C62.4422 44.3265 62.7 44.4297 62.9406 44.6531V44.739C62.9406 44.739 62.9406 44.739 62.9406 44.825V44.9281C62.9406 44.9281 62.9406 44.9281 62.9406 45.0312C62.9406 45.0312 62.9406 45.0312 62.9406 45.1343V45.564L59.5203 48.125C59.3656 48.2281 59.1594 48.125 58.9531 48.0047C58.8486 47.9053 58.7614 47.7891 58.6953 47.6609C58.6137 47.5411 58.5553 47.407 58.5234 47.2656C58.4375 46.939 58.4375 46.664 58.575 46.5609Z" fill="#B1B1B1"></path><path d="M63.1984 46.0797V45.65C63.1984 45.65 63.1984 45.65 63.1984 45.5469C63.1984 45.5469 63.1984 45.5469 63.1984 45.4438V45.2891L59.3141 47.5234L59.4344 48.3828L63.1984 46.0797Z" fill="#9A9A9A"></path><path d="M59.4859 48.2109C59.2453 48.3484 58.8328 48.1077 58.5578 47.6609C58.2828 47.214 58.3 46.7328 58.5578 46.5781C58.8156 46.4234 59.2281 46.6812 59.4859 47.1281C59.7438 47.5749 59.7438 48.1249 59.4859 48.2109Z" fill="#686868"></path><path d="M63.9031 46.7501L63.4906 46.5266C63.3169 46.363 63.1975 46.1501 63.1483 45.9166C63.0991 45.6831 63.1226 45.4401 63.2156 45.2204V45.0313C63.2092 44.98 63.2092 44.928 63.2156 44.8766V44.7563V44.6532V44.5157L63.3531 44.3782V44.2922L63.5078 44.1719H63.6281H63.8172H63.9375H64.2641C64.3031 44.1588 64.3453 44.1588 64.3844 44.1719L64.7969 44.3954C64.948 44.519 65.0595 44.6842 65.1175 44.8706C65.1756 45.0569 65.1776 45.2563 65.1234 45.4438C65.1234 45.4438 65.1234 45.5641 65.1234 45.6157V45.7016C65.0529 45.9523 64.9549 46.1943 64.8313 46.4235C64.699 46.6502 64.5372 46.8583 64.35 47.0422C64.7281 46.7672 64.2297 46.9563 63.9031 46.7501Z" fill="#333333"></path><path d="M65.1578 46.4062L63.1984 45.2891C63.1054 45.5088 63.0819 45.7518 63.1311 45.9853C63.1803 46.2188 63.2997 46.4317 63.4734 46.5953L63.8859 46.8187C64.2297 46.9562 64.7281 46.7672 65.1578 46.4062Z" fill="#242424"></path><path d="M65.7422 45.4782C65.8198 45.3299 65.8831 45.1745 65.9313 45.0141V44.9282C65.9313 44.9282 65.9313 44.8251 65.9313 44.7563C65.9855 44.5688 65.9834 44.3695 65.9253 44.1831C65.8673 43.9967 65.7558 43.8315 65.6047 43.7079L65.3125 43.4844C65.2735 43.4713 65.2312 43.4713 65.1922 43.4844H64.7969H64.6766L64.4875 43.5704H64.3672L64.2125 43.6907V43.7766L64.075 43.9141V44.0001L65.7422 45.4782Z" fill="#575757"></path><path d="M65.9656 44.5157C65.9851 44.3659 65.9669 44.2137 65.9129 44.0727C65.8589 43.9317 65.7707 43.8063 65.6563 43.7079L65.3125 43.4844C65.2735 43.4713 65.2312 43.4713 65.1922 43.4844H64.7969H64.6766L64.4875 43.5704L65.9656 44.5157Z" fill="#454545"></path><path d="M63.9031 46.75C63.5594 46.561 63.4734 46.0453 63.6109 45.461C63.6846 45.2088 63.7885 44.9664 63.9203 44.7391C64.0467 44.5131 64.2028 44.305 64.3844 44.1203C64.8141 43.6906 65.3125 43.5188 65.6562 43.7078C65.8073 43.8314 65.9188 43.9967 65.9769 44.183C66.0349 44.3694 66.037 44.5687 65.9828 44.7563C65.9828 44.7563 65.9828 44.8766 65.9828 44.9281V45.0141C65.9122 45.2647 65.8143 45.5068 65.6906 45.736C65.5584 45.9627 65.3965 46.1707 65.2094 46.3547C64.7281 46.7672 64.2297 46.9563 63.9031 46.75Z" fill="#767274"></path></g><defs><clipPath id="clip0_5678_17995"><rect width="90.6469" height="110" fill="white"></rect></clipPath></defs></svg>