<svg xmlns="http://www.w3.org/2000/svg" width="91" height="80" viewBox="0 0 91 80" fill="none"><g clip-path="url(#clip0_5678_6385)"><path d="M2.85485 14.2529H0V50.1883H2.85485V14.2529Z" fill="#17262F"></path><path d="M78.337 62.3783H12.1831C9.09747 62.3467 6.13881 61.1454 3.90457 59.017C1.67033 56.8886 0.326966 53.9917 0.145764 50.9113C-0.0354375 47.8309 0.959021 44.7964 2.92832 42.4208C4.89762 40.0451 7.69502 38.5052 10.7556 38.1121V14.2741C10.7556 13.8955 10.906 13.5325 11.1737 13.2648C11.4414 12.9971 11.8045 12.8467 12.1831 12.8467H17.6858V15.7015H13.6105V39.4325C13.6105 39.811 13.4601 40.1741 13.1924 40.4418C12.9247 40.7095 12.5616 40.8599 12.1831 40.8599C9.75279 40.9271 7.44462 41.9398 5.74944 43.6825C4.05425 45.4252 3.1058 47.7605 3.1058 50.1917C3.1058 52.6229 4.05425 54.9582 5.74944 56.7009C7.44462 58.4436 9.75279 59.4562 12.1831 59.5235H78.337C80.7673 59.4562 83.0755 58.4436 84.7707 56.7009C86.4659 54.9582 87.4143 52.6229 87.4143 50.1917C87.4143 47.7605 86.4659 45.4252 84.7707 43.6825C83.0755 41.9398 80.7673 40.9271 78.337 40.8599C77.9585 40.8599 77.5954 40.7095 77.3277 40.4418C77.06 40.1741 76.9096 39.811 76.9096 39.4325V15.7015H45.4563V12.8467H78.337C78.7156 12.8467 79.0787 12.9971 79.3464 13.2648C79.6141 13.5325 79.7645 13.8955 79.7645 14.2741V38.0907C82.8251 38.4838 85.6225 40.0237 87.5918 42.3994C89.5611 44.775 90.5555 47.8094 90.3743 50.8899C90.1931 53.9703 88.8498 56.8672 86.6155 58.9956C84.3813 61.124 81.4226 62.3253 78.337 62.3569V62.3783Z" fill="#17262F"></path><path d="M13.6105 14.2741H10.7556V4.99586C8.5469 5.34229 6.53543 6.46873 5.08594 8.17093C3.63644 9.87314 2.84491 12.0384 2.85484 14.2741H-6.89587e-06C-0.00188251 12.6723 0.311754 11.0859 0.922996 9.60531C1.53424 8.12474 2.43111 6.77906 3.56242 5.64511C4.69372 4.51116 6.03729 3.61113 7.51643 2.99643C8.99556 2.38172 10.5813 2.06437 12.1831 2.0625C12.5616 2.0625 12.9247 2.21289 13.1924 2.48058C13.4601 2.74828 13.6105 3.11135 13.6105 3.48992V14.2741Z" fill="#17262F"></path><path d="M90.5201 14.2529H87.6653V50.1883H90.5201V14.2529Z" fill="#17262F"></path><path d="M90.5201 14.2741H87.6653C87.6752 12.0384 86.8837 9.87314 85.4342 8.17093C83.9847 6.46873 81.9732 5.34229 79.7645 4.99586V14.2741H76.9096V3.48992C76.9096 3.11135 77.06 2.74828 77.3277 2.48058C77.5954 2.21289 77.9585 2.0625 78.337 2.0625C79.9388 2.06437 81.5245 2.38172 83.0037 2.99643C84.4828 3.61113 85.8264 4.51116 86.9577 5.64511C88.089 6.77906 88.9859 8.12474 89.5971 9.60531C90.2084 11.0859 90.522 12.6723 90.5201 14.2741Z" fill="#17262F"></path><path d="M63.0993 79.9999L27.0069 79.85C26.6283 79.85 26.2652 79.6997 25.9975 79.432C25.7298 79.1643 25.5794 78.8012 25.5794 78.4226V68.5163C25.5794 68.1377 25.7298 67.7746 25.9975 67.5069C26.2652 67.2393 26.6283 67.0889 27.0069 67.0889L63.0993 67.2387C63.4779 67.2387 63.8409 67.3891 64.1086 67.6568C64.3763 67.9245 64.5267 68.2876 64.5267 68.6662V78.5939C64.5269 78.7823 64.4897 78.9688 64.4175 79.1427C64.3452 79.3167 64.2392 79.4746 64.1056 79.6074C63.8345 79.865 63.4732 80.0059 63.0993 79.9999ZM28.4343 77.0023L61.6719 77.1451V70.065L28.4343 69.9437V77.0023Z" fill="#17262F"></path><path d="M63.7131 79.8643L62.4855 77.2878L70.2436 73.6122L62.4855 69.9437L63.7131 67.3672L74.1832 72.3632C74.4285 72.4784 74.6358 72.6611 74.7811 72.8899C74.9263 73.1187 75.0034 73.384 75.0034 73.655C75.0034 73.926 74.9263 74.1913 74.7811 74.4201C74.6358 74.6488 74.4285 74.8315 74.1832 74.9468L63.7131 79.8643Z" fill="#17262F"></path><path d="M27.0069 79.8502H24.7444C20.4621 79.8502 16.9935 76.9953 16.9935 73.4625C16.9935 69.9296 20.4693 67.0391 24.7444 67.0391H27.0069V69.8939H24.7444C22.0894 69.8939 19.8483 71.514 19.8483 73.4625C19.8483 75.4109 22.0894 76.9953 24.7444 76.9953H27.0069V79.8502Z" fill="#17262F"></path><path d="M57.0684 72.1846H32.117V75.0394H57.0684V72.1846Z" fill="#17262F"></path><path d="M68.9446 48.104H23.5525C23.1739 48.104 22.8109 47.9536 22.5432 47.6859C22.2755 47.4182 22.1251 47.0552 22.1251 46.6766V1.5557C22.1268 1.36634 22.1662 1.17921 22.2409 1.00521C22.3157 0.831218 22.4243 0.673835 22.5604 0.54223L22.6889 0.413762C22.8215 0.281045 22.9789 0.17576 23.1522 0.103925C23.3255 0.0320913 23.5112 -0.00488281 23.6988 -0.00488281C23.8864 -0.00488281 24.0721 0.0320913 24.2454 0.103925C24.4187 0.17576 24.5761 0.281045 24.7087 0.413762L69.9438 45.6774C70.1394 45.8769 70.2722 46.1294 70.3256 46.4037C70.3791 46.6779 70.3508 46.9619 70.2445 47.2202C70.1381 47.4786 69.9582 47.7001 69.7271 47.8572C69.4961 48.0143 69.224 48.1001 68.9446 48.104ZM24.9799 45.2492H65.4974L24.9799 4.746V45.2492Z" fill="#17262F"></path><path d="M51.7013 40.5816H30.7895C30.411 40.5816 30.0479 40.4312 29.7802 40.1635C29.5125 39.8958 29.3621 39.5327 29.3621 39.1541V18.3566C29.362 18.1682 29.3991 17.9817 29.4714 17.8077C29.5436 17.6338 29.6496 17.4759 29.7832 17.3431L29.8403 17.2789C30.1077 17.013 30.4695 16.8638 30.8466 16.8638C31.2237 16.8638 31.5855 17.013 31.853 17.2789L52.7148 38.1478C52.9136 38.3478 53.0487 38.6023 53.1031 38.8791C53.1575 39.1558 53.1286 39.4425 53.0202 39.7029C52.9117 39.9632 52.7286 40.1857 52.4939 40.3421C52.2591 40.4984 51.9834 40.5818 51.7013 40.5816ZM32.217 37.7267H48.2541L32.217 21.6825V37.7267Z" fill="#17262F"></path><path d="M29.6476 42.4229H26.7928V46.6766H29.6476V42.4229Z" fill="#17262F"></path><path d="M33.7086 44.0215H30.8538V46.6765H33.7086V44.0215Z" fill="#17262F"></path><path d="M38.2621 42.4229H35.4073V46.6766H38.2621V42.4229Z" fill="#17262F"></path><path d="M42.3231 44.0215H39.4683V46.6765H42.3231V44.0215Z" fill="#17262F"></path><path d="M46.8838 42.4229H44.0289V46.6766H46.8838V42.4229Z" fill="#17262F"></path><path d="M50.9448 44.0215H48.0899V46.6765H50.9448V44.0215Z" fill="#17262F"></path><path d="M55.5054 42.4229H52.6505V46.6766H55.5054V42.4229Z" fill="#17262F"></path><path d="M59.5664 44.0215H56.7116V46.6765H59.5664V44.0215Z" fill="#17262F"></path></g><defs><clipPath id="clip0_5678_6385"><rect width="90.5201" height="80" fill="white"></rect></clipPath></defs></svg>