<svg xmlns="http://www.w3.org/2000/svg" width="64" height="90" viewBox="0 0 64 90" fill="none"><g clip-path="url(#clip0_5678_33244)"><path d="M31.6358 31.8792C29.0414 31.8856 26.507 32.6608 24.3529 34.1069C22.1988 35.5529 20.5217 37.605 19.5332 40.0038C18.5448 42.4026 18.2895 45.0405 18.7996 47.5844C19.3097 50.1282 20.5623 52.4638 22.3991 54.2961C24.2359 56.1284 26.5746 57.3752 29.1197 57.879C31.6648 58.3828 34.3021 58.121 36.6984 57.1266C39.0948 56.1323 41.1427 54.45 42.5834 52.2924C44.0242 50.1347 44.7931 47.5985 44.7931 45.004C44.7921 43.278 44.4508 41.5691 43.7888 39.9751C43.1268 38.3811 42.1571 36.9332 40.9351 35.7142C39.7131 34.4953 38.2629 33.5291 36.6672 32.8711C35.0716 32.213 33.3619 31.876 31.6358 31.8792ZM31.6358 54.4542C29.7682 54.4478 27.9443 53.8881 26.3945 52.8458C24.8447 51.8035 23.6385 50.3254 22.9282 48.598C22.2179 46.8707 22.0354 44.9716 22.4036 43.1406C22.7719 41.3095 23.6745 39.6287 24.9975 38.3103C26.3204 36.9919 28.0043 36.0951 29.8366 35.7331C31.6688 35.3711 33.5673 35.5601 35.2922 36.2763C37.0171 36.9925 38.4911 38.2038 39.5281 39.7571C40.5651 41.3105 41.1185 43.1363 41.1185 45.004C41.1164 46.2472 40.8694 47.4777 40.3917 48.6254C39.914 49.7731 39.2149 50.8155 38.3344 51.693C37.4538 52.5706 36.4091 53.2661 35.2597 53.7398C34.1104 54.2136 32.879 54.4563 31.6358 54.4542Z" fill="#17262F"></path><path d="M31.6358 4.98878C29.0414 4.99519 26.507 5.7704 24.3529 7.21647C22.1988 8.66254 20.5217 10.7146 19.5332 13.1134C18.5448 15.5122 18.2895 18.1501 18.7996 20.694C19.3097 23.2378 20.5623 25.5734 22.3991 27.4057C24.2359 29.238 26.5746 30.4848 29.1197 30.9886C31.6648 31.4924 34.3021 31.2306 36.6984 30.2362C39.0948 29.2419 41.1427 27.5597 42.5834 25.402C44.0242 23.2443 44.7931 20.7081 44.7931 18.1136C44.791 16.3879 44.449 14.6795 43.7866 13.086C43.1243 11.4924 42.1545 10.045 40.9327 8.82623C39.711 7.60748 38.2611 6.6413 36.6659 5.98287C35.0708 5.32444 33.3616 4.98665 31.6358 4.98878ZM31.6358 27.58C29.7689 27.5736 27.9456 27.0143 26.3962 25.9728C24.8467 24.9312 23.6405 23.454 22.9297 21.7276C22.219 20.0012 22.0355 18.1029 22.4025 16.2723C22.7694 14.4418 23.6704 12.7609 24.9917 11.4419C26.313 10.1228 27.9954 9.22473 29.8266 8.86088C31.6578 8.49703 33.5558 8.68375 35.281 9.39748C37.0062 10.1112 38.4813 11.3199 39.5202 12.8712C40.5591 14.4224 41.1153 16.2466 41.1185 18.1136C41.1185 19.3581 40.8731 20.5904 40.3964 21.74C39.9196 22.8896 39.2209 23.9339 38.3401 24.8131C37.4594 25.6924 36.4139 26.3893 35.2635 26.8641C34.1131 27.3389 32.8804 27.5822 31.6358 27.58Z" fill="#17262F"></path><path d="M31.6358 58.7617C29.0391 58.7665 26.502 59.5411 24.3454 60.9874C22.1887 62.4338 20.5092 64.487 19.5192 66.8876C18.5291 69.2882 18.273 71.9285 18.7831 74.4746C19.2933 77.0208 20.5468 79.3586 22.3852 81.1925C24.2237 83.0264 26.5646 84.2742 29.112 84.778C31.6594 85.2819 34.299 85.0192 36.6972 84.0232C39.0953 83.0273 41.1444 81.3427 42.5854 79.1825C44.0265 77.0223 44.7947 74.4833 44.7931 71.8866C44.791 70.1609 44.449 68.4525 43.7866 66.8589C43.1242 65.2654 42.1545 63.8179 40.9327 62.5992C39.7109 61.3804 38.2611 60.4143 36.6659 59.7558C35.0708 59.0974 33.3615 58.7596 31.6358 58.7617ZM31.6358 81.3368C29.7682 81.3303 27.9443 80.7707 26.3944 79.7284C24.8446 78.6861 23.6384 77.2079 22.9282 75.4806C22.2179 73.7532 22.0353 71.8541 22.4036 70.0231C22.7719 68.1921 23.6745 66.5113 24.9974 65.1929C26.3204 63.8745 28.0043 62.9776 29.8365 62.6156C31.6688 62.2536 33.5673 62.4426 35.2922 63.1589C37.0171 63.8751 38.4911 65.0863 39.5281 66.6397C40.565 68.1931 41.1185 70.0189 41.1185 71.8866C41.1174 73.13 40.8712 74.361 40.3939 75.5092C39.9165 76.6574 39.2175 77.7002 38.3367 78.578C37.456 79.4557 36.4108 80.1512 35.261 80.6246C34.1112 81.0979 32.8793 81.34 31.6358 81.3368Z" fill="#17262F"></path><path d="M63.3204 33.9883C63.3527 33.7322 63.3295 33.4723 63.2526 33.2259C63.1756 32.9796 63.0466 32.7527 62.8742 32.5606C62.7045 32.3678 62.4963 32.2126 62.263 32.105C62.0297 31.9974 61.7765 31.9399 61.5196 31.936L51.9153 31.8387V30.8247C60.6354 27.6936 63.0608 9.24741 63.3204 7.04101C63.3499 6.78547 63.3255 6.52659 63.2488 6.28105C63.1722 6.0355 63.0449 5.80875 62.8752 5.6154C62.7056 5.42205 62.4973 5.26639 62.2638 5.15845C62.0303 5.05052 61.7768 4.9927 61.5196 4.98873L51.6557 4.86706C51.2559 3.46662 50.4113 2.23431 49.2494 1.35627C48.0874 0.478239 46.6713 0.00217678 45.2149 0L18.1217 0C16.6649 0.00084828 15.2482 0.476406 14.086 1.35464C12.9238 2.23287 12.0795 3.46594 11.6809 4.86706L1.81701 4.98873C1.55843 4.99045 1.30312 5.04661 1.06768 5.15355C0.832249 5.26049 0.621979 5.41583 0.450565 5.60943C0.279152 5.80304 0.150437 6.03058 0.0728025 6.27723C-0.00483193 6.52389 -0.0296454 6.78413 -2.20658e-05 7.04101C0.275778 9.24741 2.7012 27.6936 11.4213 30.8247V31.8387L1.81701 31.936C1.56013 31.9399 1.3069 31.9974 1.0736 32.105C0.840295 32.2126 0.632083 32.3678 0.462348 32.5606C0.287153 32.7513 0.155157 32.9776 0.0753632 33.224C-0.00443023 33.4704 -0.0301433 33.7311 -2.20658e-05 33.9883C0.259554 36.1947 2.68497 54.6489 11.4051 57.772V58.7859L1.80079 58.8833C1.54391 58.8871 1.29068 58.9447 1.05737 59.0523C0.824071 59.1598 0.615859 59.315 0.446125 59.5079C0.273805 59.7 0.144788 59.9269 0.067813 60.1732C-0.00916191 60.4195 -0.032296 60.6795 -2.20658e-05 60.9356C0.259554 63.1582 2.71742 81.8315 11.5755 84.776C11.9042 86.2677 12.7322 87.6025 13.9225 88.5598C15.1128 89.517 16.5942 90.0394 18.1217 90.0406H45.2149C46.7271 90.0287 48.1909 89.5062 49.3688 88.558C50.5468 87.6097 51.3698 86.2913 51.7044 84.8166C60.5624 81.872 63.0203 63.1987 63.2798 60.9761C63.3121 60.7201 63.289 60.4601 63.212 60.2138C63.135 59.9674 63.006 59.7406 62.8337 59.5485C62.664 59.3556 62.4557 59.2004 62.2224 59.0928C61.9891 58.9853 61.7359 58.9277 61.479 58.9238L51.9153 58.7859V57.772C60.6354 54.6489 63.0608 36.1947 63.3204 33.9883ZM59.3781 35.6106C58.4858 41.0455 56.0685 50.7066 51.9153 53.6755V35.5133L59.3781 35.6106ZM51.9153 26.7039V8.56602L59.3781 8.63903C58.4858 14.0739 56.0685 23.735 51.9153 26.7039ZM3.95852 8.63903L11.4213 8.56602V26.7039C7.30056 23.7269 4.86704 14.0658 3.95852 8.63903ZM3.95852 35.5863L11.4213 35.5133V53.6512C7.30056 50.6823 4.86704 41.0212 3.95852 35.5863ZM3.95852 62.5336L11.4213 62.4606V80.5985C7.30056 77.6296 4.86704 67.9685 3.95852 62.5336ZM48.2406 83.2997C48.2406 84.1021 47.9219 84.8717 47.3544 85.4392C46.787 86.0066 46.0174 86.3254 45.2149 86.3254H18.1217C17.3192 86.3254 16.5496 86.0066 15.9822 85.4392C15.4147 84.8717 15.096 84.1021 15.096 83.2997V6.70843C15.096 5.90522 15.4145 5.13479 15.9817 4.56607C16.5489 3.99736 17.3184 3.67678 18.1217 3.67463H45.2149C46.0182 3.67678 46.7877 3.99736 47.3549 4.56607C47.9221 5.13479 48.2406 5.90522 48.2406 6.70843V83.2997ZM59.3781 62.5336C58.4858 67.9685 56.0685 77.6296 51.9153 80.5985V62.4606L59.3781 62.5336Z" fill="#17262F"></path></g><defs><clipPath id="clip0_5678_33244"><rect width="63.3366" height="90" fill="white"></rect></clipPath></defs></svg>