<svg xmlns="http://www.w3.org/2000/svg" width="65" height="100" viewBox="0 0 65 100" fill="none"><g clip-path="url(#clip0_5678_16757)"><path d="M44.8858 30.5151C44.9198 30.4114 44.9759 30.3163 45.0502 30.2364C45.1246 30.1565 45.2154 30.0936 45.3164 30.0522C45.4174 30.0108 45.5261 29.9918 45.6352 29.9966C45.7442 30.0013 45.8509 30.0297 45.948 30.0797C46.0495 30.1168 46.1423 30.1745 46.2205 30.2491C46.2988 30.3238 46.3608 30.4138 46.4026 30.5135C46.4445 30.6131 46.4653 30.7204 46.4639 30.8285C46.4624 30.9366 46.4386 31.0433 46.3941 31.1418L46.2985 31.4073C46.2546 31.5151 46.1894 31.6128 46.1067 31.6947C46.024 31.7765 45.9255 31.8407 45.8173 31.8834C45.7091 31.9261 45.5933 31.9464 45.477 31.943C45.3608 31.9397 45.2463 31.9128 45.1407 31.8641C44.9548 31.7666 44.8092 31.6066 44.7295 31.4123C44.6498 31.218 44.6413 31.0019 44.7053 30.8019L44.8858 30.5151ZM43.7493 33.0536C43.7837 32.9501 43.8398 32.855 43.9139 32.775C43.9881 32.6949 44.0785 32.6316 44.1791 32.5893C44.2797 32.5471 44.3882 32.5268 44.4972 32.53C44.6063 32.5331 44.7135 32.5596 44.8115 32.6075C45.0207 32.7028 45.1845 32.8761 45.2678 33.0904C45.3512 33.3047 45.3475 33.543 45.2576 33.7547L43.6537 37.2491C43.6143 37.3487 43.5551 37.4394 43.4798 37.5156C43.4044 37.5919 43.3145 37.6521 43.2153 37.6928C43.1162 37.7334 43.0098 37.7537 42.9026 37.7522C42.7955 37.7508 42.6897 37.7278 42.5916 37.6846C42.49 37.6477 42.3972 37.5899 42.3193 37.5151C42.2413 37.4402 42.1798 37.3499 42.1388 37.2499C42.0978 37.1499 42.0781 37.0424 42.0811 36.9343C42.0841 36.8263 42.1097 36.72 42.1561 36.6224L43.7493 33.0536ZM40.8603 39.4265C40.9595 39.2235 41.1319 39.0657 41.3428 38.9849C41.5537 38.904 41.7874 38.9062 41.9968 38.991C42.1051 39.033 42.2039 39.0963 42.2874 39.1772C42.3709 39.258 42.4373 39.3547 42.4828 39.4616C42.5284 39.5685 42.5521 39.6834 42.5525 39.7996C42.5529 39.9158 42.5301 40.0309 42.4854 40.1381L31.8641 64.0149C31.7791 64.1105 31.7791 64.1954 31.6091 64.2804L26.1816 69.4424C26.0291 69.5897 25.8254 69.672 25.6134 69.672C25.4014 69.672 25.1976 69.5897 25.0451 69.4424C24.8817 69.2781 24.7868 69.0579 24.7796 68.8263V61.2215C24.7655 61.0712 24.795 60.92 24.8646 60.786L45.1407 14.7637C45.2358 14.5571 45.4079 14.3959 45.6203 14.3145C45.8327 14.2331 46.0684 14.238 46.2772 14.3282C46.4578 14.4132 46.5428 14.5937 46.6277 14.6787L48.2103 17.3872L51.3967 16.6861C51.6064 16.6417 51.8252 16.6813 52.006 16.7965C52.1867 16.9117 52.315 17.0933 52.3633 17.3022C52.3758 17.481 52.3429 17.66 52.2677 17.8226L47.5518 28.444C47.5149 28.5456 47.4572 28.6384 47.3823 28.7163C47.3075 28.7943 47.2171 28.8558 47.1171 28.8968C47.0171 28.9378 46.9096 28.9574 46.8015 28.9545C46.6935 28.9515 46.5872 28.9259 46.4897 28.8795C46.389 28.8412 46.2973 28.7828 46.2203 28.7077C46.1432 28.6326 46.0823 28.5424 46.0415 28.4429C46.0007 28.3433 45.9807 28.2364 45.9829 28.1288C45.9851 28.0212 46.0093 27.9152 46.0542 27.8173L50.0797 18.6299L48.0616 19.0653C47.898 19.1034 47.7267 19.0902 47.5708 19.0275C47.415 18.9648 47.2823 18.8556 47.1907 18.7148L46.0542 16.7924L26.3303 61.3914L26.4153 66.9145L30.4514 63.1545L40.8603 39.4265Z" fill="#17262F"></path><path d="M45.0557 0.499301C45.1554 0.538772 45.246 0.597946 45.3223 0.673279C45.3985 0.748612 45.4588 0.838556 45.4994 0.937725C45.5401 1.03689 45.5603 1.14325 45.5589 1.25042C45.5575 1.35759 45.5345 1.46337 45.4912 1.56144C45.4452 1.66468 45.3793 1.75784 45.2973 1.8356C45.2153 1.91337 45.1187 1.97421 45.0132 2.01465C44.9077 2.05509 44.7952 2.07434 44.6822 2.0713C44.5692 2.06825 44.4579 2.04298 44.3547 1.99691L43.2182 8.90079L48.2103 17.3979L57.9182 15.2099L62.1136 9.89919L53.7228 6.13924C53.6253 6.09793 53.5377 6.03627 53.4659 5.95839C53.3942 5.8805 53.3399 5.78819 53.3067 5.68763C53.2735 5.58707 53.2622 5.48058 53.2735 5.37528C53.2848 5.26999 53.3185 5.16833 53.3723 5.0771C53.4062 4.97338 53.4623 4.87827 53.5367 4.79835C53.611 4.71843 53.7018 4.65559 53.8028 4.61419C53.9038 4.57278 54.0126 4.55379 54.1216 4.55853C54.2307 4.56327 54.3374 4.59162 54.4344 4.64163L63.7281 8.73085L63.898 8.81582C64.0679 8.96537 64.1784 9.17088 64.2096 9.39502C64.2408 9.61915 64.1905 9.84704 64.068 10.0373L59.0865 16.4101C58.9321 16.5501 58.7564 16.6648 58.5661 16.75L48.0297 19.1185C47.8661 19.1566 47.6948 19.1434 47.5389 19.0807C47.3831 19.018 47.2504 18.9088 47.1588 18.768L41.6463 9.55931C41.5864 9.46976 41.5477 9.36778 41.5329 9.26107C41.5182 9.15435 41.5279 9.04569 41.5613 8.94327L42.9527 0.679864C42.9613 0.609982 42.9954 0.545713 43.0483 0.499301C43.0852 0.397693 43.1429 0.30492 43.2178 0.226938C43.2926 0.148956 43.383 0.0874889 43.483 0.046482C43.583 0.00547504 43.6905 -0.0141654 43.7986 -0.0111785C43.9066 -0.00819167 44.0128 0.0173565 44.1104 0.0638259L45.0557 0.499301ZM52.1402 3.68571C52.2398 3.72518 52.3305 3.78435 52.4067 3.85968C52.483 3.93502 52.5432 4.02496 52.5839 4.12413C52.6245 4.2233 52.6448 4.32965 52.6434 4.43682C52.6419 4.54399 52.6189 4.64978 52.5757 4.74784C52.5402 4.85048 52.4832 4.9444 52.4086 5.02332C52.334 5.10225 52.2435 5.16438 52.143 5.20557C52.0425 5.24677 51.9344 5.2661 51.8259 5.26226C51.7173 5.25842 51.6108 5.23151 51.5135 5.18332L48.7307 3.91938C48.5483 3.81995 48.4106 3.65485 48.3455 3.45759C48.2804 3.26033 48.2928 3.04569 48.3802 2.85724C48.4157 2.7546 48.4726 2.66069 48.5472 2.58176C48.6218 2.50284 48.7124 2.44071 48.8129 2.39951C48.9134 2.35831 49.0215 2.33898 49.13 2.34282C49.2386 2.34666 49.345 2.37357 49.4424 2.42177L52.1402 3.68571ZM47.3287 1.56144C47.4303 1.59832 47.5231 1.65605 47.6011 1.73091C47.6791 1.80577 47.7405 1.8961 47.7815 1.99612C47.8225 2.09614 47.8422 2.20362 47.8392 2.31168C47.8362 2.41973 47.8107 2.52597 47.7642 2.62357C47.7247 2.72322 47.6655 2.81388 47.5902 2.89012C47.5149 2.96636 47.4249 3.02661 47.3258 3.06727C47.2266 3.10793 47.1202 3.12816 47.0131 3.12674C46.9059 3.12533 46.8001 3.10231 46.7021 3.05905H46.6277C46.4265 2.95803 46.2702 2.78547 46.1897 2.57521C46.1091 2.36496 46.11 2.13218 46.1922 1.92256C46.2932 1.72133 46.4658 1.5651 46.6761 1.48454C46.8863 1.40397 47.1191 1.40488 47.3287 1.48709V1.56144ZM50.0478 13.2449L54.7637 12.6289L56.2931 10.8339L47.5942 6.97832L47.2437 9.33626L50.0478 13.2449ZM55.2947 14.2115L49.7822 14.87C49.631 14.9019 49.4736 14.8852 49.3324 14.8222C49.1912 14.7593 49.0736 14.6533 48.9963 14.5195L45.7568 10.0585C45.6467 9.87506 45.5846 9.66686 45.5762 9.4531L46.0223 5.69314C46.0223 5.59755 46.1073 5.51258 46.1073 5.42761C46.1533 5.32437 46.2192 5.2312 46.3012 5.15344C46.3832 5.07568 46.4797 5.01483 46.5853 4.97439C46.6908 4.93395 46.8033 4.9147 46.9163 4.91775C47.0293 4.92079 47.1405 4.94607 47.2437 4.99213L58.0032 9.78236C58.0518 9.83063 58.1156 9.86065 58.1837 9.86733C58.343 10.0085 58.4409 10.2061 58.4568 10.4183C58.4726 10.6305 58.4052 10.8406 58.2687 11.0038L55.8152 13.8928C55.7629 13.9822 55.6861 14.0547 55.5938 14.1018C55.5016 14.1488 55.3978 14.1685 55.2947 14.1584V14.2115Z" fill="#17262F"></path><path d="M37.0048 92.0977C36.895 92.2893 36.7166 92.4321 36.5057 92.4972C36.2947 92.5622 36.0669 92.5447 35.8683 92.4482C35.6879 92.336 35.5535 92.1631 35.4893 91.9606C35.425 91.7581 35.4351 91.5393 35.5178 91.3436L45.077 74.7212L31.1524 64.7159L26.1604 69.4424C26.0079 69.5897 25.8042 69.672 25.5921 69.672C25.3801 69.672 25.1764 69.5897 25.0239 69.4424C24.8605 69.2782 24.7655 69.0579 24.7584 68.8264V61.8269L8.13595 58.4174L1.76314 78.1944L12.5969 98.2262L27.0419 94.8168C27.1446 94.7918 27.2512 94.7877 27.3554 94.8049C27.4596 94.822 27.5593 94.8599 27.6485 94.9164C27.7377 94.9729 27.8147 95.0468 27.8747 95.1337C27.9347 95.2206 27.9766 95.3188 27.9979 95.4222C28.0385 95.6436 27.9987 95.8722 27.8858 96.0669C27.7728 96.2616 27.5942 96.4096 27.3818 96.4843L12.342 99.9894C12.1675 100.026 11.9858 100.003 11.826 99.9239C11.6662 99.8449 11.5375 99.7147 11.4604 99.5539L0.0849644 78.7148C0.00907808 78.4894 -0.0198396 78.2508 -6.38328e-06 78.0138L6.82952 57.196C6.90445 57.0123 7.04052 56.8602 7.21472 56.7654C7.38892 56.6705 7.59053 56.6388 7.78544 56.6755L25.7249 60.3399C25.9085 60.4002 26.0672 60.5191 26.1766 60.6784C26.2859 60.8377 26.34 61.0285 26.3303 61.2215L26.4153 66.9145L30.5364 63.0696C30.6815 62.9446 30.8626 62.869 31.0536 62.8537C31.2445 62.8384 31.4353 62.8843 31.5985 62.9846L46.5427 73.8184C46.6343 73.8664 46.7148 73.9332 46.7787 74.0144C46.8427 74.0957 46.8887 74.1896 46.9138 74.2899C46.9388 74.3902 46.9424 74.4947 46.9242 74.5965C46.9061 74.6983 46.8665 74.7951 46.8083 74.8805L37.0048 92.0977ZM29.6548 95.9533C29.5455 95.9745 29.433 95.9729 29.3244 95.9485C29.2157 95.9242 29.1133 95.8776 29.0235 95.8118C28.9338 95.746 28.8586 95.6623 28.8027 95.566C28.7468 95.4697 28.7115 95.3629 28.6989 95.2523C28.6541 95.044 28.6923 94.8266 28.8053 94.6461C28.9184 94.4656 29.0974 94.3363 29.3043 94.2857L32.1933 93.5847C32.4144 93.5382 32.645 93.5815 32.8342 93.705C33.0234 93.8285 33.1558 94.0221 33.2023 94.2432C33.2488 94.4644 33.2055 94.6949 33.082 94.8841C32.9585 95.0734 32.7649 95.2058 32.5438 95.2523L29.6548 95.9533ZM34.9124 94.6362C34.8089 94.6699 34.6994 94.6804 34.5915 94.6671C34.4835 94.6538 34.3798 94.617 34.2877 94.5593C34.1955 94.5016 34.1171 94.4243 34.0581 94.333C33.999 94.2417 33.9607 94.1385 33.9458 94.0308C33.9224 93.9269 33.9197 93.8193 33.938 93.7144C33.9563 93.6094 33.9953 93.5091 34.0525 93.4192C34.1098 93.3294 34.1843 93.2517 34.2717 93.1908C34.3591 93.1299 34.4577 93.0869 34.5619 93.0643L34.8168 92.9793C34.9263 92.9472 35.0411 92.9376 35.1544 92.9508C35.2677 92.9641 35.3772 93.0001 35.4763 93.0566C35.5755 93.1131 35.6622 93.1889 35.7314 93.2797C35.8005 93.3704 35.8507 93.4742 35.8789 93.5847C35.9201 93.8048 35.8819 94.0323 35.771 94.2268C35.6601 94.4213 35.4838 94.5702 35.2735 94.6469L34.9124 94.6362Z" fill="#17262F"></path><path d="M37.8863 74.6895C37.934 74.5974 38.0009 74.5168 38.0825 74.4529C38.164 74.389 38.2584 74.3434 38.3592 74.3193C38.4599 74.2951 38.5647 74.2929 38.6664 74.3128C38.7681 74.3326 38.8643 74.3742 38.9485 74.4345C39.0543 74.4769 39.1494 74.5424 39.2266 74.6263C39.3039 74.7101 39.3614 74.8102 39.395 74.9191C39.4286 75.0281 39.4374 75.1431 39.4208 75.2559C39.4042 75.3687 39.3626 75.4764 39.299 75.571L31.6729 88.6884C31.565 88.8819 31.3866 89.0264 31.1749 89.0916C30.9632 89.1569 30.7345 89.138 30.5364 89.0389C30.3554 88.9192 30.227 88.7348 30.1776 88.5235C30.1282 88.3121 30.1616 88.0899 30.2708 87.9024L37.8863 74.6895Z" fill="#17262F"></path><path d="M34.1264 73.7335C34.1767 73.6347 34.2464 73.5469 34.3313 73.4755C34.4161 73.4041 34.5145 73.3505 34.6205 73.3178C34.7265 73.2851 34.8379 73.274 34.9483 73.2852C35.0586 73.2964 35.1656 73.3297 35.2629 73.383C35.4421 73.5043 35.5683 73.6895 35.6157 73.9007C35.663 74.1119 35.628 74.3332 35.5178 74.5195L30.7063 82.8466C30.6583 82.9382 30.5915 83.0187 30.5103 83.0826C30.429 83.1465 30.3351 83.1926 30.2348 83.2176C30.1345 83.2427 30.03 83.2463 29.9282 83.2281C29.8264 83.2099 29.7296 83.1704 29.6442 83.1122C29.4526 83.0024 29.3098 82.824 29.2447 82.6131C29.1797 82.4021 29.1972 82.1743 29.2937 81.9757L34.1264 73.7335Z" fill="#17262F"></path><path d="M9.27242 66.2029C9.29453 66.101 9.33847 66.005 9.40121 65.9217C9.46394 65.8383 9.54399 65.7696 9.63584 65.7201C9.72769 65.6707 9.82916 65.6417 9.93328 65.6352C10.0374 65.6287 10.1417 65.6448 10.239 65.6825C10.447 65.7283 10.6285 65.8545 10.7439 66.0335C10.8593 66.2126 10.8992 66.43 10.855 66.6384L6.99945 78.1944L12.1614 87.5518C12.242 87.7528 12.2511 87.9753 12.1873 88.1821C12.1235 88.389 11.9906 88.5677 11.8109 88.6883C11.6128 88.7875 11.3841 88.8064 11.1724 88.7411C10.9607 88.6758 10.7823 88.5313 10.6744 88.3378L5.42749 78.7149C5.3616 78.612 5.31728 78.4969 5.2972 78.3764C5.27711 78.2559 5.28169 78.1325 5.31066 78.0139L9.27242 66.2029Z" fill="#17262F"></path></g><defs><clipPath id="clip0_5678_16757"><rect width="64.1954" height="100" fill="white"></rect></clipPath></defs></svg>