<svg xmlns="http://www.w3.org/2000/svg" width="66" height="90" viewBox="0 0 66 90" fill="none"><g clip-path="url(#clip0_5678_33608)"><path d="M47.7823 40.4263C47.4539 40.2454 47.0742 40.1807 46.7044 40.2426C46.3347 40.3044 45.9967 40.4893 45.7451 40.7671C40.8226 46.1335 36.78 47.0372 31.6593 48.1707C28.8132 48.7194 26.0204 49.5151 23.3125 50.5487C20.3955 51.7298 18.4851 53.6322 17.629 56.2084C16.0437 60.9644 18.6357 66.8223 20.6174 70.2783C18.7384 71.7017 16.7566 72.9841 14.6882 74.1149C14.3462 74.2842 14.0723 74.5654 13.9121 74.9119C13.752 75.2583 13.7151 75.6491 13.8077 76.0194C13.9002 76.3897 14.1167 76.7172 14.421 76.9475C14.7254 77.1778 15.0994 77.2971 15.4809 77.2856C15.7572 77.2844 16.0292 77.2164 16.2736 77.0874C18.6464 75.7819 20.9149 74.2952 23.0588 72.6405C23.7485 73.0844 24.6442 73.6313 25.7222 74.2258L25.8253 74.2734C27.761 75.2102 29.8742 75.7236 32.024 75.7795C33.7212 75.7855 35.3907 75.3483 36.8672 74.5112C41.2665 72.1332 44.0726 66.2595 45.2219 57.2072L45.2616 56.898C45.5628 54.631 46.0542 51.8091 48.5908 42.3287C48.6887 41.9669 48.6622 41.5826 48.5156 41.2376C48.369 40.8927 48.1107 40.6069 47.7823 40.4263ZM41.9403 56.4462V56.7871C40.6879 66.6717 37.6281 70.31 35.2818 71.6179C33.1258 72.8149 30.5258 72.696 27.3155 71.2454C26.7844 70.96 26.3009 70.6826 25.8649 70.4527C26.8425 69.6019 27.8386 68.6798 28.8533 67.6863C29.4543 67.7997 30.0648 67.8554 30.6764 67.8528C32.4317 67.8208 34.1564 67.387 35.7178 66.5845C35.9151 66.4877 36.0913 66.353 36.2365 66.188C36.3817 66.0231 36.493 65.8312 36.564 65.6233C36.6351 65.4153 36.6645 65.1954 36.6505 64.9761C36.6366 64.7568 36.5795 64.5424 36.4827 64.3452C36.3859 64.1479 36.2512 63.9717 36.0863 63.8265C35.9214 63.6813 35.7294 63.57 35.5215 63.4989C35.3136 63.4279 35.0937 63.3985 34.8744 63.4125C34.6551 63.4264 34.4407 63.4834 34.2434 63.5803C33.4936 63.9589 32.6925 64.2259 31.8654 64.3729C33.8215 62.1559 35.6225 59.8066 37.2556 57.3419C37.3844 57.1594 37.4754 56.9529 37.5231 56.7347C37.5709 56.5165 37.5744 56.2909 37.5335 56.0712C37.4926 55.8516 37.4082 55.6424 37.2851 55.456C37.162 55.2695 37.0029 55.1096 36.817 54.9857C36.6311 54.8618 36.4223 54.7764 36.2028 54.7345C35.9834 54.6926 35.7578 54.6951 35.5393 54.7418C35.3209 54.7885 35.114 54.8786 34.9309 55.0066C34.7478 55.1346 34.5922 55.2979 34.4733 55.4871C32.8022 58.0162 30.9477 60.4191 28.9246 62.6766C28.6299 61.0076 28.4998 59.3138 28.5362 57.6194C28.5471 57.1837 28.3875 56.7609 28.0914 56.4411C27.7953 56.1213 27.3861 55.9298 26.9509 55.9072C26.7301 55.8976 26.5097 55.9326 26.3029 56.0103C26.096 56.0879 25.907 56.2066 25.7471 56.3591C25.5872 56.5115 25.4597 56.6948 25.3724 56.8977C25.285 57.1006 25.2395 57.3191 25.2387 57.5401C25.2387 58.1187 25.1515 62.6608 26.2374 65.5144C25.2149 66.4973 24.232 67.3772 23.2729 68.1698C21.7906 65.4747 19.6503 60.7266 20.7997 57.2706C21.1194 56.4294 21.6246 55.6711 22.2779 55.0521C22.9312 54.4332 23.7156 53.9695 24.5728 53.6956C27.1108 52.7206 29.7285 51.9674 32.3965 51.4444C36.2727 50.5804 39.9982 49.7481 43.9537 46.8866C43.086 50.0285 42.4136 53.2212 41.9403 56.4462Z" fill="#17262F"></path><path d="M65.4906 87.9866L61.9394 23.3997C61.919 22.9707 61.7335 22.5662 61.4218 22.2708C61.1101 21.9753 60.6963 21.8118 60.2669 21.8143H50.5804V17.7717C50.572 13.0415 48.6849 8.50844 45.3342 5.16966C41.9835 1.83087 37.4438 -0.0401192 32.7136 -0.0317101C27.9834 -0.0233009 23.4503 1.86382 20.1115 5.2145C16.7727 8.56518 14.9018 13.105 14.9102 17.8351V21.7985H5.23164C4.80276 21.7979 4.39004 21.9621 4.07877 22.2571C3.7675 22.5522 3.58146 22.9555 3.5591 23.3838L5.92577e-06 88.2323C-0.0118021 88.4596 0.0226635 88.6869 0.101313 88.9004C0.179963 89.1139 0.301158 89.3092 0.45755 89.4745C0.613942 89.6398 0.802273 89.7716 1.01112 89.8619C1.21998 89.9523 1.445 89.9992 1.67254 90H63.8418C64.2861 90 64.7124 89.824 65.0273 89.5106C65.3422 89.1972 65.5202 88.7718 65.5223 88.3275C65.5199 88.2132 65.5093 88.0993 65.4906 87.9866ZM18.2711 17.8351C18.2711 15.9333 18.6457 14.0501 19.3735 12.2931C20.1013 10.536 21.168 8.9395 22.5128 7.59471C23.8576 6.24993 25.4541 5.18318 27.2112 4.45539C28.9682 3.72759 30.8514 3.353 32.7532 3.353C34.655 3.353 36.5382 3.72759 38.2953 4.45539C40.0523 5.18318 41.6488 6.24993 42.9936 7.59471C44.3384 8.9395 45.4052 10.536 46.133 12.2931C46.8607 14.0501 47.2353 15.9333 47.2353 17.8351V21.7985H18.2711V17.8351ZM3.4402 86.6549L6.81699 25.1673H14.9181V31.0252C14.9473 31.4499 15.1366 31.8477 15.4478 32.1382C15.759 32.4287 16.1689 32.5903 16.5946 32.5903C17.0203 32.5903 17.4302 32.4287 17.7414 32.1382C18.0525 31.8477 18.2419 31.4499 18.2711 31.0252V25.1673H47.2353V31.0252C47.2353 31.4688 47.4116 31.8942 47.7252 32.2078C48.0389 32.5215 48.4643 32.6977 48.9079 32.6977C49.3515 32.6977 49.7769 32.5215 50.0905 32.2078C50.4042 31.8942 50.5804 31.4688 50.5804 31.0252V25.1673H58.6577L62.0266 86.6549H3.4402Z" fill="#17262F"></path></g><defs><clipPath id="clip0_5678_33608"><rect width="65.5223" height="90" fill="white"></rect></clipPath></defs></svg>