<svg xmlns="http://www.w3.org/2000/svg" width="76" height="90" viewBox="0 0 76 90" fill="none"><g clip-path="url(#clip0_5678_33170)"><path d="M52.7979 22.7233C52.7979 20.3471 52.0932 18.0242 50.7731 16.0484C49.4529 14.0727 47.5765 12.5328 45.3812 11.6234C43.1858 10.7141 40.7701 10.4761 38.4395 10.9397C36.109 11.4033 33.9682 12.5476 32.2879 14.2278C30.6077 15.9081 29.4634 18.0488 28.9999 20.3794C28.5363 22.71 28.7742 25.1257 29.6835 27.321C30.5929 29.5164 32.1328 31.3928 34.1086 32.7129C36.0843 34.0331 38.4072 34.7377 40.7834 34.7377C43.9682 34.7322 47.0209 33.4646 49.2728 31.2127C51.5247 28.9607 52.7923 25.908 52.7979 22.7233ZM31.715 22.7233C31.715 20.9284 32.2473 19.1737 33.2445 17.6813C34.2417 16.1888 35.6591 15.0256 37.3174 14.3387C38.9757 13.6518 40.8005 13.4721 42.5609 13.8223C44.3214 14.1725 45.9385 15.0368 47.2077 16.306C48.4769 17.5752 49.3412 19.1923 49.6914 20.9528C50.0416 22.7132 49.8619 24.538 49.175 26.1963C48.4881 27.8546 47.3249 29.272 45.8324 30.2692C44.34 31.2664 42.5854 31.7987 40.7904 31.7987C38.3835 31.7987 36.0751 30.8425 34.3731 29.1406C32.6712 27.4386 31.715 25.1302 31.715 22.7233Z" fill="#17262F"></path><path d="M40.7834 68.0375C41.1728 68.0386 41.5468 67.8855 41.8236 67.6116C64.2678 45.1675 63.5278 23.5611 63.5278 22.7164C63.5319 19.7332 62.9484 16.7784 61.8106 14.0208C60.6728 11.2631 59.003 8.75656 56.8965 6.64422C52.6422 2.37818 46.8675 -0.0231407 40.8428 -0.0314724C37.8596 -0.0355979 34.9048 0.547894 32.1472 1.68569C29.3895 2.82348 26.883 4.4933 24.7706 6.5998C20.5046 10.8541 18.1033 16.6288 18.0949 22.6535C18.053 23.5611 17.341 45.1675 39.7363 67.6116C40.0165 67.8846 40.3922 68.0374 40.7834 68.0375ZM21.013 22.7164C21.0176 20.1201 21.5335 17.5501 22.5313 15.1532C23.5291 12.7563 24.9892 10.5794 26.8283 8.74679C28.6674 6.91418 30.8495 5.46176 33.2499 4.47243C35.6503 3.48311 38.222 2.97628 40.8183 2.98086C43.4146 2.98544 45.9846 3.50136 48.3815 4.49915C50.7784 5.49694 52.9553 6.95707 54.7879 8.79616C56.6205 10.6353 58.0729 12.8173 59.0622 15.2177C60.0516 17.6181 60.5584 20.1899 60.5538 22.7862C60.5538 22.9956 61.2519 43.3105 40.7834 64.4632C20.3917 43.3733 20.9991 22.9886 21.013 22.7164Z" fill="#17262F"></path><path d="M74.3205 42.7939C74.0646 42.6741 73.7796 42.6308 73.4997 42.6692C73.2198 42.7076 72.9569 42.826 72.7428 43.0103C69.3238 46.0461 65.2396 48.2365 60.8191 49.4049C60.6307 49.4508 60.4532 49.5333 60.2967 49.6477C60.1402 49.7622 60.0077 49.9063 59.9069 50.072C59.8061 50.2376 59.7389 50.4214 59.7092 50.613C59.6794 50.8046 59.6877 51.0002 59.7336 51.1886C59.7794 51.377 59.8619 51.5545 59.9763 51.711C60.0908 51.8676 60.2349 52 60.4006 52.1008C60.5662 52.2016 60.75 52.2688 60.9416 52.2985C61.1332 52.3283 61.3288 52.32 61.5172 52.2742C65.3888 51.2874 69.0294 49.5513 72.2332 47.164V80.4987C54.1871 95.2636 39.2685 80.7779 38.6402 80.1496C38.6402 80.1496 38.5984 80.1496 38.5844 80.1007C38.5704 80.0519 38.5844 80.1007 38.5425 80.1007C22.6815 66.6622 8.52389 74.09 2.93903 78.1181V44.7765C6.39592 41.768 10.5538 39.6771 15.0302 38.696C15.4135 38.6182 15.7502 38.3914 15.9662 38.0654C16.1822 37.7394 16.2599 37.341 16.1821 36.9577C16.1044 36.5744 15.8775 36.2378 15.5515 36.0217C15.2255 35.8057 14.8271 35.7281 14.4438 35.8058C9.20258 36.9297 4.36194 39.4477 0.432821 43.0941C0.295017 43.2299 0.185742 43.3918 0.111414 43.5705C0.037086 43.7491 -0.000795468 43.9408 -5.0932e-06 44.1342V81.1898C-0.00724602 81.4869 0.075559 81.7793 0.237531 82.0284C0.399503 82.2776 0.633066 82.472 0.907534 82.586C1.17843 82.6952 1.47529 82.7229 1.76174 82.6659C2.04818 82.6089 2.31176 82.4695 2.52016 82.2649C3.15544 81.6296 18.3393 66.9065 36.6157 82.3347C37.3976 83.0747 44.993 90.0139 55.7229 90.0139C61.3567 90.0139 67.8421 88.0871 74.6486 82.3347C74.8131 82.1973 74.9452 82.0253 75.0357 81.8311C75.1262 81.6368 75.1728 81.425 75.1722 81.2107V44.1342C75.1723 43.853 75.0922 43.5775 74.9414 43.3401C74.7905 43.1028 74.5752 42.9133 74.3205 42.7939Z" fill="#17262F"></path></g><defs><clipPath id="clip0_5678_33170"><rect width="75.1722" height="90" fill="white"></rect></clipPath></defs></svg>