<svg xmlns="http://www.w3.org/2000/svg" width="87" height="85" viewBox="0 0 87 85" fill="none"><g clip-path="url(#clip0_5678_33648)"><path d="M56.6695 79.2532H29.8315C29.6634 79.2521 29.4961 79.229 29.334 79.1846C5.33502 73.1291 0.231587 42.8859 2.67662e-06 41.6079C-0.0448753 41.3362 -0.0297395 41.058 0.0443476 40.7927C0.118435 40.5275 0.249677 40.2817 0.428862 40.0726C0.608029 39.8632 0.830312 39.6951 1.0805 39.5796C1.33068 39.4641 1.60286 39.4041 1.87841 39.4036H84.6055C84.8807 39.4038 85.1527 39.4638 85.4026 39.5793C85.6524 39.6948 85.8743 39.8632 86.0528 40.0727C86.2314 40.2822 86.3624 40.528 86.4368 40.793C86.5112 41.058 86.5273 41.3361 86.4839 41.6079C86.278 42.8945 81.166 73.1291 57.1756 79.1846C57.0106 79.2296 56.8405 79.2527 56.6695 79.2532ZM30.0802 75.4792H56.4294C74.3042 70.7961 80.6256 50.0736 82.2553 43.2118H4.2886C5.87538 50.0736 12.2054 70.7961 30.0802 75.4792Z" fill="#17262F"></path><path d="M30.1574 37.0191C29.9107 37.02 29.6661 36.9734 29.4369 36.8818C29.1282 36.7532 21.7175 33.6825 19.8991 27.4469C18.9385 24.1018 19.7276 20.5852 22.3007 17.0256C22.5323 16.7169 22.8239 16.3909 23.1584 16.0221C24.3249 14.7441 25.9289 12.9858 25.7316 10.7557C25.5343 8.52563 23.6045 6.08113 20.0278 3.43078C19.6527 3.18194 19.3779 2.80828 19.2521 2.3761C19.1264 1.94392 19.1578 1.48116 19.3408 1.06993C19.5238 0.658701 19.8465 0.325594 20.2518 0.129712C20.657 -0.0661705 21.1186 -0.112161 21.5545 -0.000100419C28.8022 1.52664 33.9228 5.78951 35.278 11.399C35.6469 13.1098 35.6535 14.879 35.2975 16.5925C34.9415 18.3061 34.2307 19.9262 33.2109 21.3485C31.9664 23.1927 31.1888 25.3117 30.9453 27.5231C30.7017 29.7345 30.9994 31.972 31.8128 34.0428C32.0147 34.3481 32.1221 34.7061 32.1216 35.072C32.1216 35.5771 31.921 36.0614 31.5639 36.4185C31.2068 36.7756 30.7225 36.9762 30.2175 36.9762L30.1574 37.0191ZM28.8451 7.71938C29.2063 8.56613 29.4376 9.46253 29.5313 10.3783C29.9173 14.2895 27.3784 17.0771 26.0146 18.5781C25.7659 18.8526 25.5515 19.0842 25.3971 19.2814C23.5616 21.8546 22.9354 24.2219 23.5616 26.3834C24.2333 28.297 25.487 29.9525 27.1468 31.118C26.6131 26.9451 27.6361 22.7218 30.0202 19.2557C30.7393 18.2687 31.245 17.1427 31.5049 15.9495C31.7648 14.7563 31.7733 13.522 31.5298 12.3253C31.0963 10.5638 30.1642 8.96468 28.8451 7.71938Z" fill="#17262F"></path><path d="M46.0081 37.019C45.7641 37.0199 45.5223 36.9733 45.2962 36.8818C44.9788 36.7531 37.5767 33.6825 35.7498 27.4469C34.7891 24.1017 35.6125 20.5851 38.1943 17.0256C38.4599 16.6743 38.7463 16.3392 39.052 16.022C40.2185 14.744 41.8138 12.9857 41.6251 10.7556C41.4364 8.52556 39.4551 6.08106 35.8784 3.43071C35.5287 3.17148 35.2783 2.80024 35.1691 2.37885C35.0598 1.95746 35.0983 1.51136 35.278 1.11486C35.4553 0.718845 35.7636 0.396008 36.151 0.200722C36.5385 0.00543703 36.9814 -0.0503645 37.4052 0.0427157C44.6529 1.56946 49.7477 5.83232 51.1029 11.4418C51.4696 13.1528 51.4752 14.9215 51.1193 16.6347C50.7633 18.3479 50.0537 19.968 49.0358 21.3914C47.7913 23.2355 47.0137 25.3545 46.7702 27.5659C46.5266 29.7774 46.8244 32.0148 47.6377 34.0856C47.833 34.3934 47.9371 34.7503 47.9379 35.1149C47.9391 35.3652 47.8906 35.6134 47.7953 35.8449C47.7 36.0764 47.5598 36.2868 47.3828 36.4638C47.2057 36.6409 46.9954 36.7811 46.7638 36.8764C46.5323 36.9717 46.2842 37.0201 46.0338 37.019H46.0081ZM44.6958 7.7193C45.0596 8.56568 45.2938 9.46206 45.3905 10.3782C45.7679 14.2894 43.2291 17.077 41.8653 18.578C41.6166 18.8525 41.4021 19.0841 41.2477 19.2814C39.4122 21.8545 38.7861 24.2218 39.4122 26.3833C40.087 28.2953 41.34 29.95 42.9975 31.1179C42.4641 26.9411 43.4902 22.7143 45.8794 19.2471C46.5986 18.2601 47.1042 17.1341 47.3641 15.9409C47.624 14.7476 47.6325 13.5134 47.389 12.3167C46.9557 10.5556 46.02 8.9584 44.6958 7.7193Z" fill="#17262F"></path><path d="M61.8587 37.0192C61.6148 37.0201 61.373 36.9735 61.1468 36.882C60.8295 36.7533 53.4273 33.6827 51.6004 27.447C50.6055 24.1019 51.4632 20.5853 54.0363 17.0257C54.3046 16.6765 54.5909 16.3416 54.894 16.0222C56.0605 14.7442 57.6559 12.9859 57.4672 10.7558C57.2785 8.52574 55.3058 6.08124 51.7291 3.43089C51.3819 3.16964 51.1335 2.79842 51.0244 2.37782C50.9154 1.95722 50.9521 1.51208 51.1287 1.11505C51.3072 0.720064 51.6157 0.398201 52.0028 0.203105C52.3899 0.00800867 52.8321 -0.0485353 53.2558 0.0428976C60.5035 1.56964 65.6241 5.8325 66.9793 11.442C67.346 13.153 67.3516 14.9216 66.9956 16.6349C66.6397 18.3481 65.9301 19.9682 64.9122 21.3915C63.6606 23.232 62.8755 25.3493 62.6245 27.5608C62.3734 29.7723 62.664 32.0116 63.4712 34.0858C63.6665 34.3936 63.7706 34.7505 63.7714 35.115C63.7726 35.3654 63.7241 35.6135 63.6288 35.8451C63.5335 36.0766 63.3933 36.287 63.2163 36.464C63.0392 36.641 62.8289 36.7813 62.5973 36.8766C62.3658 36.9718 62.1177 37.0203 61.8673 37.0192H61.8587ZM60.5464 7.71949C60.9142 8.5645 61.1486 9.46149 61.2412 10.3784C61.6271 14.2896 59.0797 17.0772 57.7159 18.5782C57.4672 18.8527 57.2528 19.0843 57.107 19.2815C55.2714 21.8547 54.6367 24.222 55.2629 26.3835C55.9377 28.2955 57.1907 29.9502 58.8481 31.1181C58.3293 26.9412 59.3641 22.7193 61.7558 19.2558C62.476 18.2692 62.9829 17.1436 63.2442 15.9504C63.5056 14.7572 63.5157 13.5227 63.274 12.3254C62.8285 10.559 61.8812 8.95928 60.5464 7.71949Z" fill="#17262F"></path><path d="M30.0202 70.8731C29.7828 70.872 29.5475 70.8285 29.3254 70.7445C20.002 67.082 13.835 50.022 13.5691 49.3015C13.4858 49.0633 13.4502 48.811 13.4643 48.559C13.4785 48.307 13.5421 48.0602 13.6516 47.8328C13.8728 47.3736 14.2674 47.021 14.7485 46.8527C15.2296 46.6844 15.7579 46.7141 16.2171 46.9352C16.6764 47.1564 17.0289 47.5509 17.1973 48.0321C18.7926 52.5179 24.3507 64.6976 30.7492 67.2107C31.1557 67.3796 31.4911 67.6842 31.6984 68.0725C31.9056 68.4609 31.9719 68.909 31.886 69.3408C31.8 69.7725 31.5672 70.1611 31.227 70.4405C30.8868 70.7199 30.4604 70.8727 30.0202 70.8731Z" fill="#17262F"></path><path d="M66.9622 84.9999H19.5474C19.0424 84.9999 18.5581 84.7993 18.201 84.4422C17.8439 84.0851 17.6433 83.6008 17.6433 83.0958C17.6433 82.5908 17.8439 82.1065 18.201 81.7494C18.5581 81.3923 19.0424 81.1917 19.5474 81.1917H66.9622C67.4672 81.1917 67.9515 81.3923 68.3086 81.7494C68.6657 82.1065 68.8663 82.5908 68.8663 83.0958C68.8663 83.6008 68.6657 84.0851 68.3086 84.4422C67.9515 84.7993 67.4672 84.9999 66.9622 84.9999Z" fill="#17262F"></path></g><defs><clipPath id="clip0_5678_33648"><rect width="86.5096" height="85" fill="white"></rect></clipPath></defs></svg>