<svg xmlns="http://www.w3.org/2000/svg" width="130" height="105" viewBox="0 0 130 105" fill="none"><g clip-path="url(#clip0_5678_16155)"><path d="M85.055 82.6736C84.9671 82.6736 84.8828 82.6387 84.8206 82.5765C84.7584 82.5143 84.7235 82.43 84.7235 82.3421C84.7202 82.161 84.668 81.9842 84.5725 81.8303C84.477 81.6764 84.3417 81.5512 84.1809 81.4679L57.3531 67.8631C57.3081 67.8476 57.2669 67.8226 57.2324 67.7898C57.198 67.757 57.1709 67.7171 57.1532 67.6729C57.1355 67.6287 57.1275 67.5812 57.1298 67.5336C57.1321 67.4861 57.1446 67.4396 57.1665 67.3973C57.1884 67.355 57.2191 67.3179 57.2566 67.2885C57.2941 67.2592 57.3375 67.2382 57.3838 67.2271C57.4301 67.216 57.4782 67.2151 57.525 67.2242C57.5717 67.2334 57.6159 67.2526 57.6546 67.2803L84.4823 80.8851C84.766 81.0196 85.0045 81.2336 85.1686 81.5013C85.3328 81.7689 85.4155 82.0785 85.4067 82.3923C85.3966 82.4759 85.3541 82.5522 85.2884 82.6048C85.2226 82.6574 85.1388 82.6822 85.055 82.6736Z" fill="#17262F"></path><path d="M52.3794 105C50.2059 104.999 48.0811 104.356 46.2707 103.153C44.4603 101.951 43.0447 100.241 42.201 98.2378C42.1764 98.1973 42.1608 98.1521 42.1553 98.105C42.1497 98.058 42.1542 98.0104 42.1686 97.9653C42.183 97.9202 42.2069 97.8787 42.2386 97.8436C42.2704 97.8084 42.3093 97.7805 42.3527 97.7617C42.3961 97.7429 42.4431 97.7336 42.4904 97.7344C42.5378 97.7353 42.5844 97.7462 42.6271 97.7666C42.6698 97.7869 42.7077 97.8162 42.7382 97.8524C42.7687 97.8886 42.7911 97.931 42.8038 97.9766C43.6002 99.8649 44.9358 101.476 46.6435 102.61C48.3512 103.743 50.3551 104.347 52.4046 104.347C54.454 104.347 56.4579 103.743 58.1656 102.61C59.8733 101.476 61.2089 99.8649 62.0053 97.9766C62.0405 97.8972 62.1056 97.8348 62.1864 97.8028C62.2672 97.7709 62.3573 97.7719 62.4373 97.8057C62.4763 97.8222 62.5116 97.8462 62.5413 97.8763C62.571 97.9064 62.5944 97.9421 62.6103 97.9813C62.6262 98.0205 62.6341 98.0625 62.6338 98.1048C62.6334 98.147 62.6247 98.1888 62.6081 98.2278C61.7627 100.241 60.34 101.958 58.5196 103.163C56.6992 104.368 54.5626 105.008 52.3794 105Z" fill="#17262F"></path><path d="M52.3794 102.106C50.9938 102.109 49.6303 101.759 48.4173 101.09C47.2043 100.42 46.1819 99.4522 45.4464 98.2779C45.4009 98.2044 45.3859 98.1159 45.4046 98.0314C45.4234 97.9469 45.4745 97.8731 45.5469 97.8258C45.5829 97.8019 45.6234 97.7855 45.6659 97.7776C45.7085 97.7697 45.7521 97.7705 45.7943 97.7799C45.8366 97.7893 45.8764 97.807 45.9116 97.8322C45.9468 97.8574 45.9765 97.8893 45.9991 97.9263C46.6775 99.0057 47.6187 99.8954 48.7345 100.512C49.8504 101.129 51.1045 101.452 52.3794 101.452C53.6544 101.452 54.9085 101.129 56.0243 100.512C57.1402 99.8954 58.0814 99.0057 58.7598 97.9263C58.8051 97.853 58.8777 97.8007 58.9615 97.7809C59.0454 97.7611 59.1337 97.7755 59.207 97.8208C59.2802 97.8661 59.3325 97.9386 59.3523 98.0225C59.3721 98.1063 59.3578 98.1946 59.3125 98.2679C58.5796 99.4454 57.558 100.416 56.3446 101.088C55.1313 101.76 53.7664 102.11 52.3794 102.106Z" fill="#17262F"></path><path d="M24.0345 33.2283C23.9914 33.2284 23.9487 33.2197 23.909 33.2029C23.8694 33.1862 23.8335 33.1616 23.8035 33.1306C23.7735 33.0997 23.75 33.0631 23.7345 33.0229C23.7189 32.9827 23.7116 32.9398 23.7129 32.8968V27.8728C23.7116 27.8298 23.7189 27.7869 23.7345 27.7467C23.75 27.7065 23.7735 27.6699 23.8035 27.639C23.8335 27.608 23.8694 27.5834 23.909 27.5667C23.9487 27.5499 23.9914 27.5412 24.0345 27.5413C24.1224 27.5413 24.2067 27.5762 24.2689 27.6384C24.3311 27.7006 24.366 27.7849 24.366 27.8728V32.8968C24.366 32.9847 24.3311 33.069 24.2689 33.1312C24.2067 33.1934 24.1224 33.2283 24.0345 33.2283Z" fill="#17262F"></path><path d="M26.9885 33.2283C26.9006 33.2283 26.8162 33.1933 26.754 33.1312C26.6919 33.069 26.6569 32.9846 26.6569 32.8967V31.0479C26.6569 30.9599 26.6919 30.8756 26.754 30.8134C26.8162 30.7512 26.9006 30.7163 26.9885 30.7163C27.0316 30.7163 27.0742 30.7249 27.1139 30.7417C27.1536 30.7585 27.1895 30.7831 27.2195 30.814C27.2495 30.8449 27.2729 30.8816 27.2885 30.9218C27.3041 30.9619 27.3114 31.0048 27.31 31.0479V32.8967C27.3114 32.9398 27.3041 32.9826 27.2885 33.0228C27.2729 33.063 27.2495 33.0996 27.2195 33.1306C27.1895 33.1615 27.1536 33.1861 27.1139 33.2029C27.0742 33.2197 27.0316 33.2283 26.9885 33.2283Z" fill="#17262F"></path><path d="M18.7191 105C14.895 105 11.1626 103.829 8.02411 101.644C4.8856 99.459 2.49156 96.3653 1.16407 92.7789C-0.163431 89.1926 -0.360688 85.2858 0.598831 81.584C1.55835 77.8822 3.62861 74.5631 6.53109 72.0732C6.56342 72.0455 6.60088 72.0244 6.64136 72.0112C6.68183 71.9979 6.72451 71.9928 6.76696 71.9961C6.80941 71.9993 6.85081 72.0109 6.88878 72.0302C6.92675 72.0495 6.96055 72.076 6.98826 72.1083C7.01597 72.1407 7.03704 72.1781 7.05027 72.2186C7.0635 72.2591 7.06863 72.3018 7.06536 72.3442C7.0621 72.3867 7.0505 72.4281 7.03124 72.466C7.01198 72.504 6.98542 72.5378 6.9531 72.5655C5.01519 74.1855 3.4381 76.1934 2.3234 78.46C1.20869 80.7266 0.581103 83.2015 0.481046 85.7253C0.380988 88.2492 0.810685 90.766 1.74246 93.1137C2.67423 95.4614 4.08742 97.5879 5.89099 99.3562C7.69457 101.125 9.84854 102.495 12.2142 103.381C14.5798 104.266 17.1046 104.646 19.626 104.496C22.1474 104.346 24.6094 103.67 26.8535 102.511C29.0976 101.351 31.0741 99.735 32.6555 97.7655C32.6855 97.7345 32.7214 97.7099 32.7611 97.693C32.8008 97.6762 32.8435 97.6675 32.8866 97.6675C32.9297 97.6675 32.9724 97.6762 33.0121 97.693C33.0518 97.7099 33.0877 97.7345 33.1177 97.7655C33.1778 97.8274 33.2115 97.9103 33.2115 97.9966C33.2115 98.0829 33.1778 98.1658 33.1177 98.2277C31.3644 100.347 29.1646 102.053 26.6756 103.224C24.1866 104.394 21.4697 105.001 18.7191 105Z" fill="#17262F"></path><path d="M18.7192 100.056C15.0673 100.051 11.5665 98.598 8.98421 96.0158C6.40193 93.4335 4.94887 89.9327 4.94356 86.2808C4.93379 84.0936 5.45075 81.9361 6.45073 79.9908C6.49718 79.9262 6.56533 79.8804 6.64273 79.8619C6.72014 79.8434 6.80162 79.8533 6.87232 79.8898C6.94301 79.9264 6.99819 79.9872 7.02779 80.0611C7.05738 80.135 7.05941 80.217 7.03351 80.2923C6.07524 82.1565 5.58227 84.2249 5.59667 86.321C5.60332 88.5919 6.19919 90.8223 7.32603 92.7939C8.45287 94.7656 10.0721 96.4111 12.0254 97.5695C13.9787 98.7278 16.1991 99.3595 18.4697 99.4027C20.7402 99.4459 22.9831 98.899 24.979 97.8157C25.0164 97.7947 25.0577 97.7813 25.1004 97.7765C25.1431 97.7717 25.1864 97.7755 25.2276 97.7877C25.2688 97.7998 25.3072 97.8202 25.3404 97.8474C25.3736 97.8747 25.4011 97.9083 25.4211 97.9464C25.4421 97.9838 25.4555 98.0251 25.4603 98.0678C25.4651 98.1105 25.4613 98.1538 25.4491 98.195C25.437 98.2362 25.4166 98.2746 25.3894 98.3078C25.3621 98.341 25.3285 98.3684 25.2904 98.3885C23.2733 99.4836 21.0144 100.057 18.7192 100.056Z" fill="#17262F"></path><path d="M75.5096 105C73.3326 105.002 71.2034 104.362 69.3891 103.159C67.5747 101.956 66.156 100.244 65.311 98.2377C65.2772 98.1576 65.2761 98.0675 65.3081 97.9867C65.34 97.9059 65.4024 97.8409 65.4818 97.8056C65.5631 97.7724 65.6542 97.7728 65.7352 97.8067C65.8162 97.8406 65.8805 97.9053 65.9139 97.9865C66.7103 99.8749 68.0459 101.486 69.7535 102.62C71.4612 103.753 73.4651 104.357 75.5146 104.357C77.564 104.357 79.5679 103.753 81.2756 102.62C82.9833 101.486 84.3189 99.8749 85.1153 97.9865C85.1499 97.9079 85.2144 97.8462 85.2945 97.8152C85.3746 97.7841 85.4637 97.7861 85.5423 97.8207C85.6209 97.8553 85.6826 97.9198 85.7137 97.9999C85.7448 98.08 85.7428 98.1691 85.7081 98.2477C84.8615 100.252 83.4422 101.962 81.628 103.163C79.8137 104.364 77.6854 105.003 75.5096 105Z" fill="#17262F"></path><path d="M75.5096 102.106C74.1253 102.108 72.763 101.759 71.5505 101.092C70.3379 100.424 69.3146 99.4591 68.5766 98.2879C68.5319 98.2132 68.5185 98.1238 68.5391 98.0392C68.5598 97.9546 68.613 97.8815 68.6871 97.8358C68.7607 97.7902 68.8491 97.7752 68.9336 97.794C69.0181 97.8128 69.0919 97.8638 69.1392 97.9363C69.8182 99.0135 70.759 99.9011 71.8738 100.516C72.9887 101.131 74.2413 101.454 75.5146 101.454C76.7879 101.454 78.0405 101.131 79.1554 100.516C80.2702 99.9011 81.211 99.0135 81.89 97.9363C81.9353 97.863 82.0078 97.8107 82.0917 97.7909C82.1755 97.7711 82.2638 97.7855 82.3371 97.8308C82.4104 97.8761 82.4627 97.9486 82.4824 98.0325C82.5022 98.1163 82.4879 98.2046 82.4426 98.2779C81.7085 99.4535 80.6864 100.422 79.4731 101.092C78.2598 101.762 76.8955 102.111 75.5096 102.106Z" fill="#17262F"></path><path d="M57.5038 61.111C57.4183 61.1099 57.3362 61.0778 57.2727 61.0206C57.2148 60.9575 57.1827 60.875 57.1827 60.7895C57.1827 60.7039 57.2148 60.6214 57.2727 60.5584L60.3976 57.4435C60.4259 57.4084 60.4613 57.3797 60.5015 57.3592C60.5416 57.3387 60.5857 57.3268 60.6307 57.3244C60.6757 57.322 60.7208 57.3291 60.7629 57.3453C60.805 57.3614 60.8432 57.3863 60.8751 57.4181C60.907 57.45 60.9318 57.4883 60.948 57.5304C60.9641 57.5725 60.9712 57.6175 60.9688 57.6626C60.9664 57.7076 60.9546 57.7516 60.9341 57.7918C60.9136 57.832 60.8848 57.8673 60.8497 57.8957L57.7349 61.0206C57.7043 61.0502 57.6681 61.0734 57.6284 61.089C57.5888 61.1045 57.5464 61.112 57.5038 61.111Z" fill="#17262F"></path><path d="M61.6938 12.7004C61.6085 12.7004 61.5267 12.6665 61.4664 12.6062C61.4061 12.5459 61.3722 12.4641 61.3722 12.3789V3.25541C61.3709 3.21235 61.3782 3.16945 61.3938 3.12927C61.4093 3.0891 61.4328 3.05246 61.4628 3.02153C61.4928 2.9906 61.5287 2.96601 61.5683 2.94923C61.608 2.93244 61.6507 2.92381 61.6938 2.92383C61.7817 2.92383 61.866 2.95876 61.9282 3.02095C61.9904 3.08313 62.0253 3.16747 62.0253 3.25541V12.3789C62.0254 12.4219 62.0167 12.4646 61.9999 12.5043C61.9832 12.5439 61.9586 12.5798 61.9276 12.6098C61.8967 12.6398 61.8601 12.6633 61.8199 12.6789C61.7797 12.6944 61.7368 12.7017 61.6938 12.7004Z" fill="#17262F"></path><path d="M61.6938 3.57705H25.1196C25.0343 3.57705 24.9525 3.54317 24.8922 3.48288C24.8319 3.42258 24.7981 3.34079 24.7981 3.25552C24.7967 3.21246 24.804 3.16956 24.8196 3.12939C24.8352 3.08921 24.8586 3.05257 24.8886 3.02164C24.9186 2.99071 24.9545 2.96612 24.9942 2.94934C25.0339 2.93256 25.0765 2.92392 25.1196 2.92394H61.3722V1.66796H22.9895C22.9015 1.66796 22.8172 1.63302 22.755 1.57084C22.6928 1.50866 22.6579 1.42432 22.6579 1.33638C22.6565 1.29246 22.6641 1.24872 22.6803 1.20786C22.6964 1.167 22.7208 1.12989 22.7519 1.09881C22.783 1.06774 22.8201 1.04337 22.8609 1.0272C22.9018 1.01103 22.9455 1.00341 22.9895 1.0048H61.6938C61.7368 1.00345 61.7797 1.01078 61.8199 1.02633C61.8601 1.04189 61.8967 1.06536 61.9276 1.09535C61.9586 1.12534 61.9832 1.16124 61.9999 1.20092C62.0167 1.2406 62.0254 1.28325 62.0253 1.32633V3.25552C62.0254 3.2986 62.0167 3.34125 61.9999 3.38093C61.9832 3.42061 61.9586 3.45651 61.9276 3.4865C61.8967 3.51649 61.8601 3.53997 61.8199 3.55552C61.7797 3.57107 61.7368 3.5784 61.6938 3.57705Z" fill="#17262F"></path><path d="M61.6938 14.6196H36.3029C36.215 14.6196 36.1306 14.5847 36.0684 14.5225C36.0063 14.4603 35.9713 14.376 35.9713 14.288C35.9713 14.245 35.9799 14.2023 35.9967 14.1626C36.0135 14.1229 36.0381 14.087 36.069 14.057C36.0999 14.0271 36.1366 14.0036 36.1768 13.988C36.2169 13.9725 36.2598 13.9652 36.3029 13.9665H61.3723V12.7005H34.3838C34.2985 12.7005 34.2167 12.6666 34.1564 12.6063C34.0961 12.546 34.0622 12.4642 34.0622 12.3789C34.0609 12.3359 34.0682 12.293 34.0838 12.2528C34.0993 12.2126 34.1228 12.176 34.1528 12.1451C34.1828 12.1141 34.2187 12.0895 34.2584 12.0728C34.298 12.056 34.3407 12.0473 34.3838 12.0474H61.6938C61.7817 12.0474 61.8661 12.0823 61.9283 12.1445C61.9905 12.2067 62.0254 12.291 62.0254 12.3789V14.288C62.0254 14.376 61.9905 14.4603 61.9283 14.5225C61.8661 14.5847 61.7817 14.6196 61.6938 14.6196Z" fill="#17262F"></path><path d="M58.0263 56.8709H57.6746C57.6324 56.8696 57.5908 56.86 57.5523 56.8426C57.5138 56.8252 57.4791 56.8004 57.4502 56.7696C57.4212 56.7388 57.3987 56.7026 57.3837 56.6631C57.3688 56.6236 57.3618 56.5815 57.3632 56.5393C57.3632 56.3584 57.544 56.1876 57.7048 56.2278C58.7374 56.2687 59.7674 56.0961 60.7304 55.721C61.6933 55.3458 62.5686 54.7761 63.3014 54.0474C64.6918 52.6519 65.4725 50.7623 65.4725 48.7924C65.4725 46.8225 64.6918 44.9329 63.3014 43.5374L22.5675 2.82349C21.8603 2.12597 21.0222 1.57513 20.1014 1.20266C19.1805 0.830197 18.1952 0.643447 17.2019 0.653153C16.204 0.668396 15.2196 0.885455 14.3078 1.29126C13.3961 1.69706 12.5759 2.28321 11.8966 3.0144C10.5918 4.48943 9.9047 6.41 9.97765 8.37797C10.0506 10.3459 10.8781 12.2104 12.2885 13.5847L45.8785 47.1546C45.9095 47.1846 45.9341 47.2205 45.9509 47.2602C45.9678 47.2999 45.9764 47.3426 45.9764 47.3857C45.9764 47.4288 45.9678 47.4715 45.9509 47.5112C45.9341 47.5509 45.9095 47.5868 45.8785 47.6168C45.8494 47.6475 45.8143 47.672 45.7754 47.6887C45.7366 47.7054 45.6947 47.714 45.6524 47.714C45.6101 47.714 45.5682 47.7054 45.5293 47.6887C45.4905 47.672 45.4554 47.6475 45.4263 47.6168L11.8263 14.067C10.295 12.5719 9.39873 10.5441 9.32388 8.40523C9.24903 6.26634 10.0013 4.18088 11.4244 2.58234C12.1614 1.7846 13.0525 1.1445 14.0437 0.700676C15.035 0.256851 16.1059 0.0185101 17.1919 4.32989e-05H17.3124C18.3741 -0.00344128 19.426 0.203429 20.4073 0.608708C21.3886 1.01399 22.2798 1.60964 23.0297 2.36129L63.7435 43.0752C65.2566 44.5932 66.1062 46.6491 66.1062 48.7924C66.1062 50.9357 65.2566 52.9916 63.7435 54.5096C62.2222 56.0175 60.1683 56.8658 58.0263 56.8709Z" fill="#17262F"></path><path d="M94.0679 12.811H68.7172C68.6293 12.811 68.5449 12.776 68.4827 12.7138C68.4206 12.6517 68.3856 12.5673 68.3856 12.4794C68.3856 12.4363 68.3942 12.3936 68.411 12.354C68.4278 12.3143 68.4524 12.2784 68.4833 12.2484C68.5143 12.2184 68.5509 12.1949 68.5911 12.1794C68.6312 12.1638 68.6741 12.1565 68.7172 12.1578H93.7464V3.47651H68.7172C68.6293 3.47651 68.5449 3.44158 68.4827 3.37939C68.4206 3.31721 68.3856 3.23287 68.3856 3.14493C68.3856 3.10185 68.3942 3.0592 68.411 3.01952C68.4278 2.97984 68.4524 2.94394 68.4833 2.91395C68.5143 2.88395 68.5509 2.86048 68.5911 2.84493C68.6312 2.82937 68.6741 2.82205 68.7172 2.8234H94.0679C94.111 2.82205 94.1539 2.82937 94.194 2.84493C94.2342 2.86048 94.2709 2.88395 94.3018 2.91395C94.3327 2.94394 94.3573 2.97984 94.3741 3.01952C94.3909 3.0592 94.3995 3.10185 94.3995 3.14493V12.4794C94.3995 12.5673 94.3646 12.6517 94.3024 12.7138C94.2402 12.776 94.1559 12.811 94.0679 12.811Z" fill="#17262F"></path><path d="M98.3684 10.3191H94.068C94.0249 10.3191 93.9822 10.3105 93.9426 10.2937C93.9029 10.2769 93.867 10.2524 93.837 10.2214C93.807 10.1905 93.7835 10.1539 93.768 10.1137C93.7524 10.0735 93.7451 10.0306 93.7464 9.98755C93.7464 9.90227 93.7803 9.82049 93.8406 9.76019C93.9009 9.69989 93.9827 9.66602 94.068 9.66602H98.3684C98.4537 9.66602 98.5355 9.69989 98.5958 9.76019C98.6561 9.82049 98.69 9.90227 98.69 9.98755C98.6913 10.0306 98.684 10.0735 98.6684 10.1137C98.6529 10.1539 98.6294 10.1905 98.5994 10.2214C98.5694 10.2524 98.5335 10.2769 98.4938 10.2937C98.4542 10.3105 98.4115 10.3191 98.3684 10.3191Z" fill="#17262F"></path><path d="M100.227 5.96854H94.068C94.0249 5.96856 93.9822 5.95992 93.9426 5.94314C93.9029 5.92636 93.867 5.90177 93.837 5.87084C93.807 5.83991 93.7835 5.80327 93.768 5.76309C93.7524 5.72292 93.7451 5.68002 93.7464 5.63696C93.7464 5.55169 93.7803 5.4699 93.8406 5.4096C93.9009 5.34931 93.9827 5.31543 94.068 5.31543H100.227C100.313 5.31543 100.394 5.34931 100.455 5.4096C100.515 5.4699 100.549 5.55169 100.549 5.63696C100.549 5.72319 100.515 5.80604 100.455 5.86794C100.395 5.92984 100.313 5.96593 100.227 5.96854Z" fill="#17262F"></path><path d="M28.7268 47.7073C28.6838 47.7086 28.6409 47.7013 28.6007 47.6857C28.5605 47.6702 28.5239 47.6467 28.4929 47.6167C28.462 47.5867 28.4374 47.5508 28.4206 47.5111C28.4039 47.4715 28.3952 47.4288 28.3952 47.3857V33.2283H22.8388V47.3857C22.8388 47.4288 22.8302 47.4715 22.8134 47.5111C22.7966 47.5508 22.772 47.5867 22.7411 47.6167C22.7102 47.6467 22.6735 47.6702 22.6333 47.6857C22.5932 47.7013 22.5503 47.7086 22.5072 47.7073C22.4219 47.7073 22.3401 47.6734 22.2798 47.6131C22.2195 47.5528 22.1857 47.471 22.1857 47.3857V32.8967C22.1857 32.8115 22.2195 32.7297 22.2798 32.6694C22.3401 32.6091 22.4219 32.5752 22.5072 32.5752H28.7268C28.8121 32.5752 28.8939 32.6091 28.9542 32.6694C29.0145 32.7297 29.0483 32.8115 29.0483 32.8967V47.3857C29.0483 47.471 29.0145 47.5528 28.9542 47.6131C28.8939 47.6734 28.8121 47.7073 28.7268 47.7073Z" fill="#17262F"></path><path d="M17.2622 13.655C15.7361 13.6523 14.2732 13.0449 13.194 11.9657C12.1149 10.8866 11.5074 9.42369 11.5048 7.89755C11.4723 7.12057 11.5973 6.34505 11.8723 5.61763C12.1473 4.8902 12.5665 4.2259 13.1048 3.66465C13.6431 3.10341 14.2893 2.65683 15.0046 2.35175C15.7199 2.04667 16.4896 1.8894 17.2672 1.8894C18.0449 1.8894 18.8145 2.04667 19.5298 2.35175C20.2451 2.65683 20.8914 3.10341 21.4297 3.66465C21.9679 4.2259 22.3872 4.8902 22.6621 5.61763C22.9371 6.34505 23.0621 7.12057 23.0297 7.89755C23.027 9.42543 22.4182 10.8898 21.3369 11.9693C20.2555 13.0487 18.7901 13.655 17.2622 13.655ZM12.1579 7.92769C12.2163 9.24357 12.7801 10.4862 13.7319 11.3967C14.6837 12.3072 15.95 12.8154 17.2672 12.8154C18.5844 12.8154 19.8508 12.3072 20.8026 11.3967C21.7544 10.4862 22.3182 9.24357 22.3766 7.92769V7.85735C22.3182 6.54147 21.7544 5.29885 20.8026 4.38833C19.8508 3.47782 18.5844 2.96963 17.2672 2.96963C15.95 2.96963 14.6837 3.47782 13.7319 4.38833C12.7801 5.29885 12.2163 6.54147 12.1579 7.85735V7.92769Z" fill="#17262F"></path><path d="M17.2622 10.4898C16.7499 10.4879 16.2497 10.3341 15.8247 10.0481C15.3998 9.76203 15.0691 9.35647 14.8744 8.88261C14.6797 8.40875 14.6298 7.88783 14.731 7.38563C14.8321 6.88343 15.0798 6.42246 15.4428 6.06091C15.8057 5.69937 16.2676 5.45347 16.7702 5.35426C17.2728 5.25504 17.7935 5.30696 18.2666 5.50346C18.7397 5.69996 19.144 6.03223 19.4284 6.45832C19.7128 6.88441 19.8646 7.38521 19.8646 7.8975C19.862 8.58596 19.5866 9.24531 19.0989 9.73118C18.6111 10.2171 17.9507 10.4899 17.2622 10.4898ZM17.2622 5.95827C16.8822 5.96049 16.5111 6.07434 16.1952 6.28567C15.8794 6.49701 15.6325 6.79651 15.4854 7.14695C15.3383 7.4974 15.2975 7.88335 15.3679 8.25683C15.4383 8.63031 15.617 8.97487 15.8816 9.24768C16.1462 9.52048 16.4852 9.70952 16.8563 9.79129C17.2275 9.87306 17.6145 9.84396 17.9693 9.70761C18.324 9.57126 18.6309 9.33366 18.8518 9.02435C19.0726 8.71504 19.1977 8.34765 19.2115 7.96784C19.2196 7.70683 19.1751 7.44685 19.0808 7.20335C18.9865 6.95985 18.8442 6.73779 18.6623 6.55035C18.4805 6.3629 18.2629 6.21391 18.0224 6.1122C17.7819 6.01049 17.5234 5.95814 17.2622 5.95827Z" fill="#17262F"></path><path d="M57.6947 54.2583C57.6068 54.2583 57.5225 54.2234 57.4603 54.1612C57.3981 54.099 57.3632 54.0147 57.3632 53.9267C57.3631 53.8836 57.3718 53.841 57.3886 53.8013C57.4053 53.7616 57.4299 53.7257 57.4609 53.6957C57.4918 53.6658 57.5284 53.6423 57.5686 53.6267C57.6088 53.6112 57.6517 53.6038 57.6947 53.6052C59.0442 53.6026 60.3379 53.0667 61.294 52.1144C62.2501 51.162 62.7911 49.8704 62.799 48.521V48.4507C62.8052 47.1502 62.3148 45.8965 61.428 44.9453C60.5411 43.9942 59.3247 43.4175 58.027 43.3328C56.7293 43.2482 55.4482 43.6621 54.4453 44.4899C53.4425 45.3178 52.7934 46.4973 52.6306 47.7875C52.6108 47.8668 52.5623 47.9361 52.4946 47.9818C52.4268 48.0276 52.3445 48.0468 52.2635 48.0355C52.1824 48.0243 52.1084 47.9836 52.0556 47.9211C52.0029 47.8586 51.975 47.7788 51.9775 47.6971C52.187 46.2579 52.9325 44.9511 54.0646 44.0382C55.1968 43.1253 56.632 42.6739 58.0828 42.7743C59.5337 42.8746 60.8931 43.5194 61.8887 44.5794C62.8844 45.6395 63.4428 47.0366 63.4522 48.4908C63.4522 50.0187 62.8459 51.4842 61.7664 52.5655C60.687 53.6468 59.2226 54.2556 57.6947 54.2583Z" fill="#17262F"></path><path d="M57.6948 51.3445C56.9423 51.3445 56.2206 51.0463 55.6876 50.5152C55.1546 49.9841 54.8539 49.2634 54.8512 48.511C54.8282 48.1241 54.8845 47.7365 55.0167 47.3721C55.149 47.0077 55.3543 46.6742 55.6202 46.392C55.886 46.1099 56.2067 45.8851 56.5626 45.7314C56.9185 45.5778 57.3021 45.4985 57.6897 45.4985C58.0774 45.4985 58.4609 45.5778 58.8168 45.7314C59.1727 45.8851 59.4935 46.1099 59.7593 46.392C60.0251 46.6742 60.2305 47.0077 60.3627 47.3721C60.4949 47.7365 60.5513 48.1241 60.5283 48.511C60.5283 49.2625 60.2297 49.9832 59.6983 50.5146C59.167 51.046 58.4462 51.3445 57.6948 51.3445ZM55.5043 48.5311C55.5419 49.0851 55.7885 49.6042 56.1942 49.9833C56.5999 50.3624 57.1345 50.5733 57.6897 50.5733C58.245 50.5733 58.7796 50.3624 59.1853 49.9833C59.591 49.6042 59.8376 49.0851 59.8751 48.5311C59.8376 47.9771 59.591 47.4581 59.1853 47.079C58.7796 46.6998 58.245 46.489 57.6897 46.489C57.1345 46.489 56.5999 46.6998 56.1942 47.079C55.7885 47.4581 55.5419 47.9771 55.5043 48.5311Z" fill="#17262F"></path><path d="M67.5215 14.6196H63.1306C63.0427 14.6196 62.9583 14.5847 62.8962 14.5225C62.834 14.4603 62.7991 14.376 62.7991 14.2881V1.33638C62.7977 1.29246 62.8053 1.24872 62.8214 1.20786C62.8376 1.167 62.862 1.12989 62.8931 1.09881C62.9241 1.06774 62.9612 1.04337 63.0021 1.0272C63.043 1.01103 63.0867 1.00341 63.1306 1.0048H67.5215C67.6068 1.0048 67.6886 1.03868 67.7489 1.09898C67.8092 1.15927 67.8431 1.24106 67.8431 1.32633V14.2881C67.8444 14.3311 67.8371 14.374 67.8215 14.4142C67.806 14.4544 67.7825 14.491 67.7525 14.5219C67.7225 14.5529 67.6866 14.5774 67.647 14.5942C67.6073 14.611 67.5646 14.6197 67.5215 14.6196ZM63.4522 13.9665H67.19V1.66796H63.4522V13.9665Z" fill="#17262F"></path><path d="M87.0545 96.9115H14.3684C12.7037 96.9088 11.1079 96.2463 9.93078 95.0692C8.75364 93.8921 8.09116 92.2963 8.0885 90.6316V52.3794C8.09102 51.3096 8.51369 50.2836 9.26546 49.5224C10.0172 48.7613 11.0379 48.3259 12.1076 48.3101H48.2297C50.462 48.3127 52.6021 49.2007 54.1806 50.7792C55.7591 52.3577 56.6471 54.4978 56.6497 56.7302V74.6455C56.6526 75.4467 56.9322 76.2224 57.4412 76.8413C57.9502 77.4601 58.6574 77.8842 59.443 78.0416L87.577 83.578C88.2003 83.7014 88.7615 84.0373 89.1647 84.5284C89.5678 85.0195 89.788 85.6354 89.7875 86.2708V94.1584C89.7876 94.8851 89.5003 95.5823 88.9883 96.0981C88.4763 96.6138 87.7812 96.9062 87.0545 96.9115ZM12.1579 48.9632C11.2518 48.9632 10.3829 49.3231 9.74221 49.9638C9.10154 50.6044 8.74161 51.4734 8.74161 52.3794V90.6316C8.74427 92.1222 9.33827 93.5508 10.3932 94.6038C11.4481 95.6569 12.8778 96.2483 14.3684 96.2483H87.0545C87.6088 96.2483 88.1404 96.0281 88.5323 95.6362C88.9243 95.2443 89.1445 94.7127 89.1445 94.1584V86.2708C89.135 85.7934 88.9623 85.3337 88.6552 84.968C88.3481 84.6024 87.925 84.353 87.4564 84.2613L59.3225 78.7249C58.3922 78.5379 57.5546 78.0362 56.9507 77.3042C56.3468 76.5723 56.0135 75.6547 56.0067 74.7057V56.7302C56.004 54.6693 55.1835 52.6938 53.7253 51.2375C52.2671 49.7812 50.2905 48.9632 48.2297 48.9632H12.1579Z" fill="#17262F"></path><path d="M87.0546 94.7713H14.3684C13.2696 94.7713 12.2156 94.3355 11.4377 93.5594C10.6597 92.7833 10.2213 91.7304 10.2187 90.6316V52.3794C10.2213 51.8659 10.4265 51.3742 10.7896 51.0111C11.1527 50.648 11.6444 50.4428 12.1579 50.4402H47.4259C49.3154 50.4455 51.1258 51.1991 52.4609 52.5362C53.7961 53.8732 54.5471 55.6847 54.5498 57.5742V74.6555C54.5532 75.9517 55.0055 77.2066 55.8299 78.2068C56.6542 79.207 57.7997 79.8908 59.0713 80.1416L87.2053 85.678C87.3436 85.7076 87.4677 85.7835 87.5572 85.8931C87.6467 86.0026 87.6962 86.1394 87.6976 86.2809V94.1684C87.6964 94.2507 87.6786 94.3318 87.6453 94.407C87.6121 94.4822 87.564 94.55 87.504 94.6063C87.444 94.6625 87.3733 94.7061 87.2961 94.7345C87.2188 94.7628 87.1367 94.7753 87.0546 94.7713ZM12.1579 51.0933C11.8176 51.0959 11.492 51.2323 11.2514 51.4729C11.0108 51.7135 10.8744 52.0391 10.8718 52.3794V90.6316C10.8745 91.5572 11.244 92.444 11.8995 93.0976C12.555 93.7512 13.4428 94.1182 14.3684 94.1182H87.0546V86.2708L58.9407 80.7746C57.5247 80.4895 56.2509 79.7234 55.3353 78.6063C54.4196 77.4892 53.9185 76.0899 53.9168 74.6454V57.5641C53.9168 55.847 53.2354 54.2001 52.0221 52.985C50.8089 51.7699 49.1631 51.0859 47.446 51.0832L12.1579 51.0933Z" fill="#17262F"></path><path d="M99.8555 44.6627C99.7703 44.6627 99.6885 44.6288 99.6282 44.5685C99.5679 44.5082 99.534 44.4264 99.534 44.3411C99.5327 44.2989 99.5397 44.2568 99.5546 44.2173C99.5695 44.1778 99.5921 44.1416 99.621 44.1108C99.65 44.08 99.6847 44.0552 99.7232 44.0378C99.7617 44.0205 99.8033 44.0108 99.8455 44.0095L109.612 43.8186V38.7947L99.8555 38.9856C99.7701 38.9833 99.6886 38.9489 99.6272 38.8894C99.5658 38.8298 99.529 38.7495 99.524 38.6641C99.5226 38.621 99.5299 38.5781 99.5455 38.538C99.561 38.4978 99.5845 38.4611 99.6145 38.4302C99.6445 38.3993 99.6804 38.3747 99.7201 38.3579C99.7598 38.3411 99.8024 38.3325 99.8455 38.3325L109.893 38.1416C109.994 38.1416 110.064 38.1416 110.134 38.232C110.164 38.2626 110.187 38.2988 110.203 38.3385C110.218 38.3782 110.226 38.4205 110.225 38.4631V44.1904C110.225 44.2757 110.191 44.3575 110.131 44.4178C110.07 44.4781 109.989 44.5119 109.903 44.5119L99.8555 44.7129V44.6627Z" fill="#17262F"></path><path d="M110.024 42.9345C109.947 42.9209 109.878 42.8808 109.827 42.8211C109.777 42.7613 109.75 42.6859 109.75 42.6079C109.75 42.5299 109.777 42.4545 109.827 42.3947C109.878 42.335 109.947 42.2949 110.024 42.2813L115.299 42.1909C115.385 42.1952 115.466 42.2299 115.529 42.2888C115.592 42.3477 115.631 42.427 115.641 42.5124C115.642 42.5555 115.635 42.5984 115.619 42.6386C115.604 42.6788 115.58 42.7154 115.55 42.7463C115.52 42.7773 115.484 42.8018 115.445 42.8186C115.405 42.8354 115.362 42.844 115.319 42.844L110.034 42.9345H110.024Z" fill="#17262F"></path><path d="M110.004 40.2718C109.927 40.2582 109.857 40.2181 109.807 40.1584C109.757 40.0986 109.73 40.0232 109.73 39.9452C109.73 39.8672 109.757 39.7918 109.807 39.732C109.857 39.6723 109.927 39.6322 110.004 39.6186L115.289 39.5282C115.337 39.5198 115.386 39.522 115.432 39.5345C115.479 39.547 115.523 39.5697 115.56 39.6008C115.597 39.6319 115.627 39.6708 115.647 39.7147C115.667 39.7585 115.678 39.8064 115.678 39.8548C115.678 39.9032 115.667 39.951 115.647 39.9949C115.627 40.0388 115.597 40.0776 115.56 40.1088C115.523 40.1399 115.479 40.1625 115.432 40.175C115.386 40.1876 115.337 40.1897 115.289 40.1813L110.004 40.2718Z" fill="#17262F"></path><path d="M90.1593 47.2249C88.6543 47.1624 87.2316 46.5206 86.1888 45.4335C85.1459 44.3465 84.5637 42.8985 84.5637 41.3921C84.5637 39.8858 85.1459 38.4377 86.1888 37.3507C87.2316 36.2637 88.6543 35.6218 90.1593 35.5593H95.6555C95.7004 35.5589 95.7449 35.5676 95.7864 35.5848C95.8278 35.6021 95.8653 35.6276 95.8966 35.6598C95.9263 35.6904 95.9495 35.7266 95.9651 35.7663C95.9806 35.806 95.9881 35.8483 95.9871 35.8909L96.0775 46.9436C96.0775 46.9866 96.0689 47.0293 96.0521 47.069C96.0353 47.1086 96.0107 47.1445 95.9798 47.1745C95.9489 47.2045 95.9122 47.228 95.8721 47.2436C95.8319 47.2591 95.789 47.2664 95.7459 47.2651H90.2397L90.1593 47.2249ZM95.3038 36.1723H90.1191C88.7849 36.231 87.5247 36.8024 86.6014 37.7674C85.678 38.7323 85.1626 40.0164 85.1626 41.3519C85.1626 42.6875 85.678 43.9715 86.6014 44.9365C87.5247 45.9014 88.7849 46.4728 90.1191 46.5316H95.2938L95.3038 36.1723Z" fill="#17262F"></path><path d="M96.7607 48.0689C96.7198 48.0691 96.6791 48.0612 96.6412 48.0457C96.6033 48.0302 96.5688 48.0073 96.5397 47.9785C96.5087 47.9485 96.484 47.9126 96.4672 47.8729C96.4504 47.8332 96.4417 47.7905 96.4417 47.7474C96.4417 47.7043 96.4504 47.6616 96.4672 47.6219C96.484 47.5822 96.5087 47.5463 96.5397 47.5163L97.0019 47.034C97.0629 46.9702 97.145 46.9309 97.233 46.9235C97.32 46.9263 97.4027 46.9622 97.4641 47.0239L97.7052 47.2651L97.9363 47.0239C98.0033 46.9645 98.0882 46.9292 98.1775 46.9235C98.2238 46.9131 98.2718 46.9131 98.3182 46.9235L98.2378 35.7603C98.188 35.7698 98.1368 35.7698 98.0871 35.7603C98.0445 35.7613 98.0021 35.7538 97.9624 35.7383C97.9228 35.7227 97.8866 35.6995 97.856 35.6699L97.6148 35.4187L97.3837 35.6699C97.3192 35.7331 97.2329 35.7691 97.1426 35.7703C97.099 35.772 97.0556 35.7638 97.0156 35.7464C96.9756 35.729 96.94 35.7028 96.9115 35.6699L96.4593 35.2479C96.4283 35.2179 96.4037 35.182 96.3868 35.1423C96.37 35.1026 96.3613 35.0599 96.3613 35.0168C96.3613 34.9736 96.37 34.9309 96.3868 34.8912C96.4037 34.8515 96.4283 34.8156 96.4593 34.7857C96.5212 34.7255 96.6041 34.6918 96.6904 34.6918C96.7767 34.6918 96.8596 34.7255 96.9215 34.7857L97.1627 35.0268L97.3938 34.7756C97.4552 34.7139 97.5378 34.6779 97.6249 34.6751C97.7119 34.6779 97.7945 34.7139 97.856 34.7756L98.0971 35.0168L98.3282 34.7756C98.3728 34.7265 98.4316 34.6925 98.4963 34.6781C98.5611 34.6637 98.6287 34.6697 98.6899 34.6952C98.7491 34.7206 98.7995 34.7625 98.8352 34.8161C98.8709 34.8696 98.8902 34.9323 98.8909 34.9967L98.9914 47.7172C98.9913 47.783 98.971 47.8472 98.9332 47.9011C98.8955 47.955 98.8421 47.996 98.7804 48.0187C98.7216 48.0446 98.6563 48.0518 98.5934 48.0392C98.5304 48.0266 98.4729 47.9949 98.4287 47.9483L98.1875 47.7072L97.9564 47.9483C97.9264 47.9829 97.8894 48.0106 97.8478 48.0296C97.8062 48.0487 97.761 48.0587 97.7153 48.0589C97.628 48.0571 97.545 48.021 97.4842 47.9584L97.243 47.7172L97.0119 47.9584C96.9804 47.9937 96.9416 48.0218 96.8983 48.0408C96.855 48.0599 96.8081 48.0695 96.7607 48.0689Z" fill="#17262F"></path><path d="M87.6373 35.4187C87.5977 35.4285 87.5564 35.4285 87.5168 35.4187C87.4356 35.3853 87.3709 35.3211 87.337 35.2401C87.3031 35.1591 87.3027 35.0679 87.3359 34.9866L100.267 4.70243C100.654 3.85667 101.205 3.09678 101.889 2.46758C102.574 1.83838 103.377 1.35261 104.253 1.03893C105.128 0.725246 106.057 0.590001 106.985 0.64117C107.914 0.692339 108.822 0.928887 109.658 1.33686C110.493 1.74483 111.238 2.31597 111.849 3.01659C112.46 3.7172 112.925 4.5331 113.216 5.41617C113.507 6.29924 113.618 7.23159 113.542 8.15824C113.467 9.08488 113.207 9.98705 112.777 10.8115L99.7148 34.3335C99.6948 34.3716 99.6674 34.4052 99.6342 34.4325C99.601 34.4597 99.5626 34.48 99.5214 34.4922C99.4802 34.5044 99.4369 34.5082 99.3942 34.5034C99.3515 34.4985 99.3102 34.4852 99.2727 34.4642C99.1989 34.4183 99.1453 34.346 99.1229 34.262C99.1005 34.178 99.111 34.0886 99.1522 34.012L112.214 10.5C112.627 9.75152 112.883 8.92697 112.968 8.0764C113.052 7.22583 112.963 6.36698 112.705 5.55197C112.448 4.73696 112.027 3.98277 111.469 3.33516C110.912 2.68756 110.228 2.16004 109.46 1.78461C108.692 1.40919 107.856 1.19368 107.002 1.15118C106.149 1.10867 105.295 1.24004 104.494 1.53733C103.692 1.83462 102.96 2.29162 102.34 2.8806C101.721 3.46959 101.228 4.17828 100.89 4.96368L87.9388 35.2278C87.913 35.2858 87.8706 35.3349 87.817 35.3689C87.7633 35.4029 87.7008 35.4202 87.6373 35.4187Z" fill="#17262F"></path><path d="M106.507 13.2229C105.696 13.2238 104.895 13.0382 104.166 12.6803C103.506 12.391 102.911 11.9712 102.417 11.4461C101.923 10.921 101.541 10.3014 101.293 9.62471C101.044 8.94798 100.936 8.22805 100.973 7.5082C101.01 6.78836 101.193 6.08348 101.509 5.43595C101.826 4.78842 102.27 4.21162 102.816 3.74023C103.361 3.26885 103.996 2.91262 104.682 2.69296C105.369 2.47331 106.093 2.39477 106.81 2.46207C107.528 2.52937 108.225 2.74112 108.858 3.08458C110.13 3.70777 111.102 4.81006 111.562 6.14946C112.022 7.48887 111.931 8.95593 111.31 10.2286C111.01 10.8551 110.589 11.4163 110.072 11.8801C109.555 12.3439 108.951 12.7012 108.296 12.9315C107.721 13.1322 107.116 13.2309 106.507 13.2229ZM106.507 3.17501C105.355 3.16517 104.24 3.58027 103.375 4.34093C102.51 5.10159 101.956 6.15443 101.818 7.2981C101.681 8.44177 101.97 9.596 102.63 10.5401C103.29 11.4841 104.275 12.1517 105.396 12.4153C106.517 12.6788 107.696 12.5197 108.708 11.9684C109.719 11.4172 110.492 10.5124 110.878 9.4272C111.265 8.34198 111.237 7.15246 110.802 6.08613C110.366 5.0198 109.552 4.15149 108.517 3.64726C107.889 3.34957 107.202 3.19513 106.507 3.19511V3.17501Z" fill="#17262F"></path><path d="M90.0388 44.8838C89.5245 44.8815 89.0173 44.7633 88.5549 44.5382C88.0925 44.3131 87.6867 43.9868 87.3676 43.5835C87.0485 43.1802 86.8243 42.7102 86.7116 42.2084C86.5989 41.7066 86.6006 41.1859 86.7166 40.6849C86.8325 40.1838 87.0598 39.7153 87.3816 39.3141C87.7033 38.9129 88.1112 38.5892 88.5751 38.3671C89.039 38.1451 89.5469 38.0303 90.0612 38.0313C90.5755 38.0322 91.0829 38.149 91.546 38.3728C92.2456 38.7111 92.8095 39.2771 93.145 39.9781C93.4806 40.679 93.5679 41.4732 93.3927 42.2303C93.2174 42.9874 92.79 43.6624 92.1806 44.1446C91.5711 44.6267 90.8159 44.8874 90.0388 44.8838ZM90.0388 38.6843C89.3603 38.6846 88.7057 38.9344 88.1996 39.3863C87.6935 39.8381 87.3713 40.4604 87.2944 41.1345C87.2176 41.8086 87.3914 42.4874 87.7829 43.0416C88.1743 43.5957 88.7559 43.9865 89.4169 44.1395C90.0779 44.2925 90.772 44.1969 91.3671 43.871C91.9622 43.5451 92.4165 43.0117 92.6436 42.3723C92.8707 41.733 92.8546 41.0325 92.5985 40.4042C92.3423 39.776 91.8639 39.2639 91.2546 38.9657C90.8788 38.7829 90.4667 38.6867 90.0488 38.6843H90.0388Z" fill="#17262F"></path><path d="M106.507 10.3192C106.137 10.3197 105.773 10.2336 105.442 10.068C105.01 9.85627 104.651 9.52133 104.41 9.10552C104.169 8.6897 104.056 8.21168 104.086 7.73186C104.117 7.25204 104.288 6.79197 104.58 6.40978C104.872 6.02759 105.27 5.74044 105.725 5.58462C106.18 5.4288 106.671 5.41131 107.135 5.53435C107.6 5.65739 108.018 5.91545 108.336 6.27591C108.654 6.63636 108.858 7.08304 108.923 7.55948C108.987 8.03593 108.909 8.52076 108.698 8.9527C108.497 9.36241 108.185 9.70761 107.798 9.94914C107.411 10.1907 106.964 10.3189 106.507 10.3192ZM106.507 6.09911C106.312 6.09817 106.118 6.1322 105.934 6.19959C105.495 6.35369 105.134 6.67505 104.93 7.09385C104.806 7.30623 104.728 7.54173 104.7 7.78567C104.672 8.0296 104.694 8.27675 104.765 8.51171C104.837 8.74667 104.956 8.96441 105.115 9.15136C105.274 9.33831 105.47 9.49047 105.691 9.59835C105.911 9.70623 106.152 9.76753 106.397 9.77842C106.643 9.78931 106.887 9.74957 107.117 9.66166C107.346 9.57375 107.555 9.43956 107.73 9.26746C107.905 9.09535 108.043 8.88902 108.135 8.66131C108.238 8.45093 108.298 8.22234 108.312 7.98866C108.326 7.75497 108.294 7.52079 108.217 7.29955C108.141 7.0783 108.021 6.87435 107.866 6.69938C107.71 6.52442 107.522 6.38189 107.311 6.27997C107.061 6.15687 106.786 6.09488 106.507 6.09911Z" fill="#17262F"></path><path d="M90.0689 42.6833C89.8737 42.6845 89.681 42.6397 89.5062 42.5527C89.2224 42.414 88.9995 42.1756 88.8802 41.8831C88.7608 41.5906 88.7533 41.2644 88.8591 40.9667C88.9648 40.669 89.1765 40.4206 89.4536 40.2689C89.7308 40.1173 90.0541 40.073 90.3618 40.1444C90.6696 40.2158 90.9402 40.3981 91.1222 40.6563C91.3042 40.9145 91.3848 41.2308 91.3486 41.5446C91.3124 41.8585 91.162 42.148 90.9259 42.358C90.6899 42.568 90.3848 42.6838 90.0689 42.6833ZM90.0689 40.7541C89.949 40.754 89.8315 40.7879 89.7301 40.852C89.6287 40.916 89.5476 41.0075 89.4962 41.1159C89.439 41.23 89.4171 41.3585 89.4333 41.4851C89.4494 41.6117 89.5028 41.7306 89.5867 41.8267C89.6706 41.9228 89.7813 41.9918 89.9045 42.0249C90.0277 42.058 90.158 42.0537 90.2788 42.0124C90.3996 41.9712 90.5054 41.895 90.5827 41.7935C90.66 41.692 90.7054 41.5698 90.7131 41.4424C90.7207 41.3151 90.6903 41.1883 90.6257 41.0782C90.5611 40.9682 90.4652 40.8799 90.3503 40.8245C90.2626 40.7812 90.1666 40.7572 90.0689 40.7541Z" fill="#17262F"></path><path d="M121.649 40.0809C121.564 40.0809 121.482 40.047 121.422 39.9867C121.362 39.9264 121.328 39.8446 121.328 39.7593C121.326 39.7163 121.334 39.6734 121.349 39.6332C121.365 39.593 121.388 39.5564 121.418 39.5254C121.448 39.4945 121.484 39.4699 121.524 39.4531C121.564 39.4364 121.606 39.4277 121.649 39.4278H125.427V37.6292H121.579C121.495 37.6244 121.416 37.589 121.357 37.5297C121.298 37.4704 121.262 37.3914 121.257 37.3077C121.256 37.2646 121.263 37.2217 121.279 37.1815C121.295 37.1413 121.318 37.1047 121.348 37.0738C121.378 37.0428 121.414 37.0183 121.454 37.0015C121.493 36.9847 121.536 36.9761 121.579 36.9761H125.749C125.835 36.976 125.918 37.0096 125.98 37.0696C126.042 37.1296 126.078 37.2114 126.08 37.2976V39.7593C126.078 39.8464 126.042 39.929 125.98 39.9904C125.919 40.053 125.836 40.0891 125.749 40.0909H121.639L121.649 40.0809Z" fill="#17262F"></path><path d="M121.579 45.4564C121.502 45.4429 121.433 45.4027 121.382 45.343C121.332 45.2833 121.305 45.2078 121.305 45.1299C121.305 45.0519 121.332 44.9764 121.382 44.9167C121.433 44.857 121.502 44.8168 121.579 44.8033L125.518 44.733V42.9344L121.619 43.0148C121.534 43.0148 121.452 42.9809 121.392 42.9206C121.331 42.8603 121.298 42.7785 121.298 42.6933C121.295 42.6507 121.301 42.608 121.315 42.5679C121.33 42.5277 121.352 42.491 121.381 42.4599C121.411 42.4288 121.446 42.404 121.485 42.3871C121.524 42.3703 121.566 42.3616 121.609 42.3617L125.849 42.2712C125.91 42.2712 126.02 42.2712 126.08 42.3717C126.141 42.4294 126.178 42.5088 126.181 42.5928V45.0545C126.181 45.1407 126.147 45.2236 126.087 45.2855C126.027 45.3474 125.945 45.3835 125.859 45.3861L121.599 45.4564H121.579Z" fill="#17262F"></path><path d="M128.813 39.4781C128.759 39.4789 128.705 39.4654 128.658 39.4389C128.61 39.4125 128.57 39.374 128.542 39.3274L128.14 38.6944H125.749C125.672 38.6808 125.602 38.6407 125.552 38.581C125.502 38.5212 125.475 38.4458 125.475 38.3678C125.475 38.2898 125.502 38.2144 125.552 38.1546C125.602 38.0949 125.672 38.0548 125.749 38.0412H128.321C128.377 38.0419 128.432 38.0549 128.482 38.0792C128.533 38.1035 128.577 38.1386 128.612 38.1819L128.723 38.3527V37.5389H125.769C125.725 37.5453 125.68 37.5415 125.637 37.5278C125.595 37.5141 125.556 37.4908 125.524 37.4597C125.492 37.4286 125.467 37.3906 125.452 37.3486C125.437 37.3066 125.432 37.2617 125.437 37.2173C125.437 37.1311 125.471 37.0482 125.531 36.9863C125.591 36.9244 125.673 36.8884 125.759 36.8857H129.034C129.12 36.8857 129.202 36.9196 129.262 36.9799C129.322 37.0402 129.356 37.122 129.356 37.2073V39.1365C129.356 39.2244 129.321 39.3087 129.259 39.3709C129.197 39.4331 129.112 39.468 129.024 39.468H128.803L128.813 39.4781Z" fill="#17262F"></path><path d="M125.819 45.386C125.742 45.3725 125.673 45.3323 125.623 45.2726C125.573 45.2129 125.545 45.1374 125.545 45.0595C125.545 44.9815 125.573 44.906 125.623 44.8463C125.673 44.7866 125.742 44.7464 125.819 44.7329H128.773V43.919L128.673 44.0898C128.643 44.1385 128.602 44.1788 128.553 44.2069C128.504 44.2351 128.448 44.2501 128.391 44.2506H125.819C125.771 44.259 125.723 44.2569 125.676 44.2443C125.629 44.2318 125.586 44.2091 125.548 44.178C125.511 44.1469 125.482 44.108 125.461 44.0642C125.441 44.0203 125.43 43.9725 125.43 43.924C125.43 43.8756 125.441 43.8278 125.461 43.7839C125.482 43.7401 125.511 43.7012 125.548 43.6701C125.586 43.6389 125.629 43.6163 125.676 43.6038C125.723 43.5912 125.771 43.5891 125.819 43.5975H128.2L128.592 42.9544C128.622 42.9091 128.662 42.8716 128.709 42.8454C128.757 42.8191 128.81 42.8048 128.864 42.8037H129.095C129.18 42.8037 129.262 42.8376 129.322 42.8979C129.382 42.9582 129.416 43.04 129.416 43.1252V45.0544C129.417 45.097 129.41 45.1394 129.394 45.1791C129.379 45.2187 129.355 45.2549 129.326 45.2855C129.265 45.3481 129.182 45.3842 129.095 45.386H125.819Z" fill="#17262F"></path><path d="M119.68 45.4563C118.7 45.4564 117.759 45.0706 117.062 44.3823C116.364 43.6941 115.965 42.7588 115.952 41.7788V40.774C115.945 40.285 116.035 39.7994 116.217 39.3452C116.398 38.8909 116.667 38.4769 117.009 38.1269C117.351 37.7769 117.758 37.4977 118.208 37.3054C118.657 37.113 119.141 37.0113 119.63 37.0061H120.413C120.499 37.0061 120.58 37.04 120.641 37.1003C120.701 37.1606 120.735 37.2424 120.735 37.3276L120.825 45.1248C120.827 45.1678 120.819 45.2107 120.804 45.2509C120.788 45.2911 120.765 45.3277 120.735 45.3586C120.705 45.3896 120.669 45.4142 120.629 45.4309C120.59 45.4477 120.547 45.4564 120.504 45.4563H119.69H119.68ZM120.082 37.6492H119.63C118.818 37.665 118.045 38.0015 117.48 38.585C116.915 39.1686 116.605 39.952 116.615 40.764V41.7688C116.631 42.5737 116.962 43.3404 117.537 43.904C118.112 44.4676 118.885 44.7833 119.69 44.7831H120.172L120.082 37.6492Z" fill="#17262F"></path><path d="M54.2584 62.6584H10.5503C10.4623 62.6584 10.378 62.6235 10.3158 62.5613C10.2536 62.4991 10.2187 62.4148 10.2187 62.3268C10.2187 62.2837 10.2273 62.2411 10.2441 62.2014C10.2609 62.1617 10.2855 62.1258 10.3164 62.0958C10.3473 62.0658 10.384 62.0424 10.4241 62.0268C10.4643 62.0113 10.5072 62.0039 10.5503 62.0053H54.2584C54.3437 62.0053 54.4255 62.0392 54.4858 62.0995C54.5461 62.1598 54.5799 62.2415 54.5799 62.3268C54.5813 62.3699 54.574 62.4128 54.5584 62.4529C54.5429 62.4931 54.5194 62.5298 54.4894 62.5607C54.4594 62.5916 54.4235 62.6162 54.3838 62.633C54.3441 62.6498 54.3015 62.6584 54.2584 62.6584Z" fill="#17262F"></path><path d="M54.2584 66.6172H10.5503C10.5072 66.6186 10.4643 66.6112 10.4241 66.5957C10.384 66.5801 10.3473 66.5567 10.3164 66.5267C10.2855 66.4967 10.2609 66.4608 10.2441 66.4211C10.2273 66.3814 10.2187 66.3388 10.2187 66.2957C10.2187 66.2078 10.2536 66.1234 10.3158 66.0612C10.378 65.999 10.4623 65.9641 10.5503 65.9641H54.2584C54.3015 65.9641 54.3441 65.9727 54.3838 65.9895C54.4235 66.0063 54.4594 66.0309 54.4894 66.0618C54.5194 66.0927 54.5429 66.1294 54.5584 66.1696C54.574 66.2097 54.5813 66.2526 54.5799 66.2957C54.5799 66.381 54.5461 66.4627 54.4858 66.523C54.4255 66.5833 54.3437 66.6172 54.2584 66.6172Z" fill="#17262F"></path><path d="M12.1076 66.6171C12.0651 66.6181 12.0227 66.6106 11.983 66.5951C11.9433 66.5796 11.9072 66.5563 11.8765 66.5267C11.8456 66.4967 11.8209 66.4608 11.8041 66.4211C11.7872 66.3814 11.7786 66.3387 11.7786 66.2956C11.7786 66.2525 11.7872 66.2098 11.8041 66.1701C11.8209 66.1304 11.8456 66.0945 11.8765 66.0645L15.8354 62.0454C15.8984 61.9875 15.9809 61.9553 16.0665 61.9553C16.1521 61.9553 16.2346 61.9875 16.2976 62.0454C16.3286 62.0753 16.3532 62.1112 16.3701 62.1509C16.3869 62.1906 16.3956 62.2333 16.3956 62.2765C16.3956 62.3196 16.3869 62.3623 16.3701 62.402C16.3532 62.4417 16.3286 62.4776 16.2976 62.5076L12.3387 66.4765C12.3114 66.514 12.2769 66.5458 12.2373 66.5699C12.1976 66.594 12.1535 66.6101 12.1076 66.6171Z" fill="#17262F"></path><path d="M22.2158 66.6173C22.1303 66.6163 22.0482 66.5841 21.9847 66.5269C21.9268 66.4638 21.8947 66.3814 21.8947 66.2958C21.8947 66.2102 21.9268 66.1277 21.9847 66.0647L25.9536 62.0455C26.0174 62.0003 26.0952 61.9792 26.1732 61.9858C26.2512 61.9924 26.3243 62.0264 26.3796 62.0817C26.4349 62.1371 26.4689 62.2102 26.4755 62.2881C26.4821 62.3661 26.461 62.4439 26.4158 62.5077L22.4469 66.4766C22.4209 66.5155 22.3868 66.5482 22.3468 66.5725C22.3069 66.5968 22.2622 66.6121 22.2158 66.6173Z" fill="#17262F"></path><path d="M17.5737 66.6171C17.5311 66.6181 17.4888 66.6106 17.4491 66.5951C17.4094 66.5796 17.3732 66.5563 17.3426 66.5267C17.3116 66.4967 17.287 66.4608 17.2701 66.4211C17.2533 66.3814 17.2446 66.3387 17.2446 66.2956C17.2446 66.2525 17.2533 66.2098 17.2701 66.1701C17.287 66.1304 17.3116 66.0945 17.3426 66.0645L21.3015 62.0454C21.3645 61.9875 21.447 61.9553 21.5326 61.9553C21.6182 61.9553 21.7006 61.9875 21.7637 62.0454C21.7947 62.0753 21.8193 62.1112 21.8361 62.1509C21.853 62.1906 21.8616 62.2333 21.8616 62.2765C21.8616 62.3196 21.853 62.3623 21.8361 62.402C21.8193 62.4417 21.7947 62.4776 21.7637 62.5076L17.8048 66.4765C17.7775 66.514 17.743 66.5458 17.7033 66.5699C17.6637 66.594 17.6196 66.6101 17.5737 66.6171Z" fill="#17262F"></path><path d="M32.334 66.6171C32.2914 66.6181 32.249 66.6106 32.2093 66.5951C32.1697 66.5796 32.1335 66.5563 32.1029 66.5267C32.0719 66.4967 32.0472 66.4608 32.0304 66.4211C32.0136 66.3814 32.0049 66.3387 32.0049 66.2956C32.0049 66.2525 32.0136 66.2098 32.0304 66.1701C32.0472 66.1304 32.0719 66.0945 32.1029 66.0645L36.0617 62.0454C36.1248 61.9875 36.2072 61.9553 36.2928 61.9553C36.3784 61.9553 36.4609 61.9875 36.5239 62.0454C36.5549 62.0753 36.5796 62.1112 36.5964 62.1509C36.6132 62.1906 36.6219 62.2333 36.6219 62.2765C36.6219 62.3196 36.6132 62.3623 36.5964 62.402C36.5796 62.4417 36.5549 62.4776 36.5239 62.5076L32.5651 66.4765C32.5377 66.514 32.5032 66.5458 32.4636 66.5699C32.4239 66.594 32.3799 66.6101 32.334 66.6171Z" fill="#17262F"></path><path d="M27.6818 66.6171C27.596 66.618 27.5131 66.5856 27.4507 66.5267C27.4197 66.4967 27.3951 66.4608 27.3782 66.4211C27.3614 66.3814 27.3527 66.3387 27.3527 66.2956C27.3527 66.2525 27.3614 66.2098 27.3782 66.1701C27.3951 66.1304 27.4197 66.0945 27.4507 66.0645L31.4096 62.0454C31.4726 61.9875 31.5551 61.9553 31.6407 61.9553C31.7262 61.9553 31.8087 61.9875 31.8718 62.0454C31.9027 62.0753 31.9274 62.1112 31.9442 62.1509C31.9611 62.1906 31.9697 62.2333 31.9697 62.2765C31.9697 62.3196 31.9611 62.3623 31.9442 62.402C31.9274 62.4417 31.9027 62.4776 31.8718 62.5076L27.9129 66.4765C27.8864 66.5148 27.8522 66.5472 27.8124 66.5714C27.7725 66.5957 27.728 66.6112 27.6818 66.6171Z" fill="#17262F"></path><path d="M42.4421 66.6173C42.3566 66.6163 42.2745 66.5841 42.211 66.5269C42.1531 66.4639 42.121 66.3814 42.121 66.2958C42.121 66.2102 42.1531 66.1277 42.211 66.0647L46.2301 62.0456C46.2915 61.9884 46.3723 61.9565 46.4562 61.9565C46.5401 61.9565 46.6209 61.9884 46.6823 62.0456C46.7133 62.0755 46.7379 62.1115 46.7548 62.1512C46.7716 62.1909 46.7803 62.2335 46.7803 62.2767C46.7803 62.3198 46.7716 62.3625 46.7548 62.4022C46.7379 62.4419 46.7133 62.4778 46.6823 62.5078L42.7234 66.4767C42.6925 66.5222 42.6504 66.5591 42.6011 66.5838C42.5519 66.6084 42.4971 66.6199 42.4421 66.6173Z" fill="#17262F"></path><path d="M37.8 66.6171C37.7574 66.6181 37.7151 66.6106 37.6754 66.5951C37.6357 66.5796 37.5995 66.5563 37.5689 66.5267C37.5379 66.4967 37.5133 66.4608 37.4965 66.4211C37.4796 66.3814 37.4709 66.3387 37.4709 66.2956C37.4709 66.2525 37.4796 66.2098 37.4965 66.1701C37.5133 66.1304 37.5379 66.0945 37.5689 66.0645L41.5278 62.0454C41.5908 61.9875 41.6733 61.9553 41.7589 61.9553C41.8445 61.9553 41.9269 61.9875 41.99 62.0454C42.021 62.0753 42.0456 62.1112 42.0625 62.1509C42.0793 62.1906 42.088 62.2333 42.088 62.2765C42.088 62.3196 42.0793 62.3623 42.0625 62.402C42.0456 62.4417 42.021 62.4776 41.99 62.5076L38.0311 66.4765C38.0038 66.514 37.9693 66.5458 37.9296 66.5699C37.89 66.594 37.8459 66.6101 37.8 66.6171Z" fill="#17262F"></path><path d="M52.5603 66.6173C52.5177 66.6183 52.4753 66.6108 52.4357 66.5953C52.396 66.5797 52.3598 66.5565 52.3292 66.5269C52.2982 66.4969 52.2735 66.461 52.2567 66.4213C52.2399 66.3816 52.2312 66.3389 52.2312 66.2958C52.2312 66.2526 52.2399 66.2099 52.2567 66.1702C52.2735 66.1305 52.2982 66.0946 52.3292 66.0647L53.9971 64.3867C54.0602 64.3288 54.1426 64.2966 54.2282 64.2966C54.3138 64.2966 54.3963 64.3288 54.4593 64.3867C54.4903 64.4166 54.515 64.4526 54.5318 64.4923C54.5486 64.532 54.5573 64.5746 54.5573 64.6178C54.5573 64.6609 54.5486 64.7036 54.5318 64.7433C54.515 64.783 54.4903 64.8189 54.4593 64.8489L52.7914 66.5269C52.7279 66.5841 52.6457 66.6162 52.5603 66.6173Z" fill="#17262F"></path><path d="M47.9081 66.6171C47.8223 66.618 47.7394 66.5856 47.677 66.5267C47.646 66.4967 47.6214 66.4608 47.6045 66.4211C47.5877 66.3814 47.579 66.3387 47.579 66.2956C47.579 66.2525 47.5877 66.2098 47.6045 66.1701C47.6214 66.1304 47.646 66.0945 47.677 66.0645L51.6359 62.0454C51.6989 61.9875 51.7814 61.9553 51.867 61.9553C51.9526 61.9553 52.035 61.9875 52.0981 62.0454C52.1291 62.0753 52.1537 62.1112 52.1705 62.1509C52.1874 62.1906 52.1961 62.2333 52.1961 62.2765C52.1961 62.3196 52.1874 62.3623 52.1705 62.402C52.1537 62.4417 52.1291 62.4776 52.0981 62.5076L48.1392 66.4765C48.1128 66.5148 48.0785 66.5472 48.0387 66.5714C47.9989 66.5957 47.9544 66.6112 47.9081 66.6171Z" fill="#17262F"></path><path d="M23.9742 91.2848H15.5239C14.9909 91.2848 14.4798 91.073 14.1029 90.6962C13.7261 90.3193 13.5143 89.8082 13.5143 89.2752V71.8824C13.5143 71.3494 13.7261 70.8383 14.1029 70.4614C14.4798 70.0845 14.9909 69.8728 15.5239 69.8728H23.9742C24.5071 69.8728 25.0183 70.0845 25.3951 70.4614C25.772 70.8383 25.9837 71.3494 25.9837 71.8824V89.3154C25.9732 89.8414 25.7568 90.3422 25.3811 90.7105C25.0054 91.0787 24.5002 91.2849 23.9742 91.2848ZM15.5239 70.5661C15.1748 70.5661 14.84 70.7048 14.5932 70.9516C14.3463 71.1985 14.2076 71.5333 14.2076 71.8824V89.3154C14.2076 89.6645 14.3463 89.9993 14.5932 90.2461C14.84 90.493 15.1748 90.6317 15.5239 90.6317H23.9742C24.3232 90.6317 24.658 90.493 24.9049 90.2461C25.1517 89.9993 25.2904 89.6645 25.2904 89.3154V71.8824C25.2904 71.5333 25.1517 71.1985 24.9049 70.9516C24.658 70.7048 24.3232 70.5661 23.9742 70.5661H15.5239Z" fill="#17262F"></path><path d="M37.9406 91.2848H29.4904C28.9574 91.2848 28.4463 91.073 28.0694 90.6962C27.6926 90.3193 27.4808 89.8082 27.4808 89.2752V71.8824C27.4808 71.3494 27.6926 70.8383 28.0694 70.4614C28.4463 70.0845 28.9574 69.8728 29.4904 69.8728H37.9406C38.4736 69.8728 38.9848 70.0845 39.3616 70.4614C39.7385 70.8383 39.9502 71.3494 39.9502 71.8824V89.3154C39.9397 89.8414 39.7233 90.3422 39.3476 90.7105C38.9719 91.0787 38.4667 91.2849 37.9406 91.2848ZM29.4904 70.5661C29.3138 70.5593 29.1377 70.5884 28.9727 70.6516C28.8077 70.7148 28.6573 70.8109 28.5305 70.9339C28.4037 71.057 28.3031 71.2045 28.235 71.3675C28.1668 71.5305 28.1325 71.7057 28.1339 71.8824V89.3154C28.1339 89.6645 28.2726 89.9993 28.5195 90.2461C28.7663 90.493 29.1011 90.6317 29.4502 90.6317H37.9005C38.2495 90.6317 38.5843 90.493 38.8312 90.2461C39.078 89.9993 39.2167 89.6645 39.2167 89.3154V71.8824C39.2167 71.5333 39.078 71.1985 38.8312 70.9516C38.5843 70.7048 38.2495 70.5661 37.9005 70.5661H29.4904Z" fill="#17262F"></path><path d="M57.9861 41.4674C57.8997 41.4619 57.818 41.4263 57.755 41.367L23.8034 7.20427C23.7582 7.14041 23.737 7.06262 23.7436 6.98466C23.7502 6.9067 23.7842 6.83359 23.8395 6.77827C23.8949 6.72295 23.968 6.68897 24.0459 6.68234C24.1239 6.67572 24.2017 6.69688 24.2656 6.74207L58.2172 40.9048C58.2482 40.9347 58.2729 40.9706 58.2897 41.0103C58.3065 41.05 58.3152 41.0927 58.3152 41.1359C58.3152 41.179 58.3065 41.2217 58.2897 41.2614C58.2729 41.3011 58.2482 41.337 58.2172 41.367C58.1564 41.4296 58.0734 41.4657 57.9861 41.4674Z" fill="#17262F"></path><path d="M94.0679 7.34503H75.4191C75.3356 7.34507 75.2553 7.31257 75.1953 7.25443C75.1352 7.19629 75.1002 7.11706 75.0976 7.03354C75.0976 6.94827 75.1315 6.86648 75.1918 6.80619C75.2521 6.74589 75.3339 6.71201 75.4191 6.71201H94.0679C94.1149 6.70304 94.1633 6.70465 94.2095 6.71674C94.2558 6.72883 94.2988 6.75109 94.3354 6.78189C94.372 6.81269 94.4012 6.85126 94.421 6.8948C94.4408 6.93833 94.4506 6.98573 94.4498 7.03354C94.4475 7.07995 94.4355 7.12535 94.4145 7.16682C94.3936 7.20829 94.3642 7.2449 94.3282 7.27426C94.2922 7.30363 94.2504 7.32511 94.2056 7.3373C94.1607 7.34949 94.1138 7.35212 94.0679 7.34503Z" fill="#17262F"></path><path d="M25.1196 45.2153C25.0765 45.2153 25.0339 45.2067 24.9942 45.1899C24.9545 45.1731 24.9186 45.1486 24.8886 45.1176C24.8586 45.0867 24.8352 45.0501 24.8196 45.0099C24.804 44.9697 24.7967 44.9268 24.7981 44.8837V32.8263C24.7981 32.7411 24.8319 32.6593 24.8922 32.599C24.9525 32.5387 25.0343 32.5048 25.1196 32.5048C25.1627 32.5034 25.2056 32.5108 25.2457 32.5263C25.2859 32.5419 25.3226 32.5654 25.3535 32.5953C25.3844 32.6253 25.409 32.6612 25.4258 32.7009C25.4426 32.7406 25.4512 32.7832 25.4512 32.8263V44.8837C25.4512 44.9717 25.4162 45.056 25.3541 45.1182C25.2919 45.1804 25.2075 45.2153 25.1196 45.2153Z" fill="#17262F"></path></g><defs><clipPath id="clip0_5678_16155"><rect width="129.426" height="105" fill="white"></rect></clipPath></defs></svg>