<svg xmlns="http://www.w3.org/2000/svg" width="83" height="95" viewBox="0 0 83 95" fill="none"><g clip-path="url(#clip0_5678_33042)"><path d="M41.2127 92.1199C33.0616 92.1199 25.0935 89.7029 18.3162 85.1743C11.5388 80.6458 6.25644 74.2093 3.13715 66.6787C0.0178568 59.148 -0.798292 50.8615 0.791908 42.8671C2.38211 34.8726 6.30723 27.5292 12.0709 21.7655C17.8346 16.0018 25.178 12.0767 33.1725 10.4865C41.167 8.89629 49.4535 9.71244 56.9841 12.8317C64.5147 15.951 70.9513 21.2333 75.4798 28.0107C80.0083 34.7881 82.4254 42.7562 82.4254 50.9073C82.4118 61.8334 78.0653 72.3081 70.3394 80.034C62.6135 87.7599 52.1388 92.1063 41.2127 92.1199ZM41.2127 13.509C33.814 13.509 26.5814 15.7031 20.4297 19.8138C14.278 23.9245 9.48344 29.7671 6.65245 36.6028C3.82147 43.4385 3.08119 50.9603 4.52524 58.2167C5.96928 65.4732 9.53279 72.1384 14.7651 77.3695C19.9974 82.6006 26.6635 86.1626 33.9202 87.605C41.177 89.0473 48.6985 88.3053 55.5336 85.4728C62.3687 82.6402 68.2102 77.8444 72.3195 71.6917C76.4288 65.5391 78.6212 58.306 78.6195 50.9073C78.6082 40.9906 74.6632 31.4835 67.6503 24.4722C60.6373 17.4609 51.1293 13.5181 41.2127 13.509Z" fill="#17262F"></path><path d="M49.2101 0H33.2153C32.7106 0 32.2266 0.200485 31.8697 0.557351C31.5129 0.914216 31.3124 1.39823 31.3124 1.90291C31.3124 2.4076 31.5129 2.89161 31.8697 3.24848C32.2266 3.60534 32.7106 3.80583 33.2153 3.80583H39.3098V7.14021C39.3098 7.6449 39.5102 8.12891 39.8671 8.48578C40.224 8.84264 40.708 9.04313 41.2127 9.04313C41.7174 9.04313 42.2014 8.84264 42.5582 8.48578C42.9151 8.12891 43.1156 7.6449 43.1156 7.14021V3.80583H49.2101C49.7147 3.80583 50.1988 3.60534 50.5556 3.24848C50.9125 2.89161 51.113 2.4076 51.113 1.90291C51.113 1.39823 50.9125 0.914216 50.5556 0.557351C50.1988 0.200485 49.7147 0 49.2101 0V0Z" fill="#17262F"></path><path d="M64.4591 95H56.496C55.9913 95 55.5073 94.7995 55.1504 94.4426C54.7936 94.0858 54.5931 93.6017 54.5931 93.0971C54.5931 92.5924 54.7936 92.1084 55.1504 91.7515C55.5073 91.3946 55.9913 91.1941 56.496 91.1941H64.4591C64.7759 91.1944 65.0879 91.117 65.3678 90.9687C65.6477 90.8204 65.8869 90.6057 66.0646 90.3434C66.2422 90.0812 66.3529 89.7793 66.3868 89.4644C66.4207 89.1495 66.3769 88.831 66.2591 88.5369L65.8306 87.4312C65.673 86.9691 65.699 86.4642 65.9033 86.0208C66.1075 85.5775 66.4743 85.2295 66.9279 85.049C67.3814 84.8684 67.887 84.8691 68.3401 85.0509C68.7931 85.2326 69.159 85.5815 69.3621 86.0254L69.7907 87.0969C70.1395 87.9683 70.2695 88.9119 70.1691 89.8452C70.0688 90.7785 69.7412 91.6729 69.2151 92.4502C68.6889 93.2276 67.9803 93.8641 67.1512 94.3041C66.3221 94.7442 65.3977 94.9742 64.4591 94.9743V95Z" fill="#17262F"></path><path d="M25.9294 95H18.0006C17.0619 95 16.1376 94.7699 15.3085 94.3299C14.4793 93.8899 13.7707 93.2533 13.2446 92.476C12.7185 91.6987 12.3909 90.8042 12.2905 89.8709C12.1902 88.9377 12.3201 87.994 12.669 87.1226L13.0976 86.0512C13.1575 85.7829 13.2749 85.5308 13.4416 85.3123C13.6083 85.0937 13.8204 84.9139 14.0633 84.7851C14.3061 84.6564 14.574 84.5818 14.8485 84.5664C15.1229 84.5511 15.3974 84.5954 15.6531 84.6963C15.9088 84.7972 16.1396 84.9523 16.3296 85.1509C16.5196 85.3495 16.6644 85.587 16.7539 85.8469C16.8433 86.1068 16.8755 86.383 16.848 86.6565C16.8206 86.93 16.7342 87.1943 16.5948 87.4312L16.1662 88.5112C16.0485 88.8053 16.0047 89.1238 16.0386 89.4387C16.0725 89.7537 16.1831 90.0555 16.3608 90.3177C16.5384 90.58 16.7777 90.7947 17.0576 90.943C17.3375 91.0913 17.6495 91.1687 17.9663 91.1685H25.9294C26.4341 91.1685 26.9181 91.3689 27.2749 91.7258C27.6318 92.0827 27.8323 92.5667 27.8323 93.0714C27.8323 93.5761 27.6318 94.0601 27.2749 94.4169C26.9181 94.7738 26.4341 94.9743 25.9294 94.9743V95Z" fill="#17262F"></path><path d="M41.2127 82.8625C40.708 82.8625 40.224 82.662 39.8671 82.3051C39.5102 81.9483 39.3098 81.4643 39.3098 80.9596V77.1452C39.3422 76.6615 39.5572 76.2081 39.9113 75.877C40.2654 75.5458 40.7321 75.3616 41.217 75.3616C41.7018 75.3616 42.1685 75.5458 42.5226 75.877C42.8767 76.2081 43.0917 76.6615 43.1242 77.1452V80.9939C43.1151 81.4941 42.9095 81.9706 42.5518 82.3203C42.194 82.6701 41.713 82.8648 41.2127 82.8625Z" fill="#17262F"></path><path d="M41.2127 26.5122C40.708 26.5122 40.224 26.3118 39.8671 25.9549C39.5103 25.598 39.3098 25.114 39.3098 24.6093V19.912C39.2922 19.6508 39.3286 19.3888 39.4165 19.1422C39.5044 18.8956 39.642 18.6697 39.8208 18.4785C39.9997 18.2873 40.2158 18.1348 40.456 18.0306C40.6962 17.9264 40.9552 17.8726 41.217 17.8726C41.4788 17.8726 41.7378 17.9264 41.9779 18.0306C42.2181 18.1348 42.4343 18.2873 42.6131 18.4785C42.7919 18.6697 42.9295 18.8956 43.0175 19.1422C43.1054 19.3888 43.1417 19.6508 43.1242 19.912V24.6093C43.1242 24.8599 43.0747 25.1081 42.9785 25.3395C42.8823 25.571 42.7414 25.7811 42.5638 25.9579C42.3862 26.1347 42.1754 26.2747 41.9435 26.3699C41.7117 26.465 41.4633 26.5134 41.2127 26.5122Z" fill="#17262F"></path><path d="M14.9662 52.3473H10.6803C10.1756 52.3473 9.69162 52.1468 9.33476 51.7899C8.97789 51.4331 8.7774 50.949 8.7774 50.4444C8.7774 49.9397 8.97789 49.4557 9.33476 49.0988C9.69162 48.7419 10.1756 48.5414 10.6803 48.5414H14.9662C15.4708 48.5414 15.9549 48.7419 16.3117 49.0988C16.6686 49.4557 16.8691 49.9397 16.8691 50.4444C16.8691 50.949 16.6686 51.4331 16.3117 51.7899C15.9549 52.1468 15.4708 52.3473 14.9662 52.3473Z" fill="#17262F"></path><path d="M71.7364 52.3301H67.4506C66.9459 52.3301 66.4619 52.1296 66.105 51.7728C65.7482 51.4159 65.5477 50.9319 65.5477 50.4272C65.5477 49.9225 65.7482 49.4385 66.105 49.0816C66.4619 48.7248 66.9459 48.5243 67.4506 48.5243H71.7364C72.2411 48.5243 72.7251 48.7248 73.082 49.0816C73.4389 49.4385 73.6393 49.9225 73.6393 50.4272C73.6393 50.9319 73.4389 51.4159 73.082 51.7728C72.7251 52.1296 72.2411 52.3301 71.7364 52.3301Z" fill="#17262F"></path><path d="M62.7962 73.9222C62.5462 73.9228 62.2986 73.8738 62.0676 73.7782C61.8366 73.6825 61.6269 73.5421 61.4504 73.3651L58.6389 70.5536C58.4622 70.3768 58.322 70.167 58.2264 69.9361C58.1307 69.7052 58.0815 69.4577 58.0815 69.2078C58.0815 68.9579 58.1307 68.7104 58.2264 68.4795C58.322 68.2486 58.4622 68.0388 58.6389 67.8621C58.8156 67.6853 59.0254 67.5451 59.2564 67.4495C59.4873 67.3539 59.7347 67.3046 59.9847 67.3046C60.2346 67.3046 60.4821 67.3539 60.713 67.4495C60.9439 67.5451 61.1537 67.6853 61.3304 67.8621L64.1419 70.6736C64.3187 70.8503 64.4589 71.0601 64.5546 71.291C64.6502 71.5219 64.6995 71.7694 64.6995 72.0193C64.6995 72.2693 64.6502 72.5168 64.5546 72.7477C64.4589 72.9786 64.3187 73.1884 64.1419 73.3651C63.9663 73.5433 63.7568 73.6845 63.5256 73.7802C63.2944 73.8759 63.0464 73.9242 62.7962 73.9222Z" fill="#17262F"></path><path d="M22.8607 33.9867C22.6108 33.9868 22.3633 33.9376 22.1324 33.842C21.9015 33.7464 21.6917 33.6063 21.5149 33.4296L18.2748 30.1895C17.9179 29.8326 17.7174 29.3485 17.7174 28.8437C17.7174 28.339 17.9179 27.8549 18.2748 27.498C18.6318 27.1411 19.1158 26.9406 19.6206 26.9406C20.1253 26.9406 20.6094 27.1411 20.9663 27.498L24.2064 30.7381C24.4726 31.0042 24.6539 31.3433 24.7274 31.7125C24.8009 32.0817 24.7632 32.4643 24.6191 32.8121C24.4751 33.1599 24.2311 33.4571 23.9181 33.6662C23.6051 33.8753 23.2371 33.9868 22.8607 33.9867Z" fill="#17262F"></path><path d="M19.6206 73.9222C19.3705 73.9237 19.1226 73.8752 18.8915 73.7795C18.6604 73.6838 18.4507 73.5429 18.2748 73.3651C17.9199 73.0071 17.7208 72.5234 17.7208 72.0193C17.7208 71.5152 17.9199 71.0316 18.2748 70.6736L21.0949 67.8621C21.2717 67.6853 21.4815 67.5451 21.7124 67.4495C21.9433 67.3539 22.1908 67.3046 22.4407 67.3046C22.6906 67.3046 22.9381 67.3539 23.169 67.4495C23.3999 67.5451 23.6097 67.6853 23.7864 67.8621C23.9632 68.0388 24.1034 68.2486 24.199 68.4795C24.2946 68.7104 24.3439 68.9579 24.3439 69.2078C24.3439 69.4577 24.2946 69.7052 24.199 69.9361C24.1034 70.167 23.9632 70.3768 23.7864 70.5536L20.9664 73.3651C20.7908 73.5433 20.5812 73.6845 20.35 73.7802C20.1188 73.8759 19.8708 73.9242 19.6206 73.9222Z" fill="#17262F"></path><path d="M41.2127 52.8102C40.8383 52.8103 40.4722 52.7 40.1602 52.493C39.8482 52.2861 39.6042 51.9917 39.4587 51.6468C39.3132 51.3018 39.2727 50.9216 39.3423 50.5537C39.4118 50.1859 39.5884 49.8467 39.8498 49.5787L61.4418 27.5151C61.6169 27.3367 61.8253 27.1945 62.0553 27.0967C62.2853 26.9988 62.5323 26.9472 62.7823 26.9449C63.0322 26.9425 63.2801 26.9893 63.512 27.0828C63.7438 27.1762 63.9549 27.3144 64.1333 27.4894C64.3118 27.6645 64.454 27.8729 64.5518 28.1029C64.6497 28.3329 64.7012 28.5799 64.7036 28.8299C64.706 29.0798 64.6592 29.3277 64.5657 29.5596C64.4723 29.7914 64.3341 30.0025 64.1591 30.1809L42.5755 52.2873C42.2073 52.6334 41.7179 52.8212 41.2127 52.8102Z" fill="#17262F"></path></g><defs><clipPath id="clip0_5678_33042"><rect width="82.4253" height="95" fill="white"></rect></clipPath></defs></svg>