<svg xmlns="http://www.w3.org/2000/svg" width="80" height="85" viewBox="0 0 80 85" fill="none"><g clip-path="url(#clip0_5678_6189)"><path d="M29.852 50.9611H20.739C20.3882 50.9611 20.0518 50.8207 19.8038 50.5709C19.5557 50.321 19.4164 49.9821 19.4164 49.6288V45.452C18.0391 45.0393 16.7091 44.4811 15.4485 43.7866L12.499 46.7376C12.3761 46.8615 12.2303 46.9598 12.0697 47.0268C11.9091 47.0939 11.737 47.1284 11.5632 47.1284C11.3894 47.1284 11.2173 47.0939 11.0567 47.0268C10.8961 46.9598 10.7503 46.8615 10.6274 46.7376L4.19277 40.2493C4.0698 40.1255 3.97224 39.9786 3.90568 39.8168C3.83912 39.6551 3.80486 39.4817 3.80486 39.3067C3.80486 39.1316 3.83912 38.9582 3.90568 38.7965C3.97224 38.6347 4.0698 38.4878 4.19277 38.364L7.11581 35.413C6.42947 34.1424 5.87754 32.8027 5.46912 31.416H1.32264C0.971855 31.416 0.635436 31.2756 0.387393 31.0258C0.139349 30.7759 0 30.437 0 30.0837V20.8907C0 20.5374 0.139349 20.1985 0.387393 19.9486C0.635436 19.6988 0.971855 19.5584 1.32264 19.5584H5.46912C5.87699 18.1715 6.42894 16.8317 7.11581 15.5615L4.19277 12.5904C4.0698 12.4666 3.97224 12.3197 3.90568 12.158C3.83912 11.9962 3.80486 11.8229 3.80486 11.6478C3.80486 11.4727 3.83912 11.2993 3.90568 11.1376C3.97224 10.9758 4.0698 10.8289 4.19277 10.7052L10.6274 4.21678C10.8804 3.97598 11.2152 3.84181 11.5632 3.84181C11.9112 3.84181 12.246 3.97598 12.499 4.21678L15.4286 7.16786C16.6908 6.47825 18.0205 5.92236 19.3965 5.50913V1.33232C19.3965 0.978964 19.5359 0.640084 19.7839 0.390226C20.032 0.140369 20.3684 0 20.7192 0L29.852 0C30.2028 0 30.5392 0.140369 30.7873 0.390226C31.0353 0.640084 31.1747 0.978964 31.1747 1.33232V5.50913C32.5507 5.92236 33.8804 6.47825 35.1426 7.16786L38.0921 4.21678C38.3384 3.97064 38.671 3.83188 39.0179 3.83041C39.192 3.82939 39.3646 3.863 39.5257 3.9293C39.6869 3.99561 39.8334 4.0933 39.957 4.21678L46.3917 10.7052C46.5146 10.8289 46.6122 10.9758 46.6788 11.1376C46.7453 11.2993 46.7796 11.4727 46.7796 11.6478C46.7796 11.8229 46.7453 11.9962 46.6788 12.158C46.6122 12.3197 46.5146 12.4666 46.3917 12.5904L43.4686 15.5415C44.1532 16.8128 44.7051 18.1523 45.1153 19.5384H49.2684C49.6192 19.5384 49.9556 19.6788 50.2037 19.9286C50.4517 20.1785 50.591 20.5174 50.591 20.8707V30.0704C50.591 30.4237 50.4517 30.7626 50.2037 31.0125C49.9556 31.2623 49.6192 31.4027 49.2684 31.4027H45.1219C44.7117 32.7888 44.1598 34.1283 43.4752 35.3996L46.3983 38.3507C46.5213 38.4744 46.6188 38.6214 46.6854 38.7831C46.7519 38.9449 46.7862 39.1182 46.7862 39.2933C46.7862 39.4684 46.7519 39.6418 46.6854 39.8035C46.6188 39.9653 46.5213 40.1122 46.3983 40.2359L39.9636 46.7177C39.8408 46.8415 39.6949 46.9398 39.5343 47.0068C39.3738 47.0739 39.2017 47.1084 39.0279 47.1084C38.854 47.1084 38.6819 47.0739 38.5214 47.0068C38.3608 46.9398 38.2149 46.8415 38.0921 46.7177L35.1624 43.7666C33.9018 44.4611 32.5717 45.0193 31.1945 45.432V49.6288C31.1945 49.9821 31.0552 50.321 30.8071 50.5709C30.5591 50.8207 30.2227 50.9611 29.8719 50.9611H29.852ZM22.0617 48.2965H28.5294V44.4327C28.5209 44.1275 28.6168 43.8286 28.801 43.586C28.9852 43.3435 29.2465 43.1721 29.5412 43.1004C31.3568 42.6601 33.0928 41.9363 34.6863 40.9554C34.9396 40.7988 35.2378 40.7327 35.533 40.7678C35.8281 40.8028 36.1029 40.937 36.3131 41.1486L39.0245 43.8798L43.5943 39.3033L40.8829 36.5721C40.6728 36.3603 40.5396 36.0835 40.5048 35.7862C40.47 35.4889 40.5356 35.1885 40.6911 34.9333C41.6672 33.3294 42.3858 31.5803 42.8205 29.7506C42.8917 29.4538 43.0618 29.1905 43.3026 29.005C43.5434 28.8195 43.8401 28.7229 44.1432 28.7314H47.9788V22.223H44.1101C43.8071 22.2316 43.5103 22.135 43.2696 21.9494C43.0288 21.7639 42.8586 21.5007 42.7875 21.2038C42.3622 19.3659 41.6549 17.6061 40.6911 15.9878C40.5373 15.7333 40.4726 15.4343 40.5074 15.1384C40.5421 14.8426 40.6743 14.567 40.8829 14.3557L43.5943 11.6245L39.0179 7.04795L36.3065 9.7792C36.0963 9.99082 35.8215 10.125 35.5264 10.16C35.2312 10.1951 34.933 10.129 34.6797 9.97238C33.0863 8.98979 31.3503 8.26381 29.5346 7.82069C29.2478 7.74928 28.9931 7.58324 28.8109 7.34902C28.6287 7.1148 28.5296 6.82589 28.5294 6.52835V2.66463H22.0617V6.52835C22.0611 6.82679 21.961 7.11639 21.7776 7.35073C21.5941 7.58506 21.3378 7.75056 21.0498 7.82069C19.2329 8.27005 17.497 9.00279 15.9048 9.99237C15.6515 10.149 15.3532 10.2151 15.0581 10.18C14.7629 10.145 14.4881 10.0108 14.2779 9.79918L11.5665 7.06794L6.99678 11.6711L9.70819 14.4023C9.90911 14.6079 10.0384 14.8736 10.0765 15.1595C10.1147 15.4454 10.0597 15.7361 9.91981 15.9878C8.94466 17.5946 8.22609 19.3457 7.79036 21.1772C7.72493 21.4767 7.55894 21.7443 7.3204 21.9348C7.08185 22.1253 6.78536 22.2271 6.48095 22.223H2.64528V28.7381H6.48095C6.77835 28.7372 7.06738 28.8372 7.30137 29.0222C7.53535 29.2071 7.70063 29.4661 7.77052 29.7573C8.21142 31.5881 8.9368 33.3373 9.91981 34.94C10.0753 35.1951 10.1409 35.4956 10.1061 35.7929C10.0713 36.0902 9.93812 36.367 9.72803 36.5787L6.99678 39.3033L11.5665 43.9065L14.2779 41.1752C14.4866 40.9725 14.7556 40.8444 15.0435 40.8107C15.3315 40.777 15.6225 40.8396 15.8717 40.9887C17.468 41.9686 19.2061 42.6923 21.0234 43.1337C21.3181 43.2054 21.5794 43.3768 21.7636 43.6193C21.9478 43.8619 22.0437 44.1608 22.0352 44.466L22.0617 48.2965Z" fill="#17262F"></path><path d="M25.2955 35.7862C23.2721 35.7862 21.2941 35.1818 19.6117 34.0494C17.9293 32.9171 16.618 31.3076 15.8436 29.4245C15.0693 27.5414 14.8667 25.4693 15.2615 23.4703C15.6562 21.4712 16.6306 19.6349 18.0614 18.1937C19.4921 16.7525 21.3151 15.771 23.2996 15.3733C25.2842 14.9757 27.3412 15.1798 29.2106 15.9598C31.08 16.7398 32.6778 18.0606 33.802 19.7554C34.9261 21.4501 35.5262 23.4425 35.5262 25.4808C35.5227 28.2129 34.4437 30.832 32.5258 32.7639C30.608 34.6958 28.0078 35.7827 25.2955 35.7862ZM25.2955 17.8399C23.7953 17.8399 22.3287 18.2881 21.0813 19.1276C19.8339 19.9672 18.8617 21.1606 18.2876 22.5567C17.7135 23.9529 17.5632 25.4892 17.8559 26.9714C18.1486 28.4536 18.871 29.8151 19.9319 30.8836C20.9927 31.9522 22.3443 32.68 23.8157 32.9748C25.2871 33.2696 26.8123 33.1183 28.1983 32.54C29.5844 31.9617 30.769 30.9823 31.6025 29.7258C32.436 28.4693 32.8809 26.992 32.8809 25.4808C32.8791 23.4548 32.0794 21.5124 30.6572 20.0798C29.2351 18.6473 27.3067 17.8417 25.2955 17.8399Z" fill="#17262F"></path><path d="M36.829 73.5371H30.3017C29.9509 73.5371 29.6145 73.3967 29.3665 73.1469C29.1184 72.897 28.9791 72.5581 28.9791 72.2048V69.4935C28.1471 69.2292 27.3395 68.8926 26.5653 68.4876L24.6607 70.4062C24.5378 70.53 24.392 70.6283 24.2314 70.6954C24.0708 70.7624 23.8987 70.7969 23.7249 70.7969C23.5511 70.7969 23.379 70.7624 23.2184 70.6954C23.0578 70.6283 22.912 70.53 22.7891 70.4062L18.1599 65.7431C18.0369 65.6193 17.9393 65.4724 17.8728 65.3106C17.8062 65.1489 17.772 64.9755 17.772 64.8004C17.772 64.6254 17.8062 64.452 17.8728 64.2902C17.9393 64.1285 18.0369 63.9816 18.1599 63.8578L20.0777 61.9526C19.6757 61.1727 19.3416 60.3592 19.0791 59.5211H16.3875C16.0368 59.5211 15.7003 59.3808 15.4523 59.1309C15.2042 58.8811 15.0649 58.5422 15.0649 58.1888V51.6138C15.0649 51.2605 15.2042 50.9216 15.4523 50.6718C15.7003 50.4219 16.0368 50.2815 16.3875 50.2815H18.2988V52.9462H17.7102V56.8565H20.0843C20.3806 56.8571 20.6681 56.9579 20.9007 57.1427C21.1334 57.3275 21.2977 57.5856 21.3673 57.8757C21.6748 59.1485 22.1744 60.3662 22.8486 61.4863C23.0024 61.7408 23.0671 62.0398 23.0323 62.3357C22.9976 62.6315 22.8654 62.9071 22.6569 63.1184L20.9837 64.8104L23.7282 67.575L25.4013 65.8896C25.6115 65.678 25.8864 65.5438 26.1815 65.5088C26.4766 65.4737 26.7749 65.5398 27.0282 65.6964C28.1371 66.3771 29.344 66.8804 30.6059 67.1886C30.8951 67.2575 31.1529 67.4224 31.3377 67.6569C31.5224 67.8913 31.6234 68.1816 31.6244 68.481V70.8725H35.5063V68.481C35.5069 68.1825 35.607 67.8929 35.7904 67.6586C35.9739 67.4242 36.2302 67.2587 36.5182 67.1886C37.7792 66.8776 38.9857 66.3744 40.0959 65.6964C40.3492 65.5398 40.6474 65.4737 40.9426 65.5088C41.2377 65.5438 41.5125 65.678 41.7227 65.8896L43.4025 67.575L46.147 64.8104L44.4672 63.1251C44.2623 62.9093 44.1353 62.6305 44.1065 62.3333C44.0777 62.0362 44.1488 61.7379 44.3085 61.4863C44.9855 60.3676 45.4853 59.1495 45.7899 57.8757C45.8595 57.5856 46.0238 57.3275 46.2564 57.1427C46.4891 56.9579 46.7766 56.8571 47.0728 56.8565H49.447V52.9528H47.0398C46.747 52.9537 46.4622 52.8568 46.2301 52.6771C45.9979 52.4975 45.8315 52.2454 45.7568 51.9602C45.4658 50.679 44.9771 49.4517 44.3085 48.323C44.1531 48.0679 44.0874 47.7674 44.1222 47.4701C44.157 47.1728 44.2902 46.896 44.5003 46.6843L46.18 44.9922L45.479 44.2861L47.344 42.4009L48.9378 44.0529C49.0647 44.1771 49.1657 44.3257 49.2346 44.4899C49.3036 44.6541 49.3391 44.8306 49.3391 45.0089C49.3391 45.1872 49.3036 45.3636 49.2346 45.5278C49.1657 45.692 49.0647 45.8406 48.9378 45.9648L47.0332 47.8767C47.4341 48.6594 47.7682 49.4751 48.0317 50.3148H50.7233C51.0741 50.3148 51.4105 50.4552 51.6586 50.7051C51.9066 50.9549 52.046 51.2938 52.046 51.6472V58.2155C52.046 58.5688 51.9066 58.9077 51.6586 59.1576C51.4105 59.4074 51.0741 59.5478 50.7233 59.5478H48.045C47.7811 60.3767 47.447 61.1813 47.0464 61.9526L48.9378 63.8711C49.0607 63.9949 49.1583 64.1418 49.2248 64.3036C49.2914 64.4653 49.3257 64.6387 49.3257 64.8138C49.3257 64.9888 49.2914 65.1622 49.2248 65.324C49.1583 65.4857 49.0607 65.6326 48.9378 65.7564L44.3085 70.4195C44.1857 70.5434 44.0398 70.6416 43.8792 70.7087C43.7187 70.7757 43.5466 70.8102 43.3727 70.8102C43.1989 70.8102 43.0268 70.7757 42.8663 70.7087C42.7057 70.6416 42.5598 70.5434 42.437 70.4195L40.5324 68.5009C39.7599 68.9047 38.9546 69.2413 38.1252 69.5068V72.2181C38.1253 72.3939 38.0909 72.568 38.0239 72.7304C37.957 72.8927 37.8588 73.0401 37.735 73.1641C37.4914 73.4005 37.1672 73.534 36.829 73.5371Z" fill="#17262F"></path><path d="M33.562 62.6655C31.5198 62.662 29.5622 61.8432 28.1181 60.3886C26.674 58.9339 25.8611 56.962 25.8577 54.9048H28.5029C28.5029 55.9127 28.7996 56.898 29.3555 57.736C29.9115 58.5741 30.7016 59.2273 31.626 59.613C32.5504 59.9987 33.5677 60.0996 34.549 59.903C35.5304 59.7063 36.4318 59.221 37.1394 58.5083C37.8469 57.7956 38.3287 56.8875 38.5239 55.899C38.7191 54.9104 38.619 53.8858 38.236 52.9546C37.8531 52.0234 37.2047 51.2275 36.3727 50.6675C35.5408 50.1076 34.5626 49.8087 33.562 49.8087V47.144C35.6054 47.144 37.565 47.9617 39.0099 49.4171C40.4547 50.8725 41.2664 52.8465 41.2664 54.9048C41.2664 56.9631 40.4547 58.937 39.0099 60.3925C37.565 61.8479 35.6054 62.6655 33.562 62.6655Z" fill="#17262F"></path><path d="M67.5804 47.69C66.1188 47.6902 64.6778 47.343 63.3744 46.6767C62.0711 46.0104 60.9422 45.0438 60.0794 43.8554C59.2167 42.667 58.6444 41.2903 58.4091 39.8372C58.1738 38.3841 58.2821 36.8956 58.7253 35.4927L61.2449 36.3054C60.9291 37.3087 60.8526 38.3728 61.0216 39.4114C61.1905 40.4501 61.6002 41.434 62.2174 42.2832C62.8345 43.1325 63.6418 43.8233 64.5736 44.2994C65.5054 44.7756 66.5355 45.0237 67.5804 45.0237C68.6252 45.0237 69.6554 44.7756 70.5872 44.2994C71.519 43.8233 72.3262 43.1325 72.9434 42.2832C73.5605 41.434 73.9702 40.4501 74.1392 39.4114C74.3081 38.3728 74.2316 37.3087 73.9158 36.3054L76.4355 35.4927C76.8786 36.8956 76.987 38.3841 76.7517 39.8372C76.5164 41.2903 75.9441 42.667 75.0813 43.8554C74.2186 45.0438 73.0897 46.0104 71.7863 46.6767C70.483 47.343 69.042 47.6902 67.5804 47.69Z" fill="#17262F"></path><path d="M62.5874 59.8076H59.9421V84.6087H62.5874V59.8076Z" fill="#17262F"></path><path d="M75.708 59.8076H73.0627V84.6087H75.708V59.8076Z" fill="#17262F"></path><path d="M61.1127 74.9496C59.5341 74.9496 58.0202 74.318 56.904 73.1936C55.7878 72.0692 55.1608 70.5443 55.1608 68.9542V54.7117C55.1608 53.1216 55.7878 51.5967 56.904 50.4723C58.0202 49.348 59.5341 48.7163 61.1127 48.7163H67.5804V51.3809H61.1127C60.2357 51.3809 59.3947 51.7319 58.7745 52.3565C58.1544 52.9812 57.8061 53.8284 57.8061 54.7117V68.9542C57.8061 69.8376 58.1544 70.6848 58.7745 71.3094C59.3947 71.9341 60.2357 72.285 61.1127 72.285V74.9496Z" fill="#17262F"></path><path d="M74.0679 74.9496V72.285C74.9449 72.285 75.786 71.9341 76.4061 71.3094C77.0262 70.6848 77.3746 69.8376 77.3746 68.9542V54.7117C77.3746 53.8284 77.0262 52.9812 76.4061 52.3565C75.786 51.7319 74.9449 51.3809 74.0679 51.3809H67.6002V48.7163H74.0679C75.6465 48.7163 77.1604 49.348 78.2766 50.4723C79.3928 51.5967 80.0198 53.1216 80.0198 54.7117V68.9542C80.0198 69.7415 79.8659 70.5211 79.5668 71.2485C79.2677 71.9759 78.8293 72.6369 78.2766 73.1936C77.7239 73.7503 77.0678 74.1919 76.3456 74.4932C75.6235 74.7945 74.8496 74.9496 74.0679 74.9496Z" fill="#17262F"></path><path d="M68.9001 70.1838L66.255 70.207L66.3797 84.6088L69.0249 84.5856L68.9001 70.1838Z" fill="#17262F"></path><path d="M78.6972 37.2316H56.4834C56.1326 37.2316 55.7962 37.0912 55.5482 36.8413C55.3001 36.5915 55.1608 36.2526 55.1608 35.8993V33.0614C55.1608 32.8084 55.2324 32.5607 55.3671 32.3472C55.5017 32.1337 55.694 31.9632 55.9213 31.8557L56.6686 31.5093C56.5297 28.2984 57.6407 23.1556 62.8652 21.5169C62.9925 21.4711 63.1268 21.4486 63.262 21.4503H65.6626V24.1149H63.4868C58.5798 25.8203 59.3536 31.8823 59.3932 32.1421C59.4323 32.4249 59.3801 32.7129 59.2443 32.9636C59.1086 33.2142 58.8965 33.4143 58.6393 33.5344L57.8193 33.9208V34.5869H77.3679V33.9208L76.5413 33.5344C76.2841 33.4129 76.0726 33.2113 75.938 32.9594C75.8034 32.7074 75.7529 32.4186 75.794 32.1355C75.794 31.8823 76.6008 25.8203 71.7004 24.1416H70.3778V21.4769H71.912C72.045 21.4757 72.1771 21.4983 72.3022 21.5435C77.5267 23.189 78.6443 28.3317 78.5054 31.5359L79.2461 31.8823C79.4719 31.986 79.6642 32.1515 79.801 32.36C79.9378 32.5685 80.0136 32.8116 80.0198 33.0614V35.8993C80.0198 36.2526 79.8805 36.5915 79.6324 36.8413C79.3844 37.0912 79.048 37.2316 78.6972 37.2316Z" fill="#17262F"></path><path d="M71.6872 25.9137H69.0419V22.1832H65.7353V25.9137H63.09V20.8509C63.09 20.4975 63.2294 20.1586 63.4774 19.9088C63.7255 19.6589 64.0619 19.5186 64.4127 19.5186H70.3646C70.7153 19.5186 71.0518 19.6589 71.2998 19.9088C71.5479 20.1586 71.6872 20.4975 71.6872 20.8509V25.9137Z" fill="#17262F"></path></g><defs><clipPath id="clip0_5678_6189"><rect width="80" height="84.6154" fill="white"></rect></clipPath></defs></svg>