<svg xmlns="http://www.w3.org/2000/svg" width="96" height="90" viewBox="0 0 96 90" fill="none"><g clip-path="url(#clip0_5678_32890)"><path d="M20.6004 37.0061C23.9443 43.9177 28.0196 52.3744 35.1924 52.3744C35.9079 52.3703 36.621 52.2903 37.3196 52.1355C39.5408 51.6276 41.6774 50.8031 43.664 49.6873C44.047 49.4627 44.3251 49.095 44.4371 48.6653C44.5491 48.2356 44.4858 47.779 44.2611 47.3959C44.0364 47.0129 43.6688 46.7348 43.239 46.6228C42.8093 46.5108 42.3527 46.5741 41.9697 46.7988C40.2931 47.7371 38.491 48.4308 36.618 48.8588C30.6469 50.1725 26.9149 42.4026 23.586 35.5507C23.2874 34.9237 22.9964 34.3191 22.7053 33.7295C24.198 33.625 26.1461 33.3488 28.6764 32.9831C31.0499 32.6248 33.4981 32.2367 35.6328 32.0949C40.1111 31.871 42.6339 34.9162 43.246 41.3128C43.2834 41.7314 43.4814 42.1192 43.7983 42.3951C42.0896 41.2651 40.2687 40.3146 38.3646 39.5588C38.1582 39.4828 37.939 39.4483 37.7193 39.457C37.4996 39.4658 37.2838 39.5178 37.0842 39.61C36.8846 39.7021 36.7051 39.8327 36.5559 39.9943C36.4068 40.1558 36.2909 40.3452 36.215 40.5515C36.139 40.7578 36.1044 40.9771 36.1132 41.1968C36.122 41.4165 36.1739 41.6323 36.2661 41.8319C36.3583 42.0315 36.4889 42.211 36.6504 42.3601C36.812 42.5093 37.0013 42.6251 37.2077 42.7011C42.0443 44.485 47.6049 49.1723 48.4633 50.8368C48.3064 54.4244 48.8961 58.0055 50.1949 61.3535C50.3221 61.6578 50.5369 61.9175 50.812 62.0996C51.0871 62.2817 51.4101 62.3779 51.7399 62.376C51.9603 62.378 52.1788 62.3349 52.3818 62.2491C52.5855 62.1658 52.7705 62.0429 52.9264 61.8875C53.0822 61.7322 53.2057 61.5475 53.2896 61.3441C53.3736 61.1407 53.4165 60.9227 53.4157 60.7027C53.4149 60.4826 53.3704 60.265 53.285 60.0622C52.1294 57.0626 51.6207 53.8526 51.7922 50.6427V50.5382C51.8584 49.085 52.0104 47.637 52.2475 46.2017C54.1582 44.7089 59.48 42.1637 63.8987 41.2233C64.1138 41.1777 64.3179 41.0902 64.4992 40.9657C64.6805 40.8413 64.8356 40.6823 64.9555 40.498C65.0754 40.3136 65.1578 40.1074 65.198 39.8912C65.2383 39.675 65.2355 39.453 65.1899 39.2379C65.1443 39.0227 65.0568 38.8186 64.9324 38.6373C64.8079 38.456 64.649 38.3009 64.4646 38.181C64.2803 38.0611 64.0741 37.9787 63.8579 37.9385C63.6417 37.8983 63.4197 37.901 63.2045 37.9466C59.7231 38.7523 56.3611 40.0068 53.2029 41.6786C53.27 41.4472 53.3297 41.2382 53.3745 41.0964C55.6137 33.6324 54.1956 24.8399 51.5235 20.6676C51.4049 20.4824 51.2509 20.3223 51.0705 20.1965C50.89 20.0707 50.6865 19.9818 50.4717 19.9346C50.0378 19.8394 49.5838 19.9205 49.2097 20.1601C48.8355 20.3996 48.5719 20.7779 48.4767 21.2119C48.3815 21.6458 48.4626 22.0997 48.7021 22.4739C50.6353 25.4594 52.2176 33.304 50.1949 40.1261C49.6133 42.1187 49.1817 44.1521 48.9036 46.2092C47.4724 44.8992 45.9345 43.7108 44.3059 42.6563C44.5675 42.7753 44.8556 42.8242 45.1418 42.7981C45.582 42.7529 45.9863 42.535 46.2661 42.1923C46.5459 41.8495 46.6784 41.4098 46.6346 40.9695C45.5299 29.9602 39.2005 28.5868 35.4462 28.7436C33.1324 28.9227 30.6245 29.2959 28.1987 29.6616C25.4221 30.0722 21.6379 30.6394 20.7348 30.3558C20.4197 30.1685 20.0518 30.09 19.6878 30.1322C19.3237 30.1745 18.9836 30.3352 18.7198 30.5897C18.456 30.8441 18.2831 31.1782 18.2278 31.5406C18.1724 31.9029 18.2377 32.2734 18.4135 32.595C19.1151 33.9235 19.8391 35.4163 20.6004 37.0061Z" fill="#17262F"></path><path d="M47.8736 31.9605C48.0757 32.0501 48.2945 32.0959 48.5155 32.0949C48.9047 32.0964 49.2821 31.9621 49.5829 31.7152C49.8837 31.4682 50.0889 31.1241 50.1632 30.7421C50.2374 30.3601 50.1761 29.9641 49.9898 29.6225C49.8035 29.2808 49.5038 29.0149 49.1425 28.8705C46.1871 27.5474 43.6181 25.4922 41.6786 22.8993C39.7305 20.078 41.8875 12.5618 43.7834 5.93382L43.8953 5.56062C45.197 6.48093 46.5755 7.28752 48.0154 7.97147C50.582 9.2609 53.0739 10.6938 55.4794 12.2632C62.1372 16.652 55.0688 27.8479 54.9942 27.9375C54.7586 28.3106 54.68 28.7617 54.7756 29.1925C54.8713 29.6233 55.1333 29.9988 55.5047 30.2372C55.876 30.4756 56.3266 30.5575 56.758 30.465C57.1895 30.3726 57.567 30.1133 57.8081 29.7437C58.1813 29.1765 66.7648 15.6444 57.3229 9.44186C54.8202 7.80267 52.226 6.30746 49.553 4.96351C46.4256 3.34384 45.1493 2.63477 44.888 1.32858C44.8159 0.958134 44.6205 0.623007 44.3337 0.377707C44.0468 0.132407 43.6855 -0.00863374 43.3083 -0.0224744C42.9311 -0.036315 42.5604 0.0778588 42.2564 0.301476C41.9523 0.525093 41.7329 0.844998 41.6338 1.20916C41.2904 2.4631 40.8874 3.71704 40.5664 4.94112C38.2526 13.0022 36.0881 20.6154 38.9244 24.7354C41.2203 27.8887 44.3072 30.3809 47.8736 31.9605Z" fill="#17262F"></path><path d="M57.6737 36.4389C57.5846 36.6398 57.5358 36.8564 57.5303 37.0761C57.5248 37.2959 57.5626 37.5146 57.6416 37.7198C57.7206 37.9249 57.8393 38.1125 57.9908 38.2718C58.1423 38.4311 58.3237 38.559 58.5246 38.6482C58.7256 38.7374 58.9421 38.7861 59.1619 38.7917C59.3817 38.7972 59.6004 38.7593 59.8055 38.6803C60.0107 38.6013 60.1983 38.4827 60.3576 38.3312C60.5169 38.1797 60.6448 37.9982 60.734 37.7973C60.966 37.2456 61.1703 36.6826 61.346 36.1105C63.2194 30.4976 65.1526 27.2433 69.004 28.3629C71.931 29.2399 74.7838 30.348 77.5352 31.6769C78.6698 32.1919 79.6326 32.6323 80.5208 32.9532C80.0282 33.7892 79.5505 34.6475 79.0803 35.4984C75.6917 41.6562 72.7583 46.9779 62.7716 42.619C62.5702 42.5308 62.3534 42.4831 62.1335 42.4787C61.9137 42.4743 61.6951 42.5132 61.4903 42.5933C61.2855 42.6733 61.0984 42.7929 60.9398 42.9453C60.7813 43.0976 60.6542 43.2797 60.566 43.4811C60.4778 43.6825 60.4301 43.8993 60.4257 44.1192C60.4213 44.3391 60.4602 44.5576 60.5403 44.7624C60.6203 44.9672 60.7399 45.1543 60.8923 45.3129C61.0446 45.4714 61.2267 45.5985 61.4281 45.6867C63.8848 46.8522 66.555 47.5001 69.2727 47.59C76.2365 47.59 79.3714 41.9099 82.0136 37.1405C82.7953 35.6495 83.6652 34.2064 84.6185 32.8189C84.809 32.5562 84.9189 32.2437 84.9348 31.9196C84.9507 31.5955 84.8719 31.2737 84.7082 30.9936C84.5444 30.7135 84.3026 30.4871 84.0123 30.342C83.7221 30.197 83.3958 30.1395 83.0735 30.1766C82.4241 30.2438 80.6701 29.4303 78.9683 28.6839C76.0635 27.2827 73.0508 26.1171 69.9594 25.1982C62.2193 22.9217 59.383 31.4231 58.1738 35.0804C57.9723 35.6402 57.8006 36.1552 57.6737 36.4389Z" fill="#17262F"></path><path d="M94.8963 63.5105C94.6227 62.6397 94.059 61.889 93.299 61.3833C90.3135 59.3979 84.514 60.4802 79.0206 61.9207C74.684 58.6366 63.1821 63.5329 59.5397 65.2198C51.4712 65.6601 47.2019 65.6228 46.3883 65.6079C45.7931 65.4928 45.2124 65.3125 44.6567 65.0705C43.7087 64.6227 42.2831 63.7494 40.6261 62.7343C36.006 59.9055 29.6691 56.0167 24.407 55.6659C15.301 55.4644 1.49278 62.3238 0.925523 62.6149C0.716006 62.7045 0.527032 62.8361 0.37021 63.0014C0.213388 63.1668 0.092029 63.3625 0.0135874 63.5765C-0.0648542 63.7904 -0.0987222 64.0182 -0.0859361 64.2457C-0.0731501 64.4733 -0.01398 64.6958 0.0879396 64.8996C0.189859 65.1035 0.332376 65.2843 0.506737 65.4311C0.681098 65.5778 0.88362 65.6874 1.10186 65.753C1.32011 65.8186 1.54947 65.839 1.77585 65.8127C2.00223 65.7865 2.22086 65.7142 2.41831 65.6004C2.55266 65.5332 15.9877 58.7784 24.2279 59.0172C28.5943 59.3158 34.5281 62.9433 38.8572 65.6004C40.5888 66.6603 42.0891 67.5784 43.2012 68.1083C44.0255 68.4755 44.8897 68.746 45.7762 68.9144C45.8185 68.918 45.8609 68.918 45.9031 68.9144C45.9628 68.918 46.0226 68.918 46.0823 68.9144C46.2838 68.9144 51.2398 69.0413 61.9282 68.3994C64.2345 68.2576 65.6601 68.6159 66.4065 69.5712C66.5284 69.719 66.6382 69.8762 66.7349 70.0415C64.354 70.6684 59.7114 71.9672 57.7782 72.9151C57.4345 73.0797 57.1573 73.3569 56.9926 73.7006C56.828 74.0443 56.7857 74.434 56.8728 74.805C56.9599 75.1761 57.1711 75.5063 57.4716 75.7408C57.772 75.9754 58.1435 76.1002 58.5246 76.0947C58.7829 76.0991 59.0385 76.0429 59.271 75.9305C61.2682 75.1306 63.3121 74.4526 65.3914 73.9003C63.6958 74.9699 61.8228 75.7281 59.8607 76.1395C57.5095 76.7067 45.3209 79.2594 35.7522 74.2959C35.5562 74.1945 35.3421 74.1326 35.1221 74.1139C34.9022 74.0952 34.6807 74.12 34.4704 74.1869C34.26 74.2538 34.0649 74.3614 33.8962 74.5037C33.7274 74.646 33.5883 74.8201 33.4869 75.0162C33.3854 75.2122 33.3236 75.4263 33.3049 75.6462C33.2862 75.8662 33.311 76.0876 33.3779 76.298C33.4448 76.5083 33.5524 76.7035 33.6947 76.8722C33.837 77.041 34.0111 77.18 34.2072 77.2815C39.2528 79.9013 44.8955 80.6552 49.6948 80.6552C53.3795 80.6526 57.0523 80.237 60.6444 79.4162C67.4366 77.7816 69.6608 75.005 70.3475 72.9673C70.6408 72.0147 70.6772 71.0015 70.4531 70.0303C70.229 69.0591 69.7522 68.1643 69.0712 67.4366C68.5026 66.7678 67.7977 66.2283 67.0036 65.8542C69.4156 64.9863 71.9204 64.4027 74.4676 64.1151C73.557 64.5629 72.6912 64.9735 72.2284 65.1899C71.8802 65.3478 71.5966 65.6204 71.4249 65.962C71.2533 66.3037 71.204 66.6939 71.2852 67.0676C71.3663 67.4412 71.5732 67.7757 71.8711 68.0154C72.1691 68.255 72.5402 68.3853 72.9225 68.3845C73.1587 68.3843 73.3923 68.3361 73.6092 68.2427C75.5501 67.3748 77.4391 66.3953 79.2669 65.3093C84.2826 63.9658 87.3354 63.5702 89.1864 63.6225C86.9995 64.3689 84.5737 65.3989 83.9617 66.3767C83.8029 66.6298 83.715 66.9209 83.7068 67.2196C83.6988 67.5183 83.7709 67.8137 83.9156 68.075C84.0604 68.3364 84.2726 68.5542 84.5301 68.7058C84.7876 68.8573 85.081 68.9371 85.3798 68.9368C85.6236 68.9367 85.8646 68.8839 86.0861 68.7822C86.3077 68.6804 86.5047 68.532 86.6636 68.3471C88.0106 67.6115 89.4285 67.0138 90.8957 66.5633C90.2538 67.0111 89.2835 67.5858 87.8429 68.3994C86.7308 69.0189 85.4769 69.728 84.111 70.5714C80.9761 72.5195 72.8703 76.8038 68.9816 78.8638L67.5858 79.6102C66.8394 79.9834 66.093 80.4163 65.3467 80.8791C61.0848 83.3123 55.2554 86.6412 46.9854 86.6412H46.9257C46.1793 86.589 41.7009 85.3798 37.7152 84.3199C27.6165 81.6404 20.3541 79.7595 17.9134 79.864C13.8754 80.0804 3.78421 82.2226 3.35876 82.3121C3.14361 82.3577 2.93955 82.4452 2.75822 82.5697C2.57689 82.6941 2.42185 82.8531 2.30194 83.0374C2.18204 83.2218 2.09962 83.428 2.0594 83.6442C2.01917 83.8604 2.02193 84.0824 2.0675 84.2976C2.11308 84.5127 2.20059 84.7168 2.32503 84.8981C2.44948 85.0794 2.60842 85.2345 2.79278 85.3544C2.97714 85.4743 3.18331 85.5567 3.39953 85.5969C3.61574 85.6371 3.83776 85.6344 4.05291 85.5888C4.1574 85.5888 14.3158 83.4093 18.1 83.2078H18.2493C20.6601 83.2078 30.3558 85.8202 36.8195 87.5593C43.2833 89.2984 45.9405 89.9925 46.866 89.9925H46.9406C56.1287 89.9925 62.3984 86.4098 66.9887 83.79C67.7351 83.3496 68.4815 82.9317 69.1682 82.5734L70.549 81.827C74.7811 79.5878 82.6555 75.423 85.8799 73.4152C87.1786 72.6091 88.4027 71.9224 89.4775 71.3178C93.1348 69.2652 96.6205 67.3022 94.8963 63.5105Z" fill="#17262F"></path></g><defs><clipPath id="clip0_5678_32890"><rect width="95.3516" height="90" fill="white"></rect></clipPath></defs></svg>