<svg xmlns="http://www.w3.org/2000/svg" width="94" height="85" viewBox="0 0 94 85" fill="none"><g clip-path="url(#clip0_5678_33744)"><path d="M89.5021 14.5946H83.6689V4.48639C83.6689 4.04823 83.4949 3.62802 83.1851 3.3182C82.8752 3.00837 82.455 2.83431 82.0169 2.83431C81.5787 2.83431 81.1585 3.00837 80.8487 3.3182C80.5388 3.62802 80.3648 4.04823 80.3648 4.48639V14.5946H66.2712V4.48639C66.2712 4.04823 66.0971 3.62802 65.7873 3.3182C65.4775 3.00837 65.0573 2.83431 64.6191 2.83431C64.1809 2.83431 63.7607 3.00837 63.4509 3.3182C63.1411 3.62802 62.967 4.04823 62.967 4.48639V14.5946H57.1104C56.0485 14.5946 55.03 15.0159 54.2784 15.766C53.5269 16.5161 53.1036 17.5338 53.1015 18.5956V26.6838C53.1045 27.6607 53.4656 28.6027 54.1163 29.3313C54.7671 30.06 55.6624 30.5248 56.6327 30.6378L57.815 37.2618C58.3415 40.7296 59.8649 43.9696 62.1997 46.5871C64.6101 49.3963 67.9781 51.2101 71.6502 51.6764V70.5462C71.6461 73.4978 70.4717 76.3274 68.3846 78.4145C66.2975 80.5016 63.4679 81.676 60.5163 81.6801H29.5652C26.6149 81.676 23.7866 80.5027 21.6997 78.4173C19.6128 76.3318 18.4375 73.5043 18.4313 70.554V60.6337H18.5409C19.2534 60.2735 20.1069 59.8507 21.0073 59.467C29.3225 55.5913 44.8098 48.5445 37.8648 27.4511C34.7329 18.995 33.3705 4.80741 33.621 1.78512C33.6443 1.46629 33.575 1.14752 33.4215 0.867117C33.268 0.586715 33.0367 0.356613 32.7556 0.20446C32.4744 0.0523079 32.1553 -0.0154216 31.8366 0.0094109C31.5179 0.0342434 31.2131 0.150581 30.9589 0.344445C27.2241 3.2258 23.9121 5.44946 20.9681 7.39124C15.0958 11.3061 10.4606 14.438 5.7079 20.3652C1.15881 26.0887 -0.728169 32.4152 0.250553 38.6868C1.40936 46.1408 6.42041 53.0701 15.1271 59.3026C15.1228 59.3678 15.1228 59.4332 15.1271 59.4984V70.554C15.1333 74.3834 16.6573 78.0542 19.3651 80.762C22.0729 83.4697 25.7437 84.9937 29.5731 84.9999H60.5163C64.345 84.9937 68.0149 83.4695 70.7215 80.7615C73.428 78.0535 74.9503 74.3827 74.9544 70.554V51.6764C78.6265 51.2101 81.9945 49.3963 84.4049 46.5871C86.7515 43.9764 88.2789 40.7336 88.7974 37.2618L89.9797 30.6378C90.9494 30.5247 91.8438 30.0596 92.4932 29.3307C93.1427 28.6019 93.502 27.66 93.5031 26.6838V18.5956C93.5031 17.5345 93.0816 16.5168 92.3313 15.7665C91.5809 15.0162 90.5633 14.5946 89.5021 14.5946ZM3.51557 38.1779C2.68561 32.885 4.33769 27.4041 8.29956 22.4557C12.7312 16.8966 17.1785 13.9291 22.8081 10.163C25.0866 8.59702 27.5999 6.95277 30.3717 4.91703C30.7084 10.6328 32.0473 21.3126 34.7485 28.5473C40.7148 46.7358 28.0384 52.569 19.6292 56.4213L18.8854 56.7658C18.1826 53.5203 18.037 50.1789 18.4548 46.8846C23.2118 45.0962 27.2501 41.7952 29.9489 37.4889C30.1766 37.1221 30.2516 36.6807 30.1579 36.2593C30.0643 35.8378 29.8094 35.4698 29.4478 35.2339C29.2663 35.1151 29.063 35.0336 28.8497 34.9941C28.6364 34.9545 28.4173 34.9578 28.2053 35.0037C27.9933 35.0496 27.7925 35.1372 27.6147 35.2614C27.4368 35.3856 27.2854 35.5439 27.1693 35.7272C25.1853 38.8446 22.3963 41.3685 19.0968 43.0324C20.1187 38.6613 21.5907 34.4079 23.4893 30.3403C23.8573 29.5573 24.1392 28.8761 24.3193 28.3907C24.3959 28.1876 24.4317 27.9714 24.4248 27.7545C24.4178 27.5376 24.3682 27.3241 24.2788 27.1264C24.1894 26.9286 24.0619 26.7504 23.9036 26.6019C23.7453 26.4534 23.5593 26.3376 23.3562 26.261C23.1531 26.1844 22.937 26.1485 22.72 26.1555C22.5031 26.1624 22.2897 26.212 22.0919 26.3014C21.8941 26.3909 21.7159 26.5184 21.5674 26.6767C21.419 26.835 21.3031 27.021 21.2265 27.2241C21.0777 27.6312 20.8037 28.2341 20.4435 29.0092C18.3184 33.5426 16.7135 38.3022 15.6595 43.1968C14.0936 40.245 12.2927 35.782 12.8017 31.2407C12.8515 30.8046 12.7261 30.3666 12.453 30.023C12.1798 29.6794 11.7814 29.4584 11.3453 29.4086C10.9093 29.3587 10.4712 29.4842 10.1276 29.7573C9.78404 30.0304 9.56301 30.4288 9.51317 30.8649C8.58926 39.094 13.7413 46.6419 14.994 48.3488C14.8297 50.6476 14.9111 52.9574 15.2367 55.239C8.47181 49.9539 4.43948 44.1129 3.51557 38.1779ZM85.5403 36.6824C85.166 38.9926 84.2835 41.1908 82.9564 43.1185C82.6429 43.5567 82.3057 43.9776 81.9464 44.3791C80.8992 45.6586 79.5808 46.6895 78.0866 47.3974C76.5924 48.1053 74.9597 48.4725 73.3062 48.4725C71.6528 48.4725 70.0201 48.1053 68.5258 47.3974C67.0316 46.6895 65.7133 45.6586 64.6661 44.3791C64.3044 43.9795 63.9671 43.5586 63.656 43.1185C62.3224 41.1944 61.4393 38.9946 61.0722 36.6824L59.9995 30.6926H86.6208L85.5403 36.6824ZM90.2381 26.6838C90.2381 26.8686 90.1647 27.0459 90.034 27.1765C89.9033 27.3072 89.7261 27.3806 89.5413 27.3806H57.1104C56.9255 27.3806 56.7483 27.3072 56.6176 27.1765C56.4869 27.0459 56.4135 26.8686 56.4135 26.6838V18.5956C56.4135 18.4108 56.4869 18.2336 56.6176 18.1029C56.7483 17.9722 56.9255 17.8988 57.1104 17.8988H89.5021C89.6869 17.8988 89.8642 17.9722 89.9949 18.1029C90.1256 18.2336 90.199 18.4108 90.199 18.5956L90.2381 26.6838Z" fill="#17262F"></path><path d="M70.28 42.7662C69.8411 42.7662 69.4201 42.5924 69.1091 42.2828C68.798 41.9732 68.6222 41.553 68.6201 41.1141V35.0147C68.649 34.5952 68.836 34.2023 69.1434 33.9153C69.4508 33.6284 69.8556 33.4688 70.2761 33.4688C70.6966 33.4688 71.1015 33.6284 71.4089 33.9153C71.7162 34.2023 71.9032 34.5952 71.9321 35.0147V41.1141C71.9301 41.5516 71.7553 41.9707 71.446 42.28C71.1366 42.5894 70.7176 42.7641 70.28 42.7662Z" fill="#17262F"></path><path d="M76.5438 42.7662C76.1063 42.7641 75.6873 42.5894 75.3779 42.28C75.0685 41.9707 74.8938 41.5516 74.8918 41.1141V35.0147C74.9206 34.5952 75.1076 34.2023 75.415 33.9153C75.7224 33.6284 76.1272 33.4688 76.5477 33.4688C76.9683 33.4688 77.3731 33.6284 77.6805 33.9153C77.9879 34.2023 78.1749 34.5952 78.2037 35.0147V41.1141C78.2017 41.553 78.0259 41.9732 77.7148 42.2828C77.4037 42.5924 76.9827 42.7662 76.5438 42.7662Z" fill="#17262F"></path></g><defs><clipPath id="clip0_5678_33744"><rect width="93.5031" height="85" fill="white"></rect></clipPath></defs></svg>