<svg xmlns="http://www.w3.org/2000/svg" width="94" height="80" viewBox="0 0 94 80" fill="none"><g clip-path="url(#clip0_5678_33320)"><path d="M92.3015 79.9999H24.2937C24.0655 80.0151 23.8365 79.9832 23.621 79.9063C23.4055 79.8294 23.2082 79.709 23.0411 79.5527C22.874 79.3964 22.7409 79.2074 22.6498 78.9975C22.5588 78.7876 22.5118 78.5613 22.5118 78.3325C22.5118 78.1037 22.5588 77.8773 22.6498 77.6675C22.7409 77.4576 22.874 77.2686 23.0411 77.1123C23.2082 76.9559 23.4055 76.8356 23.621 76.7587C23.8365 76.6817 24.0655 76.6499 24.2937 76.6651H92.2794C92.7025 76.6932 93.099 76.8811 93.3888 77.1907C93.6785 77.5003 93.8397 77.9085 93.8397 78.3325C93.8397 78.7565 93.6785 79.1647 93.3888 79.4743C93.099 79.7839 92.7025 79.9718 92.2794 79.9999H92.3015Z" fill="#17262F"></path><path d="M75.4873 34.7622H41.2258C40.7838 34.7701 40.3567 34.6026 40.038 34.2963C39.7192 33.99 39.5349 33.5699 39.5252 33.1279V12.0733C39.5252 11.8517 39.5694 11.6323 39.6553 11.428C39.7412 11.2237 39.867 11.0387 40.0255 10.8837C40.1839 10.7287 40.3716 10.6069 40.5778 10.5255C40.7839 10.4441 41.0042 10.4047 41.2258 10.4096H75.5241C75.7432 10.4086 75.9604 10.4509 76.1631 10.5341C76.3658 10.6173 76.55 10.7397 76.7053 10.8943C76.8606 11.0489 76.9838 11.2326 77.0679 11.4349C77.1519 11.6373 77.1952 11.8542 77.1952 12.0733V33.1279C77.1904 33.3474 77.1425 33.5638 77.054 33.7647C76.9656 33.9656 76.8385 34.1471 76.6799 34.2989C76.5212 34.4507 76.3343 34.5697 76.1297 34.6492C75.925 34.7287 75.7068 34.7671 75.4873 34.7622ZM42.8601 31.42H73.8235V13.7518H42.8601V31.42Z" fill="#17262F"></path><path d="M75.4873 41.6306H41.2258C40.7816 41.6306 40.3556 41.4542 40.0415 41.1401C39.7274 40.826 39.551 40.4 39.551 39.9558C39.551 39.5116 39.7274 39.0856 40.0415 38.7716C40.3556 38.4575 40.7816 38.281 41.2258 38.281H75.5241C75.7524 38.2658 75.9814 38.2977 76.1968 38.3746C76.4123 38.4516 76.6097 38.5719 76.7767 38.7282C76.9438 38.8846 77.077 39.0735 77.168 39.2834C77.2591 39.4933 77.3061 39.7197 77.3061 39.9485C77.3061 40.1772 77.2591 40.4036 77.168 40.6135C77.077 40.8234 76.9438 41.0124 76.7767 41.1687C76.6097 41.325 76.4123 41.4454 76.1968 41.5223C75.9814 41.5992 75.7524 41.6311 75.5241 41.6159L75.4873 41.6306Z" fill="#17262F"></path><path d="M76.3192 0H40.2982C37.5445 0.00389494 34.9046 1.09953 32.9575 3.0467C31.0103 4.99388 29.9147 7.63369 29.9108 10.3874V12.353C27.1133 12.0364 22.1221 12.1174 18.7357 15.8056C14.2155 20.7307 14.4143 30.1463 19.354 43.8833C22.2472 50.715 22.9466 57.1344 21.2239 61.0362C20.8559 61.9266 20.3005 62.7273 19.5955 63.3841C18.8905 64.0408 18.0524 64.5381 17.1382 64.8422C15.3566 65.4753 12.7874 65.8507 10.7187 64.106C7.69305 61.5073 6.83908 55.3308 8.36296 47.2255L9.89421 40.6C10.1013 39.7163 10.0875 38.7952 9.85375 37.9182C9.62006 37.0412 9.17376 36.2353 8.55437 35.5719L5.79372 32.561L7.26606 27.0617C7.33998 26.6494 7.25636 26.2244 7.03177 25.8708C6.80718 25.5173 6.45799 25.2609 6.05337 25.1526C5.64874 25.0443 5.21819 25.0918 4.84698 25.2859C4.47576 25.48 4.19096 25.8063 4.04899 26.2004L0.191435 40.5558C-0.0688736 41.5233 -0.0698466 42.5422 0.188614 43.5101C0.447074 44.478 0.955854 45.3609 1.66378 46.0698L4.66737 49.0145C3.54103 57.2522 4.88086 63.4361 8.52492 66.5648C10.1288 67.9442 12.1813 68.6903 14.2965 68.6629C15.6393 68.6434 16.9689 68.3944 18.2277 67.9268C19.5704 67.4786 20.8041 66.7537 21.849 65.7988C22.8939 64.8439 23.7268 63.6804 24.2938 62.3834C26.4139 57.5761 25.7661 50.3616 22.4828 42.6686C16.932 27.2384 18.7062 20.7895 21.1871 18.0731C23.668 15.3566 27.8568 15.4376 29.9108 15.7173V74.0075C29.9108 74.4488 30.0861 74.872 30.3981 75.184C30.7101 75.496 31.1333 75.6713 31.5745 75.6713H85.0355C85.4774 75.6713 85.9013 75.4962 86.2145 75.1844C86.5277 74.8726 86.7046 74.4495 86.7066 74.0075V10.3874C86.7027 7.63369 85.607 4.99388 83.6599 3.0467C81.7127 1.09953 79.0729 0.00389494 76.3192 0V0ZM3.43796 41.4245L4.77044 36.367L6.11027 37.8393C6.34955 38.1034 6.52138 38.4214 6.61112 38.7662C6.70085 39.111 6.70582 39.4725 6.62559 39.8196L5.42563 45.0833L4.0269 43.6993C3.73311 43.4079 3.52179 43.0439 3.41446 42.6443C3.30713 42.2447 3.30762 41.8238 3.41588 41.4245H3.43796ZM83.3938 72.3438H33.2456V10.3874C33.2476 8.51756 33.9912 6.72485 35.3134 5.40266C36.6356 4.08048 38.4283 3.33682 40.2982 3.33487H76.3192C78.189 3.33682 79.9817 4.08048 81.3039 5.40266C82.6261 6.72485 83.3698 8.51756 83.3717 10.3874L83.3938 72.3438Z" fill="#17262F"></path></g><defs><clipPath id="clip0_5678_33320"><rect width="93.9652" height="80" fill="white"></rect></clipPath></defs></svg>