<svg xmlns="http://www.w3.org/2000/svg" width="109" height="100" viewBox="0 0 109 100" fill="none"><g clip-path="url(#clip0_5678_16905)"><path d="M72.1713 62.267C71.9898 62.2839 71.8141 62.3401 71.6565 62.4318C71.5535 62.5486 71.4951 62.6981 71.4918 62.8539C71.4918 63.0289 71.5742 63.1113 71.6565 63.276C71.8116 63.3749 71.9881 63.4349 72.1713 63.451C72.354 63.4488 72.531 63.3874 72.6758 63.276C72.7582 63.1113 72.8405 63.0289 72.8405 62.8539C72.8372 62.6981 72.7789 62.5486 72.6758 62.4318C72.5276 62.3283 72.352 62.271 72.1713 62.267ZM70.5549 61.2375C71.0032 60.8519 71.5749 60.6399 72.1662 60.6399C72.7575 60.6399 73.3291 60.8519 73.7774 61.2375C74.2036 61.6645 74.4472 62.2404 74.4569 62.8436C74.4609 63.1316 74.4022 63.4171 74.2848 63.6802C74.1675 63.9433 73.9944 64.1778 73.7774 64.3673C73.4617 64.6775 73.063 64.8898 72.6293 64.9787C72.1957 65.0675 71.7457 65.0291 71.3333 64.8681C70.921 64.7071 70.5641 64.4303 70.3054 64.0712C70.0467 63.712 69.8974 63.2857 69.8754 62.8436C69.9223 62.2488 70.1607 61.6853 70.5549 61.2375Z" fill="#17262F"></path><path d="M68.1767 77.8647C68.0188 77.8669 67.8677 77.9296 67.7546 78.0397C67.5898 78.1221 67.5898 78.2868 67.5898 78.4618C67.5798 78.5404 67.5897 78.6201 67.6184 78.6939C67.6472 78.7676 67.694 78.833 67.7546 78.884C67.8714 78.987 68.0209 79.0454 68.1767 79.0487C68.3629 79.0605 68.5467 79.0017 68.6914 78.884C68.752 78.833 68.7988 78.7676 68.8276 78.6939C68.8563 78.6201 68.8662 78.5404 68.8562 78.4618C68.8562 78.2868 68.8562 78.1221 68.6914 78.0397C68.622 77.9772 68.5405 77.9294 68.452 77.8994C68.3635 77.8693 68.2699 77.8575 68.1767 77.8647ZM66.6529 76.8352C67.0779 76.4696 67.6163 76.2623 68.1767 76.2483C68.768 76.2459 69.341 76.4539 69.7931 76.8352C70.2198 77.266 70.4634 77.8452 70.4726 78.4515C70.4758 78.7395 70.4168 79.0248 70.2995 79.2878C70.1822 79.5508 70.0095 79.7853 69.7931 79.9753C69.5853 80.1941 69.3343 80.3675 69.0561 80.4845C68.7779 80.6014 68.4784 80.6594 68.1767 80.6548C67.89 80.6498 67.6074 80.5871 67.3456 80.4703C67.0837 80.3536 66.8482 80.1852 66.6529 79.9753C66.4365 79.7853 66.2638 79.5508 66.1465 79.2878C66.0292 79.0248 65.9702 78.7395 65.9734 78.4515C65.9827 77.8452 66.2262 77.266 66.6529 76.8352Z" fill="#17262F"></path><path d="M50.4478 90.4149C50.2686 90.4341 50.096 90.494 49.9434 90.59C49.8314 90.7019 49.7684 90.8537 49.7683 91.0121C49.7706 91.17 49.8332 91.321 49.9434 91.4342C50.0942 91.5375 50.2668 91.6044 50.4478 91.6298C50.6268 91.6089 50.7989 91.5492 50.9523 91.4548C51.0625 91.3416 51.1251 91.1906 51.1273 91.0327C51.13 90.9532 51.1169 90.8741 51.0886 90.7998C51.0603 90.7256 51.0175 90.6577 50.9626 90.6002C50.8092 90.5058 50.637 90.4461 50.4581 90.4252L50.4478 90.4149ZM48.8315 89.4883C49.0429 89.2743 49.2945 89.104 49.5719 88.9874C49.8493 88.8708 50.147 88.8101 50.4478 88.8088C50.7472 88.8104 51.0432 88.8712 51.3189 88.9878C51.5946 89.1045 51.8444 89.2746 52.0539 89.4883C52.2737 89.6756 52.4487 89.9096 52.5663 90.1732C52.6839 90.4369 52.741 90.7235 52.7334 91.0121C52.7388 91.3176 52.6822 91.621 52.5672 91.9041C52.4522 92.1872 52.2811 92.4441 52.0642 92.6593C51.6099 93.031 51.0449 93.2411 50.4581 93.2565C49.8683 93.241 49.3 93.0311 48.8417 92.6593C48.4166 92.2325 48.1763 91.6557 48.1725 91.0533C48.1652 90.7657 48.2214 90.48 48.337 90.2167C48.4527 89.9533 48.625 89.7187 48.8417 89.5295L48.8315 89.4883Z" fill="#17262F"></path><path d="M50.3758 73.8803C50.2881 73.8777 50.2015 73.9007 50.1265 73.9463C50.0516 73.992 49.9915 74.0585 49.9537 74.1377C49.7787 74.2201 49.7786 74.3951 49.7786 74.5598C49.7704 74.6275 49.7826 74.696 49.8139 74.7566C49.8451 74.8172 49.8938 74.867 49.9537 74.8996C49.9926 74.9779 50.0528 75.0437 50.1275 75.0893C50.2022 75.1348 50.2883 75.1583 50.3758 75.157C50.4757 75.1668 50.5763 75.1477 50.6657 75.1021C50.7551 75.0565 50.8296 74.9862 50.8803 74.8996C50.9699 74.8054 51.0307 74.6875 51.0553 74.5598C51.0492 74.4027 50.9871 74.253 50.8803 74.1377C50.8316 74.0492 50.7575 73.9774 50.6676 73.9315C50.5776 73.8857 50.476 73.8678 50.3758 73.8803ZM48.8418 72.9434C49.0388 72.7391 49.2783 72.5806 49.5434 72.4792C49.8085 72.3778 50.0927 72.3359 50.3758 72.3566C50.6699 72.3336 50.9655 72.3742 51.2426 72.4754C51.5197 72.5766 51.7718 72.7363 51.9819 72.9434C52.1998 73.152 52.3725 73.4031 52.4894 73.6811C52.6062 73.9591 52.6648 74.2582 52.6614 74.5598C52.657 74.8465 52.5945 75.1294 52.4778 75.3913C52.361 75.6532 52.1923 75.8887 51.9819 76.0835C51.776 76.3021 51.5269 76.4754 51.2504 76.5924C50.9739 76.7094 50.676 76.7675 50.3758 76.763C50.0867 76.7638 49.8007 76.7037 49.5364 76.5866C49.2721 76.4696 49.0354 76.2981 48.8418 76.0835C48.6303 75.8901 48.4616 75.6547 48.3464 75.3923C48.2311 75.1299 48.1719 74.8464 48.1726 74.5598C48.1672 74.2589 48.2239 73.9601 48.339 73.682C48.4541 73.4039 48.6253 73.1525 48.8418 72.9434Z" fill="#17262F"></path><path d="M31.6277 78.884C31.3339 78.99 31.0911 79.2034 30.9482 79.4812C30.9481 79.5684 30.972 79.654 31.0175 79.7285C31.0629 79.803 31.128 79.8635 31.2056 79.9033C31.2459 79.9797 31.3068 80.0434 31.3814 80.0871C31.456 80.1307 31.5413 80.1527 31.6277 80.1504C31.7282 80.1632 31.8303 80.1468 31.9216 80.1029C32.013 80.0591 32.0897 79.9897 32.1425 79.9033C32.2456 79.7865 32.3039 79.6369 32.3072 79.4812C32.2891 79.3535 32.2315 79.2347 32.1425 79.1414C32.0921 79.0521 32.0161 78.9799 31.9244 78.9341C31.8327 78.8882 31.7294 78.8708 31.6277 78.884ZM30.104 77.9471C30.2994 77.7436 30.5372 77.5856 30.8006 77.4842C31.0639 77.3828 31.3462 77.3405 31.6277 77.3603C31.9232 77.3398 32.2197 77.3815 32.4981 77.4825C32.7764 77.5836 33.0306 77.7419 33.2441 77.9471C33.4632 78.1402 33.641 78.3757 33.7666 78.6393C33.8923 78.903 33.9632 79.1893 33.9751 79.4812C33.9783 79.7812 33.9196 80.0787 33.8027 80.355C33.6858 80.6314 33.5132 80.8806 33.2956 81.0873C33.0826 81.2938 32.8288 81.4537 32.5504 81.5565C32.2721 81.6593 31.9753 81.7029 31.6792 81.6844C31.397 81.7022 31.1144 81.658 30.8511 81.5548C30.5879 81.4516 30.3504 81.292 30.1555 81.0873C29.9379 80.8806 29.7652 80.6314 29.6483 80.355C29.5314 80.0787 29.4727 79.7812 29.476 79.4812C29.4813 79.1931 29.5441 78.909 29.6608 78.6455C29.7775 78.3821 29.9457 78.1447 30.1555 77.9471H30.104Z" fill="#17262F"></path><path d="M31.463 60.9079C31.2056 60.9079 31.0409 60.9079 30.9482 61.0727C30.8555 61.2374 30.7835 61.33 30.7835 61.4948C30.7726 61.5749 30.782 61.6564 30.8108 61.7319C30.8396 61.8075 30.8868 61.8746 30.9482 61.9272C31.0939 62.0432 31.277 62.1018 31.463 62.0919C31.6187 62.0886 31.7683 62.0303 31.8851 61.9272C31.9491 61.8763 31.9989 61.8098 32.0295 61.734C32.0602 61.6583 32.0707 61.5758 32.0601 61.4948C32.0601 61.33 32.0601 61.155 31.8851 61.0727C31.7101 60.9903 31.6277 60.9079 31.463 60.9079ZM29.8466 59.8784C30.2972 59.4934 30.8703 59.2817 31.463 59.2812C32.0248 59.2973 32.5636 59.5084 32.9867 59.8784C33.2043 60.085 33.3769 60.3343 33.4938 60.6106C33.6108 60.887 33.6694 61.1844 33.6662 61.4845C33.6582 61.7775 33.5901 62.0658 33.4661 62.3314C33.3421 62.5971 33.165 62.8344 32.9455 63.0288C32.7507 63.2392 32.5152 63.4079 32.2533 63.5247C31.9914 63.6415 31.7085 63.7039 31.4218 63.7083C31.1287 63.7059 30.8391 63.6445 30.5702 63.5278C30.3013 63.411 30.0587 63.2413 29.8569 63.0288C29.6462 62.832 29.4774 62.5947 29.3606 62.3311C29.2439 62.0675 29.1816 61.783 29.1774 61.4948C29.1742 61.1947 29.2328 60.8973 29.3498 60.6209C29.4667 60.3446 29.6393 60.0953 29.8569 59.8887L29.8466 59.8784Z" fill="#17262F"></path><path d="M99.3926 80.4076C99.2994 80.4004 99.2057 80.4122 99.1172 80.4423C99.0287 80.4724 98.9473 80.5201 98.8778 80.5826C98.7729 80.6982 98.7148 80.8487 98.7148 81.0048C98.7148 81.1608 98.7729 81.3113 98.8778 81.4269C99.0205 81.5492 99.2049 81.6119 99.3926 81.6019C99.5711 81.5795 99.743 81.5198 99.8971 81.4269C100.002 81.3113 100.06 81.1608 100.06 81.0048C100.06 80.8487 100.002 80.6982 99.8971 80.5826C99.7451 80.4853 99.5722 80.4253 99.3926 80.4076ZM97.8071 79.481C98.0137 79.2606 98.2644 79.0862 98.5429 78.9692C98.8214 78.8521 99.1214 78.795 99.4235 78.8015C99.7227 78.8036 100.019 78.8647 100.294 78.9813C100.57 79.0979 100.82 79.2677 101.03 79.481C101.438 79.8863 101.681 80.4299 101.709 81.0048C101.664 81.6001 101.426 82.1642 101.03 82.6109C100.581 82.9964 100.01 83.2085 99.4183 83.2085C98.827 83.2085 98.2554 82.9964 97.8071 82.6109C97.3791 82.1851 97.1351 81.6084 97.1276 81.0048C97.1236 80.7167 97.1823 80.4312 97.2997 80.1681C97.417 79.905 97.5901 79.6706 97.8071 79.481Z" fill="#17262F"></path><path d="M100.741 60.9081C100.563 60.9251 100.391 60.9814 100.237 61.0728C100.154 61.2478 100.062 61.3302 100.062 61.4949C100.066 61.6554 100.128 61.8089 100.237 61.9273C100.391 62.0188 100.563 62.075 100.741 62.0921C100.923 62.0752 101.098 62.019 101.256 61.9273C101.361 61.8074 101.419 61.6541 101.421 61.4949C101.421 61.3302 101.338 61.2478 101.256 61.0728C101.098 60.9812 100.923 60.925 100.741 60.9081ZM99.1352 59.9712C99.3451 59.7567 99.5958 59.5863 99.8725 59.47C100.149 59.3536 100.446 59.2937 100.746 59.2937C101.047 59.2937 101.344 59.3536 101.62 59.47C101.897 59.5863 102.148 59.7567 102.358 59.9712C102.574 60.1612 102.747 60.3957 102.864 60.6587C102.981 60.9217 103.04 61.207 103.037 61.4949C103.03 62.1017 102.786 62.6817 102.358 63.1113C101.909 63.4969 101.338 63.7089 100.746 63.7089C100.155 63.7089 99.5835 63.4969 99.1352 63.1113C98.7066 62.6817 98.4627 62.1017 98.4557 61.4949C98.4524 61.207 98.5114 60.9217 98.6287 60.6587C98.746 60.3957 98.9188 60.1612 99.1352 59.9712Z" fill="#17262F"></path><path d="M14.4137 68.1973C14.1666 68.1973 13.9916 68.1973 13.9092 68.3723C13.8008 68.4866 13.7384 68.6369 13.7342 68.7944C13.7342 68.9591 13.8268 69.0518 13.9092 69.2165C14.0508 69.3327 14.2308 69.3915 14.4137 69.3812C14.5952 69.3643 14.7708 69.3081 14.9284 69.2165C15.0182 69.092 15.0749 68.9468 15.0932 68.7944C15.0917 68.6383 15.0331 68.4881 14.9284 68.3723C14.8617 68.3058 14.7806 68.2554 14.6913 68.2251C14.6021 68.1948 14.5071 68.1852 14.4137 68.1973ZM12.8076 67.1677C13.257 66.7901 13.8267 66.5856 14.4137 66.5912C14.9776 66.5865 15.5223 66.7963 15.9374 67.178C16.1578 67.3846 16.3322 67.6354 16.4493 67.9139C16.5663 68.1924 16.6235 68.4924 16.6169 68.7944C16.6029 69.3548 16.3956 69.8931 16.0301 70.3181C15.6072 70.7619 15.0264 71.0209 14.4137 71.0388C14.1135 71.0433 13.8156 70.9852 13.5391 70.8682C13.2626 70.7512 13.0134 70.5779 12.8076 70.3593C12.5977 70.1641 12.4293 69.9285 12.3125 69.6667C12.1958 69.4049 12.133 69.1222 12.1281 68.8356C12.1234 68.5338 12.1814 68.2344 12.2984 67.9562C12.4153 67.6779 12.5887 67.427 12.8076 67.2192V67.1677Z" fill="#17262F"></path><path d="M85.226 70.1533C85.0477 70.1703 84.8755 70.2266 84.7215 70.318C84.6245 70.4394 84.5639 70.5857 84.5465 70.7401C84.5482 70.9011 84.6107 71.0556 84.7215 71.1725C84.7885 71.2351 84.8683 71.2823 84.9555 71.3108C85.0427 71.3392 85.135 71.3483 85.226 71.3372C85.4834 71.3372 85.6481 71.3372 85.7305 71.1725C85.8413 71.0556 85.9038 70.9011 85.9055 70.7401C85.8881 70.5857 85.8275 70.4394 85.7305 70.318C85.5899 70.2 85.4091 70.1409 85.226 70.1533ZM83.7023 69.2164C83.8918 68.9994 84.1263 68.8263 84.3894 68.7089C84.6525 68.5916 84.9379 68.5329 85.226 68.5369C85.5262 68.5324 85.8241 68.5905 86.1006 68.7075C86.3771 68.8245 86.6262 68.9978 86.8321 69.2164C87.0501 69.405 87.224 69.6393 87.3414 69.9026C87.4589 70.1659 87.517 70.4518 87.5116 70.7401C87.5103 71.041 87.4496 71.3387 87.333 71.616C87.2164 71.8934 87.0462 72.145 86.8321 72.3565C86.3841 72.7378 85.8143 72.946 85.226 72.9433C84.6624 72.946 84.1185 72.7365 83.7023 72.3565C83.2736 71.9269 83.0298 71.3469 83.0228 70.7401C83.0195 70.4521 83.0785 70.1669 83.1958 69.9039C83.3131 69.6409 83.4859 69.4063 83.7023 69.2164Z" fill="#17262F"></path><path d="M74.1275 19.86C74.2305 19.6904 74.3935 19.5656 74.5841 19.5104C74.7747 19.4551 74.9792 19.4733 75.157 19.5615C75.2555 19.5972 75.3454 19.6532 75.421 19.7257C75.4966 19.7983 75.5562 19.8859 75.5959 19.9828C75.6357 20.0798 75.6547 20.184 75.6518 20.2887C75.6489 20.3934 75.6242 20.4964 75.5791 20.591L75.4968 20.766C75.4573 20.8617 75.3993 20.9487 75.3261 21.0218C75.2529 21.0949 75.1658 21.1528 75.0701 21.192C74.9743 21.2313 74.8717 21.2511 74.7683 21.2505C74.6648 21.2498 74.5624 21.2286 74.4672 21.1882C74.2669 21.096 74.1107 20.9292 74.0318 20.7233C73.9529 20.5175 73.9577 20.2889 74.0451 20.0865L74.1275 19.86ZM73.2832 21.8162C73.3162 21.7156 73.3705 21.6235 73.4426 21.546C73.5147 21.4685 73.6027 21.4076 73.7006 21.3675C73.7985 21.3273 73.9039 21.3089 74.0096 21.3135C74.1153 21.3181 74.2187 21.3456 74.3128 21.3941C74.4137 21.4377 74.5051 21.5009 74.5815 21.58C74.658 21.6591 74.7181 21.7525 74.7583 21.8549C74.7984 21.9573 74.818 22.0666 74.8157 22.1766C74.8135 22.2866 74.7895 22.395 74.7452 22.4957L73.8083 24.5548C73.7739 24.6543 73.7187 24.7453 73.6464 24.8218C73.5741 24.8983 73.4863 24.9585 73.3889 24.9985C73.2915 25.0384 73.1867 25.0571 73.0815 25.0534C72.9763 25.0497 72.8731 25.0236 72.7787 24.9769C72.5785 24.8847 72.4222 24.7179 72.3433 24.5121C72.2645 24.3062 72.2692 24.0777 72.3566 23.8753L73.2832 21.8162ZM71.5742 25.7388C71.6099 25.6403 71.6659 25.5503 71.7384 25.4748C71.811 25.3992 71.8986 25.3396 71.9955 25.2998C72.0925 25.2601 72.1967 25.241 72.3014 25.2439C72.4061 25.2468 72.5091 25.2716 72.6037 25.3166C72.6994 25.3561 72.7863 25.4141 72.8594 25.4873C72.9326 25.5605 72.9904 25.6476 73.0297 25.7433C73.069 25.8391 73.0888 25.9417 73.0882 26.0451C73.0875 26.1486 73.0663 26.251 73.0258 26.3462L66.1485 41.8203C66.1485 41.913 66.0558 41.9953 65.9734 42.0777L62.4112 45.3825C62.3446 45.4643 62.2606 45.5303 62.1653 45.5755C62.07 45.6208 61.9659 45.6443 61.8604 45.6443C61.7549 45.6443 61.6507 45.6208 61.5555 45.5755C61.4602 45.5303 61.3762 45.4643 61.3096 45.3825C61.229 45.3079 61.1653 45.217 61.1227 45.1158C61.0801 45.0146 61.0596 44.9055 61.0625 44.7957V39.8745C61.0503 39.7551 61.0794 39.6352 61.1449 39.5347L74.2819 9.67781C74.3965 9.49817 74.5714 9.36528 74.7752 9.30301C74.979 9.24074 75.1983 9.25317 75.3938 9.33806C75.5585 9.33806 75.6409 9.50279 75.7233 9.67781L76.6601 11.2015L78.4413 10.7794C78.5478 10.7589 78.6574 10.7604 78.7633 10.7839C78.8692 10.8074 78.9692 10.8524 79.057 10.9161C79.1448 10.9798 79.2187 11.0608 79.2739 11.1542C79.3291 11.2476 79.3646 11.3513 79.3781 11.4589C79.4198 11.5215 79.442 11.5949 79.442 11.67C79.442 11.7451 79.4198 11.8185 79.3781 11.881L76.2895 18.8305C76.2449 18.9306 76.181 19.0209 76.1015 19.0963C76.022 19.1716 75.9285 19.2306 75.8262 19.2698C75.7239 19.309 75.6148 19.3277 75.5053 19.3247C75.3958 19.3218 75.2879 19.2973 75.1879 19.2526C75.0114 19.1402 74.8805 18.9689 74.8183 18.7691C74.7561 18.5693 74.7667 18.354 74.8481 18.1613L77.2161 12.7356L76.4542 12.9106C76.2819 12.9443 76.1037 12.9304 75.9387 12.8706C75.7737 12.8107 75.628 12.7071 75.5173 12.5708L75.157 11.809L62.6686 40.0495V43.0146L64.7895 40.9555L71.5742 25.7388Z" fill="#17262F"></path><path d="M74.5393 0.360294C74.6388 0.394686 74.7298 0.449877 74.8063 0.522191C74.8828 0.594505 74.943 0.682285 74.983 0.779688C75.0229 0.877092 75.0416 0.981883 75.0379 1.08709C75.0342 1.1923 75.0081 1.2955 74.9614 1.38984C74.9187 1.53656 74.8292 1.66529 74.7065 1.75638C74.5838 1.84746 74.4347 1.89591 74.2819 1.89432L73.52 6.01251L76.6087 11.2735L82.5492 9.9145L85.0098 6.77438L81.0666 4.94178C80.9721 4.90174 80.8872 4.84198 80.8177 4.76648C80.7481 4.69099 80.6955 4.60151 80.6633 4.50403C80.6312 4.40655 80.6202 4.30333 80.6312 4.20127C80.6421 4.09921 80.6747 4.00066 80.7269 3.91223C80.7616 3.81284 80.8167 3.72184 80.8888 3.64513C80.961 3.56842 81.0484 3.50772 81.1454 3.46695C81.2425 3.42619 81.347 3.40627 81.4523 3.40849C81.5575 3.4107 81.6612 3.43501 81.7564 3.47982L86.6777 5.69335L86.8424 5.77572C86.9286 5.83634 87.0005 5.91515 87.053 6.00658C87.1054 6.09801 87.1372 6.19984 87.146 6.30488C87.1549 6.40992 87.1406 6.51563 87.1041 6.61454C87.0677 6.71345 87.0099 6.80315 86.935 6.87733L83.7126 10.9955C83.6047 11.1444 83.459 11.2617 83.2904 11.3353L76.4954 12.9105C76.3231 12.9442 76.1449 12.9303 75.9799 12.8705C75.8148 12.8106 75.6692 12.707 75.5585 12.5707L71.9963 6.54788C71.922 6.35816 71.8937 6.1535 71.9139 5.95074L72.8405 0.700045C72.8335 0.652825 72.8382 0.604586 72.8544 0.55966C72.8706 0.514735 72.8976 0.47453 72.9332 0.442658C72.9704 0.345789 73.0286 0.258394 73.1037 0.186796C73.1788 0.115199 73.2689 0.0611884 73.3674 0.0286729C73.4659 -0.00384257 73.5705 -0.0140502 73.6734 -0.00121164C73.7764 0.011627 73.8752 0.0471908 73.9627 0.102907L74.5393 0.360294ZM79.965 2.72825C80.1392 2.84522 80.268 3.01843 80.3298 3.21894C80.3917 3.41945 80.3828 3.6351 80.3048 3.82987C80.2747 3.93216 80.2202 4.02562 80.1461 4.10224C80.072 4.17886 79.9803 4.23634 79.8791 4.26975C79.7778 4.30316 79.67 4.31151 79.5648 4.29407C79.4596 4.27663 79.3603 4.23392 79.2752 4.16962L77.2161 3.32539C77.0373 3.21259 76.9047 3.03951 76.8424 2.83745C76.7801 2.6354 76.7921 2.41772 76.8764 2.22378C76.915 2.12811 76.974 2.04201 77.0493 1.97147C77.1246 1.90093 77.2144 1.84763 77.3124 1.8153C77.4104 1.78297 77.5142 1.77236 77.6167 1.78423C77.7192 1.7961 77.8179 1.83015 77.9059 1.88403L79.965 2.72825ZM76.4028 1.12216C76.5849 1.21498 76.7283 1.36932 76.8074 1.55779C76.8866 1.74626 76.8964 1.95668 76.8352 2.15171C76.75 2.36244 76.5871 2.53236 76.3801 2.62627C76.1731 2.72018 75.9379 2.73089 75.7233 2.65619L75.5585 2.49146C75.46 2.4557 75.3701 2.39975 75.2945 2.32719C75.2189 2.25463 75.1594 2.16706 75.1196 2.07011C75.0799 1.97316 75.0608 1.86897 75.0637 1.76423C75.0666 1.65949 75.0914 1.55651 75.1364 1.46191C75.1692 1.35875 75.2241 1.26401 75.2974 1.18436C75.3707 1.10471 75.4606 1.04208 75.5607 1.00087C75.6608 0.959655 75.7687 0.940861 75.8768 0.945808C75.9849 0.950754 76.0907 0.979321 76.1866 1.0295L76.4028 1.12216ZM77.8441 8.50402L80.6445 8.16427L81.3343 7.39211L76.3204 5.14769L76.1866 6.17724L77.8441 8.50402ZM81.1593 9.688L77.597 10.1925C77.4512 10.2099 77.3034 10.1875 77.1692 10.1277C77.0351 10.0679 76.9197 9.97287 76.8352 9.85273L74.7143 6.88763C74.6029 6.74283 74.5415 6.56582 74.5393 6.38315L74.879 3.92253V3.66514C74.9712 3.46488 75.138 3.30862 75.3439 3.22974C75.5497 3.15086 75.7783 3.15563 75.9807 3.24303L82.9404 6.38315C83.0228 6.38315 83.1051 6.38315 83.1051 6.46551C83.1907 6.52695 83.2617 6.60639 83.3132 6.69823C83.3647 6.79007 83.3955 6.89209 83.4033 6.9971C83.4112 7.10212 83.3959 7.20758 83.3586 7.30606C83.3214 7.40454 83.2629 7.49366 83.1875 7.56713L81.6638 9.43061C81.6018 9.50582 81.5251 9.56747 81.4383 9.61175C81.3515 9.65603 81.2565 9.68198 81.1593 9.688Z" fill="#17262F"></path><path d="M69.618 59.7137C69.5719 59.8028 69.507 59.881 69.428 59.943C69.3489 60.0049 69.2574 60.0491 69.1597 60.0725C69.0621 60.0959 68.9605 60.0981 68.862 60.0788C68.7634 60.0595 68.6701 60.0193 68.5885 59.9607C68.4859 59.9197 68.3938 59.8562 68.3189 59.7749C68.244 59.6936 68.1882 59.5966 68.1557 59.491C68.1231 59.3854 68.1145 59.2739 68.1306 59.1645C68.1468 59.0552 68.1871 58.9509 68.2487 58.8591L74.1275 48.6975L65.4793 42.5202L62.3906 45.4029C62.324 45.4847 62.24 45.5507 62.1447 45.5959C62.0495 45.6412 61.9453 45.6647 61.8398 45.6647C61.7343 45.6647 61.6302 45.6412 61.5349 45.5959C61.4396 45.5507 61.3556 45.4847 61.289 45.4029C61.2085 45.3283 61.1448 45.2374 61.1021 45.1362C61.0595 45.035 61.039 44.9259 61.0419 44.8161V40.5538L50.7464 38.4329L46.6282 50.9007L53.4953 63.5333L62.2259 61.4742C62.4292 61.4311 62.6412 61.4695 62.8164 61.5812C62.9917 61.6929 63.116 61.8689 63.1628 62.0713C63.1979 62.2855 63.1576 62.5053 63.0487 62.6931C62.9398 62.8809 62.769 63.025 62.5656 63.1009L53.2379 65.2217C53.0942 65.2397 52.9484 65.2151 52.8185 65.151C52.6886 65.087 52.5803 64.9863 52.507 64.8614L45.1251 51.4773C45.021 51.2668 44.9919 51.027 45.0427 50.7978L49.4183 37.2489C49.4903 37.0625 49.6201 36.9039 49.7887 36.7965C49.9573 36.6891 50.1558 36.6383 50.3552 36.6518L61.9891 39.1227C62.1723 39.153 62.3396 39.2451 62.4633 39.3837C62.5869 39.5223 62.6593 39.6991 62.6686 39.8846V43.0247L64.8615 40.8935C65.0022 40.7723 65.1778 40.6991 65.3629 40.6843C65.5479 40.6694 65.7329 40.7139 65.8911 40.8112L75.5585 47.843C75.6462 47.8906 75.7229 47.956 75.784 48.0349C75.8451 48.1137 75.8891 48.2045 75.9133 48.3012C75.9375 48.398 75.9413 48.4988 75.9246 48.5971C75.9078 48.6954 75.8708 48.7892 75.8159 48.8725L69.618 59.7137ZM64.5321 62.5964C64.3287 62.6414 64.1157 62.6038 63.94 62.4919C63.7643 62.3799 63.6402 62.2027 63.5952 61.9993C63.5501 61.7958 63.5877 61.5828 63.6997 61.4071C63.8117 61.2314 63.9889 61.1074 64.1923 61.0624L65.8087 60.7432C65.9091 60.7123 66.015 60.7038 66.119 60.7181C66.223 60.7325 66.3226 60.7694 66.4109 60.8263C66.4991 60.8832 66.5739 60.9586 66.6299 61.0474C66.686 61.1362 66.7219 61.2362 66.7353 61.3403C66.7815 61.5424 66.7457 61.7545 66.6357 61.9302C66.5256 62.1058 66.3504 62.2306 66.1485 62.2772L64.5321 62.5964ZM68.0119 61.8345C67.7967 61.8832 67.571 61.8487 67.38 61.7379C67.1891 61.6272 67.0471 61.4484 66.9824 61.2374C66.9393 61.0341 66.9777 60.8221 67.0894 60.6468C67.2011 60.4716 67.3771 60.3472 67.5795 60.3005L67.8266 60.2181C67.9287 60.1952 68.0343 60.1925 68.1374 60.2103C68.2405 60.2282 68.3391 60.2661 68.4275 60.322C68.516 60.378 68.5925 60.4508 68.6528 60.5363C68.7131 60.6218 68.756 60.7183 68.779 60.8204C68.8019 60.9225 68.8046 61.0281 68.7868 61.1312C68.7689 61.2343 68.731 61.3329 68.6751 61.4213C68.6191 61.5098 68.5463 61.5863 68.4608 61.6466C68.3753 61.7069 68.2788 61.7498 68.1767 61.7728L68.0119 61.8345Z" fill="#17262F"></path><path d="M70.4726 49.2844C70.52 49.1965 70.5854 49.1195 70.6646 49.0586C70.7438 48.9976 70.8349 48.9541 70.9321 48.9307C71.0293 48.9074 71.1302 48.9049 71.2285 48.9232C71.3267 48.9416 71.4199 48.9805 71.5021 49.0374C71.5945 49.0799 71.6771 49.141 71.7448 49.2169C71.8125 49.2927 71.8639 49.3817 71.8958 49.4783C71.9276 49.5748 71.9393 49.6769 71.93 49.7782C71.9207 49.8795 71.8907 49.9777 71.8419 50.0669L66.828 58.6842C66.7802 58.7788 66.7137 58.8627 66.6325 58.9308C66.5513 58.9989 66.4571 59.0498 66.3557 59.0804C66.2542 59.111 66.1476 59.1207 66.0423 59.1089C65.937 59.0971 65.8352 59.064 65.7431 59.0116C65.6509 58.9593 65.5704 58.8888 65.5063 58.8044C65.4423 58.72 65.396 58.6234 65.3704 58.5206C65.3447 58.4178 65.3403 58.3108 65.3572 58.2062C65.3742 58.1016 65.4122 58.0015 65.469 57.9121L70.4726 49.2844Z" fill="#17262F"></path><path d="M67.9502 48.605C68.0762 48.4421 68.2574 48.3309 68.4596 48.2923C68.6619 48.2537 68.8713 48.2904 69.0484 48.3954C69.2256 48.5004 69.3582 48.6665 69.4214 48.8625C69.4846 49.0585 69.474 49.2708 69.3915 49.4595L66.3029 54.8852C66.1869 55.0607 66.0081 55.1851 65.8033 55.233C65.5984 55.2808 65.383 55.2485 65.2013 55.1426C65.1055 55.0938 65.0204 55.0263 64.9512 54.944C64.882 54.8618 64.83 54.7664 64.7983 54.6637C64.7666 54.5609 64.7559 54.4529 64.7668 54.3459C64.7776 54.239 64.8098 54.1353 64.8615 54.041L67.9502 48.605Z" fill="#17262F"></path><path d="M51.6421 43.7763C51.718 43.5729 51.8621 43.4021 52.0499 43.2932C52.2377 43.1843 52.4575 43.144 52.6717 43.1791C52.7738 43.2115 52.8684 43.2642 52.9496 43.3342C53.0308 43.4041 53.0969 43.4898 53.1441 43.586C53.1912 43.6822 53.2184 43.787 53.2239 43.8941C53.2294 44.0011 53.2132 44.1081 53.1762 44.2087L50.7258 51.6729L54.0204 57.6546C54.0707 57.7492 54.1017 57.8527 54.1119 57.9594C54.122 58.066 54.111 58.1736 54.0794 58.276C54.0478 58.3783 53.9963 58.4734 53.9279 58.5558C53.8595 58.6383 53.7754 58.7063 53.6806 58.7562C53.5871 58.8109 53.4832 58.8455 53.3755 58.858C53.2678 58.8704 53.1587 58.8603 53.0552 58.8284C52.9516 58.7964 52.8558 58.7433 52.7738 58.6724C52.6919 58.6015 52.6255 58.5143 52.579 58.4164L49.1815 52.1465C49.0687 51.935 49.0393 51.6888 49.0991 51.4567L51.6421 43.7763Z" fill="#17262F"></path><path d="M89.3854 71.7593C89.1605 71.7594 88.9447 71.6707 88.7847 71.5127C88.6248 71.3547 88.5335 71.14 88.5308 70.9151C88.5332 70.8077 88.5576 70.702 88.6026 70.6045C88.6476 70.507 88.7122 70.4198 88.7924 70.3483C88.8726 70.2769 88.9666 70.2226 89.0686 70.1891C89.1706 70.1555 89.2784 70.1433 89.3854 70.1532H107.186C107.287 70.1519 107.386 70.1706 107.479 70.2084C107.572 70.2462 107.657 70.3023 107.728 70.3733C107.799 70.4443 107.855 70.5289 107.893 70.6219C107.931 70.715 107.95 70.8147 107.948 70.9151C107.952 71.1261 107.875 71.3306 107.733 71.4872C107.592 71.6439 107.396 71.7411 107.186 71.7593H89.3854Z" fill="#17262F"></path><path d="M92.8549 66.3336C92.6529 66.3336 92.4591 66.2534 92.3162 66.1105C92.1733 65.9676 92.0931 65.7738 92.0931 65.5718C92.0846 65.4657 92.0979 65.3589 92.1322 65.2581C92.1664 65.1573 92.2209 65.0646 92.2922 64.9856C92.3635 64.9065 92.4502 64.8429 92.5469 64.7985C92.6437 64.7542 92.7485 64.73 92.8549 64.7275H107.186C107.293 64.73 107.397 64.7542 107.494 64.7985C107.591 64.8429 107.678 64.9065 107.749 64.9856C107.82 65.0646 107.875 65.1573 107.909 65.2581C107.943 65.3589 107.957 65.4657 107.948 65.5718C107.948 65.7738 107.868 65.9676 107.725 66.1105C107.582 66.2534 107.388 66.3336 107.186 66.3336H92.8549Z" fill="#17262F"></path><path d="M69.8754 87.3674C69.6634 87.3491 69.4663 87.2504 69.3247 87.0915C69.1831 86.9327 69.1075 86.7256 69.1136 86.5129C69.1136 86.3108 69.1938 86.117 69.3367 85.9742C69.4796 85.8313 69.6734 85.751 69.8754 85.751H87.6866C87.791 85.7412 87.8964 85.7524 87.9964 85.7841C88.0964 85.8158 88.1891 85.8672 88.2688 85.9354C88.3485 86.0036 88.4137 86.0871 88.4605 86.181C88.5073 86.2749 88.5347 86.3773 88.5411 86.482C88.5411 86.7069 88.4525 86.9227 88.2945 87.0826C88.1365 87.2426 87.9217 87.3338 87.6969 87.3365L69.8754 87.3674Z" fill="#17262F"></path><path d="M73.4377 81.9416C73.225 81.9448 73.0192 81.8666 72.8622 81.7231C72.7053 81.5796 72.6092 81.3815 72.5934 81.1694C72.6079 80.9503 72.7015 80.7439 72.8568 80.5886C73.0121 80.4333 73.2185 80.3397 73.4377 80.3252H87.6866C87.9105 80.3252 88.1252 80.4141 88.2836 80.5725C88.4419 80.7308 88.5308 80.9455 88.5308 81.1694C88.5298 81.2767 88.5066 81.3826 88.4629 81.4806C88.4191 81.5786 88.3557 81.6665 88.2765 81.739C88.1973 81.8114 88.1041 81.8667 88.0026 81.9016C87.9011 81.9364 87.7936 81.9501 87.6866 81.9416H73.4377Z" fill="#17262F"></path><path d="M31.3806 71.3375C31.1786 71.3375 30.9848 71.2572 30.8419 71.1143C30.699 70.9714 30.6188 70.7777 30.6188 70.5756C30.6188 70.3735 30.699 70.1797 30.8419 70.0369C30.9848 69.894 31.1786 69.8137 31.3806 69.8137H49.1815C49.3836 69.8137 49.5774 69.894 49.7202 70.0369C49.8631 70.1797 49.9434 70.3735 49.9434 70.5756C49.9434 70.7777 49.8631 70.9714 49.7202 71.1143C49.5774 71.2572 49.3836 71.3375 49.1815 71.3375H31.3806Z" fill="#17262F"></path><path d="M34.8502 65.9941C34.7438 65.9916 34.639 65.9675 34.5422 65.9231C34.4455 65.8787 34.3588 65.8151 34.2874 65.736C34.2161 65.657 34.1617 65.5643 34.1274 65.4635C34.0932 65.3627 34.0799 65.256 34.0883 65.1498C34.0883 64.9468 34.1683 64.752 34.3108 64.6075C34.4534 64.4629 34.6472 64.3804 34.8502 64.3777H49.1815C49.3863 64.3777 49.5827 64.459 49.7275 64.6038C49.8723 64.7487 49.9537 64.9451 49.9537 65.1498C49.9621 65.2568 49.9485 65.3644 49.9137 65.4659C49.8788 65.5673 49.8235 65.6606 49.751 65.7397C49.6786 65.8189 49.5907 65.8824 49.4927 65.9261C49.3947 65.9699 49.2888 65.993 49.1815 65.9941H34.8502Z" fill="#17262F"></path><path d="M5.50808 80.9224C5.40716 80.9224 5.30724 80.9024 5.21413 80.8635C5.12102 80.8245 5.03657 80.7675 4.96569 80.6957C4.8948 80.6238 4.8389 80.5386 4.80123 80.445C4.76355 80.3514 4.74485 80.2512 4.74621 80.1503C4.73474 79.934 4.80782 79.7218 4.95 79.5585C5.09219 79.3952 5.29232 79.2936 5.50808 79.2751H23.3193C23.5441 79.2751 23.7599 79.3637 23.9199 79.5218C24.0799 79.6798 24.1711 79.8945 24.1738 80.1194C24.1713 80.2271 24.1469 80.3333 24.102 80.4313C24.0571 80.5293 23.9927 80.6171 23.9127 80.6894C23.8328 80.7617 23.7389 80.8169 23.6368 80.8516C23.5348 80.8864 23.4267 80.9 23.3193 80.8915L5.50808 80.9224Z" fill="#17262F"></path><path d="M9.07032 75.5791C8.85135 75.5619 8.64607 75.4658 8.49267 75.3086C8.33927 75.1514 8.24819 74.9438 8.23638 74.7245C8.25459 74.5143 8.35183 74.3188 8.5085 74.1774C8.66517 74.036 8.86961 73.9593 9.08061 73.9627H23.3193C23.4259 73.9543 23.5331 73.9675 23.6345 74.0016C23.7359 74.0358 23.8293 74.0901 23.9091 74.1612C23.9889 74.2324 24.0535 74.319 24.099 74.4158C24.1445 74.5126 24.1699 74.6176 24.1738 74.7245C24.1738 74.9512 24.0838 75.1685 23.9235 75.3288C23.7632 75.489 23.5459 75.5791 23.3193 75.5791H9.07032Z" fill="#17262F"></path><path d="M28.2405 92.0313C28.1341 92.0413 28.0267 92.0291 27.9253 91.9954C27.8238 91.9618 27.7304 91.9074 27.6511 91.8358C27.5717 91.7642 27.5081 91.6768 27.4642 91.5794C27.4204 91.4819 27.3972 91.3763 27.3963 91.2695C27.3871 91.1558 27.4026 91.0415 27.4416 90.9344C27.4807 90.8272 27.5424 90.7298 27.6225 90.6487C27.7027 90.5676 27.7994 90.5047 27.906 90.4644C28.0127 90.424 28.1267 90.4072 28.2405 90.4149H46.0517C46.1591 90.4173 46.2648 90.4417 46.3623 90.4867C46.4598 90.5317 46.547 90.5963 46.6185 90.6765C46.6899 90.7566 46.7442 90.8507 46.7777 90.9527C46.8113 91.0547 46.8235 91.1625 46.8136 91.2695C46.8136 91.4715 46.7333 91.6653 46.5904 91.8082C46.4475 91.951 46.2537 92.0313 46.0517 92.0313H28.2405Z" fill="#17262F"></path><path d="M28.2405 86.5953C28.0384 86.5953 27.8447 86.515 27.7018 86.3721C27.5589 86.2292 27.4786 86.0355 27.4786 85.8334C27.4786 85.6313 27.5589 85.4376 27.7018 85.2947C27.8447 85.1518 28.0384 85.0715 28.2405 85.0715H42.4894C42.6915 85.0715 42.8853 85.1518 43.0282 85.2947C43.171 85.4376 43.2513 85.6313 43.2513 85.8334C43.2513 86.0355 43.171 86.2292 43.0282 86.3721C42.8853 86.515 42.6915 86.5953 42.4894 86.5953H28.2405Z" fill="#17262F"></path><path d="M32.3072 54.9676C32.5093 54.9676 32.7031 55.0479 32.8459 55.1908C32.9888 55.3337 33.0691 55.5274 33.0691 55.7295C33.0691 55.9316 32.9888 56.1253 32.8459 56.2682C32.7031 56.4111 32.5093 56.4914 32.3072 56.4914H32.2249C32.0228 56.4914 31.829 56.4111 31.6861 56.2682C31.5433 56.1253 31.463 55.9316 31.463 55.7295C31.463 55.5274 31.5433 55.3337 31.6861 55.1908C31.829 55.0479 32.0228 54.9676 32.2249 54.9676H32.3072ZM29.6819 54.9676C29.8839 54.9676 30.0777 55.0479 30.2206 55.1908C30.3635 55.3337 30.4437 55.5274 30.4437 55.7295C30.4437 55.9316 30.3635 56.1253 30.2206 56.2682C30.0777 56.4111 29.8839 56.4914 29.6819 56.4914H26.2844C26.0823 56.4914 25.8885 56.4111 25.7456 56.2682C25.6028 56.1253 25.5225 55.9316 25.5225 55.7295C25.5225 55.5274 25.6028 55.3337 25.7456 55.1908C25.8885 55.0479 26.0823 54.9676 26.2844 54.9676H29.6819ZM23.4016 54.9676C23.6037 54.9676 23.7975 55.0479 23.9403 55.1908C24.0832 55.3337 24.1635 55.5274 24.1635 55.7295C24.1635 55.9316 24.0832 56.1253 23.9403 56.2682C23.7975 56.4111 23.6037 56.4914 23.4016 56.4914H1.69875L2.29589 76.5058C3.02859 78.0161 4.08277 79.3479 5.38454 80.4078C7.07678 81.7844 8.96434 82.9016 10.9853 83.7229C11.1716 83.8107 11.3183 83.965 11.3965 84.1556C11.4746 84.3462 11.4785 84.5592 11.4074 84.7525C11.3171 84.9546 11.1511 85.1131 10.945 85.194C10.739 85.2749 10.5094 85.2716 10.3058 85.1849C8.15654 84.2715 6.14365 83.0658 4.3241 81.602C2.78254 80.3865 1.55995 78.8141 0.761866 77.0206C0.761866 76.9279 0.679502 76.8455 0.679502 76.7632L0 55.7295C0.0182099 55.5193 0.11545 55.3237 0.272117 55.1824C0.428784 55.041 0.633227 54.9642 0.844229 54.9676H23.4016ZM12.6326 86.0909C12.5295 86.0598 12.434 86.0078 12.352 85.9382C12.27 85.8685 12.2033 85.7827 12.1559 85.6861C12.1086 85.5894 12.0817 85.4841 12.0769 85.3766C12.0721 85.2691 12.0895 85.1618 12.1281 85.0613C12.1548 84.9556 12.2043 84.8569 12.273 84.7721C12.3417 84.6874 12.428 84.6187 12.526 84.5706C12.624 84.5226 12.7312 84.4965 12.8403 84.4942C12.9494 84.4918 13.0577 84.5132 13.1576 84.5568L13.4974 84.6392C13.5995 84.6716 13.6941 84.7243 13.7753 84.7943C13.8565 84.8642 13.9226 84.9499 13.9698 85.0461C14.0169 85.1423 14.0441 85.2471 14.0496 85.3542C14.0551 85.4612 14.0389 85.5682 14.0019 85.6688C13.9802 85.7663 13.9378 85.8581 13.8777 85.938C13.8175 86.0178 13.741 86.0838 13.6532 86.1316C13.5654 86.1794 13.4684 86.2079 13.3688 86.215C13.2691 86.2222 13.169 86.208 13.0753 86.1732L12.6326 86.0909ZM19.2526 87.6146C19.15 87.6103 19.0497 87.5841 18.9581 87.5379C18.8665 87.4916 18.7859 87.4264 18.7215 87.3464C18.6572 87.2665 18.6107 87.1738 18.5851 87.0744C18.5595 86.9751 18.5554 86.8714 18.573 86.7704C18.6133 86.5591 18.7326 86.3711 18.9067 86.2448C19.0808 86.1185 19.2966 86.0635 19.5099 86.0909C20.4365 86.1732 21.3734 86.3483 22.3927 86.4306C23.4119 86.513 24.3385 86.513 25.3578 86.5954C25.532 86.6001 25.7 86.6607 25.8372 86.7682C25.9744 86.8758 26.0734 87.0245 26.1196 87.1925C26.9639 90.2811 29.9393 93.0403 34.2634 95.0788C39.3873 97.3414 44.94 98.4688 50.5405 98.3837C55.1818 98.4117 59.7955 97.6672 64.1923 96.1804C68.1767 94.7391 71.3168 92.7932 73.2729 90.415C73.369 90.3132 73.4891 90.2372 73.6223 90.194C73.7554 90.1508 73.8973 90.1418 74.0348 90.1679C75.3011 90.415 76.7425 90.59 78.153 90.7547C79.5635 90.9195 80.871 90.9297 82.2712 90.9297C82.3773 90.9213 82.484 90.9346 82.5848 90.9689C82.6856 91.0031 82.7784 91.0575 82.8574 91.1289C82.9364 91.2002 83.0001 91.2869 83.0444 91.3836C83.0888 91.4804 83.113 91.5852 83.1154 91.6916C83.1213 91.804 83.1036 91.9165 83.0632 92.0216C83.0229 92.1267 82.9609 92.2221 82.8813 92.3018C82.8017 92.3814 82.7063 92.4433 82.6011 92.4837C82.496 92.524 82.3836 92.5418 82.2712 92.5358C80.826 92.5373 79.3819 92.4514 77.9471 92.2785C76.6704 92.1961 75.4041 92.0314 74.2098 91.8563C71.5921 94.5402 68.3634 96.5502 64.7998 97.7145H64.7174C60.1563 99.2634 55.3676 100.036 50.5508 100C44.7155 100.059 38.9348 98.8723 33.5942 96.5202C29.095 94.3993 25.8725 91.5166 24.7709 88.1294C23.834 88.1294 23.0722 88.047 22.2279 88.047C21.1984 87.9544 20.2821 87.7896 19.2628 87.6146H19.2526ZM85.3907 92.4535C85.1797 92.4569 84.9753 92.3801 84.8186 92.2388C84.6619 92.0974 84.5647 91.9019 84.5465 91.6916C84.5429 91.4795 84.6193 91.2738 84.7604 91.1155C84.9016 90.9571 85.0972 90.8578 85.3083 90.8371H85.4525C85.5535 90.8194 85.6572 90.8235 85.7566 90.8491C85.8559 90.8747 85.9486 90.9212 86.0286 90.9856C86.1085 91.0499 86.1737 91.1305 86.22 91.2221C86.2662 91.3137 86.2924 91.4141 86.2967 91.5166C86.3066 91.6235 86.2944 91.7314 86.2609 91.8334C86.2273 91.9354 86.1731 92.0294 86.1016 92.1096C86.0302 92.1897 85.943 92.2543 85.8455 92.2993C85.7479 92.3443 85.6422 92.3688 85.5349 92.3711L85.3907 92.4535ZM87.6042 92.1961C87.5033 92.209 87.4008 92.2015 87.3028 92.1741C87.2048 92.1468 87.1132 92.1 87.0336 92.0367C86.9539 91.9733 86.8878 91.8947 86.839 91.8054C86.7903 91.716 86.7599 91.6178 86.7497 91.5166C86.732 91.4155 86.7361 91.3119 86.7617 91.2125C86.7874 91.1132 86.8339 91.0204 86.8982 90.9405C86.9625 90.8606 87.0432 90.7953 87.1348 90.7491C87.2263 90.7029 87.3267 90.6767 87.4292 90.6724C88.1504 90.6119 88.8662 90.4983 89.5707 90.3326C90.2265 90.2653 90.8767 90.1518 91.5165 89.9929C91.6173 89.9701 91.7215 89.9676 91.8233 89.9853C91.925 90.0031 92.0222 90.0408 92.1093 90.0963C92.1964 90.1518 92.2717 90.224 92.3307 90.3087C92.3898 90.3935 92.4315 90.4891 92.4534 90.59C92.4761 90.6901 92.4785 90.7937 92.4606 90.8948C92.4428 90.9959 92.4049 91.0924 92.3493 91.1786C92.2937 91.2649 92.2215 91.3392 92.1368 91.3973C92.0522 91.4553 91.9568 91.4959 91.8563 91.5166C91.1803 91.7039 90.4923 91.8449 89.7972 91.9387L87.5939 92.1961H87.6042ZM94.8934 90.7547C94.7929 90.7917 94.6859 90.808 94.5788 90.8025C94.4718 90.797 94.367 90.7698 94.2708 90.7227C94.1746 90.6755 94.0889 90.6093 94.019 90.5281C93.949 90.4469 93.8963 90.3524 93.8639 90.2503C93.8267 90.0358 93.8661 89.8152 93.9753 89.6269C94.0845 89.4387 94.2564 89.2949 94.461 89.2207C97.8776 88.2908 101.043 86.6095 103.727 84.2995C104.703 83.5199 105.505 82.5446 106.081 81.4364C106.658 80.3281 106.995 79.1115 107.073 77.8648C107.073 73.623 107.073 70.2358 106.991 66.8383V56.4914H71.3168C71.1147 56.4914 70.921 56.4111 70.7781 56.2682C70.6352 56.1253 70.5549 55.9316 70.5549 55.7295C70.5549 55.5274 70.6352 55.3337 70.7781 55.1908C70.921 55.0479 71.1147 54.9676 71.3168 54.9676H107.701C107.912 54.9642 108.116 55.041 108.273 55.1824C108.43 55.3237 108.527 55.5193 108.545 55.7295V66.8383C108.545 70.8227 108.628 74.8173 108.628 77.8648C108.628 80.5828 107.279 83.2081 104.818 85.4937C101.945 87.9676 98.5536 89.7654 94.8934 90.7547ZM48.0799 54.9676C48.282 54.9676 48.4757 55.0479 48.6186 55.1908C48.7615 55.3337 48.8418 55.5274 48.8418 55.7295C48.8418 55.9316 48.7615 56.1253 48.6186 56.2682C48.4757 56.4111 48.282 56.4914 48.0799 56.4914H35.2826C35.0806 56.4914 34.8868 56.4111 34.7439 56.2682C34.601 56.1253 34.5207 55.9316 34.5207 55.7295C34.5207 55.5274 34.601 55.3337 34.7439 55.1908C34.8868 55.0479 35.0806 54.9676 35.2826 54.9676H48.0799Z" fill="#17262F"></path></g><defs><clipPath id="clip0_5678_16905"><rect width="108.628" height="100" fill="white"></rect></clipPath></defs></svg>