<svg xmlns="http://www.w3.org/2000/svg" width="96" height="100" viewBox="0 0 96 100" fill="none"><g clip-path="url(#clip0_5678_16935)"><path d="M71.2204 20.2598C71.05 20.1314 70.936 19.9419 70.9026 19.7312C70.8691 19.5205 70.9187 19.305 71.041 19.1301C71.1006 19.0395 71.1794 18.9631 71.2719 18.9063C71.3644 18.8496 71.4682 18.8139 71.5761 18.8018C71.6839 18.7897 71.7931 18.8015 71.8958 18.8364C71.9986 18.8712 72.0924 18.9283 72.1706 19.0035C73.109 19.7105 74.0111 20.4646 74.8733 21.2627L76.9848 23.3742L86.212 18.0955C86.3977 17.9843 86.6194 17.9497 86.8302 17.9989C87.041 18.0482 87.2244 18.1775 87.3416 18.3595L95.5131 32.6225C95.571 32.7075 95.6103 32.8037 95.6283 32.9049C95.6464 33.006 95.6429 33.1099 95.6179 33.2096C95.593 33.3093 95.5473 33.4026 95.4837 33.4834C95.4201 33.5642 95.3402 33.6306 95.2492 33.6783L85.7475 39.1576C86.2541 40.8044 86.6318 42.4881 86.8771 44.1935C87.1556 46.1239 87.3037 48.0709 87.3205 50.0212C87.2793 52.1768 87.103 54.3277 86.7926 56.4612C86.4628 58.3193 85.997 60.1507 85.3991 61.9405L94.7107 67.3248C94.8991 67.4332 95.037 67.6117 95.0943 67.8213C95.1517 68.0309 95.1239 68.2547 95.0169 68.4439L86.7821 82.612C86.6614 82.7899 86.4782 82.9159 86.2689 82.9648C86.0595 83.0137 85.8394 82.982 85.6524 82.8759L76.1507 77.3966C73.4943 80.2047 70.4213 82.5869 67.0397 84.4595C63.6902 86.3933 60.0502 87.773 56.2606 88.5453V99.2399C56.2606 99.3425 56.2403 99.4441 56.2011 99.5389C56.1618 99.6337 56.1043 99.7198 56.0317 99.7924C55.9592 99.8649 55.8731 99.9225 55.7783 99.9617C55.6835 100.001 55.5819 100.021 55.4793 100.021H39.0625C38.8553 100.021 38.6566 99.9389 38.5101 99.7924C38.3636 99.6459 38.2812 99.4471 38.2812 99.2399V88.2708C37.5075 88.1075 36.7457 87.8923 36.0008 87.6268C35.0176 87.3501 34.0575 86.9971 33.1292 86.571C32.9275 86.4905 32.7628 86.3379 32.6672 86.1428C32.5716 85.9477 32.5519 85.7241 32.6119 85.5153C32.6633 85.4129 32.7346 85.3217 32.8216 85.247C32.9085 85.1724 33.0094 85.1157 33.1184 85.0804C33.2274 85.045 33.3424 85.0317 33.4566 85.0411C33.5708 85.0505 33.682 85.0825 33.7838 85.1352C34.6495 85.4836 35.6102 85.832 36.4759 86.0959C37.3416 86.3599 38.3024 86.6133 39.2631 86.8772C39.4563 86.8958 39.6353 86.9865 39.7645 87.1314C39.8936 87.2762 39.9634 87.4644 39.9599 87.6584V98.4376H54.603V87.8801C54.6081 87.6782 54.6789 87.4834 54.8046 87.3253C54.9304 87.1672 55.1042 87.0543 55.2998 87.0039C59.1438 86.2669 62.844 84.9158 66.2584 83.0026C69.6448 81.1019 72.7238 78.6992 75.3906 75.8764C75.5059 75.7132 75.6758 75.5969 75.8695 75.5485C76.0632 75.5 76.2679 75.5227 76.4464 75.6124L85.7475 81.0073L93.1377 68.2222L84.0055 63.0068C83.8658 62.8937 83.7602 62.7439 83.7006 62.5743C83.6409 62.4047 83.6295 62.2218 83.6676 62.0461C84.3284 60.1212 84.8229 58.1433 85.1457 56.1339C85.4948 54.0939 85.6678 52.0276 85.663 49.9578C85.6534 48.0952 85.5087 46.2358 85.2301 44.3941C84.9522 42.5885 84.5393 40.8064 83.9949 39.0626C83.9363 38.8866 83.9388 38.696 84.0021 38.5216C84.0653 38.3473 84.1855 38.1994 84.3433 38.1019L93.655 32.7281L86.2648 19.9536L77.2171 25.1268C77.1387 25.1903 77.0478 25.2366 76.9504 25.2627C76.8529 25.2887 76.7511 25.294 76.6515 25.278C76.5518 25.2621 76.4567 25.2254 76.3723 25.1702C76.2878 25.115 76.2159 25.0427 76.1613 24.9578C75.3801 24.1766 74.5988 23.3109 73.7331 22.5191C72.8674 21.7273 72.0756 21.041 71.2099 20.2598H71.2204ZM30.9544 83.9211C31.0534 83.9603 31.1435 84.0192 31.2193 84.094C31.2951 84.1689 31.355 84.2583 31.3954 84.3569C31.4358 84.4555 31.4559 84.5612 31.4545 84.6677C31.4531 84.7742 31.4302 84.8794 31.3872 84.9769C31.2868 85.1769 31.1153 85.3322 30.9063 85.4122C30.6973 85.4923 30.466 85.4914 30.2576 85.4097C29.3074 84.8818 28.3467 84.354 27.481 83.8367C26.6153 83.3193 25.6546 82.6225 24.7783 82.0102C24.6822 81.9576 24.5984 81.8852 24.5324 81.7977C24.4665 81.7102 24.42 81.6096 24.3961 81.5027C24.3721 81.3958 24.3712 81.285 24.3934 81.1777C24.4156 81.0705 24.4604 80.9692 24.5249 80.8806C24.6696 80.7058 24.8744 80.5916 25.0992 80.5603C25.3239 80.529 25.5521 80.583 25.739 80.7116C26.5203 81.3134 27.386 81.8413 28.2622 82.4536C29.1385 83.066 30.0887 83.4038 30.9544 83.9317V83.9211ZM22.9519 78.5263C23.3002 78.8746 23.3847 79.392 23.0363 79.6559C22.9733 79.7436 22.8919 79.8164 22.7977 79.8693C22.7035 79.9221 22.5989 79.9537 22.4912 79.9617C22.3835 79.9698 22.2754 79.9541 22.1744 79.9159C22.0734 79.8776 21.982 79.8177 21.9067 79.7404L21.7377 79.5714C21.65 79.5084 21.5772 79.427 21.5244 79.3328C21.4715 79.2386 21.44 79.134 21.4319 79.0263C21.4239 78.9186 21.4395 78.8105 21.4778 78.7095C21.516 78.6085 21.5759 78.5171 21.6533 78.4418C21.7936 78.2835 21.9901 78.1862 22.201 78.1704C22.4119 78.1546 22.6207 78.2217 22.7829 78.3573L22.9519 78.5263ZM20.777 76.4148C20.8598 76.4927 20.9257 76.5868 20.9708 76.6912C21.0159 76.7956 21.0391 76.9081 21.0391 77.0218C21.0391 77.1355 21.0159 77.248 20.9708 77.3524C20.9257 77.4568 20.8598 77.5509 20.777 77.6289C20.6164 77.7565 20.4173 77.826 20.2122 77.826C20.0071 77.826 19.808 77.7565 19.6474 77.6289L18.6972 76.5731L9.50168 81.9152C9.4111 81.9735 9.30983 82.0132 9.20377 82.032C9.09771 82.0508 8.98897 82.0484 8.88386 82.0248C8.77875 82.0012 8.67938 81.957 8.59152 81.8947C8.50365 81.8324 8.42905 81.7532 8.37204 81.6618L0.0844533 67.4832C0.0329055 67.3862 0.00102504 67.28 -0.00935767 67.1706C-0.0197404 67.0613 -0.00842077 66.9509 0.0239512 66.846C0.0563231 66.741 0.10911 66.6435 0.17928 66.559C0.249451 66.4745 0.335623 66.4046 0.432849 66.3535L9.93454 60.8742C9.41893 59.2263 9.04108 57.5383 8.80489 55.8278C8.52601 53.8976 8.38138 51.9503 8.37204 50.0001C8.3683 47.8779 8.54134 45.7591 8.88935 43.6656C9.23775 41.7547 9.6706 39.9283 10.1879 38.1019L0.981835 32.8231C0.792721 32.7072 0.656814 32.5215 0.603477 32.3062C0.550141 32.0909 0.583657 31.8632 0.696784 31.6724L8.86824 17.3987C8.98361 17.2146 9.1671 17.0835 9.37869 17.0341C9.59029 16.9846 9.81286 17.0208 9.99788 17.1348L19.4996 22.6141C22.1835 19.8336 25.2602 17.4611 28.6318 15.5723C31.9937 13.7266 35.5918 12.3485 39.3264 11.476V0.78133C39.3448 0.569382 39.4415 0.371895 39.5977 0.227434C39.7539 0.0829725 39.9583 0.00191133 40.171 8.01042e-05H56.5245C56.6333 -0.00856698 56.7427 0.00508034 56.8461 0.040187C56.9495 0.0752936 57.0446 0.131121 57.1256 0.204253C57.2066 0.277386 57.2719 0.366285 57.3174 0.46551C57.3629 0.564736 57.3877 0.672201 57.3902 0.78133V11.7399L58.9527 12.1728C59.0611 12.2006 59.1623 12.2513 59.2494 12.3216C59.3365 12.3919 59.4075 12.4801 59.4575 12.5802C59.5076 12.6803 59.5356 12.79 59.5395 12.9019C59.5435 13.0137 59.5234 13.1251 59.4806 13.2285C59.4112 13.4177 59.2757 13.5754 59.0991 13.6725C58.9225 13.7695 58.7167 13.7993 58.5198 13.7564L57.4641 13.4925L56.4084 13.2285C56.2133 13.179 56.0393 13.0682 55.9119 12.9123C55.7846 12.7565 55.7106 12.5639 55.701 12.3628V1.6576H40.9206V12.215C40.918 12.3928 40.8581 12.5649 40.7496 12.7057C40.6411 12.8465 40.49 12.9484 40.3188 12.9963C36.4883 13.7811 32.7953 15.1295 29.3602 16.9975C25.9537 18.907 22.8714 21.3443 20.228 24.2188C20.0926 24.3551 19.9174 24.4448 19.7277 24.4752C19.538 24.5055 19.3435 24.4749 19.1723 24.3877L9.91342 19.0035L2.52322 31.778L11.5604 37.0567C11.7354 37.1392 11.8757 37.2807 11.9568 37.4564C12.0379 37.6321 12.0545 37.8307 12.0038 38.0174C11.3336 39.9337 10.8493 41.91 10.5574 43.919C10.2 45.9262 10.0234 47.9613 10.0296 50.0001C10.0396 51.8662 10.1843 53.7291 10.4624 55.5744C10.702 57.3969 11.0868 59.1974 11.6132 60.9587C11.6497 61.1576 11.6284 61.3629 11.5517 61.5501C11.4749 61.7372 11.346 61.8984 11.1803 62.0144L1.86866 67.2932L9.25886 80.0782L18.3066 74.8628C18.4864 74.7567 18.6975 74.7165 18.9037 74.7493C19.1099 74.782 19.2982 74.8857 19.4362 75.0423L20.0486 75.7285L20.777 76.4148ZM60.9586 14.5271C60.8544 14.4949 60.7586 14.44 60.6781 14.3664C60.5976 14.2928 60.5344 14.2023 60.493 14.1014C60.4517 14.0005 60.4331 13.8916 60.4388 13.7827C60.4444 13.6738 60.4741 13.5675 60.5258 13.4714C60.5595 13.3683 60.6153 13.2737 60.6892 13.1943C60.7631 13.1148 60.8533 13.0524 60.9537 13.0112C61.0541 12.9701 61.1622 12.9512 61.2706 12.9559C61.379 12.9606 61.4851 12.9888 61.5815 13.0385L62.6372 13.3869C62.8298 13.4954 62.9791 13.6671 63.0599 13.8729C63.1407 14.0786 63.148 14.306 63.0807 14.5165C62.9907 14.7076 62.8324 14.8581 62.6369 14.9382C62.4415 15.0183 62.2231 15.0223 62.0249 14.9494L60.9586 14.5271ZM64.4003 16.0051C64.3022 15.9647 64.2131 15.9052 64.1381 15.8301C64.0631 15.755 64.0038 15.6658 63.9635 15.5676C63.9233 15.4694 63.9029 15.3642 63.9036 15.2581C63.9042 15.152 63.926 15.0471 63.9675 14.9494C64.066 14.7477 64.2374 14.5908 64.447 14.5105C64.6567 14.4301 64.889 14.4323 65.0971 14.5165C65.7939 14.8649 66.4907 15.2978 67.2086 15.6462L69.3201 16.9448C69.5025 17.0618 69.6314 17.2461 69.6788 17.4575C69.7262 17.669 69.6884 17.8907 69.5735 18.0744C69.4408 18.237 69.258 18.351 69.0536 18.3988C68.8493 18.4465 68.6348 18.4253 68.4438 18.3383C67.747 17.9055 67.1453 17.4726 66.4485 17.1242C65.7951 16.6998 65.1104 16.3257 64.4003 16.0051Z" fill="#17262F"></path><path d="M31.2183 44.7003C31.1893 44.8077 31.1377 44.9078 31.0669 44.9937C30.9961 45.0796 30.9077 45.1494 30.8078 45.1984C30.7078 45.2474 30.5985 45.2744 30.4872 45.2777C30.376 45.281 30.2653 45.2605 30.1626 45.2176C29.9604 45.137 29.7948 44.985 29.6975 44.7903C29.6001 44.5956 29.5778 44.3719 29.6347 44.1618C30.9301 40.3388 33.3609 37.002 36.6026 34.5968C39.0307 32.8566 41.8348 31.7134 44.7875 31.2598C47.7401 30.8063 50.7581 31.0553 53.5966 31.9865C56.435 32.9177 59.0139 34.505 61.124 36.6195C63.2341 38.734 64.816 41.3162 65.7414 44.1566C66.6667 46.997 66.9093 50.0155 66.4496 52.9672C65.99 55.9189 64.8409 58.7206 63.0957 61.1451C61.3504 63.5696 59.0582 65.5484 56.405 66.9211C53.7518 68.2938 50.8123 69.0217 47.8251 69.0457C44.2094 69.0423 40.6696 68.0074 37.6214 66.0626C34.5733 64.1177 32.1432 61.3436 30.6165 58.066C30.5506 57.9788 30.5068 57.8769 30.4889 57.769C30.471 57.6611 30.4796 57.5506 30.5139 57.4467C30.5481 57.3429 30.6071 57.2489 30.6856 57.1729C30.7642 57.0969 30.86 57.0411 30.9649 57.0102C31.1606 56.9108 31.387 56.8904 31.5973 56.9533C31.8076 57.0162 31.9856 57.1575 32.0946 57.3481C33.4918 60.344 35.7132 62.8802 38.4989 64.66C41.2846 66.4399 44.5194 67.3898 47.8251 67.3987C50.1106 67.4029 52.3745 66.9557 54.4867 66.0826C56.5989 65.2096 58.5178 63.9281 60.1334 62.3115C61.749 60.6949 63.0295 58.7751 63.9012 56.6624C64.7729 54.5497 65.2188 52.2856 65.2132 50.0001C65.1828 45.3979 63.3411 40.9928 60.0868 37.7385C56.8324 34.4842 52.4274 32.6424 47.8251 32.612C44.1305 32.5956 40.5272 33.7594 37.5401 35.9337C34.5529 38.1081 32.3381 41.1794 31.2183 44.7003ZM31.1338 54.8987C31.172 55.1186 31.1316 55.3449 31.0196 55.5379C30.9076 55.731 30.7313 55.8784 30.5215 55.9545C30.4189 55.9794 30.3123 55.9836 30.208 55.9667C30.1037 55.9498 30.0039 55.9122 29.9143 55.8561C29.8248 55.8 29.7474 55.7266 29.6867 55.6401C29.626 55.5537 29.5832 55.456 29.5608 55.3527C29.3074 54.4764 29.1279 53.6107 28.959 52.745C28.8519 51.8479 28.792 50.9457 28.7795 50.0423C28.7795 49.8351 28.8619 49.6364 29.0084 49.4899C29.1549 49.3434 29.3536 49.2611 29.5608 49.2611C29.6704 49.2509 29.781 49.2634 29.8856 49.2978C29.9902 49.3322 30.0866 49.3878 30.1688 49.4611C30.251 49.5344 30.3173 49.6238 30.3634 49.7238C30.4096 49.8238 30.4346 49.9322 30.4371 50.0423C30.4123 50.8453 30.4725 51.6486 30.6165 52.4389C30.7025 53.2652 30.8795 54.0796 31.1444 54.8671L31.1338 54.8987ZM30.5215 47.9519C30.5176 48.0578 30.4906 48.1616 30.4425 48.256C30.3943 48.3504 30.3261 48.4332 30.2427 48.4985C30.1593 48.5638 30.0626 48.6102 29.9594 48.6343C29.8562 48.6584 29.749 48.6598 29.6453 48.6382C29.5422 48.6292 29.4421 48.5993 29.3511 48.5502C29.26 48.5012 29.1799 48.4342 29.1157 48.3531C29.0515 48.2721 29.0044 48.1788 28.9775 48.0789C28.9505 47.9791 28.9443 47.8748 28.959 47.7725V47.1601C29.0145 46.954 29.1392 46.7733 29.3122 46.6483C29.4853 46.5233 29.6961 46.4617 29.9092 46.4739C30.1262 46.5103 30.3205 46.63 30.4506 46.8074C30.5808 46.9849 30.6365 47.2061 30.606 47.4241L30.5215 47.9519Z" fill="#17262F"></path><path d="M47.8252 19.3941H47.7407C42.5944 19.3896 37.5335 20.7093 33.0448 23.2264C32.9383 23.2653 32.8415 23.3266 32.7608 23.4062C32.6801 23.4858 32.6174 23.5817 32.577 23.6876C32.5366 23.7935 32.5194 23.9068 32.5265 24.0199C32.5336 24.133 32.565 24.2433 32.6184 24.3432C32.6718 24.4432 32.746 24.5305 32.8361 24.5993C32.9261 24.6681 33.0299 24.7167 33.1404 24.742C33.2509 24.7672 33.3655 24.7684 33.4765 24.7456C33.5875 24.7227 33.6923 24.6763 33.7838 24.6094C38.2796 22.1517 43.3447 20.9248 48.4668 21.0527C53.5889 21.1806 58.5864 22.6588 62.954 25.3379C63.9147 25.9502 64.6959 24.4722 63.8302 23.9443C59.0151 20.9847 53.4771 19.4102 47.8252 19.3941ZM27.4493 29.3919C28.2306 28.6107 27.0165 27.481 26.2247 28.2623C22.2277 32.2358 19.4007 37.2323 18.0532 42.7049C17.7893 43.824 19.4468 44.0879 19.6157 43.1377C20.9077 37.9265 23.6193 33.1756 27.4493 29.4131V29.3919ZM18.8661 51.0452C18.8556 50.9142 18.8161 50.7871 18.7505 50.6733C18.6848 50.5594 18.5947 50.4615 18.4866 50.3867C18.3785 50.3119 18.2551 50.2621 18.1254 50.2409C17.9956 50.2197 17.8628 50.2276 17.7365 50.264C17.592 50.3408 17.469 50.4525 17.3786 50.5889C17.2883 50.7254 17.2335 50.8822 17.2192 51.0452C17.3677 56.6938 19.1137 62.1846 22.2551 66.8814C22.7829 67.7471 24.261 66.9658 23.6487 66.0157C20.6988 61.5686 19.043 56.3893 18.8661 51.0558V51.0452ZM28.864 72.0017C28.2623 71.3049 26.9531 72.3501 27.8083 73.2264C32.1171 76.9124 37.3595 79.3381 42.9582 80.2365C43.1716 80.2147 43.3791 80.1539 43.5705 80.0571C43.6894 79.955 43.778 79.8221 43.8265 79.6731C43.875 79.5241 43.8817 79.3646 43.8457 79.2121C43.8098 79.0596 43.7326 78.9198 43.6226 78.8082C43.5127 78.6965 43.3741 78.6173 43.2221 78.579C37.9224 77.7284 32.9568 75.4428 28.864 71.9701V72.0017ZM51.1297 78.7902C51.0215 78.8013 50.9166 78.8335 50.8209 78.8852C50.7253 78.9368 50.6407 79.0068 50.5721 79.0911C50.4335 79.2613 50.3682 79.4797 50.3906 79.6981C50.413 79.9165 50.5213 80.1171 50.6915 80.2557C50.8618 80.3942 51.0802 80.4595 51.2986 80.4371C54.0143 80.1237 56.6767 79.4528 59.2166 78.4418C61.8924 77.3345 64.4066 75.8714 66.6913 74.0921C67.5676 73.4798 66.6068 72.1812 65.6356 72.783C61.496 76.0728 56.5264 78.152 51.2775 78.7902H51.1297ZM71.1888 67.177C70.5764 67.9582 71.8856 68.919 72.4873 68.1272C75.8778 63.5718 77.8994 58.1444 78.315 52.481C78.3262 52.2626 78.2502 52.0487 78.1037 51.8864C77.9572 51.724 77.7522 51.6265 77.5338 51.6153C77.3154 51.6041 77.1015 51.6802 76.9391 51.8267C76.7768 51.9732 76.6793 52.1782 76.6681 52.3966C76.2673 57.7405 74.3682 62.8632 71.1888 67.177ZM76.2352 44.4785C76.2931 44.6733 76.4227 44.8388 76.5978 44.9418C76.773 45.0447 76.9807 45.0774 77.179 45.0332C77.3773 44.989 77.5514 44.8712 77.6663 44.7035C77.7811 44.5359 77.8281 44.331 77.7977 44.1301C76.7231 38.5791 74.1323 33.434 70.3125 29.2653C70.157 29.1307 69.9573 29.0583 69.7517 29.062C69.5461 29.0657 69.3491 29.1452 69.1986 29.2853C69.048 29.4254 68.9545 29.6161 68.936 29.8209C68.9175 30.0257 68.9754 30.2301 69.0984 30.3949C72.7331 34.3397 75.2035 39.2147 76.2352 44.4785Z" fill="#17262F"></path><path d="M32.7808 20.3549C32.5848 20.4585 32.3557 20.4799 32.1438 20.4146C31.932 20.3493 31.7548 20.2025 31.6512 20.0065C31.5476 19.8105 31.5261 19.5813 31.5914 19.3695C31.6568 19.1576 31.8036 18.9804 31.9996 18.8768C33.8442 17.8345 35.7639 16.9311 37.7428 16.1741C39.4746 15.5637 41.2365 15.0422 43.0215 14.6116V3.91693C43.0479 3.70331 43.1538 3.50749 43.3182 3.36855C43.4826 3.22961 43.6933 3.15776 43.9084 3.16735C44.0113 3.16593 44.1136 3.18517 44.209 3.22393C44.3044 3.26269 44.3911 3.32018 44.4639 3.39301C44.5368 3.46584 44.5943 3.55253 44.633 3.64796C44.6718 3.74339 44.691 3.84562 44.6896 3.9486V15.3084C44.6871 15.4861 44.6271 15.6583 44.5186 15.7991C44.4101 15.9399 44.259 16.0418 44.0878 16.0897C42.1108 16.5083 40.1639 17.0585 38.2601 17.7366C36.3544 18.4327 34.5196 19.3094 32.7808 20.3549Z" fill="#17262F"></path></g><defs><clipPath id="clip0_5678_16935"><rect width="95.6081" height="100" fill="white"></rect></clipPath></defs></svg>