<svg xmlns="http://www.w3.org/2000/svg" width="95" height="73" viewBox="0 0 95 73" fill="none"><g clip-path="url(#clip0_5678_33157)"><path d="M85.4623 35.9589V32.5342C86.4727 32.2907 87.3731 31.7174 88.0212 30.9049C88.6693 30.0924 89.0282 29.0872 89.0411 28.0479V23.536C89.0395 22.4609 88.6674 21.4192 87.9875 20.5864C87.3075 19.7536 86.3613 19.1806 85.3082 18.964C84.5291 13.1935 79.7003 9.80308 72.0462 9.80308H58.8442C58.4144 7.07443 57.0257 4.58843 54.9276 2.79165C52.8296 0.994876 50.1596 0.00505906 47.3973 0L46.6866 0C43.9258 0.00709309 41.2579 0.99783 39.1616 2.79443C37.0653 4.59103 35.6779 7.07588 35.2483 9.80308H22.012C14.3065 9.80308 9.41782 13.2277 8.71576 19.2209C7.87213 19.5767 7.15105 20.1717 6.64141 20.9323C6.13177 21.693 5.85583 22.5861 5.84761 23.5017V28.0137C5.8487 29.0824 6.2153 30.1186 6.88653 30.9503C7.55776 31.7819 8.49325 32.359 9.53768 32.5856V35.9589C6.98561 36.0193 4.55858 37.0763 2.77603 38.9037C0.993484 40.731 -0.00294556 43.1835 6.54092e-06 45.7363V45.899C-0.000607695 48.4486 0.997369 50.8971 2.78013 52.7199C4.56289 54.5427 6.98864 55.5947 9.53768 55.6507V60.3938C9.54075 60.5525 9.56084 60.7104 9.59761 60.8647C10.5908 64.7346 14.5976 72.0719 22.7055 72.0719H72.2945C80.3938 72.0719 84.4093 64.7346 85.4024 60.8647C85.4392 60.7104 85.4593 60.5525 85.4623 60.3938V55.6507C88.0174 55.6036 90.4518 54.5554 92.2419 52.7317C94.032 50.908 95.0347 48.4544 95.0343 45.899V45.7363C95.0392 43.1771 94.0388 40.7183 92.2485 38.8895C90.4581 37.0607 88.0211 36.0083 85.4623 35.9589ZM10.5223 28.9212C10.2952 28.9212 10.0774 28.831 9.91687 28.6705C9.75631 28.5099 9.6661 28.2921 9.6661 28.0651V23.536C9.6661 23.3089 9.75631 23.0911 9.91687 22.9306C10.0774 22.77 10.2952 22.6798 10.5223 22.6798H84.3921C84.6192 22.6798 84.837 22.77 84.9975 22.9306C85.1581 23.0911 85.2483 23.3089 85.2483 23.536V28.0479C85.2483 28.275 85.1581 28.4928 84.9975 28.6533C84.837 28.8139 84.6192 28.9041 84.3921 28.9041H10.5223V28.9212ZM46.6866 3.80137H47.3973C49.1514 3.80181 50.8542 4.39354 52.2306 5.48098C53.607 6.56842 54.5766 8.08809 54.9829 9.79452H39.0925C39.5019 8.08813 40.4735 6.56912 41.8511 5.48201C43.2286 4.39489 44.9318 3.80292 46.6866 3.80137ZM22.012 13.6045H72.0719C75.274 13.6045 80.411 14.3322 81.4897 18.8699H12.6113C13.6986 14.3322 18.8356 13.6045 22.012 13.6045ZM3.80138 45.899V45.7363C3.81314 44.1992 4.41504 42.7254 5.48266 41.6196C6.55027 40.5137 8.00197 39.8604 9.53768 39.7945V51.8408C8.00197 51.7749 6.55027 51.1215 5.48266 50.0157C4.41504 48.9098 3.81314 47.436 3.80138 45.899ZM81.6524 60.1113C81.2586 61.4384 78.8956 68.2534 72.2945 68.2534H22.7055C16.1045 68.2534 13.7414 61.4041 13.339 60.1113V32.714H81.6524V60.1113ZM91.1986 45.899C91.1869 47.436 90.585 48.9098 89.5174 50.0157C88.4497 51.1215 86.998 51.7749 85.4623 51.8408V39.7945C86.998 39.8604 88.4497 40.5137 89.5174 41.6196C90.585 42.7254 91.1869 44.1992 91.1986 45.7363V45.899Z" fill="#17262F"></path></g><defs><clipPath id="clip0_5678_33157"><rect width="95" height="72.0548" fill="white"></rect></clipPath></defs></svg>