<svg xmlns="http://www.w3.org/2000/svg" width="78" height="95" viewBox="0 0 78 95" fill="none"><g clip-path="url(#clip0_5678_33234)"><path d="M77.1024 40.5048C76.8193 40.3568 76.4969 40.3012 76.1806 40.3458C75.8643 40.3905 75.5699 40.5331 75.3389 40.7537C73.1535 42.8284 69.9032 43.8104 66.1411 44.9653C61.9917 46.2378 57.3375 47.6763 52.8423 50.892C45.491 56.1479 45.7607 64.2392 46.2172 67.4895C44.6533 68.0382 43.0602 68.4999 41.4454 68.8727V41.6528C44.1146 41.4989 46.659 40.4709 48.686 38.7274C52.1439 35.6915 54.0249 30.6431 54.2669 23.7689C55.0164 23.6476 55.6984 23.2639 56.1912 22.6862C56.6839 22.1086 56.9554 21.3747 56.9571 20.6154V15.0829C56.9571 14.2337 56.6198 13.4193 56.0193 12.8188C55.4188 12.2183 54.6044 11.881 53.7552 11.881H48.6307V1.54902C48.6044 1.15516 48.4294 0.786022 48.1411 0.516362C47.8529 0.246702 47.4729 0.0966797 47.0782 0.0966797C46.6834 0.0966797 46.3034 0.246702 46.0152 0.516362C45.7269 0.786022 45.5519 1.15516 45.5256 1.54902V11.8256H34.26V1.54902C34.2337 1.15516 34.0587 0.786022 33.7705 0.516362C33.4822 0.246702 33.1022 0.0966797 32.7075 0.0966797C32.3127 0.0966797 31.9328 0.246702 31.6445 0.516362C31.3562 0.786022 31.1812 1.15516 31.1549 1.54902V11.8256H26.0304C25.1806 11.8256 24.3655 12.1628 23.7639 12.763C23.1623 13.3633 22.8234 14.1777 22.8216 15.0276V20.5601C22.825 21.32 23.0979 22.054 23.5918 22.6315C24.0857 23.209 24.7685 23.5924 25.5187 23.7136C25.7538 30.5877 27.5934 35.6362 31.0996 38.6721C33.122 40.4281 35.6669 41.4684 38.3403 41.632V69.177H38.2504C36.0298 68.8169 33.8469 68.2544 31.7289 67.4965C32.1923 64.2392 32.462 56.1479 25.1107 50.899C20.6086 47.6763 15.906 46.2378 11.8119 44.9515C8.0498 43.7966 4.79945 42.7938 2.61411 40.7399C2.38177 40.5128 2.08391 40.3645 1.76267 40.316C1.44143 40.2675 1.11308 40.3212 0.82404 40.4696C0.535004 40.6179 0.299921 40.8534 0.152043 41.1426C0.00416535 41.4319 -0.0490226 41.7604 2.47546e-06 42.0815C0.325037 44.5712 0.41494 47.2475 0.511759 50.0829C0.899034 61.0165 1.32089 73.4093 16.5422 74.6887C17.6349 74.7786 18.6722 74.8132 19.6542 74.8132C22.3487 74.8391 25.0367 74.5466 27.6625 73.9418C28.0605 73.8373 28.4007 73.5789 28.6082 73.2235C28.8157 72.8682 28.8736 72.445 28.769 72.047C28.6645 71.6489 28.4061 71.3088 28.0507 71.1013C27.6954 70.8937 27.2722 70.8359 26.8741 70.9404C23.5624 71.6773 20.1586 71.9104 16.7773 71.632C4.32919 70.5808 3.96957 60.567 3.63762 50.0138C3.58921 48.3955 3.52697 46.7427 3.42324 45.1313C5.81968 46.3223 8.32855 47.2721 10.9129 47.9667C14.8133 49.17 19.2116 50.5324 23.3195 53.4508C28.8313 57.3996 29.0456 63.3817 28.7483 66.39C22.1143 63.6471 16.218 59.383 11.5353 53.9418C11.4031 53.787 11.2418 53.6597 11.0605 53.5672C10.8791 53.4747 10.6813 53.4188 10.4784 53.4028C10.2755 53.3867 10.0714 53.4108 9.87776 53.4736C9.68413 53.5365 9.50478 53.6368 9.34993 53.7689C9.19509 53.9011 9.06779 54.0624 8.9753 54.2438C8.88281 54.4251 8.82694 54.6229 8.81089 54.8258C8.79484 55.0287 8.81891 55.2328 8.88173 55.4265C8.94456 55.6201 9.0449 55.7994 9.17704 55.9543C16.5541 64.5611 26.7004 70.3276 37.87 72.2613H38.0636C38.157 72.2525 38.2495 72.2363 38.3403 72.2129V93.4439C38.3666 93.8378 38.5416 94.2069 38.8298 94.4766C39.1181 94.7462 39.4981 94.8962 39.8928 94.8962C40.2876 94.8962 40.6675 94.7462 40.9558 94.4766C41.2441 94.2069 41.4191 93.8378 41.4454 93.4439V72.0055C52.0745 69.8063 61.6812 64.1619 68.7759 55.9474C69.0419 55.631 69.1713 55.2219 69.1356 54.8101C69.0999 54.3983 68.9022 54.0176 68.5858 53.7516C68.2694 53.4857 67.8603 53.3563 67.4485 53.392C67.0367 53.4277 66.656 53.6254 66.3901 53.9418C61.717 59.3814 55.83 63.6456 49.2047 66.39C48.9073 63.3817 49.101 57.3996 54.6335 53.4162C58.7344 50.484 63.1535 49.1355 67.0816 47.9321C69.6633 47.2363 72.1698 46.2865 74.5643 45.0967C74.4606 46.7081 74.4053 48.3609 74.3499 49.9792C73.9903 60.5601 73.6584 70.5463 61.2102 71.5974C57.8267 71.8761 54.4205 71.643 51.1065 70.9059C50.7085 70.8013 50.2853 70.8592 49.9299 71.0667C49.5745 71.2742 49.3162 71.6144 49.2116 72.0124C49.1071 72.4104 49.1649 72.8336 49.3724 73.189C49.5799 73.5443 49.9201 73.8027 50.3181 73.9073C52.9506 74.5143 55.6458 74.8068 58.3472 74.7786C59.3292 74.7786 60.3665 74.744 61.4592 74.6541C76.6736 73.3747 77.0954 60.9819 77.4689 50.0483C77.5657 47.2129 77.6625 44.5158 77.9876 42.0469C78.0172 41.73 77.9481 41.4116 77.7896 41.1354C77.6311 40.8593 77.391 40.639 77.1024 40.5048ZM25.9267 15.0276C25.9285 15.0013 25.9402 14.9766 25.9594 14.9587C25.9787 14.9407 26.0041 14.9307 26.0304 14.9308H53.7552C53.7816 14.9307 53.8069 14.9407 53.8262 14.9587C53.8455 14.9766 53.8572 15.0013 53.8589 15.0276V20.5601C53.8589 20.5876 53.848 20.614 53.8285 20.6334C53.8091 20.6529 53.7827 20.6638 53.7552 20.6638H26.0304C26.0029 20.6638 25.9765 20.6529 25.9571 20.6334C25.9376 20.614 25.9267 20.5876 25.9267 20.5601V15.0276ZM28.6169 23.7828H51.1757C50.9544 29.6541 49.4606 33.8796 46.7012 36.3208C45.8072 37.1135 44.7634 37.7189 43.6314 38.1014C42.4994 38.4839 41.3023 38.6356 40.1107 38.5476H39.6957C38.5144 38.6337 37.3277 38.4843 36.2047 38.1079C35.0816 37.7316 34.0445 37.1359 33.1535 36.3554C30.3527 33.9211 28.8451 29.6887 28.6169 23.7828Z" fill="#17262F"></path></g><defs><clipPath id="clip0_5678_33234"><rect width="77.953" height="95" fill="white"></rect></clipPath></defs></svg>