<svg xmlns="http://www.w3.org/2000/svg" width="97" height="95" viewBox="0 0 97 95" fill="none"><g clip-path="url(#clip0_5678_6523)"><path d="M59.7505 47.7681L59.7505 47.7679H59.7408H36.3735V47.7676L36.3641 47.7681C35.1658 47.8246 33.9884 47.44 33.0546 46.6869C32.122 45.9348 31.497 44.8674 31.2976 43.6862L29.2821 26.7801L29.2611 26.6038H29.0835H21.9381C21.5399 26.6038 21.1581 26.4456 20.8765 26.1641C20.595 25.8826 20.4368 25.5007 20.4368 25.1025V1.70129C20.4368 1.30312 20.595 0.921264 20.8765 0.639718C21.1581 0.358171 21.5399 0.2 21.9381 0.2H74.1847C74.5829 0.2 74.9647 0.358171 75.2463 0.639718C75.5278 0.921264 75.686 1.30312 75.686 1.70129V25.1025C75.686 25.5007 75.5278 25.8826 75.2463 26.1641C74.9647 26.4456 74.5829 26.6038 74.1847 26.6038H67.0308H66.8531L66.8322 26.7802L64.8252 43.6862C64.6256 44.8689 63.9995 45.9375 63.0652 46.6897C62.1296 47.443 60.9502 47.8267 59.7505 47.7681ZM23.4394 23.4012V23.6012H23.6394L30.6232 23.6012L30.6246 23.6012C30.9935 23.5986 31.3504 23.7318 31.6273 23.9754C31.9041 24.2191 32.0816 24.556 32.1259 24.9221C32.1259 24.9222 32.1259 24.9223 32.1259 24.9224L34.3203 43.3281C34.3204 43.3285 34.3204 43.3288 34.3204 43.3291C34.3675 43.7546 34.6492 44.1156 35.0256 44.3643C35.4044 44.6145 35.8982 44.7653 36.4161 44.7653H59.7312C60.1874 44.8078 60.6446 44.6934 61.0271 44.4407C61.4123 44.1861 61.6983 43.8068 61.837 43.3664L61.8426 43.3483L61.8448 43.3295L63.9969 24.9224C63.9969 24.9223 63.9969 24.9222 63.9969 24.9221C64.0412 24.556 64.2187 24.219 64.4955 23.9754C64.7724 23.7318 65.1293 23.5986 65.4982 23.6012H65.4996H72.4664H72.6664V23.4012V3.40258V3.20258H72.4664H23.6394H23.4394V3.40258V23.4012Z" fill="#17262F" stroke="white" stroke-width="0.4"></path><path d="M52.4592 62.8753H43.6551C41.0059 62.8753 38.8958 60.9464 38.8958 58.618V46.4666H41.8984V58.618C41.8984 58.9535 42.1078 59.2706 42.414 59.4949C42.7249 59.7227 43.1561 59.8728 43.6551 59.8728H52.4592C52.9581 59.8728 53.3911 59.7227 53.7039 59.4953C54.0118 59.2716 54.2244 58.9545 54.2244 58.618V46.4666H57.227V58.618C57.227 60.946 55.1088 62.8753 52.4592 62.8753Z" fill="#17262F" stroke="white" stroke-width="0.4"></path><path d="M54.5348 87.0976C54.5337 87.4735 54.408 87.8385 54.1776 88.1354M54.5348 87.0976V61.3741C54.5348 60.9229 54.3556 60.4902 54.0365 60.1711C53.7175 59.8521 53.2848 59.6729 52.8335 59.6729H43.2893C42.8381 59.6729 42.4054 59.8521 42.0863 60.1711C41.7673 60.4902 41.588 60.9229 41.588 61.3741V87.0976C41.5868 87.4725 41.7094 87.8374 41.9368 88.1354M54.5348 87.0976H54.3348V87.0973M54.5348 87.0976L54.3348 87.097L54.3348 87.0973M54.1776 88.1354H41.9368M54.1776 88.1354L49.4054 94.3366C49.247 94.5425 49.0434 94.7094 48.8104 94.8244C48.5775 94.9394 48.3212 94.9995 48.0614 95.0001C47.8002 95.0008 47.5423 94.9413 47.3077 94.8262C47.0732 94.7112 46.8683 94.5436 46.7089 94.3366M54.1776 88.1354L46.7089 94.3366M41.9368 88.1354L42.0958 88.0141C42.0957 88.014 42.0957 88.014 42.0957 88.014L42.0953 88.0134L41.9368 88.1354ZM54.3348 87.0973C54.3337 87.4289 54.2229 87.7508 54.0196 88.0128L54.0191 88.0134L49.2469 94.2146C49.1071 94.3963 48.9275 94.5435 48.7219 94.645C48.5163 94.7465 48.2902 94.7996 48.0609 94.8001C47.8304 94.8007 47.6028 94.7482 47.3958 94.6467C47.1888 94.5451 47.008 94.3973 46.8674 94.2146L46.7089 94.3366M54.3348 87.0973L46.8674 94.2146L46.7089 94.3366M44.7906 86.4937V86.5617L44.8321 86.6157L47.9029 90.6052L48.0614 90.8111L48.2199 90.6052L51.2907 86.6157L51.3323 86.5617V86.4937V63.0754V62.8754H51.1323H44.9906H44.7906V63.0754V86.4937Z" fill="#17262F" stroke="white" stroke-width="0.4"></path><path d="M3.20258 14.3673V14.5673H3.40258H20.2368H20.4368V14.3673V8.88061V8.68061H20.2368H3.40258H3.20258V8.88061V14.3673ZM21.9381 17.5698H1.70129C1.30312 17.5698 0.921264 17.4117 0.639717 17.1301C0.358171 16.8486 0.2 16.4667 0.2 16.0686V7.17932C0.2 6.78115 0.358171 6.39929 0.639717 6.11774C0.921264 5.8362 1.30312 5.67803 1.70129 5.67803H21.9381C22.3363 5.67803 22.7182 5.8362 22.9997 6.11774C23.2812 6.39929 23.4394 6.78115 23.4394 7.17932V16.0686C23.4394 16.4667 23.2812 16.8486 22.9997 17.1301C22.7182 17.4117 22.3363 17.5698 21.9381 17.5698Z" fill="#17262F" stroke="white" stroke-width="0.4"></path><path d="M75.686 14.3673V14.5673H75.886H92.7202H92.9202V14.3673V8.88061V8.68061H92.7202H75.886H75.686V8.88061V14.3673ZM94.4215 17.5698H74.1847C73.7865 17.5698 73.4047 17.4117 73.1231 17.1301C72.8416 16.8486 72.6834 16.4667 72.6834 16.0686V7.17932C72.6834 6.78115 72.8416 6.39929 73.1231 6.11774C73.4047 5.8362 73.7865 5.67803 74.1847 5.67803H94.4215C94.8197 5.67803 95.2016 5.8362 95.4831 6.11774C95.7646 6.39929 95.9228 6.78115 95.9228 7.17932V16.0686C95.9228 16.4667 95.7646 16.8486 95.4831 17.1301C95.2016 17.4117 94.8197 17.5698 94.4215 17.5698Z" fill="#17262F" stroke="white" stroke-width="0.4"></path><path d="M30.7892 26.6039V23.6014H53.6118V26.6039H30.7892Z" fill="#17262F" stroke="white" stroke-width="0.4"></path><path d="M32.0537 85.6739L22.9111 76.5312L25.0343 74.4081L34.1769 83.5507L32.0537 85.6739Z" fill="#17262F" stroke="white" stroke-width="0.4"></path><path d="M24.8479 92.6689L18.3445 89.9871L19.4892 87.2112L25.9926 89.8931L24.8479 92.6689Z" fill="#17262F" stroke="white" stroke-width="0.4"></path><path d="M64.5305 85.6793L62.4074 83.5562L71.55 74.4135L73.6731 76.5367L64.5305 85.6793Z" fill="#17262F" stroke="white" stroke-width="0.4"></path><path d="M71.7343 92.6635L70.5891 89.8879L77.092 87.2049L78.2372 89.9806L71.7343 92.6635Z" fill="#17262F" stroke="white" stroke-width="0.4"></path></g><defs><clipPath id="clip0_5678_6523"><rect width="96.1228" height="95" fill="white"></rect></clipPath></defs></svg>