<svg xmlns="http://www.w3.org/2000/svg" width="77" height="90" viewBox="0 0 77 90" fill="none"><g clip-path="url(#clip0_5678_6436)"><path d="M58.2121 58.8842L56.1075 56.8527C59.4167 53.4217 61.6432 49.0929 62.5098 44.4055C63.3763 39.7181 62.8445 34.8794 60.9806 30.4921C59.1167 26.1048 56.0031 22.3628 52.0278 19.7325C48.0524 17.1021 43.3909 15.6996 38.6241 15.6996C33.8573 15.6996 29.1959 17.1021 25.2205 19.7325C21.2451 22.3628 18.1315 26.1048 16.2676 30.4921C14.4038 34.8794 13.8719 39.7181 14.7385 44.4055C15.605 49.0929 17.8316 53.4217 21.1408 56.8527L19.0362 58.8842C15.3315 55.0407 12.8393 50.1923 11.8702 44.9427C10.901 39.6932 11.4976 34.2745 13.5857 29.3616C15.6738 24.4486 19.1612 20.2586 23.6133 17.3132C28.0655 14.3678 33.2858 12.7974 38.6241 12.7974C43.9624 12.7974 49.1827 14.3678 53.6349 17.3132C58.0871 20.2586 61.5744 24.4486 63.6625 29.3616C65.7506 34.2745 66.3472 39.6932 65.3781 44.9427C64.4089 50.1923 61.9168 55.0407 58.2121 58.8842Z" fill="#17262F"></path><path d="M29.6833 74.6174H26.7603C26.7603 67.9017 19.0581 58.9134 18.985 58.8257L21.1773 56.9111C21.5427 57.313 29.6833 66.8275 29.6833 74.6174Z" fill="#17262F"></path><path d="M50.4806 74.6174H47.5576C47.5576 66.8275 55.7056 57.313 56.049 56.9111L58.2413 58.8257C58.1828 58.9134 50.4806 67.9163 50.4806 74.6174Z" fill="#17262F"></path><path d="M44.8465 71.709H32.4017V74.632H44.8465V71.709Z" fill="#17262F"></path><path d="M45.1169 82.378H32.1533C31.9604 82.3782 31.7695 82.3402 31.5914 82.2662C31.4133 82.1922 31.2516 82.0837 31.1156 81.9469L27.2134 78.0373L29.2303 75.9985L32.716 79.4769H44.5104L47.9888 75.9985L50.0568 78.0593L46.1473 81.9688C45.8709 82.2353 45.5008 82.3823 45.1169 82.378Z" fill="#17262F"></path><path d="M46.308 90.0001H43.385V87.8078H33.6148V90.0001H30.6918V86.3463C30.6918 85.9587 30.8458 85.5869 31.1198 85.3128C31.3939 85.0387 31.7657 84.8848 32.1533 84.8848H44.8685C45.2561 84.8848 45.6278 85.0387 45.9019 85.3128C46.176 85.5869 46.33 85.9587 46.33 86.3463L46.308 90.0001Z" fill="#17262F"></path><path d="M40.082 0H37.159V7.95794H40.082V0Z" fill="#17262F"></path><path d="M14.1493 9.53223L12.0824 11.5991L17.7095 17.2262L19.7764 15.1593L14.1493 9.53223Z" fill="#17262F"></path><path d="M7.95794 34.6016H0V37.5246H7.95794V34.6016Z" fill="#17262F"></path><path d="M14.9044 57.7176L9.27728 63.3447L11.3442 65.4116L16.9713 59.7845L14.9044 57.7176Z" fill="#17262F"></path><path d="M62.343 57.7129L60.2761 59.7798L65.9032 65.4069L67.9701 63.34L62.343 57.7129Z" fill="#17262F"></path><path d="M76.6491 34.6016H68.6912V37.5246H76.6491V34.6016Z" fill="#17262F"></path><path d="M63.0905 9.52621L57.4634 15.1533L59.5303 17.2202L65.1574 11.5931L63.0905 9.52621Z" fill="#17262F"></path><path d="M40.0747 73.5431C39.7677 72.3593 38.8689 68.3548 40.3304 66.4548C41.2366 65.2856 44.715 55.8661 44.715 47.6816H47.638C47.638 56.1657 44.1084 66.3744 42.6762 68.2378C42.3254 68.6982 42.4496 70.9562 42.9319 72.7978L40.0747 73.5431Z" fill="#17262F"></path><path d="M36.7717 73.5431L33.9437 72.8124C34.4333 70.927 34.5575 68.7128 34.1994 68.2451C32.7671 66.3744 29.2303 56.1657 29.2303 47.6816H32.1533C32.1533 55.8661 35.6098 65.2856 36.5379 66.4548C37.9994 68.3548 37.0859 72.3447 36.7717 73.5431Z" fill="#17262F"></path></g><defs><clipPath id="clip0_5678_6436"><rect width="76.6491" height="90" fill="white"></rect></clipPath></defs></svg>