<svg xmlns="http://www.w3.org/2000/svg" width="67" height="90" viewBox="0 0 67 90" fill="none"><g clip-path="url(#clip0_5678_33713)"><path d="M53.7544 57.4133L50.271 52.6268C50.2424 52.5863 50.2118 52.5472 50.1791 52.5099C49.8177 52.0965 49.3095 51.84 48.7622 51.7948C48.2149 51.7496 47.6715 51.9191 47.2471 52.2676L42.778 55.7259C42.7466 55.7435 42.7184 55.766 42.6944 55.7928C42.4846 55.9755 42.313 56.1981 42.1897 56.4476C42.0664 56.6971 41.9938 56.9685 41.9761 57.2463C41.9393 57.7636 42.0972 58.2761 42.4188 58.6831L43.2541 59.8692C43.4164 60.0994 43.6316 60.2871 43.8817 60.4165C44.1318 60.5459 44.4093 60.6132 44.6909 60.6127C45.0586 60.6113 45.4171 60.4977 45.7184 60.2869C45.9134 60.1522 46.0793 59.9794 46.206 59.7791C46.3327 59.5788 46.4178 59.3549 46.456 59.1209C46.4942 58.887 46.4848 58.6477 46.4284 58.4175C46.372 58.1872 46.2697 57.9707 46.1277 57.7809L46.0275 57.6389L48.308 55.8763L50.3128 58.5995L50.8892 59.4349V59.485C51.0241 59.6271 51.1167 59.804 51.1566 59.9958C51.1964 60.1877 51.1819 60.3869 51.1147 60.5709L50.1541 62.7178H42.4355C41.9879 62.7486 41.5687 62.9481 41.2625 63.276C40.9564 63.604 40.7861 64.0359 40.7861 64.4845C40.7861 64.9332 40.9564 65.3651 41.2625 65.693C41.5687 66.021 41.9879 66.2205 42.4355 66.2513H48.617L47.9154 67.8217V67.8885L47.7232 68.3146C47.5227 68.6738 47.2805 68.9327 47.1301 68.9327H38.4843C38.3594 68.9195 38.2334 68.9195 38.1084 68.9327L36.2122 67.0783L40.9319 62.6509C41.2642 62.3186 41.4509 61.8679 41.4509 61.3979C41.4509 60.9279 41.2642 60.4772 40.9319 60.1449C40.5996 59.8126 40.1488 59.6259 39.6789 59.6259C39.2089 59.6259 38.7582 59.8126 38.4258 60.1449L32.6369 65.8252C32.4422 66.0165 32.2875 66.2447 32.1819 66.4964C32.0763 66.7481 32.0219 67.0183 32.0219 67.2913C32.0219 67.5642 32.0763 67.8345 32.1819 68.0862C32.2875 68.3379 32.4422 68.566 32.6369 68.7573L39.1025 75.0976C39.4348 75.4299 39.8855 75.6166 40.3555 75.6166C40.8255 75.6166 41.2762 75.4299 41.6085 75.0976C41.9408 74.7652 42.1275 74.3145 42.1275 73.8446C42.1275 73.3746 41.9408 72.9239 41.6085 72.5915H47.0633C47.8527 72.5572 48.6171 72.3048 49.2718 71.8625C49.9265 71.4201 50.4458 70.805 50.7722 70.0855C50.8924 69.8641 50.9984 69.6353 51.0897 69.4005V69.3588L54.264 62.2249C54.6408 61.4563 54.793 60.5969 54.7028 59.7457C54.6127 58.8944 54.2839 58.0859 53.7544 57.4133Z" fill="#17262F"></path><path d="M28.4936 62.7927H26.5974C26.1299 62.7927 25.6816 62.9784 25.351 63.309C25.0205 63.6395 24.8348 64.0878 24.8348 64.5553C24.8348 65.0228 25.0205 65.4711 25.351 65.8016C25.6816 66.1322 26.1299 66.3179 26.5974 66.3179H27.0735V69.1497H22.145C21.5596 69.0279 21.0427 68.6873 20.6998 68.1974L20.0149 67.3621L21.8944 64.7892L23.4982 62.4085C23.6277 62.2165 23.7181 62.0009 23.7642 61.774C23.8103 61.5471 23.8113 61.3133 23.7671 61.0861C23.7229 60.8588 23.6343 60.6425 23.5065 60.4494C23.3787 60.2563 23.2141 60.0903 23.0221 59.9609C22.8301 59.8315 22.6145 59.7411 22.3876 59.695C22.1607 59.6488 21.927 59.6479 21.6997 59.6921C21.4724 59.7363 21.2561 59.8248 21.063 59.9527C20.87 60.0805 20.704 60.2451 20.5745 60.437L18.979 62.6507L17.7177 64.4049L15.3286 61.2306L15.2617 61.0886C15.1857 60.7459 15.1688 60.3928 15.2116 60.0444L20.8251 53.7543C20.9674 53.5957 21.0779 53.4114 21.1509 53.2113L24.0078 53.0192L24.3085 59.3511C24.3341 59.8018 24.5307 60.2256 24.8583 60.5362C25.1859 60.8467 25.6197 61.0204 26.0711 61.0218H26.1546C26.6208 60.998 27.0585 60.7903 27.3717 60.4442C27.6849 60.0981 27.8481 59.6419 27.8253 59.1757L27.4578 51.3318C27.4268 50.7839 27.1806 50.2705 26.7728 49.9034C26.5707 49.719 26.3331 49.578 26.0745 49.4889C25.8159 49.3999 25.5419 49.3646 25.2692 49.3854L16.2307 49.9952C15.9969 50.0069 15.7678 50.065 15.5567 50.1662C15.3456 50.2674 15.1568 50.4097 15.0012 50.5846C14.8457 50.7596 14.7266 50.9638 14.6508 51.1853C14.5751 51.4068 14.5442 51.6412 14.5601 51.8748C14.5766 52.3126 14.7579 52.728 15.0677 53.0378C15.3775 53.3476 15.7929 53.5289 16.2307 53.5455L12.5302 57.764C11.0349 59.4346 11.9371 62.2247 11.9371 62.2247C12.0358 62.4874 12.1502 62.7441 12.2796 62.9932C12.2796 62.9932 12.338 63.06 12.3631 63.1018C12.6221 63.4861 13.4156 64.5302 16.1221 68.1139L17.9432 70.3526C18.4029 70.9774 18.9824 71.5045 19.6478 71.9032C20.3133 72.3019 21.0514 72.5642 21.8192 72.6748H22.3622H28.4435C29.0025 72.6748 29.5388 72.4533 29.9349 72.0588C30.3311 71.6643 30.5547 71.1288 30.5569 70.5698V64.9312C30.5615 64.3756 30.3479 63.8403 29.9621 63.4405C29.5763 63.0406 29.049 62.808 28.4936 62.7927Z" fill="#17262F"></path><path d="M47.1134 40.0965C46.8963 40.0152 46.6653 39.9778 46.4336 39.9864C46.2019 39.995 45.9743 40.0494 45.7638 40.1465C45.5533 40.2436 45.3641 40.3814 45.2072 40.5521C45.0503 40.7227 44.9288 40.9228 44.8496 41.1407L44.7494 41.3996L42.0262 37.0642C41.644 36.4189 41.1019 35.883 40.4522 35.5084C39.8025 35.1338 39.0672 34.9331 38.3172 34.9257C38.0668 34.9125 37.8159 34.9125 37.5654 34.9257H29.7633H29.6798C28.8367 34.9737 28.0195 35.234 27.3039 35.6824C26.5883 36.1307 25.9976 36.7526 25.5866 37.4902L25.5365 37.5988L22.2452 42.7779C22.2013 42.8447 22.1622 42.9145 22.1283 42.9868C22.0114 43.2395 21.9461 43.5129 21.936 43.7912C21.926 44.0694 21.9715 44.3469 22.0698 44.6073C22.2384 45.0757 22.5707 45.4673 23.0054 45.71L28.0175 48.9678L28.2346 49.0848C28.5117 49.2152 28.8139 49.2836 29.1201 49.2853C29.4857 49.2749 29.8424 49.1703 30.1556 48.9815C30.4688 48.7927 30.7279 48.5261 30.9077 48.2077L32.3028 46.0358C32.5553 45.6414 32.6409 45.1629 32.5406 44.7055C32.4404 44.248 32.1625 43.8491 31.7681 43.5966C31.3738 43.344 30.8953 43.2585 30.4378 43.3587C29.9804 43.459 29.5815 43.7368 29.3289 44.1312L28.6356 45.2088L25.9374 43.4379L28.4435 39.5034C28.4989 39.4218 28.5464 39.335 28.5855 39.2444L28.6523 39.0857C28.8877 38.7699 29.2188 38.5384 29.5963 38.4258H30.3314L33.8565 43.8555C34.0115 44.1091 34.2286 44.3189 34.4874 44.4651C34.7461 44.6113 35.0379 44.689 35.3351 44.6909C35.6777 44.6942 36.0131 44.5922 36.2957 44.3985C36.4908 44.2732 36.6591 44.1104 36.7909 43.9196C36.9227 43.7288 37.0154 43.5138 37.0635 43.287C37.1117 43.0601 37.1144 42.826 37.0715 42.5981C37.0286 42.3702 36.941 42.1531 36.8136 41.9593L34.5331 38.4258H38.1168C38.5261 38.4258 38.8602 38.5845 38.9521 38.7182C39.044 38.8518 38.9521 38.7182 38.9521 38.7766C38.9521 38.8351 39.0022 38.8852 39.0356 38.9354L43.2124 45.5262L42.2267 48.1993L36.3792 45.8854C35.9439 45.7137 35.4582 45.722 35.029 45.9084C34.5997 46.0948 34.2621 46.4441 34.0904 46.8795C33.9187 47.3148 33.927 47.8005 34.1134 48.2298C34.2998 48.659 34.6491 48.9966 35.0845 49.1683L42.3687 52.0336C42.6085 52.1264 42.8633 52.1745 43.1205 52.1756C43.4092 52.1776 43.6946 52.1148 43.9558 51.9918C44.2064 51.8825 44.4321 51.7231 44.6188 51.5235C44.8056 51.3238 44.9495 51.088 45.0418 50.8307L48.191 42.3436C48.2689 42.1253 48.3028 41.8938 48.2907 41.6624C48.2786 41.431 48.2208 41.2043 48.1206 40.9954C48.0204 40.7865 47.8798 40.5995 47.7069 40.4452C47.5341 40.2909 47.3324 40.1724 47.1134 40.0965Z" fill="#17262F"></path><path d="M66.4266 11.4693C66.4244 10.8282 66.1682 10.2142 65.7141 9.76171C65.26 9.30921 64.6451 9.05513 64.0041 9.05513H46.1778V4.17672C46.1778 3.06899 45.7378 2.00662 44.9545 1.22333C44.1712 0.440046 43.1089 0 42.0011 0L24.4589 0C23.3512 0 22.2888 0.440046 21.5055 1.22333C20.7222 2.00662 20.2822 3.06899 20.2822 4.17672V9.02172H2.41415C2.09461 9.0228 1.77843 9.0871 1.48384 9.2109C1.18926 9.33469 0.922069 9.51555 0.697675 9.74305C0.473281 9.97055 0.296113 10.2402 0.176375 10.5365C0.0566371 10.8327 -0.00330417 11.1497 3.3041e-06 11.4693L3.30387e-06 25.0603C-0.00356655 25.1048 -0.00356655 25.1495 3.30387e-06 25.194C-0.00421253 25.2301 -0.00421253 25.2665 3.3041e-06 25.3026L8.27827 85.7565C8.44481 86.9286 9.02775 88.0017 9.92047 88.7794C10.8132 89.557 11.956 89.9874 13.14 89.9917H53.2365C54.4214 89.9876 55.5653 89.5576 56.4594 88.7801C57.3535 88.0025 57.9381 86.9293 58.1066 85.7565L66.4099 25.3109V25.2023C66.4099 25.1522 66.4099 25.1105 66.4099 25.0687L66.4266 11.4693ZM23.7739 4.17672C23.7739 3.99505 23.8461 3.82083 23.9745 3.69237C24.103 3.56391 24.2772 3.49174 24.4589 3.49174H42.0011C42.1813 3.49394 42.3534 3.56707 42.4801 3.6953C42.6067 3.82352 42.6778 3.99649 42.6777 4.17672V9.02172H23.7739V4.17672ZM3.52516 12.5302H62.8931V23.3061H3.52516V12.5302ZM54.6315 85.2051C54.5869 85.5365 54.4234 85.8404 54.1713 86.0602C53.9193 86.28 53.596 86.4006 53.2616 86.3997H13.165C12.8328 86.3974 12.5124 86.2767 12.2612 86.0593C12.0101 85.8419 11.8448 85.5419 11.7951 85.2135L3.79247 26.7394H62.6508L54.6315 85.2051Z" fill="#17262F"></path><path d="M40.5309 19.7058H25.8957C25.4282 19.7058 24.9799 19.5201 24.6494 19.1896C24.3188 18.859 24.1331 18.4107 24.1331 17.9432C24.1331 17.4758 24.3188 17.0275 24.6494 16.6969C24.9799 16.3664 25.4282 16.1807 25.8957 16.1807H40.5309C40.9984 16.1807 41.4467 16.3664 41.7772 16.6969C42.1078 17.0275 42.2935 17.4758 42.2935 17.9432C42.2935 18.4107 42.1078 18.859 41.7772 19.1896C41.4467 19.5201 40.9984 19.7058 40.5309 19.7058Z" fill="#17262F"></path></g><defs><clipPath id="clip0_5678_33713"><rect width="66.4266" height="90" fill="white"></rect></clipPath></defs></svg>