<svg xmlns="http://www.w3.org/2000/svg" width="64" height="100" viewBox="0 0 64 100" fill="none"><g clip-path="url(#clip0_5678_32911)"><path d="M63.417 35.6137C63.417 15.9745 49.1899 0 31.7085 0C14.2271 0 0 15.9745 0 35.6137C0 53.7672 12.1472 68.7655 27.7821 70.9445C29.4874 77.7607 30.3874 84.7534 30.4634 91.7793V92.6777C30.4634 93.272 30.4634 93.8663 30.4634 94.4747C30.4634 94.6303 30.4634 94.7718 30.4634 94.9346C30.4599 95.0029 30.4599 95.0714 30.4634 95.1397C30.4634 96.2363 30.4634 97.3399 30.4634 98.4719C30.4708 98.8879 30.6408 99.2845 30.937 99.5767C31.2332 99.8689 31.632 100.034 32.0481 100.035C32.2562 100.032 32.4616 99.987 32.6524 99.904C32.8433 99.8209 33.0159 99.7011 33.1605 99.5513C33.305 99.4015 33.4186 99.2247 33.4948 99.031C33.571 98.8373 33.6083 98.6305 33.6045 98.4224C33.6045 97.0782 33.6045 95.7552 33.6045 94.4606C33.6045 93.8569 33.6045 93.2838 33.6045 92.7414C33.653 85.4561 34.2441 78.1844 35.3732 70.9869C51.1213 68.9494 63.417 53.8663 63.417 35.6137ZM3.17651 35.6137C3.17651 17.729 15.9745 3.17651 31.7085 3.17651C47.4425 3.17651 60.2405 17.729 60.2405 35.6137C60.2405 51.8854 49.6286 65.3767 35.9109 67.6972C37.6371 58.387 40.4103 49.0697 44.5207 38.203C44.6396 37.8163 44.6067 37.3987 44.4288 37.0353C44.2509 36.6719 43.9412 36.3899 43.5627 36.2466C43.1843 36.1033 42.7655 36.1096 42.3915 36.264C42.0175 36.4185 41.7164 36.7096 41.5493 37.0782C37.3541 48.1712 34.5242 57.6866 32.7697 67.2091C31.6944 49.9611 30.1663 31.2699 30.145 31.0152C30.1278 30.8076 30.0699 30.6053 29.9746 30.4201C29.8792 30.2348 29.7483 30.0702 29.5894 29.9355C29.4304 29.8008 29.2464 29.6988 29.048 29.6352C28.8496 29.5716 28.6406 29.5477 28.433 29.5649C28.2253 29.5821 28.0231 29.64 27.8378 29.7354C27.6526 29.8307 27.4879 29.9616 27.3532 30.1206C27.2186 30.2796 27.1165 30.4635 27.0529 30.6619C26.9894 30.8603 26.9655 31.0693 26.9827 31.277C26.9827 31.5175 28.3976 48.4754 29.4517 64.9593C26.0559 54.0149 21.797 47.4496 21.5069 47.011C21.3922 46.8372 21.2443 46.6878 21.0718 46.5712C20.8993 46.4546 20.7056 46.3731 20.5016 46.3314C20.2976 46.2897 20.0874 46.2886 19.883 46.3281C19.6786 46.3676 19.484 46.447 19.3102 46.5617C19.1365 46.6765 18.9871 46.8243 18.8705 46.9968C18.7539 47.1693 18.6724 47.363 18.6307 47.567C18.5889 47.771 18.5878 47.9812 18.6273 48.1856C18.6668 48.39 18.7462 48.5847 18.861 48.7584C18.9317 48.8645 23.4949 55.9179 26.8765 67.5769C13.4418 64.9593 3.17651 51.6449 3.17651 35.6137Z" fill="#17262F"></path></g><defs><clipPath id="clip0_5678_32911"><rect width="63.417" height="100" fill="white"></rect></clipPath></defs></svg>