<svg xmlns="http://www.w3.org/2000/svg" width="96" height="90" viewBox="0 0 96 90" fill="none"><g clip-path="url(#clip0_5678_33302)"><path d="M1.44892 61.4463V69.1157C1.02641 69.1358 0.629207 69.323 0.344677 69.6359C0.0601481 69.9489 -0.0883959 70.3621 -0.0682767 70.7846C-0.0481574 71.2071 0.138977 71.6043 0.451959 71.8889C0.764941 72.1734 1.17813 72.3219 1.60064 72.3018H4.49848C4.92098 72.3219 5.33418 72.1734 5.64716 71.8889C5.96014 71.6043 6.14727 71.2071 6.16739 70.7846C6.18751 70.3621 6.03897 69.9489 5.75444 69.6359C5.46991 69.323 5.0727 69.1358 4.6502 69.1157V65.9979H20.3228C20.7467 65.9959 21.1527 65.8266 21.4524 65.5268C21.7522 65.2271 21.9215 64.8211 21.9235 64.3972V59.6636H28.2274C28.4474 59.6787 28.6681 59.6485 28.8759 59.5747C29.0837 59.5009 29.2741 59.3852 29.4353 59.2347C29.5964 59.0843 29.725 58.9022 29.8128 58.7C29.9007 58.4978 29.946 58.2796 29.946 58.0592C29.946 57.8387 29.9007 57.6205 29.8128 57.4183C29.725 57.216 29.5964 57.034 29.4353 56.8836C29.2741 56.7331 29.0837 56.6174 28.8759 56.5436C28.6681 56.4698 28.4474 56.4396 28.2274 56.4547H20.3228C20.112 56.4547 19.9032 56.4964 19.7085 56.5773C19.5138 56.6582 19.337 56.7768 19.1883 56.9262C19.0396 57.0756 18.9218 57.253 18.8418 57.4481C18.7618 57.6432 18.7212 57.8521 18.7222 58.0629V62.7814H4.6502V45.5157H18.7374C18.7049 45.7525 18.7257 45.9935 18.798 46.2212L21.0738 53.0486C21.178 53.3688 21.381 53.6477 21.6536 53.8453C21.9262 54.0429 22.2544 54.1491 22.591 54.1486C22.7608 54.1494 22.9298 54.1238 23.0917 54.0727C23.4956 53.9392 23.8301 53.6511 24.022 53.2715C24.2139 52.8919 24.2477 52.4517 24.1158 52.0473L21.84 45.1744C21.7938 45.034 21.7274 44.9011 21.6428 44.7799C21.8069 44.5395 21.9025 44.2589 21.919 43.9683C21.9356 43.6777 21.8726 43.3881 21.7369 43.1306C21.6011 42.8731 21.3977 42.6575 21.1485 42.5071C20.8994 42.3566 20.6139 42.2769 20.3228 42.2765H4.6502V20.482C5.05895 20.4421 5.43672 20.2466 5.70535 19.9359C5.97398 19.6253 6.11292 19.2232 6.09343 18.813C6.07395 18.4028 5.89752 18.0157 5.60065 17.7319C5.30377 17.4481 4.90917 17.2893 4.49848 17.2883H1.60064C1.18994 17.2893 0.795345 17.4481 0.498473 17.7319C0.201601 18.0157 0.0251721 18.4028 0.00568362 18.813C-0.0138049 19.2232 0.125138 19.6253 0.393771 19.9359C0.662403 20.2466 1.04017 20.4421 1.44892 20.482V61.4463Z" fill="#17262F"></path><path d="M90.0228 56.4549H72.4081L65.998 53.7922C65.6057 53.6282 65.1643 53.6268 64.7709 53.7883C64.3775 53.9498 64.0644 54.2609 63.9005 54.6532C63.7365 55.0455 63.7351 55.4869 63.8966 55.8803C64.058 56.2737 64.3691 56.5868 64.7615 56.7507L71.422 59.5348C71.5255 59.5756 71.632 59.6086 71.7406 59.6334C71.844 59.6441 71.9482 59.6441 72.0516 59.6334H88.3918V78.3404H74.9798C74.9763 78.1302 74.9314 77.9228 74.8478 77.7299C74.7641 77.537 74.6433 77.3625 74.4922 77.2164C74.3411 77.0702 74.1627 76.9552 73.9671 76.878C73.7716 76.8008 73.5628 76.7629 73.3526 76.7663C73.1424 76.7698 72.9349 76.8147 72.7421 76.8983C72.5492 76.982 72.3747 77.1028 72.2285 77.2539C72.0824 77.405 71.9674 77.5834 71.8902 77.779C71.813 77.9745 71.775 78.1833 71.7785 78.3935V79.9107V81.261C71.783 81.6607 71.9368 82.0441 72.2098 82.3361C72.4827 82.628 72.8549 82.8073 73.2534 82.8387C73.6518 82.8701 74.0475 82.7513 74.3628 82.5057C74.678 82.26 74.89 81.9054 74.957 81.5114H90.0228C90.448 81.5114 90.8559 81.343 91.1573 81.043C91.4587 80.7431 91.629 80.3359 91.631 79.9107V58.0631C91.631 57.6366 91.4616 57.2275 91.16 56.9259C90.8584 56.6243 90.4493 56.4549 90.0228 56.4549Z" fill="#17262F"></path><path d="M1.60063 11.2121H4.49848C4.90917 11.2111 5.30377 11.0523 5.60064 10.7685C5.89751 10.4847 6.07394 10.0976 6.09343 9.68739C6.11292 9.27716 5.97398 8.87513 5.70534 8.56447C5.43671 8.25381 5.05895 8.0583 4.6502 8.01837V3.20128H35.9954V42.3222H35.3582C35.2473 42.3106 35.1354 42.3106 35.0244 42.3222C34.628 42.2415 34.2158 42.3148 33.8714 42.527L28.0681 46.1682C27.7736 46.3521 27.5468 46.6267 27.4219 46.9506C27.2971 47.2746 27.281 47.6304 27.376 47.9643C27.4711 48.2982 27.6721 48.5922 27.9488 48.8019C28.2256 49.0116 28.563 49.1256 28.9101 49.1268C29.2071 49.1269 29.4983 49.0455 29.7522 48.8916L35.1913 45.5158H35.3582H39.2574C39.6819 45.5158 40.0891 45.3472 40.3892 45.047C40.6894 44.7469 40.8581 44.3397 40.8581 43.9152C40.8581 43.4907 40.6894 43.0836 40.3892 42.7834C40.0891 42.4832 39.6819 42.3146 39.2574 42.3146H39.1967V22.1662H52.2067C52.2764 22.5492 52.4833 22.8937 52.7886 23.1351C53.0939 23.3766 53.4768 23.4985 53.8656 23.4781C54.2543 23.4576 54.6223 23.2962 54.9006 23.024C55.1789 22.7518 55.3485 22.3875 55.3776 21.9993V19.1167C55.3641 18.7155 55.2004 18.3341 54.9189 18.048C54.6374 17.7619 54.2587 17.592 53.8578 17.5719C53.4569 17.5519 53.0632 17.6832 52.7545 17.9398C52.4459 18.1964 52.245 18.5596 52.1915 18.9573H39.1967V1.60064C39.1947 1.17674 39.0255 0.770768 38.7257 0.471021C38.426 0.171274 38.02 0.00199486 37.5961 0L3.03438 0C2.6125 0.00399906 2.20926 0.174401 1.91236 0.474147C1.61545 0.773893 1.4489 1.17874 1.44892 1.60064V8.01837C1.04016 8.0583 0.662399 8.25381 0.393767 8.56447C0.125135 8.87513 -0.0138081 9.27716 0.00568042 9.68739C0.0251689 10.0976 0.201598 10.4847 0.49847 10.7685C0.795342 11.0523 1.18994 11.2111 1.60063 11.2121Z" fill="#17262F"></path><path d="M64.1167 76.8232C63.7067 76.8245 63.3128 76.9823 63.0153 77.2642C62.7178 77.5462 62.5392 77.9312 62.516 78.3404H49.0737V59.6638H59.5499C59.9564 59.6358 60.3371 59.4546 60.6151 59.1568C60.8931 58.859 61.0477 58.4667 61.0477 58.0593C61.0477 57.6519 60.8931 57.2597 60.6151 56.9619C60.3371 56.664 59.9564 56.4829 59.5499 56.4549H40.585L34.2052 53.7922C33.8128 53.6282 33.3714 53.6268 32.9781 53.7883C32.5847 53.9498 32.2716 54.2609 32.1076 54.6532C31.9437 55.0455 31.9423 55.4869 32.1037 55.8803C32.2652 56.2737 32.5763 56.5868 32.9686 56.7507L39.6367 59.5348H39.6822C39.7654 59.5705 39.8518 59.5985 39.9402 59.6182C40.0462 59.6257 40.1527 59.6257 40.2588 59.6182H45.8724V86.7457H4.6502V81.5114C5.0727 81.4912 5.46991 81.3041 5.75444 80.9911C6.03897 80.6781 6.18751 80.265 6.16739 79.8425C6.14727 79.4199 5.96014 79.0227 5.64716 78.7382C5.33418 78.4537 4.92098 78.3051 4.49848 78.3253H1.60064C1.17813 78.3051 0.764941 78.4537 0.451959 78.7382C0.138977 79.0227 -0.0481574 79.4199 -0.0682767 79.8425C-0.0883959 80.265 0.060148 80.6781 0.344677 80.9911C0.629206 81.3041 1.02641 81.4912 1.44892 81.5114V88.3387C1.44079 88.5527 1.47568 88.7662 1.55152 88.9664C1.62737 89.1667 1.74262 89.3497 1.89045 89.5046C2.03829 89.6595 2.21571 89.7832 2.4122 89.8683C2.60869 89.9534 2.82026 89.9982 3.03439 90.0001H47.473C47.8969 89.9981 48.3029 89.8288 48.6026 89.529C48.9024 89.2293 49.0717 88.8233 49.0737 88.3994V81.5721H62.5388C62.6058 81.966 62.8177 82.3207 63.133 82.5663C63.4483 82.812 63.844 82.9308 64.2424 82.8994C64.6408 82.868 65.0131 82.6887 65.286 82.3968C65.559 82.1048 65.7128 81.7213 65.7173 81.3217V78.4239C65.7173 78.2137 65.6759 78.0055 65.5955 77.8113C65.515 77.6171 65.3971 77.4407 65.2485 77.2921C65.0998 77.1434 64.9234 77.0255 64.7292 76.9451C64.535 76.8646 64.3269 76.8232 64.1167 76.8232Z" fill="#17262F"></path><path d="M94.9157 52.6086L91.631 47.086V43.9227C91.631 43.7118 91.5893 43.5031 91.5084 43.3084C91.4275 43.1137 91.3089 42.9369 91.1595 42.7882C91.0101 42.6394 90.8327 42.5217 90.6376 42.4417C90.4426 42.3617 90.2336 42.321 90.0228 42.322H77.7259V20.5655C77.7239 20.1416 77.5546 19.7356 77.2549 19.4358C76.9551 19.1361 76.5492 18.9668 76.1253 18.9648H64.6477C64.5942 18.567 64.3933 18.2038 64.0846 17.9472C63.776 17.6906 63.3822 17.5593 62.9814 17.5794C62.5805 17.5994 62.2018 17.7693 61.9203 18.0555C61.6388 18.3416 61.4751 18.723 61.4616 19.1241V21.9992C61.4751 22.4004 61.6388 22.7818 61.9203 23.0679C62.2018 23.354 62.5805 23.5239 62.9814 23.544C63.3822 23.564 63.776 23.4327 64.0846 23.1761C64.3933 22.9195 64.5942 22.5563 64.6477 22.1585H74.5094V42.322H50.9929H50.826L50.6667 42.3676C50.6174 42.3782 50.5691 42.3934 50.5226 42.4131L50.3557 42.4889L50.2647 42.5344L44.4311 46.1454C44.1365 46.3292 43.9097 46.6038 43.7849 46.9278C43.6601 47.2517 43.644 47.6075 43.739 47.9414C43.834 48.2754 44.0351 48.5693 44.3118 48.779C44.5885 48.9887 44.9259 49.1027 45.2731 49.1039C45.57 49.104 45.8612 49.0226 46.1151 48.8687L51.5315 45.5157H88.4221V47.5184C88.4221 47.5184 88.4221 47.5867 88.4221 47.6171C88.4184 47.6752 88.4184 47.7334 88.4221 47.7915C88.4221 47.8446 88.4221 47.8901 88.4221 47.9432C88.4221 47.9963 88.4221 48.0419 88.4752 48.095C88.4948 48.1469 88.5176 48.1976 88.5435 48.2467L88.589 48.3377L92.1013 54.2396C92.2453 54.4738 92.4474 54.6667 92.688 54.7996C92.9286 54.9326 93.1995 55.001 93.4744 54.9982C93.7568 54.9969 94.0338 54.9212 94.2777 54.7788C94.5215 54.6364 94.7236 54.4322 94.8636 54.187C95.0035 53.9417 95.0764 53.6639 95.0749 53.3815C95.0734 53.0991 94.9976 52.8221 94.855 52.5783L94.9157 52.6086Z" fill="#17262F"></path></g><defs><clipPath id="clip0_5678_33302"><rect width="95.1357" height="90" fill="white"></rect></clipPath></defs></svg>