<svg xmlns="http://www.w3.org/2000/svg" width="90" height="90" viewBox="0 0 90 90" fill="none"><g clip-path="url(#clip0_5678_33259)"><path d="M31.0223 44.6157C28.1883 44.6173 25.4184 45.4591 23.0628 47.0347C20.7071 48.6103 18.8716 50.849 17.7881 53.4677C16.7047 56.0864 16.422 58.9676 16.9758 61.747C17.5297 64.5263 18.8951 67.0791 20.8996 69.0825C22.9041 71.0859 25.4576 72.4499 28.2373 73.0023C31.0169 73.5546 33.8979 73.2703 36.5161 72.1854C39.1342 71.1006 41.3719 69.2637 42.9462 66.9073C44.5205 64.5508 45.3608 61.7804 45.3608 58.9464C45.3546 55.1462 43.8417 51.5036 41.1538 48.8172C38.466 46.1308 34.8225 44.6199 31.0223 44.6157ZM31.0223 69.7159C28.8904 69.7159 26.8064 69.0837 25.0339 67.8991C23.2614 66.7145 21.88 65.0308 21.0645 63.0611C20.2491 61.0913 20.0361 58.9239 20.4526 56.8331C20.8691 54.7423 21.8963 52.8219 23.4043 51.315C24.9123 49.808 26.8334 48.7822 28.9246 48.3673C31.0157 47.9523 33.1829 48.1668 35.1521 48.9838C37.1213 49.8007 38.8039 51.1833 39.9872 52.9566C41.1705 54.73 41.8013 56.8145 41.7997 58.9464C41.7956 61.8035 40.6588 64.5423 38.6385 66.5626C36.6183 68.5828 33.8794 69.7196 31.0223 69.7238V69.7159Z" fill="#17262F"></path><path d="M57.1109 50.2788H53.4321C53.2988 49.9337 53.1576 49.5886 53.0085 49.2513L55.6048 46.6471C56.0687 46.1838 56.4368 45.6336 56.6879 45.0279C56.939 44.4223 57.0682 43.773 57.0682 43.1174C57.0682 42.4618 56.939 41.8125 56.6879 41.2069C56.4368 40.6012 56.0687 40.051 55.6048 39.5877L50.4201 34.4029C49.9568 33.939 49.4065 33.571 48.8009 33.3199C48.1952 33.0688 47.546 32.9396 46.8904 32.9396C46.2347 32.9396 45.5855 33.0688 44.9798 33.3199C44.3742 33.571 43.824 33.939 43.3606 34.4029L40.7879 36.9835C40.4349 36.8267 40.0898 36.6855 39.7446 36.5521V32.8969C39.7446 31.5717 39.2182 30.3009 38.2812 29.3638C37.3442 28.4268 36.0733 27.9004 34.7481 27.9004H27.3906C26.0655 27.9004 24.7946 28.4268 23.8576 29.3638C22.9205 30.3009 22.3941 31.5717 22.3941 32.8969V36.5286C22.0333 36.6619 21.6803 36.811 21.3274 36.9678L18.7546 34.3951C18.2918 33.9302 17.7417 33.5614 17.136 33.3097C16.5303 33.058 15.8808 32.9285 15.2249 32.9285C14.5689 32.9285 13.9194 33.058 13.3137 33.3097C12.708 33.5614 12.1579 33.9302 11.6951 34.3951L6.50253 39.5798C5.57136 40.5186 5.04887 41.7873 5.04887 43.1096C5.04887 44.4318 5.57136 45.7005 6.50253 46.6393L9.05961 49.1964C8.90274 49.5572 8.7537 49.918 8.61252 50.271H4.99651C3.67064 50.273 2.39977 50.8012 1.46297 51.7395C0.526165 52.6778 -1.62867e-06 53.9494 0 55.2753L0 62.625C0.00207818 63.9488 0.529412 65.2177 1.46622 66.153C2.40302 67.0883 3.67271 67.6137 4.99651 67.6137H8.6282C8.76155 67.9823 8.91058 68.3353 9.06746 68.6883L6.50253 71.2453C5.57136 72.1841 5.04887 73.4528 5.04887 74.7751C5.04887 76.0973 5.57136 77.366 6.50253 78.3048L11.6951 83.4896C12.1579 83.9544 12.708 84.3232 13.3137 84.5749C13.9194 84.8266 14.5689 84.9562 15.2249 84.9562C15.8808 84.9562 16.5303 84.8266 17.136 84.5749C17.7417 84.3232 18.2918 83.9544 18.7546 83.4896L21.3274 80.9168C21.6803 81.0737 22.0333 81.2148 22.3941 81.356V84.9956C22.3941 86.3207 22.9205 87.5916 23.8576 88.5286C24.7946 89.4657 26.0655 89.9921 27.3906 89.9921H34.7246C36.0491 89.99 37.3188 89.4629 38.2554 88.5263C39.192 87.5898 39.719 86.3201 39.7211 84.9956V81.3403C40.0662 81.207 40.4114 81.0658 40.7643 80.9089L43.3528 83.4974C44.2916 84.4286 45.5603 84.9511 46.8825 84.9511C48.2048 84.9511 49.4735 84.4286 50.4122 83.4974L55.597 78.3126C56.0609 77.8493 56.4289 77.2991 56.68 76.6934C56.9311 76.0878 57.0604 75.4385 57.0604 74.7829C57.0604 74.1273 56.9311 73.4781 56.68 72.8724C56.4289 72.2667 56.0609 71.7165 55.597 71.2532L53.0007 68.649C53.1497 68.3118 53.2909 67.9666 53.4243 67.6215H57.103C58.4261 67.6215 59.695 67.0959 60.6305 66.1604C61.5661 65.2248 62.0917 63.9559 62.0917 62.6328V55.2753C62.0917 53.9529 61.5674 52.6844 60.6338 51.7478C59.7002 50.8112 58.4333 50.283 57.1109 50.2788ZM58.5463 62.625C58.5463 63.0057 58.395 63.3708 58.1259 63.64C57.8567 63.9092 57.4916 64.0604 57.1109 64.0604H52.1143H51.9339H51.7614L51.6045 64.1075L51.4319 64.1781L51.2986 64.3193L51.1496 64.4212L51.0162 64.5232C50.977 64.5232 50.9299 64.6016 50.8986 64.6409L50.7809 64.7742L50.6868 64.9154C50.6576 64.9634 50.6314 65.0132 50.6083 65.0644C50.579 65.1204 50.5528 65.178 50.5299 65.237V65.3076C50.2051 66.3204 49.7903 67.3022 49.2906 68.2412L49.2514 68.351C49.2514 68.351 49.2514 68.4059 49.2514 68.4373C49.1823 68.6235 49.1426 68.8193 49.1337 69.0177C49.1294 69.0437 49.1294 69.0702 49.1337 69.0961C49.1344 69.2973 49.1716 69.4966 49.2435 69.6844C49.2422 69.7106 49.2422 69.7367 49.2435 69.7629C49.3288 69.9535 49.4454 70.1285 49.5886 70.2806L53.0948 73.7318C53.2295 73.8653 53.3365 74.0241 53.4094 74.1991C53.4824 74.3742 53.52 74.5619 53.52 74.7515C53.52 74.9412 53.4824 75.1289 53.4094 75.3039C53.3365 75.4789 53.2295 75.6378 53.0948 75.7712L47.9022 80.9638C47.6319 81.2316 47.2669 81.3818 46.8864 81.3818C46.506 81.3818 46.1409 81.2316 45.8707 80.9638L42.4037 77.4969H42.3645C42.2152 77.3503 42.0395 77.2332 41.8468 77.1517H41.7762C41.5877 77.0811 41.3891 77.0413 41.1879 77.0341H41.1095C40.9105 77.0383 40.7139 77.0781 40.529 77.1517H40.4349H40.3329C39.3952 77.6614 38.4166 78.0917 37.4072 78.4381H37.3366L37.164 78.5087L37.015 78.595L36.8738 78.6891L36.7405 78.7989L36.6228 78.9166L36.513 79.0499L36.4189 79.199C36.3881 79.2461 36.3618 79.296 36.3404 79.348C36.3148 79.3983 36.2938 79.4508 36.2777 79.5049C36.2559 79.5586 36.2375 79.6136 36.2228 79.6696C36.219 79.7245 36.219 79.7795 36.2228 79.8343C36.2189 79.897 36.2189 79.9599 36.2228 80.0226C36.2193 80.0486 36.2193 80.075 36.2228 80.101V85.0034C36.2228 85.3862 36.0707 85.7533 35.8 86.0239C35.5294 86.2946 35.1623 86.4467 34.7795 86.4467H27.3906C27.0078 86.4467 26.6407 86.2946 26.3701 86.0239C26.0994 85.7533 25.9474 85.3862 25.9474 85.0034V80.1246C25.9474 80.1246 25.9474 80.0775 25.9474 80.054C25.9512 79.9913 25.9512 79.9284 25.9474 79.8657C25.9436 79.8109 25.9436 79.7558 25.9474 79.701C25.9326 79.645 25.9143 79.5899 25.8925 79.5363C25.875 79.4801 25.854 79.4251 25.8297 79.3715L25.7513 79.2304L25.6571 79.0813C25.6229 79.035 25.5862 78.9905 25.5473 78.948C25.5473 78.9088 25.4767 78.8695 25.4297 78.8303L25.3042 78.7205L25.1551 78.6185L25.0139 78.5401L24.8335 78.4617H24.7708C23.7568 78.1327 22.7706 77.7235 21.8215 77.238L21.7117 77.191H21.6254C21.4365 77.1218 21.2381 77.0821 21.0371 77.0733H20.9665C20.7628 77.0805 20.5616 77.1203 20.3704 77.191H20.2998C20.1081 77.2743 19.9328 77.3912 19.7821 77.5361L16.3308 80.9874C16.0592 81.2556 15.6929 81.406 15.3111 81.406C14.9294 81.406 14.563 81.2556 14.2914 80.9874L9.02039 75.7948C8.75025 75.5242 8.59852 75.1574 8.59852 74.7751C8.59852 74.3927 8.75025 74.026 9.02039 73.7554L12.456 70.3276C12.6026 70.1783 12.7197 70.0027 12.8011 69.8099V69.7393C12.873 69.5515 12.9102 69.3522 12.9109 69.151C12.9144 69.125 12.9144 69.0986 12.9109 69.0726C12.9021 68.8716 12.8624 68.6732 12.7933 68.4843C12.7933 68.4843 12.7933 68.4294 12.7933 68.398C12.7795 68.3606 12.7638 68.324 12.7462 68.2882C12.2613 67.3399 11.8547 66.3535 11.5304 65.339V65.2684C11.5091 65.2088 11.4828 65.1511 11.452 65.0958C11.4306 65.0438 11.4043 64.9939 11.3735 64.9468L11.2716 64.8056C11.2716 64.7585 11.201 64.7193 11.1696 64.6801L11.0363 64.5467L10.9186 64.4526L10.7382 64.3193L10.6205 64.2565L10.4323 64.1781H10.2989H10.1028H9.94597H4.99651C4.61509 64.1781 4.24918 64.0271 3.97874 63.7581C3.7083 63.4891 3.55532 63.1241 3.55325 62.7426V55.2753C3.55532 54.8939 3.7083 54.5288 3.97874 54.2599C4.24918 53.9909 4.61509 53.8399 4.99651 53.8399H9.86753C10.0319 53.8368 10.1953 53.8131 10.3538 53.7693H10.4558C10.6068 53.7167 10.7494 53.6428 10.8794 53.5497L10.9343 53.5026C11.0565 53.4116 11.1649 53.3033 11.2559 53.181L11.3029 53.1261C11.4019 52.9872 11.4786 52.8337 11.5304 52.6712C11.8504 51.6514 12.2599 50.6618 12.7541 49.7141L12.7933 49.6042C12.7933 49.6042 12.7933 49.5493 12.7933 49.518C12.8631 49.332 12.9028 49.136 12.9109 48.9375C12.9152 48.9115 12.9152 48.8851 12.9109 48.8591C12.9102 48.658 12.873 48.4586 12.8011 48.2708C12.7998 48.2447 12.7998 48.2185 12.8011 48.1924C12.7158 48.0017 12.5992 47.8267 12.456 47.6747L9.02039 44.2469C8.75215 43.9753 8.60173 43.609 8.60173 43.2272C8.60173 42.8455 8.75215 42.4791 9.02039 42.2075L14.213 37.0149C14.4884 36.754 14.8533 36.6085 15.2327 36.6085C15.6121 36.6085 15.977 36.754 16.2524 37.0149L19.7037 40.4662H19.7507C19.889 40.5963 20.0481 40.7023 20.2214 40.7799L20.3939 40.7878C20.5857 40.8552 20.7869 40.8922 20.9901 40.8976C21.1937 40.8961 21.3954 40.859 21.5862 40.7878L21.7039 40.7407H21.8058C22.7549 40.2552 23.7411 39.846 24.7551 39.5171H24.8179L24.9983 39.4387L25.1394 39.3602L25.2885 39.2582L25.414 39.1484C25.4571 39.1105 25.4965 39.0684 25.5316 39.0229L25.6415 38.8974L25.7356 38.7484C25.7356 38.7013 25.7905 38.6543 25.814 38.5994C25.8396 38.5491 25.8606 38.4966 25.8768 38.4425C25.8986 38.3888 25.9169 38.3338 25.9317 38.2778C25.9279 38.2229 25.9279 38.1679 25.9317 38.113C25.9356 38.0504 25.9356 37.9875 25.9317 37.9248C25.9317 37.9248 25.9317 37.8777 25.9317 37.8542V32.8969C25.9317 32.7074 25.969 32.5197 26.0415 32.3446C26.1141 32.1695 26.2204 32.0104 26.3544 31.8764C26.4884 31.7423 26.6475 31.636 26.8226 31.5635C26.9977 31.491 27.1854 31.4536 27.3749 31.4536H34.7089C35.0917 31.4536 35.4588 31.6057 35.7294 31.8764C36.0001 32.147 36.1522 32.5141 36.1522 32.8969V37.7914C36.1487 37.8175 36.1487 37.8439 36.1522 37.8699C36.1483 37.9326 36.1483 37.9954 36.1522 38.0581C36.1484 38.113 36.1484 38.168 36.1522 38.2229C36.1669 38.2789 36.1853 38.3339 36.2071 38.3876C36.2232 38.4417 36.2442 38.4942 36.2698 38.5445C36.2912 38.5965 36.3175 38.6464 36.3483 38.6935L36.4424 38.8347C36.4746 38.8825 36.5114 38.9272 36.5522 38.968C36.5873 39.0135 36.6267 39.0556 36.6699 39.0935L36.866 39.219L37.0071 39.3131L37.1562 39.3916L37.3287 39.47H37.3993C38.4065 39.7937 39.3851 40.2004 40.3251 40.6858H40.4271L40.5369 40.7329C40.7274 40.8058 40.929 40.8456 41.133 40.8505C41.3371 40.8471 41.539 40.8072 41.7291 40.7329L41.8782 40.6701C42.049 40.5924 42.2055 40.4863 42.3409 40.3564H42.3959L45.8314 36.9208C46.1055 36.6604 46.4691 36.5151 46.8472 36.5151C47.2253 36.5151 47.5889 36.6604 47.863 36.9208L53.0556 42.1134C53.1903 42.2469 53.2972 42.4057 53.3702 42.5807C53.4432 42.7557 53.4808 42.9435 53.4808 43.1331C53.4808 43.3227 53.4432 43.5105 53.3702 43.6855C53.2972 43.8605 53.1903 44.0193 53.0556 44.1528L49.62 47.6119C49.4777 47.7647 49.3612 47.9395 49.2749 48.1296V48.2002C49.2038 48.3883 49.1666 48.5874 49.1651 48.7885C49.1616 48.8145 49.1616 48.8409 49.1651 48.8669C49.1739 49.0679 49.2136 49.2663 49.2827 49.4552C49.2827 49.4552 49.2827 49.5101 49.2827 49.5415C49.2827 49.5729 49.2827 49.6121 49.3219 49.6435C49.806 50.5831 50.2101 51.5618 50.5299 52.5692C50.5834 52.7286 50.6601 52.8792 50.7574 53.0163L50.8123 53.0791C50.9006 53.1987 51.0064 53.3045 51.126 53.3928L51.1809 53.4399C51.3136 53.5331 51.4589 53.607 51.6123 53.6595H51.7065C51.865 53.7033 52.0284 53.727 52.1928 53.7301H57.1187C57.4994 53.7301 57.8645 53.8813 58.1337 54.1505C58.4029 54.4197 58.5541 54.7848 58.5541 55.1655L58.5463 62.625Z" fill="#17262F"></path><path d="M69.2609 10.8245C67.3009 10.8229 65.3844 11.4028 63.7541 12.4908C62.1237 13.5788 60.8527 15.1259 60.102 16.9364C59.3512 18.747 59.1543 20.7395 59.5363 22.662C59.9183 24.5844 60.862 26.3504 62.248 27.7363C63.6339 29.1223 65.3999 30.066 67.3223 30.448C69.2448 30.83 71.2373 30.6331 73.0479 29.8823C74.8584 29.1316 76.4055 27.8606 77.4935 26.2302C78.5815 24.5999 79.1614 22.6834 79.1598 20.7234C79.1557 18.0993 78.1114 15.5839 76.2559 13.7284C74.4004 11.8729 71.885 10.8286 69.2609 10.8245ZM69.2609 27.0769C68.004 27.0784 66.7748 26.7071 65.729 26.0099C64.6831 25.3127 63.8676 24.321 63.3855 23.1602C62.9034 21.9994 62.7765 20.7217 63.0207 19.4887C63.265 18.2557 63.8695 17.1229 64.7577 16.2335C65.646 15.3442 66.778 14.7383 68.0107 14.4925C69.2434 14.2467 70.5212 14.3721 71.6827 14.8528C72.8441 15.3334 73.8368 16.1477 74.5353 17.1927C75.2338 18.2377 75.6066 19.4664 75.6066 20.7234C75.6045 22.4064 74.9355 24.0201 73.7462 25.2109C72.5568 26.4017 70.944 27.0727 69.2609 27.0769Z" fill="#17262F"></path><path d="M86.1408 14.4875H84.3289L85.6153 13.209C85.9786 12.85 86.2671 12.4226 86.464 11.9513C86.6609 11.48 86.7622 10.9744 86.7622 10.4637C86.7622 9.95293 86.6609 9.44728 86.464 8.97602C86.2671 8.50476 85.9786 8.07726 85.6153 7.71832L82.2582 4.35332C81.8992 3.99 81.4717 3.70153 81.0005 3.50466C80.5292 3.30778 80.0235 3.2064 79.5128 3.2064C79.0021 3.2064 78.4964 3.30778 78.0252 3.50466C77.5539 3.70153 77.1264 3.99 76.7675 4.35332L75.5125 5.67108V3.85916C75.5104 2.83628 75.1031 1.8559 74.3799 1.13261C73.6566 0.409327 72.6762 0.0020727 71.6533 0L66.947 0C65.9228 -2.10705e-06 64.9404 0.406336 64.2154 1.12984C63.4904 1.85335 63.0821 2.83493 63.08 3.85916V5.67108L61.7622 4.3847C61.4028 4.02232 60.9751 3.7347 60.5039 3.53842C60.0327 3.34213 59.5273 3.24108 59.0169 3.24108C58.5065 3.24108 58.0011 3.34213 57.5299 3.53842C57.0587 3.7347 56.6311 4.02232 56.2716 4.3847L52.9379 7.7497C52.5765 8.10971 52.2897 8.53754 52.094 9.00866C51.8984 9.47977 51.7976 9.98489 51.7976 10.495C51.7976 11.0052 51.8984 11.5103 52.094 11.9814C52.2897 12.4525 52.5765 12.8804 52.9379 13.2404L54.2243 14.5189H52.4124C51.3882 14.5189 50.4058 14.9252 49.6808 15.6488C48.9558 16.3723 48.5475 17.3538 48.5454 18.3781V23.1314C48.5454 23.6392 48.6454 24.1421 48.8398 24.6113C49.0341 25.0804 49.3189 25.5067 49.678 25.8658C50.0371 26.2249 50.4634 26.5097 50.9326 26.7041C51.4017 26.8984 51.9046 26.9984 52.4124 26.9984H54.2165L52.9379 28.2378C52.5765 28.5978 52.2897 29.0256 52.094 29.4967C51.8984 29.9678 51.7976 30.473 51.7976 30.9831C51.7976 31.4932 51.8984 31.9984 52.094 32.4695C52.2897 32.9406 52.5765 33.3684 52.9379 33.7284L56.3029 37.0934C56.6624 37.4558 57.0901 37.7434 57.5613 37.9397C58.0325 38.136 58.5379 38.237 59.0483 38.237C59.5587 38.237 60.0641 38.136 60.5353 37.9397C61.0065 37.7434 61.4341 37.4558 61.7936 37.0934L63.0722 35.807V37.619C63.0722 38.6446 63.4796 39.6281 64.2048 40.3534C64.93 41.0786 65.9136 41.486 66.9392 41.486H71.6455C72.6697 41.4839 73.6513 41.0756 74.3748 40.3506C75.0983 39.6256 75.5046 38.6432 75.5046 37.619V35.7757L76.791 37.0621C77.15 37.4254 77.5774 37.7138 78.0487 37.9107C78.52 38.1076 79.0256 38.209 79.5363 38.209C80.0471 38.209 80.5527 38.1076 81.024 37.9107C81.4952 37.7138 81.9227 37.4254 82.2817 37.0621L85.6153 33.7284C85.9786 33.3695 86.2671 32.942 86.464 32.4707C86.6609 31.9995 86.7622 31.4938 86.7622 30.9831C86.7622 30.4724 86.6609 29.9667 86.464 29.4955C86.2671 29.0242 85.9786 28.5967 85.6153 28.2378L84.3368 26.9671H86.1408C87.1651 26.965 88.1467 26.5566 88.8702 25.8317C89.5937 25.1067 90 24.1243 90 23.1001V18.3467C89.9979 17.3238 89.5907 16.3434 88.8674 15.6201C88.1441 14.8969 87.1637 14.4896 86.1408 14.4875ZM86.4468 23.1157C86.4478 23.1562 86.4407 23.1965 86.4257 23.2341C86.4107 23.2717 86.3882 23.3058 86.3596 23.3345C86.3309 23.3631 86.2968 23.3856 86.2592 23.4006C86.2216 23.4156 86.1813 23.4227 86.1408 23.4216H82.8857H82.6896H82.5327L82.3601 23.5315L82.1954 23.5942L82.0464 23.6805L81.9052 23.7668L81.7718 23.8844L81.6542 23.9942C81.6153 24.0367 81.5786 24.0812 81.5444 24.1276L81.4424 24.2688L81.364 24.4178C81.337 24.4739 81.3134 24.5315 81.2934 24.5904C81.2904 24.6138 81.2904 24.6375 81.2934 24.661C81.0803 25.2772 80.818 25.8753 80.509 26.4494V26.5592C80.5057 26.5878 80.5057 26.6168 80.509 26.6455C80.4317 26.8292 80.3917 27.0265 80.3913 27.2259V27.3043C80.3986 27.5055 80.4383 27.7042 80.509 27.8926C80.5077 27.9188 80.5077 27.9449 80.509 27.9711C80.5943 28.1617 80.7109 28.3367 80.8541 28.4888L83.0974 30.7399C83.1266 30.7678 83.1499 30.8012 83.1657 30.8383C83.1816 30.8754 83.1898 30.9153 83.1898 30.9556C83.1898 30.996 83.1816 31.0359 83.1657 31.073C83.1499 31.11 83.1266 31.1435 83.0974 31.1713L79.7403 34.5128C79.7155 34.5468 79.6831 34.5745 79.6456 34.5936C79.6081 34.6127 79.5667 34.6227 79.5246 34.6227C79.4825 34.6227 79.441 34.6127 79.4035 34.5936C79.3661 34.5745 79.3336 34.5468 79.3089 34.5128L77.0655 32.2695C76.9133 32.1286 76.7382 32.0146 76.5478 31.9322H76.4694C76.2831 31.8648 76.0871 31.8277 75.889 31.8224H75.7713C75.5728 31.8239 75.3762 31.8611 75.1909 31.9322H75.1046L74.9948 31.9793C74.4179 32.2774 73.8171 32.5267 73.1985 32.7244H73.1279C73.0686 32.7432 73.0109 32.7668 72.9554 32.795L72.8063 32.8735L72.6652 32.9754L72.5318 33.0852L72.4142 33.2029L72.3043 33.3362L72.2102 33.4853L72.1318 33.6265C72.1075 33.68 72.0865 33.735 72.069 33.7912C72.0472 33.8449 72.0289 33.8999 72.0141 33.9559C72.0141 34.0108 72.0141 34.0657 72.0141 34.1206C72.0102 34.1833 72.0102 34.2462 72.0141 34.3089C72.0141 34.3089 72.0141 34.3559 72.0141 34.3873V37.5248C72.0141 37.6067 71.9822 37.6853 71.925 37.744C71.8679 37.8026 71.7901 37.8365 71.7082 37.8386H67.0019C66.9187 37.8386 66.8389 37.8055 66.7801 37.7467C66.7212 37.6879 66.6882 37.6081 66.6882 37.5248V34.3638V34.1755C66.6919 34.1207 66.6919 34.0657 66.6882 34.0108L66.6411 33.8461L66.5784 33.6814L66.4999 33.5402L66.4058 33.3911L66.296 33.2578L66.1783 33.1401L65.8881 33.0303L65.7548 32.944L65.6136 32.8656L65.4332 32.7872H65.3704C64.7427 32.5778 64.1339 32.3154 63.5506 32.0028L63.4408 31.9636H63.3545C63.1692 31.8925 62.9726 31.8553 62.7741 31.8538H62.6957C62.4945 31.861 62.2958 31.9007 62.1074 31.9714H62.0289C61.8367 32.0538 61.6613 32.1708 61.5112 32.3165L59.2444 34.5128C59.2194 34.5439 59.1877 34.569 59.1518 34.5862C59.1158 34.6035 59.0764 34.6124 59.0365 34.6124C58.9966 34.6124 58.9572 34.6035 58.9213 34.5862C58.8853 34.569 58.8537 34.5439 58.8287 34.5128L55.4558 31.187C55.3988 31.1297 55.3668 31.0522 55.3668 30.9713C55.3668 30.8905 55.3988 30.8129 55.4558 30.7556L57.6756 28.528C57.8222 28.3787 57.9393 28.203 58.0207 28.0103V27.9397C58.0914 27.7512 58.1312 27.5526 58.1384 27.3514V27.273C58.1388 27.068 58.107 26.8642 58.0443 26.669C58.0464 26.6403 58.0464 26.6114 58.0443 26.5827C58.0305 26.5453 58.0148 26.5087 57.9972 26.4729C57.6845 25.8924 57.4221 25.2862 57.2128 24.661V24.5904C57.1915 24.5308 57.1652 24.4731 57.1344 24.4178C57.1147 24.3675 57.0883 24.32 57.056 24.2766L56.954 24.1197L56.852 24.0021L56.7187 23.8687L56.601 23.7746L56.4755 23.6491L56.3579 23.5864C56.2979 23.556 56.2348 23.5323 56.1696 23.5158L56.0363 23.4687H55.848H55.6754H52.4124C52.3719 23.4698 52.3317 23.4626 52.2941 23.4476C52.2565 23.4326 52.2223 23.4101 52.1937 23.3815C52.1651 23.3529 52.1426 23.3187 52.1276 23.2811C52.1126 23.2435 52.1054 23.2033 52.1065 23.1628V18.3467C52.1065 18.2656 52.1387 18.1878 52.1961 18.1304C52.2535 18.073 52.3313 18.0408 52.4124 18.0408H55.5499C55.715 18.0389 55.8789 18.0125 56.0363 17.9624H56.1382C56.2875 17.9093 56.4298 17.8381 56.5618 17.7506L56.6167 17.7035C56.7372 17.6105 56.8453 17.5024 56.9383 17.3819L56.9854 17.3192C57.0856 17.1839 57.1625 17.0328 57.2128 16.8721C57.2143 16.8564 57.2143 16.8407 57.2128 16.825C57.4213 16.1994 57.6838 15.5932 57.9972 15.0131L58.0443 14.9033C58.0476 14.872 58.0476 14.8404 58.0443 14.8091C58.1141 14.6231 58.1539 14.4272 58.1619 14.2287V14.1189C58.1547 13.9177 58.115 13.7191 58.0443 13.5306C58.043 13.5045 58.043 13.4783 58.0443 13.4522C57.9607 13.2629 57.8438 13.0902 57.6991 12.9423V12.9031L55.4558 10.6911C55.3988 10.6338 55.3668 10.5563 55.3668 10.4754C55.3668 10.3946 55.3988 10.317 55.4558 10.2597L58.8287 6.90256C58.886 6.84556 58.9635 6.81357 59.0444 6.81357C59.1252 6.81357 59.2028 6.84556 59.2601 6.90256L61.4642 9.09883H61.5112C61.6495 9.22893 61.8086 9.33498 61.9819 9.41259L62.1309 9.47534C62.3208 9.55049 62.5228 9.59037 62.727 9.59299C62.9284 9.58795 63.1275 9.54814 63.3153 9.47534C63.3558 9.46305 63.3952 9.44731 63.433 9.42827H63.535C64.1182 9.1157 64.727 8.85329 65.3547 8.64389H65.4175L65.5979 8.56545L65.7391 8.48701L65.8803 8.38504L66.0136 8.28308L66.1313 8.15757L66.2332 8.02423C66.2717 7.97774 66.3058 7.92786 66.3352 7.8752C66.3618 7.82976 66.3854 7.78259 66.4058 7.73401C66.4326 7.68057 66.4562 7.62557 66.4764 7.56929L66.5234 7.40457C66.5279 7.35237 66.5279 7.29989 66.5234 7.24769V7.05159V3.85916C66.5255 3.77731 66.5595 3.69951 66.6181 3.64236C66.6767 3.5852 66.7553 3.55323 66.8372 3.55325H71.5435C71.624 3.55524 71.7007 3.58811 71.7576 3.64505C71.8145 3.70199 71.8474 3.77865 71.8494 3.85916V7.05944C71.8494 7.05944 71.8494 7.11435 71.8494 7.13788C71.8458 7.20319 71.8458 7.26866 71.8494 7.33397C71.8494 7.38888 71.8494 7.43594 71.8494 7.49085C71.8641 7.54688 71.8825 7.6019 71.9043 7.65557C71.9218 7.71173 71.9427 7.76674 71.9671 7.82029C71.9671 7.86735 72.022 7.91442 72.0455 7.96932L72.1396 8.11051L72.2494 8.24386L72.3671 8.36151L72.5004 8.47133L72.6416 8.5733L72.9475 8.6282C73.003 8.65642 73.0607 8.68003 73.1201 8.6988H73.1907C73.8094 8.91203 74.41 9.17432 74.9869 9.48318H75.0889L75.2066 9.5224C75.3944 9.59521 75.5934 9.63501 75.7948 9.64006C75.9982 9.63617 76.1996 9.59908 76.391 9.53024L76.54 9.45965C76.7129 9.38482 76.872 9.2814 77.0106 9.15374C77.0106 9.15374 77.0106 9.15374 77.0577 9.15374L79.2697 6.94963C79.327 6.89263 79.4045 6.86063 79.4854 6.86063C79.5662 6.86063 79.6437 6.89263 79.7011 6.94963L83.0582 10.3068C83.0874 10.3346 83.1106 10.3681 83.1265 10.4052C83.1424 10.4422 83.1506 10.4822 83.1506 10.5225C83.1506 10.5628 83.1424 10.6027 83.1265 10.6398C83.1106 10.6769 83.0874 10.7104 83.0582 10.7382L80.8149 12.9894C80.6717 13.1414 80.555 13.3164 80.4698 13.5071C80.4684 13.5332 80.4684 13.5594 80.4698 13.5855C80.3991 13.774 80.3594 13.9726 80.3521 14.1738V14.2522C80.3536 14.4507 80.3908 14.6473 80.4619 14.8327V14.9189V15.0288C80.7725 15.6021 81.0348 16.2003 81.2463 16.8172C81.2463 16.8172 81.2463 16.8172 81.2463 16.8642C81.3047 17.0215 81.381 17.1715 81.4738 17.3113L81.5287 17.3741C81.6198 17.494 81.7281 17.5997 81.8503 17.6878L81.8973 17.7349C82.0303 17.8256 82.1756 17.8969 82.3287 17.9467H82.4307C82.5853 17.9968 82.7466 18.0233 82.9092 18.0251H86.1016C86.1828 18.0251 86.2606 18.0573 86.3179 18.1147C86.3753 18.1721 86.4075 18.2499 86.4075 18.331L86.4468 23.1157Z" fill="#17262F"></path></g><defs><clipPath id="clip0_5678_33259"><rect width="90" height="90" fill="white"></rect></clipPath></defs></svg>