<svg xmlns="http://www.w3.org/2000/svg" width="90" height="67" viewBox="0 0 90 67" fill="none"><g clip-path="url(#clip0_5678_6332)"><path d="M66.7272 66.5346H65.5246C65.3212 66.5348 65.1197 66.4947 64.9318 66.4166C64.744 66.3385 64.5734 66.2241 64.43 66.0798C64.2871 65.9357 64.174 65.7649 64.0973 65.577C64.0206 65.3892 63.9817 65.188 63.9829 64.9851C63.9829 63.3046 58.4634 55.01 51.8415 50.3924C51.5728 50.2048 51.3708 49.9364 51.2649 49.6262C51.159 49.316 51.1547 48.9802 51.2527 48.6674C51.3507 48.3546 51.5457 48.0812 51.8097 47.8868C52.0736 47.6924 52.3926 47.5872 52.7203 47.5864H66.7272C67.1361 47.5864 67.5282 47.7489 67.8174 48.038C68.1065 48.3271 68.2689 48.7193 68.2689 49.1282V64.9928C68.2689 65.4017 68.1065 65.7939 67.8174 66.083C67.5282 66.3722 67.1361 66.5346 66.7272 66.5346ZM57.045 50.6699C60.1691 53.5343 62.9058 56.7944 65.1854 60.3676V50.6699H57.045Z" fill="#17262F"></path><path d="M88.4582 66.5346H66.7272C66.3183 66.5346 65.9261 66.3722 65.637 66.083C65.3479 65.7939 65.1854 65.4017 65.1854 64.9928V49.1282C65.1854 48.7193 65.3479 48.3271 65.637 48.038C65.9261 47.7489 66.3183 47.5864 66.7272 47.5864H88.4582C88.8671 47.5864 89.2593 47.7489 89.5484 48.038C89.8376 48.3271 90 48.7193 90 49.1282V64.9928C90 65.4017 89.8376 65.7939 89.5484 66.083C89.2593 66.3722 88.8671 66.5346 88.4582 66.5346ZM68.269 63.4511H86.9165V50.6699H68.269V63.4511Z" fill="#17262F"></path><path d="M23.2728 34.8052H1.54176C1.13286 34.8052 0.740705 34.6428 0.45157 34.3536C0.162435 34.0645 0 33.6724 0 33.2635V17.4065C0 16.9976 0.162435 16.6055 0.45157 16.3163C0.740705 16.0272 1.13286 15.8647 1.54176 15.8647H23.2728C23.6817 15.8647 24.0739 16.0272 24.363 16.3163C24.6521 16.6055 24.8146 16.9976 24.8146 17.4065V33.2635C24.8146 33.6724 24.6521 34.0645 24.363 34.3536C24.0739 34.6428 23.6817 34.8052 23.2728 34.8052ZM3.08351 31.7217H21.7311V18.9483H3.08351V31.7217Z" fill="#17262F"></path><path d="M45.0039 34.8052H23.2728C22.8639 34.8052 22.4718 34.6428 22.1826 34.3536C21.8935 34.0645 21.731 33.6724 21.731 33.2635V17.4065C21.731 16.9976 21.8935 16.6055 22.1826 16.3163C22.4718 16.0272 22.8639 15.8647 23.2728 15.8647H45.0039C45.4128 15.8647 45.8049 16.0272 46.094 16.3163C46.3832 16.6055 46.5456 16.9976 46.5456 17.4065V33.2635C46.5456 33.6724 46.3832 34.0645 46.094 34.3536C45.8049 34.6428 45.4128 34.8052 45.0039 34.8052ZM24.8146 31.7217H43.4621V18.9483H24.8146V31.7217Z" fill="#17262F"></path><path d="M66.7272 34.8052H45.0039C44.595 34.8052 44.2028 34.6428 43.9137 34.3536C43.6245 34.0645 43.4621 33.6724 43.4621 33.2635V17.4065C43.4621 16.9976 43.6245 16.6055 43.9137 16.3163C44.2028 16.0272 44.595 15.8647 45.0039 15.8647H66.7272C67.1361 15.8647 67.5282 16.0272 67.8174 16.3163C68.1065 16.6055 68.2689 16.9976 68.2689 17.4065V33.2635C68.2689 33.6724 68.1065 34.0645 67.8174 34.3536C67.5282 34.6428 67.1361 34.8052 66.7272 34.8052ZM46.5456 31.7217H65.1854V18.9483H46.5456V31.7217Z" fill="#17262F"></path><path d="M88.4582 34.8052H66.7272C66.3183 34.8052 65.9261 34.6428 65.637 34.3536C65.3479 34.0645 65.1854 33.6724 65.1854 33.2635V17.4065C65.1854 16.9976 65.3479 16.6055 65.637 16.3163C65.9261 16.0272 66.3183 15.8647 66.7272 15.8647H88.4582C88.8671 15.8647 89.2593 16.0272 89.5484 16.3163C89.8376 16.6055 90 16.9976 90 17.4065V33.2635C90 33.6724 89.8376 34.0645 89.5484 34.3536C89.2593 34.6428 88.8671 34.8052 88.4582 34.8052ZM68.269 31.7217H86.9165V18.9483H68.269V31.7217Z" fill="#17262F"></path><path d="M77.5966 50.6699H55.8655C55.4566 50.6699 55.0645 50.5074 54.7753 50.2183C54.4862 49.9291 54.3238 49.537 54.3238 49.1281V33.2634C54.3238 32.8545 54.4862 32.4624 54.7753 32.1732C55.0645 31.8841 55.4566 31.7217 55.8655 31.7217H77.5966C78.0055 31.7217 78.3976 31.8841 78.6868 32.1732C78.9759 32.4624 79.1383 32.8545 79.1383 33.2634V49.1281C79.1383 49.3306 79.0985 49.531 79.021 49.7181C78.9435 49.9052 78.8299 50.0751 78.6868 50.2183C78.5436 50.3614 78.3736 50.475 78.1866 50.5525C77.9995 50.63 77.799 50.6699 77.5966 50.6699ZM57.4073 47.5863H76.0548V34.8052H57.4073V47.5863Z" fill="#17262F"></path><path d="M55.8655 50.6699H52.6818C52.3674 50.6691 52.0608 50.5723 51.803 50.3923C49.2051 48.5885 46.9002 47.7251 45.1503 47.8947C41.1503 48.3158 37.1117 47.6249 33.4792 45.8981C33.2142 45.7737 32.9901 45.5764 32.8332 45.3293C32.6762 45.0822 32.5928 44.7956 32.5927 44.5028V33.2634C32.5927 32.8545 32.7551 32.4624 33.0443 32.1732C33.3334 31.8841 33.7256 31.7217 34.1345 31.7217H55.8655C56.2744 31.7217 56.6666 31.8841 56.9557 32.1732C57.2448 32.4624 57.4073 32.8545 57.4073 33.2634V49.1281C57.4073 49.3306 57.3674 49.531 57.2899 49.7181C57.2124 49.9052 57.0989 50.0751 56.9557 50.2183C56.8125 50.3614 56.6426 50.475 56.4555 50.5525C56.2685 50.63 56.068 50.6699 55.8655 50.6699ZM53.1597 47.5863H54.3238V34.8052H35.6762V43.5007C38.5765 44.7074 41.7342 45.1634 44.8574 44.8266C47.2779 44.5953 50.1071 45.5204 53.1906 47.5863H53.1597Z" fill="#17262F"></path><path d="M66.7272 18.9482H44.9961C44.5872 18.9482 44.1951 18.7857 43.906 18.4966C43.6168 18.2075 43.4544 17.8153 43.4544 17.4064V1.54176C43.4544 1.13286 43.6168 0.740705 43.906 0.45157C44.1951 0.162435 44.5872 0 44.9961 0L66.7272 0C67.1361 0 67.5282 0.162435 67.8174 0.45157C68.1065 0.740705 68.269 1.13286 68.269 1.54176V17.4064C68.269 17.8153 68.1065 18.2075 67.8174 18.4966C67.5282 18.7857 67.1361 18.9482 66.7272 18.9482ZM46.5379 15.8647H65.1854V3.08351H46.5379V15.8647Z" fill="#17262F"></path><path d="M44.9961 18.9482H23.2651C22.8562 18.9482 22.464 18.7857 22.1749 18.4966C21.8858 18.2075 21.7233 17.8153 21.7233 17.4064V1.54176C21.7233 1.13286 21.8858 0.740705 22.1749 0.45157C22.464 0.162435 22.8562 0 23.2651 0L44.9961 0C45.405 0 45.7972 0.162435 46.0863 0.45157C46.3755 0.740705 46.5379 1.13286 46.5379 1.54176V17.4064C46.5379 17.8153 46.3755 18.2075 46.0863 18.4966C45.7972 18.7857 45.405 18.9482 44.9961 18.9482ZM24.8069 15.8647H43.4544V3.08351H24.8069V15.8647Z" fill="#17262F"></path><path d="M34.1345 46.0443C33.9082 46.0418 33.685 45.9919 33.4792 45.8979C30.2975 44.2736 27.3493 42.2278 24.7143 39.8156C19.5495 35.3214 12.3803 34.8049 12.3109 34.7972C11.902 34.7839 11.5151 34.6087 11.2354 34.3102C10.9557 34.0117 10.806 33.6143 10.8193 33.2054C10.8326 32.7965 11.0077 32.4096 11.3063 32.1298C11.6048 31.8501 12.0022 31.7004 12.4111 31.7137H34.1345C34.5434 31.7137 34.9355 31.8761 35.2247 32.1653C35.5138 32.4544 35.6762 32.8466 35.6762 33.2555V44.5026C35.6763 44.7626 35.6106 45.0183 35.4852 45.2461C35.3599 45.4739 35.179 45.6663 34.9593 45.8054C34.7125 45.9615 34.4265 46.0444 34.1345 46.0443ZM22.8257 34.8049C24.2255 35.5489 25.5366 36.4488 26.734 37.4876C28.5596 39.124 30.5193 40.6041 32.5927 41.9124V34.8049H22.8257Z" fill="#17262F"></path><path d="M65.5246 66.5344H1.54176C1.13286 66.5344 0.740705 66.3719 0.45157 66.0828C0.162435 65.7937 0 65.4015 0 64.9926V49.1279C0 48.719 0.162435 48.3269 0.45157 48.0378C0.740705 47.7486 1.13286 47.5862 1.54176 47.5862H10.8694V33.2633C10.8689 33.0521 10.9119 32.8431 10.9955 32.6492C11.0792 32.4553 11.2018 32.2806 11.3558 32.1361C11.5097 31.9915 11.6917 31.8801 11.8905 31.8088C12.0893 31.7375 12.3006 31.7078 12.5113 31.7215C12.8428 31.7215 20.7983 32.3151 26.734 37.4877C29.1564 39.7121 31.8657 41.6021 34.7897 43.1074C37.9207 44.6046 41.407 45.1999 44.8574 44.8264C47.3859 44.5798 50.3152 45.5973 53.5606 47.8637C59.7507 52.1729 67.0664 61.462 67.0664 65.0003C67.0643 65.4079 66.901 65.7981 66.6121 66.0855C66.3232 66.373 65.9322 66.5344 65.5246 66.5344ZM3.08351 63.4509H63.4124C60.51 58.3257 56.5531 53.8747 51.803 50.3922C49.2051 48.5883 46.9002 47.7172 45.1503 47.8945C41.1505 48.3117 37.113 47.621 33.4792 45.898C30.2975 44.2737 27.3493 42.2279 24.7143 39.8157C21.0681 36.6397 16.3889 35.4526 13.9221 35.0209V49.1279C13.9221 49.5368 13.7596 49.929 13.4705 50.2181C13.1813 50.5073 12.7892 50.6697 12.3803 50.6697H3.08351V63.4509Z" fill="#17262F"></path></g><defs><clipPath id="clip0_5678_6332"><rect width="90" height="66.5345" fill="white"></rect></clipPath></defs></svg>