<svg xmlns="http://www.w3.org/2000/svg" width="100" height="70" viewBox="0 0 100 70" fill="none"><g clip-path="url(#clip0_5678_33238)"><path d="M97.9947 69.788H2.01412C1.73899 69.8063 1.46305 69.7678 1.20338 69.6751C0.943717 69.5824 0.705856 69.4373 0.504536 69.2489C0.303216 69.0605 0.142725 68.8327 0.0330039 68.5798C-0.0767173 68.3268 -0.133331 68.054 -0.133331 67.7783C-0.133331 67.5026 -0.0767173 67.2298 0.0330039 66.9768C0.142725 66.7239 0.303216 66.4961 0.504536 66.3077C0.705856 66.1193 0.943717 65.9742 1.20338 65.8815C1.46305 65.7888 1.73899 65.7503 2.01412 65.7686H97.9947C98.5047 65.8024 98.9827 66.0289 99.332 66.402C99.6812 66.7752 99.8755 67.2672 99.8755 67.7783C99.8755 68.2894 99.6812 68.7814 99.332 69.1546C98.9827 69.5277 98.5047 69.7542 97.9947 69.788Z" fill="#17262F"></path><path d="M78.2597 52.5353C76.7113 52.537 75.1972 52.0795 73.9089 51.2205C72.6207 50.3616 71.6161 49.1398 71.0223 47.7098C70.4286 46.2798 70.2723 44.7058 70.5733 43.1869C70.8743 41.6681 71.6191 40.2726 72.7133 39.1772C73.8076 38.0817 75.2022 37.3354 76.7207 37.0326C78.2392 36.7299 79.8133 36.8844 81.244 37.4765C82.6747 38.0687 83.8976 39.0719 84.758 40.3592C85.6185 41.6465 86.0777 43.1601 86.0777 44.7084C86.0777 46.7827 85.2543 48.7722 83.7884 50.2397C82.3225 51.7073 80.334 52.533 78.2597 52.5353ZM78.2597 40.9099C77.5059 40.9081 76.7686 41.1301 76.1411 41.5478C75.5136 41.9655 75.0242 42.5601 74.735 43.2562C74.4457 43.9522 74.3696 44.7185 74.5162 45.4579C74.6628 46.1973 75.0256 46.8765 75.5586 47.4095C76.0916 47.9425 76.7709 48.3053 77.5103 48.452C78.2496 48.5986 79.0159 48.5224 79.712 48.2332C80.4081 47.9439 81.0026 47.4545 81.4203 46.8271C81.838 46.1996 82.06 45.4622 82.0583 44.7084C82.056 43.7017 81.655 42.7369 80.9431 42.025C80.2313 41.3131 79.2664 40.9122 78.2597 40.9099Z" fill="#17262F"></path><path d="M100 54.5229C100 29.5406 88.4275 23.3038 87.9328 23.0476C87.5589 22.8604 87.1364 22.7925 86.7226 22.8533L50.0972 28.2155C49.0018 28.3392 45.5919 28.6395 45.4682 27.6413C45.265 25.9982 45.2032 25.4946 50.3887 24.4699C50.7862 24.3904 81.8904 18.2862 89.841 16.7844C96.9964 15.4416 98.0035 9.4964 97.5442 6.53704V6.38686C96.0601 0.0529405 89.3551 -0.424091 85.9452 0.203117L30.0795 12.5264C27.4883 12.8425 24.9874 13.6773 22.726 14.9811C20.4645 16.2848 18.4889 18.0308 16.9169 20.1148C14.2138 23.7367 12.9328 26.8639 10.6095 32.5529C8.56889 37.5353 5.7862 44.3462 0.538853 55.1854C0.138777 55.9943 -0.0481477 56.892 -0.0042114 57.7933C0.0397249 58.6947 0.313067 59.5699 0.789919 60.336C1.26677 61.1022 1.93134 61.7339 2.72066 62.1713C3.50998 62.6088 4.39792 62.8374 5.30034 62.8356H95.8127C96.254 62.8358 96.6908 62.7475 97.0975 62.5761C97.5041 62.4046 97.8722 62.1535 98.1802 61.8374C98.6396 61.3692 100.035 59.9646 100 54.5759V54.5229ZM95.4063 58.8074H5.30034C5.08181 58.8082 4.86665 58.7536 4.67505 58.6485C4.48344 58.5434 4.32168 58.3914 4.20493 58.2066C4.08564 58.0182 4.01653 57.8024 4.00416 57.5798C3.99179 57.3571 4.03658 57.135 4.13426 56.9346C6.66959 51.7049 8.63073 47.4116 10.2208 43.7985L30.5389 38.6572C31.0512 38.521 31.4892 38.1883 31.7579 37.7313C32.0265 37.2743 32.1041 36.7298 31.9739 36.2159C31.8437 35.702 31.5161 35.2602 31.0623 34.9862C30.6084 34.7123 30.0648 34.6283 29.5495 34.7526L12.1908 39.1695C12.9858 37.2791 13.6661 35.636 14.2844 34.1077C16.4841 28.719 17.6943 25.7597 20.0972 22.5441C21.3493 20.8811 22.9272 19.4907 24.7346 18.4579C26.5421 17.425 28.5411 16.7715 30.6095 16.537H30.8039L86.7403 4.15188C86.9788 4.09888 92.553 3.10948 93.5954 7.22609C93.6837 7.9593 93.9753 11.9257 89.1078 12.8356C81.1572 14.3462 49.9646 20.4593 49.6201 20.53C43.6219 21.7137 40.8745 23.1801 41.4841 28.136C41.9258 31.7225 45.2738 32.3851 47.9328 32.3851C48.8189 32.3774 49.7038 32.3184 50.583 32.2084H50.6449L86.5813 26.9081C88.5601 28.3127 95.9805 34.8586 95.9805 54.5494C96.0783 55.9929 95.883 57.4413 95.4063 58.8074Z" fill="#17262F"></path></g><defs><clipPath id="clip0_5678_33238"><rect width="100" height="69.8145" fill="white"></rect></clipPath></defs></svg>