<svg xmlns="http://www.w3.org/2000/svg" width="111" height="100" viewBox="0 0 111 100" fill="none"><g clip-path="url(#clip0_5678_16085)"><path d="M85.8927 3.56522H18.6239C18.5398 3.56522 18.4591 3.53181 18.3996 3.47234C18.3401 3.41286 18.3067 3.3322 18.3067 3.24809C18.3067 3.20689 18.315 3.1661 18.331 3.12815C18.3471 3.0902 18.3706 3.05586 18.4002 3.02718C18.4298 2.99849 18.4648 2.97605 18.5032 2.96117C18.5417 2.94629 18.5827 2.93929 18.6239 2.94058H85.8927C85.9743 2.94058 86.0525 2.97298 86.1102 3.03065C86.1679 3.08832 86.2003 3.16654 86.2003 3.24809C86.2015 3.28928 86.1945 3.3303 86.1797 3.36873C86.1648 3.40715 86.1423 3.4422 86.1137 3.47178C86.085 3.50136 86.0506 3.52488 86.0127 3.54093C85.9747 3.55698 85.9339 3.56524 85.8927 3.56522Z" fill="#17262F"></path><path d="M85.8927 0.624488H18.6239C18.5414 0.624526 18.4622 0.592437 18.4029 0.535028C18.3437 0.477618 18.3092 0.399403 18.3067 0.316973C18.3066 0.272787 18.3156 0.22905 18.3333 0.188567C18.351 0.148084 18.377 0.111748 18.4096 0.0818901C18.4421 0.052032 18.4806 0.0293104 18.5225 0.0151822C18.5643 0.00105408 18.6087 -0.00416877 18.6527 -0.000151414H85.9216C85.9628 -0.000171539 86.0036 0.0080895 86.0415 0.024141C86.0795 0.0401926 86.1138 0.0637072 86.1425 0.0932882C86.1712 0.122869 86.1936 0.157913 86.2085 0.196339C86.2234 0.234765 86.2304 0.275789 86.2291 0.316973C86.2293 0.359901 86.2205 0.402394 86.2033 0.441715C86.186 0.481037 86.1608 0.516316 86.1291 0.545283C86.0974 0.57425 86.06 0.596262 86.0193 0.609904C85.9786 0.623545 85.9355 0.628513 85.8927 0.624488Z" fill="#17262F"></path><path d="M61.6375 55.3525H55.5641C55.48 55.3525 55.3993 55.3191 55.3399 55.2597C55.2804 55.2002 55.247 55.1195 55.247 55.0354V49.1446C55.247 49.1034 55.2552 49.0626 55.2713 49.0246C55.2873 48.9867 55.3108 48.9523 55.3404 48.9237C55.37 48.895 55.405 48.8725 55.4435 48.8577C55.4819 48.8428 55.5229 48.8358 55.5641 48.8371H61.6375C61.7191 48.8371 61.7973 48.8695 61.855 48.9271C61.9126 48.9848 61.945 49.063 61.945 49.1446V55.0354C61.9463 55.0766 61.9393 55.1176 61.9244 55.156C61.9096 55.1945 61.8871 55.2295 61.8584 55.2591C61.8297 55.2887 61.7954 55.3122 61.7575 55.3282C61.7195 55.3443 61.6787 55.3526 61.6375 55.3525ZM55.8716 54.7279H61.3204V49.4617H55.8716V54.7279Z" fill="#17262F"></path><path d="M57.1785 58.62C57.0961 58.6175 57.0179 58.583 56.9605 58.5238C56.9031 58.4646 56.871 58.3854 56.871 58.3029V55.0356C56.884 54.9621 56.9224 54.8956 56.9795 54.8477C57.0366 54.7997 57.1088 54.7734 57.1834 54.7734C57.2579 54.7734 57.3301 54.7997 57.3872 54.8477C57.4443 54.8956 57.4827 54.9621 57.4957 55.0356V58.3414C57.4862 58.4186 57.4487 58.4897 57.3902 58.5411C57.3317 58.5925 57.2564 58.6206 57.1785 58.62Z" fill="#17262F"></path><path d="M60.0134 58.6199C59.9722 58.6199 59.9315 58.6117 59.8935 58.5956C59.8556 58.5796 59.8212 58.5561 59.7925 58.5265C59.7638 58.4969 59.7414 58.4619 59.7265 58.4234C59.7116 58.385 59.7046 58.344 59.7059 58.3028V55.0354C59.7059 54.9539 59.7383 54.8757 59.796 54.818C59.8537 54.7603 59.9319 54.7279 60.0134 54.7279C60.0546 54.7266 60.0957 54.7336 60.1341 54.7485C60.1725 54.7634 60.2075 54.7858 60.2371 54.8145C60.2667 54.8432 60.2902 54.8776 60.3063 54.9155C60.3223 54.9535 60.3306 54.9942 60.3306 55.0354V58.3412C60.3211 58.4185 60.2836 58.4896 60.2251 58.541C60.1666 58.5924 60.0913 58.6205 60.0134 58.6199Z" fill="#17262F"></path><path d="M51.4895 72.0736C51.7275 72.0736 51.9601 72.1444 52.1579 72.2768C52.3556 72.4092 52.5096 72.5974 52.6002 72.8174C52.6908 73.0375 52.714 73.2795 52.6669 73.5128C52.6198 73.7461 52.5044 73.9601 52.3354 74.1277C52.1665 74.2953 51.9516 74.4089 51.7179 74.4542C51.4843 74.4994 51.2424 74.4743 51.0231 74.3819C50.8038 74.2895 50.6169 74.134 50.486 73.9352C50.3552 73.7364 50.2864 73.5032 50.2883 73.2653C50.2908 72.9483 50.4185 72.6453 50.6435 72.4221C50.8685 72.1989 51.1726 72.0736 51.4895 72.0736ZM51.4895 71.449C51.1276 71.4471 50.7732 71.5528 50.4715 71.7527C50.1698 71.9526 49.9343 72.2377 49.7949 72.5717C49.6555 72.9057 49.6185 73.2736 49.6887 73.6287C49.7588 73.9838 49.9329 74.31 50.1888 74.5659C50.4448 74.8219 50.771 74.996 51.1261 75.0661C51.4811 75.1362 51.8491 75.0993 52.1831 74.9599C52.5171 74.8205 52.8022 74.585 53.0021 74.2833C53.202 73.9815 53.3077 73.6272 53.3058 73.2653C53.3032 72.7843 53.1111 72.3238 52.771 71.9838C52.4309 71.6437 51.9704 71.4515 51.4895 71.449Z" fill="#17262F"></path><path d="M51.4895 78.4643C51.7271 78.4643 51.9594 78.5347 52.1569 78.6667C52.3544 78.7987 52.5084 78.9863 52.5993 79.2058C52.6902 79.4253 52.714 79.6668 52.6677 79.8998C52.6213 80.1329 52.5069 80.3469 52.3389 80.5149C52.1709 80.6829 51.9569 80.7973 51.7239 80.8436C51.4909 80.89 51.2493 80.8662 51.0298 80.7753C50.8103 80.6844 50.6227 80.5304 50.4907 80.3329C50.3588 80.1353 50.2883 79.9031 50.2883 79.6655C50.2883 79.3469 50.4149 79.0414 50.6401 78.8161C50.8654 78.5908 51.1709 78.4643 51.4895 78.4643ZM51.4895 77.8396C51.128 77.8377 50.7741 77.9432 50.4725 78.1427C50.171 78.3421 49.9355 78.6266 49.7958 78.9601C49.6561 79.2935 49.6186 79.661 49.688 80.0158C49.7573 80.3706 49.9305 80.6968 50.1854 80.9531C50.4404 81.2095 50.7657 81.3843 51.1202 81.4555C51.4746 81.5268 51.8422 81.4912 52.1764 81.3533C52.5106 81.2154 52.7963 80.9813 52.9974 80.6809C53.1985 80.3804 53.3058 80.027 53.3058 79.6655C53.3058 79.1829 53.1148 78.7199 52.7744 78.3778C52.4341 78.0357 51.9721 77.8422 51.4895 77.8396Z" fill="#17262F"></path><path d="M65.7121 72.0736C65.9501 72.0736 66.1827 72.1443 66.3804 72.2767C66.5782 72.4092 66.7321 72.5973 66.8228 72.8174C66.9134 73.0375 66.9366 73.2795 66.8895 73.5128C66.8423 73.746 66.727 73.96 66.558 74.1277C66.3891 74.2953 66.1741 74.4089 65.9405 74.4542C65.7068 74.4994 65.465 74.4742 65.2457 74.3819C65.0264 74.2895 64.8394 74.134 64.7086 73.9352C64.5778 73.7364 64.5089 73.5032 64.5108 73.2652C64.5134 72.9483 64.6411 72.6452 64.8661 72.422C65.0911 72.1988 65.3951 72.0736 65.7121 72.0736ZM65.7121 71.449C65.3505 71.449 64.9972 71.5563 64.6967 71.7574C64.3962 71.9584 64.1622 72.2442 64.0243 72.5784C63.8864 72.9125 63.8508 73.2802 63.922 73.6346C63.9933 73.9891 64.1681 74.3144 64.4244 74.5693C64.6807 74.8243 65.007 74.9974 65.3618 75.0668C65.7166 75.1362 66.084 75.0986 66.4175 74.959C66.7509 74.8193 67.0354 74.5838 67.2349 74.2822C67.4344 73.9807 67.5398 73.6268 67.5379 73.2652C67.5354 72.7827 67.3419 72.3207 66.9998 71.9804C66.6576 71.64 66.1947 71.449 65.7121 71.449Z" fill="#17262F"></path><path d="M65.7121 78.4642C65.9497 78.4642 66.1819 78.5347 66.3795 78.6667C66.577 78.7987 66.731 78.9863 66.8219 79.2058C66.9128 79.4253 66.9366 79.6668 66.8902 79.8998C66.8439 80.1328 66.7295 80.3469 66.5615 80.5149C66.3935 80.6829 66.1795 80.7973 65.9464 80.8436C65.7134 80.89 65.4719 80.8662 65.2524 80.7753C65.0329 80.6843 64.8453 80.5304 64.7133 80.3328C64.5813 80.1353 64.5109 79.9031 64.5109 79.6655C64.5109 79.3469 64.6374 79.0413 64.8627 78.8161C65.088 78.5908 65.3935 78.4642 65.7121 78.4642ZM65.7121 77.8396C65.351 77.8396 64.998 77.9467 64.6977 78.1473C64.3974 78.3479 64.1634 78.6331 64.0252 78.9667C63.887 79.3004 63.8509 79.6675 63.9213 80.0217C63.9918 80.3759 64.1657 80.7012 64.421 80.9566C64.6764 81.2119 65.0017 81.3858 65.3559 81.4563C65.7101 81.5267 66.0772 81.4906 66.4108 81.3524C66.7445 81.2142 67.0296 80.9801 67.2303 80.6799C67.4309 80.3796 67.538 80.0266 67.538 79.6655C67.538 79.1812 67.3456 78.7168 67.0032 78.3744C66.6608 78.032 66.1963 77.8396 65.7121 77.8396Z" fill="#17262F"></path><path d="M58.5143 73.2557C58.7523 73.2538 58.9855 73.3227 59.1843 73.4535C59.3831 73.5843 59.5385 73.7713 59.6309 73.9906C59.7233 74.2099 59.7485 74.4517 59.7032 74.6854C59.658 74.919 59.5443 75.134 59.3767 75.3029C59.2091 75.4719 58.9951 75.5872 58.7618 75.6344C58.5286 75.6815 58.2865 75.6583 58.0665 75.5677C57.8464 75.477 57.6582 75.3231 57.5258 75.1253C57.3934 74.9276 57.3227 74.695 57.3227 74.457C57.3227 74.14 57.4479 73.836 57.6711 73.611C57.8943 73.386 58.1974 73.2583 58.5143 73.2557ZM58.5143 72.6311C58.1532 72.6311 57.8002 72.7382 57.4999 72.9388C57.1997 73.1394 56.9656 73.4246 56.8274 73.7582C56.6892 74.0919 56.6531 74.459 56.7235 74.8132C56.794 75.1674 56.9679 75.4927 57.2232 75.7481C57.4786 76.0034 57.8039 76.1773 58.1581 76.2478C58.5123 76.3182 58.8794 76.2821 59.213 76.1439C59.5467 76.0057 59.8318 75.7716 60.0325 75.4714C60.2331 75.1711 60.3402 74.8181 60.3402 74.457C60.3402 73.9727 60.1478 73.5083 59.8054 73.1659C59.463 72.8235 58.9986 72.6311 58.5143 72.6311Z" fill="#17262F"></path><path d="M58.5143 79.4444C58.7527 79.4425 58.9863 79.5116 59.1853 79.6429C59.3843 79.7741 59.5397 79.9616 59.6318 80.1815C59.724 80.4014 59.7486 80.6437 59.7025 80.8776C59.6565 81.1115 59.5419 81.3264 59.3733 81.495C59.2047 81.6636 58.9898 81.7782 58.7559 81.8242C58.522 81.8703 58.2797 81.8457 58.0598 81.7536C57.8399 81.6615 57.6524 81.506 57.5211 81.307C57.3899 81.108 57.3208 80.8744 57.3227 80.636C57.3252 80.3208 57.4516 80.0191 57.6745 79.7962C57.8974 79.5733 58.1991 79.4469 58.5143 79.4444ZM58.5143 78.8198C58.1528 78.8198 57.7994 78.9271 57.4989 79.1282C57.1985 79.3292 56.9644 79.615 56.8265 79.9492C56.6886 80.2834 56.653 80.651 56.7243 81.0054C56.7955 81.3599 56.9704 81.6852 57.2267 81.9401C57.483 82.1951 57.8092 82.3682 58.164 82.4376C58.5189 82.507 58.8863 82.4694 59.2197 82.3298C59.5532 82.1901 59.8377 81.9546 60.0372 81.653C60.2366 81.3515 60.3421 80.9976 60.3402 80.636C60.3427 80.3951 60.2973 80.1561 60.2066 79.9329C60.1159 79.7096 59.9816 79.5067 59.8117 79.3359C59.6418 79.1651 59.4395 79.0298 59.2168 78.9378C58.9941 78.8459 58.7553 78.7993 58.5143 78.8006V78.8198Z" fill="#17262F"></path><path d="M58.5047 70.8725C58.0153 70.8776 57.5297 70.7853 57.0763 70.6009C56.6228 70.4165 56.2106 70.1438 55.8636 69.7986C55.5166 69.4534 55.2417 69.0426 55.055 68.5901C54.8683 68.1376 54.7735 67.6525 54.7761 67.1631V63.79C54.7814 63.7074 54.8154 63.6292 54.8722 63.569C54.9015 63.5407 54.9361 63.5184 54.974 63.5036C55.012 63.4887 55.0525 63.4816 55.0932 63.4825H61.8201C61.9017 63.4825 61.9799 63.5149 62.0375 63.5726C62.0952 63.6302 62.1276 63.7085 62.1276 63.79V67.1631C62.1251 68.1384 61.7365 69.0731 61.0468 69.7628C60.3571 70.4525 59.4224 70.8411 58.447 70.8436L58.5047 70.8725ZM55.4488 64.1456V67.2015C55.4462 67.6041 55.523 68.0032 55.6748 68.3761C55.8265 68.749 56.0502 69.0884 56.333 69.3748C56.6159 69.6613 56.9524 69.8892 57.3234 70.0456C57.6944 70.202 58.0925 70.2838 58.4951 70.2863C59.3048 70.2837 60.0806 69.961 60.6532 69.3884C61.2257 68.8159 61.5485 68.04 61.551 67.2303V64.1648L55.4488 64.1456Z" fill="#17262F"></path><path d="M58.5047 69.5271C58.2146 69.5287 57.9271 69.4717 57.6596 69.3594C57.392 69.2471 57.15 69.0819 56.9479 68.8737C56.7436 68.6692 56.5816 68.4264 56.4711 68.1593C56.3606 67.8922 56.3039 67.6059 56.304 67.3169C56.3091 66.7331 56.5439 66.1748 56.9576 65.763C57.3713 65.3511 57.9305 65.1187 58.5143 65.1162C58.8041 65.1175 59.0908 65.1759 59.358 65.2883C59.6251 65.4007 59.8674 65.5647 60.071 65.7709C60.2746 65.9772 60.4354 66.2217 60.5443 66.4902C60.6532 66.7588 60.7079 67.0463 60.7054 67.3361C60.7028 67.9181 60.4698 68.4753 60.0574 68.886C59.645 69.2966 59.0867 69.5271 58.5047 69.5271ZM58.5047 65.7409C58.1922 65.7415 57.8868 65.8345 57.6269 66.0082C57.367 66.1818 57.1643 66.4284 57.0442 66.717C56.924 67.0055 56.8918 67.3231 56.9517 67.6299C57.0115 67.9367 57.1606 68.2189 57.3803 68.4412C57.5264 68.588 57.7002 68.7043 57.8915 68.7835C58.0829 68.8627 58.288 68.9031 58.4951 68.9025C58.901 68.8938 59.2887 68.7326 59.581 68.4508C59.728 68.303 59.8445 68.1275 59.9236 67.9346C60.0028 67.7417 60.0431 67.535 60.0423 67.3265C60.0429 67.1194 60.0024 66.9143 59.9233 66.7229C59.8441 66.5316 59.7278 66.3578 59.581 66.2117C59.2905 65.9305 58.9084 65.7633 58.5047 65.7409Z" fill="#17262F"></path><path d="M62.464 62.3101H54.6127C54.5303 62.3076 54.4521 62.2731 54.3947 62.2139C54.3373 62.1546 54.3052 62.0754 54.3052 61.9929C54.3077 61.1832 54.6305 60.4074 55.2031 59.8349C55.7756 59.2623 56.5514 58.9395 57.3611 58.937H59.6771C60.4876 58.937 61.2649 59.259 61.838 59.8321C62.4111 60.4052 62.733 61.1825 62.733 61.9929C62.7339 62.0693 62.7072 62.1435 62.6577 62.2018C62.6083 62.26 62.5395 62.2985 62.464 62.3101ZM54.9971 61.6854H62.1372C62.0551 61.0946 61.7595 60.5543 61.3063 60.1666C60.853 59.7789 60.2735 59.5705 59.6771 59.5809H57.3611C56.773 59.5822 56.2051 59.7959 55.7619 60.1825C55.3188 60.5692 55.0301 61.1029 54.9491 61.6854H54.9971Z" fill="#17262F"></path><path d="M55.5641 49.4616C55.48 49.4616 55.3993 49.4282 55.3399 49.3687C55.2804 49.3093 55.247 49.2286 55.247 49.1445V44.3396C55.247 44.2555 55.2804 44.1748 55.3399 44.1153C55.3993 44.0559 55.48 44.0225 55.5641 44.0225C55.6053 44.0224 55.6461 44.0307 55.684 44.0468C55.722 44.0628 55.7563 44.0863 55.785 44.1159C55.8137 44.1455 55.8361 44.1805 55.851 44.219C55.8659 44.2574 55.8729 44.2984 55.8716 44.3396V49.1445C55.8729 49.1857 55.8659 49.2267 55.851 49.2651C55.8361 49.3036 55.8137 49.3386 55.785 49.3682C55.7563 49.3978 55.722 49.4213 55.684 49.4373C55.6461 49.4534 55.6053 49.4617 55.5641 49.4616Z" fill="#17262F"></path><path d="M61.6375 49.4616C61.5534 49.4616 61.4728 49.4282 61.4133 49.3687C61.3538 49.3093 61.3204 49.2286 61.3204 49.1445V44.3396C61.3204 44.2555 61.3538 44.1748 61.4133 44.1153C61.4728 44.0559 61.5534 44.0225 61.6375 44.0225C61.6787 44.0224 61.7195 44.0307 61.7575 44.0468C61.7954 44.0628 61.8298 44.0863 61.8584 44.1159C61.8871 44.1455 61.9096 44.1805 61.9245 44.219C61.9393 44.2574 61.9463 44.2984 61.945 44.3396V49.1445C61.9463 49.1857 61.9393 49.2267 61.9245 49.2651C61.9096 49.3036 61.8871 49.3386 61.8584 49.3682C61.8298 49.3978 61.7954 49.4213 61.7575 49.4373C61.7195 49.4534 61.6787 49.4617 61.6375 49.4616Z" fill="#17262F"></path><path d="M58.6777 31.7798H52.7869C52.7027 31.7798 52.6221 31.7463 52.5626 31.6869C52.5031 31.6274 52.4697 31.5467 52.4697 31.4626V25.3892C52.4697 25.348 52.478 25.3072 52.494 25.2693C52.5101 25.2313 52.5336 25.197 52.5632 25.1683C52.5928 25.1396 52.6278 25.1172 52.6662 25.1023C52.7046 25.0874 52.7457 25.0804 52.7869 25.0817H58.6777C58.7189 25.0804 58.7599 25.0874 58.7983 25.1023C58.8367 25.1172 58.8718 25.1396 58.9014 25.1683C58.931 25.197 58.9545 25.2313 58.9705 25.2693C58.9866 25.3072 58.9948 25.348 58.9948 25.3892V31.4626C58.9948 31.5467 58.9614 31.6274 58.9019 31.6869C58.8425 31.7463 58.7618 31.7798 58.6777 31.7798ZM53.0944 31.1551H58.3702V25.7063H53.0944V31.1551Z" fill="#17262F"></path><path d="M61.1859 30.1556H58.6777C58.5961 30.1556 58.5179 30.1232 58.4602 30.0656C58.4026 30.0079 58.3702 29.9297 58.3702 29.8481C58.3689 29.8069 58.3759 29.7659 58.3908 29.7275C58.4056 29.6891 58.4281 29.654 58.4568 29.6244C58.4855 29.5949 58.5198 29.5714 58.5577 29.5553C58.5957 29.5392 58.6365 29.531 58.6777 29.531H61.1859C61.2271 29.531 61.2679 29.5392 61.3058 29.5553C61.3438 29.5714 61.3781 29.5949 61.4068 29.6244C61.4355 29.654 61.4579 29.6891 61.4728 29.7275C61.4877 29.7659 61.4947 29.8069 61.4934 29.8481C61.4934 29.9297 61.461 30.0079 61.4033 30.0656C61.3456 30.1232 61.2674 30.1556 61.1859 30.1556Z" fill="#17262F"></path><path d="M63.867 27.3302H58.6777C58.6365 27.3302 58.5957 27.322 58.5577 27.3059C58.5198 27.2899 58.4855 27.2663 58.4568 27.2368C58.4281 27.2072 58.4056 27.1721 58.3908 27.1337C58.3759 27.0953 58.3689 27.0543 58.3702 27.0131C58.3702 26.9315 58.4026 26.8533 58.4602 26.7956C58.5179 26.738 58.5961 26.7056 58.6777 26.7056H63.867C63.9486 26.7056 64.0268 26.738 64.0844 26.7956C64.1421 26.8533 64.1745 26.9315 64.1745 27.0131C64.1758 27.0543 64.1688 27.0953 64.1539 27.1337C64.1391 27.1721 64.1166 27.2072 64.0879 27.2368C64.0592 27.2663 64.0249 27.2899 63.9869 27.3059C63.949 27.322 63.9082 27.3302 63.867 27.3302Z" fill="#17262F"></path><path d="M58.447 44.7049C57.8626 44.7076 57.2834 44.5934 56.7438 44.369C56.2041 44.1445 55.7148 43.8144 55.3046 43.398C54.8932 42.9866 54.5668 42.4982 54.3441 41.9606C54.1214 41.4231 54.0068 40.847 54.0068 40.2651C54.0068 39.6833 54.1214 39.1072 54.3441 38.5697C54.5668 38.0321 54.8932 37.5437 55.3046 37.1323L67.2689 25.1585C68.1013 24.3269 69.2299 23.8599 70.4065 23.8599C71.5831 23.8599 72.7116 24.3269 73.5441 25.1585C74.371 25.9934 74.8348 27.121 74.8348 28.2961C74.8348 29.4712 74.371 30.5988 73.5441 31.4337L61.5799 43.398C61.1712 43.8136 60.6835 44.1434 60.1454 44.3678C59.6074 44.5923 59.03 44.7069 58.447 44.7049ZM70.4113 24.5242C69.9113 24.5227 69.416 24.6204 68.9541 24.8118C68.4922 25.0031 68.0729 25.2843 67.7205 25.639L55.7371 37.5744C55.3006 37.9068 54.9402 38.3288 54.6804 38.812C54.4205 39.2952 54.2671 39.8284 54.2304 40.3758C54.1938 40.9233 54.2747 41.4722 54.4679 41.9857C54.661 42.4993 54.9618 42.9655 55.3501 43.3531C55.7384 43.7408 56.2052 44.0408 56.7191 44.233C57.233 44.4252 57.7821 44.5052 58.3294 44.4675C58.8768 44.4299 59.4098 44.2755 59.8925 44.0148C60.3752 43.7541 60.7966 43.393 61.1282 42.9559L73.1117 30.9916C73.6294 30.4525 73.9788 29.7741 74.1169 29.0395C74.2551 28.3048 74.176 27.5459 73.8895 26.8555C73.6029 26.1651 73.1213 25.5732 72.5035 25.1523C71.8857 24.7314 71.1587 24.4998 70.4113 24.4858V24.5242Z" fill="#17262F"></path><path d="M58.62 43.2923C58.1002 43.2927 57.5883 43.165 57.1296 42.9203C56.6709 42.6757 56.2796 42.3218 55.9904 41.8898C55.7011 41.4579 55.5228 40.9613 55.4713 40.444C55.4198 39.9267 55.4966 39.4047 55.695 38.9242C55.8933 38.4437 56.2071 38.0195 56.6085 37.6892C57.0099 37.3589 57.4866 37.1327 57.9963 37.0306C58.506 36.9285 59.033 36.9536 59.5307 37.1038C60.0284 37.254 60.4814 37.5245 60.8495 37.8915C61.2925 38.3331 61.5945 38.8962 61.7174 39.5096C61.8403 40.1229 61.7785 40.7589 61.5398 41.337C61.3011 41.9152 60.8963 42.4096 60.3766 42.7576C59.8568 43.1057 59.2455 43.2917 58.62 43.2923ZM58.62 37.5936C58.0336 37.5973 57.4665 37.804 57.0153 38.1786C56.5641 38.5532 56.2566 39.0726 56.1451 39.6483C56.0336 40.2241 56.125 40.8207 56.4038 41.3366C56.6826 41.8526 57.1316 42.256 57.6743 42.4783C58.217 42.7006 58.8199 42.728 59.3805 42.5558C59.9412 42.3837 60.4248 42.0226 60.7493 41.5341C61.0737 41.0455 61.2188 40.4597 61.16 39.8762C61.1012 39.2927 60.8421 38.7476 60.4267 38.3336C59.9449 37.8594 59.296 37.5936 58.62 37.5936Z" fill="#17262F"></path><path d="M58.62 41.3222C58.2966 41.3201 57.9865 41.1927 57.7551 40.9667C57.528 40.738 57.4006 40.4288 57.4006 40.1066C57.4006 39.7843 57.528 39.4751 57.7551 39.2465C57.8677 39.1329 58.0017 39.0427 58.1493 38.9812C58.2969 38.9196 58.4553 38.8879 58.6152 38.8879C58.7752 38.8879 58.9335 38.9196 59.0811 38.9812C59.2288 39.0427 59.3627 39.1329 59.4753 39.2465C59.7024 39.4751 59.8299 39.7843 59.8299 40.1066C59.8299 40.4288 59.7024 40.738 59.4753 40.9667C59.2469 41.1912 58.9403 41.3187 58.62 41.3222ZM58.62 39.5156C58.4818 39.514 58.3474 39.5606 58.2397 39.6473C58.1321 39.734 58.0579 39.8554 58.03 39.9908C58.002 40.1261 58.022 40.267 58.0864 40.3893C58.1509 40.5115 58.2559 40.6076 58.3834 40.6609C58.5109 40.7143 58.653 40.7217 58.7853 40.6818C58.9176 40.642 59.032 40.5573 59.1088 40.4424C59.1856 40.3275 59.2201 40.1894 59.2063 40.0519C59.1925 39.9144 59.1313 39.7859 59.0332 39.6885C58.9188 39.5898 58.7711 39.5383 58.62 39.5444V39.5156Z" fill="#17262F"></path><path d="M70.2768 31.5972C69.4327 31.5857 68.6275 31.2401 68.0377 30.6362C67.5316 30.1127 67.2223 29.4302 67.1624 28.7045C67.1025 27.9789 67.2957 27.2549 67.7091 26.6555C68.1226 26.0562 68.7307 25.6184 69.4303 25.4166C70.1299 25.2149 70.8778 25.2616 71.5469 25.5487C72.216 25.8359 72.765 26.3458 73.1008 26.9919C73.4365 27.638 73.5382 28.3804 73.3885 29.093C73.2389 29.8056 72.8472 30.4444 72.2799 30.9009C71.7127 31.3574 71.0049 31.6034 70.2768 31.5972ZM70.2768 25.8889C69.6041 25.8914 68.9591 26.157 68.4797 26.6289C68.0591 27.0454 67.7961 27.5951 67.7356 28.184C67.6752 28.7729 67.821 29.3645 68.1481 29.8579C68.4753 30.3513 68.9636 30.7158 69.5296 30.8892C70.0957 31.0626 70.7043 31.0342 71.2518 30.8088C71.7992 30.5834 72.2514 30.175 72.5312 29.6533C72.811 29.1316 72.901 28.5289 72.7859 27.9482C72.6708 27.3675 72.3578 26.8448 71.9002 26.4692C71.4426 26.0936 70.8688 25.8885 70.2768 25.8889Z" fill="#17262F"></path><path d="M70.2768 29.6462C70.1176 29.6476 69.9598 29.6168 69.8128 29.5557C69.6659 29.4946 69.5328 29.4045 69.4215 29.2907C69.3079 29.1781 69.2177 29.0441 69.1562 28.8965C69.0946 28.7489 69.0629 28.5905 69.0629 28.4306C69.0629 28.2707 69.0946 28.1123 69.1562 27.9647C69.2177 27.8171 69.3079 27.6831 69.4215 27.5705C69.658 27.4003 69.9477 27.3202 70.2381 27.345C70.5285 27.3697 70.8004 27.4975 71.0047 27.7054C71.2091 27.9132 71.3323 28.1873 71.3521 28.478C71.3719 28.7688 71.2871 29.0571 71.1128 29.2907C70.8908 29.5132 70.591 29.6407 70.2768 29.6462ZM70.2768 27.8396C70.1389 27.8403 70.0057 27.8888 69.8996 27.9767C69.7935 28.0647 69.7211 28.1867 69.6949 28.3219C69.6687 28.4572 69.6901 28.5974 69.7557 28.7187C69.8212 28.8399 69.9267 28.9347 70.0542 28.9868C70.1818 29.039 70.3235 29.0454 70.4552 29.0048C70.5869 28.9643 70.7004 28.8793 70.7765 28.7644C70.8526 28.6495 70.8866 28.5118 70.8725 28.3747C70.8585 28.2376 70.7974 28.1097 70.6996 28.0126C70.5832 27.9106 70.4312 27.8588 70.2768 27.8684V27.8396Z" fill="#17262F"></path><path d="M63.4826 39.1312C63.1235 39.1286 62.7792 38.9875 62.5216 38.7372L59.9846 36.2002C59.7311 35.9446 59.5889 35.5992 59.5889 35.2392C59.5889 34.8792 59.7311 34.5338 59.9846 34.2782L64.3859 29.7904C64.6461 29.5458 64.9898 29.4097 65.3469 29.4097C65.704 29.4097 66.0477 29.5458 66.3079 29.7904L68.8449 32.3178C69.0939 32.5758 69.233 32.9203 69.233 33.2788C69.233 33.6373 69.0939 33.9818 68.8449 34.2398L64.4148 38.6699C64.174 38.9366 63.8407 39.1016 63.4826 39.1312ZM65.4046 30.0499C65.3061 30.0492 65.2086 30.0685 65.1177 30.1064C65.0269 30.1444 64.9447 30.2004 64.876 30.2709L60.4459 34.7011C60.3756 34.77 60.3197 34.8522 60.2816 34.943C60.2435 35.0337 60.2238 35.1312 60.2238 35.2296C60.2238 35.3281 60.2435 35.4255 60.2816 35.5163C60.3197 35.607 60.3756 35.6893 60.4459 35.7582L62.9829 38.2951C63.1234 38.4348 63.3134 38.5132 63.5114 38.5132C63.7095 38.5132 63.8995 38.4348 64.04 38.2951L68.4701 33.865C68.5407 33.7953 68.5968 33.7122 68.635 33.6207C68.6733 33.5291 68.693 33.4309 68.693 33.3317C68.693 33.2324 68.6733 33.1342 68.635 33.0426C68.5968 32.9511 68.5407 32.868 68.4701 32.7983L65.9043 30.2709C65.8323 30.1967 65.7454 30.1387 65.6493 30.1006C65.5533 30.0625 65.4502 30.0452 65.3469 30.0499H65.4046Z" fill="#17262F"></path><path d="M44.5512 34.9701C43.6822 34.9676 42.8221 34.7937 42.0203 34.4585C41.2185 34.1233 40.4906 33.6334 39.8783 33.0166C39.2661 32.3999 38.7814 31.6685 38.452 30.8642C38.1226 30.06 37.9551 29.1987 37.9589 28.3297V23.5824C37.9575 23.5404 37.9648 23.4986 37.9803 23.4595C37.9957 23.4204 38.0191 23.3849 38.0488 23.3552C38.0785 23.3255 38.114 23.3022 38.1531 23.2867C38.1922 23.2712 38.234 23.264 38.276 23.2653C38.3584 23.2678 38.4366 23.3023 38.494 23.3615C38.5515 23.4207 38.5835 23.5 38.5835 23.5824V28.3297C38.5797 29.1167 38.7311 29.8968 39.0291 30.6252C39.3271 31.3536 39.7657 32.0162 40.32 32.5749C40.8743 33.1337 41.5333 33.5776 42.2593 33.8814C42.9854 34.1853 43.7642 34.3429 44.5512 34.3454C46.1358 34.3429 47.6553 33.7143 48.7785 32.5965C49.9017 31.4787 50.5376 29.9623 50.5478 28.3777V23.6305C50.5477 23.5893 50.556 23.5485 50.572 23.5105C50.5881 23.4726 50.6116 23.4382 50.6412 23.4096C50.6708 23.3809 50.7058 23.3584 50.7442 23.3435C50.7827 23.3287 50.8237 23.3217 50.8649 23.323C50.9061 23.3229 50.9469 23.3312 50.9848 23.3472C51.0228 23.3633 51.0571 23.3868 51.0858 23.4164C51.1145 23.446 51.1369 23.481 51.1518 23.5194C51.1667 23.5579 51.1737 23.5989 51.1724 23.6401V28.3873C51.1597 30.1359 50.4569 31.8087 49.2168 33.0416C47.9767 34.2745 46.2999 34.9676 44.5512 34.9701Z" fill="#17262F"></path><path d="M44.5512 32.4716C43.5317 32.4716 42.554 32.0666 41.8331 31.3457C41.1123 30.6248 40.7073 29.6471 40.7073 28.6276C40.7073 27.6082 41.1123 26.6304 41.8331 25.9096C42.554 25.1887 43.5317 24.7837 44.5512 24.7837C45.5707 24.7837 46.5484 25.1887 47.2693 25.9096C47.9902 26.6304 48.3951 27.6082 48.3951 28.6276C48.3951 29.6471 47.9902 30.6248 47.2693 31.3457C46.5484 32.0666 45.5707 32.4716 44.5512 32.4716ZM44.5512 25.3987C44.113 25.3748 43.6745 25.4404 43.2625 25.5916C42.8506 25.7429 42.4737 25.9765 42.1551 26.2782C41.8364 26.5799 41.5826 26.9435 41.4091 27.3466C41.2357 27.7497 41.1462 28.184 41.1462 28.6228C41.1462 29.0617 41.2357 29.4959 41.4091 29.899C41.5826 30.3022 41.8364 30.6657 42.1551 30.9674C42.4737 31.2692 42.8506 31.5028 43.2625 31.654C43.6745 31.8052 44.113 31.8709 44.5512 31.8469C45.4047 31.8399 46.2204 31.4942 46.8191 30.8859C47.2706 30.4361 47.5788 29.8627 47.705 29.238C47.8312 28.6132 47.7696 27.9652 47.5282 27.3753C47.2867 26.7855 46.8761 26.2804 46.348 25.9235C45.82 25.5666 45.1981 25.374 44.5608 25.3699L44.5512 25.3987Z" fill="#17262F"></path><path d="M51.8931 23.9189L37.2862 23.8613C37.245 23.8613 37.2042 23.853 37.1662 23.837C37.1283 23.8209 37.0939 23.7974 37.0653 23.7678C37.0366 23.7382 37.0141 23.7032 36.9993 23.6648C36.9844 23.6263 36.9774 23.5853 36.9787 23.5441V21.9297C36.9774 21.8885 36.9844 21.8475 36.9993 21.809C37.0141 21.7706 37.0366 21.7356 37.0653 21.706C37.0939 21.6764 37.1283 21.6529 37.1662 21.6368C37.2042 21.6208 37.245 21.6125 37.2862 21.6125C37.3703 21.6125 37.4509 21.646 37.5104 21.7054C37.5699 21.7649 37.6033 21.8456 37.6033 21.9297V23.2366L51.5472 23.2943V21.9297C51.5459 21.8885 51.5529 21.8475 51.5678 21.809C51.5827 21.7706 51.6051 21.7356 51.6338 21.706C51.6625 21.6764 51.6968 21.6529 51.7348 21.6368C51.7727 21.6208 51.8135 21.6125 51.8547 21.6125C51.9388 21.6125 52.0195 21.646 52.0789 21.7054C52.1384 21.7649 52.1718 21.8456 52.1718 21.9297V23.6114C52.1691 23.6946 52.1348 23.7737 52.0757 23.8324C52.0263 23.881 51.962 23.9115 51.8931 23.9189Z" fill="#17262F"></path><path d="M44.58 22.7752C42.766 22.784 40.9714 22.4016 39.3186 21.654C37.6658 20.9064 36.1936 19.8112 35.0025 18.443C33.8113 17.0749 32.9291 15.466 32.4161 13.726C31.903 11.9861 31.7712 10.1559 32.0296 8.3604C32.0412 8.28487 32.0796 8.21606 32.1379 8.16662C32.1961 8.11719 32.2703 8.09045 32.3467 8.09133H56.823C56.8983 8.09074 56.9712 8.11781 57.0279 8.16741C57.0846 8.217 57.1211 8.28568 57.1305 8.3604C57.21 8.92719 57.2518 9.49863 57.2554 10.071C57.2579 11.7376 56.932 13.3884 56.2963 14.929C55.6605 16.4696 54.7274 17.8698 53.5503 19.0496C52.3731 20.2294 50.975 21.1657 49.4359 21.805C47.8967 22.4442 46.2467 22.7739 44.58 22.7752ZM32.6158 8.7448C32.561 9.19443 32.5321 9.64684 32.5293 10.0998C32.5293 11.6823 32.841 13.2493 33.4466 14.7114C34.0522 16.1735 34.9399 17.5019 36.0589 18.6209C37.1779 19.74 38.5064 20.6276 39.9684 21.2332C41.4305 21.8388 42.9975 22.1505 44.58 22.1505C46.1626 22.1505 47.7296 21.8388 49.1917 21.2332C50.6537 20.6276 51.9822 19.74 53.1012 18.6209C54.2202 17.5019 55.1079 16.1735 55.7135 14.7114C56.3191 13.2493 56.6308 11.6823 56.6308 10.0998C56.6277 9.64685 56.5988 9.19445 56.5443 8.7448H32.6158Z" fill="#17262F"></path><path d="M44.5801 18.9505C43.3556 18.9492 42.1434 18.7065 41.0128 18.2362C39.8823 17.7658 38.8556 17.0771 37.9915 16.2095C37.1275 15.3419 36.443 14.3124 35.9773 13.1799C35.5117 12.0474 35.2739 10.8342 35.2777 9.60974C35.2842 9.538 35.3156 9.47081 35.3666 9.41988C35.4175 9.36895 35.4847 9.33752 35.5564 9.33105C35.6405 9.33105 35.7212 9.36447 35.7807 9.42394C35.8401 9.48341 35.8735 9.56407 35.8735 9.64818C35.8735 11.9496 36.7878 14.1568 38.4152 15.7842C40.0426 17.4116 42.2498 18.3259 44.5512 18.3259C46.8527 18.3259 49.0599 17.4116 50.6873 15.7842C52.3147 14.1568 53.2289 11.9496 53.2289 9.64818C53.2289 9.56407 53.2623 9.48341 53.3218 9.42394C53.3813 9.36447 53.4619 9.33105 53.546 9.33105C53.5872 9.33103 53.628 9.3393 53.666 9.35535C53.7039 9.3714 53.7383 9.39491 53.7669 9.42449C53.7956 9.45407 53.8181 9.48912 53.833 9.52755C53.8478 9.56597 53.8548 9.60699 53.8535 9.64818C53.851 12.1095 52.8741 14.4698 51.1364 16.213C49.3986 17.9561 47.0414 18.9403 44.5801 18.9505Z" fill="#17262F"></path><path d="M57.1209 8.74487H32.0488C31.4481 8.7398 30.8737 8.49761 30.4508 8.07103C30.0278 7.64446 29.7905 7.06806 29.7905 6.46733C29.7905 6.38578 29.8229 6.30756 29.8806 6.24989C29.9382 6.19222 30.0165 6.15982 30.098 6.15982C30.1392 6.15853 30.1802 6.16553 30.2186 6.18041C30.2571 6.19529 30.2921 6.21773 30.3217 6.24642C30.3513 6.2751 30.3748 6.30944 30.3908 6.34739C30.4069 6.38534 30.4152 6.42613 30.4151 6.46733C30.4151 6.68439 30.4579 6.89933 30.541 7.09987C30.624 7.30041 30.7458 7.48262 30.8993 7.6361C31.2092 7.94608 31.6297 8.12023 32.068 8.12023H57.1209C57.5576 8.11769 57.9755 7.94242 58.2834 7.63272C58.5914 7.32302 58.7642 6.90405 58.7642 6.46733C58.7641 6.42613 58.7724 6.38534 58.7885 6.34739C58.8045 6.30944 58.828 6.2751 58.8576 6.24642C58.8872 6.21773 58.9222 6.19529 58.9607 6.18041C58.9991 6.16553 59.0401 6.15853 59.0813 6.15982C59.1628 6.15982 59.2411 6.19222 59.2987 6.24989C59.3564 6.30756 59.3888 6.38578 59.3888 6.46733C59.3888 7.06971 59.1502 7.64756 58.7251 8.0744C58.3001 8.50125 57.7233 8.74232 57.1209 8.74487Z" fill="#17262F"></path><path d="M60.9937 5.76587H28.1664C28.0866 5.76338 28.0108 5.72988 27.9552 5.67248C27.8996 5.61507 27.8685 5.53828 27.8685 5.45836V3.24809C27.8685 3.16654 27.9009 3.08832 27.9586 3.03065C28.0163 2.97298 28.0945 2.94058 28.176 2.94058C28.2172 2.93929 28.2583 2.94629 28.2967 2.96117C28.3351 2.97605 28.3701 2.99849 28.3997 3.02718C28.4293 3.05586 28.4528 3.0902 28.4689 3.12815C28.4849 3.1661 28.4932 3.20689 28.4932 3.24809V5.17006H60.6861V3.24809C60.6861 3.16654 60.7185 3.08832 60.7762 3.03065C60.8339 2.97298 60.9121 2.94058 60.9937 2.94058C61.0348 2.93929 61.0759 2.94629 61.1143 2.96117C61.1527 2.97605 61.1878 2.99849 61.2173 3.02718C61.2469 3.05586 61.2704 3.0902 61.2865 3.12815C61.3025 3.1661 61.3108 3.20689 61.3108 3.24809V5.45836C61.3083 5.54079 61.2738 5.619 61.2146 5.67641C61.1554 5.73382 61.0761 5.76591 60.9937 5.76587Z" fill="#17262F"></path><path d="M94.926 60.1384C94.8445 60.1384 94.7662 60.1059 94.7086 60.0483C94.6509 59.9906 94.6185 59.9124 94.6185 59.8308V10.5708C94.6172 10.5296 94.6242 10.4886 94.6391 10.4502C94.654 10.4117 94.6764 10.3767 94.7051 10.3471C94.7338 10.3175 94.7681 10.294 94.8061 10.278C94.844 10.2619 94.8848 10.2536 94.926 10.2537C95.0101 10.2537 95.0908 10.2871 95.1503 10.3465C95.2097 10.406 95.2431 10.4867 95.2431 10.5708V59.8308C95.2432 59.872 95.2349 59.9128 95.2188 59.9508C95.2028 59.9887 95.1793 60.0231 95.1497 60.0518C95.1201 60.0804 95.0851 60.1029 95.0466 60.1178C95.0082 60.1326 94.9672 60.1396 94.926 60.1384Z" fill="#17262F"></path><path d="M97.8666 60.936C97.7851 60.936 97.7069 60.9036 97.6492 60.8459C97.5915 60.7882 97.5591 60.71 97.5591 60.6285V10.5708C97.5578 10.5296 97.5648 10.4886 97.5797 10.4502C97.5946 10.4117 97.617 10.3767 97.6457 10.3471C97.6744 10.3175 97.7087 10.294 97.7467 10.278C97.7846 10.2619 97.8254 10.2536 97.8666 10.2537C97.9507 10.2537 98.0314 10.2871 98.0909 10.3465C98.1503 10.406 98.1838 10.4867 98.1838 10.5708V60.6285C98.1838 60.6697 98.1755 60.7104 98.1595 60.7484C98.1434 60.7863 98.1199 60.8207 98.0903 60.8494C98.0607 60.8781 98.0257 60.9005 97.9873 60.9154C97.9488 60.9303 97.9078 60.9373 97.8666 60.936Z" fill="#17262F"></path><path d="M87.5745 60.936C87.5333 60.9373 87.4923 60.9303 87.4538 60.9154C87.4154 60.9005 87.3804 60.8781 87.3508 60.8494C87.3212 60.8207 87.2977 60.7863 87.2816 60.7484C87.2656 60.7104 87.2573 60.6697 87.2574 60.6285V10.5708C87.2574 10.4867 87.2908 10.406 87.3502 10.3465C87.4097 10.2871 87.4904 10.2537 87.5745 10.2537C87.6157 10.2536 87.6565 10.2619 87.6944 10.278C87.7324 10.294 87.7667 10.3175 87.7954 10.3471C87.8241 10.3767 87.8465 10.4117 87.8614 10.4502C87.8763 10.4886 87.8833 10.5296 87.882 10.5708V60.6285C87.882 60.71 87.8496 60.7882 87.7919 60.8459C87.7343 60.9036 87.656 60.936 87.5745 60.936Z" fill="#17262F"></path><path d="M90.5151 60.1384C90.4739 60.1396 90.4329 60.1326 90.3945 60.1178C90.356 60.1029 90.321 60.0804 90.2914 60.0518C90.2618 60.0231 90.2383 59.9887 90.2223 59.9508C90.2062 59.9128 90.1979 59.872 90.198 59.8308V10.5708C90.198 10.4867 90.2314 10.406 90.2909 10.3465C90.3503 10.2871 90.431 10.2537 90.5151 10.2537C90.5563 10.2536 90.5971 10.2619 90.635 10.278C90.673 10.294 90.7073 10.3175 90.736 10.3471C90.7647 10.3767 90.7871 10.4117 90.802 10.4502C90.8169 10.4886 90.8239 10.5296 90.8226 10.5708V59.8308C90.8226 59.9124 90.7902 59.9906 90.7325 60.0483C90.6749 60.1059 90.5967 60.1384 90.5151 60.1384Z" fill="#17262F"></path><path d="M97.8666 10.9168H87.5745C87.5298 10.9185 87.4854 10.9105 87.4441 10.8934C87.4029 10.8762 87.3659 10.8502 87.3357 10.8173C87.3056 10.7844 87.2829 10.7453 87.2694 10.7027C87.2558 10.6601 87.2517 10.6151 87.2574 10.5708V0.317125C87.2574 0.233018 87.2908 0.152356 87.3502 0.0928837C87.4097 0.0334113 87.4904 0 87.5745 0L97.8666 0C97.9507 0 98.0314 0.0334113 98.0909 0.0928837C98.1503 0.152356 98.1837 0.233018 98.1837 0.317125V10.5708C98.1894 10.6151 98.1853 10.6601 98.1717 10.7027C98.1582 10.7453 98.1355 10.7844 98.1054 10.8173C98.0752 10.8502 98.0382 10.8762 97.997 10.8934C97.9557 10.9105 97.9112 10.9185 97.8666 10.9168ZM87.882 10.2921H97.5591V0.62464H87.882V10.2921Z" fill="#17262F"></path><path d="M16.9614 60.9359C16.9201 60.9359 16.8794 60.9277 16.8414 60.9116C16.8035 60.8956 16.7691 60.8721 16.7404 60.8425C16.7118 60.8129 16.6893 60.7779 16.6744 60.7394C16.6596 60.701 16.6525 60.66 16.6538 60.6188V10.8206C16.6538 10.739 16.6862 10.6608 16.7439 10.6032C16.8016 10.5455 16.8798 10.5131 16.9614 10.5131C17.0025 10.5118 17.0436 10.5188 17.082 10.5337C17.1204 10.5486 17.1555 10.571 17.185 10.5997C17.2146 10.6284 17.2381 10.6627 17.2542 10.7007C17.2702 10.7386 17.2785 10.7794 17.2785 10.8206V60.6188C17.2785 60.7029 17.2451 60.7836 17.1856 60.843C17.1261 60.9025 17.0455 60.9359 16.9614 60.9359Z" fill="#17262F"></path><path d="M14.0304 60.1479C13.9463 60.1479 13.8656 60.1145 13.8061 60.055C13.7467 59.9956 13.7133 59.9149 13.7133 59.8308V10.8206C13.7132 10.7794 13.7215 10.7386 13.7375 10.7007C13.7536 10.6627 13.7771 10.6284 13.8067 10.5997C13.8363 10.571 13.8713 10.5486 13.9097 10.5337C13.9482 10.5188 13.9892 10.5118 14.0304 10.5131C14.1119 10.5131 14.1902 10.5455 14.2478 10.6032C14.3055 10.6608 14.3379 10.739 14.3379 10.8206V59.8308C14.3392 59.872 14.3322 59.913 14.3173 59.9514C14.3024 59.9899 14.28 60.0249 14.2513 60.0545C14.2226 60.0841 14.1883 60.1076 14.1503 60.1236C14.1124 60.1397 14.0716 60.1479 14.0304 60.1479Z" fill="#17262F"></path><path d="M9.60985 60.1479C9.52574 60.1479 9.44508 60.1145 9.38561 60.055C9.32614 59.9956 9.29272 59.9149 9.29272 59.8308V10.8206C9.2927 10.7794 9.30097 10.7386 9.31702 10.7007C9.33307 10.6627 9.35658 10.6284 9.38616 10.5997C9.41574 10.571 9.45079 10.5486 9.48921 10.5337C9.52764 10.5188 9.56866 10.5118 9.60985 10.5131C9.69141 10.5131 9.76963 10.5455 9.8273 10.6032C9.88497 10.6608 9.91736 10.739 9.91736 10.8206V59.8308C9.91865 59.872 9.91165 59.913 9.89677 59.9514C9.8819 59.9899 9.85945 60.0249 9.83076 60.0545C9.80208 60.0841 9.76774 60.1076 9.72979 60.1236C9.69184 60.1397 9.65105 60.1479 9.60985 60.1479Z" fill="#17262F"></path><path d="M6.66924 60.9359C6.58513 60.9359 6.50447 60.9025 6.445 60.843C6.38552 60.7836 6.35211 60.7029 6.35211 60.6188V10.8206C6.35209 10.7794 6.36035 10.7386 6.3764 10.7007C6.39246 10.6627 6.41597 10.6284 6.44555 10.5997C6.47513 10.571 6.51018 10.5486 6.5486 10.5337C6.58703 10.5188 6.62805 10.5118 6.66924 10.5131C6.75079 10.5131 6.82901 10.5455 6.88668 10.6032C6.94435 10.6608 6.97675 10.739 6.97675 10.8206V60.6188C6.97804 60.66 6.97104 60.701 6.95616 60.7394C6.94128 60.7779 6.91884 60.8129 6.89015 60.8425C6.86147 60.8721 6.82713 60.8956 6.78918 60.9116C6.75123 60.9277 6.71044 60.9359 6.66924 60.9359Z" fill="#17262F"></path><path d="M16.9614 10.9166H6.66924C6.62461 10.9184 6.58013 10.9104 6.5389 10.8932C6.49767 10.876 6.46068 10.8501 6.4305 10.8171C6.40032 10.7842 6.37767 10.7451 6.36413 10.7026C6.3506 10.66 6.34649 10.615 6.35211 10.5707V0.316975C6.35211 0.232869 6.38552 0.152207 6.445 0.0927343C6.50447 0.0332619 6.58513 -0.000149416 6.66924 -0.000149416H16.9614C17.0046 -0.00277454 17.0479 0.00348458 17.0886 0.018242C17.1294 0.0329994 17.1666 0.0559422 17.1981 0.0856557C17.2297 0.115369 17.2548 0.151223 17.2719 0.191008C17.289 0.230792 17.2978 0.273662 17.2977 0.316975V10.5707C17.3038 10.6167 17.2993 10.6635 17.2847 10.7076C17.2701 10.7516 17.2457 10.7918 17.2133 10.8251C17.181 10.8584 17.1415 10.8839 17.0978 10.8998C17.0542 10.9156 17.0076 10.9214 16.9614 10.9166ZM6.97675 10.292H16.6539V0.62449H6.97675V10.292Z" fill="#17262F"></path><path d="M28.7142 93.7534H18.6527C18.5686 93.7534 18.4879 93.72 18.4285 93.6605C18.369 93.601 18.3356 93.5204 18.3356 93.4363C18.3356 93.3522 18.369 93.2715 18.4285 93.212C18.4879 93.1526 18.5686 93.1191 18.6527 93.1191H28.7142C28.7983 93.1191 28.879 93.1526 28.9384 93.212C28.9979 93.2715 29.0313 93.3522 29.0313 93.4363C29.0313 93.5204 28.9979 93.601 28.9384 93.6605C28.879 93.72 28.7983 93.7534 28.7142 93.7534Z" fill="#17262F"></path><path d="M96.1849 99.9998H6.66924C6.62805 100.001 6.58703 99.9941 6.5486 99.9792C6.51018 99.9644 6.47513 99.9419 6.44555 99.9132C6.41597 99.8846 6.39246 99.8502 6.3764 99.8123C6.36035 99.7743 6.35209 99.7335 6.35211 99.6923V95.1373C6.35209 95.096 6.36035 95.0553 6.3764 95.0173C6.39246 94.9794 6.41597 94.945 6.44555 94.9163C6.47513 94.8877 6.51018 94.8652 6.5486 94.8503C6.58703 94.8355 6.62805 94.8285 6.66924 94.8297C6.75079 94.8297 6.82901 94.8621 6.88668 94.9198C6.94435 94.9775 6.97675 95.0557 6.97675 95.1373V99.3944H96.1849C96.2261 99.3944 96.2669 99.4027 96.3048 99.4187C96.3428 99.4348 96.3771 99.4583 96.4058 99.4879C96.4345 99.5174 96.457 99.5525 96.4718 99.5909C96.4867 99.6293 96.4937 99.6704 96.4924 99.7115C96.4875 99.7897 96.453 99.8631 96.3958 99.9167C96.3387 99.9702 96.2632 100 96.1849 99.9998Z" fill="#17262F"></path><path d="M85.8928 93.7534H75.8216C75.7375 93.7534 75.6569 93.72 75.5974 93.6605C75.5379 93.601 75.5045 93.5204 75.5045 93.4363C75.5045 93.3522 75.5379 93.2715 75.5974 93.212C75.6569 93.1526 75.7375 93.1191 75.8216 93.1191H85.8928C85.9769 93.1191 86.0575 93.1526 86.117 93.212C86.1765 93.2715 86.2099 93.3522 86.2099 93.4363C86.2099 93.5204 86.1765 93.601 86.117 93.6605C86.0575 93.72 85.9769 93.7534 85.8928 93.7534Z" fill="#17262F"></path><path d="M74.1399 93.7534H30.3959C30.3547 93.7534 30.3139 93.7452 30.276 93.7291C30.238 93.7131 30.2037 93.6896 30.175 93.66C30.1463 93.6304 30.1239 93.5954 30.109 93.5569C30.0941 93.5185 30.0871 93.4775 30.0884 93.4363V88.7467C30.0884 88.6651 30.1208 88.5869 30.1785 88.5293C30.2361 88.4716 30.3144 88.4392 30.3959 88.4392H34.2399C34.3214 88.4392 34.3996 88.4716 34.4573 88.5293C34.515 88.5869 34.5474 88.6651 34.5474 88.7467C34.5487 88.7879 34.5417 88.8289 34.5268 88.8673C34.5119 88.9058 34.4895 88.9408 34.4608 88.9704C34.4321 89 34.3978 89.0235 34.3598 89.0395C34.3219 89.0556 34.2811 89.0638 34.2399 89.0638H30.7515V93.1192H73.8228V89.0638H70.344C70.2599 89.0638 70.1793 89.0304 70.1198 88.9709C70.0603 88.9115 70.0269 88.8308 70.0269 88.7467C70.0228 88.7031 70.028 88.6592 70.0422 88.6178C70.0564 88.5764 70.0793 88.5386 70.1093 88.5067C70.1393 88.4749 70.1758 88.4498 70.2163 88.4332C70.2567 88.4166 70.3003 88.4088 70.344 88.4104H74.188C74.2695 88.4104 74.3477 88.4428 74.4054 88.5004C74.4631 88.5581 74.4955 88.6363 74.4955 88.7179V93.4075C74.5022 93.4553 74.4975 93.5041 74.4819 93.5498C74.4662 93.5955 74.44 93.6369 74.4054 93.6706C74.3708 93.7043 74.3287 93.7293 74.2826 93.7437C74.2364 93.7581 74.1876 93.7614 74.1399 93.7534Z" fill="#17262F"></path><path d="M68.6527 89.064H35.8831C35.799 89.064 35.7184 89.0305 35.6589 88.9711C35.5994 88.9116 35.566 88.8309 35.566 88.7468V85.2392C35.566 85.1551 35.5994 85.0745 35.6589 85.015C35.7184 84.9555 35.799 84.9221 35.8831 84.9221H68.6527C68.7368 84.9221 68.8175 84.9555 68.8769 85.015C68.9364 85.0745 68.9698 85.1551 68.9698 85.2392V88.7468C68.9698 88.8309 68.9364 88.9116 68.8769 88.9711C68.8175 89.0305 68.7368 89.064 68.6527 89.064ZM36.1907 88.4105H68.3452V85.5275H36.1907V88.4105Z" fill="#17262F"></path><path d="M16.9614 93.7535H6.66924C6.62803 93.7536 6.58724 93.7453 6.54929 93.7293C6.51134 93.7132 6.47701 93.6897 6.44832 93.6601C6.41964 93.6305 6.39719 93.5955 6.38231 93.5571C6.36744 93.5186 6.36043 93.4776 6.36172 93.4364V63.1846C6.36046 62.987 6.3983 62.791 6.47307 62.608C6.54784 62.425 6.65806 62.2586 6.7974 62.1184C6.93673 61.9782 7.10242 61.8669 7.28494 61.7909C7.46745 61.715 7.66318 61.6759 7.86086 61.6759H15.7698C15.9695 61.6734 16.1678 61.7105 16.353 61.7852C16.5383 61.8599 16.7069 61.9706 16.849 62.111C16.9912 62.2513 17.104 62.4185 17.1811 62.6028C17.2581 62.7871 17.2977 62.9849 17.2977 63.1846V93.4364C17.2978 93.4797 17.289 93.5226 17.2719 93.5624C17.2548 93.6022 17.2297 93.638 17.1981 93.6677C17.1666 93.6975 17.1294 93.7204 17.0886 93.7352C17.0479 93.7499 17.0046 93.7562 16.9614 93.7535ZM6.98636 93.1193H16.6539V63.1846C16.6539 63.0685 16.631 62.9536 16.5866 62.8463C16.5421 62.7391 16.477 62.6416 16.3949 62.5595C16.3128 62.4774 16.2154 62.4123 16.1081 62.3678C16.0008 62.3234 15.8859 62.3005 15.7698 62.3005H7.86086C7.62805 62.3031 7.40563 62.3973 7.2419 62.5629C7.07817 62.7284 6.98635 62.9518 6.98636 63.1846V93.1193Z" fill="#17262F"></path><path d="M96.1849 93.7534H87.536C87.4519 93.7534 87.3713 93.72 87.3118 93.6606C87.2523 93.6011 87.2189 93.5204 87.2189 93.4363V63.1845C87.2189 62.7844 87.3779 62.4006 87.6608 62.1177C87.9437 61.8347 88.3275 61.6758 88.7276 61.6758H96.6365C97.0367 61.6758 97.4204 61.8347 97.7034 62.1177C97.9863 62.4006 98.1453 62.7844 98.1453 63.1845V70.3823C98.1453 70.4235 98.137 70.4643 98.121 70.5022C98.1049 70.5402 98.0814 70.5745 98.0519 70.6032C98.0223 70.6319 97.9872 70.6543 97.9488 70.6692C97.9104 70.6841 97.8694 70.6911 97.8282 70.6898C97.7466 70.6898 97.6684 70.6574 97.6107 70.5997C97.553 70.5421 97.5207 70.4639 97.5207 70.3823V63.1845C97.5207 63.0684 97.4978 62.9535 97.4533 62.8462C97.4089 62.7389 97.3438 62.6415 97.2617 62.5594C97.1796 62.4773 97.0821 62.4122 96.9749 62.3677C96.8676 62.3233 96.7526 62.3004 96.6365 62.3004H88.7661C88.65 62.3004 88.535 62.3233 88.4278 62.3677C88.3205 62.4122 88.223 62.4773 88.1409 62.5594C88.0588 62.6415 87.9937 62.7389 87.9493 62.8462C87.9048 62.9535 87.882 63.0684 87.882 63.1845V93.1192H96.1849C96.269 93.1192 96.3497 93.1526 96.4091 93.2121C96.4686 93.2715 96.502 93.3522 96.502 93.4363C96.502 93.5204 96.4686 93.6011 96.4091 93.6606C96.3497 93.72 96.269 93.7534 96.1849 93.7534Z" fill="#17262F"></path><path d="M6.66922 50.0767H1.66249C1.57839 50.0767 1.49772 50.0433 1.43825 49.9838C1.37878 49.9244 1.34537 49.8437 1.34537 49.7596V37.4014C1.34537 37.3172 1.37878 37.2366 1.43825 37.1771C1.49772 37.1176 1.57839 37.0842 1.66249 37.0842C1.7037 37.0842 1.74449 37.0925 1.78244 37.1085C1.82039 37.1246 1.85472 37.1481 1.88341 37.1777C1.91209 37.2072 1.93454 37.2423 1.94942 37.2807C1.96429 37.3191 1.97129 37.3602 1.97001 37.4014V49.4425H6.66922C6.75333 49.4425 6.83399 49.4759 6.89346 49.5354C6.95293 49.5948 6.98634 49.6755 6.98634 49.7596C6.98634 49.8437 6.95293 49.9244 6.89346 49.9838C6.83399 50.0433 6.75333 50.0767 6.66922 50.0767Z" fill="#17262F"></path><path d="M6.66923 36.6134H1.14357C1.06201 36.6134 0.983796 36.581 0.926126 36.5234C0.868456 36.4657 0.836057 36.3875 0.836057 36.3059V33.7016C0.83477 33.6605 0.841772 33.6194 0.856648 33.581C0.871525 33.5426 0.893972 33.5075 0.922657 33.478C0.951341 33.4484 0.985678 33.4249 1.02363 33.4088C1.06158 33.3928 1.10237 33.3845 1.14357 33.3845H6.66923C6.71044 33.3845 6.75122 33.3928 6.78917 33.4088C6.82712 33.4249 6.86146 33.4484 6.89015 33.478C6.91883 33.5075 6.94128 33.5426 6.95615 33.581C6.97103 33.6194 6.97803 33.6605 6.97675 33.7016V36.3059C6.97675 36.3875 6.94435 36.4657 6.88668 36.5234C6.82901 36.581 6.75079 36.6134 6.66923 36.6134ZM1.4607 35.9888H6.35211V34.0092H1.4607V35.9888Z" fill="#17262F"></path><path d="M0.317125 42.1966C0.233018 42.1966 0.152356 42.1632 0.0928837 42.1037C0.0334113 42.0442 0 41.9636 0 41.8795L0 39.4001C0 39.316 0.0334113 39.2354 0.0928837 39.1759C0.152356 39.1164 0.233018 39.083 0.317125 39.083C0.399555 39.0855 0.477769 39.12 0.535179 39.1792C0.592589 39.2384 0.624677 39.3177 0.62464 39.4001V41.841C0.630019 41.885 0.626132 41.9296 0.61323 41.972C0.600327 42.0143 0.578694 42.0535 0.549725 42.087C0.520755 42.1205 0.485092 42.1476 0.44503 42.1664C0.404969 42.1853 0.361399 42.1956 0.317125 42.1966Z" fill="#17262F"></path><path d="M0.317125 46.3769C0.27594 46.3782 0.234916 46.3712 0.196491 46.3563C0.158065 46.3414 0.123021 46.319 0.0934397 46.2903C0.0638586 46.2616 0.040344 46.2273 0.0242925 46.1893C0.00824095 46.1514 -2.0088e-05 46.1106 3.66807e-08 46.0694V43.6189C3.66807e-08 43.5348 0.0334113 43.4541 0.0928837 43.3946C0.152356 43.3352 0.233018 43.3018 0.317125 43.3018C0.399555 43.3043 0.477769 43.3388 0.535179 43.398C0.592589 43.4572 0.624678 43.5364 0.62464 43.6189V46.0694C0.62464 46.1509 0.592241 46.2292 0.534571 46.2868C0.4769 46.3445 0.398683 46.3769 0.317125 46.3769Z" fill="#17262F"></path><path d="M110.513 99.9999H97.8666C97.7851 99.9999 97.7069 99.9675 97.6492 99.9098C97.5915 99.8522 97.5591 99.774 97.5591 99.6924V72.0737C97.5578 72.0325 97.5648 71.9915 97.5797 71.9531C97.5946 71.9147 97.617 71.8796 97.6457 71.85C97.6744 71.8205 97.7087 71.7969 97.7467 71.7809C97.7846 71.7648 97.8254 71.7566 97.8666 71.7566H110.513C110.554 71.7566 110.595 71.7648 110.633 71.7809C110.671 71.7969 110.705 71.8205 110.734 71.85C110.763 71.8796 110.785 71.9147 110.8 71.9531C110.815 71.9915 110.822 72.0325 110.821 72.0737V99.702C110.818 99.7819 110.785 99.8577 110.727 99.9133C110.67 99.9689 110.593 100 110.513 99.9999ZM98.2318 99.3753H110.196V72.3716H98.1838L98.2318 99.3753Z" fill="#17262F"></path><path d="M100.798 97.9241C100.756 97.9242 100.716 97.9159 100.678 97.8998C100.64 97.8838 100.605 97.8603 100.577 97.8307C100.548 97.8011 100.526 97.7661 100.511 97.7277C100.496 97.6892 100.489 97.6482 100.49 97.607V74.1398C100.49 74.0582 100.523 73.98 100.58 73.9223C100.638 73.8647 100.716 73.8323 100.798 73.8323C100.88 73.8322 100.959 73.8643 101.019 73.9217C101.078 73.9791 101.112 74.0574 101.115 74.1398V97.607C101.115 97.6911 101.081 97.7718 101.022 97.8313C100.962 97.8907 100.882 97.9241 100.798 97.9241Z" fill="#17262F"></path><path d="M102.479 97.9241C102.438 97.9242 102.397 97.9159 102.359 97.8998C102.321 97.8838 102.287 97.8603 102.258 97.8307C102.23 97.8011 102.207 97.7661 102.192 97.7277C102.178 97.6892 102.171 97.6482 102.172 97.607V74.1398C102.172 74.0582 102.204 73.98 102.262 73.9223C102.32 73.8647 102.398 73.8323 102.479 73.8323C102.562 73.8322 102.641 73.8643 102.7 73.9217C102.759 73.9791 102.794 74.0574 102.796 74.1398V97.607C102.796 97.6911 102.763 97.7718 102.704 97.8313C102.644 97.8907 102.563 97.9241 102.479 97.9241Z" fill="#17262F"></path><path d="M104.171 97.9241C104.087 97.9241 104.006 97.8907 103.946 97.8313C103.887 97.7718 103.854 97.6911 103.854 97.607V74.1398C103.856 74.0574 103.891 73.9791 103.95 73.9217C104.009 73.8643 104.088 73.8322 104.171 73.8323C104.252 73.8323 104.33 73.8647 104.388 73.9223C104.446 73.98 104.478 74.0582 104.478 74.1398V97.607C104.479 97.6482 104.472 97.6892 104.458 97.7277C104.443 97.7661 104.42 97.8011 104.392 97.8307C104.363 97.8603 104.329 97.8838 104.291 97.8998C104.253 97.9159 104.212 97.9242 104.171 97.9241Z" fill="#17262F"></path><path d="M105.852 97.9241C105.768 97.9241 105.688 97.8907 105.628 97.8313C105.569 97.7718 105.535 97.6911 105.535 97.607V74.1398C105.538 74.0574 105.572 73.9791 105.631 73.9217C105.691 73.8643 105.77 73.8322 105.852 73.8323C105.934 73.8323 106.012 73.8647 106.07 73.9223C106.128 73.98 106.16 74.0582 106.16 74.1398V97.607C106.161 97.6482 106.154 97.6892 106.139 97.7277C106.124 97.7661 106.102 97.8011 106.073 97.8307C106.045 97.8603 106.01 97.8838 105.972 97.8998C105.934 97.9159 105.894 97.9242 105.852 97.9241Z" fill="#17262F"></path><path d="M107.534 97.9241C107.45 97.9241 107.369 97.8907 107.31 97.8313C107.25 97.7718 107.217 97.6911 107.217 97.607V74.1398C107.219 74.0574 107.254 73.9791 107.313 73.9217C107.372 73.8643 107.452 73.8322 107.534 73.8323C107.616 73.8323 107.694 73.8647 107.752 73.9223C107.809 73.98 107.842 74.0582 107.842 74.1398V97.607C107.843 97.6482 107.836 97.6892 107.821 97.7277C107.806 97.7661 107.784 97.8011 107.755 97.8307C107.726 97.8603 107.692 97.8838 107.654 97.8998C107.616 97.9159 107.575 97.9242 107.534 97.9241Z" fill="#17262F"></path><path d="M52.7868 26.5423H50.9321C50.891 26.5436 50.8499 26.5366 50.8115 26.5218C50.7731 26.5069 50.738 26.4844 50.7085 26.4557C50.6789 26.4271 50.6554 26.3927 50.6393 26.3548C50.6233 26.3168 50.615 26.276 50.615 26.2348C50.6222 26.1558 50.6588 26.0824 50.7175 26.029C50.7762 25.9756 50.8528 25.9462 50.9321 25.9465H52.8541C52.8953 25.9465 52.9361 25.9548 52.9741 25.9708C53.012 25.9869 53.0463 26.0104 53.075 26.04C53.1037 26.0696 53.1262 26.1046 53.141 26.143C53.1559 26.1815 53.1629 26.2225 53.1616 26.2637C53.1586 26.3079 53.146 26.351 53.1247 26.3899C53.1034 26.4289 53.0739 26.4627 53.0383 26.4892C53.0027 26.5157 52.9618 26.5341 52.9184 26.5433C52.875 26.5525 52.8301 26.5522 52.7868 26.5423Z" fill="#17262F"></path><path d="M52.7869 30.934H50.4325C50.3921 30.934 50.3521 30.926 50.3148 30.9106C50.2775 30.8951 50.2436 30.8725 50.215 30.8439C50.1865 30.8153 50.1638 30.7814 50.1483 30.7441C50.1329 30.7068 50.1249 30.6668 50.1249 30.6265C50.1236 30.5853 50.1307 30.5442 50.1455 30.5058C50.1604 30.4674 50.1829 30.4323 50.2115 30.4028C50.2402 30.3732 50.2746 30.3497 50.3125 30.3336C50.3505 30.3176 50.3912 30.3093 50.4325 30.3093H52.7869C52.8281 30.3093 52.8689 30.3176 52.9068 30.3336C52.9448 30.3497 52.9791 30.3732 53.0078 30.4028C53.0365 30.4323 53.0589 30.4674 53.0738 30.5058C53.0887 30.5442 53.0957 30.5853 53.0944 30.6265C53.0944 30.6668 53.0864 30.7068 53.071 30.7441C53.0555 30.7814 53.0329 30.8153 53.0043 30.8439C52.9758 30.8725 52.9419 30.8951 52.9045 30.9106C52.8672 30.926 52.8272 30.934 52.7869 30.934Z" fill="#17262F"></path><path d="M51.4895 78.4353C51.4054 78.4353 51.3247 78.4019 51.2653 78.3424C51.2058 78.283 51.1724 78.2023 51.1724 78.1182V74.822C51.1724 74.7379 51.2058 74.6572 51.2653 74.5978C51.3247 74.5383 51.4054 74.5049 51.4895 74.5049C51.5307 74.5049 51.5715 74.5131 51.6095 74.5292C51.6474 74.5452 51.6817 74.5687 51.7104 74.5983C51.7391 74.6279 51.7616 74.6629 51.7764 74.7014C51.7913 74.7398 51.7983 74.7808 51.797 74.822V78.1182C51.7983 78.1594 51.7913 78.2004 51.7764 78.2388C51.7616 78.2772 51.7391 78.3123 51.7104 78.3419C51.6817 78.3714 51.6474 78.395 51.6095 78.411C51.5715 78.4271 51.5307 78.4353 51.4895 78.4353Z" fill="#17262F"></path><path d="M52.6811 72.5638C52.6169 72.5628 52.5544 72.5422 52.5021 72.5049C52.4497 72.4675 52.41 72.4151 52.3881 72.3547C52.3662 72.2942 52.3632 72.2286 52.3795 72.1664C52.3958 72.1042 52.4306 72.0484 52.4793 72.0064L55.7947 69.1908C55.825 69.1567 55.8622 69.1296 55.9039 69.1112C55.9455 69.0928 55.9907 69.0836 56.0362 69.0843C56.0817 69.0849 56.1266 69.0953 56.1678 69.1148C56.2089 69.1344 56.2454 69.1625 56.2747 69.1974C56.304 69.2323 56.3254 69.273 56.3375 69.3169C56.3496 69.3608 56.3522 69.4068 56.3449 69.4518C56.3377 69.4967 56.3208 69.5396 56.2956 69.5775C56.2703 69.6154 56.2371 69.6473 56.1984 69.6712L52.8541 72.4869C52.806 72.5301 52.7455 72.557 52.6811 72.5638Z" fill="#17262F"></path><path d="M65.7121 78.4353C65.628 78.4353 65.5473 78.4019 65.4878 78.3424C65.4284 78.283 65.395 78.2023 65.395 78.1182V74.822C65.395 74.7379 65.4284 74.6572 65.4878 74.5978C65.5473 74.5383 65.628 74.5049 65.7121 74.5049C65.7533 74.5049 65.7941 74.5131 65.832 74.5292C65.87 74.5452 65.9043 74.5687 65.933 74.5983C65.9617 74.6279 65.9841 74.6629 65.999 74.7014C66.0139 74.7398 66.0209 74.7808 66.0196 74.822V78.1182C66.0209 78.1594 66.0139 78.2004 65.999 78.2388C65.9841 78.2772 65.9617 78.3123 65.933 78.3419C65.9043 78.3714 65.87 78.395 65.832 78.411C65.7941 78.4271 65.7533 78.4353 65.7121 78.4353Z" fill="#17262F"></path><path d="M64.5109 72.5638C64.4373 72.5597 64.3667 72.5328 64.3091 72.4869L60.9937 69.6808C60.9431 69.6239 60.9147 69.5507 60.9137 69.4746C60.9126 69.3985 60.939 69.3245 60.9879 69.2662C61.0369 69.2079 61.1052 69.1692 61.1803 69.1571C61.2555 69.145 61.3325 69.1603 61.3973 69.2003L64.7127 72.0064C64.7423 72.0351 64.7659 72.0694 64.782 72.1074C64.7981 72.1453 64.8064 72.1862 64.8064 72.2274C64.8064 72.2687 64.7981 72.3095 64.782 72.3475C64.7659 72.3854 64.7423 72.4198 64.7127 72.4484C64.6889 72.4806 64.6586 72.5075 64.6239 72.5273C64.5892 72.5472 64.5507 72.5596 64.5109 72.5638Z" fill="#17262F"></path><path d="M58.4855 73.2366C58.4039 73.2366 58.3257 73.2042 58.268 73.1465C58.2104 73.0889 58.178 73.0107 58.178 72.9291V70.5555C58.178 70.4739 58.2104 70.3957 58.268 70.338C58.3257 70.2804 58.4039 70.248 58.4855 70.248C58.5267 70.2467 58.5677 70.2537 58.6061 70.2685C58.6446 70.2834 58.6796 70.3059 58.7092 70.3346C58.7388 70.3632 58.7623 70.3976 58.7783 70.4355C58.7944 70.4735 58.8026 70.5143 58.8026 70.5555V72.9291C58.8026 72.9703 58.7944 73.0111 58.7783 73.049C58.7623 73.087 58.7388 73.1213 58.7092 73.15C58.6796 73.1787 58.6446 73.2011 58.6061 73.216C58.5677 73.2309 58.5267 73.2379 58.4855 73.2366Z" fill="#17262F"></path><path d="M58.5239 79.4157C58.4398 79.4157 58.3591 79.3823 58.2997 79.3228C58.2402 79.2634 58.2068 79.1827 58.2068 79.0986V75.9754C58.2068 75.9342 58.215 75.8934 58.2311 75.8554C58.2471 75.8175 58.2706 75.7832 58.3002 75.7545C58.3298 75.7258 58.3649 75.7033 58.4033 75.6885C58.4417 75.6736 58.4827 75.6666 58.5239 75.6679C58.6055 75.6679 58.6837 75.7003 58.7414 75.7579C58.799 75.8156 58.8314 75.8938 58.8314 75.9754V79.0986C58.8327 79.1398 58.8257 79.1808 58.8108 79.2192C58.796 79.2576 58.7735 79.2927 58.7448 79.3223C58.7161 79.3519 58.6818 79.3754 58.6439 79.3914C58.6059 79.4075 58.5651 79.4157 58.5239 79.4157Z" fill="#17262F"></path></g><defs><clipPath id="clip0_5678_16085"><rect width="110.773" height="100" fill="white"></rect></clipPath></defs></svg>