<svg xmlns="http://www.w3.org/2000/svg" width="93" height="110" viewBox="0 0 93 110" fill="none"><g clip-path="url(#clip0_5678_17730)"><path d="M47.7838 110L16.0405 91.6757V86.0946L47.7838 104.419V110Z" fill="#3C3E40"></path><path d="M47.7838 110L79.527 91.6757V86.0946L47.7838 104.419V110Z" fill="#555A5C"></path><path d="M16.027 86.0946L47.7838 104.419L79.527 86.0946L47.7838 67.7703L16.027 86.0946Z" fill="#858B8C"></path><path d="M62.2432 84.8379L49.6757 77.5811V13.8784L62.2432 21.1487V84.8379Z" fill="#004991"></path><path d="M62.2432 84.8378L69.473 80.6216V16.9324L62.2432 21.1486V84.8378Z" fill="#2D6FEB"></path><path d="M49.6757 13.8919L62.2432 21.1486L69.473 16.9324L56.8919 9.67566L49.6757 13.8919Z" fill="#6D8DFA"></path><path d="M3.01351 70.5541L0 68.8514V62.9189L3.01351 64.6216V70.5541Z" fill="#AC5200"></path><path d="M3.01351 70.554L24.3243 58.2432V52.3108L3.01351 64.6216V70.554Z" fill="#EB9500"></path><path d="M0 62.919L3.01351 64.6217L24.3243 52.3109L21.3108 50.6082L0 62.919Z" fill="#FAB03E"></path><path d="M79.527 100.027L13.9054 62.1216V59.5811L79.527 97.4865V100.027Z" fill="#828282"></path><path d="M88.027 92.5946L79.527 97.4865L13.9054 59.5811L22.3919 54.6892L88.027 92.5946Z" fill="#C8BEB2"></path><path d="M69.1622 105.987L3.54054 68.0946V65.5541L69.1622 103.459V105.987Z" fill="#828282"></path><path d="M69.1622 105.987L77.6622 101.095V98.5541L69.1622 103.459V105.987Z" fill="#B3B3B3"></path><path d="M79.527 100.027L88.027 95.1216V92.5946L79.527 97.4865V100.027Z" fill="#B3B3B3"></path><path d="M77.6622 98.5541L69.1622 103.459L3.54054 65.5541L12.027 60.6487L77.6622 98.5541Z" fill="#C8BEB2"></path><path d="M71.2568 110L68.2297 108.297V102.365L71.2568 104.068V110Z" fill="#AC5200"></path><path d="M71.2567 110L92.554 97.6891V91.7567L71.2567 104.068V110Z" fill="#EB9500"></path><path d="M68.2297 102.365L71.2568 104.068L92.5676 91.7568L89.5405 90.0541L68.2297 102.365Z" fill="#FAB03E"></path><path d="M44.9324 63.8109V71.0271C44.9324 71.2163 44.7432 71.3649 44.473 71.446H43.7162H43.6351H43.554V63.8109C43.554 63.6622 43.6892 63.5271 43.9054 63.446C44.1365 63.3919 44.377 63.3919 44.6081 63.446C44.7432 63.5136 44.9324 63.6352 44.9324 63.8109Z" fill="#8F8E8D"></path><path d="M47.2973 57.446V64.7703C47.2973 65.473 46.5811 66.1217 45.527 66.3649C45.4184 66.4064 45.3048 66.4336 45.1892 66.446H45.0405H44.9324H44.8243H44.5135H43.7838H43.4865H43.3649H43.2432H43.0946L42.7432 66.3649H42.5676C42.459 66.3385 42.3544 66.2976 42.2568 66.2433H42.1487L41.8919 66.0271H41.7838C41.6836 65.9626 41.5887 65.8903 41.5 65.8108H41.4324L41.2838 65.6622C41.2403 65.6185 41.2038 65.5684 41.1757 65.5135L41.0946 65.3919C41.0997 65.3515 41.0997 65.3107 41.0946 65.2703V65.2027C41.0873 65.1173 41.0873 65.0314 41.0946 64.946V57.446C41.0946 56.8514 41.6216 56.3244 42.446 56L42.7297 55.8919H42.8649C43.3053 55.7723 43.7599 55.7132 44.2162 55.7162C44.6727 55.7111 45.1276 55.7703 45.5676 55.8919C46.5541 56.1352 47.2973 56.7568 47.2973 57.446Z" fill="#414141"></path><path d="M40.973 64.7703C40.9656 64.8558 40.9656 64.9417 40.973 65.0271V65.0947C40.9781 65.135 40.9781 65.1759 40.973 65.2163L41.0541 65.3379C41.0822 65.3928 41.1186 65.4429 41.1622 65.4865L41.3108 65.6352H41.3784C41.4671 65.7147 41.562 65.787 41.6622 65.8514H41.7703L42.0135 65.973H42.1216L42.3514 66.0676V61.0676H40.973V64.7703Z" fill="#333333"></path><path d="M49.2568 49.1351V61.0811C49.2568 62.2162 48.0946 63.2162 46.3784 63.6892L45.8108 63.8243H45.5811H45.4054H45.2162H44.7162H43.527H43.0405H42.8378H42.6622H42.4324L41.8649 63.6892L41.5676 63.5946L41.0541 63.4054L40.8784 63.3243L40.5405 63.1351L40.3649 63.027C40.2027 62.9189 40.0405 62.8108 39.8919 62.6892L39.7838 62.5811L39.5405 62.3378L39.3108 62.1622L39.1892 61.9054C39.1564 61.8403 39.1293 61.7725 39.1081 61.7027V61.5946C39.0883 61.4556 39.0883 61.3146 39.1081 61.1757V49.1351C39.1081 48.1486 39.9595 47.2838 41.2838 46.7703L41.7568 46.5946H41.9865C43.4649 46.1983 45.0216 46.1983 46.5 46.5946C48.0946 47 49.2568 47.9865 49.2568 49.1351Z" fill="#4E4D4C"></path><path d="M38.9865 61.0811C38.9667 61.22 38.9667 61.361 38.9865 61.5V61.6081L39.0811 61.8108L39.2027 62L39.3784 62.2432L39.6216 62.4865L39.7297 62.5946C39.8784 62.7162 40.0405 62.8243 40.2027 62.9324L40.3784 63.0405L40.7703 63.2297L40.9459 63.3108L41.4595 63.5L41.7567 63.5946L42.3243 63.7297H42.554H42.7297H42.9324H43.2162V53.3108H38.9865V61.0811Z" fill="#302F2D"></path><path d="M51.6216 51.6351V53.6351C51.6216 55.3514 49.8649 56.8514 47.2838 57.5676L46.4324 57.7703H46.0811C45.9911 57.7778 45.9007 57.7778 45.8108 57.7703C45.7164 57.7778 45.6215 57.7778 45.527 57.7703C45.2795 57.7842 45.0313 57.7842 44.7838 57.7703H44.4595H43.3108H42.9865C42.7389 57.7842 42.4908 57.7842 42.2432 57.7703H41.9459H41.6892H41.3378C41.0405 57.7703 40.7568 57.6351 40.473 57.5676L40.0405 57.4324C39.7703 57.3378 39.5 57.2432 39.2568 57.1351L39 57.027L38.4054 56.7568C38.3168 56.7076 38.2311 56.6534 38.1486 56.5946C37.8973 56.4468 37.6578 56.2796 37.4324 56.0946C37.3809 56.0334 37.3218 55.979 37.2568 55.9324C37.1327 55.8129 37.0154 55.6866 36.9054 55.5541C36.8005 55.4442 36.7097 55.3216 36.6351 55.1892C36.5717 55.0977 36.5131 55.003 36.4595 54.9054C36.4064 54.8055 36.3612 54.7016 36.3243 54.5946V54.4324V54.3514C36.2744 54.1435 36.2517 53.93 36.2568 53.7162V51.6351C36.2568 50.1622 37.5405 48.8514 39.527 48.0676C39.7597 47.9658 39.999 47.8801 40.2432 47.8108L40.5405 47.7027C41.6309 47.4233 42.7529 47.2871 43.8784 47.2973C45.0311 47.2782 46.1811 47.4145 47.2973 47.7027C49.8649 48.4189 51.6216 49.9054 51.6216 51.6351Z" fill="#4A7EA1"></path><path d="M47.2973 47.7028H47.1622V57.6082H47.2838C49.8649 56.892 51.6216 55.392 51.6216 53.6757V51.6352C51.6216 49.9055 49.8649 48.419 47.2973 47.7028Z" fill="#528CB3"></path><path d="M42.6892 47.4189C41.9662 47.4523 41.2474 47.5472 40.5405 47.7027L40.2027 47.8108C39.9584 47.8801 39.7191 47.9659 39.4865 48.0676C37.5 48.8514 36.2162 50.1622 36.2162 51.6352V53.6352C36.2112 53.8489 36.2339 54.0624 36.2838 54.2703V54.4595C36.2838 54.5811 36.3784 54.6892 36.4324 54.7838C36.4861 54.8814 36.5447 54.9761 36.6081 55.0676C36.6827 55.2 36.7734 55.3226 36.8784 55.4325C36.9884 55.565 37.1057 55.6913 37.2297 55.8108C37.2948 55.8574 37.3538 55.9118 37.4054 55.973C37.6332 56.1611 37.8774 56.3285 38.1351 56.473C38.2108 56.5347 38.2923 56.589 38.3784 56.6352L38.973 56.9325L39.2297 57.0406C39.473 57.1487 39.7432 57.2433 40.0135 57.3379L40.4459 57.473C40.7297 57.473 41.0135 57.6216 41.3108 57.6757H41.6622H41.9189H42.2162H42.6622L42.6892 47.4189Z" fill="#42708F"></path><path d="M38.527 48.6487C37.1757 49.4325 36.1486 50.446 36.1486 51.6487V53.6487C36.1436 53.8624 36.1663 54.0759 36.2162 54.2838V54.473C36.2162 54.5946 36.3108 54.7027 36.3649 54.7973C36.4185 54.8949 36.4771 54.9896 36.5405 55.0811C36.6151 55.2135 36.7059 55.3361 36.8108 55.446C36.9208 55.5785 37.0381 55.7048 37.1622 55.8244C37.2273 55.8709 37.2863 55.9254 37.3378 55.9865C37.5657 56.1746 37.8099 56.342 38.0676 56.4865C38.1433 56.5482 38.2247 56.6025 38.3108 56.6487H38.4324L38.527 48.6487Z" fill="#3B6480"></path><path d="M51.6216 51.6351C51.6216 53.3514 49.8649 54.8514 47.2838 55.5541C46.1738 55.8547 45.0284 56.0047 43.8784 56C42.7511 55.997 41.6291 55.8471 40.5405 55.5541C37.973 54.8514 36.2162 53.3514 36.2162 51.6351C36.2162 50.1622 37.5 48.8514 39.4865 48.0676C39.7191 47.9658 39.9584 47.8801 40.2027 47.8108L40.5405 47.7027C41.6309 47.4233 42.7529 47.2871 43.8784 47.2973C45.0311 47.2782 46.1811 47.4145 47.2973 47.7027C49.8649 48.4189 51.6216 49.9054 51.6216 51.6351Z" fill="#65ACDC"></path><path d="M54.9459 58.6892L34.2838 46.7568V17.7433L54.9459 29.6757V58.6892Z" fill="#AC5200"></path><path d="M38.1216 44.8513V24.0811L51.1081 31.5946V52.3513L38.1216 44.8513Z" stroke="#964007" stroke-width="0.5" stroke-miterlimit="10"></path><path d="M54.946 58.6891L67.7838 51.3108V22.2972L54.946 29.6756V58.6891Z" fill="#EB9500"></path><path d="M34.2703 17.7568L54.9459 29.6757L67.7973 22.2973L47.1351 10.3649L34.2703 17.7568Z" fill="#F3BF65"></path><path d="M48.7703 44.4189L39.473 32.9729L40.9595 32.0811L48.7703 36.5946V44.4189Z" fill="#A1A4A8"></path><path d="M47.2838 45.3109L39.473 40.7973V32.973L47.2838 37.4865V45.3109Z" fill="#383E47"></path><path d="M48.7703 36.5946L47.2838 37.4865V45.3108L48.7703 44.4189V36.5946Z" fill="#73777D"></path><path d="M40.9865 36.0676L44.3919 40.7163L44.4189 41.4865L40.9865 39.5001V36.0676Z" fill="#339F48"></path><path d="M41.6487 36.4054L44.3919 38V40.7162L41.6487 39.1081V36.4054Z" fill="#17CF77"></path><path d="M40.9865 39.5001L41.6486 39.1082V36.4055L40.9865 36.0676V39.5001Z" fill="#2A8D34"></path><path d="M56.7297 28.6486L67.7838 22.2972V11.9324L60.2703 16.2567L56.7297 28.6486Z" fill="#EB9500"></path><path d="M36.054 16.7162L56.7297 28.6487L60.2703 16.2568L39.6081 4.32434L36.054 16.7162Z" fill="#AC5200"></path><path d="M60.2703 16.2568L67.7838 11.9324L47.1351 0L39.6081 4.32432L60.2703 16.2568Z" fill="#F3BF65"></path><path d="M67.9595 56.1487L57.9595 50.3649V36.3243L67.9595 42.0946V56.1487Z" fill="#5C5C5C"></path><path d="M67.9595 56.1486L73.7568 52.7973V38.7567L67.9595 42.0946V56.1486Z" fill="#7E7E7E"></path><path d="M57.9595 36.3244L67.9595 42.0946L73.7568 38.7568L63.7568 32.973L57.9595 36.3244Z" fill="#A3A3A3"></path><path d="M61.0405 47.6081L61.9459 47.1352C62.3243 46.9325 62.8784 47.1352 63.2973 47.5946L63.446 47.7568L63.5541 47.9054V47.973L63.6351 48.0946C63.6396 48.135 63.6396 48.1758 63.6351 48.2162V48.2973L63.7162 48.4595C63.7131 48.5 63.7131 48.5406 63.7162 48.5811V48.6622C63.7448 48.7322 63.7674 48.8046 63.7838 48.8784C63.7915 48.914 63.7915 48.9509 63.7838 48.9865V49.1757V49.4189C63.7905 49.4863 63.7905 49.5542 63.7838 49.6216C63.7857 49.6622 63.7857 49.7027 63.7838 49.7433V49.8514V49.9189C63.7494 49.9577 63.7082 49.9898 63.6622 50.0135L62.7568 50.4865C62.5501 50.5587 62.3271 50.5704 62.114 50.5201C61.9009 50.4698 61.7066 50.3597 61.5541 50.2027L61.4054 50.0811C61.2014 49.8795 61.0243 49.6524 60.8784 49.4054C60.7265 49.1629 60.6126 48.8986 60.5405 48.6216C60.5676 48.3649 60.6622 47.8108 61.0405 47.6081Z" fill="#C72828"></path><path d="M60.8108 48.9865L63.4324 47.6351C62.9459 47.1757 62.3919 46.973 62.0811 47.1757L61.1757 47.6487C60.6622 47.8108 60.5676 48.3649 60.8108 48.9865Z" fill="#D92B2B"></path><path d="M61.2703 50C61.3685 50.159 61.4817 50.3083 61.6081 50.4459L61.7568 50.5675C61.9093 50.7245 62.1036 50.8347 62.3167 50.8849C62.5298 50.9352 62.7528 50.9236 62.9595 50.8513L63.8649 50.3783C63.9109 50.3546 63.9521 50.3225 63.9865 50.2838V50.2162V50.1081C63.9884 50.0676 63.9884 50.027 63.9865 49.9865C63.9932 49.9191 63.9932 49.8512 63.9865 49.7838V49.5405V49.3513C63.9942 49.3157 63.9942 49.2788 63.9865 49.2432C63.97 49.1694 63.9474 49.0971 63.9189 49.027V48.9459C63.9158 48.9054 63.9158 48.8648 63.9189 48.8243V48.7162L61.2703 50Z" fill="#B52424"></path><path d="M62.0676 50.7432C62.2022 50.8464 62.3599 50.9151 62.5272 50.9434C62.6944 50.9717 62.866 50.9586 63.027 50.9054L63.9324 50.4324C63.9785 50.4087 64.0197 50.3766 64.0541 50.3378V50.2703V50.1622C64.056 50.1217 64.056 50.0811 64.0541 50.0405C64.0607 49.9731 64.0607 49.9052 64.0541 49.8378V49.7297L62.0676 50.7432Z" fill="#A62121"></path><path d="M61.0405 47.6081C61.4189 47.4054 61.973 47.6081 62.3919 48.081C62.599 48.2799 62.7765 48.5074 62.9189 48.7567C63.071 48.9943 63.185 49.2542 63.2567 49.527C63.4324 50.1621 63.3378 50.7027 62.9595 50.8783C62.7528 50.9506 62.5298 50.9622 62.3167 50.9119C62.1036 50.8617 61.9093 50.7515 61.7567 50.5945L61.6081 50.4729C61.4041 50.2713 61.227 50.0442 61.0811 49.7972C60.9292 49.5547 60.8153 49.2904 60.7432 49.0135C60.5676 48.3648 60.6622 47.8108 61.0405 47.6081Z" fill="#F23030"></path><path d="M59.3378 39.6757L66.5676 46.5405L66.5811 47.3108L59.3378 43.1081V39.6757Z" fill="#339F48"></path><path d="M59.9865 40L66.5676 43.8243V46.5405L59.9865 42.7162V40Z" fill="#17CF77"></path><path d="M59.3378 43.1081L59.9865 42.7162V40L59.3378 39.6757V43.1081Z" fill="#2A8D34"></path><path d="M49.1622 99.2568V100.338C49.1622 100.703 48.7838 101.027 48.2297 101.176H48.0405H46.9459H46.7568H46.6622H46.4865L46.3649 101.108L46.2162 100.987L45.9459 100.743C45.9421 100.716 45.9421 100.689 45.9459 100.662C45.9393 100.617 45.9393 100.572 45.9459 100.527V99.446C45.9459 99.1351 46.2162 98.8514 46.6486 98.6757H46.7973H46.8784C47.1157 98.6085 47.3615 98.5767 47.6081 98.5811C47.8591 98.5767 48.1094 98.6086 48.3513 98.6757C48.7838 98.5676 49.1622 98.8919 49.1622 99.2568Z" fill="#594D4D"></path><path d="M48.2297 98.4189V101.203C48.7838 101.054 49.1622 100.73 49.1622 100.365V99.2838C49.1622 98.8919 48.7838 98.5676 48.2297 98.4189Z" fill="#6B5C5C"></path><path d="M47.2973 98.3513C47.1399 98.3375 46.9817 98.3375 46.8243 98.3513H46.7432H46.5946C46.1622 98.527 45.8919 98.8108 45.8919 99.1216V100.203C45.8852 100.247 45.8852 100.293 45.8919 100.338C45.888 100.365 45.888 100.392 45.8919 100.419L45.973 100.5L46.1216 100.622L46.2433 100.689H46.4189H46.5135H46.7027H47.2973V98.3513Z" fill="#473D3D"></path><path d="M46.3378 98.6487C46.0405 98.8108 45.8243 99.0271 45.8243 99.2838V100.365C45.8177 100.41 45.8177 100.455 45.8243 100.5C45.8205 100.527 45.8205 100.554 45.8243 100.581L45.9054 100.662L46.0541 100.784L46.3378 98.6487Z" fill="#383030"></path><path d="M49.1622 99.2568C49.1622 99.6351 48.7838 99.9595 48.2297 100.108C47.9866 100.169 47.7371 100.2 47.4865 100.203C47.2403 100.2 46.9953 100.169 46.7568 100.108C46.2027 99.9595 45.8243 99.6351 45.8243 99.2568C45.8243 98.8784 46.0946 98.6622 46.527 98.4865H46.6757H46.7568C46.994 98.4193 47.2399 98.3874 47.4865 98.3919C47.7375 98.3875 47.9878 98.4193 48.2297 98.4865C48.7838 98.5676 49.1622 98.8919 49.1622 99.2568Z" fill="#847271"></path><path d="M48.5135 98.6486V99.1891C48.5135 99.4189 48.2838 99.6216 47.9459 99.7162H47.8243H47.1486H47.0405H46.9324H46.8378C46.8378 99.7162 46.8378 99.7162 46.8378 99.6351V98.6486C46.8378 98.4459 47.0135 98.2702 47.2703 98.1756H47.3649C47.5127 98.1542 47.6629 98.1542 47.8108 98.1756C47.9632 98.1542 48.1179 98.1542 48.2703 98.1756C48.2838 98.2297 48.5135 98.4324 48.5135 98.6486Z" fill="#C2C2C2"></path><path d="M47.946 98.1351V99.7297C48.2838 99.6351 48.5135 99.4324 48.5135 99.2027V98.6486C48.5135 98.4324 48.2838 98.2297 47.946 98.1351Z" fill="#D4D4D4"></path><path d="M47.2973 98.0946C47.1984 98.0862 47.0989 98.0862 47 98.0946H46.9054C46.6487 98.1892 46.473 98.3648 46.473 98.5675V99.1081C46.473 99.1081 46.473 99.1081 46.473 99.1892H46.5676H46.6757H46.7838H47.2973V98.0946Z" fill="#B0B0B0"></path><path d="M46.7838 98.2567C46.5946 98.3648 46.4595 98.5 46.4595 98.6621V99.2027C46.4595 99.2027 46.4595 99.2027 46.4595 99.2837H46.5541L46.7838 98.2567Z" fill="#A1A1A1"></path><path d="M48.5135 98.6486C48.5135 98.8783 48.2838 99.0675 47.9459 99.1621C47.7936 99.1837 47.6389 99.1837 47.4865 99.1621C47.3386 99.1837 47.1884 99.1837 47.0405 99.1621C46.7027 99.0675 46.4595 98.8783 46.4595 98.6486C46.4595 98.4189 46.6351 98.2702 46.8919 98.1756H46.9865C47.1344 98.1542 47.2846 98.1542 47.4324 98.1756C47.5848 98.1542 47.7395 98.1542 47.8919 98.1756C48.2838 98.2297 48.5135 98.4324 48.5135 98.6486Z" fill="#EDEDED"></path><path d="M23.2838 84.4189V85.5C23.2838 85.8648 22.9054 86.1891 22.3514 86.3378H22.1622H21.0676H20.8784H20.7838H20.6216L20.4865 86.2702L20.2703 86.0135L20.1892 85.9324V85.8513C20.1892 85.8513 20.1892 85.7567 20.1892 85.7162V84.6351C20.1892 84.3243 20.473 84.0405 20.8919 83.8648H21.0541C21.2953 83.7929 21.5456 83.7565 21.7973 83.7567C22.0446 83.7565 22.2905 83.7929 22.527 83.8648C22.973 83.7837 23.2838 84.054 23.2838 84.4189Z" fill="#594D4D"></path><path d="M22.3513 83.5811V86.3513C22.9054 86.2027 23.2838 85.8784 23.2838 85.5135V84.4324C23.2838 84.054 22.973 83.7838 22.3513 83.5811Z" fill="#6B5C5C"></path><path d="M21.3649 83.5135C21.201 83.5218 21.0383 83.5444 20.8784 83.5811H20.7162C20.2973 83.7568 20.0135 84.0406 20.0135 84.3514V85.4325C20.0135 85.4325 20.0135 85.5136 20.0135 85.5676V85.6487L20.0946 85.7298L20.2432 85.8514L20.3784 85.919H20.5405H20.6351H20.8243H21.1216L21.3649 83.5135Z" fill="#473D3D"></path><path d="M20.4595 83.7838C20.1622 83.9595 19.946 84.1757 19.946 84.4325V85.5135C19.946 85.5135 19.946 85.5946 19.946 85.6487V85.7298L20.027 85.8108L20.1757 85.9325L20.4595 83.7838Z" fill="#383030"></path><path d="M23.2838 84.4189C23.2838 84.7973 22.9054 85.1081 22.3514 85.2703C22.1128 85.3308 21.8678 85.3626 21.6216 85.3649C21.371 85.3626 21.1216 85.3309 20.8784 85.2703C20.3243 85.1081 19.946 84.7973 19.946 84.4189C19.946 84.0405 20.2297 83.8243 20.6487 83.6486H20.8108C21.052 83.5767 21.3024 83.5403 21.5541 83.5405C21.8013 83.5403 22.0472 83.5767 22.2838 83.6486C22.973 83.7838 23.2838 84.054 23.2838 84.4189Z" fill="#847271"></path><path d="M22.6486 83.7837V84.3243C22.6486 84.554 22.4054 84.7567 22.0676 84.8513H21.9595H21.2838H21.1622H21.054H20.973H20.8784V83.7837C20.8784 83.581 21.0405 83.4054 21.3108 83.3108H21.4054C21.5578 83.2893 21.7125 83.2893 21.8649 83.3108C22.0127 83.2893 22.1629 83.2893 22.3108 83.3108C22.4054 83.3918 22.6486 83.5945 22.6486 83.7837Z" fill="#C2C2C2"></path><path d="M22.0676 83.2972V84.8918C22.4054 84.7972 22.6486 84.5945 22.6486 84.3648V83.7837C22.6486 83.5945 22.4054 83.3918 22.0676 83.2972Z" fill="#D4D4D4"></path><path d="M21.4595 83.2567C21.3605 83.2492 21.2611 83.2492 21.1622 83.2567H21.0676C20.7973 83.3513 20.6351 83.527 20.6351 83.7297V84.3513H20.7297H20.8108H20.9189H21.0405H21.2162L21.4595 83.2567Z" fill="#B0B0B0"></path><path d="M20.9054 83.4189C20.8219 83.4523 20.749 83.5076 20.6943 83.579C20.6396 83.6503 20.6052 83.7351 20.5946 83.8243V84.446H20.6892L20.9054 83.4189Z" fill="#A1A1A1"></path><path d="M22.6486 83.7837C22.6486 84.0135 22.4054 84.2027 22.0676 84.2972C21.923 84.3415 21.7728 84.3643 21.6216 84.3648C21.466 84.3643 21.3113 84.3415 21.1622 84.2972C20.8243 84.2027 20.5946 84.0135 20.5946 83.7837C20.5946 83.554 20.7568 83.4054 21.027 83.3108H21.1216C21.274 83.2893 21.4287 83.2893 21.5811 83.3108C21.729 83.2893 21.8791 83.2893 22.027 83.3108C22.4054 83.3918 22.6486 83.5945 22.6486 83.7837Z" fill="#EDEDED"></path></g><defs><clipPath id="clip0_5678_17730"><rect width="92.5676" height="110" fill="white"></rect></clipPath></defs></svg>