<svg xmlns="http://www.w3.org/2000/svg" width="85" height="107" viewBox="0 0 85 107" fill="none"><g clip-path="url(#clip0_5678_33107)"><path d="M36.208 14.8887C35.3471 15.6649 34.6642 16.6181 34.2063 17.683C33.7484 18.7478 33.5262 19.8991 33.5549 21.0579C33.5666 22.1926 33.8133 23.3126 34.2795 24.3471C34.7457 25.3817 35.4212 26.3084 36.2634 27.0688C36.5648 27.3232 36.9461 27.4634 37.3404 27.4648C37.57 27.465 37.7971 27.4172 38.0072 27.3245C38.2172 27.2317 38.4055 27.0961 38.56 26.9263C38.7049 26.7581 38.8148 26.5628 38.8834 26.3517C38.9519 26.1407 38.9777 25.918 38.9593 25.6968C38.9409 25.4757 38.8786 25.2604 38.776 25.0636C38.6735 24.8667 38.5327 24.6923 38.3621 24.5504C37.8841 24.0976 37.5029 23.5525 37.2416 22.9481C36.9802 22.3437 36.8441 21.6926 36.8415 21.0342C36.8245 20.3494 36.9574 19.6692 37.231 19.0413C37.5046 18.4134 37.9123 17.8529 38.4254 17.3991C39.2434 16.6386 39.8988 15.7201 40.3521 14.6993C40.8053 13.6784 41.047 12.5763 41.0626 11.4595C41.0943 10.2968 40.8735 9.14108 40.4155 8.07193C39.9575 7.00278 39.2731 6.04564 38.4096 5.26646C38.2473 5.11826 38.0575 5.00347 37.8509 4.92863C37.6443 4.8538 37.425 4.82039 37.2054 4.83032C36.9859 4.84025 36.7705 4.89332 36.5715 4.98649C36.3725 5.07967 36.1938 5.21113 36.0456 5.37337C35.8974 5.53561 35.7826 5.72546 35.7078 5.93206C35.6329 6.13867 35.5995 6.35799 35.6095 6.5775C35.6194 6.79702 35.6725 7.01243 35.7656 7.21143C35.8588 7.41044 35.9903 7.58914 36.1525 7.73734C36.6663 8.18883 37.0745 8.74778 37.3482 9.37459C37.622 10.0014 37.7545 10.6807 37.7364 11.3645C37.7348 12.025 37.5984 12.6782 37.3356 13.2842C37.0728 13.8901 36.6891 14.4361 36.208 14.8887Z" fill="#17262F"></path><path d="M63.5619 14.8887C62.701 15.6649 62.0182 16.6181 61.5603 17.683C61.1023 18.7478 60.8801 19.8991 60.9089 21.0579C60.9206 22.1926 61.1673 23.3126 61.6334 24.3471C62.0996 25.3817 62.7751 26.3084 63.6173 27.0688C63.9572 27.263 64.3545 27.3317 64.7399 27.2629C65.1253 27.1941 65.4743 26.9922 65.726 26.6924C65.9777 26.3926 66.1162 26.0139 66.1172 25.6225C66.1183 25.231 65.9819 24.8516 65.7318 24.5504C65.2568 24.0958 64.878 23.5501 64.6182 22.9461C64.3583 22.342 64.2226 21.6918 64.2192 21.0342C64.1946 20.3586 64.3171 19.6857 64.5783 19.0622C64.8395 18.4386 65.2331 17.8793 65.7318 17.4229C66.5482 16.6636 67.2015 15.7462 67.6522 14.7265C68.1028 13.7067 68.3413 12.606 68.3532 11.4912C68.394 10.3256 68.1807 9.16504 67.728 8.09014C67.2754 7.01524 66.5942 6.05172 65.7318 5.26646C65.5696 5.11826 65.3798 5.00347 65.1732 4.92863C64.9666 4.8538 64.7472 4.82039 64.5277 4.83032C64.0844 4.85037 63.6672 5.04571 63.3679 5.37337C63.0686 5.70103 62.9117 6.13417 62.9317 6.5775C62.9518 7.02083 63.1471 7.43804 63.4748 7.73734C63.9886 8.18883 64.3968 8.74778 64.6705 9.37459C64.9442 10.0014 65.0768 10.6807 65.0587 11.3645C65.0593 12.0224 64.9271 12.6737 64.6699 13.2793C64.4127 13.8849 64.0358 14.4323 63.5619 14.8887Z" fill="#17262F"></path><path d="M49.9879 10.0578C49.127 10.834 48.4442 11.7872 47.9862 12.8521C47.5283 13.9169 47.3061 15.0682 47.3349 16.227C47.3466 17.3617 47.5933 18.4817 48.0594 19.5162C48.5256 20.5508 49.2011 21.4775 50.0433 22.2379C50.3454 22.4912 50.7262 22.6312 51.1204 22.6339C51.4622 22.6308 51.7949 22.5235 52.074 22.3263C52.3532 22.129 52.5655 21.8513 52.6826 21.5302C52.7997 21.2091 52.8159 20.8598 52.7293 20.5292C52.6426 20.1986 52.457 19.9023 52.1974 19.6799C51.7195 19.2271 51.3383 18.682 51.0769 18.0776C50.8156 17.4732 50.6795 16.8221 50.6769 16.1637C50.6598 15.4789 50.7928 14.7987 51.0664 14.1708C51.34 13.5429 51.7477 12.9824 52.2608 12.5286C53.081 11.7698 53.7378 10.8517 54.1913 9.83049C54.6447 8.80926 54.8852 7.70631 54.898 6.58901C54.9186 5.42846 54.6871 4.27726 54.2194 3.21487C53.7518 2.15249 53.0593 1.20424 52.1895 0.435559C51.8601 0.148552 51.4314 0.00196664 50.9952 0.0272075C50.5591 0.0524484 50.1501 0.247508 49.856 0.570597C49.562 0.893686 49.4061 1.31911 49.4219 1.75572C49.4376 2.19233 49.6237 2.6054 49.9404 2.90644C50.4556 3.35844 50.8648 3.91861 51.1386 4.54696C51.4123 5.17532 51.5441 5.85637 51.5243 6.54149C51.5215 7.20139 51.3837 7.85373 51.1195 8.45843C50.8553 9.06312 50.4702 9.60739 49.9879 10.0578Z" fill="#17262F"></path><path d="M85 48.2535V35.7644C85 35.3212 84.8239 34.8962 84.5106 34.5828C84.1972 34.2694 83.7722 34.0934 83.329 34.0934H16.6864C16.2481 34.0996 15.8299 34.2787 15.5229 34.5916C15.2159 34.9046 15.0449 35.326 15.0471 35.7644V42.195H1.67101C1.22783 42.195 0.802805 42.3711 0.489429 42.6845C0.176053 42.9978 0 43.4229 0 43.866C0 44.3092 0.176053 44.7343 0.489429 45.0476C0.802805 45.361 1.22783 45.5371 1.67101 45.5371H15.0471V48.2535C15.0553 54.8755 16.9404 61.3595 20.4839 66.9537C24.0274 72.5479 29.0841 77.023 35.0675 79.8602L25.4691 94.5271H20.7887C20.3455 94.5271 19.9205 94.7032 19.6071 95.0165C19.2937 95.3299 19.1177 95.7549 19.1177 96.1981C19.1177 96.6413 19.2937 97.0663 19.6071 97.3797C19.9205 97.6931 20.3455 97.8691 20.7887 97.8691H63.7203C64.067 99.9439 65.053 101.859 66.5406 103.346C68.0282 104.833 69.9431 105.819 72.018 106.165C74.0928 106.511 76.224 106.2 78.1138 105.277C80.0036 104.353 81.5578 102.862 82.5592 101.012C83.5607 99.1623 83.9594 97.0459 83.6997 94.9584C83.44 92.871 82.5349 90.9168 81.1107 89.3687C79.6865 87.8206 77.8144 86.756 75.7559 86.3234C73.6973 85.8909 71.555 86.1121 69.6283 86.9561L64.9953 79.8285C70.971 76.9914 76.0211 72.5202 79.5614 66.9324C83.1016 61.3445 84.9872 54.8684 85 48.2535ZM18.3574 48.2535V37.4354H81.658V46.5745H76.542C76.3123 46.5587 76.0819 46.5903 75.865 46.6673C75.648 46.7444 75.4493 46.8652 75.281 47.0222C75.1127 47.1793 74.9786 47.3693 74.8869 47.5805C74.7951 47.7916 74.7478 48.0193 74.7478 48.2495C74.7478 48.4797 74.7951 48.7074 74.8869 48.9185C74.9786 49.1297 75.1127 49.3197 75.281 49.4767C75.4493 49.6338 75.648 49.7546 75.865 49.8317C76.0819 49.9087 76.3123 49.9403 76.542 49.9245H81.6105C80.9859 58.0249 77.2729 65.5758 71.2389 71.0162C65.2049 76.4567 57.3113 79.3708 49.1896 79.1563C41.0679 78.9417 33.3392 75.6149 27.6009 69.8634C21.8625 64.112 18.5534 56.3756 18.3574 48.2535ZM80.3988 96.1981C80.4066 97.5343 80.0176 98.8427 79.2809 99.9575C78.5443 101.072 77.4932 101.943 76.261 102.46C75.0288 102.977 73.6709 103.116 72.3594 102.86C71.048 102.604 69.842 101.965 68.8944 101.023C67.9468 100.081 67.3002 98.8786 67.0366 97.5687C66.7731 96.2588 66.9044 94.9001 67.4139 93.6648C67.9234 92.4296 68.7882 91.3734 69.8986 90.6302C71.0091 89.8871 72.3152 89.4903 73.6514 89.4903C75.434 89.4903 77.1443 90.1957 78.4086 91.4525C79.6728 92.7094 80.3883 94.4155 80.3988 96.1981ZM66.8327 88.7934C65.1845 90.3038 64.089 92.3221 63.7203 94.5271H29.4685L38.1799 81.1669C45.8352 83.9229 54.2119 83.9229 61.8671 81.1669L66.8327 88.7934Z" fill="#17262F"></path><path d="M69.7629 48.2535C69.7629 47.8123 69.5893 47.3888 69.2796 47.0747C68.9698 46.7605 68.5489 46.5808 68.1077 46.5746H41.7595C41.3352 46.6038 40.9378 46.7929 40.6475 47.1038C40.3573 47.4147 40.1958 47.8242 40.1958 48.2496C40.1958 48.6749 40.3573 49.0844 40.6475 49.3953C40.9378 49.7062 41.3352 49.8953 41.7595 49.9245H68.1077C68.5475 49.9183 68.9673 49.7398 69.2768 49.4273C69.5863 49.1148 69.7608 48.6933 69.7629 48.2535Z" fill="#17262F"></path></g><defs><clipPath id="clip0_5678_33107"><rect width="85" height="106.28" fill="white"></rect></clipPath></defs></svg>